 0
SECTION
 2
ENTITIES
  0
LINE
 8
GROUP0
10
4383.41924683746
20
1545.42279001268
30
1.98515750184924e-005
11
4383.4192468698
21
1963.42324625041
31
1.56814545157147e-005
  0
LINE
 8
GROUP0
10
4383.4192468698
20
1963.42324625041
30
1.56814545157147e-005
11
4358.4192468698
21
1963.42324625209
31
1.60044849700114e-005
  0
LINE
 8
GROUP0
10
4358.4192468698
20
1963.42324625209
30
1.60044849700114e-005
11
4358.41924686862
21
1993.42324625209
31
1.60170841290608e-005
  0
LINE
 8
GROUP0
10
4358.41924686862
20
1993.42324625209
30
1.60170841290608e-005
11
4345.41924686902
21
2006.42324625117
31
1.61501236505046e-005
  0
LINE
 8
GROUP0
10
4315.41924686902
20
2006.42324625209
30
1.67176434842986e-005
11
4345.41924686902
21
2006.42324625117
31
1.61501236505046e-005
  0
LINE
 8
GROUP0
10
4315.41924686902
20
2006.42324625209
30
1.67176434842986e-005
11
4315.41924686979
21
2031.42324625041
31
1.69963879216084e-005
  0
LINE
 8
GROUP0
10
4315.41924686979
20
2031.42324625041
30
1.69963879216084e-005
11
3897.41876804784
21
2031.42324622199
31
3.1766534488753e-005
  0
LINE
 8
GROUP0
10
3897.41876804784
20
2031.42324622199
30
3.1766534488753e-005
11
3897.41876804784
21
2006.42324625209
31
3.17205059580772e-005
  0
LINE
 8
GROUP0
10
3897.41876804784
20
2006.42324625209
30
3.17205059580772e-005
11
3867.41876804784
21
2006.42324625209
31
3.18706888002396e-005
  0
LINE
 8
GROUP0
10
3867.41876804784
20
2006.42324625209
30
3.18706888002396e-005
11
3854.41876811729
21
1993.42324625209
31
3.19501217063589e-005
  0
LINE
 8
GROUP0
10
3854.41876804784
20
1963.42324625209
30
3.17243845174175e-005
11
3854.41876811729
21
1993.42324625209
31
3.19501217063589e-005
  0
LINE
 8
GROUP0
10
3854.41876804784
20
1963.42324625209
30
3.17243845174175e-005
11
3829.41876804784
21
1963.42324622199
31
3.15952779693873e-005
  0
LINE
 8
GROUP0
10
3829.41876804784
20
1963.42324622199
30
3.15952779693873e-005
11
3829.41876799402
21
1545.42279013031
31
0.0
  0
LINE
 8
GROUP0
10
3854.41876802781
20
1545.42279013031
30
1.61516761210123e-007
11
3829.41876799402
21
1545.42279013031
31
0.0
  0
LINE
 8
GROUP0
10
3854.41876802781
20
1545.42279013031
30
1.61516761210123e-007
11
3854.41876802781
21
1515.42279013031
31
4.9712258757495e-006
  0
LINE
 8
GROUP0
10
3867.41876802781
20
1502.42279005232
30
7.12602940282636e-006
11
3854.41876802781
21
1515.42279013031
31
4.9712258757495e-006
  0
LINE
 8
GROUP0
10
3897.41876802781
20
1502.42279013031
30
7.37948663669385e-006
11
3867.41876802781
21
1502.42279005232
31
7.12602940282636e-006
  0
LINE
 8
GROUP0
10
3897.41876799402
20
1477.42279013031
30
1.14765095474922e-005
11
3897.41876802781
21
1502.42279013031
31
7.37948663669385e-006
  0
LINE
 8
GROUP0
10
3897.41876799402
20
1477.42279013031
30
1.14765095474922e-005
11
4315.41924683747
21
1477.42279001268
31
2.9490582584657e-005
  0
LINE
 8
GROUP0
10
4315.41924683747
20
1477.42279001268
30
2.9490582584657e-005
11
4315.41924683747
21
1502.42279001268
31
2.63240895968408e-005
  0
LINE
 8
GROUP0
10
4315.41924683747
20
1502.42279001268
30
2.63240895968408e-005
11
4345.41924683747
21
1502.42279001268
31
2.59990345419681e-005
  0
LINE
 8
GROUP0
10
4345.41924683747
20
1502.42279001268
30
2.59990345419681e-005
11
4358.41924661145
21
1515.42278948902
31
2.21925601323392e-005
  0
LINE
 8
GROUP0
10
4358.41924679413
20
1545.42278948902
30
2.02288348269519e-005
11
4358.41924661145
21
1515.42278948902
31
2.21925601323392e-005
  0
LINE
 8
GROUP0
10
4358.41924679413
20
1545.42278948902
30
2.02288348269519e-005
11
4383.41924683746
21
1545.42279001268
31
1.98515750184924e-005
  0
LINE
 8
GROUP0
10
4371.48739522038
20
1932.90537979756
30
1.73703870366637e-005
11
4371.68719606539
21
1932.42301788777
31
1.7368524866157e-005
  0
LINE
 8
GROUP0
10
4371.41924687296
20
1933.42301788777
30
1.73695027854137e-005
11
4371.48739522038
21
1932.90537979756
31
1.73703870366637e-005
  0
LINE
 8
GROUP0
10
4371.48739522038
20
1933.94065597797
30
1.73659324822495e-005
11
4371.41924687296
21
1933.42301788777
31
1.73695027854137e-005
  0
LINE
 8
GROUP0
10
4371.68719606539
20
1934.42301788777
30
1.73599194113194e-005
11
4371.48739522038
21
1933.94065597797
31
1.73659324822495e-005
  0
LINE
 8
GROUP0
10
4372.00503331058
20
1934.83723145014
30
1.7351873347593e-005
11
4371.68719606539
21
1934.42301788777
31
1.73599194113194e-005
  0
LINE
 8
GROUP0
10
4372.41924687296
20
1935.15506869534
30
1.73423424925545e-005
11
4372.00503331058
21
1934.83723145014
31
1.7351873347593e-005
  0
LINE
 8
GROUP0
10
4372.90160878275
20
1935.35486954034
30
1.73319765664814e-005
11
4372.41924687296
21
1935.15506869534
31
1.73423424925545e-005
  0
LINE
 8
GROUP0
10
4373.41924687296
20
1935.42301788777
30
1.73214818694589e-005
11
4372.90160878275
21
1935.35486954034
31
1.73319765664814e-005
  0
LINE
 8
GROUP0
10
4373.93688496316
20
1935.35486954034
30
1.73115736352258e-005
11
4373.41924687296
21
1935.42301788777
31
1.73214818694589e-005
  0
LINE
 8
GROUP0
10
4374.41924687296
20
1935.15506869534
30
1.73029271216762e-005
11
4373.93688496316
21
1935.35486954034
31
1.73115736352258e-005
  0
LINE
 8
GROUP0
10
4374.83346043533
20
1934.83723145014
30
1.72961314987674e-005
11
4374.41924687296
21
1935.15506869534
31
1.73029271216762e-005
  0
LINE
 8
GROUP0
10
4375.15129768053
20
1934.42301788777
30
1.7291649872675e-005
11
4374.83346043533
21
1934.83723145014
31
1.72961314987674e-005
  0
LINE
 8
GROUP0
10
4375.35109852554
20
1933.94065597797
30
1.72897877021683e-005
11
4375.15129768053
21
1934.42301788777
31
1.7291649872675e-005
  0
LINE
 8
GROUP0
10
4375.41924687296
20
1933.42301788777
30
1.72906719534183e-005
11
4375.35109852554
21
1933.94065597797
31
1.72897877021683e-005
  0
LINE
 8
GROUP0
10
4375.35109852554
20
1932.90537979756
30
1.72942422565825e-005
11
4375.41924687296
21
1933.42301788777
31
1.72906719534183e-005
  0
LINE
 8
GROUP0
10
4375.15129768053
20
1932.42301788777
30
1.73002553275126e-005
11
4375.35109852554
21
1932.90537979756
31
1.72942422565825e-005
  0
LINE
 8
GROUP0
10
4374.83346043533
20
1932.00880432539
30
1.73083014814779e-005
11
4375.15129768053
21
1932.42301788777
31
1.73002553275126e-005
  0
LINE
 8
GROUP0
10
4374.41924687296
20
1931.6909670802
30
1.73178322462775e-005
11
4374.83346043533
21
1932.00880432539
31
1.73083014814779e-005
  0
LINE
 8
GROUP0
10
4373.93688496316
20
1931.49116623519
30
1.73281981723505e-005
11
4374.41924687296
21
1931.6909670802
31
1.73178322462775e-005
  0
LINE
 8
GROUP0
10
4373.41924687296
20
1931.42301788777
30
1.73386928693731e-005
11
4373.93688496316
21
1931.49116623519
31
1.73281981723505e-005
  0
LINE
 8
GROUP0
10
4372.90160878275
20
1931.49116623519
30
1.73486011036061e-005
11
4373.41924687296
21
1931.42301788777
31
1.73386928693731e-005
  0
LINE
 8
GROUP0
10
4372.41924687296
20
1931.6909670802
30
1.73572477073947e-005
11
4372.90160878275
21
1931.49116623519
31
1.73486011036061e-005
  0
LINE
 8
GROUP0
10
4372.00503331058
20
1932.00880432539
30
1.73640433303035e-005
11
4372.41924687296
21
1931.6909670802
31
1.73572477073947e-005
  0
LINE
 8
GROUP0
10
4371.68719606539
20
1932.42301788777
30
1.7368524866157e-005
11
4372.00503331058
21
1932.00880432539
31
1.73640433303035e-005
  0
LINE
 8
GROUP0
10
4371.48739522038
20
1753.90537979756
30
1.82632707229402e-005
11
4371.68719606539
21
1753.42301788777
31
1.82614085524335e-005
  0
LINE
 8
GROUP0
10
4371.41924687296
20
1754.42301788777
30
1.82623864716902e-005
11
4371.48739522038
21
1753.90537979756
31
1.82632707229402e-005
  0
LINE
 8
GROUP0
10
4371.48739522038
20
1754.94065597797
30
1.8258816168526e-005
11
4371.41924687296
21
1754.42301788777
31
1.82623864716902e-005
  0
LINE
 8
GROUP0
10
4371.68719606539
20
1755.42301788777
30
1.82528030975959e-005
11
4371.48739522038
21
1754.94065597797
31
1.8258816168526e-005
  0
LINE
 8
GROUP0
10
4372.00503331058
20
1755.83723145014
30
1.82447569436306e-005
11
4371.68719606539
21
1755.42301788777
31
1.82528030975959e-005
  0
LINE
 8
GROUP0
10
4372.41924687296
20
1756.15506869534
30
1.8235226178831e-005
11
4372.00503331058
21
1755.83723145014
31
1.82447569436306e-005
  0
LINE
 8
GROUP0
10
4372.90160878275
20
1756.35486954034
30
1.82248602527579e-005
11
4372.41924687296
21
1756.15506869534
31
1.8235226178831e-005
  0
LINE
 8
GROUP0
10
4373.41924687296
20
1756.42301788777
30
1.82143655557354e-005
11
4372.90160878275
21
1756.35486954034
31
1.82248602527579e-005
  0
LINE
 8
GROUP0
10
4373.93688496316
20
1756.35486954034
30
1.82044573215023e-005
11
4373.41924687296
21
1756.42301788777
31
1.82143655557354e-005
  0
LINE
 8
GROUP0
10
4374.41924687296
20
1756.15506869534
30
1.81958108079527e-005
11
4373.93688496316
21
1756.35486954034
31
1.82044573215023e-005
  0
LINE
 8
GROUP0
10
4374.83346043533
20
1755.83723145014
30
1.8189015094805e-005
11
4374.41924687296
21
1756.15506869534
31
1.81958108079527e-005
  0
LINE
 8
GROUP0
10
4375.15129768053
20
1755.42301788777
30
1.81845335589514e-005
11
4374.83346043533
21
1755.83723145014
31
1.8189015094805e-005
  0
LINE
 8
GROUP0
10
4375.35109852554
20
1754.94065597797
30
1.81826713884448e-005
11
4375.15129768053
21
1755.42301788777
31
1.81845335589514e-005
  0
LINE
 8
GROUP0
10
4375.41924687296
20
1754.42301788777
30
1.81835556396948e-005
11
4375.35109852554
21
1754.94065597797
31
1.81826713884448e-005
  0
LINE
 8
GROUP0
10
4375.35109852554
20
1753.90537979756
30
1.8187125942859e-005
11
4375.41924687296
21
1754.42301788777
31
1.81835556396948e-005
  0
LINE
 8
GROUP0
10
4375.15129768053
20
1753.42301788777
30
1.81931390137891e-005
11
4375.35109852554
21
1753.90537979756
31
1.8187125942859e-005
  0
LINE
 8
GROUP0
10
4374.83346043533
20
1753.00880432539
30
1.82011851677544e-005
11
4375.15129768053
21
1753.42301788777
31
1.81931390137891e-005
  0
LINE
 8
GROUP0
10
4374.41924687296
20
1752.6909670802
30
1.8210715932554e-005
11
4374.83346043533
21
1753.00880432539
31
1.82011851677544e-005
  0
LINE
 8
GROUP0
10
4373.93688496316
20
1752.49116623519
30
1.8221081858627e-005
11
4374.41924687296
21
1752.6909670802
31
1.8210715932554e-005
  0
LINE
 8
GROUP0
10
4373.41924687296
20
1752.42301788777
30
1.82315765556496e-005
11
4373.93688496316
21
1752.49116623519
31
1.8221081858627e-005
  0
LINE
 8
GROUP0
10
4372.90160878275
20
1752.49116623519
30
1.82414847898826e-005
11
4373.41924687296
21
1752.42301788777
31
1.82315765556496e-005
  0
LINE
 8
GROUP0
10
4372.41924687296
20
1752.6909670802
30
1.82501313936712e-005
11
4372.90160878275
21
1752.49116623519
31
1.82414847898826e-005
  0
LINE
 8
GROUP0
10
4372.00503331058
20
1753.00880432539
30
1.825692701658e-005
11
4372.41924687296
21
1752.6909670802
31
1.82501313936712e-005
  0
LINE
 8
GROUP0
10
4371.68719606539
20
1753.42301788777
30
1.82614085524335e-005
11
4372.00503331058
21
1753.00880432539
31
1.825692701658e-005
  0
LINE
 8
GROUP0
10
4371.48739522038
20
1575.94042759644
30
2.00552809147325e-005
11
4371.41924687296
21
1575.42278950623
31
2.00588512178967e-005
  0
LINE
 8
GROUP0
10
4371.68719606539
20
1576.42278950623
30
2.00492678438025e-005
11
4371.48739522038
21
1575.94042759644
31
2.00552809147325e-005
  0
LINE
 8
GROUP0
10
4372.00503331058
20
1576.8370030686
30
2.00412216898371e-005
11
4371.68719606539
21
1576.42278950623
31
2.00492678438025e-005
  0
LINE
 8
GROUP0
10
4372.41924687296
20
1577.1548403138
30
2.00316909250375e-005
11
4372.00503331058
21
1576.8370030686
31
2.00412216898371e-005
  0
LINE
 8
GROUP0
10
4372.90160878275
20
1577.35464115881
30
2.00213249989645e-005
11
4372.41924687296
21
1577.1548403138
31
2.00316909250375e-005
  0
LINE
 8
GROUP0
10
4373.41924687296
20
1577.42278950623
30
2.0010830301942e-005
11
4372.90160878275
21
1577.35464115881
31
2.00213249989645e-005
  0
LINE
 8
GROUP0
10
4373.93688496316
20
1577.35464115881
30
2.00009220677089e-005
11
4373.41924687296
21
1577.42278950623
31
2.0010830301942e-005
  0
LINE
 8
GROUP0
10
4374.41924687296
20
1577.1548403138
30
1.99922754639203e-005
11
4373.93688496316
21
1577.35464115881
31
2.00009220677089e-005
  0
LINE
 8
GROUP0
10
4374.83346043533
20
1576.8370030686
30
1.99854798410115e-005
11
4374.41924687296
21
1577.1548403138
31
1.99922754639203e-005
  0
LINE
 8
GROUP0
10
4375.15129768053
20
1576.42278950623
30
1.9980998305158e-005
11
4374.83346043533
21
1576.8370030686
31
1.99854798410115e-005
  0
LINE
 8
GROUP0
10
4375.35109852554
20
1575.94042759644
30
1.99791361346513e-005
11
4375.15129768053
21
1576.42278950623
31
1.9980998305158e-005
  0
LINE
 8
GROUP0
10
4375.41924687296
20
1575.42278950623
30
1.99800203859013e-005
11
4375.35109852554
21
1575.94042759644
31
1.99791361346513e-005
  0
LINE
 8
GROUP0
10
4375.35109852554
20
1574.90515141602
30
1.99835906890655e-005
11
4375.41924687296
21
1575.42278950623
31
1.99800203859013e-005
  0
LINE
 8
GROUP0
10
4375.15129768053
20
1574.42278950623
30
1.99896037599956e-005
11
4375.35109852554
21
1574.90515141602
31
1.99835906890655e-005
  0
LINE
 8
GROUP0
10
4374.83346043533
20
1574.00857594386
30
1.99976499139609e-005
11
4375.15129768053
21
1574.42278950623
31
1.99896037599956e-005
  0
LINE
 8
GROUP0
10
4374.41924687296
20
1573.69073869866
30
2.00071806787605e-005
11
4374.83346043533
21
1574.00857594386
31
1.99976499139609e-005
  0
LINE
 8
GROUP0
10
4373.93688496316
20
1573.49093785365
30
2.00175466048336e-005
11
4374.41924687296
21
1573.69073869866
31
2.00071806787605e-005
  0
LINE
 8
GROUP0
10
4373.41924687296
20
1573.42278950623
30
2.00280413018561e-005
11
4373.93688496316
21
1573.49093785365
31
2.00175466048336e-005
  0
LINE
 8
GROUP0
10
4372.90160878275
20
1573.49093785365
30
2.00379495360892e-005
11
4373.41924687296
21
1573.42278950623
31
2.00280413018561e-005
  0
LINE
 8
GROUP0
10
4372.41924687296
20
1573.69073869866
30
2.00465961398777e-005
11
4372.90160878275
21
1573.49093785365
31
2.00379495360892e-005
  0
LINE
 8
GROUP0
10
4372.00503331058
20
1574.00857594386
30
2.00533917627865e-005
11
4372.41924687296
21
1573.69073869866
31
2.00465961398777e-005
  0
LINE
 8
GROUP0
10
4371.68719606539
20
1574.42278950623
30
2.00578732986401e-005
11
4372.00503331058
21
1574.00857594386
31
2.00533917627865e-005
  0
LINE
 8
GROUP0
10
4371.48739522038
20
1574.90515141602
30
2.00597354691467e-005
11
4371.68719606539
21
1574.42278950623
31
2.00578732986401e-005
  0
LINE
 8
GROUP0
10
4371.41924687296
20
1575.42278950623
30
2.00588512178967e-005
11
4371.48739522038
21
1574.90515141602
31
2.00597354691467e-005
  0
LINE
 8
GROUP0
10
4286.41902321947
20
1489.15484512311
30
1.73599194113194e-005
11
4285.93666130967
21
1489.35464596812
31
1.73659324822495e-005
  0
LINE
 8
GROUP0
10
4286.83323678184
20
1488.83700787791
30
1.7351873347593e-005
11
4286.41902321947
21
1489.15484512311
31
1.73599194113194e-005
  0
LINE
 8
GROUP0
10
4287.15107402704
20
1488.42279431554
30
1.73423424925545e-005
11
4286.83323678184
21
1488.83700787791
31
1.7351873347593e-005
  0
LINE
 8
GROUP0
10
4287.35087487204
20
1487.94043240574
30
1.73319765664814e-005
11
4287.15107402704
21
1488.42279431554
31
1.73423424925545e-005
  0
LINE
 8
GROUP0
10
4287.41902321947
20
1487.42279431554
30
1.73214818694589e-005
11
4287.35087487204
21
1487.94043240574
31
1.73319765664814e-005
  0
LINE
 8
GROUP0
10
4287.35087487204
20
1486.90515622533
30
1.73115736352258e-005
11
4287.41902321947
21
1487.42279431554
31
1.73214818694589e-005
  0
LINE
 8
GROUP0
10
4287.15107402704
20
1486.42279431554
30
1.73029271216762e-005
11
4287.35087487204
21
1486.90515622533
31
1.73115736352258e-005
  0
LINE
 8
GROUP0
10
4286.83323678184
20
1486.00858075317
30
1.72961314987674e-005
11
4287.15107402704
21
1486.42279431554
31
1.73029271216762e-005
  0
LINE
 8
GROUP0
10
4286.41902321947
20
1485.69074350797
30
1.7291649872675e-005
11
4286.83323678184
21
1486.00858075317
31
1.72961314987674e-005
  0
LINE
 8
GROUP0
10
4285.93666130967
20
1485.49094266296
30
1.72897877021683e-005
11
4286.41902321947
21
1485.69074350797
31
1.7291649872675e-005
  0
LINE
 8
GROUP0
10
4285.41902321947
20
1485.42279431554
30
1.72906719534183e-005
11
4285.93666130967
21
1485.49094266296
31
1.72897877021683e-005
  0
LINE
 8
GROUP0
10
4284.90138512926
20
1485.49094266296
30
1.72942422565825e-005
11
4285.41902321947
21
1485.42279431554
31
1.72906719534183e-005
  0
LINE
 8
GROUP0
10
4284.41902321947
20
1485.69074350797
30
1.73002553275126e-005
11
4284.90138512926
21
1485.49094266296
31
1.72942422565825e-005
  0
LINE
 8
GROUP0
10
4284.00480965709
20
1486.00858075317
30
1.73083014814779e-005
11
4284.41902321947
21
1485.69074350797
31
1.73002553275126e-005
  0
LINE
 8
GROUP0
10
4283.6869724119
20
1486.42279431554
30
1.73178322462775e-005
11
4284.00480965709
21
1486.00858075317
31
1.73083014814779e-005
  0
LINE
 8
GROUP0
10
4283.48717156689
20
1486.90515622533
30
1.73281981723505e-005
11
4283.6869724119
21
1486.42279431554
31
1.73178322462775e-005
  0
LINE
 8
GROUP0
10
4283.41902321947
20
1487.42279431554
30
1.73386928693731e-005
11
4283.48717156689
21
1486.90515622533
31
1.73281981723505e-005
  0
LINE
 8
GROUP0
10
4283.48717156689
20
1487.94043240574
30
1.73486011036061e-005
11
4283.41902321947
21
1487.42279431554
31
1.73386928693731e-005
  0
LINE
 8
GROUP0
10
4283.6869724119
20
1488.42279431554
30
1.73572477073947e-005
11
4283.48717156689
21
1487.94043240574
31
1.73486011036061e-005
  0
LINE
 8
GROUP0
10
4284.00480965709
20
1488.83700787791
30
1.73640433303035e-005
11
4283.6869724119
21
1488.42279431554
31
1.73572477073947e-005
  0
LINE
 8
GROUP0
10
4284.41902321947
20
1489.15484512311
30
1.7368524866157e-005
11
4284.00480965709
21
1488.83700787791
31
1.73640433303035e-005
  0
LINE
 8
GROUP0
10
4284.90138512926
20
1489.35464596812
30
1.73703870366637e-005
11
4284.41902321947
21
1489.15484512311
31
1.7368524866157e-005
  0
LINE
 8
GROUP0
10
4285.41902321947
20
1489.42279431554
30
1.73695027854137e-005
11
4284.90138512926
21
1489.35464596812
31
1.73703870366637e-005
  0
LINE
 8
GROUP0
10
4285.93666130967
20
1489.35464596812
30
1.73659324822495e-005
11
4285.41902321947
21
1489.42279431554
31
1.73695027854137e-005
  0
LINE
 8
GROUP0
10
4105.90138512926
20
1489.35464596812
30
1.82632707229402e-005
11
4105.41902321947
21
1489.15484512311
31
1.82614085524335e-005
  0
LINE
 8
GROUP0
10
4106.41902321947
20
1489.42279431554
30
1.82623864716902e-005
11
4105.90138512926
21
1489.35464596812
31
1.82632707229402e-005
  0
LINE
 8
GROUP0
10
4106.93666130967
20
1489.35464596812
30
1.8258816168526e-005
11
4106.41902321947
21
1489.42279431554
31
1.82623864716902e-005
  0
LINE
 8
GROUP0
10
4107.41902321947
20
1489.15484512311
30
1.82528030975959e-005
11
4106.93666130967
21
1489.35464596812
31
1.8258816168526e-005
  0
LINE
 8
GROUP0
10
4107.83323678184
20
1488.83700787791
30
1.82447569436306e-005
11
4107.41902321947
21
1489.15484512311
31
1.82528030975959e-005
  0
LINE
 8
GROUP0
10
4108.15107402704
20
1488.42279431554
30
1.8235226178831e-005
11
4107.83323678184
21
1488.83700787791
31
1.82447569436306e-005
  0
LINE
 8
GROUP0
10
4108.35087487204
20
1487.94043240574
30
1.82248602527579e-005
11
4108.15107402704
21
1488.42279431554
31
1.8235226178831e-005
  0
LINE
 8
GROUP0
10
4108.41902321947
20
1487.42279431554
30
1.82143655557354e-005
11
4108.35087487204
21
1487.94043240574
31
1.82248602527579e-005
  0
LINE
 8
GROUP0
10
4108.35087487204
20
1486.90515622533
30
1.82044573215023e-005
11
4108.41902321947
21
1487.42279431554
31
1.82143655557354e-005
  0
LINE
 8
GROUP0
10
4108.15107402704
20
1486.42279431554
30
1.81958108079527e-005
11
4108.35087487204
21
1486.90515622533
31
1.82044573215023e-005
  0
LINE
 8
GROUP0
10
4107.83323678184
20
1486.00858075317
30
1.8189015094805e-005
11
4108.15107402704
21
1486.42279431554
31
1.81958108079527e-005
  0
LINE
 8
GROUP0
10
4107.41902321947
20
1485.69074350797
30
1.81845335589514e-005
11
4107.83323678184
21
1486.00858075317
31
1.8189015094805e-005
  0
LINE
 8
GROUP0
10
4106.93666130967
20
1485.49094266296
30
1.81826713884448e-005
11
4107.41902321947
21
1485.69074350797
31
1.81845335589514e-005
  0
LINE
 8
GROUP0
10
4106.41902321947
20
1485.42279431554
30
1.81835556396948e-005
11
4106.93666130967
21
1485.49094266296
31
1.81826713884448e-005
  0
LINE
 8
GROUP0
10
4105.90138512926
20
1485.49094266296
30
1.8187125942859e-005
11
4106.41902321947
21
1485.42279431554
31
1.81835556396948e-005
  0
LINE
 8
GROUP0
10
4105.41902321947
20
1485.69074350797
30
1.81931390137891e-005
11
4105.90138512926
21
1485.49094266296
31
1.8187125942859e-005
  0
LINE
 8
GROUP0
10
4105.00480965709
20
1486.00858075317
30
1.82011851677544e-005
11
4105.41902321947
21
1485.69074350797
31
1.81931390137891e-005
  0
LINE
 8
GROUP0
10
4104.6869724119
20
1486.42279431554
30
1.8210715932554e-005
11
4105.00480965709
21
1486.00858075317
31
1.82011851677544e-005
  0
LINE
 8
GROUP0
10
4104.48717156689
20
1486.90515622533
30
1.8221081858627e-005
11
4104.6869724119
21
1486.42279431554
31
1.8210715932554e-005
  0
LINE
 8
GROUP0
10
4104.41902321947
20
1487.42279431554
30
1.82315765556496e-005
11
4104.48717156689
21
1486.90515622533
31
1.8221081858627e-005
  0
LINE
 8
GROUP0
10
4104.48717156689
20
1487.94043240574
30
1.82414847898826e-005
11
4104.41902321947
21
1487.42279431554
31
1.82315765556496e-005
  0
LINE
 8
GROUP0
10
4104.6869724119
20
1488.42279431554
30
1.82501313936712e-005
11
4104.48717156689
21
1487.94043240574
31
1.82414847898826e-005
  0
LINE
 8
GROUP0
10
4105.00480965709
20
1488.83700787791
30
1.825692701658e-005
11
4104.6869724119
21
1488.42279431554
31
1.82501313936712e-005
  0
LINE
 8
GROUP0
10
4105.41902321947
20
1489.15484512311
30
1.82614085524335e-005
11
4105.00480965709
21
1488.83700787791
31
1.825692701658e-005
  0
LINE
 8
GROUP0
10
3929.35064649051
20
1487.94043240574
30
2.00213249989645e-005
11
3929.1508456455
21
1488.42279431554
31
2.00316909250375e-005
  0
LINE
 8
GROUP0
10
3929.41879483793
20
1487.42279431554
30
2.0010830301942e-005
11
3929.35064649051
21
1487.94043240574
31
2.00213249989645e-005
  0
LINE
 8
GROUP0
10
3929.35064649051
20
1486.90515622533
30
2.00009220677089e-005
11
3929.41879483793
21
1487.42279431554
31
2.0010830301942e-005
  0
LINE
 8
GROUP0
10
3929.1508456455
20
1486.42279431554
30
1.99922754639203e-005
11
3929.35064649051
21
1486.90515622533
31
2.00009220677089e-005
  0
LINE
 8
GROUP0
10
3928.8330084003
20
1486.00858075317
30
1.99854798410115e-005
11
3929.1508456455
21
1486.42279431554
31
1.99922754639203e-005
  0
LINE
 8
GROUP0
10
3928.41879483793
20
1485.69074350797
30
1.9980998305158e-005
11
3928.8330084003
21
1486.00858075317
31
1.99854798410115e-005
  0
LINE
 8
GROUP0
10
3927.93643292813
20
1485.49094266296
30
1.99791361346513e-005
11
3928.41879483793
21
1485.69074350797
31
1.9980998305158e-005
  0
LINE
 8
GROUP0
10
3927.41879483793
20
1485.42279431554
30
1.99800203859013e-005
11
3927.93643292813
21
1485.49094266296
31
1.99791361346513e-005
  0
LINE
 8
GROUP0
10
3926.90115674772
20
1485.49094266296
30
1.99835906890655e-005
11
3927.41879483793
21
1485.42279431554
31
1.99800203859013e-005
  0
LINE
 8
GROUP0
10
3926.41879483793
20
1485.69074350797
30
1.99896037599956e-005
11
3926.90115674772
21
1485.49094266296
31
1.99835906890655e-005
  0
LINE
 8
GROUP0
10
3926.00458127556
20
1486.00858075317
30
1.99976499139609e-005
11
3926.41879483793
21
1485.69074350797
31
1.99896037599956e-005
  0
LINE
 8
GROUP0
10
3925.68674403036
20
1486.42279431554
30
2.00071806787605e-005
11
3926.00458127556
21
1486.00858075317
31
1.99976499139609e-005
  0
LINE
 8
GROUP0
10
3925.48694318535
20
1486.90515622533
30
2.00175466048336e-005
11
3925.68674403036
21
1486.42279431554
31
2.00071806787605e-005
  0
LINE
 8
GROUP0
10
3925.41879483793
20
1487.42279431554
30
2.00280413018561e-005
11
3925.48694318535
21
1486.90515622533
31
2.00175466048336e-005
  0
LINE
 8
GROUP0
10
3925.48694318535
20
1487.94043240574
30
2.00379495360892e-005
11
3925.41879483793
21
1487.42279431554
31
2.00280413018561e-005
  0
LINE
 8
GROUP0
10
3925.68674403036
20
1488.42279431554
30
2.00465961398777e-005
11
3925.48694318535
21
1487.94043240574
31
2.00379495360892e-005
  0
LINE
 8
GROUP0
10
3926.00458127556
20
1488.83700787791
30
2.00533917627865e-005
11
3925.68674403036
21
1488.42279431554
31
2.00465961398777e-005
  0
LINE
 8
GROUP0
10
3926.41879483793
20
1489.15484512311
30
2.00578732986401e-005
11
3926.00458127556
21
1488.83700787791
31
2.00533917627865e-005
  0
LINE
 8
GROUP0
10
3926.90115674772
20
1489.35464596812
30
2.00597354691467e-005
11
3926.41879483793
21
1489.15484512311
31
2.00578732986401e-005
  0
LINE
 8
GROUP0
10
3927.41879483793
20
1489.42279431554
30
2.00588512178967e-005
11
3926.90115674772
21
1489.35464596812
31
2.00597354691467e-005
  0
LINE
 8
GROUP0
10
3927.93643292813
20
1489.35464596812
30
2.00552809147325e-005
11
3927.41879483793
21
1489.42279431554
31
2.00588512178967e-005
  0
LINE
 8
GROUP0
10
3928.41879483793
20
1489.15484512311
30
2.00492678438025e-005
11
3927.93643292813
21
1489.35464596812
31
2.00552809147325e-005
  0
LINE
 8
GROUP0
10
3928.8330084003
20
1488.83700787791
30
2.00412216898371e-005
11
3928.41879483793
21
1489.15484512311
31
2.00492678438025e-005
  0
LINE
 8
GROUP0
10
3929.1508456455
20
1488.42279431554
30
2.00316909250375e-005
11
3928.8330084003
21
1488.83700787791
31
2.00412216898371e-005
  0
LINE
 8
GROUP0
10
3837.68674883967
20
1576.42301796903
30
1.73002553275126e-005
11
3837.48694799466
21
1575.94065605924
31
1.72942422565825e-005
  0
LINE
 8
GROUP0
10
3838.00458608487
20
1576.8372315314
30
1.73083014814779e-005
11
3837.68674883967
21
1576.42301796903
31
1.73002553275126e-005
  0
LINE
 8
GROUP0
10
3838.41879964724
20
1577.1550687766
30
1.73178322462775e-005
11
3838.00458608487
21
1576.8372315314
31
1.73083014814779e-005
  0
LINE
 8
GROUP0
10
3838.90116155703
20
1577.35486962161
30
1.73281981723505e-005
11
3838.41879964724
21
1577.1550687766
31
1.73178322462775e-005
  0
LINE
 8
GROUP0
10
3839.41879964724
20
1577.42301796903
30
1.73386928693731e-005
11
3838.90116155703
21
1577.35486962161
31
1.73281981723505e-005
  0
LINE
 8
GROUP0
10
3839.93643773744
20
1577.35486962161
30
1.73486011036061e-005
11
3839.41879964724
21
1577.42301796903
31
1.73386928693731e-005
  0
LINE
 8
GROUP0
10
3840.41879964724
20
1577.1550687766
30
1.73572477073947e-005
11
3839.93643773744
21
1577.35486962161
31
1.73486011036061e-005
  0
LINE
 8
GROUP0
10
3840.83301320961
20
1576.8372315314
30
1.73640433303035e-005
11
3840.41879964724
21
1577.1550687766
31
1.73572477073947e-005
  0
LINE
 8
GROUP0
10
3841.15085045481
20
1576.42301796903
30
1.7368524866157e-005
11
3840.83301320961
21
1576.8372315314
31
1.73640433303035e-005
  0
LINE
 8
GROUP0
10
3841.35065129982
20
1575.94065605924
30
1.73703870366637e-005
11
3841.15085045481
21
1576.42301796903
31
1.7368524866157e-005
  0
LINE
 8
GROUP0
10
3841.41879964724
20
1575.42301796903
30
1.73695027854137e-005
11
3841.35065129982
21
1575.94065605924
31
1.73703870366637e-005
  0
LINE
 8
GROUP0
10
3841.35065129982
20
1574.90537987883
30
1.73659324822495e-005
11
3841.41879964724
21
1575.42301796903
31
1.73695027854137e-005
  0
LINE
 8
GROUP0
10
3841.15085045481
20
1574.42301796903
30
1.73599194113194e-005
11
3841.35065129982
21
1574.90537987883
31
1.73659324822495e-005
  0
LINE
 8
GROUP0
10
3840.83301320961
20
1574.00880440666
30
1.7351873347593e-005
11
3841.15085045481
21
1574.42301796903
31
1.73599194113194e-005
  0
LINE
 8
GROUP0
10
3840.41879964724
20
1573.69096716146
30
1.73423424925545e-005
11
3840.83301320961
21
1574.00880440666
31
1.7351873347593e-005
  0
LINE
 8
GROUP0
10
3839.93643773744
20
1573.49116631645
30
1.73319765664814e-005
11
3840.41879964724
21
1573.69096716146
31
1.73423424925545e-005
  0
LINE
 8
GROUP0
10
3839.41879964724
20
1573.42301796903
30
1.73214818694589e-005
11
3839.93643773744
21
1573.49116631645
31
1.73319765664814e-005
  0
LINE
 8
GROUP0
10
3838.90116155703
20
1573.49116631645
30
1.73115736352258e-005
11
3839.41879964724
21
1573.42301796903
31
1.73214818694589e-005
  0
LINE
 8
GROUP0
10
3838.41879964724
20
1573.69096716146
30
1.73029271216762e-005
11
3838.90116155703
21
1573.49116631645
31
1.73115736352258e-005
  0
LINE
 8
GROUP0
10
3838.00458608487
20
1574.00880440666
30
1.72961314987674e-005
11
3838.41879964724
21
1573.69096716146
31
1.73029271216762e-005
  0
LINE
 8
GROUP0
10
3837.68674883967
20
1574.42301796903
30
1.7291649872675e-005
11
3838.00458608487
21
1574.00880440666
31
1.72961314987674e-005
  0
LINE
 8
GROUP0
10
3837.48694799466
20
1574.90537987883
30
1.72897877021683e-005
11
3837.68674883967
21
1574.42301796903
31
1.7291649872675e-005
  0
LINE
 8
GROUP0
10
3837.41879964724
20
1575.42301796903
30
1.72906719534183e-005
11
3837.48694799466
21
1574.90537987883
31
1.72897877021683e-005
  0
LINE
 8
GROUP0
10
3837.48694799466
20
1575.94065605924
30
1.72942422565825e-005
11
3837.41879964724
21
1575.42301796903
31
1.72906719534183e-005
  0
LINE
 8
GROUP0
10
3840.41879964724
20
1752.69096716146
30
1.8235226178831e-005
11
3840.83301320961
21
1753.00880440666
31
1.82447569436306e-005
  0
LINE
 8
GROUP0
10
3839.93643773744
20
1752.49116631645
30
1.82248602527579e-005
11
3840.41879964724
21
1752.69096716146
31
1.8235226178831e-005
  0
LINE
 8
GROUP0
10
3839.41879964724
20
1752.42301796903
30
1.82143655557354e-005
11
3839.93643773744
21
1752.49116631645
31
1.82248602527579e-005
  0
LINE
 8
GROUP0
10
3838.90116155703
20
1752.49116631645
30
1.82044573215023e-005
11
3839.41879964724
21
1752.42301796903
31
1.82143655557354e-005
  0
LINE
 8
GROUP0
10
3838.41879964724
20
1752.69096716146
30
1.81958108079527e-005
11
3838.90116155703
21
1752.49116631645
31
1.82044573215023e-005
  0
LINE
 8
GROUP0
10
3838.00458608487
20
1753.00880440666
30
1.8189015094805e-005
11
3838.41879964724
21
1752.69096716146
31
1.81958108079527e-005
  0
LINE
 8
GROUP0
10
3837.68674883967
20
1753.42301796903
30
1.81845335589514e-005
11
3838.00458608487
21
1753.00880440666
31
1.8189015094805e-005
  0
LINE
 8
GROUP0
10
3837.48694799466
20
1753.90537987883
30
1.81826713884448e-005
11
3837.68674883967
21
1753.42301796903
31
1.81845335589514e-005
  0
LINE
 8
GROUP0
10
3837.41879964724
20
1754.42301796903
30
1.81835556396948e-005
11
3837.48694799466
21
1753.90537987883
31
1.81826713884448e-005
  0
LINE
 8
GROUP0
10
3837.48694799466
20
1754.94065605924
30
1.8187125942859e-005
11
3837.41879964724
21
1754.42301796903
31
1.81835556396948e-005
  0
LINE
 8
GROUP0
10
3837.68674883967
20
1755.42301796903
30
1.81931390137891e-005
11
3837.48694799466
21
1754.94065605924
31
1.8187125942859e-005
  0
LINE
 8
GROUP0
10
3838.00458608487
20
1755.8372315314
30
1.82011851677544e-005
11
3837.68674883967
21
1755.42301796903
31
1.81931390137891e-005
  0
LINE
 8
GROUP0
10
3838.41879964724
20
1756.1550687766
30
1.8210715932554e-005
11
3838.00458608487
21
1755.8372315314
31
1.82011851677544e-005
  0
LINE
 8
GROUP0
10
3838.90116155703
20
1756.35486962161
30
1.8221081858627e-005
11
3838.41879964724
21
1756.1550687766
31
1.8210715932554e-005
  0
LINE
 8
GROUP0
10
3839.41879964724
20
1756.42301796903
30
1.82315765556496e-005
11
3838.90116155703
21
1756.35486962161
31
1.8221081858627e-005
  0
LINE
 8
GROUP0
10
3839.93643773744
20
1756.35486962161
30
1.82414847898826e-005
11
3839.41879964724
21
1756.42301796903
31
1.82315765556496e-005
  0
LINE
 8
GROUP0
10
3840.41879964724
20
1756.1550687766
30
1.82501313936712e-005
11
3839.93643773744
21
1756.35486962161
31
1.82414847898826e-005
  0
LINE
 8
GROUP0
10
3840.83301320961
20
1755.8372315314
30
1.825692701658e-005
11
3840.41879964724
21
1756.1550687766
31
1.82501313936712e-005
  0
LINE
 8
GROUP0
10
3841.15085045481
20
1755.42301796903
30
1.82614085524335e-005
11
3840.83301320961
21
1755.8372315314
31
1.825692701658e-005
  0
LINE
 8
GROUP0
10
3841.35065129982
20
1754.94065605924
30
1.82632707229402e-005
11
3841.15085045481
21
1755.42301796903
31
1.82614085524335e-005
  0
LINE
 8
GROUP0
10
3841.41879964724
20
1754.42301796903
30
1.82623864716902e-005
11
3841.35065129982
21
1754.94065605924
31
1.82632707229402e-005
  0
LINE
 8
GROUP0
10
3841.35065129982
20
1753.90537987883
30
1.8258816168526e-005
11
3841.41879964724
21
1754.42301796903
31
1.82623864716902e-005
  0
LINE
 8
GROUP0
10
3841.15085045481
20
1753.42301796903
30
1.82528030975959e-005
11
3841.35065129982
21
1753.90537987883
31
1.8258816168526e-005
  0
LINE
 8
GROUP0
10
3840.83301320961
20
1753.00880440666
30
1.82447569436306e-005
11
3841.15085045481
21
1753.42301796903
31
1.82528030975959e-005
  0
LINE
 8
GROUP0
10
3841.15085045481
20
1932.42324635057
30
2.00492678438025e-005
11
3841.35065129982
21
1932.90560826036
31
2.00552809147325e-005
  0
LINE
 8
GROUP0
10
3840.83301320961
20
1932.00903278819
30
2.00412216898371e-005
11
3841.15085045481
21
1932.42324635057
31
2.00492678438025e-005
  0
LINE
 8
GROUP0
10
3840.41879964724
20
1931.691195543
30
2.00316909250375e-005
11
3840.83301320961
21
1932.00903278819
31
2.00412216898371e-005
  0
LINE
 8
GROUP0
10
3839.93643773744
20
1931.49139469799
30
2.00213249989645e-005
11
3840.41879964724
21
1931.691195543
31
2.00316909250375e-005
  0
LINE
 8
GROUP0
10
3839.41879964724
20
1931.42324635057
30
2.0010830301942e-005
11
3839.93643773744
21
1931.49139469799
31
2.00213249989645e-005
  0
LINE
 8
GROUP0
10
3838.90116155703
20
1931.49139469799
30
2.00009220677089e-005
11
3839.41879964724
21
1931.42324635057
31
2.0010830301942e-005
  0
LINE
 8
GROUP0
10
3838.41879964724
20
1931.691195543
30
1.99922754639203e-005
11
3838.90116155703
21
1931.49139469799
31
2.00009220677089e-005
  0
LINE
 8
GROUP0
10
3838.00458608487
20
1932.00903278819
30
1.99854798410115e-005
11
3838.41879964724
21
1931.691195543
31
1.99922754639203e-005
  0
LINE
 8
GROUP0
10
3837.68674883967
20
1932.42324635057
30
1.9980998305158e-005
11
3838.00458608487
21
1932.00903278819
31
1.99854798410115e-005
  0
LINE
 8
GROUP0
10
3837.48694799466
20
1932.90560826036
30
1.99791361346513e-005
11
3837.68674883967
21
1932.42324635057
31
1.9980998305158e-005
  0
LINE
 8
GROUP0
10
3837.41879964724
20
1933.42324635057
30
1.99800203859013e-005
11
3837.48694799466
21
1932.90560826036
31
1.99791361346513e-005
  0
LINE
 8
GROUP0
10
3837.48694799466
20
1933.94088444077
30
1.99835906890655e-005
11
3837.41879964724
21
1933.42324635057
31
1.99800203859013e-005
  0
LINE
 8
GROUP0
10
3837.68674883967
20
1934.42324635057
30
1.99896037599956e-005
11
3837.48694799466
21
1933.94088444077
31
1.99835906890655e-005
  0
LINE
 8
GROUP0
10
3838.00458608487
20
1934.83745991294
30
1.99976499139609e-005
11
3837.68674883967
21
1934.42324635057
31
1.99896037599956e-005
  0
LINE
 8
GROUP0
10
3838.41879964724
20
1935.15529715814
30
2.00071806787605e-005
11
3838.00458608487
21
1934.83745991294
31
1.99976499139609e-005
  0
LINE
 8
GROUP0
10
3838.90116155703
20
1935.35509800314
30
2.00175466048336e-005
11
3838.41879964724
21
1935.15529715814
31
2.00071806787605e-005
  0
LINE
 8
GROUP0
10
3839.41879964724
20
1935.42324635057
30
2.00280413018561e-005
11
3838.90116155703
21
1935.35509800314
31
2.00175466048336e-005
  0
LINE
 8
GROUP0
10
3839.93643773744
20
1935.35509800314
30
2.00379495360892e-005
11
3839.41879964724
21
1935.42324635057
31
2.00280413018561e-005
  0
LINE
 8
GROUP0
10
3840.41879964724
20
1935.15529715814
30
2.00465961398777e-005
11
3839.93643773744
21
1935.35509800314
31
2.00379495360892e-005
  0
LINE
 8
GROUP0
10
3840.83301320961
20
1934.83745991294
30
2.00533917627865e-005
11
3840.41879964724
21
1935.15529715814
31
2.00465961398777e-005
  0
LINE
 8
GROUP0
10
3841.15085045481
20
1934.42324635057
30
2.00578732986401e-005
11
3840.83301320961
21
1934.83745991294
31
2.00533917627865e-005
  0
LINE
 8
GROUP0
10
3841.35065129982
20
1933.94088444077
30
2.00597354691467e-005
11
3841.15085045481
21
1934.42324635057
31
2.00578732986401e-005
  0
LINE
 8
GROUP0
10
3841.41879964724
20
1933.42324635057
30
2.00588512178967e-005
11
3841.35065129982
21
1933.94088444077
31
2.00597354691467e-005
  0
LINE
 8
GROUP0
10
3841.35065129982
20
1932.90560826036
30
2.00552809147325e-005
11
3841.41879964724
21
1933.42324635057
31
2.00588512178967e-005
  0
LINE
 8
GROUP0
10
3928.41902330073
20
2019.69119073369
30
1.7368524866157e-005
11
3928.8332368631
21
2020.00902797888
31
1.73640433303035e-005
  0
LINE
 8
GROUP0
10
3927.93666139094
20
2019.49138988868
30
1.73703870366637e-005
11
3928.41902330073
21
2019.69119073369
31
1.7368524866157e-005
  0
LINE
 8
GROUP0
10
3927.41902330073
20
2019.42324154126
30
1.73695027854137e-005
11
3927.93666139094
21
2019.49138988868
31
1.73703870366637e-005
  0
LINE
 8
GROUP0
10
3926.90138521053
20
2019.49138988868
30
1.73659324822495e-005
11
3927.41902330073
21
2019.42324154126
31
1.73695027854137e-005
  0
LINE
 8
GROUP0
10
3926.41902330073
20
2019.69119073369
30
1.73599194113194e-005
11
3926.90138521053
21
2019.49138988868
31
1.73659324822495e-005
  0
LINE
 8
GROUP0
10
3926.00480973836
20
2020.00902797888
30
1.7351873347593e-005
11
3926.41902330073
21
2019.69119073369
31
1.73599194113194e-005
  0
LINE
 8
GROUP0
10
3925.68697249316
20
2020.42324154126
30
1.73423424925545e-005
11
3926.00480973836
21
2020.00902797888
31
1.7351873347593e-005
  0
LINE
 8
GROUP0
10
3925.48717164815
20
2020.90560345105
30
1.73319765664814e-005
11
3925.68697249316
21
2020.42324154126
31
1.73423424925545e-005
  0
LINE
 8
GROUP0
10
3925.41902330073
20
2021.42324154126
30
1.73214818694589e-005
11
3925.48717164815
21
2020.90560345105
31
1.73319765664814e-005
  0
LINE
 8
GROUP0
10
3925.48717164815
20
2021.94087963146
30
1.73115736352258e-005
11
3925.41902330073
21
2021.42324154126
31
1.73214818694589e-005
  0
LINE
 8
GROUP0
10
3925.68697249316
20
2022.42324154126
30
1.73029271216762e-005
11
3925.48717164815
21
2021.94087963146
31
1.73115736352258e-005
  0
LINE
 8
GROUP0
10
3926.00480973836
20
2022.83745510363
30
1.72961314987674e-005
11
3925.68697249316
21
2022.42324154126
31
1.73029271216762e-005
  0
LINE
 8
GROUP0
10
3926.41902330073
20
2023.15529234883
30
1.7291649872675e-005
11
3926.00480973836
21
2022.83745510363
31
1.72961314987674e-005
  0
LINE
 8
GROUP0
10
3926.90138521053
20
2023.35509319384
30
1.72897877021683e-005
11
3926.41902330073
21
2023.15529234883
31
1.7291649872675e-005
  0
LINE
 8
GROUP0
10
3927.41902330073
20
2023.42324154126
30
1.72906719534183e-005
11
3926.90138521053
21
2023.35509319384
31
1.72897877021683e-005
  0
LINE
 8
GROUP0
10
3927.93666139094
20
2023.35509319384
30
1.72942422565825e-005
11
3927.41902330073
21
2023.42324154126
31
1.72906719534183e-005
  0
LINE
 8
GROUP0
10
3928.41902330073
20
2023.15529234883
30
1.73002553275126e-005
11
3927.93666139094
21
2023.35509319384
31
1.72942422565825e-005
  0
LINE
 8
GROUP0
10
3928.8332368631
20
2022.83745510363
30
1.73083014814779e-005
11
3928.41902330073
21
2023.15529234883
31
1.73002553275126e-005
  0
LINE
 8
GROUP0
10
3929.1510741083
20
2022.42324154126
30
1.73178322462775e-005
11
3928.8332368631
21
2022.83745510363
31
1.73083014814779e-005
  0
LINE
 8
GROUP0
10
3929.35087495331
20
2021.94087963146
30
1.73281981723505e-005
11
3929.1510741083
21
2022.42324154126
31
1.73178322462775e-005
  0
LINE
 8
GROUP0
10
3929.41902330073
20
2021.42324154126
30
1.73386928693731e-005
11
3929.35087495331
21
2021.94087963146
31
1.73281981723505e-005
  0
LINE
 8
GROUP0
10
3929.35087495331
20
2020.90560345105
30
1.73486011036061e-005
11
3929.41902330073
21
2021.42324154126
31
1.73386928693731e-005
  0
LINE
 8
GROUP0
10
3929.1510741083
20
2020.42324154126
30
1.73572477073947e-005
11
3929.35087495331
21
2020.90560345105
31
1.73486011036061e-005
  0
LINE
 8
GROUP0
10
3928.8332368631
20
2020.00902797888
30
1.73640433303035e-005
11
3929.1510741083
21
2020.42324154126
31
1.73572477073947e-005
  0
LINE
 8
GROUP0
10
4104.68697249316
20
2022.42324154126
30
1.81958108079527e-005
11
4104.48717164815
21
2021.94087963146
31
1.82044573215023e-005
  0
LINE
 8
GROUP0
10
4105.00480973836
20
2022.83745510363
30
1.8189015094805e-005
11
4104.68697249316
21
2022.42324154126
31
1.81958108079527e-005
  0
LINE
 8
GROUP0
10
4105.41902330073
20
2023.15529234883
30
1.81845335589514e-005
11
4105.00480973836
21
2022.83745510363
31
1.8189015094805e-005
  0
LINE
 8
GROUP0
10
4105.90138521053
20
2023.35509319384
30
1.81826713884448e-005
11
4105.41902330073
21
2023.15529234883
31
1.81845335589514e-005
  0
LINE
 8
GROUP0
10
4106.41902330073
20
2023.42324154126
30
1.81835556396948e-005
11
4105.90138521053
21
2023.35509319384
31
1.81826713884448e-005
  0
LINE
 8
GROUP0
10
4106.93666139094
20
2023.35509319384
30
1.8187125942859e-005
11
4106.41902330073
21
2023.42324154126
31
1.81835556396948e-005
  0
LINE
 8
GROUP0
10
4107.41902330073
20
2023.15529234883
30
1.81931390137891e-005
11
4106.93666139094
21
2023.35509319384
31
1.8187125942859e-005
  0
LINE
 8
GROUP0
10
4107.8332368631
20
2022.83745510363
30
1.82011851677544e-005
11
4107.41902330073
21
2023.15529234883
31
1.81931390137891e-005
  0
LINE
 8
GROUP0
10
4108.1510741083
20
2022.42324154126
30
1.8210715932554e-005
11
4107.8332368631
21
2022.83745510363
31
1.82011851677544e-005
  0
LINE
 8
GROUP0
10
4108.35087495331
20
2021.94087963146
30
1.8221081858627e-005
11
4108.1510741083
21
2022.42324154126
31
1.8210715932554e-005
  0
LINE
 8
GROUP0
10
4108.41902330073
20
2021.42324154126
30
1.82315765556496e-005
11
4108.35087495331
21
2021.94087963146
31
1.8221081858627e-005
  0
LINE
 8
GROUP0
10
4108.35087495331
20
2020.90560345105
30
1.82414847898826e-005
11
4108.41902330073
21
2021.42324154126
31
1.82315765556496e-005
  0
LINE
 8
GROUP0
10
4108.1510741083
20
2020.42324154126
30
1.82501313936712e-005
11
4108.35087495331
21
2020.90560345105
31
1.82414847898826e-005
  0
LINE
 8
GROUP0
10
4107.8332368631
20
2020.00902797888
30
1.825692701658e-005
11
4108.1510741083
21
2020.42324154126
31
1.82501313936712e-005
  0
LINE
 8
GROUP0
10
4107.41902330073
20
2019.69119073369
30
1.82614085524335e-005
11
4107.8332368631
21
2020.00902797888
31
1.825692701658e-005
  0
LINE
 8
GROUP0
10
4106.93666139094
20
2019.49138988868
30
1.82632707229402e-005
11
4107.41902330073
21
2019.69119073369
31
1.82614085524335e-005
  0
LINE
 8
GROUP0
10
4106.41902330073
20
2019.42324154126
30
1.82623864716902e-005
11
4106.93666139094
21
2019.49138988868
31
1.82632707229402e-005
  0
LINE
 8
GROUP0
10
4105.90138521053
20
2019.49138988868
30
1.8258816168526e-005
11
4106.41902330073
21
2019.42324154126
31
1.82623864716902e-005
  0
LINE
 8
GROUP0
10
4105.41902330073
20
2019.69119073369
30
1.82528030975959e-005
11
4105.90138521053
21
2019.49138988868
31
1.8258816168526e-005
  0
LINE
 8
GROUP0
10
4105.00480973836
20
2020.00902797888
30
1.82447569436306e-005
11
4105.41902330073
21
2019.69119073369
31
1.82528030975959e-005
  0
LINE
 8
GROUP0
10
4104.68697249316
20
2020.42324154126
30
1.8235226178831e-005
11
4105.00480973836
21
2020.00902797888
31
1.82447569436306e-005
  0
LINE
 8
GROUP0
10
4104.48717164815
20
2020.90560345105
30
1.82248602527579e-005
11
4104.68697249316
21
2020.42324154126
31
1.8235226178831e-005
  0
LINE
 8
GROUP0
10
4104.41902330073
20
2021.42324154126
30
1.82143655557354e-005
11
4104.48717164815
21
2020.90560345105
31
1.82248602527579e-005
  0
LINE
 8
GROUP0
10
4104.48717164815
20
2021.94087963146
30
1.82044573215023e-005
11
4104.41902330073
21
2021.42324154126
31
1.82143655557354e-005
  0
LINE
 8
GROUP0
10
4285.41925168227
20
2019.42324154126
30
2.00588512178967e-005
11
4285.93688977247
21
2019.49138988868
31
2.00597354691467e-005
  0
LINE
 8
GROUP0
10
4284.90161359206
20
2019.49138988868
30
2.00552809147325e-005
11
4285.41925168227
21
2019.42324154126
31
2.00588512178967e-005
  0
LINE
 8
GROUP0
10
4284.41925168227
20
2019.69119073369
30
2.00492678438025e-005
11
4284.90161359206
21
2019.49138988868
31
2.00552809147325e-005
  0
LINE
 8
GROUP0
10
4284.00503811989
20
2020.00902797888
30
2.00412216898371e-005
11
4284.41925168227
21
2019.69119073369
31
2.00492678438025e-005
  0
LINE
 8
GROUP0
10
4283.6872008747
20
2020.42324154126
30
2.00316909250375e-005
11
4284.00503811989
21
2020.00902797888
31
2.00412216898371e-005
  0
LINE
 8
GROUP0
10
4283.48740002969
20
2020.90560345105
30
2.00213249989645e-005
11
4283.6872008747
21
2020.42324154126
31
2.00316909250375e-005
  0
LINE
 8
GROUP0
10
4283.41925168227
20
2021.42324154126
30
2.0010830301942e-005
11
4283.48740002969
21
2020.90560345105
31
2.00213249989645e-005
  0
LINE
 8
GROUP0
10
4283.48740002969
20
2021.94087963146
30
2.00009220677089e-005
11
4283.41925168227
21
2021.42324154126
31
2.0010830301942e-005
  0
LINE
 8
GROUP0
10
4283.6872008747
20
2022.42324154126
30
1.99922754639203e-005
11
4283.48740002969
21
2021.94087963146
31
2.00009220677089e-005
  0
LINE
 8
GROUP0
10
4284.00503811989
20
2022.83745510363
30
1.99854798410115e-005
11
4283.6872008747
21
2022.42324154126
31
1.99922754639203e-005
  0
LINE
 8
GROUP0
10
4284.41925168227
20
2023.15529234883
30
1.9980998305158e-005
11
4284.00503811989
21
2022.83745510363
31
1.99854798410115e-005
  0
LINE
 8
GROUP0
10
4284.90161359206
20
2023.35509319383
30
1.99791361346513e-005
11
4284.41925168227
21
2023.15529234883
31
1.9980998305158e-005
  0
LINE
 8
GROUP0
10
4285.41925168227
20
2023.42324154126
30
1.99800203859013e-005
11
4284.90161359206
21
2023.35509319383
31
1.99791361346513e-005
  0
LINE
 8
GROUP0
10
4285.93688977247
20
2023.35509319383
30
1.99835906890655e-005
11
4285.41925168227
21
2023.42324154126
31
1.99800203859013e-005
  0
LINE
 8
GROUP0
10
4286.41925168227
20
2023.15529234883
30
1.99896037599956e-005
11
4285.93688977247
21
2023.35509319383
31
1.99835906890655e-005
  0
LINE
 8
GROUP0
10
4286.83346524464
20
2022.83745510363
30
1.99976499139609e-005
11
4286.41925168227
21
2023.15529234883
31
1.99896037599956e-005
  0
LINE
 8
GROUP0
10
4287.15130248984
20
2022.42324154126
30
2.00071806787605e-005
11
4286.83346524464
21
2022.83745510363
31
1.99976499139609e-005
  0
LINE
 8
GROUP0
10
4287.35110333484
20
2021.94087963146
30
2.00175466048336e-005
11
4287.15130248984
21
2022.42324154126
31
2.00071806787605e-005
  0
LINE
 8
GROUP0
10
4287.41925168227
20
2021.42324154126
30
2.00280413018561e-005
11
4287.35110333484
21
2021.94087963146
31
2.00175466048336e-005
  0
LINE
 8
GROUP0
10
4287.35110333484
20
2020.90560345105
30
2.00379495360892e-005
11
4287.41925168227
21
2021.42324154126
31
2.00280413018561e-005
  0
LINE
 8
GROUP0
10
4287.15130248984
20
2020.42324154126
30
2.00465961398777e-005
11
4287.35110333484
21
2020.90560345105
31
2.00379495360892e-005
  0
LINE
 8
GROUP0
10
4286.83346524464
20
2020.00902797888
30
2.00533917627865e-005
11
4287.15130248984
21
2020.42324154126
31
2.00465961398777e-005
  0
LINE
 8
GROUP0
10
4286.41925168227
20
2019.69119073369
30
2.00578732986401e-005
11
4286.83346524464
21
2020.00902797888
31
2.00533917627865e-005
  0
LINE
 8
GROUP0
10
4285.93688977247
20
2019.49138988868
30
2.00597354691467e-005
11
4286.41925168227
21
2019.69119073369
31
2.00578732986401e-005
  0
LINE
 8
GROUP0
10
4108.91900741958
20
1679.42301820879
30
1.21289994382323e-005
11
4108.83382198512
21
1678.77597059606
31
1.21166095432557e-005
  0
LINE
 8
GROUP0
10
4108.83382198512
20
1678.77597059606
30
1.21166095432557e-005
11
4108.58407092869
21
1678.17301820889
31
1.21044809802129e-005
  0
LINE
 8
GROUP0
10
4108.58407092869
20
1678.17301820889
30
1.21044809802129e-005
11
4108.18677437205
21
1677.65525125603
31
1.20934404279183e-005
  0
LINE
 8
GROUP0
10
4108.18677437205
20
1677.65525125603
30
1.20934404279183e-005
11
4107.66900741897
21
1677.25795469968
31
1.2084240118071e-005
  0
LINE
 8
GROUP0
10
4107.66900741897
20
1677.25795469968
30
1.2084240118071e-005
11
4107.06605503166
21
1677.00820364359
31
1.20775070307388e-005
  0
LINE
 8
GROUP0
10
4107.06605503166
20
1677.00820364359
30
1.20775070307388e-005
11
4106.41900741887
21
1676.9230182095
31
1.20737002113458e-005
  0
LINE
 8
GROUP0
10
4106.41900741887
20
1676.9230182095
30
1.20737002113458e-005
11
4105.77195980614
21
1677.00820364396
31
1.20730789163304e-005
  0
LINE
 8
GROUP0
10
4105.77195980614
20
1677.00820364396
30
1.20730789163304e-005
11
4105.16900741897
21
1677.25795470039
31
1.20756855579884e-005
  0
LINE
 8
GROUP0
10
4105.16900741897
20
1677.25795470039
30
1.20756855579884e-005
11
4104.65124046611
21
1677.65525125703
31
1.20813424558719e-005
  0
LINE
 8
GROUP0
10
4104.65124046611
20
1677.65525125703
30
1.20813424558719e-005
11
4104.25394390977
21
1678.17301821011
31
1.20896641092827e-005
  0
LINE
 8
GROUP0
10
4104.25394390977
20
1678.17301821011
30
1.20896641092827e-005
11
4104.00419285367
21
1678.77597059742
31
1.21000833665619e-005
  0
LINE
 8
GROUP0
10
4104.00419285367
20
1678.77597059742
30
1.21000833665619e-005
11
4103.91900741958
21
1679.4230182102
31
1.21118903180673e-005
  0
LINE
 8
GROUP0
10
4103.91900741958
20
1679.4230182102
30
1.21118903180673e-005
11
4104.00419285404
21
1680.07006582293
31
1.21242802130439e-005
  0
LINE
 8
GROUP0
10
4104.00419285404
20
1680.07006582293
30
1.21242802130439e-005
11
4104.25394391047
21
1680.67301821011
31
1.21364087760867e-005
  0
LINE
 8
GROUP0
10
4104.25394391047
20
1680.67301821011
30
1.21364087760867e-005
11
4104.65124046711
21
1681.19078516296
31
1.21474493283813e-005
  0
LINE
 8
GROUP0
10
4104.65124046711
20
1681.19078516296
30
1.21474493283813e-005
11
4105.16900742019
21
1681.58808171931
31
1.21566496382286e-005
  0
LINE
 8
GROUP0
10
4105.16900742019
20
1681.58808171931
30
1.21566496382286e-005
11
4105.7719598075
21
1681.8378327754
31
1.21633827255607e-005
  0
LINE
 8
GROUP0
10
4105.7719598075
20
1681.8378327754
30
1.21633827255607e-005
11
4106.41900742028
21
1681.9230182095
31
1.21671895449538e-005
  0
LINE
 8
GROUP0
10
4106.41900742028
20
1681.9230182095
30
1.21671895449538e-005
11
4107.06605503301
21
1681.83783277504
31
1.21678108399692e-005
  0
LINE
 8
GROUP0
10
4107.06605503301
20
1681.83783277504
30
1.21678108399692e-005
11
4107.66900742019
21
1681.58808171861
31
1.21652041983111e-005
  0
LINE
 8
GROUP0
10
4107.66900742019
20
1681.58808171861
30
1.21652041983111e-005
11
4108.18677437304
21
1681.19078516197
31
1.21595473004277e-005
  0
LINE
 8
GROUP0
10
4108.18677437304
20
1681.19078516197
30
1.21595473004277e-005
11
4108.58407092939
21
1680.67301820889
31
1.21512256470169e-005
  0
LINE
 8
GROUP0
10
4108.58407092939
20
1680.67301820889
30
1.21512256470169e-005
11
4108.83382198548
21
1680.07006582157
31
1.21408063897377e-005
  0
LINE
 8
GROUP0
10
4108.83382198548
20
1680.07006582157
30
1.21408063897377e-005
11
4108.91900741958
21
1679.42301820879
31
1.21289994382323e-005
  0
LINE
 8
GROUP0
10
4008.58407092869
20
1678.17301820889
30
1.21044809802129e-005
11
4008.18677437205
21
1677.65525125603
31
1.20934404279183e-005
  0
LINE
 8
GROUP0
10
4008.18677437205
20
1677.65525125603
30
1.20934404279183e-005
11
4007.66900741897
21
1677.25795469968
31
1.2084240118071e-005
  0
LINE
 8
GROUP0
10
4007.66900741897
20
1677.25795469968
30
1.2084240118071e-005
11
4007.06605503165
21
1677.00820364359
31
1.20775070307388e-005
  0
LINE
 8
GROUP0
10
4007.06605503165
20
1677.00820364359
30
1.20775070307388e-005
11
4006.41900741887
21
1676.9230182095
31
1.20737002113458e-005
  0
LINE
 8
GROUP0
10
4006.41900741887
20
1676.9230182095
30
1.20737002113458e-005
11
4005.77195980614
21
1677.00820364396
31
1.20730789163304e-005
  0
LINE
 8
GROUP0
10
4005.77195980614
20
1677.00820364396
30
1.20730789163304e-005
11
4005.16900741897
21
1677.25795470039
31
1.20756855579884e-005
  0
LINE
 8
GROUP0
10
4005.16900741897
20
1677.25795470039
30
1.20756855579884e-005
11
4004.65124046611
21
1677.65525125703
31
1.20813424558719e-005
  0
LINE
 8
GROUP0
10
4004.65124046611
20
1677.65525125703
30
1.20813424558719e-005
11
4004.25394390977
21
1678.17301821011
31
1.20896641092827e-005
  0
LINE
 8
GROUP0
10
4004.25394390977
20
1678.17301821011
30
1.20896641092827e-005
11
4004.00419285367
21
1678.77597059742
31
1.21000833665619e-005
  0
LINE
 8
GROUP0
10
4004.00419285367
20
1678.77597059742
30
1.21000833665619e-005
11
4003.91900741958
21
1679.4230182102
31
1.21118903180673e-005
  0
LINE
 8
GROUP0
10
4003.91900741958
20
1679.4230182102
30
1.21118903180673e-005
11
4004.00419285404
21
1680.07006582293
31
1.21242802130439e-005
  0
LINE
 8
GROUP0
10
4004.00419285404
20
1680.07006582293
30
1.21242802130439e-005
11
4004.25394391047
21
1680.67301821011
31
1.21364087760867e-005
  0
LINE
 8
GROUP0
10
4004.25394391047
20
1680.67301821011
30
1.21364087760867e-005
11
4004.65124046711
21
1681.19078516296
31
1.21474493283813e-005
  0
LINE
 8
GROUP0
10
4004.65124046711
20
1681.19078516296
30
1.21474493283813e-005
11
4005.16900742019
21
1681.58808171931
31
1.21566496382286e-005
  0
LINE
 8
GROUP0
10
4005.16900742019
20
1681.58808171931
30
1.21566496382286e-005
11
4005.7719598075
21
1681.8378327754
31
1.21633827255607e-005
  0
LINE
 8
GROUP0
10
4005.7719598075
20
1681.8378327754
30
1.21633827255607e-005
11
4006.41900742028
21
1681.9230182095
31
1.21671895449538e-005
  0
LINE
 8
GROUP0
10
4006.41900742028
20
1681.9230182095
30
1.21671895449538e-005
11
4007.06605503301
21
1681.83783277504
31
1.21678108399692e-005
  0
LINE
 8
GROUP0
10
4007.06605503301
20
1681.83783277504
30
1.21678108399692e-005
11
4007.66900742019
21
1681.58808171861
31
1.21652041983111e-005
  0
LINE
 8
GROUP0
10
4007.66900742019
20
1681.58808171861
30
1.21652041983111e-005
11
4008.18677437304
21
1681.19078516197
31
1.21595473004277e-005
  0
LINE
 8
GROUP0
10
4008.18677437304
20
1681.19078516197
30
1.21595473004277e-005
11
4008.58407092939
21
1680.67301820889
31
1.21512256470169e-005
  0
LINE
 8
GROUP0
10
4008.58407092939
20
1680.67301820889
30
1.21512256470169e-005
11
4008.83382198548
21
1680.07006582157
31
1.21408063897377e-005
  0
LINE
 8
GROUP0
10
4008.83382198548
20
1680.07006582157
30
1.21408063897377e-005
11
4008.91900741958
21
1679.42301820879
31
1.21289994382323e-005
  0
LINE
 8
GROUP0
10
4008.91900741958
20
1679.42301820879
30
1.21289994382323e-005
11
4008.83382198512
21
1678.77597059606
31
1.21166095432557e-005
  0
LINE
 8
GROUP0
10
4008.83382198512
20
1678.77597059606
30
1.21166095432557e-005
11
4008.58407092869
21
1678.17301820889
31
1.21044809802129e-005
  0
LINE
 8
GROUP0
10
4204.00419285367
20
1678.77597059742
30
1.21000833665619e-005
11
4203.91900741958
21
1679.4230182102
31
1.21118903180673e-005
  0
LINE
 8
GROUP0
10
4203.91900741958
20
1679.4230182102
30
1.21118903180673e-005
11
4204.00419285404
21
1680.07006582293
31
1.21242802130439e-005
  0
LINE
 8
GROUP0
10
4204.00419285404
20
1680.07006582293
30
1.21242802130439e-005
11
4204.25394391047
21
1680.67301821011
31
1.21364087760867e-005
  0
LINE
 8
GROUP0
10
4204.25394391047
20
1680.67301821011
30
1.21364087760867e-005
11
4204.65124046711
21
1681.19078516296
31
1.21474493283813e-005
  0
LINE
 8
GROUP0
10
4204.65124046711
20
1681.19078516296
30
1.21474493283813e-005
11
4205.16900742019
21
1681.58808171931
31
1.21566496382286e-005
  0
LINE
 8
GROUP0
10
4205.16900742019
20
1681.58808171931
30
1.21566496382286e-005
11
4205.7719598075
21
1681.8378327754
31
1.21633827255607e-005
  0
LINE
 8
GROUP0
10
4205.7719598075
20
1681.8378327754
30
1.21633827255607e-005
11
4206.41900742028
21
1681.9230182095
31
1.21671895449538e-005
  0
LINE
 8
GROUP0
10
4206.41900742028
20
1681.9230182095
30
1.21671895449538e-005
11
4207.06605503301
21
1681.83783277504
31
1.21678108399692e-005
  0
LINE
 8
GROUP0
10
4207.06605503301
20
1681.83783277504
30
1.21678108399692e-005
11
4207.66900742019
21
1681.58808171861
31
1.21652041983111e-005
  0
LINE
 8
GROUP0
10
4207.66900742019
20
1681.58808171861
30
1.21652041983111e-005
11
4208.18677437304
21
1681.19078516197
31
1.21595473004277e-005
  0
LINE
 8
GROUP0
10
4208.18677437304
20
1681.19078516197
30
1.21595473004277e-005
11
4208.58407092939
21
1680.67301820889
31
1.21512256470169e-005
  0
LINE
 8
GROUP0
10
4208.58407092939
20
1680.67301820889
30
1.21512256470169e-005
11
4208.83382198548
21
1680.07006582157
31
1.21408063897377e-005
  0
LINE
 8
GROUP0
10
4208.83382198548
20
1680.07006582157
30
1.21408063897377e-005
11
4208.91900741958
21
1679.42301820879
31
1.21289994382323e-005
  0
LINE
 8
GROUP0
10
4208.91900741958
20
1679.42301820879
30
1.21289994382323e-005
11
4208.83382198512
21
1678.77597059606
31
1.21166095432557e-005
  0
LINE
 8
GROUP0
10
4208.83382198512
20
1678.77597059606
30
1.21166095432557e-005
11
4208.58407092869
21
1678.17301820889
31
1.21044809802129e-005
  0
LINE
 8
GROUP0
10
4208.58407092869
20
1678.17301820889
30
1.21044809802129e-005
11
4208.18677437205
21
1677.65525125603
31
1.20934404279183e-005
  0
LINE
 8
GROUP0
10
4208.18677437205
20
1677.65525125603
30
1.20934404279183e-005
11
4207.66900741897
21
1677.25795469968
31
1.2084240118071e-005
  0
LINE
 8
GROUP0
10
4207.66900741897
20
1677.25795469968
30
1.2084240118071e-005
11
4207.06605503165
21
1677.00820364359
31
1.20775070307388e-005
  0
LINE
 8
GROUP0
10
4207.06605503165
20
1677.00820364359
30
1.20775070307388e-005
11
4206.41900741887
21
1676.9230182095
31
1.20737002113458e-005
  0
LINE
 8
GROUP0
10
4206.41900741887
20
1676.9230182095
30
1.20737002113458e-005
11
4205.77195980614
21
1677.00820364396
31
1.20730789163304e-005
  0
LINE
 8
GROUP0
10
4205.77195980614
20
1677.00820364396
30
1.20730789163304e-005
11
4205.16900741897
21
1677.25795470039
31
1.20756855579884e-005
  0
LINE
 8
GROUP0
10
4205.16900741897
20
1677.25795470039
30
1.20756855579884e-005
11
4204.65124046611
21
1677.65525125703
31
1.20813424558719e-005
  0
LINE
 8
GROUP0
10
4204.65124046611
20
1677.65525125703
30
1.20813424558719e-005
11
4204.25394390976
21
1678.17301821011
31
1.20896641092827e-005
  0
LINE
 8
GROUP0
10
4204.25394390976
20
1678.17301821011
30
1.20896641092827e-005
11
4204.00419285367
21
1678.77597059742
31
1.21000833665619e-005
 0
ENDSEC
 0
EOF
