 0
SECTION
 2
ENTITIES
  0
LINE
 8
Layer0
10
6000.77990159384
20
532.413224913448
30
8.16216209841514e-005
11
6000.77990159384
21
487.413224913448
31
8.16777033044502e-005
  0
LINE
 8
Layer0
10
5904.77990159386
20
26.9132019000077
30
0.0
11
5924.77990159386
21
6.91320195272861
31
1.07912598128479e-006
  0
LINE
 8
Layer0
10
6000.77990159384
20
487.413224913448
30
8.16777033044502e-005
11
5970.77990159384
21
487.413224913448
31
7.51193951712636e-005
  0
LINE
 8
Layer0
10
5904.77990159386
20
26.9132019000077
30
0.0
11
5904.77990159384
21
512.413224913447
31
6.99265311872921e-005
  0
LINE
 8
Layer0
10
6430.27994350175
20
26.913201900012
30
0.000135628637687013
11
6410.27994493343
21
6.91320268421206
31
0.000126977363921199
  0
LINE
 8
Layer0
10
5924.77990159384
20
532.413224913446
30
7.57897255912354e-005
11
5970.77990159384
21
532.413224913448
31
7.51193951712636e-005
  0
LINE
 8
Layer0
10
5924.77990159384
20
532.413224913446
30
7.57897255912354e-005
11
5904.77990159384
21
512.413224913447
31
6.99265311872921e-005
  0
LINE
 8
Layer0
10
6410.27994493343
20
6.91320268421206
30
0.000126977363921199
11
5924.77990159386
21
6.91320195272861
31
1.07912598128479e-006
  0
LINE
 8
Layer0
10
6410.27994350173
20
532.413224913449
30
0.000161525673251717
11
6430.27994350173
21
512.413224913449
31
0.00016270311111537
  0
LINE
 8
Layer0
10
6364.27994350173
20
532.413224913448
30
0.000158610412972848
11
6364.27994350173
21
487.413224913448
31
0.00016123517754032
  0
LINE
 8
Layer0
10
6364.27994350173
20
487.413224913448
30
0.00016123517754032
11
6334.27994350173
21
487.413224913448
31
0.000154706778107005
  0
LINE
 8
Layer0
10
6334.27994350173
20
487.413224913448
30
0.000154706778107005
11
6334.27994350173
21
532.413224913448
31
0.000154706778107005
  0
LINE
 8
Layer0
10
6000.77990159384
20
532.413224913448
30
8.16216209841514e-005
11
6334.27994350173
21
532.413224913448
31
0.000154706778107005
  0
LINE
 8
Layer0
10
6430.27994350173
20
512.413224913449
30
0.00016270311111537
11
6430.27994350175
21
26.913201900012
31
0.000135628637687013
  0
LINE
 8
Layer0
10
6364.27994350173
20
532.413224913448
30
0.000158610412972848
11
6410.27994350173
21
532.413224913449
31
0.000161525673251717
  0
LINE
 8
Layer0
10
5970.77990159384
20
487.413224913448
30
7.51193951712636e-005
11
5970.77990159384
21
532.413224913448
31
7.51193951712636e-005
  0
LINE
 8
Layer0
10
5916.27965657216
20
490.462497593642
30
0.000108401402004432
11
5916.6414280045
21
490.612348227399
31
0.000108295493267718
  0
LINE
 8
Layer0
10
5917.02965657216
20
490.663459487965
30
0.000108196176755371
11
5917.41788513981
21
490.612348227399
31
0.000108110220770463
  0
LINE
 8
Layer0
10
5918.47854531159
20
489.551688055619
30
0.000107995762166091
11
5918.52965657216
21
489.163459487965
31
0.000108034307881866
  0
LINE
 8
Layer0
10
5917.41788513981
20
490.612348227399
30
0.000108110220770463
11
5917.77965657216
21
490.462497593642
31
0.000108043483015052
  0
LINE
 8
Layer0
10
5918.52965657216
20
489.163459487965
30
0.000108034307881866
11
5918.47854531159
21
488.775230920312
31
0.000108097245157168
  0
LINE
 8
Layer0
10
5915.73061846648
20
489.913459487965
30
0.000108604168739035
11
5915.96899640038
21
490.224119659745
31
0.000108506685430498
  0
LINE
 8
Layer0
10
5916.6414280045
20
490.612348227399
30
0.000108295493267718
11
5917.02965657216
21
490.663459487965
31
0.000108196176755371
  0
LINE
 8
Layer0
10
5918.32869467783
20
489.913459487965
30
0.000107984234887581
11
5918.47854531159
21
489.551688055619
31
0.000107995762166091
  0
LINE
 8
Layer0
10
5917.77965657216
20
490.462497593642
30
0.000108043483015052
11
5918.09031674393
21
490.224119659745
31
0.000108000511576201
  0
LINE
 8
Layer0
10
5918.47854531159
20
488.775230920312
30
0.000108097245157168
11
5918.32869467783
21
488.413459487966
31
0.000108180284958337
  0
LINE
 8
Layer0
10
5918.32869467783
20
488.413459487966
30
0.000108180284958337
11
5918.09031674393
21
488.102799316186
31
0.000108277768266873
  0
LINE
 8
Layer0
10
5918.09031674393
20
488.102799316186
30
0.000108277768266873
11
5917.77965657216
21
487.864421382289
31
0.00010838305169294
  0
LINE
 8
Layer0
10
5917.77965657216
20
487.864421382289
30
0.00010838305169294
11
5917.41788513981
21
487.714570748532
31
0.000108488960429654
  0
LINE
 8
Layer0
10
5915.96899640038
20
490.224119659745
30
0.000108506685430498
11
5916.27965657216
21
490.462497593642
31
0.000108401402004432
  0
LINE
 8
Layer0
10
5918.09031674393
20
490.224119659745
30
0.000108000511576201
11
5918.32869467783
21
489.913459487965
31
0.000107984234887581
  0
LINE
 8
Layer0
10
5915.58076783272
20
489.551688055619
30
0.000108687208540204
11
5915.73061846648
21
489.913459487965
31
0.000108604168739035
  0
LINE
 8
Layer0
10
5915.96899640038
20
488.102799316186
30
0.000108783942121171
11
5915.73061846648
21
488.413459487966
31
0.00010880021880979
  0
LINE
 8
Layer0
10
5915.73061846648
20
488.413459487966
30
0.00010880021880979
11
5915.58076783272
21
488.775230920312
31
0.000108788691531281
  0
LINE
 8
Layer0
10
6418.78014660669
20
490.462497593578
30
0.000145018127873442
11
6419.09080677846
21
490.224119659682
31
0.000144920644564905
  0
LINE
 8
Layer0
10
6419.09080677846
20
490.224119659682
30
0.000144920644564905
11
6419.32918471236
21
489.913459487902
31
0.000144815361138839
  0
LINE
 8
Layer0
10
5916.6414280045
20
487.714570748532
30
0.000108674232926909
11
5916.27965657216
21
487.864421382289
31
0.000108740970682319
  0
LINE
 8
Layer0
10
6417.64191803903
20
490.612348227335
30
0.000145202650665688
11
6418.03014660668
21
490.663459487902
31
0.000145164104949913
  0
LINE
 8
Layer0
10
5917.41788513981
20
487.714570748532
30
0.000108488960429654
11
5917.02965657216
21
487.663459487966
31
0.000108588276942001
  0
LINE
 8
Layer0
10
6418.03014660668
20
490.663459487902
30
0.000145164104949913
11
6418.41837517434
21
490.612348227335
31
0.000145101167674611
  0
LINE
 8
Layer0
10
6418.41837517434
20
490.612348227335
30
0.000145101167674611
11
6418.78014660669
21
490.462497593578
31
0.000145018127873442
  0
LINE
 8
Layer0
10
6419.32918471236
20
489.913459487902
30
0.000144815361138839
11
6419.47903534612
21
489.551688055556
31
0.000144709452402125
  0
LINE
 8
Layer0
10
5916.27965657216
20
487.864421382289
30
0.000108740970682319
11
5915.96899640038
21
488.102799316186
31
0.000108783942121171
  0
LINE
 8
Layer0
10
6419.47903534612
20
489.551688055556
30
0.000144709452402125
11
6419.53014660668
21
489.163459487902
31
0.000144610135889778
  0
LINE
 8
Layer0
10
6419.53014660668
20
489.163459487902
30
0.000144610135889778
11
6419.47903534612
21
488.775230920248
31
0.00014452417990487
  0
LINE
 8
Layer0
10
6419.47903534612
20
488.775230920248
30
0.00014452417990487
11
6419.32918471236
21
488.413459487902
31
0.000144457442149459
  0
LINE
 8
Layer0
10
5917.02965657216
20
487.663459487966
30
0.000108588276942001
11
5916.6414280045
21
487.714570748532
31
0.000108674232926909
  0
LINE
 8
Layer0
10
6419.32918471236
20
488.413459487902
30
0.000144457442149459
11
6419.09080677846
21
488.102799316122
31
0.000144414470710608
  0
LINE
 8
Layer0
10
6387.03014660669
20
490.663459487892
30
0.000145164104972473
11
6387.41837517434
21
490.612348227325
31
0.000145101167674611
  0
LINE
 8
Layer0
10
6416.58125786725
20
488.775230920248
30
0.000144902919564061
11
6416.53014660668
21
489.163459487902
31
0.000145002236076408
  0
LINE
 8
Layer0
10
6416.96948643491
20
490.224119659682
30
0.000145197901255578
11
6417.28014660669
21
490.462497593578
31
0.000145214177944197
  0
LINE
 8
Layer0
10
6419.09080677846
20
488.102799316122
30
0.000144414470710608
11
6418.78014660669
21
487.864421382226
31
0.000144398194021989
  0
LINE
 8
Layer0
10
6418.03014660668
20
487.663459487902
30
0.000144448267016273
11
6417.64191803903
21
487.714570748469
31
0.000144511204291575
  0
LINE
 8
Layer0
10
6417.64191803903
20
487.714570748469
30
0.000144511204291575
11
6417.28014660669
21
487.864421382226
31
0.000144594244092744
  0
LINE
 8
Layer0
10
6416.53014660668
20
489.163459487902
30
0.000145002236076408
11
6416.58125786725
21
489.551688055556
31
0.000145088192061316
  0
LINE
 8
Layer0
10
6416.96948643491
20
488.102799316122
30
0.00014469172740128
11
6416.73110850101
21
488.413459487902
31
0.000144797010827347
  0
LINE
 8
Layer0
10
6416.73110850101
20
489.913459487902
30
0.000145154929816727
11
6416.96948643491
21
490.224119659682
31
0.000145197901255578
  0
LINE
 8
Layer0
10
6416.73110850101
20
488.413459487902
30
0.000144797010827347
11
6416.58125786725
21
488.775230920248
31
0.000144902919564061
  0
LINE
 8
Layer0
10
6417.28014660669
20
490.462497593578
30
0.000145214177944197
11
6417.64191803903
21
490.612348227335
31
0.000145202650665688
  0
LINE
 8
Layer0
10
6386.64191803903
20
490.612348227325
30
0.000145202650688248
11
6387.03014660669
21
490.663459487892
31
0.000145164104972473
  0
LINE
 8
Layer0
10
6417.28014660669
20
487.864421382226
30
0.000144594244092744
11
6416.96948643491
21
488.102799316122
31
0.00014469172740128
  0
LINE
 8
Layer0
10
6418.78014660669
20
487.864421382226
30
0.000144398194021989
11
6418.41837517434
21
487.714570748469
31
0.000144409721300498
  0
LINE
 8
Layer0
10
6418.41837517434
20
487.714570748469
30
0.000144409721300498
11
6418.03014660668
21
487.663459487902
31
0.000144448267016273
  0
LINE
 8
Layer0
10
6416.58125786725
20
489.551688055556
30
0.000145088192061316
11
6416.73110850101
21
489.913459487902
31
0.000145154929816727
  0
LINE
 8
Layer0
10
6388.09080677846
20
490.224119659672
30
0.000144920644587465
11
6388.32918471236
21
489.913459487892
31
0.000144815361138839
  0
LINE
 8
Layer0
10
6388.32918471236
20
488.413459487892
30
0.000144457442149459
11
6388.09080677846
21
488.102799316112
31
0.000144414470688048
  0
LINE
 8
Layer0
10
6388.32918471236
20
489.913459487892
30
0.000144815361138839
11
6388.47903534612
21
489.551688055546
31
0.000144709452402125
  0
LINE
 8
Layer0
10
6387.78014660668
20
487.864421382215
30
0.000144398194021989
11
6387.41837517434
21
487.714570748459
31
0.000144409721277938
  0
LINE
 8
Layer0
10
6386.28014660668
20
487.864421382215
30
0.000144594244092744
11
6385.9694864349
21
488.102799316112
31
0.000144691727378721
  0
LINE
 8
Layer0
10
6385.9694864349
20
488.102799316112
30
0.000144691727378721
11
6385.73110850101
21
488.413459487892
31
0.000144797010827347
  0
LINE
 8
Layer0
10
6385.73110850101
20
488.413459487892
30
0.000144797010827347
11
6385.58125786725
21
488.775230920238
31
0.000144902919564061
  0
LINE
 8
Layer0
10
6388.47903534612
20
489.551688055546
30
0.000144709452402125
11
6388.53014660669
21
489.163459487892
31
0.000144610135889778
  0
LINE
 8
Layer0
10
6387.03014660668
20
487.663459487892
30
0.000144448266993713
11
6386.64191803903
21
487.714570748459
31
0.000144511204291575
  0
LINE
 8
Layer0
10
6386.64191803903
20
487.714570748459
30
0.000144511204291575
11
6386.28014660668
21
487.864421382215
31
0.000144594244092744
  0
LINE
 8
Layer0
10
6387.41837517434
20
490.612348227325
30
0.000145101167674611
11
6387.78014660668
21
490.462497593568
31
0.000145018127873442
  0
LINE
 8
Layer0
10
6388.53014660669
20
489.163459487892
30
0.000144610135889778
11
6388.47903534612
21
488.775230920238
31
0.00014452417988231
  0
LINE
 8
Layer0
10
6388.47903534612
20
488.775230920238
30
0.00014452417988231
11
6388.32918471236
21
488.413459487892
31
0.000144457442149459
  0
LINE
 8
Layer0
10
6388.09080677846
20
488.102799316112
30
0.000144414470688048
11
6387.78014660668
21
487.864421382215
31
0.000144398194021989
  0
LINE
 8
Layer0
10
6387.78014660668
20
490.462497593568
30
0.000145018127873442
11
6388.09080677846
21
490.224119659672
31
0.000144920644587465
  0
LINE
 8
Layer0
10
6387.41837517434
20
487.714570748459
30
0.000144409721277938
11
6387.03014660668
21
487.663459487892
31
0.000144448266993713
  0
LINE
 8
Layer0
10
6388.47903534612
20
519.775230920238
30
0.000144524181845007
11
6388.32918471236
21
519.413459487892
31
0.000144457444089596
  0
LINE
 8
Layer0
10
6385.9694864349
20
490.224119659672
30
0.000145197901278138
11
6386.28014660668
21
490.462497593568
31
0.000145214177944197
  0
LINE
 8
Layer0
10
6388.53014660668
20
520.163459487891
30
0.000144610137829915
11
6388.47903534612
21
519.775230920238
31
0.000144524181845007
  0
LINE
 8
Layer0
10
6388.47903534612
20
520.551688055545
30
0.000144709454342262
11
6388.53014660668
21
520.163459487891
31
0.000144610137829915
  0
LINE
 8
Layer0
10
6388.32918471236
20
519.413459487892
30
0.000144457444089596
11
6388.09080677846
21
519.102799316112
31
0.000144414472650745
  0
LINE
 8
Layer0
10
6387.41837517434
20
521.612348227324
30
0.000145101169614748
11
6387.78014660668
21
521.462497593568
31
0.000145018129813579
  0
LINE
 8
Layer0
10
6385.58125786725
20
488.775230920238
30
0.000144902919564061
11
6385.53014660669
21
489.163459487892
31
0.000145002236076408
  0
LINE
 8
Layer0
10
6386.28014660668
20
490.462497593568
30
0.000145214177944197
11
6386.64191803903
21
490.612348227325
31
0.000145202650688248
  0
LINE
 8
Layer0
10
6385.53014660669
20
489.163459487892
30
0.000145002236076408
11
6385.58125786725
21
489.551688055546
31
0.000145088192083875
  0
LINE
 8
Layer0
10
6385.73110850101
20
489.913459487892
30
0.000145154929816727
11
6385.9694864349
21
490.224119659672
31
0.000145197901278138
  0
LINE
 8
Layer0
10
6387.03014660668
20
521.663459487891
30
0.00014516410689005
11
6387.41837517434
21
521.612348227324
31
0.000145101169614748
  0
LINE
 8
Layer0
10
6387.78014660668
20
521.462497593568
30
0.000145018129813579
11
6388.09080677846
21
521.224119659671
31
0.000144920646505042
  0
LINE
 8
Layer0
10
6385.58125786725
20
489.551688055546
30
0.000145088192083875
11
6385.73110850101
21
489.913459487892
31
0.000145154929816727
  0
LINE
 8
Layer0
10
6386.64191803903
20
521.612348227324
30
0.000145202652605825
11
6387.03014660668
21
521.663459487891
31
0.00014516410689005
  0
LINE
 8
Layer0
10
6388.09080677846
20
521.224119659671
30
0.000144920646505042
11
6388.32918471236
21
520.913459487891
31
0.000144815363078976
  0
LINE
 8
Layer0
10
6388.32918471236
20
520.913459487891
30
0.000144815363078976
11
6388.47903534612
21
520.551688055545
31
0.000144709454342262
  0
LINE
 8
Layer0
10
6385.58125786725
20
520.551688055545
30
0.000145088194001453
11
6385.73110850101
21
520.913459487891
31
0.000145154931756863
  0
LINE
 8
Layer0
10
6385.9694864349
20
519.102799316112
30
0.000144691729341417
11
6385.73110850101
21
519.413459487892
31
0.000144797012767484
  0
LINE
 8
Layer0
10
6385.73110850101
20
520.913459487891
30
0.000145154931756863
11
6385.9694864349
21
521.224119659671
31
0.000145197903195715
  0
LINE
 8
Layer0
10
6387.41837517434
20
518.714570748459
30
0.000144409723240635
11
6387.03014660668
21
518.663459487893
31
0.00014444826895641
  0
LINE
 8
Layer0
10
6385.9694864349
20
521.224119659671
30
0.000145197903195715
11
6386.28014660668
21
521.462497593568
31
0.000145214179884334
  0
LINE
 8
Layer0
10
6386.28014660668
20
521.462497593568
30
0.000145214179884334
11
6386.64191803903
21
521.612348227324
31
0.000145202652605825
  0
LINE
 8
Layer0
10
6385.53014660668
20
520.163459487891
30
0.000145002238016545
11
6385.58125786725
21
520.551688055545
31
0.000145088194001453
  0
LINE
 8
Layer0
10
6388.09080677846
20
519.102799316112
30
0.000144414472650745
11
6387.78014660668
21
518.864421382216
31
0.000144398195962125
  0
LINE
 8
Layer0
10
6385.58125786725
20
519.775230920238
30
0.000144902921504197
11
6385.53014660668
21
520.163459487891
31
0.000145002238016545
  0
LINE
 8
Layer0
10
6386.28014660668
20
518.864421382216
30
0.000144594246032881
11
6385.9694864349
21
519.102799316112
31
0.000144691729341417
  0
LINE
 8
Layer0
10
6387.03014660668
20
518.663459487893
30
0.00014444826895641
11
6386.64191803903
21
518.714570748459
31
0.000144511206231712
  0
LINE
 8
Layer0
10
6387.78014660668
20
518.864421382216
30
0.000144398195962125
11
6387.41837517434
21
518.714570748459
31
0.000144409723240635
  0
LINE
 8
Layer0
10
6385.73110850101
20
519.413459487892
30
0.000144797012767484
11
6385.58125786725
21
519.775230920238
31
0.000144902921504197
  0
LINE
 8
Layer0
10
6386.64191803903
20
518.714570748459
30
0.000144511206231712
11
6386.28014660668
21
518.864421382216
31
0.000144594246032881
  0
LINE
 8
Layer0
10
6386.64191803896
20
48.7140807139282
30
0.000132920348148779
11
6386.28014660662
21
48.8639313476851
31
0.000132853610393369
  0
LINE
 8
Layer0
10
6386.28014660662
20
48.8639313476851
30
0.000132853610393369
11
6385.96948643484
21
49.1023092815819
31
0.000132810638954517
  0
LINE
 8
Layer0
10
6388.53014660662
20
50.1629694533615
30
0.000133560273238942
11
6388.47903534605
21
49.7747408857078
31
0.00013349733594108
  0
LINE
 8
Layer0
10
6385.58125786718
20
49.7747408857078
30
0.000132805889544407
11
6385.53014660662
21
50.1629694533615
31
0.000132844435260182
  0
LINE
 8
Layer0
10
6385.53014660662
20
50.1629694533615
30
0.000132844435260182
11
6385.58125786718
21
50.5511980210152
31
0.000132907372535485
  0
LINE
 8
Layer0
10
6385.73110850094
20
50.9129694533614
30
0.000132990412336653
11
6385.96948643484
21
51.2236296251411
31
0.00013308789564519
  0
LINE
 8
Layer0
10
6385.96948643484
20
51.2236296251411
30
0.00013308789564519
11
6386.28014660662
21
51.4620075590379
31
0.000133193179093816
  0
LINE
 8
Layer0
10
6385.96948643484
20
49.1023092815819
30
0.000132810638954517
11
6385.73110850094
21
49.4129694533617
31
0.000132794362265898
  0
LINE
 8
Layer0
10
6385.58125786718
20
50.5511980210152
30
0.000132907372535485
11
6385.73110850094
21
50.9129694533614
31
0.000132990412336653
  0
LINE
 8
Layer0
10
6387.41837517427
20
51.6118581927948
30
0.000133484360327785
11
6387.78014660662
21
51.4620075590379
31
0.000133551098083196
  0
LINE
 8
Layer0
10
6385.73110850094
20
49.4129694533617
30
0.000132794362265898
11
6385.58125786718
21
49.7747408857078
31
0.000132805889544407
  0
LINE
 8
Layer0
10
6387.78014660662
20
51.4620075590379
30
0.000133551098083196
11
6388.0908067784
21
51.2236296251411
31
0.000133594069522047
  0
LINE
 8
Layer0
10
6387.03014660662
20
51.6629694533612
30
0.000133398404320317
11
6387.41837517427
21
51.6118581927948
31
0.000133484360327785
  0
LINE
 8
Layer0
10
6388.0908067784
20
51.2236296251411
30
0.000133594069522047
11
6388.32918471229
21
50.9129694533613
31
0.000133610346210666
  0
LINE
 8
Layer0
10
6386.28014660662
20
51.4620075590379
30
0.000133193179093816
11
6386.64191803896
21
51.6118581927948
31
0.00013329908780797
  0
LINE
 8
Layer0
10
6388.32918471229
20
50.9129694533613
30
0.000133610346210666
11
6388.47903534605
21
50.5511980210152
31
0.000133598818932157
  0
LINE
 8
Layer0
10
6388.47903534605
20
50.5511980210152
30
0.000133598818932157
11
6388.53014660662
21
50.1629694533615
31
0.000133560273238942
  0
LINE
 8
Layer0
10
6386.64191803896
20
51.6118581927948
30
0.00013329908780797
11
6387.03014660662
21
51.6629694533612
31
0.000133398404320317
  0
LINE
 8
Layer0
10
6417.28014660662
20
48.8639313476849
30
0.000132853612333506
11
6416.96948643484
21
49.1023092815817
31
0.000132810640917214
  0
LINE
 8
Layer0
10
6418.41837517427
20
48.714080713928
30
0.000133105622586172
11
6418.03014660662
21
48.6629694533616
31
0.000133006306096384
  0
LINE
 8
Layer0
10
6419.32918471229
20
49.4129694533614
30
0.000133414298057488
11
6419.0908067784
21
49.1023092815816
31
0.000133316814771511
  0
LINE
 8
Layer0
10
6387.41837517427
20
48.7140807139282
30
0.000133105620646035
11
6387.03014660662
21
48.6629694533618
31
0.000133006304156247
  0
LINE
 8
Layer0
10
6417.64191803896
20
48.714080713928
30
0.000132920350111476
11
6417.28014660662
21
48.8639313476849
31
0.000132853612333506
  0
LINE
 8
Layer0
10
6387.78014660662
20
48.8639313476851
30
0.000133211529382748
11
6387.41837517427
21
48.7140807139282
31
0.000133105620646035
  0
LINE
 8
Layer0
10
6388.0908067784
20
49.1023092815819
30
0.000133316812853934
11
6387.78014660662
21
48.8639313476851
31
0.000133211529382748
  0
LINE
 8
Layer0
10
6419.0908067784
20
49.1023092815816
30
0.000133316814771511
11
6418.78014660662
21
48.8639313476849
31
0.000133211531322885
  0
LINE
 8
Layer0
10
6388.32918471229
20
49.4129694533616
30
0.000133414296139911
11
6388.0908067784
21
49.1023092815819
31
0.000133316812853934
  0
LINE
 8
Layer0
10
6418.78014660662
20
48.8639313476849
30
0.000133211531322885
11
6418.41837517427
21
48.714080713928
31
0.000133105622586172
  0
LINE
 8
Layer0
10
6416.96948643484
20
49.1023092815817
30
0.000132810640917214
11
6416.73110850094
21
49.4129694533615
31
0.000132794364206035
  0
LINE
 8
Layer0
10
6418.03014660662
20
48.6629694533616
30
0.000133006306096384
11
6417.64191803896
21
48.714080713928
31
0.000132920350111476
  0
LINE
 8
Layer0
10
6416.73110850094
20
49.4129694533615
30
0.000132794364206035
11
6416.58125786718
21
49.7747408857076
31
0.000132805891507104
  0
LINE
 8
Layer0
10
6388.47903534605
20
49.7747408857078
30
0.00013349733594108
11
6388.32918471229
21
49.4129694533616
31
0.000133414296139911
  0
LINE
 8
Layer0
10
6387.03014660662
20
48.6629694533618
30
0.000133006304156247
11
6386.64191803896
21
48.7140807139282
31
0.000132920348148779
  0
LINE
 8
Layer0
10
6416.58125786718
20
49.7747408857076
30
0.000132805891507104
11
6416.53014660662
21
50.1629694533613
31
0.000132844437200319
  0
LINE
 8
Layer0
10
6419.47903534605
20
49.7747408857075
30
0.000133497337858657
11
6419.32918471229
21
49.4129694533614
31
0.000133414298057488
  0
LINE
 8
Layer0
10
6419.0908067784
20
51.2236296251408
30
0.000133594071462184
11
6419.32918471229
21
50.9129694533611
31
0.000133610348150803
  0
LINE
 8
Layer0
10
6417.64191803896
20
51.6118581927946
30
0.000133299089748107
11
6418.03014660662
21
51.662969453361
31
0.000133398406260454
  0
LINE
 8
Layer0
10
6419.47903534605
20
50.5511980210149
30
0.000133598820872294
11
6419.53014660662
21
50.1629694533612
31
0.000133560275156519
  0
LINE
 8
Layer0
10
6419.53014660662
20
50.1629694533612
30
0.000133560275156519
11
6419.47903534605
21
49.7747408857075
31
0.000133497337858657
  0
LINE
 8
Layer0
10
6387.41837517428
20
17.7140807139282
30
0.000133105620646035
11
6387.03014660663
21
17.6629694533619
31
0.000133006304156247
  0
LINE
 8
Layer0
10
6416.58125786718
20
50.551198021015
30
0.000132907374475622
11
6416.73110850094
21
50.9129694533611
31
0.00013299041427679
  0
LINE
 8
Layer0
10
6419.32918471229
20
50.9129694533611
30
0.000133610348150803
11
6419.47903534605
21
50.5511980210149
31
0.000133598820872294
  0
LINE
 8
Layer0
10
6387.03014660663
20
17.6629694533619
30
0.000133006304156247
11
6386.64191803897
21
17.7140807139283
31
0.000132920348171339
  0
LINE
 8
Layer0
10
6418.41837517427
20
51.6118581927946
30
0.000133484362267922
11
6418.78014660662
21
51.4620075590376
31
0.000133551100000773
  0
LINE
 8
Layer0
10
6416.53014660662
20
50.1629694533613
30
0.000132844437200319
11
6416.58125786718
21
50.551198021015
31
0.000132907374475622
  0
LINE
 8
Layer0
10
6418.03014660662
20
51.662969453361
30
0.000133398406260454
11
6418.41837517427
21
51.6118581927946
31
0.000133484362267922
  0
LINE
 8
Layer0
10
6416.96948643484
20
51.2236296251409
30
0.000133087897585327
11
6417.28014660662
21
51.4620075590377
31
0.000133193181033953
  0
LINE
 8
Layer0
10
6416.73110850094
20
50.9129694533611
30
0.00013299041427679
11
6416.96948643484
21
51.2236296251409
31
0.000133087897585327
  0
LINE
 8
Layer0
10
6417.28014660662
20
51.4620075590377
30
0.000133193181033953
11
6417.64191803896
21
51.6118581927946
31
0.000133299089748107
  0
LINE
 8
Layer0
10
6418.78014660662
20
51.4620075590376
30
0.000133551100000773
11
6419.0908067784
21
51.2236296251408
31
0.000133594071462184
  0
LINE
 8
Layer0
10
6387.41837517428
20
20.6118581927948
30
0.000133484360327785
11
6387.78014660663
21
20.4620075590379
31
0.000133551098060636
  0
LINE
 8
Layer0
10
6386.64191803897
20
17.7140807139283
30
0.000132920348171339
11
6386.28014660663
21
17.8639313476852
31
0.000132853610393369
  0
LINE
 8
Layer0
10
6385.96948643485
20
18.102309281582
30
0.000132810638977077
11
6385.73110850095
21
18.4129694533617
31
0.000132794362265898
  0
LINE
 8
Layer0
10
6387.78014660663
20
20.4620075590379
30
0.000133551098060636
11
6388.09080677841
21
20.2236296251411
31
0.000133594069522047
  0
LINE
 8
Layer0
10
6385.73110850095
20
19.9129694533614
30
0.000132990412336653
11
6385.96948643485
21
20.2236296251412
31
0.00013308789564519
  0
LINE
 8
Layer0
10
6385.53014660663
20
19.1629694533616
30
0.000132844435260182
11
6385.58125786719
21
19.5511980210153
31
0.000132907372535485
  0
LINE
 8
Layer0
10
6386.28014660663
20
20.462007559038
30
0.000133193179093816
11
6386.64191803897
21
20.6118581927949
31
0.00013329908780797
  0
LINE
 8
Layer0
10
6386.28014660663
20
17.8639313476852
30
0.000132853610393369
11
6385.96948643485
21
18.102309281582
31
0.000132810638977077
  0
LINE
 8
Layer0
10
6387.03014660663
20
20.6629694533612
30
0.000133398404320317
11
6387.41837517428
21
20.6118581927948
31
0.000133484360327785
  0
LINE
 8
Layer0
10
6388.3291847123
20
19.9129694533614
30
0.000133610346210666
11
6388.47903534606
21
19.5511980210152
31
0.000133598818932157
  0
LINE
 8
Layer0
10
6385.58125786719
20
19.5511980210153
30
0.000132907372535485
11
6385.73110850095
21
19.9129694533614
31
0.000132990412336653
  0
LINE
 8
Layer0
10
6385.73110850095
20
18.4129694533617
30
0.000132794362265898
11
6385.58125786719
21
18.7747408857079
31
0.000132805889566967
  0
LINE
 8
Layer0
10
6386.64191803897
20
20.6118581927949
30
0.00013329908780797
11
6387.03014660663
21
20.6629694533612
31
0.000133398404320317
  0
LINE
 8
Layer0
10
6388.09080677841
20
20.2236296251411
30
0.000133594069522047
11
6388.3291847123
21
19.9129694533614
31
0.000133610346210666
  0
LINE
 8
Layer0
10
6385.58125786719
20
18.7747408857079
30
0.000132805889566967
11
6385.53014660663
21
19.1629694533616
31
0.000132844435260182
  0
LINE
 8
Layer0
10
6385.96948643485
20
20.2236296251412
30
0.00013308789564519
11
6386.28014660663
21
20.462007559038
31
0.000133193179093816
  0
LINE
 8
Layer0
10
5932.52965657209
20
21.6629694534304
30
9.67883935585334e-005
11
5935.89430415842
21
22.1059337116726
31
9.67883935585334e-005
  0
LINE
 8
Layer0
10
6387.78014660663
20
17.8639313476851
30
0.000133211529382748
11
6387.41837517428
21
17.7140807139282
31
0.000133105620646035
  0
LINE
 8
Layer0
10
6388.53014660663
20
19.1629694533615
30
0.000133560273216382
11
6388.47903534606
21
18.7747408857078
31
0.00013349733591852
  0
LINE
 8
Layer0
10
5945.08669231385
20
31.298321867098
30
9.67883935585334e-005
11
5945.52965657209
21
34.6629694534307
31
9.67883935585334e-005
  0
LINE
 8
Layer0
10
6388.09080677841
20
18.1023092815819
30
0.000133316812831374
11
6387.78014660663
21
17.8639313476851
31
0.000133211529382748
  0
LINE
 8
Layer0
10
5945.52965657209
20
34.6629694534307
30
9.67883935585334e-005
11
5945.08669231385
21
38.0276170397635
31
9.67883935585334e-005
  0
LINE
 8
Layer0
10
6388.47903534606
20
19.5511980210152
30
0.000133598818932157
11
6388.53014660663
21
19.1629694533615
31
0.000133560273216382
  0
LINE
 8
Layer0
10
5941.72204472751
20
43.8553576088557
30
9.67883935585334e-005
11
5939.02965657209
21
45.9212997026282
31
9.67883935585334e-005
  0
LINE
 8
Layer0
10
6388.3291847123
20
18.4129694533617
30
0.000133414296117351
11
6388.09080677841
21
18.1023092815819
31
0.000133316812831374
  0
LINE
 8
Layer0
10
6388.47903534606
20
18.7747408857078
30
0.00013349733591852
11
6388.3291847123
21
18.4129694533617
31
0.000133414296117351
  0
LINE
 8
Layer0
10
5945.08669231385
20
38.0276170397635
30
9.67883935585334e-005
11
5943.78798682129
21
41.1629694534306
31
9.67883935585334e-005
  0
LINE
 8
Layer0
10
5941.72204472751
20
25.4705812980055
30
9.67883935585334e-005
11
5943.78798682129
21
28.1629694534307
31
9.67883935585334e-005
  0
LINE
 8
Layer0
10
5943.78798682129
20
41.1629694534306
30
9.67883935585334e-005
11
5941.72204472751
21
43.8553576088557
31
9.67883935585334e-005
  0
LINE
 8
Layer0
10
5939.02965657209
20
23.4046392042329
30
9.67883935585334e-005
11
5941.72204472751
21
25.4705812980055
31
9.67883935585334e-005
  0
LINE
 8
Layer0
10
5943.78798682129
20
28.1629694534307
30
9.67883935585334e-005
11
5945.08669231385
21
31.298321867098
31
9.67883935585334e-005
  0
LINE
 8
Layer0
10
5935.89430415842
20
22.1059337116726
30
9.67883935585334e-005
11
5939.02965657209
21
23.4046392042329
31
9.67883935585334e-005
  0
LINE
 8
Layer0
10
6393.33775845119
20
25.4705812980049
30
9.67883935585334e-005
11
6396.03014660662
21
23.4046392042325
31
9.67883935585334e-005
  0
LINE
 8
Layer0
10
5919.97262083033
20
31.2983218670972
30
9.67883935585334e-005
11
5921.27132632289
21
28.16296945343
31
9.67883935585334e-005
  0
LINE
 8
Layer0
10
5921.27132632289
20
28.16296945343
30
9.67883935585334e-005
11
5923.33726841666
21
25.4705812980049
31
9.67883935585334e-005
  0
LINE
 8
Layer0
10
5932.52965657209
20
47.6629694534302
30
9.67883935585334e-005
11
5929.16500898576
21
47.220005195188
31
9.67883935585334e-005
  0
LINE
 8
Layer0
10
5919.97262083033
20
38.0276170397627
30
9.67883935585334e-005
11
5919.52965657209
21
34.6629694534299
31
9.67883935585334e-005
  0
LINE
 8
Layer0
10
5926.02965657209
20
23.4046392042325
30
9.67883935585334e-005
11
5929.16500898576
21
22.1059337116724
31
9.67883935585334e-005
  0
LINE
 8
Layer0
10
5929.16500898576
20
47.220005195188
30
9.67883935585334e-005
11
5926.02965657209
21
45.9212997026277
31
9.67883935585334e-005
  0
LINE
 8
Layer0
10
5929.16500898576
20
22.1059337116724
30
9.67883935585334e-005
11
5932.52965657209
21
21.6629694534304
31
9.67883935585334e-005
  0
LINE
 8
Layer0
10
5919.52965657209
20
34.6629694534299
30
9.67883935585334e-005
11
5919.97262083033
21
31.2983218670972
31
9.67883935585334e-005
  0
LINE
 8
Layer0
10
5921.27132632289
20
41.1629694534299
30
9.67883935585334e-005
11
5919.97262083033
21
38.0276170397627
31
9.67883935585334e-005
  0
LINE
 8
Layer0
10
5923.33726841666
20
43.8553576088551
30
9.67883935585334e-005
11
5921.27132632289
21
41.1629694534299
31
9.67883935585334e-005
  0
LINE
 8
Layer0
10
5935.89430415842
20
47.2200051951882
30
9.67883935585334e-005
11
5932.52965657209
21
47.6629694534302
31
9.67883935585334e-005
  0
LINE
 8
Layer0
10
5923.33726841666
20
25.4705812980049
30
9.67883935585334e-005
11
5926.02965657209
21
23.4046392042325
31
9.67883935585334e-005
  0
LINE
 8
Layer0
10
5939.02965657209
20
45.9212997026282
30
9.67883935585334e-005
11
5935.89430415842
21
47.2200051951882
31
9.67883935585334e-005
  0
LINE
 8
Layer0
10
5926.02965657209
20
45.9212997026277
30
9.67883935585334e-005
11
5923.33726841666
21
43.8553576088551
31
9.67883935585334e-005
  0
LINE
 8
Layer0
10
6396.03014660662
20
23.4046392042325
30
9.67883935585334e-005
11
6399.16549902029
21
22.1059337116724
31
9.67883935585334e-005
  0
LINE
 8
Layer0
10
6415.08718234838
20
31.298321867098
30
9.67883935585334e-005
11
6415.53014660662
21
34.6629694534307
31
9.67883935585334e-005
  0
LINE
 8
Layer0
10
6389.53014660662
20
34.6629694534299
30
9.67883935585334e-005
11
6389.97311086486
21
31.2983218670972
31
9.67883935585334e-005
  0
LINE
 8
Layer0
10
6389.97311086486
20
38.0276170397627
30
9.67883935585334e-005
11
6389.53014660662
21
34.6629694534299
31
9.67883935585334e-005
  0
LINE
 8
Layer0
10
6391.27181635742
20
41.1629694534299
30
9.67883935585334e-005
11
6389.97311086486
21
38.0276170397627
31
9.67883935585334e-005
  0
LINE
 8
Layer0
10
6402.53014660662
20
47.6629694534302
30
9.67883935585334e-005
11
6399.16549902029
21
47.220005195188
31
9.67883935585334e-005
  0
LINE
 8
Layer0
10
6405.89479419295
20
47.2200051951882
30
9.67883935585334e-005
11
6402.53014660662
21
47.6629694534302
31
9.67883935585334e-005
  0
LINE
 8
Layer0
10
6411.72253476204
20
43.8553576088557
30
9.67883935585334e-005
11
6409.03014660662
21
45.9212997026282
31
9.67883935585334e-005
  0
LINE
 8
Layer0
10
6413.78847685582
20
41.1629694534306
30
9.67883935585334e-005
11
6411.72253476204
21
43.8553576088557
31
9.67883935585334e-005
  0
LINE
 8
Layer0
10
6399.16549902029
20
47.220005195188
30
9.67883935585334e-005
11
6396.03014660662
21
45.9212997026277
31
9.67883935585334e-005
  0
LINE
 8
Layer0
10
6415.08718234838
20
38.0276170397635
30
9.67883935585334e-005
11
6413.78847685582
21
41.1629694534306
31
9.67883935585334e-005
  0
LINE
 8
Layer0
10
6393.33775845119
20
43.8553576088551
30
9.67883935585334e-005
11
6391.27181635742
21
41.1629694534299
31
9.67883935585334e-005
  0
LINE
 8
Layer0
10
6389.97311086486
20
31.2983218670972
30
9.67883935585334e-005
11
6391.27181635742
21
28.16296945343
31
9.67883935585334e-005
  0
LINE
 8
Layer0
10
6396.03014660662
20
45.9212997026277
30
9.67883935585334e-005
11
6393.33775845119
21
43.8553576088551
31
9.67883935585334e-005
  0
LINE
 8
Layer0
10
6391.27181635742
20
28.16296945343
30
9.67883935585334e-005
11
6393.33775845119
21
25.4705812980049
31
9.67883935585334e-005
  0
LINE
 8
Layer0
10
6409.03014660662
20
45.9212997026282
30
9.67883935585334e-005
11
6405.89479419295
21
47.2200051951882
31
9.67883935585334e-005
  0
LINE
 8
Layer0
10
6415.53014660662
20
34.6629694534307
30
9.67883935585334e-005
11
6415.08718234838
21
38.0276170397635
31
9.67883935585334e-005
  0
LINE
 8
Layer0
10
6399.16549902029
20
22.1059337116724
30
9.67883935585334e-005
11
6402.53014660662
21
21.6629694534304
31
9.67883935585334e-005
  0
LINE
 8
Layer0
10
6413.78847685582
20
28.1629694534307
30
9.67883935585334e-005
11
6415.08718234838
21
31.298321867098
31
9.67883935585334e-005
  0
LINE
 8
Layer0
10
6389.53014660662
20
504.663459487965
30
9.67883935585334e-005
11
6389.97311086486
21
501.298811901632
31
9.67883935585334e-005
  0
LINE
 8
Layer0
10
6389.97311086486
20
508.028107074297
30
9.67883935585334e-005
11
6389.53014660662
21
504.663459487965
31
9.67883935585334e-005
  0
LINE
 8
Layer0
10
6411.72253476204
20
25.4705812980055
30
9.67883935585334e-005
11
6413.78847685582
21
28.1629694534307
31
9.67883935585334e-005
  0
LINE
 8
Layer0
10
6405.89479419295
20
22.1059337116726
30
9.67883935585334e-005
11
6409.03014660662
21
23.4046392042329
31
9.67883935585334e-005
  0
LINE
 8
Layer0
10
6396.03014660662
20
515.921789737163
30
9.67883935585334e-005
11
6393.33775845119
21
513.85584764339
31
9.67883935585334e-005
  0
LINE
 8
Layer0
10
6402.53014660662
20
517.663459487965
30
9.67883935585334e-005
11
6399.16549902029
21
517.220495229723
31
9.67883935585334e-005
  0
LINE
 8
Layer0
10
6391.27181635742
20
511.163459487965
30
9.67883935585334e-005
11
6389.97311086486
21
508.028107074297
31
9.67883935585334e-005
  0
LINE
 8
Layer0
10
6405.89479419295
20
517.220495229723
30
9.67883935585334e-005
11
6402.53014660662
21
517.663459487965
31
9.67883935585334e-005
  0
LINE
 8
Layer0
10
6409.03014660662
20
515.921789737163
30
9.67883935585334e-005
11
6405.89479419295
21
517.220495229723
31
9.67883935585334e-005
  0
LINE
 8
Layer0
10
6411.72253476204
20
513.85584764339
30
9.67883935585334e-005
11
6409.03014660662
21
515.921789737163
31
9.67883935585334e-005
  0
LINE
 8
Layer0
10
6402.53014660662
20
21.6629694534304
30
9.67883935585334e-005
11
6405.89479419295
21
22.1059337116726
31
9.67883935585334e-005
  0
LINE
 8
Layer0
10
6409.03014660662
20
23.4046392042329
30
9.67883935585334e-005
11
6411.72253476204
21
25.4705812980055
31
9.67883935585334e-005
  0
LINE
 8
Layer0
10
6393.33775845119
20
513.85584764339
30
9.67883935585334e-005
11
6391.27181635742
21
511.163459487965
31
9.67883935585334e-005
  0
LINE
 8
Layer0
10
6399.16549902029
20
517.220495229723
30
9.67883935585334e-005
11
6396.03014660662
21
515.921789737163
31
9.67883935585334e-005
  0
LINE
 8
Layer0
10
6415.08718234838
20
501.298811901633
30
9.67883935585334e-005
11
6415.53014660662
21
504.663459487965
31
9.67883935585334e-005
  0
LINE
 8
Layer0
10
6413.78847685582
20
511.163459487965
30
9.67883935585334e-005
11
6411.72253476204
21
513.85584764339
31
9.67883935585334e-005
  0
LINE
 8
Layer0
10
6393.33775845119
20
495.47107133254
30
9.67883935585334e-005
11
6396.03014660662
21
493.405129238767
31
9.67883935585334e-005
  0
LINE
 8
Layer0
10
6415.53014660662
20
504.663459487965
30
9.67883935585334e-005
11
6415.08718234838
21
508.028107074298
31
9.67883935585334e-005
  0
LINE
 8
Layer0
10
6409.03014660662
20
493.405129238768
30
9.67883935585334e-005
11
6411.72253476204
21
495.47107133254
31
9.67883935585334e-005
  0
LINE
 8
Layer0
10
6405.89479419295
20
492.106423746207
30
9.67883935585334e-005
11
6409.03014660662
21
493.405129238768
31
9.67883935585334e-005
  0
LINE
 8
Layer0
10
6413.78847685582
20
498.163459487965
30
9.67883935585334e-005
11
6415.08718234838
21
501.298811901633
31
9.67883935585334e-005
  0
LINE
 8
Layer0
10
6415.08718234838
20
508.028107074298
30
9.67883935585334e-005
11
6413.78847685582
21
511.163459487965
31
9.67883935585334e-005
  0
LINE
 8
Layer0
10
6402.53014660662
20
491.663459487965
30
9.67883935585334e-005
11
6405.89479419295
21
492.106423746207
31
9.67883935585334e-005
  0
LINE
 8
Layer0
10
6399.16549902029
20
492.106423746207
30
9.67883935585334e-005
11
6402.53014660662
21
491.663459487965
31
9.67883935585334e-005
  0
LINE
 8
Layer0
10
6396.03014660662
20
493.405129238767
30
9.67883935585334e-005
11
6399.16549902029
21
492.106423746207
31
9.67883935585334e-005
  0
LINE
 8
Layer0
10
6391.27181635742
20
498.163459487965
30
9.67883935585334e-005
11
6393.33775845119
21
495.47107133254
31
9.67883935585334e-005
  0
LINE
 8
Layer0
10
6389.97311086486
20
501.298811901632
30
9.67883935585334e-005
11
6391.27181635742
21
498.163459487965
31
9.67883935585334e-005
  0
LINE
 8
Layer0
10
5919.97262083033
20
508.028107074297
30
9.67883935585334e-005
11
5919.52965657209
21
504.663459487965
31
9.67883935585334e-005
  0
LINE
 8
Layer0
10
6411.72253476204
20
495.47107133254
30
9.67883935585334e-005
11
6413.78847685582
21
498.163459487965
31
9.67883935585334e-005
  0
LINE
 8
Layer0
10
5921.27132632289
20
511.163459487965
30
9.67883935585334e-005
11
5919.97262083033
21
508.028107074297
31
9.67883935585334e-005
  0
LINE
 8
Layer0
10
5943.78798682129
20
498.163459487965
30
9.67883935585334e-005
11
5945.08669231385
21
501.298811901633
31
9.67883935585334e-005
  0
LINE
 8
Layer0
10
5945.08669231385
20
508.028107074298
30
9.67883935585334e-005
11
5943.78798682129
21
511.163459487965
31
9.67883935585334e-005
  0
LINE
 8
Layer0
10
5945.52965657209
20
504.663459487965
30
9.67883935585334e-005
11
5945.08669231385
21
508.028107074298
31
9.67883935585334e-005
  0
LINE
 8
Layer0
10
5926.02965657209
20
515.921789737163
30
9.67883935585334e-005
11
5923.33726841666
21
513.85584764339
31
9.67883935585334e-005
  0
LINE
 8
Layer0
10
5939.02965657209
20
515.921789737163
30
9.67883935585334e-005
11
5935.89430415842
21
517.220495229723
31
9.67883935585334e-005
  0
LINE
 8
Layer0
10
5941.72204472751
20
495.47107133254
30
9.67883935585334e-005
11
5943.78798682129
21
498.163459487965
31
9.67883935585334e-005
  0
LINE
 8
Layer0
10
5923.33726841666
20
513.85584764339
30
9.67883935585334e-005
11
5921.27132632289
21
511.163459487965
31
9.67883935585334e-005
  0
LINE
 8
Layer0
10
5929.16500898576
20
517.220495229723
30
9.67883935585334e-005
11
5926.02965657209
21
515.921789737163
31
9.67883935585334e-005
  0
LINE
 8
Layer0
10
5943.78798682129
20
511.163459487965
30
9.67883935585334e-005
11
5941.72204472751
21
513.85584764339
31
9.67883935585334e-005
  0
LINE
 8
Layer0
10
5945.08669231385
20
501.298811901633
30
9.67883935585334e-005
11
5945.52965657209
21
504.663459487965
31
9.67883935585334e-005
  0
LINE
 8
Layer0
10
5935.89430415842
20
492.106423746207
30
9.67883935585334e-005
11
5939.02965657209
21
493.405129238768
31
9.67883935585334e-005
  0
LINE
 8
Layer0
10
5939.02965657209
20
493.405129238768
30
9.67883935585334e-005
11
5941.72204472751
21
495.47107133254
31
9.67883935585334e-005
  0
LINE
 8
Layer0
10
5932.52965657209
20
491.663459487965
30
9.67883935585334e-005
11
5935.89430415842
21
492.106423746207
31
9.67883935585334e-005
  0
LINE
 8
Layer0
10
5932.52965657209
20
517.663459487965
30
9.67883935585334e-005
11
5929.16500898576
21
517.220495229723
31
9.67883935585334e-005
  0
LINE
 8
Layer0
10
5935.89430415842
20
517.220495229723
30
9.67883935585334e-005
11
5932.52965657209
21
517.663459487965
31
9.67883935585334e-005
  0
LINE
 8
Layer0
10
5941.72204472751
20
513.85584764339
30
9.67883935585334e-005
11
5939.02965657209
21
515.921789737163
31
9.67883935585334e-005
  0
LINE
 8
Layer0
10
5921.27132632289
20
498.163459487965
30
9.67883935585334e-005
11
5923.33726841666
21
495.47107133254
31
9.67883935585334e-005
  0
LINE
 8
Layer0
10
5923.33726841666
20
495.47107133254
30
9.67883935585334e-005
11
5926.02965657209
21
493.405129238767
31
9.67883935585334e-005
  0
LINE
 8
Layer0
10
5919.52965657209
20
504.663459487965
30
9.67883935585334e-005
11
5919.97262083033
21
501.298811901632
31
9.67883935585334e-005
  0
LINE
 8
Layer0
10
5929.16500898576
20
492.106423746207
30
9.67883935585334e-005
11
5932.52965657209
21
491.663459487965
31
9.67883935585334e-005
  0
LINE
 8
Layer0
10
5926.02965657209
20
493.405129238767
30
9.67883935585334e-005
11
5929.16500898576
21
492.106423746207
31
9.67883935585334e-005
  0
LINE
 8
Layer0
10
5919.97262083033
20
501.298811901632
30
9.67883935585334e-005
11
5921.27132632289
21
498.163459487965
31
9.67883935585334e-005
  0
LINE
 8
Layer0
10
5917.02965657209
20
51.6629694534203
30
9.64304741856381e-005
11
5917.41788513974
21
51.6118581928536
31
9.64934114609406e-005
  0
LINE
 8
Layer0
10
5915.58076783266
20
49.7747408857668
30
9.66916595714906e-005
11
5915.52965657209
21
50.1629694534207
31
9.65923430817028e-005
  0
LINE
 8
Layer0
10
5917.41788513974
20
51.6118581928536
30
9.64934114609406e-005
11
5917.77965657209
21
51.4620075590971
31
9.65764512621092e-005
  0
LINE
 8
Layer0
10
5916.64142800444
20
51.6118581928536
30
9.63919284924231e-005
11
5917.02965657209
21
51.6629694534203
31
9.64304741856381e-005
  0
LINE
 8
Layer0
10
5915.73061846641
20
49.4129694534208
30
9.67975683082045e-005
11
5915.58076783266
21
49.7747408857668
31
9.66916595714906e-005
  0
LINE
 8
Layer0
10
5915.96899640031
20
51.2236296252004
30
9.63966779025327e-005
11
5916.27965657209
21
51.462007559097
31
9.63804011913538e-005
  0
LINE
 8
Layer0
10
5915.96899640031
20
49.1023092816409
30
9.69028517568304e-005
11
5915.73061846641
21
49.4129694534208
31
9.67975683082045e-005
  0
LINE
 8
Layer0
10
5916.64142800444
20
48.7140807139877
30
9.70833748439759e-005
11
5916.27965657209
21
48.8639313477443
31
9.70003350428072e-005
  0
LINE
 8
Layer0
10
5915.58076783266
20
50.5511980210745
30
9.65063870967953e-005
11
5915.73061846641
21
50.9129694534205
31
9.64396493413844e-005
  0
LINE
 8
Layer0
10
5917.77965657209
20
51.4620075590971
30
9.65764512621092e-005
11
5918.09031674387
21
51.2236296252005
31
9.66739345706458e-005
  0
LINE
 8
Layer0
10
5917.02965657209
20
48.6629694534211
30
9.71463121418381e-005
11
5916.64142800444
21
48.7140807139877
31
9.70833748439759e-005
  0
LINE
 8
Layer0
10
5916.27965657209
20
48.8639313477443
30
9.70003350428072e-005
11
5915.96899640031
21
49.1023092816409
31
9.69028517568304e-005
  0
LINE
 8
Layer0
10
5915.52965657209
20
50.1629694534207
30
9.65923430817028e-005
11
5915.58076783266
21
50.5511980210745
31
9.65063870967953e-005
  0
LINE
 8
Layer0
10
5917.41788513974
20
48.7140807139878
30
9.71848578576129e-005
11
5917.02965657209
21
48.6629694534211
31
9.71463121418381e-005
  0
LINE
 8
Layer0
10
5915.73061846641
20
50.9129694534205
30
9.64396493413844e-005
11
5915.96899640031
21
51.2236296252004
31
9.63966779025327e-005
  0
LINE
 8
Layer0
10
5916.27965657209
20
51.462007559097
30
9.63804011913538e-005
11
5916.64142800444
21
51.6118581928536
31
9.63919284924231e-005
  0
LINE
 8
Layer0
10
5946.52965657209
20
50.1629694534308
30
9.65923430817028e-005
11
5946.58076783266
21
50.5511980210847
31
9.65063870742355e-005
  0
LINE
 8
Layer0
10
5918.47854531152
20
49.7747408857669
30
9.70703992532407e-005
11
5918.32869467776
21
49.4129694534209
31
9.71371369860918e-005
  0
LINE
 8
Layer0
10
5917.77965657209
20
48.8639313477444
30
9.71963851361224e-005
11
5917.41788513974
21
48.7140807139878
31
9.71848578576129e-005
  0
LINE
 8
Layer0
10
5918.47854531152
20
50.5511980210746
30
9.68851267334259e-005
11
5918.52965657209
21
50.1629694534207
31
9.69844432457734e-005
  0
LINE
 8
Layer0
10
5947.64142800444
20
48.7140807139979
30
9.70833748665356e-005
11
5947.27965657209
21
48.8639313477545
31
9.7000335065367e-005
  0
LINE
 8
Layer0
10
5946.96899640031
20
49.102309281651
30
9.69028517793902e-005
11
5946.73061846641
21
49.412969453431
31
9.67975683082045e-005
  0
LINE
 8
Layer0
10
5918.32869467776
20
50.9129694534205
30
9.67792180192717e-005
11
5918.47854531152
21
50.5511980210746
31
9.68851267334259e-005
  0
LINE
 8
Layer0
10
5918.09031674387
20
49.102309281641
30
9.71801084475032e-005
11
5917.77965657209
21
48.8639313477444
31
9.71963851361224e-005
  0
LINE
 8
Layer0
10
5947.27965657209
20
48.8639313477545
30
9.7000335065367e-005
11
5946.96899640031
21
49.102309281651
31
9.69028517793902e-005
  0
LINE
 8
Layer0
10
5918.09031674387
20
51.2236296252005
30
9.66739345706458e-005
11
5918.32869467776
21
50.9129694534205
31
9.67792180192717e-005
  0
LINE
 8
Layer0
10
5918.52965657209
20
50.1629694534207
30
9.69844432457734e-005
11
5918.47854531152
21
49.7747408857669
31
9.70703992532407e-005
  0
LINE
 8
Layer0
10
5918.32869467776
20
49.4129694534209
30
9.71371369860918e-005
11
5918.09031674387
21
49.102309281641
31
9.71801084475032e-005
  0
LINE
 8
Layer0
10
5948.41788513974
20
48.7140807139979
30
9.71848578576129e-005
11
5948.02965657209
21
48.6629694534312
31
9.71463121643978e-005
  0
LINE
 8
Layer0
10
5948.02965657209
20
48.6629694534312
30
9.71463121643978e-005
11
5947.64142800444
21
48.7140807139979
31
9.70833748665356e-005
  0
LINE
 8
Layer0
10
5946.73061846641
20
49.412969453431
30
9.67975683082045e-005
11
5946.58076783266
21
49.7747408857769
31
9.66916595714906e-005
  0
LINE
 8
Layer0
10
5946.58076783266
20
49.7747408857769
30
9.66916595714906e-005
11
5946.52965657209
21
50.1629694534308
31
9.65923430817028e-005
  0
LINE
 8
Layer0
10
5949.32869467777
20
50.9129694534307
30
9.67792180192717e-005
11
5949.47854531152
21
50.5511980210848
31
9.68851267334259e-005
  0
LINE
 8
Layer0
10
5949.47854531152
20
50.5511980210848
30
9.68851267334259e-005
11
5949.52965657209
21
50.1629694534309
31
9.69844432457734e-005
  0
LINE
 8
Layer0
10
5946.96899640031
20
51.2236296252106
30
9.6396677879973e-005
11
5947.27965657209
21
51.4620075591072
31
9.63804011913538e-005
  0
LINE
 8
Layer0
10
5948.02965657209
20
51.6629694534305
30
9.64304741856381e-005
11
5948.41788513974
21
51.6118581928638
31
9.64934114609406e-005
  0
LINE
 8
Layer0
10
5946.58076783266
20
50.5511980210847
30
9.65063870742355e-005
11
5946.73061846641
21
50.9129694534306
31
9.64396493188247e-005
  0
LINE
 8
Layer0
10
5947.64142800444
20
51.6118581928638
30
9.63919284698633e-005
11
5948.02965657209
21
51.6629694534305
31
9.64304741856381e-005
  0
LINE
 8
Layer0
10
5949.32869467777
20
49.4129694534311
30
9.71371370086516e-005
11
5949.09031674387
21
49.1023092816511
31
9.71801084475032e-005
  0
LINE
 8
Layer0
10
5949.09031674387
20
51.2236296252106
30
9.66739345706458e-005
11
5949.32869467777
21
50.9129694534307
31
9.67792180192717e-005
  0
LINE
 8
Layer0
10
5949.09031674387
20
49.1023092816511
30
9.71801084475032e-005
11
5948.77965657209
21
48.8639313477545
31
9.71963851361224e-005
  0
LINE
 8
Layer0
10
5948.77965657209
20
51.4620075591072
30
9.65764512621092e-005
11
5949.09031674387
21
51.2236296252106
31
9.66739345706458e-005
  0
LINE
 8
Layer0
10
5949.52965657209
20
50.1629694534309
30
9.69844432457734e-005
11
5949.47854531152
21
49.774740885777
31
9.70703992532407e-005
  0
LINE
 8
Layer0
10
5948.77965657209
20
48.8639313477545
30
9.71963851361224e-005
11
5948.41788513974
21
48.7140807139979
31
9.71848578576129e-005
  0
LINE
 8
Layer0
10
5948.41788513974
20
51.6118581928638
30
9.64934114609406e-005
11
5948.77965657209
21
51.4620075591072
31
9.65764512621092e-005
  0
LINE
 8
Layer0
10
5947.27965657209
20
51.4620075591072
30
9.63804011913538e-005
11
5947.64142800444
21
51.6118581928638
31
9.63919284698633e-005
  0
LINE
 8
Layer0
10
5946.73061846641
20
50.9129694534306
30
9.64396493188247e-005
11
5946.96899640031
21
51.2236296252106
31
9.6396677879973e-005
  0
LINE
 8
Layer0
10
5949.47854531152
20
49.774740885777
30
9.70703992532407e-005
11
5949.32869467777
21
49.4129694534311
31
9.71371370086516e-005
  0
LINE
 8
Layer0
10
5946.58076783266
20
19.5511980210851
30
9.65063890369322e-005
11
5946.73061846641
21
19.912969453431
31
9.64396512589616e-005
  0
LINE
 8
Layer0
10
5948.02965657209
20
17.6629694534316
30
9.7146314081975e-005
11
5947.64142800444
21
17.7140807139983
31
9.70833767841128e-005
  0
LINE
 8
Layer0
10
5946.58076783266
20
18.7747408857773
30
9.66916615116276e-005
11
5946.52965657209
21
19.1629694534312
31
9.65923450218398e-005
  0
LINE
 8
Layer0
10
5947.64142800444
20
17.7140807139983
30
9.70833767841128e-005
11
5947.27965657209
21
17.8639313477549
31
9.70003369829442e-005
  0
LINE
 8
Layer0
10
5946.96899640031
20
20.2236296252103
30
9.63966798426696e-005
11
5947.27965657209
21
20.4620075591069
31
9.63804031314908e-005
  0
LINE
 8
Layer0
10
5947.27965657209
20
20.4620075591069
30
9.63804031314908e-005
11
5947.64142800444
21
20.6118581928634
31
9.639193043256e-005
  0
LINE
 8
Layer0
10
5947.64142800444
20
20.6118581928634
30
9.639193043256e-005
11
5948.02965657209
21
20.6629694534301
31
9.6430476125775e-005
  0
LINE
 8
Layer0
10
5946.96899640031
20
18.1023092816514
30
9.69028536969674e-005
11
5946.73061846641
21
18.4129694534314
31
9.67975702483415e-005
  0
LINE
 8
Layer0
10
5948.02965657209
20
20.6629694534301
30
9.6430476125775e-005
11
5948.41788513974
21
20.6118581928635
31
9.64934134236373e-005
  0
LINE
 8
Layer0
10
5948.41788513974
20
20.6118581928635
30
9.64934134236373e-005
11
5948.77965657209
21
20.4620075591069
31
9.65764532022462e-005
  0
LINE
 8
Layer0
10
5948.41788513974
20
17.7140807139983
30
9.71848597977498e-005
11
5948.02965657209
21
17.6629694534316
31
9.7146314081975e-005
  0
LINE
 8
Layer0
10
5946.73061846641
20
19.912969453431
30
9.64396512589616e-005
11
5946.96899640031
21
20.2236296252103
31
9.63966798426696e-005
  0
LINE
 8
Layer0
10
5946.52965657209
20
19.1629694534312
30
9.65923450218398e-005
11
5946.58076783266
21
19.5511980210851
31
9.65063890369322e-005
  0
LINE
 8
Layer0
10
5948.77965657209
20
20.4620075591069
30
9.65764532022462e-005
11
5949.09031674387
21
20.2236296252103
31
9.66739365107827e-005
  0
LINE
 8
Layer0
10
5947.27965657209
20
17.8639313477549
30
9.70003369829442e-005
11
5946.96899640031
21
18.1023092816514
31
9.69028536969674e-005
  0
LINE
 8
Layer0
10
5946.73061846641
20
18.4129694534314
30
9.67975702483415e-005
11
5946.58076783266
21
18.7747408857773
31
9.66916615116276e-005
  0
LINE
 8
Layer0
10
5949.52965657209
20
19.1629694534313
30
9.69844451859103e-005
11
5949.47854531152
21
18.7747408857774
31
9.70704011933776e-005
  0
LINE
 8
Layer0
10
5949.47854531152
20
18.7747408857774
30
9.70704011933776e-005
11
5949.32869467777
21
18.4129694534315
31
9.71371389262288e-005
  0
LINE
 8
Layer0
10
5946.58076783271
20
519.775230920313
30
0.000108788689591144
11
5946.52965657215
21
520.163459487966
31
0.000108750143875369
  0
LINE
 8
Layer0
10
5946.52965657215
20
520.163459487966
30
0.000108750143875369
11
5946.58076783271
21
520.55168805562
31
0.000108687206600067
  0
LINE
 8
Layer0
10
5947.64142800449
20
521.6123482274
30
0.000108295491327581
11
5948.02965657215
21
521.663459487966
31
0.000108196174815234
  0
LINE
 8
Layer0
10
5948.02965657215
20
521.663459487966
30
0.000108196174815234
11
5948.4178851398
21
521.6123482274
31
0.000108110218830326
  0
LINE
 8
Layer0
10
5947.27965657215
20
521.462497593643
30
0.000108401400064295
11
5947.64142800449
21
521.6123482274
31
0.000108295491327581
  0
LINE
 8
Layer0
10
5949.09031674387
20
20.2236296252103
30
9.66739365107827e-005
11
5949.32869467777
21
19.9129694534311
31
9.67792199594086e-005
  0
LINE
 8
Layer0
10
5946.96899640037
20
521.224119659746
30
0.000108506683490361
11
5947.27965657215
21
521.462497593643
31
0.000108401400064295
  0
LINE
 8
Layer0
10
5949.09031674387
20
18.1023092816515
30
9.71801103876402e-005
11
5948.77965657209
21
17.8639313477549
31
9.71963870762593e-005
  0
LINE
 8
Layer0
10
5949.32869467777
20
18.4129694534315
30
9.71371389262288e-005
11
5949.09031674387
21
18.1023092816515
31
9.71801103876402e-005
  0
LINE
 8
Layer0
10
5949.47854531152
20
19.5511980210852
30
9.68851286735628e-005
11
5949.52965657209
21
19.1629694534313
31
9.69844451859103e-005
  0
LINE
 8
Layer0
10
5949.32869467777
20
19.9129694534311
30
9.67792199594086e-005
11
5949.47854531152
21
19.5511980210852
31
9.68851286735628e-005
  0
LINE
 8
Layer0
10
5946.58076783271
20
520.55168805562
30
0.000108687206600067
11
5946.73061846647
21
520.913459487966
31
0.000108604166798898
  0
LINE
 8
Layer0
10
5948.77965657209
20
17.8639313477549
30
9.71963870762593e-005
11
5948.41788513974
21
17.7140807139983
31
9.71848597977498e-005
  0
LINE
 8
Layer0
10
5946.73061846647
20
520.913459487966
30
0.000108604166798898
11
5946.96899640037
21
521.224119659746
31
0.000108506683490361
  0
LINE
 8
Layer0
10
5948.4178851398
20
521.6123482274
30
0.000108110218830326
11
5948.77965657215
21
521.462497593643
31
0.000108043481074915
  0
LINE
 8
Layer0
10
5948.77965657215
20
521.462497593643
30
0.000108043481074915
11
5949.09031674392
21
521.224119659746
31
0.000108000509636064
  0
LINE
 8
Layer0
10
5949.32869467782
20
520.913459487966
30
0.000107984232947445
11
5949.47854531158
21
520.55168805562
31
0.000107995760225954
  0
LINE
 8
Layer0
10
5949.47854531158
20
520.55168805562
30
0.000107995760225954
11
5949.52965657215
21
520.163459487966
31
0.000108034305941729
  0
LINE
 8
Layer0
10
5949.52965657215
20
520.163459487966
30
0.000108034305941729
11
5949.47854531158
21
519.775230920313
31
0.000108097243217031
  0
LINE
 8
Layer0
10
5949.47854531158
20
519.775230920313
30
0.000108097243217031
11
5949.32869467782
21
519.413459487966
31
0.0001081802830182
  0
LINE
 8
Layer0
10
5949.09031674392
20
521.224119659746
30
0.000108000509636064
11
5949.32869467782
21
520.913459487966
31
0.000107984232947445
  0
LINE
 8
Layer0
10
5946.73061846647
20
519.413459487967
30
0.000108800216869653
11
5946.58076783271
21
519.775230920313
31
0.000108788689591144
  0
LINE
 8
Layer0
10
5949.09031674392
20
519.102799316187
30
0.000108277766326736
11
5948.77965657215
21
518.86442138229
31
0.000108383049752803
  0
LINE
 8
Layer0
10
5946.58076783272
20
488.775230920313
30
0.000108788689613704
11
5946.52965657216
21
489.163459487966
31
0.000108750143897929
  0
LINE
 8
Layer0
10
5948.77965657215
20
518.86442138229
30
0.000108383049752803
11
5948.4178851398
21
518.714570748533
31
0.000108488958489517
  0
LINE
 8
Layer0
10
5947.64142800449
20
518.714570748533
30
0.000108674230986772
11
5947.27965657215
21
518.86442138229
31
0.000108740968742183
  0
LINE
 8
Layer0
10
5946.52965657216
20
489.163459487966
30
0.000108750143897929
11
5946.58076783272
21
489.55168805562
31
0.000108687206600067
  0
LINE
 8
Layer0
10
5947.27965657215
20
518.86442138229
30
0.000108740968742183
11
5946.96899640037
21
519.102799316187
31
0.000108783940181034
  0
LINE
 8
Layer0
10
5948.4178851398
20
518.714570748533
30
0.000108488958489517
11
5948.02965657215
21
518.663459487967
31
0.000108588275001864
  0
LINE
 8
Layer0
10
5949.32869467782
20
519.413459487966
30
0.0001081802830182
11
5949.09031674392
21
519.102799316187
31
0.000108277766326736
  0
LINE
 8
Layer0
10
5948.02965657215
20
518.663459487967
30
0.000108588275001864
11
5947.64142800449
21
518.714570748533
31
0.000108674230986772
  0
LINE
 8
Layer0
10
5946.96899640037
20
519.102799316187
30
0.000108783940181034
11
5946.73061846647
21
519.413459487967
31
0.000108800216869653
  0
LINE
 8
Layer0
10
5949.47854531159
20
488.775230920312
30
0.000108097243217031
11
5949.32869467783
21
488.413459487966
31
0.0001081802830182
  0
LINE
 8
Layer0
10
5948.77965657216
20
490.462497593642
30
0.000108043481074915
11
5949.09031674394
21
490.224119659746
31
0.000108000509613504
  0
LINE
 8
Layer0
10
5946.96899640038
20
490.224119659746
30
0.000108506683512921
11
5947.27965657216
21
490.462497593642
31
0.000108401400064295
  0
LINE
 8
Layer0
10
5946.73061846648
20
489.913459487966
30
0.000108604166798898
11
5946.96899640038
21
490.224119659746
31
0.000108506683512921
  0
LINE
 8
Layer0
10
5949.09031674394
20
490.224119659746
30
0.000108000509613504
11
5949.32869467783
21
489.913459487966
31
0.000107984232947445
  0
LINE
 8
Layer0
10
5946.58076783272
20
489.55168805562
30
0.000108687206600067
11
5946.73061846648
21
489.913459487966
31
0.000108604166798898
  0
LINE
 8
Layer0
10
5947.6414280045
20
490.612348227399
30
0.000108295491327581
11
5948.02965657216
21
490.663459487966
31
0.000108196174815234
  0
LINE
 8
Layer0
10
5949.09031674394
20
488.102799316186
30
0.000108277766304177
11
5948.77965657216
21
487.86442138229
31
0.000108383049752803
  0
LINE
 8
Layer0
10
5948.77965657216
20
487.86442138229
30
0.000108383049752803
11
5948.41788513981
21
487.714570748533
31
0.000108488958489517
  0
LINE
 8
Layer0
10
5949.52965657216
20
489.163459487966
30
0.000108034305919169
11
5949.47854531159
21
488.775230920312
31
0.000108097243217031
  0
LINE
 8
Layer0
10
5949.32869467783
20
488.413459487966
30
0.0001081802830182
11
5949.09031674394
21
488.102799316186
31
0.000108277766304177
  0
LINE
 8
Layer0
10
5949.32869467783
20
489.913459487966
30
0.000107984232947445
11
5949.47854531159
21
489.55168805562
31
0.000107995760203394
  0
LINE
 8
Layer0
10
5948.02965657216
20
490.663459487966
30
0.000108196174815234
11
5948.41788513981
21
490.612348227399
31
0.000108110218807767
  0
LINE
 8
Layer0
10
5949.47854531159
20
489.55168805562
30
0.000107995760203394
11
5949.52965657216
21
489.163459487966
31
0.000108034305919169
  0
LINE
 8
Layer0
10
5947.27965657216
20
490.462497593642
30
0.000108401400064295
11
5947.6414280045
21
490.612348227399
31
0.000108295491327581
  0
LINE
 8
Layer0
10
5948.41788513981
20
490.612348227399
30
0.000108110218807767
11
5948.77965657216
21
490.462497593642
31
0.000108043481074915
  0
LINE
 8
Layer0
10
5915.52965657216
20
489.163459487965
30
0.000108750145815506
11
5915.58076783272
21
489.551688055619
31
0.000108687208540204
  0
LINE
 8
Layer0
10
5946.96899640038
20
488.102799316187
30
0.000108783940203594
11
5946.73061846648
21
488.413459487966
31
0.000108800216869653
  0
LINE
 8
Layer0
10
5946.73061846648
20
488.413459487966
30
0.000108800216869653
11
5946.58076783272
21
488.775230920313
31
0.000108788689613704
  0
LINE
 8
Layer0
10
5947.6414280045
20
487.714570748533
30
0.000108674231009331
11
5947.27965657216
21
487.86442138229
31
0.000108740968742183
  0
LINE
 8
Layer0
10
5915.58076783272
20
488.775230920312
30
0.000108788691531281
11
5915.52965657216
21
489.163459487965
31
0.000108750145815506
  0
LINE
 8
Layer0
10
5948.02965657216
20
487.663459487966
30
0.000108588275001864
11
5947.6414280045
21
487.714570748533
31
0.000108674231009331
  0
LINE
 8
Layer0
10
5947.27965657216
20
487.86442138229
30
0.000108740968742183
11
5946.96899640038
21
488.102799316187
31
0.000108783940203594
  0
LINE
 8
Layer0
10
5948.41788513981
20
487.714570748533
30
0.000108488958489517
11
5948.02965657216
21
487.663459487966
31
0.000108588275001864
 0
ENDSEC
 0
EOF
