 0
SECTION
 2
ENTITIES
  0
LINE
 8
GROUP0
10
5981.52137863099
20
-618.295762004146
30
1.99835906813106e-005
11
5982.03901672119
21
-618.363910351568
31
1.99800203654565e-005
  0
LINE
 8
GROUP0
10
5983.03901672119
20
-618.095961159137
30
1.99809982825983e-005
11
5983.45323028357
21
-617.778123913941
31
1.99854798720311e-005
  0
LINE
 8
GROUP0
10
6159.30719429516
20
-615.363910351568
30
1.82501313668815e-005
11
6159.10739345015
21
-615.846272261363
31
1.82414848075074e-005
  0
LINE
 8
GROUP0
10
6160.03924510273
20
-614.631859543999
30
1.82614085862731e-005
11
6159.62503154036
21
-614.949696789195
31
1.82569269968402e-005
  0
LINE
 8
GROUP0
10
5983.97086837377
20
-616.881548441773
30
2.00009220613639e-005
11
5984.03901672119
21
-616.363910351568
31
2.0010830301942e-005
  0
LINE
 8
GROUP0
10
6159.62503154036
20
-614.949696789195
30
1.82569269968402e-005
11
6159.30719429516
21
-615.363910351568
31
1.82501313668815e-005
  0
LINE
 8
GROUP0
10
5983.77106752876
20
-617.363910351568
30
1.99922755019899e-005
11
5983.97086837377
21
-616.881548441773
31
2.00009220613639e-005
  0
LINE
 8
GROUP0
10
5983.45323028357
20
-617.778123913941
30
1.99854798720311e-005
11
5983.77106752876
21
-617.363910351568
31
1.99922755019899e-005
  0
LINE
 8
GROUP0
10
6159.10739345015
20
-616.881548441773
30
1.82210818762518e-005
11
6159.30719429516
21
-617.363910351568
31
1.8210715931144e-005
  0
LINE
 8
GROUP0
10
6159.10739345015
20
-615.846272261363
30
1.82414848075074e-005
11
6159.03924510273
21
-616.363910351568
31
1.82315765669294e-005
  0
LINE
 8
GROUP0
10
5982.5566548114
20
-618.295762004146
30
1.99791361466362e-005
11
5983.03901672119
21
-618.095961159137
31
1.99809982825983e-005
  0
LINE
 8
GROUP0
10
6159.03924510273
20
-616.363910351568
30
1.82315765669294e-005
11
6159.10739345015
21
-616.881548441773
31
1.82210818762518e-005
  0
LINE
 8
GROUP0
10
5983.97086837377
20
-615.846272261363
30
2.00213249926195e-005
11
5983.77106752876
21
-615.363910351568
31
2.00316909377274e-005
  0
LINE
 8
GROUP0
10
5984.03901672119
20
-616.363910351568
30
2.0010830301942e-005
11
5983.97086837377
21
-615.846272261363
31
2.00213249926195e-005
  0
LINE
 8
GROUP0
10
5982.03901672119
20
-618.363910351568
30
1.99800203654565e-005
11
5982.5566548114
21
-618.295762004146
31
1.99791361466362e-005
  0
LINE
 8
GROUP0
10
5981.03901672119
20
-618.095961159137
30
1.99896037825553e-005
11
5981.52137863099
21
-618.295762004146
31
1.99835906813106e-005
  0
LINE
 8
GROUP0
10
5980.62480315882
20
-617.778123913941
30
1.99976498864662e-005
11
5981.03901672119
21
-618.095961159137
31
1.99896037825553e-005
  0
LINE
 8
GROUP0
10
5892.30697072293
20
-527.363686698076
30
1.7300255371927e-005
11
5892.10716987792
21
-527.846048607871
31
1.72942422706823e-005
  0
LINE
 8
GROUP0
10
5980.03901672119
20
-616.363910351568
30
2.00280413004461e-005
11
5980.10716506861
21
-616.881548441773
31
2.00175466097685e-005
  0
LINE
 8
GROUP0
10
5982.03901672119
20
-614.363910351568
30
2.00588512362265e-005
11
5981.52137863099
21
-614.43205869899
31
2.00597354550469e-005
  0
LINE
 8
GROUP0
10
5982.5566548114
20
-614.43205869899
30
2.00552809210774e-005
11
5982.03901672119
21
-614.363910351568
31
2.00588512362265e-005
  0
LINE
 8
GROUP0
10
5980.10716506861
20
-615.846272261363
30
2.00379495403191e-005
11
5980.03901672119
21
-616.363910351568
31
2.00280413004461e-005
  0
LINE
 8
GROUP0
10
5981.03901672119
20
-614.631859543999
30
2.00578733190848e-005
11
5980.62480315882
21
-614.949696789195
31
2.00533917296519e-005
  0
LINE
 8
GROUP0
10
5980.10716506861
20
-616.881548441773
30
2.00175466097685e-005
11
5980.30696591362
21
-617.363910351568
31
2.00071806639557e-005
  0
LINE
 8
GROUP0
10
5980.30696591362
20
-615.363910351568
30
2.00465960996932e-005
11
5980.10716506861
21
-615.846272261363
31
2.00379495403191e-005
  0
LINE
 8
GROUP0
10
5981.52137863099
20
-614.43205869899
30
2.00597354550469e-005
11
5981.03901672119
21
-614.631859543999
31
2.00578733190848e-005
  0
LINE
 8
GROUP0
10
5980.62480315882
20
-614.949696789195
30
2.00533917296519e-005
11
5980.30696591362
21
-615.363910351568
31
2.00465960996932e-005
  0
LINE
 8
GROUP0
10
5980.30696591362
20
-617.363910351568
30
2.00071806639557e-005
11
5980.62480315882
21
-617.778123913941
31
1.99976498864662e-005
  0
LINE
 8
GROUP0
10
5983.03901672119
20
-614.631859543999
30
2.00492678198327e-005
11
5982.5566548114
21
-614.43205869899
31
2.00552809210774e-005
  0
LINE
 8
GROUP0
10
5983.45323028357
20
-614.949696789195
30
2.00412217159218e-005
11
5983.03901672119
21
-614.631859543999
31
2.00492678198327e-005
  0
LINE
 8
GROUP0
10
5983.77106752876
20
-615.363910351568
30
2.00316909377274e-005
11
5983.45323028357
21
-614.949696789195
31
2.00412217159218e-005
  0
LINE
 8
GROUP0
10
5893.5213834403
20
-526.431835045498
30
1.73281981991402e-005
11
5893.0390215305
21
-526.631635890507
31
1.73178322540324e-005
  0
LINE
 8
GROUP0
10
5895.77107233807
20
-527.363686698076
30
1.73685249084565e-005
11
5895.45323509287
21
-526.949473135703
31
1.73640433190236e-005
  0
LINE
 8
GROUP0
10
5896.0390215305
20
-528.363686698076
30
1.73695028263032e-005
11
5895.97087318308
21
-527.846048607871
31
1.73703870444186e-005
  0
LINE
 8
GROUP0
10
5895.97087318308
20
-527.846048607871
30
1.73703870444186e-005
11
5895.77107233807
21
-527.363686698076
31
1.73685249084565e-005
  0
LINE
 8
GROUP0
10
5895.45323509287
20
-526.949473135703
30
1.73640433190236e-005
11
5895.0390215305
21
-526.631635890507
31
1.73572476890649e-005
  0
LINE
 8
GROUP0
10
5892.62480796813
20
-526.949473135703
30
1.7308301475838e-005
11
5892.30697072293
21
-527.363686698076
31
1.7300255371927e-005
  0
LINE
 8
GROUP0
10
5895.77107233807
20
-529.363686698076
30
1.73599194092044e-005
11
5895.97087318308
21
-528.881324788281
31
1.73659325104492e-005
  0
LINE
 8
GROUP0
10
5895.45323509287
20
-529.777900260449
30
1.73518733052935e-005
11
5895.77107233807
21
-529.363686698076
31
1.73599194092044e-005
  0
LINE
 8
GROUP0
10
5895.0390215305
20
-530.095737505645
30
1.73423425270991e-005
11
5895.45323509287
21
-529.777900260449
31
1.73518733052935e-005
  0
LINE
 8
GROUP0
10
5894.55665962071
20
-530.295538350654
30
1.73319765819913e-005
11
5895.0390215305
21
-530.095737505645
31
1.73423425270991e-005
  0
LINE
 8
GROUP0
10
5895.0390215305
20
-526.631635890507
30
1.73572476890649e-005
11
5894.55665962071
21
-526.431835045498
31
1.73486011296908e-005
  0
LINE
 8
GROUP0
10
5895.97087318308
20
-528.881324788281
30
1.73659325104492e-005
11
5896.0390215305
21
-528.363686698076
31
1.73695028263032e-005
  0
LINE
 8
GROUP0
10
5894.0390215305
20
-526.363686698076
30
1.73386928898178e-005
11
5893.5213834403
21
-526.431835045498
31
1.73281981991402e-005
  0
LINE
 8
GROUP0
10
5894.55665962071
20
-526.431835045498
30
1.73486011296908e-005
11
5894.0390215305
21
-526.363686698076
31
1.73386928898178e-005
  0
LINE
 8
GROUP0
10
5893.0390215305
20
-526.631635890507
30
1.73178322540324e-005
11
5892.62480796813
21
-526.949473135703
31
1.7308301475838e-005
  0
LINE
 8
GROUP0
10
5894.0390215305
20
-530.363686698076
30
1.73214818913137e-005
11
5894.55665962071
21
-530.295538350654
31
1.73319765819913e-005
  0
LINE
 8
GROUP0
10
5894.0390215305
20
-351.363686698076
30
1.82143655684253e-005
11
5894.55665962071
21
-351.295538350654
31
1.82248602591029e-005
  0
LINE
 8
GROUP0
10
5894.55665962071
20
-351.295538350654
30
1.82248602591029e-005
11
5895.0390215305
21
-351.095737505645
31
1.82352262049157e-005
  0
LINE
 8
GROUP0
10
5893.5213834403
20
-351.295538350654
30
1.82044573285522e-005
11
5894.0390215305
21
-351.363686698076
31
1.82143655684253e-005
  0
LINE
 8
GROUP0
10
5892.0390215305
20
-528.363686698076
30
1.72906719548283e-005
11
5892.10716987792
21
-528.881324788281
31
1.72897877360079e-005
  0
LINE
 8
GROUP0
10
5893.0390215305
20
-351.095737505645
30
1.81958107691782e-005
11
5893.5213834403
21
-351.295538350654
31
1.82044573285522e-005
  0
LINE
 8
GROUP0
10
5892.30697072293
20
-529.363686698076
30
1.7291649872675e-005
11
5892.62480796813
21
-529.777900260449
31
1.72961314621078e-005
  0
LINE
 8
GROUP0
10
5892.62480796813
20
-350.777900260449
30
1.81890151392194e-005
11
5893.0390215305
21
-351.095737505645
31
1.81958107691782e-005
  0
LINE
 8
GROUP0
10
5893.5213834403
20
-530.295538350654
30
1.73115736514406e-005
11
5894.0390215305
21
-530.363686698076
31
1.73214818913137e-005
  0
LINE
 8
GROUP0
10
5892.10716987792
20
-528.881324788281
30
1.72897877360079e-005
11
5892.30697072293
21
-529.363686698076
31
1.7291649872675e-005
  0
LINE
 8
GROUP0
10
5893.0390215305
20
-530.095737505645
30
1.73029270920666e-005
11
5893.5213834403
21
-530.295538350654
31
1.73115736514406e-005
  0
LINE
 8
GROUP0
10
5892.10716987792
20
-527.846048607871
30
1.72942422706823e-005
11
5892.0390215305
21
-528.363686698076
31
1.72906719548283e-005
  0
LINE
 8
GROUP0
10
5895.0390215305
20
-351.095737505645
30
1.82352262049157e-005
11
5895.45323509287
21
-350.777900260449
31
1.82447569824051e-005
  0
LINE
 8
GROUP0
10
5892.62480796813
20
-529.777900260449
30
1.72961314621078e-005
11
5893.0390215305
21
-530.095737505645
31
1.73029270920666e-005
  0
LINE
 8
GROUP0
10
5895.0390215305
20
-347.631635890507
30
1.82501313668815e-005
11
5894.55665962071
21
-347.431835045498
31
1.82414848075074e-005
  0
LINE
 8
GROUP0
10
5896.0390215305
20
-349.363686698076
30
1.82623865034148e-005
11
5895.97087318308
21
-348.846048607871
31
1.82632707222352e-005
  0
LINE
 8
GROUP0
10
5892.30697072293
20
-348.363686698076
30
1.81931390490386e-005
11
5892.10716987792
21
-348.846048607871
31
1.81871259477939e-005
  0
LINE
 8
GROUP0
10
5892.62480796813
20
-347.949473135703
30
1.82011851529495e-005
11
5892.30697072293
21
-348.363686698076
31
1.81931390490386e-005
  0
LINE
 8
GROUP0
10
5892.10716987792
20
-349.881324788281
30
1.81826714138245e-005
11
5892.30697072293
21
-350.363686698076
31
1.81845335497866e-005
  0
LINE
 8
GROUP0
10
5892.10716987792
20
-348.846048607871
30
1.81871259477939e-005
11
5892.0390215305
21
-349.363686698076
31
1.81835556326448e-005
  0
LINE
 8
GROUP0
10
5895.77107233807
20
-348.363686698076
30
1.82614085862731e-005
11
5895.45323509287
21
-347.949473135703
31
1.82569269968402e-005
  0
LINE
 8
GROUP0
10
5895.97087318308
20
-348.846048607871
30
1.82632707222352e-005
11
5895.77107233807
21
-348.363686698076
31
1.82614085862731e-005
  0
LINE
 8
GROUP0
10
5894.0390215305
20
-347.363686698076
30
1.82315765669294e-005
11
5893.5213834403
21
-347.431835045498
31
1.82210818762518e-005
  0
LINE
 8
GROUP0
10
5892.30697072293
20
-350.363686698076
30
1.81845335497866e-005
11
5892.62480796813
21
-350.777900260449
31
1.81890151392194e-005
  0
LINE
 8
GROUP0
10
5893.0390215305
20
-347.631635890507
30
1.8210715931144e-005
11
5892.62480796813
21
-347.949473135703
31
1.82011851529495e-005
  0
LINE
 8
GROUP0
10
5893.5213834403
20
-347.431835045498
30
1.82210818762518e-005
11
5893.0390215305
21
-347.631635890507
31
1.8210715931144e-005
  0
LINE
 8
GROUP0
10
5894.55665962071
20
-347.431835045498
30
1.82414848075074e-005
11
5894.0390215305
21
-347.363686698076
31
1.82315765669294e-005
  0
LINE
 8
GROUP0
10
5895.45323509287
20
-347.949473135703
30
1.82569269968402e-005
11
5895.0390215305
21
-347.631635890507
31
1.82501313668815e-005
  0
LINE
 8
GROUP0
10
5892.0390215305
20
-349.363686698076
30
1.81835556326448e-005
11
5892.10716987792
21
-349.881324788281
31
1.81826714138245e-005
  0
LINE
 8
GROUP0
10
6413.03946875189
20
-110.363458415015
30
1.60170840867613e-005
11
6400.03946875229
21
-97.3634584159393
31
1.61501236624895e-005
  0
LINE
 8
GROUP0
10
6438.03946872073
20
-558.363914654428
30
1.98515750184924e-005
11
6438.03946875306
21
-140.363458416695
31
1.56814545157147e-005
  0
LINE
 8
GROUP0
10
6370.03946875306
20
-72.3634584166948
30
1.69963879216084e-005
11
5952.0389899311
21
-72.3634584451132
31
3.1766534488753e-005
  0
LINE
 8
GROUP0
10
5952.0389899311
20
-97.3634584150149
30
3.17205060003767e-005
11
5922.0389899311
21
-97.3634584150149
31
3.18706888425391e-005
  0
LINE
 8
GROUP0
10
5922.0389899311
20
-97.3634584150149
30
3.18706888425391e-005
11
5909.03899000056
21
-110.363458415015
31
3.19501217444285e-005
  0
LINE
 8
GROUP0
10
6438.03946875306
20
-140.363458416695
30
1.56814545157147e-005
11
6413.03946875306
21
-140.363458415015
31
1.60044849277119e-005
  0
LINE
 8
GROUP0
10
5952.0389899311
20
-72.3634584451132
30
3.1766534488753e-005
11
5952.0389899311
21
-97.3634584150149
31
3.17205060003767e-005
  0
LINE
 8
GROUP0
10
5909.0389899311
20
-140.363458415015
30
3.17243845554871e-005
11
5909.03899000056
21
-110.363458415015
31
3.19501217444285e-005
  0
LINE
 8
GROUP0
10
5909.0389899311
20
-140.363458415015
30
3.17243845554871e-005
11
5884.0389899311
21
-140.363458445113
31
3.15952779693873e-005
  0
LINE
 8
GROUP0
10
5884.0389899311
20
-140.363458445113
30
3.15952779693873e-005
11
5884.03898987728
21
-558.363914536797
31
0.0
  0
LINE
 8
GROUP0
10
6370.03946875229
20
-97.3634584150147
30
1.67176434962835e-005
11
6370.03946875306
21
-72.3634584166948
31
1.69963879216084e-005
  0
LINE
 8
GROUP0
10
6370.03946875229
20
-97.3634584150147
30
1.67176434962835e-005
11
6400.03946875229
21
-97.3634584159393
31
1.61501236624895e-005
  0
LINE
 8
GROUP0
10
5909.03898991107
20
-558.363914536797
30
1.61516765440073e-007
11
5884.03898987728
21
-558.363914536797
31
0.0
  0
LINE
 8
GROUP0
10
6413.03946875306
20
-140.363458415015
30
1.60044849277119e-005
11
6413.03946875189
21
-110.363458415015
31
1.60170840867613e-005
  0
LINE
 8
GROUP0
10
5952.03898987728
20
-626.363914536797
30
1.14765095474922e-005
11
5952.03898991107
21
-601.363914536797
31
7.3794866409238e-006
  0
LINE
 8
GROUP0
10
5952.03898987728
20
-626.363914536797
30
1.14765095474922e-005
11
6370.03946872073
21
-626.363914654428
31
2.9490582584657e-005
  0
LINE
 8
GROUP0
10
5922.03898991107
20
-601.363914614784
30
7.1260293577069e-006
11
5909.03898991107
21
-588.363914536797
31
4.97122589337429e-006
  0
LINE
 8
GROUP0
10
6370.03946872073
20
-626.363914654428
30
2.9490582584657e-005
11
6370.03946872073
21
-601.363914654428
31
2.63240896299755e-005
  0
LINE
 8
GROUP0
10
6370.03946872073
20
-601.363914654428
30
2.63240896299755e-005
11
6400.03946872073
21
-601.363914654428
31
2.59990345751027e-005
  0
LINE
 8
GROUP0
10
6413.03946867739
20
-558.363915178088
30
2.02288348459867e-005
11
6413.03946849472
21
-588.363915178088
31
2.2192560149964e-005
  0
LINE
 8
GROUP0
10
6426.10761710364
20
-170.881324869545
30
1.73703870444186e-005
11
6426.30741794865
21
-171.36368677934
31
1.73685249084565e-005
  0
LINE
 8
GROUP0
10
5952.03898991107
20
-601.363914536797
30
7.3794866409238e-006
11
5922.03898991107
21
-601.363914614784
31
7.1260293577069e-006
  0
LINE
 8
GROUP0
10
6400.03946872073
20
-601.363914654428
30
2.59990345751027e-005
11
6413.03946849472
21
-588.363915178088
31
2.2192560149964e-005
  0
LINE
 8
GROUP0
10
6426.03946875622
20
-170.36368677934
30
1.73695028263032e-005
11
6426.10761710364
21
-170.881324869545
31
1.73703870444186e-005
  0
LINE
 8
GROUP0
10
6426.10761710364
20
-169.846048689135
30
1.73659325104492e-005
11
6426.03946875622
21
-170.36368677934
31
1.73695028263032e-005
  0
LINE
 8
GROUP0
10
6426.30741794865
20
-169.36368677934
30
1.73599194092044e-005
11
6426.10761710364
21
-169.846048689135
31
1.73659325104492e-005
  0
LINE
 8
GROUP0
10
6413.03946867739
20
-558.363915178088
30
2.02288348459867e-005
11
6438.03946872073
21
-558.363914654428
31
1.98515750184924e-005
  0
LINE
 8
GROUP0
10
5909.03898991107
20
-558.363914536797
30
1.61516765440073e-007
11
5909.03898991107
21
-588.363914536797
31
4.97122589337429e-006
  0
LINE
 8
GROUP0
10
6426.62525519385
20
-168.949473216967
30
1.73518733052935e-005
11
6426.30741794865
21
-169.36368677934
31
1.73599194092044e-005
  0
LINE
 8
GROUP0
10
6427.03946875622
20
-168.631635971771
30
1.73423425270991e-005
11
6426.62525519385
21
-168.949473216967
31
1.73518733052935e-005
  0
LINE
 8
GROUP0
10
6427.03946875622
20
-172.095737586909
30
1.73572476890649e-005
11
6427.52183066602
21
-172.295538431918
31
1.73486011296908e-005
  0
LINE
 8
GROUP0
10
6429.03946875622
20
-172.095737586909
30
1.73178322540324e-005
11
6429.45368231859
21
-171.777900341713
31
1.7308301475838e-005
  0
LINE
 8
GROUP0
10
6428.55710684642
20
-172.295538431918
30
1.73281981991402e-005
11
6429.03946875622
21
-172.095737586909
31
1.73178322540324e-005
  0
LINE
 8
GROUP0
10
6429.77151956379
20
-169.36368677934
30
1.7291649872675e-005
11
6429.45368231859
21
-168.949473216967
31
1.72961314621078e-005
  0
LINE
 8
GROUP0
10
6429.77151956379
20
-171.36368677934
30
1.7300255371927e-005
11
6429.9713204088
21
-170.881324869545
31
1.72942422706823e-005
  0
LINE
 8
GROUP0
10
6428.03946875622
20
-172.36368677934
30
1.73386928898178e-005
11
6428.55710684642
21
-172.295538431918
31
1.73281981991402e-005
  0
LINE
 8
GROUP0
10
6427.52183066602
20
-172.295538431918
30
1.73486011296908e-005
11
6428.03946875622
21
-172.36368677934
31
1.73386928898178e-005
  0
LINE
 8
GROUP0
10
6428.55710684642
20
-168.431835126762
30
1.73115736514406e-005
11
6428.03946875622
21
-168.36368677934
31
1.73214818913137e-005
  0
LINE
 8
GROUP0
10
6429.9713204088
20
-170.881324869545
30
1.72942422706823e-005
11
6430.03946875622
21
-170.36368677934
31
1.72906719548283e-005
  0
LINE
 8
GROUP0
10
6429.9713204088
20
-169.846048689135
30
1.72897877360079e-005
11
6429.77151956379
21
-169.36368677934
31
1.7291649872675e-005
  0
LINE
 8
GROUP0
10
6429.45368231859
20
-168.949473216967
30
1.72961314621078e-005
11
6429.03946875622
21
-168.631635971771
31
1.73029270920666e-005
  0
LINE
 8
GROUP0
10
6430.03946875622
20
-170.36368677934
30
1.72906719548283e-005
11
6429.9713204088
21
-169.846048689135
31
1.72897877360079e-005
  0
LINE
 8
GROUP0
10
6428.03946875622
20
-168.36368677934
30
1.73214818913137e-005
11
6427.52183066602
21
-168.431835126762
31
1.73319765819913e-005
  0
LINE
 8
GROUP0
10
6429.03946875622
20
-168.631635971771
30
1.73029270920666e-005
11
6428.55710684642
21
-168.431835126762
31
1.73115736514406e-005
  0
LINE
 8
GROUP0
10
6427.52183066602
20
-168.431835126762
30
1.73319765819913e-005
11
6427.03946875622
21
-168.631635971771
31
1.73423425270991e-005
  0
LINE
 8
GROUP0
10
6429.45368231859
20
-171.777900341713
30
1.7308301475838e-005
11
6429.77151956379
21
-171.36368677934
31
1.7300255371927e-005
  0
LINE
 8
GROUP0
10
6426.10761710364
20
-349.881324869545
30
1.82632707222352e-005
11
6426.30741794865
21
-350.36368677934
31
1.82614085862731e-005
  0
LINE
 8
GROUP0
10
6428.55710684642
20
-347.431835126762
30
1.82044573285522e-005
11
6428.03946875622
21
-347.36368677934
31
1.82143655684253e-005
  0
LINE
 8
GROUP0
10
6430.03946875622
20
-349.36368677934
30
1.81835556326448e-005
11
6429.9713204088
21
-348.846048689135
31
1.81826714138245e-005
  0
LINE
 8
GROUP0
10
6427.52183066602
20
-347.431835126762
30
1.82248602591029e-005
11
6427.03946875622
21
-347.631635971771
31
1.82352262049157e-005
  0
LINE
 8
GROUP0
10
6426.62525519385
20
-171.777900341713
30
1.73640433190236e-005
11
6427.03946875622
21
-172.095737586909
31
1.73572476890649e-005
  0
LINE
 8
GROUP0
10
6428.03946875622
20
-347.36368677934
30
1.82143655684253e-005
11
6427.52183066602
21
-347.431835126762
31
1.82248602591029e-005
  0
LINE
 8
GROUP0
10
6426.10761710364
20
-348.846048689135
30
1.82588161875608e-005
11
6426.03946875622
21
-349.36368677934
31
1.82623865034148e-005
  0
LINE
 8
GROUP0
10
6426.30741794865
20
-171.36368677934
30
1.73685249084565e-005
11
6426.62525519385
21
-171.777900341713
31
1.73640433190236e-005
  0
LINE
 8
GROUP0
10
6427.03946875622
20
-347.631635971771
30
1.82352262049157e-005
11
6426.62525519385
21
-347.949473216967
31
1.82447569824051e-005
  0
LINE
 8
GROUP0
10
6429.03946875622
20
-347.631635971771
30
1.81958107691782e-005
11
6428.55710684642
21
-347.431835126762
31
1.82044573285522e-005
  0
LINE
 8
GROUP0
10
6429.9713204088
20
-348.846048689135
30
1.81826714138245e-005
11
6429.77151956379
21
-348.36368677934
31
1.81845335497866e-005
  0
LINE
 8
GROUP0
10
6426.03946875622
20
-349.36368677934
30
1.82623865034148e-005
11
6426.10761710364
21
-349.881324869545
31
1.82632707222352e-005
  0
LINE
 8
GROUP0
10
6429.45368231859
20
-347.949473216967
30
1.81890151392194e-005
11
6429.03946875622
21
-347.631635971771
31
1.81958107691782e-005
  0
LINE
 8
GROUP0
10
6429.77151956379
20
-348.36368677934
30
1.81845335497866e-005
11
6429.45368231859
21
-347.949473216967
31
1.81890151392194e-005
  0
LINE
 8
GROUP0
10
6426.30741794865
20
-348.36368677934
30
1.8252803087021e-005
11
6426.10761710364
21
-348.846048689135
31
1.82588161875608e-005
  0
LINE
 8
GROUP0
10
6426.62525519385
20
-347.949473216967
30
1.82447569824051e-005
11
6426.30741794865
21
-348.36368677934
31
1.8252803087021e-005
  0
LINE
 8
GROUP0
10
6429.9713204088
20
-349.881324869545
30
1.81871259477939e-005
11
6430.03946875622
21
-349.36368677934
31
1.81835556326448e-005
  0
LINE
 8
GROUP0
10
6427.52183066602
20
-351.295538431918
30
1.82414848075074e-005
11
6428.03946875622
21
-351.36368677934
31
1.82315765669294e-005
  0
LINE
 8
GROUP0
10
6426.30741794865
20
-527.363915160877
30
2.00492678198327e-005
11
6426.10761710364
21
-527.846277070672
31
2.00552809210774e-005
  0
LINE
 8
GROUP0
10
6426.30741794865
20
-350.36368677934
30
1.82614085862731e-005
11
6426.62525519385
21
-350.777900341713
31
1.82569269968402e-005
  0
LINE
 8
GROUP0
10
6427.03946875622
20
-526.631864353308
30
2.00316909377274e-005
11
6426.62525519385
21
-526.949701598504
31
2.00412217159218e-005
  0
LINE
 8
GROUP0
10
6429.45368231859
20
-350.777900341713
30
1.82011851529495e-005
11
6429.77151956379
21
-350.36368677934
31
1.81931390490386e-005
  0
LINE
 8
GROUP0
10
6429.03946875622
20
-351.095737586909
30
1.8210715931144e-005
11
6429.45368231859
21
-350.777900341713
31
1.82011851529495e-005
  0
LINE
 8
GROUP0
10
6427.03946875622
20
-351.095737586909
30
1.82501313668815e-005
11
6427.52183066602
21
-351.295538431918
31
1.82414848075074e-005
  0
LINE
 8
GROUP0
10
6426.10761710364
20
-527.846277070672
30
2.00552809210774e-005
11
6426.03946875622
21
-528.363915160877
31
2.00588512362265e-005
  0
LINE
 8
GROUP0
10
6428.55710684642
20
-351.295538431918
30
1.82210818762518e-005
11
6429.03946875622
21
-351.095737586909
31
1.8210715931144e-005
  0
LINE
 8
GROUP0
10
6428.03946875622
20
-351.36368677934
30
1.82315765669294e-005
11
6428.55710684642
21
-351.295538431918
31
1.82210818762518e-005
  0
LINE
 8
GROUP0
10
6428.03946875622
20
-526.363915160877
30
2.0010830301942e-005
11
6427.52183066602
21
-526.432063508298
31
2.00213249926195e-005
  0
LINE
 8
GROUP0
10
6427.52183066602
20
-526.432063508298
30
2.00213249926195e-005
11
6427.03946875622
21
-526.631864353308
31
2.00316909377274e-005
  0
LINE
 8
GROUP0
10
6426.62525519385
20
-526.949701598504
30
2.00412217159218e-005
11
6426.30741794865
21
-527.363915160877
31
2.00492678198327e-005
  0
LINE
 8
GROUP0
10
6429.77151956379
20
-350.36368677934
30
1.81931390490386e-005
11
6429.9713204088
21
-349.881324869545
31
1.81871259477939e-005
  0
LINE
 8
GROUP0
10
6426.62525519385
20
-350.777900341713
30
1.82569269968402e-005
11
6427.03946875622
21
-351.095737586909
31
1.82501313668815e-005
  0
LINE
 8
GROUP0
10
6429.03946875622
20
-530.095965968446
30
2.00071806639557e-005
11
6429.45368231859
21
-529.77812872325
31
1.99976498864662e-005
  0
LINE
 8
GROUP0
10
6429.03946875622
20
-526.631864353308
30
1.99922755019899e-005
11
6428.55710684642
21
-526.432063508298
31
2.00009220613639e-005
  0
LINE
 8
GROUP0
10
6429.45368231859
20
-529.77812872325
30
1.99976498864662e-005
11
6429.77151956379
21
-529.363915160877
31
1.99896037825553e-005
  0
LINE
 8
GROUP0
10
6429.77151956379
20
-529.363915160877
30
1.99896037825553e-005
11
6429.9713204088
21
-528.881553251082
31
1.99835906813106e-005
  0
LINE
 8
GROUP0
10
6427.52183066602
20
-530.295766813455
30
2.00379495403191e-005
11
6428.03946875622
21
-530.363915160877
31
2.00280413004461e-005
  0
LINE
 8
GROUP0
10
6426.62525519385
20
-529.77812872325
30
2.00533917296519e-005
11
6427.03946875622
21
-530.095965968446
31
2.00465960996932e-005
  0
LINE
 8
GROUP0
10
6426.30741794865
20
-529.363915160877
30
2.00578733190848e-005
11
6426.62525519385
21
-529.77812872325
31
2.00533917296519e-005
  0
LINE
 8
GROUP0
10
6429.77151956379
20
-527.363915160877
30
1.99809982825983e-005
11
6429.45368231859
21
-526.949701598504
31
1.99854798720311e-005
  0
LINE
 8
GROUP0
10
6429.45368231859
20
-526.949701598504
30
1.99854798720311e-005
11
6429.03946875622
21
-526.631864353308
31
1.99922755019899e-005
  0
LINE
 8
GROUP0
10
6429.9713204088
20
-527.846277070672
30
1.99791361466362e-005
11
6429.77151956379
21
-527.363915160877
31
1.99809982825983e-005
  0
LINE
 8
GROUP0
10
6428.55710684642
20
-530.295766813455
30
2.00175466097685e-005
11
6429.03946875622
21
-530.095965968446
31
2.00071806639557e-005
  0
LINE
 8
GROUP0
10
6428.03946875622
20
-530.363915160877
30
2.00280413004461e-005
11
6428.55710684642
21
-530.295766813455
31
2.00175466097685e-005
  0
LINE
 8
GROUP0
10
6430.03946875622
20
-528.363915160877
30
1.99800203654565e-005
11
6429.9713204088
21
-527.846277070672
31
1.99791361466362e-005
  0
LINE
 8
GROUP0
10
6429.9713204088
20
-528.881553251082
30
1.99835906813106e-005
11
6430.03946875622
21
-528.363915160877
31
1.99800203654565e-005
  0
LINE
 8
GROUP0
10
6427.03946875622
20
-530.095965968446
30
2.00465960996932e-005
11
6427.52183066602
21
-530.295766813455
31
2.00379495403191e-005
  0
LINE
 8
GROUP0
10
6428.55710684642
20
-526.432063508298
30
2.00009220613639e-005
11
6428.03946875622
21
-526.363915160877
31
2.0010830301942e-005
  0
LINE
 8
GROUP0
10
6341.97109675531
20
-616.881548441773
30
1.73115736514406e-005
11
6342.03924510273
21
-616.363910351568
31
1.73214818913137e-005
  0
LINE
 8
GROUP0
10
6341.7712959103
20
-617.363910351568
30
1.73029270920666e-005
11
6341.97109675531
21
-616.881548441773
31
1.73115736514406e-005
  0
LINE
 8
GROUP0
10
6341.7712959103
20
-615.363910351568
30
1.73423425270991e-005
11
6341.4534586651
21
-614.949696789195
31
1.73518733052935e-005
  0
LINE
 8
GROUP0
10
6341.03924510273
20
-618.095961159137
30
1.7291649872675e-005
11
6341.4534586651
21
-617.778123913941
31
1.72961314621078e-005
  0
LINE
 8
GROUP0
10
6426.10761710364
20
-528.881553251082
30
2.00597354550469e-005
11
6426.30741794865
21
-529.363915160877
31
2.00578733190848e-005
  0
LINE
 8
GROUP0
10
6341.03924510273
20
-614.631859543999
30
1.73599194092044e-005
11
6340.55688319293
21
-614.43205869899
31
1.73659325104492e-005
  0
LINE
 8
GROUP0
10
6341.97109675531
20
-615.846272261363
30
1.73319765819913e-005
11
6341.7712959103
21
-615.363910351568
31
1.73423425270991e-005
  0
LINE
 8
GROUP0
10
6340.03924510273
20
-618.363910351568
30
1.72906719548283e-005
11
6340.55688319293
21
-618.295762004146
31
1.72897877360079e-005
  0
LINE
 8
GROUP0
10
6340.55688319293
20
-618.295762004146
30
1.72897877360079e-005
11
6341.03924510273
21
-618.095961159137
31
1.7291649872675e-005
  0
LINE
 8
GROUP0
10
6339.03924510273
20
-618.095961159137
30
1.7300255371927e-005
11
6339.52160701252
21
-618.295762004146
31
1.72942422706823e-005
  0
LINE
 8
GROUP0
10
6338.62503154036
20
-617.778123913941
30
1.7308301475838e-005
11
6339.03924510273
21
-618.095961159137
31
1.7300255371927e-005
  0
LINE
 8
GROUP0
10
6341.4534586651
20
-617.778123913941
30
1.72961314621078e-005
11
6341.7712959103
21
-617.363910351568
31
1.73029270920666e-005
  0
LINE
 8
GROUP0
10
6339.52160701252
20
-618.295762004146
30
1.72942422706823e-005
11
6340.03924510273
21
-618.363910351568
31
1.72906719548283e-005
  0
LINE
 8
GROUP0
10
6342.03924510273
20
-616.363910351568
30
1.73214818913137e-005
11
6341.97109675531
21
-615.846272261363
31
1.73319765819913e-005
  0
LINE
 8
GROUP0
10
6341.4534586651
20
-614.949696789195
30
1.73518733052935e-005
11
6341.03924510273
21
-614.631859543999
31
1.73599194092044e-005
  0
LINE
 8
GROUP0
10
6426.03946875622
20
-528.363915160877
30
2.00588512362265e-005
11
6426.10761710364
21
-528.881553251082
31
2.00597354550469e-005
  0
LINE
 8
GROUP0
10
6338.30719429516
20
-617.363910351568
30
1.73178322540324e-005
11
6338.62503154036
21
-617.778123913941
31
1.7308301475838e-005
  0
LINE
 8
GROUP0
10
6161.03924510273
20
-614.363910351568
30
1.82623865034148e-005
11
6160.52160701252
21
-614.43205869899
31
1.82632707222352e-005
  0
LINE
 8
GROUP0
10
6338.10739345015
20
-616.881548441773
30
1.73281981991402e-005
11
6338.30719429516
21
-617.363910351568
31
1.73178322540324e-005
  0
LINE
 8
GROUP0
10
6338.03924510273
20
-616.363910351568
30
1.73386928898178e-005
11
6338.10739345015
21
-616.881548441773
31
1.73281981991402e-005
  0
LINE
 8
GROUP0
10
6338.62503154036
20
-614.949696789195
30
1.73640433190236e-005
11
6338.30719429516
21
-615.363910351568
31
1.73572476890649e-005
  0
LINE
 8
GROUP0
10
6338.10739345015
20
-615.846272261363
30
1.73486011296908e-005
11
6338.03924510273
21
-616.363910351568
31
1.73386928898178e-005
  0
LINE
 8
GROUP0
10
6161.55688319293
20
-614.43205869899
30
1.82588161875608e-005
11
6161.03924510273
21
-614.363910351568
31
1.82623865034148e-005
  0
LINE
 8
GROUP0
10
6339.52160701252
20
-614.43205869899
30
1.73703870444186e-005
11
6339.03924510273
21
-614.631859543999
31
1.73685249084565e-005
  0
LINE
 8
GROUP0
10
6162.7712959103
20
-615.363910351568
30
1.82352262049157e-005
11
6162.4534586651
21
-614.949696789195
31
1.82447569824051e-005
  0
LINE
 8
GROUP0
10
6338.30719429516
20
-615.363910351568
30
1.73572476890649e-005
11
6338.10739345015
21
-615.846272261363
31
1.73486011296908e-005
  0
LINE
 8
GROUP0
10
6340.55688319293
20
-614.43205869899
30
1.73659325104492e-005
11
6340.03924510273
21
-614.363910351568
31
1.73695028263032e-005
  0
LINE
 8
GROUP0
10
6160.52160701252
20
-614.43205869899
30
1.82632707222352e-005
11
6160.03924510273
21
-614.631859543999
31
1.82614085862731e-005
  0
LINE
 8
GROUP0
10
6339.03924510273
20
-614.631859543999
30
1.73685249084565e-005
11
6338.62503154036
21
-614.949696789195
31
1.73640433190236e-005
  0
LINE
 8
GROUP0
10
6162.03924510273
20
-614.631859543999
30
1.8252803087021e-005
11
6161.55688319293
21
-614.43205869899
31
1.82588161875608e-005
  0
LINE
 8
GROUP0
10
6340.03924510273
20
-614.363910351568
30
1.73695028263032e-005
11
6339.52160701252
21
-614.43205869899
31
1.73703870444186e-005
  0
LINE
 8
GROUP0
10
6162.4534586651
20
-614.949696789195
30
1.82447569824051e-005
11
6162.03924510273
21
-614.631859543999
31
1.8252803087021e-005
  0
LINE
 8
GROUP0
10
6162.97109675531
20
-616.881548441773
30
1.82044573285522e-005
11
6163.03924510273
21
-616.363910351568
31
1.82143655684253e-005
  0
LINE
 8
GROUP0
10
6162.03924510273
20
-618.095961159137
30
1.81845335497866e-005
11
6162.4534586651
21
-617.778123913941
31
1.81890151392194e-005
  0
LINE
 8
GROUP0
10
6159.62503154036
20
-617.778123913941
30
1.82011851529495e-005
11
6160.03924510273
21
-618.095961159137
31
1.81931390490386e-005
  0
LINE
 8
GROUP0
10
6162.4534586651
20
-617.778123913941
30
1.81890151392194e-005
11
6162.7712959103
21
-617.363910351568
31
1.81958107691782e-005
  0
LINE
 8
GROUP0
10
6161.03924510273
20
-618.363910351568
30
1.81835556326448e-005
11
6161.55688319293
21
-618.295762004146
31
1.81826714138245e-005
  0
LINE
 8
GROUP0
10
6160.03924510273
20
-618.095961159137
30
1.81931390490386e-005
11
6160.52160701252
21
-618.295762004146
31
1.81871259477939e-005
  0
LINE
 8
GROUP0
10
6159.30719429516
20
-617.363910351568
30
1.8210715931144e-005
11
6159.62503154036
21
-617.778123913941
31
1.82011851529495e-005
  0
LINE
 8
GROUP0
10
6163.03924510273
20
-616.363910351568
30
1.82143655684253e-005
11
6162.97109675531
21
-615.846272261363
31
1.82248602591029e-005
  0
LINE
 8
GROUP0
10
6162.7712959103
20
-617.363910351568
30
1.81958107691782e-005
11
6162.97109675531
21
-616.881548441773
31
1.82044573285522e-005
  0
LINE
 8
GROUP0
10
6162.97109675531
20
-615.846272261363
30
1.82248602591029e-005
11
6162.7712959103
21
-615.363910351568
31
1.82352262049157e-005
  0
LINE
 8
GROUP0
10
6161.55688319293
20
-618.295762004146
30
1.81826714138245e-005
11
6162.03924510273
21
-618.095961159137
31
1.81845335497866e-005
  0
LINE
 8
GROUP0
10
6160.52160701252
20
-618.295762004146
30
1.81871259477939e-005
11
6161.03924510273
21
-618.363910351568
31
1.81835556326448e-005
  0
LINE
 8
GROUP0
10
5893.5213834403
20
-172.295309969118
30
2.00009220613639e-005
11
5894.0390215305
21
-172.36345831654
31
2.0010830301942e-005
  0
LINE
 8
GROUP0
10
5894.0390215305
20
-172.36345831654
30
2.0010830301942e-005
11
5894.55665962071
21
-172.295309969118
31
2.00213249926195e-005
  0
LINE
 8
GROUP0
10
5893.0390215305
20
-172.095509124109
30
1.99922755019899e-005
11
5893.5213834403
21
-172.295309969118
31
2.00009220613639e-005
  0
LINE
 8
GROUP0
10
5892.62480796813
20
-171.777671878913
30
1.99854798720311e-005
11
5893.0390215305
21
-172.095509124109
31
1.99922755019899e-005
  0
LINE
 8
GROUP0
10
5895.45323509287
20
-171.777671878913
30
2.00412217159218e-005
11
5895.77107233807
21
-171.36345831654
31
2.00492678198327e-005
  0
LINE
 8
GROUP0
10
5892.30697072293
20
-171.36345831654
30
1.99809982825983e-005
11
5892.62480796813
21
-171.777671878913
31
1.99854798720311e-005
  0
LINE
 8
GROUP0
10
5892.10716987792
20
-170.881096406745
30
1.99791361466362e-005
11
5892.30697072293
21
-171.36345831654
31
1.99809982825983e-005
  0
LINE
 8
GROUP0
10
5895.77107233807
20
-350.363686698076
30
1.8252803087021e-005
11
5895.97087318308
21
-349.881324788281
31
1.82588161875608e-005
  0
LINE
 8
GROUP0
10
5895.77107233807
20
-171.36345831654
30
2.00492678198327e-005
11
5895.97087318308
21
-170.881096406745
31
2.00552809210774e-005
  0
LINE
 8
GROUP0
10
5892.0390215305
20
-170.36345831654
30
1.99800203654565e-005
11
5892.10716987792
21
-170.881096406745
31
1.99791361466362e-005
  0
LINE
 8
GROUP0
10
5895.0390215305
20
-172.095509124109
30
2.00316909377274e-005
11
5895.45323509287
21
-171.777671878913
31
2.00412217159218e-005
  0
LINE
 8
GROUP0
10
5892.10716987792
20
-169.845820226335
30
1.99835906813106e-005
11
5892.0390215305
21
-170.36345831654
31
1.99800203654565e-005
  0
LINE
 8
GROUP0
10
5895.97087318308
20
-349.881324788281
30
1.82588161875608e-005
11
5896.0390215305
21
-349.363686698076
31
1.82623865034148e-005
  0
LINE
 8
GROUP0
10
5894.55665962071
20
-172.295309969118
30
2.00213249926195e-005
11
5895.0390215305
21
-172.095509124109
31
2.00316909377274e-005
  0
LINE
 8
GROUP0
10
5895.45323509287
20
-350.777900260449
30
1.82447569824051e-005
11
5895.77107233807
21
-350.363686698076
31
1.8252803087021e-005
  0
LINE
 8
GROUP0
10
5894.0390215305
20
-168.36345831654
30
2.00280413004461e-005
11
5893.5213834403
21
-168.431606663962
31
2.00175466097685e-005
  0
LINE
 8
GROUP0
10
5892.62480796813
20
-168.949244754167
30
1.99976498864662e-005
11
5892.30697072293
21
-169.36345831654
31
1.99896037825553e-005
  0
LINE
 8
GROUP0
10
5896.0390215305
20
-170.36345831654
30
2.00588512362265e-005
11
5895.97087318308
21
-169.845820226335
31
2.00597354550469e-005
  0
LINE
 8
GROUP0
10
5892.30697072293
20
-169.36345831654
30
1.99896037825553e-005
11
5892.10716987792
21
-169.845820226335
31
1.99835906813106e-005
  0
LINE
 8
GROUP0
10
5893.0390215305
20
-168.631407508971
30
2.00071806639557e-005
11
5892.62480796813
21
-168.949244754167
31
1.99976498864662e-005
  0
LINE
 8
GROUP0
10
5895.97087318308
20
-169.845820226335
30
2.00597354550469e-005
11
5895.77107233807
21
-169.36345831654
31
2.00578733190848e-005
  0
LINE
 8
GROUP0
10
5895.77107233807
20
-169.36345831654
30
2.00578733190848e-005
11
5895.45323509287
21
-168.949244754167
31
2.00533917296519e-005
  0
LINE
 8
GROUP0
10
5893.5213834403
20
-168.431606663962
30
2.00175466097685e-005
11
5893.0390215305
21
-168.631407508971
31
2.00071806639557e-005
  0
LINE
 8
GROUP0
10
5895.97087318308
20
-170.881096406745
30
2.00552809210774e-005
11
5896.0390215305
21
-170.36345831654
31
2.00588512362265e-005
  0
LINE
 8
GROUP0
10
5895.45323509287
20
-168.949244754167
30
2.00533917296519e-005
11
5895.0390215305
21
-168.631407508971
31
2.00465960996932e-005
  0
LINE
 8
GROUP0
10
5894.55665962071
20
-168.431606663962
30
2.00379495403191e-005
11
5894.0390215305
21
-168.36345831654
31
2.00280413004461e-005
  0
LINE
 8
GROUP0
10
5895.0390215305
20
-168.631407508971
30
2.00465960996932e-005
11
5894.55665962071
21
-168.431606663962
31
2.00379495403191e-005
  0
LINE
 8
GROUP0
10
5982.5568832742
20
-84.2953147784275
30
1.73703870444186e-005
11
5983.03924518399
21
-84.095513933418
31
1.73685249084565e-005
  0
LINE
 8
GROUP0
10
5981.52160709379
20
-84.2953147784275
30
1.73659325104492e-005
11
5982.03924518399
21
-84.3634631258495
31
1.73695028263032e-005
  0
LINE
 8
GROUP0
10
5980.62503162162
20
-83.7776766882221
30
1.73518733052935e-005
11
5981.03924518399
21
-84.095513933418
31
1.73599194092044e-005
  0
LINE
 8
GROUP0
10
5980.10739353141
20
-82.881101216054
30
1.73319765819913e-005
11
5980.30719437642
21
-83.363463125849
31
1.73423425270991e-005
  0
LINE
 8
GROUP0
10
5980.03924518399
20
-82.3634631258493
30
1.73214818913137e-005
11
5980.10739353141
21
-82.881101216054
31
1.73319765819913e-005
  0
LINE
 8
GROUP0
10
5980.10739353141
20
-81.8458250356446
30
1.73115736514406e-005
11
5980.03924518399
21
-82.3634631258493
31
1.73214818913137e-005
  0
LINE
 8
GROUP0
10
5980.30719437642
20
-81.3634631258495
30
1.73029270920666e-005
11
5980.10739353141
21
-81.8458250356446
31
1.73115736514406e-005
  0
LINE
 8
GROUP0
10
5980.62503162162
20
-80.9492495634764
30
1.72961314621078e-005
11
5980.30719437642
21
-81.3634631258495
31
1.73029270920666e-005
  0
LINE
 8
GROUP0
10
5981.03924518399
20
-80.6314123182805
30
1.7291649872675e-005
11
5980.62503162162
21
-80.9492495634764
31
1.72961314621078e-005
  0
LINE
 8
GROUP0
10
5981.52160709379
20
-80.431611473271
30
1.72897877360079e-005
11
5981.03924518399
21
-80.6314123182805
31
1.7291649872675e-005
  0
LINE
 8
GROUP0
10
5980.30719437642
20
-83.363463125849
30
1.73423425270991e-005
11
5980.62503162162
21
-83.7776766882221
31
1.73518733052935e-005
  0
LINE
 8
GROUP0
10
5983.03924518399
20
-84.095513933418
30
1.73685249084565e-005
11
5983.45345874637
21
-83.7776766882221
31
1.73640433190236e-005
  0
LINE
 8
GROUP0
10
5982.03924518399
20
-84.3634631258495
30
1.73695028263032e-005
11
5982.5568832742
21
-84.2953147784275
31
1.73703870444186e-005
  0
LINE
 8
GROUP0
10
5981.03924518399
20
-84.095513933418
30
1.73599194092044e-005
11
5981.52160709379
21
-84.2953147784275
31
1.73659325104492e-005
  0
LINE
 8
GROUP0
10
5983.97109683657
20
-81.8458250356446
30
1.73281981991402e-005
11
5983.77129599156
21
-81.3634631258495
31
1.73178322540324e-005
  0
LINE
 8
GROUP0
10
5983.97109683657
20
-82.881101216054
30
1.73486011296908e-005
11
5984.03924518399
21
-82.3634631258493
31
1.73386928898178e-005
  0
LINE
 8
GROUP0
10
5983.77129599156
20
-81.3634631258495
30
1.73178322540324e-005
11
5983.45345874637
21
-80.9492495634764
31
1.7308301475838e-005
  0
LINE
 8
GROUP0
10
6159.62503162162
20
-80.9492495634767
30
1.81890151392194e-005
11
6159.30719437642
21
-81.3634631258498
31
1.81958107691782e-005
  0
LINE
 8
GROUP0
10
6160.03924518399
20
-80.6314123182808
30
1.81845335497866e-005
11
6159.62503162162
21
-80.9492495634767
31
1.81890151392194e-005
  0
LINE
 8
GROUP0
10
5982.5568832742
20
-80.431611473271
30
1.72942422706823e-005
11
5982.03924518399
21
-80.363463125849
31
1.72906719548283e-005
  0
LINE
 8
GROUP0
10
6161.5568832742
20
-80.4316114732713
30
1.81871259477939e-005
11
6161.03924518399
21
-80.3634631258493
31
1.81835556326448e-005
  0
LINE
 8
GROUP0
10
5983.45345874637
20
-83.7776766882221
30
1.73640433190236e-005
11
5983.77129599156
21
-83.363463125849
31
1.73572476890649e-005
  0
LINE
 8
GROUP0
10
5983.03924518399
20
-80.6314123182805
30
1.7300255371927e-005
11
5982.5568832742
21
-80.431611473271
31
1.72942422706823e-005
  0
LINE
 8
GROUP0
10
5983.77129599156
20
-83.363463125849
30
1.73572476890649e-005
11
5983.97109683657
21
-82.881101216054
31
1.73486011296908e-005
  0
LINE
 8
GROUP0
10
5982.03924518399
20
-80.363463125849
30
1.72906719548283e-005
11
5981.52160709379
21
-80.431611473271
31
1.72897877360079e-005
  0
LINE
 8
GROUP0
10
5983.45345874637
20
-80.9492495634764
30
1.7308301475838e-005
11
5983.03924518399
21
-80.6314123182805
31
1.7300255371927e-005
  0
LINE
 8
GROUP0
10
5984.03924518399
20
-82.3634631258493
30
1.73386928898178e-005
11
5983.97109683657
21
-81.8458250356446
31
1.73281981991402e-005
  0
LINE
 8
GROUP0
10
6159.30719437642
20
-81.3634631258498
30
1.81958107691782e-005
11
6159.10739353142
21
-81.8458250356448
31
1.82044573285522e-005
  0
LINE
 8
GROUP0
10
6160.52160709379
20
-80.4316114732713
30
1.81826714138245e-005
11
6160.03924518399
21
-80.6314123182808
31
1.81845335497866e-005
  0
LINE
 8
GROUP0
10
6161.03924518399
20
-80.3634631258493
30
1.81835556326448e-005
11
6160.52160709379
21
-80.4316114732713
31
1.81826714138245e-005
  0
LINE
 8
GROUP0
10
6159.10739353142
20
-82.8811012160542
30
1.82248602591029e-005
11
6159.30719437642
21
-83.3634631258493
31
1.82352262049157e-005
  0
LINE
 8
GROUP0
10
6160.52160709379
20
-84.2953147784278
30
1.82588161875608e-005
11
6161.03924518399
21
-84.3634631258498
31
1.82623865034148e-005
  0
LINE
 8
GROUP0
10
6160.03924518399
20
-84.0955139334183
30
1.8252803087021e-005
11
6160.52160709379
21
-84.2953147784278
31
1.82588161875608e-005
  0
LINE
 8
GROUP0
10
6159.62503162162
20
-83.7776766882224
30
1.82447569824051e-005
11
6160.03924518399
21
-84.0955139334183
31
1.8252803087021e-005
  0
LINE
 8
GROUP0
10
6162.03924518399
20
-84.0955139334183
30
1.82614085862731e-005
11
6162.45345874637
21
-83.7776766882224
31
1.82569269968402e-005
  0
LINE
 8
GROUP0
10
6163.03924518399
20
-82.3634631258495
30
1.82315765669294e-005
11
6162.97109683657
21
-81.8458250356448
31
1.82210818762518e-005
  0
LINE
 8
GROUP0
10
6162.77129599156
20
-83.3634631258493
30
1.82501313668815e-005
11
6162.97109683657
21
-82.8811012160542
31
1.82414848075074e-005
  0
LINE
 8
GROUP0
10
6162.45345874637
20
-83.7776766882224
30
1.82569269968402e-005
11
6162.77129599156
21
-83.3634631258493
31
1.82501313668815e-005
  0
LINE
 8
GROUP0
10
6162.03924518399
20
-80.6314123182808
30
1.81931390490386e-005
11
6161.5568832742
21
-80.4316114732713
31
1.81871259477939e-005
  0
LINE
 8
GROUP0
10
6162.97109683657
20
-81.8458250356448
30
1.82210818762518e-005
11
6162.77129599156
21
-81.3634631258498
31
1.8210715931144e-005
  0
LINE
 8
GROUP0
10
6161.5568832742
20
-84.2953147784278
30
1.82632707222352e-005
11
6162.03924518399
21
-84.0955139334183
31
1.82614085862731e-005
  0
LINE
 8
GROUP0
10
6161.03924518399
20
-84.3634631258498
30
1.82623865034148e-005
11
6161.5568832742
21
-84.2953147784278
31
1.82632707222352e-005
  0
LINE
 8
GROUP0
10
6162.77129599156
20
-81.3634631258498
30
1.8210715931144e-005
11
6162.45345874637
21
-80.9492495634767
31
1.82011851529495e-005
  0
LINE
 8
GROUP0
10
6162.45345874637
20
-80.9492495634767
30
1.82011851529495e-005
11
6162.03924518399
21
-80.6314123182808
31
1.81931390490386e-005
  0
LINE
 8
GROUP0
10
6159.30719437642
20
-83.3634631258493
30
1.82352262049157e-005
11
6159.62503162162
21
-83.7776766882224
31
1.82447569824051e-005
  0
LINE
 8
GROUP0
10
6162.97109683657
20
-82.8811012160542
30
1.82414848075074e-005
11
6163.03924518399
21
-82.3634631258495
31
1.82315765669294e-005
  0
LINE
 8
GROUP0
10
6338.30742275796
20
-83.3634631258496
30
2.00316909377274e-005
11
6338.62526000316
21
-83.7776766882226
31
2.00412217159218e-005
  0
LINE
 8
GROUP0
10
6339.03947356553
20
-84.0955139334186
30
2.00492678198327e-005
11
6339.52183547532
21
-84.2953147784281
31
2.00552809210774e-005
  0
LINE
 8
GROUP0
10
6338.30742275796
20
-81.36346312585
30
1.99922755019899e-005
11
6338.10762191295
21
-81.8458250356451
31
2.00009220613639e-005
  0
LINE
 8
GROUP0
10
6338.62526000316
20
-80.949249563477
30
1.99854798720311e-005
11
6338.30742275796
21
-81.36346312585
31
1.99922755019899e-005
  0
LINE
 8
GROUP0
10
6159.03924518399
20
-82.3634631258495
30
1.82143655684253e-005
11
6159.10739353142
21
-82.8811012160542
31
1.82248602591029e-005
  0
LINE
 8
GROUP0
10
6340.03947356553
20
-80.3634631258495
30
1.99800203654565e-005
11
6339.52183547532
21
-80.4316114732715
31
1.99791361466362e-005
  0
LINE
 8
GROUP0
10
6338.03947356553
20
-82.3634631258498
30
2.0010830301942e-005
11
6338.10762191295
21
-82.8811012160545
31
2.00213249926195e-005
  0
LINE
 8
GROUP0
10
6340.55711165573
20
-80.4316114732715
30
1.99835906813106e-005
11
6340.03947356553
21
-80.3634631258495
31
1.99800203654565e-005
  0
LINE
 8
GROUP0
10
6340.03947356553
20
-84.3634631258501
30
2.00588512362265e-005
11
6340.55711165573
21
-84.2953147784281
31
2.00597354550469e-005
  0
LINE
 8
GROUP0
10
6339.52183547532
20
-84.2953147784281
30
2.00552809210774e-005
11
6340.03947356553
21
-84.3634631258501
31
2.00588512362265e-005
  0
LINE
 8
GROUP0
10
6338.10762191295
20
-82.8811012160545
30
2.00213249926195e-005
11
6338.30742275796
21
-83.3634631258496
31
2.00316909377274e-005
  0
LINE
 8
GROUP0
10
6338.10762191295
20
-81.8458250356451
30
2.00009220613639e-005
11
6338.03947356553
21
-82.3634631258498
31
2.0010830301942e-005
  0
LINE
 8
GROUP0
10
6339.03947356553
20
-80.631412318281
30
1.99809982825983e-005
11
6338.62526000316
21
-80.949249563477
31
1.99854798720311e-005
  0
LINE
 8
GROUP0
10
6159.10739353142
20
-81.8458250356448
30
1.82044573285522e-005
11
6159.03924518399
21
-82.3634631258495
31
1.82143655684253e-005
  0
LINE
 8
GROUP0
10
6339.52183547532
20
-80.4316114732715
30
1.99791361466362e-005
11
6339.03947356553
21
-80.631412318281
31
1.99809982825983e-005
  0
LINE
 8
GROUP0
10
6338.62526000316
20
-83.7776766882226
30
2.00412217159218e-005
11
6339.03947356553
21
-84.0955139334186
31
2.00492678198327e-005
  0
LINE
 8
GROUP0
10
6341.97132521811
20
-81.8458250356451
30
2.00175466097685e-005
11
6341.7715243731
21
-81.36346312585
31
2.00071806639557e-005
  0
LINE
 8
GROUP0
10
6341.7715243731
20
-83.3634631258496
30
2.00465960996932e-005
11
6341.97132521811
21
-82.8811012160545
31
2.00379495403191e-005
  0
LINE
 8
GROUP0
10
6341.7715243731
20
-81.36346312585
30
2.00071806639557e-005
11
6341.4536871279
21
-80.949249563477
31
1.99976498864662e-005
  0
LINE
 8
GROUP0
10
6341.4536871279
20
-83.7776766882226
30
2.00533917296519e-005
11
6341.7715243731
21
-83.3634631258496
31
2.00465960996932e-005
  0
LINE
 8
GROUP0
10
6341.4536871279
20
-80.949249563477
30
1.99976498864662e-005
11
6341.03947356553
21
-80.631412318281
31
1.99896037825553e-005
  0
LINE
 8
GROUP0
10
6341.97132521811
20
-82.8811012160545
30
2.00379495403191e-005
11
6342.03947356553
21
-82.3634631258498
31
2.00280413004461e-005
  0
LINE
 8
GROUP0
10
6341.03947356553
20
-84.0955139334186
30
2.00578733190848e-005
11
6341.4536871279
21
-83.7776766882226
31
2.00533917296519e-005
  0
LINE
 8
GROUP0
10
6340.55711165573
20
-84.2953147784281
30
2.00597354550469e-005
11
6341.03947356553
21
-84.0955139334186
31
2.00578733190848e-005
  0
LINE
 8
GROUP0
10
6341.03947356553
20
-80.631412318281
30
1.99896037825553e-005
11
6340.55711165573
21
-80.4316114732715
31
1.99835906813106e-005
  0
LINE
 8
GROUP0
10
6342.03947356553
20
-82.3634631258498
30
2.00280413004461e-005
11
6341.97132521811
21
-81.8458250356451
31
2.00175466097685e-005
 0
ENDSEC
 0
EOF
