 0
SECTION
 2
ENTITIES
  0
LINE
 8
GROUP0
10
-5062.13873031573
20
244.730047677203
30
1.98190796021402e-005
11
-5062.13873031573
21
375.229806983978
31
2.29242445694167e-005
  0
LINE
 8
GROUP0
10
-4956.12756628241
20
244.730047677203
30
2.08159484999082e-005
11
-5062.13873031573
21
244.730047677203
31
1.98190796021402e-005
  0
LINE
 8
GROUP0
10
-4956.12756628241
20
375.229806983978
30
2.39211134664796e-005
11
-4956.12756628241
21
244.730047677203
31
2.08159484999082e-005
  0
LINE
 8
GROUP0
10
-5062.13873031573
20
375.229806983978
30
2.29242445694167e-005
11
-4956.12756628241
21
375.229806983978
31
2.39211134664796e-005
  0
LINE
 8
GROUP0
10
-4959.07789157662
20
371.093329830994
30
1.95538565438635e-005
11
-4959.46612014428
21
371.042218570429
31
1.9564011683082e-005
  0
LINE
 8
GROUP0
10
-4959.46612014428
20
371.042218570429
30
1.9564011683082e-005
11
-4959.85434871193
21
371.093329830996
31
1.9571815641406e-005
  0
LINE
 8
GROUP0
10
-4959.85434871193
20
371.093329830996
30
1.9571815641406e-005
11
-4960.21612014427
21
371.243180464751
31
1.95767365914867e-005
  0
LINE
 8
GROUP0
10
-4960.21612014427
20
371.243180464751
30
1.95767365914867e-005
11
-4960.52678031606
21
371.481558398646
31
1.95784391786802e-005
  0
LINE
 8
GROUP0
10
-4960.52678031606
20
371.481558398646
30
1.95784391786802e-005
11
-4960.76515824995
21
371.792218570428
31
1.95768073747604e-005
  0
LINE
 8
GROUP0
10
-4960.76515824995
20
371.792218570428
30
1.95768073747604e-005
11
-4960.91500888371
21
372.15399000277
31
1.95719523844007e-005
  0
LINE
 8
GROUP0
10
-4960.91500888371
20
372.15399000277
30
1.95719523844007e-005
11
-4960.96612014428
21
372.542218570426
31
1.95642050672185e-005
  0
LINE
 8
GROUP0
10
-4960.96612014428
20
372.542218570426
30
1.95642050672185e-005
11
-4960.91500888371
21
372.930447138081
31
1.95540933893235e-005
  0
LINE
 8
GROUP0
10
-4960.91500888371
20
372.930447138081
30
1.95540933893235e-005
11
-4960.76515824995
21
373.292218570429
31
1.95423064461853e-005
  0
LINE
 8
GROUP0
10
-4960.76515824995
20
373.292218570429
30
1.95423064461853e-005
11
-4960.52678031606
21
373.602878742209
31
1.95296474975015e-005
  0
LINE
 8
GROUP0
10
-4960.52678031606
20
373.602878742209
30
1.95296474975015e-005
11
-4960.21612014428
21
373.841256676104
31
1.95169792302385e-005
  0
LINE
 8
GROUP0
10
-4960.21612014428
20
373.841256676104
30
1.95169792302385e-005
11
-4959.85434871193
21
373.991107309864
31
1.95051649651501e-005
  0
LINE
 8
GROUP0
10
-4959.85434871193
20
373.991107309864
30
1.95051649651501e-005
11
-4959.46612014427
21
374.042218570421
31
1.94950098259317e-005
  0
LINE
 8
GROUP0
10
-4959.46612014427
20
374.042218570421
30
1.94950098259317e-005
11
-4959.07789157662
21
373.991107309856
31
1.94872058676077e-005
  0
LINE
 8
GROUP0
10
-4959.07789157662
20
373.991107309856
30
1.94872058676077e-005
11
-4958.71612014428
21
373.8412566761
31
1.94822849175269e-005
  0
LINE
 8
GROUP0
10
-4958.71612014428
20
373.8412566761
30
1.94822849175269e-005
11
-4958.4054599725
21
373.602878742207
31
1.94805823303334e-005
  0
LINE
 8
GROUP0
10
-4958.4054599725
20
373.602878742207
30
1.94805823303334e-005
11
-4958.1670820386
21
373.292218570425
31
1.94822141342532e-005
  0
LINE
 8
GROUP0
10
-4958.1670820386
20
373.292218570425
30
1.94822141342532e-005
11
-4958.01723140484
21
372.930447138083
31
1.9487069123908e-005
  0
LINE
 8
GROUP0
10
-4958.01723140484
20
372.930447138083
30
1.9487069123908e-005
11
-4957.96612014428
21
372.542218570429
31
1.94948164417952e-005
  0
LINE
 8
GROUP0
10
-4957.96612014428
20
372.542218570429
30
1.94948164417952e-005
11
-4958.01723140484
21
372.153990002771
31
1.95049281189852e-005
  0
LINE
 8
GROUP0
10
-4958.01723140484
20
372.153990002771
30
1.95049281189852e-005
11
-4958.1670820386
21
371.792218570424
31
1.95167150621234e-005
  0
LINE
 8
GROUP0
10
-4958.1670820386
20
371.792218570424
30
1.95167150621234e-005
11
-4958.4054599725
21
371.481558398649
31
1.95293740115121e-005
  0
LINE
 8
GROUP0
10
-4958.4054599725
20
371.481558398649
30
1.95293740115121e-005
11
-4958.71612014427
21
371.24318046475
31
1.95420422787751e-005
  0
LINE
 8
GROUP0
10
-4958.71612014427
20
371.24318046475
30
1.95420422787751e-005
11
-4959.07789157662
21
371.093329830994
31
1.95538565438635e-005
  0
LINE
 8
GROUP0
10
-4959.46612014429
20
274.21739089145
30
2.17910426542456e-005
11
-4959.07789157664
21
274.166279630886
31
2.17832386959216e-005
  0
LINE
 8
GROUP0
10
-4959.07789157664
20
274.166279630886
30
2.17832386959216e-005
11
-4958.71612014429
21
274.016428997124
31
2.17783177458408e-005
  0
LINE
 8
GROUP0
10
-4958.71612014429
20
274.016428997124
30
2.17783177458408e-005
11
-4958.40545997251
21
273.778051063229
31
2.17766151586474e-005
  0
LINE
 8
GROUP0
10
-4958.40545997251
20
273.778051063229
30
2.17766151586474e-005
11
-4958.16708203861
21
273.467390891449
31
2.17782469625671e-005
  0
LINE
 8
GROUP0
10
-4958.16708203861
20
273.467390891449
30
2.17782469625671e-005
11
-4958.01723140485
21
273.105619459099
31
2.17831019529269e-005
  0
LINE
 8
GROUP0
10
-4958.01723140485
20
273.105619459099
30
2.17831019529269e-005
11
-4957.9661201443
21
272.717390891449
31
2.17908492701091e-005
  0
LINE
 8
GROUP0
10
-4957.9661201443
20
272.717390891449
30
2.17908492701091e-005
11
-4958.01723140486
21
272.329162323789
31
2.18009609472991e-005
  0
LINE
 8
GROUP0
10
-4958.01723140486
20
272.329162323789
30
2.18009609472991e-005
11
-4958.16708203862
21
271.967390891443
31
2.18127478911423e-005
  0
LINE
 8
GROUP0
10
-4958.16708203862
20
271.967390891443
30
2.18127478911423e-005
11
-4958.40545997251
21
271.656730719663
31
2.1825406839826e-005
  0
LINE
 8
GROUP0
10
-4958.40545997251
20
271.656730719663
30
2.1825406839826e-005
11
-4958.71612014429
21
271.418352785773
31
2.1838075107089e-005
  0
LINE
 8
GROUP0
10
-4958.71612014429
20
271.418352785773
30
2.1838075107089e-005
11
-4959.07789157664
21
271.268502152011
31
2.18498893721775e-005
  0
LINE
 8
GROUP0
10
-4959.07789157664
20
271.268502152011
30
2.18498893721775e-005
11
-4959.4661201443
21
271.217390891446
31
2.18600445113959e-005
  0
LINE
 8
GROUP0
10
-4959.4661201443
20
271.217390891446
30
2.18600445113959e-005
11
-4959.85434871195
21
271.26850215201
31
2.18678484697199e-005
  0
LINE
 8
GROUP0
10
-4959.85434871195
20
271.26850215201
30
2.18678484697199e-005
11
-4960.21612014429
21
271.418352785773
31
2.18727694198007e-005
  0
LINE
 8
GROUP0
10
-4960.21612014429
20
271.418352785773
30
2.18727694198007e-005
11
-4960.52678031607
21
271.656730719662
31
2.18744720069941e-005
  0
LINE
 8
GROUP0
10
-4960.52678031607
20
271.656730719662
30
2.18744720069941e-005
11
-4960.76515824997
21
271.967390891451
31
2.18728402030743e-005
  0
LINE
 8
GROUP0
10
-4960.76515824997
20
271.967390891451
30
2.18728402030743e-005
11
-4960.91500888373
21
272.329162323794
31
2.18679852134196e-005
  0
LINE
 8
GROUP0
10
-4960.91500888373
20
272.329162323794
30
2.18679852134196e-005
11
-4960.96612014429
21
272.717390891447
31
2.18602378955324e-005
  0
LINE
 8
GROUP0
10
-4960.96612014429
20
272.717390891447
30
2.18602378955324e-005
11
-4960.91500888373
21
273.105619459101
31
2.18501262183424e-005
  0
LINE
 8
GROUP0
10
-4960.91500888373
20
273.105619459101
30
2.18501262183424e-005
11
-4960.76515824997
21
273.467390891447
31
2.18383392744992e-005
  0
LINE
 8
GROUP0
10
-4960.76515824997
20
273.467390891447
30
2.18383392744992e-005
11
-4960.52678031608
21
273.778051063228
31
2.18256803258154e-005
  0
LINE
 8
GROUP0
10
-4960.52678031608
20
273.778051063228
30
2.18256803258154e-005
11
-4960.21612014429
21
274.016428997121
31
2.18130120585525e-005
  0
LINE
 8
GROUP0
10
-4960.21612014429
20
274.016428997121
30
2.18130120585525e-005
11
-4959.85434871195
21
274.16627963088
31
2.1801197794169e-005
  0
LINE
 8
GROUP0
10
-4959.85434871195
20
274.16627963088
30
2.1801197794169e-005
11
-4959.46612014429
21
274.21739089145
31
2.17910426542456e-005
  0
LINE
 8
GROUP0
10
-5054.08055960269
20
364.954551122554
30
2.18924204344884e-005
11
-5054.31893753658
21
365.265211294327
31
2.18907886305686e-005
  0
LINE
 8
GROUP0
10
-5054.31893753658
20
365.265211294327
30
2.18907886305686e-005
11
-5054.46878817034
21
365.626982726677
31
2.18859336395039e-005
  0
LINE
 8
GROUP0
10
-5054.46878817034
20
365.626982726677
30
2.18859336395039e-005
11
-5054.51989943091
21
366.015211294334
31
2.18781863230266e-005
  0
LINE
 8
GROUP0
10
-5054.51989943091
20
366.015211294334
30
2.18781863230266e-005
11
-5054.46878817034
21
366.403439861984
31
2.18680746451316e-005
  0
LINE
 8
GROUP0
10
-5054.46878817034
20
366.403439861984
30
2.18680746451316e-005
11
-5054.31893753658
21
366.765211294326
31
2.18562877012884e-005
  0
LINE
 8
GROUP0
10
-5054.31893753658
20
366.765211294326
30
2.18562877012884e-005
11
-5054.08055960269
21
367.075871466109
31
2.18436287533097e-005
  0
LINE
 8
GROUP0
10
-5054.08055960269
20
367.075871466109
30
2.18436287533097e-005
11
-5053.7698994309
21
367.314249400004
31
2.18309604860467e-005
  0
LINE
 8
GROUP0
10
-5053.7698994309
20
367.314249400004
30
2.18309604860467e-005
11
-5053.40812799856
21
367.464100033761
31
2.18191462209583e-005
  0
LINE
 8
GROUP0
10
-5053.40812799856
20
367.464100033761
30
2.18191462209583e-005
11
-5053.01989943091
21
367.515211294327
31
2.18089910817398e-005
  0
LINE
 8
GROUP0
10
-5053.01989943091
20
367.515211294327
30
2.18089910817398e-005
11
-5052.63167086326
21
367.464100033765
31
2.18011871234158e-005
  0
LINE
 8
GROUP0
10
-5052.63167086326
20
367.464100033765
30
2.18011871234158e-005
11
-5052.26989943091
21
367.314249400006
31
2.17962661733351e-005
  0
LINE
 8
GROUP0
10
-5052.26989943091
20
367.314249400006
30
2.17962661733351e-005
11
-5051.95923925913
21
367.075871466107
31
2.17945635854366e-005
  0
LINE
 8
GROUP0
10
-5051.95923925913
20
367.075871466107
30
2.17945635854366e-005
11
-5051.72086132523
21
366.765211294328
31
2.17961953893564e-005
  0
LINE
 8
GROUP0
10
-5051.72086132523
20
366.765211294328
30
2.17961953893564e-005
11
-5051.57101069147
21
366.403439861981
31
2.18010503797161e-005
  0
LINE
 8
GROUP0
10
-5051.57101069147
20
366.403439861981
30
2.18010503797161e-005
11
-5051.5198994309
21
366.015211294327
31
2.18087976968984e-005
  0
LINE
 8
GROUP0
10
-5051.5198994309
20
366.015211294327
30
2.18087976968984e-005
11
-5051.57101069147
21
365.626982726676
31
2.18189093747934e-005
  0
LINE
 8
GROUP0
10
-5051.57101069147
20
365.626982726676
30
2.18189093747934e-005
11
-5051.72086132523
21
365.265211294328
31
2.18306963179316e-005
  0
LINE
 8
GROUP0
10
-5051.72086132523
20
365.265211294328
30
2.18306963179316e-005
11
-5051.95923925913
21
364.95455112255
31
2.18433552666153e-005
  0
LINE
 8
GROUP0
10
-5051.95923925913
20
364.95455112255
30
2.18433552666153e-005
11
-5052.26989943091
21
364.716173188651
31
2.18560235345833e-005
  0
LINE
 8
GROUP0
10
-5052.26989943091
20
364.716173188651
30
2.18560235345833e-005
11
-5052.63167086326
21
364.566322554894
31
2.18678377989667e-005
  0
LINE
 8
GROUP0
10
-5052.63167086326
20
364.566322554894
30
2.18678377989667e-005
11
-5053.01989943091
21
364.515211294328
31
2.18779929381852e-005
  0
LINE
 8
GROUP0
10
-5053.01989943091
20
364.515211294328
30
2.18779929381852e-005
11
-5053.40812799856
21
364.566322554893
31
2.18857968972141e-005
  0
LINE
 8
GROUP0
10
-5053.40812799856
20
364.566322554893
30
2.18857968972141e-005
11
-5053.76989943091
21
364.716173188656
31
2.18907178465899e-005
  0
LINE
 8
GROUP0
10
-5053.76989943091
20
364.716173188656
30
2.18907178465899e-005
11
-5054.08055960269
21
364.954551122554
31
2.18924204344884e-005
  0
LINE
 8
GROUP0
10
-5056.63912323597
20
272.845370333349
30
2.40701670128796e-005
11
-5056.69023449654
21
272.45714176569
31
2.40802786900696e-005
  0
LINE
 8
GROUP0
10
-5056.69023449654
20
272.45714176569
30
2.40802786900696e-005
11
-5056.84008513029
21
272.095370333344
31
2.40920656332078e-005
  0
LINE
 8
GROUP0
10
-5056.84008513029
20
272.095370333344
30
2.40920656332078e-005
11
-5057.07846306418
21
271.784710161568
31
2.41047245825965e-005
  0
LINE
 8
GROUP0
10
-5057.07846306418
20
271.784710161568
30
2.41047245825965e-005
11
-5057.38912323597
21
271.546332227663
31
2.41173928498595e-005
  0
LINE
 8
GROUP0
10
-5057.38912323597
20
271.546332227663
30
2.41173928498595e-005
11
-5057.75089466832
21
271.396481593912
31
2.41292071142429e-005
  0
LINE
 8
GROUP0
10
-5057.75089466832
20
271.396481593912
30
2.41292071142429e-005
11
-5058.13912323597
21
271.345370333347
31
2.41393622541664e-005
  0
LINE
 8
GROUP0
10
-5058.13912323597
20
271.345370333347
30
2.41393622541664e-005
11
-5058.52735180362
21
271.396481593913
31
2.41471662124904e-005
  0
LINE
 8
GROUP0
10
-5058.52735180362
20
271.396481593913
30
2.41471662124904e-005
11
-5058.88912323597
21
271.546332227666
31
2.41520871625711e-005
  0
LINE
 8
GROUP0
10
-5058.88912323597
20
271.546332227666
30
2.41520871625711e-005
11
-5059.19978340775
21
271.784710161568
31
2.41537897497646e-005
  0
LINE
 8
GROUP0
10
-5059.19978340775
20
271.784710161568
30
2.41537897497646e-005
11
-5059.43816134165
21
272.095370333347
31
2.41521579458448e-005
  0
LINE
 8
GROUP0
10
-5059.43816134165
20
272.095370333347
30
2.41521579458448e-005
11
-5059.5880119754
21
272.457141765693
31
2.41473029547801e-005
  0
LINE
 8
GROUP0
10
-5059.5880119754
20
272.457141765693
30
2.41473029547801e-005
11
-5059.63912323596
21
272.845370333346
31
2.41395556383028e-005
  0
LINE
 8
GROUP0
10
-5059.63912323596
20
272.845370333346
30
2.41395556383028e-005
11
-5059.5880119754
21
273.233598900999
31
2.41294439604078e-005
  0
LINE
 8
GROUP0
10
-5059.5880119754
20
273.233598900999
30
2.41294439604078e-005
11
-5059.43816134165
21
273.595370333341
31
2.41176570172696e-005
  0
LINE
 8
GROUP0
10
-5059.43816134165
20
273.595370333341
30
2.41176570172696e-005
11
-5059.19978340775
21
273.906030505125
31
2.41049980685859e-005
  0
LINE
 8
GROUP0
10
-5059.19978340775
20
273.906030505125
30
2.41049980685859e-005
11
-5058.88912323597
21
274.144408439021
31
2.40923298013229e-005
  0
LINE
 8
GROUP0
10
-5058.88912323597
20
274.144408439021
30
2.40923298013229e-005
11
-5058.52735180362
21
274.294259072777
31
2.40805155362345e-005
  0
LINE
 8
GROUP0
10
-5058.52735180362
20
274.294259072777
30
2.40805155362345e-005
11
-5058.13912323597
21
274.345370333342
31
2.4070360397016e-005
  0
LINE
 8
GROUP0
10
-5058.13912323597
20
274.345370333342
30
2.4070360397016e-005
11
-5057.75089466831
21
274.294259072775
31
2.4062556438692e-005
  0
LINE
 8
GROUP0
10
-5057.75089466831
20
274.294259072775
30
2.4062556438692e-005
11
-5057.38912323597
21
274.144408439021
31
2.40576354886113e-005
  0
LINE
 8
GROUP0
10
-5057.38912323597
20
274.144408439021
30
2.40576354886113e-005
11
-5057.07846306419
21
273.90603050512
31
2.40559329014178e-005
  0
LINE
 8
GROUP0
10
-5057.07846306419
20
273.90603050512
30
2.40559329014178e-005
11
-5056.84008513029
21
273.59537033334
31
2.40575647053376e-005
  0
LINE
 8
GROUP0
10
-5056.84008513029
20
273.59537033334
30
2.40575647053376e-005
11
-5056.69023449654
21
273.233598900996
31
2.40624196949923e-005
  0
LINE
 8
GROUP0
10
-5056.69023449654
20
273.233598900996
30
2.40624196949923e-005
11
-5056.63912323597
21
272.845370333349
31
2.40701670128796e-005
  0
LINE
 8
GROUP0
10
-4879.39415882573
20
181.416309153162
30
1.88131362496291e-005
11
-4997.39415882573
21
181.416309153162
31
1.77035311343721e-005
  0
LINE
 8
GROUP0
10
-4879.39415882573
20
214.416309153155
30
1.95983518277432e-005
11
-4879.39415882573
21
181.416309153162
31
1.88131362496291e-005
  0
LINE
 8
GROUP0
10
-4997.39415882573
20
214.416309153155
30
1.84887467124861e-005
11
-4879.39415882573
21
214.416309153155
31
1.95983518277432e-005
  0
LINE
 8
GROUP0
10
-4997.39415882573
20
181.416309153162
30
1.77035311343721e-005
11
-4997.39415882573
21
214.416309153155
31
1.84887467124861e-005
  0
LINE
 8
GROUP0
10
-4994.89415763964
20
191.416309153162
30
1.86359873200592e-005
11
-4994.84304637908
21
191.804537720816
31
1.86189800486236e-005
  0
LINE
 8
GROUP0
10
-4994.84304637908
20
191.804537720816
30
1.86189800486236e-005
11
-4994.69319574532
21
192.166309153163
31
1.86049049628267e-005
  0
LINE
 8
GROUP0
10
-4994.69319574532
20
192.166309153163
30
1.86049049628267e-005
11
-4994.45481781142
21
192.476969324943
31
1.85947212622828e-005
  0
LINE
 8
GROUP0
10
-4994.45481781142
20
192.476969324943
30
1.85947212622828e-005
11
-4994.14415763964
21
192.715347258838
31
1.8589122948498e-005
  0
LINE
 8
GROUP0
10
-4994.14415763964
20
192.715347258838
30
1.8589122948498e-005
11
-4993.7823862073
21
192.865197892595
31
1.85884915326229e-005
  0
LINE
 8
GROUP0
10
-4993.7823862073
20
192.865197892595
30
1.85884915326229e-005
11
-4993.39415763964
21
192.916309153162
31
1.85928700445259e-005
  0
LINE
 8
GROUP0
10
-4993.39415763964
20
192.916309153162
30
1.85928700445259e-005
11
-4993.00592907199
21
192.865197892595
31
1.86019601028486e-005
  0
LINE
 8
GROUP0
10
-4993.00592907199
20
192.865197892595
30
1.86019601028486e-005
11
-4992.64415763964
21
192.715347258839
31
1.8615142228634e-005
  0
LINE
 8
GROUP0
10
-4992.64415763964
20
192.715347258839
30
1.8615142228634e-005
11
-4992.33349746786
21
192.476969324943
31
1.86315180799645e-005
  0
LINE
 8
GROUP0
10
-4992.33349746786
20
192.476969324943
30
1.86315180799645e-005
11
-4992.09511953397
21
192.166309153163
31
1.86499716776645e-005
  0
LINE
 8
GROUP0
10
-4992.09511953397
20
192.166309153163
30
1.86499716776645e-005
11
-4991.94526890021
21
191.804537720816
31
1.86692454358262e-005
  0
LINE
 8
GROUP0
10
-4991.94526890021
20
191.804537720816
30
1.86692454358262e-005
11
-4991.89415763964
21
191.416309153163
31
1.86880258810362e-005
  0
LINE
 8
GROUP0
10
-4991.89415763964
20
191.416309153163
30
1.86880258810362e-005
11
-4991.94526890021
21
191.028080585509
31
1.87050331531768e-005
  0
LINE
 8
GROUP0
10
-4991.94526890021
20
191.028080585509
30
1.87050331531768e-005
11
-4992.09511953397
21
190.666309153163
31
1.87191082354488e-005
  0
LINE
 8
GROUP0
10
-4992.09511953397
20
190.666309153163
30
1.87191082354488e-005
11
-4992.33349746786
21
190.355648981382
31
1.87292919359927e-005
  0
LINE
 8
GROUP0
10
-4992.33349746786
20
190.355648981382
30
1.87292919359927e-005
11
-4992.64415763964
21
190.117271047485
31
1.87348902525974e-005
  0
LINE
 8
GROUP0
10
-4992.64415763964
20
190.117271047485
30
1.87348902525974e-005
11
-4993.00592907199
21
189.96742041373
31
1.87355216719975e-005
  0
LINE
 8
GROUP0
10
-4993.00592907199
20
189.96742041373
30
1.87355216719975e-005
11
-4993.39415763964
21
189.916309153163
31
1.87311431544546e-005
  0
LINE
 8
GROUP0
10
-4993.39415763964
20
189.916309153163
30
1.87311431544546e-005
11
-4993.7823862073
21
189.967420413729
31
1.87220530989518e-005
  0
LINE
 8
GROUP0
10
-4993.7823862073
20
189.967420413729
30
1.87220530989518e-005
11
-4994.14415763964
21
190.117271047486
31
1.87088709717564e-005
  0
LINE
 8
GROUP0
10
-4994.14415763964
20
190.117271047486
30
1.87088709717564e-005
11
-4994.45481781142
21
190.355648981382
31
1.86924951190159e-005
  0
LINE
 8
GROUP0
10
-4994.45481781142
20
190.355648981382
30
1.86924951190159e-005
11
-4994.69319574532
21
190.666309153163
31
1.8674041520611e-005
  0
LINE
 8
GROUP0
10
-4994.69319574532
20
190.666309153163
30
1.8674041520611e-005
11
-4994.84304637908
21
191.028080585508
31
1.86547677617443e-005
  0
LINE
 8
GROUP0
10
-4994.84304637908
20
191.028080585508
30
1.86547677617443e-005
11
-4994.89415763964
21
191.416309153162
31
1.86359873200592e-005
  0
LINE
 8
GROUP0
10
-4882.33349746786
20
190.355648981382
30
2.1482108551818e-005
11
-4882.64415763964
21
190.117271047486
31
2.14877068656027e-005
  0
LINE
 8
GROUP0
10
-4882.64415763964
20
190.117271047486
30
2.14877068656027e-005
11
-4883.00592907199
21
189.967420413729
31
2.14883382842979e-005
  0
LINE
 8
GROUP0
10
-4883.00592907199
20
189.967420413729
30
2.14883382842979e-005
11
-4883.39415763964
21
189.916309153163
31
2.14839597709848e-005
  0
LINE
 8
GROUP0
10
-4883.39415763964
20
189.916309153163
30
2.14839597709848e-005
11
-4883.7823862073
21
189.96742041373
31
2.14748697105471e-005
  0
LINE
 8
GROUP0
10
-4883.7823862073
20
189.96742041373
30
2.14748697105471e-005
11
-4884.14415763964
21
190.117271047486
31
2.14616875861717e-005
  0
LINE
 8
GROUP0
10
-4884.14415763964
20
190.117271047486
30
2.14616875861717e-005
11
-4884.45481781142
21
190.355648981383
31
2.14453117348412e-005
  0
LINE
 8
GROUP0
10
-4884.45481781142
20
190.355648981383
30
2.14453117348412e-005
11
-4884.69319574532
21
190.666309153163
31
2.14268581350263e-005
  0
LINE
 8
GROUP0
10
-4884.69319574532
20
190.666309153163
30
2.14268581350263e-005
11
-4884.84304637908
21
191.028080585509
31
2.14075843768646e-005
  0
LINE
 8
GROUP0
10
-4884.84304637908
20
191.028080585509
30
2.14075843768646e-005
11
-4884.89415763964
21
191.416309153162
31
2.13888039337695e-005
  0
LINE
 8
GROUP0
10
-4884.89415763964
20
191.416309153162
30
2.13888039337695e-005
11
-4884.84304637908
21
191.804537720816
31
2.13717966609239e-005
  0
LINE
 8
GROUP0
10
-4884.84304637908
20
191.804537720816
30
2.13717966609239e-005
11
-4884.69319574532
21
192.166309153162
31
2.1357721582177e-005
  0
LINE
 8
GROUP0
10
-4884.69319574532
20
192.166309153162
30
2.1357721582177e-005
11
-4884.45481781142
21
192.476969324941
31
2.1347537878813e-005
  0
LINE
 8
GROUP0
10
-4884.45481781142
20
192.476969324941
30
2.1347537878813e-005
11
-4884.14415763964
21
192.715347258838
31
2.13419395607983e-005
  0
LINE
 8
GROUP0
10
-4884.14415763964
20
192.715347258838
30
2.13419395607983e-005
11
-4883.7823862073
21
192.865197892595
31
2.13413081428082e-005
  0
LINE
 8
GROUP0
10
-4883.7823862073
20
192.865197892595
30
2.13413081428082e-005
11
-4883.39415763964
21
192.916309153162
31
2.13456866617612e-005
  0
LINE
 8
GROUP0
10
-4883.39415763964
20
192.916309153162
30
2.13456866617612e-005
11
-4883.00592907199
21
192.865197892595
31
2.13547767193789e-005
  0
LINE
 8
GROUP0
10
-4883.00592907199
20
192.865197892595
30
2.13547767193789e-005
11
-4882.64415763964
21
192.715347258839
31
2.13679588416393e-005
  0
LINE
 8
GROUP0
10
-4882.64415763964
20
192.715347258839
30
2.13679588416393e-005
11
-4882.33349746786
21
192.476969324941
31
2.13843346993148e-005
  0
LINE
 8
GROUP0
10
-4882.33349746786
20
192.476969324941
30
2.13843346993148e-005
11
-4882.09511953397
21
192.166309153162
31
2.14027882963097e-005
  0
LINE
 8
GROUP0
10
-4882.09511953397
20
192.166309153162
30
2.14027882963097e-005
11
-4881.94526890021
21
191.804537720816
31
2.14220620558814e-005
  0
LINE
 8
GROUP0
10
-4881.94526890021
20
191.804537720816
30
2.14220620558814e-005
11
-4881.89415763964
21
191.416309153162
31
2.14408424968615e-005
  0
LINE
 8
GROUP0
10
-4881.89415763964
20
191.416309153162
30
2.14408424968615e-005
11
-4881.94526890021
21
191.028080585508
31
2.14578497690021e-005
  0
LINE
 8
GROUP0
10
-4881.94526890021
20
191.028080585508
30
2.14578497690021e-005
11
-4882.09511953397
21
190.666309153162
31
2.1471924849864e-005
  0
LINE
 8
GROUP0
10
-4882.09511953397
20
190.666309153162
30
2.1471924849864e-005
11
-4882.33349746786
21
190.355648981382
31
2.1482108551818e-005
  0
LINE
 8
GROUP0
10
-4708.51455948226
20
401.916307965392
30
1.87693954858514e-005
11
-5126.51503830422
21
401.916307936973
31
3.06288642457464e-005
  0
LINE
 8
GROUP0
10
-5126.51503830422
20
401.916307936973
30
3.06288642457464e-005
11
-5126.51503830422
21
376.916307967072
31
3.05828357573701e-005
  0
LINE
 8
GROUP0
10
-5126.51503830422
20
376.916307967072
30
3.05828357573701e-005
11
-5156.51503830422
21
376.916307967072
31
3.07330185995325e-005
  0
LINE
 8
GROUP0
10
-5156.51503830422
20
376.916307967072
30
3.07330185995325e-005
11
-5169.51503823476
21
363.916307967072
31
3.08124515014219e-005
  0
LINE
 8
GROUP0
10
-5169.51503830422
20
333.916307967072
30
3.05867143124805e-005
11
-5169.51503823476
21
363.916307967072
31
3.08124515014219e-005
  0
LINE
 8
GROUP0
10
-5169.51503830422
20
333.916307967072
30
3.05867143124805e-005
11
-5194.51503830422
21
333.916307936973
31
3.04576077263807e-005
  0
LINE
 8
GROUP0
10
-5194.51503830422
20
333.916307936973
30
3.04576077263807e-005
11
-5194.51503835804
21
115.91585184529
31
0.0
  0
LINE
 8
GROUP0
10
-5169.51503832424
20
115.91585184529
30
1.61516765440073e-007
11
-5194.51503835804
21
115.91585184529
31
0.0
  0
LINE
 8
GROUP0
10
-5169.51503832424
20
115.91585184529
30
1.61516765440073e-007
11
-5169.51503832424
21
85.9158518452902
31
4.97122589337429e-006
  0
LINE
 8
GROUP0
10
-5156.51503832424
20
72.9158517673032
30
7.1260293577069e-006
11
-5169.51503832424
21
85.9158518452902
31
4.97122589337429e-006
  0
LINE
 8
GROUP0
10
-5126.51503832424
20
72.9158518452897
30
7.3794866409238e-006
11
-5156.51503832424
21
72.9158517673032
31
7.1260293577069e-006
  0
LINE
 8
GROUP0
10
-5126.51503835804
20
47.91585184529
30
1.14765095474922e-005
11
-5126.51503832424
21
72.9158518452897
31
7.3794866409238e-006
  0
LINE
 8
GROUP0
10
-5126.51503835804
20
47.91585184529
30
1.14765095474922e-005
11
-4708.51455951459
21
47.9158517276592
31
3.24012603919066e-005
  0
LINE
 8
GROUP0
10
-4708.51455951459
20
47.9158517276592
30
3.24012603919066e-005
11
-4708.51455951459
21
72.9158517276591
31
2.92347674372251e-005
  0
LINE
 8
GROUP0
10
-4708.51455951459
20
72.9158517276591
30
2.92347674372251e-005
11
-4678.51455951459
21
72.9158517276591
31
2.89097123823523e-005
  0
LINE
 8
GROUP0
10
-4678.51455951459
20
72.9158517276591
30
2.89097123823523e-005
11
-4665.5145597406
21
85.9158512039991
31
2.51032379572136e-005
  0
LINE
 8
GROUP0
10
-4665.51455955793
20
115.915851203999
30
2.31395126532363e-005
11
-4665.5145597406
21
85.9158512039991
31
2.51032379572136e-005
  0
LINE
 8
GROUP0
10
-4665.51455955793
20
115.915851203999
30
2.31395126532363e-005
11
-4640.51455951459
21
115.915851727659
31
2.27622528257421e-005
  0
LINE
 8
GROUP0
10
-4640.51455951459
20
115.915851727659
30
2.27622528257421e-005
11
-4640.51455948226
21
333.916307965392
31
1.74544620799577e-005
  0
LINE
 8
GROUP0
10
-4640.51455948226
20
333.916307965392
30
1.74544620799577e-005
11
-4665.51455948226
21
333.916307967072
31
1.77774924919549e-005
  0
LINE
 8
GROUP0
10
-4665.51455948226
20
333.916307967072
30
1.77774924919549e-005
11
-4665.51455948343
21
363.916307967072
31
1.77900916510043e-005
  0
LINE
 8
GROUP0
10
-4665.51455948343
20
363.916307967072
30
1.77900916510043e-005
11
-4678.51455948303
21
376.916307966147
31
1.79231312267325e-005
  0
LINE
 8
GROUP0
10
-4708.51455948303
20
376.916307967072
30
1.84906510605265e-005
11
-4678.51455948303
21
376.916307966147
31
1.79231312267325e-005
  0
LINE
 8
GROUP0
10
-4708.51455948303
20
376.916307967072
30
1.84906510605265e-005
11
-4708.51455948226
21
401.916307965392
31
1.87693954858514e-005
  0
LINE
 8
GROUP0
10
-4919.24683385889
20
392.916303256237
30
2.46887587393552e-005
11
-4919.4466347039
21
392.433941346442
31
2.46754024073204e-005
  0
LINE
 8
GROUP0
10
-4918.9289966137
20
393.33051681861
30
2.47016034688408e-005
11
-4919.24683385889
21
392.916303256237
31
2.46887587393552e-005
  0
LINE
 8
GROUP0
10
-4918.51478305133
20
393.648354063806
30
2.47130612485713e-005
11
-4918.9289966137
21
393.33051681861
31
2.47016034688408e-005
  0
LINE
 8
GROUP0
10
-4918.03242114153
20
393.848154908815
30
2.47223512495676e-005
11
-4918.51478305133
21
393.648354063806
31
2.47130612485713e-005
  0
LINE
 8
GROUP0
10
-4917.51478305133
20
393.916303256237
30
2.47288403745494e-005
11
-4918.03242114153
21
393.848154908815
31
2.47223512495676e-005
  0
LINE
 8
GROUP0
10
-4916.99714496112
20
393.848154908815
30
2.47320863998979e-005
11
-4917.51478305133
21
393.916303256237
31
2.47288403745494e-005
  0
LINE
 8
GROUP0
10
-4916.51478305132
20
393.648354063806
30
2.47318681147524e-005
11
-4916.99714496112
21
393.848154908815
31
2.47320863998979e-005
  0
LINE
 8
GROUP0
10
-4916.10056948895
20
393.33051681861
30
2.4728200393731e-005
11
-4916.51478305132
21
393.648354063806
31
2.47318681147524e-005
  0
LINE
 8
GROUP0
10
-4915.78273224376
20
392.916303256237
30
2.4721333187383e-005
11
-4916.10056948895
21
393.33051681861
31
2.4728200393731e-005
  0
LINE
 8
GROUP0
10
-4915.58293139875
20
392.433941346442
30
2.47117344832459e-005
11
-4915.78273224376
21
392.916303256237
31
2.4721333187383e-005
  0
LINE
 8
GROUP0
10
-4915.51478305132
20
391.916303256237
30
2.47000584183699e-005
11
-4915.58293139875
21
392.433941346442
31
2.47117344832459e-005
  0
LINE
 8
GROUP0
10
-4915.58293139875
20
391.398665166032
30
2.46871006963523e-005
11
-4915.51478305132
21
391.916303256237
31
2.47000584183699e-005
  0
LINE
 8
GROUP0
10
-4915.78273224376
20
390.916303256237
30
2.46737443643175e-005
11
-4915.58293139875
21
391.398665166032
31
2.46871006963523e-005
  0
LINE
 8
GROUP0
10
-4916.10056948895
20
390.502089693864
30
2.46608996355369e-005
11
-4915.78273224376
21
390.916303256237
31
2.46737443643175e-005
  0
LINE
 8
GROUP0
10
-4916.51478305132
20
390.184252448668
30
2.46494418558063e-005
11
-4916.10056948895
21
390.502089693864
31
2.46608996355369e-005
  0
LINE
 8
GROUP0
10
-4916.99714496112
20
389.984451603659
30
2.46401518541051e-005
11
-4916.51478305132
21
390.184252448668
31
2.46494418558063e-005
  0
LINE
 8
GROUP0
10
-4917.51478305133
20
389.916303256237
30
2.46336627291233e-005
11
-4916.99714496112
21
389.984451603659
31
2.46401518541051e-005
  0
LINE
 8
GROUP0
10
-4918.03242114153
20
389.984451603659
30
2.46304167037747e-005
11
-4917.51478305133
21
389.916303256237
31
2.46336627291233e-005
  0
LINE
 8
GROUP0
10
-4918.51478305133
20
390.184252448668
30
2.46306349889203e-005
11
-4918.03242114153
21
389.984451603659
31
2.46304167037747e-005
  0
LINE
 8
GROUP0
10
-4918.9289966137
20
390.502089693864
30
2.46343027099416e-005
11
-4918.51478305133
21
390.184252448668
31
2.46306349889203e-005
  0
LINE
 8
GROUP0
10
-4919.24683385889
20
390.916303256237
30
2.46411699162896e-005
11
-4918.9289966137
21
390.502089693864
31
2.46343027099416e-005
  0
LINE
 8
GROUP0
10
-4919.4466347039
20
391.398665166032
30
2.46507686204267e-005
11
-4919.24683385889
21
390.916303256237
31
2.46411699162896e-005
  0
LINE
 8
GROUP0
10
-4919.51478305133
20
391.916303256237
30
2.46624446853028e-005
11
-4919.4466347039
21
391.398665166032
31
2.46507686204267e-005
  0
LINE
 8
GROUP0
10
-4919.4466347039
20
392.433941346442
30
2.46754024073204e-005
11
-4919.51478305133
21
391.916303256237
31
2.46624446853028e-005
  0
LINE
 8
GROUP0
10
-4738.51455466979
20
389.916303256237
30
2.63177064187048e-005
11
-4737.99691657958
21
389.984451603659
31
2.63241955436866e-005
  0
LINE
 8
GROUP0
10
-4739.03219275999
20
389.984451603659
30
2.63144603933563e-005
11
-4738.51455466979
21
389.916303256237
31
2.63177064187048e-005
  0
LINE
 8
GROUP0
10
-4739.51455466979
20
390.184252448668
30
2.63146786792068e-005
11
-4739.03219275999
21
389.984451603659
31
2.63144603933563e-005
  0
LINE
 8
GROUP0
10
-4739.92876823216
20
390.502089693864
30
2.63183463995231e-005
11
-4739.51455466979
21
390.184252448668
31
2.63146786792068e-005
  0
LINE
 8
GROUP0
10
-4740.24660547736
20
390.916303256237
30
2.63252136065761e-005
11
-4739.92876823216
21
390.502089693864
31
2.63183463995231e-005
  0
LINE
 8
GROUP0
10
-4740.44640632237
20
391.398665166032
30
2.63348123100082e-005
11
-4740.24660547736
21
390.916303256237
31
2.63252136065761e-005
  0
LINE
 8
GROUP0
10
-4740.51455466979
20
391.916303256237
30
2.63464883755893e-005
11
-4740.44640632237
21
391.398665166032
31
2.63348123100082e-005
  0
LINE
 8
GROUP0
10
-4740.44640632237
20
392.433941346442
30
2.63594460976069e-005
11
-4740.51455466979
21
391.916303256237
31
2.63464883755893e-005
  0
LINE
 8
GROUP0
10
-4740.24660547736
20
392.916303256237
30
2.63728024289367e-005
11
-4740.44640632237
21
392.433941346442
31
2.63594460976069e-005
  0
LINE
 8
GROUP0
10
-4739.92876823216
20
393.33051681861
30
2.63856471584223e-005
11
-4740.24660547736
21
392.916303256237
31
2.63728024289367e-005
  0
LINE
 8
GROUP0
10
-4739.51455466979
20
393.648354063806
30
2.63971049381528e-005
11
-4739.92876823216
21
393.33051681861
31
2.63856471584223e-005
  0
LINE
 8
GROUP0
10
-4739.03219275999
20
393.848154908815
30
2.64063949398541e-005
11
-4739.51455466979
21
393.648354063806
31
2.63971049381528e-005
  0
LINE
 8
GROUP0
10
-4738.51455466979
20
393.916303256237
30
2.64128840648359e-005
11
-4739.03219275999
21
393.848154908815
31
2.64063949398541e-005
  0
LINE
 8
GROUP0
10
-4737.99691657958
20
393.848154908815
30
2.64161300901844e-005
11
-4738.51455466979
21
393.916303256237
31
2.64128840648359e-005
  0
LINE
 8
GROUP0
10
-4737.51455466979
20
393.648354063806
30
2.64159118043339e-005
11
-4737.99691657958
21
393.848154908815
31
2.64161300901844e-005
  0
LINE
 8
GROUP0
10
-4737.10034110742
20
393.33051681861
30
2.64122440840175e-005
11
-4737.51455466979
21
393.648354063806
31
2.64159118043339e-005
  0
LINE
 8
GROUP0
10
-4736.78250386222
20
392.916303256237
30
2.64053768769645e-005
11
-4737.10034110742
21
393.33051681861
31
2.64122440840175e-005
  0
LINE
 8
GROUP0
10
-4736.58270301721
20
392.433941346442
30
2.63957781735324e-005
11
-4736.78250386222
21
392.916303256237
31
2.64053768769645e-005
  0
LINE
 8
GROUP0
10
-4736.51455466979
20
391.916303256237
30
2.63841021079514e-005
11
-4736.58270301721
21
392.433941346442
31
2.63957781735324e-005
  0
LINE
 8
GROUP0
10
-4736.58270301721
20
391.398665166032
30
2.63711443859338e-005
11
-4736.51455466979
21
391.916303256237
31
2.63841021079514e-005
  0
LINE
 8
GROUP0
10
-4736.78250386222
20
390.916303256237
30
2.6357788054604e-005
11
-4736.58270301721
21
391.398665166032
31
2.63711443859338e-005
  0
LINE
 8
GROUP0
10
-4737.10034110742
20
390.502089693864
30
2.63449433251184e-005
11
-4736.78250386222
21
390.916303256237
31
2.6357788054604e-005
  0
LINE
 8
GROUP0
10
-4737.51455466979
20
390.184252448668
30
2.63334855453878e-005
11
-4737.10034110742
21
390.502089693864
31
2.63449433251184e-005
  0
LINE
 8
GROUP0
10
-4737.99691657958
20
389.984451603659
30
2.63241955436866e-005
11
-4737.51455466979
21
390.184252448668
31
2.63334855453878e-005
  0
LINE
 8
GROUP0
10
-5095.51478305133
20
390.184252448669
30
2.29662273160347e-005
11
-5095.10056948895
21
390.502089693865
31
2.29776850957653e-005
  0
LINE
 8
GROUP0
10
-5095.99714496112
20
389.984451603659
30
2.29569373150385e-005
11
-5095.51478305133
21
390.184252448669
31
2.29662273160347e-005
  0
LINE
 8
GROUP0
10
-5096.51478305133
20
389.916303256237
30
2.29504481900566e-005
11
-5095.99714496112
21
389.984451603659
31
2.29569373150385e-005
  0
LINE
 8
GROUP0
10
-5097.03242114153
20
389.984451603659
30
2.29472021647081e-005
11
-5096.51478305133
21
389.916303256237
31
2.29504481900566e-005
  0
LINE
 8
GROUP0
10
-5097.51478305133
20
390.184252448669
30
2.29474204498537e-005
11
-5097.03242114153
21
389.984451603659
31
2.29472021647081e-005
  0
LINE
 8
GROUP0
10
-5097.9289966137
20
390.502089693865
30
2.295108817017e-005
11
-5097.51478305133
21
390.184252448669
31
2.29474204498537e-005
  0
LINE
 8
GROUP0
10
-5098.24683385889
20
390.916303256238
30
2.2957955377223e-005
11
-5097.9289966137
21
390.502089693865
31
2.295108817017e-005
  0
LINE
 8
GROUP0
10
-5098.4466347039
20
391.398665166033
30
2.29675540806551e-005
11
-5098.24683385889
21
390.916303256238
31
2.2957955377223e-005
  0
LINE
 8
GROUP0
10
-5098.51478305133
20
391.916303256237
30
2.29792301462361e-005
11
-5098.4466347039
21
391.398665166033
31
2.29675540806551e-005
  0
LINE
 8
GROUP0
10
-5098.4466347039
20
392.433941346442
30
2.29921878682537e-005
11
-5098.51478305133
21
391.916303256237
31
2.29792301462361e-005
  0
LINE
 8
GROUP0
10
-5098.24683385889
20
392.916303256237
30
2.30055442002886e-005
11
-5098.4466347039
21
392.433941346442
31
2.29921878682537e-005
  0
LINE
 8
GROUP0
10
-5097.9289966137
20
393.33051681861
30
2.30183889290692e-005
11
-5098.24683385889
21
392.916303256237
31
2.30055442002886e-005
  0
LINE
 8
GROUP0
10
-5097.51478305133
20
393.648354063806
30
2.30298467087997e-005
11
-5097.9289966137
21
393.33051681861
31
2.30183889290692e-005
  0
LINE
 8
GROUP0
10
-5097.03242114153
20
393.848154908816
30
2.30391367105009e-005
11
-5097.51478305133
21
393.648354063806
31
2.30298467087997e-005
  0
LINE
 8
GROUP0
10
-5096.51478305133
20
393.916303256238
30
2.30456258354828e-005
11
-5097.03242114153
21
393.848154908816
31
2.30391367105009e-005
  0
LINE
 8
GROUP0
10
-5095.99714496112
20
393.848154908816
30
2.30488718608313e-005
11
-5096.51478305133
21
393.916303256238
31
2.30456258354828e-005
  0
LINE
 8
GROUP0
10
-5095.51478305133
20
393.648354063806
30
2.30486535756857e-005
11
-5095.99714496112
21
393.848154908816
31
2.30488718608313e-005
  0
LINE
 8
GROUP0
10
-5095.10056948895
20
393.33051681861
30
2.30449858546644e-005
11
-5095.51478305133
21
393.648354063806
31
2.30486535756857e-005
  0
LINE
 8
GROUP0
10
-5094.78273224376
20
392.916303256237
30
2.30381186483164e-005
11
-5095.10056948895
21
393.33051681861
31
2.30449858546644e-005
  0
LINE
 8
GROUP0
10
-5094.58293139875
20
392.433941346442
30
2.30285199441793e-005
11
-5094.78273224376
21
392.916303256237
31
2.30381186483164e-005
  0
LINE
 8
GROUP0
10
-5094.51478305132
20
391.916303256237
30
2.30168438793033e-005
11
-5094.58293139875
21
392.433941346442
31
2.30285199441793e-005
  0
LINE
 8
GROUP0
10
-5094.58293139875
20
391.398665166033
30
2.30038861565807e-005
11
-5094.51478305132
21
391.916303256237
31
2.30168438793033e-005
  0
LINE
 8
GROUP0
10
-5094.78273224376
20
390.916303256238
30
2.29905298252508e-005
11
-5094.58293139875
21
391.398665166033
31
2.30038861565807e-005
  0
LINE
 8
GROUP0
10
-5095.10056948895
20
390.502089693865
30
2.29776850957653e-005
11
-5094.78273224376
21
390.916303256238
31
2.29905298252508e-005
  0
LINE
 8
GROUP0
10
-5182.78295589725
20
302.916308065547
30
2.0069117508914e-005
11
-5182.58315505224
21
303.398669975342
31
2.00824738402439e-005
  0
LINE
 8
GROUP0
10
-5183.10079314244
20
302.502094503174
30
2.00562727794285e-005
11
-5182.78295589725
21
302.916308065547
31
2.0069117508914e-005
  0
LINE
 8
GROUP0
10
-5183.51500670482
20
302.184257257978
30
2.00448149996979e-005
11
-5183.10079314244
21
302.502094503174
31
2.00562727794285e-005
  0
LINE
 8
GROUP0
10
-5183.99736861461
20
301.984456412969
30
2.00355249987016e-005
11
-5183.51500670482
21
302.184257257978
31
2.00448149996979e-005
  0
LINE
 8
GROUP0
10
-5184.51500670482
20
301.916308065547
30
2.00290358737198e-005
11
-5183.99736861461
21
301.984456412969
31
2.00355249987016e-005
  0
LINE
 8
GROUP0
10
-5185.03264479502
20
301.984456412969
30
2.00257898483713e-005
11
-5184.51500670482
21
301.916308065547
31
2.00290358737198e-005
  0
LINE
 8
GROUP0
10
-5185.51500670482
20
302.184257257978
30
2.00260081335168e-005
11
-5185.03264479502
21
301.984456412969
31
2.00257898483713e-005
  0
LINE
 8
GROUP0
10
-5185.92922026719
20
302.502094503174
30
2.00296758545382e-005
11
-5185.51500670482
21
302.184257257978
31
2.00260081335168e-005
  0
LINE
 8
GROUP0
10
-5186.24705751239
20
302.916308065547
30
2.00365430608862e-005
11
-5185.92922026719
21
302.502094503174
31
2.00296758545382e-005
  0
LINE
 8
GROUP0
10
-5186.4468583574
20
303.398669975342
30
2.00461417650233e-005
11
-5186.24705751239
21
302.916308065547
31
2.00365430608862e-005
  0
LINE
 8
GROUP0
10
-5186.51500670482
20
303.916308065547
30
2.00578178298993e-005
11
-5186.4468583574
21
303.398669975342
31
2.00461417650233e-005
  0
LINE
 8
GROUP0
10
-5186.4468583574
20
304.433946155752
30
2.00707755519169e-005
11
-5186.51500670482
21
303.916308065547
31
2.00578178298993e-005
  0
LINE
 8
GROUP0
10
-5186.24705751239
20
304.916308065547
30
2.00841318839518e-005
11
-5186.4468583574
21
304.433946155752
31
2.00707755519169e-005
  0
LINE
 8
GROUP0
10
-5185.92922026719
20
305.33052162792
30
2.00969766127324e-005
11
-5186.24705751239
21
304.916308065547
31
2.00841318839518e-005
  0
LINE
 8
GROUP0
10
-5185.51500670482
20
305.648358873116
30
2.01084343924629e-005
11
-5185.92922026719
21
305.33052162792
31
2.00969766127324e-005
  0
LINE
 8
GROUP0
10
-5185.03264479502
20
305.848159718125
30
2.01177243941641e-005
11
-5185.51500670482
21
305.648358873116
31
2.01084343924629e-005
  0
LINE
 8
GROUP0
10
-5184.51500670482
20
305.916308065547
30
2.0124213519146e-005
11
-5185.03264479502
21
305.848159718125
31
2.01177243941641e-005
  0
LINE
 8
GROUP0
10
-5183.99736861461
20
305.848159718125
30
2.01274595444945e-005
11
-5184.51500670482
21
305.916308065547
31
2.0124213519146e-005
  0
LINE
 8
GROUP0
10
-5183.51500670482
20
305.648358873116
30
2.01272412593489e-005
11
-5183.99736861461
21
305.848159718125
31
2.01274595444945e-005
  0
LINE
 8
GROUP0
10
-5183.10079314244
20
305.33052162792
30
2.01235735383276e-005
11
-5183.51500670482
21
305.648358873116
31
2.01272412593489e-005
  0
LINE
 8
GROUP0
10
-5182.78295589725
20
304.916308065547
30
2.01167063319796e-005
11
-5183.10079314244
21
305.33052162792
31
2.01235735383276e-005
  0
LINE
 8
GROUP0
10
-5182.58315505224
20
304.433946155752
30
2.01071076278425e-005
11
-5182.78295589725
21
304.916308065547
31
2.01167063319796e-005
  0
LINE
 8
GROUP0
10
-5182.51500670482
20
303.916308065547
30
2.00954315629664e-005
11
-5182.58315505224
21
304.433946155752
31
2.01071076278425e-005
  0
LINE
 8
GROUP0
10
-5182.58315505224
20
303.398669975342
30
2.00824738402439e-005
11
-5182.51500670482
21
303.916308065547
31
2.00954315629664e-005
  0
LINE
 8
GROUP0
10
-5186.24705751239
20
146.916079684011
30
1.5297976021994e-005
11
-5186.4468583574
21
146.433717774215
31
1.52846196899592e-005
  0
LINE
 8
GROUP0
10
-5185.92922026719
20
147.330293246384
30
1.53108207507746e-005
11
-5186.24705751239
21
146.916079684011
31
1.5297976021994e-005
  0
LINE
 8
GROUP0
10
-5185.51500670482
20
147.648130491579
30
1.53222785305052e-005
11
-5185.92922026719
21
147.330293246384
31
1.53108207507746e-005
  0
LINE
 8
GROUP0
10
-5185.03264479502
20
147.847931336589
30
1.53315685322064e-005
11
-5185.51500670482
21
147.648130491579
31
1.53222785305052e-005
  0
LINE
 8
GROUP0
10
-5184.51500670482
20
147.916079684011
30
1.53380576571882e-005
11
-5185.03264479502
21
147.847931336589
31
1.53315685322064e-005
  0
LINE
 8
GROUP0
10
-5183.99736861461
20
147.847931336589
30
1.53413036825367e-005
11
-5184.51500670482
21
147.916079684011
31
1.53380576571882e-005
  0
LINE
 8
GROUP0
10
-5183.51500670482
20
147.648130491579
30
1.53410853973912e-005
11
-5183.99736861461
21
147.847931336589
31
1.53413036825367e-005
  0
LINE
 8
GROUP0
10
-5183.10079314244
20
147.330293246384
30
1.53374176763699e-005
11
-5183.51500670482
21
147.648130491579
31
1.53410853973912e-005
  0
LINE
 8
GROUP0
10
-5182.78295589725
20
146.91607968401
30
1.53305504700219e-005
11
-5183.10079314244
21
147.330293246384
31
1.53374176763699e-005
  0
LINE
 8
GROUP0
10
-5182.58315505224
20
146.433717774215
30
1.53209517658848e-005
11
-5182.78295589725
21
146.91607968401
31
1.53305504700219e-005
  0
LINE
 8
GROUP0
10
-5182.51500670482
20
145.91607968401
30
1.53092757010087e-005
11
-5182.58315505224
21
146.433717774215
31
1.53209517658848e-005
  0
LINE
 8
GROUP0
10
-5182.58315505224
20
145.398441593805
30
1.52963179782861e-005
11
-5182.51500670482
21
145.91607968401
31
1.53092757010087e-005
  0
LINE
 8
GROUP0
10
-5182.78295589725
20
144.91607968401
30
1.52829616469563e-005
11
-5182.58315505224
21
145.398441593805
31
1.52963179782861e-005
  0
LINE
 8
GROUP0
10
-5183.10079314244
20
144.501866121637
30
1.52701169174707e-005
11
-5182.78295589725
21
144.91607968401
31
1.52829616469563e-005
  0
LINE
 8
GROUP0
10
-5183.51500670482
20
144.184028876442
30
1.52586591377402e-005
11
-5183.10079314244
21
144.501866121637
31
1.52701169174707e-005
  0
LINE
 8
GROUP0
10
-5183.99736861461
20
143.984228031432
30
1.52493691367439e-005
11
-5183.51500670482
21
144.184028876442
31
1.52586591377402e-005
  0
LINE
 8
GROUP0
10
-5184.51500670482
20
143.916079684011
30
1.52428800110571e-005
11
-5183.99736861461
21
143.984228031432
31
1.52493691367439e-005
  0
LINE
 8
GROUP0
10
-5185.03264479502
20
143.984228031432
30
1.52396339857086e-005
11
-5184.51500670482
21
143.916079684011
31
1.52428800110571e-005
  0
LINE
 8
GROUP0
10
-5185.51500670482
20
144.184028876442
30
1.52398522715591e-005
11
-5185.03264479502
21
143.984228031432
31
1.52396339857086e-005
  0
LINE
 8
GROUP0
10
-5185.92922026719
20
144.501866121637
30
1.52435199918755e-005
11
-5185.51500670482
21
144.184028876442
31
1.52398522715591e-005
  0
LINE
 8
GROUP0
10
-5186.24705751239
20
144.91607968401
30
1.52503871989285e-005
11
-5185.92922026719
21
144.501866121637
31
1.52435199918755e-005
  0
LINE
 8
GROUP0
10
-5186.4468583574
20
145.398441593805
30
1.52599859023606e-005
11
-5186.24705751239
21
144.91607968401
31
1.52503871989285e-005
  0
LINE
 8
GROUP0
10
-5186.51500670482
20
145.91607968401
30
1.52716619679416e-005
11
-5186.4468583574
21
145.398441593805
31
1.52599859023606e-005
  0
LINE
 8
GROUP0
10
-5186.4468583574
20
146.433717774215
30
1.52846196899592e-005
11
-5186.51500670482
21
145.91607968401
31
1.52716619679416e-005
  0
LINE
 8
GROUP0
10
-5183.51500670482
20
223.184028876442
30
1.6975330488822e-005
11
-5183.10079314244
21
223.501866121637
31
1.69867882685526e-005
  0
LINE
 8
GROUP0
10
-5183.99736861461
20
222.984228031432
30
1.69660404871208e-005
11
-5183.51500670482
21
223.184028876442
31
1.6975330488822e-005
  0
LINE
 8
GROUP0
10
-5184.51500670482
20
222.91607968401
30
1.6959551362139e-005
11
-5183.99736861461
21
222.984228031432
31
1.69660404871208e-005
  0
LINE
 8
GROUP0
10
-5185.03264479502
20
222.984228031432
30
1.69563053367905e-005
11
-5184.51500670482
21
222.91607968401
31
1.6959551362139e-005
  0
LINE
 8
GROUP0
10
-5185.51500670482
20
223.184028876442
30
1.6956523621936e-005
11
-5185.03264479502
21
222.984228031432
31
1.69563053367905e-005
  0
LINE
 8
GROUP0
10
-5185.92922026719
20
223.501866121637
30
1.69601913429573e-005
11
-5185.51500670482
21
223.184028876442
31
1.6956523621936e-005
  0
LINE
 8
GROUP0
10
-5186.24705751239
20
223.91607968401
30
1.69670585493054e-005
11
-5185.92922026719
21
223.501866121637
31
1.69601913429573e-005
  0
LINE
 8
GROUP0
10
-5186.4468583574
20
224.398441593805
30
1.69766572534424e-005
11
-5186.24705751239
21
223.91607968401
31
1.69670585493054e-005
  0
LINE
 8
GROUP0
10
-5186.51500670482
20
224.916079684011
30
1.69883333183185e-005
11
-5186.4468583574
21
224.398441593805
31
1.69766572534424e-005
  0
LINE
 8
GROUP0
10
-5186.4468583574
20
225.433717774216
30
1.70012910410411e-005
11
-5186.51500670482
21
224.916079684011
31
1.69883333183185e-005
  0
LINE
 8
GROUP0
10
-5186.24705751239
20
225.916079684011
30
1.70146473723709e-005
11
-5186.4468583574
21
225.433717774216
31
1.70012910410411e-005
  0
LINE
 8
GROUP0
10
-5185.92922026719
20
226.330293246384
30
1.70274921018565e-005
11
-5186.24705751239
21
225.916079684011
31
1.70146473723709e-005
  0
LINE
 8
GROUP0
10
-5185.51500670482
20
226.648130491579
30
1.70389498815871e-005
11
-5185.92922026719
21
226.330293246384
31
1.70274921018565e-005
  0
LINE
 8
GROUP0
10
-5185.03264479502
20
226.847931336589
30
1.70482398825833e-005
11
-5185.51500670482
21
226.648130491579
31
1.70389498815871e-005
  0
LINE
 8
GROUP0
10
-5184.51500670482
20
226.91607968401
30
1.70547290075651e-005
11
-5185.03264479502
21
226.847931336589
31
1.70482398825833e-005
  0
LINE
 8
GROUP0
10
-5183.99736861461
20
226.847931336589
30
1.70579750336186e-005
11
-5184.51500670482
21
226.91607968401
31
1.70547290075651e-005
  0
LINE
 8
GROUP0
10
-5183.51500670482
20
226.648130491579
30
1.70577567477681e-005
11
-5183.99736861461
21
226.847931336589
31
1.70579750336186e-005
  0
LINE
 8
GROUP0
10
-5183.10079314244
20
226.330293246384
30
1.70540890274518e-005
11
-5183.51500670482
21
226.648130491579
31
1.70577567477681e-005
  0
LINE
 8
GROUP0
10
-5182.78295589725
20
225.916079684011
30
1.70472218203988e-005
11
-5183.10079314244
21
226.330293246384
31
1.70540890274518e-005
  0
LINE
 8
GROUP0
10
-5182.58315505224
20
225.433717774216
30
1.70376231169667e-005
11
-5182.78295589725
21
225.916079684011
31
1.70472218203988e-005
  0
LINE
 8
GROUP0
10
-5182.51500670482
20
224.916079684011
30
1.70259470513856e-005
11
-5182.58315505224
21
225.433717774216
31
1.70376231169667e-005
  0
LINE
 8
GROUP0
10
-5182.58315505224
20
224.398441593805
30
1.7012989329368e-005
11
-5182.51500670482
21
224.916079684011
31
1.70259470513856e-005
  0
LINE
 8
GROUP0
10
-5182.78295589725
20
223.91607968401
30
1.69996329973332e-005
11
-5182.58315505224
21
224.398441593805
31
1.7012989329368e-005
  0
LINE
 8
GROUP0
10
-5183.10079314244
20
223.501866121637
30
1.69867882685526e-005
11
-5182.78295589725
21
223.91607968401
31
1.69996329973332e-005
  0
LINE
 8
GROUP0
10
-5094.58315986155
20
58.4334941207235
30
1.40545403113757e-005
11
-5094.78296070656
21
58.9158560305187
31
1.40641390155127e-005
  0
LINE
 8
GROUP0
10
-5094.51501151413
20
57.915856030519
30
1.40428642457946e-005
11
-5094.58315986155
21
58.4334941207235
31
1.40545403113757e-005
  0
LINE
 8
GROUP0
10
-5094.58315986155
20
57.3982179403143
30
1.4029906523777e-005
11
-5094.51501151413
21
57.915856030519
31
1.40428642457946e-005
  0
LINE
 8
GROUP0
10
-5094.78296070656
20
56.9158560305192
30
1.40165501924472e-005
11
-5094.58315986155
21
57.3982179403143
31
1.4029906523777e-005
  0
LINE
 8
GROUP0
10
-5095.10079795175
20
56.5016424681461
30
1.40037054629616e-005
11
-5094.78296070656
21
56.9158560305192
31
1.40165501924472e-005
  0
LINE
 8
GROUP0
10
-5095.51501151413
20
56.1838052229502
30
1.3992247683231e-005
11
-5095.10079795175
21
56.5016424681461
31
1.40037054629616e-005
  0
LINE
 8
GROUP0
10
-5095.99737342392
20
55.9840043779407
30
1.39829576815298e-005
11
-5095.51501151413
21
56.1838052229502
31
1.3992247683231e-005
  0
LINE
 8
GROUP0
10
-5096.51501151413
20
55.9158560305187
30
1.3976468556548e-005
11
-5095.99737342392
21
55.9840043779407
31
1.39829576815298e-005
  0
LINE
 8
GROUP0
10
-5097.03264960433
20
55.9840043779407
30
1.39732225311995e-005
11
-5096.51501151413
21
55.9158560305187
31
1.3976468556548e-005
  0
LINE
 8
GROUP0
10
-5097.51501151413
20
56.1838052229502
30
1.397344081705e-005
11
-5097.03264960433
21
55.9840043779407
31
1.39732225311995e-005
  0
LINE
 8
GROUP0
10
-5097.9292250765
20
56.5016424681461
30
1.39771085373663e-005
11
-5097.51501151413
21
56.1838052229502
31
1.397344081705e-005
  0
LINE
 8
GROUP0
10
-5098.2470623217
20
56.9158560305192
30
1.39839757444193e-005
11
-5097.9292250765
21
56.5016424681461
31
1.39771085373663e-005
  0
LINE
 8
GROUP0
10
-5098.4468631667
20
57.3982179403143
30
1.39935744478514e-005
11
-5098.2470623217
21
56.9158560305192
31
1.39839757444193e-005
  0
LINE
 8
GROUP0
10
-5098.51501151413
20
57.915856030519
30
1.40052505134325e-005
11
-5098.4468631667
21
57.3982179403143
31
1.39935744478514e-005
  0
LINE
 8
GROUP0
10
-5098.4468631667
20
58.4334941207237
30
1.40182082354501e-005
11
-5098.51501151413
21
57.915856030519
31
1.40052505134325e-005
  0
LINE
 8
GROUP0
10
-5098.2470623217
20
58.9158560305187
30
1.40315645674849e-005
11
-5098.4468631667
21
58.4334941207237
31
1.40182082354501e-005
  0
LINE
 8
GROUP0
10
-5097.9292250765
20
59.3300695928918
30
1.40444092962655e-005
11
-5098.2470623217
21
58.9158560305187
31
1.40315645674849e-005
  0
LINE
 8
GROUP0
10
-5097.51501151413
20
59.6479068380877
30
1.4055867075996e-005
11
-5097.9292250765
21
59.3300695928918
31
1.40444092962655e-005
  0
LINE
 8
GROUP0
10
-5097.03264960433
20
59.8477076830972
30
1.40651570776973e-005
11
-5097.51501151413
21
59.6479068380877
31
1.4055867075996e-005
  0
LINE
 8
GROUP0
10
-5096.51501151413
20
59.9158560305192
30
1.40716462026791e-005
11
-5097.03264960433
21
59.8477076830972
31
1.40651570776973e-005
  0
LINE
 8
GROUP0
10
-5095.99737342392
20
59.8477076830972
30
1.40748922280276e-005
11
-5096.51501151413
21
59.9158560305192
31
1.40716462026791e-005
  0
LINE
 8
GROUP0
10
-5095.51501151413
20
59.6479068380877
30
1.40746739421771e-005
11
-5095.99737342392
21
59.8477076830972
31
1.40748922280276e-005
  0
LINE
 8
GROUP0
10
-5095.10079795175
20
59.3300695928918
30
1.40710062218607e-005
11
-5095.51501151413
21
59.6479068380877
31
1.40746739421771e-005
  0
LINE
 8
GROUP0
10
-5094.78296070656
20
58.9158560305187
30
1.40641390155127e-005
11
-5095.10079795175
21
59.3300695928918
31
1.40710062218607e-005
  0
LINE
 8
GROUP0
10
-4918.03242122279
20
59.847707683097
30
1.57483737641684e-005
11
-4918.51478313259
21
59.6479068380876
31
1.57390837631721e-005
  0
LINE
 8
GROUP0
10
-4917.51478313259
20
59.9158560305191
30
1.57548628891502e-005
11
-4918.03242122279
21
59.847707683097
31
1.57483737641684e-005
  0
LINE
 8
GROUP0
10
-4916.99714504239
20
59.847707683097
30
1.57581089144987e-005
11
-4917.51478313259
21
59.9158560305191
31
1.57548628891502e-005
  0
LINE
 8
GROUP0
10
-4916.51478313259
20
59.6479068380876
30
1.57578906293532e-005
11
-4916.99714504239
21
59.847707683097
31
1.57581089144987e-005
  0
LINE
 8
GROUP0
10
-4916.10056957022
20
59.3300695928916
30
1.57542229083318e-005
11
-4916.51478313259
21
59.6479068380876
31
1.57578906293532e-005
  0
LINE
 8
GROUP0
10
-4915.78273232502
20
58.9158560305186
30
1.57473557019838e-005
11
-4916.10056957022
21
59.3300695928916
31
1.57542229083318e-005
  0
LINE
 8
GROUP0
10
-4915.58293148001
20
58.4334941207235
30
1.57377569978467e-005
11
-4915.78273232502
21
58.9158560305186
31
1.57473557019838e-005
  0
LINE
 8
GROUP0
10
-4915.51478313259
20
57.9158560305188
30
1.57260809329707e-005
11
-4915.58293148001
21
58.4334941207235
31
1.57377569978467e-005
  0
LINE
 8
GROUP0
10
-4915.58293148001
20
57.3982179403141
30
1.57131232109531e-005
11
-4915.51478313259
21
57.9158560305188
31
1.57260809329707e-005
  0
LINE
 8
GROUP0
10
-4915.78273232502
20
56.915856030519
30
1.56997668789183e-005
11
-4915.58293148001
21
57.3982179403141
31
1.57131232109531e-005
  0
LINE
 8
GROUP0
10
-4916.10056957022
20
56.501642468146
30
1.56869221501377e-005
11
-4915.78273232502
21
56.915856030519
31
1.56997668789183e-005
  0
LINE
 8
GROUP0
10
-4916.51478313259
20
56.18380522295
30
1.56754643704071e-005
11
-4916.10056957022
21
56.501642468146
31
1.56869221501377e-005
  0
LINE
 8
GROUP0
10
-4916.99714504239
20
55.9840043779405
30
1.56661743687059e-005
11
-4916.51478313259
21
56.18380522295
31
1.56754643704071e-005
  0
LINE
 8
GROUP0
10
-4917.51478313259
20
55.9158560305187
30
1.56596852437241e-005
11
-4916.99714504239
21
55.9840043779405
31
1.56661743687059e-005
  0
LINE
 8
GROUP0
10
-4918.03242122279
20
55.9840043779407
30
1.56564392183756e-005
11
-4917.51478313259
21
55.9158560305187
31
1.56596852437241e-005
  0
LINE
 8
GROUP0
10
-4918.51478313259
20
56.1838052229502
30
1.56566575035211e-005
11
-4918.03242122279
21
55.9840043779407
31
1.56564392183756e-005
  0
LINE
 8
GROUP0
10
-4918.92899669496
20
56.5016424681461
30
1.56603252245424e-005
11
-4918.51478313259
21
56.1838052229502
31
1.56566575035211e-005
  0
LINE
 8
GROUP0
10
-4919.24683394016
20
56.9158560305192
30
1.56671924308904e-005
11
-4918.92899669496
21
56.5016424681461
31
1.56603252245424e-005
  0
LINE
 8
GROUP0
10
-4919.44663478517
20
57.3982179403141
30
1.56767911350275e-005
11
-4919.24683394016
21
56.9158560305192
31
1.56671924308904e-005
  0
LINE
 8
GROUP0
10
-4919.51478313259
20
57.9158560305188
30
1.56884671999036e-005
11
-4919.44663478517
21
57.3982179403141
31
1.56767911350275e-005
  0
LINE
 8
GROUP0
10
-4919.44663478517
20
58.4334941207235
30
1.57014249226262e-005
11
-4919.51478313259
21
57.9158560305188
31
1.56884671999036e-005
  0
LINE
 8
GROUP0
10
-4919.24683394016
20
58.9158560305186
30
1.5714781253956e-005
11
-4919.44663478517
21
58.4334941207235
31
1.57014249226262e-005
  0
LINE
 8
GROUP0
10
-4918.92899669496
20
59.3300695928916
30
1.57276259834416e-005
11
-4919.24683394016
21
58.9158560305186
31
1.5714781253956e-005
  0
LINE
 8
GROUP0
10
-4918.51478313259
20
59.6479068380876
30
1.57390837631721e-005
11
-4918.92899669496
21
59.3300695928916
31
1.57276259834416e-005
  0
LINE
 8
GROUP0
10
-4737.51478313259
20
59.6479068380876
30
1.74419321715302e-005
11
-4737.99714504239
21
59.847707683097
31
1.74421504573807e-005
  0
LINE
 8
GROUP0
10
-4737.10056957022
20
59.3300695928916
30
1.74382644512139e-005
11
-4737.51478313259
21
59.6479068380876
31
1.74419321715302e-005
  0
LINE
 8
GROUP0
10
-4736.78273232502
20
58.9158560305186
30
1.74313972441609e-005
11
-4737.10056957022
21
59.3300695928916
31
1.74382644512139e-005
  0
LINE
 8
GROUP0
10
-4736.58293148001
20
58.4334941207235
30
1.74217985407288e-005
11
-4736.78273232502
21
58.9158560305186
31
1.74313972441609e-005
  0
LINE
 8
GROUP0
10
-4736.51478313259
20
57.9158560305188
30
1.74101224751477e-005
11
-4736.58293148001
21
58.4334941207235
31
1.74217985407288e-005
  0
LINE
 8
GROUP0
10
-4736.58293148001
20
57.3982179403141
30
1.73971647531301e-005
11
-4736.51478313259
21
57.9158560305188
31
1.74101224751477e-005
  0
LINE
 8
GROUP0
10
-4736.78273232502
20
56.915856030519
30
1.73838084210953e-005
11
-4736.58293148001
21
57.3982179403141
31
1.73971647531301e-005
  0
LINE
 8
GROUP0
10
-4737.10056957022
20
56.501642468146
30
1.73709636923147e-005
11
-4736.78273232502
21
56.915856030519
31
1.73838084210953e-005
  0
LINE
 8
GROUP0
10
-4737.51478313259
20
56.18380522295
30
1.73595059125842e-005
11
-4737.10056957022
21
56.501642468146
31
1.73709636923147e-005
  0
LINE
 8
GROUP0
10
-4737.99714504239
20
55.9840043779405
30
1.73502159108829e-005
11
-4737.51478313259
21
56.18380522295
31
1.73595059125842e-005
  0
LINE
 8
GROUP0
10
-4738.51478313259
20
55.9158560305185
30
1.73437267859011e-005
11
-4737.99714504239
21
55.9840043779405
31
1.73502159108829e-005
  0
LINE
 8
GROUP0
10
-4739.03242122279
20
55.9840043779405
30
1.73404807605526e-005
11
-4738.51478313259
21
55.9158560305185
31
1.73437267859011e-005
  0
LINE
 8
GROUP0
10
-4739.51478313259
20
56.18380522295
30
1.73406990464031e-005
11
-4739.03242122279
21
55.9840043779405
31
1.73404807605526e-005
  0
LINE
 8
GROUP0
10
-4739.92899669496
20
56.501642468146
30
1.73443667667195e-005
11
-4739.51478313259
21
56.18380522295
31
1.73406990464031e-005
  0
LINE
 8
GROUP0
10
-4740.24683394016
20
56.915856030519
30
1.73512339730675e-005
11
-4739.92899669496
21
56.501642468146
31
1.73443667667195e-005
  0
LINE
 8
GROUP0
10
-4740.44663478517
20
57.3982179403141
30
1.73608326772046e-005
11
-4740.24683394016
21
56.915856030519
31
1.73512339730675e-005
  0
LINE
 8
GROUP0
10
-4740.51478313259
20
57.9158560305188
30
1.73725087427856e-005
11
-4740.44663478517
21
57.3982179403141
31
1.73608326772046e-005
  0
LINE
 8
GROUP0
10
-4740.44663478517
20
58.4334941207235
30
1.73854664648032e-005
11
-4740.51478313259
21
57.9158560305188
31
1.73725087427856e-005
  0
LINE
 8
GROUP0
10
-4740.24683394016
20
58.9158560305186
30
1.7398822796133e-005
11
-4740.44663478517
21
58.4334941207235
31
1.73854664648032e-005
  0
LINE
 8
GROUP0
10
-4739.92899669496
20
59.3300695928916
30
1.74116675256186e-005
11
-4740.24683394016
21
58.9158560305186
31
1.7398822796133e-005
  0
LINE
 8
GROUP0
10
-4739.51478313259
20
59.6479068380876
30
1.74231253053492e-005
11
-4739.92899669496
21
59.3300695928916
31
1.74116675256186e-005
  0
LINE
 8
GROUP0
10
-4739.03242122279
20
59.847707683097
30
1.74324153070504e-005
11
-4739.51478313259
21
59.6479068380876
31
1.74231253053492e-005
  0
LINE
 8
GROUP0
10
-4738.51478313259
20
59.9158560305191
30
1.74389044320322e-005
11
-4739.03242122279
21
59.847707683097
31
1.74324153070504e-005
  0
LINE
 8
GROUP0
10
-4737.99714504239
20
59.847707683097
30
1.74421504573807e-005
11
-4738.51478313259
21
59.9158560305191
31
1.74389044320322e-005
  0
LINE
 8
GROUP0
10
-4652.44641113168
20
303.398441512541
30
2.50684008554991e-005
11
-4652.24661028667
21
302.916079602747
31
2.5058802151362e-005
  0
LINE
 8
GROUP0
10
-4652.5145594791
20
303.916079602746
30
2.50800769210802e-005
11
-4652.44641113168
21
303.398441512541
31
2.50684008554991e-005
  0
LINE
 8
GROUP0
10
-4652.44641113168
20
304.433717692952
30
2.50930346430978e-005
11
-4652.5145594791
21
303.916079602746
31
2.50800769210802e-005
  0
LINE
 8
GROUP0
10
-4652.24661028667
20
304.916079602747
30
2.51063909744276e-005
11
-4652.44641113168
21
304.433717692952
31
2.50930346430978e-005
  0
LINE
 8
GROUP0
10
-4651.92877304147
20
305.33029316512
30
2.51192357039132e-005
11
-4652.24661028667
21
304.916079602747
31
2.51063909744276e-005
  0
LINE
 8
GROUP0
10
-4651.5145594791
20
305.648130410315
30
2.51306934836437e-005
11
-4651.92877304147
21
305.33029316512
31
2.51192357039132e-005
  0
LINE
 8
GROUP0
10
-4651.0321975693
20
305.847931255325
30
2.5139983485345e-005
11
-4651.5145594791
21
305.648130410315
31
2.51306934836437e-005
  0
LINE
 8
GROUP0
10
-4650.5145594791
20
305.916079602747
30
2.51464726103268e-005
11
-4651.0321975693
21
305.847931255325
31
2.5139983485345e-005
  0
LINE
 8
GROUP0
10
-4649.99692138889
20
305.847931255325
30
2.51497186356753e-005
11
-4650.5145594791
21
305.916079602747
31
2.51464726103268e-005
  0
LINE
 8
GROUP0
10
-4649.5145594791
20
305.648130410315
30
2.51495003498248e-005
11
-4649.99692138889
21
305.847931255325
31
2.51497186356753e-005
  0
LINE
 8
GROUP0
10
-4649.10034591673
20
305.33029316512
30
2.51458326295084e-005
11
-4649.5145594791
21
305.648130410315
31
2.51495003498248e-005
  0
LINE
 8
GROUP0
10
-4648.78250867153
20
304.916079602747
30
2.51389654224554e-005
11
-4649.10034591673
21
305.33029316512
31
2.51458326295084e-005
  0
LINE
 8
GROUP0
10
-4648.58270782652
20
304.433717692952
30
2.51293667190233e-005
11
-4648.78250867153
21
304.916079602747
31
2.51389654224554e-005
  0
LINE
 8
GROUP0
10
-4648.5145594791
20
303.916079602746
30
2.51176906534423e-005
11
-4648.58270782652
21
304.433717692952
31
2.51293667190233e-005
  0
LINE
 8
GROUP0
10
-4648.58270782652
20
303.398441512541
30
2.51047329314247e-005
11
-4648.5145594791
21
303.916079602746
31
2.51176906534423e-005
  0
LINE
 8
GROUP0
10
-4648.78250867153
20
302.916079602747
30
2.50913766000949e-005
11
-4648.58270782652
21
303.398441512541
31
2.51047329314247e-005
  0
LINE
 8
GROUP0
10
-4649.10034591673
20
302.501866040374
30
2.50785318706093e-005
11
-4648.78250867153
21
302.916079602747
31
2.50913766000949e-005
  0
LINE
 8
GROUP0
10
-4649.5145594791
20
302.184028795178
30
2.50670740908787e-005
11
-4649.10034591673
21
302.501866040374
31
2.50785318706093e-005
  0
LINE
 8
GROUP0
10
-4649.99692138889
20
301.984227950168
30
2.50577840891775e-005
11
-4649.5145594791
21
302.184028795178
31
2.50670740908787e-005
  0
LINE
 8
GROUP0
10
-4650.5145594791
20
301.916079602747
30
2.50512949641957e-005
11
-4649.99692138889
21
301.984227950168
31
2.50577840891775e-005
  0
LINE
 8
GROUP0
10
-4651.0321975693
20
301.984227950168
30
2.50480489388472e-005
11
-4650.5145594791
21
301.916079602747
31
2.50512949641957e-005
  0
LINE
 8
GROUP0
10
-4651.5145594791
20
302.184028795178
30
2.50482672246977e-005
11
-4651.0321975693
21
301.984227950168
31
2.50480489388472e-005
  0
LINE
 8
GROUP0
10
-4651.92877304147
20
302.501866040374
30
2.5051934945014e-005
11
-4651.5145594791
21
302.184028795178
31
2.50482672246977e-005
  0
LINE
 8
GROUP0
10
-4652.24661028667
20
302.916079602747
30
2.5058802151362e-005
11
-4651.92877304147
21
302.501866040374
31
2.5051934945014e-005
  0
LINE
 8
GROUP0
10
-4652.44641113168
20
146.433489311415
30
2.030687878114e-005
11
-4652.5145594791
21
145.91585122121
31
2.02939210591224e-005
  0
LINE
 8
GROUP0
10
-4652.24661028667
20
146.91585122121
30
2.03202351124698e-005
11
-4652.44641113168
21
146.433489311415
31
2.030687878114e-005
  0
LINE
 8
GROUP0
10
-4651.92877304147
20
147.330064783583
30
2.03330798419554e-005
11
-4652.24661028667
21
146.91585122121
31
2.03202351124698e-005
  0
LINE
 8
GROUP0
10
-4651.5145594791
20
147.647902028779
30
2.0344537621686e-005
11
-4651.92877304147
21
147.330064783583
31
2.03330798419554e-005
  0
LINE
 8
GROUP0
10
-4651.0321975693
20
147.847702873788
30
2.03538276233872e-005
11
-4651.5145594791
21
147.647902028779
31
2.0344537621686e-005
  0
LINE
 8
GROUP0
10
-4650.5145594791
20
147.91585122121
30
2.0360316748369e-005
11
-4651.0321975693
21
147.847702873788
31
2.03538276233872e-005
  0
LINE
 8
GROUP0
10
-4649.99692138889
20
147.847702873788
30
2.03635627737175e-005
11
-4650.5145594791
21
147.91585122121
31
2.0360316748369e-005
  0
LINE
 8
GROUP0
10
-4649.5145594791
20
147.647902028779
30
2.0363344487867e-005
11
-4649.99692138889
21
147.847702873788
31
2.03635627737175e-005
  0
LINE
 8
GROUP0
10
-4649.10034591673
20
147.330064783583
30
2.03596767675507e-005
11
-4649.5145594791
21
147.647902028779
31
2.0363344487867e-005
  0
LINE
 8
GROUP0
10
-4648.78250867153
20
146.91585122121
30
2.03528095604977e-005
11
-4649.10034591673
21
147.330064783583
31
2.03596767675507e-005
  0
LINE
 8
GROUP0
10
-4648.58270782652
20
146.433489311415
30
2.03432108570656e-005
11
-4648.78250867153
21
146.91585122121
31
2.03528095604977e-005
  0
LINE
 8
GROUP0
10
-4648.5145594791
20
145.91585122121
30
2.03315347914845e-005
11
-4648.58270782652
21
146.433489311415
31
2.03432108570656e-005
  0
LINE
 8
GROUP0
10
-4648.58270782652
20
145.398213131005
30
2.03185770694669e-005
11
-4648.5145594791
21
145.91585122121
31
2.03315347914845e-005
  0
LINE
 8
GROUP0
10
-4648.78250867153
20
144.91585122121
30
2.03052207374321e-005
11
-4648.58270782652
21
145.398213131005
31
2.03185770694669e-005
  0
LINE
 8
GROUP0
10
-4649.10034591673
20
144.501637658837
30
2.02923760086515e-005
11
-4648.78250867153
21
144.91585122121
31
2.03052207374321e-005
  0
LINE
 8
GROUP0
10
-4649.5145594791
20
144.183800413641
30
2.0280918228921e-005
11
-4649.10034591673
21
144.501637658837
31
2.02923760086515e-005
  0
LINE
 8
GROUP0
10
-4649.99692138889
20
143.983999568632
30
2.02716282272197e-005
11
-4649.5145594791
21
144.183800413641
31
2.0280918228921e-005
  0
LINE
 8
GROUP0
10
-4650.5145594791
20
143.91585122121
30
2.02651391022379e-005
11
-4649.99692138889
21
143.983999568632
31
2.02716282272197e-005
  0
LINE
 8
GROUP0
10
-4651.0321975693
20
143.983999568632
30
2.02618930768894e-005
11
-4650.5145594791
21
143.91585122121
31
2.02651391022379e-005
  0
LINE
 8
GROUP0
10
-4651.5145594791
20
144.183800413641
30
2.02621113627399e-005
11
-4651.0321975693
21
143.983999568632
31
2.02618930768894e-005
  0
LINE
 8
GROUP0
10
-4651.92877304147
20
144.501637658837
30
2.02657790830563e-005
11
-4651.5145594791
21
144.183800413641
31
2.02621113627399e-005
  0
LINE
 8
GROUP0
10
-4652.24661028667
20
144.91585122121
30
2.02726462894043e-005
11
-4651.92877304147
21
144.501637658837
31
2.02657790830563e-005
  0
LINE
 8
GROUP0
10
-4652.44641113168
20
145.398213131005
30
2.02822449935414e-005
11
-4652.24661028667
21
144.91585122121
31
2.02726462894043e-005
  0
LINE
 8
GROUP0
10
-4652.5145594791
20
145.91585122121
30
2.02939210591224e-005
11
-4652.44641113168
21
145.398213131005
31
2.02822449935414e-005
  0
LINE
 8
GROUP0
10
-4652.44641113168
20
224.398441512542
30
2.19989217786987e-005
11
-4652.24661028667
21
223.916079602747
31
2.19893230745616e-005
  0
LINE
 8
GROUP0
10
-4652.5145594791
20
224.916079602747
30
2.20105978435747e-005
11
-4652.44641113168
21
224.398441512542
31
2.19989217786987e-005
  0
LINE
 8
GROUP0
10
-4652.44641113168
20
225.433717692951
30
2.20235555655923e-005
11
-4652.5145594791
21
224.916079602747
31
2.20105978435747e-005
  0
LINE
 8
GROUP0
10
-4652.24661028667
20
225.916079602747
30
2.20369118976271e-005
11
-4652.44641113168
21
225.433717692951
31
2.20235555655923e-005
  0
LINE
 8
GROUP0
10
-4651.92877304147
20
226.33029316512
30
2.20497566264077e-005
11
-4652.24661028667
21
225.916079602747
31
2.20369118976271e-005
  0
LINE
 8
GROUP0
10
-4651.5145594791
20
226.648130410316
30
2.20612144061383e-005
11
-4651.92877304147
21
226.33029316512
31
2.20497566264077e-005
  0
LINE
 8
GROUP0
10
-4651.0321975693
20
226.847931255325
30
2.20705044078395e-005
11
-4651.5145594791
21
226.648130410316
31
2.20612144061383e-005
  0
LINE
 8
GROUP0
10
-4650.5145594791
20
226.916079602747
30
2.20769935328213e-005
11
-4651.0321975693
21
226.847931255325
31
2.20705044078395e-005
  0
LINE
 8
GROUP0
10
-4649.99692138889
20
226.847931255325
30
2.20802395581698e-005
11
-4650.5145594791
21
226.916079602747
31
2.20769935328213e-005
  0
LINE
 8
GROUP0
10
-4649.5145594791
20
226.648130410316
30
2.20800212730243e-005
11
-4649.99692138889
21
226.847931255325
31
2.20802395581698e-005
  0
LINE
 8
GROUP0
10
-4649.10034591673
20
226.33029316512
30
2.2076353552003e-005
11
-4649.5145594791
21
226.648130410316
31
2.20800212730243e-005
  0
LINE
 8
GROUP0
10
-4648.78250867153
20
225.916079602747
30
2.2069486345655e-005
11
-4649.10034591673
21
226.33029316512
31
2.2076353552003e-005
  0
LINE
 8
GROUP0
10
-4648.58270782652
20
225.433717692951
30
2.20598876415179e-005
11
-4648.78250867153
21
225.916079602747
31
2.2069486345655e-005
  0
LINE
 8
GROUP0
10
-4648.5145594791
20
224.916079602747
30
2.20482115766418e-005
11
-4648.58270782652
21
225.433717692951
31
2.20598876415179e-005
  0
LINE
 8
GROUP0
10
-4648.58270782652
20
224.398441512542
30
2.20352538546242e-005
11
-4648.5145594791
21
224.916079602747
31
2.20482115766418e-005
  0
LINE
 8
GROUP0
10
-4648.78250867153
20
223.916079602747
30
2.20218975225894e-005
11
-4648.58270782652
21
224.398441512542
31
2.20352538546242e-005
  0
LINE
 8
GROUP0
10
-4649.10034591673
20
223.501866040374
30
2.20090527931038e-005
11
-4648.78250867153
21
223.916079602747
31
2.20218975225894e-005
  0
LINE
 8
GROUP0
10
-4649.5145594791
20
223.184028795178
30
2.19975950133733e-005
11
-4649.10034591673
21
223.501866040374
31
2.20090527931038e-005
  0
LINE
 8
GROUP0
10
-4649.99692138889
20
222.984227950169
30
2.1988305012377e-005
11
-4649.5145594791
21
223.184028795178
31
2.19975950133733e-005
  0
LINE
 8
GROUP0
10
-4650.5145594791
20
222.916079602747
30
2.19818158873952e-005
11
-4649.99692138889
21
222.984227950169
31
2.1988305012377e-005
  0
LINE
 8
GROUP0
10
-4651.0321975693
20
222.984227950169
30
2.19785698620467e-005
11
-4650.5145594791
21
222.916079602747
31
2.19818158873952e-005
  0
LINE
 8
GROUP0
10
-4651.5145594791
20
223.184028795178
30
2.19787881471922e-005
11
-4651.0321975693
21
222.984227950169
31
2.19785698620467e-005
  0
LINE
 8
GROUP0
10
-4651.92877304147
20
223.501866040374
30
2.19824558682136e-005
11
-4651.5145594791
21
223.184028795178
31
2.19787881471922e-005
  0
LINE
 8
GROUP0
10
-4652.24661028667
20
223.916079602747
30
2.19893230745616e-005
11
-4651.92877304147
21
223.501866040374
31
2.19824558682136e-005
  0
LINE
 8
GROUP0
10
-4925.76474353426
20
236.916307967072
30
2.0915539937133e-005
11
-4775.76474353425
21
236.916307967072
31
2.23260549141069e-005
  0
LINE
 8
GROUP0
10
-4925.76474353426
20
376.916307967072
30
2.42467575397365e-005
11
-4925.76474353426
21
236.916307967072
31
2.0915539937133e-005
  0
LINE
 8
GROUP0
10
-4775.76474353425
20
376.916307967072
30
2.56572725174153e-005
11
-4925.76474353426
21
376.916307967072
31
2.42467575397365e-005
  0
LINE
 8
GROUP0
10
-4775.76474353425
20
236.916307967072
30
2.23260549141069e-005
11
-4775.76474353425
21
376.916307967072
31
2.56572725174153e-005
  0
LINE
 8
GROUP0
10
-4782.76474353425
20
342.416307967072
30
2.66506846396397e-005
11
-4782.3765149666
21
342.467419227639
31
2.66506846396397e-005
  0
LINE
 8
GROUP0
10
-4783.15297210191
20
342.467419227639
30
2.66506846396397e-005
11
-4782.76474353425
21
342.416307967072
31
2.66506846396397e-005
  0
LINE
 8
GROUP0
10
-4783.51474353425
20
342.617269861396
30
2.66506846396397e-005
11
-4783.15297210191
21
342.467419227639
31
2.66506846396397e-005
  0
LINE
 8
GROUP0
10
-4783.82540370603
20
342.855647795292
30
2.66506846396397e-005
11
-4783.51474353425
21
342.617269861396
31
2.66506846396397e-005
  0
LINE
 8
GROUP0
10
-4784.06378163993
20
343.166307967072
30
2.66506846396397e-005
11
-4783.82540370603
21
342.855647795292
31
2.66506846396397e-005
  0
LINE
 8
GROUP0
10
-4784.21363227369
20
343.528079399418
30
2.66506846396397e-005
11
-4784.06378163993
21
343.166307967072
31
2.66506846396397e-005
  0
LINE
 8
GROUP0
10
-4784.26474353425
20
343.916307967072
30
2.66506846396397e-005
11
-4784.21363227369
21
343.528079399418
31
2.66506846396397e-005
  0
LINE
 8
GROUP0
10
-4784.21363227369
20
344.304536534726
30
2.66506846396397e-005
11
-4784.26474353425
21
343.916307967072
31
2.66506846396397e-005
  0
LINE
 8
GROUP0
10
-4784.06378163993
20
344.666307967072
30
2.66506846396397e-005
11
-4784.21363227369
21
344.304536534726
31
2.66506846396397e-005
  0
LINE
 8
GROUP0
10
-4783.82540370603
20
344.976968138852
30
2.66506846396397e-005
11
-4784.06378163993
21
344.666307967072
31
2.66506846396397e-005
  0
LINE
 8
GROUP0
10
-4783.51474353425
20
345.215346072748
30
2.66506846396397e-005
11
-4783.82540370603
21
344.976968138852
31
2.66506846396397e-005
  0
LINE
 8
GROUP0
10
-4783.15297210191
20
345.365196706505
30
2.66506846396397e-005
11
-4783.51474353425
21
345.215346072748
31
2.66506846396397e-005
  0
LINE
 8
GROUP0
10
-4782.76474353425
20
345.416307967072
30
2.66506846396397e-005
11
-4783.15297210191
21
345.365196706505
31
2.66506846396397e-005
  0
LINE
 8
GROUP0
10
-4782.3765149666
20
345.365196706505
30
2.66506846396397e-005
11
-4782.76474353425
21
345.416307967072
31
2.66506846396397e-005
  0
LINE
 8
GROUP0
10
-4782.01474353425
20
345.215346072748
30
2.66506846396397e-005
11
-4782.3765149666
21
345.365196706505
31
2.66506846396397e-005
  0
LINE
 8
GROUP0
10
-4781.70408336248
20
344.976968138852
30
2.66506846396397e-005
11
-4782.01474353425
21
345.215346072748
31
2.66506846396397e-005
  0
LINE
 8
GROUP0
10
-4781.46570542858
20
344.666307967072
30
2.66506846396397e-005
11
-4781.70408336248
21
344.976968138852
31
2.66506846396397e-005
  0
LINE
 8
GROUP0
10
-4781.31585479482
20
344.304536534726
30
2.66506846396397e-005
11
-4781.46570542858
21
344.666307967072
31
2.66506846396397e-005
  0
LINE
 8
GROUP0
10
-4781.26474353426
20
343.916307967072
30
2.66506846396397e-005
11
-4781.31585479482
21
344.304536534726
31
2.66506846396397e-005
  0
LINE
 8
GROUP0
10
-4781.31585479482
20
343.528079399418
30
2.66506846396397e-005
11
-4781.26474353426
21
343.916307967072
31
2.66506846396397e-005
  0
LINE
 8
GROUP0
10
-4781.46570542858
20
343.166307967072
30
2.66506846396397e-005
11
-4781.31585479482
21
343.528079399418
31
2.66506846396397e-005
  0
LINE
 8
GROUP0
10
-4781.70408336248
20
342.855647795292
30
2.66506846396397e-005
11
-4781.46570542858
21
343.166307967072
31
2.66506846396397e-005
  0
LINE
 8
GROUP0
10
-4782.01474353425
20
342.617269861396
30
2.66506846396397e-005
11
-4781.70408336248
21
342.855647795292
31
2.66506846396397e-005
  0
LINE
 8
GROUP0
10
-4782.3765149666
20
342.467419227639
30
2.66506846396397e-005
11
-4782.01474353425
21
342.617269861396
31
2.66506846396397e-005
  0
LINE
 8
GROUP0
10
-4783.15297210191
20
250.365196706505
30
2.66506846396397e-005
11
-4783.51474353425
21
250.215346072748
31
2.66506846396397e-005
  0
LINE
 8
GROUP0
10
-4782.76474353425
20
250.416307967072
30
2.66506846396397e-005
11
-4783.15297210191
21
250.365196706505
31
2.66506846396397e-005
  0
LINE
 8
GROUP0
10
-4782.3765149666
20
250.365196706505
30
2.66506846396397e-005
11
-4782.76474353425
21
250.416307967072
31
2.66506846396397e-005
  0
LINE
 8
GROUP0
10
-4782.01474353425
20
250.215346072748
30
2.66506846396397e-005
11
-4782.3765149666
21
250.365196706505
31
2.66506846396397e-005
  0
LINE
 8
GROUP0
10
-4781.70408336248
20
249.976968138851
30
2.66506846396397e-005
11
-4782.01474353425
21
250.215346072748
31
2.66506846396397e-005
  0
LINE
 8
GROUP0
10
-4781.46570542858
20
249.666307967072
30
2.66506846396397e-005
11
-4781.70408336248
21
249.976968138851
31
2.66506846396397e-005
  0
LINE
 8
GROUP0
10
-4781.31585479482
20
249.304536534726
30
2.66506846396397e-005
11
-4781.46570542858
21
249.666307967072
31
2.66506846396397e-005
  0
LINE
 8
GROUP0
10
-4781.26474353426
20
248.916307967072
30
2.66506846396397e-005
11
-4781.31585479482
21
249.304536534726
31
2.66506846396397e-005
  0
LINE
 8
GROUP0
10
-4781.31585479482
20
248.528079399418
30
2.66506846396397e-005
11
-4781.26474353426
21
248.916307967072
31
2.66506846396397e-005
  0
LINE
 8
GROUP0
10
-4781.46570542858
20
248.166307967072
30
2.66506846396397e-005
11
-4781.31585479482
21
248.528079399418
31
2.66506846396397e-005
  0
LINE
 8
GROUP0
10
-4781.70408336248
20
247.855647795292
30
2.66506846396397e-005
11
-4781.46570542858
21
248.166307967072
31
2.66506846396397e-005
  0
LINE
 8
GROUP0
10
-4782.01474353425
20
247.617269861395
30
2.66506846396397e-005
11
-4781.70408336248
21
247.855647795292
31
2.66506846396397e-005
  0
LINE
 8
GROUP0
10
-4782.3765149666
20
247.467419227639
30
2.66506846396397e-005
11
-4782.01474353425
21
247.617269861395
31
2.66506846396397e-005
  0
LINE
 8
GROUP0
10
-4782.76474353425
20
247.416307967072
30
2.66506846396397e-005
11
-4782.3765149666
21
247.467419227639
31
2.66506846396397e-005
  0
LINE
 8
GROUP0
10
-4783.15297210191
20
247.467419227639
30
2.66506846396397e-005
11
-4782.76474353425
21
247.416307967072
31
2.66506846396397e-005
  0
LINE
 8
GROUP0
10
-4783.51474353425
20
247.617269861395
30
2.66506846396397e-005
11
-4783.15297210191
21
247.467419227639
31
2.66506846396397e-005
  0
LINE
 8
GROUP0
10
-4783.82540370603
20
247.855647795292
30
2.66506846396397e-005
11
-4783.51474353425
21
247.617269861395
31
2.66506846396397e-005
  0
LINE
 8
GROUP0
10
-4784.06378163993
20
248.166307967072
30
2.66506846396397e-005
11
-4783.82540370603
21
247.855647795292
31
2.66506846396397e-005
  0
LINE
 8
GROUP0
10
-4784.21363227369
20
248.528079399418
30
2.66506846396397e-005
11
-4784.06378163993
21
248.166307967072
31
2.66506846396397e-005
  0
LINE
 8
GROUP0
10
-4784.26474353425
20
248.916307967072
30
2.66506846396397e-005
11
-4784.21363227369
21
248.528079399418
31
2.66506846396397e-005
  0
LINE
 8
GROUP0
10
-4784.21363227369
20
249.304536534726
30
2.66506846396397e-005
11
-4784.26474353425
21
248.916307967072
31
2.66506846396397e-005
  0
LINE
 8
GROUP0
10
-4784.06378163993
20
249.666307967072
30
2.66506846396397e-005
11
-4784.21363227369
21
249.304536534726
31
2.66506846396397e-005
  0
LINE
 8
GROUP0
10
-4783.82540370603
20
249.976968138851
30
2.66506846396397e-005
11
-4784.06378163993
21
249.666307967072
31
2.66506846396397e-005
  0
LINE
 8
GROUP0
10
-4783.51474353425
20
250.215346072748
30
2.66506846396397e-005
11
-4783.82540370603
21
249.976968138851
31
2.66506846396397e-005
  0
LINE
 8
GROUP0
10
-4920.21363227369
20
249.304536534726
30
2.66506846396397e-005
11
-4920.26474353426
21
248.916307967072
31
2.66506846396397e-005
  0
LINE
 8
GROUP0
10
-4920.06378163993
20
249.666307967072
30
2.66506846396397e-005
11
-4920.21363227369
21
249.304536534726
31
2.66506846396397e-005
  0
LINE
 8
GROUP0
10
-4919.82540370604
20
249.976968138852
30
2.66506846396397e-005
11
-4920.06378163993
21
249.666307967072
31
2.66506846396397e-005
  0
LINE
 8
GROUP0
10
-4919.51474353426
20
250.215346072749
30
2.66506846396397e-005
11
-4919.82540370604
21
249.976968138852
31
2.66506846396397e-005
  0
LINE
 8
GROUP0
10
-4919.15297210191
20
250.365196706506
30
2.66506846396397e-005
11
-4919.51474353426
21
250.215346072749
31
2.66506846396397e-005
  0
LINE
 8
GROUP0
10
-4918.76474353426
20
250.416307967072
30
2.66506846396397e-005
11
-4919.15297210191
21
250.365196706506
31
2.66506846396397e-005
  0
LINE
 8
GROUP0
10
-4918.3765149666
20
250.365196706506
30
2.66506846396397e-005
11
-4918.76474353426
21
250.416307967072
31
2.66506846396397e-005
  0
LINE
 8
GROUP0
10
-4918.01474353426
20
250.215346072749
30
2.66506846396397e-005
11
-4918.3765149666
21
250.365196706506
31
2.66506846396397e-005
  0
LINE
 8
GROUP0
10
-4917.70408336247
20
249.976968138852
30
2.66506846396397e-005
11
-4918.01474353426
21
250.215346072749
31
2.66506846396397e-005
  0
LINE
 8
GROUP0
10
-4917.46570542858
20
249.666307967072
30
2.66506846396397e-005
11
-4917.70408336247
21
249.976968138852
31
2.66506846396397e-005
  0
LINE
 8
GROUP0
10
-4917.31585479482
20
249.304536534726
30
2.66506846396397e-005
11
-4917.46570542858
21
249.666307967072
31
2.66506846396397e-005
  0
LINE
 8
GROUP0
10
-4917.26474353426
20
248.916307967072
30
2.66506846396397e-005
11
-4917.31585479482
21
249.304536534726
31
2.66506846396397e-005
  0
LINE
 8
GROUP0
10
-4917.31585479482
20
248.528079399418
30
2.66506846396397e-005
11
-4917.26474353426
21
248.916307967072
31
2.66506846396397e-005
  0
LINE
 8
GROUP0
10
-4917.46570542858
20
248.166307967072
30
2.66506846396397e-005
11
-4917.31585479482
21
248.528079399418
31
2.66506846396397e-005
  0
LINE
 8
GROUP0
10
-4917.70408336247
20
247.855647795292
30
2.66506846396397e-005
11
-4917.46570542858
21
248.166307967072
31
2.66506846396397e-005
  0
LINE
 8
GROUP0
10
-4918.01474353426
20
247.617269861395
30
2.66506846396397e-005
11
-4917.70408336247
21
247.855647795292
31
2.66506846396397e-005
  0
LINE
 8
GROUP0
10
-4918.3765149666
20
247.467419227638
30
2.66506846396397e-005
11
-4918.01474353426
21
247.617269861395
31
2.66506846396397e-005
  0
LINE
 8
GROUP0
10
-4918.76474353426
20
247.416307967072
30
2.66506846396397e-005
11
-4918.3765149666
21
247.467419227638
31
2.66506846396397e-005
  0
LINE
 8
GROUP0
10
-4919.15297210191
20
247.467419227638
30
2.66506846396397e-005
11
-4918.76474353426
21
247.416307967072
31
2.66506846396397e-005
  0
LINE
 8
GROUP0
10
-4919.51474353426
20
247.617269861395
30
2.66506846396397e-005
11
-4919.15297210191
21
247.467419227638
31
2.66506846396397e-005
  0
LINE
 8
GROUP0
10
-4919.82540370604
20
247.855647795292
30
2.66506846396397e-005
11
-4919.51474353426
21
247.617269861395
31
2.66506846396397e-005
  0
LINE
 8
GROUP0
10
-4920.06378163993
20
248.166307967072
30
2.66506846396397e-005
11
-4919.82540370604
21
247.855647795292
31
2.66506846396397e-005
  0
LINE
 8
GROUP0
10
-4920.21363227369
20
248.528079399418
30
2.66506846396397e-005
11
-4920.06378163993
21
248.166307967072
31
2.66506846396397e-005
  0
LINE
 8
GROUP0
10
-4920.26474353426
20
248.916307967072
30
2.66506846396397e-005
11
-4920.21363227369
21
248.528079399418
31
2.66506846396397e-005
  0
LINE
 8
GROUP0
10
-4919.51474353426
20
345.215346072749
30
2.66506846396397e-005
11
-4919.82540370604
21
344.976968138852
31
2.66506846396397e-005
  0
LINE
 8
GROUP0
10
-4919.15297210191
20
345.365196706505
30
2.66506846396397e-005
11
-4919.51474353426
21
345.215346072749
31
2.66506846396397e-005
  0
LINE
 8
GROUP0
10
-4918.76474353426
20
345.416307967072
30
2.66506846396397e-005
11
-4919.15297210191
21
345.365196706505
31
2.66506846396397e-005
  0
LINE
 8
GROUP0
10
-4918.3765149666
20
345.365196706505
30
2.66506846396397e-005
11
-4918.76474353426
21
345.416307967072
31
2.66506846396397e-005
  0
LINE
 8
GROUP0
10
-4918.01474353426
20
345.215346072749
30
2.66506846396397e-005
11
-4918.3765149666
21
345.365196706505
31
2.66506846396397e-005
  0
LINE
 8
GROUP0
10
-4917.70408336247
20
344.976968138852
30
2.66506846396397e-005
11
-4918.01474353426
21
345.215346072749
31
2.66506846396397e-005
  0
LINE
 8
GROUP0
10
-4917.46570542858
20
344.666307967072
30
2.66506846396397e-005
11
-4917.70408336247
21
344.976968138852
31
2.66506846396397e-005
  0
LINE
 8
GROUP0
10
-4917.31585479482
20
344.304536534726
30
2.66506846396397e-005
11
-4917.46570542858
21
344.666307967072
31
2.66506846396397e-005
  0
LINE
 8
GROUP0
10
-4917.26474353426
20
343.916307967072
30
2.66506846396397e-005
11
-4917.31585479482
21
344.304536534726
31
2.66506846396397e-005
  0
LINE
 8
GROUP0
10
-4917.31585479482
20
343.528079399418
30
2.66506846396397e-005
11
-4917.26474353426
21
343.916307967072
31
2.66506846396397e-005
  0
LINE
 8
GROUP0
10
-4917.46570542858
20
343.166307967072
30
2.66506846396397e-005
11
-4917.31585479482
21
343.528079399418
31
2.66506846396397e-005
  0
LINE
 8
GROUP0
10
-4917.70408336247
20
342.855647795292
30
2.66506846396397e-005
11
-4917.46570542858
21
343.166307967072
31
2.66506846396397e-005
  0
LINE
 8
GROUP0
10
-4918.01474353426
20
342.617269861395
30
2.66506846396397e-005
11
-4917.70408336247
21
342.855647795292
31
2.66506846396397e-005
  0
LINE
 8
GROUP0
10
-4918.3765149666
20
342.467419227638
30
2.66506846396397e-005
11
-4918.01474353426
21
342.617269861395
31
2.66506846396397e-005
  0
LINE
 8
GROUP0
10
-4918.76474353426
20
342.416307967072
30
2.66506846396397e-005
11
-4918.3765149666
21
342.467419227638
31
2.66506846396397e-005
  0
LINE
 8
GROUP0
10
-4919.15297210191
20
342.467419227638
30
2.66506846396397e-005
11
-4918.76474353426
21
342.416307967072
31
2.66506846396397e-005
  0
LINE
 8
GROUP0
10
-4919.51474353426
20
342.617269861395
30
2.66506846396397e-005
11
-4919.15297210191
21
342.467419227638
31
2.66506846396397e-005
  0
LINE
 8
GROUP0
10
-4919.82540370604
20
342.855647795292
30
2.66506846396397e-005
11
-4919.51474353426
21
342.617269861395
31
2.66506846396397e-005
  0
LINE
 8
GROUP0
10
-4920.06378163993
20
343.166307967072
30
2.66506846396397e-005
11
-4919.82540370604
21
342.855647795292
31
2.66506846396397e-005
  0
LINE
 8
GROUP0
10
-4920.21363227369
20
343.528079399418
30
2.66506846396397e-005
11
-4920.06378163993
21
343.166307967072
31
2.66506846396397e-005
  0
LINE
 8
GROUP0
10
-4920.26474353426
20
343.916307967072
30
2.66506846396397e-005
11
-4920.21363227369
21
343.528079399418
31
2.66506846396397e-005
  0
LINE
 8
GROUP0
10
-4920.21363227369
20
344.304536534726
30
2.66506846396397e-005
11
-4920.26474353426
21
343.916307967072
31
2.66506846396397e-005
  0
LINE
 8
GROUP0
10
-4920.06378163993
20
344.666307967072
30
2.66506846396397e-005
11
-4920.21363227369
21
344.304536534726
31
2.66506846396397e-005
  0
LINE
 8
GROUP0
10
-4919.82540370604
20
344.976968138852
30
2.66506846396397e-005
11
-4920.06378163993
21
344.666307967072
31
2.66506846396397e-005
 0
ENDSEC
 0
EOF
