 0
SECTION
 2
ENTITIES
  0
LINE
 8
GROUP0
10
6204.1440878095
20
714.687618124258
30
0.000145644632783298
11
6136.64413082609
21
714.687618124258
31
6.93295318137499e-005
  0
LINE
 8
GROUP0
10
6204.14347250319
20
690.187686479392
30
0.000145287000784727
11
6204.1440878095
21
714.687618124258
31
0.000145644632783298
  0
LINE
 8
GROUP0
10
6245.64313146498
20
690.187610416775
30
0.0
11
6204.14347250319
21
690.187686479392
31
0.000145287000784727
  0
LINE
 8
GROUP0
10
6245.64313146498
20
690.187610416775
30
0.0
11
6245.64363472029
21
710.187610410221
31
9.43331377840306e-005
  0
LINE
 8
GROUP0
10
6245.64363472029
20
710.187610410221
30
9.43331377840306e-005
11
6581.64408815461
21
710.187166132732
31
0.000530262126246256
  0
LINE
 8
GROUP0
10
6581.64408815461
20
710.187166132732
30
0.000530262126246256
11
6581.64406170954
21
690.187149112809
31
0.000530262088942329
  0
LINE
 8
GROUP0
10
6623.14347250249
20
690.187080001053
30
0.000496257914645837
11
6581.64406170954
21
690.187149112809
31
0.000530262088942329
  0
LINE
 8
GROUP0
10
6623.14352413151
20
714.68714120141
30
0.000685020223946864
11
6623.14347250249
21
690.187080001053
31
0.000496257914645837
  0
LINE
 8
GROUP0
10
6623.14352413151
20
714.68714120141
30
0.000685020223946864
11
6690.64362906739
21
714.687055049357
31
0.000766570690050605
  0
LINE
 8
GROUP0
10
6690.64429999269
20
1236.68703034158
30
0.0012199401116071
11
6690.64362906739
21
714.687055049357
31
0.000766570690050605
  0
LINE
 8
GROUP0
10
6690.64429999269
20
1236.68703034158
30
0.0012199401116071
11
6663.14429999276
21
1236.6870648174
31
0.00116625409101004
  0
LINE
 8
GROUP0
10
6663.14429999276
20
1236.6870648174
30
0.00116625409101004
11
6623.14429819975
21
1236.68711738346
31
0.00111465883537619
  0
LINE
 8
GROUP0
10
6623.14429819975
20
1236.68711738346
30
0.00111465883537619
11
6623.14434365021
21
1271.68711923135
31
0.00113771274802299
  0
LINE
 8
GROUP0
10
6623.14437060004
20
1292.18711923133
30
0.00115048647007365
11
6623.14434365021
21
1271.68711923135
31
0.00113771274802299
  0
LINE
 8
GROUP0
10
6204.14426849867
20
1292.18766639555
30
0.000606150698140168
11
6623.14437060004
21
1292.18711923133
31
0.00115048647007365
  0
LINE
 8
GROUP0
10
6204.14426849867
20
1292.18766639555
30
0.000606150698140168
11
6204.14427596085
21
1271.68767679759
31
0.000576699906935785
  0
LINE
 8
GROUP0
10
6204.14427596085
20
1271.68767679759
30
0.000576699906935785
11
6204.14422968199
21
1236.68765113195
31
0.000564789414256478
  0
LINE
 8
GROUP0
10
6204.14422968199
20
1236.68765113195
30
0.000564789414256478
11
6164.14426730473
21
1236.68770402201
31
0.000496713831384599
  0
LINE
 8
GROUP0
10
6164.14426730473
20
1236.68770402201
30
0.000496713831384599
11
6136.64431431612
21
1236.68768426861
31
0.000475203833812643
  0
LINE
 8
GROUP0
10
6136.64413082609
20
714.687618124258
30
6.93295318137499e-005
11
6136.64431431612
21
1236.68768426861
31
0.000475203833812643
  0
LINE
 8
GROUP0
10
6613.14435349101
20
1280.18713112987
30
0.00113235139660548
11
6613.6619916708
21
1280.25527879679
31
0.00113336080339853
  0
LINE
 8
GROUP0
10
6612.6267154904
20
1280.25528015779
30
0.00113144705777614
11
6613.14435349101
21
1280.18713112987
31
0.00113235139660548
  0
LINE
 8
GROUP0
10
6612.14435384327
20
1280.45508163693
30
0.0011307094163622
11
6612.6267154904
21
1280.25528015779
31
0.00113144705777614
  0
LINE
 8
GROUP0
10
6611.73014069873
20
1280.77291942666
30
0.00113018874094307
11
6612.14435384327
21
1280.45508163693
31
0.0011307094163622
  0
LINE
 8
GROUP0
10
6611.41230399807
20
1281.18713340687
30
0.00112992051510905
11
6611.73014069873
21
1280.77291942666
31
0.00113018874094307
  0
LINE
 8
GROUP0
10
6611.21250378719
20
1281.66949557933
30
0.00112992301731959
11
6611.41230399807
21
1281.18713340687
31
0.00112992051510905
  0
LINE
 8
GROUP0
10
6611.14435612027
20
1282.18713375912
30
0.00113019607731499
11
6611.21250378719
21
1281.66949557933
31
0.00112992301731959
  0
LINE
 8
GROUP0
10
6611.21250514819
20
1282.70477175973
30
0.00113072108653899
11
6611.14435612027
21
1282.18713375912
31
0.00113019607731499
  0
LINE
 8
GROUP0
10
6611.41230662732
20
1283.18713340687
30
0.00113146226749731
11
6611.21250514819
21
1282.70477175973
31
0.00113072108653899
  0
LINE
 8
GROUP0
10
6611.73014441705
20
1283.6013465514
30
0.00113236910781739
11
6611.41230662732
21
1283.18713340687
31
0.00113146226749731
  0
LINE
 8
GROUP0
10
6612.14435839726
20
1283.91918325206
30
0.00113337980994653
11
6611.73014441705
21
1283.6013465514
31
0.00113236910781739
  0
LINE
 8
GROUP0
10
6612.62672056972
20
1284.11898346294
30
0.00113442549459248
11
6612.14435839726
21
1283.91918325206
31
0.00113337980994653
  0
LINE
 8
GROUP0
10
6613.14435874951
20
1284.18713112986
30
0.00113543490138412
11
6612.62672056972
21
1284.11898346294
31
0.00113442549459248
  0
LINE
 8
GROUP0
10
6613.66199675013
20
1284.11898210194
30
0.00113633924021346
11
6613.14435874951
21
1284.18713112986
31
0.00113543490138412
  0
LINE
 8
GROUP0
10
6614.14435839725
20
1283.91918062281
30
0.0011370768816274
11
6613.66199675013
21
1284.11898210194
31
0.00113633924021346
  0
LINE
 8
GROUP0
10
6614.55857154179
20
1283.60134283307
30
0.00113759755704794
11
6614.14435839725
21
1283.91918062281
31
0.0011370768816274
  0
LINE
 8
GROUP0
10
6614.87640824245
20
1283.18712885286
30
0.00113786578288055
11
6614.55857154179
21
1283.60134283307
31
0.00113759755704794
  0
LINE
 8
GROUP0
10
6615.07620845333
20
1282.70476668041
30
0.0011378632806686
11
6614.87640824245
21
1283.18712885286
31
0.00113786578288055
  0
LINE
 8
GROUP0
10
6615.14435612025
20
1282.18712850061
30
0.00113759022067602
11
6615.07620845333
21
1282.70476668041
31
0.0011378632806686
  0
LINE
 8
GROUP0
10
6615.07620709233
20
1281.6694905
30
0.00113706521145061
11
6615.14435612025
21
1282.18712850061
31
0.00113759022067602
  0
LINE
 8
GROUP0
10
6614.8764056132
20
1281.18712885287
30
0.00113632403049088
11
6615.07620709233
21
1281.6694905
31
0.00113706521145061
  0
LINE
 8
GROUP0
10
6614.55856782347
20
1280.77291570833
30
0.00113541719017432
11
6614.8764056132
21
1281.18712885287
31
0.00113632403049088
  0
LINE
 8
GROUP0
10
6614.14435384326
20
1280.45507900767
30
0.00113440648804307
11
6614.55856782347
21
1280.77291570833
31
0.00113541719017432
  0
LINE
 8
GROUP0
10
6613.6619916708
20
1280.25527879679
30
0.00113336080339853
11
6614.14435384326
21
1280.45507900767
31
0.00113440648804307
  0
LINE
 8
GROUP0
10
6215.14426764315
20
1280.45560400131
30
0.000560069226938509
11
6215.55848162336
21
1280.77344070197
31
0.000561079929069058
  0
LINE
 8
GROUP0
10
6214.6619054707
20
1280.25580379043
30
0.000559023542291853
11
6215.14426764315
21
1280.45560400131
31
0.000560069226938509
  0
LINE
 8
GROUP0
10
6214.14426729091
20
1280.18765612351
30
0.000558014135500923
11
6214.6619054707
21
1280.25580379043
31
0.000559023542291853
  0
LINE
 8
GROUP0
10
6213.62662929029
20
1280.25580515143
30
0.000557109796670879
11
6214.14426729091
21
1280.18765612351
31
0.000558014135500923
  0
LINE
 8
GROUP0
10
6213.14426764316
20
1280.45560663056
30
0.000556372155257645
11
6213.62662929029
21
1280.25580515143
31
0.000557109796670879
  0
LINE
 8
GROUP0
10
6212.73005449863
20
1280.77344442029
30
0.000555851479836394
11
6213.14426764316
21
1280.45560663056
31
0.000556372155257645
  0
LINE
 8
GROUP0
10
6212.41221779797
20
1281.1876584005
30
0.000555583254003078
11
6212.73005449863
21
1280.77344442029
31
0.000555851479836394
  0
LINE
 8
GROUP0
10
6212.21241758709
20
1281.67002057296
30
0.000555585756214327
11
6212.41221779797
21
1281.1876584005
31
0.000555583254003078
  0
LINE
 8
GROUP0
10
6212.14426992016
20
1282.18765875275
30
0.000555858816208321
11
6212.21241758709
21
1281.67002057296
31
0.000555585756214327
  0
LINE
 8
GROUP0
10
6212.21241894809
20
1282.70529675336
30
0.000556383825433726
11
6212.14426992016
21
1282.18765875275
31
0.000555858816208321
  0
LINE
 8
GROUP0
10
6212.41222042722
20
1283.18765840049
30
0.00055712500639275
11
6212.21241894809
21
1282.70529675336
31
0.000556383825433726
  0
LINE
 8
GROUP0
10
6212.73005821695
20
1283.60187154503
30
0.000558031846710721
11
6212.41222042722
21
1283.18765840049
31
0.00055712500639275
  0
LINE
 8
GROUP0
10
6213.14427219716
20
1283.91970824568
30
0.000559042548841976
11
6212.73005821695
21
1283.60187154503
31
0.000558031846710721
  0
LINE
 8
GROUP0
10
6213.62663436961
20
1284.11950845657
30
0.000560088233487926
11
6213.14427219716
21
1283.91970824568
31
0.000559042548841976
  0
LINE
 8
GROUP0
10
6214.1442725494
20
1284.18765612349
30
0.000561097640279562
11
6213.62663436961
21
1284.11950845657
31
0.000560088233487926
  0
LINE
 8
GROUP0
10
6214.66191055002
20
1284.11950709557
30
0.0005620019791089
11
6214.1442725494
21
1284.18765612349
31
0.000561097640279562
  0
LINE
 8
GROUP0
10
6215.14427219714
20
1283.91970561643
30
0.00056273962052284
11
6214.66191055002
21
1284.11950709557
31
0.0005620019791089
  0
LINE
 8
GROUP0
10
6215.55848534168
20
1283.6018678267
30
0.000563260295943385
11
6215.14427219714
21
1283.91970561643
31
0.00056273962052284
  0
LINE
 8
GROUP0
10
6215.87632204234
20
1283.18765384649
30
0.000563528521774587
11
6215.55848534168
21
1283.6018678267
31
0.000563260295943385
  0
LINE
 8
GROUP0
10
6216.07612225322
20
1282.70529167404
30
0.000563526019565452
11
6215.87632204234
21
1283.18765384649
31
0.000563528521774587
  0
LINE
 8
GROUP0
10
6216.14426992014
20
1282.18765349425
30
0.000563252959570049
11
6216.07612225322
21
1282.70529167404
31
0.000563526019565452
  0
LINE
 8
GROUP0
10
6216.07612089222
20
1281.67001549363
30
0.000562727950344644
11
6216.14426992014
21
1282.18765349425
31
0.000563252959570049
  0
LINE
 8
GROUP0
10
6215.87631941309
20
1281.1876538465
30
0.00056198676938562
11
6216.07612089222
21
1281.67001549363
31
0.000562727950344644
  0
LINE
 8
GROUP0
10
6215.55848162336
20
1280.77344070197
30
0.000561079929069058
11
6215.87631941309
21
1281.1876538465
31
0.00056198676938562
  0
LINE
 8
GROUP0
10
6144.6443157376
20
1226.68769159639
30
0.000422816218485611
11
6144.71246437319
21
1226.17005354412
31
0.000422543160494498
  0
LINE
 8
GROUP0
10
6144.71246379686
20
1227.20532972453
30
0.000423341226430046
11
6144.6443157376
21
1226.68769159639
31
0.000422816218485611
  0
LINE
 8
GROUP0
10
6144.91226437333
20
1227.68769174555
30
0.000424082405473608
11
6144.71246379686
21
1227.20532972453
31
0.000423341226430046
  0
LINE
 8
GROUP0
10
6145.23010138794
20
1228.10190548486
30
0.000424989245489138
11
6144.91226437333
21
1227.68769174555
31
0.000424082405473608
  0
LINE
 8
GROUP0
10
6145.64431477338
20
1228.41974296064
30
0.000425999946109595
11
6145.23010138794
21
1228.10190548486
31
0.000424989245489138
  0
LINE
 8
GROUP0
10
6146.12667657194
20
1228.61954407418
30
0.000427045631705875
11
6145.64431477338
21
1228.41974296064
31
0.000425999946109595
  0
LINE
 8
GROUP0
10
6146.6443146242
20
1228.68769270977
30
0.000428055038330427
11
6146.12667657194
21
1228.61954407418
31
0.000427045631705875
  0
LINE
 8
GROUP0
10
6147.16195275234
20
1228.61954465051
30
0.00042895937804876
11
6146.6443146242
21
1228.68769270977
31
0.000428055038330427
  0
LINE
 8
GROUP0
10
6147.64431477336
20
1228.41974407403
30
0.000429697020678105
11
6147.16195275234
21
1228.61954465051
31
0.00042895937804876
  0
LINE
 8
GROUP0
10
6148.05852851267
20
1228.10190705943
30
0.000430217698329949
11
6147.64431477336
21
1228.41974407403
31
0.000429697020678105
  0
LINE
 8
GROUP0
10
6148.37636598846
20
1227.68769367399
30
0.000430485925909529
11
6148.05852851267
21
1228.10190705943
31
0.000430217698329949
  0
LINE
 8
GROUP0
10
6148.57616710199
20
1227.20533187543
30
0.000430483425614447
11
6148.37636598846
21
1227.68769367399
31
0.000430485925909529
  0
LINE
 8
GROUP0
10
6148.64431573759
20
1226.68769382316
30
0.00043021036762263
11
6148.57616710199
21
1227.20533187543
31
0.000430483425614447
  0
LINE
 8
GROUP0
10
6148.57616767833
20
1226.17005569502
30
0.000429685359679605
11
6148.64431573759
21
1226.68769382316
31
0.00043021036762263
  0
LINE
 8
GROUP0
10
6148.37636710185
20
1225.687693674
30
0.000428944180634633
11
6148.57616767833
21
1226.17005569502
31
0.000429685359679605
  0
LINE
 8
GROUP0
10
6148.05853008724
20
1225.27347993469
30
0.000428037340619808
11
6148.37636710185
21
1225.687693674
31
0.000428944180634633
  0
LINE
 8
GROUP0
10
6147.64431670181
20
1224.9556424589
30
0.000427026639997941
11
6148.05853008724
21
1225.27347993469
31
0.000428037340619808
  0
LINE
 8
GROUP0
10
6147.16195490325
20
1224.75584134537
30
0.000425980954403776
11
6147.64431670181
21
1224.9556424589
31
0.000427026639997941
  0
LINE
 8
GROUP0
10
6146.64431685098
20
1224.68769270978
30
0.000424971547779224
11
6147.16195490325
21
1224.75584134537
31
0.000425980954403776
  0
LINE
 8
GROUP0
10
6146.12667872284
20
1224.75584076904
30
0.000424067208060891
11
6146.64431685098
21
1224.68769270978
31
0.000424971547779224
  0
LINE
 8
GROUP0
10
6145.64431670182
20
1224.95564134552
30
0.000423329565429431
11
6146.12667872284
21
1224.75584076904
31
0.000424067208060891
  0
LINE
 8
GROUP0
10
6145.23010296251
20
1225.27347836012
30
0.000422808887778292
11
6145.64431670182
21
1224.95564134552
31
0.000423329565429431
  0
LINE
 8
GROUP0
10
6144.91226548673
20
1225.68769174556
30
0.000422540660200121
11
6145.23010296251
21
1225.27347836012
31
0.000422808887778292
  0
LINE
 8
GROUP0
10
6144.71246437319
20
1226.17005354412
30
0.000422543160494498
11
6144.91226548673
21
1225.68769174556
31
0.000422540660200121
  0
LINE
 8
GROUP0
10
6679.2300733495
20
1225.27358774076
30
0.00109901657762544
11
6679.64428708853
21
1224.95575072639
31
0.00109953725455396
  0
LINE
 8
GROUP0
10
6678.91223587394
20
1225.68780112589
30
0.00109874834932465
11
6679.2300733495
21
1225.27358774076
31
0.00109901657762544
  0
LINE
 8
GROUP0
10
6678.71243476053
20
1226.17016292411
30
0.00109875084961973
11
6678.91223587394
21
1225.68780112589
31
0.00109874834932465
  0
LINE
 8
GROUP0
10
6678.64428612497
20
1226.68780097601
30
0.00109902390761085
11
6678.71243476053
21
1226.17016292411
31
0.00109875084961973
  0
LINE
 8
GROUP0
10
6678.71243418417
20
1227.20543910379
30
0.00109954891555528
11
6678.64428612497
21
1226.68780097601
31
0.00109902390761085
  0
LINE
 8
GROUP0
10
6678.9122347605
20
1227.68780112447
30
0.00110029009459884
11
6678.71243418417
21
1227.20543910379
31
0.00109954891555528
  0
LINE
 8
GROUP0
10
6679.23007177486
20
1228.1020148635
30
0.00110119693461367
11
6678.9122347605
21
1227.68780112447
31
0.00110029009459884
  0
LINE
 8
GROUP0
10
6679.64428516
20
1228.41985233907
30
0.00110220763595604
11
6679.23007177486
21
1228.1020148635
31
0.00110119693461367
  0
LINE
 8
GROUP0
10
6680.12664695822
20
1228.61965345248
30
0.0011032533208297
11
6679.64428516
21
1228.41985233907
31
0.00110220763595604
  0
LINE
 8
GROUP0
10
6680.64428501012
20
1228.68780208803
30
0.00110426272817475
11
6680.12664695822
21
1228.61965345248
31
0.0011032533208297
  0
LINE
 8
GROUP0
10
6681.1619231379
20
1228.61965402884
30
0.00110516706789379
11
6680.64428501012
21
1228.68780208803
31
0.00110426272817475
  0
LINE
 8
GROUP0
10
6681.64428515858
20
1228.41985345251
30
0.00110590471124575
11
6681.1619231379
21
1228.61965402884
31
0.00110516706789379
  0
LINE
 8
GROUP0
10
6682.05849889761
20
1228.10201643814
30
0.00110642538817428
11
6681.64428515858
21
1228.41985345251
31
0.00110590471124575
  0
LINE
 8
GROUP0
10
6682.37633637318
20
1227.687803053
30
0.00110669361647506
11
6682.05849889761
21
1228.10201643814
31
0.00110642538817428
  0
LINE
 8
GROUP0
10
6682.57613748659
20
1227.20544125478
30
0.00110669111617998
11
6682.37633637318
21
1227.687803053
31
0.00110669361647506
  0
LINE
 8
GROUP0
10
6682.64428612214
20
1226.68780320288
30
0.00110641805818816
11
6682.57613748659
21
1227.20544125478
31
0.00110669111617998
  0
LINE
 8
GROUP0
10
6682.57613806294
20
1226.1701650751
30
0.00110589305024514
11
6682.64428612214
21
1226.68780320288
31
0.00110641805818816
  0
LINE
 8
GROUP0
10
6682.37633748662
20
1225.68780305442
30
0.00110515187120017
11
6682.57613806294
21
1226.1701650751
31
0.00110589305024514
  0
LINE
 8
GROUP0
10
6682.05850047225
20
1225.27358931539
30
0.00110424503118464
11
6682.37633748662
21
1225.68780305442
31
0.00110515187120017
  0
LINE
 8
GROUP0
10
6681.64428708711
20
1224.95575183982
30
0.00110323432984368
11
6682.05850047225
21
1225.27358931539
31
0.00110424503118464
  0
LINE
 8
GROUP0
10
6681.16192528889
20
1224.75595072642
30
0.00110218864497001
11
6681.64428708711
21
1224.95575183982
31
0.00110323432984368
  0
LINE
 8
GROUP0
10
6680.644287237
20
1224.68780209086
30
0.00110117923762496
11
6681.16192528889
21
1224.75595072642
31
0.00110218864497001
  0
LINE
 8
GROUP0
10
6680.12664910922
20
1224.75595015006
30
0.00110027489790592
11
6680.644287237
21
1224.68780209086
31
0.00110117923762496
  0
LINE
 8
GROUP0
10
6679.64428708853
20
1224.95575072639
30
0.00109953725455396
11
6680.12664910922
21
1224.75595015006
31
0.00110027489790592
  0
LINE
 8
GROUP0
10
6145.22990789691
20
726.101835480802
30
0.000124847307077669
11
6144.91207088321
21
725.6876217408
31
0.000123940467786871
  0
LINE
 8
GROUP0
10
6145.64412128166
20
726.41967295749
30
0.000125858008421448
11
6145.22990789691
21
726.101835480802
31
0.000124847307077669
  0
LINE
 8
GROUP0
10
6146.12648307978
20
726.619474072079
30
0.000126903693292996
11
6145.64412128166
21
726.41967295749
31
0.000125858008421448
  0
LINE
 8
GROUP0
10
6146.6441211319
20
726.687622708795
30
0.00012791310063805
11
6146.12648307978
21
726.619474072079
31
0.000126903693292996
  0
LINE
 8
GROUP0
10
6147.16175926018
20
726.619474650669
30
0.000128817440357792
11
6146.6441211319
21
726.687622708795
31
0.00012791310063805
  0
LINE
 8
GROUP0
10
6147.64412128164
20
726.41967407524
30
0.000129555082989957
11
6147.16175926018
21
726.619474650669
31
0.000128817440357792
  0
LINE
 8
GROUP0
10
6148.05833502164
20
726.10183706154
30
0.000130075760640391
11
6147.64412128164
21
726.41967407524
31
0.000129555082989957
  0
LINE
 8
GROUP0
10
6148.37617249833
20
725.687623676799
30
0.000130343988221382
11
6148.05833502164
21
726.10183706154
31
0.000130075760640391
  0
LINE
 8
GROUP0
10
6148.57597361292
20
725.20526187867
30
0.000130341488650326
11
6148.37617249833
21
725.687623676799
31
0.000130343988221382
  0
LINE
 8
GROUP0
10
6148.64412224964
20
724.687623826554
30
0.000130068429937302
11
6148.57597361292
21
725.20526187867
31
0.000130341488650326
  0
LINE
 8
GROUP0
10
6148.57597419151
20
724.169985698265
30
0.000129543421994277
11
6148.64412224964
21
724.687623826554
31
0.000130068429937302
  0
LINE
 8
GROUP0
10
6148.37617361608
20
723.687623676808
30
0.000128802242952125
11
6148.57597419151
21
724.169985698265
31
0.000129543421994277
  0
LINE
 8
GROUP0
10
6148.05833660238
20
723.273409936805
30
0.000127895403661327
11
6148.37617361608
21
723.687623676808
31
0.000128802242952125
  0
LINE
 8
GROUP0
10
6147.64412321764
20
722.955572460117
30
0.000126884702317548
11
6148.05833660238
21
723.273409936805
31
0.000127895403661327
  0
LINE
 8
GROUP0
10
6147.16176141951
20
722.755771345529
30
0.00012583901744459
11
6147.64412321764
21
722.955572460117
31
0.000126884702317548
  0
LINE
 8
GROUP0
10
6146.6441233674
20
722.687622708812
30
0.000124829610100946
11
6147.16176141951
21
722.755771345529
31
0.00012583901744459
  0
LINE
 8
GROUP0
10
6146.12648523911
20
722.755770766939
30
0.000123925270379793
11
6146.6441233674
21
722.687622708812
31
0.000124829610100946
  0
LINE
 8
GROUP0
10
6145.64412321765
20
722.955571342367
30
0.000123187627749038
11
6146.12648523911
21
722.755770766939
31
0.000123925270379793
  0
LINE
 8
GROUP0
10
6145.22990947765
20
723.273408356068
30
0.000122666950097194
11
6145.64412321765
21
722.955571342367
31
0.000123187627749038
  0
LINE
 8
GROUP0
10
6144.91207200096
20
723.687621740808
30
0.000122398722516204
11
6145.22990947765
21
723.273408356068
31
0.000122666950097194
  0
LINE
 8
GROUP0
10
6144.71227088638
20
724.169983538937
30
0.000122401222087259
11
6144.91207200096
21
723.687621740808
31
0.000122398722516204
  0
LINE
 8
GROUP0
10
6144.64412224966
20
724.687621591054
30
0.000122674280800283
11
6144.71227088638
21
724.169983538937
31
0.000122401222087259
  0
LINE
 8
GROUP0
10
6144.71227030778
20
725.205259719343
30
0.000123199288743309
11
6144.64412224966
21
724.687621591054
31
0.000122674280800283
  0
LINE
 8
GROUP0
10
6144.91207088321
20
725.6876217408
30
0.000123940467786871
11
6144.71227030778
21
725.205259719343
31
0.000123199288743309
  0
LINE
 8
GROUP0
10
6678.71178850381
20
725.205372617875
30
0.00093514455283687
11
6678.64363950768
21
724.687734615238
31
0.000934619543652354
  0
LINE
 8
GROUP0
10
6678.91158995276
20
725.687734275188
30
0.000935885733033093
11
6678.71178850381
21
725.205372617875
31
0.00093514455283687
  0
LINE
 8
GROUP0
10
6679.22942771596
20
726.101947437371
30
0.000936792574037726
11
6678.91158995276
21
725.687734275188
31
0.000935885733033093
  0
LINE
 8
GROUP0
10
6679.64364167512
20
726.419784161942
30
0.000937803276140076
11
6679.22942771596
21
726.101947437371
31
0.000936792574037726
  0
LINE
 8
GROUP0
10
6680.12600383343
20
726.61958440137
30
0.000938848960766991
11
6679.64364167512
21
726.419784161942
31
0.000937803276140076
  0
LINE
 8
GROUP0
10
6680.64364200695
20
726.687732099524
30
0.000939858367550872
11
6680.12600383343
21
726.61958440137
31
0.000938848960766991
  0
LINE
 8
GROUP0
10
6681.16128000959
20
726.619583103395
30
0.000940762706383735
11
6680.64364200695
21
726.687732099524
31
0.000939858367550872
  0
LINE
 8
GROUP0
10
6681.6436416669
20
726.419781654447
30
0.000941500347810364
11
6681.16128000959
21
726.619583103395
31
0.000940762706383735
  0
LINE
 8
GROUP0
10
6682.05785482908
20
726.101943891238
30
0.000942021023254175
11
6681.6436416669
21
726.419781654447
31
0.000941500347810364
  0
LINE
 8
GROUP0
10
6682.37569155366
20
725.687729932079
30
0.000942289249840422
11
6682.05785482908
21
726.101943891238
31
0.000942021023254175
  0
LINE
 8
GROUP0
10
6682.57549179308
20
725.205367773766
30
0.000942286747668652
11
6682.37569155366
21
725.687729932079
31
0.000942289249840422
  0
LINE
 8
GROUP0
10
6682.64363949124
20
724.687729600248
30
0.000942013686993637
11
6682.57549179308
21
725.205367773766
31
0.000942286747668652
  0
LINE
 8
GROUP0
10
6682.57549049511
20
724.170091597611
30
0.000941488677809121
11
6682.64363949124
21
724.687729600248
31
0.000942013686993637
  0
LINE
 8
GROUP0
10
6682.37568904616
20
723.687729940297
30
0.000940747497612898
11
6682.57549049511
21
724.170091597611
31
0.000941488677809121
  0
LINE
 8
GROUP0
10
6682.05785128295
20
723.273516778114
30
0.000939840656608265
11
6682.37568904616
21
723.687729940297
31
0.000940747497612898
  0
LINE
 8
GROUP0
10
6681.64363732379
20
722.955680053544
30
0.000938829954504505
11
6682.05785128295
21
723.273516778114
31
0.000939840656608265
  0
LINE
 8
GROUP0
10
6681.16127516548
20
722.755879814116
30
0.00093778426987759
11
6681.64363732379
21
722.955680053544
31
0.000938829954504505
  0
LINE
 8
GROUP0
10
6680.64363699197
20
722.687732115961
30
0.000936774863095119
11
6681.16127516548
21
722.755879814116
31
0.00093778426987759
  0
LINE
 8
GROUP0
10
6680.12599898933
20
722.755881112091
30
0.000935870524262256
11
6680.64363699197
21
722.687732115961
31
0.000936774863095119
  0
LINE
 8
GROUP0
10
6679.64363733202
20
722.955682561039
30
0.000935132882834921
11
6680.12599898933
21
722.755881112091
31
0.000935870524262256
  0
LINE
 8
GROUP0
10
6679.22942416983
20
723.273520324248
30
0.000934612207391111
11
6679.64363733202
21
722.955682561039
31
0.000935132882834921
  0
LINE
 8
GROUP0
10
6678.91158744526
20
723.687734283407
30
0.000934343980806274
11
6679.22942416983
21
723.273520324248
31
0.000934612207391111
  0
LINE
 8
GROUP0
10
6678.71178720583
20
724.170096441719
30
0.000934346482977338
11
6678.91158744526
21
723.687734283407
31
0.000934343980806274
  0
LINE
 8
GROUP0
10
6678.64363950768
20
724.687734615238
30
0.000934619543652354
11
6678.71178720583
21
724.170096441719
31
0.000934346482977338
  0
LINE
 8
GROUP0
10
6214.14408992694
20
702.187630960403
30
0.000141466206521851
11
6213.62645187488
21
702.1194823237
31
0.000140456799176797
  0
LINE
 8
GROUP0
10
6214.66172805517
20
702.119482902276
30
0.000142370546241594
11
6214.14408992694
21
702.187630960403
31
0.000141466206521851
  0
LINE
 8
GROUP0
10
6215.14409007658
20
701.919682326862
30
0.000143108188870233
11
6214.66172805517
21
702.119482902276
31
0.000142370546241594
  0
LINE
 8
GROUP0
10
6215.55830381654
20
701.601845313189
30
0.000143628865802281
11
6215.14409007658
21
701.919682326862
31
0.000143108188870233
  0
LINE
 8
GROUP0
10
6215.87614129318
20
701.187631928487
30
0.000143897094103773
11
6215.55830381654
21
701.601845313189
31
0.000143628865802281
  0
LINE
 8
GROUP0
10
6216.07594240775
20
700.705270130406
30
0.000143894593809396
11
6215.87614129318
21
701.187631928487
31
0.000143897094103773
  0
LINE
 8
GROUP0
10
6216.14409104445
20
700.187632078342
30
0.000143621535099192
11
6216.07594240775
21
700.705270130406
31
0.000143894593809396
  0
LINE
 8
GROUP0
10
6216.07594298632
20
699.669993950107
30
0.000143096527154757
11
6216.14409104445
21
700.187632078342
31
0.000143621535099192
  0
LINE
 8
GROUP0
10
6215.87614241091
20
699.187631928703
30
0.000142355348112605
11
6216.07594298632
21
699.669993950107
31
0.000143096527154757
  0
LINE
 8
GROUP0
10
6215.55830539724
20
698.773418188748
30
0.000141448508098485
11
6215.87614241091
21
699.187631928703
31
0.000142355348112605
  0
LINE
 8
GROUP0
10
6215.14409201254
20
698.455580712098
30
0.000140437806756116
11
6215.55830539724
21
698.773418188748
31
0.000141448508098485
  0
LINE
 8
GROUP0
10
6214.66173021446
20
698.255779597537
30
0.000139392121884568
11
6215.14409201254
21
698.455580712098
31
0.000140437806756116
  0
LINE
 8
GROUP0
10
6214.1440921624
20
698.187630960834
30
0.000138382714537399
11
6214.66173021446
21
698.255779597537
31
0.000139392121884568
  0
LINE
 8
GROUP0
10
6213.62645403416
20
698.255779018961
30
0.000137478374819772
11
6214.1440921624
21
698.187630960834
31
0.000138382714537399
  0
LINE
 8
GROUP0
10
6213.14409201276
20
698.455579594375
30
0.000136740732189017
11
6213.62645403416
21
698.255779018961
31
0.000137478374819772
  0
LINE
 8
GROUP0
10
6212.7298782728
20
698.773416608048
30
0.000136220055256969
11
6213.14409201276
21
698.455579594375
31
0.000136740732189017
  0
LINE
 8
GROUP0
10
6212.41204079615
20
699.18762999275
30
0.000135951826955477
11
6212.7298782728
21
698.773416608048
31
0.000136220055256969
  0
LINE
 8
GROUP0
10
6212.21223968159
20
699.669991790832
30
0.000135954327250559
11
6212.41204079615
21
699.18762999275
31
0.000135951826955477
  0
LINE
 8
GROUP0
10
6212.14409104489
20
700.187629842895
30
0.000136227385961468
11
6212.21223968159
21
699.669991790832
31
0.000135954327250559
  0
LINE
 8
GROUP0
10
6212.21223910301
20
700.70526797113
30
0.000136752393903083
11
6212.14409104489
21
700.187629842895
31
0.000136227385961468
  0
LINE
 8
GROUP0
10
6212.41203967842
20
701.187629992534
30
0.000137493572946645
11
6212.21223910301
21
700.70526797113
31
0.000136752393903083
  0
LINE
 8
GROUP0
10
6212.7298766921
20
701.601843732489
30
0.00013840041296147
11
6212.41203967842
21
701.187629992534
31
0.000137493572946645
  0
LINE
 8
GROUP0
10
6213.1440900768
20
701.919681209139
30
0.000139411114303134
11
6212.7298766921
21
701.601843732489
31
0.00013840041296147
  0
LINE
 8
GROUP0
10
6213.62645187488
20
702.1194823237
30
0.000140456799176797
11
6213.1440900768
21
701.919681209139
31
0.000139411114303134
  0
LINE
 8
GROUP0
10
6612.62595341622
20
702.118906174651
30
0.000683016686301097
11
6612.14359124592
21
701.91910596472
31
0.000681971001657966
  0
LINE
 8
GROUP0
10
6613.14359159369
20
702.18705384121
30
0.000684026093091322
11
6612.62595341622
21
702.118906174651
31
0.000683016686301097
  0
LINE
 8
GROUP0
10
6613.66122959197
20
702.118904813539
30
0.000684930431915726
11
6613.14359159369
21
702.18705384121
31
0.000684026093091322
  0
LINE
 8
GROUP0
10
6614.1435912369
20
701.919103335252
30
0.000685668073328255
11
6613.66122959197
21
702.118904813539
31
0.000684930431915726
  0
LINE
 8
GROUP0
10
6614.55780437954
20
701.601265546907
30
0.00068618874874739
11
6614.1435912369
21
701.919103335252
31
0.000685668073328255
  0
LINE
 8
GROUP0
10
6614.87564107872
20
701.187051568529
30
0.000686456975297683
11
6614.55780437954
21
701.601265546907
31
0.00068618874874739
  0
LINE
 8
GROUP0
10
6615.07544128865
20
700.704689398223
30
0.000686454472363818
11
6614.87564107872
21
701.187051568529
31
0.000686456975297683
  0
LINE
 8
GROUP0
10
6615.14358895521
20
700.187051220753
30
0.000686181412370529
11
6615.07544128865
21
700.704689398223
31
0.000686454472363818
  0
LINE
 8
GROUP0
10
6615.07543992754
20
699.669413222477
30
0.000685656403145829
11
6615.14358895521
21
700.187051220753
31
0.000686181412370529
  0
LINE
 8
GROUP0
10
6614.87563844925
20
699.187051577541
30
0.000684915222909421
11
6615.07543992754
21
699.669413222477
31
0.000685656403145829
  0
LINE
 8
GROUP0
10
6614.55780066091
20
698.772838434905
30
0.000684008381870949
11
6614.87563844925
21
699.187051577541
31
0.000684915222909421
  0
LINE
 8
GROUP0
10
6614.14358668253
20
698.455001735722
30
0.000682997679744629
11
6614.55780066091
21
698.772838434905
31
0.000684008381870949
  0
LINE
 8
GROUP0
10
6613.66122451223
20
698.255201525791
30
0.000681951995100794
11
6614.14358668253
21
698.455001735722
31
0.000682997679744629
  0
LINE
 8
GROUP0
10
6613.14358633476
20
698.187053859233
30
0.000680942588310568
11
6613.66122451223
21
698.255201525791
31
0.000681951995100794
  0
LINE
 8
GROUP0
10
6612.62594833649
20
698.255202886904
30
0.00068003824948687
11
6613.14358633476
21
698.187053859233
31
0.000680942588310568
  0
LINE
 8
GROUP0
10
6612.14358669155
20
698.45500436519
30
0.00067930060807434
11
6612.62594833649
21
698.255202886904
31
0.00068003824948687
  0
LINE
 8
GROUP0
10
6611.72937354892
20
698.772842153535
30
0.000678779932656615
11
6612.14358669155
21
698.45500436519
31
0.00067930060807434
  0
LINE
 8
GROUP0
10
6611.41153684973
20
699.187056131913
30
0.000678511706104207
11
6611.72937354892
21
698.772842153535
31
0.000678779932656615
  0
LINE
 8
GROUP0
10
6611.2117366398
20
699.66941830222
30
0.000678514209038072
11
6611.41153684973
21
699.187056131913
31
0.000678511706104207
  0
LINE
 8
GROUP0
10
6611.14358897324
20
700.187056479689
30
0.000678787269033476
11
6611.2117366398
21
699.66941830222
31
0.000678514209038072
  0
LINE
 8
GROUP0
10
6611.21173800092
20
700.704694477965
30
0.000679312278256061
11
6611.14358897324
21
700.187056479689
31
0.000678787269033476
  0
LINE
 8
GROUP0
10
6611.4115394792
20
701.187056122902
30
0.000680053458492469
11
6611.21173800092
21
700.704694477965
31
0.000679312278256061
  0
LINE
 8
GROUP0
10
6611.72937726754
20
701.601269265537
30
0.000680960299531647
11
6611.4115394792
21
701.187056122902
31
0.000680053458492469
  0
LINE
 8
GROUP0
10
6612.14359124592
20
701.91910596472
30
0.000681971001657966
11
6611.72937726754
21
701.601269265537
31
0.000680960299531647
  0
LINE
 8
GROUP0
10
6283.64412994434
20
1146.68756518753
30
0.000656132093451844
11
6283.64412994433
21
1162.18756518753
31
0.000666077611887988
  0
LINE
 8
GROUP0
10
6257.14412994437
20
1146.68756518753
30
0.000621092397702444
11
6283.64412994434
21
1146.68756518753
31
0.000656132093451844
  0
LINE
 8
GROUP0
10
6257.14412994435
20
1162.18756518753
30
0.000631037916138588
11
6257.14412994437
21
1146.68756518753
31
0.000621092397702444
  0
LINE
 8
GROUP0
10
6283.64412994433
20
1162.18756518753
30
0.000666077611887988
11
6257.14412994435
21
1162.18756518753
31
0.000631037916138588
  0
LINE
 8
GROUP0
10
6543.64412994311
20
1146.68722310073
30
0.00071690646316252
11
6543.64412994309
21
1162.18722310072
31
0.000726851981598664
  0
LINE
 8
GROUP0
10
6543.64412994309
20
1162.18722310072
30
0.000726851981598664
11
6570.14412994307
21
1162.18722310072
31
0.000761891677348064
  0
LINE
 8
GROUP0
10
6570.14412994307
20
1162.18722310072
30
0.000761891677348064
11
6570.14412994308
21
1146.68722310073
31
0.00075194615891192
  0
LINE
 8
GROUP0
10
6570.14412994308
20
1146.68722310073
30
0.00075194615891192
11
6543.64412994311
21
1146.68722310073
31
0.00071690646316252
  0
LINE
 8
GROUP0
10
6426.8941299432
20
1032.18739414401
30
0.000565598172025855
11
6400.39412994323
21
1032.18739414401
31
0.000530558476276455
  0
LINE
 8
GROUP0
10
6426.89412994322
20
1016.68739414402
30
0.000555652653589711
11
6426.8941299432
21
1032.18739414401
31
0.000565598172025855
  0
LINE
 8
GROUP0
10
6400.39412994324
20
1016.68739414402
30
0.000520612957840311
11
6426.89412994322
21
1016.68739414402
31
0.000555652653589711
  0
LINE
 8
GROUP0
10
6400.39412994323
20
1032.18739414401
30
0.000530558476276455
11
6400.39412994324
21
1016.68739414402
31
0.000520612957840311
  0
LINE
 8
GROUP0
10
6201.12649707245
20
732.119544284769
30
0.000170144493151975
11
6200.64413509294
21
731.919743608253
31
0.000169273675559606
  0
LINE
 8
GROUP0
10
6201.64413518638
20
732.187692451395
30
0.00017098514557275
11
6201.12649707245
21
732.119544284769
31
0.000170144493151975
  0
LINE
 8
GROUP0
10
6202.16177325271
20
732.119543923197
30
0.000171738343579947
11
6201.64413518638
21
732.187692451395
31
0.00017098514557275
  0
LINE
 8
GROUP0
10
6202.64413509266
20
731.919742909749
30
0.000172352758128141
11
6202.16177325271
21
732.119543923197
31
0.000171738343579947
  0
LINE
 8
GROUP0
10
6203.05834854397
20
731.601905519933
30
0.000172786517714163
11
6202.64413509266
21
731.919742909749
31
0.000172352758128141
  0
LINE
 8
GROUP0
10
6203.37618564446
20
731.187691846612
30
0.000173010062452483
11
6203.05834854397
21
731.601905519933
31
0.000172786517714163
  0
LINE
 8
GROUP0
10
6203.57598632097
20
730.705329867102
30
0.000173008158058618
11
6203.37618564446
21
731.187691846612
31
0.000173010062452483
  0
LINE
 8
GROUP0
10
6203.6441344876
20
730.187691753168
30
0.00017278093441388
11
6203.57598632097
21
730.705329867102
31
0.000173008158058618
  0
LINE
 8
GROUP0
10
6203.5759859594
20
729.670053686836
30
0.000172343876317294
11
6203.6441344876
21
730.187691753168
31
0.00017278093441388
  0
LINE
 8
GROUP0
10
6203.37618494596
20
729.187691846888
30
0.000171726768723668
11
6203.5759859594
21
729.670053686836
31
0.000172343876317294
  0
LINE
 8
GROUP0
10
6203.05834755614
20
728.773478395578
30
0.000170971666323311
11
6203.37618494596
21
729.187691846888
31
0.000171726768723668
  0
LINE
 8
GROUP0
10
6202.64413388282
20
728.455641295091
30
0.000170130028131787
11
6203.05834755614
21
728.773478395578
31
0.000170971666323311
  0
LINE
 8
GROUP0
10
6202.16177190331
20
728.255840618575
30
0.000169259210539419
11
6202.64413388282
21
728.455641295091
31
0.000170130028131787
  0
LINE
 8
GROUP0
10
6201.64413378938
20
728.187692451949
30
0.000168418558120054
11
6202.16177190331
21
728.255840618575
31
0.000169259210539419
  0
LINE
 8
GROUP0
10
6201.12649572305
20
728.255840980147
30
0.000167665360111446
11
6201.64413378938
21
728.187692451949
31
0.000168418558120054
  0
LINE
 8
GROUP0
10
6200.6441338831
20
728.455641993595
30
0.000167050945563252
11
6201.12649572305
21
728.255840980147
31
0.000167665360111446
  0
LINE
 8
GROUP0
10
6200.22992043179
20
728.773479383411
30
0.00016661718597723
11
6200.6441338831
21
728.455641993595
31
0.000167050945563252
  0
LINE
 8
GROUP0
10
6199.9120833313
20
729.187693056733
30
0.00016639364124032
11
6200.22992043179
21
728.773479383411
31
0.00016661718597723
  0
LINE
 8
GROUP0
10
6199.71228265478
20
729.670055036242
30
0.000166395545634185
11
6199.9120833313
21
729.187693056733
31
0.00016639364124032
  0
LINE
 8
GROUP0
10
6199.64413448816
20
730.187693150176
30
0.000166622769277513
11
6199.71228265478
21
729.670055036242
31
0.000166395545634185
  0
LINE
 8
GROUP0
10
6199.71228301636
20
730.705331216508
30
0.000167059827374805
11
6199.64413448816
21
730.187693150176
31
0.000166622769277513
  0
LINE
 8
GROUP0
10
6199.9120840298
20
731.187693056456
30
0.00016767693496843
11
6199.71228301636
21
730.705331216508
31
0.000167059827374805
  0
LINE
 8
GROUP0
10
6200.22992141962
20
731.601906507766
30
0.000168432037368083
11
6199.9120840298
21
731.187693056456
31
0.00016767693496843
  0
LINE
 8
GROUP0
10
6200.64413509294
20
731.919743608253
30
0.000169273675559606
11
6200.22992141962
21
731.601906507766
31
0.000168432037368083
  0
LINE
 8
GROUP0
10
6245.64413509276
20
731.919682094295
30
0.000236843479930143
11
6245.2299214194
21
731.601844993774
31
0.00023600184173721
  0
LINE
 8
GROUP0
10
6246.12649707232
20
732.119482770831
30
0.000237714297521102
11
6245.64413509276
21
731.919682094295
31
0.000236843479930143
  0
LINE
 8
GROUP0
10
6246.64413518631
20
732.187630937464
30
0.000238554949941877
11
6246.12649707232
21
732.119482770831
31
0.000237714297521102
  0
LINE
 8
GROUP0
10
6247.1617732527
20
732.119482409257
30
0.000239308147950484
11
6246.64413518631
21
732.187630937464
31
0.000238554949941877
  0
LINE
 8
GROUP0
10
6247.6441350927
20
731.919681395788
30
0.000239922562498679
11
6247.1617732527
21
732.119482409257
31
0.000239308147950484
  0
LINE
 8
GROUP0
10
6248.05834854405
20
731.601844005937
30
0.0002403563220847
11
6247.6441350927
21
731.919681395788
31
0.000239922562498679
  0
LINE
 8
GROUP0
10
6248.37618564457
20
731.187630332571
30
0.000240579866731372
11
6248.05834854405
21
731.601844005937
31
0.0002403563220847
  0
LINE
 8
GROUP0
10
6248.57598632111
20
730.705268353011
30
0.000240577962336802
11
6248.37618564457
21
731.187630332571
31
0.000240579866731372
  0
LINE
 8
GROUP0
10
6248.64413448774
20
730.187630239021
30
0.000240350738693473
11
6248.57598632111
21
730.705268353011
31
0.000240577962336802
  0
LINE
 8
GROUP0
10
6248.57598595954
20
729.669992172634
30
0.000239913680596887
11
6248.64413448774
21
730.187630239021
31
0.000240350738693473
  0
LINE
 8
GROUP0
10
6248.37618494607
20
729.187630332636
30
0.000239296572913023
11
6248.57598595954
21
729.669992172634
31
0.000239913680596887
  0
LINE
 8
GROUP0
10
6248.05834755622
20
728.773416881282
30
0.00023854147051337
11
6248.37618494607
21
729.187630332636
31
0.000239296572913023
  0
LINE
 8
GROUP0
10
6247.64413388285
20
728.455579780762
30
0.000237699832320437
11
6248.05834755622
21
728.773416881282
31
0.00023854147051337
  0
LINE
 8
GROUP0
10
6247.16177190329
20
728.255779104225
30
0.000236829014729478
11
6247.64413388285
21
728.455579780762
31
0.000237699832320437
  0
LINE
 8
GROUP0
10
6246.6441337893
20
728.187630937593
30
0.000235988362308703
11
6247.16177190329
21
728.255779104225
31
0.000236829014729478
  0
LINE
 8
GROUP0
10
6246.12649572292
20
728.255779465799
30
0.000235235164301506
11
6246.6441337893
21
728.187630937593
31
0.000235988362308703
  0
LINE
 8
GROUP0
10
6245.64413388292
20
728.455580479268
30
0.000234620749751901
11
6246.12649572292
21
728.255779465799
31
0.000235235164301506
  0
LINE
 8
GROUP0
10
6245.22992043156
20
728.773417869119
30
0.00023418699016729
11
6245.64413388292
21
728.455580479268
31
0.000234620749751901
  0
LINE
 8
GROUP0
10
6244.91208333105
20
729.187631542485
30
0.000233963445519209
11
6245.22992043156
21
728.773417869119
31
0.00023418699016729
  0
LINE
 8
GROUP0
10
6244.71228265451
20
729.669993522045
30
0.000233965349913073
11
6244.91208333105
21
729.187631542485
31
0.000233963445519209
  0
LINE
 8
GROUP0
10
6244.64413448787
20
730.187631636035
30
0.000234192573556402
11
6244.71228265451
21
729.669993522045
31
0.000233965349913073
  0
LINE
 8
GROUP0
10
6244.71228301608
20
730.705269702422
30
0.000234629631653693
11
6244.64413448787
21
730.187631636035
31
0.000234192573556402
  0
LINE
 8
GROUP0
10
6244.91208402955
20
731.18763154242
30
0.000235246739337558
11
6244.71228301608
21
730.705269702422
31
0.000234629631653693
  0
LINE
 8
GROUP0
10
6245.2299214194
20
731.601844993774
30
0.00023600184173721
11
6244.91208402955
21
731.18763154242
31
0.000235246739337558
  0
LINE
 8
GROUP0
10
6245.64413509276
20
756.919682094294
30
0.000236843482939048
11
6245.2299214194
21
756.601844993775
31
0.000236001844746114
  0
LINE
 8
GROUP0
10
6246.12649707232
20
757.119482770831
30
0.000237714300530006
11
6245.64413509276
21
756.919682094294
31
0.000236843482939048
  0
LINE
 8
GROUP0
10
6246.64413518631
20
757.187630937464
30
0.000238554952860542
11
6246.12649707232
21
757.119482770831
31
0.000237714300530006
  0
LINE
 8
GROUP0
10
6247.1617732527
20
757.119482409257
30
0.000239308151049628
11
6246.64413518631
21
757.187630937464
31
0.000238554952860542
  0
LINE
 8
GROUP0
10
6247.6441350927
20
756.919681395788
30
0.000239922565507583
11
6247.1617732527
21
757.119482409257
31
0.000239308151049628
  0
LINE
 8
GROUP0
10
6248.05834854405
20
756.601844005937
30
0.0002403563250929
11
6247.6441350927
21
756.919681395788
31
0.000239922565507583
  0
LINE
 8
GROUP0
10
6248.37618564457
20
756.187630332571
30
0.000240579869739571
11
6248.05834854405
21
756.601844005937
31
0.0002403563250929
  0
LINE
 8
GROUP0
10
6248.57598632111
20
755.705268353011
30
0.000240577965255467
11
6248.37618564457
21
756.187630332571
31
0.000240579869739571
  0
LINE
 8
GROUP0
10
6248.64413448774
20
755.187630239021
30
0.000240350741702378
11
6248.57598632111
21
755.705268353011
31
0.000240577965255467
  0
LINE
 8
GROUP0
10
6248.57598595954
20
754.669992172634
30
0.000239913683605791
11
6248.64413448774
21
755.187630239021
31
0.000240350741702378
  0
LINE
 8
GROUP0
10
6248.37618494607
20
754.187630332636
30
0.000239296575923337
11
6248.57598595954
21
754.669992172634
31
0.000239913683605791
  0
LINE
 8
GROUP0
10
6248.05834755622
20
753.773416881282
30
0.000238541473522275
11
6248.37618494607
21
754.187630332636
31
0.000239296575923337
  0
LINE
 8
GROUP0
10
6247.64413388285
20
753.455579780762
30
0.000237699835329341
11
6248.05834755622
21
753.773416881282
31
0.000238541473522275
  0
LINE
 8
GROUP0
10
6247.16177190329
20
753.255779104225
30
0.000236829017737677
11
6247.64413388285
21
753.455579780762
31
0.000237699835329341
  0
LINE
 8
GROUP0
10
6246.6441337893
20
753.187630937593
30
0.000235988365316903
11
6247.16177190329
21
753.255779104225
31
0.000236829017737677
  0
LINE
 8
GROUP0
10
6246.12649572292
20
753.255779465799
30
0.00023523516731041
11
6246.6441337893
21
753.187630937593
31
0.000235988365316903
  0
LINE
 8
GROUP0
10
6245.64413388292
20
753.455580479268
30
0.000234620752760806
11
6246.12649572292
21
753.255779465799
31
0.00023523516731041
  0
LINE
 8
GROUP0
10
6245.22992043157
20
753.773417869119
30
0.000234186993085955
11
6245.64413388292
21
753.455580479268
31
0.000234620752760806
  0
LINE
 8
GROUP0
10
6244.91208333105
20
754.187631542485
30
0.000233963448529523
11
6245.22992043157
21
753.773417869119
31
0.000234186993085955
  0
LINE
 8
GROUP0
10
6244.71228265451
20
754.669993522046
30
0.000233965352921978
11
6244.91208333105
21
754.187631542485
31
0.000233963448529523
  0
LINE
 8
GROUP0
10
6244.64413448787
20
755.187631636035
30
0.000234192576565306
11
6244.71228265451
21
754.669993522046
31
0.000233965352921978
  0
LINE
 8
GROUP0
10
6244.71228301608
20
755.705269702422
30
0.000234629634572359
11
6244.64413448787
21
755.187631636035
31
0.000234192576565306
  0
LINE
 8
GROUP0
10
6244.91208402955
20
756.18763154242
30
0.000235246742256223
11
6244.71228301608
21
755.705269702422
31
0.000234629634572359
  0
LINE
 8
GROUP0
10
6245.2299214194
20
756.601844993775
30
0.000236001844746114
11
6244.91208402955
21
756.18763154242
31
0.000235246742256223
  0
LINE
 8
GROUP0
10
6201.12649707245
20
757.119544284769
30
0.00017014449607064
11
6200.64413509294
21
756.919743608253
31
0.000169273678478271
  0
LINE
 8
GROUP0
10
6201.64413518638
20
757.187692451395
30
0.000170985148581654
11
6201.12649707245
21
757.119544284769
31
0.00017014449607064
  0
LINE
 8
GROUP0
10
6202.16177325271
20
757.119543923197
30
0.000171738346588851
11
6201.64413518638
21
757.187692451395
31
0.000170985148581654
  0
LINE
 8
GROUP0
10
6202.64413509266
20
756.919742909749
30
0.000172352761137046
11
6202.16177325271
21
757.119543923197
31
0.000171738346588851
  0
LINE
 8
GROUP0
10
6203.05834854397
20
756.601905519933
30
0.000172786520723067
11
6202.64413509266
21
756.919742909749
31
0.000172352761137046
  0
LINE
 8
GROUP0
10
6203.37618564446
20
756.187691846612
30
0.000173010065371149
11
6203.05834854397
21
756.601905519933
31
0.000172786520723067
  0
LINE
 8
GROUP0
10
6203.57598632097
20
755.705329867102
30
0.000173008160977284
11
6203.37618564446
21
756.187691846612
31
0.000173010065371149
  0
LINE
 8
GROUP0
10
6203.6441344876
20
755.187691753168
30
0.000172780937332545
11
6203.57598632097
21
755.705329867102
31
0.000173008160977284
  0
LINE
 8
GROUP0
10
6203.5759859594
20
754.670053686836
30
0.000172343879326903
11
6203.6441344876
21
755.187691753168
31
0.000172780937332545
  0
LINE
 8
GROUP0
10
6203.37618494596
20
754.187691846888
30
0.000171726771733277
11
6203.5759859594
21
754.670053686836
31
0.000172343879326903
  0
LINE
 8
GROUP0
10
6203.05834755614
20
753.773478395578
30
0.000170971669332215
11
6203.37618494596
21
754.187691846888
31
0.000171726771733277
  0
LINE
 8
GROUP0
10
6202.64413388282
20
753.455641295091
30
0.000170130031140692
11
6203.05834755614
21
753.773478395578
31
0.000170971669332215
  0
LINE
 8
GROUP0
10
6202.16177190331
20
753.255840618575
30
0.000169259213548323
11
6202.64413388282
21
753.455641295091
31
0.000170130031140692
  0
LINE
 8
GROUP0
10
6201.64413378938
20
753.187692451949
30
0.000168418561128958
11
6202.16177190331
21
753.255840618575
31
0.000169259213548323
  0
LINE
 8
GROUP0
10
6201.12649572305
20
753.255840980147
30
0.000167665363030112
11
6201.64413378938
21
753.187692451949
31
0.000168418561128958
  0
LINE
 8
GROUP0
10
6200.6441338831
20
753.455641993595
30
0.000167050948572156
11
6201.12649572305
21
753.255840980147
31
0.000167665363030112
  0
LINE
 8
GROUP0
10
6200.22992043179
20
753.773479383412
30
0.000166617188986135
11
6200.6441338831
21
753.455641993595
31
0.000167050948572156
  0
LINE
 8
GROUP0
10
6199.9120833313
20
754.187693056733
30
0.000166393644160395
11
6200.22992043179
21
753.773479383412
31
0.000166617188986135
  0
LINE
 8
GROUP0
10
6199.71228265479
20
754.670055036242
30
0.000166395548644499
11
6199.9120833313
21
754.187693056733
31
0.000166393644160395
  0
LINE
 8
GROUP0
10
6199.64413448816
20
755.187693150176
30
0.000166622772286418
11
6199.71228265479
21
754.670055036242
31
0.000166395548644499
  0
LINE
 8
GROUP0
10
6199.71228301636
20
755.705331216508
30
0.000167059830383004
11
6199.64413448816
21
755.187693150176
31
0.000166622772286418
  0
LINE
 8
GROUP0
10
6199.9120840298
20
756.187693056456
30
0.000167676937977335
11
6199.71228301636
21
755.705331216508
31
0.000167059830383004
  0
LINE
 8
GROUP0
10
6200.22992141962
20
756.601906507766
30
0.000168432040376987
11
6199.9120840298
21
756.187693056456
31
0.000167676937977335
  0
LINE
 8
GROUP0
10
6200.64413509294
20
756.919743608253
30
0.000169273678478271
11
6200.22992141962
21
756.601906507766
31
0.000168432040376987
  0
LINE
 8
GROUP0
10
6201.12649707245
20
782.119544284769
30
0.000170144498989305
11
6200.64413509294
21
781.919743608253
31
0.000169273681396936
  0
LINE
 8
GROUP0
10
6201.64413518638
20
782.187692451395
30
0.000170985151501729
11
6201.12649707245
21
782.119544284769
31
0.000170144498989305
  0
LINE
 8
GROUP0
10
6202.16177325271
20
782.119543923197
30
0.000171738349507516
11
6201.64413518638
21
782.187692451395
31
0.000170985151501729
  0
LINE
 8
GROUP0
10
6202.64413509266
20
781.919742909749
30
0.000172352764055711
11
6202.16177325271
21
782.119543923197
31
0.000171738349507516
  0
LINE
 8
GROUP0
10
6203.05834854397
20
781.601905519933
30
0.000172786523643142
11
6202.64413509266
21
781.919742909749
31
0.000172352764055711
  0
LINE
 8
GROUP0
10
6203.37618564446
20
781.187691846612
30
0.000173010068289814
11
6203.05834854397
21
781.601905519933
31
0.000172786523643142
  0
LINE
 8
GROUP0
10
6203.57598632097
20
780.705329867102
30
0.000173008163895949
11
6203.37618564446
21
781.187691846612
31
0.000173010068289814
  0
LINE
 8
GROUP0
10
6203.6441344876
20
780.187691753168
30
0.00017278094025121
11
6203.57598632097
21
780.705329867102
31
0.000173008163895949
  0
LINE
 8
GROUP0
10
6203.5759859594
20
779.670053686836
30
0.000172343882245568
11
6203.6441344876
21
780.187691753168
31
0.00017278094025121
  0
LINE
 8
GROUP0
10
6203.37618494596
20
779.187691846888
30
0.000171726774651942
11
6203.5759859594
21
779.670053686836
31
0.000172343882245568
  0
LINE
 8
GROUP0
10
6203.05834755614
20
778.773478395578
30
0.00017097167225088
11
6203.37618494596
21
779.187691846888
31
0.000171726774651942
  0
LINE
 8
GROUP0
10
6202.64413388282
20
778.455641295091
30
0.000170130034060767
11
6203.05834755614
21
778.773478395578
31
0.00017097167225088
  0
LINE
 8
GROUP0
10
6202.16177190331
20
778.255840618575
30
0.000169259216468398
11
6202.64413388282
21
778.455641295091
31
0.000170130034060767
  0
LINE
 8
GROUP0
10
6201.64413378938
20
778.187692451949
30
0.000168418564046918
11
6202.16177190331
21
778.255840618575
31
0.000169259216468398
  0
LINE
 8
GROUP0
10
6201.12649572305
20
778.255840980148
30
0.000167665365950187
11
6201.64413378938
21
778.187692451949
31
0.000168418564046918
  0
LINE
 8
GROUP0
10
6200.6441338831
20
778.455641993595
30
0.000167050951491526
11
6201.12649572305
21
778.255840980148
31
0.000167665365950187
  0
LINE
 8
GROUP0
10
6200.22992043179
20
778.773479383412
30
0.0001666171919048
11
6200.6441338831
21
778.455641993595
31
0.000167050951491526
  0
LINE
 8
GROUP0
10
6199.9120833313
20
779.187693056733
30
0.000166393647079061
11
6200.22992043179
21
778.773479383412
31
0.0001666171919048
  0
LINE
 8
GROUP0
10
6199.71228265479
20
779.670055036242
30
0.000166395551563164
11
6199.9120833313
21
779.187693056733
31
0.000166393647079061
  0
LINE
 8
GROUP0
10
6199.64413448816
20
780.187693150176
30
0.000166622775205083
11
6199.71228265479
21
779.670055036242
31
0.000166395551563164
  0
LINE
 8
GROUP0
10
6199.71228301636
20
780.705331216508
30
0.000167059833301669
11
6199.64413448816
21
780.187693150176
31
0.000166622775205083
  0
LINE
 8
GROUP0
10
6199.9120840298
20
781.187693056456
30
0.000167676940895295
11
6199.71228301636
21
780.705331216508
31
0.000167059833301669
  0
LINE
 8
GROUP0
10
6200.22992141962
20
781.601906507766
30
0.000168432043296357
11
6199.9120840298
21
781.187693056456
31
0.000167676940895295
  0
LINE
 8
GROUP0
10
6200.64413509294
20
781.919743608253
30
0.000169273681396936
11
6200.22992141962
21
781.601906507766
31
0.000168432043296357
  0
LINE
 8
GROUP0
10
6245.64413509276
20
781.919682094295
30
0.000236843485857008
11
6245.2299214194
21
781.601844993774
31
0.000236001847665485
  0
LINE
 8
GROUP0
10
6246.12649707232
20
782.119482770831
30
0.000237714303448672
11
6245.64413509276
21
781.919682094295
31
0.000236843485857008
  0
LINE
 8
GROUP0
10
6246.64413518631
20
782.187630937464
30
0.000238554955780618
11
6246.12649707232
21
782.119482770831
31
0.000237714303448672
  0
LINE
 8
GROUP0
10
6247.1617732527
20
782.119482409257
30
0.000239308153967588
11
6246.64413518631
21
782.187630937464
31
0.000238554955780618
  0
LINE
 8
GROUP0
10
6247.6441350927
20
781.919681395788
30
0.000239922568426248
11
6247.1617732527
21
782.119482409257
31
0.000239308153967588
  0
LINE
 8
GROUP0
10
6248.05834854405
20
781.601844005937
30
0.000240356328012975
11
6247.6441350927
21
781.919681395788
31
0.000239922568426248
  0
LINE
 8
GROUP0
10
6248.37618564457
20
781.187630332571
30
0.000240579872658236
11
6248.05834854405
21
781.601844005937
31
0.000240356328012975
  0
LINE
 8
GROUP0
10
6248.57598632111
20
780.705268353011
30
0.000240577968174133
11
6248.37618564457
21
781.187630332571
31
0.000240579872658236
  0
LINE
 8
GROUP0
10
6248.64413448774
20
780.187630239021
30
0.000240350744621043
11
6248.57598632111
21
780.705268353011
31
0.000240577968174133
  0
LINE
 8
GROUP0
10
6248.57598595954
20
779.669992172634
30
0.000239913686525867
11
6248.64413448774
21
780.187630239021
31
0.000240350744621043
  0
LINE
 8
GROUP0
10
6248.37618494607
20
779.187630332636
30
0.000239296578841297
11
6248.57598595954
21
779.669992172634
31
0.000239913686525867
  0
LINE
 8
GROUP0
10
6248.05834755622
20
778.773416881282
30
0.000238541476440235
11
6248.37618494607
21
779.187630332636
31
0.000239296578841297
  0
LINE
 8
GROUP0
10
6247.64413388285
20
778.455579780762
30
0.000237699838248712
11
6248.05834755622
21
778.773416881282
31
0.000238541476440235
  0
LINE
 8
GROUP0
10
6247.16177190329
20
778.255779104225
30
0.000236829020657753
11
6247.64413388285
21
778.455579780762
31
0.000237699838248712
  0
LINE
 8
GROUP0
10
6246.6441337893
20
778.187630937593
30
0.000235988368235568
11
6247.16177190329
21
778.255779104225
31
0.000236829020657753
  0
LINE
 8
GROUP0
10
6246.12649572292
20
778.255779465799
30
0.000235235170229781
11
6246.6441337893
21
778.187630937593
31
0.000235988368235568
  0
LINE
 8
GROUP0
10
6245.64413388292
20
778.455580479268
30
0.000234620755680176
11
6246.12649572292
21
778.255779465799
31
0.000235235170229781
  0
LINE
 8
GROUP0
10
6245.22992043157
20
778.773417869119
30
0.000234186996004621
11
6245.64413388292
21
778.455580479268
31
0.000234620755680176
  0
LINE
 8
GROUP0
10
6244.91208333105
20
779.187631542485
30
0.000233963451448188
11
6245.22992043157
21
778.773417869119
31
0.000234186996004621
  0
LINE
 8
GROUP0
10
6244.71228265451
20
779.669993522045
30
0.000233965355842053
11
6244.91208333105
21
779.187631542485
31
0.000233963451448188
  0
LINE
 8
GROUP0
10
6244.64413448787
20
780.187631636035
30
0.000234192579483972
11
6244.71228265451
21
779.669993522045
31
0.000233965355842053
  0
LINE
 8
GROUP0
10
6244.71228301608
20
780.705269702422
30
0.000234629637490319
11
6244.64413448787
21
780.187631636035
31
0.000234192579483972
  0
LINE
 8
GROUP0
10
6244.91208402955
20
781.18763154242
30
0.000235246745174184
11
6244.71228301608
21
780.705269702422
31
0.000234629637490319
  0
LINE
 8
GROUP0
10
6245.2299214194
20
781.601844993774
30
0.000236001847665485
11
6244.91208402955
21
781.18763154242
31
0.000235246745174184
  0
LINE
 8
GROUP0
10
6201.12649707245
20
807.119544284769
30
0.000170144501909381
11
6200.64413509294
21
806.919743608253
31
0.000169273684316307
  0
LINE
 8
GROUP0
10
6201.64413518638
20
807.187692451395
30
0.000170985154420394
11
6201.12649707245
21
807.119544284769
31
0.000170144501909381
  0
LINE
 8
GROUP0
10
6202.16177325271
20
807.119543923197
30
0.000171738352427592
11
6201.64413518638
21
807.187692451395
31
0.000170985154420394
  0
LINE
 8
GROUP0
10
6202.64413509266
20
806.919742909749
30
0.000172352766975786
11
6202.16177325271
21
807.119543923197
31
0.000171738352427592
  0
LINE
 8
GROUP0
10
6203.05834854397
20
806.601905519933
30
0.000172786526561808
11
6202.64413509266
21
806.919742909749
31
0.000172352766975786
  0
LINE
 8
GROUP0
10
6203.37618564446
20
806.187691846612
30
0.000173010071207774
11
6203.05834854397
21
806.601905519933
31
0.000172786526561808
  0
LINE
 8
GROUP0
10
6203.57598632097
20
805.705329867103
30
0.000173008166813909
11
6203.37618564446
21
806.187691846612
31
0.000173010071207774
  0
LINE
 8
GROUP0
10
6203.6441344876
20
805.187691753168
30
0.000172780943170581
11
6203.57598632097
21
805.705329867103
31
0.000173008166813909
  0
LINE
 8
GROUP0
10
6203.5759859594
20
804.670053686836
30
0.000172343885164233
11
6203.6441344876
21
805.187691753168
31
0.000172780943170581
  0
LINE
 8
GROUP0
10
6203.37618494596
20
804.187691846888
30
0.000171726777570608
11
6203.5759859594
21
804.670053686836
31
0.000172343885164233
  0
LINE
 8
GROUP0
10
6203.05834755614
20
803.773478395578
30
0.000170971675170956
11
6203.37618494596
21
804.187691846888
31
0.000171726777570608
  0
LINE
 8
GROUP0
10
6202.64413388282
20
803.455641295091
30
0.000170130036979432
11
6203.05834755614
21
803.773478395578
31
0.000170971675170956
  0
LINE
 8
GROUP0
10
6202.16177190331
20
803.255840618575
30
0.000169259219386358
11
6202.64413388282
21
803.455641295091
31
0.000170130036979432
  0
LINE
 8
GROUP0
10
6201.64413378938
20
803.187692451949
30
0.000168418566966994
11
6202.16177190331
21
803.255840618575
31
0.000169259219386358
  0
LINE
 8
GROUP0
10
6201.12649572305
20
803.255840980147
30
0.000167665368868147
11
6201.64413378938
21
803.187692451949
31
0.000168418566966994
  0
LINE
 8
GROUP0
10
6200.6441338831
20
803.455641993595
30
0.000167050954410192
11
6201.12649572305
21
803.255840980147
31
0.000167665368868147
  0
LINE
 8
GROUP0
10
6200.22992043179
20
803.773479383412
30
0.00016661719482417
11
6200.6441338831
21
803.455641993595
31
0.000167050954410192
  0
LINE
 8
GROUP0
10
6199.9120833313
20
804.187693056733
30
0.000166393649997021
11
6200.22992043179
21
803.773479383412
31
0.00016661719482417
  0
LINE
 8
GROUP0
10
6199.71228265479
20
804.670055036242
30
0.00016639555448183
11
6199.9120833313
21
804.187693056733
31
0.000166393649997021
  0
LINE
 8
GROUP0
10
6199.64413448816
20
805.187693150176
30
0.000166622778124453
11
6199.71228265479
21
804.670055036242
31
0.00016639555448183
  0
LINE
 8
GROUP0
10
6199.71228301636
20
805.705331216509
30
0.000167059836220335
11
6199.64413448816
21
805.187693150176
31
0.000166622778124453
  0
LINE
 8
GROUP0
10
6199.9120840298
20
806.187693056456
30
0.00016767694381396
11
6199.71228301636
21
805.705331216509
31
0.000167059836220335
  0
LINE
 8
GROUP0
10
6200.22992141962
20
806.601906507766
30
0.000168432046215022
11
6199.9120840298
21
806.187693056456
31
0.00016767694381396
  0
LINE
 8
GROUP0
10
6200.64413509294
20
806.919743608253
30
0.000169273684316307
11
6200.22992141962
21
806.601906507766
31
0.000168432046215022
  0
LINE
 8
GROUP0
10
6245.64413509276
20
806.919682094295
30
0.000236843488777083
11
6245.2299214194
21
806.601844993775
31
0.00023600185058415
  0
LINE
 8
GROUP0
10
6246.12649707233
20
807.119482770831
30
0.000237714306368042
11
6245.64413509276
21
806.919682094295
31
0.000236843488777083
  0
LINE
 8
GROUP0
10
6246.64413518631
20
807.187630937464
30
0.000238554958698578
11
6246.12649707233
21
807.119482770831
31
0.000237714306368042
  0
LINE
 8
GROUP0
10
6247.1617732527
20
807.119482409257
30
0.000239308156887663
11
6246.64413518631
21
807.187630937464
31
0.000238554958698578
  0
LINE
 8
GROUP0
10
6247.6441350927
20
806.919681395788
30
0.000239922571345619
11
6247.1617732527
21
807.119482409257
31
0.000239308156887663
  0
LINE
 8
GROUP0
10
6248.05834854405
20
806.601844005937
30
0.00024035633093164
11
6247.6441350927
21
806.919681395788
31
0.000239922571345619
  0
LINE
 8
GROUP0
10
6248.37618564457
20
806.187630332571
30
0.000240579875576902
11
6248.05834854405
21
806.601844005937
31
0.00024035633093164
  0
LINE
 8
GROUP0
10
6248.57598632111
20
805.705268353011
30
0.000240577971092798
11
6248.37618564457
21
806.187630332571
31
0.000240579875576902
  0
LINE
 8
GROUP0
10
6248.64413448774
20
805.187630239021
30
0.000240350747541118
11
6248.57598632111
21
805.705268353011
31
0.000240577971092798
  0
LINE
 8
GROUP0
10
6248.57598595954
20
804.669992172634
30
0.000239913689443827
11
6248.64413448774
21
805.187630239021
31
0.000240350747541118
  0
LINE
 8
GROUP0
10
6248.37618494607
20
804.187630332636
30
0.000239296581759962
11
6248.57598595954
21
804.669992172634
31
0.000239913689443827
  0
LINE
 8
GROUP0
10
6248.05834755622
20
803.773416881282
30
0.00023854147936031
11
6248.37618494607
21
804.187630332636
31
0.000239296581759962
  0
LINE
 8
GROUP0
10
6247.64413388285
20
803.455579780762
30
0.000237699841167377
11
6248.05834755622
21
803.773416881282
31
0.00023854147936031
  0
LINE
 8
GROUP0
10
6247.16177190329
20
803.255779104225
30
0.000236829023576418
11
6247.64413388285
21
803.455579780762
31
0.000237699841167377
  0
LINE
 8
GROUP0
10
6246.6441337893
20
803.187630937593
30
0.000235988371155643
11
6247.16177190329
21
803.255779104225
31
0.000236829023576418
  0
LINE
 8
GROUP0
10
6246.12649572292
20
803.255779465799
30
0.000235235173148446
11
6246.6441337893
21
803.187630937593
31
0.000235988371155643
  0
LINE
 8
GROUP0
10
6245.64413388292
20
803.455580479268
30
0.000234620758598841
11
6246.12649572292
21
803.255779465799
31
0.000235235173148446
  0
LINE
 8
GROUP0
10
6245.22992043157
20
803.77341786912
30
0.000234186998923991
11
6245.64413388292
21
803.455580479268
31
0.000234620758598841
  0
LINE
 8
GROUP0
10
6244.91208333105
20
804.187631542485
30
0.000233963454366148
11
6245.22992043157
21
803.77341786912
31
0.000234186998923991
  0
LINE
 8
GROUP0
10
6244.71228265451
20
804.669993522046
30
0.000233965358760718
11
6244.91208333105
21
804.187631542485
31
0.000233963454366148
  0
LINE
 8
GROUP0
10
6244.64413448787
20
805.187631636035
30
0.000234192582404047
11
6244.71228265451
21
804.669993522046
31
0.000233965358760718
  0
LINE
 8
GROUP0
10
6244.71228301608
20
805.705269702422
30
0.000234629640408984
11
6244.64413448787
21
805.187631636035
31
0.000234192582404047
  0
LINE
 8
GROUP0
10
6244.91208402955
20
806.18763154242
30
0.000235246748092849
11
6244.71228301608
21
805.705269702422
31
0.000234629640408984
  0
LINE
 8
GROUP0
10
6245.2299214194
20
806.601844993775
30
0.00023600185058415
11
6244.91208402955
21
806.18763154242
31
0.000235246748092849
  0
LINE
 8
GROUP0
10
6245.64413509276
20
831.919682094294
30
0.000236843491695748
11
6245.2299214194
21
831.601844993775
31
0.000236001853502815
  0
LINE
 8
GROUP0
10
6246.12649707233
20
832.119482770831
30
0.000237714309286707
11
6245.64413509276
21
831.919682094294
31
0.000236843491695748
  0
LINE
 8
GROUP0
10
6246.64413518631
20
832.187630937464
30
0.000238554961617243
11
6246.12649707233
21
832.119482770831
31
0.000237714309286707
  0
LINE
 8
GROUP0
10
6247.1617732527
20
832.119482409257
30
0.000239308159806328
11
6246.64413518631
21
832.187630937464
31
0.000238554961617243
  0
LINE
 8
GROUP0
10
6247.6441350927
20
831.919681395788
30
0.000239922574264284
11
6247.1617732527
21
832.119482409257
31
0.000239308159806328
  0
LINE
 8
GROUP0
10
6248.05834854405
20
831.601844005937
30
0.000240356333850306
11
6247.6441350927
21
831.919681395788
31
0.000239922574264284
  0
LINE
 8
GROUP0
10
6248.37618564457
20
831.187630332571
30
0.000240579878496977
11
6248.05834854405
21
831.601844005937
31
0.000240356333850306
  0
LINE
 8
GROUP0
10
6248.57598632111
20
830.705268353011
30
0.000240577974012168
11
6248.37618564457
21
831.187630332571
31
0.000240579878496977
  0
LINE
 8
GROUP0
10
6248.64413448774
20
830.187630239021
30
0.000240350750459078
11
6248.57598632111
21
830.705268353011
31
0.000240577974012168
  0
LINE
 8
GROUP0
10
6248.57598595954
20
829.669992172634
30
0.000239913692362492
11
6248.64413448774
21
830.187630239021
31
0.000240350750459078
  0
LINE
 8
GROUP0
10
6248.37618494607
20
829.187630332636
30
0.000239296584678628
11
6248.57598595954
21
829.669992172634
31
0.000239913692362492
  0
LINE
 8
GROUP0
10
6248.05834755622
20
828.773416881282
30
0.000238541482278976
11
6248.37618494607
21
829.187630332636
31
0.000239296584678628
  0
LINE
 8
GROUP0
10
6247.64413388285
20
828.455579780762
30
0.000237699844086042
11
6248.05834755622
21
828.773416881282
31
0.000238541482278976
  0
LINE
 8
GROUP0
10
6247.16177190329
20
828.255779104225
30
0.000236829026495083
11
6247.64413388285
21
828.455579780762
31
0.000237699844086042
  0
LINE
 8
GROUP0
10
6246.6441337893
20
828.187630937593
30
0.000235988374074308
11
6247.16177190329
21
828.255779104225
31
0.000236829026495083
  0
LINE
 8
GROUP0
10
6246.12649572292
20
828.255779465799
30
0.000235235176067111
11
6246.6441337893
21
828.187630937593
31
0.000235988374074308
  0
LINE
 8
GROUP0
10
6245.64413388292
20
828.455580479269
30
0.000234620761517507
11
6246.12649572292
21
828.255779465799
31
0.000235235176067111
  0
LINE
 8
GROUP0
10
6245.22992043157
20
828.773417869119
30
0.000234187001842656
11
6245.64413388292
21
828.455580479269
31
0.000234620761517507
  0
LINE
 8
GROUP0
10
6244.91208333105
20
829.187631542485
30
0.000233963457284814
11
6245.22992043157
21
828.773417869119
31
0.000234187001842656
  0
LINE
 8
GROUP0
10
6244.71228265451
20
829.669993522046
30
0.000233965361678679
11
6244.91208333105
21
829.187631542485
31
0.000233963457284814
  0
LINE
 8
GROUP0
10
6244.64413448787
20
830.187631636035
30
0.000234192585322007
11
6244.71228265451
21
829.669993522046
31
0.000233965361678679
  0
LINE
 8
GROUP0
10
6244.71228301608
20
830.705269702422
30
0.00023462964332906
11
6244.64413448787
21
830.187631636035
31
0.000234192585322007
  0
LINE
 8
GROUP0
10
6244.91208402955
20
831.18763154242
30
0.000235246751012924
11
6244.71228301608
21
830.705269702422
31
0.00023462964332906
  0
LINE
 8
GROUP0
10
6245.2299214194
20
831.601844993775
30
0.000236001853502815
11
6244.91208402955
21
831.18763154242
31
0.000235246751012924
  0
LINE
 8
GROUP0
10
6201.12649707245
20
832.119544284769
30
0.000170144504827341
11
6200.64413509294
21
831.919743608253
31
0.000169273687234972
  0
LINE
 8
GROUP0
10
6201.64413518638
20
832.187692451395
30
0.000170985157338355
11
6201.12649707245
21
832.119544284769
31
0.000170144504827341
  0
LINE
 8
GROUP0
10
6202.16177325271
20
832.119543923197
30
0.000171738355345552
11
6201.64413518638
21
832.187692451395
31
0.000170985157338355
  0
LINE
 8
GROUP0
10
6202.64413509266
20
831.919742909749
30
0.000172352769893747
11
6202.16177325271
21
832.119543923197
31
0.000171738355345552
  0
LINE
 8
GROUP0
10
6203.05834854397
20
831.601905519933
30
0.000172786529479768
11
6202.64413509266
21
831.919742909749
31
0.000172352769893747
  0
LINE
 8
GROUP0
10
6203.37618564446
20
831.187691846612
30
0.00017301007412785
11
6203.05834854397
21
831.601905519933
31
0.000172786529479768
  0
LINE
 8
GROUP0
10
6203.57598632097
20
830.705329867102
30
0.000173008169733985
11
6203.37618564446
21
831.187691846612
31
0.00017301007412785
  0
LINE
 8
GROUP0
10
6203.6441344876
20
830.187691753168
30
0.000172780946089246
11
6203.57598632097
21
830.705329867102
31
0.000173008169733985
  0
LINE
 8
GROUP0
10
6203.5759859594
20
829.670053686836
30
0.000172343888082899
11
6203.6441344876
21
830.187691753168
31
0.000172780946089246
  0
LINE
 8
GROUP0
10
6203.37618494596
20
829.187691846888
30
0.000171726780489273
11
6203.5759859594
21
829.670053686836
31
0.000172343888082899
  0
LINE
 8
GROUP0
10
6203.05834755614
20
828.773478395578
30
0.000170971678088916
11
6203.37618494596
21
829.187691846888
31
0.000171726780489273
  0
LINE
 8
GROUP0
10
6202.64413388282
20
828.455641295091
30
0.000170130039897393
11
6203.05834755614
21
828.773478395578
31
0.000170971678088916
  0
LINE
 8
GROUP0
10
6202.16177190331
20
828.255840618575
30
0.000169259222305024
11
6202.64413388282
21
828.455641295091
31
0.000170130039897393
  0
LINE
 8
GROUP0
10
6201.64413378938
20
828.187692451949
30
0.000168418569885659
11
6202.16177190331
21
828.255840618575
31
0.000169259222305024
  0
LINE
 8
GROUP0
10
6201.12649572305
20
828.255840980148
30
0.000167665371786813
11
6201.64413378938
21
828.187692451949
31
0.000168418569885659
  0
LINE
 8
GROUP0
10
6200.6441338831
20
828.455641993595
30
0.000167050957328857
11
6201.12649572305
21
828.255840980148
31
0.000167665371786813
  0
LINE
 8
GROUP0
10
6200.22992043179
20
828.773479383411
30
0.000166617197742835
11
6200.6441338831
21
828.455641993595
31
0.000167050957328857
  0
LINE
 8
GROUP0
10
6199.9120833313
20
829.187693056733
30
0.000166393652915686
11
6200.22992043179
21
828.773479383411
31
0.000166617197742835
  0
LINE
 8
GROUP0
10
6199.71228265479
20
829.670055036242
30
0.00016639555739979
11
6199.9120833313
21
829.187693056733
31
0.000166393652915686
  0
LINE
 8
GROUP0
10
6199.64413448816
20
830.187693150176
30
0.000166622781043119
11
6199.71228265479
21
829.670055036242
31
0.00016639555739979
  0
LINE
 8
GROUP0
10
6199.71228301636
20
830.705331216508
30
0.00016705983914041
11
6199.64413448816
21
830.187693150176
31
0.000166622781043119
  0
LINE
 8
GROUP0
10
6199.9120840298
20
831.187693056456
30
0.000167676946734036
11
6199.71228301636
21
830.705331216508
31
0.00016705983914041
  0
LINE
 8
GROUP0
10
6200.22992141962
20
831.601906507766
30
0.000168432049133688
11
6199.9120840298
21
831.187693056456
31
0.000167676946734036
  0
LINE
 8
GROUP0
10
6200.64413509294
20
831.919743608253
30
0.000169273687234972
11
6200.22992141962
21
831.601906507766
31
0.000168432049133688
  0
LINE
 8
GROUP0
10
6201.12649707245
20
857.119544284769
30
0.000170144507746006
11
6200.64413509294
21
856.919743608253
31
0.000169273690153637
  0
LINE
 8
GROUP0
10
6201.64413518638
20
857.187692451395
30
0.00017098516025702
11
6201.12649707245
21
857.119544284769
31
0.000170144507746006
  0
LINE
 8
GROUP0
10
6202.16177325271
20
857.119543923197
30
0.000171738358264217
11
6201.64413518638
21
857.187692451395
31
0.00017098516025702
  0
LINE
 8
GROUP0
10
6202.64413509266
20
856.919742909749
30
0.000172352772812412
11
6202.16177325271
21
857.119543923197
31
0.000171738358264217
  0
LINE
 8
GROUP0
10
6203.05834854397
20
856.601905519933
30
0.000172786532398433
11
6202.64413509266
21
856.919742909749
31
0.000172352772812412
  0
LINE
 8
GROUP0
10
6203.37618564446
20
856.187691846612
30
0.000173010077046515
11
6203.05834854397
21
856.601905519933
31
0.000172786532398433
  0
LINE
 8
GROUP0
10
6203.57598632097
20
855.705329867103
30
0.00017300817265265
11
6203.37618564446
21
856.187691846612
31
0.000173010077046515
  0
LINE
 8
GROUP0
10
6203.6441344876
20
855.187691753168
30
0.000172780949007911
11
6203.57598632097
21
855.705329867103
31
0.00017300817265265
  0
LINE
 8
GROUP0
10
6203.5759859594
20
854.670053686836
30
0.000172343891002269
11
6203.6441344876
21
855.187691753168
31
0.000172780949007911
  0
LINE
 8
GROUP0
10
6203.37618494596
20
854.187691846888
30
0.000171726783408643
11
6203.5759859594
21
854.670053686836
31
0.000172343891002269
  0
LINE
 8
GROUP0
10
6203.05834755614
20
853.773478395578
30
0.000170971681007581
11
6203.37618494596
21
854.187691846888
31
0.000171726783408643
  0
LINE
 8
GROUP0
10
6202.64413388282
20
853.455641295091
30
0.000170130042816058
11
6203.05834755614
21
853.773478395578
31
0.000170971681007581
  0
LINE
 8
GROUP0
10
6202.16177190331
20
853.255840618575
30
0.000169259225223689
11
6202.64413388282
21
853.455641295091
31
0.000170130042816058
  0
LINE
 8
GROUP0
10
6201.64413378938
20
853.187692451949
30
0.000168418572804324
11
6202.16177190331
21
853.255840618575
31
0.000169259225223689
  0
LINE
 8
GROUP0
10
6201.12649572305
20
853.255840980147
30
0.000167665374705478
11
6201.64413378938
21
853.187692451949
31
0.000168418572804324
  0
LINE
 8
GROUP0
10
6200.6441338831
20
853.455641993595
30
0.000167050960247522
11
6201.12649572305
21
853.255840980147
31
0.000167665374705478
  0
LINE
 8
GROUP0
10
6200.22992043179
20
853.773479383412
30
0.000166617200661501
11
6200.6441338831
21
853.455641993595
31
0.000167050960247522
  0
LINE
 8
GROUP0
10
6199.9120833313
20
854.187693056733
30
0.000166393655835761
11
6200.22992043179
21
853.773479383412
31
0.000166617200661501
  0
LINE
 8
GROUP0
10
6199.71228265479
20
854.670055036242
30
0.000166395560319865
11
6199.9120833313
21
854.187693056733
31
0.000166393655835761
  0
LINE
 8
GROUP0
10
6199.64413448816
20
855.187693150176
30
0.000166622783961784
11
6199.71228265479
21
854.670055036242
31
0.000166395560319865
  0
LINE
 8
GROUP0
10
6199.71228301636
20
855.705331216509
30
0.00016705984205837
11
6199.64413448816
21
855.187693150176
31
0.000166622783961784
  0
LINE
 8
GROUP0
10
6199.9120840298
20
856.187693056456
30
0.000167676949652701
11
6199.71228301636
21
855.705331216509
31
0.00016705984205837
  0
LINE
 8
GROUP0
10
6200.22992141962
20
856.601906507766
30
0.000168432052052353
11
6199.9120840298
21
856.187693056456
31
0.000167676949652701
  0
LINE
 8
GROUP0
10
6200.64413509294
20
856.919743608253
30
0.000169273690153637
11
6200.22992141962
21
856.601906507766
31
0.000168432052052353
  0
LINE
 8
GROUP0
10
6245.64413509276
20
856.919682094295
30
0.000236843494614414
11
6245.2299214194
21
856.601844993775
31
0.000236001856421481
  0
LINE
 8
GROUP0
10
6246.12649707233
20
857.119482770831
30
0.000237714312205373
11
6245.64413509276
21
856.919682094295
31
0.000236843494614414
  0
LINE
 8
GROUP0
10
6246.64413518631
20
857.187630937464
30
0.000238554964535909
11
6246.12649707233
21
857.119482770831
31
0.000237714312205373
  0
LINE
 8
GROUP0
10
6247.1617732527
20
857.119482409257
30
0.000239308162724994
11
6246.64413518631
21
857.187630937464
31
0.000238554964535909
  0
LINE
 8
GROUP0
10
6247.6441350927
20
856.919681395788
30
0.000239922577182949
11
6247.1617732527
21
857.119482409257
31
0.000239308162724994
  0
LINE
 8
GROUP0
10
6248.05834854405
20
856.601844005937
30
0.000240356336768266
11
6247.6441350927
21
856.919681395788
31
0.000239922577182949
  0
LINE
 8
GROUP0
10
6248.37618564457
20
856.187630332571
30
0.000240579881414937
11
6248.05834854405
21
856.601844005937
31
0.000240356336768266
  0
LINE
 8
GROUP0
10
6248.57598632111
20
855.705268353011
30
0.000240577976930834
11
6248.37618564457
21
856.187630332571
31
0.000240579881414937
  0
LINE
 8
GROUP0
10
6248.64413448774
20
855.187630239021
30
0.000240350753377744
11
6248.57598632111
21
855.705268353011
31
0.000240577976930834
  0
LINE
 8
GROUP0
10
6248.57598595954
20
854.669992172634
30
0.000239913695282568
11
6248.64413448774
21
855.187630239021
31
0.000240350753377744
  0
LINE
 8
GROUP0
10
6248.37618494607
20
854.187630332636
30
0.000239296587598703
11
6248.57598595954
21
854.669992172634
31
0.000239913695282568
  0
LINE
 8
GROUP0
10
6248.05834755622
20
853.773416881282
30
0.000238541485197641
11
6248.37618494607
21
854.187630332636
31
0.000239296587598703
  0
LINE
 8
GROUP0
10
6247.64413388285
20
853.455579780761
30
0.000237699847004708
11
6248.05834755622
21
853.773416881282
31
0.000238541485197641
  0
LINE
 8
GROUP0
10
6247.16177190329
20
853.255779104225
30
0.000236829029413044
11
6247.64413388285
21
853.455579780761
31
0.000237699847004708
  0
LINE
 8
GROUP0
10
6246.6441337893
20
853.187630937593
30
0.000235988376992269
11
6247.16177190329
21
853.255779104225
31
0.000236829029413044
  0
LINE
 8
GROUP0
10
6246.12649572292
20
853.255779465799
30
0.000235235178985776
11
6246.6441337893
21
853.187630937593
31
0.000235988376992269
  0
LINE
 8
GROUP0
10
6245.64413388292
20
853.455580479268
30
0.000234620764436172
11
6246.12649572292
21
853.255779465799
31
0.000235235178985776
  0
LINE
 8
GROUP0
10
6245.22992043157
20
853.773417869119
30
0.000234187004761321
11
6245.64413388292
21
853.455580479268
31
0.000234620764436172
  0
LINE
 8
GROUP0
10
6244.91208333105
20
854.187631542485
30
0.000233963460204889
11
6245.22992043157
21
853.773417869119
31
0.000234187004761321
  0
LINE
 8
GROUP0
10
6244.71228265451
20
854.669993522045
30
0.000233965364598754
11
6244.91208333105
21
854.187631542485
31
0.000233963460204889
  0
LINE
 8
GROUP0
10
6244.64413448787
20
855.187631636035
30
0.000234192588240673
11
6244.71228265451
21
854.669993522045
31
0.000233965364598754
  0
LINE
 8
GROUP0
10
6244.71228301608
20
855.705269702422
30
0.000234629646247725
11
6244.64413448787
21
855.187631636035
31
0.000234192588240673
  0
LINE
 8
GROUP0
10
6244.91208402955
20
856.18763154242
30
0.000235246753931589
11
6244.71228301608
21
855.705269702422
31
0.000234629646247725
  0
LINE
 8
GROUP0
10
6245.2299214194
20
856.601844993775
30
0.000236001856421481
11
6244.91208402955
21
856.18763154242
31
0.000235246753931589
  0
LINE
 8
GROUP0
10
6201.12649707245
20
882.119544284769
30
0.000170144510664671
11
6200.64413509294
21
881.919743608253
31
0.000169273693072303
  0
LINE
 8
GROUP0
10
6201.64413518638
20
882.187692451395
30
0.000170985163177095
11
6201.12649707245
21
882.119544284769
31
0.000170144510664671
  0
LINE
 8
GROUP0
10
6202.16177325271
20
882.119543923197
30
0.000171738361182883
11
6201.64413518638
21
882.187692451395
31
0.000170985163177095
  0
LINE
 8
GROUP0
10
6202.64413509266
20
881.919742909749
30
0.000172352775731077
11
6202.16177325271
21
882.119543923197
31
0.000171738361182883
  0
LINE
 8
GROUP0
10
6203.05834854397
20
881.601905519933
30
0.000172786535318509
11
6202.64413509266
21
881.919742909749
31
0.000172352775731077
  0
LINE
 8
GROUP0
10
6203.37618564446
20
881.187691846612
30
0.00017301007996518
11
6203.05834854397
21
881.601905519933
31
0.000172786535318509
  0
LINE
 8
GROUP0
10
6203.57598632097
20
880.705329867102
30
0.000173008175571315
11
6203.37618564446
21
881.187691846612
31
0.00017301007996518
  0
LINE
 8
GROUP0
10
6203.6441344876
20
880.187691753168
30
0.000172780951927987
11
6203.57598632097
21
880.705329867102
31
0.000173008175571315
  0
LINE
 8
GROUP0
10
6203.5759859594
20
879.670053686836
30
0.000172343893920934
11
6203.6441344876
21
880.187691753168
31
0.000172780951927987
  0
LINE
 8
GROUP0
10
6203.37618494596
20
879.187691846888
30
0.000171726786327309
11
6203.5759859594
21
879.670053686836
31
0.000172343893920934
  0
LINE
 8
GROUP0
10
6203.05834755614
20
878.773478395578
30
0.000170971683926246
11
6203.37618494596
21
879.187691846888
31
0.000171726786327309
  0
LINE
 8
GROUP0
10
6202.64413388282
20
878.455641295091
30
0.000170130045736133
11
6203.05834755614
21
878.773478395578
31
0.000170971683926246
  0
LINE
 8
GROUP0
10
6202.16177190331
20
878.255840618575
30
0.000169259228143764
11
6202.64413388282
21
878.455641295091
31
0.000170130045736133
  0
LINE
 8
GROUP0
10
6201.64413378938
20
878.187692451949
30
0.000168418575722284
11
6202.16177190331
21
878.255840618575
31
0.000169259228143764
  0
LINE
 8
GROUP0
10
6201.12649572305
20
878.255840980148
30
0.000167665377624848
11
6201.64413378938
21
878.187692451949
31
0.000168418575722284
  0
LINE
 8
GROUP0
10
6200.6441338831
20
878.455641993595
30
0.000167050963166893
11
6201.12649572305
21
878.255840980148
31
0.000167665377624848
  0
LINE
 8
GROUP0
10
6200.22992043179
20
878.773479383412
30
0.000166617203580166
11
6200.6441338831
21
878.455641993595
31
0.000167050963166893
  0
LINE
 8
GROUP0
10
6199.9120833313
20
879.187693056733
30
0.000166393658754427
11
6200.22992043179
21
878.773479383412
31
0.000166617203580166
  0
LINE
 8
GROUP0
10
6199.71228265479
20
879.670055036242
30
0.000166395563238531
11
6199.9120833313
21
879.187693056733
31
0.000166393658754427
  0
LINE
 8
GROUP0
10
6199.64413448816
20
880.187693150176
30
0.000166622786881859
11
6199.71228265479
21
879.670055036242
31
0.000166395563238531
  0
LINE
 8
GROUP0
10
6199.71228301636
20
880.705331216508
30
0.000167059844977036
11
6199.64413448816
21
880.187693150176
31
0.000166622786881859
  0
LINE
 8
GROUP0
10
6199.9120840298
20
881.187693056456
30
0.000167676952570661
11
6199.71228301636
21
880.705331216508
31
0.000167059844977036
  0
LINE
 8
GROUP0
10
6200.22992141962
20
881.601906507766
30
0.000168432054971723
11
6199.9120840298
21
881.187693056456
31
0.000167676952570661
  0
LINE
 8
GROUP0
10
6200.64413509294
20
881.919743608253
30
0.000169273693072303
11
6200.22992141962
21
881.601906507766
31
0.000168432054971723
  0
LINE
 8
GROUP0
10
6245.64413509276
20
881.919682094295
30
0.000236843497532374
11
6245.2299214194
21
881.601844993775
31
0.000236001859340851
  0
LINE
 8
GROUP0
10
6246.12649707233
20
882.119482770831
30
0.000237714315124038
11
6245.64413509276
21
881.919682094295
31
0.000236843497532374
  0
LINE
 8
GROUP0
10
6246.64413518631
20
882.187630937464
30
0.000238554967455984
11
6246.12649707233
21
882.119482770831
31
0.000237714315124038
  0
LINE
 8
GROUP0
10
6247.1617732527
20
882.119482409257
30
0.000239308165642954
11
6246.64413518631
21
882.187630937464
31
0.000238554967455984
  0
LINE
 8
GROUP0
10
6247.6441350927
20
881.919681395788
30
0.00023992258010091
11
6247.1617732527
21
882.119482409257
31
0.000239308165642954
  0
LINE
 8
GROUP0
10
6248.05834854405
20
881.601844005937
30
0.000240356339688341
11
6247.6441350927
21
881.919681395788
31
0.00023992258010091
  0
LINE
 8
GROUP0
10
6248.37618564457
20
881.187630332571
30
0.000240579884333603
11
6248.05834854405
21
881.601844005937
31
0.000240356339688341
  0
LINE
 8
GROUP0
10
6248.57598632111
20
880.705268353011
30
0.000240577979849499
11
6248.37618564457
21
881.187630332571
31
0.000240579884333603
  0
LINE
 8
GROUP0
10
6248.64413448774
20
880.187630239021
30
0.000240350756296409
11
6248.57598632111
21
880.705268353011
31
0.000240577979849499
  0
LINE
 8
GROUP0
10
6248.57598595954
20
879.669992172634
30
0.000239913698200528
11
6248.64413448774
21
880.187630239021
31
0.000240350756296409
  0
LINE
 8
GROUP0
10
6248.37618494607
20
879.187630332636
30
0.000239296590516663
11
6248.57598595954
21
879.669992172634
31
0.000239913698200528
  0
LINE
 8
GROUP0
10
6248.05834755622
20
878.773416881282
30
0.000238541488115601
11
6248.37618494607
21
879.187630332636
31
0.000239296590516663
  0
LINE
 8
GROUP0
10
6247.64413388285
20
878.455579780762
30
0.000237699849924078
11
6248.05834755622
21
878.773416881282
31
0.000238541488115601
  0
LINE
 8
GROUP0
10
6247.16177190329
20
878.255779104225
30
0.000236829032333119
11
6247.64413388285
21
878.455579780762
31
0.000237699849924078
  0
LINE
 8
GROUP0
10
6246.6441337893
20
878.187630937593
30
0.000235988379910934
11
6247.16177190329
21
878.255779104225
31
0.000236829032333119
  0
LINE
 8
GROUP0
10
6246.12649572292
20
878.255779465799
30
0.000235235181905147
11
6246.6441337893
21
878.187630937593
31
0.000235988379910934
  0
LINE
 8
GROUP0
10
6245.64413388292
20
878.455580479269
30
0.000234620767355542
11
6246.12649572292
21
878.255779465799
31
0.000235235181905147
  0
LINE
 8
GROUP0
10
6245.22992043157
20
878.773417869119
30
0.000234187007679987
11
6245.64413388292
21
878.455580479269
31
0.000234620767355542
  0
LINE
 8
GROUP0
10
6244.91208333105
20
879.187631542485
30
0.000233963463123554
11
6245.22992043157
21
878.773417869119
31
0.000234187007679987
  0
LINE
 8
GROUP0
10
6244.71228265451
20
879.669993522046
30
0.000233965367517419
11
6244.91208333105
21
879.187631542485
31
0.000233963463123554
  0
LINE
 8
GROUP0
10
6244.64413448787
20
880.187631636035
30
0.000234192591159338
11
6244.71228265451
21
879.669993522046
31
0.000233965367517419
  0
LINE
 8
GROUP0
10
6244.71228301608
20
880.705269702422
30
0.000234629649165685
11
6244.64413448787
21
880.187631636035
31
0.000234192591159338
  0
LINE
 8
GROUP0
10
6244.91208402955
20
881.187631542421
30
0.00023524675684955
11
6244.71228301608
21
880.705269702422
31
0.000234629649165685
  0
LINE
 8
GROUP0
10
6245.2299214194
20
881.601844993775
30
0.000236001859340851
11
6244.91208402955
21
881.187631542421
31
0.00023524675684955
  0
LINE
 8
GROUP0
10
6245.64413509276
20
906.919682094295
30
0.000236843500452449
11
6245.2299214194
21
906.601844993775
31
0.000236001862259516
  0
LINE
 8
GROUP0
10
6246.12649707233
20
907.119482770831
30
0.000237714318043408
11
6245.64413509276
21
906.919682094295
31
0.000236843500452449
  0
LINE
 8
GROUP0
10
6246.64413518631
20
907.187630937464
30
0.000238554970373944
11
6246.12649707233
21
907.119482770831
31
0.000237714318043408
  0
LINE
 8
GROUP0
10
6247.1617732527
20
907.119482409257
30
0.000239308168563029
11
6246.64413518631
21
907.187630937464
31
0.000238554970373944
  0
LINE
 8
GROUP0
10
6247.6441350927
20
906.919681395788
30
0.000239922583020985
11
6247.1617732527
21
907.119482409257
31
0.000239308168563029
  0
LINE
 8
GROUP0
10
6248.05834854405
20
906.601844005937
30
0.000240356342607007
11
6247.6441350927
21
906.919681395788
31
0.000239922583020985
  0
LINE
 8
GROUP0
10
6248.37618564457
20
906.187630332571
30
0.000240579887252268
11
6248.05834854405
21
906.601844005937
31
0.000240356342607007
  0
LINE
 8
GROUP0
10
6248.57598632111
20
905.705268353011
30
0.000240577982768164
11
6248.37618564457
21
906.187630332571
31
0.000240579887252268
  0
LINE
 8
GROUP0
10
6248.64413448774
20
905.187630239021
30
0.000240350759216484
11
6248.57598632111
21
905.705268353011
31
0.000240577982768164
  0
LINE
 8
GROUP0
10
6248.57598595954
20
904.669992172634
30
0.000239913701119193
11
6248.64413448774
21
905.187630239021
31
0.000240350759216484
  0
LINE
 8
GROUP0
10
6248.37618494607
20
904.187630332636
30
0.000239296593435329
11
6248.57598595954
21
904.669992172634
31
0.000239913701119193
  0
LINE
 8
GROUP0
10
6248.05834755622
20
903.773416881282
30
0.000238541491035676
11
6248.37618494607
21
904.187630332636
31
0.000239296593435329
  0
LINE
 8
GROUP0
10
6247.64413388285
20
903.455579780762
30
0.000237699852842743
11
6248.05834755622
21
903.773416881282
31
0.000238541491035676
  0
LINE
 8
GROUP0
10
6247.16177190329
20
903.255779104225
30
0.000236829035251784
11
6247.64413388285
21
903.455579780762
31
0.000237699852842743
  0
LINE
 8
GROUP0
10
6246.6441337893
20
903.187630937593
30
0.000235988382831009
11
6247.16177190329
21
903.255779104225
31
0.000236829035251784
  0
LINE
 8
GROUP0
10
6246.12649572292
20
903.255779465799
30
0.000235235184823812
11
6246.6441337893
21
903.187630937593
31
0.000235988382831009
  0
LINE
 8
GROUP0
10
6245.64413388292
20
903.455580479268
30
0.000234620770274208
11
6246.12649572292
21
903.255779465799
31
0.000235235184823812
  0
LINE
 8
GROUP0
10
6245.22992043157
20
903.77341786912
30
0.000234187010599357
11
6245.64413388292
21
903.455580479268
31
0.000234620770274208
  0
LINE
 8
GROUP0
10
6244.91208333105
20
904.187631542485
30
0.000233963466041515
11
6245.22992043157
21
903.77341786912
31
0.000234187010599357
  0
LINE
 8
GROUP0
10
6244.71228265451
20
904.669993522045
30
0.000233965370436084
11
6244.91208333105
21
904.187631542485
31
0.000233963466041515
  0
LINE
 8
GROUP0
10
6244.64413448788
20
905.187631636035
30
0.000234192594079413
11
6244.71228265451
21
904.669993522045
31
0.000233965370436084
  0
LINE
 8
GROUP0
10
6244.71228301608
20
905.705269702422
30
0.00023462965208435
11
6244.64413448788
21
905.187631636035
31
0.000234192594079413
  0
LINE
 8
GROUP0
10
6244.91208402955
20
906.187631542421
30
0.000235246759768215
11
6244.71228301608
21
905.705269702422
31
0.00023462965208435
  0
LINE
 8
GROUP0
10
6245.2299214194
20
906.601844993775
30
0.000236001862259516
11
6244.91208402955
21
906.187631542421
31
0.000235246759768215
  0
LINE
 8
GROUP0
10
6201.12649707245
20
907.119544284769
30
0.000170144513584042
11
6200.64413509294
21
906.919743608253
31
0.000169273695991673
  0
LINE
 8
GROUP0
10
6201.64413518638
20
907.187692451395
30
0.000170985166095761
11
6201.12649707245
21
907.119544284769
31
0.000170144513584042
  0
LINE
 8
GROUP0
10
6202.16177325271
20
907.119543923197
30
0.000171738364102958
11
6201.64413518638
21
907.187692451395
31
0.000170985166095761
  0
LINE
 8
GROUP0
10
6202.64413509266
20
906.919742909749
30
0.000172352778651153
11
6202.16177325271
21
907.119543923197
31
0.000171738364102958
  0
LINE
 8
GROUP0
10
6203.05834854397
20
906.601905519933
30
0.000172786538236469
11
6202.64413509266
21
906.919742909749
31
0.000172352778651153
  0
LINE
 8
GROUP0
10
6203.37618564446
20
906.187691846612
30
0.00017301008288314
11
6203.05834854397
21
906.601905519933
31
0.000172786538236469
  0
LINE
 8
GROUP0
10
6203.57598632097
20
905.705329867102
30
0.000173008178489276
11
6203.37618564446
21
906.187691846612
31
0.00017301008288314
  0
LINE
 8
GROUP0
10
6203.6441344876
20
905.187691753168
30
0.000172780954845947
11
6203.57598632097
21
905.705329867102
31
0.000173008178489276
  0
LINE
 8
GROUP0
10
6203.5759859594
20
904.670053686836
30
0.0001723438968396
11
6203.6441344876
21
905.187691753168
31
0.000172780954845947
  0
LINE
 8
GROUP0
10
6203.37618494596
20
904.187691846888
30
0.000171726789245974
11
6203.5759859594
21
904.670053686836
31
0.0001723438968396
  0
LINE
 8
GROUP0
10
6203.05834755614
20
903.773478395578
30
0.000170971686846322
11
6203.37618494596
21
904.187691846888
31
0.000171726789245974
  0
LINE
 8
GROUP0
10
6202.64413388282
20
903.455641295091
30
0.000170130048654799
11
6203.05834755614
21
903.773478395578
31
0.000170971686846322
  0
LINE
 8
GROUP0
10
6202.16177190331
20
903.255840618575
30
0.000169259231061725
11
6202.64413388282
21
903.455641295091
31
0.000170130048654799
  0
LINE
 8
GROUP0
10
6201.64413378938
20
903.187692451949
30
0.00016841857864236
11
6202.16177190331
21
903.255840618575
31
0.000169259231061725
  0
LINE
 8
GROUP0
10
6201.12649572305
20
903.255840980148
30
0.000167665380543514
11
6201.64413378938
21
903.187692451949
31
0.00016841857864236
  0
LINE
 8
GROUP0
10
6200.6441338831
20
903.455641993595
30
0.000167050966085558
11
6201.12649572305
21
903.255840980148
31
0.000167665380543514
  0
LINE
 8
GROUP0
10
6200.22992043179
20
903.773479383412
30
0.000166617206499536
11
6200.6441338831
21
903.455641993595
31
0.000167050966085558
  0
LINE
 8
GROUP0
10
6199.9120833313
20
904.187693056733
30
0.000166393661672387
11
6200.22992043179
21
903.773479383412
31
0.000166617206499536
  0
LINE
 8
GROUP0
10
6199.71228265479
20
904.670055036242
30
0.000166395566157196
11
6199.9120833313
21
904.187693056733
31
0.000166393661672387
  0
LINE
 8
GROUP0
10
6199.64413448816
20
905.187693150176
30
0.00016662278979982
11
6199.71228265479
21
904.670055036242
31
0.000166395566157196
  0
LINE
 8
GROUP0
10
6199.71228301636
20
905.705331216509
30
0.000167059847895701
11
6199.64413448816
21
905.187693150176
31
0.00016662278979982
  0
LINE
 8
GROUP0
10
6199.9120840298
20
906.187693056456
30
0.000167676955489326
11
6199.71228301636
21
905.705331216509
31
0.000167059847895701
  0
LINE
 8
GROUP0
10
6200.22992141962
20
906.601906507766
30
0.000168432057890389
11
6199.9120840298
21
906.187693056456
31
0.000167676955489326
  0
LINE
 8
GROUP0
10
6200.64413509294
20
906.919743608253
30
0.000169273695991673
11
6200.22992141962
21
906.601906507766
31
0.000168432057890389
  0
LINE
 8
GROUP0
10
6201.12649707245
20
932.119544284769
30
0.000170144516502707
11
6200.64413509294
21
931.919743608253
31
0.000169273698910338
  0
LINE
 8
GROUP0
10
6201.64413518638
20
932.187692451395
30
0.000170985169013721
11
6201.12649707245
21
932.119544284769
31
0.000170144516502707
  0
LINE
 8
GROUP0
10
6202.16177325271
20
932.119543923197
30
0.000171738367020918
11
6201.64413518638
21
932.187692451395
31
0.000170985169013721
  0
LINE
 8
GROUP0
10
6202.64413509266
20
931.919742909749
30
0.000172352781569113
11
6202.16177325271
21
932.119543923197
31
0.000171738367020918
  0
LINE
 8
GROUP0
10
6203.05834854397
20
931.601905519933
30
0.000172786541155134
11
6202.64413509266
21
931.919742909749
31
0.000172352781569113
  0
LINE
 8
GROUP0
10
6203.37618564446
20
931.187691846612
30
0.000173010085803216
11
6203.05834854397
21
931.601905519933
31
0.000172786541155134
  0
LINE
 8
GROUP0
10
6203.57598632097
20
930.705329867103
30
0.000173008181409351
11
6203.37618564446
21
931.187691846612
31
0.000173010085803216
  0
LINE
 8
GROUP0
10
6203.6441344876
20
930.187691753169
30
0.000172780957764612
11
6203.57598632097
21
930.705329867103
31
0.000173008181409351
  0
LINE
 8
GROUP0
10
6203.5759859594
20
929.670053686836
30
0.000172343899758265
11
6203.6441344876
21
930.187691753169
31
0.000172780957764612
  0
LINE
 8
GROUP0
10
6203.37618494596
20
929.187691846888
30
0.000171726792163934
11
6203.5759859594
21
929.670053686836
31
0.000172343899758265
  0
LINE
 8
GROUP0
10
6203.05834755614
20
928.773478395578
30
0.000170971689764282
11
6203.37618494596
21
929.187691846888
31
0.000171726792163934
  0
LINE
 8
GROUP0
10
6202.64413388282
20
928.455641295091
30
0.000170130051572759
11
6203.05834755614
21
928.773478395578
31
0.000170971689764282
  0
LINE
 8
GROUP0
10
6202.16177190331
20
928.255840618575
30
0.00016925923398039
11
6202.64413388282
21
928.455641295091
31
0.000170130051572759
  0
LINE
 8
GROUP0
10
6201.64413378938
20
928.187692451949
30
0.000168418581561025
11
6202.16177190331
21
928.255840618575
31
0.00016925923398039
  0
LINE
 8
GROUP0
10
6201.12649572305
20
928.255840980148
30
0.000167665383462179
11
6201.64413378938
21
928.187692451949
31
0.000168418581561025
  0
LINE
 8
GROUP0
10
6200.6441338831
20
928.455641993595
30
0.000167050969004223
11
6201.12649572305
21
928.255840980148
31
0.000167665383462179
  0
LINE
 8
GROUP0
10
6200.22992043179
20
928.773479383411
30
0.000166617209418202
11
6200.6441338831
21
928.455641993595
31
0.000167050969004223
  0
LINE
 8
GROUP0
10
6199.9120833313
20
929.187693056733
30
0.000166393664591052
11
6200.22992043179
21
928.773479383411
31
0.000166617209418202
  0
LINE
 8
GROUP0
10
6199.71228265479
20
929.670055036242
30
0.000166395569075156
11
6199.9120833313
21
929.187693056733
31
0.000166393664591052
  0
LINE
 8
GROUP0
10
6199.64413448816
20
930.187693150176
30
0.000166622792718485
11
6199.71228265479
21
929.670055036242
31
0.000166395569075156
  0
LINE
 8
GROUP0
10
6199.71228301636
20
930.705331216509
30
0.000167059850815776
11
6199.64413448816
21
930.187693150176
31
0.000166622792718485
  0
LINE
 8
GROUP0
10
6199.9120840298
20
931.187693056456
30
0.000167676958409402
11
6199.71228301636
21
930.705331216509
31
0.000167059850815776
  0
LINE
 8
GROUP0
10
6200.22992141962
20
931.601906507766
30
0.000168432060809054
11
6199.9120840298
21
931.187693056456
31
0.000167676958409402
  0
LINE
 8
GROUP0
10
6200.64413509294
20
931.919743608253
30
0.000169273698910338
11
6200.22992141962
21
931.601906507766
31
0.000168432060809054
  0
LINE
 8
GROUP0
10
6245.64413509276
20
931.919682094294
30
0.000236843503371115
11
6245.2299214194
21
931.601844993775
31
0.000236001865178181
  0
LINE
 8
GROUP0
10
6246.12649707233
20
932.119482770831
30
0.000237714320962074
11
6245.64413509276
21
931.919682094294
31
0.000236843503371115
  0
LINE
 8
GROUP0
10
6246.64413518631
20
932.187630937464
30
0.00023855497329261
11
6246.12649707233
21
932.119482770831
31
0.000237714320962074
  0
LINE
 8
GROUP0
10
6247.1617732527
20
932.119482409257
30
0.000239308171481695
11
6246.64413518631
21
932.187630937464
31
0.00023855497329261
  0
LINE
 8
GROUP0
10
6247.6441350927
20
931.919681395788
30
0.00023992258593965
11
6247.1617732527
21
932.119482409257
31
0.000239308171481695
  0
LINE
 8
GROUP0
10
6248.05834854405
20
931.601844005937
30
0.000240356345525672
11
6247.6441350927
21
931.919681395788
31
0.00023992258593965
  0
LINE
 8
GROUP0
10
6248.37618564457
20
931.187630332572
30
0.000240579890172343
11
6248.05834854405
21
931.601844005937
31
0.000240356345525672
  0
LINE
 8
GROUP0
10
6248.57598632111
20
930.705268353011
30
0.000240577985687535
11
6248.37618564457
21
931.187630332572
31
0.000240579890172343
  0
LINE
 8
GROUP0
10
6248.64413448774
20
930.187630239021
30
0.000240350762134445
11
6248.57598632111
21
930.705268353011
31
0.000240577985687535
  0
LINE
 8
GROUP0
10
6248.57598595954
20
929.669992172634
30
0.000239913704037858
11
6248.64413448774
21
930.187630239021
31
0.000240350762134445
  0
LINE
 8
GROUP0
10
6248.37618494607
20
929.187630332636
30
0.000239296596353994
11
6248.57598595954
21
929.669992172634
31
0.000239913704037858
  0
LINE
 8
GROUP0
10
6248.05834755622
20
928.773416881282
30
0.000238541493954342
11
6248.37618494607
21
929.187630332636
31
0.000239296596353994
  0
LINE
 8
GROUP0
10
6247.64413388285
20
928.455579780762
30
0.000237699855761409
11
6248.05834755622
21
928.773416881282
31
0.000238541493954342
  0
LINE
 8
GROUP0
10
6247.16177190329
20
928.255779104226
30
0.00023682903817045
11
6247.64413388285
21
928.455579780762
31
0.000237699855761409
  0
LINE
 8
GROUP0
10
6246.6441337893
20
928.187630937593
30
0.000235988385749675
11
6247.16177190329
21
928.255779104226
31
0.00023682903817045
  0
LINE
 8
GROUP0
10
6246.12649572292
20
928.255779465799
30
0.000235235187742477
11
6246.6441337893
21
928.187630937593
31
0.000235988385749675
  0
LINE
 8
GROUP0
10
6245.64413388292
20
928.455580479269
30
0.000234620773192873
11
6246.12649572292
21
928.255779465799
31
0.000235235187742477
  0
LINE
 8
GROUP0
10
6245.22992043157
20
928.77341786912
30
0.000234187013518022
11
6245.64413388292
21
928.455580479269
31
0.000234620773192873
  0
LINE
 8
GROUP0
10
6244.91208333105
20
929.187631542485
30
0.00023396346896018
11
6245.22992043157
21
928.77341786912
31
0.000234187013518022
  0
LINE
 8
GROUP0
10
6244.71228265451
20
929.669993522046
30
0.000233965373354045
11
6244.91208333105
21
929.187631542485
31
0.00023396346896018
  0
LINE
 8
GROUP0
10
6244.64413448788
20
930.187631636035
30
0.000234192596997373
11
6244.71228265451
21
929.669993522046
31
0.000233965373354045
  0
LINE
 8
GROUP0
10
6244.71228301608
20
930.705269702423
30
0.000234629655004426
11
6244.64413448788
21
930.187631636035
31
0.000234192596997373
  0
LINE
 8
GROUP0
10
6244.91208402955
20
931.187631542421
30
0.00023524676268829
11
6244.71228301608
21
930.705269702423
31
0.000234629655004426
  0
LINE
 8
GROUP0
10
6245.2299214194
20
931.601844993775
30
0.000236001865178181
11
6244.91208402955
21
931.187631542421
31
0.00023524676268829
  0
LINE
 8
GROUP0
10
6245.64413509276
20
956.919682094295
30
0.00023684350628978
11
6245.2299214194
21
956.601844993775
31
0.000236001868096847
  0
LINE
 8
GROUP0
10
6246.12649707233
20
957.119482770831
30
0.000237714323880739
11
6245.64413509276
21
956.919682094295
31
0.00023684350628978
  0
LINE
 8
GROUP0
10
6246.64413518631
20
957.187630937464
30
0.000238554976211275
11
6246.12649707233
21
957.119482770831
31
0.000237714323880739
  0
LINE
 8
GROUP0
10
6247.1617732527
20
957.119482409257
30
0.00023930817440036
11
6246.64413518631
21
957.187630937464
31
0.000238554976211275
  0
LINE
 8
GROUP0
10
6247.6441350927
20
956.919681395788
30
0.000239922588858316
11
6247.1617732527
21
957.119482409257
31
0.00023930817440036
  0
LINE
 8
GROUP0
10
6248.05834854405
20
956.601844005937
30
0.000240356348443632
11
6247.6441350927
21
956.919681395788
31
0.000239922588858316
  0
LINE
 8
GROUP0
10
6248.37618564457
20
956.187630332571
30
0.000240579893090304
11
6248.05834854405
21
956.601844005937
31
0.000240356348443632
  0
LINE
 8
GROUP0
10
6248.57598632111
20
955.705268353011
30
0.0002405779886062
11
6248.37618564457
21
956.187630332571
31
0.000240579893090304
  0
LINE
 8
GROUP0
10
6248.64413448774
20
955.187630239022
30
0.00024035076505311
11
6248.57598632111
21
955.705268353011
31
0.0002405779886062
  0
LINE
 8
GROUP0
10
6248.57598595954
20
954.669992172634
30
0.000239913706957934
11
6248.64413448774
21
955.187630239022
31
0.00024035076505311
  0
LINE
 8
GROUP0
10
6248.37618494607
20
954.187630332636
30
0.000239296599274069
11
6248.57598595954
21
954.669992172634
31
0.000239913706957934
  0
LINE
 8
GROUP0
10
6248.05834755622
20
953.773416881282
30
0.000238541496873007
11
6248.37618494607
21
954.187630332636
31
0.000239296599274069
  0
LINE
 8
GROUP0
10
6247.64413388285
20
953.455579780762
30
0.000237699858680074
11
6248.05834755622
21
953.773416881282
31
0.000238541496873007
  0
LINE
 8
GROUP0
10
6247.16177190329
20
953.255779104226
30
0.00023682904108841
11
6247.64413388285
21
953.455579780762
31
0.000237699858680074
  0
LINE
 8
GROUP0
10
6246.6441337893
20
953.187630937593
30
0.000235988388667635
11
6247.16177190329
21
953.255779104226
31
0.00023682904108841
  0
LINE
 8
GROUP0
10
6246.12649572292
20
953.255779465799
30
0.000235235190661143
11
6246.6441337893
21
953.187630937593
31
0.000235988388667635
  0
LINE
 8
GROUP0
10
6245.64413388292
20
953.455580479269
30
0.000234620776111538
11
6246.12649572292
21
953.255779465799
31
0.000235235190661143
  0
LINE
 8
GROUP0
10
6245.22992043157
20
953.77341786912
30
0.000234187016436688
11
6245.64413388292
21
953.455580479269
31
0.000234620776111538
  0
LINE
 8
GROUP0
10
6244.91208333105
20
954.187631542485
30
0.000233963471880255
11
6245.22992043157
21
953.77341786912
31
0.000234187016436688
  0
LINE
 8
GROUP0
10
6244.71228265451
20
954.669993522045
30
0.00023396537627412
11
6244.91208333105
21
954.187631542485
31
0.000233963471880255
  0
LINE
 8
GROUP0
10
6244.64413448788
20
955.187631636035
30
0.000234192599916039
11
6244.71228265451
21
954.669993522045
31
0.00023396537627412
  0
LINE
 8
GROUP0
10
6244.71228301608
20
955.705269702422
30
0.000234629657923091
11
6244.64413448788
21
955.187631636035
31
0.000234192599916039
  0
LINE
 8
GROUP0
10
6244.91208402955
20
956.18763154242
30
0.000235246765606956
11
6244.71228301608
21
955.705269702422
31
0.000234629657923091
  0
LINE
 8
GROUP0
10
6245.2299214194
20
956.601844993775
30
0.000236001868096847
11
6244.91208402955
21
956.18763154242
31
0.000235246765606956
  0
LINE
 8
GROUP0
10
6201.12649707245
20
957.119544284769
30
0.000170144519421372
11
6200.64413509294
21
956.919743608253
31
0.000169273701829004
  0
LINE
 8
GROUP0
10
6201.64413518638
20
957.187692451395
30
0.000170985171932386
11
6201.12649707245
21
957.119544284769
31
0.000170144519421372
  0
LINE
 8
GROUP0
10
6202.16177325271
20
957.119543923197
30
0.000171738369939584
11
6201.64413518638
21
957.187692451395
31
0.000170985171932386
  0
LINE
 8
GROUP0
10
6202.64413509266
20
956.91974290975
30
0.000172352784487778
11
6202.16177325271
21
957.119543923197
31
0.000171738369939584
  0
LINE
 8
GROUP0
10
6203.05834854397
20
956.601905519933
30
0.0001727865440738
11
6202.64413509266
21
956.91974290975
31
0.000172352784487778
  0
LINE
 8
GROUP0
10
6203.37618564446
20
956.187691846612
30
0.000173010088721881
11
6203.05834854397
21
956.601905519933
31
0.0001727865440738
  0
LINE
 8
GROUP0
10
6203.57598632097
20
955.705329867103
30
0.000173008184328016
11
6203.37618564446
21
956.187691846612
31
0.000173010088721881
  0
LINE
 8
GROUP0
10
6203.6441344876
20
955.187691753168
30
0.000172780960683278
11
6203.57598632097
21
955.705329867103
31
0.000173008184328016
  0
LINE
 8
GROUP0
10
6203.5759859594
20
954.670053686836
30
0.000172343902677635
11
6203.6441344876
21
955.187691753168
31
0.000172780960683278
  0
LINE
 8
GROUP0
10
6203.37618494596
20
954.187691846889
30
0.00017172679508401
11
6203.5759859594
21
954.670053686836
31
0.000172343902677635
  0
LINE
 8
GROUP0
10
6203.05834755614
20
953.773478395578
30
0.000170971692682947
11
6203.37618494596
21
954.187691846889
31
0.00017172679508401
  0
LINE
 8
GROUP0
10
6202.64413388282
20
953.455641295091
30
0.000170130054491424
11
6203.05834755614
21
953.773478395578
31
0.000170971692682947
  0
LINE
 8
GROUP0
10
6202.16177190331
20
953.255840618575
30
0.000169259236899055
11
6202.64413388282
21
953.455641295091
31
0.000170130054491424
  0
LINE
 8
GROUP0
10
6201.64413378938
20
953.187692451949
30
0.00016841858447969
11
6202.16177190331
21
953.255840618575
31
0.000169259236899055
  0
LINE
 8
GROUP0
10
6201.12649572305
20
953.255840980147
30
0.000167665386380844
11
6201.64413378938
21
953.187692451949
31
0.00016841858447969
  0
LINE
 8
GROUP0
10
6200.6441338831
20
953.455641993595
30
0.000167050971922889
11
6201.12649572305
21
953.255840980147
31
0.000167665386380844
  0
LINE
 8
GROUP0
10
6200.22992043179
20
953.773479383412
30
0.000166617212336867
11
6200.6441338831
21
953.455641993595
31
0.000167050971922889
  0
LINE
 8
GROUP0
10
6199.9120833313
20
954.187693056733
30
0.000166393667511128
11
6200.22992043179
21
953.773479383412
31
0.000166617212336867
  0
LINE
 8
GROUP0
10
6199.71228265479
20
954.670055036242
30
0.000166395571995231
11
6199.9120833313
21
954.187693056733
31
0.000166393667511128
  0
LINE
 8
GROUP0
10
6199.64413448816
20
955.187693150176
30
0.00016662279563715
11
6199.71228265479
21
954.670055036242
31
0.000166395571995231
  0
LINE
 8
GROUP0
10
6199.71228301636
20
955.705331216509
30
0.000167059853733736
11
6199.64413448816
21
955.187693150176
31
0.00016662279563715
  0
LINE
 8
GROUP0
10
6199.9120840298
20
956.187693056456
30
0.000167676961328067
11
6199.71228301636
21
955.705331216509
31
0.000167059853733736
  0
LINE
 8
GROUP0
10
6200.22992141962
20
956.601906507766
30
0.000168432063727719
11
6199.9120840298
21
956.187693056456
31
0.000167676961328067
  0
LINE
 8
GROUP0
10
6200.64413509294
20
956.919743608253
30
0.000169273701829004
11
6200.22992141962
21
956.601906507766
31
0.000168432063727719
  0
LINE
 8
GROUP0
10
6201.12649707245
20
982.119544284769
30
0.000170144522340038
11
6200.64413509294
21
981.919743608253
31
0.000169273704747669
  0
LINE
 8
GROUP0
10
6201.64413518638
20
982.187692451395
30
0.000170985174852462
11
6201.12649707245
21
982.119544284769
31
0.000170144522340038
  0
LINE
 8
GROUP0
10
6202.16177325271
20
982.119543923197
30
0.000171738372858249
11
6201.64413518638
21
982.187692451395
31
0.000170985174852462
  0
LINE
 8
GROUP0
10
6202.64413509266
20
981.919742909749
30
0.000172352787406443
11
6202.16177325271
21
982.119543923197
31
0.000171738372858249
  0
LINE
 8
GROUP0
10
6203.05834854397
20
981.601905519933
30
0.000172786546993875
11
6202.64413509266
21
981.919742909749
31
0.000172352787406443
  0
LINE
 8
GROUP0
10
6203.37618564446
20
981.187691846612
30
0.000173010091640546
11
6203.05834854397
21
981.601905519933
31
0.000172786546993875
  0
LINE
 8
GROUP0
10
6203.57598632097
20
980.705329867103
30
0.000173008187246682
11
6203.37618564446
21
981.187691846612
31
0.000173010091640546
  0
LINE
 8
GROUP0
10
6203.6441344876
20
980.187691753168
30
0.000172780963603353
11
6203.57598632097
21
980.705329867103
31
0.000173008187246682
  0
LINE
 8
GROUP0
10
6203.5759859594
20
979.670053686836
30
0.000172343905596301
11
6203.6441344876
21
980.187691753168
31
0.000172780963603353
  0
LINE
 8
GROUP0
10
6203.37618494596
20
979.187691846889
30
0.000171726798002675
11
6203.5759859594
21
979.670053686836
31
0.000172343905596301
  0
LINE
 8
GROUP0
10
6203.05834755614
20
978.773478395578
30
0.000170971695601613
11
6203.37618494596
21
979.187691846889
31
0.000171726798002675
  0
LINE
 8
GROUP0
10
6202.64413388282
20
978.455641295091
30
0.000170130057411499
11
6203.05834755614
21
978.773478395578
31
0.000170971695601613
  0
LINE
 8
GROUP0
10
6202.16177190331
20
978.255840618575
30
0.000169259239819131
11
6202.64413388282
21
978.455641295091
31
0.000170130057411499
  0
LINE
 8
GROUP0
10
6201.64413378938
20
978.187692451949
30
0.000168418587397651
11
6202.16177190331
21
978.255840618575
31
0.000169259239819131
  0
LINE
 8
GROUP0
10
6201.12649572305
20
978.255840980148
30
0.000167665389300214
11
6201.64413378938
21
978.187692451949
31
0.000168418587397651
  0
LINE
 8
GROUP0
10
6200.6441338831
20
978.455641993595
30
0.000167050974842259
11
6201.12649572305
21
978.255840980148
31
0.000167665389300214
  0
LINE
 8
GROUP0
10
6200.22992043179
20
978.773479383412
30
0.000166617215255532
11
6200.6441338831
21
978.455641993595
31
0.000167050974842259
  0
LINE
 8
GROUP0
10
6199.9120833313
20
979.187693056733
30
0.000166393670429793
11
6200.22992043179
21
978.773479383412
31
0.000166617215255532
  0
LINE
 8
GROUP0
10
6199.71228265479
20
979.670055036242
30
0.000166395574913897
11
6199.9120833313
21
979.187693056733
31
0.000166393670429793
  0
LINE
 8
GROUP0
10
6199.64413448816
20
980.187693150176
30
0.000166622798557226
11
6199.71228265479
21
979.670055036242
31
0.000166395574913897
  0
LINE
 8
GROUP0
10
6199.71228301636
20
980.705331216509
30
0.000167059856652402
11
6199.64413448816
21
980.187693150176
31
0.000166622798557226
  0
LINE
 8
GROUP0
10
6199.9120840298
20
981.187693056456
30
0.000167676964246027
11
6199.71228301636
21
980.705331216509
31
0.000167059856652402
  0
LINE
 8
GROUP0
10
6200.22992141962
20
981.601906507766
30
0.00016843206664709
11
6199.9120840298
21
981.187693056456
31
0.000167676964246027
  0
LINE
 8
GROUP0
10
6200.64413509294
20
981.919743608253
30
0.000169273704747669
11
6200.22992141962
21
981.601906507766
31
0.00016843206664709
  0
LINE
 8
GROUP0
10
6245.64413509276
20
981.919682094295
30
0.00023684350920774
11
6245.2299214194
21
981.601844993775
31
0.000236001871016217
  0
LINE
 8
GROUP0
10
6246.12649707233
20
982.119482770831
30
0.000237714326799404
11
6245.64413509276
21
981.919682094295
31
0.00023684350920774
  0
LINE
 8
GROUP0
10
6246.64413518631
20
982.187630937464
30
0.00023855497913135
11
6246.12649707233
21
982.119482770831
31
0.000237714326799404
  0
LINE
 8
GROUP0
10
6247.1617732527
20
982.119482409257
30
0.00023930817731832
11
6246.64413518631
21
982.187630937464
31
0.00023855497913135
  0
LINE
 8
GROUP0
10
6247.6441350927
20
981.919681395788
30
0.000239922591776276
11
6247.1617732527
21
982.119482409257
31
0.00023930817731832
  0
LINE
 8
GROUP0
10
6248.05834854405
20
981.601844005937
30
0.000240356351363707
11
6247.6441350927
21
981.919681395788
31
0.000239922591776276
  0
LINE
 8
GROUP0
10
6248.37618564457
20
981.187630332571
30
0.000240579896008969
11
6248.05834854405
21
981.601844005937
31
0.000240356351363707
  0
LINE
 8
GROUP0
10
6248.57598632111
20
980.705268353011
30
0.000240577991524865
11
6248.37618564457
21
981.187630332571
31
0.000240579896008969
  0
LINE
 8
GROUP0
10
6248.64413448774
20
980.187630239022
30
0.000240350767973185
11
6248.57598632111
21
980.705268353011
31
0.000240577991524865
  0
LINE
 8
GROUP0
10
6248.57598595954
20
979.669992172634
30
0.000239913709875894
11
6248.64413448774
21
980.187630239022
31
0.000240350767973185
  0
LINE
 8
GROUP0
10
6248.37618494607
20
979.187630332636
30
0.00023929660219203
11
6248.57598595954
21
979.669992172634
31
0.000239913709875894
  0
LINE
 8
GROUP0
10
6248.05834755622
20
978.773416881282
30
0.000238541499790967
11
6248.37618494607
21
979.187630332636
31
0.00023929660219203
  0
LINE
 8
GROUP0
10
6247.64413388285
20
978.455579780762
30
0.000237699861599444
11
6248.05834755622
21
978.773416881282
31
0.000238541499790967
  0
LINE
 8
GROUP0
10
6247.16177190329
20
978.255779104225
30
0.000236829044008485
11
6247.64413388285
21
978.455579780762
31
0.000237699861599444
  0
LINE
 8
GROUP0
10
6246.6441337893
20
978.187630937593
30
0.0002359883915863
11
6247.16177190329
21
978.255779104225
31
0.000236829044008485
  0
LINE
 8
GROUP0
10
6246.12649572292
20
978.255779465799
30
0.000235235193580513
11
6246.6441337893
21
978.187630937593
31
0.0002359883915863
  0
LINE
 8
GROUP0
10
6245.64413388292
20
978.455580479269
30
0.000234620779030908
11
6246.12649572292
21
978.255779465799
31
0.000235235193580513
  0
LINE
 8
GROUP0
10
6245.22992043157
20
978.773417869119
30
0.000234187019355353
11
6245.64413388292
21
978.455580479269
31
0.000234620779030908
  0
LINE
 8
GROUP0
10
6244.91208333105
20
979.187631542485
30
0.000233963474798921
11
6245.22992043157
21
978.773417869119
31
0.000234187019355353
  0
LINE
 8
GROUP0
10
6244.71228265451
20
979.669993522046
30
0.000233965379192785
11
6244.91208333105
21
979.187631542485
31
0.000233963474798921
  0
LINE
 8
GROUP0
10
6244.64413448788
20
980.187631636035
30
0.000234192602836114
11
6244.71228265451
21
979.669993522046
31
0.000233965379192785
  0
LINE
 8
GROUP0
10
6244.71228301608
20
980.705269702422
30
0.000234629660841051
11
6244.64413448788
21
980.187631636035
31
0.000234192602836114
  0
LINE
 8
GROUP0
10
6244.91208402955
20
981.187631542421
30
0.000235246768524916
11
6244.71228301608
21
980.705269702422
31
0.000234629660841051
  0
LINE
 8
GROUP0
10
6245.2299214194
20
981.601844993775
30
0.000236001871016217
11
6244.91208402955
21
981.187631542421
31
0.000235246768524916
  0
LINE
 8
GROUP0
10
6578.91159604913
20
979.187176595337
30
0.000823917568881544
11
6579.22943276132
21
978.772962623986
31
0.000824141112743559
  0
LINE
 8
GROUP0
10
6578.71179582482
20
979.669538762222
30
0.000823919474053719
11
6578.91159604913
21
979.187176595337
31
0.000823917568881544
  0
LINE
 8
GROUP0
10
6578.64364814348
20
980.187176940109
30
0.000824146698428829
11
6578.71179582482
21
979.669538762222
31
0.000823919474053719
  0
LINE
 8
GROUP0
10
6578.71179715699
20
980.704814942613
30
0.000824583757166958
11
6578.64364814348
21
980.187176940109
31
0.000824146698428829
  0
LINE
 8
GROUP0
10
6578.91159862268
20
981.1871765953
30
0.000825200865448655
11
6578.71179715699
21
980.704814942613
31
0.000824583757166958
  0
LINE
 8
GROUP0
10
6579.22943640087
20
981.60138974868
30
0.000825955968183884
11
6578.91159862268
21
981.1871765953
31
0.000825200865448655
  0
LINE
 8
GROUP0
10
6579.64365037222
20
981.91922646087
30
0.00082679760649737
11
6579.22943640087
21
981.60138974868
31
0.000825955968183884
  0
LINE
 8
GROUP0
10
6580.1260125391
20
982.119026685184
30
0.000827668424156713
11
6579.64365037222
21
981.91922646087
31
0.00082679760649737
  0
LINE
 8
GROUP0
10
6580.64365071699
20
982.187174366521
30
0.000828509076483019
11
6580.1260125391
21
982.119026685184
31
0.000827668424156713
  0
LINE
 8
GROUP0
10
6581.1612887195
20
982.119025353016
30
0.000829262273953013
11
6580.64365071699
21
982.187174366521
31
0.000828509076483019
  0
LINE
 8
GROUP0
10
6581.64365037218
20
981.919223887319
30
0.0008298766878928
11
6581.1612887195
21
982.119025353016
31
0.000829262273953013
  0
LINE
 8
GROUP0
10
6582.05786352556
20
981.601386109129
30
0.000830310446815424
11
6581.64365037218
21
981.919223887319
31
0.0008298766878928
  0
LINE
 8
GROUP0
10
6582.37570023775
20
981.187172137778
30
0.000830533990676735
11
6582.05786352556
21
981.601386109129
31
0.000830310446815424
  0
LINE
 8
GROUP0
10
6582.57550046207
20
980.704809970892
30
0.000830532085594798
11
6582.37570023775
21
981.187172137778
31
0.000830533990676735
  0
LINE
 8
GROUP0
10
6582.6436481434
20
980.187171793006
30
0.000830304861129449
11
6582.57550046207
21
980.704809970892
31
0.000830532085594798
  0
LINE
 8
GROUP0
10
6582.5754991299
20
979.669533790501
30
0.00082986780248297
11
6582.6436481434
21
980.187171793006
31
0.000830304861129449
  0
LINE
 8
GROUP0
10
6582.3756976642
20
979.187172137814
30
0.000829250694201272
11
6582.5754991299
21
979.669533790501
31
0.00082986780248297
  0
LINE
 8
GROUP0
10
6582.05785988601
20
978.772958984434
30
0.000828495591375805
11
6582.3756976642
21
979.187172137814
31
0.000829250694201272
  0
LINE
 8
GROUP0
10
6581.64364591466
20
978.455122272244
30
0.000827653953062318
11
6582.05785988601
21
978.772958984434
31
0.000828495591375805
  0
LINE
 8
GROUP0
10
6581.16128374778
20
978.25532204793
30
0.000826783135401565
11
6581.64364591466
21
978.455122272244
31
0.000827653953062318
  0
LINE
 8
GROUP0
10
6580.64364556989
20
978.187174366593
30
0.000825942483166908
11
6581.16128374778
21
978.25532204793
31
0.000826783135401565
  0
LINE
 8
GROUP0
10
6580.12600756739
20
978.255323380098
30
0.000825189285605971
11
6580.64364556989
21
978.187174366593
31
0.000825942483166908
  0
LINE
 8
GROUP0
10
6579.6436459147
20
978.455124845796
30
0.000824574871757128
11
6580.12600756739
21
978.255323380098
31
0.000825189285605971
  0
LINE
 8
GROUP0
10
6579.22943276132
20
978.772962623986
30
0.000824141112743559
11
6579.6436459147
21
978.455124845796
31
0.000824574871757128
  0
LINE
 8
GROUP0
10
6624.22943640075
20
981.601328234557
30
0.000893525789698407
11
6623.91159862256
21
981.18711508117
31
0.000892770686963179
  0
LINE
 8
GROUP0
10
6624.64365037211
20
981.919164946752
30
0.000894367428102133
11
6624.22943640075
21
981.601328234557
31
0.000893525789698407
  0
LINE
 8
GROUP0
10
6625.126012539
20
982.118965171069
30
0.000895238245761476
11
6624.64365037211
21
981.919164946752
31
0.000894367428102133
  0
LINE
 8
GROUP0
10
6625.6436507169
20
982.187112852406
30
0.000896078897907304
11
6625.126012539
21
982.118965171069
31
0.000895238245761476
  0
LINE
 8
GROUP0
10
6626.16128871941
20
982.1189638389
30
0.000896832095468947
11
6625.6436507169
21
982.187112852406
31
0.000896078897907304
  0
LINE
 8
GROUP0
10
6626.6436503721
20
981.919162373198
30
0.000897446509407324
11
6626.16128871941
21
982.1189638389
31
0.000896832095468947
  0
LINE
 8
GROUP0
10
6627.05786352549
20
981.601324595003
30
0.000897880268329243
11
6626.6436503721
21
981.919162373198
31
0.000897446509407324
  0
LINE
 8
GROUP0
10
6627.37570023769
20
981.187110623645
30
0.000898103812282908
11
6627.05786352549
21
981.601324595003
31
0.000897880268329243
  0
LINE
 8
GROUP0
10
6627.575500462
20
980.704748456751
30
0.000898101907110732
11
6627.37570023769
21
981.187110623645
31
0.000898103812282908
  0
LINE
 8
GROUP0
10
6627.64364814334
20
980.187110278855
30
0.000897874682734212
11
6627.575500462
21
980.704748456751
31
0.000898101907110732
  0
LINE
 8
GROUP0
10
6627.57549912984
20
979.669472276343
30
0.000897437623907254
11
6627.64364814334
21
980.187110278855
31
0.000897874682734212
  0
LINE
 8
GROUP0
10
6627.37569766414
20
979.187110623648
30
0.000896820515715796
11
6627.57549912984
21
979.669472276343
31
0.000897437623907254
  0
LINE
 8
GROUP0
10
6627.05785988594
20
978.772897470261
30
0.000896065412980568
11
6627.37569766414
21
979.187110623648
31
0.000896820515715796
  0
LINE
 8
GROUP0
10
6626.64364591458
20
978.455060758066
30
0.000895223774576842
11
6627.05785988594
21
978.772897470261
31
0.000896065412980568
  0
LINE
 8
GROUP0
10
6626.16128374769
20
978.255260533749
30
0.00089435295682585
11
6626.64364591458
21
978.455060758066
31
0.000895223774576842
  0
LINE
 8
GROUP0
10
6625.64364556979
20
978.187112852412
30
0.000893512304681432
11
6626.16128374769
21
978.255260533749
31
0.00089435295682585
  0
LINE
 8
GROUP0
10
6625.12600756728
20
978.255261865918
30
0.000892759107119789
11
6625.64364556979
21
978.187112852412
31
0.000893512304681432
  0
LINE
 8
GROUP0
10
6624.64364591459
20
978.455063331619
30
0.000892144693271651
11
6625.12600756728
21
978.255261865918
31
0.000892759107119789
  0
LINE
 8
GROUP0
10
6624.2294327612
20
978.772901109815
30
0.000891710934258788
11
6624.64364591459
21
978.455063331619
31
0.000892144693271651
  0
LINE
 8
GROUP0
10
6623.91159604901
20
979.187115081173
30
0.000891487390396067
11
6624.2294327612
21
978.772901109815
31
0.000891710934258788
  0
LINE
 8
GROUP0
10
6623.71179582469
20
979.669477248066
30
0.000891489295568243
11
6623.91159604901
21
979.187115081173
31
0.000891487390396067
  0
LINE
 8
GROUP0
10
6623.64364814335
20
980.187115425962
30
0.000891716520033592
11
6623.71179582469
21
979.669477248066
31
0.000891489295568243
  0
LINE
 8
GROUP0
10
6623.71179715686
20
980.704753428475
30
0.000892153578681482
11
6623.64364814335
21
980.187115425962
31
0.000891716520033592
  0
LINE
 8
GROUP0
10
6623.91159862256
20
981.18711508117
30
0.000892770686963179
11
6623.71179715686
21
980.704753428475
31
0.000892153578681482
  0
LINE
 8
GROUP0
10
6624.22943640075
20
956.601328234557
30
0.000893525786778332
11
6623.91159862256
21
956.18711508117
31
0.000892770684044514
  0
LINE
 8
GROUP0
10
6624.64365037211
20
956.919164946752
30
0.000894367425183468
11
6624.22943640075
21
956.601328234557
31
0.000893525786778332
  0
LINE
 8
GROUP0
10
6625.126012539
20
957.118965171068
30
0.000895238242842811
11
6624.64365037211
21
956.919164946752
31
0.000894367425183468
  0
LINE
 8
GROUP0
10
6625.6436507169
20
957.187112852406
30
0.000896078894987229
11
6625.126012539
21
957.118965171068
31
0.000895238242842811
  0
LINE
 8
GROUP0
10
6626.16128871941
20
957.118963838899
30
0.000896832092550281
11
6625.6436507169
21
957.187112852406
31
0.000896078894987229
  0
LINE
 8
GROUP0
10
6626.6436503721
20
956.919162373198
30
0.000897446506488658
11
6626.16128871941
21
957.118963838899
31
0.000896832092550281
  0
LINE
 8
GROUP0
10
6627.05786352549
20
956.601324595003
30
0.000897880265409873
11
6626.6436503721
21
956.919162373198
31
0.000897446506488658
  0
LINE
 8
GROUP0
10
6627.37570023769
20
956.187110623645
30
0.000898103809364242
11
6627.05786352549
21
956.601324595003
31
0.000897880265409873
  0
LINE
 8
GROUP0
10
6627.575500462
20
955.704748456751
30
0.000898101904192067
11
6627.37570023769
21
956.187110623645
31
0.000898103809364242
  0
LINE
 8
GROUP0
10
6627.64364814334
20
955.187110278856
30
0.000897874679815547
11
6627.575500462
21
955.704748456751
31
0.000898101904192067
  0
LINE
 8
GROUP0
10
6627.57549912984
20
954.669472276343
30
0.000897437620987179
11
6627.64364814334
21
955.187110278856
31
0.000897874679815547
  0
LINE
 8
GROUP0
10
6627.37569766414
20
954.187110623648
30
0.000896820512797131
11
6627.57549912984
21
954.669472276343
31
0.000897437620987179
  0
LINE
 8
GROUP0
10
6627.05785988594
20
953.772897470261
30
0.000896065410061903
11
6627.37569766414
21
954.187110623648
31
0.000896820512797131
  0
LINE
 8
GROUP0
10
6626.64364591458
20
953.455060758066
30
0.000895223771656767
11
6627.05785988594
21
953.772897470261
31
0.000896065410061903
  0
LINE
 8
GROUP0
10
6626.16128374769
20
953.255260533749
30
0.000894352953907185
11
6626.64364591458
21
953.455060758066
31
0.000895223771656767
  0
LINE
 8
GROUP0
10
6625.64364556979
20
953.187112852412
30
0.000893512301762767
11
6626.16128374769
21
953.255260533749
31
0.000894352953907185
  0
LINE
 8
GROUP0
10
6625.12600756728
20
953.255261865918
30
0.000892759104201829
11
6625.64364556979
21
953.187112852412
31
0.000893512301762767
  0
LINE
 8
GROUP0
10
6624.64364591459
20
953.455063331619
30
0.000892144690351576
11
6625.12600756728
21
953.255261865918
31
0.000892759104201829
  0
LINE
 8
GROUP0
10
6624.2294327612
20
953.772901109815
30
0.000891710931340828
11
6624.64364591459
21
953.455063331619
31
0.000892144690351576
  0
LINE
 8
GROUP0
10
6623.91159604901
20
954.187115081173
30
0.000891487387477402
11
6624.2294327612
21
953.772901109815
31
0.000891710931340828
  0
LINE
 8
GROUP0
10
6623.71179582469
20
954.669477248066
30
0.000891489292648168
11
6623.91159604901
21
954.187115081173
31
0.000891487387477402
  0
LINE
 8
GROUP0
10
6623.64364814335
20
955.187115425962
30
0.000891716517114927
11
6623.71179582469
21
954.669477248066
31
0.000891489292648168
  0
LINE
 8
GROUP0
10
6623.71179715686
20
955.704753428474
30
0.000892153575762816
11
6623.64364814335
21
955.187115425962
31
0.000891716517114927
  0
LINE
 8
GROUP0
10
6623.91159862256
20
956.18711508117
30
0.000892770684044514
11
6623.71179715686
21
955.704753428474
31
0.000892153575762816
  0
LINE
 8
GROUP0
10
6578.91159604913
20
954.187176595337
30
0.000823917565963583
11
6579.22943276132
21
953.772962623986
31
0.000824141109824894
  0
LINE
 8
GROUP0
10
6578.71179582482
20
954.669538762222
30
0.000823919471134349
11
6578.91159604913
21
954.187176595337
31
0.000823917565963583
  0
LINE
 8
GROUP0
10
6578.64364814348
20
955.187176940109
30
0.000824146695510164
11
6578.71179582482
21
954.669538762222
31
0.000823919471134349
  0
LINE
 8
GROUP0
10
6578.71179715699
20
955.704814942613
30
0.000824583754248998
11
6578.64364814348
21
955.187176940109
31
0.000824146695510164
  0
LINE
 8
GROUP0
10
6578.91159862268
20
956.1871765953
30
0.000825200862530695
11
6578.71179715699
21
955.704814942613
31
0.000824583754248998
  0
LINE
 8
GROUP0
10
6579.22943640087
20
956.601389748681
30
0.000825955965263808
11
6578.91159862268
21
956.1871765953
31
0.000825200862530695
  0
LINE
 8
GROUP0
10
6579.64365037222
20
956.919226460871
30
0.000826797603578705
11
6579.22943640087
21
956.601389748681
31
0.000825955965263808
  0
LINE
 8
GROUP0
10
6580.1260125391
20
957.119026685184
30
0.000827668421238048
11
6579.64365037222
21
956.919226460871
31
0.000826797603578705
  0
LINE
 8
GROUP0
10
6580.64365071699
20
957.187174366521
30
0.000828509073562944
11
6580.1260125391
21
957.119026685184
31
0.000827668421238048
  0
LINE
 8
GROUP0
10
6581.1612887195
20
957.119025353016
30
0.000829262271034348
11
6580.64365071699
21
957.187174366521
31
0.000828509073562944
  0
LINE
 8
GROUP0
10
6581.64365037218
20
956.919223887318
30
0.000829876684974135
11
6581.1612887195
21
957.119025353016
31
0.000829262271034348
  0
LINE
 8
GROUP0
10
6582.05786352556
20
956.601386109129
30
0.000830310443895349
11
6581.64365037218
21
956.919223887318
31
0.000829876684974135
  0
LINE
 8
GROUP0
10
6582.37570023775
20
956.187172137778
30
0.00083053398775807
11
6582.05786352556
21
956.601386109129
31
0.000830310443895349
  0
LINE
 8
GROUP0
10
6582.57550046207
20
955.704809970892
30
0.000830532082676133
11
6582.37570023775
21
956.187172137778
31
0.00083053398775807
  0
LINE
 8
GROUP0
10
6582.6436481434
20
955.187171793005
30
0.000830304858210784
11
6582.57550046207
21
955.704809970892
31
0.000830532082676133
  0
LINE
 8
GROUP0
10
6582.5754991299
20
954.669533790501
30
0.000829867799562894
11
6582.6436481434
21
955.187171793005
31
0.000830304858210784
  0
LINE
 8
GROUP0
10
6582.3756976642
20
954.187172137814
30
0.000829250691282607
11
6582.5754991299
21
954.669533790501
31
0.000829867799562894
  0
LINE
 8
GROUP0
10
6582.05785988601
20
953.772958984434
30
0.000828495588457845
11
6582.3756976642
21
954.187172137814
31
0.000829250691282607
  0
LINE
 8
GROUP0
10
6581.64364591466
20
953.455122272244
30
0.000827653950142243
11
6582.05785988601
21
953.772958984434
31
0.000828495588457845
  0
LINE
 8
GROUP0
10
6581.16128374778
20
953.25532204793
30
0.000826783132482195
11
6581.64364591466
21
953.455122272244
31
0.000827653950142243
  0
LINE
 8
GROUP0
10
6580.64364556989
20
953.187174366593
30
0.000825942480248243
11
6581.16128374778
21
953.25532204793
31
0.000826783132482195
  0
LINE
 8
GROUP0
10
6580.12600756739
20
953.255323380099
30
0.000825189282685895
11
6580.64364556989
21
953.187174366593
31
0.000825942480248243
  0
LINE
 8
GROUP0
10
6579.6436459147
20
953.455124845796
30
0.000824574868837052
11
6580.12600756739
21
953.255323380099
31
0.000825189282685895
  0
LINE
 8
GROUP0
10
6579.22943276132
20
953.772962623986
30
0.000824141109824894
11
6579.6436459147
21
953.455124845796
31
0.000824574868837052
  0
LINE
 8
GROUP0
10
6578.91159604913
20
929.187176595336
30
0.000823917563043508
11
6579.22943276132
21
928.772962623985
31
0.000824141106906229
  0
LINE
 8
GROUP0
10
6578.71179582482
20
929.669538762222
30
0.000823919468215684
11
6578.91159604913
21
929.187176595336
31
0.000823917563043508
  0
LINE
 8
GROUP0
10
6578.64364814348
20
930.187176940109
30
0.000824146692592204
11
6578.71179582482
21
929.669538762222
31
0.000823919468215684
  0
LINE
 8
GROUP0
10
6578.71179715699
20
930.704814942613
30
0.000824583751330332
11
6578.64364814348
21
930.187176940109
31
0.000824146692592204
  0
LINE
 8
GROUP0
10
6578.91159862268
20
931.1871765953
30
0.00082520085961203
11
6578.71179715699
21
930.704814942613
31
0.000824583751330332
  0
LINE
 8
GROUP0
10
6579.22943640087
20
931.601389748681
30
0.000825955962345848
11
6578.91159862268
21
931.1871765953
31
0.00082520085961203
  0
LINE
 8
GROUP0
10
6579.64365037222
20
931.919226460871
30
0.000826797600660745
11
6579.22943640087
21
931.601389748681
31
0.000825955962345848
  0
LINE
 8
GROUP0
10
6580.1260125391
20
932.119026685184
30
0.000827668418319383
11
6579.64365037222
21
931.919226460871
31
0.000826797600660745
  0
LINE
 8
GROUP0
10
6580.64365071699
20
932.187174366521
30
0.000828509070644984
11
6580.1260125391
21
932.119026685184
31
0.000827668418319383
  0
LINE
 8
GROUP0
10
6581.1612887195
20
932.119025353016
30
0.000829262268115682
11
6580.64365071699
21
932.187174366521
31
0.000828509070644984
  0
LINE
 8
GROUP0
10
6581.64365037218
20
931.919223887319
30
0.000829876682056174
11
6581.1612887195
21
932.119025353016
31
0.000829262268115682
  0
LINE
 8
GROUP0
10
6582.05786352556
20
931.601386109128
30
0.000830310440976684
11
6581.64365037218
21
931.919223887319
31
0.000829876682056174
  0
LINE
 8
GROUP0
10
6582.37570023775
20
931.187172137778
30
0.000830533984839404
11
6582.05786352556
21
931.601386109128
31
0.000830310440976684
  0
LINE
 8
GROUP0
10
6582.57550046207
20
930.704809970893
30
0.000830532079757468
11
6582.37570023775
21
931.187172137778
31
0.000830533984839404
  0
LINE
 8
GROUP0
10
6582.6436481434
20
930.187171793005
30
0.000830304855292824
11
6582.57550046207
21
930.704809970893
31
0.000830532079757468
  0
LINE
 8
GROUP0
10
6582.5754991299
20
929.669533790501
30
0.000829867796644229
11
6582.6436481434
21
930.187171793005
31
0.000830304855292824
  0
LINE
 8
GROUP0
10
6582.3756976642
20
929.187172137814
30
0.000829250688363237
11
6582.5754991299
21
929.669533790501
31
0.000829867796644229
  0
LINE
 8
GROUP0
10
6582.05785988601
20
928.772958984434
30
0.000828495585539179
11
6582.3756976642
21
929.187172137814
31
0.000829250688363237
  0
LINE
 8
GROUP0
10
6581.64364591466
20
928.455122272244
30
0.000827653947224283
11
6582.05785988601
21
928.772958984434
31
0.000828495585539179
  0
LINE
 8
GROUP0
10
6581.16128374778
20
928.25532204793
30
0.00082678312956353
11
6581.64364591466
21
928.455122272244
31
0.000827653947224283
  0
LINE
 8
GROUP0
10
6580.64364556989
20
928.187174366593
30
0.000825942477330283
11
6581.16128374778
21
928.25532204793
31
0.00082678312956353
  0
LINE
 8
GROUP0
10
6580.12600756739
20
928.255323380098
30
0.00082518927976723
11
6580.64364556989
21
928.187174366593
31
0.000825942477330283
  0
LINE
 8
GROUP0
10
6579.6436459147
20
928.455124845796
30
0.000824574865919092
11
6580.12600756739
21
928.255323380098
31
0.00082518927976723
  0
LINE
 8
GROUP0
10
6579.22943276132
20
928.772962623985
30
0.000824141106906229
11
6579.6436459147
21
928.455124845796
31
0.000824574865919092
  0
LINE
 8
GROUP0
10
6624.22943640075
20
931.601328234556
30
0.000893525783859667
11
6623.91159862256
21
931.18711508117
31
0.000892770681126553
  0
LINE
 8
GROUP0
10
6624.64365037211
20
931.919164946751
30
0.000894367422264802
11
6624.22943640075
21
931.601328234556
31
0.000893525783859667
  0
LINE
 8
GROUP0
10
6625.126012539
20
932.118965171068
30
0.000895238239924145
11
6624.64365037211
21
931.919164946751
31
0.000894367422264802
  0
LINE
 8
GROUP0
10
6625.6436507169
20
932.187112852406
30
0.000896078892068564
11
6625.126012539
21
932.118965171068
31
0.000895238239924145
  0
LINE
 8
GROUP0
10
6626.16128871941
20
932.118963838899
30
0.000896832089631616
11
6625.6436507169
21
932.187112852406
31
0.000896078892068564
  0
LINE
 8
GROUP0
10
6626.6436503721
20
931.919162373198
30
0.000897446503569993
11
6626.16128871941
21
932.118963838899
31
0.000896832089631616
  0
LINE
 8
GROUP0
10
6627.05786352549
20
931.601324595003
30
0.000897880262491207
11
6626.6436503721
21
931.919162373198
31
0.000897446503569993
  0
LINE
 8
GROUP0
10
6627.37570023769
20
931.187110623645
30
0.000898103806445577
11
6627.05786352549
21
931.601324595003
31
0.000897880262491207
  0
LINE
 8
GROUP0
10
6627.575500462
20
930.704748456752
30
0.000898101901273402
11
6627.37570023769
21
931.187110623645
31
0.000898103806445577
  0
LINE
 8
GROUP0
10
6627.64364814334
20
930.187110278856
30
0.000897874676896881
11
6627.575500462
21
930.704748456752
31
0.000898101901273402
  0
LINE
 8
GROUP0
10
6627.57549912984
20
929.669472276343
30
0.000897437618068514
11
6627.64364814334
21
930.187110278856
31
0.000897874676896881
  0
LINE
 8
GROUP0
10
6627.37569766414
20
929.187110623648
30
0.000896820509877055
11
6627.57549912984
21
929.669472276343
31
0.000897437618068514
  0
LINE
 8
GROUP0
10
6627.05785988594
20
928.772897470261
30
0.000896065407143942
11
6627.37569766414
21
929.187110623648
31
0.000896820509877055
  0
LINE
 8
GROUP0
10
6626.64364591458
20
928.455060758066
30
0.000895223768738102
11
6627.05785988594
21
928.772897470261
31
0.000896065407143942
  0
LINE
 8
GROUP0
10
6626.16128374769
20
928.255260533749
30
0.000894352950989224
11
6626.64364591458
21
928.455060758066
31
0.000895223768738102
  0
LINE
 8
GROUP0
10
6625.64364556979
20
928.187112852412
30
0.000893512298844101
11
6626.16128374769
21
928.255260533749
31
0.000894352950989224
  0
LINE
 8
GROUP0
10
6625.12600756728
20
928.255261865918
30
0.000892759101283164
11
6625.64364556979
21
928.187112852412
31
0.000893512298844101
  0
LINE
 8
GROUP0
10
6624.64364591459
20
928.455063331619
30
0.000892144687432911
11
6625.12600756728
21
928.255261865918
31
0.000892759101283164
  0
LINE
 8
GROUP0
10
6624.2294327612
20
928.772901109815
30
0.000891710928422162
11
6624.64364591459
21
928.455063331619
31
0.000892144687432911
  0
LINE
 8
GROUP0
10
6623.91159604901
20
929.187115081173
30
0.000891487384558032
11
6624.2294327612
21
928.772901109815
31
0.000891710928422162
  0
LINE
 8
GROUP0
10
6623.71179582469
20
929.669477248066
30
0.000891489289730207
11
6623.91159604901
21
929.187115081173
31
0.000891487384558032
  0
LINE
 8
GROUP0
10
6623.64364814335
20
930.187115425962
30
0.000891716514196966
11
6623.71179582469
21
929.669477248066
31
0.000891489289730207
  0
LINE
 8
GROUP0
10
6623.71179715686
20
930.704753428475
30
0.000892153572844856
11
6623.64364814335
21
930.187115425962
31
0.000891716514196966
  0
LINE
 8
GROUP0
10
6623.91159862256
20
931.18711508117
30
0.000892770681126553
11
6623.71179715686
21
930.704753428475
31
0.000892153572844856
  0
LINE
 8
GROUP0
10
6578.91159604913
20
904.187176595336
30
0.000823917560124843
11
6579.22943276132
21
903.772962623986
31
0.000824141103986153
  0
LINE
 8
GROUP0
10
6578.71179582482
20
904.669538762222
30
0.000823919465297018
11
6578.91159604913
21
904.187176595336
31
0.000823917560124843
  0
LINE
 8
GROUP0
10
6578.64364814348
20
905.187176940109
30
0.000824146689673538
11
6578.71179582482
21
904.669538762222
31
0.000823919465297018
  0
LINE
 8
GROUP0
10
6578.71179715699
20
905.704814942613
30
0.000824583748410257
11
6578.64364814348
21
905.187176940109
31
0.000824146689673538
  0
LINE
 8
GROUP0
10
6578.91159862268
20
906.1871765953
30
0.000825200856691954
11
6578.71179715699
21
905.704814942613
31
0.000824583748410257
  0
LINE
 8
GROUP0
10
6579.22943640087
20
906.60138974868
30
0.000825955959427183
11
6578.91159862268
21
906.1871765953
31
0.000825200856691954
  0
LINE
 8
GROUP0
10
6579.64365037222
20
906.91922646087
30
0.000826797597742079
11
6579.22943640087
21
906.60138974868
31
0.000825955959427183
  0
LINE
 8
GROUP0
10
6580.1260125391
20
907.119026685184
30
0.000827668415401422
11
6579.64365037222
21
906.91922646087
31
0.000826797597742079
  0
LINE
 8
GROUP0
10
6580.64365071699
20
907.187174366521
30
0.000828509067726318
11
6580.1260125391
21
907.119026685184
31
0.000827668415401422
  0
LINE
 8
GROUP0
10
6581.1612887195
20
907.119025353016
30
0.000829262265197722
11
6580.64365071699
21
907.187174366521
31
0.000828509067726318
  0
LINE
 8
GROUP0
10
6581.64365037218
20
906.919223887318
30
0.000829876679137509
11
6581.1612887195
21
907.119025353016
31
0.000829262265197722
  0
LINE
 8
GROUP0
10
6582.05786352556
20
906.601386109129
30
0.000830310438058018
11
6581.64365037218
21
906.919223887318
31
0.000829876679137509
  0
LINE
 8
GROUP0
10
6582.37570023775
20
906.187172137778
30
0.000830533981920034
11
6582.05786352556
21
906.601386109129
31
0.000830310438058018
  0
LINE
 8
GROUP0
10
6582.57550046207
20
905.704809970892
30
0.000830532076838097
11
6582.37570023775
21
906.187172137778
31
0.000830533981920034
  0
LINE
 8
GROUP0
10
6582.6436481434
20
905.187171793005
30
0.000830304852374158
11
6582.57550046207
21
905.704809970892
31
0.000830532076838097
  0
LINE
 8
GROUP0
10
6582.5754991299
20
904.669533790501
30
0.000829867793726269
11
6582.6436481434
21
905.187171793005
31
0.000830304852374158
  0
LINE
 8
GROUP0
10
6582.3756976642
20
904.187172137814
30
0.000829250685444571
11
6582.5754991299
21
904.669533790501
31
0.000829867793726269
  0
LINE
 8
GROUP0
10
6582.05785988601
20
903.772958984434
30
0.000828495582619104
11
6582.3756976642
21
904.187172137814
31
0.000829250685444571
  0
LINE
 8
GROUP0
10
6581.64364591466
20
903.455122272244
30
0.000827653944305617
11
6582.05785988601
21
903.772958984434
31
0.000828495582619104
  0
LINE
 8
GROUP0
10
6581.16128374778
20
903.25532204793
30
0.000826783126644864
11
6581.64364591466
21
903.455122272244
31
0.000827653944305617
  0
LINE
 8
GROUP0
10
6580.64364556989
20
903.187174366593
30
0.000825942474410207
11
6581.16128374778
21
903.25532204793
31
0.000826783126644864
  0
LINE
 8
GROUP0
10
6580.12600756739
20
903.255323380098
30
0.000825189276848565
11
6580.64364556989
21
903.187174366593
31
0.000825942474410207
  0
LINE
 8
GROUP0
10
6579.6436459147
20
903.455124845796
30
0.000824574863000427
11
6580.12600756739
21
903.255323380098
31
0.000825189276848565
  0
LINE
 8
GROUP0
10
6579.22943276132
20
903.772962623986
30
0.000824141103986153
11
6579.6436459147
21
903.455124845796
31
0.000824574863000427
  0
LINE
 8
GROUP0
10
6624.22943640075
20
906.601328234557
30
0.000893525780941706
11
6623.91159862256
21
906.18711508117
31
0.000892770678206478
  0
LINE
 8
GROUP0
10
6624.64365037211
20
906.919164946752
30
0.000894367419346842
11
6624.22943640075
21
906.601328234557
31
0.000893525780941706
  0
LINE
 8
GROUP0
10
6625.126012539
20
907.118965171069
30
0.00089523823700548
11
6624.64365037211
21
906.919164946752
31
0.000894367419346842
  0
LINE
 8
GROUP0
10
6625.6436507169
20
907.187112852406
30
0.000896078889150603
11
6625.126012539
21
907.118965171069
31
0.00089523823700548
  0
LINE
 8
GROUP0
10
6626.16128871941
20
907.118963838899
30
0.000896832086712951
11
6625.6436507169
21
907.187112852406
31
0.000896078889150603
  0
LINE
 8
GROUP0
10
6626.6436503721
20
906.919162373198
30
0.000897446500652033
11
6626.16128871941
21
907.118963838899
31
0.000896832086712951
  0
LINE
 8
GROUP0
10
6627.05786352549
20
906.601324595003
30
0.000897880259572542
11
6626.6436503721
21
906.919162373198
31
0.000897446500652033
  0
LINE
 8
GROUP0
10
6627.37570023769
20
906.187110623645
30
0.000898103803525502
11
6627.05786352549
21
906.601324595003
31
0.000897880259572542
  0
LINE
 8
GROUP0
10
6627.57550046201
20
905.704748456751
30
0.000898101898353326
11
6627.37570023769
21
906.187110623645
31
0.000898103803525502
  0
LINE
 8
GROUP0
10
6627.64364814334
20
905.187110278856
30
0.000897874673978921
11
6627.57550046201
21
905.704748456751
31
0.000898101898353326
  0
LINE
 8
GROUP0
10
6627.57549912983
20
904.669472276343
30
0.000897437615149849
11
6627.64364814334
21
905.187110278856
31
0.000897874673978921
  0
LINE
 8
GROUP0
10
6627.37569766414
20
904.187110623648
30
0.00089682050695839
11
6627.57549912983
21
904.669472276343
31
0.000897437615149849
  0
LINE
 8
GROUP0
10
6627.05785988594
20
903.772897470261
30
0.000896065404223867
11
6627.37569766414
21
904.187110623648
31
0.00089682050695839
  0
LINE
 8
GROUP0
10
6626.64364591458
20
903.455060758066
30
0.000895223765820141
11
6627.05785988594
21
903.772897470261
31
0.000896065404223867
  0
LINE
 8
GROUP0
10
6626.16128374769
20
903.255260533749
30
0.000894352948070559
11
6626.64364591458
21
903.455060758066
31
0.000895223765820141
  0
LINE
 8
GROUP0
10
6625.64364556979
20
903.187112852412
30
0.000893512295924731
11
6626.16128374769
21
903.255260533749
31
0.000894352948070559
  0
LINE
 8
GROUP0
10
6625.12600756728
20
903.255261865918
30
0.000892759098364498
11
6625.64364556979
21
903.187112852412
31
0.000893512295924731
  0
LINE
 8
GROUP0
10
6624.64364591459
20
903.455063331619
30
0.00089214468451495
11
6625.12600756728
21
903.255261865918
31
0.000892759098364498
  0
LINE
 8
GROUP0
10
6624.2294327612
20
903.772901109815
30
0.000891710925502087
11
6624.64364591459
21
903.455063331619
31
0.00089214468451495
  0
LINE
 8
GROUP0
10
6623.91159604901
20
904.187115081173
30
0.000891487381639366
11
6624.2294327612
21
903.772901109815
31
0.000891710925502087
  0
LINE
 8
GROUP0
10
6623.71179582469
20
904.669477248066
30
0.000891489286811542
11
6623.91159604901
21
904.187115081173
31
0.000891487381639366
  0
LINE
 8
GROUP0
10
6623.64364814335
20
905.187115425962
30
0.000891716511278301
11
6623.71179582469
21
904.669477248066
31
0.000891489286811542
  0
LINE
 8
GROUP0
10
6623.71179715686
20
905.704753428474
30
0.000892153569924781
11
6623.64364814335
21
905.187115425962
31
0.000891716511278301
  0
LINE
 8
GROUP0
10
6623.91159862256
20
906.18711508117
30
0.000892770678206478
11
6623.71179715686
21
905.704753428474
31
0.000892153569924781
  0
LINE
 8
GROUP0
10
6624.22943640075
20
881.601328234556
30
0.000893525778023041
11
6623.91159862256
21
881.18711508117
31
0.000892770675287813
  0
LINE
 8
GROUP0
10
6624.64365037211
20
881.919164946751
30
0.000894367416426767
11
6624.22943640075
21
881.601328234556
31
0.000893525778023041
  0
LINE
 8
GROUP0
10
6625.126012539
20
882.118965171068
30
0.00089523823408611
11
6624.64365037211
21
881.919164946751
31
0.000894367416426767
  0
LINE
 8
GROUP0
10
6625.6436507169
20
882.187112852406
30
0.000896078886231938
11
6625.126012539
21
882.118965171068
31
0.00089523823408611
  0
LINE
 8
GROUP0
10
6626.16128871941
20
882.118963838899
30
0.000896832083793581
11
6625.6436507169
21
882.187112852406
31
0.000896078886231938
  0
LINE
 8
GROUP0
10
6626.6436503721
20
881.919162373198
30
0.000897446497731957
11
6626.16128871941
21
882.118963838899
31
0.000896832083793581
  0
LINE
 8
GROUP0
10
6627.05786352549
20
881.601324595003
30
0.000897880256653877
11
6626.6436503721
21
881.919162373198
31
0.000897446497731957
  0
LINE
 8
GROUP0
10
6627.37570023769
20
881.187110623645
30
0.000898103800607541
11
6627.05786352549
21
881.601324595003
31
0.000897880256653877
  0
LINE
 8
GROUP0
10
6627.57550046201
20
880.704748456751
30
0.000898101895435366
11
6627.37570023769
21
881.187110623645
31
0.000898103800607541
  0
LINE
 8
GROUP0
10
6627.64364814334
20
880.187110278855
30
0.000897874671058846
11
6627.57550046201
21
880.704748456751
31
0.000898101895435366
  0
LINE
 8
GROUP0
10
6627.57549912983
20
879.669472276343
30
0.000897437612231888
11
6627.64364814334
21
880.187110278855
31
0.000897874671058846
  0
LINE
 8
GROUP0
10
6627.37569766414
20
879.187110623648
30
0.00089682050404043
11
6627.57549912983
21
879.669472276343
31
0.000897437612231888
  0
LINE
 8
GROUP0
10
6627.05785988594
20
878.772897470261
30
0.000896065401305202
11
6627.37569766414
21
879.187110623648
31
0.00089682050404043
  0
LINE
 8
GROUP0
10
6626.64364591458
20
878.455060758066
30
0.000895223762901476
11
6627.05785988594
21
878.772897470261
31
0.000896065401305202
  0
LINE
 8
GROUP0
10
6626.16128374769
20
878.255260533749
30
0.000894352945150484
11
6626.64364591458
21
878.455060758066
31
0.000895223762901476
  0
LINE
 8
GROUP0
10
6625.64364556979
20
878.187112852412
30
0.000893512293006066
11
6626.16128374769
21
878.255260533749
31
0.000894352945150484
  0
LINE
 8
GROUP0
10
6625.12600756728
20
878.255261865918
30
0.000892759095444423
11
6625.64364556979
21
878.187112852412
31
0.000893512293006066
  0
LINE
 8
GROUP0
10
6624.64364591459
20
878.455063331619
30
0.000892144681596285
11
6625.12600756728
21
878.255261865918
31
0.000892759095444423
  0
LINE
 8
GROUP0
10
6624.2294327612
20
878.772901109815
30
0.000891710922583422
11
6624.64364591459
21
878.455063331619
31
0.000892144681596285
  0
LINE
 8
GROUP0
10
6623.91159604901
20
879.187115081173
30
0.000891487378720701
11
6624.2294327612
21
878.772901109815
31
0.000891710922583422
  0
LINE
 8
GROUP0
10
6623.71179582469
20
879.669477248066
30
0.000891489283892877
11
6623.91159604901
21
879.187115081173
31
0.000891487378720701
  0
LINE
 8
GROUP0
10
6623.64364814335
20
880.187115425962
30
0.000891716508358226
11
6623.71179582469
21
879.669477248066
31
0.000891489283892877
  0
LINE
 8
GROUP0
10
6623.71179715686
20
880.704753428474
30
0.000892153567006115
11
6623.64364814335
21
880.187115425962
31
0.000891716508358226
  0
LINE
 8
GROUP0
10
6623.91159862256
20
881.18711508117
30
0.000892770675287813
11
6623.71179715686
21
880.704753428474
31
0.000892153567006115
  0
LINE
 8
GROUP0
10
6578.91159604913
20
879.187176595336
30
0.000823917557206177
11
6579.22943276132
21
878.772962623986
31
0.000824141101068193
  0
LINE
 8
GROUP0
10
6578.71179582482
20
879.669538762222
30
0.000823919462378353
11
6578.91159604913
21
879.187176595336
31
0.000823917557206177
  0
LINE
 8
GROUP0
10
6578.64364814348
20
880.187176940109
30
0.000824146686753463
11
6578.71179582482
21
879.669538762222
31
0.000823919462378353
  0
LINE
 8
GROUP0
10
6578.71179715699
20
880.704814942613
30
0.000824583745491592
11
6578.64364814348
21
880.187176940109
31
0.000824146686753463
  0
LINE
 8
GROUP0
10
6578.91159862268
20
881.1871765953
30
0.000825200853773289
11
6578.71179715699
21
880.704814942613
31
0.000824583745491592
  0
LINE
 8
GROUP0
10
6579.22943640087
20
881.60138974868
30
0.000825955956508517
11
6578.91159862268
21
881.1871765953
31
0.000825200853773289
  0
LINE
 8
GROUP0
10
6579.64365037222
20
881.91922646087
30
0.000826797594822004
11
6579.22943640087
21
881.60138974868
31
0.000825955956508517
  0
LINE
 8
GROUP0
10
6580.1260125391
20
882.119026685184
30
0.000827668412481347
11
6579.64365037222
21
881.91922646087
31
0.000826797594822004
  0
LINE
 8
GROUP0
10
6580.64365071699
20
882.187174366521
30
0.000828509064807653
11
6580.1260125391
21
882.119026685184
31
0.000827668412481347
  0
LINE
 8
GROUP0
10
6581.1612887195
20
882.119025353016
30
0.000829262262277647
11
6580.64365071699
21
882.187174366521
31
0.000828509064807653
  0
LINE
 8
GROUP0
10
6581.64365037218
20
881.919223887319
30
0.000829876676217434
11
6581.1612887195
21
882.119025353016
31
0.000829262262277647
  0
LINE
 8
GROUP0
10
6582.05786352556
20
881.601386109128
30
0.000830310435140058
11
6581.64365037218
21
881.919223887319
31
0.000829876676217434
  0
LINE
 8
GROUP0
10
6582.37570023775
20
881.187172137778
30
0.000830533979001369
11
6582.05786352556
21
881.601386109128
31
0.000830310435140058
  0
LINE
 8
GROUP0
10
6582.57550046207
20
880.704809970892
30
0.000830532073919432
11
6582.37570023775
21
881.187172137778
31
0.000830533979001369
  0
LINE
 8
GROUP0
10
6582.6436481434
20
880.187171793005
30
0.000830304849454083
11
6582.57550046207
21
880.704809970892
31
0.000830532073919432
  0
LINE
 8
GROUP0
10
6582.5754991299
20
879.669533790501
30
0.000829867790807604
11
6582.6436481434
21
880.187171793005
31
0.000830304849454083
  0
LINE
 8
GROUP0
10
6582.3756976642
20
879.187172137814
30
0.000829250682525906
11
6582.5754991299
21
879.669533790501
31
0.000829867790807604
  0
LINE
 8
GROUP0
10
6582.05785988601
20
878.772958984434
30
0.000828495579700439
11
6582.3756976642
21
879.187172137814
31
0.000829250682525906
  0
LINE
 8
GROUP0
10
6581.64364591466
20
878.455122272244
30
0.000827653941386952
11
6582.05785988601
21
878.772958984434
31
0.000828495579700439
  0
LINE
 8
GROUP0
10
6581.16128374778
20
878.25532204793
30
0.000826783123724789
11
6581.64364591466
21
878.455122272244
31
0.000827653941386952
  0
LINE
 8
GROUP0
10
6580.64364556989
20
878.187174366593
30
0.000825942471491542
11
6581.16128374778
21
878.25532204793
31
0.000826783123724789
  0
LINE
 8
GROUP0
10
6580.12600756739
20
878.255323380098
30
0.000825189273929194
11
6580.64364556989
21
878.187174366593
31
0.000825942471491542
  0
LINE
 8
GROUP0
10
6579.6436459147
20
878.455124845796
30
0.000824574860081761
11
6580.12600756739
21
878.255323380098
31
0.000825189273929194
  0
LINE
 8
GROUP0
10
6579.22943276132
20
878.772962623986
30
0.000824141101068193
11
6579.6436459147
21
878.455124845796
31
0.000824574860081761
  0
LINE
 8
GROUP0
10
6578.91159604913
20
854.187176595336
30
0.000823917554288217
11
6579.22943276132
21
853.772962623985
31
0.000824141098149528
  0
LINE
 8
GROUP0
10
6578.71179582482
20
854.669538762222
30
0.000823919459458983
11
6578.91159604913
21
854.187176595336
31
0.000823917554288217
  0
LINE
 8
GROUP0
10
6578.64364814348
20
855.187176940109
30
0.000824146683834798
11
6578.71179582482
21
854.669538762222
31
0.000823919459458983
  0
LINE
 8
GROUP0
10
6578.71179715699
20
855.704814942613
30
0.000824583742573631
11
6578.64364814348
21
855.187176940109
31
0.000824146683834798
  0
LINE
 8
GROUP0
10
6578.91159862268
20
856.1871765953
30
0.000825200850855329
11
6578.71179715699
21
855.704814942613
31
0.000824583742573631
  0
LINE
 8
GROUP0
10
6579.22943640087
20
856.60138974868
30
0.000825955953588442
11
6578.91159862268
21
856.1871765953
31
0.000825200850855329
  0
LINE
 8
GROUP0
10
6579.64365037222
20
856.91922646087
30
0.000826797591903339
11
6579.22943640087
21
856.60138974868
31
0.000825955953588442
  0
LINE
 8
GROUP0
10
6580.1260125391
20
857.119026685184
30
0.000827668409562682
11
6579.64365037222
21
856.91922646087
31
0.000826797591903339
  0
LINE
 8
GROUP0
10
6580.64365071699
20
857.187174366521
30
0.000828509061887578
11
6580.1260125391
21
857.119026685184
31
0.000827668409562682
  0
LINE
 8
GROUP0
10
6581.1612887195
20
857.119025353016
30
0.000829262259358982
11
6580.64365071699
21
857.187174366521
31
0.000828509061887578
  0
LINE
 8
GROUP0
10
6581.64365037218
20
856.919223887318
30
0.000829876673298768
11
6581.1612887195
21
857.119025353016
31
0.000829262259358982
  0
LINE
 8
GROUP0
10
6582.05786352556
20
856.601386109129
30
0.000830310432219983
11
6581.64365037218
21
856.919223887318
31
0.000829876673298768
  0
LINE
 8
GROUP0
10
6582.37570023775
20
856.187172137777
30
0.000830533976082703
11
6582.05786352556
21
856.601386109129
31
0.000830310432219983
  0
LINE
 8
GROUP0
10
6582.57550046207
20
855.704809970892
30
0.000830532071000767
11
6582.37570023775
21
856.187172137777
31
0.000830533976082703
  0
LINE
 8
GROUP0
10
6582.6436481434
20
855.187171793005
30
0.000830304846535418
11
6582.57550046207
21
855.704809970892
31
0.000830532071000767
  0
LINE
 8
GROUP0
10
6582.5754991299
20
854.669533790501
30
0.000829867787887528
11
6582.6436481434
21
855.187171793005
31
0.000830304846535418
  0
LINE
 8
GROUP0
10
6582.3756976642
20
854.187172137814
30
0.000829250679607241
11
6582.5754991299
21
854.669533790501
31
0.000829867787887528
  0
LINE
 8
GROUP0
10
6582.05785988601
20
853.772958984434
30
0.000828495576782479
11
6582.3756976642
21
854.187172137814
31
0.000829250679607241
  0
LINE
 8
GROUP0
10
6581.64364591466
20
853.455122272244
30
0.000827653938466877
11
6582.05785988601
21
853.772958984434
31
0.000828495576782479
  0
LINE
 8
GROUP0
10
6581.16128374778
20
853.25532204793
30
0.000826783120806829
11
6581.64364591466
21
853.455122272244
31
0.000827653938466877
  0
LINE
 8
GROUP0
10
6580.64364556989
20
853.187174366593
30
0.000825942468572877
11
6581.16128374778
21
853.25532204793
31
0.000826783120806829
  0
LINE
 8
GROUP0
10
6580.12600756739
20
853.255323380098
30
0.000825189271010529
11
6580.64364556989
21
853.187174366593
31
0.000825942468572877
  0
LINE
 8
GROUP0
10
6579.6436459147
20
853.455124845795
30
0.000824574857161686
11
6580.12600756739
21
853.255323380098
31
0.000825189271010529
  0
LINE
 8
GROUP0
10
6579.22943276132
20
853.772962623985
30
0.000824141098149528
11
6579.6436459147
21
853.455124845795
31
0.000824574857161686
  0
LINE
 8
GROUP0
10
6624.22943640075
20
856.601328234557
30
0.000893525775102966
11
6623.91159862256
21
856.18711508117
31
0.000892770672369148
  0
LINE
 8
GROUP0
10
6624.64365037211
20
856.919164946752
30
0.000894367413508101
11
6624.22943640075
21
856.601328234557
31
0.000893525775102966
  0
LINE
 8
GROUP0
10
6625.126012539
20
857.118965171068
30
0.000895238231167444
11
6624.64365037211
21
856.919164946752
31
0.000894367413508101
  0
LINE
 8
GROUP0
10
6625.6436507169
20
857.187112852406
30
0.000896078883311863
11
6625.126012539
21
857.118965171068
31
0.000895238231167444
  0
LINE
 8
GROUP0
10
6626.16128871941
20
857.118963838899
30
0.000896832080874915
11
6625.6436507169
21
857.187112852406
31
0.000896078883311863
  0
LINE
 8
GROUP0
10
6626.6436503721
20
856.919162373198
30
0.000897446494813292
11
6626.16128871941
21
857.118963838899
31
0.000896832080874915
  0
LINE
 8
GROUP0
10
6627.05786352549
20
856.601324595003
30
0.000897880253734506
11
6626.6436503721
21
856.919162373198
31
0.000897446494813292
  0
LINE
 8
GROUP0
10
6627.37570023769
20
856.187110623645
30
0.000898103797688876
11
6627.05786352549
21
856.601324595003
31
0.000897880253734506
  0
LINE
 8
GROUP0
10
6627.575500462
20
855.704748456751
30
0.000898101892516701
11
6627.37570023769
21
856.187110623645
31
0.000898103797688876
  0
LINE
 8
GROUP0
10
6627.64364814334
20
855.187110278855
30
0.000897874668140181
11
6627.575500462
21
855.704748456751
31
0.000898101892516701
  0
LINE
 8
GROUP0
10
6627.57549912983
20
854.669472276343
30
0.000897437609311813
11
6627.64364814334
21
855.187110278855
31
0.000897874668140181
  0
LINE
 8
GROUP0
10
6627.37569766414
20
854.187110623648
30
0.000896820501121764
11
6627.57549912983
21
854.669472276343
31
0.000897437609311813
  0
LINE
 8
GROUP0
10
6627.05785988594
20
853.772897470261
30
0.000896065398386536
11
6627.37569766414
21
854.187110623648
31
0.000896820501121764
  0
LINE
 8
GROUP0
10
6626.64364591458
20
853.455060758066
30
0.000895223759981401
11
6627.05785988594
21
853.772897470261
31
0.000896065398386536
  0
LINE
 8
GROUP0
10
6626.16128374769
20
853.255260533749
30
0.000894352942231819
11
6626.64364591458
21
853.455060758066
31
0.000895223759981401
  0
LINE
 8
GROUP0
10
6625.64364556979
20
853.187112852412
30
0.0008935122900874
11
6626.16128374769
21
853.255260533749
31
0.000894352942231819
  0
LINE
 8
GROUP0
10
6625.12600756728
20
853.255261865918
30
0.000892759092526463
11
6625.64364556979
21
853.187112852412
31
0.0008935122900874
  0
LINE
 8
GROUP0
10
6624.64364591459
20
853.455063331619
30
0.00089214467867621
11
6625.12600756728
21
853.255261865918
31
0.000892759092526463
  0
LINE
 8
GROUP0
10
6624.2294327612
20
853.772901109815
30
0.000891710919665462
11
6624.64364591459
21
853.455063331619
31
0.00089214467867621
  0
LINE
 8
GROUP0
10
6623.91159604901
20
854.187115081173
30
0.000891487375802036
11
6624.2294327612
21
853.772901109815
31
0.000891710919665462
  0
LINE
 8
GROUP0
10
6623.71179582469
20
854.669477248066
30
0.000891489280973506
11
6623.91159604901
21
854.187115081173
31
0.000891487375802036
  0
LINE
 8
GROUP0
10
6623.64364814335
20
855.187115425962
30
0.00089171650543956
11
6623.71179582469
21
854.669477248066
31
0.000891489280973506
  0
LINE
 8
GROUP0
10
6623.71179715686
20
855.704753428474
30
0.000892153564088155
11
6623.64364814335
21
855.187115425962
31
0.00089171650543956
  0
LINE
 8
GROUP0
10
6623.91159862256
20
856.18711508117
30
0.000892770672369148
11
6623.71179715686
21
855.704753428474
31
0.000892153564088155
  0
LINE
 8
GROUP0
10
6578.91159604913
20
829.187176595337
30
0.000823917551368142
11
6579.22943276132
21
828.772962623986
31
0.000824141095230863
  0
LINE
 8
GROUP0
10
6578.71179582482
20
829.669538762221
30
0.000823919456540317
11
6578.91159604913
21
829.187176595337
31
0.000823917551368142
  0
LINE
 8
GROUP0
10
6578.64364814348
20
830.187176940109
30
0.000824146680916837
11
6578.71179582482
21
829.669538762221
31
0.000823919456540317
  0
LINE
 8
GROUP0
10
6578.71179715699
20
830.704814942613
30
0.000824583739654966
11
6578.64364814348
21
830.187176940109
31
0.000824146680916837
  0
LINE
 8
GROUP0
10
6578.91159862268
20
831.1871765953
30
0.000825200847936663
11
6578.71179715699
21
830.704814942613
31
0.000824583739654966
  0
LINE
 8
GROUP0
10
6579.22943640087
20
831.60138974868
30
0.000825955950670482
11
6578.91159862268
21
831.1871765953
31
0.000825200847936663
  0
LINE
 8
GROUP0
10
6579.64365037222
20
831.91922646087
30
0.000826797588985378
11
6579.22943640087
21
831.60138974868
31
0.000825955950670482
  0
LINE
 8
GROUP0
10
6580.1260125391
20
832.119026685184
30
0.000827668406644016
11
6579.64365037222
21
831.91922646087
31
0.000826797588985378
  0
LINE
 8
GROUP0
10
6580.64365071699
20
832.18717436652
30
0.000828509058969618
11
6580.1260125391
21
832.119026685184
31
0.000827668406644016
  0
LINE
 8
GROUP0
10
6581.1612887195
20
832.119025353016
30
0.000829262256440316
11
6580.64365071699
21
832.18717436652
31
0.000828509058969618
  0
LINE
 8
GROUP0
10
6581.64365037218
20
831.919223887318
30
0.000829876670380808
11
6581.1612887195
21
832.119025353016
31
0.000829262256440316
  0
LINE
 8
GROUP0
10
6582.05786352556
20
831.601386109128
30
0.000830310429301317
11
6581.64365037218
21
831.919223887318
31
0.000829876670380808
  0
LINE
 8
GROUP0
10
6582.37570023775
20
831.187172137778
30
0.000830533973164038
11
6582.05786352556
21
831.601386109128
31
0.000830310429301317
  0
LINE
 8
GROUP0
10
6582.57550046207
20
830.704809970892
30
0.000830532068082102
11
6582.37570023775
21
831.187172137778
31
0.000830533973164038
  0
LINE
 8
GROUP0
10
6582.6436481434
20
830.187171793005
30
0.000830304843617458
11
6582.57550046207
21
830.704809970892
31
0.000830532068082102
  0
LINE
 8
GROUP0
10
6582.5754991299
20
829.669533790501
30
0.000829867784968863
11
6582.6436481434
21
830.187171793005
31
0.000830304843617458
  0
LINE
 8
GROUP0
10
6582.3756976642
20
829.187172137814
30
0.00082925067668787
11
6582.5754991299
21
829.669533790501
31
0.000829867784968863
  0
LINE
 8
GROUP0
10
6582.05785988601
20
828.772958984434
30
0.000828495573863813
11
6582.3756976642
21
829.187172137814
31
0.00082925067668787
  0
LINE
 8
GROUP0
10
6581.64364591466
20
828.455122272244
30
0.000827653935548916
11
6582.05785988601
21
828.772958984434
31
0.000828495573863813
  0
LINE
 8
GROUP0
10
6581.16128374778
20
828.25532204793
30
0.000826783117888163
11
6581.64364591466
21
828.455122272244
31
0.000827653935548916
  0
LINE
 8
GROUP0
10
6580.64364556989
20
828.187174366593
30
0.000825942465654916
11
6581.16128374778
21
828.25532204793
31
0.000826783117888163
  0
LINE
 8
GROUP0
10
6580.12600756739
20
828.255323380098
30
0.000825189268091864
11
6580.64364556989
21
828.187174366593
31
0.000825942465654916
  0
LINE
 8
GROUP0
10
6579.6436459147
20
828.455124845796
30
0.000824574854243726
11
6580.12600756739
21
828.255323380098
31
0.000825189268091864
  0
LINE
 8
GROUP0
10
6579.22943276132
20
828.772962623986
30
0.000824141095230863
11
6579.6436459147
21
828.455124845796
31
0.000824574854243726
  0
LINE
 8
GROUP0
10
6624.22943640075
20
831.601328234556
30
0.0008935257721843
11
6623.91159862256
21
831.18711508117
31
0.000892770669451187
  0
LINE
 8
GROUP0
10
6624.64365037211
20
831.919164946751
30
0.000894367410589436
11
6624.22943640075
21
831.601328234556
31
0.0008935257721843
  0
LINE
 8
GROUP0
10
6625.126012539
20
832.118965171068
30
0.000895238228248779
11
6624.64365037211
21
831.919164946751
31
0.000894367410589436
  0
LINE
 8
GROUP0
10
6625.6436507169
20
832.187112852406
30
0.000896078880393197
11
6625.126012539
21
832.118965171068
31
0.000895238228248779
  0
LINE
 8
GROUP0
10
6626.16128871941
20
832.118963838899
30
0.00089683207795625
11
6625.6436507169
21
832.187112852406
31
0.000896078880393197
  0
LINE
 8
GROUP0
10
6626.6436503721
20
831.919162373198
30
0.000897446491894627
11
6626.16128871941
21
832.118963838899
31
0.00089683207795625
  0
LINE
 8
GROUP0
10
6627.05786352549
20
831.601324595003
30
0.000897880250815841
11
6626.6436503721
21
831.919162373198
31
0.000897446491894627
  0
LINE
 8
GROUP0
10
6627.37570023769
20
831.187110623645
30
0.000898103794770211
11
6627.05786352549
21
831.601324595003
31
0.000897880250815841
  0
LINE
 8
GROUP0
10
6627.575500462
20
830.704748456751
30
0.000898101889598035
11
6627.37570023769
21
831.187110623645
31
0.000898103794770211
  0
LINE
 8
GROUP0
10
6627.64364814334
20
830.187110278855
30
0.000897874665221515
11
6627.575500462
21
830.704748456751
31
0.000898101889598035
  0
LINE
 8
GROUP0
10
6627.57549912983
20
829.669472276343
30
0.000897437606393148
11
6627.64364814334
21
830.187110278855
31
0.000897874665221515
  0
LINE
 8
GROUP0
10
6627.37569766414
20
829.187110623648
30
0.000896820498201689
11
6627.57549912983
21
829.669472276343
31
0.000897437606393148
  0
LINE
 8
GROUP0
10
6627.05785988594
20
828.772897470261
30
0.000896065395468576
11
6627.37569766414
21
829.187110623648
31
0.000896820498201689
  0
LINE
 8
GROUP0
10
6626.64364591458
20
828.455060758066
30
0.000895223757062735
11
6627.05785988594
21
828.772897470261
31
0.000896065395468576
  0
LINE
 8
GROUP0
10
6626.16128374769
20
828.255260533749
30
0.000894352939313858
11
6626.64364591458
21
828.455060758066
31
0.000895223757062735
  0
LINE
 8
GROUP0
10
6625.64364556979
20
828.187112852412
30
0.00089351228716944
11
6626.16128374769
21
828.255260533749
31
0.000894352939313858
  0
LINE
 8
GROUP0
10
6625.12600756728
20
828.255261865918
30
0.000892759089607797
11
6625.64364556979
21
828.187112852412
31
0.00089351228716944
  0
LINE
 8
GROUP0
10
6624.64364591459
20
828.455063331619
30
0.00089214467575825
11
6625.12600756728
21
828.255261865918
31
0.000892759089607797
  0
LINE
 8
GROUP0
10
6624.2294327612
20
828.772901109815
30
0.000891710916746796
11
6624.64364591459
21
828.455063331619
31
0.00089214467575825
  0
LINE
 8
GROUP0
10
6623.91159604901
20
829.187115081173
30
0.000891487372882666
11
6624.2294327612
21
828.772901109815
31
0.000891710916746796
  0
LINE
 8
GROUP0
10
6623.71179582469
20
829.669477248066
30
0.000891489278054841
11
6623.91159604901
21
829.187115081173
31
0.000891487372882666
  0
LINE
 8
GROUP0
10
6623.64364814335
20
830.187115425962
30
0.0008917165025216
11
6623.71179582469
21
829.669477248066
31
0.000891489278054841
  0
LINE
 8
GROUP0
10
6623.71179715686
20
830.704753428474
30
0.00089215356116949
11
6623.64364814335
21
830.187115425962
31
0.0008917165025216
  0
LINE
 8
GROUP0
10
6623.91159862256
20
831.18711508117
30
0.000892770669451187
11
6623.71179715686
21
830.704753428474
31
0.00089215356116949
  0
LINE
 8
GROUP0
10
6624.22943640075
20
806.601328234557
30
0.00089352576926634
11
6623.91159862256
21
806.18711508117
31
0.000892770666531112
  0
LINE
 8
GROUP0
10
6624.64365037211
20
806.919164946752
30
0.000894367407670066
11
6624.22943640075
21
806.601328234557
31
0.00089352576926634
  0
LINE
 8
GROUP0
10
6625.126012539
20
807.118965171069
30
0.000895238225330819
11
6624.64365037211
21
806.919164946752
31
0.000894367407670066
  0
LINE
 8
GROUP0
10
6625.6436507169
20
807.187112852406
30
0.000896078877475237
11
6625.126012539
21
807.118965171069
31
0.000895238225330819
  0
LINE
 8
GROUP0
10
6626.16128871941
20
807.118963838899
30
0.000896832075037585
11
6625.6436507169
21
807.187112852406
31
0.000896078877475237
  0
LINE
 8
GROUP0
10
6626.6436503721
20
806.919162373198
30
0.000897446488975256
11
6626.16128871941
21
807.118963838899
31
0.000896832075037585
  0
LINE
 8
GROUP0
10
6627.05786352549
20
806.601324595003
30
0.000897880247897176
11
6626.6436503721
21
806.919162373198
31
0.000897446488975256
  0
LINE
 8
GROUP0
10
6627.37570023769
20
806.187110623645
30
0.000898103791850136
11
6627.05786352549
21
806.601324595003
31
0.000897880247897176
  0
LINE
 8
GROUP0
10
6627.575500462
20
805.704748456751
30
0.00089810188667796
11
6627.37570023769
21
806.187110623645
31
0.000898103791850136
  0
LINE
 8
GROUP0
10
6627.64364814334
20
805.187110278856
30
0.000897874662303555
11
6627.575500462
21
805.704748456751
31
0.00089810188667796
  0
LINE
 8
GROUP0
10
6627.57549912983
20
804.669472276343
30
0.000897437603474482
11
6627.64364814334
21
805.187110278856
31
0.000897874662303555
  0
LINE
 8
GROUP0
10
6627.37569766414
20
804.187110623648
30
0.000896820495283729
11
6627.57549912983
21
804.669472276343
31
0.000897437603474482
  0
LINE
 8
GROUP0
10
6627.05785988594
20
803.772897470261
30
0.000896065392548501
11
6627.37569766414
21
804.187110623648
31
0.000896820495283729
  0
LINE
 8
GROUP0
10
6626.64364591458
20
803.455060758066
30
0.000895223754144775
11
6627.05785988594
21
803.772897470261
31
0.000896065392548501
  0
LINE
 8
GROUP0
10
6626.16128374769
20
803.255260533749
30
0.000894352936395193
11
6626.64364591458
21
803.455060758066
31
0.000895223754144775
  0
LINE
 8
GROUP0
10
6625.64364556979
20
803.187112852412
30
0.000893512284249365
11
6626.16128374769
21
803.255260533749
31
0.000894352936395193
  0
LINE
 8
GROUP0
10
6625.12600756728
20
803.255261865918
30
0.000892759086689132
11
6625.64364556979
21
803.187112852412
31
0.000893512284249365
  0
LINE
 8
GROUP0
10
6624.64364591459
20
803.455063331619
30
0.000892144672839584
11
6625.12600756728
21
803.255261865918
31
0.000892759086689132
  0
LINE
 8
GROUP0
10
6624.2294327612
20
803.772901109815
30
0.000891710913826721
11
6624.64364591459
21
803.455063331619
31
0.000892144672839584
  0
LINE
 8
GROUP0
10
6623.91159604901
20
804.187115081173
30
0.000891487369964
11
6624.2294327612
21
803.772901109815
31
0.000891710913826721
  0
LINE
 8
GROUP0
10
6623.71179582469
20
804.669477248066
30
0.000891489275136176
11
6623.91159604901
21
804.187115081173
31
0.000891487369964
  0
LINE
 8
GROUP0
10
6623.64364814335
20
805.187115425962
30
0.000891716499602935
11
6623.71179582469
21
804.669477248066
31
0.000891489275136176
  0
LINE
 8
GROUP0
10
6623.71179715686
20
805.704753428474
30
0.000892153558249414
11
6623.64364814335
21
805.187115425962
31
0.000891716499602935
  0
LINE
 8
GROUP0
10
6623.91159862256
20
806.18711508117
30
0.000892770666531112
11
6623.71179715686
21
805.704753428474
31
0.000892153558249414
  0
LINE
 8
GROUP0
10
6578.91159604913
20
804.187176595336
30
0.000823917548449476
11
6579.22943276132
21
803.772962623985
31
0.000824141092310787
  0
LINE
 8
GROUP0
10
6578.71179582482
20
804.669538762222
30
0.000823919453621652
11
6578.91159604913
21
804.187176595336
31
0.000823917548449476
  0
LINE
 8
GROUP0
10
6578.64364814348
20
805.187176940109
30
0.000824146677998172
11
6578.71179582482
21
804.669538762222
31
0.000823919453621652
  0
LINE
 8
GROUP0
10
6578.71179715699
20
805.704814942613
30
0.000824583736734891
11
6578.64364814348
21
805.187176940109
31
0.000824146677998172
  0
LINE
 8
GROUP0
10
6578.91159862268
20
806.1871765953
30
0.000825200845016588
11
6578.71179715699
21
805.704814942613
31
0.000824583736734891
  0
LINE
 8
GROUP0
10
6579.22943640087
20
806.60138974868
30
0.000825955947751816
11
6578.91159862268
21
806.1871765953
31
0.000825200845016588
  0
LINE
 8
GROUP0
10
6579.64365037222
20
806.91922646087
30
0.000826797586065303
11
6579.22943640087
21
806.60138974868
31
0.000825955947751816
  0
LINE
 8
GROUP0
10
6580.1260125391
20
807.119026685184
30
0.000827668403726056
11
6579.64365037222
21
806.91922646087
31
0.000826797586065303
  0
LINE
 8
GROUP0
10
6580.64365071699
20
807.187174366521
30
0.000828509056050952
11
6580.1260125391
21
807.119026685184
31
0.000827668403726056
  0
LINE
 8
GROUP0
10
6581.1612887195
20
807.119025353016
30
0.000829262253522356
11
6580.64365071699
21
807.187174366521
31
0.000828509056050952
  0
LINE
 8
GROUP0
10
6581.64365037218
20
806.919223887318
30
0.000829876667460733
11
6581.1612887195
21
807.119025353016
31
0.000829262253522356
  0
LINE
 8
GROUP0
10
6582.05786352556
20
806.601386109129
30
0.000830310426382652
11
6581.64365037218
21
806.919223887318
31
0.000829876667460733
  0
LINE
 8
GROUP0
10
6582.37570023775
20
806.187172137777
30
0.000830533970244668
11
6582.05786352556
21
806.601386109129
31
0.000830310426382652
  0
LINE
 8
GROUP0
10
6582.57550046207
20
805.704809970892
30
0.000830532065162731
11
6582.37570023775
21
806.187172137777
31
0.000830533970244668
  0
LINE
 8
GROUP0
10
6582.6436481434
20
805.187171793005
30
0.000830304840698792
11
6582.57550046207
21
805.704809970892
31
0.000830532065162731
  0
LINE
 8
GROUP0
10
6582.5754991299
20
804.669533790501
30
0.000829867782050903
11
6582.6436481434
21
805.187171793005
31
0.000830304840698792
  0
LINE
 8
GROUP0
10
6582.3756976642
20
804.187172137814
30
0.000829250673769205
11
6582.5754991299
21
804.669533790501
31
0.000829867782050903
  0
LINE
 8
GROUP0
10
6582.05785988601
20
803.772958984434
30
0.000828495570943738
11
6582.3756976642
21
804.187172137814
31
0.000829250673769205
  0
LINE
 8
GROUP0
10
6581.64364591466
20
803.455122272244
30
0.000827653932630251
11
6582.05785988601
21
803.772958984434
31
0.000828495570943738
  0
LINE
 8
GROUP0
10
6581.16128374778
20
803.25532204793
30
0.000826783114969498
11
6581.64364591466
21
803.455122272244
31
0.000827653932630251
  0
LINE
 8
GROUP0
10
6580.64364556989
20
803.187174366593
30
0.000825942462734841
11
6581.16128374778
21
803.25532204793
31
0.000826783114969498
  0
LINE
 8
GROUP0
10
6580.12600756739
20
803.255323380098
30
0.000825189265173198
11
6580.64364556989
21
803.187174366593
31
0.000825942462734841
  0
LINE
 8
GROUP0
10
6579.6436459147
20
803.455124845795
30
0.000824574851325061
11
6580.12600756739
21
803.255323380098
31
0.000825189265173198
  0
LINE
 8
GROUP0
10
6579.22943276132
20
803.772962623985
30
0.000824141092310787
11
6579.6436459147
21
803.455124845795
31
0.000824574851325061
  0
LINE
 8
GROUP0
10
6578.91159604913
20
779.187176595336
30
0.000823917545530811
11
6579.22943276132
21
778.772962623985
31
0.000824141089392827
  0
LINE
 8
GROUP0
10
6578.71179582482
20
779.669538762221
30
0.000823919450702987
11
6578.91159604913
21
779.187176595336
31
0.000823917545530811
  0
LINE
 8
GROUP0
10
6578.64364814348
20
780.187176940109
30
0.000824146675078097
11
6578.71179582482
21
779.669538762221
31
0.000823919450702987
  0
LINE
 8
GROUP0
10
6578.71179715699
20
780.704814942613
30
0.000824583733816225
11
6578.64364814348
21
780.187176940109
31
0.000824146675078097
  0
LINE
 8
GROUP0
10
6578.91159862268
20
781.1871765953
30
0.000825200842097923
11
6578.71179715699
21
780.704814942613
31
0.000824583733816225
  0
LINE
 8
GROUP0
10
6579.22943640087
20
781.60138974868
30
0.000825955944833151
11
6578.91159862268
21
781.1871765953
31
0.000825200842097923
  0
LINE
 8
GROUP0
10
6579.64365037222
20
781.91922646087
30
0.000826797583146638
11
6579.22943640087
21
781.60138974868
31
0.000825955944833151
  0
LINE
 8
GROUP0
10
6580.1260125391
20
782.119026685184
30
0.000827668400805981
11
6579.64365037222
21
781.91922646087
31
0.000826797583146638
  0
LINE
 8
GROUP0
10
6580.64365071699
20
782.18717436652
30
0.000828509053132287
11
6580.1260125391
21
782.119026685184
31
0.000827668400805981
  0
LINE
 8
GROUP0
10
6581.1612887195
20
782.119025353016
30
0.000829262250602281
11
6580.64365071699
21
782.18717436652
31
0.000828509053132287
  0
LINE
 8
GROUP0
10
6581.64365037218
20
781.919223887318
30
0.000829876664542067
11
6581.1612887195
21
782.119025353016
31
0.000829262250602281
  0
LINE
 8
GROUP0
10
6582.05786352556
20
781.601386109128
30
0.000830310423464692
11
6581.64365037218
21
781.919223887318
31
0.000829876664542067
  0
LINE
 8
GROUP0
10
6582.37570023775
20
781.187172137777
30
0.000830533967326003
11
6582.05786352556
21
781.601386109128
31
0.000830310423464692
  0
LINE
 8
GROUP0
10
6582.57550046207
20
780.704809970892
30
0.000830532062244066
11
6582.37570023775
21
781.187172137777
31
0.000830533967326003
  0
LINE
 8
GROUP0
10
6582.6436481434
20
780.187171793005
30
0.000830304837778717
11
6582.57550046207
21
780.704809970892
31
0.000830532062244066
  0
LINE
 8
GROUP0
10
6582.5754991299
20
779.669533790501
30
0.000829867779132237
11
6582.6436481434
21
780.187171793005
31
0.000830304837778717
  0
LINE
 8
GROUP0
10
6582.3756976642
20
779.187172137814
30
0.00082925067085054
11
6582.5754991299
21
779.669533790501
31
0.000829867779132237
  0
LINE
 8
GROUP0
10
6582.05785988601
20
778.772958984434
30
0.000828495568025073
11
6582.3756976642
21
779.187172137814
31
0.00082925067085054
  0
LINE
 8
GROUP0
10
6581.64364591466
20
778.455122272244
30
0.000827653929711586
11
6582.05785988601
21
778.772958984434
31
0.000828495568025073
  0
LINE
 8
GROUP0
10
6581.16128374778
20
778.25532204793
30
0.000826783112049423
11
6581.64364591466
21
778.455122272244
31
0.000827653929711586
  0
LINE
 8
GROUP0
10
6580.64364556989
20
778.187174366593
30
0.000825942459816176
11
6581.16128374778
21
778.25532204793
31
0.000826783112049423
  0
LINE
 8
GROUP0
10
6580.12600756739
20
778.255323380098
30
0.000825189262253828
11
6580.64364556989
21
778.187174366593
31
0.000825942459816176
  0
LINE
 8
GROUP0
10
6579.6436459147
20
778.455124845795
30
0.000824574848406395
11
6580.12600756739
21
778.255323380098
31
0.000825189262253828
  0
LINE
 8
GROUP0
10
6579.22943276132
20
778.772962623985
30
0.000824141089392827
11
6579.6436459147
21
778.455124845795
31
0.000824574848406395
  0
LINE
 8
GROUP0
10
6624.22943640075
20
781.601328234556
30
0.000893525766347675
11
6623.91159862256
21
781.18711508117
31
0.000892770663612447
  0
LINE
 8
GROUP0
10
6624.64365037211
20
781.919164946751
30
0.0008943674047514
11
6624.22943640075
21
781.601328234556
31
0.000893525766347675
  0
LINE
 8
GROUP0
10
6625.126012539
20
782.118965171068
30
0.000895238222410743
11
6624.64365037211
21
781.919164946751
31
0.0008943674047514
  0
LINE
 8
GROUP0
10
6625.6436507169
20
782.187112852406
30
0.000896078874556572
11
6625.126012539
21
782.118965171068
31
0.000895238222410743
  0
LINE
 8
GROUP0
10
6626.16128871941
20
782.118963838899
30
0.000896832072118214
11
6625.6436507169
21
782.187112852406
31
0.000896078874556572
  0
LINE
 8
GROUP0
10
6626.6436503721
20
781.919162373198
30
0.000897446486056591
11
6626.16128871941
21
782.118963838899
31
0.000896832072118214
  0
LINE
 8
GROUP0
10
6627.05786352549
20
781.601324595003
30
0.000897880244978511
11
6626.6436503721
21
781.919162373198
31
0.000897446486056591
  0
LINE
 8
GROUP0
10
6627.37570023769
20
781.187110623645
30
0.000898103788932175
11
6627.05786352549
21
781.601324595003
31
0.000897880244978511
  0
LINE
 8
GROUP0
10
6627.575500462
20
780.704748456751
30
0.00089810188376
11
6627.37570023769
21
781.187110623645
31
0.000898103788932175
  0
LINE
 8
GROUP0
10
6627.64364814334
20
780.187110278855
30
0.00089787465938348
11
6627.575500462
21
780.704748456751
31
0.00089810188376
  0
LINE
 8
GROUP0
10
6627.57549912983
20
779.669472276343
30
0.000897437600556522
11
6627.64364814334
21
780.187110278855
31
0.00089787465938348
  0
LINE
 8
GROUP0
10
6627.37569766414
20
779.187110623648
30
0.000896820492365064
11
6627.57549912983
21
779.669472276343
31
0.000897437600556522
  0
LINE
 8
GROUP0
10
6627.05785988594
20
778.772897470261
30
0.000896065389629835
11
6627.37569766414
21
779.187110623648
31
0.000896820492365064
  0
LINE
 8
GROUP0
10
6626.64364591458
20
778.455060758066
30
0.00089522375122611
11
6627.05785988594
21
778.772897470261
31
0.000896065389629835
  0
LINE
 8
GROUP0
10
6626.16128374769
20
778.255260533749
30
0.000894352933475118
11
6626.64364591458
21
778.455060758066
31
0.00089522375122611
  0
LINE
 8
GROUP0
10
6625.64364556979
20
778.187112852412
30
0.000893512281330699
11
6626.16128374769
21
778.255260533749
31
0.000894352933475118
  0
LINE
 8
GROUP0
10
6625.12600756728
20
778.255261865918
30
0.000892759083769057
11
6625.64364556979
21
778.187112852412
31
0.000893512281330699
  0
LINE
 8
GROUP0
10
6624.64364591459
20
778.455063331619
30
0.000892144669920919
11
6625.12600756728
21
778.255261865918
31
0.000892759083769057
  0
LINE
 8
GROUP0
10
6624.2294327612
20
778.772901109815
30
0.000891710910908056
11
6624.64364591459
21
778.455063331619
31
0.000892144669920919
  0
LINE
 8
GROUP0
10
6623.91159604901
20
779.187115081173
30
0.000891487367045335
11
6624.2294327612
21
778.772901109815
31
0.000891710910908056
  0
LINE
 8
GROUP0
10
6623.71179582469
20
779.669477248066
30
0.00089148927221751
11
6623.91159604901
21
779.187115081173
31
0.000891487367045335
  0
LINE
 8
GROUP0
10
6623.64364814335
20
780.187115425962
30
0.000891716496682859
11
6623.71179582469
21
779.669477248066
31
0.00089148927221751
  0
LINE
 8
GROUP0
10
6623.71179715686
20
780.704753428474
30
0.000892153555330749
11
6623.64364814335
21
780.187115425962
31
0.000891716496682859
  0
LINE
 8
GROUP0
10
6623.91159862256
20
781.18711508117
30
0.000892770663612447
11
6623.71179715686
21
780.704753428474
31
0.000892153555330749
  0
LINE
 8
GROUP0
10
6624.22943640075
20
756.601328234556
30
0.000893525763427599
11
6623.91159862256
21
756.18711508117
31
0.000892770660693781
  0
LINE
 8
GROUP0
10
6624.64365037211
20
756.919164946751
30
0.000894367401832735
11
6624.22943640075
21
756.601328234556
31
0.000893525763427599
  0
LINE
 8
GROUP0
10
6625.126012539
20
757.118965171068
30
0.000895238219492078
11
6624.64365037211
21
756.919164946751
31
0.000894367401832735
  0
LINE
 8
GROUP0
10
6625.6436507169
20
757.187112852406
30
0.000896078871636496
11
6625.126012539
21
757.118965171068
31
0.000895238219492078
  0
LINE
 8
GROUP0
10
6626.16128871941
20
757.118963838899
30
0.000896832069199549
11
6625.6436507169
21
757.187112852406
31
0.000896078871636496
  0
LINE
 8
GROUP0
10
6626.6436503721
20
756.919162373198
30
0.000897446483137926
11
6626.16128871941
21
757.118963838899
31
0.000896832069199549
  0
LINE
 8
GROUP0
10
6627.05786352549
20
756.601324595003
30
0.00089788024205914
11
6626.6436503721
21
756.919162373198
31
0.000897446483137926
  0
LINE
 8
GROUP0
10
6627.37570023769
20
756.187110623645
30
0.00089810378601351
11
6627.05786352549
21
756.601324595003
31
0.00089788024205914
  0
LINE
 8
GROUP0
10
6627.575500462
20
755.704748456751
30
0.000898101880841334
11
6627.37570023769
21
756.187110623645
31
0.00089810378601351
  0
LINE
 8
GROUP0
10
6627.64364814334
20
755.187110278855
30
0.000897874656464814
11
6627.575500462
21
755.704748456751
31
0.000898101880841334
  0
LINE
 8
GROUP0
10
6627.57549912983
20
754.669472276343
30
0.000897437597636447
11
6627.64364814334
21
755.187110278855
31
0.000897874656464814
  0
LINE
 8
GROUP0
10
6627.37569766414
20
754.187110623648
30
0.000896820489446398
11
6627.57549912983
21
754.669472276343
31
0.000897437597636447
  0
LINE
 8
GROUP0
10
6627.05785988594
20
753.772897470261
30
0.00089606538671117
11
6627.37569766414
21
754.187110623648
31
0.000896820489446398
  0
LINE
 8
GROUP0
10
6626.64364591458
20
753.455060758066
30
0.000895223748306034
11
6627.05785988594
21
753.772897470261
31
0.00089606538671117
  0
LINE
 8
GROUP0
10
6626.16128374769
20
753.255260533749
30
0.000894352930556452
11
6626.64364591458
21
753.455060758066
31
0.000895223748306034
  0
LINE
 8
GROUP0
10
6625.64364556979
20
753.187112852412
30
0.000893512278412034
11
6626.16128374769
21
753.255260533749
31
0.000894352930556452
  0
LINE
 8
GROUP0
10
6625.12600756728
20
753.255261865918
30
0.000892759080851097
11
6625.64364556979
21
753.187112852412
31
0.000893512278412034
  0
LINE
 8
GROUP0
10
6624.64364591459
20
753.455063331619
30
0.000892144667000844
11
6625.12600756728
21
753.255261865918
31
0.000892759080851097
  0
LINE
 8
GROUP0
10
6624.2294327612
20
753.772901109815
30
0.000891710907990095
11
6624.64364591459
21
753.455063331619
31
0.000892144667000844
  0
LINE
 8
GROUP0
10
6623.91159604901
20
754.187115081173
30
0.00089148736412667
11
6624.2294327612
21
753.772901109815
31
0.000891710907990095
  0
LINE
 8
GROUP0
10
6623.71179582469
20
754.669477248066
30
0.00089148926929814
11
6623.91159604901
21
754.187115081173
31
0.00089148736412667
  0
LINE
 8
GROUP0
10
6623.64364814335
20
755.187115425962
30
0.000891716493764194
11
6623.71179582469
21
754.669477248066
31
0.00089148926929814
  0
LINE
 8
GROUP0
10
6623.71179715686
20
755.704753428474
30
0.000892153552412789
11
6623.64364814335
21
755.187115425962
31
0.000891716493764194
  0
LINE
 8
GROUP0
10
6623.91159862256
20
756.18711508117
30
0.000892770660693781
11
6623.71179715686
21
755.704753428474
31
0.000892153552412789
  0
LINE
 8
GROUP0
10
6578.91159604913
20
754.187176595336
30
0.000823917542612851
11
6579.22943276132
21
753.772962623985
31
0.000824141086474162
  0
LINE
 8
GROUP0
10
6578.71179582482
20
754.669538762221
30
0.000823919447783616
11
6578.91159604913
21
754.187176595336
31
0.000823917542612851
  0
LINE
 8
GROUP0
10
6578.64364814348
20
755.187176940109
30
0.000824146672159431
11
6578.71179582482
21
754.669538762221
31
0.000823919447783616
  0
LINE
 8
GROUP0
10
6578.71179715699
20
755.704814942613
30
0.000824583730898265
11
6578.64364814348
21
755.187176940109
31
0.000824146672159431
  0
LINE
 8
GROUP0
10
6578.91159862268
20
756.1871765953
30
0.000825200839179963
11
6578.71179715699
21
755.704814942613
31
0.000824583730898265
  0
LINE
 8
GROUP0
10
6579.22943640087
20
756.60138974868
30
0.000825955941913076
11
6578.91159862268
21
756.1871765953
31
0.000825200839179963
  0
LINE
 8
GROUP0
10
6579.64365037222
20
756.91922646087
30
0.000826797580227973
11
6579.22943640087
21
756.60138974868
31
0.000825955941913076
  0
LINE
 8
GROUP0
10
6580.1260125391
20
757.119026685184
30
0.000827668397887316
11
6579.64365037222
21
756.91922646087
31
0.000826797580227973
  0
LINE
 8
GROUP0
10
6580.64365071699
20
757.187174366521
30
0.000828509050212212
11
6580.1260125391
21
757.119026685184
31
0.000827668397887316
  0
LINE
 8
GROUP0
10
6581.1612887195
20
757.119025353016
30
0.000829262247683615
11
6580.64365071699
21
757.187174366521
31
0.000828509050212212
  0
LINE
 8
GROUP0
10
6581.64365037218
20
756.919223887318
30
0.000829876661623402
11
6581.1612887195
21
757.119025353016
31
0.000829262247683615
  0
LINE
 8
GROUP0
10
6582.05786352556
20
756.601386109128
30
0.000830310420544617
11
6581.64365037218
21
756.919223887318
31
0.000829876661623402
  0
LINE
 8
GROUP0
10
6582.37570023775
20
756.187172137777
30
0.000830533964407337
11
6582.05786352556
21
756.601386109128
31
0.000830310420544617
  0
LINE
 8
GROUP0
10
6582.57550046207
20
755.704809970892
30
0.000830532059325401
11
6582.37570023775
21
756.187172137777
31
0.000830533964407337
  0
LINE
 8
GROUP0
10
6582.6436481434
20
755.187171793005
30
0.000830304834860052
11
6582.57550046207
21
755.704809970892
31
0.000830532059325401
  0
LINE
 8
GROUP0
10
6582.5754991299
20
754.669533790501
30
0.000829867776212162
11
6582.6436481434
21
755.187171793005
31
0.000830304834860052
  0
LINE
 8
GROUP0
10
6582.3756976642
20
754.187172137814
30
0.000829250667931874
11
6582.5754991299
21
754.669533790501
31
0.000829867776212162
  0
LINE
 8
GROUP0
10
6582.05785988601
20
753.772958984434
30
0.000828495565107112
11
6582.3756976642
21
754.187172137814
31
0.000829250667931874
  0
LINE
 8
GROUP0
10
6581.64364591466
20
753.455122272244
30
0.000827653926791511
11
6582.05785988601
21
753.772958984434
31
0.000828495565107112
  0
LINE
 8
GROUP0
10
6581.16128374778
20
753.25532204793
30
0.000826783109131463
11
6581.64364591466
21
753.455122272244
31
0.000827653926791511
  0
LINE
 8
GROUP0
10
6580.64364556989
20
753.187174366593
30
0.000825942456898215
11
6581.16128374778
21
753.25532204793
31
0.000826783109131463
  0
LINE
 8
GROUP0
10
6580.12600756739
20
753.255323380098
30
0.000825189259335163
11
6580.64364556989
21
753.187174366593
31
0.000825942456898215
  0
LINE
 8
GROUP0
10
6579.6436459147
20
753.455124845795
30
0.00082457484548632
11
6580.12600756739
21
753.255323380098
31
0.000825189259335163
  0
LINE
 8
GROUP0
10
6579.22943276132
20
753.772962623985
30
0.000824141086474162
11
6579.6436459147
21
753.455124845795
31
0.00082457484548632
  0
LINE
 8
GROUP0
10
6578.91159604913
20
729.187176595336
30
0.000823917539602537
11
6579.22943276132
21
728.772962623985
31
0.000824141083555496
  0
LINE
 8
GROUP0
10
6578.71179582481
20
729.669538762221
30
0.000823919444774712
11
6578.91159604913
21
729.187176595336
31
0.000823917539602537
  0
LINE
 8
GROUP0
10
6578.64364814348
20
730.187176940109
30
0.000824146669151232
11
6578.71179582481
21
729.669538762221
31
0.000823919444774712
  0
LINE
 8
GROUP0
10
6578.71179715698
20
730.704814942613
30
0.000824583727889361
11
6578.64364814348
21
730.187176940109
31
0.000824146669151232
  0
LINE
 8
GROUP0
10
6578.91159862268
20
731.1871765953
30
0.000825200836169648
11
6578.71179715698
21
730.704814942613
31
0.000824583727889361
  0
LINE
 8
GROUP0
10
6579.22943640087
20
731.60138974868
30
0.000825955938904876
11
6578.91159862268
21
731.1871765953
31
0.000825200836169648
  0
LINE
 8
GROUP0
10
6579.64365037222
20
731.91922646087
30
0.000826797577310012
11
6579.22943640087
21
731.60138974868
31
0.000825955938904876
  0
LINE
 8
GROUP0
10
6580.1260125391
20
732.119026685184
30
0.00082766839496865
11
6579.64365037222
21
731.91922646087
31
0.000826797577310012
  0
LINE
 8
GROUP0
10
6580.64365071699
20
732.18717436652
30
0.000828509047113773
11
6580.1260125391
21
732.119026685184
31
0.00082766839496865
  0
LINE
 8
GROUP0
10
6581.16128871949
20
732.119025353016
30
0.00082926224476495
11
6580.64365071699
21
732.18717436652
31
0.000828509047113773
  0
LINE
 8
GROUP0
10
6581.64365037218
20
731.919223887318
30
0.000829876658615203
11
6581.16128871949
21
732.119025353016
31
0.00082926224476495
  0
LINE
 8
GROUP0
10
6582.05786352556
20
731.601386109128
30
0.000830310417535712
11
6581.64365037218
21
731.919223887318
31
0.000829876658615203
  0
LINE
 8
GROUP0
10
6582.37570023775
20
731.187172137777
30
0.000830533961487262
11
6582.05786352556
21
731.601386109128
31
0.000830310417535712
  0
LINE
 8
GROUP0
10
6582.57550046207
20
730.704809970892
30
0.000830532056316496
11
6582.37570023775
21
731.187172137777
31
0.000830533961487262
  0
LINE
 8
GROUP0
10
6582.6436481434
20
730.187171793005
30
0.000830304831942091
11
6582.57550046207
21
730.704809970892
31
0.000830532056316496
  0
LINE
 8
GROUP0
10
6582.5754991299
20
729.669533790501
30
0.000829867773203258
11
6582.6436481434
21
730.187171793005
31
0.000830304831942091
  0
LINE
 8
GROUP0
10
6582.3756976642
20
729.187172137814
30
0.000829250664922265
11
6582.5754991299
21
729.669533790501
31
0.000829867773203258
  0
LINE
 8
GROUP0
10
6582.05785988601
20
728.772958984434
30
0.000828495562188447
11
6582.3756976642
21
729.187172137814
31
0.000829250664922265
  0
LINE
 8
GROUP0
10
6581.64364591466
20
728.455122272244
30
0.000827653923783311
11
6582.05785988601
21
728.772958984434
31
0.000828495562188447
  0
LINE
 8
GROUP0
10
6581.16128374778
20
728.25532204793
30
0.000826783106122558
11
6581.64364591466
21
728.455122272244
31
0.000827653923783311
  0
LINE
 8
GROUP0
10
6580.64364556989
20
728.187174366593
30
0.00082594245397955
11
6581.16128374778
21
728.25532204793
31
0.000826783106122558
  0
LINE
 8
GROUP0
10
6580.12600756739
20
728.255323380098
30
0.000825189256326259
11
6580.64364556989
21
728.187174366593
31
0.00082594245397955
  0
LINE
 8
GROUP0
10
6579.6436459147
20
728.455124845795
30
0.000824574842478121
11
6580.12600756739
21
728.255323380098
31
0.000825189256326259
  0
LINE
 8
GROUP0
10
6579.22943276132
20
728.772962623985
30
0.000824141083555496
11
6579.6436459147
21
728.455124845795
31
0.000824574842478121
  0
LINE
 8
GROUP0
10
6624.22943640075
20
731.601328234556
30
0.000893525760418695
11
6623.91159862256
21
731.18711508117
31
0.000892770657684172
  0
LINE
 8
GROUP0
10
6624.64365037211
20
731.919164946751
30
0.000894367398824536
11
6624.22943640075
21
731.601328234556
31
0.000893525760418695
  0
LINE
 8
GROUP0
10
6625.126012539
20
732.118965171068
30
0.000895238216483174
11
6624.64365037211
21
731.919164946751
31
0.000894367398824536
  0
LINE
 8
GROUP0
10
6625.6436507169
20
732.187112852406
30
0.000896078868627592
11
6625.126012539
21
732.118965171068
31
0.000895238216483174
  0
LINE
 8
GROUP0
10
6626.16128871941
20
732.118963838899
30
0.000896832066280884
11
6625.6436507169
21
732.187112852406
31
0.000896078868627592
  0
LINE
 8
GROUP0
10
6626.6436503721
20
731.919162373198
30
0.000897446480129022
11
6626.16128871941
21
732.118963838899
31
0.000896832066280884
  0
LINE
 8
GROUP0
10
6627.05786352549
20
731.601324595003
30
0.000897880239050236
11
6626.6436503721
21
731.919162373198
31
0.000897446480129022
  0
LINE
 8
GROUP0
10
6627.37570023769
20
731.187110623645
30
0.000898103783003196
11
6627.05786352549
21
731.601324595003
31
0.000897880239050236
  0
LINE
 8
GROUP0
10
6627.575500462
20
730.704748456751
30
0.00089810187783243
11
6627.37570023769
21
731.187110623645
31
0.000898103783003196
  0
LINE
 8
GROUP0
10
6627.64364814334
20
730.187110278855
30
0.00089787465345591
11
6627.575500462
21
730.704748456751
31
0.00089810187783243
  0
LINE
 8
GROUP0
10
6627.57549912983
20
729.669472276343
30
0.000897437594717781
11
6627.64364814334
21
730.187110278855
31
0.00089787465345591
  0
LINE
 8
GROUP0
10
6627.37569766414
20
729.187110623648
30
0.000896820486436084
11
6627.57549912983
21
729.669472276343
31
0.000897437594717781
  0
LINE
 8
GROUP0
10
6627.05785988594
20
728.772897470261
30
0.000896065383702971
11
6627.37569766414
21
729.187110623648
31
0.000896820486436084
  0
LINE
 8
GROUP0
10
6626.64364591458
20
728.455060758066
30
0.00089522374529713
11
6627.05785988594
21
728.772897470261
31
0.000896065383702971
  0
LINE
 8
GROUP0
10
6626.16128374769
20
728.255260533749
30
0.000894352927638492
11
6626.64364591458
21
728.455060758066
31
0.00089522374529713
  0
LINE
 8
GROUP0
10
6625.64364556979
20
728.187112852412
30
0.000893512275494074
11
6626.16128374769
21
728.255260533749
31
0.000894352927638492
  0
LINE
 8
GROUP0
10
6625.12600756728
20
728.255261865918
30
0.000892759077842192
11
6625.64364556979
21
728.187112852412
31
0.000893512275494074
  0
LINE
 8
GROUP0
10
6624.64364591459
20
728.455063331619
30
0.000892144663992644
11
6625.12600756728
21
728.255261865918
31
0.000892759077842192
  0
LINE
 8
GROUP0
10
6624.2294327612
20
728.772901109815
30
0.00089171090507143
11
6624.64364591459
21
728.455063331619
31
0.000892144663992644
  0
LINE
 8
GROUP0
10
6623.91159604901
20
729.187115081173
30
0.00089148736111706
11
6624.2294327612
21
728.772901109815
31
0.00089171090507143
  0
LINE
 8
GROUP0
10
6623.71179582469
20
729.669477248066
30
0.000891489266289236
11
6623.91159604901
21
729.187115081173
31
0.00089148736111706
  0
LINE
 8
GROUP0
10
6623.64364814335
20
730.187115425962
30
0.000891716490665756
11
6623.71179582469
21
729.669477248066
31
0.000891489266289236
  0
LINE
 8
GROUP0
10
6623.71179715686
20
730.704753428474
30
0.000892153549403885
11
6623.64364814335
21
730.187115425962
31
0.000891716490665756
  0
LINE
 8
GROUP0
10
6623.91159862256
20
731.18711508117
30
0.000892770657684172
11
6623.71179715686
21
730.704753428474
31
0.000892153549403885
 0
ENDSEC
 0
EOF
