 0
SECTION
 2
ENTITIES
  0
LINE
 8
GROUP0
10
1451.59906947264
20
1483.77806934056
30
0.000246935909521406
11
1456.59906947261
21
1483.77806934056
31
0.000255973641301832
  0
LINE
 8
GROUP0
10
1438.59906947272
20
1484.77806934056
30
0.000240148253643913
11
1433.59906947281
21
1484.77806934056
31
0.000255599432691467
  0
LINE
 8
GROUP0
10
1438.59906947272
20
1497.77806934056
30
0.000240160121106259
11
1428.59906947272
21
1497.77806934056
31
0.000240823115264988
  0
LINE
 8
GROUP0
10
1451.59906947264
20
1484.77806934056
30
0.000246935909521406
11
1456.59906947261
21
1484.77806934056
31
0.000255973641301832
  0
LINE
 8
GROUP0
10
1451.59906947264
20
1482.77806934056
30
0.000246947776983752
11
1461.59906947264
21
1482.77806934056
31
0.00023809330789355
  0
LINE
 8
GROUP0
10
1451.59906947264
20
1497.77806934056
30
0.000246947776983752
11
1461.59906947264
21
1497.77806934056
31
0.00023809330789355
  0
LINE
 8
GROUP0
10
1438.59906947272
20
1482.77806934056
30
0.000240160121106259
11
1428.59906947272
21
1482.77806934056
31
0.000240823115264988
  0
LINE
 8
GROUP0
10
1438.59906947272
20
1486.77806934056
30
0.000240148253643913
11
1433.59906947281
21
1486.77806934056
31
0.000255599432691467
  0
LINE
 8
GROUP0
10
1451.59906947264
20
1486.77806934056
30
0.000246935909521406
11
1456.59906947261
21
1486.77806934056
31
0.000255973641301832
  0
LINE
 8
GROUP0
10
1451.59906947264
20
1502.77806934056
30
0.000246947776983752
11
1461.59906947264
21
1502.77806934056
31
0.00023809330789355
  0
LINE
 8
GROUP0
10
1438.59906947272
20
1501.77806934056
30
0.000240171988568605
11
1433.59906947279
21
1501.77806934056
31
0.000263085700133869
  0
LINE
 8
GROUP0
10
1451.59906947264
20
1500.77806934056
30
0.000246959644440459
11
1456.59906947261
21
1500.77806934056
31
0.000255997376226524
  0
LINE
 8
GROUP0
10
1438.59906947272
20
1500.77806934056
30
0.000240171988568605
11
1433.59906947279
21
1500.77806934056
31
0.000263085700133869
  0
LINE
 8
GROUP0
10
1438.59906947272
20
1502.77806934056
30
0.000240160121106259
11
1428.59906947272
21
1502.77806934056
31
0.000240823115264988
  0
LINE
 8
GROUP0
10
1451.59906947264
20
1485.77806934056
30
0.000246935909521406
11
1456.59906947261
21
1485.77806934056
31
0.000255973641301832
  0
LINE
 8
GROUP0
10
1438.59906947272
20
1483.77806934056
30
0.000240148253643913
11
1433.59906947281
21
1483.77806934056
31
0.000255599432691467
  0
LINE
 8
GROUP0
10
1451.59906947264
20
1492.77806934056
30
0.000243280721169947
11
1466.59906947264
21
1492.77806934056
31
0.000237515538147104
  0
LINE
 8
GROUP0
10
1438.59906947272
20
1492.77806934056
30
0.000240054934952116
11
1423.59906947272
21
1492.77806934056
31
0.000241501898540131
  0
LINE
 8
GROUP0
10
1438.59906947272
20
1485.77806934056
30
0.000240148253643913
11
1433.59906947281
21
1485.77806934056
31
0.000255599432691467
  0
LINE
 8
GROUP0
10
1438.59906947272
20
1498.77806934056
30
0.000240171988568605
11
1433.59906947279
21
1498.77806934056
31
0.000263085700133869
  0
LINE
 8
GROUP0
10
1451.59906947264
20
1499.77806934056
30
0.000246959644440459
11
1456.59906947261
21
1499.77806934056
31
0.000255997376226524
  0
LINE
 8
GROUP0
10
1451.59906947264
20
1501.77806934056
30
0.000246959644440459
11
1456.59906947261
21
1501.77806934056
31
0.000255997376226524
  0
LINE
 8
GROUP0
10
1451.59906947264
20
1498.77806934056
30
0.000246959644440459
11
1456.59906947261
21
1498.77806934056
31
0.000255997376226524
  0
LINE
 8
GROUP0
10
1438.59906947272
20
1499.77806934056
30
0.000240171988568605
11
1433.59906947279
21
1499.77806934056
31
0.000263085700133869
  0
LINE
 8
GROUP0
10
1438.59906947272
20
1487.77806934056
30
0.000240160121106259
11
1428.59906947272
21
1487.77806934056
31
0.000240823115264988
  0
LINE
 8
GROUP0
10
1451.59906947264
20
1487.77806934056
30
0.000246947776983752
11
1461.59906947264
21
1487.77806934056
31
0.00023809330789355
  0
LINE
 8
GROUP0
10
1553.84908961521
20
1367.02803734026
30
0.000352003122852373
11
1573.84909030757
21
1387.02803711921
31
0.000342182750642106
  0
LINE
 8
GROUP0
10
1336.34904856207
20
1654.52806904657
30
0.000311824812332073
11
1336.34904895571
21
1624.52806904658
31
0.000287099140242741
  0
LINE
 8
GROUP0
10
1336.34906736404
20
1367.02803974426
30
0.000272266707406477
11
1336.34906736406
21
1337.02805085994
31
0.000213228624597672
  0
LINE
 8
GROUP0
10
1448.33434007366
20
1609.57910477118
30
0.000275896345564419
11
1451.34908697
21
1610.82785382277
31
0.000277174596214635
  0
LINE
 8
GROUP0
10
1458.9990204636
20
1637.1532683765
30
0.000280576340450711
11
1459.05354121007
21
1636.73915817705
31
0.000280596474266925
  0
LINE
 8
GROUP0
10
1573.84909396579
20
1604.52807216286
30
0.000323515193303781
11
1553.84909396579
21
1624.52807262824
31
0.000359701926036227
  0
LINE
 8
GROUP0
10
1286.34906588566
20
1387.02804029686
30
0.000267748002623769
11
1286.34904980828
21
1604.52806829786
31
0.000190686232451753
  0
LINE
 8
GROUP0
10
1573.84909030757
20
1387.02803711921
30
0.000342182750642106
11
1603.84909030755
21
1387.02803678763
31
0.000332607466772217
  0
LINE
 8
GROUP0
10
1603.84909396577
20
1604.52807169748
30
0.000297640181598346
11
1603.84909030755
21
1387.02803678763
31
0.000332607466772217
  0
LINE
 8
GROUP0
10
1336.34904856207
20
1654.52806904657
30
0.000311824812332073
11
1553.84909443118
21
1654.52807262823
31
0.00037199004013182
  0
LINE
 8
GROUP0
10
1286.34906588566
20
1387.02804029686
30
0.000267748002623769
11
1316.34906600051
21
1387.02804029688
31
0.000220797540599094
  0
LINE
 8
GROUP0
10
1316.34904980834
20
1604.52804450517
30
0.0
11
1336.34904895571
21
1624.52806904658
31
0.000287099140242741
  0
LINE
 8
GROUP0
10
1433.02510555551
20
1624.88833928933
30
0.000269553129731737
11
1432.59918050896
21
1621.65311736533
31
0.000269351643927429
  0
LINE
 8
GROUP0
10
1438.84914932931
20
1610.82785382277
30
0.000271909998272957
11
1441.86389622565
21
1609.57910477118
31
0.000273171189141141
  0
LINE
 8
GROUP0
10
1286.34904980828
20
1604.52806829786
30
0.000190686232451753
11
1316.34904980834
21
1604.52804450517
31
0.0
  0
LINE
 8
GROUP0
10
1451.34908697
20
1610.82785382277
30
0.000277174596214635
11
1453.93790881979
21
1612.81432669518
31
0.000278278499233586
  0
LINE
 8
GROUP0
10
1448.33434007366
20
1633.72712995947
30
0.000276061294597074
11
1451.34908697
21
1632.47838090789
31
0.000277322485476539
  0
LINE
 8
GROUP0
10
1438.84914932931
20
1632.47838090789
30
0.00027205788752358
11
1441.86389622565
21
1633.72712995947
31
0.000273336138173796
  0
LINE
 8
GROUP0
10
1603.84909396577
20
1604.52807169748
30
0.000297640181598346
11
1573.84909396579
21
1604.52807216286
31
0.000323515193303781
  0
LINE
 8
GROUP0
10
1553.84908911065
20
1337.02804845596
30
0.000236810707050239
11
1336.34906736406
21
1337.02805085994
31
0.000213228624597672
  0
LINE
 8
GROUP0
10
1316.34906600051
20
1387.02804029688
30
0.000220797540599094
11
1336.34906736404
21
1367.02803974426
31
0.000272266707406477
  0
LINE
 8
GROUP0
10
1445.09911814965
20
1634.15305500602
30
0.000274701625773055
11
1448.33434007366
21
1633.72712995947
31
0.000276061294597074
  0
LINE
 8
GROUP0
10
1459.05354121007
20
1636.73915817705
30
0.000280596474266925
11
1459.21338381354
21
1636.35326944801
31
0.000280661159255935
  0
LINE
 8
GROUP0
10
1461.01313865402
20
1635.60779711684
30
0.00028141406975486
11
1461.39902738307
21
1635.76763972032
31
0.000281577686330792
  0
LINE
 8
GROUP0
10
1457.1731307438
20
1618.41789544132
30
0.000279679354006479
11
1455.92438169221
21
1615.40314854498
31
0.000279132825473027
  0
LINE
 8
GROUP0
10
1433.02510555551
20
1624.88833928933
30
0.000269553129731737
11
1434.27385460709
21
1627.90308618567
31
0.000270099658265188
  0
LINE
 8
GROUP0
10
1431.19897558158
20
1637.15314121269
30
0.000268867796435845
11
1431.14445484346
21
1637.56725141362
31
0.000268847662619631
  0
LINE
 8
GROUP0
10
1457.1731307438
20
1624.88833928933
30
0.000279723551972832
11
1455.92438169221
21
1627.90308618567
31
0.000279218209376975
  0
LINE
 8
GROUP0
10
1457.1731307438
20
1624.88833928933
30
0.000279723551972832
11
1457.59905579034
21
1621.65311736532
31
0.000279880839810787
  0
LINE
 8
GROUP0
10
1445.09911814965
20
1609.15317972464
30
0.000274530857965161
11
1448.33434007366
21
1609.57910477118
31
0.000275896345564419
  0
LINE
 8
GROUP0
10
1453.93790881979
20
1630.49190803547
30
0.000278399250311168
11
1455.92438169221
21
1627.90308618567
31
0.000279218209376975
  0
LINE
 8
GROUP0
10
1460.59902845456
20
1635.55327637036
30
0.000281239286574131
11
1461.01313865402
21
1635.60779711684
31
0.00028141406975486
  0
LINE
 8
GROUP0
10
1460.18491771043
20
1635.60779297967
30
0.000281065247966072
11
1460.59902845456
21
1635.55327637036
31
0.000281239286574131
  0
LINE
 8
GROUP0
10
1457.59905579034
20
1621.65311736532
30
0.000279880839810787
11
1457.1731307438
21
1618.41789544132
31
0.000279679354006479
  0
LINE
 8
GROUP0
10
1445.09911814965
20
1634.15305500602
30
0.000274701625773055
11
1441.86389622565
21
1633.72712995947
31
0.000273336138173796
  0
LINE
 8
GROUP0
10
1459.46765526475
20
1636.02189986855
30
0.000280765987246134
11
1459.7990273845
21
1635.76763172791
31
0.000280903814382594
  0
LINE
 8
GROUP0
10
1433.02510555551
20
1618.41789544132
30
0.000269508931765383
11
1434.27385460709
21
1615.40314854498
31
0.000270014274361241
  0
LINE
 8
GROUP0
10
1434.27385460709
20
1615.40314854498
30
0.000270014274361241
11
1436.26032747951
21
1612.81432669519
31
0.000270833233427048
  0
LINE
 8
GROUP0
10
1461.73039696254
20
1636.02191117152
30
0.000281718986098056
11
1461.98466510982
21
1636.35328328597
31
0.000281828339717105
  0
LINE
 8
GROUP0
10
1441.86389622565
20
1609.57910477118
30
0.000273171189141141
11
1445.09911814965
21
1609.15317972464
31
0.000274530857965161
  0
LINE
 8
GROUP0
10
1459.7990273845
20
1635.76763172791
30
0.000280903814382594
11
1460.18491771043
21
1635.60779297967
31
0.000281065247966072
  0
LINE
 8
GROUP0
10
1461.39902738307
20
1635.76763972032
30
0.000281577686330792
11
1461.73039696254
21
1636.02191117152
31
0.000281718986098056
  0
LINE
 8
GROUP0
10
1438.84914932931
20
1610.82785382277
30
0.000271909998272957
11
1436.26032747951
21
1612.81432669519
31
0.000270833233427048
  0
LINE
 8
GROUP0
10
1455.92438169221
20
1615.40314854498
30
0.000279132825473027
11
1453.93790881979
21
1612.81432669518
31
0.000278278499233586
  0
LINE
 8
GROUP0
10
1430.98461224767
20
1637.95314014625
30
0.000268782977630622
11
1430.73035206003
21
1638.28449847416
31
0.000268678154310287
  0
LINE
 8
GROUP0
10
1432.59918050896
20
1621.65311736533
30
0.000269351643927429
11
1433.02510555551
21
1618.41789544132
31
0.000269508931765383
  0
LINE
 8
GROUP0
10
1436.26032747951
20
1630.49190803547
30
0.000270953984504629
11
1434.27385460709
21
1627.90308618567
31
0.000270099658265188
  0
LINE
 8
GROUP0
10
1431.14445484346
20
1637.56725141362
30
0.000268847662619631
11
1430.98461224767
21
1637.95314014625
31
0.000268782977630622
  0
LINE
 8
GROUP0
10
1431.14445896382
20
1636.7390304693
30
0.000268842006996373
11
1431.19897558158
21
1637.15314121269
31
0.000268867796435845
  0
LINE
 8
GROUP0
10
1430.9846202076
20
1636.35314014627
30
0.000268772051794564
11
1431.14445896382
21
1636.7390304693
31
0.000268842006996373
  0
LINE
 8
GROUP0
10
1459.21338381354
20
1636.35326944801
30
0.000280661159255935
11
1459.46765526475
21
1636.02189986855
31
0.000280765987246134
  0
LINE
 8
GROUP0
10
1451.34908697
20
1632.47838090789
30
0.000277322485476539
11
1453.93790881979
21
1630.49190803547
31
0.000278399250311168
  0
LINE
 8
GROUP0
10
1436.26032747951
20
1630.49190803547
30
0.000270953984504629
11
1438.84914932931
21
1632.47838090789
31
0.00027205788752358
  0
LINE
 8
GROUP0
10
1427.99898121015
20
1637.15312762421
30
0.000267520054919501
11
1428.05349988809
21
1636.73901715205
31
0.000267540187867166
  0
LINE
 8
GROUP0
10
1459.0535370729
20
1637.56737912062
30
0.000280602129890184
11
1458.9990204636
21
1637.1532683765
31
0.000280576340450711
  0
LINE
 8
GROUP0
10
1428.21334056409
20
1637.95312762421
30
0.000267615801230203
11
1428.05349988809
21
1637.56723809637
31
0.000267545845227524
  0
LINE
 8
GROUP0
10
1460.18490232527
20
1638.69875565126
30
0.000281086355065518
11
1459.79901359313
21
1638.53891305568
31
0.000280922738489586
  0
LINE
 8
GROUP0
10
1459.21337582116
20
1637.95326944655
30
0.000280672085080713
11
1459.0535370729
21
1637.56737912062
31
0.000280602129890184
  0
LINE
 8
GROUP0
10
1460.59901252567
20
1638.75327638931
30
0.000281261138246247
11
1460.18490232527
21
1638.69875565126
31
0.000281086355065518
  0
LINE
 8
GROUP0
10
1461.73038570552
20
1638.28465286835
30
0.000281734437574244
11
1461.39901359107
21
1638.53892101561
31
0.000281596610437784
  0
LINE
 8
GROUP0
10
1462.14450386583
20
1636.7391736085
30
0.000281898294918914
11
1462.19902048352
21
1637.15328435135
31
0.000281924084358387
  0
LINE
 8
GROUP0
10
1461.01312326853
20
1638.69875977163
30
0.000281435176854306
11
1460.59901252567
21
1638.75327638931
31
0.000281261138246247
  0
LINE
 8
GROUP0
10
1428.46761036025
20
1636.02175677432
30
0.000267709699323593
11
1428.79898247513
21
1635.76748862673
31
0.000267847526448772
  0
LINE
 8
GROUP0
10
1462.14449974548
20
1637.56739455174
30
0.000281903950542173
11
1461.9846571499
21
1637.95328328387
31
0.000281839265553163
  0
LINE
 8
GROUP0
10
1428.46761036025
20
1638.28449847412
30
0.000267725155537324
11
1428.21334056409
21
1637.95312762421
31
0.000267615801230203
  0
LINE
 8
GROUP0
10
1459.46764396181
20
1638.28464156629
30
0.000280781438699762
11
1459.21337582116
21
1637.95326944655
31
0.000280672085080713
  0
LINE
 8
GROUP0
10
1429.59898121014
20
1638.75312762424
30
0.000268204856008758
11
1429.18487073797
21
1638.69860894629
31
0.000268030072726511
  0
LINE
 8
GROUP0
10
1430.0130916823
20
1638.69860894631
30
0.000268378894492738
11
1429.59898121014
21
1638.75312762424
31
0.000268204856008758
  0
LINE
 8
GROUP0
10
1429.18487073797
20
1638.69860894629
30
0.000268030072726511
11
1428.79898121014
21
1638.53876827028
31
0.000267866455823462
  0
LINE
 8
GROUP0
10
1428.2133405641
20
1636.35312762421
30
0.000267604872032745
11
1428.46761036025
21
1636.02175677432
31
0.000267709699323593
  0
LINE
 8
GROUP0
10
1459.79901359313
20
1638.53891305568
30
0.000280922738489586
11
1459.46764396181
21
1638.28464156629
31
0.000280781438699762
  0
LINE
 8
GROUP0
10
1461.39901359107
20
1638.53892101561
30
0.000281596610437784
11
1461.01312326853
21
1638.69875977163
31
0.000281435176854306
  0
LINE
 8
GROUP0
10
1430.39898121013
20
1638.53876827031
30
0.000268540327726541
11
1430.0130916823
21
1638.69860894631
31
0.000268378894492738
  0
LINE
 8
GROUP0
10
1430.73035206003
20
1638.28449847416
30
0.000268678154310287
11
1430.39898121013
21
1638.53876827031
31
0.000268540327726541
  0
LINE
 8
GROUP0
10
1428.79898121014
20
1638.53876827028
30
0.000267866455823462
11
1428.46761036025
21
1638.28449847412
31
0.000267725155537324
  0
LINE
 8
GROUP0
10
1428.05349988809
20
1636.73901715205
30
0.000267540187867166
11
1428.2133405641
21
1636.35312762421
31
0.000267604872032745
  0
LINE
 8
GROUP0
10
1462.19902048352
20
1637.15328435135
30
0.000281924084358387
11
1462.14449974548
21
1637.56739455174
31
0.000281903950542173
  0
LINE
 8
GROUP0
10
1459.2135425748
20
1605.35323412975
30
0.000280449472741751
11
1459.46781237096
21
1605.02186327984
31
0.000280554300021318
  0
LINE
 8
GROUP0
10
1461.3991832209
20
1607.53887477573
30
0.000281384928435546
11
1461.01329369305
21
1607.69871545175
31
0.000281223495190463
  0
LINE
 8
GROUP0
10
1461.73055407077
20
1605.0218632798
30
0.000281507298805561
11
1461.98482386692
21
1605.35323412969
31
0.000281616653101402
  0
LINE
 8
GROUP0
10
1461.39918322087
20
1604.76759348366
30
0.000281365998508143
11
1461.73055407077
21
1605.0218632798
31
0.000281507298805561
  0
LINE
 8
GROUP0
10
1461.01329369303
20
1604.60775280766
30
0.000281202381605095
11
1461.39918322087
21
1604.76759348366
31
0.000281365998508143
  0
LINE
 8
GROUP0
10
1428.05349988809
20
1637.56723809637
30
0.000267545845227524
11
1427.99898121015
21
1637.15312762421
31
0.000267520054919501
  0
LINE
 8
GROUP0
10
1461.9846571499
20
1637.95328328387
30
0.000281839265553163
11
1461.73038570552
21
1638.28465286835
31
0.000281734437574244
  0
LINE
 8
GROUP0
10
1461.98466510982
20
1636.35328328597
30
0.000281828339717105
11
1462.14450386583
21
1636.7391736085
31
0.000281898294918914
  0
LINE
 8
GROUP0
10
1462.14466454293
20
1605.73912365751
30
0.000281686609104081
11
1462.19918322086
21
1606.15323412966
31
0.000281712399412104
  0
LINE
 8
GROUP0
10
1460.59918322088
20
1607.75323412969
30
0.000281049456717764
11
1460.18507274871
21
1607.69871545177
31
0.000280874673435516
  0
LINE
 8
GROUP0
10
1459.46781237096
20
1607.28460497962
30
0.00028056975623505
11
1459.2135425748
21
1606.95323412973
31
0.000280460401939209
  0
LINE
 8
GROUP0
10
1460.18507274871
20
1607.69871545177
30
0.000280874673435516
11
1459.79918322086
21
1607.53887477577
31
0.000280711056532468
  0
LINE
 8
GROUP0
10
1461.98482386692
20
1606.95323412965
30
0.00028162758229886
11
1461.7305540708
21
1607.28460497957
31
0.000281522755019292
  0
LINE
 8
GROUP0
10
1429.18487279815
20
1635.60764987051
30
0.000268008960032251
11
1429.59898354154
21
1635.55313325276
31
0.000268182998640309
  0
LINE
 8
GROUP0
10
1459.46781237096
20
1605.02186327984
30
0.000280554300021318
11
1459.79918322086
21
1604.76759348369
31
0.000280692126605064
  0
LINE
 8
GROUP0
10
1462.14466454293
20
1606.56734460182
30
0.000281692266475719
11
1461.98482386692
21
1606.95323412965
31
0.00028162758229886
  0
LINE
 8
GROUP0
10
1458.99918322085
20
1606.15323412974
30
0.000280364655628507
11
1459.05370189879
21
1605.73912365758
31
0.000280384788564891
  0
LINE
 8
GROUP0
10
1460.1850727487
20
1604.60775280768
30
0.000280853559850147
11
1460.59918322086
21
1604.55323412973
31
0.000281027598322847
  0
LINE
 8
GROUP0
10
1461.7305540708
20
1607.28460497957
30
0.000281522755019292
11
1461.3991832209
21
1607.53887477573
31
0.000281384928435546
  0
LINE
 8
GROUP0
10
1430.73050498836
20
1605.02171046169
30
0.000268451009055681
11
1430.98477313596
21
1605.35308257656
31
0.00026856036267473
  0
LINE
 8
GROUP0
10
1460.59918322086
20
1604.55323412973
30
0.000281027598322847
11
1461.01329369303
21
1604.60775280766
31
0.000281202381605095
  0
LINE
 8
GROUP0
10
1459.05370189878
20
1606.5673446019
30
0.000280390445936529
11
1458.99918322085
21
1606.15323412974
31
0.000280364655628507
  0
LINE
 8
GROUP0
10
1430.01309374246
20
1635.60765399088
30
0.000268357781832318
11
1430.39898247509
21
1635.76749658668
31
0.00026852139840825
  0
LINE
 8
GROUP0
10
1461.98482386692
20
1605.35323412969
30
0.000281616653101402
11
1462.14466454293
21
1605.73912365751
31
0.000281686609104081
  0
LINE
 8
GROUP0
10
1459.79918322086
20
1607.53887477577
30
0.000280711056532468
11
1459.46781237096
21
1607.28460497962
31
0.00028056975623505
  0
LINE
 8
GROUP0
10
1431.19912850993
20
1606.15308364297
30
0.000268656107316012
11
1431.14460777182
21
1606.56719384391
31
0.000268635973499798
  0
LINE
 8
GROUP0
10
1444.34906947272
20
1442.97903123489
30
0.000239174519905561
11
1444.71084090506
21
1442.82918060113
31
0.000239299637532042
  0
LINE
 8
GROUP0
10
1427.99912851099
20
1606.15306772281
30
0.000267308363408336
11
1428.05364924909
21
1605.73895752202
31
0.00026732849722455
  0
LINE
 8
GROUP0
10
1430.01323129343
20
1607.6985590653
30
0.000268167199811931
11
1429.59912055005
21
1607.75307568307
31
0.000267993161203872
  0
LINE
 8
GROUP0
10
1444.71084090506
20
1442.82918060113
30
0.000239299637532042
11
1445.09906947272
21
1442.77806934056
31
0.000239437297060974
  0
LINE
 8
GROUP0
10
1461.01329369305
20
1607.69871545175
30
0.000281223495190463
11
1460.59918322088
21
1607.75323412969
31
0.000281049456717764
  0
LINE
 8
GROUP0
10
1459.2135425748
20
1606.95323412973
30
0.000280460401939209
11
1459.05370189878
21
1606.5673446019
31
0.000280390445936529
  0
LINE
 8
GROUP0
10
1462.19918322086
20
1606.15323412966
30
0.000281712399412104
11
1462.14466454293
21
1606.56734460182
31
0.000281692266475719
  0
LINE
 8
GROUP0
10
1459.05370189879
20
1605.73912365758
30
0.000280384788564891
11
1459.2135425748
21
1605.35323412975
31
0.000280449472741751
  0
LINE
 8
GROUP0
10
1429.59898354154
20
1635.55313325276
30
0.000268182998640309
11
1430.01309374246
21
1635.60765399088
31
0.000268357781832318
  0
LINE
 8
GROUP0
10
1430.73035206
20
1636.02176803139
30
0.000268662698175515
11
1430.9846202076
21
1636.35314014627
31
0.000268772051794564
  0
LINE
 8
GROUP0
10
1430.39913540357
20
1604.76743901709
30
0.000268309709277137
11
1430.73050498836
21
1605.02171046169
31
0.000268451009055681
  0
LINE
 8
GROUP0
10
1428.79898247513
20
1635.76748862673
30
0.000267847526448772
11
1429.18487279815
21
1635.60764987051
31
0.000268008960032251
  0
LINE
 8
GROUP0
10
1459.79918322086
20
1604.76759348369
30
0.000280692126605064
11
1460.1850727487
21
1604.60775280768
31
0.000280853559850147
  0
LINE
 8
GROUP0
10
1430.39898247509
20
1635.76749658668
30
0.00026852139840825
11
1430.73035206
21
1636.02176803139
31
0.000268662698175515
  0
LINE
 8
GROUP0
10
1443.59906947272
20
1444.27806934056
30
0.000238945694379566
11
1443.65018073328
21
1443.88984077291
31
0.000238952021944439
  0
LINE
 8
GROUP0
10
1429.5991364703
20
1604.55307568328
30
0.000267971309520476
11
1430.01324667108
21
1604.60759642137
31
0.000268146092701205
  0
LINE
 8
GROUP0
10
1428.46776328943
20
1605.02169920472
30
0.00026749801019248
11
1428.79913540418
21
1604.7674310572
31
0.000267635837328939
  0
LINE
 8
GROUP0
10
1429.59912055005
20
1607.75307568307
30
0.000267993161203872
11
1429.18501034912
21
1607.69855494496
31
0.000267818378023144
  0
LINE
 8
GROUP0
10
1445.48729804037
20
1442.82918060113
30
0.000239578117230899
11
1445.84906947272
21
1442.97903123489
31
0.000239712501368761
  0
LINE
 8
GROUP0
10
1430.01324667108
20
1604.60759642137
30
0.000268146092701205
11
1430.39913540357
21
1604.76743901709
31
0.000268309709277137
  0
LINE
 8
GROUP0
10
1428.7991216165
20
1607.53871234918
30
0.000267654761447211
11
1428.46775203239
21
1607.28444090369
31
0.000267513461668667
  0
LINE
 8
GROUP0
10
1428.79913540418
20
1604.7674310572
30
0.000267635837328939
11
1429.18502572707
21
1604.60759230103
31
0.000267797270912418
  0
LINE
 8
GROUP0
10
1428.21348388489
20
1606.95306878894
30
0.000267404108049618
11
1428.05364512873
21
1606.56717846605
31
0.000267334152859089
  0
LINE
 8
GROUP0
10
1431.14461189218
20
1605.73897289959
30
0.000268630317865259
11
1431.19912850993
21
1606.15308364297
31
0.000268656107316012
  0
LINE
 8
GROUP0
10
1430.98476517603
20
1606.95308257654
30
0.000268571288510788
11
1430.73049373133
21
1607.28445216146
31
0.000268466460520589
  0
LINE
 8
GROUP0
10
1428.21349184481
20
1605.35306878953
30
0.00026739318221356
11
1428.46776328943
21
1605.02169920472
31
0.00026749801019248
  0
LINE
 8
GROUP0
10
1430.39912161646
20
1607.53872030907
30
0.000268328633395409
11
1430.01323129343
21
1607.6985590653
31
0.000268167199811931
  0
LINE
 8
GROUP0
10
1446.1597296445
20
1443.21740916878
30
0.00023983129144165
11
1446.39810757839
21
1443.52806934056
31
0.000239926392070267
  0
LINE
 8
GROUP0
10
1445.84906947272
20
1442.97903123489
30
0.000239712501368761
11
1446.1597296445
21
1443.21740916878
31
0.00023983129144165
  0
LINE
 8
GROUP0
10
1446.54795821215
20
1443.88984077291
30
0.000239991322328681
11
1446.59906947272
21
1444.27806934056
31
0.000240021657317246
  0
LINE
 8
GROUP0
10
1428.05364512873
20
1606.56717846605
30
0.000267334152859089
11
1427.99912851099
21
1606.15306772281
31
0.000267308363408336
  0
LINE
 8
GROUP0
10
1430.73049373133
20
1607.28445216146
30
0.000268466460520589
11
1430.39912161646
21
1607.53872030907
31
0.000268328633395409
  0
LINE
 8
GROUP0
10
1517.36431095325
20
1639.37571000785
30
0.000372847233329665
11
1517.36431095324
21
1636.37571000785
31
0.000374104557482369
  0
LINE
 8
GROUP0
10
1428.46775203239
20
1607.28444090369
30
0.000267513461668667
11
1428.21348388489
21
1606.95306878894
31
0.000267404108049618
  0
LINE
 8
GROUP0
10
1446.3981075784
20
1512.02806934056
30
0.000241359815109821
11
1446.1597296445
21
1512.33872951234
31
0.00024128392519831
  0
LINE
 8
GROUP0
10
1445.09906947272
20
1442.77806934056
30
0.000239437297060974
11
1445.48729804037
21
1442.82918060113
31
0.000239578117230899
  0
LINE
 8
GROUP0
10
1444.03840930094
20
1443.21740916878
30
0.000239070470744984
11
1444.34906947272
21
1442.97903123489
31
0.000239174519905561
  0
LINE
 8
GROUP0
10
1431.14460777182
20
1606.56719384391
30
0.000268635973499798
11
1430.98476517603
21
1606.95308257654
31
0.000268571288510788
  0
LINE
 8
GROUP0
10
1443.65018073328
20
1443.88984077291
30
0.000238952021944439
11
1443.80003136704
21
1443.52806934056
31
0.000238994580833474
  0
LINE
 8
GROUP0
10
1443.80003136704
20
1443.52806934056
30
0.000238994580833474
11
1444.03840930094
21
1443.21740916878
31
0.000239070470744984
  0
LINE
 8
GROUP0
10
1446.59906947272
20
1511.27806934056
30
0.000241408701563728
11
1446.54795821215
21
1511.66629790822
31
0.000241402373998856
  0
LINE
 8
GROUP0
10
1522.96238716459
20
1634.87571000785
30
0.000370316413757266
11
1520.36431095324
21
1636.37571000785
31
0.000365270945157548
  0
LINE
 8
GROUP0
10
1428.05364924909
20
1605.73895752202
30
0.00026732849722455
11
1428.21349184481
21
1605.35306878953
31
0.00026739318221356
  0
LINE
 8
GROUP0
10
1429.18501034912
20
1607.69855494496
30
0.000267818378023144
11
1428.7991216165
21
1607.53871234918
31
0.000267654761447211
  0
LINE
 8
GROUP0
10
1430.98477313596
20
1605.35308257656
30
0.00026856036267473
11
1431.14461189218
21
1605.73897289959
31
0.000268630317865259
  0
LINE
 8
GROUP0
10
1429.18502572707
20
1604.60759230103
30
0.000267797270912418
11
1429.5991364703
21
1604.55307568328
31
0.000267971309520476
  0
LINE
 8
GROUP0
10
1445.84906947272
20
1512.57710744624
30
0.000241179876037734
11
1445.48729804037
21
1512.72695808
31
0.000241054758411252
  0
LINE
 8
GROUP0
10
1541.09908886436
20
1612.77791631142
30
0.000181245332110613
11
1541.09908886436
21
1608.77791631142
31
0.000181245332110613
  0
LINE
 8
GROUP0
10
1446.54795821215
20
1511.66629790822
30
0.000241402373998856
11
1446.3981075784
21
1512.02806934056
31
0.000241359815109821
  0
LINE
 8
GROUP0
10
1386.09908794043
20
1612.77791631142
30
0.000181245332110613
11
1386.09908794043
21
1608.77791631142
31
0.000181245332110613
  0
LINE
 8
GROUP0
10
1386.09908794043
20
1608.77791631142
30
0.000181245332110613
11
1349.0991231377
21
1608.77791631142
31
0.000181245332110613
  0
LINE
 8
GROUP0
10
1444.03840930094
20
1512.33872951234
30
0.000240523104501644
11
1443.80003136704
21
1512.02806934056
31
0.000240428003873028
  0
LINE
 8
GROUP0
10
1446.1597296445
20
1512.33872951234
30
0.00024128392519831
11
1445.84906947272
21
1512.57710744624
31
0.000241179876037734
  0
LINE
 8
GROUP0
10
1350.84326422546
20
1634.8756746974
30
0.000209748999948545
11
1348.24518801411
21
1636.3756746974
31
0.000204703531348827
  0
LINE
 8
GROUP0
10
1364.63749285951
20
1636.3756746974
30
0.000204703531348827
11
1364.63749285951
21
1639.3756746974
31
0.000203446206383973
  0
LINE
 8
GROUP0
10
1348.24518801411
20
1636.3756746974
30
0.000204703531348827
11
1348.24518801411
21
1639.3756746974
31
0.000203446206383973
  0
LINE
 8
GROUP0
10
1520.36431095324
20
1636.37571000785
30
0.000365270945157548
11
1520.36431095325
21
1639.37571000785
31
0.000364013620192694
  0
LINE
 8
GROUP0
10
1367.23556907086
20
1634.8756746974
30
0.000209748999948545
11
1364.63749285951
21
1636.3756746974
31
0.000204703531348827
  0
LINE
 8
GROUP0
10
1369.83364528221
20
1639.3756746974
30
0.000212279819520944
11
1369.83364528221
21
1636.3756746974
31
0.000213537143673648
  0
LINE
 8
GROUP0
10
1504.09907080376
20
1612.77791631142
30
0.000181245332110613
11
1541.09908886436
21
1612.77791631142
31
0.000181245332110613
  0
LINE
 8
GROUP0
10
1445.48729804037
20
1512.72695808
30
0.000241054758411252
11
1445.09906947272
21
1512.77806934056
31
0.000240917098882321
  0
LINE
 8
GROUP0
10
1349.0991231377
20
1608.77791631142
30
0.000181245332110613
11
1349.0991231377
21
1612.77791631142
31
0.000181245332110613
  0
LINE
 8
GROUP0
10
1525.56046337595
20
1639.37571000785
30
0.000372847233329665
11
1525.56046337594
21
1636.37571000785
31
0.000374104557482369
  0
LINE
 8
GROUP0
10
1504.09907080376
20
1608.77791631142
30
0.000181245332110613
11
1504.09907080376
21
1612.77791631142
31
0.000181245332110613
  0
LINE
 8
GROUP0
10
1443.59906947272
20
1511.27806934056
30
0.000240332738626048
11
1443.59906947272
21
1444.27806934056
31
0.000238945694379566
  0
LINE
 8
GROUP0
10
1517.36431095324
20
1636.37571000785
30
0.000374104557482369
11
1514.76623474189
21
1634.87571000785
31
0.000370316413757266
  0
LINE
 8
GROUP0
10
1446.39810757839
20
1443.52806934056
30
0.000239926392070267
11
1446.54795821215
21
1443.88984077291
31
0.000239991322328681
  0
LINE
 8
GROUP0
10
1522.9623871646
20
1640.87571000785
30
0.000367801764188513
11
1525.56046337595
21
1639.37571000785
31
0.000372847233329665
  0
LINE
 8
GROUP0
10
1444.71084090507
20
1512.72695808
30
0.000240776278712396
11
1444.34906947272
21
1512.57710744624
31
0.000240641894574534
  0
LINE
 8
GROUP0
10
1445.09906947272
20
1512.77806934056
30
0.000240917098882321
11
1444.71084090507
21
1512.72695808
31
0.000240776278712396
  0
LINE
 8
GROUP0
10
1349.0991231377
20
1612.77791631142
30
0.000181245332110613
11
1386.09908794043
21
1612.77791631142
31
0.000181245332110613
  0
LINE
 8
GROUP0
10
1541.09908886436
20
1608.77791631142
30
0.000181245332110613
11
1504.09907080376
21
1608.77791631142
31
0.000181245332110613
  0
LINE
 8
GROUP0
10
1525.56046337594
20
1636.37571000785
30
0.000374104557482369
11
1522.96238716459
21
1634.87571000785
31
0.000370316413757266
  0
LINE
 8
GROUP0
10
1443.65018073329
20
1511.66629790822
30
0.000240363073614613
11
1443.59906947272
21
1511.27806934056
31
0.000240332738626048
  0
LINE
 8
GROUP0
10
1443.80003136704
20
1512.02806934056
30
0.000240428003873028
11
1443.65018073329
21
1511.66629790822
31
0.000240363073614613
  0
LINE
 8
GROUP0
10
1520.36431095325
20
1639.37571000785
30
0.000364013620192694
11
1522.9623871646
21
1640.87571000785
31
0.000367801764188513
  0
LINE
 8
GROUP0
10
1446.59906947272
20
1444.27806934056
30
0.000240021657317246
11
1446.59906947272
21
1511.27806934056
31
0.000241408701563728
  0
LINE
 8
GROUP0
10
1444.34906947272
20
1512.57710744624
30
0.000240641894574534
11
1444.03840930094
21
1512.33872951234
31
0.000240523104501644
  0
LINE
 8
GROUP0
10
1346.74518905287
20
1633.77759908584
30
0.00020890797729578
11
1349.34326526422
21
1632.27759908584
31
0.000213953445805259
  0
LINE
 8
GROUP0
10
1514.7662347419
20
1640.87571000785
30
0.00036780176445923
11
1517.36431095325
21
1639.37571000785
31
0.000372847233329665
  0
LINE
 8
GROUP0
10
1349.34326526422
20
1632.27759908584
30
0.000213953445805259
11
1349.34326526422
21
1629.27759908584
31
0.000215210770634755
  0
LINE
 8
GROUP0
10
1344.14711284152
20
1632.27759908584
30
0.000205119833570677
11
1346.74518905287
21
1633.77759908584
31
0.00020890797729578
  0
LINE
 8
GROUP0
10
1382.12785754821
20
1632.27760349963
30
0.000244909339147981
11
1382.12785754821
21
1629.27760349963
31
0.000246166663932357
  0
LINE
 8
GROUP0
10
1350.84326422546
20
1640.8756746974
30
0.000207234350650509
11
1353.44134043681
21
1639.3756746974
31
0.000212279819520944
  0
LINE
 8
GROUP0
10
1378.02979770491
20
1639.3756746974
30
0.000212279819520944
11
1378.02979770491
21
1636.3756746974
31
0.000213537143673648
  0
LINE
 8
GROUP0
10
1369.83364528221
20
1636.3756746974
30
0.000213537143673648
11
1367.23556907086
21
1634.8756746974
31
0.000209748999948545
  0
LINE
 8
GROUP0
10
1344.14711284152
20
1629.27759908584
30
0.000206377158400173
11
1344.14711284152
21
1632.27759908584
31
0.000205119833570677
  0
LINE
 8
GROUP0
10
1376.93170512551
20
1629.27760349963
30
0.000237333050524668
11
1376.93170512551
21
1632.27760349963
31
0.000236075726552443
  0
LINE
 8
GROUP0
10
1348.24518801411
20
1639.3756746974
30
0.000203446206383973
11
1350.84326422546
21
1640.8756746974
31
0.000207234350650509
  0
LINE
 8
GROUP0
10
1522.96238716458
20
1620.67955758517
30
0.000358819784764108
11
1520.36431095323
21
1622.17955758517
31
0.000356514986317435
  0
LINE
 8
GROUP0
10
1349.34326526422
20
1629.27759908584
30
0.000215210770634755
11
1346.74518905287
21
1627.77759908584
31
0.000211422626368218
  0
LINE
 8
GROUP0
10
1535.25660150818
20
1633.77763439626
30
0.000391245324439282
11
1537.85467771953
21
1632.27763439626
31
0.000396290792407328
  0
LINE
 8
GROUP0
10
1372.83364528221
20
1639.3756746974
30
0.000203446206383973
11
1375.43172149356
21
1640.8756746974
31
0.000207234350650509
  0
LINE
 8
GROUP0
10
1367.23556907086
20
1640.8756746974
30
0.000207234350650509
11
1369.83364528221
21
1639.3756746974
31
0.000212279819520944
  0
LINE
 8
GROUP0
10
1364.63749285951
20
1639.3756746974
30
0.000203446206383973
11
1367.23556907086
21
1640.8756746974
31
0.000207234350650509
  0
LINE
 8
GROUP0
10
1376.93170512551
20
1632.27760349963
30
0.000236075726552443
11
1379.52978133686
21
1633.77760349963
31
0.00023986387072874
  0
LINE
 8
GROUP0
10
1525.56046337593
20
1622.17955758517
30
0.000359131078698383
11
1522.96238716458
21
1620.67955758517
31
0.000358819784764108
  0
LINE
 8
GROUP0
10
1375.43172149356
20
1640.8756746974
30
0.000207234350650509
11
1378.02979770491
21
1639.3756746974
31
0.000212279819520944
  0
LINE
 8
GROUP0
10
1514.76623474189
20
1634.87571000785
30
0.000370316413757266
11
1512.16815853055
21
1636.37571000785
31
0.000365270945157548
  0
LINE
 8
GROUP0
10
1379.52978133686
20
1633.77760349963
30
0.00023986387072874
11
1382.12785754821
21
1632.27760349963
31
0.000244909339147981
  0
LINE
 8
GROUP0
10
1353.44134043681
20
1639.3756746974
30
0.000212279819520944
11
1353.44134043681
21
1636.3756746974
31
0.000213537143673648
  0
LINE
 8
GROUP0
10
1537.85467771952
20
1629.27763439626
30
0.000397548117011226
11
1535.25660150817
21
1627.77763439626
31
0.000393759973737318
  0
LINE
 8
GROUP0
10
1346.74518905287
20
1627.77759908584
30
0.000211422626368218
11
1344.14711284152
21
1629.27759908584
31
0.000206377158400173
  0
LINE
 8
GROUP0
10
1512.16815853055
20
1639.37571000785
30
0.000364013620192694
11
1514.7662347419
21
1640.87571000785
31
0.00036780176445923
  0
LINE
 8
GROUP0
10
1512.16815853055
20
1636.37571000785
30
0.000365270945157548
11
1512.16815853055
21
1639.37571000785
31
0.000364013620192694
  0
LINE
 8
GROUP0
10
1353.44134043681
20
1636.3756746974
30
0.000213537143673648
11
1350.84326422546
21
1634.8756746974
31
0.000209748999948545
  0
LINE
 8
GROUP0
10
1378.02979770491
20
1636.3756746974
30
0.000213537143673648
11
1375.43172149356
21
1634.8756746974
31
0.000209748999993664
  0
LINE
 8
GROUP0
10
1382.12785754821
20
1629.27760349963
30
0.000246166663932357
11
1379.52978133686
21
1627.77760349963
31
0.000242378519756059
  0
LINE
 8
GROUP0
10
1375.43172149356
20
1634.8756746974
30
0.000209748999993664
11
1372.83364528221
21
1636.3756746974
31
0.000204703531348827
  0
LINE
 8
GROUP0
10
1372.83364528221
20
1636.3756746974
30
0.000204703531348827
11
1372.83364528221
21
1639.3756746974
31
0.000203446206383973
  0
LINE
 8
GROUP0
10
1546.05082806464
20
1632.27763881008
30
0.000405476752911582
11
1546.05082806464
21
1629.27763881008
31
0.000406734077695958
  0
LINE
 8
GROUP0
10
1546.05082806464
20
1629.27763881008
30
0.000406734077695958
11
1543.45275185329
21
1627.77763881008
31
0.000402945933519661
  0
LINE
 8
GROUP0
10
1361.63749285951
20
1636.3756746974
30
0.000213537143673648
11
1359.03941664816
21
1634.8756746974
31
0.000209748999948545
  0
LINE
 8
GROUP0
10
1423.10860017732
20
1629.27761232725
30
0.000286308517373257
11
1420.51052396597
21
1627.77761232725
31
0.000282520373196959
  0
LINE
 8
GROUP0
10
1525.56046337594
20
1625.17955758517
30
0.000357137574185984
11
1525.56046337593
21
1622.17955758517
31
0.000359131078698383
  0
LINE
 8
GROUP0
10
1532.65852529683
20
1629.27763439626
30
0.000388714504505927
11
1532.65852529683
21
1632.27763439626
31
0.000387457180353223
  0
LINE
 8
GROUP0
10
1359.03941664816
20
1640.8756746974
30
0.000207234350379792
11
1361.63749285951
21
1639.3756746974
31
0.000212279819520944
  0
LINE
 8
GROUP0
10
1423.10860017732
20
1632.27761232724
30
0.000285051192588881
11
1423.10860017732
21
1629.27761232725
31
0.000286308517373257
  0
LINE
 8
GROUP0
10
1417.91244775462
20
1629.27761232725
30
0.000277474903965569
11
1417.91244775462
21
1632.27761232724
31
0.000276217579993343
  0
LINE
 8
GROUP0
10
1536.75661579861
20
1622.17955758516
30
0.000336900571608112
11
1536.75661579862
21
1625.17955758516
31
0.000334907066689638
  0
LINE
 8
GROUP0
10
1543.4527518533
20
1633.77763881008
30
0.000400431284492342
11
1546.05082806464
21
1632.27763881008
31
0.000405476752911582
  0
LINE
 8
GROUP0
10
1359.03941664816
20
1634.8756746974
30
0.000209748999948545
11
1356.44134043681
21
1636.3756746974
31
0.000204703531348827
  0
LINE
 8
GROUP0
10
1522.96238716458
20
1626.67955758517
30
0.000354832775603953
11
1525.56046337594
21
1625.17955758517
31
0.000357137574185984
  0
LINE
 8
GROUP0
10
1527.06045116305
20
1627.77763439626
30
0.000393759973737318
11
1524.4623749517
21
1629.27763439626
31
0.000388714504505927
  0
LINE
 8
GROUP0
10
1537.85467771953
20
1632.27763439626
30
0.000396290792407328
11
1537.85467771952
21
1629.27763439626
31
0.000397548117011226
  0
LINE
 8
GROUP0
10
1356.44134043681
20
1639.3756746974
30
0.000203446206383973
11
1359.03941664816
21
1640.8756746974
31
0.000207234350379792
  0
LINE
 8
GROUP0
10
1420.51052396597
20
1633.77761232724
30
0.000280005724169641
11
1423.10860017732
21
1632.27761232724
31
0.000285051192588881
  0
LINE
 8
GROUP0
10
1543.45275185329
20
1627.77763881008
30
0.000402945933519661
11
1540.85467564194
21
1629.27763881008
31
0.00039790046428827
  0
LINE
 8
GROUP0
10
1535.25660150817
20
1627.77763439626
30
0.000393759973737318
11
1532.65852529683
21
1629.27763439626
31
0.000388714504505927
  0
LINE
 8
GROUP0
10
1420.51052396597
20
1627.77761232725
30
0.000282520373196959
11
1417.91244775462
21
1629.27761232725
31
0.000277474903965569
  0
LINE
 8
GROUP0
10
1540.85467564195
20
1632.27763881008
30
0.000396643140316044
11
1543.4527518533
21
1633.77763881008
31
0.000400431284492342
  0
LINE
 8
GROUP0
10
1540.85467564194
20
1629.27763881008
30
0.00039790046428827
11
1540.85467564195
21
1632.27763881008
31
0.000396643140316044
  0
LINE
 8
GROUP0
10
1539.35469200997
20
1626.67955758516
30
0.000335218360669032
11
1541.95276822132
21
1625.17955758515
31
0.000337523159341302
  0
LINE
 8
GROUP0
10
1379.52978133686
20
1627.77760349963
30
0.000242378519756059
11
1376.93170512551
21
1629.27760349963
31
0.000237333050524668
  0
LINE
 8
GROUP0
10
1361.63749285951
20
1639.3756746974
30
0.000212279819520944
11
1361.63749285951
21
1636.3756746974
31
0.000213537143673648
  0
LINE
 8
GROUP0
10
1356.44134043681
20
1636.3756746974
30
0.000204703531348827
11
1356.44134043681
21
1639.3756746974
31
0.000203446206383973
  0
LINE
 8
GROUP0
10
1417.91244775462
20
1632.27761232724
30
0.000276217579993343
11
1420.51052396597
21
1633.77761232724
31
0.000280005724169641
  0
LINE
 8
GROUP0
10
1520.36431095323
20
1622.17955758517
30
0.000356514986317435
11
1520.36431095323
21
1625.17955758517
31
0.000354521481444081
  0
LINE
 8
GROUP0
10
1532.65852529683
20
1632.27763439626
30
0.000387457180353223
11
1535.25660150818
21
1633.77763439626
31
0.000391245324439282
  0
LINE
 8
GROUP0
10
1512.16815853054
20
1622.17955758518
30
0.000366322194100732
11
1512.16815853054
21
1625.17955758517
31
0.000364328689317617
  0
LINE
 8
GROUP0
10
1533.75661579864
20
1639.37571000785
30
0.000372847233329665
11
1533.75661579864
21
1636.37571000785
31
0.000374104557482369
  0
LINE
 8
GROUP0
10
1520.36431095323
20
1625.17955758517
30
0.000354521481444081
11
1522.96238716458
21
1626.67955758517
31
0.000354832775603953
  0
LINE
 8
GROUP0
10
1408.21631169995
20
1620.67953110233
30
0.000228587016522752
11
1405.6182354886
21
1622.17953110233
31
0.000226282218211438
  0
LINE
 8
GROUP0
10
1365.73555685797
20
1632.27759908581
30
0.000235723378733965
11
1365.73555685797
21
1629.27759908581
31
0.000236980703247625
  0
LINE
 8
GROUP0
10
1410.8143879113
20
1622.17953110233
30
0.000228898310592385
11
1408.21631169995
21
1620.67953110233
31
0.000228587016522752
  0
LINE
 8
GROUP0
10
1408.21631169995
20
1626.67953110233
30
0.000224600007949149
11
1410.8143879113
21
1625.17953110232
31
0.000226904806440942
  0
LINE
 8
GROUP0
10
1513.26623578065
20
1632.27763439629
30
0.00037452085961398
11
1513.26623578065
21
1629.27763439629
31
0.000375778184398357
  0
LINE
 8
GROUP0
10
1521.46238612577
20
1632.27763439629
30
0.000374520859523741
11
1521.46238612577
21
1629.27763439629
31
0.000375778184398357
  0
LINE
 8
GROUP0
10
1513.26623578065
20
1629.27763439629
30
0.000375778184398357
11
1510.6681595693
21
1627.77763439629
31
0.00037199004013182
  0
LINE
 8
GROUP0
10
1514.76623474189
20
1620.67955758518
30
0.000368626991960852
11
1512.16815853054
21
1622.17955758518
31
0.000366322194100732
  0
LINE
 8
GROUP0
10
1541.95276822132
20
1622.17955758516
30
0.000339516664079298
11
1539.35469200996
21
1620.67955758516
31
0.000339205369377993
  0
LINE
 8
GROUP0
10
1536.75661579862
20
1625.17955758516
30
0.000334907066689638
11
1539.35469200997
21
1626.67955758516
31
0.000335218360669032
  0
LINE
 8
GROUP0
10
1527.06045116306
20
1633.77763439626
30
0.000391245324439282
11
1529.6585273744
21
1632.27763439626
31
0.000396290792497567
  0
LINE
 8
GROUP0
10
1524.4623749517
20
1629.27763439626
30
0.000388714504505927
11
1524.46237495171
21
1632.27763439626
31
0.000387457180082507
  0
LINE
 8
GROUP0
10
1521.46238612577
20
1629.27763439629
30
0.000375778184398357
11
1518.86430991442
21
1627.77763439629
31
0.000371990040041581
  0
LINE
 8
GROUP0
10
1531.15853958729
20
1634.87571000785
30
0.000370316413757266
11
1528.56046337594
21
1636.37571000785
31
0.000365270945157548
  0
LINE
 8
GROUP0
10
1516.26623370307
20
1629.27763439629
30
0.000366944572163774
11
1516.26623370308
21
1632.27763439629
31
0.000365687247379398
  0
LINE
 8
GROUP0
10
1533.75661579864
20
1636.37571000785
30
0.000374104557482369
11
1531.15853958729
21
1634.87571000785
31
0.000370316413757266
  0
LINE
 8
GROUP0
10
1518.86430991443
20
1633.77763439629
30
0.000369475391104501
11
1521.46238612577
21
1632.27763439629
31
0.000374520859523741
  0
LINE
 8
GROUP0
10
1514.76623474189
20
1626.67955758517
30
0.000364639982755577
11
1517.36431095324
21
1625.17955758517
31
0.000366944781427847
  0
LINE
 8
GROUP0
10
1517.36431095324
20
1622.17955758517
30
0.000368938286030485
11
1514.76623474189
21
1620.67955758518
31
0.000368626991960852
  0
LINE
 8
GROUP0
10
1528.56046337594
20
1636.37571000785
30
0.000365270945157548
11
1528.56046337595
21
1639.37571000785
31
0.000364013620192694
  0
LINE
 8
GROUP0
10
1512.16815853054
20
1625.17955758517
30
0.000364328689317617
11
1514.76623474189
21
1626.67955758517
31
0.000364639982755577
  0
LINE
 8
GROUP0
10
1528.56046337595
20
1639.37571000785
30
0.000364013620192694
11
1531.15853958729
21
1640.87571000785
31
0.00036780176445923
  0
LINE
 8
GROUP0
10
1516.26623370308
20
1632.27763439629
30
0.000365687247379398
11
1518.86430991443
21
1633.77763439629
31
0.000369475391104501
  0
LINE
 8
GROUP0
10
1529.6585273744
20
1632.27763439626
30
0.000396290792497567
11
1529.6585273744
21
1629.27763439626
31
0.000397548117011226
  0
LINE
 8
GROUP0
10
1518.86430991442
20
1627.77763439629
30
0.000371990040041581
11
1516.26623370307
21
1629.27763439629
31
0.000366944572163774
  0
LINE
 8
GROUP0
10
1529.6585273744
20
1629.27763439626
30
0.000397548117011226
11
1527.06045116305
21
1627.77763439626
31
0.000393759973737318
  0
LINE
 8
GROUP0
10
1539.35469200996
20
1620.67955758516
30
0.000339205369377993
11
1536.75661579861
21
1622.17955758516
31
0.000336900571608112
  0
LINE
 8
GROUP0
10
1531.15853958729
20
1640.87571000785
30
0.00036780176445923
11
1533.75661579864
21
1639.37571000785
31
0.000372847233329665
  0
LINE
 8
GROUP0
10
1541.95276822132
20
1625.17955758515
30
0.000337523159341302
11
1541.95276822132
21
1622.17955758516
31
0.000339516664079298
  0
LINE
 8
GROUP0
10
1524.46237495171
20
1632.27763439626
30
0.000387457180082507
11
1527.06045116306
21
1633.77763439626
31
0.000391245324439282
  0
LINE
 8
GROUP0
10
1517.36431095324
20
1625.17955758517
30
0.000366944781427847
11
1517.36431095324
21
1622.17955758517
31
0.000368938286030485
  0
LINE
 8
GROUP0
10
1363.13748064662
20
1633.77759908581
30
0.000230677910675681
11
1365.73555685797
21
1632.27759908581
31
0.000235723378733965
  0
LINE
 8
GROUP0
10
1398.52015823845
20
1629.27760791345
30
0.000255352624075655
11
1395.9220820271
21
1627.77760791345
31
0.00025156447971888
  0
LINE
 8
GROUP0
10
1476.38356832413
20
1625.17954875756
30
0.000326802927986947
11
1476.38356832413
21
1622.17954875756
31
0.000328796432589584
  0
LINE
 8
GROUP0
10
1393.32400581575
20
1632.27760791345
30
0.000245261687056697
11
1395.9220820271
21
1633.77760791345
31
0.0002490498307818
  0
LINE
 8
GROUP0
10
1486.07970853395
20
1633.77762556865
30
0.000351103470998382
11
1488.6777847453
21
1632.27762556865
31
0.000356148939056666
  0
LINE
 8
GROUP0
10
1405.6182354886
20
1625.17953110233
30
0.000224288713969756
11
1408.21631169995
21
1626.67953110233
31
0.000224600007949149
  0
LINE
 8
GROUP0
10
1381.02979770487
20
1622.1795222747
30
0.000166525950557528
11
1381.02979770487
21
1625.1795222747
31
0.000164532445774412
  0
LINE
 8
GROUP0
10
1381.02979770491
20
1639.3756746974
30
0.000203446206383973
11
1383.62787391626
21
1640.8756746974
31
0.000207234350650509
  0
LINE
 8
GROUP0
10
1410.8143879113
20
1625.17953110232
30
0.000226904806440942
11
1410.8143879113
21
1622.17953110233
31
0.000228898310592385
  0
LINE
 8
GROUP0
10
1473.78549211278
20
1620.67954875756
30
0.000328485138519952
11
1471.18741590143
21
1622.17954875756
31
0.000326180340659832
  0
LINE
 8
GROUP0
10
1508.07008335795
20
1629.27763439629
30
0.000366944572163774
11
1508.07008335795
21
1632.27763439629
31
0.000365687247379398
  0
LINE
 8
GROUP0
10
1386.22595012758
20
1625.1795222747
30
0.000167148538426076
11
1386.22595012758
21
1622.1795222747
31
0.000169142042306802
  0
LINE
 8
GROUP0
10
1405.6182354886
20
1622.17953110233
30
0.000226282218211438
11
1405.6182354886
21
1625.17953110233
31
0.000224288713969756
  0
LINE
 8
GROUP0
10
1360.53940443527
20
1632.27759908581
30
0.000226889766318905
11
1363.13748064662
21
1633.77759908581
31
0.000230677910675681
  0
LINE
 8
GROUP0
10
1393.32400581575
20
1629.27760791345
30
0.000246519011841073
11
1393.32400581575
21
1632.27760791345
31
0.000245261687056697
  0
LINE
 8
GROUP0
10
1395.9220820271
20
1633.77760791345
30
0.0002490498307818
11
1398.52015823845
21
1632.27760791345
31
0.00025409529920104
  0
LINE
 8
GROUP0
10
1386.22595012761
20
1636.3756746974
30
0.000213537143718767
11
1383.62787391626
21
1634.8756746974
31
0.000209748999993664
  0
LINE
 8
GROUP0
10
1395.9220820271
20
1627.77760791345
30
0.00025156447971888
11
1393.32400581575
21
1629.27760791345
31
0.000246519011841073
  0
LINE
 8
GROUP0
10
1386.22595012758
20
1622.1795222747
30
0.000169142042306802
11
1383.62787391622
21
1620.6795222747
31
0.000168830748598126
  0
LINE
 8
GROUP0
10
1386.22595012761
20
1639.3756746974
30
0.000212279819520944
11
1386.22595012761
21
1636.3756746974
31
0.000213537143718767
  0
LINE
 8
GROUP0
10
1383.62787391622
20
1620.6795222747
30
0.000168830748598126
11
1381.02979770487
21
1622.1795222747
31
0.000166525950557528
  0
LINE
 8
GROUP0
10
1365.73555685797
20
1629.27759908581
30
0.000236980703247625
11
1363.13748064662
21
1627.77759908582
31
0.000233192559973716
  0
LINE
 8
GROUP0
10
1383.62787391626
20
1634.8756746974
30
0.000209748999993664
11
1381.02979770491
21
1636.3756746974
31
0.000204703531393946
  0
LINE
 8
GROUP0
10
1381.02979770491
20
1636.3756746974
30
0.000204703531393946
11
1381.02979770491
21
1639.3756746974
31
0.000203446206383973
  0
LINE
 8
GROUP0
10
1483.4816323226
20
1632.27762556865
30
0.000347315326641606
11
1486.07970853395
21
1633.77762556865
31
0.000351103470998382
  0
LINE
 8
GROUP0
10
1360.53940443527
20
1629.27759908581
30
0.000228147090742326
11
1360.53940443527
21
1632.27759908581
31
0.000226889766318905
  0
LINE
 8
GROUP0
10
1381.02979770487
20
1625.1795222747
30
0.000164532445774412
11
1383.62787391623
21
1626.6795222747
31
0.000164843739663567
  0
LINE
 8
GROUP0
10
1383.62787391623
20
1626.6795222747
30
0.000164843739663567
11
1386.22595012758
21
1625.1795222747
31
0.000167148538426076
  0
LINE
 8
GROUP0
10
1508.07008335795
20
1632.27763439629
30
0.000365687247379398
11
1510.6681595693
21
1633.77763439629
31
0.000369475391104501
  0
LINE
 8
GROUP0
10
1383.62787391626
20
1640.8756746974
30
0.000207234350650509
11
1386.22595012761
21
1639.3756746974
31
0.000212279819520944
  0
LINE
 8
GROUP0
10
1363.13748064662
20
1627.77759908582
30
0.000233192559973716
11
1360.53940443527
21
1629.27759908581
31
0.000228147090742326
  0
LINE
 8
GROUP0
10
1510.6681595693
20
1627.77763439629
30
0.00037199004013182
11
1508.07008335795
21
1629.27763439629
31
0.000366944572163774
  0
LINE
 8
GROUP0
10
1510.6681595693
20
1633.77763439629
30
0.000369475391104501
11
1513.26623578065
21
1632.27763439629
31
0.00037452085961398
  0
LINE
 8
GROUP0
10
1539.35469200999
20
1640.87571000785
30
0.00036780176445923
11
1541.95276822134
21
1639.37571000785
31
0.000372847233329665
  0
LINE
 8
GROUP0
10
1471.18741590143
20
1625.17954875756
30
0.000324186835876716
11
1473.78549211278
21
1626.67954875756
31
0.000324498129314676
  0
LINE
 8
GROUP0
10
1473.78549211278
20
1626.67954875756
30
0.000324498129314676
11
1476.38356832413
21
1625.17954875756
31
0.000326802927986947
  0
LINE
 8
GROUP0
10
1531.15853958727
20
1620.67955758516
30
0.000349012576890573
11
1528.56046337592
21
1622.17955758516
31
0.000346707778579258
  0
LINE
 8
GROUP0
10
1495.7758731695
20
1622.17954875755
30
0.000296758718122092
11
1495.77587316951
21
1625.17954875755
31
0.000294765213248738
  0
LINE
 8
GROUP0
10
1541.95276822134
20
1639.37571000785
30
0.000372847233329665
11
1541.95276822134
21
1636.37571000785
31
0.000374104557482369
  0
LINE
 8
GROUP0
10
1476.38356832413
20
1622.17954875756
30
0.000328796432589584
11
1473.78549211278
21
1620.67954875756
31
0.000328485138519952
  0
LINE
 8
GROUP0
10
1483.48163232259
20
1629.27762556865
30
0.000348572651065027
11
1483.4816323226
21
1632.27762556865
31
0.000347315326641606
  0
LINE
 8
GROUP0
10
1488.6777847453
20
1632.27762556865
30
0.000356148939056666
11
1488.67778474529
21
1629.27762556865
31
0.000357406263570326
  0
LINE
 8
GROUP0
10
1536.75661579864
20
1639.37571000785
30
0.000364013620192694
11
1539.35469200999
21
1640.87571000785
31
0.00036780176445923
  0
LINE
 8
GROUP0
10
1359.03941664815
20
1620.67952227472
30
0.000198252370955387
11
1356.44134043679
21
1622.17952227472
31
0.000195947572553834
  0
LINE
 8
GROUP0
10
1484.57972074682
20
1622.17954875756
30
0.000318989225257482
11
1481.98164453547
21
1620.67954875756
31
0.000318677931278089
  0
LINE
 8
GROUP0
10
1481.98164453548
20
1634.87570118024
30
0.000330174560316365
11
1479.38356832414
21
1636.37570118024
31
0.000325129091716647
  0
LINE
 8
GROUP0
10
1505.07008543554
20
1632.27762998247
30
0.000365334899470682
11
1505.07008543553
21
1629.27762998247
31
0.000366592224255058
  0
LINE
 8
GROUP0
10
1359.03941664815
20
1626.67952227472
30
0.000194265361840351
11
1361.6374928595
21
1625.17952227472
31
0.000196570160422382
  0
LINE
 8
GROUP0
10
1481.98164453548
20
1626.67954875755
30
0.000314690922163052
11
1484.57972074683
21
1625.17954875755
31
0.000316995720745084
  0
LINE
 8
GROUP0
10
1361.6374928595
20
1625.17952227472
30
0.000196570160422382
11
1361.6374928595
21
1622.17952227472
31
0.000198563664934781
  0
LINE
 8
GROUP0
10
1531.15853958728
20
1626.67955758516
30
0.000345025568271851
11
1533.75661579863
21
1625.17955758516
31
0.000347330366763643
  0
LINE
 8
GROUP0
10
1541.95276822134
20
1636.37571000785
30
0.000374104557482369
11
1539.35469200999
21
1634.87571000785
31
0.000370316413757266
  0
LINE
 8
GROUP0
10
1471.18741590143
20
1622.17954875756
30
0.000326180340659832
11
1471.18741590143
21
1625.17954875756
31
0.000324186835876716
  0
LINE
 8
GROUP0
10
1539.35469200999
20
1634.87571000785
30
0.000370316413757266
11
1536.75661579864
21
1636.37571000785
31
0.000365270945157548
  0
LINE
 8
GROUP0
10
1536.75661579864
20
1636.37571000785
30
0.000365270945157548
11
1536.75661579864
21
1639.37571000785
31
0.000364013620192694
  0
LINE
 8
GROUP0
10
1398.52015823845
20
1632.27760791345
30
0.00025409529920104
11
1398.52015823845
21
1629.27760791345
31
0.000255352624075655
  0
LINE
 8
GROUP0
10
1486.07970853394
20
1627.77762556865
30
0.000353618120296417
11
1483.48163232259
21
1629.27762556865
31
0.000348572651065027
  0
LINE
 8
GROUP0
10
1528.56046337592
20
1622.17955758516
30
0.000346707778579258
11
1528.56046337592
21
1625.17955758516
31
0.000344714274292457
  0
LINE
 8
GROUP0
10
1356.44134043679
20
1622.17952227472
30
0.000195947572553834
11
1356.4413404368
21
1625.17952227472
31
0.00019395406768048
  0
LINE
 8
GROUP0
10
1361.6374928595
20
1622.17952227472
30
0.000198563664934781
11
1359.03941664815
21
1620.67952227472
31
0.000198252370955387
  0
LINE
 8
GROUP0
10
1488.67778474529
20
1629.27762556865
30
0.000357406263570326
11
1486.07970853394
21
1627.77762556865
31
0.000353618120296417
  0
LINE
 8
GROUP0
10
1533.75661579863
20
1625.17955758516
30
0.000347330366763643
11
1533.75661579863
21
1622.17955758516
31
0.000349323870960205
  0
LINE
 8
GROUP0
10
1528.56046337592
20
1625.17955758516
30
0.000344714274292457
11
1531.15853958728
21
1626.67955758516
31
0.000345025568271851
  0
LINE
 8
GROUP0
10
1356.4413404368
20
1625.17952227472
30
0.00019395406768048
11
1359.03941664815
21
1626.67952227472
31
0.000194265361840351
  0
LINE
 8
GROUP0
10
1533.75661579863
20
1622.17955758516
30
0.000349323870960205
11
1531.15853958727
21
1620.67955758516
31
0.000349012576890573
  0
LINE
 8
GROUP0
10
1498.37394938086
20
1620.67954875755
30
0.000299063515891973
11
1495.7758731695
21
1622.17954875755
31
0.000296758718122092
  0
LINE
 8
GROUP0
10
1499.87393301284
20
1632.27762998247
30
0.000356501286875144
11
1502.47200922419
21
1633.77762998247
31
0.000360289431051441
  0
LINE
 8
GROUP0
10
1479.38356832412
20
1625.17954875756
30
0.000314379628003181
11
1481.98164453548
21
1626.67954875755
31
0.000314690922163052
  0
LINE
 8
GROUP0
10
1500.97202559221
20
1625.17954875754
30
0.000297381305900402
11
1500.97202559221
21
1622.17954875754
31
0.000299374810593278
  0
LINE
 8
GROUP0
10
1402.61823548861
20
1625.17953110233
30
0.000236712013863283
11
1402.61823548861
21
1622.17953110233
31
0.000238705518375681
  0
LINE
 8
GROUP0
10
1400.02015927725
20
1620.67953110233
30
0.000238394224396288
11
1397.4220830659
21
1622.17953110233
31
0.000236089425994734
  0
LINE
 8
GROUP0
10
1479.38356832412
20
1622.17954875756
30
0.000316373132876535
11
1479.38356832412
21
1625.17954875756
31
0.000314379628003181
  0
LINE
 8
GROUP0
10
1479.38356832414
20
1639.37570118024
30
0.000323871766751793
11
1481.98164453549
21
1640.87570118024
31
0.000327659910747613
  0
LINE
 8
GROUP0
10
1499.87393301283
20
1629.27762998247
30
0.00035775861084737
11
1499.87393301284
21
1632.27762998247
31
0.000356501286875144
  0
LINE
 8
GROUP0
10
1502.47200922418
20
1627.77762998247
30
0.00036280408007876
11
1499.87393301283
21
1629.27762998247
31
0.00035775861084737
  0
LINE
 8
GROUP0
10
1487.57972074684
20
1639.37570118024
30
0.000323871766751793
11
1490.17779695819
21
1640.87570118024
31
0.00032765991101833
  0
LINE
 8
GROUP0
10
1498.37394938086
20
1626.67954875754
30
0.000295076507228131
11
1500.97202559221
21
1625.17954875754
31
0.000297381305900402
  0
LINE
 8
GROUP0
10
1397.4220830659
20
1622.17953110233
30
0.000236089425994734
11
1397.4220830659
21
1625.17953110233
31
0.00023409592112138
  0
LINE
 8
GROUP0
10
1484.57972074684
20
1639.37570118024
30
0.000332705379888765
11
1484.57972074683
21
1636.37570118024
31
0.000333962704041468
  0
LINE
 8
GROUP0
10
1495.77587316951
20
1625.17954875755
30
0.000294765213248738
11
1498.37394938086
21
1626.67954875754
31
0.000295076507228131
  0
LINE
 8
GROUP0
10
1484.57972074683
20
1636.37570118024
30
0.000333962704041468
11
1481.98164453548
21
1634.87570118024
31
0.000330174560316365
  0
LINE
 8
GROUP0
10
1495.77587316953
20
1636.37570118024
30
0.000325129091716647
11
1495.77587316954
21
1639.37570118024
31
0.000323871766751793
  0
LINE
 8
GROUP0
10
1467.08934072885
20
1632.27762556867
30
0.000325545393938498
11
1469.6874169402
21
1633.77762556867
31
0.000329333537663601
  0
LINE
 8
GROUP0
10
1495.77587316954
20
1639.37570118024
30
0.000323871766751793
11
1498.37394938089
21
1640.87570118024
31
0.00032765991101833
  0
LINE
 8
GROUP0
10
1481.98164453547
20
1620.67954875756
30
0.000318677931278089
11
1479.38356832412
21
1622.17954875756
31
0.000316373132876535
  0
LINE
 8
GROUP0
10
1506.57010180358
20
1634.87570118024
30
0.000330174560316365
11
1503.97202559223
21
1636.37570118024
31
0.000325129091716647
  0
LINE
 8
GROUP0
10
1481.98164453549
20
1640.87570118024
30
0.000327659910747613
11
1484.57972074684
21
1639.37570118024
31
0.000332705379888765
  0
LINE
 8
GROUP0
10
1505.07008543553
20
1629.27762998247
30
0.000366592224255058
11
1502.47200922418
21
1627.77762998247
31
0.00036280408007876
  0
LINE
 8
GROUP0
10
1400.02015927726
20
1626.67953110233
30
0.000234407215281252
11
1402.61823548861
21
1625.17953110233
31
0.000236712013863283
  0
LINE
 8
GROUP0
10
1500.97202559221
20
1622.17954875754
30
0.000299374810593278
11
1498.37394938086
21
1620.67954875755
31
0.000299063515891973
  0
LINE
 8
GROUP0
10
1502.47200922419
20
1633.77762998247
30
0.000360289431051441
11
1505.07008543554
21
1632.27762998247
31
0.000365334899470682
  0
LINE
 8
GROUP0
10
1402.61823548861
20
1622.17953110233
30
0.000238705518375681
11
1400.02015927725
21
1620.67953110233
31
0.000238394224396288
  0
LINE
 8
GROUP0
10
1469.68741694019
20
1627.77762556867
30
0.000331848186690919
11
1467.08934072884
21
1629.27762556867
31
0.000326802718722874
  0
LINE
 8
GROUP0
10
1397.4220830659
20
1625.17953110233
30
0.00023409592112138
11
1400.02015927726
21
1626.67953110233
31
0.000234407215281252
  0
LINE
 8
GROUP0
10
1487.57972074683
20
1636.37570118024
30
0.000325129091716647
11
1487.57972074684
21
1639.37570118024
31
0.000323871766751793
  0
LINE
 8
GROUP0
10
1484.57972074683
20
1625.17954875755
30
0.000316995720745084
11
1484.57972074682
21
1622.17954875756
31
0.000318989225257482
  0
LINE
 8
GROUP0
10
1479.38356832414
20
1636.37570118024
30
0.000325129091716647
11
1479.38356832414
21
1639.37570118024
31
0.000323871766751793
  0
LINE
 8
GROUP0
10
1492.77587316953
20
1636.37570118024
30
0.000333962704041468
11
1490.17779695818
21
1634.87570118024
31
0.000330174560316365
  0
LINE
 8
GROUP0
10
1490.17779695819
20
1640.87570118024
30
0.00032765991101833
11
1492.77587316954
21
1639.37570118024
31
0.000332705379888765
  0
LINE
 8
GROUP0
10
1509.16817801493
20
1639.37570118024
30
0.000332705379888765
11
1509.16817801493
21
1636.37570118024
31
0.000333962704041468
  0
LINE
 8
GROUP0
10
1406.71629948708
20
1629.27760791343
30
0.000277122556688525
11
1404.11822327573
21
1627.77760791343
31
0.000273334413414616
  0
LINE
 8
GROUP0
10
1471.18741590144
20
1636.37570118024
30
0.000325129091716647
11
1471.18741590144
21
1639.37570118024
31
0.000323871766751793
  0
LINE
 8
GROUP0
10
1492.77587316954
20
1639.37570118024
30
0.000332705379888765
11
1492.77587316953
21
1636.37570118024
31
0.000333962704041468
  0
LINE
 8
GROUP0
10
1503.97202559223
20
1639.37570118024
30
0.000323871766751793
11
1506.57010180358
21
1640.87570118024
31
0.00032765991101833
  0
LINE
 8
GROUP0
10
1476.38356832414
20
1639.37570118024
30
0.000332705379888765
11
1476.38356832414
21
1636.37570118024
31
0.000333962704041468
  0
LINE
 8
GROUP0
10
1500.97202559223
20
1636.37570118024
30
0.000333962704041468
11
1498.37394938088
21
1634.87570118024
31
0.000330174560316365
  0
LINE
 8
GROUP0
10
1496.87393509042
20
1629.27762556865
30
0.000357406263570326
11
1494.27585887907
21
1627.77762556865
31
0.000353618120296417
  0
LINE
 8
GROUP0
10
1471.18741590144
20
1639.37570118024
30
0.000323871766751793
11
1473.78549211279
21
1640.87570118024
31
0.00032765991101833
  0
LINE
 8
GROUP0
10
1500.97202559223
20
1639.37570118024
30
0.000332705379888765
11
1500.97202559223
21
1636.37570118024
31
0.000333962704041468
  0
LINE
 8
GROUP0
10
1491.67778266772
20
1629.27762556865
30
0.000348572651065027
11
1491.67778266772
21
1632.27762556865
31
0.000347315326912323
  0
LINE
 8
GROUP0
10
1473.78549211279
20
1634.87570118024
30
0.000330174560316365
11
1471.18741590144
21
1636.37570118024
31
0.000325129091716647
  0
LINE
 8
GROUP0
10
1491.67778266772
20
1632.27762556865
30
0.000347315326912323
11
1494.27585887907
21
1633.77762556865
31
0.000351103470998382
  0
LINE
 8
GROUP0
10
1509.16817801493
20
1636.37570118024
30
0.000333962704041468
11
1506.57010180358
21
1634.87570118024
31
0.000330174560316365
  0
LINE
 8
GROUP0
10
1404.11822327573
20
1633.77760791343
30
0.000270819764116581
11
1406.71629948708
21
1632.27760791343
31
0.000275865232174866
  0
LINE
 8
GROUP0
10
1354.94133939799
20
1633.77759908584
30
0.00020890797729578
11
1357.53941560934
21
1632.27759908584
31
0.00021395344576014
  0
LINE
 8
GROUP0
10
1357.53941560934
20
1629.27759908584
30
0.000215210770634755
11
1354.94133939799
21
1627.77759908584
31
0.000211422626277979
  0
LINE
 8
GROUP0
10
1494.27585887907
20
1627.77762556865
30
0.000353618120296417
11
1491.67778266772
21
1629.27762556865
31
0.000348572651065027
  0
LINE
 8
GROUP0
10
1354.94133939799
20
1627.77759908584
30
0.000211422626277979
11
1352.34326318664
21
1629.27759908584
31
0.000206377158400173
  0
LINE
 8
GROUP0
10
1467.08934072884
20
1629.27762556867
30
0.000326802718722874
11
1467.08934072885
21
1632.27762556867
31
0.000325545393938498
  0
LINE
 8
GROUP0
10
1496.87393509042
20
1632.27762556865
30
0.000356148938966427
11
1496.87393509042
21
1629.27762556865
31
0.000357406263570326
  0
LINE
 8
GROUP0
10
1473.78549211279
20
1640.87570118024
30
0.00032765991101833
11
1476.38356832414
21
1639.37570118024
31
0.000332705379888765
  0
LINE
 8
GROUP0
10
1498.37394938089
20
1640.87570118024
30
0.00032765991101833
11
1500.97202559223
21
1639.37570118024
31
0.000332705379888765
  0
LINE
 8
GROUP0
10
1469.6874169402
20
1633.77762556867
30
0.000329333537663601
11
1472.28549315154
21
1632.27762556867
31
0.00033437900617308
  0
LINE
 8
GROUP0
10
1498.37394938088
20
1634.87570118024
30
0.000330174560316365
11
1495.77587316953
21
1636.37570118024
31
0.000325129091716647
  0
LINE
 8
GROUP0
10
1503.97202559223
20
1636.37570118024
30
0.000325129091716647
11
1503.97202559223
21
1639.37570118024
31
0.000323871766751793
  0
LINE
 8
GROUP0
10
1476.38356832414
20
1636.37570118024
30
0.000333962704041468
11
1473.78549211279
21
1634.87570118024
31
0.000330174560316365
  0
LINE
 8
GROUP0
10
1490.17779695818
20
1634.87570118024
30
0.000330174560316365
11
1487.57972074683
21
1636.37570118024
31
0.000325129091716647
  0
LINE
 8
GROUP0
10
1506.57010180358
20
1640.87570118024
30
0.00032765991101833
11
1509.16817801493
21
1639.37570118024
31
0.000332705379888765
  0
LINE
 8
GROUP0
10
1494.27585887907
20
1633.77762556865
30
0.000351103470998382
11
1496.87393509042
21
1632.27762556865
31
0.000356148938966427
  0
LINE
 8
GROUP0
10
1352.34326318664
20
1632.27759908584
30
0.000205119833615797
11
1354.94133939799
21
1633.77759908584
31
0.00020890797729578
  0
LINE
 8
GROUP0
10
1475.28549107397
20
1632.27762556867
30
0.000325545393938498
11
1477.88356728532
21
1633.77762556867
31
0.000329333537663601
  0
LINE
 8
GROUP0
10
1375.43172149353
20
1620.67952227471
30
0.000178637955569272
11
1372.83364528218
21
1622.17952227471
31
0.000176333157799391
  0
LINE
 8
GROUP0
10
1401.52014706438
20
1629.27760791343
30
0.000268288944183226
11
1401.52014706438
21
1632.27760791343
31
0.000267031619759805
  0
LINE
 8
GROUP0
10
1477.88356728531
20
1627.77762556867
30
0.000331848186600681
11
1475.28549107397
21
1629.27762556867
31
0.000326802718722874
  0
LINE
 8
GROUP0
10
1404.11822327573
20
1627.77760791343
30
0.000273334413414616
11
1401.52014706438
21
1629.27760791343
31
0.000268288944183226
  0
LINE
 8
GROUP0
10
1406.71629948708
20
1632.27760791343
30
0.000275865232174866
11
1406.71629948708
21
1629.27760791343
31
0.000277122556688525
  0
LINE
 8
GROUP0
10
1472.28549315154
20
1632.27762556867
30
0.00033437900617308
11
1472.28549315154
21
1629.27762556867
31
0.000335636330957456
  0
LINE
 8
GROUP0
10
1472.28549315154
20
1629.27762556867
30
0.000335636330957456
11
1469.68741694019
21
1627.77762556867
31
0.000331848186690919
  0
LINE
 8
GROUP0
10
1378.02979770489
20
1622.17952227471
30
0.000178949250270577
11
1375.43172149353
21
1620.67952227471
31
0.000178637955569272
  0
LINE
 8
GROUP0
10
1364.63749285949
20
1622.17952227472
30
0.000186140364770537
11
1364.63749285949
21
1625.17952227472
31
0.000184146860528855
  0
LINE
 8
GROUP0
10
1480.48164349666
20
1629.27762556867
30
0.000335636330957456
11
1477.88356728531
21
1627.77762556867
31
0.000331848186600681
  0
LINE
 8
GROUP0
10
1477.88356728532
20
1633.77762556867
30
0.000329333537663601
11
1480.48164349667
21
1632.27762556867
31
0.000334379006082841
  0
LINE
 8
GROUP0
10
1394.42208306592
20
1622.17953110234
30
0.000248512725707783
11
1391.82400685456
21
1620.67953110234
31
0.000248201431638151
  0
LINE
 8
GROUP0
10
1389.22593064321
20
1622.17953110234
30
0.000245896633778031
11
1389.22593064321
21
1625.17953110234
31
0.000243903128994916
  0
LINE
 8
GROUP0
10
1397.42208306592
20
1636.37568352501
30
0.000244845384834846
11
1397.42208306592
21
1639.37568352501
31
0.000243588059824873
  0
LINE
 8
GROUP0
10
1419.01054033402
20
1639.37568352501
30
0.000252421673006964
11
1419.01054033402
21
1636.37568352501
31
0.000253678997159668
  0
LINE
 8
GROUP0
10
1357.53941560934
20
1632.27759908584
30
0.00021395344576014
11
1357.53941560934
21
1629.27759908584
31
0.000215210770634755
  0
LINE
 8
GROUP0
10
1372.83364528218
20
1622.17952227471
30
0.000176333157799391
11
1372.83364528218
21
1625.17952227471
31
0.000174339652926037
  0
LINE
 8
GROUP0
10
1378.02979770489
20
1625.17952227471
30
0.0001769557455777
11
1378.02979770489
21
1622.17952227471
31
0.000178949250270577
  0
LINE
 8
GROUP0
10
1369.83364528219
20
1622.17952227471
30
0.000188756457151484
11
1367.23556907084
21
1620.67952227472
31
0.000188445163081852
  0
LINE
 8
GROUP0
10
1367.23556907084
20
1626.67952227471
30
0.000184458154508249
11
1369.83364528219
21
1625.17952227471
31
0.000186762953000041
  0
LINE
 8
GROUP0
10
1352.34326318664
20
1629.27759908584
30
0.000206377158400173
11
1352.34326318664
21
1632.27759908584
31
0.000205119833615797
  0
LINE
 8
GROUP0
10
1364.63749285949
20
1625.17952227472
30
0.000184146860528855
11
1367.23556907084
21
1626.67952227471
31
0.000184458154508249
  0
LINE
 8
GROUP0
10
1487.57972074681
20
1625.17954875755
30
0.000304572420851557
11
1490.17779695817
21
1626.67954875755
31
0.00030488371483095
  0
LINE
 8
GROUP0
10
1401.52014706438
20
1632.27760791343
30
0.000267031619759805
11
1404.11822327573
21
1633.77760791343
31
0.000270819764116581
  0
LINE
 8
GROUP0
10
1375.43172149354
20
1626.67952227471
30
0.00017465094690543
11
1378.02979770489
21
1625.17952227471
31
0.0001769557455777
  0
LINE
 8
GROUP0
10
1372.83364528218
20
1625.17952227471
30
0.000174339652926037
11
1375.43172149354
21
1626.67952227471
31
0.00017465094690543
  0
LINE
 8
GROUP0
10
1480.48164349667
20
1632.27762556867
30
0.000334379006082841
11
1480.48164349666
21
1629.27762556867
31
0.000335636330957456
  0
LINE
 8
GROUP0
10
1367.23556907084
20
1620.67952227472
30
0.000188445163081852
11
1364.63749285949
21
1622.17952227472
31
0.000186140364770537
  0
LINE
 8
GROUP0
10
1475.28549107397
20
1629.27762556867
30
0.000326802718722874
11
1475.28549107397
21
1632.27762556867
31
0.000325545393938498
  0
LINE
 8
GROUP0
10
1369.83364528219
20
1625.17952227471
30
0.000186762953000041
11
1369.83364528219
21
1622.17952227471
31
0.000188756457151484
  0
LINE
 8
GROUP0
10
1348.2451880141
20
1622.17952227473
30
0.000205754780337131
11
1348.2451880141
21
1625.17952227473
31
0.000203761275554015
  0
LINE
 8
GROUP0
10
1391.82400685457
20
1626.67953110234
30
0.000244214422432876
11
1394.42208306592
21
1625.17953110234
31
0.000246519221105146
  0
LINE
 8
GROUP0
10
1390.32400789333
20
1629.27760791345
30
0.000255352624075655
11
1387.72593168198
21
1627.77760791345
31
0.000251564479809119
  0
LINE
 8
GROUP0
10
1506.57010180355
20
1620.67954875754
30
0.000289256308920827
11
1503.9720255922
21
1622.17954875754
31
0.000286951510880229
  0
LINE
 8
GROUP0
10
1389.22593064321
20
1625.17953110234
30
0.000243903128994916
11
1391.82400685457
21
1626.67953110234
31
0.000244214422432876
  0
LINE
 8
GROUP0
10
1509.1681780149
20
1622.17954875754
30
0.000289567602629504
11
1506.57010180355
21
1620.67954875754
31
0.000289256308920827
  0
LINE
 8
GROUP0
10
1400.02015927727
20
1634.87568352501
30
0.000249890853434565
11
1397.42208306592
21
1636.37568352501
31
0.000244845384834846
  0
LINE
 8
GROUP0
10
1391.82400685456
20
1620.67953110234
30
0.000248201431638151
11
1389.22593064321
21
1622.17953110234
31
0.000245896633778031
  0
LINE
 8
GROUP0
10
1409.7162974095
20
1632.27760791343
30
0.000267031620030522
11
1412.31437362085
21
1633.77760791343
31
0.000270819764116581
  0
LINE
 8
GROUP0
10
1400.02015927727
20
1640.87568352501
30
0.000247376203820693
11
1402.61823548862
21
1639.37568352501
31
0.000252421673006964
  0
LINE
 8
GROUP0
10
1487.57972074681
20
1622.17954875755
30
0.000306565925093238
11
1487.57972074681
21
1625.17954875755
31
0.000304572420851557
  0
LINE
 8
GROUP0
10
1503.9720255922
20
1625.17954875754
30
0.000284958006097114
11
1506.57010180355
21
1626.67954875754
31
0.000285269299986268
  0
LINE
 8
GROUP0
10
1509.1681780149
20
1625.17954875754
30
0.000287574098748777
11
1509.1681780149
21
1622.17954875754
31
0.000289567602629504
  0
LINE
 8
GROUP0
10
1419.01054033402
20
1636.37568352501
30
0.000253678997159668
11
1416.41246412267
21
1634.87568352501
31
0.000249890853434565
  0
LINE
 8
GROUP0
10
1390.32400789333
20
1632.27760791345
30
0.000254095299291279
11
1390.32400789333
21
1629.27760791345
31
0.000255352624075655
  0
LINE
 8
GROUP0
10
1350.84326422545
20
1620.67952227473
30
0.000208059578197251
11
1348.2451880141
21
1622.17952227473
31
0.000205754780337131
  0
LINE
 8
GROUP0
10
1414.9124498322
20
1632.27760791343
30
0.000275865232084627
11
1414.9124498322
21
1629.27760791343
31
0.000277122556688525
  0
LINE
 8
GROUP0
10
1389.22593064322
20
1639.37568352501
30
0.000243588059824873
11
1391.82400685457
21
1640.87568352501
31
0.00024737620409141
  0
LINE
 8
GROUP0
10
1503.9720255922
20
1622.17954875754
30
0.000286951510880229
11
1503.9720255922
21
1625.17954875754
31
0.000284958006097114
  0
LINE
 8
GROUP0
10
1402.61823548862
20
1639.37568352501
30
0.000252421673006964
11
1402.61823548862
21
1636.37568352501
31
0.000253678997159668
  0
LINE
 8
GROUP0
10
1402.61823548862
20
1636.37568352501
30
0.000253678997159668
11
1400.02015927727
21
1634.87568352501
31
0.000249890853434565
  0
LINE
 8
GROUP0
10
1394.42208306592
20
1625.17953110234
30
0.000246519221105146
11
1394.42208306592
21
1622.17953110234
31
0.000248512725707783
  0
LINE
 8
GROUP0
10
1492.77587316952
20
1625.17954875755
30
0.000307188513322743
11
1492.77587316952
21
1622.17954875755
31
0.000309182017474185
  0
LINE
 8
GROUP0
10
1506.57010180355
20
1626.67954875754
30
0.000285269299986268
11
1509.1681780149
21
1625.17954875754
31
0.000287574098748777
  0
LINE
 8
GROUP0
10
1353.44134043681
20
1625.17952227472
30
0.000206377367664246
11
1353.44134043681
21
1622.17952227473
31
0.000208370872266883
  0
LINE
 8
GROUP0
10
1490.17779695816
20
1620.67954875755
30
0.000308870723404553
11
1487.57972074681
21
1622.17954875755
31
0.000306565925093238
  0
LINE
 8
GROUP0
10
1348.2451880141
20
1625.17952227473
30
0.000203761275554015
11
1350.84326422546
21
1626.67952227472
31
0.000204072568991975
  0
LINE
 8
GROUP0
10
1350.84326422546
20
1626.67952227472
30
0.000204072568991975
11
1353.44134043681
21
1625.17952227472
31
0.000206377367664246
  0
LINE
 8
GROUP0
10
1397.42208306592
20
1639.37568352501
30
0.000243588059824873
11
1400.02015927727
21
1640.87568352501
31
0.000247376203820693
  0
LINE
 8
GROUP0
10
1492.77587316952
20
1622.17954875755
30
0.000309182017474185
11
1490.17779695816
21
1620.67954875755
31
0.000308870723404553
  0
LINE
 8
GROUP0
10
1490.17779695817
20
1626.67954875755
30
0.00030488371483095
11
1492.77587316952
21
1625.17954875755
31
0.000307188513322743
  0
LINE
 8
GROUP0
10
1353.44134043681
20
1622.17952227473
30
0.000208370872266883
11
1350.84326422545
21
1620.67952227473
31
0.000208059578197251
  0
LINE
 8
GROUP0
10
1405.61823548862
20
1639.37568352501
30
0.000243588059869992
11
1408.21631169997
21
1640.87568352501
31
0.00024737620409141
  0
LINE
 8
GROUP0
10
1368.73555478039
20
1632.27759908581
30
0.000226889766589622
11
1371.33363099174
21
1633.77759908581
31
0.000230677910675681
  0
LINE
 8
GROUP0
10
1371.33363099174
20
1633.77759908581
30
0.000230677910675681
11
1373.93170720309
21
1632.27759908581
31
0.000235723378643726
  0
LINE
 8
GROUP0
10
1385.12785547063
20
1632.27760791345
30
0.000245261687056697
11
1387.72593168198
21
1633.77760791345
31
0.0002490498307818
  0
LINE
 8
GROUP0
10
1410.81438791132
20
1636.37568352501
30
0.000253678997159668
11
1408.21631169997
21
1634.87568352501
31
0.000249890853434565
  0
LINE
 8
GROUP0
10
1413.81438791129
20
1625.17953110232
30
0.000214481506366937
11
1416.41246412264
21
1626.67953110232
31
0.000214792800346331
  0
LINE
 8
GROUP0
10
1419.01054033399
20
1622.17953110232
30
0.000219091103711477
11
1416.41246412264
21
1620.67953110232
31
0.000218779809010172
  0
LINE
 8
GROUP0
10
1408.21631169997
20
1634.87568352501
30
0.000249890853434565
11
1405.61823548862
21
1636.37568352501
31
0.000244845384834846
  0
LINE
 8
GROUP0
10
1385.12785547063
20
1629.27760791345
30
0.000246519011841073
11
1385.12785547063
21
1632.27760791345
31
0.000245261687056697
  0
LINE
 8
GROUP0
10
1414.9124498322
20
1629.27760791343
30
0.000277122556688525
11
1412.31437362085
21
1627.77760791343
31
0.000273334413414616
  0
LINE
 8
GROUP0
10
1394.42208306592
20
1639.37568352501
30
0.000252421672961844
11
1394.42208306592
21
1636.37568352501
31
0.000253678997159668
  0
LINE
 8
GROUP0
10
1387.72593168198
20
1633.77760791345
30
0.0002490498307818
11
1390.32400789333
21
1632.27760791345
31
0.000254095299291279
  0
LINE
 8
GROUP0
10
1419.010540334
20
1625.17953110232
30
0.000217097599018601
11
1419.01054033399
21
1622.17953110232
31
0.000219091103711477
  0
LINE
 8
GROUP0
10
1416.41246412264
20
1620.67953110232
30
0.000218779809010172
11
1413.81438791129
21
1622.17953110232
31
0.000216475011240291
  0
LINE
 8
GROUP0
10
1413.81438791129
20
1622.17953110232
30
0.000216475011240291
11
1413.81438791129
21
1625.17953110232
31
0.000214481506366937
  0
LINE
 8
GROUP0
10
1391.82400685457
20
1640.87568352501
30
0.00024737620409141
11
1394.42208306592
21
1639.37568352501
31
0.000252421672961844
  0
LINE
 8
GROUP0
10
1416.41246412264
20
1626.67953110232
30
0.000214792800346331
11
1419.010540334
21
1625.17953110232
31
0.000217097599018601
  0
LINE
 8
GROUP0
10
1413.81438791132
20
1636.37568352501
30
0.000244845384834846
11
1413.81438791132
21
1639.37568352501
31
0.000243588059869992
  0
LINE
 8
GROUP0
10
1410.81438791132
20
1639.37568352501
30
0.000252421673006964
11
1410.81438791132
21
1636.37568352501
31
0.000253678997159668
  0
LINE
 8
GROUP0
10
1412.31437362085
20
1627.77760791343
30
0.000273334413414616
11
1409.7162974095
21
1629.27760791343
31
0.000268288944183226
  0
LINE
 8
GROUP0
10
1416.41246412267
20
1640.87568352501
30
0.000247376204136529
11
1419.01054033402
21
1639.37568352501
31
0.000252421673006964
  0
LINE
 8
GROUP0
10
1387.72593168198
20
1627.77760791345
30
0.000251564479809119
11
1385.12785547063
21
1629.27760791345
31
0.000246519011841073
  0
LINE
 8
GROUP0
10
1394.42208306592
20
1636.37568352501
30
0.000253678997159668
11
1391.82400685457
21
1634.87568352501
31
0.000249890853434565
  0
LINE
 8
GROUP0
10
1412.31437362085
20
1633.77760791343
30
0.000270819764116581
11
1414.9124498322
21
1632.27760791343
31
0.000275865232084627
  0
LINE
 8
GROUP0
10
1408.21631169997
20
1640.87568352501
30
0.00024737620409141
11
1410.81438791132
21
1639.37568352501
31
0.000252421673006964
  0
LINE
 8
GROUP0
10
1413.81438791132
20
1639.37568352501
30
0.000243588059869992
11
1416.41246412267
21
1640.87568352501
31
0.000247376204136529
  0
LINE
 8
GROUP0
10
1371.33363099174
20
1627.77759908582
30
0.000233192559973716
11
1368.73555478039
21
1629.27759908581
31
0.000228147090742326
  0
LINE
 8
GROUP0
10
1368.73555478039
20
1629.27759908581
30
0.000228147090742326
11
1368.73555478039
21
1632.27759908581
31
0.000226889766589622
  0
LINE
 8
GROUP0
10
1405.61823548862
20
1636.37568352501
30
0.000244845384834846
11
1405.61823548862
21
1639.37568352501
31
0.000243588059869992
  0
LINE
 8
GROUP0
10
1409.7162974095
20
1629.27760791343
30
0.000268288944183226
11
1409.7162974095
21
1632.27760791343
31
0.000267031620030522
  0
LINE
 8
GROUP0
10
1391.82400685457
20
1634.87568352501
30
0.000249890853434565
11
1389.22593064322
21
1636.37568352501
31
0.000244845384834846
  0
LINE
 8
GROUP0
10
1416.41246412267
20
1634.87568352501
30
0.000249890853434565
11
1413.81438791132
21
1636.37568352501
31
0.000244845384834846
  0
LINE
 8
GROUP0
10
1451.59906947264
20
1491.77806934056
30
0.000246935909521406
11
1456.59906947261
21
1491.77806934056
31
0.000255973641301832
  0
LINE
 8
GROUP0
10
1451.59906947264
20
1495.77806934056
30
0.000246959644440459
11
1456.59906947261
21
1495.77806934056
31
0.000255997376226524
  0
LINE
 8
GROUP0
10
1451.59906947264
20
1490.77806934056
30
0.000246935909521406
11
1456.59906947261
21
1490.77806934056
31
0.000255973641301832
  0
LINE
 8
GROUP0
10
1553.84909396579
20
1624.52807262824
30
0.000359701926036227
11
1553.84909443118
21
1654.52807262823
31
0.00037199004013182
  0
LINE
 8
GROUP0
10
1451.59906947264
20
1488.77806934056
30
0.000246935909521406
11
1456.59906947261
21
1488.77806934056
31
0.000255973641301832
  0
LINE
 8
GROUP0
10
1438.59906947272
20
1494.77806934056
30
0.000240171988568605
11
1433.59906947279
21
1494.77806934056
31
0.000263085700133869
  0
LINE
 8
GROUP0
10
1451.59906947264
20
1493.77806934056
30
0.000246959644440459
11
1456.59906947261
21
1493.77806934056
31
0.000255997376226524
  0
LINE
 8
GROUP0
10
1438.59906947272
20
1496.77806934056
30
0.000240171988568605
11
1433.59906947279
21
1496.77806934056
31
0.000263085700133869
  0
LINE
 8
GROUP0
10
1451.59906947264
20
1496.77806934056
30
0.000246959644440459
11
1456.59906947261
21
1496.77806934056
31
0.000255997376226524
  0
LINE
 8
GROUP0
10
1438.59906947272
20
1493.77806934056
30
0.000240171988568605
11
1433.59906947279
21
1493.77806934056
31
0.000263085700133869
  0
LINE
 8
GROUP0
10
1438.59906947272
20
1490.77806934056
30
0.000240148253643913
11
1433.59906947281
21
1490.77806934056
31
0.000255599432691467
  0
LINE
 8
GROUP0
10
1373.93170720309
20
1632.27759908581
30
0.000235723378643726
11
1373.93170720309
21
1629.27759908581
31
0.000236980703247625
  0
LINE
 8
GROUP0
10
1373.93170720309
20
1629.27759908581
30
0.000236980703247625
11
1371.33363099174
21
1627.77759908582
31
0.000233192559973716
  0
LINE
 8
GROUP0
10
1438.59906947272
20
1489.77806934056
30
0.000240148253643913
11
1433.59906947281
21
1489.77806934056
31
0.000255599432691467
  0
LINE
 8
GROUP0
10
1438.59906947272
20
1491.77806934056
30
0.000240148253643913
11
1433.59906947281
21
1491.77806934056
31
0.000255599432691467
  0
LINE
 8
GROUP0
10
1451.59906947264
20
1489.77806934056
30
0.000246935909521406
11
1456.59906947261
21
1489.77806934056
31
0.000255973641301832
  0
LINE
 8
GROUP0
10
1438.59906947272
20
1488.77806934056
30
0.000240148253643913
11
1433.59906947281
21
1488.77806934056
31
0.000255599432691467
  0
LINE
 8
GROUP0
10
1553.84908911065
20
1337.02804845596
30
0.000236810707050239
11
1553.84908961521
21
1367.02803734026
31
0.000352003122852373
  0
LINE
 8
GROUP0
10
1389.22593064322
20
1636.37568352501
30
0.000244845384834846
11
1389.22593064322
21
1639.37568352501
31
0.000243588059824873
  0
LINE
 8
GROUP0
10
1451.59906947264
20
1494.77806934056
30
0.000246959644440459
11
1456.59906947261
21
1494.77806934056
31
0.000255997376226524
  0
LINE
 8
GROUP0
10
1438.59906947272
20
1495.77806934056
30
0.000240171988568605
11
1433.59906947279
21
1495.77806934056
31
0.000263085700133869
 0
ENDSEC
 0
EOF
