 0
SECTION
 2
ENTITIES
  0
LINE
 8
GROUP0
10
1450.8123774217
20
1643.36771318307
30
0.000281839265553163
11
1450.55810597732
21
1643.69908276755
31
0.000281734437574244
  0
LINE
 8
GROUP0
10
1451.02674075532
20
1642.56771425055
30
0.000281924084358387
11
1450.97222001728
21
1642.98182445094
31
0.000281903950542173
  0
LINE
 8
GROUP0
10
1450.97222413763
20
1642.1536035077
30
0.000281898294918914
11
1451.02674075532
21
1642.56771425055
31
0.000281924084358387
  0
LINE
 8
GROUP0
10
1450.97222001728
20
1642.98182445094
30
0.000281903950542173
11
1450.8123774217
21
1643.36771318307
31
0.000281839265553163
  0
LINE
 8
GROUP0
10
1449.84085892582
20
1641.02222701604
30
0.00028141406975486
11
1450.22674765487
21
1641.18206961952
31
0.000281577686330792
  0
LINE
 8
GROUP0
10
1450.55811723434
20
1641.43634107072
30
0.000281718986098056
11
1450.81238538161
21
1641.76771318517
31
0.000281828339717105
  0
LINE
 8
GROUP0
10
1450.81238538161
20
1641.76771318517
30
0.000281828339717105
11
1450.97222413763
21
1642.1536035077
31
0.000281898294918914
  0
LINE
 8
GROUP0
10
1450.22674765487
20
1641.18206961952
30
0.000281577686330792
11
1450.55811723434
21
1641.43634107072
31
0.000281718986098056
  0
LINE
 8
GROUP0
10
1522.58433607044
20
1641.79013990705
30
0.000374104557482369
11
1519.98625985909
21
1640.29013990705
31
0.000370316413757266
  0
LINE
 8
GROUP0
10
1506.19203122505
20
1644.79013990705
30
0.000372847233329665
11
1506.19203122504
21
1641.79013990705
31
0.000374104557482369
  0
LINE
 8
GROUP0
10
1503.5939550137
20
1646.29013990705
30
0.00036780176445923
11
1506.19203122505
21
1644.79013990705
31
0.000372847233329665
  0
LINE
 8
GROUP0
10
1500.99587880235
20
1641.79013990705
30
0.000365270945157548
11
1500.99587880235
21
1644.79013990705
31
0.000364013620192694
  0
LINE
 8
GROUP0
10
1517.38818364774
20
1641.79013990705
30
0.000365270945157548
11
1517.38818364775
21
1644.79013990705
31
0.000364013620192694
  0
LINE
 8
GROUP0
10
1517.38818364775
20
1644.79013990705
30
0.000364013620192694
11
1519.98625985909
21
1646.29013990705
31
0.00036780176445923
  0
LINE
 8
GROUP0
10
1500.99587880235
20
1644.79013990705
30
0.000364013620192694
11
1503.5939550137
21
1646.29013990705
31
0.00036780176445923
  0
LINE
 8
GROUP0
10
1511.7901074364
20
1646.29013990705
30
0.000367801764188513
11
1514.38818364774
21
1644.79013990705
31
0.000372847233329665
  0
LINE
 8
GROUP0
10
1503.59395501369
20
1640.29013990705
30
0.000370316413757266
11
1500.99587880235
21
1641.79013990705
31
0.000365270945157548
  0
LINE
 8
GROUP0
10
1519.98625985909
20
1646.29013990705
30
0.00036780176445923
11
1522.58433607044
21
1644.79013990705
31
0.000372847233329665
  0
LINE
 8
GROUP0
10
1506.19203122504
20
1641.79013990705
30
0.000374104557482369
11
1503.59395501369
21
1640.29013990705
31
0.000370316413757266
  0
LINE
 8
GROUP0
10
1519.98625985909
20
1640.29013990705
30
0.000370316413757266
11
1517.38818364774
21
1641.79013990705
31
0.000365270945157548
  0
LINE
 8
GROUP0
10
1509.19203122505
20
1644.79013990705
30
0.000364013620192694
11
1511.7901074364
21
1646.29013990705
31
0.000367801764188513
  0
LINE
 8
GROUP0
10
1513.2900952235
20
1634.69206429546
30
0.000388714504505927
11
1513.29009522351
21
1637.69206429546
31
0.000387457180082507
  0
LINE
 8
GROUP0
10
1514.38818364774
20
1644.79013990705
30
0.000372847233329665
11
1514.38818364774
21
1641.79013990705
31
0.000374104557482369
  0
LINE
 8
GROUP0
10
1522.58433607044
20
1644.79013990705
30
0.000372847233329665
11
1522.58433607044
21
1641.79013990705
31
0.000374104557482369
  0
LINE
 8
GROUP0
10
1412.42678974452
20
1497.19249923976
30
0.000247763970105175
11
1427.42678974452
21
1497.19249923976
31
0.000247763970105175
  0
LINE
 8
GROUP0
10
1427.42678974452
20
1498.19249923976
30
0.00024421642360799
11
1412.42678974452
21
1498.19249923976
31
0.000247807140711914
  0
LINE
 8
GROUP0
10
1514.38818364774
20
1641.79013990705
30
0.000374104557482369
11
1511.79010743639
21
1640.29013990705
31
0.000370316413757266
  0
LINE
 8
GROUP0
10
1511.79010743639
20
1640.29013990705
30
0.000370316413757266
11
1509.19203122504
21
1641.79013990705
31
0.000365270945157548
  0
LINE
 8
GROUP0
10
1509.19203122504
20
1641.79013990705
30
0.000365270945157548
11
1509.19203122505
21
1644.79013990705
31
0.000364013620192694
  0
LINE
 8
GROUP0
10
1440.42678974444
20
1500.19249923976
30
0.00024512836004249
11
1455.42678974444
21
1500.19249923976
31
0.000237566885991131
  0
LINE
 8
GROUP0
10
1440.42678974444
20
1498.19249923976
30
0.000245112005567916
11
1455.42678974444
21
1498.19249923976
31
0.000245112005567916
  0
LINE
 8
GROUP0
10
1412.42678974452
20
1498.19249923976
30
0.000247807140711914
11
1412.42678974452
21
1497.19249923976
31
0.000247763970105175
  0
LINE
 8
GROUP0
10
1412.42678974452
20
1500.19249923976
30
0.000247823495187899
11
1412.42678974452
21
1499.19249923976
31
0.000247780324581159
  0
LINE
 8
GROUP0
10
1455.42678974444
20
1497.19249923976
30
0.000237507360909817
11
1440.42678974444
21
1497.19249923976
31
0.000245068834961176
  0
LINE
 8
GROUP0
10
1455.42678974444
20
1498.19249923976
30
0.000245112005567916
11
1455.42678974444
21
1497.19249923976
31
0.000237507360909817
  0
LINE
 8
GROUP0
10
1440.42678974444
20
1497.19249923976
30
0.000245068834961176
11
1440.42678974444
21
1498.19249923976
31
0.000245112005567916
  0
LINE
 8
GROUP0
10
1455.42678974444
20
1500.19249923976
30
0.000237566885991131
11
1455.42678974444
21
1499.19249923976
31
0.000237523715384391
  0
LINE
 8
GROUP0
10
1455.42678974444
20
1499.19249923976
30
0.000237523715384391
11
1440.42678974444
21
1499.19249923976
31
0.000237523715384391
  0
LINE
 8
GROUP0
10
1440.42678974444
20
1499.19249923976
30
0.000237523715384391
11
1440.42678974444
21
1500.19249923976
31
0.00024512836004249
  0
LINE
 8
GROUP0
10
1427.42678974452
20
1497.19249923976
30
0.000247763970105175
11
1427.42678974452
21
1498.19249923976
31
0.00024421642360799
  0
LINE
 8
GROUP0
10
1412.42678974452
20
1499.19249923976
30
0.000247780324581159
11
1427.42678974452
21
1499.19249923976
31
0.000247780324581159
  0
LINE
 8
GROUP0
10
1427.42678974452
20
1499.19249923976
30
0.000247780324581159
11
1427.42678974452
21
1500.19249923976
31
0.000244232778083975
  0
LINE
 8
GROUP0
10
1427.42678974452
20
1500.19249923976
30
0.000244232778083975
11
1412.42678974452
21
1500.19249923976
31
0.000247823495187899
  0
LINE
 8
GROUP0
10
1449.42674872636
20
1640.96770626956
30
0.000281239286574131
11
1449.84085892582
21
1641.02222701604
31
0.00028141406975486
  0
LINE
 8
GROUP0
10
1542.67680938245
20
1342.44247835516
30
0.000236810707050239
11
1542.67680988701
21
1372.44246723946
31
0.000352003122852373
  0
LINE
 8
GROUP0
10
1592.67681423757
20
1609.94250159668
30
0.000297640181598346
11
1592.67681057935
21
1392.44246668683
31
0.000332607466772217
  0
LINE
 8
GROUP0
10
1542.67680988701
20
1372.44246723946
30
0.000352003122852373
11
1562.67681057937
21
1392.44246701841
31
0.000342182750642106
  0
LINE
 8
GROUP0
10
1562.67681423758
20
1609.94250206206
30
0.000323515193303781
11
1542.67681423759
21
1629.94250252744
31
0.000359701926036227
  0
LINE
 8
GROUP0
10
1462.61321238459
20
1646.29013107944
30
0.00032765991101833
11
1465.21128859594
21
1644.79013107944
31
0.000332705379888765
  0
LINE
 8
GROUP0
10
1465.21128859594
20
1644.79013107944
30
0.000332705379888765
11
1465.21128859594
21
1641.79013107944
31
0.000333962704041468
  0
LINE
 8
GROUP0
10
1562.67681057937
20
1392.44246701841
30
0.000342182750642106
11
1592.67681057935
21
1392.44246668683
31
0.000332607466772217
  0
LINE
 8
GROUP0
10
1592.67681423757
20
1609.94250159668
30
0.000297640181598346
11
1562.67681423758
21
1609.94250206206
31
0.000323515193303781
  0
LINE
 8
GROUP0
10
1542.67681423759
20
1629.94250252744
30
0.000359701926036227
11
1542.67681470298
21
1659.94250252743
31
0.00037199004013182
  0
LINE
 8
GROUP0
10
1450.22673386287
20
1643.95335091481
30
0.000281596610437784
11
1449.84084354033
21
1644.11318967083
31
0.000281435176854306
  0
LINE
 8
GROUP0
10
1462.61321238459
20
1640.29013107944
30
0.000330174560316365
11
1460.01513617324
21
1641.79013107944
31
0.000325129091716647
  0
LINE
 8
GROUP0
10
1460.01513617324
20
1641.79013107944
30
0.000325129091716647
11
1460.01513617324
21
1644.79013107944
31
0.000323871766751793
  0
LINE
 8
GROUP0
10
1460.01513617324
20
1644.79013107944
30
0.000323871766751793
11
1462.61321238459
21
1646.29013107944
31
0.00032765991101833
  0
LINE
 8
GROUP0
10
1465.21128859594
20
1641.79013107944
30
0.000333962704041468
11
1462.61321238459
21
1640.29013107944
31
0.000330174560316365
  0
LINE
 8
GROUP0
10
1450.55810597732
20
1643.69908276755
30
0.000281734437574244
11
1450.22673386287
21
1643.95335091481
31
0.000281596610437784
  0
LINE
 8
GROUP0
10
1487.20166965266
20
1632.09397865674
30
0.000295076507228131
11
1489.79974586401
21
1630.59397865674
31
0.000297381305900402
  0
LINE
 8
GROUP0
10
1342.26906070861
20
1627.59395217393
30
0.000208370872266883
11
1339.67098449725
21
1626.09395217393
31
0.000208059578197251
  0
LINE
 8
GROUP0
10
1394.4459557604
20
1630.59396100153
30
0.000224288713969756
11
1397.04403197175
21
1632.09396100153
31
0.000224600007949149
  0
LINE
 8
GROUP0
10
1397.04403197175
20
1632.09396100153
30
0.000224600007949149
11
1399.6421081831
21
1630.59396100152
31
0.000226904806440942
  0
LINE
 8
GROUP0
10
1484.6035934413
20
1627.59397865675
30
0.000296758718122092
11
1484.60359344131
21
1630.59397865675
31
0.000294765213248738
  0
LINE
 8
GROUP0
10
1489.79974586401
20
1627.59397865674
30
0.000299374810593278
11
1487.20166965266
21
1626.09397865675
31
0.000299063515891973
  0
LINE
 8
GROUP0
10
1337.0729082859
20
1627.59395217393
30
0.000205754780337131
11
1337.0729082859
21
1630.59395217393
31
0.000203761275554015
  0
LINE
 8
GROUP0
10
1484.60359344131
20
1630.59397865675
30
0.000294765213248738
11
1487.20166965266
21
1632.09397865674
31
0.000295076507228131
  0
LINE
 8
GROUP0
10
1339.67098449726
20
1632.09395217393
30
0.000204072568991975
11
1342.26906070861
21
1630.59395217392
31
0.000206377367664246
  0
LINE
 8
GROUP0
10
1489.79974586401
20
1630.59397865674
30
0.000297381305900402
11
1489.79974586401
21
1627.59397865674
31
0.000299374810593278
  0
LINE
 8
GROUP0
10
1397.04403197175
20
1626.09396100153
30
0.000228587016522752
11
1394.44595576039
21
1627.59396100153
31
0.000226282218211438
  0
LINE
 8
GROUP0
10
1394.44595576039
20
1627.59396100153
30
0.000226282218211438
11
1394.4459557604
21
1630.59396100153
31
0.000224288713969756
  0
LINE
 8
GROUP0
10
1342.26906070861
20
1630.59395217392
30
0.000206377367664246
11
1342.26906070861
21
1627.59395217393
31
0.000208370872266883
  0
LINE
 8
GROUP0
10
1399.6421081831
20
1627.59396100153
30
0.000228898310592385
11
1397.04403197175
21
1626.09396100153
31
0.000228587016522752
  0
LINE
 8
GROUP0
10
1487.20166965266
20
1626.09397865675
30
0.000299063515891973
11
1484.6035934413
21
1627.59397865675
31
0.000296758718122092
  0
LINE
 8
GROUP0
10
1339.67098449725
20
1626.09395217393
30
0.000208059578197251
11
1337.0729082859
21
1627.59395217393
31
0.000205754780337131
  0
LINE
 8
GROUP0
10
1386.2498033377
20
1630.59396100153
30
0.00023409592112138
11
1388.84787954906
21
1632.09396100153
31
0.000234407215281252
  0
LINE
 8
GROUP0
10
1374.92680821223
20
1618.19234621062
30
0.000181245332110613
11
1374.92680821223
21
1614.19234621062
31
0.000181245332110613
  0
LINE
 8
GROUP0
10
1391.44595576041
20
1630.59396100153
30
0.000236712013863283
11
1391.44595576041
21
1627.59396100153
31
0.000238705518375681
  0
LINE
 8
GROUP0
10
1375.05367039938
20
1630.5939521739
30
0.000167148538426076
11
1375.05367039938
21
1627.5939521739
31
0.000169142042306802
  0
LINE
 8
GROUP0
10
1369.85751797667
20
1627.5939521739
30
0.000166525950557528
11
1369.85751797667
21
1630.5939521739
31
0.000164532445774412
  0
LINE
 8
GROUP0
10
1369.85751797667
20
1630.5939521739
30
0.000164532445774412
11
1372.45559418803
21
1632.0939521739
31
0.000164843739663567
  0
LINE
 8
GROUP0
10
1337.9268434095
20
1614.19234621062
30
0.000181245332110613
11
1337.9268434095
21
1618.19234621062
31
0.000181245332110613
  0
LINE
 8
GROUP0
10
1391.44595576041
20
1627.59396100153
30
0.000238705518375681
11
1388.84787954905
21
1626.09396100153
31
0.000238394224396288
  0
LINE
 8
GROUP0
10
1399.6421081831
20
1630.59396100152
30
0.000226904806440942
11
1399.6421081831
21
1627.59396100153
31
0.000228898310592385
  0
LINE
 8
GROUP0
10
1375.05367039938
20
1627.5939521739
30
0.000169142042306802
11
1372.45559418802
21
1626.0939521739
31
0.000168830748598126
  0
LINE
 8
GROUP0
10
1388.84787954905
20
1626.09396100153
30
0.000238394224396288
11
1386.2498033377
21
1627.59396100153
31
0.000236089425994734
  0
LINE
 8
GROUP0
10
1374.92680821223
20
1614.19234621062
30
0.000181245332110613
11
1337.9268434095
21
1614.19234621062
31
0.000181245332110613
  0
LINE
 8
GROUP0
10
1337.9268434095
20
1618.19234621062
30
0.000181245332110613
11
1374.92680821223
21
1618.19234621062
31
0.000181245332110613
  0
LINE
 8
GROUP0
10
1386.2498033377
20
1627.59396100153
30
0.000236089425994734
11
1386.2498033377
21
1630.59396100153
31
0.00023409592112138
  0
LINE
 8
GROUP0
10
1372.45559418802
20
1626.0939521739
30
0.000168830748598126
11
1369.85751797667
21
1627.5939521739
31
0.000166525950557528
  0
LINE
 8
GROUP0
10
1388.84787954906
20
1632.09396100153
30
0.000234407215281252
11
1391.44595576041
21
1630.59396100153
31
0.000236712013863283
  0
LINE
 8
GROUP0
10
1372.45559418803
20
1632.0939521739
30
0.000164843739663567
11
1375.05367039938
21
1630.5939521739
31
0.000167148538426076
  0
LINE
 8
GROUP0
10
1383.24980333771
20
1627.59396100154
30
0.000248512725707783
11
1380.65172712636
21
1626.09396100154
31
0.000248201431638151
  0
LINE
 8
GROUP0
10
1350.4652131313
20
1627.59395217392
30
0.000198563664934781
11
1347.86713691995
21
1626.09395217392
31
0.000198252370955387
  0
LINE
 8
GROUP0
10
1383.24980333772
20
1630.59396100154
30
0.000246519221105146
11
1383.24980333771
21
1627.59396100154
31
0.000248512725707783
  0
LINE
 8
GROUP0
10
1380.65172712637
20
1632.09396100154
30
0.000244214422432876
11
1383.24980333772
21
1630.59396100154
31
0.000246519221105146
  0
LINE
 8
GROUP0
10
1345.26906070859
20
1627.59395217392
30
0.000195947572553834
11
1345.2690607086
21
1630.59395217392
31
0.00019395406768048
  0
LINE
 8
GROUP0
10
1380.65172712636
20
1626.09396100154
30
0.000248201431638151
11
1378.05365091501
21
1627.59396100154
31
0.000245896633778031
  0
LINE
 8
GROUP0
10
1353.46521313129
20
1630.59395217392
30
0.000184146860528855
11
1356.06328934264
21
1632.09395217391
31
0.000184458154508249
  0
LINE
 8
GROUP0
10
1378.05365091501
20
1630.59396100154
30
0.000243903128994916
11
1380.65172712637
21
1632.09396100154
31
0.000244214422432876
  0
LINE
 8
GROUP0
10
1378.05365091501
20
1627.59396100154
30
0.000245896633778031
11
1378.05365091501
21
1630.59396100154
31
0.000243903128994916
  0
LINE
 8
GROUP0
10
1347.86713691995
20
1632.09395217392
30
0.000194265361840351
11
1350.4652131313
21
1630.59395217392
31
0.000196570160422382
  0
LINE
 8
GROUP0
10
1350.4652131313
20
1630.59395217392
30
0.000196570160422382
11
1350.4652131313
21
1627.59395217392
31
0.000198563664934781
  0
LINE
 8
GROUP0
10
1345.2690607086
20
1630.59395217392
30
0.00019395406768048
11
1347.86713691995
21
1632.09395217392
31
0.000194265361840351
  0
LINE
 8
GROUP0
10
1347.86713691995
20
1626.09395217392
30
0.000198252370955387
11
1345.26906070859
21
1627.59395217392
31
0.000195947572553834
  0
LINE
 8
GROUP0
10
1353.46521313129
20
1627.59395217392
30
0.000186140364770537
11
1353.46521313129
21
1630.59395217392
31
0.000184146860528855
  0
LINE
 8
GROUP0
10
1356.06328934264
20
1632.09395217391
30
0.000184458154508249
11
1358.66136555399
21
1630.59395217391
31
0.000186762953000041
  0
LINE
 8
GROUP0
10
1358.66136555399
20
1630.59395217391
30
0.000186762953000041
11
1358.66136555399
21
1627.59395217391
31
0.000188756457151484
  0
LINE
 8
GROUP0
10
1358.66136555399
20
1627.59395217391
30
0.000188756457151484
11
1356.06328934264
21
1626.09395217392
31
0.000188445163081852
  0
LINE
 8
GROUP0
10
1468.21128859592
20
1630.59397865676
30
0.000314379628003181
11
1470.80936480727
21
1632.09397865675
31
0.000314690922163052
  0
LINE
 8
GROUP0
10
1468.21128859592
20
1627.59397865676
30
0.000316373132876535
11
1468.21128859592
21
1630.59397865676
31
0.000314379628003181
  0
LINE
 8
GROUP0
10
1470.80936480727
20
1632.09397865675
30
0.000314690922163052
11
1473.40744101863
21
1630.59397865675
31
0.000316995720745084
  0
LINE
 8
GROUP0
10
1462.61321238458
20
1626.09397865676
30
0.000328485138519952
11
1460.01513617323
21
1627.59397865676
31
0.000326180340659832
  0
LINE
 8
GROUP0
10
1460.01513617323
20
1627.59397865676
30
0.000326180340659832
11
1460.01513617323
21
1630.59397865676
31
0.000324186835876716
  0
LINE
 8
GROUP0
10
1481.60359344132
20
1630.59397865675
30
0.000307188513322743
11
1481.60359344132
21
1627.59397865675
31
0.000309182017474185
  0
LINE
 8
GROUP0
10
1460.01513617323
20
1630.59397865676
30
0.000324186835876716
11
1462.61321238458
21
1632.09397865676
31
0.000324498129314676
  0
LINE
 8
GROUP0
10
1470.80936480727
20
1626.09397865676
30
0.000318677931278089
11
1468.21128859592
21
1627.59397865676
31
0.000316373132876535
  0
LINE
 8
GROUP0
10
1465.21128859593
20
1630.59397865676
30
0.000326802927986947
11
1465.21128859593
21
1627.59397865676
31
0.000328796432589584
  0
LINE
 8
GROUP0
10
1356.06328934264
20
1626.09395217392
30
0.000188445163081852
11
1353.46521313129
21
1627.59395217392
31
0.000186140364770537
  0
LINE
 8
GROUP0
10
1465.21128859593
20
1627.59397865676
30
0.000328796432589584
11
1462.61321238458
21
1626.09397865676
31
0.000328485138519952
  0
LINE
 8
GROUP0
10
1462.61321238458
20
1632.09397865676
30
0.000324498129314676
11
1465.21128859593
21
1630.59397865676
31
0.000326802927986947
  0
LINE
 8
GROUP0
10
1473.40744101863
20
1630.59397865675
30
0.000316995720745084
11
1473.40744101862
21
1627.59397865676
31
0.000318989225257482
  0
LINE
 8
GROUP0
10
1473.40744101862
20
1627.59397865676
30
0.000318989225257482
11
1470.80936480727
21
1626.09397865676
31
0.000318677931278089
  0
LINE
 8
GROUP0
10
1337.07290828591
20
1644.7901045966
30
0.000203446206383973
11
1339.67098449726
21
1646.2901045966
31
0.000207234350650509
  0
LINE
 8
GROUP0
10
1346.36713588114
20
1634.69202898504
30
0.000215210770634755
11
1343.76905966979
21
1633.19202898504
31
0.000211422626277979
  0
LINE
 8
GROUP0
10
1479.00551722997
20
1632.09397865675
30
0.00030488371483095
11
1481.60359344132
21
1630.59397865675
31
0.000307188513322743
  0
LINE
 8
GROUP0
10
1342.26906070861
20
1641.7901045966
30
0.000213537143673648
11
1339.67098449726
21
1640.2901045966
31
0.000209748999948545
  0
LINE
 8
GROUP0
10
1343.76905966979
20
1633.19202898504
30
0.000211422626277979
11
1341.17098345844
21
1634.69202898504
31
0.000206377158400173
  0
LINE
 8
GROUP0
10
1342.26906070861
20
1644.7901045966
30
0.000212279819520944
11
1342.26906070861
21
1641.7901045966
31
0.000213537143673648
  0
LINE
 8
GROUP0
10
1479.00551722996
20
1626.09397865675
30
0.000308870723404553
11
1476.40744101861
21
1627.59397865675
31
0.000306565925093238
  0
LINE
 8
GROUP0
10
1476.40744101861
20
1627.59397865675
30
0.000306565925093238
11
1476.40744101861
21
1630.59397865675
31
0.000304572420851557
  0
LINE
 8
GROUP0
10
1339.67098449726
20
1646.2901045966
30
0.000207234350650509
11
1342.26906070861
21
1644.7901045966
31
0.000212279819520944
  0
LINE
 8
GROUP0
10
1476.40744101861
20
1630.59397865675
30
0.000304572420851557
11
1479.00551722997
21
1632.09397865675
31
0.00030488371483095
  0
LINE
 8
GROUP0
10
1481.60359344132
20
1627.59397865675
30
0.000309182017474185
11
1479.00551722996
21
1626.09397865675
31
0.000308870723404553
  0
LINE
 8
GROUP0
10
1339.67098449726
20
1640.2901045966
30
0.000209748999948545
11
1337.07290828591
21
1641.7901045966
31
0.000204703531348827
  0
LINE
 8
GROUP0
10
1337.07290828591
20
1641.7901045966
30
0.000204703531348827
11
1337.07290828591
21
1644.7901045966
31
0.000203446206383973
  0
LINE
 8
GROUP0
10
1341.17098345844
20
1637.69202898504
30
0.000205119833615797
11
1343.76905966979
21
1639.19202898504
31
0.00020890797729578
  0
LINE
 8
GROUP0
10
1343.76905966979
20
1639.19202898504
30
0.00020890797729578
11
1346.36713588114
21
1637.69202898504
31
0.00021395344576014
  0
LINE
 8
GROUP0
10
1346.36713588114
20
1637.69202898504
30
0.00021395344576014
11
1346.36713588114
21
1634.69202898504
31
0.000215210770634755
  0
LINE
 8
GROUP0
10
1341.17098345844
20
1634.69202898504
30
0.000206377158400173
11
1341.17098345844
21
1637.69202898504
31
0.000205119833615797
  0
LINE
 8
GROUP0
10
1351.96520091842
20
1633.19202898502
30
0.000233192559973716
11
1349.36712470707
21
1634.69202898501
31
0.000228147090742326
  0
LINE
 8
GROUP0
10
1351.96520091842
20
1639.19202898501
30
0.000230677910675681
11
1354.56327712977
21
1637.69202898501
31
0.000235723378733965
  0
LINE
 8
GROUP0
10
1384.7498022989
20
1639.19203781265
30
0.0002490498307818
11
1387.34787851025
21
1637.69203781265
31
0.00025409529920104
  0
LINE
 8
GROUP0
10
1345.26906070861
20
1641.7901045966
30
0.000204703531348827
11
1345.26906070861
21
1644.7901045966
31
0.000203446206383973
  0
LINE
 8
GROUP0
10
1387.34787851025
20
1637.69203781265
30
0.00025409529920104
11
1387.34787851025
21
1634.69203781265
31
0.000255352624075655
  0
LINE
 8
GROUP0
10
1349.36712470707
20
1637.69202898502
30
0.000226889766318905
11
1351.96520091842
21
1639.19202898501
31
0.000230677910675681
  0
LINE
 8
GROUP0
10
1345.26906070861
20
1644.7901045966
30
0.000203446206383973
11
1347.86713691996
21
1646.2901045966
31
0.000207234350379792
  0
LINE
 8
GROUP0
10
1347.86713691996
20
1646.2901045966
30
0.000207234350379792
11
1350.46521313131
21
1644.7901045966
31
0.000212279819520944
  0
LINE
 8
GROUP0
10
1354.56327712977
20
1637.69202898501
30
0.000235723378733965
11
1354.56327712977
21
1634.69202898502
31
0.000236980703247625
  0
LINE
 8
GROUP0
10
1347.86713691996
20
1640.2901045966
30
0.000209748999948545
11
1345.26906070861
21
1641.7901045966
31
0.000204703531348827
  0
LINE
 8
GROUP0
10
1349.36712470707
20
1634.69202898501
30
0.000228147090742326
11
1349.36712470707
21
1637.69202898502
31
0.000226889766318905
  0
LINE
 8
GROUP0
10
1350.46521313131
20
1644.7901045966
30
0.000212279819520944
11
1350.46521313131
21
1641.7901045966
31
0.000213537143673648
  0
LINE
 8
GROUP0
10
1350.46521313131
20
1641.7901045966
30
0.000213537143673648
11
1347.86713691996
21
1640.2901045966
31
0.000209748999948545
  0
LINE
 8
GROUP0
10
1354.56327712977
20
1634.69202898502
30
0.000236980703247625
11
1351.96520091842
21
1633.19202898502
31
0.000233192559973716
  0
LINE
 8
GROUP0
10
1382.15172608755
20
1637.69203781265
30
0.000245261687056697
11
1384.7498022989
21
1639.19203781265
31
0.0002490498307818
  0
LINE
 8
GROUP0
10
1395.54401975888
20
1637.69203781263
30
0.000275865232174866
11
1395.54401975888
21
1634.69203781263
31
0.000277122556688525
  0
LINE
 8
GROUP0
10
1391.44595576042
20
1644.79011342421
30
0.000252421673006964
11
1391.44595576042
21
1641.79011342421
31
0.000253678997159668
  0
LINE
 8
GROUP0
10
1390.34786733618
20
1637.69203781263
30
0.000267031619759805
11
1392.94594354753
21
1639.19203781263
31
0.000270819764116581
  0
LINE
 8
GROUP0
10
1397.04403197177
20
1646.29011342421
30
0.00024737620409141
11
1399.64210818312
21
1644.79011342421
31
0.000252421673006964
  0
LINE
 8
GROUP0
10
1382.15172608755
20
1634.69203781265
30
0.000246519011841073
11
1382.15172608755
21
1637.69203781265
31
0.000245261687056697
  0
LINE
 8
GROUP0
10
1386.24980333772
20
1641.79011342421
30
0.000244845384834846
11
1386.24980333772
21
1644.79011342421
31
0.000243588059824873
  0
LINE
 8
GROUP0
10
1386.24980333772
20
1644.79011342421
30
0.000243588059824873
11
1388.84787954907
21
1646.29011342421
31
0.000247376203820693
  0
LINE
 8
GROUP0
10
1395.54401975888
20
1634.69203781263
30
0.000277122556688525
11
1392.94594354753
21
1633.19203781263
31
0.000273334413414616
  0
LINE
 8
GROUP0
10
1391.44595576042
20
1641.79011342421
30
0.000253678997159668
11
1388.84787954907
21
1640.29011342422
31
0.000249890853434565
  0
LINE
 8
GROUP0
10
1384.7498022989
20
1633.19203781265
30
0.00025156447971888
11
1382.15172608755
21
1634.69203781265
31
0.000246519011841073
  0
LINE
 8
GROUP0
10
1388.84787954907
20
1646.29011342421
30
0.000247376203820693
11
1391.44595576042
21
1644.79011342421
31
0.000252421673006964
  0
LINE
 8
GROUP0
10
1388.84787954907
20
1640.29011342422
30
0.000249890853434565
11
1386.24980333772
21
1641.79011342421
31
0.000244845384834846
  0
LINE
 8
GROUP0
10
1392.94594354753
20
1639.19203781263
30
0.000270819764116581
11
1395.54401975888
21
1637.69203781263
31
0.000275865232174866
  0
LINE
 8
GROUP0
10
1392.94594354753
20
1633.19203781263
30
0.000273334413414616
11
1390.34786733618
21
1634.69203781263
31
0.000268288944183226
  0
LINE
 8
GROUP0
10
1387.34787851025
20
1634.69203781265
30
0.000255352624075655
11
1384.7498022989
21
1633.19203781265
31
0.00025156447971888
  0
LINE
 8
GROUP0
10
1390.34786733618
20
1634.69203781263
30
0.000268288944183226
11
1390.34786733618
21
1637.69203781263
31
0.000267031619759805
  0
LINE
 8
GROUP0
10
1419.81248544783
20
1612.36751247574
30
0.000268571288510788
11
1419.55821400313
21
1612.69888206066
31
0.000268466460520589
  0
LINE
 8
GROUP0
10
1394.44595576042
20
1644.79011342421
30
0.000243588059869992
11
1397.04403197177
21
1646.29011342421
31
0.00024737620409141
  0
LINE
 8
GROUP0
10
1419.22685567537
20
1610.18186891629
30
0.000268309709277137
11
1419.55822526016
21
1610.4361403609
31
0.000268451009055681
  0
LINE
 8
GROUP0
10
1417.62685567598
20
1610.1818609564
30
0.000267635837328939
11
1418.01274599887
21
1610.02202220023
31
0.000267797270912418
  0
LINE
 8
GROUP0
10
1394.44595576042
20
1641.79011342421
30
0.000244845384834846
11
1394.44595576042
21
1644.79011342421
31
0.000243588059869992
  0
LINE
 8
GROUP0
10
1399.64210818312
20
1644.79011342421
30
0.000252421673006964
11
1399.64210818312
21
1641.79011342421
31
0.000253678997159668
  0
LINE
 8
GROUP0
10
1419.97232804362
20
1611.98162374311
30
0.000268635973499798
11
1419.81248544783
21
1612.36751247574
31
0.000268571288510788
  0
LINE
 8
GROUP0
10
1419.97233216398
20
1611.15340279879
30
0.000268630317865259
11
1420.02684878173
21
1611.56751354217
31
0.000268656107316012
  0
LINE
 8
GROUP0
10
1419.81249340776
20
1610.76751247576
30
0.00026856036267473
11
1419.97233216398
21
1611.15340279879
31
0.000268630317865259
  0
LINE
 8
GROUP0
10
1419.55822526016
20
1610.4361403609
30
0.000268451009055681
11
1419.81249340776
21
1610.76751247576
31
0.00026856036267473
  0
LINE
 8
GROUP0
10
1397.04403197177
20
1640.29011342422
30
0.000249890853434565
11
1394.44595576042
21
1641.79011342421
31
0.000244845384834846
  0
LINE
 8
GROUP0
10
1420.02684878173
20
1611.56751354217
30
0.000268656107316012
11
1419.97232804362
21
1611.98162374311
31
0.000268635973499798
  0
LINE
 8
GROUP0
10
1418.4268567421
20
1609.96750558248
30
0.000267971309520476
11
1418.84096694288
21
1610.02202632057
31
0.000268146092701205
  0
LINE
 8
GROUP0
10
1418.84096694288
20
1610.02202632057
30
0.000268146092701205
11
1419.22685567537
21
1610.18186891629
31
0.000268309709277137
  0
LINE
 8
GROUP0
10
1399.64210818312
20
1641.79011342421
30
0.000253678997159668
11
1397.04403197177
21
1640.29011342422
31
0.000249890853434565
  0
LINE
 8
GROUP0
10
1418.01274599887
20
1610.02202220023
30
0.000267797270912418
11
1418.4268567421
21
1609.96750558248
31
0.000267971309520476
  0
LINE
 8
GROUP0
10
1417.6268418883
20
1612.95314224838
30
0.000267654761447211
11
1417.29547230419
21
1612.69887080289
31
0.000267513461668667
  0
LINE
 8
GROUP0
10
1419.22684188826
20
1612.95315020827
30
0.000268328633395409
11
1418.84095156523
21
1613.1129889645
31
0.000268167199811931
  0
LINE
 8
GROUP0
10
1418.84095156523
20
1613.1129889645
30
0.000268167199811931
11
1418.42684082185
21
1613.16750558227
31
0.000267993161203872
  0
LINE
 8
GROUP0
10
1416.88136952089
20
1611.15338742122
30
0.00026732849722455
11
1417.04121211661
21
1610.76749868873
31
0.00026739318221356
  0
LINE
 8
GROUP0
10
1417.04120415669
20
1612.36749868814
30
0.000267404108049618
11
1416.88136540053
21
1611.98160836525
31
0.000267334152859089
  0
LINE
 8
GROUP0
10
1418.42684082185
20
1613.16750558227
30
0.000267993161203872
11
1418.01273062092
21
1613.11298484416
31
0.000267818378023144
  0
LINE
 8
GROUP0
10
1419.55821400313
20
1612.69888206066
30
0.000268466460520589
11
1419.22684188826
21
1612.95315020827
31
0.000268328633395409
  0
LINE
 8
GROUP0
10
1455.91706100064
20
1634.69205546788
30
0.000326802718722874
11
1455.91706100065
21
1637.69205546787
31
0.000325545393938498
  0
LINE
 8
GROUP0
10
1455.91706100065
20
1637.69205546787
30
0.000325545393938498
11
1458.515137212
21
1639.19205546787
31
0.000329333537663601
  0
LINE
 8
GROUP0
10
1458.515137212
20
1639.19205546787
30
0.000329333537663601
11
1461.11321342334
21
1637.69205546787
31
0.00033437900617308
  0
LINE
 8
GROUP0
10
1418.01273062092
20
1613.11298484416
30
0.000267818378023144
11
1417.6268418883
21
1612.95314224838
31
0.000267654761447211
  0
LINE
 8
GROUP0
10
1417.29548356123
20
1610.43612910392
30
0.00026749801019248
11
1417.62685567598
21
1610.1818609564
31
0.000267635837328939
  0
LINE
 8
GROUP0
10
1416.82684878279
20
1611.56749762201
30
0.000267308363408336
11
1416.88136952089
21
1611.15338742122
31
0.00026732849722455
  0
LINE
 8
GROUP0
10
1416.88136540053
20
1611.98160836525
30
0.000267334152859089
11
1416.82684878279
21
1611.56749762201
31
0.000267308363408336
  0
LINE
 8
GROUP0
10
1417.04121211661
20
1610.76749868873
30
0.00026739318221356
11
1417.29548356123
21
1610.43612910392
31
0.00026749801019248
  0
LINE
 8
GROUP0
10
1417.29547230419
20
1612.69887080289
30
0.000267513461668667
11
1417.04120415669
21
1612.36749868814
31
0.000267404108049618
  0
LINE
 8
GROUP0
10
1480.50550293952
20
1634.69205546785
30
0.000348572651065027
11
1480.50550293952
21
1637.69205546785
31
0.000347315326912323
  0
LINE
 8
GROUP0
10
1472.3093525944
20
1637.69205546785
30
0.000347315326641606
11
1474.90742880575
21
1639.19205546785
31
0.000351103470998382
  0
LINE
 8
GROUP0
10
1483.10357915087
20
1633.19205546785
30
0.000353618120296417
11
1480.50550293952
21
1634.69205546785
31
0.000348572651065027
  0
LINE
 8
GROUP0
10
1461.11321342334
20
1634.69205546788
30
0.000335636330957456
11
1458.51513721199
21
1633.19205546787
31
0.000331848186690919
  0
LINE
 8
GROUP0
10
1474.90742880575
20
1639.19205546785
30
0.000351103470998382
11
1477.5055050171
21
1637.69205546785
31
0.000356148939056666
  0
LINE
 8
GROUP0
10
1474.90742880574
20
1633.19205546785
30
0.000353618120296417
11
1472.30935259439
21
1634.69205546785
31
0.000348572651065027
  0
LINE
 8
GROUP0
10
1477.5055050171
20
1637.69205546785
30
0.000356148939056666
11
1477.50550501709
21
1634.69205546785
31
0.000357406263570326
  0
LINE
 8
GROUP0
10
1472.30935259439
20
1634.69205546785
30
0.000348572651065027
11
1472.3093525944
21
1637.69205546785
31
0.000347315326641606
  0
LINE
 8
GROUP0
10
1485.70165536222
20
1637.69205546785
30
0.000356148938966427
11
1485.70165536222
21
1634.69205546785
31
0.000357406263570326
  0
LINE
 8
GROUP0
10
1477.50550501709
20
1634.69205546785
30
0.000357406263570326
11
1474.90742880574
21
1633.19205546785
31
0.000353618120296417
  0
LINE
 8
GROUP0
10
1461.11321342334
20
1637.69205546787
30
0.00033437900617308
11
1461.11321342334
21
1634.69205546788
31
0.000335636330957456
  0
LINE
 8
GROUP0
10
1505.09395397488
20
1637.69206429549
30
0.000365687247379398
11
1507.69203018623
21
1639.19206429549
31
0.000369475391104501
  0
LINE
 8
GROUP0
10
1480.50550293952
20
1637.69205546785
30
0.000347315326912323
11
1483.10357915087
21
1639.19205546785
31
0.000351103470998382
  0
LINE
 8
GROUP0
10
1483.10357915087
20
1639.19205546785
30
0.000351103470998382
11
1485.70165536222
21
1637.69205546785
31
0.000356148938966427
  0
LINE
 8
GROUP0
10
1458.51513721199
20
1633.19205546787
30
0.000331848186690919
11
1455.91706100064
21
1634.69205546788
31
0.000326802718722874
  0
LINE
 8
GROUP0
10
1485.70165536222
20
1634.69205546785
30
0.000357406263570326
11
1483.10357915087
21
1633.19205546785
31
0.000353618120296417
  0
LINE
 8
GROUP0
10
1518.4862476462
20
1637.69206429546
30
0.000396290792497567
11
1518.4862476462
21
1634.69206429546
31
0.000397548117011226
  0
LINE
 8
GROUP0
10
1492.79974586403
20
1644.79013107944
30
0.000323871766751793
11
1495.39782207538
21
1646.29013107944
31
0.00032765991101833
  0
LINE
 8
GROUP0
10
1518.4862476462
20
1634.69206429546
30
0.000397548117011226
11
1515.88817143485
21
1633.19206429546
31
0.000393759973737318
  0
LINE
 8
GROUP0
10
1515.88817143486
20
1639.19206429546
30
0.000391245324439282
11
1518.4862476462
21
1637.69206429546
31
0.000396290792497567
  0
LINE
 8
GROUP0
10
1515.88817143485
20
1633.19206429546
30
0.000393759973737318
11
1513.2900952235
21
1634.69206429546
31
0.000388714504505927
  0
LINE
 8
GROUP0
10
1507.69203018622
20
1633.19206429549
30
0.000371990040041581
11
1505.09395397487
21
1634.69206429549
31
0.000366944572163774
  0
LINE
 8
GROUP0
10
1495.39782207538
20
1646.29013107944
30
0.00032765991101833
11
1497.99589828673
21
1644.79013107944
31
0.000332705379888765
  0
LINE
 8
GROUP0
10
1507.69203018623
20
1639.19206429549
30
0.000369475391104501
11
1510.29010639757
21
1637.69206429549
31
0.000374520859523741
  0
LINE
 8
GROUP0
10
1505.09395397487
20
1634.69206429549
30
0.000366944572163774
11
1505.09395397488
21
1637.69206429549
31
0.000365687247379398
  0
LINE
 8
GROUP0
10
1513.29009522351
20
1637.69206429546
30
0.000387457180082507
11
1515.88817143486
21
1639.19206429546
31
0.000391245324439282
  0
LINE
 8
GROUP0
10
1510.29010639757
20
1634.69206429549
30
0.000375778184398357
11
1507.69203018622
21
1633.19206429549
31
0.000371990040041581
  0
LINE
 8
GROUP0
10
1497.99589828673
20
1641.79013107944
30
0.000333962704041468
11
1495.39782207538
21
1640.29013107944
31
0.000330174560316365
  0
LINE
 8
GROUP0
10
1510.29010639757
20
1637.69206429549
30
0.000374520859523741
11
1510.29010639757
21
1634.69206429549
31
0.000375778184398357
  0
LINE
 8
GROUP0
10
1495.39782207538
20
1640.29013107944
30
0.000330174560316365
11
1492.79974586403
21
1641.79013107944
31
0.000325129091716647
  0
LINE
 8
GROUP0
10
1497.99589828673
20
1644.79013107944
30
0.000332705379888765
11
1497.99589828673
21
1641.79013107944
31
0.000333962704041468
  0
LINE
 8
GROUP0
10
1492.79974586403
20
1641.79013107944
30
0.000325129091716647
11
1492.79974586403
21
1644.79013107944
31
0.000323871766751793
  0
LINE
 8
GROUP0
10
1448.62673386493
20
1643.95334295488
30
0.000280922738489586
11
1448.29536423361
21
1643.69907146549
31
0.000280781438699762
  0
LINE
 8
GROUP0
10
1325.17676883387
20
1659.94249894577
30
0.000311824812332073
11
1542.67681470298
21
1659.94250252743
31
0.00037199004013182
  0
LINE
 8
GROUP0
10
1448.04110408534
20
1641.76769934721
30
0.000280661159255935
11
1448.29537553655
21
1641.43632976775
31
0.000280765987246134
  0
LINE
 8
GROUP0
10
1305.17677008013
20
1609.94247440437
30
0.0
11
1325.17676922751
21
1629.94249894578
31
0.000287099140242741
  0
LINE
 8
GROUP0
10
1449.01263798223
20
1641.02222287887
30
0.000281065247966072
11
1449.42674872636
21
1640.96770626956
31
0.000281239286574131
  0
LINE
 8
GROUP0
10
1448.6267476563
20
1641.18206162711
30
0.000280903814382594
11
1449.01263798223
21
1641.02222287887
31
0.000281065247966072
  0
LINE
 8
GROUP0
10
1447.8812573447
20
1642.98180901982
30
0.000280602129890184
11
1447.8267407354
21
1642.5676982757
31
0.000280576340450711
  0
LINE
 8
GROUP0
10
1447.8267407354
20
1642.5676982757
30
0.000280576340450711
11
1447.88126148187
21
1642.15358807625
31
0.000280596474266925
  0
LINE
 8
GROUP0
10
1447.88126148187
20
1642.15358807625
30
0.000280596474266925
11
1448.04110408534
21
1641.76769934721
31
0.000280661159255935
  0
LINE
 8
GROUP0
10
1448.29537553655
20
1641.43632976775
30
0.000280765987246134
11
1448.6267476563
21
1641.18206162711
31
0.000280903814382594
  0
LINE
 8
GROUP0
10
1448.04109609296
20
1643.36769934575
30
0.000280672085080713
11
1447.8812573447
21
1642.98180901982
31
0.000280602129890184
  0
LINE
 8
GROUP0
10
1449.01262259707
20
1644.11318555046
30
0.000281086355065518
11
1448.62673386493
21
1643.95334295488
31
0.000280922738489586
  0
LINE
 8
GROUP0
10
1449.84084354033
20
1644.11318967083
30
0.000281435176854306
11
1449.42673279747
21
1644.16770628851
31
0.000281261138246247
  0
LINE
 8
GROUP0
10
1448.29536423361
20
1643.69907146549
30
0.000280781438699762
11
1448.04109609296
21
1643.36769934575
31
0.000280672085080713
  0
LINE
 8
GROUP0
10
1449.42673279747
20
1644.16770628851
30
0.000281261138246247
11
1449.01262259707
21
1644.11318555046
31
0.000281086355065518
  0
LINE
 8
GROUP0
10
1325.17676883387
20
1659.94249894577
30
0.000311824812332073
11
1325.17676922751
21
1629.94249894578
31
0.000287099140242741
  0
LINE
 8
GROUP0
10
1448.62690349266
20
1610.18202338289
30
0.000280692126605064
11
1449.01279302049
21
1610.02218270688
31
0.000280853559850147
  0
LINE
 8
GROUP0
10
1449.01279302049
20
1610.02218270688
30
0.000280853559850147
11
1449.42690349266
21
1609.96766402893
31
0.000281027598322847
  0
LINE
 8
GROUP0
10
1449.84101396483
20
1610.02218270686
30
0.000281202381605095
11
1450.22690349266
21
1610.18202338286
31
0.000281365998508143
  0
LINE
 8
GROUP0
10
1325.17678763584
20
1372.44246964346
30
0.000272266707406477
11
1325.17678763586
21
1342.44248075914
31
0.000213228624597672
  0
LINE
 8
GROUP0
10
1275.17677008008
20
1609.94249819706
30
0.000190686232451753
11
1305.17677008013
21
1609.94247440437
31
0.0
  0
LINE
 8
GROUP0
10
1275.17678615746
20
1392.44247019606
30
0.000267748002623769
11
1305.17678627231
21
1392.44247019608
31
0.000220797540599094
  0
LINE
 8
GROUP0
10
1450.97238481473
20
1611.98177450102
30
0.000281692266475719
11
1450.81254413872
21
1612.36766402885
31
0.00028162758229886
  0
LINE
 8
GROUP0
10
1451.02690349266
20
1611.56766402886
30
0.000281712399412104
11
1450.97238481473
21
1611.98177450102
31
0.000281692266475719
  0
LINE
 8
GROUP0
10
1542.67680938245
20
1342.44247835516
30
0.000236810707050239
11
1325.17678763586
21
1342.44248075914
31
0.000213228624597672
  0
LINE
 8
GROUP0
10
1450.97238481473
20
1611.15355355671
30
0.000281686609104081
11
1451.02690349266
21
1611.56766402886
31
0.000281712399412104
  0
LINE
 8
GROUP0
10
1450.22690349266
20
1610.18202338286
30
0.000281365998508143
11
1450.55827434257
21
1610.436293179
31
0.000281507298805561
  0
LINE
 8
GROUP0
10
1449.42690349266
20
1609.96766402893
30
0.000281027598322847
11
1449.84101396483
21
1610.02218270686
31
0.000281202381605095
  0
LINE
 8
GROUP0
10
1450.55827434257
20
1610.436293179
30
0.000281507298805561
11
1450.81254413872
21
1610.76766402889
31
0.000281616653101402
  0
LINE
 8
GROUP0
10
1450.81254413872
20
1610.76766402889
30
0.000281616653101402
11
1450.97238481473
21
1611.15355355671
31
0.000281686609104081
  0
LINE
 8
GROUP0
10
1275.17678615746
20
1392.44247019606
30
0.000267748002623769
11
1275.17677008008
21
1609.94249819706
31
0.000190686232451753
  0
LINE
 8
GROUP0
10
1305.17678627231
20
1392.44247019608
30
0.000220797540599094
11
1325.17678763584
21
1372.44246964346
31
0.000272266707406477
  0
LINE
 8
GROUP0
10
1447.88142217058
20
1611.15355355678
30
0.000280384788564891
11
1448.04126284659
21
1610.76766402895
31
0.000280449472741751
  0
LINE
 8
GROUP0
10
1448.29553264276
20
1610.43629317904
30
0.000280554300021318
11
1448.62690349266
21
1610.18202338289
31
0.000280692126605064
  0
LINE
 8
GROUP0
10
1448.0412628466
20
1612.36766402893
30
0.000280460401939209
11
1447.88142217058
21
1611.9817745011
31
0.000280390445936529
  0
LINE
 8
GROUP0
10
1419.8123404794
20
1641.76757004547
30
0.000268772051794564
11
1419.97217923562
21
1642.1534603685
31
0.000268842006996373
  0
LINE
 8
GROUP0
10
1448.29553264276
20
1612.69903487882
30
0.00028056975623505
11
1448.0412628466
21
1612.36766402893
31
0.000280460401939209
  0
LINE
 8
GROUP0
10
1419.97217923562
20
1642.1534603685
30
0.000268842006996373
11
1420.02669585338
21
1642.56757111189
31
0.000268867796435845
  0
LINE
 8
GROUP0
10
1447.82690349264
20
1611.56766402894
30
0.000280364655628507
11
1447.88142217058
21
1611.15355355678
31
0.000280384788564891
  0
LINE
 8
GROUP0
10
1447.88142217058
20
1611.9817745011
30
0.000280390445936529
11
1447.82690349264
21
1611.56766402894
31
0.000280364655628507
  0
LINE
 8
GROUP0
10
1448.62690349266
20
1612.95330467497
30
0.000280711056532468
11
1448.29553264276
21
1612.69903487882
31
0.00028056975623505
  0
LINE
 8
GROUP0
10
1449.01279302051
20
1613.11314535097
30
0.000280874673435516
11
1448.62690349266
21
1612.95330467497
31
0.000280711056532468
  0
LINE
 8
GROUP0
10
1449.42690349268
20
1613.16766402889
30
0.000281049456717764
11
1449.01279302051
21
1613.11314535097
31
0.000280874673435516
  0
LINE
 8
GROUP0
10
1449.84101396485
20
1613.11314535095
30
0.000281223495190463
11
1449.42690349268
21
1613.16766402889
31
0.000281049456717764
  0
LINE
 8
GROUP0
10
1450.2269034927
20
1612.95330467493
30
0.000281384928435546
11
1449.84101396485
21
1613.11314535095
31
0.000281223495190463
  0
LINE
 8
GROUP0
10
1450.5582743426
20
1612.69903487877
30
0.000281522755019292
11
1450.2269034927
21
1612.95330467493
31
0.000281384928435546
  0
LINE
 8
GROUP0
10
1448.04126284659
20
1610.76766402895
30
0.000280449472741751
11
1448.29553264276
21
1610.43629317904
31
0.000280554300021318
  0
LINE
 8
GROUP0
10
1450.81254413872
20
1612.36766402885
30
0.00028162758229886
11
1450.5582743426
21
1612.69903487877
31
0.000281522755019292
  0
LINE
 8
GROUP0
10
1416.88122015989
20
1642.15344705125
30
0.000267540187867166
11
1417.0410608359
21
1641.76755752341
31
0.000267604872032745
  0
LINE
 8
GROUP0
10
1418.84081401426
20
1641.02208389008
30
0.000268357781832318
11
1419.22670274689
21
1641.18192648588
31
0.00026852139840825
  0
LINE
 8
GROUP0
10
1419.5580723318
20
1641.43619793059
30
0.000268662698175515
11
1419.8123404794
21
1641.76757004547
31
0.000268772051794564
  0
LINE
 8
GROUP0
10
1418.42670148193
20
1644.16755752344
30
0.000268204856008758
11
1418.01259100977
21
1644.11303884549
31
0.000268030072726511
  0
LINE
 8
GROUP0
10
1417.04106083589
20
1643.36755752341
30
0.000267615801230203
11
1416.88122015989
21
1642.98166799557
31
0.000267545845227524
  0
LINE
 8
GROUP0
10
1417.62670148194
20
1643.95319816948
30
0.000267866455823462
11
1417.29533063205
21
1643.69892837332
31
0.000267725155537324
  0
LINE
 8
GROUP0
10
1417.62670274693
20
1641.18191852593
30
0.000267847526448772
11
1418.01259306995
21
1641.02207976971
31
0.000268008960032251
  0
LINE
 8
GROUP0
10
1417.29533063205
20
1643.69892837332
30
0.000267725155537324
11
1417.04106083589
21
1643.36755752341
31
0.000267615801230203
  0
LINE
 8
GROUP0
10
1416.88122015989
20
1642.98166799557
30
0.000267545845227524
11
1416.82670148195
21
1642.56755752341
31
0.000267520054919501
  0
LINE
 8
GROUP0
10
1418.01259100977
20
1644.11303884549
30
0.000268030072726511
11
1417.62670148194
21
1643.95319816948
31
0.000267866455823462
  0
LINE
 8
GROUP0
10
1419.22670274689
20
1641.18192648588
30
0.00026852139840825
11
1419.5580723318
21
1641.43619793059
31
0.000268662698175515
  0
LINE
 8
GROUP0
10
1416.82670148195
20
1642.56755752341
30
0.000267520054919501
11
1416.88122015989
21
1642.15344705125
31
0.000267540187867166
  0
LINE
 8
GROUP0
10
1417.29533063205
20
1641.43618667352
30
0.000267709699323593
11
1417.62670274693
21
1641.18191852593
31
0.000267847526448772
  0
LINE
 8
GROUP0
10
1418.42670381333
20
1640.96756315196
30
0.000268182998640309
11
1418.84081401426
21
1641.02208389008
31
0.000268357781832318
  0
LINE
 8
GROUP0
10
1418.01259306995
20
1641.02207976971
30
0.000268008960032251
11
1418.42670381333
21
1640.96756315196
31
0.000268182998640309
  0
LINE
 8
GROUP0
10
1417.0410608359
20
1641.76755752341
30
0.000267604872032745
11
1417.29533063205
21
1641.43618667352
31
0.000267709699323593
  0
LINE
 8
GROUP0
10
1421.85282582731
20
1630.30276918853
30
0.000269553129731737
11
1421.42690078076
21
1627.06754726453
31
0.000269351643927429
  0
LINE
 8
GROUP0
10
1419.55807233183
20
1643.69892837336
30
0.000268678154310287
11
1419.22670148193
21
1643.95319816951
31
0.000268540327726541
  0
LINE
 8
GROUP0
10
1421.85282582731
20
1630.30276918853
30
0.000269553129731737
11
1423.10157487889
21
1633.31751608487
31
0.000270099658265188
  0
LINE
 8
GROUP0
10
1419.81233251947
20
1643.36757004545
30
0.000268782977630622
11
1419.55807233183
21
1643.69892837336
31
0.000268678154310287
  0
LINE
 8
GROUP0
10
1418.8408119541
20
1644.11303884551
30
0.000268378894492738
11
1418.42670148193
21
1644.16755752344
31
0.000268204856008758
  0
LINE
 8
GROUP0
10
1433.92683842145
20
1614.56760962384
30
0.000274530857965161
11
1437.16206034546
21
1614.99353467038
31
0.000275896345564419
  0
LINE
 8
GROUP0
10
1427.67686960111
20
1616.24228372197
30
0.000271909998272957
11
1430.69161649745
21
1614.99353467038
31
0.000273171189141141
  0
LINE
 8
GROUP0
10
1420.02669585338
20
1642.56757111189
30
0.000268867796435845
11
1419.97217511526
21
1642.98168131282
31
0.000268847662619631
  0
LINE
 8
GROUP0
10
1437.16206034546
20
1614.99353467038
30
0.000275896345564419
11
1440.1768072418
21
1616.24228372197
31
0.000277174596214635
  0
LINE
 8
GROUP0
10
1419.97217511526
20
1642.98168131282
30
0.000268847662619631
11
1419.81233251947
21
1643.36757004545
31
0.000268782977630622
  0
LINE
 8
GROUP0
10
1419.22670148193
20
1643.95319816951
30
0.000268540327726541
11
1418.8408119541
21
1644.11303884551
31
0.000268378894492738
  0
LINE
 8
GROUP0
10
1430.69161649745
20
1614.99353467038
30
0.000273171189141141
11
1433.92683842145
21
1614.56760962384
31
0.000274530857965161
  0
LINE
 8
GROUP0
10
1427.67686960111
20
1616.24228372197
30
0.000271909998272957
11
1425.08804775131
21
1618.22875659439
31
0.000270833233427048
  0
LINE
 8
GROUP0
10
1423.10157487889
20
1620.81757844418
30
0.000270014274361241
11
1425.08804775131
21
1618.22875659439
31
0.000270833233427048
  0
LINE
 8
GROUP0
10
1421.85282582731
20
1623.83232534052
30
0.000269508931765383
11
1423.10157487889
21
1620.81757844418
31
0.000270014274361241
  0
LINE
 8
GROUP0
10
1421.42690078076
20
1627.06754726453
30
0.000269351643927429
11
1421.85282582731
21
1623.83232534052
31
0.000269508931765383
  0
LINE
 8
GROUP0
10
1446.42677606214
20
1627.06754726452
30
0.000279880839810787
11
1446.0008510156
21
1623.83232534052
31
0.000279679354006479
  0
LINE
 8
GROUP0
10
1437.16206034546
20
1639.14155985867
30
0.000276061294597074
11
1440.1768072418
21
1637.89281080709
31
0.000277322485476539
  0
LINE
 8
GROUP0
10
1444.75210196401
20
1620.81757844418
30
0.000279132825473027
11
1442.76562909159
21
1618.22875659438
31
0.000278278499233586
  0
LINE
 8
GROUP0
10
1446.0008510156
20
1623.83232534052
30
0.000279679354006479
11
1444.75210196401
21
1620.81757844418
31
0.000279132825473027
  0
LINE
 8
GROUP0
10
1446.0008510156
20
1630.30276918853
30
0.000279723551972832
11
1446.42677606214
21
1627.06754726452
31
0.000279880839810787
  0
LINE
 8
GROUP0
10
1433.92683842145
20
1639.56748490522
30
0.000274701625773055
11
1430.69161649745
21
1639.14155985867
31
0.000273336138173796
  0
LINE
 8
GROUP0
10
1440.1768072418
20
1637.89281080709
30
0.000277322485476539
11
1442.76562909159
21
1635.90633793467
31
0.000278399250311168
  0
LINE
 8
GROUP0
10
1338.17098553602
20
1637.69202898504
30
0.000213953445805259
11
1338.17098553602
21
1634.69202898504
31
0.000215210770634755
  0
LINE
 8
GROUP0
10
1425.08804775131
20
1635.90633793467
30
0.000270953984504629
11
1427.67686960111
21
1637.89281080709
31
0.00027205788752358
  0
LINE
 8
GROUP0
10
1433.92683842145
20
1639.56748490522
30
0.000274701625773055
11
1437.16206034546
21
1639.14155985867
31
0.000276061294597074
  0
LINE
 8
GROUP0
10
1442.76562909159
20
1635.90633793467
30
0.000278399250311168
11
1444.75210196401
21
1633.31751608487
31
0.000279218209376975
  0
LINE
 8
GROUP0
10
1440.1768072418
20
1616.24228372197
30
0.000277174596214635
11
1442.76562909159
21
1618.22875659438
31
0.000278278499233586
  0
LINE
 8
GROUP0
10
1338.17098553602
20
1634.69202898504
30
0.000215210770634755
11
1335.57290932467
21
1633.19202898504
31
0.000211422626368218
  0
LINE
 8
GROUP0
10
1425.08804775131
20
1635.90633793467
30
0.000270953984504629
11
1423.10157487889
21
1633.31751608487
31
0.000270099658265188
  0
LINE
 8
GROUP0
10
1427.67686960111
20
1637.89281080709
30
0.00027205788752358
11
1430.69161649745
21
1639.14155985867
31
0.000273336138173796
  0
LINE
 8
GROUP0
10
1446.0008510156
20
1630.30276918853
30
0.000279723551972832
11
1444.75210196401
21
1633.31751608487
31
0.000279218209376975
  0
LINE
 8
GROUP0
10
1366.85751797671
20
1641.7901045966
30
0.000213537143673648
11
1364.25944176536
21
1640.2901045966
31
0.000209748999993664
  0
LINE
 8
GROUP0
10
1332.97483311332
20
1634.69202898504
30
0.000206377158400173
11
1332.97483311332
21
1637.69202898504
31
0.000205119833570677
  0
LINE
 8
GROUP0
10
1366.85751797671
20
1644.7901045966
30
0.000212279819520944
11
1366.85751797671
21
1641.7901045966
31
0.000213537143673648
  0
LINE
 8
GROUP0
10
1370.95557782001
20
1634.69203339883
30
0.000246166663932357
11
1368.35750160866
21
1633.19203339883
31
0.000242378519756059
  0
LINE
 8
GROUP0
10
1332.97483311332
20
1637.69202898504
30
0.000205119833570677
11
1335.57290932467
21
1639.19202898504
31
0.00020890797729578
  0
LINE
 8
GROUP0
10
1368.35750160866
20
1639.19203339883
30
0.00023986387072874
11
1370.95557782001
21
1637.69203339883
31
0.000244909339147981
  0
LINE
 8
GROUP0
10
1364.25944176536
20
1646.2901045966
30
0.000207234350650509
11
1366.85751797671
21
1644.7901045966
31
0.000212279819520944
  0
LINE
 8
GROUP0
10
1365.75942539731
20
1637.69203339883
30
0.000236075726552443
11
1368.35750160866
21
1639.19203339883
31
0.00023986387072874
  0
LINE
 8
GROUP0
10
1364.25944176536
20
1640.2901045966
30
0.000209748999993664
11
1361.66136555401
21
1641.7901045966
31
0.000204703531348827
  0
LINE
 8
GROUP0
10
1335.57290932467
20
1633.19202898504
30
0.000211422626368218
11
1332.97483311332
21
1634.69202898504
31
0.000206377158400173
  0
LINE
 8
GROUP0
10
1335.57290932467
20
1639.19202898504
30
0.00020890797729578
11
1338.17098553602
21
1637.69202898504
31
0.000213953445805259
  0
LINE
 8
GROUP0
10
1365.75942539731
20
1634.69203339883
30
0.000237333050524668
11
1365.75942539731
21
1637.69203339883
31
0.000236075726552443
  0
LINE
 8
GROUP0
10
1361.66136555401
20
1644.7901045966
30
0.000203446206383973
11
1364.25944176536
21
1646.2901045966
31
0.000207234350650509
  0
LINE
 8
GROUP0
10
1361.66136555401
20
1641.7901045966
30
0.000204703531348827
11
1361.66136555401
21
1644.7901045966
31
0.000203446206383973
  0
LINE
 8
GROUP0
10
1368.35750160866
20
1633.19203339883
30
0.000242378519756059
11
1365.75942539731
21
1634.69203339883
31
0.000237333050524668
  0
LINE
 8
GROUP0
10
1370.95557782001
20
1637.69203339883
30
0.000244909339147981
11
1370.95557782001
21
1634.69203339883
31
0.000246166663932357
  0
LINE
 8
GROUP0
10
1360.16135126354
20
1639.19202898501
30
0.000230677910675681
11
1362.75942747489
21
1637.69202898501
31
0.000235723378643726
  0
LINE
 8
GROUP0
10
1406.74016802642
20
1637.69204222644
30
0.000276217579993343
11
1409.33824423777
21
1639.19204222644
31
0.000280005724169641
  0
LINE
 8
GROUP0
10
1357.56327505219
20
1634.69202898501
30
0.000228147090742326
11
1357.56327505219
21
1637.69202898501
31
0.000226889766589622
  0
LINE
 8
GROUP0
10
1362.75942747489
20
1634.69202898502
30
0.000236980703247625
11
1360.16135126354
21
1633.19202898502
31
0.000233192559973716
  0
LINE
 8
GROUP0
10
1409.33824423777
20
1639.19204222644
30
0.000280005724169641
11
1411.93632044912
21
1637.69204222645
31
0.000285051192588881
  0
LINE
 8
GROUP0
10
1493.89780570734
20
1637.69205988167
30
0.000365334899470682
11
1493.89780570733
21
1634.69205988167
31
0.000366592224255058
  0
LINE
 8
GROUP0
10
1491.29972949598
20
1633.19205988167
30
0.00036280408007876
11
1488.70165328463
21
1634.69205988167
31
0.00035775861084737
  0
LINE
 8
GROUP0
10
1491.29972949599
20
1639.19205988167
30
0.000360289431051441
11
1493.89780570734
21
1637.69205988167
31
0.000365334899470682
  0
LINE
 8
GROUP0
10
1362.75942747489
20
1637.69202898501
30
0.000235723378643726
11
1362.75942747489
21
1634.69202898502
31
0.000236980703247625
  0
LINE
 8
GROUP0
10
1488.70165328463
20
1634.69205988167
30
0.00035775861084737
11
1488.70165328464
21
1637.69205988167
31
0.000356501286875144
  0
LINE
 8
GROUP0
10
1357.56327505219
20
1637.69202898501
30
0.000226889766589622
11
1360.16135126354
21
1639.19202898501
31
0.000230677910675681
  0
LINE
 8
GROUP0
10
1406.74016802642
20
1634.69204222645
30
0.000277474903965569
11
1406.74016802642
21
1637.69204222644
31
0.000276217579993343
  0
LINE
 8
GROUP0
10
1409.33824423777
20
1633.19204222645
30
0.000282520373196959
11
1406.74016802642
21
1634.69204222645
31
0.000277474903965569
  0
LINE
 8
GROUP0
10
1360.16135126354
20
1633.19202898502
30
0.000233192559973716
11
1357.56327505219
21
1634.69202898501
31
0.000228147090742326
  0
LINE
 8
GROUP0
10
1488.70165328464
20
1637.69205988167
30
0.000356501286875144
11
1491.29972949599
21
1639.19205988167
31
0.000360289431051441
  0
LINE
 8
GROUP0
10
1493.89780570733
20
1634.69205988167
30
0.000366592224255058
11
1491.29972949598
21
1633.19205988167
31
0.00036280408007876
  0
LINE
 8
GROUP0
10
1411.93632044912
20
1637.69204222645
30
0.000285051192588881
11
1411.93632044912
21
1634.69204222645
31
0.000286308517373257
  0
LINE
 8
GROUP0
10
1407.83826060582
20
1644.79011342421
30
0.000252421673006964
11
1407.83826060581
21
1641.79011342421
31
0.000253678997159668
  0
LINE
 8
GROUP0
10
1405.24018439446
20
1640.29011342422
30
0.000249890853434565
11
1402.64210818312
21
1641.79011342421
31
0.000244845384834846
  0
LINE
 8
GROUP0
10
1405.24018439444
20
1626.09396100152
30
0.000218779809010172
11
1402.64210818309
21
1627.59396100152
31
0.000216475011240291
  0
LINE
 8
GROUP0
10
1525.58433607041
20
1627.59398748436
30
0.000336900571608112
11
1525.58433607041
21
1630.59398748436
31
0.000334907066689638
  0
LINE
 8
GROUP0
10
1407.83826060581
20
1641.79011342421
30
0.000253678997159668
11
1405.24018439446
21
1640.29011342422
31
0.000249890853434565
  0
LINE
 8
GROUP0
10
1402.64210818312
20
1641.79011342421
30
0.000244845384834846
11
1402.64210818312
21
1644.79011342421
31
0.000243588059869992
  0
LINE
 8
GROUP0
10
1411.93632044912
20
1634.69204222645
30
0.000286308517373257
11
1409.33824423777
21
1633.19204222645
31
0.000282520373196959
  0
LINE
 8
GROUP0
10
1402.64210818312
20
1644.79011342421
30
0.000243588059869992
11
1405.24018439447
21
1646.29011342421
31
0.000247376204136529
  0
LINE
 8
GROUP0
10
1407.83826060579
20
1630.59396100152
30
0.000217097599018601
11
1407.83826060579
21
1627.59396100152
31
0.000219091103711477
  0
LINE
 8
GROUP0
10
1528.18241228176
20
1626.09398748436
30
0.000339205369377993
11
1525.58433607041
21
1627.59398748436
31
0.000336900571608112
  0
LINE
 8
GROUP0
10
1402.64210818309
20
1630.59396100152
30
0.000214481506366937
11
1405.24018439444
21
1632.09396100152
31
0.000214792800346331
  0
LINE
 8
GROUP0
10
1407.83826060579
20
1627.59396100152
30
0.000219091103711477
11
1405.24018439444
21
1626.09396100152
31
0.000218779809010172
  0
LINE
 8
GROUP0
10
1405.24018439447
20
1646.29011342421
30
0.000247376204136529
11
1407.83826060582
21
1644.79011342421
31
0.000252421673006964
  0
LINE
 8
GROUP0
10
1405.24018439444
20
1632.09396100152
30
0.000214792800346331
11
1407.83826060579
21
1630.59396100152
31
0.000217097599018601
  0
LINE
 8
GROUP0
10
1402.64210818309
20
1627.59396100152
30
0.000216475011240291
11
1402.64210818309
21
1630.59396100152
31
0.000214481506366937
  0
LINE
 8
GROUP0
10
1530.78048849312
20
1627.59398748436
30
0.000339516664079298
11
1528.18241228176
21
1626.09398748436
31
0.000339205369377993
  0
LINE
 8
GROUP0
10
1522.58433607043
20
1627.59398748436
30
0.000349323870960205
11
1519.98625985907
21
1626.09398748436
31
0.000349012576890573
  0
LINE
 8
GROUP0
10
1519.98625985907
20
1632.09398748436
30
0.000345025568271851
11
1522.58433607043
21
1630.59398748436
31
0.000347330366763643
  0
LINE
 8
GROUP0
10
1522.58433607043
20
1630.59398748436
30
0.000347330366763643
11
1522.58433607043
21
1627.59398748436
31
0.000349323870960205
  0
LINE
 8
GROUP0
10
1519.98625985907
20
1626.09398748436
30
0.000349012576890573
11
1517.38818364772
21
1627.59398748436
31
0.000346707778579258
  0
LINE
 8
GROUP0
10
1517.38818364772
20
1627.59398748436
30
0.000346707778579258
11
1517.38818364772
21
1630.59398748436
31
0.000344714274292457
  0
LINE
 8
GROUP0
10
1511.79010743638
20
1626.09398748437
30
0.000358819784764108
11
1509.19203122503
21
1627.59398748437
31
0.000356514986317435
  0
LINE
 8
GROUP0
10
1525.58433607041
20
1630.59398748436
30
0.000334907066689638
11
1528.18241228177
21
1632.09398748436
31
0.000335218360669032
  0
LINE
 8
GROUP0
10
1509.19203122503
20
1627.59398748437
30
0.000356514986317435
11
1509.19203122503
21
1630.59398748437
31
0.000354521481444081
  0
LINE
 8
GROUP0
10
1530.78048849312
20
1630.59398748435
30
0.000337523159341302
11
1530.78048849312
21
1627.59398748436
31
0.000339516664079298
  0
LINE
 8
GROUP0
10
1517.38818364772
20
1630.59398748436
30
0.000344714274292457
11
1519.98625985907
21
1632.09398748436
31
0.000345025568271851
  0
LINE
 8
GROUP0
10
1509.19203122503
20
1630.59398748437
30
0.000354521481444081
11
1511.79010743638
21
1632.09398748437
31
0.000354832775603953
  0
LINE
 8
GROUP0
10
1514.38818364773
20
1627.59398748437
30
0.000359131078698383
11
1511.79010743638
21
1626.09398748437
31
0.000358819784764108
  0
LINE
 8
GROUP0
10
1511.79010743638
20
1632.09398748437
30
0.000354832775603953
11
1514.38818364773
21
1630.59398748437
31
0.000357137574185984
  0
LINE
 8
GROUP0
10
1514.38818364773
20
1630.59398748437
30
0.000357137574185984
11
1514.38818364773
21
1627.59398748437
31
0.000359131078698383
  0
LINE
 8
GROUP0
10
1528.18241228177
20
1632.09398748436
30
0.000335218360669032
11
1530.78048849312
21
1630.59398748435
31
0.000337523159341302
  0
LINE
 8
GROUP0
10
1506.19203122504
20
1627.59398748437
30
0.000368938286030485
11
1503.59395501369
21
1626.09398748437
31
0.000368626991960852
  0
LINE
 8
GROUP0
10
1495.39782207535
20
1626.09397865674
30
0.000289256308920827
11
1492.799745864
21
1627.59397865674
31
0.000286951510880229
  0
LINE
 8
GROUP0
10
1495.39782207535
20
1632.09397865674
30
0.000285269299986268
11
1497.9958982867
21
1630.59397865674
31
0.000287574098748777
  0
LINE
 8
GROUP0
10
1503.59395501369
20
1632.09398748437
30
0.000364639982755577
11
1506.19203122504
21
1630.59398748437
31
0.000366944781427847
  0
LINE
 8
GROUP0
10
1500.99587880233
20
1627.59398748438
30
0.000366322194100732
11
1500.99587880234
21
1630.59398748437
31
0.000364328689317617
  0
LINE
 8
GROUP0
10
1503.59395501369
20
1626.09398748437
30
0.000368626991960852
11
1500.99587880233
21
1627.59398748438
31
0.000366322194100732
  0
LINE
 8
GROUP0
10
1529.68239591375
20
1637.69206870928
30
0.000396643140316044
11
1532.28047212509
21
1639.19206870928
31
0.000400431284492342
  0
LINE
 8
GROUP0
10
1497.9958982867
20
1630.59397865674
30
0.000287574098748777
11
1497.9958982867
21
1627.59397865674
31
0.000289567602629504
  0
LINE
 8
GROUP0
10
1497.9958982867
20
1627.59397865674
30
0.000289567602629504
11
1495.39782207535
21
1626.09397865674
31
0.000289256308920827
  0
LINE
 8
GROUP0
10
1506.19203122504
20
1630.59398748437
30
0.000366944781427847
11
1506.19203122504
21
1627.59398748437
31
0.000368938286030485
  0
LINE
 8
GROUP0
10
1532.28047212509
20
1633.19206870928
30
0.000402945933519661
11
1529.68239591374
21
1634.69206870928
31
0.00039790046428827
  0
LINE
 8
GROUP0
10
1529.68239591374
20
1634.69206870928
30
0.00039790046428827
11
1529.68239591375
21
1637.69206870928
31
0.000396643140316044
  0
LINE
 8
GROUP0
10
1532.28047212509
20
1639.19206870928
30
0.000400431284492342
11
1534.87854833644
21
1637.69206870928
31
0.000405476752911582
  0
LINE
 8
GROUP0
10
1492.799745864
20
1630.59397865674
30
0.000284958006097114
11
1495.39782207535
21
1632.09397865674
31
0.000285269299986268
  0
LINE
 8
GROUP0
10
1492.799745864
20
1627.59397865674
30
0.000286951510880229
11
1492.799745864
21
1630.59397865674
31
0.000284958006097114
  0
LINE
 8
GROUP0
10
1500.99587880234
20
1630.59398748437
30
0.000364328689317617
11
1503.59395501369
21
1632.09398748437
31
0.000364639982755577
  0
LINE
 8
GROUP0
10
1521.48624556863
20
1637.69206429546
30
0.000387457180353223
11
1524.08432177998
21
1639.19206429546
31
0.000391245324439282
  0
LINE
 8
GROUP0
10
1534.87854833644
20
1637.69206870928
30
0.000405476752911582
11
1534.87854833644
21
1634.69206870928
31
0.000406734077695958
  0
LINE
 8
GROUP0
10
1525.58433607044
20
1644.79013990705
30
0.000364013620192694
11
1528.18241228179
21
1646.29013990705
31
0.00036780176445923
  0
LINE
 8
GROUP0
10
1525.58433607044
20
1641.79013990705
30
0.000365270945157548
11
1525.58433607044
21
1644.79013990705
31
0.000364013620192694
  0
LINE
 8
GROUP0
10
1524.08432177998
20
1639.19206429546
30
0.000391245324439282
11
1526.68239799133
21
1637.69206429546
31
0.000396290792407328
  0
LINE
 8
GROUP0
10
1526.68239799132
20
1634.69206429546
30
0.000397548117011226
11
1524.08432177997
21
1633.19206429546
31
0.000393759973737318
  0
LINE
 8
GROUP0
10
1492.92679107556
20
1618.19234621062
30
0.000181245332110613
11
1529.92680913616
21
1618.19234621062
31
0.000181245332110613
  0
LINE
 8
GROUP0
10
1529.92680913616
20
1614.19234621062
30
0.000181245332110613
11
1492.92679107556
21
1614.19234621062
31
0.000181245332110613
  0
LINE
 8
GROUP0
10
1526.68239799133
20
1637.69206429546
30
0.000396290792407328
11
1526.68239799132
21
1634.69206429546
31
0.000397548117011226
  0
LINE
 8
GROUP0
10
1528.18241228179
20
1646.29013990705
30
0.00036780176445923
11
1530.78048849314
21
1644.79013990705
31
0.000372847233329665
  0
LINE
 8
GROUP0
10
1534.87854833644
20
1634.69206870928
30
0.000406734077695958
11
1532.28047212509
21
1633.19206870928
31
0.000402945933519661
  0
LINE
 8
GROUP0
10
1528.18241228179
20
1640.29013990705
30
0.000370316413757266
11
1525.58433607044
21
1641.79013990705
31
0.000365270945157548
  0
LINE
 8
GROUP0
10
1492.92679107556
20
1614.19234621062
30
0.000181245332110613
11
1492.92679107556
21
1618.19234621062
31
0.000181245332110613
  0
LINE
 8
GROUP0
10
1530.78048849314
20
1644.79013990705
30
0.000372847233329665
11
1530.78048849314
21
1641.79013990705
31
0.000374104557482369
  0
LINE
 8
GROUP0
10
1530.78048849314
20
1641.79013990705
30
0.000374104557482369
11
1528.18241228179
21
1640.29013990705
31
0.000370316413757266
  0
LINE
 8
GROUP0
10
1529.92680913616
20
1618.19234621062
30
0.000181245332110613
11
1529.92680913616
21
1614.19234621062
31
0.000181245332110613
  0
LINE
 8
GROUP0
10
1521.48624556863
20
1634.69206429546
30
0.000388714504505927
11
1521.48624556863
21
1637.69206429546
31
0.000387457180353223
  0
LINE
 8
GROUP0
10
1487.20166965268
20
1640.29013107944
30
0.000330174560316365
11
1484.60359344133
21
1641.79013107944
31
0.000325129091716647
  0
LINE
 8
GROUP0
10
1487.20166965269
20
1646.29013107944
30
0.00032765991101833
11
1489.79974586403
21
1644.79013107944
31
0.000332705379888765
  0
LINE
 8
GROUP0
10
1481.60359344133
20
1644.79013107944
30
0.000332705379888765
11
1481.60359344133
21
1641.79013107944
31
0.000333962704041468
  0
LINE
 8
GROUP0
10
1496.89780362975
20
1637.69206429549
30
0.000365687247379398
11
1499.4958798411
21
1639.19206429549
31
0.000369475391104501
  0
LINE
 8
GROUP0
10
1484.60359344134
20
1644.79013107944
30
0.000323871766751793
11
1487.20166965269
21
1646.29013107944
31
0.00032765991101833
  0
LINE
 8
GROUP0
10
1499.4958798411
20
1639.19206429549
30
0.000369475391104501
11
1502.09395605245
21
1637.69206429549
31
0.00037452085961398
  0
LINE
 8
GROUP0
10
1502.09395605245
20
1637.69206429549
30
0.00037452085961398
11
1502.09395605245
21
1634.69206429549
31
0.000375778184398357
  0
LINE
 8
GROUP0
10
1489.79974586403
20
1644.79013107944
30
0.000332705379888765
11
1489.79974586403
21
1641.79013107944
31
0.000333962704041468
  0
LINE
 8
GROUP0
10
1496.89780362975
20
1634.69206429549
30
0.000366944572163774
11
1496.89780362975
21
1637.69206429549
31
0.000365687247379398
  0
LINE
 8
GROUP0
10
1484.60359344133
20
1641.79013107944
30
0.000325129091716647
11
1484.60359344134
21
1644.79013107944
31
0.000323871766751793
  0
LINE
 8
GROUP0
10
1502.09395605245
20
1634.69206429549
30
0.000375778184398357
11
1499.4958798411
21
1633.19206429549
31
0.00037199004013182
  0
LINE
 8
GROUP0
10
1499.4958798411
20
1633.19206429549
30
0.00037199004013182
11
1496.89780362975
21
1634.69206429549
31
0.000366944572163774
  0
LINE
 8
GROUP0
10
1524.08432177997
20
1633.19206429546
30
0.000393759973737318
11
1521.48624556863
21
1634.69206429546
31
0.000388714504505927
  0
LINE
 8
GROUP0
10
1489.79974586403
20
1641.79013107944
30
0.000333962704041468
11
1487.20166965268
21
1640.29013107944
31
0.000330174560316365
  0
LINE
 8
GROUP0
10
1479.00551722999
20
1646.29013107944
30
0.00032765991101833
11
1481.60359344133
21
1644.79013107944
31
0.000332705379888765
  0
LINE
 8
GROUP0
10
1479.00551722998
20
1640.29013107944
30
0.000330174560316365
11
1476.40744101863
21
1641.79013107944
31
0.000325129091716647
  0
LINE
 8
GROUP0
10
1468.21128859594
20
1641.79013107944
30
0.000325129091716647
11
1468.21128859594
21
1644.79013107944
31
0.000323871766751793
  0
LINE
 8
GROUP0
10
1473.40744101864
20
1644.79013107944
30
0.000332705379888765
11
1473.40744101863
21
1641.79013107944
31
0.000333962704041468
  0
LINE
 8
GROUP0
10
1469.30936376847
20
1637.69205546787
30
0.000334379006082841
11
1469.30936376846
21
1634.69205546788
31
0.000335636330957456
  0
LINE
 8
GROUP0
10
1468.21128859594
20
1644.79013107944
30
0.000323871766751793
11
1470.80936480729
21
1646.29013107944
31
0.000327659910747613
  0
LINE
 8
GROUP0
10
1476.40744101864
20
1644.79013107944
30
0.000323871766751793
11
1479.00551722999
21
1646.29013107944
31
0.00032765991101833
  0
LINE
 8
GROUP0
10
1469.30936376846
20
1634.69205546788
30
0.000335636330957456
11
1466.71128755711
21
1633.19205546787
31
0.000331848186600681
  0
LINE
 8
GROUP0
10
1470.80936480728
20
1640.29013107944
30
0.000330174560316365
11
1468.21128859594
21
1641.79013107944
31
0.000325129091716647
  0
LINE
 8
GROUP0
10
1481.60359344133
20
1641.79013107944
30
0.000333962704041468
11
1479.00551722998
21
1640.29013107944
31
0.000330174560316365
  0
LINE
 8
GROUP0
10
1466.71128755711
20
1633.19205546787
30
0.000331848186600681
11
1464.11321134577
21
1634.69205546788
31
0.000326802718722874
  0
LINE
 8
GROUP0
10
1464.11321134577
20
1634.69205546788
30
0.000326802718722874
11
1464.11321134577
21
1637.69205546787
31
0.000325545393938498
  0
LINE
 8
GROUP0
10
1476.40744101863
20
1641.79013107944
30
0.000325129091716647
11
1476.40744101864
21
1644.79013107944
31
0.000323871766751793
  0
LINE
 8
GROUP0
10
1464.11321134577
20
1637.69205546787
30
0.000325545393938498
11
1466.71128755712
21
1639.19205546787
31
0.000329333537663601
  0
LINE
 8
GROUP0
10
1466.71128755712
20
1639.19205546787
30
0.000329333537663601
11
1469.30936376847
21
1637.69205546787
31
0.000334379006082841
  0
LINE
 8
GROUP0
10
1470.80936480729
20
1646.29013107944
30
0.000327659910747613
11
1473.40744101864
21
1644.79013107944
31
0.000332705379888765
  0
LINE
 8
GROUP0
10
1473.40744101863
20
1641.79013107944
30
0.000333962704041468
11
1470.80936480728
21
1640.29013107944
31
0.000330174560316365
  0
LINE
 8
GROUP0
10
1435.22582785019
20
1468.94249923976
30
0.000240544775977902
11
1435.37567848395
21
1469.30427067211
31
0.000240609706236317
  0
LINE
 8
GROUP0
10
1435.37567848395
20
1517.08072780742
30
0.000241402373998856
11
1435.22582785019
21
1517.44249923976
31
0.000241359815109821
  0
LINE
 8
GROUP0
10
1434.31501831217
20
1468.24361050033
30
0.000240196501138534
11
1434.67678974452
21
1468.39346113409
31
0.000240330885276396
  0
LINE
 8
GROUP0
10
1433.53856117686
20
1468.24361050033
30
0.000239918021439678
11
1433.92678974452
21
1468.19249923976
31
0.000240055680968609
  0
LINE
 8
GROUP0
10
1433.17678974452
20
1468.39346113409
30
0.000239792903813196
11
1433.53856117686
21
1468.24361050033
31
0.000239918021439678
  0
LINE
 8
GROUP0
10
1432.86612957274
20
1468.63183906798
30
0.00023968885465262
11
1433.17678974452
21
1468.39346113409
31
0.000239792903813196
  0
LINE
 8
GROUP0
10
1433.92678974452
20
1468.19249923976
30
0.000240055680968609
11
1434.31501831217
21
1468.24361050033
31
0.000240196501138534
  0
LINE
 8
GROUP0
10
1435.22582785019
20
1517.44249923976
30
0.000241359815109821
11
1434.9874499163
21
1517.75315941154
31
0.00024128392519831
  0
LINE
 8
GROUP0
10
1435.42678974452
20
1516.69249923976
30
0.000241408701563728
11
1435.37567848395
21
1517.08072780742
31
0.000241402373998856
  0
LINE
 8
GROUP0
10
1435.42678974452
20
1469.69249923976
30
0.000240640041224882
11
1435.42678974452
21
1516.69249923976
31
0.000241408701563728
  0
LINE
 8
GROUP0
10
1434.9874499163
20
1468.63183906798
30
0.000240449675349286
11
1435.22582785019
21
1468.94249923976
31
0.000240544775977902
  0
LINE
 8
GROUP0
10
1434.9874499163
20
1517.75315941154
30
0.00024128392519831
11
1434.67678974452
21
1517.99153734544
31
0.000241179876037734
  0
LINE
 8
GROUP0
10
1432.62775163884
20
1468.94249923976
30
0.000239612964741109
11
1432.86612957274
21
1468.63183906798
31
0.00023968885465262
  0
LINE
 8
GROUP0
10
1432.47790100508
20
1469.30427067211
30
0.000239570405852074
11
1432.62775163884
21
1468.94249923976
31
0.000239612964741109
  0
LINE
 8
GROUP0
10
1434.67678974452
20
1468.39346113409
30
0.000240330885276396
11
1434.9874499163
21
1468.63183906798
31
0.000240449675349286
  0
LINE
 8
GROUP0
10
1435.37567848395
20
1469.30427067211
30
0.000240609706236317
11
1435.42678974452
21
1469.69249923976
31
0.000240640041224882
  0
LINE
 8
GROUP0
10
1398.5440176813
20
1637.69203781263
30
0.000267031620030522
11
1401.14209389265
21
1639.19203781263
31
0.000270819764116581
  0
LINE
 8
GROUP0
10
1434.67678974452
20
1517.99153734544
30
0.000241179876037734
11
1434.31501831217
21
1518.1413879792
31
0.000241054758411252
  0
LINE
 8
GROUP0
10
1403.740170104
20
1637.69203781263
30
0.000275865232084627
11
1403.740170104
21
1634.69203781263
31
0.000277122556688525
  0
LINE
 8
GROUP0
10
1432.86612957274
20
1517.75315941154
30
0.000240523104501644
11
1432.62775163884
21
1517.44249923976
31
0.000240428003873028
  0
LINE
 8
GROUP0
10
1398.5440176813
20
1634.69203781263
30
0.000268288944183226
11
1398.5440176813
21
1637.69203781263
31
0.000267031620030522
  0
LINE
 8
GROUP0
10
1432.62775163884
20
1517.44249923976
30
0.000240428003873028
11
1432.47790100509
21
1517.08072780742
31
0.000240363073614613
  0
LINE
 8
GROUP0
10
1433.92678974452
20
1518.19249923976
30
0.000240917098882321
11
1433.53856117686
21
1518.1413879792
31
0.000240776278712396
  0
LINE
 8
GROUP0
10
1401.14209389265
20
1639.19203781263
30
0.000270819764116581
11
1403.740170104
21
1637.69203781263
31
0.000275865232084627
  0
LINE
 8
GROUP0
10
1433.17678974452
20
1517.99153734544
30
0.000240641894574534
11
1432.86612957274
21
1517.75315941154
31
0.000240523104501644
  0
LINE
 8
GROUP0
10
1432.42678974452
20
1516.69249923976
30
0.000240332738626048
11
1432.42678974452
21
1469.69249923976
31
0.000239564078287202
  0
LINE
 8
GROUP0
10
1433.53856117686
20
1518.1413879792
30
0.000240776278712396
11
1433.17678974452
21
1517.99153734544
31
0.000240641894574534
  0
LINE
 8
GROUP0
10
1432.47790100509
20
1517.08072780742
30
0.000240363073614613
11
1432.42678974452
21
1516.69249923976
31
0.000240332738626048
  0
LINE
 8
GROUP0
10
1434.31501831217
20
1518.1413879792
30
0.000241054758411252
11
1433.92678974452
21
1518.19249923976
31
0.000240917098882321
  0
LINE
 8
GROUP0
10
1403.740170104
20
1634.69203781263
30
0.000277122556688525
11
1401.14209389265
21
1633.19203781263
31
0.000273334413414616
  0
LINE
 8
GROUP0
10
1432.42678974452
20
1469.69249923976
30
0.000239564078287202
11
1432.47790100508
21
1469.30427067211
31
0.000239570405852074
  0
LINE
 8
GROUP0
10
1401.14209389265
20
1633.19203781263
30
0.000273334413414616
11
1398.5440176813
21
1634.69203781263
31
0.000268288944183226
  0
LINE
 8
GROUP0
10
1375.0536703994
20
1641.7901045966
30
0.000213537143718767
11
1372.45559418805
21
1640.2901045966
31
0.000209748999993664
  0
LINE
 8
GROUP0
10
1379.15172816513
20
1637.69203781265
30
0.000254095299291279
11
1379.15172816513
21
1634.69203781265
31
0.000255352624075655
  0
LINE
 8
GROUP0
10
1378.05365091502
20
1641.79011342421
30
0.000244845384834846
11
1378.05365091502
21
1644.79011342421
31
0.000243588059824873
  0
LINE
 8
GROUP0
10
1372.45559418806
20
1646.2901045966
30
0.000207234350650509
11
1375.05367039941
21
1644.7901045966
31
0.000212279819520944
  0
LINE
 8
GROUP0
10
1379.15172816513
20
1634.69203781265
30
0.000255352624075655
11
1376.55365195378
21
1633.19203781265
31
0.000251564479809119
  0
LINE
 8
GROUP0
10
1383.24980333772
20
1644.79011342421
30
0.000252421672961844
11
1383.24980333772
21
1641.79011342421
31
0.000253678997159668
  0
LINE
 8
GROUP0
10
1380.65172712637
20
1646.29011342421
30
0.00024737620409141
11
1383.24980333772
21
1644.79011342421
31
0.000252421672961844
  0
LINE
 8
GROUP0
10
1378.05365091502
20
1644.79011342421
30
0.000243588059824873
11
1380.65172712637
21
1646.29011342421
31
0.00024737620409141
  0
LINE
 8
GROUP0
10
1372.45559418805
20
1640.2901045966
30
0.000209748999993664
11
1369.85751797671
21
1641.7901045966
31
0.000204703531393946
  0
LINE
 8
GROUP0
10
1369.85751797671
20
1644.7901045966
30
0.000203446206383973
11
1372.45559418806
21
1646.2901045966
31
0.000207234350650509
  0
LINE
 8
GROUP0
10
1373.95557574243
20
1637.69203781265
30
0.000245261687056697
11
1376.55365195378
21
1639.19203781265
31
0.0002490498307818
  0
LINE
 8
GROUP0
10
1375.05367039941
20
1644.7901045966
30
0.000212279819520944
11
1375.0536703994
21
1641.7901045966
31
0.000213537143718767
  0
LINE
 8
GROUP0
10
1380.65172712637
20
1640.29011342422
30
0.000249890853434565
11
1378.05365091502
21
1641.79011342421
31
0.000244845384834846
  0
LINE
 8
GROUP0
10
1369.85751797671
20
1641.7901045966
30
0.000204703531393946
11
1369.85751797671
21
1644.7901045966
31
0.000203446206383973
  0
LINE
 8
GROUP0
10
1383.24980333772
20
1641.79011342421
30
0.000253678997159668
11
1380.65172712637
21
1640.29011342422
31
0.000249890853434565
  0
LINE
 8
GROUP0
10
1376.55365195378
20
1639.19203781265
30
0.0002490498307818
11
1379.15172816513
21
1637.69203781265
31
0.000254095299291279
  0
LINE
 8
GROUP0
10
1366.85751797669
20
1630.59395217391
30
0.0001769557455777
11
1366.85751797669
21
1627.59395217391
31
0.000178949250270577
  0
LINE
 8
GROUP0
10
1337.0729082859
20
1630.59395217393
30
0.000203761275554015
11
1339.67098449726
21
1632.09395217393
31
0.000204072568991975
  0
LINE
 8
GROUP0
10
1373.95557574243
20
1634.69203781265
30
0.000246519011841073
11
1373.95557574243
21
1637.69203781265
31
0.000245261687056697
  0
LINE
 8
GROUP0
10
1361.66136555398
20
1627.59395217391
30
0.000176333157799391
11
1361.66136555398
21
1630.59395217391
31
0.000174339652926037
  0
LINE
 8
GROUP0
10
1356.06328934266
20
1646.2901045966
30
0.000207234350650509
11
1358.66136555401
21
1644.7901045966
31
0.000212279819520944
  0
LINE
 8
GROUP0
10
1358.66136555401
20
1644.7901045966
30
0.000212279819520944
11
1358.66136555401
21
1641.7901045966
31
0.000213537143673648
  0
LINE
 8
GROUP0
10
1356.06328934266
20
1640.2901045966
30
0.000209748999948545
11
1353.46521313131
21
1641.7901045966
31
0.000204703531348827
  0
LINE
 8
GROUP0
10
1364.25944176533
20
1632.09395217391
30
0.00017465094690543
11
1366.85751797669
21
1630.59395217391
31
0.0001769557455777
  0
LINE
 8
GROUP0
10
1361.66136555398
20
1630.59395217391
30
0.000174339652926037
11
1364.25944176533
21
1632.09395217391
31
0.00017465094690543
  0
LINE
 8
GROUP0
10
1366.85751797669
20
1627.59395217391
30
0.000178949250270577
11
1364.25944176533
21
1626.09395217391
31
0.000178637955569272
  0
LINE
 8
GROUP0
10
1353.46521313131
20
1644.7901045966
30
0.000203446206383973
11
1356.06328934266
21
1646.2901045966
31
0.000207234350650509
  0
LINE
 8
GROUP0
10
1364.25944176533
20
1626.09395217391
30
0.000178637955569272
11
1361.66136555398
21
1627.59395217391
31
0.000176333157799391
  0
LINE
 8
GROUP0
10
1358.66136555401
20
1641.7901045966
30
0.000213537143673648
11
1356.06328934266
21
1640.2901045966
31
0.000209748999948545
  0
LINE
 8
GROUP0
10
1376.55365195378
20
1633.19203781265
30
0.000251564479809119
11
1373.95557574243
21
1634.69203781265
31
0.000246519011841073
  0
LINE
 8
GROUP0
10
1353.46521313131
20
1641.7901045966
30
0.000204703531348827
11
1353.46521313131
21
1644.7901045966
31
0.000203446206383973
 0
ENDSEC
 0
EOF
