 0
SECTION
 2
ENTITIES
  0
LINE
 8
GROUP0
10
1459.49134116221
20
1620.16478260496
30
0.000270953984504629
11
1457.5048682898
21
1617.57596075516
31
0.000270099658265188
  0
LINE
 8
GROUP0
10
1309.58007956837
20
1376.70091486634
30
0.000267748002623769
11
1309.58006349099
21
1594.20094286735
31
0.000190686232451753
  0
LINE
 8
GROUP0
10
1597.08010399027
20
1376.7009116887
30
0.000342182750642106
11
1627.08010399025
21
1376.70091135712
31
0.000332607466772217
  0
LINE
 8
GROUP0
10
1359.58006224477
20
1644.20094361605
30
0.000311824812332073
11
1577.08010811389
21
1644.20094719772
31
0.00037199004013182
  0
LINE
 8
GROUP0
10
1471.56535375636
20
1599.25197934067
30
0.000275896345564419
11
1474.5801006527
21
1600.50072839225
31
0.000277174596214635
  0
LINE
 8
GROUP0
10
1456.25611923821
20
1614.56121385882
30
0.000269553129731737
11
1457.5048682898
21
1617.57596075516
31
0.000270099658265188
  0
LINE
 8
GROUP0
10
1339.58006349104
20
1594.20091907465
30
0.0
11
1359.58006263841
21
1614.20094361606
31
0.000287099140242741
  0
LINE
 8
GROUP0
10
1577.08010279335
20
1326.70092302544
30
0.000236810707050239
11
1577.08010329791
21
1356.70091190975
31
0.000352003122852373
  0
LINE
 8
GROUP0
10
1456.25611923821
20
1614.56121385882
30
0.000269553129731737
11
1455.83019419166
21
1611.32599193482
31
0.000269351643927429
  0
LINE
 8
GROUP0
10
1459.49134116221
20
1620.16478260496
30
0.000270953984504629
11
1462.08016301201
21
1622.15125547737
31
0.00027205788752358
  0
LINE
 8
GROUP0
10
1309.58007956837
20
1376.70091486634
30
0.000267748002623769
11
1339.58007968321
21
1376.70091486637
31
0.000220797540599094
  0
LINE
 8
GROUP0
10
1597.08010764849
20
1594.20094673235
30
0.000323515193303781
11
1577.0801076485
21
1614.20094719772
31
0.000359701926036227
  0
LINE
 8
GROUP0
10
1577.08010811389
20
1644.20094719772
30
0.00037199004013182
11
1577.0801076485
21
1614.20094719772
31
0.000359701926036227
  0
LINE
 8
GROUP0
10
1468.33013183235
20
1598.82605429412
30
0.000274530857965161
11
1471.56535375636
21
1599.25197934067
31
0.000275896345564419
  0
LINE
 8
GROUP0
10
1474.5801006527
20
1600.50072839225
30
0.000277174596214635
11
1477.1689225025
21
1602.48720126467
31
0.000278278499233586
  0
LINE
 8
GROUP0
10
1577.08010329791
20
1356.70091190975
30
0.000352003122852373
11
1597.08010399027
21
1376.7009116887
31
0.000342182750642106
  0
LINE
 8
GROUP0
10
1577.08010279335
20
1326.70092302544
30
0.000236810707050239
11
1359.58008104676
21
1326.70092542943
31
0.000213228624597672
  0
LINE
 8
GROUP0
10
1309.58006349099
20
1594.20094286735
30
0.000190686232451753
11
1339.58006349104
21
1594.20091907465
31
0.0
  0
LINE
 8
GROUP0
10
1627.08010764848
20
1594.20094626697
30
0.000297640181598346
11
1597.08010764849
21
1594.20094673235
31
0.000323515193303781
  0
LINE
 8
GROUP0
10
1462.08016301201
20
1600.50072839225
30
0.000271909998272957
11
1465.09490990835
21
1599.25197934067
31
0.000273171189141141
  0
LINE
 8
GROUP0
10
1359.58008104675
20
1356.70091431374
30
0.000272266707406477
11
1359.58008104676
21
1326.70092542943
31
0.000213228624597672
  0
LINE
 8
GROUP0
10
1456.25611923821
20
1608.09077001081
30
0.000269508931765383
11
1457.5048682898
21
1605.07602311447
31
0.000270014274361241
  0
LINE
 8
GROUP0
10
1462.08016301201
20
1600.50072839225
30
0.000271909998272957
11
1459.49134116221
21
1602.48720126467
31
0.000270833233427048
  0
LINE
 8
GROUP0
10
1627.08010764848
20
1594.20094626697
30
0.000297640181598346
11
1627.08010399025
21
1376.70091135712
31
0.000332607466772217
  0
LINE
 8
GROUP0
10
1359.58006224477
20
1644.20094361605
30
0.000311824812332073
11
1359.58006263841
21
1614.20094361606
31
0.000287099140242741
  0
LINE
 8
GROUP0
10
1465.09490990835
20
1599.25197934067
30
0.000273171189141141
11
1468.33013183235
21
1598.82605429412
31
0.000274530857965161
  0
LINE
 8
GROUP0
10
1339.58007968321
20
1376.70091486637
30
0.000220797540599094
11
1359.58008104675
21
1356.70091431374
31
0.000272266707406477
  0
LINE
 8
GROUP0
10
1484.24413695123
20
1628.37163434111
30
0.000281435176854306
11
1483.83002620838
21
1628.4261509588
31
0.000281261138246247
  0
LINE
 8
GROUP0
10
1484.24415233673
20
1625.28067168632
30
0.00028141406975486
11
1484.63004106578
21
1625.4405142898
31
0.000281577686330792
  0
LINE
 8
GROUP0
10
1474.5801006527
20
1622.15125547737
30
0.000277322485476539
11
1477.1689225025
21
1620.16478260495
31
0.000278399250311168
  0
LINE
 8
GROUP0
10
1484.96139938822
20
1627.95752743783
30
0.000281734437574244
11
1484.63002727377
21
1628.2117955851
31
0.000281596610437784
  0
LINE
 8
GROUP0
10
1457.5048682898
20
1605.07602311447
30
0.000270014274361241
11
1459.49134116221
21
1602.48720126467
31
0.000270833233427048
  0
LINE
 8
GROUP0
10
1482.28455075561
20
1627.24025369011
30
0.000280602129890184
11
1482.2300341463
21
1626.82614294599
31
0.000280576340450711
  0
LINE
 8
GROUP0
10
1483.41593139313
20
1625.28066754915
30
0.000281065247966072
11
1483.83004213726
21
1625.22615093985
31
0.000281239286574131
  0
LINE
 8
GROUP0
10
1480.4041444265
20
1608.09077001081
30
0.000279679354006479
11
1479.15539537491
21
1605.07602311447
31
0.000279132825473027
  0
LINE
 8
GROUP0
10
1455.83019419166
20
1611.32599193482
30
0.000269351643927429
11
1456.25611923821
21
1608.09077001081
31
0.000269508931765383
  0
LINE
 8
GROUP0
10
1471.56535375636
20
1623.40000452896
30
0.000276061294597074
11
1474.5801006527
21
1622.15125547737
31
0.000277322485476539
  0
LINE
 8
GROUP0
10
1485.2156708326
20
1627.62615785335
30
0.000281839265553163
11
1484.96139938822
21
1627.95752743783
31
0.000281734437574244
  0
LINE
 8
GROUP0
10
1482.44439749625
20
1626.0261440175
30
0.000280661159255935
11
1482.69866894746
21
1625.69477443804
31
0.000280765987246134
  0
LINE
 8
GROUP0
10
1483.83002620838
20
1628.4261509588
30
0.000281261138246247
11
1483.41591600797
21
1628.37163022075
31
0.000281086355065518
  0
LINE
 8
GROUP0
10
1482.2300341463
20
1626.82614294599
30
0.000280576340450711
11
1482.28455489277
21
1626.41203274654
31
0.000280596474266925
  0
LINE
 8
GROUP0
10
1484.96141064524
20
1625.69478574101
30
0.000281718986098056
11
1485.21567879252
21
1626.02615785545
31
0.000281828339717105
  0
LINE
 8
GROUP0
10
1483.83004213726
20
1625.22615093985
30
0.000281239286574131
11
1484.24415233673
21
1625.28067168632
31
0.00028141406975486
  0
LINE
 8
GROUP0
10
1482.69866894746
20
1625.69477443804
30
0.000280765987246134
11
1483.0300410672
21
1625.4405062974
31
0.000280903814382594
  0
LINE
 8
GROUP0
10
1462.08016301201
20
1622.15125547737
30
0.00027205788752358
11
1465.09490990835
21
1623.40000452896
31
0.000273336138173796
  0
LINE
 8
GROUP0
10
1479.15539537491
20
1605.07602311447
30
0.000279132825473027
11
1477.1689225025
21
1602.48720126467
31
0.000278278499233586
  0
LINE
 8
GROUP0
10
1480.4041444265
20
1614.56121385882
30
0.000279723551972832
11
1480.83006947304
21
1611.32599193481
31
0.000279880839810787
  0
LINE
 8
GROUP0
10
1484.63004106578
20
1625.4405142898
30
0.000281577686330792
11
1484.96141064524
21
1625.69478574101
31
0.000281718986098056
  0
LINE
 8
GROUP0
10
1484.63002727377
20
1628.2117955851
30
0.000281596610437784
11
1484.24413695123
21
1628.37163434111
31
0.000281435176854306
  0
LINE
 8
GROUP0
10
1483.03002727584
20
1628.21178762516
30
0.000280922738489586
11
1482.69865764451
21
1627.95751613577
31
0.000280781438699762
  0
LINE
 8
GROUP0
10
1480.83006947304
20
1611.32599193481
30
0.000279880839810787
11
1480.4041444265
21
1608.09077001081
31
0.000279679354006479
  0
LINE
 8
GROUP0
10
1480.4041444265
20
1614.56121385882
30
0.000279723551972832
11
1479.15539537491
21
1617.57596075516
31
0.000279218209376975
  0
LINE
 8
GROUP0
10
1483.41591600797
20
1628.37163022075
30
0.000281086355065518
11
1483.03002727584
21
1628.21178762516
31
0.000280922738489586
  0
LINE
 8
GROUP0
10
1482.69865764451
20
1627.95751613577
30
0.000280781438699762
11
1482.44438950386
21
1627.62614401604
31
0.000280672085080713
  0
LINE
 8
GROUP0
10
1485.37551342818
20
1627.24026912122
30
0.000281903950542173
11
1485.2156708326
21
1627.62615785335
31
0.000281839265553163
  0
LINE
 8
GROUP0
10
1482.28455489277
20
1626.41203274654
30
0.000280596474266925
11
1482.44439749625
21
1626.0261440175
31
0.000280661159255935
  0
LINE
 8
GROUP0
10
1468.33013183236
20
1623.8259295755
30
0.000274701625773055
11
1465.09490990835
21
1623.40000452896
31
0.000273336138173796
  0
LINE
 8
GROUP0
10
1468.33013183236
20
1623.8259295755
30
0.000274701625773055
11
1471.56535375636
21
1623.40000452896
31
0.000276061294597074
  0
LINE
 8
GROUP0
10
1477.1689225025
20
1620.16478260495
30
0.000278399250311168
11
1479.15539537491
21
1617.57596075516
31
0.000279218209376975
  0
LINE
 8
GROUP0
10
1485.21567879252
20
1626.02615785545
30
0.000281828339717105
11
1485.37551754854
21
1626.41204817798
31
0.000281898294918914
  0
LINE
 8
GROUP0
10
1451.69862404296
20
1625.69463134381
30
0.000267709699323593
11
1452.02999615783
21
1625.44036319621
31
0.000267847526448772
  0
LINE
 8
GROUP0
10
1451.22999489285
20
1626.8260021937
30
0.000267520054919501
11
1451.28451357079
21
1626.41189172153
31
0.000267540187867166
  0
LINE
 8
GROUP0
10
1451.4443542468
20
1627.6260021937
30
0.000267615801230203
11
1451.28451357079
21
1627.24011266586
31
0.000267545845227524
  0
LINE
 8
GROUP0
10
1453.96136574273
20
1627.95737304364
30
0.000268678154310287
11
1453.62999489283
21
1628.21164283979
31
0.000268540327726541
  0
LINE
 8
GROUP0
10
1454.21562593038
20
1627.62601471573
30
0.000268782977630622
11
1453.96136574273
21
1627.95737304364
31
0.000268678154310287
  0
LINE
 8
GROUP0
10
1485.43003416623
20
1626.82615892083
30
0.000281924084358387
11
1485.37551342818
21
1627.24026912122
31
0.000281903950542173
  0
LINE
 8
GROUP0
10
1454.37546852616
20
1627.2401259831
30
0.000268847662619631
11
1454.21562593038
21
1627.62601471573
31
0.000268782977630622
  0
LINE
 8
GROUP0
10
1482.44438950386
20
1627.62614401604
30
0.000280672085080713
11
1482.28455075561
21
1627.24025369011
31
0.000280602129890184
  0
LINE
 8
GROUP0
10
1454.42998926428
20
1626.82601578217
30
0.000268867796435845
11
1454.37546852616
21
1627.2401259831
31
0.000268847662619631
  0
LINE
 8
GROUP0
10
1482.28471558149
20
1595.41199822707
30
0.000280384788564891
11
1482.4445562575
21
1595.02610869923
31
0.000280449472741751
  0
LINE
 8
GROUP0
10
1482.4445562575
20
1595.02610869923
30
0.000280449472741751
11
1482.69882605366
21
1594.69473784933
31
0.000280554300021318
  0
LINE
 8
GROUP0
10
1453.24410742516
20
1625.28052856037
30
0.000268357781832318
11
1453.62999615779
21
1625.44037115616
31
0.00026852139840825
  0
LINE
 8
GROUP0
10
1453.244105365
20
1628.37148351579
30
0.000268378894492738
11
1452.82999489284
21
1628.42600219372
31
0.000268204856008758
  0
LINE
 8
GROUP0
10
1483.0300410672
20
1625.4405062974
30
0.000280903814382594
11
1483.41593139313
21
1625.28066754915
31
0.000281065247966072
  0
LINE
 8
GROUP0
10
1452.41588442068
20
1628.37148351578
30
0.000268030072726511
11
1452.02999489284
21
1628.21164283977
31
0.000267866455823462
  0
LINE
 8
GROUP0
10
1454.2156338903
20
1626.02601471575
30
0.000268772051794564
11
1454.37547264652
21
1626.41190503879
31
0.000268842006996373
  0
LINE
 8
GROUP0
10
1451.4443542468
20
1626.0260021937
30
0.000267604872032745
11
1451.69862404296
21
1625.69463134381
31
0.000267709699323593
  0
LINE
 8
GROUP0
10
1452.82999722424
20
1625.22600782224
30
0.000268182998640309
11
1453.24410742516
21
1625.28052856037
31
0.000268357781832318
  0
LINE
 8
GROUP0
10
1482.23019690355
20
1595.82610869923
30
0.000280364655628507
11
1482.28471558149
21
1595.41199822707
31
0.000280384788564891
  0
LINE
 8
GROUP0
10
1453.62999489283
20
1628.21164283979
30
0.000268540327726541
11
1453.244105365
21
1628.37148351579
31
0.000268378894492738
  0
LINE
 8
GROUP0
10
1453.62999615779
20
1625.44037115616
30
0.00026852139840825
11
1453.96136574271
21
1625.69464260088
31
0.000268662698175515
  0
LINE
 8
GROUP0
10
1485.37551754854
20
1626.41204817798
30
0.000281898294918914
11
1485.43003416623
21
1626.82615892083
31
0.000281924084358387
  0
LINE
 8
GROUP0
10
1482.28471558149
20
1596.24021917139
30
0.000280390445936529
11
1482.23019690355
21
1595.82610869923
31
0.000280364655628507
  0
LINE
 8
GROUP0
10
1454.37547264652
20
1626.41190503879
30
0.000268842006996373
11
1454.42998926428
21
1626.82601578217
31
0.000268867796435845
  0
LINE
 8
GROUP0
10
1452.02999615783
20
1625.44036319621
30
0.000267847526448772
11
1452.41588648085
21
1625.28052443999
31
0.000268008960032251
  0
LINE
 8
GROUP0
10
1452.41588648085
20
1625.28052443999
30
0.000268008960032251
11
1452.82999722424
21
1625.22600782224
31
0.000268182998640309
  0
LINE
 8
GROUP0
10
1451.69862404295
20
1627.9573730436
30
0.000267725155537324
11
1451.4443542468
21
1627.6260021937
31
0.000267615801230203
  0
LINE
 8
GROUP0
10
1452.82999489284
20
1628.42600219372
30
0.000268204856008758
11
1452.41588442068
21
1628.37148351578
31
0.000268030072726511
  0
LINE
 8
GROUP0
10
1451.28451357079
20
1626.41189172153
30
0.000267540187867166
11
1451.4443542468
21
1626.0260021937
31
0.000267604872032745
  0
LINE
 8
GROUP0
10
1451.28451357079
20
1627.24011266586
30
0.000267545845227524
11
1451.22999489285
21
1626.8260021937
31
0.000267520054919501
  0
LINE
 8
GROUP0
10
1452.02999489284
20
1628.21164283977
30
0.000267866455823462
11
1451.69862404295
21
1627.9573730436
31
0.000267725155537324
  0
LINE
 8
GROUP0
10
1482.4445562575
20
1596.62610869922
30
0.000280460401939209
11
1482.28471558149
21
1596.24021917139
31
0.000280390445936529
  0
LINE
 8
GROUP0
10
1453.96136574271
20
1625.69464260088
30
0.000268662698175515
11
1454.2156338903
21
1626.02601471575
31
0.000268772051794564
  0
LINE
 8
GROUP0
10
1485.37567822563
20
1596.2402191713
30
0.000281692266475719
11
1485.21583754962
21
1596.62610869913
31
0.00028162758229886
  0
LINE
 8
GROUP0
10
1485.37567822563
20
1595.411998227
30
0.000281686609104081
11
1485.43019690357
21
1595.82610869915
31
0.000281712399412104
  0
LINE
 8
GROUP0
10
1484.6301969036
20
1597.21174934522
30
0.000281384928435546
11
1484.24430737576
21
1597.37159002123
31
0.000281223495190463
  0
LINE
 8
GROUP0
10
1485.21583754962
20
1596.62610869913
30
0.00028162758229886
11
1484.9615677535
21
1596.95747954906
31
0.000281522755019292
  0
LINE
 8
GROUP0
10
1483.41608643141
20
1597.37159002125
30
0.000280874673435516
11
1483.03019690357
21
1597.21174934525
31
0.000280711056532468
  0
LINE
 8
GROUP0
10
1451.44450552751
20
1595.02594335901
30
0.00026739318221356
11
1451.69877697213
21
1594.69457377421
31
0.00026749801019248
  0
LINE
 8
GROUP0
10
1451.28465881143
20
1596.24005303553
30
0.000267334152859089
11
1451.23014219369
21
1595.8259422923
31
0.000267308363408336
  0
LINE
 8
GROUP0
10
1451.23014219369
20
1595.8259422923
30
0.000267308363408336
11
1451.28466293179
21
1595.41183209151
31
0.00026732849722455
  0
LINE
 8
GROUP0
10
1483.83019690358
20
1597.42610869918
30
0.000281049456717764
11
1483.41608643141
21
1597.37159002125
31
0.000280874673435516
  0
LINE
 8
GROUP0
10
1453.63014908627
20
1594.44031358657
30
0.000268309709277137
11
1453.96151867106
21
1594.69458503118
31
0.000268451009055681
  0
LINE
 8
GROUP0
10
1483.4160864314
20
1594.28062737716
30
0.000280853559850147
11
1483.83019690356
21
1594.22610869922
31
0.000281027598322847
  0
LINE
 8
GROUP0
10
1451.44449756759
20
1596.62594335842
30
0.000267404108049618
11
1451.28465881143
21
1596.24005303553
31
0.000267334152859089
  0
LINE
 8
GROUP0
10
1451.28466293179
20
1595.41183209151
30
0.00026732849722455
11
1451.44450552751
21
1595.02594335901
31
0.00026739318221356
  0
LINE
 8
GROUP0
10
1453.96151867106
20
1594.69458503118
30
0.000268451009055681
11
1454.21578681866
21
1595.02595714605
31
0.00026856036267473
  0
LINE
 8
GROUP0
10
1451.69877697213
20
1594.69457377421
30
0.00026749801019248
11
1452.03014908688
21
1594.44030562669
31
0.000267635837328939
  0
LINE
 8
GROUP0
10
1484.24430737576
20
1597.37159002123
30
0.000281223495190463
11
1483.83019690358
21
1597.42610869918
31
0.000281049456717764
  0
LINE
 8
GROUP0
10
1482.69882605366
20
1594.69473784933
30
0.000280554300021318
11
1483.03019690356
21
1594.44046805317
31
0.000280692126605064
  0
LINE
 8
GROUP0
10
1452.41603940977
20
1594.28046687051
30
0.000267797270912418
11
1452.830150153
21
1594.22595025277
31
0.000267971309520476
  0
LINE
 8
GROUP0
10
1452.830150153
20
1594.22595025277
30
0.000267971309520476
11
1453.24426035378
21
1594.28047099085
31
0.000268146092701205
  0
LINE
 8
GROUP0
10
1482.69882605366
20
1596.95747954911
30
0.00028056975623505
11
1482.4445562575
21
1596.62610869922
31
0.000280460401939209
  0
LINE
 8
GROUP0
10
1483.03019690356
20
1594.44046805317
30
0.000280692126605064
11
1483.4160864314
21
1594.28062737716
31
0.000280853559850147
  0
LINE
 8
GROUP0
10
1451.6987657151
20
1596.95731547317
30
0.000267513461668667
11
1451.44449756759
21
1596.62594335842
31
0.000267404108049618
  0
LINE
 8
GROUP0
10
1485.43019690357
20
1595.82610869915
30
0.000281712399412104
11
1485.37567822563
21
1596.2402191713
31
0.000281692266475719
  0
LINE
 8
GROUP0
10
1484.96156775347
20
1594.69473784929
30
0.000281507298805561
11
1485.21583754962
21
1595.02610869917
31
0.000281616653101402
  0
LINE
 8
GROUP0
10
1485.21583754962
20
1595.02610869917
30
0.000281616653101402
11
1485.37567822563
21
1595.411998227
31
0.000281686609104081
  0
LINE
 8
GROUP0
10
1484.24430737573
20
1594.28062737715
30
0.000281202381605095
11
1484.63019690357
21
1594.44046805314
31
0.000281365998508143
  0
LINE
 8
GROUP0
10
1452.03014908688
20
1594.44030562669
30
0.000267635837328939
11
1452.41603940977
21
1594.28046687051
31
0.000267797270912418
  0
LINE
 8
GROUP0
10
1483.03019690357
20
1597.21174934525
30
0.000280711056532468
11
1482.69882605366
21
1596.95747954911
31
0.00028056975623505
  0
LINE
 8
GROUP0
10
1484.63019690357
20
1594.44046805314
30
0.000281365998508143
11
1484.96156775347
21
1594.69473784929
31
0.000281507298805561
  0
LINE
 8
GROUP0
10
1484.9615677535
20
1596.95747954906
30
0.000281522755019292
11
1484.6301969036
21
1597.21174934522
31
0.000281384928435546
  0
LINE
 8
GROUP0
10
1483.83019690356
20
1594.22610869922
30
0.000281027598322847
11
1484.24430737573
21
1594.28062737715
31
0.000281202381605095
  0
LINE
 8
GROUP0
10
1466.88119441599
20
1433.380162721
30
0.000238952021944439
11
1467.03104504974
21
1433.01839128865
31
0.000238994580833474
  0
LINE
 8
GROUP0
10
1466.88119441599
20
1511.15661985631
30
0.000240947303791472
11
1466.83008315542
21
1510.76839128865
31
0.000240916968802907
  0
LINE
 8
GROUP0
10
1467.26942298364
20
1432.70773111687
30
0.000239070470744984
11
1467.58008315542
21
1432.46935318297
31
0.000239174519905561
  0
LINE
 8
GROUP0
10
1467.26942298364
20
1511.82905146043
30
0.000241107334678503
11
1467.03104504974
21
1511.51839128865
31
0.000241012234049887
  0
LINE
 8
GROUP0
10
1467.58008315542
20
1432.46935318297
30
0.000239174519905561
11
1467.94185458776
21
1432.31950254922
31
0.000239299637532042
  0
LINE
 8
GROUP0
10
1452.83013423275
20
1597.42595025256
30
0.000267993161203872
11
1452.41602403183
21
1597.37142951445
31
0.000267818378023144
  0
LINE
 8
GROUP0
10
1468.33008315542
20
1512.26839128865
30
0.000241501329059179
11
1467.94185458777
21
1512.21728002808
31
0.000241360508889255
  0
LINE
 8
GROUP0
10
1467.03104504974
20
1433.01839128865
30
0.000238994580833474
11
1467.26942298364
21
1432.70773111687
31
0.000239070470744984
  0
LINE
 8
GROUP0
10
1469.3907433272
20
1432.70773111687
30
0.00023983129144165
11
1469.6291212611
21
1433.01839128865
31
0.000239926392070267
  0
LINE
 8
GROUP0
10
1469.08008315542
20
1432.46935318297
30
0.000239712501368761
11
1469.3907433272
21
1432.70773111687
31
0.00023983129144165
  0
LINE
 8
GROUP0
10
1564.33010254706
20
1602.4507908809
30
0.000181245332110613
11
1564.33010254706
21
1598.4507908809
31
0.000181245332110613
  0
LINE
 8
GROUP0
10
1564.33010254706
20
1598.4507908809
30
0.000181245332110613
11
1527.33008448646
21
1598.4507908809
31
0.000181245332110613
  0
LINE
 8
GROUP0
10
1453.96150741403
20
1596.95732673095
30
0.000268466460520589
11
1453.63013529916
21
1597.21159487856
31
0.000268328633395409
  0
LINE
 8
GROUP0
10
1454.43014219264
20
1595.82595821246
30
0.000268656107316012
11
1454.37562145452
21
1596.24006841339
31
0.000268635973499798
  0
LINE
 8
GROUP0
10
1454.21578681866
20
1595.02595714605
30
0.00026856036267473
11
1454.37562557488
21
1595.41184746908
31
0.000268630317865259
  0
LINE
 8
GROUP0
10
1468.71831172307
20
1432.31950254922
30
0.000239578117230899
11
1469.08008315542
21
1432.46935318297
31
0.000239712501368761
  0
LINE
 8
GROUP0
10
1452.0301352992
20
1597.21158691867
30
0.000267654761447211
11
1451.6987657151
21
1596.95731547317
31
0.000267513461668667
  0
LINE
 8
GROUP0
10
1454.37562145452
20
1596.24006841339
30
0.000268635973499798
11
1454.21577885873
21
1596.62595714603
31
0.000268571288510788
  0
LINE
 8
GROUP0
10
1453.63013529916
20
1597.21159487856
30
0.000268328633395409
11
1453.24424497613
21
1597.37143363479
31
0.000268167199811931
  0
LINE
 8
GROUP0
10
1452.41602403183
20
1597.37142951445
30
0.000267818378023144
11
1452.0301352992
21
1597.21158691867
31
0.000267654761447211
  0
LINE
 8
GROUP0
10
1467.03104504974
20
1511.51839128865
30
0.000241012234049887
11
1466.88119441599
21
1511.15661985631
31
0.000240947303791472
  0
LINE
 8
GROUP0
10
1453.24426035378
20
1594.28047099085
30
0.000268146092701205
11
1453.63014908627
21
1594.44031358657
31
0.000268309709277137
  0
LINE
 8
GROUP0
10
1468.33008315542
20
1432.26839128865
30
0.000239437297060974
11
1468.71831172307
21
1432.31950254922
31
0.000239578117230899
  0
LINE
 8
GROUP0
10
1454.21577885873
20
1596.62595714603
30
0.000268571288510788
11
1453.96150741403
21
1596.95732673095
31
0.000268466460520589
  0
LINE
 8
GROUP0
10
1453.24424497613
20
1597.37143363479
30
0.000268167199811931
11
1452.83013423275
21
1597.42595025256
31
0.000267993161203872
  0
LINE
 8
GROUP0
10
1467.94185458776
20
1432.31950254922
30
0.000239299637532042
11
1468.33008315542
21
1432.26839128865
31
0.000239437297060974
  0
LINE
 8
GROUP0
10
1467.94185458777
20
1512.21728002808
30
0.000241360508889255
11
1467.58008315542
21
1512.06742939433
31
0.000241226124751392
  0
LINE
 8
GROUP0
10
1454.37562557488
20
1595.41184746908
30
0.000268630317865259
11
1454.43014219264
21
1595.82595821246
31
0.000268656107316012
  0
LINE
 8
GROUP0
10
1466.83008315542
20
1433.76839128865
30
0.000238945694379566
11
1466.88119441599
21
1433.380162721
31
0.000238952021944439
  0
LINE
 8
GROUP0
10
1467.58008315542
20
1512.06742939433
30
0.000241226124751392
11
1467.26942298364
21
1511.82905146043
31
0.000241107334678503
  0
LINE
 8
GROUP0
10
1466.83008315542
20
1510.76839128865
30
0.000240916968802907
11
1466.83008315542
21
1433.76839128865
31
0.000238945694379566
  0
LINE
 8
GROUP0
10
1548.79147705865
20
1629.04858457734
30
0.000372847233329665
11
1548.79147705865
21
1626.04858457734
31
0.000374104557482369
  0
LINE
 8
GROUP0
10
1537.9972484246
20
1624.54858457734
30
0.000370316413757266
11
1535.39917221325
21
1626.04858457734
31
0.000365270945157548
  0
LINE
 8
GROUP0
10
1469.08008315542
20
1512.06742939433
30
0.000241764106214593
11
1468.71831172307
21
1512.21728002809
31
0.000241638988588111
  0
LINE
 8
GROUP0
10
1469.3907433272
20
1511.82905146043
30
0.000241868155375169
11
1469.08008315542
21
1512.06742939433
31
0.000241764106214593
  0
LINE
 8
GROUP0
10
1527.33008448646
20
1598.4507908809
30
0.000181245332110613
11
1527.33008448646
21
1602.4507908809
31
0.000181245332110613
  0
LINE
 8
GROUP0
10
1543.59532463595
20
1626.04858457734
30
0.000365270945157548
11
1543.59532463595
21
1629.04858457734
31
0.000364013620192694
  0
LINE
 8
GROUP0
10
1546.1934008473
20
1630.54858457734
30
0.000367801764188513
11
1548.79147705865
21
1629.04858457734
31
0.000372847233329665
  0
LINE
 8
GROUP0
10
1535.39917221325
20
1629.04858457734
30
0.000364013620192694
11
1537.9972484246
21
1630.54858457734
31
0.00036780176445923
  0
LINE
 8
GROUP0
10
1468.71831172307
20
1512.21728002809
30
0.000241638988588111
11
1468.33008315542
21
1512.26839128865
31
0.000241501329059179
  0
LINE
 8
GROUP0
10
1537.9972484246
20
1630.54858457734
30
0.00036780176445923
11
1540.59532463595
21
1629.04858457734
31
0.000372847233329665
  0
LINE
 8
GROUP0
10
1543.59532463595
20
1629.04858457734
30
0.000364013620192694
11
1546.1934008473
21
1630.54858457734
31
0.000367801764188513
  0
LINE
 8
GROUP0
10
1369.97620273557
20
1617.45047365533
30
0.000211422626368218
11
1367.37812652422
21
1618.95047365533
31
0.000206377158400173
  0
LINE
 8
GROUP0
10
1376.67235411951
20
1626.04854926689
30
0.000213537143673648
11
1374.07427790816
21
1624.54854926689
31
0.000209748999948545
  0
LINE
 8
GROUP0
10
1546.1934008473
20
1624.54858457734
30
0.000370316413757266
11
1543.59532463595
21
1626.04858457734
31
0.000365270945157548
  0
LINE
 8
GROUP0
10
1540.59532463595
20
1626.04858457734
30
0.000374104557482369
11
1537.9972484246
21
1624.54858457734
31
0.000370316413757266
  0
LINE
 8
GROUP0
10
1535.39917221325
20
1626.04858457734
30
0.000365270945157548
11
1535.39917221325
21
1629.04858457734
31
0.000364013620192694
  0
LINE
 8
GROUP0
10
1409.33010162313
20
1598.4507908809
30
0.000181245332110613
11
1372.3301368204
21
1598.4507908809
31
0.000181245332110613
  0
LINE
 8
GROUP0
10
1469.83008315542
20
1510.76839128865
30
0.000241992931740587
11
1469.77897189485
21
1511.15661985631
31
0.000241986604175715
  0
LINE
 8
GROUP0
10
1527.33008448646
20
1602.4507908809
30
0.000181245332110613
11
1564.33010254706
21
1602.4507908809
31
0.000181245332110613
  0
LINE
 8
GROUP0
10
1374.07427790817
20
1630.54854926689
30
0.000207234350650509
11
1376.67235411952
21
1629.04854926689
31
0.000212279819520944
  0
LINE
 8
GROUP0
10
1469.6291212611
20
1511.51839128865
30
0.000241944045286679
11
1469.3907433272
21
1511.82905146043
31
0.000241868155375169
  0
LINE
 8
GROUP0
10
1469.6291212611
20
1433.01839128865
30
0.000239926392070267
11
1469.77897189485
21
1433.380162721
31
0.000239991322328681
  0
LINE
 8
GROUP0
10
1409.33010162313
20
1602.4507908809
30
0.000181245332110613
11
1409.33010162313
21
1598.4507908809
31
0.000181245332110613
  0
LINE
 8
GROUP0
10
1372.3301368204
20
1598.4507908809
30
0.000181245332110613
11
1372.3301368204
21
1602.4507908809
31
0.000181245332110613
  0
LINE
 8
GROUP0
10
1376.67235411952
20
1629.04854926689
30
0.000212279819520944
11
1376.67235411951
21
1626.04854926689
31
0.000213537143673648
  0
LINE
 8
GROUP0
10
1469.77897189485
20
1511.15661985631
30
0.000241986604175715
11
1469.6291212611
21
1511.51839128865
31
0.000241944045286679
  0
LINE
 8
GROUP0
10
1469.77897189485
20
1433.380162721
30
0.000239991322328681
11
1469.83008315542
21
1433.76839128865
31
0.000240021657317246
  0
LINE
 8
GROUP0
10
1371.47620169682
20
1629.04854926689
30
0.000203446206383973
11
1374.07427790817
21
1630.54854926689
31
0.000207234350650509
  0
LINE
 8
GROUP0
10
1469.83008315542
20
1433.76839128865
30
0.000240021657317246
11
1469.83008315542
21
1510.76839128865
31
0.000241992931740587
  0
LINE
 8
GROUP0
10
1548.79147705865
20
1626.04858457734
30
0.000374104557482369
11
1546.1934008473
21
1624.54858457734
31
0.000370316413757266
  0
LINE
 8
GROUP0
10
1540.59532463595
20
1629.04858457734
30
0.000372847233329665
11
1540.59532463595
21
1626.04858457734
31
0.000374104557482369
  0
LINE
 8
GROUP0
10
1372.3301368204
20
1602.4507908809
30
0.000181245332110613
11
1409.33010162313
21
1602.4507908809
31
0.000181245332110613
  0
LINE
 8
GROUP0
10
1396.06465896491
20
1626.04854926689
30
0.000204703531348827
11
1396.06465896491
21
1629.04854926689
31
0.000203446206383973
  0
LINE
 8
GROUP0
10
1402.76079501956
20
1617.45047806912
30
0.000242378519756059
11
1400.16271880821
21
1618.95047806912
31
0.000237333050524668
  0
LINE
 8
GROUP0
10
1384.86850654221
20
1626.04854926689
30
0.000213537143673648
11
1382.27043033086
21
1624.54854926689
31
0.000209748999948545
  0
LINE
 8
GROUP0
10
1393.06465896491
20
1629.04854926689
30
0.000212279819520944
11
1393.06465896491
21
1626.04854926689
31
0.000213537143673648
  0
LINE
 8
GROUP0
10
1367.37812652422
20
1621.95047365532
30
0.000205119833570677
11
1369.97620273557
21
1623.45047365532
31
0.00020890797729578
  0
LINE
 8
GROUP0
10
1401.26081138761
20
1626.04854926689
30
0.000213537143673648
11
1398.66273517626
21
1624.54854926689
31
0.000209748999993664
  0
LINE
 8
GROUP0
10
1405.35887123091
20
1618.95047806912
30
0.000246166663932357
11
1402.76079501956
21
1617.45047806912
31
0.000242378519756059
  0
LINE
 8
GROUP0
10
1402.76079501956
20
1623.45047806912
30
0.00023986387072874
11
1405.35887123091
21
1621.95047806912
31
0.000244909339147981
  0
LINE
 8
GROUP0
10
1367.37812652422
20
1618.95047365533
30
0.000206377158400173
11
1367.37812652422
21
1621.95047365532
31
0.000205119833570677
  0
LINE
 8
GROUP0
10
1372.57427894692
20
1618.95047365533
30
0.000215210770634755
11
1369.97620273557
21
1617.45047365533
31
0.000211422626368218
  0
LINE
 8
GROUP0
10
1390.46658275356
20
1630.54854926689
30
0.000207234350650509
11
1393.06465896491
21
1629.04854926689
31
0.000212279819520944
  0
LINE
 8
GROUP0
10
1369.97620273557
20
1623.45047365532
30
0.00020890797729578
11
1372.57427894692
21
1621.95047365532
31
0.000213953445805259
  0
LINE
 8
GROUP0
10
1371.47620169681
20
1626.04854926689
30
0.000204703531348827
11
1371.47620169682
21
1629.04854926689
31
0.000203446206383973
  0
LINE
 8
GROUP0
10
1566.683765536
20
1623.45051337957
30
0.000400431284492342
11
1569.28184174735
21
1621.95051337957
31
0.000405476752911582
  0
LINE
 8
GROUP0
10
1384.86850654221
20
1629.04854926689
30
0.000212279819520944
11
1384.86850654221
21
1626.04854926689
31
0.000213537143673648
  0
LINE
 8
GROUP0
10
1396.06465896491
20
1629.04854926689
30
0.000203446206383973
11
1398.66273517626
21
1630.54854926689
31
0.000207234350650509
  0
LINE
 8
GROUP0
10
1390.46658275356
20
1624.54854926689
30
0.000209748999948545
11
1387.86850654221
21
1626.04854926689
31
0.000204703531348827
  0
LINE
 8
GROUP0
10
1400.16271880821
20
1618.95047806912
30
0.000237333050524668
11
1400.16271880821
21
1621.95047806912
31
0.000236075726552443
  0
LINE
 8
GROUP0
10
1374.07427790816
20
1624.54854926689
30
0.000209748999948545
11
1371.47620169681
21
1626.04854926689
31
0.000204703531348827
  0
LINE
 8
GROUP0
10
1400.16271880821
20
1621.95047806912
30
0.000236075726552443
11
1402.76079501956
21
1623.45047806912
31
0.00023986387072874
  0
LINE
 8
GROUP0
10
1382.27043033086
20
1624.54854926689
30
0.000209748999948545
11
1379.67235411951
21
1626.04854926689
31
0.000204703531348827
  0
LINE
 8
GROUP0
10
1398.66273517626
20
1624.54854926689
30
0.000209748999993664
11
1396.06465896491
21
1626.04854926689
31
0.000204703531348827
  0
LINE
 8
GROUP0
10
1372.57427894692
20
1621.95047365532
30
0.000213953445805259
11
1372.57427894692
21
1618.95047365533
31
0.000215210770634755
  0
LINE
 8
GROUP0
10
1405.35887123091
20
1621.95047806912
30
0.000244909339147981
11
1405.35887123091
21
1618.95047806912
31
0.000246166663932357
  0
LINE
 8
GROUP0
10
1387.86850654221
20
1626.04854926689
30
0.000204703531348827
11
1387.86850654221
21
1629.04854926689
31
0.000203446206383973
  0
LINE
 8
GROUP0
10
1564.08568932465
20
1621.95051337957
30
0.000396643140316044
11
1566.683765536
21
1623.45051337957
31
0.000400431284492342
  0
LINE
 8
GROUP0
10
1393.06465896491
20
1626.04854926689
30
0.000213537143673648
11
1390.46658275356
21
1624.54854926689
31
0.000209748999948545
  0
LINE
 8
GROUP0
10
1398.66273517626
20
1630.54854926689
30
0.000207234350650509
11
1401.26081138761
21
1629.04854926689
31
0.000212279819520944
  0
LINE
 8
GROUP0
10
1379.67235411951
20
1626.04854926689
30
0.000204703531348827
11
1379.67235411952
21
1629.04854926689
31
0.000203446206383973
  0
LINE
 8
GROUP0
10
1401.26081138761
20
1629.04854926689
30
0.000212279819520944
11
1401.26081138761
21
1626.04854926689
31
0.000213537143673648
  0
LINE
 8
GROUP0
10
1387.86850654221
20
1629.04854926689
30
0.000203446206383973
11
1390.46658275356
21
1630.54854926689
31
0.000207234350650509
  0
LINE
 8
GROUP0
10
1379.67235411952
20
1629.04854926689
30
0.000203446206383973
11
1382.27043033087
21
1630.54854926689
31
0.000207234350379792
  0
LINE
 8
GROUP0
10
1446.33961386002
20
1621.95048689673
30
0.000285051192588881
11
1446.33961386002
21
1618.95048689673
31
0.000286308517373257
  0
LINE
 8
GROUP0
10
1564.08568932465
20
1618.95051337957
30
0.00039790046428827
11
1564.08568932465
21
1621.95051337957
31
0.000396643140316044
  0
LINE
 8
GROUP0
10
1546.19340084729
20
1616.35243215465
30
0.000354832775603953
11
1548.79147705864
21
1614.85243215465
31
0.000357137574185984
  0
LINE
 8
GROUP0
10
1446.33961386002
20
1618.95048689673
30
0.000286308517373257
11
1443.74153764867
21
1617.45048689673
31
0.000282520373196959
  0
LINE
 8
GROUP0
10
1441.14346143732
20
1618.95048689673
30
0.000277474903965569
11
1441.14346143732
21
1621.95048689673
31
0.000276217579993343
  0
LINE
 8
GROUP0
10
1569.28184174735
20
1621.95051337957
30
0.000405476752911582
11
1569.28184174734
21
1618.95051337957
31
0.000406734077695958
  0
LINE
 8
GROUP0
10
1382.27043033087
20
1630.54854926689
30
0.000207234350379792
11
1384.86850654221
21
1629.04854926689
31
0.000212279819520944
  0
LINE
 8
GROUP0
10
1546.19340084728
20
1610.35243215465
30
0.000358819784764108
11
1543.59532463593
21
1611.85243215466
31
0.000356514986317435
  0
LINE
 8
GROUP0
10
1558.48761519088
20
1623.45050896575
30
0.000391245324439282
11
1561.08569140223
21
1621.95050896575
31
0.000396290792407328
  0
LINE
 8
GROUP0
10
1559.98762948132
20
1614.85243215464
30
0.000334907066689638
11
1562.58570569267
21
1616.35243215464
31
0.000335218360669032
  0
LINE
 8
GROUP0
10
1548.79147705864
20
1614.85243215465
30
0.000357137574185984
11
1548.79147705864
21
1611.85243215465
31
0.000359131078698383
  0
LINE
 8
GROUP0
10
1569.28184174734
20
1618.95051337957
30
0.000406734077695958
11
1566.68376553599
21
1617.45051337957
31
0.000402945933519661
  0
LINE
 8
GROUP0
10
1562.58570569267
20
1616.35243215464
30
0.000335218360669032
11
1565.18378190402
21
1614.85243215464
31
0.000337523159341302
  0
LINE
 8
GROUP0
10
1543.59532463593
20
1611.85243215466
30
0.000356514986317435
11
1543.59532463593
21
1614.85243215465
31
0.000354521481444081
  0
LINE
 8
GROUP0
10
1566.68376553599
20
1617.45051337957
30
0.000402945933519661
11
1564.08568932465
21
1618.95051337957
31
0.00039790046428827
  0
LINE
 8
GROUP0
10
1562.58570569267
20
1610.35243215464
30
0.000339205369377993
11
1559.98762948131
21
1611.85243215464
31
0.000336900571608112
  0
LINE
 8
GROUP0
10
1548.79147705864
20
1611.85243215465
30
0.000359131078698383
11
1546.19340084728
21
1610.35243215465
31
0.000358819784764108
  0
LINE
 8
GROUP0
10
1561.08569140223
20
1621.95050896575
30
0.000396290792407328
11
1561.08569140223
21
1618.95050896575
31
0.000397548117011226
  0
LINE
 8
GROUP0
10
1555.88953897953
20
1621.95050896575
30
0.000387457180353223
11
1558.48761519088
21
1623.45050896575
31
0.000391245324439282
  0
LINE
 8
GROUP0
10
1561.08569140223
20
1618.95050896575
30
0.000397548117011226
11
1558.48761519088
21
1617.45050896575
31
0.000393759973737318
  0
LINE
 8
GROUP0
10
1558.48761519088
20
1617.45050896575
30
0.000393759973737318
11
1555.88953897953
21
1618.95050896575
31
0.000388714504505927
  0
LINE
 8
GROUP0
10
1552.8895410571
20
1618.95050896575
30
0.000397548117011226
11
1550.29146484575
21
1617.45050896575
31
0.000393759973737318
  0
LINE
 8
GROUP0
10
1443.74153764867
20
1623.45048689673
30
0.000280005724169641
11
1446.33961386002
21
1621.95048689673
31
0.000285051192588881
  0
LINE
 8
GROUP0
10
1565.18378190402
20
1614.85243215464
30
0.000337523159341302
11
1565.18378190402
21
1611.85243215464
31
0.000339516664079298
  0
LINE
 8
GROUP0
10
1441.14346143732
20
1621.95048689673
30
0.000276217579993343
11
1443.74153764867
21
1623.45048689673
31
0.000280005724169641
  0
LINE
 8
GROUP0
10
1559.98762948131
20
1611.85243215464
30
0.000336900571608112
11
1559.98762948132
21
1614.85243215464
31
0.000334907066689638
  0
LINE
 8
GROUP0
10
1544.69339980847
20
1618.95050896577
30
0.000375778184398357
11
1542.09532359712
21
1617.45050896577
31
0.000371990040041581
  0
LINE
 8
GROUP0
10
1540.59532463594
20
1614.85243215466
30
0.000366944781427847
11
1540.59532463594
21
1611.85243215466
31
0.000368938286030485
  0
LINE
 8
GROUP0
10
1443.74153764867
20
1617.45048689673
30
0.000282520373196959
11
1441.14346143732
21
1618.95048689673
31
0.000277474903965569
  0
LINE
 8
GROUP0
10
1555.88953897953
20
1618.95050896575
30
0.000388714504505927
11
1555.88953897953
21
1621.95050896575
31
0.000387457180353223
  0
LINE
 8
GROUP0
10
1543.59532463593
20
1614.85243215465
30
0.000354521481444081
11
1546.19340084729
21
1616.35243215465
31
0.000354832775603953
  0
LINE
 8
GROUP0
10
1565.18378190402
20
1611.85243215464
30
0.000339516664079298
11
1562.58570569267
21
1610.35243215464
31
0.000339205369377993
  0
LINE
 8
GROUP0
10
1547.69338863441
20
1618.95050896575
30
0.000388714504505927
11
1547.69338863441
21
1621.95050896575
31
0.000387457180082507
  0
LINE
 8
GROUP0
10
1547.69338863441
20
1621.95050896575
30
0.000387457180082507
11
1550.29146484576
21
1623.45050896575
31
0.000391245324439282
  0
LINE
 8
GROUP0
10
1539.49724738578
20
1618.95050896577
30
0.000366944572163774
11
1539.49724738578
21
1621.95050896577
31
0.000365687247379398
  0
LINE
 8
GROUP0
10
1542.09532359713
20
1623.45050896577
30
0.000369475391104501
11
1544.69339980848
21
1621.95050896577
31
0.000374520859523741
  0
LINE
 8
GROUP0
10
1535.39917221324
20
1614.85243215466
30
0.000364328689317617
11
1537.99724842459
21
1616.35243215466
31
0.000364639982755577
  0
LINE
 8
GROUP0
10
1550.29146484576
20
1623.45050896575
30
0.000391245324439282
11
1552.88954105711
21
1621.95050896575
31
0.000396290792497567
  0
LINE
 8
GROUP0
10
1540.59532463594
20
1611.85243215466
30
0.000368938286030485
11
1537.99724842459
21
1610.35243215466
31
0.000368626991960852
  0
LINE
 8
GROUP0
10
1535.39917221324
20
1611.85243215466
30
0.000366322194100732
11
1535.39917221324
21
1614.85243215466
31
0.000364328689317617
  0
LINE
 8
GROUP0
10
1544.69339980848
20
1621.95050896577
30
0.000374520859523741
11
1544.69339980847
21
1618.95050896577
31
0.000375778184398357
  0
LINE
 8
GROUP0
10
1539.49724738578
20
1621.95050896577
30
0.000365687247379398
11
1542.09532359713
21
1623.45050896577
31
0.000369475391104501
  0
LINE
 8
GROUP0
10
1537.99724842459
20
1610.35243215466
30
0.000368626991960852
11
1535.39917221324
21
1611.85243215466
31
0.000366322194100732
  0
LINE
 8
GROUP0
10
1552.88954105711
20
1621.95050896575
30
0.000396290792497567
11
1552.8895410571
21
1618.95050896575
31
0.000397548117011226
  0
LINE
 8
GROUP0
10
1537.99724842459
20
1616.35243215466
30
0.000364639982755577
11
1540.59532463594
21
1614.85243215466
31
0.000366944781427847
  0
LINE
 8
GROUP0
10
1550.29146484575
20
1617.45050896575
30
0.000393759973737318
11
1547.69338863441
21
1618.95050896575
31
0.000388714504505927
  0
LINE
 8
GROUP0
10
1554.38955326999
20
1624.54858457734
30
0.000370316413757266
11
1551.79147705864
21
1626.04858457734
31
0.000365270945157548
  0
LINE
 8
GROUP0
10
1551.79147705864
20
1626.04858457734
30
0.000365270945157548
11
1551.79147705865
21
1629.04858457734
31
0.000364013620192694
  0
LINE
 8
GROUP0
10
1551.79147705865
20
1629.04858457734
30
0.000364013620192694
11
1554.38955327
21
1630.54858457734
31
0.00036780176445923
  0
LINE
 8
GROUP0
10
1542.09532359712
20
1617.45050896577
30
0.000371990040041581
11
1539.49724738578
21
1618.95050896577
31
0.000366944572163774
  0
LINE
 8
GROUP0
10
1554.38955327
20
1630.54858457734
30
0.00036780176445923
11
1556.98762948135
21
1629.04858457734
31
0.000372847233329665
  0
LINE
 8
GROUP0
10
1388.96657054067
20
1621.9504736553
30
0.000235723378733965
11
1388.96657054067
21
1618.9504736553
31
0.000236980703247625
  0
LINE
 8
GROUP0
10
1404.26081138757
20
1611.85239684419
30
0.000166525950557528
11
1404.26081138758
21
1614.85239684419
31
0.000164532445774412
  0
LINE
 8
GROUP0
10
1556.98762948135
20
1629.04858457734
30
0.000372847233329665
11
1556.98762948134
21
1626.04858457734
31
0.000374104557482369
  0
LINE
 8
GROUP0
10
1388.96657054067
20
1618.9504736553
30
0.000236980703247625
11
1386.36849432932
21
1617.4504736553
31
0.000233192559973716
  0
LINE
 8
GROUP0
10
1556.98762948134
20
1626.04858457734
30
0.000374104557482369
11
1554.38955326999
21
1624.54858457734
31
0.000370316413757266
  0
LINE
 8
GROUP0
10
1533.89917325201
20
1623.45050896577
30
0.000369475391104501
11
1536.49724946336
21
1621.95050896577
31
0.00037452085961398
  0
LINE
 8
GROUP0
10
1536.49724946336
20
1621.95050896577
30
0.00037452085961398
11
1536.49724946335
21
1618.95050896577
31
0.000375778184398357
  0
LINE
 8
GROUP0
10
1533.899173252
20
1617.45050896577
30
0.00037199004013182
11
1531.30109704065
21
1618.95050896577
31
0.000366944572163774
  0
LINE
 8
GROUP0
10
1383.77041811797
20
1618.9504736553
30
0.000228147090742326
11
1383.77041811797
21
1621.9504736553
31
0.000226889766318905
  0
LINE
 8
GROUP0
10
1536.49724946335
20
1618.95050896577
30
0.000375778184398357
11
1533.899173252
21
1617.45050896577
31
0.00037199004013182
  0
LINE
 8
GROUP0
10
1531.30109704066
20
1621.95050896577
30
0.000365687247379398
11
1533.89917325201
21
1623.45050896577
31
0.000369475391104501
  0
LINE
 8
GROUP0
10
1386.36849432932
20
1617.4504736553
30
0.000233192559973716
11
1383.77041811797
21
1618.9504736553
31
0.000228147090742326
  0
LINE
 8
GROUP0
10
1383.77041811797
20
1621.9504736553
30
0.000226889766318905
11
1386.36849432932
21
1623.4504736553
31
0.000230677910675681
  0
LINE
 8
GROUP0
10
1386.36849432932
20
1623.4504736553
30
0.000230677910675681
11
1388.96657054067
21
1621.9504736553
31
0.000235723378733965
  0
LINE
 8
GROUP0
10
1531.30109704065
20
1618.95050896577
30
0.000366944572163774
11
1531.30109704066
21
1621.95050896577
31
0.000365687247379398
  0
LINE
 8
GROUP0
10
1406.85888759893
20
1610.35239684419
30
0.000168830748598126
11
1404.26081138757
21
1611.85239684419
31
0.000166525950557528
  0
LINE
 8
GROUP0
10
1406.85888759896
20
1624.54854926689
30
0.000209748999993664
11
1404.26081138761
21
1626.04854926689
31
0.000204703531393946
  0
LINE
 8
GROUP0
10
1404.26081138761
20
1626.04854926689
30
0.000204703531393946
11
1404.26081138761
21
1629.04854926689
31
0.000203446206383973
  0
LINE
 8
GROUP0
10
1406.85888759893
20
1616.35239684419
30
0.000164843739663567
11
1409.45696381028
21
1614.85239684419
31
0.000167148538426076
  0
LINE
 8
GROUP0
10
1409.45696381028
20
1611.85239684419
30
0.000169142042306802
11
1406.85888759893
21
1610.35239684419
31
0.000168830748598126
  0
LINE
 8
GROUP0
10
1409.45696381028
20
1614.85239684419
30
0.000167148538426076
11
1409.45696381028
21
1611.85239684419
31
0.000169142042306802
  0
LINE
 8
GROUP0
10
1434.04540159401
20
1614.85240567181
30
0.000226904806440942
11
1434.045401594
21
1611.85240567181
31
0.000228898310592385
  0
LINE
 8
GROUP0
10
1404.26081138761
20
1629.04854926689
30
0.000203446206383973
11
1406.85888759896
21
1630.54854926689
31
0.000207234350650509
  0
LINE
 8
GROUP0
10
1431.44732538265
20
1610.35240567181
30
0.000228587016522752
11
1428.8492491713
21
1611.85240567181
31
0.000226282218211438
  0
LINE
 8
GROUP0
10
1406.85888759896
20
1630.54854926689
30
0.000207234350650509
11
1409.45696381031
21
1629.04854926689
31
0.000212279819520944
  0
LINE
 8
GROUP0
10
1428.8492491713
20
1611.85240567181
30
0.000226282218211438
11
1428.8492491713
21
1614.85240567181
31
0.000224288713969756
  0
LINE
 8
GROUP0
10
1431.44732538265
20
1616.35240567181
30
0.000224600007949149
11
1434.04540159401
21
1614.85240567181
31
0.000226904806440942
  0
LINE
 8
GROUP0
10
1434.045401594
20
1611.85240567181
30
0.000228898310592385
11
1431.44732538265
21
1610.35240567181
31
0.000228587016522752
  0
LINE
 8
GROUP0
10
1409.45696381031
20
1629.04854926689
30
0.000212279819520944
11
1409.45696381031
21
1626.04854926689
31
0.000213537143718767
  0
LINE
 8
GROUP0
10
1409.45696381031
20
1626.04854926689
30
0.000213537143718767
11
1406.85888759896
21
1624.54854926689
31
0.000209748999993664
  0
LINE
 8
GROUP0
10
1428.8492491713
20
1614.85240567181
30
0.000224288713969756
11
1431.44732538265
21
1616.35240567181
31
0.000224600007949149
  0
LINE
 8
GROUP0
10
1404.26081138758
20
1614.85239684419
30
0.000164532445774412
11
1406.85888759893
21
1616.35239684419
31
0.000164843739663567
  0
LINE
 8
GROUP0
10
1382.27043033085
20
1616.35239684421
30
0.000194265361840351
11
1384.8685065422
21
1614.85239684421
31
0.000196570160422382
  0
LINE
 8
GROUP0
10
1419.1530957098
20
1617.45048248294
30
0.00025156447971888
11
1416.55501949845
21
1618.95048248294
31
0.000246519011841073
  0
LINE
 8
GROUP0
10
1416.55501949845
20
1621.95048248294
30
0.000245261687056697
11
1419.1530957098
21
1623.45048248294
31
0.0002490498307818
  0
LINE
 8
GROUP0
10
1421.75117192115
20
1618.95048248294
30
0.000255352624075655
11
1419.1530957098
21
1617.45048248294
31
0.00025156447971888
  0
LINE
 8
GROUP0
10
1379.6723541195
20
1614.85239684421
30
0.00019395406768048
11
1382.27043033085
21
1616.35239684421
31
0.000194265361840351
  0
LINE
 8
GROUP0
10
1379.6723541195
20
1611.85239684421
30
0.000195947572553834
11
1379.6723541195
21
1614.85239684421
31
0.00019395406768048
  0
LINE
 8
GROUP0
10
1562.5857056927
20
1630.54858457734
30
0.00036780176445923
11
1565.18378190404
21
1629.04858457734
31
0.000372847233329665
  0
LINE
 8
GROUP0
10
1565.18378190404
20
1629.04858457734
30
0.000372847233329665
11
1565.18378190404
21
1626.04858457734
31
0.000374104557482369
  0
LINE
 8
GROUP0
10
1419.1530957098
20
1623.45048248294
30
0.0002490498307818
11
1421.75117192115
21
1621.95048248294
31
0.00025409529920104
  0
LINE
 8
GROUP0
10
1565.18378190404
20
1626.04858457734
30
0.000374104557482369
11
1562.58570569269
21
1624.54858457734
31
0.000370316413757266
  0
LINE
 8
GROUP0
10
1384.8685065422
20
1614.85239684421
30
0.000196570160422382
11
1384.8685065422
21
1611.85239684421
31
0.000198563664934781
  0
LINE
 8
GROUP0
10
1421.75117192115
20
1621.95048248294
30
0.00025409529920104
11
1421.75117192115
21
1618.95048248294
31
0.000255352624075655
  0
LINE
 8
GROUP0
10
1384.8685065422
20
1611.85239684421
30
0.000198563664934781
11
1382.27043033085
21
1610.35239684421
31
0.000198252370955387
  0
LINE
 8
GROUP0
10
1382.27043033085
20
1610.35239684421
30
0.000198252370955387
11
1379.6723541195
21
1611.85239684421
31
0.000195947572553834
  0
LINE
 8
GROUP0
10
1559.98762948135
20
1629.04858457734
30
0.000364013620192694
11
1562.5857056927
21
1630.54858457734
31
0.00036780176445923
  0
LINE
 8
GROUP0
10
1416.55501949845
20
1618.95048248294
30
0.000246519011841073
11
1416.55501949845
21
1621.95048248294
31
0.000245261687056697
  0
LINE
 8
GROUP0
10
1497.01650579548
20
1616.35242332705
30
0.000324498129314676
11
1499.61458200684
21
1614.85242332705
31
0.000326802927986947
  0
LINE
 8
GROUP0
10
1562.58570569269
20
1624.54858457734
30
0.000370316413757266
11
1559.98762948134
21
1626.04858457734
31
0.000365270945157548
  0
LINE
 8
GROUP0
10
1559.98762948134
20
1626.04858457734
30
0.000365270945157548
11
1559.98762948135
21
1629.04858457734
31
0.000364013620192694
  0
LINE
 8
GROUP0
10
1556.98762948133
20
1614.85243215465
30
0.000347330366763643
11
1556.98762948133
21
1611.85243215465
31
0.000349323870960205
  0
LINE
 8
GROUP0
10
1511.908798428
20
1618.95050013814
30
0.000357406263570326
11
1509.31072221665
21
1617.45050013814
31
0.000353618120296417
  0
LINE
 8
GROUP0
10
1511.908798428
20
1621.95050013814
30
0.000356148939056666
11
1511.908798428
21
1618.95050013814
31
0.000357406263570326
  0
LINE
 8
GROUP0
10
1556.98762948133
20
1611.85243215465
30
0.000349323870960205
11
1554.38955326997
21
1610.35243215465
31
0.000349012576890573
  0
LINE
 8
GROUP0
10
1551.79147705862
20
1614.85243215465
30
0.000344714274292457
11
1554.38955326998
21
1616.35243215465
31
0.000345025568271851
  0
LINE
 8
GROUP0
10
1551.79147705862
20
1611.85243215465
30
0.000346707778579258
11
1551.79147705862
21
1614.85243215465
31
0.000344714274292457
  0
LINE
 8
GROUP0
10
1509.31072221665
20
1617.45050013814
30
0.000353618120296417
11
1506.7126460053
21
1618.95050013814
31
0.000348572651065027
  0
LINE
 8
GROUP0
10
1506.7126460053
20
1621.95050013814
30
0.000347315326641606
11
1509.31072221665
21
1623.45050013814
31
0.000351103470998382
  0
LINE
 8
GROUP0
10
1554.38955326998
20
1616.35243215465
30
0.000345025568271851
11
1556.98762948133
21
1614.85243215465
31
0.000347330366763643
  0
LINE
 8
GROUP0
10
1506.7126460053
20
1618.95050013814
30
0.000348572651065027
11
1506.7126460053
21
1621.95050013814
31
0.000347315326641606
  0
LINE
 8
GROUP0
10
1509.31072221665
20
1623.45050013814
30
0.000351103470998382
11
1511.908798428
21
1621.95050013814
31
0.000356148939056666
  0
LINE
 8
GROUP0
10
1494.41842958413
20
1614.85242332705
30
0.000324186835876716
11
1497.01650579548
21
1616.35242332705
31
0.000324498129314676
  0
LINE
 8
GROUP0
10
1554.38955326997
20
1610.35243215465
30
0.000349012576890573
11
1551.79147705862
21
1611.85243215465
31
0.000346707778579258
  0
LINE
 8
GROUP0
10
1499.61458200683
20
1611.85242332705
30
0.000328796432589584
11
1497.01650579548
21
1610.35242332705
31
0.000328485138519952
  0
LINE
 8
GROUP0
10
1494.41842958413
20
1611.85242332705
30
0.000326180340659832
11
1494.41842958413
21
1614.85242332705
31
0.000324186835876716
  0
LINE
 8
GROUP0
10
1505.21265821817
20
1610.35242332704
30
0.000318677931278089
11
1502.61458200682
21
1611.85242332704
31
0.000316373132876535
  0
LINE
 8
GROUP0
10
1502.61458200682
20
1611.85242332704
30
0.000316373132876535
11
1502.61458200682
21
1614.85242332704
31
0.000314379628003181
  0
LINE
 8
GROUP0
10
1499.61458200684
20
1614.85242332705
30
0.000326802927986947
11
1499.61458200683
21
1611.85242332705
31
0.000328796432589584
  0
LINE
 8
GROUP0
10
1502.61458200682
20
1614.85242332704
30
0.000314379628003181
11
1505.21265821818
21
1616.35242332704
31
0.000314690922163052
  0
LINE
 8
GROUP0
10
1507.81073442953
20
1614.85242332704
30
0.000316995720745084
11
1507.81073442953
21
1611.85242332704
31
0.000318989225257482
  0
LINE
 8
GROUP0
10
1507.81073442953
20
1611.85242332704
30
0.000318989225257482
11
1505.21265821817
21
1610.35242332704
31
0.000318677931278089
  0
LINE
 8
GROUP0
10
1528.30109911824
20
1621.95050455196
30
0.000365334899470682
11
1528.30109911824
21
1618.95050455196
31
0.000366592224255058
  0
LINE
 8
GROUP0
10
1528.30109911824
20
1618.95050455196
30
0.000366592224255058
11
1525.70302290689
21
1617.45050455196
31
0.00036280408007876
  0
LINE
 8
GROUP0
10
1525.70302290689
20
1623.45050455195
30
0.000360289431051441
11
1528.30109911824
21
1621.95050455196
31
0.000365334899470682
  0
LINE
 8
GROUP0
10
1497.01650579548
20
1610.35242332705
30
0.000328485138519952
11
1494.41842958413
21
1611.85242332705
31
0.000326180340659832
  0
LINE
 8
GROUP0
10
1505.21265821818
20
1616.35242332704
30
0.000314690922163052
11
1507.81073442953
21
1614.85242332704
31
0.000316995720745084
  0
LINE
 8
GROUP0
10
1523.10494669554
20
1621.95050455195
30
0.000356501286875144
11
1525.70302290689
21
1623.45050455195
31
0.000360289431051441
  0
LINE
 8
GROUP0
10
1525.70302290689
20
1617.45050455196
30
0.00036280408007876
11
1523.10494669554
21
1618.95050455196
31
0.00035775861084737
  0
LINE
 8
GROUP0
10
1523.10494669554
20
1618.95050455196
30
0.00035775861084737
11
1523.10494669554
21
1621.95050455195
31
0.000356501286875144
  0
LINE
 8
GROUP0
10
1519.00688685221
20
1611.85242332703
30
0.000296758718122092
11
1519.00688685221
21
1614.85242332703
31
0.000294765213248738
  0
LINE
 8
GROUP0
10
1519.00688685221
20
1614.85242332703
30
0.000294765213248738
11
1521.60496306356
21
1616.35242332703
31
0.000295076507228131
  0
LINE
 8
GROUP0
10
1521.60496306356
20
1616.35242332703
30
0.000295076507228131
11
1524.20303927491
21
1614.85242332703
31
0.000297381305900402
  0
LINE
 8
GROUP0
10
1524.20303927491
20
1611.85242332703
30
0.000299374810593278
11
1521.60496306356
21
1610.35242332703
31
0.000299063515891973
  0
LINE
 8
GROUP0
10
1420.65309674861
20
1614.85240567182
30
0.00023409592112138
11
1423.25117295996
21
1616.35240567182
31
0.000234407215281252
  0
LINE
 8
GROUP0
10
1521.60496306356
20
1610.35242332703
30
0.000299063515891973
11
1519.00688685221
21
1611.85242332703
31
0.000296758718122092
  0
LINE
 8
GROUP0
10
1423.25117295996
20
1616.35240567182
30
0.000234407215281252
11
1425.84924917131
21
1614.85240567182
31
0.000236712013863283
  0
LINE
 8
GROUP0
10
1425.84924917131
20
1614.85240567182
30
0.000236712013863283
11
1425.84924917131
21
1611.85240567182
31
0.000238705518375681
  0
LINE
 8
GROUP0
10
1425.84924917131
20
1611.85240567182
30
0.000238705518375681
11
1423.25117295996
21
1610.35240567182
31
0.000238394224396288
  0
LINE
 8
GROUP0
10
1524.20303927491
20
1614.85242332703
30
0.000297381305900402
11
1524.20303927491
21
1611.85242332703
31
0.000299374810593278
  0
LINE
 8
GROUP0
10
1502.61458200684
20
1629.04857574972
30
0.000323871766751793
11
1505.21265821819
21
1630.54857574972
31
0.000327659910747613
  0
LINE
 8
GROUP0
10
1420.6530967486
20
1611.85240567182
30
0.000236089425994734
11
1420.65309674861
21
1614.85240567182
31
0.00023409592112138
  0
LINE
 8
GROUP0
10
1423.25117295996
20
1610.35240567182
30
0.000238394224396288
11
1420.6530967486
21
1611.85240567182
31
0.000236089425994734
  0
LINE
 8
GROUP0
10
1505.21265821819
20
1630.54857574972
30
0.000327659910747613
11
1507.81073442954
21
1629.04857574972
31
0.000332705379888765
  0
LINE
 8
GROUP0
10
1507.81073442954
20
1629.04857574972
30
0.000332705379888765
11
1507.81073442954
21
1626.04857574972
31
0.000333962704041468
  0
LINE
 8
GROUP0
10
1507.81073442954
20
1626.04857574972
30
0.000333962704041468
11
1505.21265821819
21
1624.54857574972
31
0.000330174560316365
  0
LINE
 8
GROUP0
10
1516.00688685224
20
1626.04857574972
30
0.000333962704041468
11
1513.40881064089
21
1624.54857574972
31
0.000330174560316365
  0
LINE
 8
GROUP0
10
1502.61458200684
20
1626.04857574972
30
0.000325129091716647
11
1502.61458200684
21
1629.04857574972
31
0.000323871766751793
  0
LINE
 8
GROUP0
10
1510.81073442954
20
1626.04857574972
30
0.000325129091716647
11
1510.81073442954
21
1629.04857574972
31
0.000323871766751793
  0
LINE
 8
GROUP0
10
1513.40881064089
20
1630.54857574972
30
0.00032765991101833
11
1516.00688685224
21
1629.04857574972
31
0.000332705379888765
  0
LINE
 8
GROUP0
10
1513.40881064089
20
1624.54857574972
30
0.000330174560316365
11
1510.81073442954
21
1626.04857574972
31
0.000325129091716647
  0
LINE
 8
GROUP0
10
1521.60496306359
20
1630.54857574972
30
0.00032765991101833
11
1524.20303927494
21
1629.04857574972
31
0.000332705379888765
  0
LINE
 8
GROUP0
10
1519.00688685224
20
1626.04857574972
30
0.000325129091716647
11
1519.00688685224
21
1629.04857574972
31
0.000323871766751793
  0
LINE
 8
GROUP0
10
1505.21265821819
20
1624.54857574972
30
0.000330174560316365
11
1502.61458200684
21
1626.04857574972
31
0.000325129091716647
  0
LINE
 8
GROUP0
10
1510.81073442954
20
1629.04857574972
30
0.000323871766751793
11
1513.40881064089
21
1630.54857574972
31
0.00032765991101833
  0
LINE
 8
GROUP0
10
1524.20303927494
20
1629.04857574972
30
0.000332705379888765
11
1524.20303927493
21
1626.04857574972
31
0.000333962704041468
  0
LINE
 8
GROUP0
10
1524.20303927493
20
1626.04857574972
30
0.000333962704041468
11
1521.60496306358
21
1624.54857574972
31
0.000330174560316365
  0
LINE
 8
GROUP0
10
1519.00688685224
20
1629.04857574972
30
0.000323871766751793
11
1521.60496306359
21
1630.54857574972
31
0.00032765991101833
  0
LINE
 8
GROUP0
10
1499.61458200684
20
1626.04857574972
30
0.000333962704041468
11
1497.01650579549
21
1624.54857574972
31
0.000330174560316365
  0
LINE
 8
GROUP0
10
1497.01650579549
20
1624.54857574972
30
0.000330174560316365
11
1494.41842958414
21
1626.04857574972
31
0.000325129091716647
  0
LINE
 8
GROUP0
10
1521.60496306358
20
1624.54857574972
30
0.000330174560316365
11
1519.00688685224
21
1626.04857574972
31
0.000325129091716647
  0
LINE
 8
GROUP0
10
1516.00688685224
20
1629.04857574972
30
0.000332705379888765
11
1516.00688685224
21
1626.04857574972
31
0.000333962704041468
  0
LINE
 8
GROUP0
10
1532.39919169763
20
1629.04857574972
30
0.000332705379888765
11
1532.39919169763
21
1626.04857574972
31
0.000333962704041468
  0
LINE
 8
GROUP0
10
1517.50687256177
20
1617.45050013814
30
0.000353618120296417
11
1514.90879635042
21
1618.95050013814
31
0.000348572651065027
  0
LINE
 8
GROUP0
10
1517.50687256177
20
1623.45050013814
30
0.000351103470998382
11
1520.10494877312
21
1621.95050013814
31
0.000356148938966427
  0
LINE
 8
GROUP0
10
1520.10494877312
20
1618.95050013814
30
0.000357406263570326
11
1517.50687256177
21
1617.45050013814
31
0.000353618120296417
  0
LINE
 8
GROUP0
10
1529.80111548628
20
1624.54857574972
30
0.000330174560316365
11
1527.20303927493
21
1626.04857574972
31
0.000325129091716647
  0
LINE
 8
GROUP0
10
1494.41842958414
20
1629.04857574972
30
0.000323871766751793
11
1497.01650579549
21
1630.54857574972
31
0.00032765991101833
  0
LINE
 8
GROUP0
10
1494.41842958414
20
1626.04857574972
30
0.000325129091716647
11
1494.41842958414
21
1629.04857574972
31
0.000323871766751793
  0
LINE
 8
GROUP0
10
1497.01650579549
20
1630.54857574972
30
0.00032765991101833
11
1499.61458200684
21
1629.04857574972
31
0.000332705379888765
  0
LINE
 8
GROUP0
10
1499.61458200684
20
1629.04857574972
30
0.000332705379888765
11
1499.61458200684
21
1626.04857574972
31
0.000333962704041468
  0
LINE
 8
GROUP0
10
1532.39919169763
20
1626.04857574972
30
0.000333962704041468
11
1529.80111548628
21
1624.54857574972
31
0.000330174560316365
  0
LINE
 8
GROUP0
10
1520.10494877312
20
1621.95050013814
30
0.000356148938966427
11
1520.10494877312
21
1618.95050013814
31
0.000357406263570326
  0
LINE
 8
GROUP0
10
1527.20303927493
20
1626.04857574972
30
0.000325129091716647
11
1527.20303927494
21
1629.04857574972
31
0.000323871766751793
  0
LINE
 8
GROUP0
10
1527.20303927494
20
1629.04857574972
30
0.000323871766751793
11
1529.80111548629
21
1630.54857574972
31
0.00032765991101833
  0
LINE
 8
GROUP0
10
1529.80111548629
20
1630.54857574972
30
0.00032765991101833
11
1532.39919169763
21
1629.04857574972
31
0.000332705379888765
  0
LINE
 8
GROUP0
10
1514.90879635042
20
1618.95050013814
30
0.000348572651065027
11
1514.90879635042
21
1621.95050013814
31
0.000347315326912323
  0
LINE
 8
GROUP0
10
1514.90879635042
20
1621.95050013814
30
0.000347315326912323
11
1517.50687256177
21
1623.45050013814
31
0.000351103470998382
  0
LINE
 8
GROUP0
10
1427.34923695843
20
1623.45048248291
30
0.000270819764116581
11
1429.94731316978
21
1621.95048248291
31
0.000275865232174866
  0
LINE
 8
GROUP0
10
1492.91843062289
20
1617.45050013816
30
0.000331848186690919
11
1490.32035441155
21
1618.95050013816
31
0.000326802718722874
  0
LINE
 8
GROUP0
10
1503.71265717937
20
1621.95050013816
30
0.000334379006082841
11
1503.71265717937
21
1618.95050013816
31
0.000335636330957456
  0
LINE
 8
GROUP0
10
1498.51650475667
20
1621.95050013816
30
0.000325545393938498
11
1501.11458096802
21
1623.45050013816
31
0.000329333537663601
  0
LINE
 8
GROUP0
10
1429.94731316978
20
1621.95048248291
30
0.000275865232174866
11
1429.94731316978
21
1618.95048248291
31
0.000277122556688525
  0
LINE
 8
GROUP0
10
1498.51650475667
20
1618.95050013816
30
0.000326802718722874
11
1498.51650475667
21
1621.95050013816
31
0.000325545393938498
  0
LINE
 8
GROUP0
10
1429.94731316978
20
1618.95048248291
30
0.000277122556688525
11
1427.34923695843
21
1617.45048248291
31
0.000273334413414616
  0
LINE
 8
GROUP0
10
1490.32035441155
20
1621.95050013816
30
0.000325545393938498
11
1492.9184306229
21
1623.45050013816
31
0.000329333537663601
  0
LINE
 8
GROUP0
10
1495.51650683425
20
1621.95050013816
30
0.00033437900617308
11
1495.51650683424
21
1618.95050013816
31
0.000335636330957456
  0
LINE
 8
GROUP0
10
1495.51650683424
20
1618.95050013816
30
0.000335636330957456
11
1492.91843062289
21
1617.45050013816
31
0.000331848186690919
  0
LINE
 8
GROUP0
10
1503.71265717937
20
1618.95050013816
30
0.000335636330957456
11
1501.11458096802
21
1617.45050013816
31
0.000331848186600681
  0
LINE
 8
GROUP0
10
1490.32035441155
20
1618.95050013816
30
0.000326802718722874
11
1490.32035441155
21
1621.95050013816
31
0.000325545393938498
  0
LINE
 8
GROUP0
10
1501.11458096802
20
1623.45050013816
30
0.000329333537663601
11
1503.71265717937
21
1621.95050013816
31
0.000334379006082841
  0
LINE
 8
GROUP0
10
1424.75116074708
20
1621.95048248291
30
0.000267031619759805
11
1427.34923695843
21
1623.45048248291
31
0.000270819764116581
  0
LINE
 8
GROUP0
10
1501.11458096802
20
1617.45050013816
30
0.000331848186600681
11
1498.51650475667
21
1618.95050013816
31
0.000326802718722874
  0
LINE
 8
GROUP0
10
1492.9184306229
20
1623.45050013816
30
0.000329333537663601
11
1495.51650683425
21
1621.95050013816
31
0.00033437900617308
  0
LINE
 8
GROUP0
10
1427.34923695843
20
1617.45048248291
30
0.000273334413414616
11
1424.75116074708
21
1618.95048248291
31
0.000268288944183226
  0
LINE
 8
GROUP0
10
1401.26081138759
20
1614.85239684419
30
0.0001769557455777
11
1401.26081138759
21
1611.85239684419
31
0.000178949250270577
  0
LINE
 8
GROUP0
10
1401.26081138759
20
1611.85239684419
30
0.000178949250270577
11
1398.66273517623
21
1610.3523968442
31
0.000178637955569272
  0
LINE
 8
GROUP0
10
1398.66273517623
20
1610.3523968442
30
0.000178637955569272
11
1396.06465896488
21
1611.8523968442
31
0.000176333157799391
  0
LINE
 8
GROUP0
10
1387.86850654219
20
1611.8523968442
30
0.000186140364770537
11
1387.86850654219
21
1614.8523968442
31
0.000184146860528855
  0
LINE
 8
GROUP0
10
1390.46658275354
20
1610.3523968442
30
0.000188445163081852
11
1387.86850654219
21
1611.8523968442
31
0.000186140364770537
  0
LINE
 8
GROUP0
10
1390.46658275354
20
1616.3523968442
30
0.000184458154508249
11
1393.0646589649
21
1614.8523968442
31
0.000186762953000041
  0
LINE
 8
GROUP0
10
1396.06465896488
20
1614.8523968442
30
0.000174339652926037
11
1398.66273517624
21
1616.35239684419
31
0.00017465094690543
  0
LINE
 8
GROUP0
10
1393.0646589649
20
1614.8523968442
30
0.000186762953000041
11
1393.0646589649
21
1611.8523968442
31
0.000188756457151484
  0
LINE
 8
GROUP0
10
1393.0646589649
20
1611.8523968442
30
0.000188756457151484
11
1390.46658275354
21
1610.3523968442
31
0.000188445163081852
  0
LINE
 8
GROUP0
10
1387.86850654219
20
1614.8523968442
30
0.000184146860528855
11
1390.46658275354
21
1616.3523968442
31
0.000184458154508249
  0
LINE
 8
GROUP0
10
1398.66273517624
20
1616.35239684419
30
0.00017465094690543
11
1401.26081138759
21
1614.85239684419
31
0.0001769557455777
  0
LINE
 8
GROUP0
10
1378.1723530807
20
1623.45047365532
30
0.00020890797729578
11
1380.77042929204
21
1621.95047365532
31
0.00021395344576014
  0
LINE
 8
GROUP0
10
1380.77042929204
20
1621.95047365532
30
0.00021395344576014
11
1380.77042929204
21
1618.95047365533
31
0.000215210770634755
  0
LINE
 8
GROUP0
10
1396.06465896488
20
1611.8523968442
30
0.000176333157799391
11
1396.06465896488
21
1614.8523968442
31
0.000174339652926037
  0
LINE
 8
GROUP0
10
1424.75116074708
20
1618.95048248291
30
0.000268288944183226
11
1424.75116074708
21
1621.95048248291
31
0.000267031619759805
  0
LINE
 8
GROUP0
10
1420.65309674862
20
1629.0485580945
30
0.000243588059824873
11
1423.25117295997
21
1630.5485580945
31
0.000247376203820693
  0
LINE
 8
GROUP0
10
1380.77042929204
20
1618.95047365533
30
0.000215210770634755
11
1378.17235308069
21
1617.45047365533
31
0.000211422626277979
  0
LINE
 8
GROUP0
10
1378.17235308069
20
1617.45047365533
30
0.000211422626277979
11
1375.57427686934
21
1618.95047365533
31
0.000206377158400173
  0
LINE
 8
GROUP0
10
1375.57427686935
20
1621.95047365532
30
0.000205119833615797
11
1378.1723530807
21
1623.45047365532
31
0.00020890797729578
  0
LINE
 8
GROUP0
10
1371.4762016968
20
1611.85239684421
30
0.000205754780337131
11
1371.47620169681
21
1614.85239684421
31
0.000203761275554015
  0
LINE
 8
GROUP0
10
1425.84924917132
20
1626.0485580945
30
0.000253678997159668
11
1423.25117295997
21
1624.5485580945
31
0.000249890853434565
  0
LINE
 8
GROUP0
10
1423.25117295997
20
1630.5485580945
30
0.000247376203820693
11
1425.84924917132
21
1629.0485580945
31
0.000252421673006964
  0
LINE
 8
GROUP0
10
1374.07427790816
20
1610.35239684421
30
0.000208059578197251
11
1371.4762016968
21
1611.85239684421
31
0.000205754780337131
  0
LINE
 8
GROUP0
10
1420.65309674862
20
1626.0485580945
30
0.000244845384834846
11
1420.65309674862
21
1629.0485580945
31
0.000243588059824873
  0
LINE
 8
GROUP0
10
1375.57427686934
20
1618.95047365533
30
0.000206377158400173
11
1375.57427686935
21
1621.95047365532
31
0.000205119833615797
  0
LINE
 8
GROUP0
10
1371.47620169681
20
1614.85239684421
30
0.000203761275554015
11
1374.07427790816
21
1616.35239684421
31
0.000204072568991975
  0
LINE
 8
GROUP0
10
1376.67235411951
20
1611.85239684421
30
0.000208370872266883
11
1374.07427790816
21
1610.35239684421
31
0.000208059578197251
  0
LINE
 8
GROUP0
10
1376.67235411951
20
1614.85239684421
30
0.000206377367664246
11
1376.67235411951
21
1611.85239684421
31
0.000208370872266883
  0
LINE
 8
GROUP0
10
1423.25117295997
20
1624.5485580945
30
0.000249890853434565
11
1420.65309674862
21
1626.0485580945
31
0.000244845384834846
  0
LINE
 8
GROUP0
10
1425.84924917132
20
1629.0485580945
30
0.000252421673006964
11
1425.84924917132
21
1626.0485580945
31
0.000253678997159668
  0
LINE
 8
GROUP0
10
1374.07427790816
20
1616.35239684421
30
0.000204072568991975
11
1376.67235411951
21
1614.85239684421
31
0.000206377367664246
  0
LINE
 8
GROUP0
10
1510.81073442952
20
1614.85242332704
30
0.000304572420851557
11
1513.40881064087
21
1616.35242332704
31
0.00030488371483095
  0
LINE
 8
GROUP0
10
1529.80111548625
20
1610.35242332703
30
0.000289256308920827
11
1527.2030392749
21
1611.85242332703
31
0.000286951510880229
  0
LINE
 8
GROUP0
10
1412.45694432591
20
1611.85240567183
30
0.000245896633778031
11
1412.45694432591
21
1614.85240567182
31
0.000243903128994916
  0
LINE
 8
GROUP0
10
1516.00688685222
20
1611.85242332704
30
0.000309182017474185
11
1513.40881064087
21
1610.35242332704
31
0.000308870723404553
  0
LINE
 8
GROUP0
10
1532.3991916976
20
1611.85242332702
30
0.000289567602629504
11
1529.80111548625
21
1610.35242332703
31
0.000289256308920827
  0
LINE
 8
GROUP0
10
1415.05502053726
20
1610.35240567183
30
0.000248201431638151
11
1412.45694432591
21
1611.85240567183
31
0.000245896633778031
  0
LINE
 8
GROUP0
10
1510.81073442951
20
1611.85242332704
30
0.000306565925093238
11
1510.81073442952
21
1614.85242332704
31
0.000304572420851557
  0
LINE
 8
GROUP0
10
1516.00688685222
20
1614.85242332704
30
0.000307188513322743
11
1516.00688685222
21
1611.85242332704
31
0.000309182017474185
  0
LINE
 8
GROUP0
10
1529.80111548626
20
1616.35242332702
30
0.000285269299986268
11
1532.39919169761
21
1614.85242332702
31
0.000287574098748777
  0
LINE
 8
GROUP0
10
1532.39919169761
20
1614.85242332702
30
0.000287574098748777
11
1532.3991916976
21
1611.85242332702
31
0.000289567602629504
  0
LINE
 8
GROUP0
10
1527.2030392749
20
1611.85242332703
30
0.000286951510880229
11
1527.2030392749
21
1614.85242332703
31
0.000284958006097114
  0
LINE
 8
GROUP0
10
1513.40881064087
20
1616.35242332704
30
0.00030488371483095
11
1516.00688685222
21
1614.85242332704
31
0.000307188513322743
  0
LINE
 8
GROUP0
10
1513.40881064087
20
1610.35242332704
30
0.000308870723404553
11
1510.81073442951
21
1611.85242332704
31
0.000306565925093238
  0
LINE
 8
GROUP0
10
1527.2030392749
20
1614.85242332703
30
0.000284958006097114
11
1529.80111548626
21
1616.35242332702
31
0.000285269299986268
  0
LINE
 8
GROUP0
10
1417.65309674862
20
1614.85240567182
30
0.000246519221105146
11
1417.65309674862
21
1611.85240567182
31
0.000248512725707783
  0
LINE
 8
GROUP0
10
1417.65309674862
20
1611.85240567182
30
0.000248512725707783
11
1415.05502053726
21
1610.35240567183
31
0.000248201431638151
  0
LINE
 8
GROUP0
10
1412.45694432591
20
1614.85240567182
30
0.000243903128994916
11
1415.05502053727
21
1616.35240567182
31
0.000244214422432876
  0
LINE
 8
GROUP0
10
1415.05502053727
20
1616.35240567182
30
0.000244214422432876
11
1417.65309674862
21
1614.85240567182
31
0.000246519221105146
  0
LINE
 8
GROUP0
10
1442.2415540167
20
1611.85240567181
30
0.000219091103711477
11
1439.64347780534
21
1610.35240567181
31
0.000218779809010172
  0
LINE
 8
GROUP0
10
1437.04540159402
20
1629.0485580945
30
0.000243588059869992
11
1439.64347780537
21
1630.5485580945
31
0.000247376204136529
  0
LINE
 8
GROUP0
10
1439.64347780534
20
1610.35240567181
30
0.000218779809010172
11
1437.04540159399
21
1611.85240567181
31
0.000216475011240291
  0
LINE
 8
GROUP0
10
1442.24155401672
20
1629.0485580945
30
0.000252421673006964
11
1442.24155401672
21
1626.0485580945
31
0.000253678997159668
  0
LINE
 8
GROUP0
10
1442.2415540167
20
1614.8524056718
30
0.000217097599018601
11
1442.2415540167
21
1611.85240567181
31
0.000219091103711477
  0
LINE
 8
GROUP0
10
1437.04540159399
20
1611.85240567181
30
0.000216475011240291
11
1437.04540159399
21
1614.85240567181
31
0.000214481506366937
  0
LINE
 8
GROUP0
10
1442.24155401672
20
1626.0485580945
30
0.000253678997159668
11
1439.64347780537
21
1624.5485580945
31
0.000249890853434565
  0
LINE
 8
GROUP0
10
1439.64347780537
20
1630.5485580945
30
0.000247376204136529
11
1442.24155401672
21
1629.0485580945
31
0.000252421673006964
  0
LINE
 8
GROUP0
10
1437.04540159399
20
1614.85240567181
30
0.000214481506366937
11
1439.64347780535
21
1616.35240567181
31
0.000214792800346331
  0
LINE
 8
GROUP0
10
1437.04540159402
20
1626.0485580945
30
0.000244845384834846
11
1437.04540159402
21
1629.0485580945
31
0.000243588059869992
  0
LINE
 8
GROUP0
10
1410.95694536468
20
1617.45048248294
30
0.000251564479809119
11
1408.35886915333
21
1618.95048248294
31
0.000246519011841073
  0
LINE
 8
GROUP0
10
1408.35886915333
20
1618.95048248294
30
0.000246519011841073
11
1408.35886915333
21
1621.95048248294
31
0.000245261687056697
  0
LINE
 8
GROUP0
10
1439.64347780535
20
1616.35240567181
30
0.000214792800346331
11
1442.2415540167
21
1614.8524056718
31
0.000217097599018601
  0
LINE
 8
GROUP0
10
1439.64347780537
20
1624.5485580945
30
0.000249890853434565
11
1437.04540159402
21
1626.0485580945
31
0.000244845384834846
  0
LINE
 8
GROUP0
10
1438.1434635149
20
1618.95048248291
30
0.000277122556688525
11
1435.54538730355
21
1617.45048248291
31
0.000273334413414616
  0
LINE
 8
GROUP0
10
1413.55502157603
20
1621.95048248294
30
0.000254095299291279
11
1413.55502157603
21
1618.95048248294
31
0.000255352624075655
  0
LINE
 8
GROUP0
10
1428.84924917132
20
1626.0485580945
30
0.000244845384834846
11
1428.84924917132
21
1629.0485580945
31
0.000243588059869992
  0
LINE
 8
GROUP0
10
1413.55502157603
20
1618.95048248294
30
0.000255352624075655
11
1410.95694536468
21
1617.45048248294
31
0.000251564479809119
  0
LINE
 8
GROUP0
10
1431.44732538267
20
1630.5485580945
30
0.00024737620409141
11
1434.04540159402
21
1629.0485580945
31
0.000252421673006964
  0
LINE
 8
GROUP0
10
1438.1434635149
20
1621.95048248291
30
0.000275865232084627
11
1438.1434635149
21
1618.95048248291
31
0.000277122556688525
  0
LINE
 8
GROUP0
10
1431.44732538267
20
1624.5485580945
30
0.000249890853434565
11
1428.84924917132
21
1626.0485580945
31
0.000244845384834846
  0
LINE
 8
GROUP0
10
1435.54538730355
20
1623.45048248291
30
0.000270819764116581
11
1438.1434635149
21
1621.95048248291
31
0.000275865232084627
  0
LINE
 8
GROUP0
10
1434.04540159402
20
1629.0485580945
30
0.000252421673006964
11
1434.04540159402
21
1626.0485580945
31
0.000253678997159668
  0
LINE
 8
GROUP0
10
1435.54538730355
20
1617.45048248291
30
0.000273334413414616
11
1432.9473110922
21
1618.95048248291
31
0.000268288944183226
  0
LINE
 8
GROUP0
10
1410.95694536468
20
1623.45048248294
30
0.0002490498307818
11
1413.55502157603
21
1621.95048248294
31
0.000254095299291279
  0
LINE
 8
GROUP0
10
1432.9473110922
20
1618.95048248291
30
0.000268288944183226
11
1432.9473110922
21
1621.95048248291
31
0.000267031620030522
  0
LINE
 8
GROUP0
10
1428.84924917132
20
1629.0485580945
30
0.000243588059869992
11
1431.44732538267
21
1630.5485580945
31
0.00024737620409141
  0
LINE
 8
GROUP0
10
1434.04540159402
20
1626.0485580945
30
0.000253678997159668
11
1431.44732538267
21
1624.5485580945
31
0.000249890853434565
  0
LINE
 8
GROUP0
10
1432.9473110922
20
1621.95048248291
30
0.000267031620030522
11
1435.54538730355
21
1623.45048248291
31
0.000270819764116581
  0
LINE
 8
GROUP0
10
1408.35886915333
20
1621.95048248294
30
0.000245261687056697
11
1410.95694536468
21
1623.45048248294
31
0.0002490498307818
  0
LINE
 8
GROUP0
10
1391.96656846309
20
1618.9504736553
30
0.000228147090742326
11
1391.9665684631
21
1621.9504736553
31
0.000226889766589622
  0
LINE
 8
GROUP0
10
1391.9665684631
20
1621.9504736553
30
0.000226889766589622
11
1394.56464467445
21
1623.4504736553
31
0.000230677910675681
  0
LINE
 8
GROUP0
10
1417.65309674862
20
1626.0485580945
30
0.000253678997159668
11
1415.05502053727
21
1624.5485580945
31
0.000249890853434565
  0
LINE
 8
GROUP0
10
1415.05502053727
20
1624.5485580945
30
0.000249890853434565
11
1412.45694432592
21
1626.0485580945
31
0.000244845384834846
  0
LINE
 8
GROUP0
10
1412.45694432592
20
1626.0485580945
30
0.000244845384834846
11
1412.45694432593
21
1629.0485580945
31
0.000243588059824873
  0
LINE
 8
GROUP0
10
1394.56464467445
20
1623.4504736553
30
0.000230677910675681
11
1397.1627208858
21
1621.9504736553
31
0.000235723378643726
  0
LINE
 8
GROUP0
10
1417.65309674862
20
1629.0485580945
30
0.000252421672961844
11
1417.65309674862
21
1626.0485580945
31
0.000253678997159668
  0
LINE
 8
GROUP0
10
1415.05502053728
20
1630.5485580945
30
0.00024737620409141
11
1417.65309674862
21
1629.0485580945
31
0.000252421672961844
  0
LINE
 8
GROUP0
10
1397.1627208858
20
1621.9504736553
30
0.000235723378643726
11
1397.16272088579
21
1618.9504736553
31
0.000236980703247625
  0
LINE
 8
GROUP0
10
1394.56464467444
20
1617.4504736553
30
0.000233192559973716
11
1391.96656846309
21
1618.9504736553
31
0.000228147090742326
  0
LINE
 8
GROUP0
10
1412.45694432593
20
1629.0485580945
30
0.000243588059824873
11
1415.05502053728
21
1630.5485580945
31
0.00024737620409141
  0
LINE
 8
GROUP0
10
1397.16272088579
20
1618.9504736553
30
0.000236980703247625
11
1394.56464467444
21
1617.4504736553
31
0.000233192559973716
 0
ENDSEC
 0
EOF
