 0
SECTION
 2
ENTITIES
  0
LINE
 8
GROUP0
10
248.124429840519
20
1819.71548871177
30
0.000114893079963224
11
486.124378430515
21
1819.71548871177
31
0.000114893079963224
  0
LINE
 8
GROUP0
10
248.124429840519
20
1819.71548871177
30
0.000114893079963224
11
244.124430057872
21
1823.71548871177
31
0.000114893079963224
  0
LINE
 8
GROUP0
10
244.124430057872
20
1823.71548871177
30
0.000114893079963224
11
244.124429847105
21
1887.81557831721
31
0.000114893079918105
  0
LINE
 8
GROUP0
10
244.124429847105
20
1887.81557831721
30
0.000114893079918105
11
243.324433535512
21
1887.81559679222
31
0.000114893079918105
  0
LINE
 8
GROUP0
10
243.324433535512
20
1887.81559679222
30
0.000114893079918105
11
243.324433535512
21
1889.81557831392
31
0.000114893079918105
  0
LINE
 8
GROUP0
10
243.324433535512
20
1889.81557831392
30
0.000114893079918105
11
248.124429840512
21
1889.81558570722
31
0.000114893079918105
  0
LINE
 8
GROUP0
10
248.124429840512
20
1889.81558570722
30
0.000114893079918105
11
248.124461248026
21
1872.7154961018
31
0.000114893079918105
  0
LINE
 8
GROUP0
10
248.124461248026
20
1872.7154961018
30
0.000114893079918105
11
250.124461248023
21
1872.7154997968
31
0.000114893079918105
  0
LINE
 8
GROUP0
10
250.12443353551
20
1889.81558940222
30
0.000114893079918105
11
250.124461248023
21
1872.7154997968
31
0.000114893079918105
  0
LINE
 8
GROUP0
10
250.12443353551
20
1889.81558940222
30
0.000114893079918105
11
254.924433535512
21
1889.81559679222
31
0.000114893079918105
  0
LINE
 8
GROUP0
10
254.924433535512
20
1889.81559679222
30
0.000114893079918105
11
254.924433535512
21
1887.81559679222
31
0.000114893079918105
  0
LINE
 8
GROUP0
10
254.124433535512
20
1887.81559679222
30
0.000114893079918105
11
254.924433535512
21
1887.81559679222
31
0.000114893079918105
  0
LINE
 8
GROUP0
10
254.124433535512
20
1887.81559679222
30
0.000114893079918105
11
254.124437230514
21
1872.7154997968
31
0.000114893079918105
  0
LINE
 8
GROUP0
10
254.124437230514
20
1872.7154997968
30
0.000114893079918105
11
255.124437230514
21
1872.7154997968
31
0.000114893079918105
  0
LINE
 8
GROUP0
10
255.124437230514
20
1883.71550718678
30
0.000114893079918105
11
255.124437230514
21
1872.7154997968
31
0.000114893079918105
  0
LINE
 8
GROUP0
10
255.124437230514
20
1883.71550718678
30
0.000114893079918105
11
274.624412968447
21
1883.71552002412
31
0.000114893079918105
  0
LINE
 8
GROUP0
10
274.624412968447
20
1840.71552612365
30
0.000114893079918105
11
274.624412968447
21
1883.71552002412
31
0.000114893079918105
  0
LINE
 8
GROUP0
10
318.624412968448
20
1840.71552612365
30
0.000114893079918105
11
274.624412968447
21
1840.71552612365
31
0.000114893079918105
  0
LINE
 8
GROUP0
10
318.624412968448
20
1840.71552612365
30
0.000114893079918105
11
318.624412968448
21
1883.71550232826
31
0.000114893079918105
  0
LINE
 8
GROUP0
10
318.624412968448
20
1883.71550232826
30
0.000114893079918105
11
337.074404135517
21
1883.71552612365
31
0.000114893079918105
  0
LINE
 8
GROUP0
10
337.074404135517
20
1887.71552612365
30
0.000114893079918105
11
337.074404135517
21
1883.71552612365
31
0.000114893079918105
  0
LINE
 8
GROUP0
10
337.074404135517
20
1887.71552612365
30
0.000114893079918105
11
357.174404135517
21
1887.71552612365
31
0.000114893079918105
  0
LINE
 8
GROUP0
10
357.174404135517
20
1863.71552612365
30
0.000114893079918105
11
357.174404135517
21
1887.71552612365
31
0.000114893079918105
  0
LINE
 8
GROUP0
10
357.124404135517
20
1863.71552612365
30
0.000114893079918105
11
357.174404135517
21
1863.71552612365
31
0.000114893079918105
  0
LINE
 8
GROUP0
10
361.124404135517
20
1859.71552612365
30
0.000114893079918105
11
357.124404135517
21
1863.71552612365
31
0.000114893079918105
  0
LINE
 8
GROUP0
10
373.124404135517
20
1859.71552612365
30
0.000114893079918105
11
361.124404135517
21
1859.71552612365
31
0.000114893079918105
  0
LINE
 8
GROUP0
10
377.124404135517
20
1863.71552612365
30
0.000114893079918105
11
373.124404135517
21
1859.71552612365
31
0.000114893079918105
  0
LINE
 8
GROUP0
10
377.124404135517
20
1863.71552612365
30
0.000114893079918105
11
377.074404135517
21
1863.71552612365
31
0.000114893079918105
  0
LINE
 8
GROUP0
10
377.074404135517
20
1887.71552612365
30
0.000114893079918105
11
377.074404135517
21
1863.71552612365
31
0.000114893079918105
  0
LINE
 8
GROUP0
10
377.074404135517
20
1887.71552612365
30
0.000114893079918105
11
397.174404135517
21
1887.71552612365
31
0.000114893079918105
  0
LINE
 8
GROUP0
10
397.174404135517
20
1887.71552612365
30
0.000114893079918105
11
397.174404135517
21
1883.71552612365
31
0.000114893079918105
  0
LINE
 8
GROUP0
10
397.174404135517
20
1883.71552612365
30
0.000114893079918105
11
415.624378430516
21
1883.71552002412
31
0.000114893079918105
  0
LINE
 8
GROUP0
10
415.624378430516
20
1840.71552612365
30
0.000114893079918105
11
415.624378430516
21
1883.71552002412
31
0.000114893079918105
  0
LINE
 8
GROUP0
10
459.624378430516
20
1840.71552612365
30
0.000114893079918105
11
415.624378430516
21
1840.71552612365
31
0.000114893079918105
  0
LINE
 8
GROUP0
10
459.624378430516
20
1840.71552612365
30
0.000114893079918105
11
459.624378430516
21
1883.71548871177
31
0.000114893079918105
  0
LINE
 8
GROUP0
10
459.624378430516
20
1883.71548871177
30
0.000114893079918105
11
479.124378430515
21
1883.71548871177
31
0.000114893079918105
  0
LINE
 8
GROUP0
10
479.124378430515
20
1883.71548871177
30
0.000114893079918105
11
479.124378430515
21
1872.71548871177
31
0.000114893079918105
  0
LINE
 8
GROUP0
10
479.124378430515
20
1872.71548871177
30
0.000114893079918105
11
480.124378430515
21
1872.71548871177
31
0.000114893079918105
  0
LINE
 8
GROUP0
10
480.124378430515
20
1887.81559679222
30
0.000114893079918105
11
480.124378430515
21
1872.71548871177
31
0.000114893079918105
  0
LINE
 8
GROUP0
10
480.124378430515
20
1887.81559679222
30
0.000114893079918105
11
479.324378430515
21
1887.81559679222
31
0.000114893079918105
  0
LINE
 8
GROUP0
10
479.324378430515
20
1889.81559679222
30
0.000114893079918105
11
479.324378430515
21
1887.81559679222
31
0.000114893079918105
  0
LINE
 8
GROUP0
10
479.324378430515
20
1889.81559679222
30
0.000114893079918105
11
484.124378430515
21
1889.81559679222
31
0.000114893079918105
  0
LINE
 8
GROUP0
10
484.124378430515
20
1889.81559679222
30
0.000114893079918105
11
484.124378430515
21
1872.71548871177
31
0.000114893079918105
  0
LINE
 8
GROUP0
10
484.124378430515
20
1872.71548871177
30
0.000114893079918105
11
486.124378430515
21
1872.71548871177
31
0.000114893079918105
  0
LINE
 8
GROUP0
10
486.124378430515
20
1872.71548871177
30
0.000114893079918105
11
486.124378430515
21
1889.81559679222
31
0.000114893079918105
  0
LINE
 8
GROUP0
10
486.124378430515
20
1889.81559679222
30
0.000114893079918105
11
490.924378430515
21
1889.81559679222
31
0.000114893079918105
  0
LINE
 8
GROUP0
10
490.924378430515
20
1887.81559679222
30
0.000114893079918105
11
490.924378430515
21
1889.81559679222
31
0.000114893079918105
  0
LINE
 8
GROUP0
10
490.124378430515
20
1887.81559679222
30
0.000114893079918105
11
490.924378430515
21
1887.81559679222
31
0.000114893079918105
  0
LINE
 8
GROUP0
10
490.124378430515
20
1823.71548871177
30
0.000114893079963224
11
490.124378430515
21
1887.81559679222
31
0.000114893079918105
  0
LINE
 8
GROUP0
10
486.124378430515
20
1819.71548871177
30
0.000114893079963224
11
490.124378430515
21
1823.71548871177
31
0.000114893079963224
  0
LINE
 8
GROUP0
10
452.124385774802
20
1823.71548871177
30
0.000114893079918105
11
480.124378430516
21
1823.71548871177
31
0.000114893079918105
  0
LINE
 8
GROUP0
10
480.124378430516
20
1827.71548871177
30
0.000114893079918105
11
480.124378430516
21
1823.71548871177
31
0.000114893079918105
  0
LINE
 8
GROUP0
10
452.124385774802
20
1827.71548871177
30
0.000114893079963224
11
480.124378430516
21
1827.71548871177
31
0.000114893079918105
  0
LINE
 8
GROUP0
10
452.124385774802
20
1823.71548871177
30
0.000114893079918105
11
452.124385774802
21
1827.71548871177
31
0.000114893079963224
  0
LINE
 8
GROUP0
10
386.124400463374
20
1823.71548871177
30
0.000114893079918105
11
424.124393119088
21
1823.71548871177
31
0.000114893079918105
  0
LINE
 8
GROUP0
10
424.124393119088
20
1823.71548871177
30
0.000114893079918105
11
424.124393119088
21
1827.71548871177
31
0.000114893079963224
  0
LINE
 8
GROUP0
10
386.124400463374
20
1827.71548871177
30
0.000114893079963224
11
424.124393119088
21
1827.71548871177
31
0.000114893079963224
  0
LINE
 8
GROUP0
10
386.124400463374
20
1823.71548871177
30
0.000114893079918105
11
386.124400463374
21
1827.71548871177
31
0.000114893079963224
  0
LINE
 8
GROUP0
10
310.124415151947
20
1823.71548871177
30
0.000114893079918105
11
348.12440780766
21
1823.71548871177
31
0.000114893079918105
  0
LINE
 8
GROUP0
10
348.12440780766
20
1823.71548871177
30
0.000114893079918105
11
348.12440780766
21
1827.71548871177
31
0.000114893079963224
  0
LINE
 8
GROUP0
10
310.124415151947
20
1827.71548871177
30
0.000114893079963224
11
348.12440780766
21
1827.71548871177
31
0.000114893079963224
  0
LINE
 8
GROUP0
10
310.124415151947
20
1823.71548871177
30
0.000114893079918105
11
310.124415151947
21
1827.71548871177
31
0.000114893079963224
  0
LINE
 8
GROUP0
10
254.124429840519
20
1823.71548871177
30
0.000114893079918105
11
282.124422496233
21
1823.71548871177
31
0.000114893079918105
  0
LINE
 8
GROUP0
10
282.124422496233
20
1823.71548871177
30
0.000114893079918105
11
282.124422496233
21
1827.71548871177
31
0.000114893079963224
  0
LINE
 8
GROUP0
10
254.124429840519
20
1827.71548871177
30
0.000114893079918105
11
282.124422496233
21
1827.71548871177
31
0.000114893079963224
  0
LINE
 8
GROUP0
10
254.124429840519
20
1827.71548871177
30
0.000114893079918105
11
254.124429840519
21
1823.71548871177
31
0.000114893079918105
 0
ENDSEC
 0
EOF
