 0
SECTION
 2
ENTITIES
  0
LINE
 8
GROUP0
10
404.566706241319
20
1857.24279856723
30
8.4368821186942e-005
11
404.566706241321
21
1860.24279856723
31
8.3111496222088e-005
  0
LINE
 8
GROUP0
10
413.860922662476
20
1850.14472295564
30
0.000116645993040621
11
411.262846451127
21
1848.64472295564
31
0.000112857849766712
  0
LINE
 8
GROUP0
10
434.351315932085
20
1843.04664614453
30
4.88073320997984e-005
11
431.753239720732
21
1841.54664614453
31
4.84960383911215e-005
  0
LINE
 8
GROUP0
10
396.370553818622
20
1860.24279856723
30
8.3111496222088e-005
11
398.968630029972
21
1861.74279856723
31
8.68996404886246e-005
  0
LINE
 8
GROUP0
10
398.968630029972
20
1861.74279856723
30
8.68996404886246e-005
11
401.566706241321
21
1860.24279856723
31
9.19451093590595e-005
  0
LINE
 8
GROUP0
10
434.351315932113
20
1857.24279856723
30
9.32024335117632e-005
11
431.753239720763
21
1855.74279856723
31
8.94142897866601e-005
  0
LINE
 8
GROUP0
10
392.272478646026
20
1850.14472295567
30
8.60424481931688e-005
11
392.272478646029
21
1853.14472295566
31
8.47851234087926e-005
  0
LINE
 8
GROUP0
10
407.164782452658
20
1847.54664614455
30
7.39306516333471e-005
11
409.762858664009
21
1846.04664614454
31
7.62354502153784e-005
  0
LINE
 8
GROUP0
10
394.870554857379
20
1854.64472295566
30
8.85732671338957e-005
11
397.468631068727
21
1853.14472295566
31
9.36187356433749e-005
  0
LINE
 8
GROUP0
10
405.664781413847
20
1850.14472295567
30
9.4876060427751e-005
11
403.066705202497
21
1848.64472295567
31
9.10879160709754e-005
  0
LINE
 8
GROUP0
10
400.468628991148
20
1850.14472295567
30
8.60424481931688e-005
11
400.468628991151
21
1853.14472295566
31
8.47851234087926e-005
  0
LINE
 8
GROUP0
10
416.8609205849
20
1864.34087537831
30
0.000107812380354844
11
416.860920584902
21
1867.34087537831
31
0.000106555055841184
  0
LINE
 8
GROUP0
10
409.762858664019
20
1860.24279856723
30
9.19451093590595e-005
11
409.762858664017
21
1857.24279856723
31
9.32024335117632e-005
  0
LINE
 8
GROUP0
10
407.164782452671
20
1861.74279856723
30
8.68996402179079e-005
11
409.762858664019
21
1860.24279856723
31
9.19451093590595e-005
  0
LINE
 8
GROUP0
10
398.968630029965
20
1847.54664614455
30
8.37378587849713e-005
11
401.566706241316
21
1846.04664614455
31
8.60426574572415e-005
  0
LINE
 8
GROUP0
10
407.164782452667
20
1855.74279856723
30
8.94142897866601e-005
11
404.566706241319
21
1857.24279856723
31
8.4368821186942e-005
  0
LINE
 8
GROUP0
10
398.96863002996
20
1841.54664614455
30
8.77248679902465e-005
11
396.370553818609
21
1843.04664614455
31
8.54200701301266e-005
  0
LINE
 8
GROUP0
10
398.968630029969
20
1855.74279856723
30
8.94142897866601e-005
11
396.37055381862
21
1857.24279856723
31
8.4368821186942e-005
  0
LINE
 8
GROUP0
10
434.351315932087
20
1846.04664614453
30
4.68138282190722e-005
11
434.351315932085
21
1843.04664614453
31
4.88073320997984e-005
  0
LINE
 8
GROUP0
10
392.272478646029
20
1853.14472295566
30
8.47851234087926e-005
11
394.870554857379
21
1854.64472295566
31
8.85732671338957e-005
  0
LINE
 8
GROUP0
10
431.753239720763
20
1855.74279856723
30
8.94142897866601e-005
11
429.155163509415
21
1857.24279856723
31
8.4368821186942e-005
  0
LINE
 8
GROUP0
10
409.762858664007
20
1843.04664614455
30
7.8228954727777e-005
11
407.164782452654
21
1841.54664614455
31
7.79176607483834e-005
  0
LINE
 8
GROUP0
10
419.458996796248
20
1862.84087537831
30
0.000112857849676473
11
416.8609205849
21
1864.34087537831
31
0.000107812380354844
  0
LINE
 8
GROUP0
10
422.057073007601
20
1853.14472295564
30
0.000115388668436722
11
422.057073007598
21
1850.14472295564
31
0.000116645993040621
  0
LINE
 8
GROUP0
10
411.262846451127
20
1848.64472295564
30
0.000112857849766712
11
408.664770239777
21
1850.14472295564
31
0.000107812380535321
  0
LINE
 8
GROUP0
10
397.468631068725
20
1850.14472295567
30
9.4876060427751e-005
11
394.870554857375
21
1848.64472295567
31
9.10879161612144e-005
  0
LINE
 8
GROUP0
10
472.733982349844
20
1847.54665497214
30
8.46508828974635e-005
11
475.332058561195
21
1846.04665497214
31
8.69556816599726e-005
  0
LINE
 8
GROUP0
10
321.105219944284
20
1854.64470530044
30
8.28956020697547e-006
11
323.703296155632
21
1853.14470530044
31
1.33350286713352e-005
  0
LINE
 8
GROUP0
10
355.389811189501
20
1843.04663731694
30
4.52782166892263e-005
11
355.389811189503
21
1846.04663731694
31
4.32847119061108e-005
  0
LINE
 8
GROUP0
10
450.743601293116
20
1843.04665497216
30
0.000118370808168677
11
448.145525081762
21
1841.54665497216
31
0.000118059514189284
  0
LINE
 8
GROUP0
10
456.341677504458
20
1847.54665497215
30
0.000104265297742145
11
458.93975371581
21
1846.04665497215
31
0.000106570096233938
  0
LINE
 8
GROUP0
10
460.439739425349
20
1834.44857936058
30
0.000149837920736928
11
457.841663214
21
1835.94857936058
31
0.00014479245213721
  0
LINE
 8
GROUP0
10
461.939753715795
20
1843.04665497215
30
9.61403010332873e-005
11
461.939753715798
21
1846.04665497215
31
9.41467961599329e-005
  0
LINE
 8
GROUP0
10
468.635889770471
20
1840.44858377439
30
0.000156509232168744
11
471.233965981818
21
1838.94858377439
31
0.000161554700903821
  0
LINE
 8
GROUP0
10
450.743601293117
20
1846.04665497216
30
0.000116377303656279
11
450.743601293116
21
1843.04665497216
31
0.000118370808168677
  0
LINE
 8
GROUP0
10
463.037815636698
20
1835.94857936058
30
0.000153626065364421
11
460.439739425349
21
1834.44857936058
31
0.000149837920736928
  0
LINE
 8
GROUP0
10
461.939753715798
20
1846.04665497215
30
9.41467961599329e-005
11
464.537829927151
21
1847.54665497215
31
9.44580901393266e-005
  0
LINE
 8
GROUP0
10
448.145525081762
20
1841.54665497216
30
0.000118059514189284
11
445.54744887041
21
1843.04665497216
31
0.00011575471578773
  0
LINE
 8
GROUP0
10
470.135906138491
20
1846.04665497214
30
8.43395890083087e-005
11
472.733982349844
21
1847.54665497214
31
8.46508828974635e-005
  0
LINE
 8
GROUP0
10
468.635889770466
20
1834.4485837744
30
0.000159023881331422
11
466.037813559118
21
1835.9485837744
31
0.000153978412009792
  0
LINE
 8
GROUP0
10
453.743601293104
20
1846.04665497215
30
0.000103954003762752
11
456.341677504458
21
1847.54665497215
31
0.000104265297742145
  0
LINE
 8
GROUP0
10
458.939753715809
20
1843.04665497215
30
0.000108563600385381
11
456.341677504455
21
1841.54665497215
31
0.000108252306315748
  0
LINE
 8
GROUP0
10
457.841663214
20
1835.94857936058
30
0.00014479245213721
11
457.841663214002
21
1838.94857936058
31
0.000143535127578431
  0
LINE
 8
GROUP0
10
360.585963612206
20
1843.04663731694
30
4.78943086189787e-005
11
357.987887400852
21
1841.54663731694
31
4.75830145493461e-005
  0
LINE
 8
GROUP0
10
466.03781355912
20
1838.94858377439
30
0.000152721088488761
11
468.635889770471
21
1840.44858377439
31
0.000156509232168744
  0
LINE
 8
GROUP0
10
460.439739425352
20
1840.44857936058
30
0.000147323272296163
11
463.037815636701
21
1838.94857936058
31
0.000152368740625164
  0
LINE
 8
GROUP0
10
362.08596257338
20
1834.44856170538
30
4.77842809264217e-005
11
359.487886362032
21
1835.94856170538
31
4.27388125974204e-005
  0
LINE
 8
GROUP0
10
448.145525081766
20
1847.54665497216
30
0.000114072505074247
11
450.743601293117
21
1846.04665497216
31
0.000116377303656279
  0
LINE
 8
GROUP0
10
445.54744887041
20
1843.04665497216
30
0.00011575471578773
11
445.547448870412
21
1846.04665497216
31
0.000113761210914376
  0
LINE
 8
GROUP0
10
323.703296155632
20
1853.14470530044
30
1.33350286713352e-005
11
323.70329615563
21
1850.14470530044
31
1.45923535459502e-005
  0
LINE
 8
GROUP0
10
475.332058561193
20
1843.04665497214
30
8.89491855406988e-005
11
472.73398234984
21
1841.54665497214
31
8.86378918320219e-005
  0
LINE
 8
GROUP0
10
362.085962573385
20
1840.44856170538
30
4.52696323502977e-005
11
364.684038784732
21
1838.94856170538
31
5.03151009500158e-005
  0
LINE
 8
GROUP0
10
449.645512868878
20
1835.94857936058
30
0.000144792452588405
11
449.64551286888
21
1838.94857936058
31
0.00014353512766867
  0
LINE
 8
GROUP0
10
467.135906138502
20
1843.04665497215
30
9.87563935044733e-005
11
464.537829927147
21
1841.54665497215
31
9.84450988031682e-005
  0
LINE
 8
GROUP0
10
323.70329615563
20
1850.14470530044
30
1.45923535459502e-005
11
321.10521994428
21
1848.64470530044
31
1.08042091891747e-005
  0
LINE
 8
GROUP0
10
454.841665291576
20
1835.94857936058
30
0.000153626065364421
11
452.243589080226
21
1834.44857936058
31
0.000149837920736928
  0
LINE
 8
GROUP0
10
467.135906138503
20
1846.04665497214
30
9.67628888115968e-005
11
467.135906138502
21
1843.04665497215
31
9.87563935044733e-005
  0
LINE
 8
GROUP0
10
475.332058561195
20
1846.04665497214
30
8.69556816599726e-005
11
475.332058561193
21
1843.04665497214
31
8.89491855406988e-005
  0
LINE
 8
GROUP0
10
466.037813559128
20
1853.14473619707
30
0.000155882869786339
11
468.635889770478
21
1854.64473619707
31
0.000159671013962637
  0
LINE
 8
GROUP0
10
438.449373697826
20
1835.9485793606
30
0.000131856132616193
11
435.851297486475
21
1834.4485793606
31
0.000128067987853342
  0
LINE
 8
GROUP0
10
460.439739425356
20
1862.84088420593
30
0.000152999703117374
11
457.841663214008
21
1864.34088420593
31
0.000147954233795744
  0
LINE
 8
GROUP0
10
463.037815636707
20
1864.34088420593
30
0.000156787846210804
11
460.439739425356
21
1862.84088420593
31
0.000152999703117374
  0
LINE
 8
GROUP0
10
384.076328300901
20
1835.94856611917
30
7.36947050828718e-005
11
384.076328300903
21
1838.94856611917
31
7.24373815618406e-005
  0
LINE
 8
GROUP0
10
464.537829927147
20
1841.54665497215
30
9.84450988031682e-005
11
461.939753715795
21
1843.04665497215
31
9.61403010332873e-005
  0
LINE
 8
GROUP0
10
471.233965981824
20
1850.14473619707
30
0.000165973807166253
11
468.635889770475
21
1848.64473619707
31
0.000162185662989955
  0
LINE
 8
GROUP0
10
439.949372659073
20
1847.54665497216
30
0.000123879712225872
11
442.547448870425
21
1846.04665497216
31
0.000126184510898142
  0
LINE
 8
GROUP0
10
444.047447831601
20
1840.4485793606
30
0.000125553339232098
11
446.645524042949
21
1838.9485793606
31
0.000130598807831817
  0
LINE
 8
GROUP0
10
441.449371620251
20
1838.9485793606
30
0.000121765194965562
11
444.047447831601
21
1840.4485793606
31
0.000125553339232098
  0
LINE
 8
GROUP0
10
457.841663214008
20
1864.34088420593
30
0.000147954233795744
11
457.84166321401
21
1867.34088420593
31
0.000146696909282085
  0
LINE
 8
GROUP0
10
446.645524042947
20
1835.9485793606
30
0.000131856132751551
11
444.047447831597
21
1834.4485793606
31
0.000128067987853342
  0
LINE
 8
GROUP0
10
463.037815636701
20
1838.94857936058
30
0.000152368740625164
11
463.037815636698
21
1835.94857936058
31
0.000153626065364421
  0
LINE
 8
GROUP0
10
468.635889770475
20
1848.64473619707
30
0.000162185662989955
11
466.037813559126
21
1850.14473619707
31
0.000157140193758565
  0
LINE
 8
GROUP0
10
389.2724807236
20
1835.94856611917
30
8.25283180393654e-005
11
386.674404512249
21
1834.44856611917
31
7.87401744045013e-005
  0
LINE
 8
GROUP0
10
445.547448870412
20
1846.04665497216
30
0.000113761210914376
11
448.145525081766
21
1847.54665497216
31
0.000114072505074247
  0
LINE
 8
GROUP0
10
457.84166321401
20
1867.34088420593
30
0.000146696909282085
11
460.43973942536
21
1868.84088420593
31
0.000150485054180294
  0
LINE
 8
GROUP0
10
464.537829927151
20
1847.54665497215
30
9.44580901393266e-005
11
467.135906138503
21
1846.04665497214
31
9.67628888115968e-005
  0
LINE
 8
GROUP0
10
454.841665291584
20
1850.14473178325
30
0.000156787846481521
11
452.243589080235
21
1848.64473178325
31
0.000152999703207612
  0
LINE
 8
GROUP0
10
439.949372659069
20
1841.54665497217
30
0.000127866721431147
11
437.351296447717
21
1843.04665497217
31
0.000125561923571027
  0
LINE
 8
GROUP0
10
463.037815636709
20
1867.34088420593
30
0.000155530522238578
11
463.037815636707
21
1864.34088420593
31
0.000156787846210804
  0
LINE
 8
GROUP0
10
437.351296447717
20
1843.04665497217
30
0.000125561923571027
11
437.351296447719
21
1846.04665497216
31
0.000123568418787912
  0
LINE
 8
GROUP0
10
466.037813559118
20
1835.9485837744
30
0.000153978412009792
11
466.03781355912
21
1838.94858377439
31
0.000152721088488761
  0
LINE
 8
GROUP0
10
437.351296447719
20
1846.04665497216
30
0.000123568418787912
11
439.949372659073
21
1847.54665497216
31
0.000123879712225872
  0
LINE
 8
GROUP0
10
386.674404512254
20
1840.44856611917
30
7.62255252869437e-005
11
389.272480723601
21
1838.94856611917
31
8.12709939769007e-005
  0
LINE
 8
GROUP0
10
457.841663214002
20
1838.94857936058
30
0.000143535127578431
11
460.439739425352
21
1840.44857936058
31
0.000147323272296163
  0
LINE
 8
GROUP0
10
357.987887400852
20
1841.54663731694
30
4.75830145493461e-005
11
355.389811189501
21
1843.04663731694
31
4.52782166892263e-005
  0
LINE
 8
GROUP0
10
471.233965981818
20
1838.94858377439
30
0.000161554700903821
11
471.233965981817
21
1835.9485837744
31
0.000162812024966286
  0
LINE
 8
GROUP0
10
468.635889770478
20
1854.64473619707
30
0.000159671013962637
11
471.233965981827
21
1853.14473619707
31
0.000164716482381877
  0
LINE
 8
GROUP0
10
460.43973942536
20
1868.84088420593
30
0.000150485054180294
11
463.037815636709
21
1867.34088420593
31
0.000155530522238578
  0
LINE
 8
GROUP0
10
389.272480723601
20
1838.94856611917
30
8.12709939769007e-005
11
389.2724807236
21
1835.94856611917
31
8.25283180393654e-005
  0
LINE
 8
GROUP0
10
471.233965981817
20
1835.9485837744
30
0.000162812024966286
11
468.635889770466
21
1834.4485837744
31
0.000159023881331422
  0
LINE
 8
GROUP0
10
446.645524042949
20
1838.9485793606
30
0.000130598807831817
11
446.645524042947
21
1835.9485793606
31
0.000131856132751551
  0
LINE
 8
GROUP0
10
435.851297486479
20
1840.4485793606
30
0.00012555333995401
11
438.449373697828
21
1838.9485793606
31
0.000130598807922055
  0
LINE
 8
GROUP0
10
471.233965981827
20
1853.14473619707
30
0.000164716482381877
11
471.233965981824
21
1850.14473619707
31
0.000165973807166253
  0
LINE
 8
GROUP0
10
372.880180033359
20
1835.94856170535
30
7.33423584375004e-005
11
370.28210382201
21
1834.44856170535
31
6.9554213810008e-005
  0
LINE
 8
GROUP0
10
368.782116034901
20
1846.04663731693
30
3.6093596774478e-005
11
368.782116034899
21
1843.04663731693
31
3.80871012868766e-005
  0
LINE
 8
GROUP0
10
441.449371620249
20
1835.9485793606
30
0.000123022519479221
11
441.449371620251
21
1838.9485793606
31
0.000121765194965562
  0
LINE
 8
GROUP0
10
466.037813559126
20
1850.14473619707
30
0.000157140193758565
11
466.037813559128
21
1853.14473619707
31
0.000155882869786339
  0
LINE
 8
GROUP0
10
386.674404512249
20
1834.44856611917
30
7.87401744045013e-005
11
384.076328300901
21
1835.94856611917
31
7.36947050828718e-005
  0
LINE
 8
GROUP0
10
448.145525081779
20
1861.74280739484
30
0.000127041493658808
11
450.743601293128
21
1860.24280739484
31
0.00013208696279996
  0
LINE
 8
GROUP0
10
449.645512868886
20
1850.14473178325
30
0.000147954233976222
11
449.645512868888
21
1853.14473178325
31
0.000146696909552801
  0
LINE
 8
GROUP0
10
438.449373697835
20
1867.34088420595
30
0.000133760589264753
11
438.449373697833
21
1864.34088420595
31
0.000135017913868651
  0
LINE
 8
GROUP0
10
454.841665291587
20
1867.34088420593
30
0.000155530522328817
11
454.841665291585
21
1864.34088420593
31
0.000156787846210804
  0
LINE
 8
GROUP0
10
438.449373697833
20
1864.34088420595
30
0.000135017913868651
11
435.851297486483
21
1862.84088420595
31
0.000131229768970442
  0
LINE
 8
GROUP0
10
452.243589080238
20
1868.84088420593
30
0.000150485054180294
11
454.841665291587
21
1867.34088420593
31
0.000155530522328817
  0
LINE
 8
GROUP0
10
366.184039823549
20
1847.54663731693
30
3.37887981924467e-005
11
368.782116034901
21
1846.04663731693
31
3.6093596774478e-005
  0
LINE
 8
GROUP0
10
363.585963612193
20
1843.04663731694
30
3.54710089059296e-005
11
363.585963612195
21
1846.04663731693
31
3.34775040325752e-005
  0
LINE
 8
GROUP0
10
442.547448870423
20
1843.04665497216
30
0.000128178015500779
11
439.949372659069
21
1841.54665497217
31
0.000127866721431147
  0
LINE
 8
GROUP0
10
438.449373697828
20
1838.9485793606
30
0.000130598807922055
11
438.449373697826
21
1835.9485793606
31
0.000131856132616193
  0
LINE
 8
GROUP0
10
442.547448870425
20
1846.04665497216
30
0.000126184510898142
11
442.547448870423
21
1843.04665497216
31
0.000128178015500779
  0
LINE
 8
GROUP0
10
433.253221275135
20
1864.34088420595
30
0.000126184301273113
11
433.253221275137
21
1867.34088420595
31
0.000124926976488737
  0
LINE
 8
GROUP0
10
433.253221275129
20
1838.9485793606
30
0.000121765195055801
11
435.851297486479
21
1840.4485793606
31
0.00012555333995401
  0
LINE
 8
GROUP0
10
454.841665291587
20
1853.14473178325
30
0.000155530521967862
11
454.841665291584
21
1850.14473178325
31
0.000156787846481521
  0
LINE
 8
GROUP0
10
452.243589080235
20
1848.64473178325
30
0.000152999703207612
11
449.645512868886
21
1850.14473178325
31
0.000147954233976222
  0
LINE
 8
GROUP0
10
370.282103822014
20
1840.44856170535
30
6.70395655046008e-005
11
372.880180033361
21
1838.94856170535
31
7.2085033923841e-005
  0
LINE
 8
GROUP0
10
433.253221275126
20
1835.9485793606
30
0.000123022519479221
11
433.253221275129
21
1838.9485793606
31
0.000121765195055801
  0
LINE
 8
GROUP0
10
450.743601293126
20
1857.24280739484
30
0.000133344286952664
11
448.145525081775
21
1855.74280739484
31
0.00012955614322756
  0
LINE
 8
GROUP0
10
363.585963612195
20
1846.04663731693
30
3.34775040325752e-005
11
366.184039823549
21
1847.54663731693
31
3.37887981924467e-005
  0
LINE
 8
GROUP0
10
435.851297486475
20
1834.4485793606
30
0.000128067987853342
11
433.253221275126
21
1835.9485793606
31
0.000123022519479221
  0
LINE
 8
GROUP0
10
366.184039823546
20
1841.54663731693
30
3.7775807307483e-005
11
363.585963612193
21
1843.04663731694
31
3.54710089059296e-005
  0
LINE
 8
GROUP0
10
449.645512868888
20
1853.14473178325
30
0.000146696909552801
11
452.243589080238
21
1854.64473178325
31
0.000150485053909577
  0
LINE
 8
GROUP0
10
384.076328300903
20
1838.94856611917
30
7.24373815618406e-005
11
386.674404512254
21
1840.44856611917
31
7.62255252869437e-005
  0
LINE
 8
GROUP0
10
444.047447831597
20
1834.4485793606
30
0.000128067987853342
11
441.449371620249
21
1835.9485793606
31
0.000123022519479221
  0
LINE
 8
GROUP0
10
372.880180033361
20
1838.94856170535
30
7.2085033923841e-005
11
372.880180033359
21
1835.94856170535
31
7.33423584375004e-005
  0
LINE
 8
GROUP0
10
467.135906138525
20
1860.24280739484
30
0.00013208696279996
11
467.135906138523
21
1857.24280739484
31
0.000133344286952664
  0
LINE
 8
GROUP0
10
439.949372659077
20
1855.74280739484
30
0.00012955614322756
11
437.351296447728
21
1857.24280739484
31
0.000124510674627842
  0
LINE
 8
GROUP0
10
461.939753715827
20
1860.24280739484
30
0.000123253349662988
11
464.537829927177
21
1861.74280739484
31
0.000127041493929525
  0
LINE
 8
GROUP0
10
370.28210382201
20
1834.44856170535
30
6.9554213810008e-005
11
367.684027610661
21
1835.94856170535
31
6.45087456614846e-005
  0
LINE
 8
GROUP0
10
449.645512868886
20
1864.34088420593
30
0.000147954233795744
11
449.645512868887
21
1867.34088420593
31
0.000146696909372324
  0
LINE
 8
GROUP0
10
351.291736016912
20
1838.94856170538
30
4.1481488174e-005
11
353.889812228262
21
1840.44856170538
31
4.52696330722091e-005
  0
LINE
 8
GROUP0
10
468.635889770478
20
1868.84088861974
30
0.000159671014052876
11
471.233965981827
21
1867.34088861974
31
0.000164716482291638
  0
LINE
 8
GROUP0
10
356.487888439611
20
1838.94856170538
30
5.03151010402547e-005
11
356.487888439609
21
1835.94856170538
31
5.15724257343919e-005
  0
LINE
 8
GROUP0
10
356.487888439609
20
1835.94856170538
30
5.15724257343919e-005
11
353.889812228258
21
1834.44856170538
31
4.77842809264217e-005
  0
LINE
 8
GROUP0
10
453.743601293128
20
1860.24280739484
30
0.000123253349662988
11
456.341677504477
21
1861.74280739484
31
0.000127041493929525
  0
LINE
 8
GROUP0
10
467.135906138523
20
1857.24280739484
30
0.000133344286952664
11
464.537829927173
21
1855.74280739484
31
0.00012955614322756
  0
LINE
 8
GROUP0
10
353.889812228258
20
1834.44856170538
30
4.77842809264217e-005
11
351.291736016909
21
1835.94856170538
31
4.27388125974204e-005
  0
LINE
 8
GROUP0
10
367.684027610663
20
1838.94856170535
30
6.32514207868695e-005
11
370.282103822014
21
1840.44856170535
31
6.70395655046008e-005
  0
LINE
 8
GROUP0
10
368.782116034899
20
1843.04663731693
30
3.80871012868766e-005
11
366.184039823546
21
1841.54663731693
31
3.7775807307483e-005
  0
LINE
 8
GROUP0
10
435.851297486483
20
1862.84088420595
30
0.000131229768970442
11
433.253221275135
21
1864.34088420595
31
0.000126184301273113
  0
LINE
 8
GROUP0
10
468.635889770475
20
1862.84088861975
30
0.000162185662177805
11
466.037813559126
21
1864.34088861974
31
0.000157140193487848
  0
LINE
 8
GROUP0
10
435.851297486487
20
1868.84088420595
30
0.000128715120755274
11
438.449373697835
21
1867.34088420595
31
0.000133760589264753
  0
LINE
 8
GROUP0
10
367.684027610661
20
1835.94856170535
30
6.45087456614846e-005
11
367.684027610663
21
1838.94856170535
31
6.32514207868695e-005
  0
LINE
 8
GROUP0
10
452.243589080238
20
1854.64473178325
30
0.000150485053909577
11
454.841665291587
21
1853.14473178325
31
0.000155530521967862
  0
LINE
 8
GROUP0
10
449.645512868887
20
1867.34088420593
30
0.000146696909372324
11
452.243589080238
21
1868.84088420593
31
0.000150485054180294
  0
LINE
 8
GROUP0
10
466.037813559128
20
1867.34088861974
30
0.000155882869335144
11
468.635889770478
21
1868.84088861974
31
0.000159671014052876
  0
LINE
 8
GROUP0
10
454.841665291585
20
1864.34088420593
30
0.000156787846210804
11
452.243589080235
21
1862.84088420593
31
0.000152999703117374
  0
LINE
 8
GROUP0
10
450.743601293128
20
1860.24280739484
30
0.00013208696279996
11
450.743601293126
21
1857.24280739484
31
0.000133344286952664
  0
LINE
 8
GROUP0
10
433.253221275137
20
1867.34088420595
30
0.000124926976488737
11
435.851297486487
21
1868.84088420595
31
0.000128715120755274
  0
LINE
 8
GROUP0
10
452.243589080235
20
1862.84088420593
30
0.000152999703117374
11
449.645512868886
21
1864.34088420593
31
0.000147954233795744
  0
LINE
 8
GROUP0
10
466.037813559126
20
1864.34088861974
30
0.000157140193487848
11
466.037813559128
21
1867.34088861974
31
0.000155882869335144
  0
LINE
 8
GROUP0
10
445.547448870429
20
1860.24280739484
30
0.000123253349662988
11
448.145525081779
21
1861.74280739484
31
0.000127041493658808
  0
LINE
 8
GROUP0
10
461.939753715824
20
1857.24280739484
30
0.000124510674627842
11
461.939753715827
21
1860.24280739484
31
0.000123253349662988
  0
LINE
 8
GROUP0
10
453.743601293125
20
1857.24280739484
30
0.000124510674627842
11
453.743601293128
21
1860.24280739484
31
0.000123253349662988
  0
LINE
 8
GROUP0
10
437.351296447728
20
1857.24280739484
30
0.000124510674627842
11
437.351296447731
21
1860.24280739484
31
0.000123253349662988
  0
LINE
 8
GROUP0
10
351.291736016909
20
1835.94856170538
30
4.27388125974204e-005
11
351.291736016912
21
1838.94856170538
31
4.1481488174e-005
  0
LINE
 8
GROUP0
10
464.537829927173
20
1855.74280739484
30
0.00012955614322756
11
461.939753715824
21
1857.24280739484
31
0.000124510674627842
  0
LINE
 8
GROUP0
10
433.253221275137
20
1853.14473178328
30
0.000124926976849693
11
435.851297486487
21
1854.64473178328
31
0.000128715120574796
  0
LINE
 8
GROUP0
10
471.233965981827
20
1867.34088861974
30
0.000164716482291638
11
471.233965981825
21
1864.34088861974
31
0.000165973807076014
  0
LINE
 8
GROUP0
10
470.135906138525
20
1860.24280739484
30
0.000123253349662988
11
472.733982349875
21
1861.74280739484
31
0.000127041493929525
  0
LINE
 8
GROUP0
10
457.841663214008
20
1850.14473178325
30
0.000147954233976222
11
457.84166321401
21
1853.14473178325
31
0.000146696909823518
  0
LINE
 8
GROUP0
10
464.537829927177
20
1861.74280739484
30
0.000127041493929525
11
467.135906138525
21
1860.24280739484
31
0.00013208696279996
  0
LINE
 8
GROUP0
10
435.851297486487
20
1854.64473178328
30
0.000128715120574796
11
438.449373697835
21
1853.14473178328
31
0.000133760589084275
  0
LINE
 8
GROUP0
10
439.94937265908
20
1861.74280739484
30
0.000127041493929525
11
442.547448870429
21
1860.24280739484
31
0.00013208696279996
  0
LINE
 8
GROUP0
10
475.332058561221
20
1857.24280739484
30
0.000133344286952664
11
472.733982349871
21
1855.74280739484
31
0.00012955614322756
  0
LINE
 8
GROUP0
10
472.733982349875
20
1861.74280739484
30
0.000127041493929525
11
475.332058561223
21
1860.24280739484
31
0.00013208696279996
  0
LINE
 8
GROUP0
10
471.233965981825
20
1864.34088861974
30
0.000165973807076014
11
468.635889770475
21
1862.84088861975
31
0.000162185662177805
  0
LINE
 8
GROUP0
10
456.341677504477
20
1861.74280739484
30
0.000127041493929525
11
458.939753715826
21
1860.24280739484
31
0.00013208696279996
  0
LINE
 8
GROUP0
10
435.851297486483
20
1848.64473178328
30
0.000131229769602115
11
433.253221275135
21
1850.14473178328
31
0.000126184301634069
  0
LINE
 8
GROUP0
10
441.449371620257
20
1864.34088420595
30
0.000126184301273113
11
441.449371620258
21
1867.34088420595
31
0.000124926976398498
  0
LINE
 8
GROUP0
10
438.449373697833
20
1850.14473178328
30
0.000135017913868651
11
435.851297486483
21
1848.64473178328
31
0.000131229769602115
  0
LINE
 8
GROUP0
10
444.047447831605
20
1862.84088420595
30
0.000131229768970442
11
441.449371620257
21
1864.34088420595
31
0.000126184301273113
  0
LINE
 8
GROUP0
10
433.253221275135
20
1850.14473178328
30
0.000126184301634069
11
433.253221275137
21
1853.14473178328
31
0.000124926976849693
  0
LINE
 8
GROUP0
10
446.645524042955
20
1864.34088420595
30
0.000135017913868651
11
444.047447831605
21
1862.84088420595
31
0.000131229768970442
  0
LINE
 8
GROUP0
10
446.645524042958
20
1867.34088420595
30
0.000133760589264753
11
446.645524042955
21
1864.34088420595
31
0.000135017913868651
  0
LINE
 8
GROUP0
10
378.478254167132
20
1834.44856170535
30
6.9554213810008e-005
11
375.880177955783
21
1835.94856170535
31
6.45087452102899e-005
  0
LINE
 8
GROUP0
10
458.939753715826
20
1860.24280739484
30
0.00013208696279996
11
458.939753715824
21
1857.24280739484
31
0.000133344286952664
  0
LINE
 8
GROUP0
10
456.341677504474
20
1855.74280739484
30
0.00012955614322756
11
453.743601293125
21
1857.24280739484
31
0.000124510674627842
  0
LINE
 8
GROUP0
10
437.351296447731
20
1860.24280739484
30
0.000123253349662988
11
439.94937265908
21
1861.74280739484
31
0.000127041493929525
  0
LINE
 8
GROUP0
10
448.145525081775
20
1855.74280739484
30
0.00012955614322756
11
445.547448870427
21
1857.24280739484
31
0.000124510674627842
  0
LINE
 8
GROUP0
10
475.332058561223
20
1860.24280739484
30
0.00013208696279996
11
475.332058561221
21
1857.24280739484
31
0.000133344286952664
  0
LINE
 8
GROUP0
10
442.547448870426
20
1857.24280739484
30
0.000133344286952664
11
439.949372659077
21
1855.74280739484
31
0.00012955614322756
  0
LINE
 8
GROUP0
10
375.880177955783
20
1835.94856170535
30
6.45087452102899e-005
11
375.880177955786
21
1838.94856170535
31
6.32514206966306e-005
  0
LINE
 8
GROUP0
10
442.547448870429
20
1860.24280739484
30
0.00013208696279996
11
442.547448870426
21
1857.24280739484
31
0.000133344286952664
  0
LINE
 8
GROUP0
10
375.880177955786
20
1838.94856170535
30
6.32514206966306e-005
11
378.478254167136
21
1840.44856170535
31
6.70395654143618e-005
  0
LINE
 8
GROUP0
10
458.939753715824
20
1857.24280739484
30
0.000133344286952664
11
456.341677504474
21
1855.74280739484
31
0.00012955614322756
  0
LINE
 8
GROUP0
10
445.547448870427
20
1857.24280739484
30
0.000124510674627842
11
445.547448870429
21
1860.24280739484
31
0.000123253349662988
  0
LINE
 8
GROUP0
10
472.733982349871
20
1855.74280739484
30
0.00012955614322756
11
470.135906138523
21
1857.24280739484
31
0.000124510674627842
  0
LINE
 8
GROUP0
10
444.047447831609
20
1868.84088420595
30
0.000128715120755274
11
446.645524042958
21
1867.34088420595
31
0.000133760589264753
  0
LINE
 8
GROUP0
10
413.860922662476
20
1864.34087537831
30
0.000116645992769904
11
411.262846451127
21
1862.84087537831
31
0.000112857849676473
  0
LINE
 8
GROUP0
10
512.214708610935
20
1867.34089744736
30
0.000204858335732538
11
512.214708610933
21
1864.34089744736
31
0.000206115660516915
  0
LINE
 8
GROUP0
10
413.860922662468
20
1835.94857053296
30
0.000113484211878401
11
411.262846451118
21
1834.44857053297
31
0.000109696067250908
  0
LINE
 8
GROUP0
10
490.626255497995
20
1867.34089303354
30
0.000186838762813224
11
493.224331709347
21
1868.84089303354
31
0.000190626907621194
  0
LINE
 8
GROUP0
10
381.076330378484
20
1838.94856170535
30
7.20850337433632e-005
11
381.076330378481
21
1835.94856170535
31
7.33423584375004e-005
  0
LINE
 8
GROUP0
10
512.214708610933
20
1864.34089744736
30
0.000206115660516915
11
509.616632399583
21
1862.84089744736
31
0.000202327515618705
  0
LINE
 8
GROUP0
10
460.43973942536
20
1854.64473178325
30
0.000150485053909577
11
463.037815636709
21
1853.14473178325
31
0.000155530521877623
  0
LINE
 8
GROUP0
10
353.889812228262
20
1840.44856170538
30
4.52696330722091e-005
11
356.487888439611
21
1838.94856170538
31
5.03151010402547e-005
  0
LINE
 8
GROUP0
10
490.626255497994
20
1864.34089303354
30
0.000188096087236644
11
490.626255497995
21
1867.34089303354
31
0.000186838762813224
  0
LINE
 8
GROUP0
10
441.449371620257
20
1850.14473178328
30
0.000126184301634069
11
441.449371620259
21
1853.14473178328
31
0.000124926976849693
  0
LINE
 8
GROUP0
10
460.439739425357
20
1848.64473178325
30
0.000152999703207612
11
457.841663214008
21
1850.14473178325
31
0.000147954233976222
  0
LINE
 8
GROUP0
10
441.449371620258
20
1867.34088420595
30
0.000124926976398498
11
444.047447831609
21
1868.84088420595
31
0.000128715120755274
  0
LINE
 8
GROUP0
10
463.037815636707
20
1850.14473178325
30
0.000156787846481521
11
460.439739425357
21
1848.64473178325
31
0.000152999703207612
  0
LINE
 8
GROUP0
10
438.449373697835
20
1853.14473178328
30
0.000133760589084275
11
438.449373697833
21
1850.14473178328
31
0.000135017913868651
  0
LINE
 8
GROUP0
10
457.84166321401
20
1853.14473178325
30
0.000146696909823518
11
460.43973942536
21
1854.64473178325
31
0.000150485053909577
  0
LINE
 8
GROUP0
10
408.66477023977
20
1835.94857053296
30
0.000104650599102385
11
408.664770239772
21
1838.94857053296
31
0.00010339327422777
  0
LINE
 8
GROUP0
10
378.478254167136
20
1840.44856170535
30
6.70395654143618e-005
11
381.076330378484
21
1838.94856170535
31
7.20850337433632e-005
  0
LINE
 8
GROUP0
10
411.26284645113
20
1868.84087537831
30
0.000110343200694274
11
413.860922662479
21
1867.34087537831
31
0.000115388668842797
  0
LINE
 8
GROUP0
10
495.822407920693
20
1864.34089303354
30
0.000196929699651704
11
493.224331709343
21
1862.84089303354
31
0.000193141556558274
  0
LINE
 8
GROUP0
10
408.664770239777
20
1864.34087537831
30
0.000107812380354844
11
408.664770239779
21
1867.34087537831
31
0.000106555055886304
  0
LINE
 8
GROUP0
10
495.822407920695
20
1867.34089303354
30
0.000195672375769718
11
495.822407920693
21
1864.34089303354
31
0.000196929699651704
  0
LINE
 8
GROUP0
10
493.224331709347
20
1868.84089303354
30
0.000190626907621194
11
495.822407920695
21
1867.34089303354
31
0.000195672375769718
  0
LINE
 8
GROUP0
10
507.018556188236
20
1867.34089744736
30
0.000196024722776045
11
509.616632399586
21
1868.84089744736
31
0.000199812867493776
  0
LINE
 8
GROUP0
10
509.616632399583
20
1862.84089744736
30
0.000202327515618705
11
507.018556188234
21
1864.34089744736
31
0.000197282046928748
  0
LINE
 8
GROUP0
10
413.860922662479
20
1867.34087537831
30
0.000115388668842797
11
413.860922662476
21
1864.34087537831
31
0.000116645992769904
  0
LINE
 8
GROUP0
10
381.076330378481
20
1835.94856170535
30
7.33423584375004e-005
11
378.478254167132
21
1834.44856170535
31
6.9554213810008e-005
  0
LINE
 8
GROUP0
10
411.262846451118
20
1834.44857053297
30
0.000109696067250908
11
408.66477023977
21
1835.94857053296
31
0.000104650599102385
  0
LINE
 8
GROUP0
10
411.262846451122
20
1840.44857053296
30
0.000107181418945501
11
413.86092266247
21
1838.94857053296
31
0.000112226887364741
  0
LINE
 8
GROUP0
10
408.664770239772
20
1838.94857053296
30
0.00010339327422777
11
411.262846451122
21
1840.44857053296
31
0.000107181418945501
  0
LINE
 8
GROUP0
10
470.135906138523
20
1857.24280739484
30
0.000124510674627842
11
470.135906138525
21
1860.24280739484
31
0.000123253349662988
  0
LINE
 8
GROUP0
10
463.037815636709
20
1853.14473178325
30
0.000155530521877623
11
463.037815636707
21
1850.14473178325
31
0.000156787846481521
  0
LINE
 8
GROUP0
10
446.645524042957
20
1853.14473178328
30
0.000133760588994036
11
446.645524042955
21
1850.14473178328
31
0.000135017913868651
  0
LINE
 8
GROUP0
10
419.458996796241
20
1834.44857053297
30
0.000109696067250908
11
416.860920584892
21
1835.94857053296
31
0.00010465059865119
  0
LINE
 8
GROUP0
10
493.224331709343
20
1862.84089303354
30
0.000193141556558274
11
490.626255497994
21
1864.34089303354
31
0.000188096087236644
  0
LINE
 8
GROUP0
10
486.528191499535
20
1857.24281622245
30
0.000164652528068743
11
486.528191499538
21
1860.24281622245
31
0.000163395203103889
  0
LINE
 8
GROUP0
10
480.930115288189
20
1861.74281622245
30
0.000167183347370425
11
483.528191499538
21
1860.24281622245
31
0.00017222881624086
  0
LINE
 8
GROUP0
10
403.066705202497
20
1862.84087537834
30
9.10879155295419e-005
11
400.468628991148
21
1864.34087537834
31
8.6042447832213e-005
  0
LINE
 8
GROUP0
10
444.047447831605
20
1848.64473178328
30
0.000131229769511876
11
441.449371620257
21
1850.14473178328
31
0.000126184301634069
  0
LINE
 8
GROUP0
10
423.557087298064
20
1855.74279856723
30
8.94142897866601e-005
11
420.959011086716
21
1857.24279856723
31
8.4368821186942e-005
  0
LINE
 8
GROUP0
10
403.066705202501
20
1868.84087537834
30
8.85732672692541e-005
11
405.664781413849
21
1867.34087537834
31
9.36187357787333e-005
  0
LINE
 8
GROUP0
10
408.664770239779
20
1867.34087537831
30
0.000106555055886304
11
411.26284645113
21
1868.84087537831
31
0.000110343200694274
  0
LINE
 8
GROUP0
10
416.860920584892
20
1835.94857053296
30
0.00010465059865119
11
416.860920584894
21
1838.94857053296
31
0.000103393274137531
  0
LINE
 8
GROUP0
10
422.05707300759
20
1835.94857053296
30
0.000113484211878401
11
419.458996796241
21
1834.44857053297
31
0.000109696067250908
  0
LINE
 8
GROUP0
10
444.047447831609
20
1854.64473178328
30
0.000128715120574796
11
446.645524042957
21
1853.14473178328
31
0.000133760588994036
  0
LINE
 8
GROUP0
10
419.458996796252
20
1854.64472295564
30
0.000110343200468677
11
422.057073007601
21
1853.14472295564
31
0.000115388668436722
  0
LINE
 8
GROUP0
10
489.126267710887
20
1861.74281622245
30
0.000167183347099709
11
491.724343922236
21
1860.24281622245
31
0.00017222881624086
  0
LINE
 8
GROUP0
10
441.449371620259
20
1853.14473178328
30
0.000124926976849693
11
444.047447831609
21
1854.64473178328
31
0.000128715120574796
  0
LINE
 8
GROUP0
10
491.724343922236
20
1860.24281622245
30
0.00017222881624086
11
491.724343922234
21
1857.24281622245
31
0.000173486140393564
  0
LINE
 8
GROUP0
10
400.46862899115
20
1867.34087537834
30
8.47851229124785e-005
11
403.066705202501
21
1868.84087537834
31
8.85732672692541e-005
  0
LINE
 8
GROUP0
10
419.458996796248
20
1848.64472295564
30
0.000112857849766712
11
416.8609205849
21
1850.14472295564
31
0.000107812380535321
  0
LINE
 8
GROUP0
10
411.262846451127
20
1862.84087537831
30
0.000112857849676473
11
408.664770239777
21
1864.34087537831
31
0.000107812380354844
  0
LINE
 8
GROUP0
10
507.018556188234
20
1864.34089744736
30
0.000197282046928748
11
507.018556188236
21
1867.34089744736
31
0.000196024722776045
  0
LINE
 8
GROUP0
10
405.664781413849
20
1867.34087537834
30
9.36187357787333e-005
11
405.664781413846
21
1864.34087537834
31
9.4876060427751e-005
  0
LINE
 8
GROUP0
10
413.86092266247
20
1838.94857053296
30
0.000112226887364741
11
413.860922662468
21
1835.94857053296
31
0.000113484211878401
  0
LINE
 8
GROUP0
10
426.155163509417
20
1860.24279856723
30
9.19451093590595e-005
11
426.155163509414
21
1857.24279856723
31
9.32024335117632e-005
  0
LINE
 8
GROUP0
10
423.557087298068
20
1861.74279856723
30
8.68996404886246e-005
11
426.155163509417
21
1860.24279856723
31
9.19451093590595e-005
  0
LINE
 8
GROUP0
10
478.332039076839
20
1860.24281622245
30
0.000163395203103889
11
480.930115288189
21
1861.74281622245
31
0.000167183347370425
  0
LINE
 8
GROUP0
10
405.664781413846
20
1864.34087537834
30
9.4876060427751e-005
11
403.066705202497
21
1862.84087537834
31
9.10879155295419e-005
  0
LINE
 8
GROUP0
10
486.528191499538
20
1860.24281622245
30
0.000163395203103889
11
489.126267710887
21
1861.74281622245
31
0.000167183347099709
  0
LINE
 8
GROUP0
10
420.959011086718
20
1860.24279856723
30
8.3111496222088e-005
11
423.557087298068
21
1861.74279856723
31
8.68996404886246e-005
  0
LINE
 8
GROUP0
10
478.332039076837
20
1857.24281622245
30
0.000164652528068743
11
478.332039076839
21
1860.24281622245
31
0.000163395203103889
  0
LINE
 8
GROUP0
10
509.616632399586
20
1868.84089744736
30
0.000199812867493776
11
512.214708610935
21
1867.34089744736
31
0.000204858335732538
  0
LINE
 8
GROUP0
10
446.645524042955
20
1850.14473178328
30
0.000135017913868651
11
444.047447831605
21
1848.64473178328
31
0.000131229769511876
  0
LINE
 8
GROUP0
10
420.959011086716
20
1857.24279856723
30
8.4368821186942e-005
11
420.959011086718
21
1860.24279856723
31
8.3111496222088e-005
  0
LINE
 8
GROUP0
10
396.370553818609
20
1843.04664614455
30
8.54200701301266e-005
11
396.370553818611
21
1846.04664614455
31
8.34265653470112e-005
  0
LINE
 8
GROUP0
10
491.724343922234
20
1857.24281622245
30
0.000173486140393564
11
489.126267710884
21
1855.74281622245
31
0.000169697996668461
  0
LINE
 8
GROUP0
10
422.057073007598
20
1850.14472295564
30
0.000116645993040621
11
419.458996796248
21
1848.64472295564
31
0.000112857849766712
  0
LINE
 8
GROUP0
10
480.930115288185
20
1855.74281622245
30
0.000169697996668461
11
478.332039076837
21
1857.24281622245
31
0.000164652528068743
  0
LINE
 8
GROUP0
10
431.753239720732
20
1841.54664614453
30
4.84960383911215e-005
11
429.15516350938
21
1843.04664614453
31
4.61912403505238e-005
  0
LINE
 8
GROUP0
10
401.566706241318
20
1857.24279856723
30
9.32024335117632e-005
11
398.968630029969
21
1855.74279856723
31
8.94142897866601e-005
  0
LINE
 8
GROUP0
10
419.458996796244
20
1840.44857053296
30
0.000107181418855262
11
422.057073007593
21
1838.94857053296
31
0.000112226887184264
  0
LINE
 8
GROUP0
10
483.528191499535
20
1857.24281622245
30
0.000173486140393564
11
480.930115288185
21
1855.74281622245
31
0.000169697996668461
  0
LINE
 8
GROUP0
10
422.057073007593
20
1838.94857053296
30
0.000112226887184264
11
422.05707300759
21
1835.94857053296
31
0.000113484211878401
  0
LINE
 8
GROUP0
10
396.370553818611
20
1846.04664614455
30
8.34265653470112e-005
11
398.968630029965
21
1847.54664614455
31
8.37378587849713e-005
  0
LINE
 8
GROUP0
10
403.066705202497
20
1848.64472295567
30
9.10879160709754e-005
11
400.468628991148
21
1850.14472295567
31
8.60424481931688e-005
  0
LINE
 8
GROUP0
10
396.37055381862
20
1857.24279856723
30
8.4368821186942e-005
11
396.370553818622
21
1860.24279856723
31
8.3111496222088e-005
  0
LINE
 8
GROUP0
10
431.753239720736
20
1847.54664614453
30
4.45090294565631e-005
11
434.351315932087
21
1846.04664614453
31
4.68138282190722e-005
  0
LINE
 8
GROUP0
10
409.762858664009
20
1846.04664614454
30
7.62354502153784e-005
11
409.762858664007
21
1843.04664614455
31
7.8228954727777e-005
  0
LINE
 8
GROUP0
10
416.8609205849
20
1850.14472295564
30
0.000107812380535321
11
416.860920584902
21
1853.14472295564
31
0.000106555056382618
  0
LINE
 8
GROUP0
10
429.15516350938
20
1843.04664614453
30
4.61912403505238e-005
11
429.155163509382
21
1846.04664614453
31
4.41977355674084e-005
  0
LINE
 8
GROUP0
10
403.066705202501
20
1854.64472295566
30
8.85732671338957e-005
11
405.664781413849
21
1853.14472295566
31
9.36187355531359e-005
  0
LINE
 8
GROUP0
10
401.566706241314
20
1843.04664614455
30
8.80361620598791e-005
11
398.96863002996
21
1841.54664614455
31
8.77248679902465e-005
  0
LINE
 8
GROUP0
10
401.566706241316
20
1846.04664614455
30
8.60426574572415e-005
11
401.566706241314
21
1843.04664614455
31
8.80361620598791e-005
  0
LINE
 8
GROUP0
10
405.664781413849
20
1853.14472295566
30
9.36187355531359e-005
11
405.664781413847
21
1850.14472295567
31
9.4876060427751e-005
  0
LINE
 8
GROUP0
10
426.155163509414
20
1857.24279856723
30
9.32024335117632e-005
11
423.557087298064
21
1855.74279856723
31
8.94142897866601e-005
  0
LINE
 8
GROUP0
10
404.566706241321
20
1860.24279856723
30
8.3111496222088e-005
11
407.164782452671
21
1861.74279856723
31
8.68996402179079e-005
  0
LINE
 8
GROUP0
10
483.528191499538
20
1860.24281622245
30
0.00017222881624086
11
483.528191499535
21
1857.24281622245
31
0.000173486140393564
  0
LINE
 8
GROUP0
10
416.860920584894
20
1838.94857053296
30
0.000103393274137531
11
419.458996796244
21
1840.44857053296
31
0.000107181418855262
  0
LINE
 8
GROUP0
10
409.762858664017
20
1857.24279856723
30
9.32024335117632e-005
11
407.164782452667
21
1855.74279856723
31
8.94142897866601e-005
  0
LINE
 8
GROUP0
10
400.468628991151
20
1853.14472295566
30
8.47851234087926e-005
11
403.066705202501
21
1854.64472295566
31
8.85732671338957e-005
  0
LINE
 8
GROUP0
10
416.860920584902
20
1853.14472295564
30
0.000106555056382618
11
419.458996796252
21
1854.64472295564
31
0.000110343200468677
  0
LINE
 8
GROUP0
10
489.126267710884
20
1855.74281622245
30
0.000169697996668461
11
486.528191499535
21
1857.24281622245
31
0.000164652528068743
  0
LINE
 8
GROUP0
10
400.468628991148
20
1864.34087537834
30
8.6042447832213e-005
11
400.46862899115
21
1867.34087537834
31
8.47851229124785e-005
  0
LINE
 8
GROUP0
10
429.155163509382
20
1846.04664614453
30
4.41977355674084e-005
11
431.753239720736
21
1847.54664614453
31
4.45090294565631e-005
  0
LINE
 8
GROUP0
10
401.566706241321
20
1860.24279856723
30
9.19451093590595e-005
11
401.566706241318
21
1857.24279856723
31
9.32024335117632e-005
  0
LINE
 8
GROUP0
10
299.262901556127
20
1885.74481779469
30
0.0
11
299.262901556127
21
1884.74481779469
31
0.0
  0
LINE
 8
GROUP0
10
298.262901556127
20
1884.74481779469
30
0.0
11
299.262901556127
21
1884.74481779469
31
0.0
  0
LINE
 8
GROUP0
10
299.262905251128
20
1880.64472818925
30
0.0
11
299.262905251128
21
1868.64472079927
31
0.0
  0
LINE
 8
GROUP0
10
535.26284645113
20
1885.74481779469
30
0.0
11
535.26284645113
21
1884.74481779469
31
0.0
  0
LINE
 8
GROUP0
10
534.26284645113
20
1886.74481779469
30
0.0
11
535.26284645113
21
1885.74481779469
31
0.0
  0
LINE
 8
GROUP0
10
333.399449617152
20
1861.742780912
30
6.61593356170442e-006
11
335.997525828501
21
1860.242780912
31
1.16614024321393e-005
  0
LINE
 8
GROUP0
10
310.31099338781
20
1850.14470530044
30
5.758741311368e-006
11
310.310993387812
21
1853.14470530044
31
4.50141648187241e-006
  0
LINE
 8
GROUP0
10
319.605220983101
20
1857.242780912
30
1.29187265848429e-005
11
317.007144771752
21
1855.742780912
31
9.13058285973989e-006
  0
LINE
 8
GROUP0
10
330.801373405803
20
1860.242780912
30
2.8277892951678e-006
11
333.399449617152
21
1861.742780912
31
6.61593356170442e-006
  0
LINE
 8
GROUP0
10
327.801373405801
20
1857.242780912
30
1.29187265848429e-005
11
325.20329719445
21
1855.742780912
31
9.13058285973989e-006
  0
LINE
 8
GROUP0
10
340.095587749384
20
1867.34085772309
30
3.51049618707577e-005
11
340.095587749382
21
1864.34085772309
31
3.63622858429835e-005
  0
LINE
 8
GROUP0
10
315.50714581051
20
1853.14470530044
30
1.33350287164546e-005
11
315.507145810508
21
1850.14470530044
31
1.45923535459502e-005
  0
LINE
 8
GROUP0
10
315.507145810508
20
1850.14470530044
30
1.45923535459502e-005
11
312.909069599158
21
1848.64470530044
31
1.08042092794136e-005
  0
LINE
 8
GROUP0
10
322.605220983102
20
1857.242780912
30
4.08511426002178e-006
11
322.605220983104
21
1860.242780912
31
2.8277892951678e-006
  0
LINE
 8
GROUP0
10
310.310993387812
20
1853.14470530044
30
4.50141648187241e-006
11
312.909069599162
21
1854.64470530044
31
8.28956020697547e-006
  0
LINE
 8
GROUP0
10
317.007144771755
20
1861.742780912
30
6.61593356170442e-006
11
319.605220983104
21
1860.242780912
31
1.16614024321393e-005
  0
LINE
 8
GROUP0
10
335.997525828499
20
1857.242780912
30
1.29187265848429e-005
11
333.399449617149
21
1855.742780912
31
9.13058285973989e-006
  0
LINE
 8
GROUP0
10
312.909069599158
20
1848.64470530044
30
1.08042092794136e-005
11
310.31099338781
21
1850.14470530044
31
5.758741311368e-006
  0
LINE
 8
GROUP0
10
312.909069599162
20
1854.64470530044
30
8.28956020697547e-006
11
315.50714581051
21
1853.14470530044
31
1.33350287164546e-005
  0
LINE
 8
GROUP0
10
327.801373405803
20
1860.242780912
30
1.16614024321393e-005
11
327.801373405801
21
1857.242780912
31
1.29187265848429e-005
  0
LINE
 8
GROUP0
10
330.8013734058
20
1857.242780912
30
4.08511426002178e-006
11
330.801373405803
21
1860.242780912
31
2.8277892951678e-006
  0
LINE
 8
GROUP0
10
314.409068560403
20
1857.242780912
30
4.08511426002178e-006
11
314.409068560406
21
1860.242780912
31
2.8277892951678e-006
  0
LINE
 8
GROUP0
10
317.007144771752
20
1855.742780912
30
9.13058285973989e-006
11
314.409068560403
21
1857.242780912
31
4.08511426002178e-006
  0
LINE
 8
GROUP0
10
334.899435326683
20
1864.34085772309
30
2.75286734279234e-005
11
334.899435326685
21
1867.34085772309
31
2.62713489142641e-005
  0
LINE
 8
GROUP0
10
314.409068560406
20
1860.242780912
30
2.8277892951678e-006
11
317.007144771755
21
1861.742780912
31
6.61593356170442e-006
  0
LINE
 8
GROUP0
10
337.497511538035
20
1868.84085772309
30
3.00594938124732e-005
11
340.095587749384
21
1867.34085772309
31
3.51049618707577e-005
  0
LINE
 8
GROUP0
10
337.497511538031
20
1862.84085772309
30
3.25741427495529e-005
11
334.899435326683
21
1864.34085772309
31
2.75286734279234e-005
  0
LINE
 8
GROUP0
10
322.605220983104
20
1860.242780912
30
2.8277892951678e-006
11
325.203297194454
21
1861.742780912
31
6.61593329098764e-006
  0
LINE
 8
GROUP0
10
321.10521994428
20
1862.84085772312
30
1.08042086026217e-005
11
318.507143732932
21
1864.34085772311
31
5.75874090529282e-006
  0
LINE
 8
GROUP0
10
340.095587749382
20
1864.34085772309
30
3.63622858429835e-005
11
337.497511538031
21
1862.84085772309
31
3.25741427495529e-005
  0
LINE
 8
GROUP0
10
298.262901556127
20
1886.74481779469
30
0.0
11
299.262901556127
21
1885.74481779469
31
0.0
  0
LINE
 8
GROUP0
10
334.899435326685
20
1867.34085772309
30
2.62713489142641e-005
11
337.497511538035
21
1868.84085772309
31
3.00594938124732e-005
  0
LINE
 8
GROUP0
10
335.997525828501
20
1860.242780912
30
1.16614024321393e-005
11
335.997525828499
21
1857.242780912
31
1.29187265848429e-005
  0
LINE
 8
GROUP0
10
325.203297194454
20
1861.742780912
30
6.61593329098764e-006
11
327.801373405803
21
1860.242780912
31
1.16614024321393e-005
  0
LINE
 8
GROUP0
10
288.262901556127
20
1886.74479931638
30
0.0
11
287.262901556127
21
1885.74480855554
31
0.0
  0
LINE
 8
GROUP0
10
333.399449617149
20
1855.742780912
30
9.13058285973989e-006
11
330.8013734058
21
1857.242780912
31
4.08511426002178e-006
  0
LINE
 8
GROUP0
10
319.605220983104
20
1860.242780912
30
1.16614024321393e-005
11
319.605220983101
21
1857.242780912
31
1.29187265848429e-005
  0
LINE
 8
GROUP0
10
331.89943740426
20
1864.34085772309
30
3.63622858429835e-005
11
329.30136119291
21
1862.84085772309
31
3.25741427495529e-005
  0
LINE
 8
GROUP0
10
341.595602039848
20
1855.742780912
30
9.13058290485935e-006
11
338.997525828499
21
1857.242780912
31
4.08511426002178e-006
  0
LINE
 8
GROUP0
10
323.703296155633
20
1867.34085772311
30
1.33350288969325e-005
11
323.70329615563
21
1864.34085772311
31
1.45923535008308e-005
  0
LINE
 8
GROUP0
10
343.095585671801
20
1864.34086213691
30
3.67146331200274e-005
11
343.095585671803
21
1867.34086213691
31
3.54573089673238e-005
  0
LINE
 8
GROUP0
10
312.909069599162
20
1868.84085772311
30
8.28956038745332e-006
11
315.50714581051
21
1867.34085772311
31
1.33350288969325e-005
  0
LINE
 8
GROUP0
10
345.693661883153
20
1868.84086213691
30
3.92454536850551e-005
11
348.291738094502
21
1867.34086213691
31
4.42909219238175e-005
  0
LINE
 8
GROUP0
10
315.507145810508
20
1864.34085772311
30
1.45923535008308e-005
11
312.909069599158
21
1862.84085772312
31
1.08042086026217e-005
  0
LINE
 8
GROUP0
10
344.1936782512
20
1860.242780912
30
1.16614024321393e-005
11
344.193678251198
21
1857.242780912
31
1.29187265848429e-005
  0
LINE
 8
GROUP0
10
348.291738094499
20
1850.14470971424
30
4.5548246843552e-005
11
345.693661883149
21
1848.64470971424
31
4.17601026672543e-005
  0
LINE
 8
GROUP0
10
310.310993387812
20
1867.34085772311
30
4.5014161209167e-006
11
312.909069599162
21
1868.84085772311
31
8.28956038745332e-006
  0
LINE
 8
GROUP0
10
345.693661883149
20
1848.64470971424
30
4.17601026672543e-005
11
343.095585671801
21
1850.14470971424
31
3.67146334358637e-005
  0
LINE
 8
GROUP0
10
323.70329615563
20
1864.34085772311
30
1.45923535008308e-005
11
321.10521994428
21
1862.84085772312
31
1.08042086026217e-005
  0
LINE
 8
GROUP0
10
338.997525828499
20
1857.242780912
30
4.08511426002178e-006
11
338.997525828502
21
1860.242780912
31
2.8277892951678e-006
  0
LINE
 8
GROUP0
10
343.095585671801
20
1850.14470971424
30
3.67146334358637e-005
11
343.095585671803
21
1853.14470971423
31
3.54573094636379e-005
  0
LINE
 8
GROUP0
10
348.291738094502
20
1853.14470971424
30
4.42909220591758e-005
11
348.291738094499
21
1850.14470971424
31
4.5548246843552e-005
  0
LINE
 8
GROUP0
10
325.20329719445
20
1855.742780912
30
9.13058285973989e-006
11
322.605220983102
21
1857.242780912
31
4.08511426002178e-006
  0
LINE
 8
GROUP0
10
348.2917380945
20
1864.34086213691
30
4.55482467081936e-005
11
345.693661883149
21
1862.84086213691
31
4.17601018099845e-005
  0
LINE
 8
GROUP0
10
343.095585671803
20
1867.34086213691
30
3.54573089673238e-005
11
345.693661883153
21
1868.84086213691
31
3.92454536850551e-005
  0
LINE
 8
GROUP0
10
345.693661883149
20
1862.84086213691
30
4.17601018099845e-005
11
343.095585671801
21
1864.34086213691
31
3.67146331200274e-005
  0
LINE
 8
GROUP0
10
344.193678251198
20
1857.242780912
30
1.29187265848429e-005
11
341.595602039848
21
1855.742780912
31
9.13058290485935e-006
  0
LINE
 8
GROUP0
10
341.595602039852
20
1861.742780912
30
6.61593356170442e-006
11
344.1936782512
21
1860.242780912
31
1.16614024321393e-005
  0
LINE
 8
GROUP0
10
345.693661883153
20
1854.64470971423
30
3.92454536399356e-005
11
348.291738094502
21
1853.14470971424
31
4.42909220591758e-005
  0
LINE
 8
GROUP0
10
348.291738094502
20
1867.34086213691
30
4.42909219238175e-005
11
348.2917380945
21
1864.34086213691
31
4.55482467081936e-005
  0
LINE
 8
GROUP0
10
338.997525828502
20
1860.242780912
30
2.8277892951678e-006
11
341.595602039852
21
1861.742780912
31
6.61593356170442e-006
  0
LINE
 8
GROUP0
10
318.507143732933
20
1867.34085772311
30
4.50141603067777e-006
11
321.105219944284
21
1868.84085772311
31
8.28956038745332e-006
  0
LINE
 8
GROUP0
10
318.507143732932
20
1864.34085772311
30
5.75874090529282e-006
11
318.507143732933
21
1867.34085772311
31
4.50141603067777e-006
  0
LINE
 8
GROUP0
10
312.909069599158
20
1862.84085772312
30
1.08042086026217e-005
11
310.31099338781
21
1864.34085772311
31
5.75874090529282e-006
  0
LINE
 8
GROUP0
10
315.50714581051
20
1867.34085772311
30
1.33350288969325e-005
11
315.507145810508
21
1864.34085772311
31
1.45923535008308e-005
  0
LINE
 8
GROUP0
10
321.105219944284
20
1868.84085772311
30
8.28956038745332e-006
11
323.703296155633
21
1867.34085772311
31
1.33350288969325e-005
  0
LINE
 8
GROUP0
10
389.27248072361
20
1853.14471854185
30
8.44327755000762e-005
11
389.272480723608
21
1850.14471854185
31
8.56901002844523e-005
  0
LINE
 8
GROUP0
10
343.095585671803
20
1853.14470971423
30
3.54573094636379e-005
11
345.693661883153
21
1854.64470971423
31
3.92454536399356e-005
  0
LINE
 8
GROUP0
10
310.31099338781
20
1864.34085772311
30
5.75874090529282e-006
11
310.310993387812
21
1867.34085772311
31
4.5014161209167e-006
  0
LINE
 8
GROUP0
10
376.978268457594
20
1846.04663731693
30
2.6286389352137e-005
11
376.978268457593
21
1843.04663731693
31
2.827989350358e-005
  0
LINE
 8
GROUP0
10
326.703284981563
20
1853.14470530042
30
2.62713492301003e-005
11
329.301361192913
21
1854.64470530042
31
3.00594935868759e-005
  0
LINE
 8
GROUP0
10
371.782116034886
20
1843.04663731693
30
2.56638011226329e-005
11
371.782116034888
21
1846.04663731693
31
2.3670296880951e-005
  0
LINE
 8
GROUP0
10
371.782116034888
20
1846.04663731693
30
2.3670296880951e-005
11
374.380192246241
21
1847.54663731693
31
2.39815908603447e-005
  0
LINE
 8
GROUP0
10
326.703284981561
20
1864.34085772309
30
2.75286734279234e-005
11
326.703284981562
21
1867.34085772309
31
2.6271349004503e-005
  0
LINE
 8
GROUP0
10
389.272480723608
20
1850.14471854185
30
8.56901002844523e-005
11
386.674404512258
21
1848.64471854185
31
8.19019561081546e-005
  0
LINE
 8
GROUP0
10
331.899437404262
20
1853.14470530042
30
3.51049616451604e-005
11
331.899437404259
21
1850.14470530042
31
3.63622861588198e-005
  0
LINE
 8
GROUP0
10
329.301361192913
20
1854.64470530042
30
3.00594935868759e-005
11
331.899437404262
21
1853.14470530042
31
3.51049616451604e-005
  0
LINE
 8
GROUP0
10
310.310993387804
20
1838.94855287776
30
1.33963473309961e-006
11
312.909069599154
21
1840.44855287776
31
5.12777963130873e-006
  0
LINE
 8
GROUP0
10
315.507145810503
20
1838.94855287776
30
1.01732475993543e-005
11
315.507145810501
21
1835.94855287776
31
1.14305722934915e-005
  0
LINE
 8
GROUP0
10
374.380192246241
20
1847.54663731693
30
2.39815908603447e-005
11
376.978268457594
21
1846.04663731693
31
2.6286389352137e-005
  0
LINE
 8
GROUP0
10
310.310993387801
20
1835.94855287776
30
2.59695915652003e-006
11
310.310993387804
21
1838.94855287776
31
1.33963473309961e-006
  0
LINE
 8
GROUP0
10
374.380192246238
20
1841.54663731693
30
2.79685994339474e-005
11
371.782116034886
21
1843.04663731693
31
2.56638011226329e-005
  0
LINE
 8
GROUP0
10
386.674404512261
20
1854.64471854185
30
7.9387307080836e-005
11
389.27248072361
21
1853.14471854185
31
8.44327755000762e-005
  0
LINE
 8
GROUP0
10
386.674404512258
20
1848.64471854185
30
8.19019561081546e-005
11
384.076328300909
21
1850.14471854185
31
7.6856486876764e-005
  0
LINE
 8
GROUP0
10
393.370573303004
20
1857.24278973962
30
5.30605800708628e-005
11
390.772497091654
21
1855.74278973962
31
4.92724363457597e-005
  0
LINE
 8
GROUP0
10
384.076328300911
20
1853.14471854185
30
7.55991629045383e-005
11
386.674404512261
21
1854.64471854185
31
7.9387307080836e-005
  0
LINE
 8
GROUP0
10
312.90906959915
20
1834.44855287777
30
7.64242748552135e-006
11
310.310993387801
21
1835.94855287776
31
2.59695915652003e-006
  0
LINE
 8
GROUP0
10
388.174420880309
20
1860.24278973962
30
4.29696427811876e-005
11
390.772497091659
21
1861.74278973962
31
4.67577870477243e-005
  0
LINE
 8
GROUP0
10
331.899437404262
20
1867.34085772309
30
3.51049619609967e-005
11
331.89943740426
21
1864.34085772309
31
3.63622858429835e-005
  0
LINE
 8
GROUP0
10
312.909069599154
20
1840.44855287776
30
5.12777963130873e-006
11
315.507145810503
21
1838.94855287776
31
1.01732475993543e-005
  0
LINE
 8
GROUP0
10
393.370573303006
20
1860.24278973962
30
5.18032559181591e-005
11
393.370573303004
21
1857.24278973962
31
5.30605800708628e-005
  0
LINE
 8
GROUP0
10
326.703284981562
20
1867.34085772309
30
2.6271349004503e-005
11
329.301361192913
21
1868.84085772309
31
3.00594938124732e-005
  0
LINE
 8
GROUP0
10
390.772497091654
20
1855.74278973962
30
4.92724363457597e-005
11
388.174420880306
21
1857.24278973962
31
4.42269677460416e-005
  0
LINE
 8
GROUP0
10
388.174420880306
20
1857.24278973962
30
4.42269677460416e-005
11
388.174420880309
21
1860.24278973962
31
4.29696427811876e-005
  0
LINE
 8
GROUP0
10
384.076328300909
20
1850.14471854185
30
7.6856486876764e-005
11
384.076328300911
21
1853.14471854185
31
7.55991629045383e-005
  0
LINE
 8
GROUP0
10
329.30136119291
20
1862.84085772309
30
3.25741427495529e-005
11
326.703284981561
21
1864.34085772309
31
2.75286734279234e-005
  0
LINE
 8
GROUP0
10
329.30136119291
20
1848.64470530042
30
3.25741428849113e-005
11
326.703284981561
21
1850.14470530042
31
2.75286736535207e-005
  0
LINE
 8
GROUP0
10
376.978268457593
20
1843.04663731693
30
2.827989350358e-005
11
374.380192246238
21
1841.54663731693
31
2.79685994339474e-005
  0
LINE
 8
GROUP0
10
315.507145810501
20
1835.94855287776
30
1.14305722934915e-005
11
312.90906959915
21
1834.44855287777
31
7.64242748552135e-006
  0
LINE
 8
GROUP0
10
329.301361192913
20
1868.84085772309
30
3.00594938124732e-005
11
331.899437404262
21
1867.34085772309
31
3.51049619609967e-005
  0
LINE
 8
GROUP0
10
390.772497091659
20
1861.74278973962
30
4.67577870477243e-005
11
393.370573303006
21
1860.24278973962
31
5.18032559181591e-005
  0
LINE
 8
GROUP0
10
390.772497091624
20
1841.54663731692
30
8.35418495022111e-006
11
388.174420880272
21
1843.04663731692
31
6.04938690962342e-006
  0
LINE
 8
GROUP0
10
364.684038784738
20
1850.14471412805
30
5.47342069868506e-005
11
362.085962573388
21
1848.64471412805
31
5.09460626300751e-005
  0
LINE
 8
GROUP0
10
347.1936782512
20
1860.242780912
30
2.8277892951678e-006
11
349.79175446255
21
1861.742780912
31
6.61593356170442e-006
  0
LINE
 8
GROUP0
10
345.693661883146
20
1840.44855729156
30
3.60836718460433e-005
11
348.291738094493
21
1838.94855729156
31
4.11291405360004e-005
  0
LINE
 8
GROUP0
10
349.79175446255
20
1861.742780912
30
6.61593356170442e-006
11
352.389830673898
21
1860.242780912
31
1.16614024321393e-005
  0
LINE
 8
GROUP0
10
322.605220983087
20
1846.04662848932
30
-6.66434940832517e-006
11
325.203297194441
21
1847.54662848932
31
-6.35305524845364e-006
  0
LINE
 8
GROUP0
10
343.095585671793
20
1835.94855729156
30
3.35528516419714e-005
11
343.095585671795
21
1838.94855729156
31
3.22955281209403e-005
  0
LINE
 8
GROUP0
10
349.791754462546
20
1855.742780912
30
9.13058290485935e-006
11
347.193678251198
21
1857.242780912
31
4.08511430514125e-006
  0
LINE
 8
GROUP0
10
331.899437404253
20
1838.94855287774
30
3.19431804829406e-005
11
331.899437404251
21
1835.94855287774
31
3.32005049966e-005
  0
LINE
 8
GROUP0
10
348.291738094493
20
1838.94855729156
30
4.11291405360004e-005
11
348.291738094492
21
1835.94855729156
31
4.23864645984651e-005
  0
LINE
 8
GROUP0
10
327.801373405792
20
1846.04662848932
30
-4.04825666642239e-006
11
327.801373405791
21
1843.04662848932
31
-2.05475215402373e-006
  0
LINE
 8
GROUP0
10
390.772497091627
20
1847.54663731692
30
4.36717601566272e-006
11
393.370573302979
21
1846.04663731692
31
6.67197477817183e-006
  0
LINE
 8
GROUP0
10
347.193678251198
20
1857.242780912
30
4.08511430514125e-006
11
347.1936782512
21
1860.242780912
31
2.8277892951678e-006
  0
LINE
 8
GROUP0
10
331.899437404259
20
1850.14470530042
30
3.63622861588198e-005
11
329.30136119291
21
1848.64470530042
31
3.25741428849113e-005
  0
LINE
 8
GROUP0
10
348.291738094492
20
1835.94855729156
30
4.23864645984651e-005
11
345.693661883141
21
1834.44855729156
31
3.85983209636009e-005
  0
LINE
 8
GROUP0
10
362.085962573393
20
1854.64471412805
30
4.84314136929953e-005
11
364.68403878474
21
1853.14471412805
31
5.34768821122356e-005
  0
LINE
 8
GROUP0
10
345.693661883141
20
1834.44855729156
30
3.85983209636009e-005
11
343.095585671793
21
1835.94855729156
31
3.35528516419714e-005
  0
LINE
 8
GROUP0
10
393.370573302977
20
1843.04663731692
30
8.665478658898e-006
11
390.772497091624
21
1841.54663731692
31
8.35418495022111e-006
  0
LINE
 8
GROUP0
10
393.370573302979
20
1846.04663731692
30
6.67197477817183e-006
11
393.370573302977
21
1843.04663731692
31
8.665478658898e-006
  0
LINE
 8
GROUP0
10
343.095585671795
20
1838.94855729156
30
3.22955281209403e-005
11
345.693661883146
21
1840.44855729156
31
3.60836718460433e-005
  0
LINE
 8
GROUP0
10
364.68403878474
20
1853.14471412805
30
5.34768821122356e-005
11
364.684038784738
21
1850.14471412805
31
5.47342069868506e-005
  0
LINE
 8
GROUP0
10
326.703284981561
20
1850.14470530042
30
2.75286736535207e-005
11
326.703284981563
21
1853.14470530042
31
2.62713492301003e-005
  0
LINE
 8
GROUP0
10
359.487886362042
20
1853.14471412805
30
4.46432699678923e-005
11
362.085962573393
21
1854.64471412805
31
4.84314136929953e-005
  0
LINE
 8
GROUP0
10
362.085962573388
20
1848.64471412805
30
5.09460626300751e-005
11
359.48788636204
21
1850.14471412805
31
4.59005947522684e-005
  0
LINE
 8
GROUP0
10
352.389830673896
20
1857.242780912
30
1.29187266299624e-005
11
349.791754462546
21
1855.742780912
31
9.13058290485935e-006
  0
LINE
 8
GROUP0
10
352.389830673898
20
1860.242780912
30
1.16614024321393e-005
11
352.389830673896
21
1857.242780912
31
1.29187266299624e-005
  0
LINE
 8
GROUP0
10
388.174420880272
20
1843.04663731692
30
6.04938690962342e-006
11
388.174420880274
21
1846.04663731692
31
4.05588212650798e-006
  0
LINE
 8
GROUP0
10
325.203297194441
20
1847.54662848932
30
-6.35305524845364e-006
11
327.801373405792
21
1846.04662848932
31
-4.04825666642239e-006
  0
LINE
 8
GROUP0
10
322.605220983085
20
1843.04662848932
30
-4.6708445349708e-006
11
322.605220983087
21
1846.04662848932
31
-6.66434940832517e-006
  0
LINE
 8
GROUP0
10
359.48788636204
20
1850.14471412805
30
4.59005947522684e-005
11
359.487886362042
21
1853.14471412805
31
4.46432699678923e-005
  0
LINE
 8
GROUP0
10
388.174420880274
20
1846.04663731692
30
4.05588212650798e-006
11
390.772497091627
21
1847.54663731692
31
4.36717601566272e-006
  0
LINE
 8
GROUP0
10
325.203297194437
20
1841.54662848932
30
-2.3660461334174e-006
11
322.605220983085
21
1843.04662848932
31
-4.6708445349708e-006
  0
LINE
 8
GROUP0
10
352.38983067387
20
1846.0466284893
30
-3.34698786627285e-005
11
352.389830673868
21
1843.04662848931
31
-3.14763747820024e-005
  0
LINE
 8
GROUP0
10
326.703284981553
20
1835.94855287774
30
2.43668922205842e-005
11
326.703284981555
21
1838.94855287774
31
2.31095673459691e-005
  0
LINE
 8
GROUP0
10
385.174420880285
20
1843.04663731692
30
1.84726866226725e-005
11
382.576344668931
21
1841.54663731692
31
1.81613919213675e-005
  0
LINE
 8
GROUP0
10
378.47825416714
20
1848.64471412803
30
7.27159963258117e-005
11
375.880177955791
21
1850.14471412803
31
6.76705270944211e-005
  0
LINE
 8
GROUP0
10
329.301361192905
20
1840.44855287774
30
2.68977120637004e-005
11
331.899437404253
21
1838.94855287774
31
3.19431804829406e-005
  0
LINE
 8
GROUP0
10
349.791754462515
20
1841.54662848931
30
-3.17876684906793e-005
11
347.193678251164
21
1843.04662848931
31
-3.4092466531277e-005
  0
LINE
 8
GROUP0
10
381.07633037849
20
1850.14471412803
30
7.65041395997201e-005
11
378.47825416714
21
1848.64471412803
31
7.27159963258117e-005
  0
LINE
 8
GROUP0
10
375.880177955791
20
1850.14471412803
30
6.76705270944211e-005
11
375.880177955794
21
1853.14471412803
31
6.64132029417175e-005
  0
LINE
 8
GROUP0
10
352.389830673868
20
1843.04662848931
30
-3.14763747820024e-005
11
349.791754462515
21
1841.54662848931
31
-3.17876684906793e-005
  0
LINE
 8
GROUP0
10
381.076330378492
20
1853.14471412803
30
7.52468149958219e-005
11
381.07633037849
21
1850.14471412803
31
7.65041395997201e-005
  0
LINE
 8
GROUP0
10
347.193678251166
20
1846.04662848931
30
-3.60859713143924e-005
11
349.791754462519
21
1847.5466284893
31
-3.57746774252377e-005
  0
LINE
 8
GROUP0
10
379.978268457581
20
1846.04663731692
30
1.38630892781322e-005
11
382.576344668935
21
1847.54663731692
31
1.41743832575258e-005
  0
LINE
 8
GROUP0
10
379.97826845761
20
1860.24278973962
30
4.29696427811876e-005
11
382.57634466896
21
1861.74278973962
31
4.67577870477243e-005
  0
LINE
 8
GROUP0
10
326.703284981555
20
1838.94855287774
30
2.31095673459691e-005
11
329.301361192905
21
1840.44855287774
31
2.68977120637004e-005
  0
LINE
 8
GROUP0
10
385.174420880306
20
1857.24278973962
30
5.30605800708628e-005
11
382.576344668956
21
1855.74278973962
31
4.92724363457597e-005
  0
LINE
 8
GROUP0
10
349.791754462519
20
1847.5466284893
30
-3.57746774252377e-005
11
352.38983067387
21
1846.0466284893
31
-3.34698786627285e-005
  0
LINE
 8
GROUP0
10
382.57634466896
20
1861.74278973962
30
4.67577870477243e-005
11
385.174420880308
21
1860.24278973962
31
5.18032559181591e-005
  0
LINE
 8
GROUP0
10
379.978268457578
20
1843.04663731692
30
1.58565941514865e-005
11
379.978268457581
21
1846.04663731692
31
1.38630892781322e-005
  0
LINE
 8
GROUP0
10
327.801373405791
20
1843.04662848932
30
-2.05475215402373e-006
11
325.203297194437
21
1841.54662848932
31
-2.3660461334174e-006
  0
LINE
 8
GROUP0
10
356.487888439617
20
1850.14471412805
30
5.47342069868506e-005
11
353.889812228266
21
1848.64471412805
31
5.0946062720314e-005
  0
LINE
 8
GROUP0
10
357.98788740086
20
1855.74278973962
30
4.92724363457597e-005
11
355.389811189512
21
1857.24278973962
31
4.42269677460416e-005
  0
LINE
 8
GROUP0
10
379.978268457608
20
1857.24278973962
30
4.42269677460416e-005
11
379.97826845761
21
1860.24278973962
31
4.29696427811876e-005
  0
LINE
 8
GROUP0
10
382.576344668935
20
1847.54663731692
30
1.41743832575258e-005
11
385.174420880286
21
1846.04663731692
31
1.6479181929796e-005
  0
LINE
 8
GROUP0
10
385.174420880308
20
1860.24278973962
30
5.18032559181591e-005
11
385.174420880306
21
1857.24278973962
31
5.30605800708628e-005
  0
LINE
 8
GROUP0
10
329.301361192901
20
1834.44855287774
30
2.94123603691077e-005
11
326.703284981553
21
1835.94855287774
31
2.43668922205842e-005
  0
LINE
 8
GROUP0
10
331.899437404251
20
1835.94855287774
30
3.32005049966e-005
11
329.301361192901
21
1834.44855287774
31
2.94123603691077e-005
  0
LINE
 8
GROUP0
10
385.174420880286
20
1846.04663731692
30
1.6479181929796e-005
11
385.174420880285
21
1843.04663731692
31
1.84726866226725e-005
  0
LINE
 8
GROUP0
10
382.576344668931
20
1841.54663731692
30
1.81613919213675e-005
11
379.978268457578
21
1843.04663731692
31
1.58565941514865e-005
  0
LINE
 8
GROUP0
10
347.193678251164
20
1843.04662848931
30
-3.4092466531277e-005
11
347.193678251166
21
1846.04662848931
31
-3.60859713143924e-005
  0
LINE
 8
GROUP0
10
375.880177955794
20
1853.14471412803
30
6.64132029417175e-005
11
378.478254167143
21
1854.64471412803
31
7.02013470277763e-005
  0
LINE
 8
GROUP0
10
378.478254167143
20
1854.64471412803
30
7.02013470277763e-005
11
381.076330378492
21
1853.14471412803
31
7.52468149958219e-005
  0
LINE
 8
GROUP0
10
382.576344668956
20
1855.74278973962
30
4.92724363457597e-005
11
379.978268457608
21
1857.24278973962
31
4.42269677460416e-005
  0
LINE
 8
GROUP0
10
334.899435326685
20
1853.14470530042
30
2.62713495008171e-005
11
337.497511538035
21
1854.64470530042
31
3.00594935868759e-005
  0
LINE
 8
GROUP0
10
372.88018003337
20
1867.3408665507
30
7.5246815401897e-005
11
372.880180033368
21
1864.3408665507
31
7.65041392838839e-005
  0
LINE
 8
GROUP0
10
353.88981222827
20
1854.64471412805
30
4.84314136929953e-005
11
356.487888439619
21
1853.14471412805
31
5.34768822024745e-005
  0
LINE
 8
GROUP0
10
337.497511538032
20
1848.64470530042
30
3.25741428849113e-005
11
334.899435326683
21
1850.14470530042
31
2.75286736535207e-005
  0
LINE
 8
GROUP0
10
367.68402761067
20
1867.3408665507
30
6.64132024454034e-005
11
370.282103822022
21
1868.8408665507
31
7.02013472533736e-005
  0
LINE
 8
GROUP0
10
356.487888439619
20
1853.14471412805
30
5.34768822024745e-005
11
356.487888439617
21
1850.14471412805
31
5.47342069868506e-005
  0
LINE
 8
GROUP0
10
370.282103822018
20
1862.8408665507
30
7.27159961904533e-005
11
367.684027610669
21
1864.3408665507
31
6.76705268688238e-005
  0
LINE
 8
GROUP0
10
359.487886362042
20
1867.34086655073
30
4.46432694715781e-005
11
362.085962573392
21
1868.84086655073
31
4.84314138283537e-005
  0
LINE
 8
GROUP0
10
355.389811189514
20
1860.24278973962
30
4.29696427360682e-005
11
357.987887400864
21
1861.74278973962
31
4.67577870026048e-005
  0
LINE
 8
GROUP0
10
321.105219944276
20
1840.44855287776
30
5.12777890939731e-006
11
323.703296155624
21
1838.94855287776
31
1.01732475091154e-005
  0
LINE
 8
GROUP0
10
321.105219944272
20
1834.44855287777
30
7.64242748552135e-006
11
318.507143732924
21
1835.94855287776
31
2.59695915652003e-006
  0
LINE
 8
GROUP0
10
364.684038784741
20
1867.34086655073
30
5.34768823378329e-005
11
364.684038784738
21
1864.34086655073
31
5.47342069417311e-005
  0
LINE
 8
GROUP0
10
367.684027610669
20
1864.3408665507
30
6.76705268688238e-005
11
367.68402761067
21
1867.3408665507
31
6.64132024454034e-005
  0
LINE
 8
GROUP0
10
351.29173601692
20
1853.14471412805
30
4.46432699678923e-005
11
353.88981222827
21
1854.64471412805
31
4.84314136929953e-005
  0
LINE
 8
GROUP0
10
362.085962573388
20
1862.84086655073
30
5.0946062043522e-005
11
359.48788636204
21
1864.34086655073
31
4.59005943461932e-005
  0
LINE
 8
GROUP0
10
340.095587749382
20
1850.14470530042
30
3.63622861588198e-005
11
337.497511538032
21
1848.64470530042
31
3.25741428849113e-005
  0
LINE
 8
GROUP0
10
353.889812228266
20
1848.64471412805
30
5.0946062720314e-005
11
351.291736016918
21
1850.14471412805
31
4.59005947522684e-005
  0
LINE
 8
GROUP0
10
370.282103822022
20
1868.8408665507
30
7.02013472533736e-005
11
372.88018003337
21
1867.3408665507
31
7.5246815401897e-005
  0
LINE
 8
GROUP0
10
355.389811189512
20
1857.24278973962
30
4.42269677460416e-005
11
355.389811189514
21
1860.24278973962
31
4.29696427360682e-005
  0
LINE
 8
GROUP0
10
323.703296155622
20
1835.94855287776
30
1.14305723837305e-005
11
321.105219944272
21
1834.44855287777
31
7.64242748552135e-006
  0
LINE
 8
GROUP0
10
318.507143732926
20
1838.94855287776
30
1.33963464286069e-006
11
321.105219944276
21
1840.44855287776
31
5.12777890939731e-006
  0
LINE
 8
GROUP0
10
371.782116034908
20
1857.24278973962
30
4.42269677460416e-005
11
371.782116034911
21
1860.24278973962
31
4.29696427811876e-005
  0
LINE
 8
GROUP0
10
318.507143732924
20
1835.94855287776
30
2.59695915652003e-006
11
318.507143732926
21
1838.94855287776
31
1.33963464286069e-006
  0
LINE
 8
GROUP0
10
359.48788636204
20
1864.34086655073
30
4.59005943461932e-005
11
359.487886362042
21
1867.34086655073
31
4.46432694715781e-005
  0
LINE
 8
GROUP0
10
362.085962573392
20
1868.84086655073
30
4.84314138283537e-005
11
364.684038784741
21
1867.34086655073
31
5.34768823378329e-005
  0
LINE
 8
GROUP0
10
351.291736016918
20
1850.14471412805
30
4.59005947522684e-005
11
351.29173601692
21
1853.14471412805
31
4.46432699678923e-005
  0
LINE
 8
GROUP0
10
334.899435326683
20
1850.14470530042
30
2.75286736535207e-005
11
334.899435326685
21
1853.14470530042
31
2.62713495008171e-005
  0
LINE
 8
GROUP0
10
372.880180033368
20
1864.3408665507
30
7.65041392838839e-005
11
370.282103822018
21
1862.8408665507
31
7.27159961904533e-005
  0
LINE
 8
GROUP0
10
364.684038784738
20
1864.34086655073
30
5.47342069417311e-005
11
362.085962573388
21
1862.84086655073
31
5.0946062043522e-005
  0
LINE
 8
GROUP0
10
340.095587749384
20
1853.14470530042
30
3.51049615549215e-005
11
340.095587749382
21
1850.14470530042
31
3.63622861588198e-005
  0
LINE
 8
GROUP0
10
337.497511538035
20
1854.64470530042
30
3.00594935868759e-005
11
340.095587749384
21
1853.14470530042
31
3.51049615549215e-005
  0
LINE
 8
GROUP0
10
323.703296155624
20
1838.94855287776
30
1.01732475091154e-005
11
323.703296155622
21
1835.94855287776
31
1.14305723837305e-005
  0
LINE
 8
GROUP0
10
353.889812228266
20
1862.84086655073
30
5.0946062043522e-005
11
351.291736016918
21
1864.34086655073
31
4.59005943461932e-005
  0
LINE
 8
GROUP0
10
374.380192246261
20
1861.74278973962
30
4.67577870026048e-005
11
376.978268457609
21
1860.24278973962
31
5.18032559181591e-005
  0
LINE
 8
GROUP0
10
367.684027610669
20
1850.14471412803
30
6.76705270944211e-005
11
367.684027610671
21
1853.14471412803
31
6.64132026710007e-005
  0
LINE
 8
GROUP0
10
317.007144771744
20
1841.54662848933
30
7.44116110844573e-006
11
314.409068560392
21
1843.04662848933
31
5.13636324832589e-006
  0
LINE
 8
GROUP0
10
314.409068560394
20
1846.04662848933
30
3.14285846521045e-006
11
317.007144771748
21
1847.54662848933
31
3.45415190317055e-006
  0
LINE
 8
GROUP0
10
386.674404512258
20
1862.84087096452
30
8.19019552960043e-005
11
384.076328300909
21
1864.34087096452
31
7.68564865609278e-005
  0
LINE
 8
GROUP0
10
363.58596361221
20
1857.24278973962
30
4.42269677460416e-005
11
363.585963612212
21
1860.24278973962
31
4.29696427360682e-005
  0
LINE
 8
GROUP0
10
351.29173601692
20
1867.34086655073
30
4.46432695618171e-005
11
353.88981222827
21
1868.84086655073
31
4.84314138283537e-005
  0
LINE
 8
GROUP0
10
389.272480723608
20
1864.34087096452
30
8.56901001490939e-005
11
386.674404512258
21
1862.84087096452
31
8.19019552960043e-005
  0
LINE
 8
GROUP0
10
376.978268457609
20
1860.24278973962
30
5.18032559181591e-005
11
376.978268457608
21
1857.24278973962
31
5.30605800708628e-005
  0
LINE
 8
GROUP0
10
351.291736016918
20
1864.34086655073
30
4.59005943461932e-005
11
351.29173601692
21
1867.34086655073
31
4.46432695618171e-005
  0
LINE
 8
GROUP0
10
366.184039823562
20
1861.74278973962
30
4.6757786731888e-005
11
368.782116034911
21
1860.24278973962
31
5.18032559181591e-005
  0
LINE
 8
GROUP0
10
319.6052209831
20
1846.04662848933
30
5.75895057544074e-006
11
319.605220983098
21
1843.04662848933
31
7.75245517807832e-006
  0
LINE
 8
GROUP0
10
360.585963612212
20
1860.24278973962
30
5.18032558730397e-005
11
360.58596361221
21
1857.24278973962
31
5.30605800708628e-005
  0
LINE
 8
GROUP0
10
386.674404512261
20
1868.84087096452
30
7.93873071259554e-005
11
389.27248072361
21
1867.34087096452
31
8.44327753647178e-005
  0
LINE
 8
GROUP0
10
374.380192246257
20
1855.74278973962
30
4.92724363457597e-005
11
371.782116034908
21
1857.24278973962
31
4.42269677460416e-005
  0
LINE
 8
GROUP0
10
356.487888439617
20
1864.34086655073
30
5.47342069417311e-005
11
353.889812228266
21
1862.84086655073
31
5.0946062043522e-005
  0
LINE
 8
GROUP0
10
384.076328300911
20
1867.34087096452
30
7.55991624082242e-005
11
386.674404512261
21
1868.84087096452
31
7.93873071259554e-005
  0
LINE
 8
GROUP0
10
384.076328300909
20
1864.34087096452
30
7.68564865609278e-005
11
384.076328300911
21
1867.34087096452
31
7.55991624082242e-005
  0
LINE
 8
GROUP0
10
317.007144771748
20
1847.54662848933
30
3.45415190317055e-006
11
319.6052209831
21
1846.04662848933
31
5.75895057544074e-006
  0
LINE
 8
GROUP0
10
371.782116034911
20
1860.24278973962
30
4.29696427811876e-005
11
374.380192246261
21
1861.74278973962
31
4.67577870026048e-005
  0
LINE
 8
GROUP0
10
353.88981222827
20
1868.84086655073
30
4.84314138283537e-005
11
356.487888439619
21
1867.34086655073
31
5.34768823378329e-005
  0
LINE
 8
GROUP0
10
376.978268457608
20
1857.24278973962
30
5.30605800708628e-005
11
374.380192246257
21
1855.74278973962
31
4.92724363457597e-005
  0
LINE
 8
GROUP0
10
368.782116034911
20
1860.24278973962
30
5.18032559181591e-005
11
368.782116034909
21
1857.24278973962
31
5.30605800708628e-005
  0
LINE
 8
GROUP0
10
389.27248072361
20
1867.34087096452
30
8.44327753647178e-005
11
389.272480723608
21
1864.34087096452
31
8.56901001490939e-005
  0
LINE
 8
GROUP0
10
363.585963612212
20
1860.24278973962
30
4.29696427360682e-005
11
366.184039823562
21
1861.74278973962
31
4.6757786731888e-005
  0
LINE
 8
GROUP0
10
360.58596361221
20
1857.24278973962
30
5.30605800708628e-005
11
357.98788740086
21
1855.74278973962
31
4.92724363457597e-005
  0
LINE
 8
GROUP0
10
357.987887400864
20
1861.74278973962
30
4.67577870026048e-005
11
360.585963612212
21
1860.24278973962
31
5.18032558730397e-005
  0
LINE
 8
GROUP0
10
366.184039823559
20
1855.74278973962
30
4.92724363457597e-005
11
363.58596361221
21
1857.24278973962
31
4.42269677460416e-005
  0
LINE
 8
GROUP0
10
368.782116034909
20
1857.24278973962
30
5.30605800708628e-005
11
366.184039823559
21
1855.74278973962
31
4.92724363457597e-005
  0
LINE
 8
GROUP0
10
356.487888439619
20
1867.34086655073
30
5.34768823378329e-005
11
356.487888439617
21
1864.34086655073
31
5.47342069417311e-005
  0
LINE
 8
GROUP0
10
314.409068560392
20
1843.04662848933
30
5.13636324832589e-006
11
314.409068560394
21
1846.04662848933
31
3.14285846521045e-006
  0
LINE
 8
GROUP0
10
370.282103822018
20
1848.64471412803
30
7.27159963258117e-005
11
367.684027610669
21
1850.14471412803
31
6.76705270944211e-005
  0
LINE
 8
GROUP0
10
344.193678251177
20
1843.04662848931
30
-2.16691668182278e-005
11
341.595602039822
21
1841.54662848931
31
-2.19804615195329e-005
  0
LINE
 8
GROUP0
10
340.095587749373
20
1835.94855287774
30
3.32005049966e-005
11
337.497511538024
21
1834.44855287774
31
2.94123603691077e-005
  0
LINE
 8
GROUP0
10
341.595602039826
20
1847.54662848931
30
-2.59674701833745e-005
11
344.193678251178
21
1846.04662848931
31
-2.36626715111044e-005
  0
LINE
 8
GROUP0
10
337.497511538027
20
1840.44855287774
30
2.68977119734615e-005
11
340.095587749376
21
1838.94855287774
31
3.19431803024628e-005
  0
LINE
 8
GROUP0
10
318.507143732934
20
1853.14470530044
30
4.50141652699187e-006
11
321.105219944284
21
1854.64470530044
31
8.28956020697547e-006
  0
LINE
 8
GROUP0
10
335.997525828485
20
1846.04662848932
30
-1.38554640887634e-005
11
335.997525828484
21
1843.04662848932
31
-1.18619599373204e-005
  0
LINE
 8
GROUP0
10
378.47825416714
20
1862.8408665507
30
7.27159961904533e-005
11
375.880177955791
21
1864.3408665507
31
6.76705268688238e-005
  0
LINE
 8
GROUP0
10
372.88018003337
20
1853.14471412803
30
7.52468150860608e-005
11
372.880180033367
21
1850.14471412803
31
7.65041395997201e-005
  0
LINE
 8
GROUP0
10
375.880177955794
20
1867.3408665507
30
6.64132023551645e-005
11
378.478254167143
21
1868.8408665507
31
7.02013472533736e-005
  0
LINE
 8
GROUP0
10
372.880180033367
20
1850.14471412803
30
7.65041395997201e-005
11
370.282103822018
21
1848.64471412803
31
7.27159963258117e-005
  0
LINE
 8
GROUP0
10
338.99752582847
20
1843.04662848931
30
-2.42852592894138e-005
11
338.997525828473
21
1846.04662848931
31
-2.62787641627682e-005
  0
LINE
 8
GROUP0
10
341.595602039822
20
1841.54662848931
30
-2.19804615195329e-005
11
338.99752582847
21
1843.04662848931
31
-2.42852592894138e-005
  0
LINE
 8
GROUP0
10
330.801373405778
20
1843.04662848932
30
-1.44780523182675e-005
11
330.801373405779
21
1846.04662848932
31
-1.64715565599494e-005
  0
LINE
 8
GROUP0
10
452.243589080226
20
1834.44857936058
30
0.000149837920736928
11
449.645512868878
21
1835.94857936058
31
0.000144792452588405
  0
LINE
 8
GROUP0
10
370.282103822022
20
1854.64471412803
30
7.02013470277763e-005
11
372.88018003337
21
1853.14471412803
31
7.52468150860608e-005
  0
LINE
 8
GROUP0
10
333.39944961713
20
1841.54662848932
30
-1.2173254006953e-005
11
330.801373405778
21
1843.04662848932
31
-1.44780523182675e-005
  0
LINE
 8
GROUP0
10
381.07633037849
20
1864.3408665507
30
7.65041392838839e-005
11
378.47825416714
21
1862.8408665507
31
7.27159961904533e-005
  0
LINE
 8
GROUP0
10
381.076330378492
20
1867.3408665507
30
7.52468153116581e-005
11
381.07633037849
21
1864.3408665507
31
7.65041392838839e-005
  0
LINE
 8
GROUP0
10
340.095587749376
20
1838.94855287774
30
3.19431803024628e-005
11
340.095587749373
21
1835.94855287774
31
3.32005049966e-005
  0
LINE
 8
GROUP0
10
319.605220983098
20
1843.04662848933
30
7.75245517807832e-006
11
317.007144771744
21
1841.54662848933
31
7.44116110844573e-006
  0
LINE
 8
GROUP0
10
335.997525828484
20
1843.04662848932
30
-1.18619599373204e-005
11
333.39944961713
21
1841.54662848932
31
-1.2173254006953e-005
  0
LINE
 8
GROUP0
10
344.193678251178
20
1846.04662848931
30
-2.36626715111044e-005
11
344.193678251177
21
1843.04662848931
31
-2.16691668182278e-005
  0
LINE
 8
GROUP0
10
334.899435326677
20
1838.94855287774
30
2.31095672557302e-005
11
337.497511538027
21
1840.44855287774
31
2.68977119734615e-005
  0
LINE
 8
GROUP0
10
330.801373405779
20
1846.04662848932
30
-1.64715565599494e-005
11
333.399449617133
21
1847.54662848932
31
-1.61602625805557e-005
  0
LINE
 8
GROUP0
10
334.899435326675
20
1835.94855287774
30
2.43668917693896e-005
11
334.899435326677
21
1838.94855287774
31
2.31095672557302e-005
  0
LINE
 8
GROUP0
10
337.497511538024
20
1834.44855287774
30
2.94123603691077e-005
11
334.899435326675
21
1835.94855287774
31
2.43668917693896e-005
  0
LINE
 8
GROUP0
10
375.880177955791
20
1864.3408665507
30
6.76705268688238e-005
11
375.880177955794
21
1867.3408665507
31
6.64132023551645e-005
  0
LINE
 8
GROUP0
10
338.997525828473
20
1846.04662848931
30
-2.62787641627682e-005
11
341.595602039826
21
1847.54662848931
31
-2.59674701833745e-005
  0
LINE
 8
GROUP0
10
367.684027610671
20
1853.14471412803
30
6.64132026710007e-005
11
370.282103822022
21
1854.64471412803
31
7.02013470277763e-005
  0
LINE
 8
GROUP0
10
333.399449617133
20
1847.54662848932
30
-1.61602625805557e-005
11
335.997525828485
21
1846.04662848932
31
-1.38554640887634e-005
  0
LINE
 8
GROUP0
10
378.478254167143
20
1868.8408665507
30
7.02013472533736e-005
11
381.076330378492
21
1867.3408665507
31
7.52468153116581e-005
  0
LINE
 8
GROUP0
10
456.341677504455
20
1841.54665497215
30
0.000108252306315748
11
453.743601293103
21
1843.04665497215
31
0.000105947508004434
  0
LINE
 8
GROUP0
10
458.93975371581
20
1846.04665497215
30
0.000106570096233938
11
458.939753715809
21
1843.04665497215
31
0.000108563600385381
  0
LINE
 8
GROUP0
10
364.68403878473
20
1835.94856170538
30
5.15724258246308e-005
11
362.08596257338
21
1834.44856170538
31
4.77842809264217e-005
  0
LINE
 8
GROUP0
10
452.24358908023
20
1840.44857936058
30
0.000147323272386402
11
454.841665291578
21
1838.94857936058
31
0.000152368740805642
  0
LINE
 8
GROUP0
10
364.684038784732
20
1838.94856170538
30
5.03151009500158e-005
11
364.68403878473
21
1835.94856170538
31
5.15724258246308e-005
  0
LINE
 8
GROUP0
10
355.389811189503
20
1846.04663731694
30
4.32847119061108e-005
11
357.987887400856
21
1847.54663731694
31
4.35960053440709e-005
  0
LINE
 8
GROUP0
10
321.10521994428
20
1848.64470530044
30
1.08042091891747e-005
11
318.507143732932
21
1850.14470530044
31
5.758741311368e-006
  0
LINE
 8
GROUP0
10
470.135906138489
20
1843.04665497214
30
8.63330937914242e-005
11
470.135906138491
21
1846.04665497214
31
8.43395890083087e-005
  0
LINE
 8
GROUP0
10
359.487886362032
20
1835.94856170538
30
4.27388125974204e-005
11
359.487886362034
21
1838.94856170538
31
4.14814880837611e-005
  0
LINE
 8
GROUP0
10
472.73398234984
20
1841.54665497214
30
8.86378918320219e-005
11
470.135906138489
21
1843.04665497214
31
8.63330937914242e-005
  0
LINE
 8
GROUP0
10
357.987887400856
20
1847.54663731694
30
4.35960053440709e-005
11
360.585963612208
21
1846.04663731694
31
4.59008040163411e-005
  0
LINE
 8
GROUP0
10
318.507143732932
20
1850.14470530044
30
5.758741311368e-006
11
318.507143732934
21
1853.14470530044
31
4.50141652699187e-006
  0
LINE
 8
GROUP0
10
359.487886362034
20
1838.94856170538
30
4.14814880837611e-005
11
362.085962573385
21
1840.44856170538
31
4.52696323502977e-005
  0
LINE
 8
GROUP0
10
449.64551286888
20
1838.94857936058
30
0.00014353512766867
11
452.24358908023
21
1840.44857936058
31
0.000147323272386402
  0
LINE
 8
GROUP0
10
360.585963612208
20
1846.04663731694
30
4.59008040163411e-005
11
360.585963612206
21
1843.04663731694
31
4.78943086189787e-005
  0
LINE
 8
GROUP0
10
454.841665291578
20
1838.94857936058
30
0.000152368740805642
11
454.841665291576
21
1835.94857936058
31
0.000153626065364421
  0
LINE
 8
GROUP0
10
453.743601293103
20
1843.04665497215
30
0.000105947508004434
11
453.743601293104
21
1846.04665497215
31
0.000103954003762752
  0
LINE
 8
GROUP0
10
407.164782452654
20
1841.54664614455
30
7.79176607483834e-005
11
404.566706241302
21
1843.04664614455
31
7.561286234683e-005
  0
LINE
 8
GROUP0
10
404.566706241302
20
1843.04664614455
30
7.561286234683e-005
11
404.566706241304
21
1846.04664614455
31
7.36193574734756e-005
  0
LINE
 8
GROUP0
10
404.566706241304
20
1846.04664614455
30
7.36193574734756e-005
11
407.164782452658
21
1847.54664614455
31
7.39306516333471e-005
  0
LINE
 8
GROUP0
10
417.959011086716
20
1857.24279856723
30
9.32024335117632e-005
11
415.360934875366
21
1855.74279856723
31
8.94142897866601e-005
  0
LINE
 8
GROUP0
10
415.360934875366
20
1855.74279856723
30
8.94142897866601e-005
11
412.762858664017
21
1857.24279856723
31
8.4368821186942e-005
  0
LINE
 8
GROUP0
10
412.762858664017
20
1857.24279856723
30
8.4368821186942e-005
11
412.76285866402
21
1860.24279856723
31
8.3111496222088e-005
  0
LINE
 8
GROUP0
10
412.76285866402
20
1860.24279856723
30
8.3111496222088e-005
11
415.360934875369
21
1861.74279856723
31
8.68996404886246e-005
  0
LINE
 8
GROUP0
10
415.360934875369
20
1861.74279856723
30
8.68996404886246e-005
11
417.959011086718
21
1860.24279856723
31
9.19451093590595e-005
  0
LINE
 8
GROUP0
10
417.959011086718
20
1860.24279856723
30
9.19451093590595e-005
11
417.959011086716
21
1857.24279856723
31
9.32024335117632e-005
  0
LINE
 8
GROUP0
10
408.66477023978
20
1853.14472295564
30
0.000106555056111901
11
411.26284645113
21
1854.64472295564
31
0.000110343200468677
  0
LINE
 8
GROUP0
10
411.26284645113
20
1854.64472295564
30
0.000110343200468677
11
413.860922662479
21
1853.14472295564
31
0.000115388668526961
  0
LINE
 8
GROUP0
10
413.860922662479
20
1853.14472295564
30
0.000115388668526961
11
413.860922662476
21
1850.14472295564
31
0.000116645993040621
  0
LINE
 8
GROUP0
10
408.664770239777
20
1850.14472295564
30
0.000107812380535321
11
408.66477023978
21
1853.14472295564
31
0.000106555056111901
  0
LINE
 8
GROUP0
10
422.057073007598
20
1864.34087537831
30
0.000116645992769904
11
419.458996796248
21
1862.84087537831
31
0.000112857849676473
  0
LINE
 8
GROUP0
10
416.860920584902
20
1867.34087537831
30
0.000106555055841184
11
419.458996796252
21
1868.84087537831
31
0.000110343200694274
  0
LINE
 8
GROUP0
10
419.458996796252
20
1868.84087537831
30
0.000110343200694274
11
422.057073007601
21
1867.34087537831
31
0.000115388668797678
  0
LINE
 8
GROUP0
10
422.057073007601
20
1867.34087537831
30
0.000115388668797678
11
422.057073007598
21
1864.34087537831
31
0.000116645992769904
  0
LINE
 8
GROUP0
10
394.870554857375
20
1848.64472295567
30
9.10879161612144e-005
11
392.272478646026
21
1850.14472295567
31
8.60424481931688e-005
  0
LINE
 8
GROUP0
10
397.468631068727
20
1853.14472295566
30
9.36187356433749e-005
11
397.468631068725
21
1850.14472295567
31
9.4876060427751e-005
  0
LINE
 8
GROUP0
10
429.155163509415
20
1857.24279856723
30
8.4368821186942e-005
11
429.155163509417
21
1860.24279856723
31
8.3111496222088e-005
  0
LINE
 8
GROUP0
10
429.155163509417
20
1860.24279856723
30
8.3111496222088e-005
11
431.753239720767
21
1861.74279856723
31
8.68996404886246e-005
  0
LINE
 8
GROUP0
10
431.753239720767
20
1861.74279856723
30
8.68996404886246e-005
11
434.351315932115
21
1860.24279856723
31
9.19451093590595e-005
  0
LINE
 8
GROUP0
10
434.351315932115
20
1860.24279856723
30
9.19451093590595e-005
11
434.351315932113
21
1857.24279856723
31
9.32024335117632e-005
  0
LINE
 8
GROUP0
10
425.05707093002
20
1853.14472736946
30
0.000115741016345439
11
427.655147141369
21
1854.64472736946
31
0.000119529160521736
  0
LINE
 8
GROUP0
10
427.655147141369
20
1854.64472736946
30
0.000119529160521736
11
430.253223352718
21
1853.14472736946
31
0.000124574628940977
  0
LINE
 8
GROUP0
10
430.253223352718
20
1853.14472736946
30
0.000124574628940977
11
430.253223352716
21
1850.14472736946
31
0.000125831953725353
  0
LINE
 8
GROUP0
10
430.253223352716
20
1850.14472736946
30
0.000125831953725353
11
427.655147141366
21
1848.64472736946
31
0.000122043809549055
  0
LINE
 8
GROUP0
10
427.655147141366
20
1848.64472736946
30
0.000122043809549055
11
425.057070930017
21
1850.14472736946
31
0.000116998340317664
  0
LINE
 8
GROUP0
10
425.057070930017
20
1850.14472736946
30
0.000116998340317664
11
425.05707093002
21
1853.14472736946
31
0.000115741016345439
  0
LINE
 8
GROUP0
10
426.155163509395
20
1846.04664614453
30
5.66210353706964e-005
11
426.155163509393
21
1843.04664614453
31
5.86145400635729e-005
  0
LINE
 8
GROUP0
10
426.155163509393
20
1843.04664614453
30
5.86145400635729e-005
11
423.557087298039
21
1841.54664614454
31
5.83032453622678e-005
  0
LINE
 8
GROUP0
10
423.557087298039
20
1841.54664614454
30
5.83032453622678e-005
11
420.959011086687
21
1843.04664614454
31
5.59984475923869e-005
  0
LINE
 8
GROUP0
10
420.959011086687
20
1843.04664614454
30
5.59984475923869e-005
11
420.959011086689
21
1846.04664614454
31
5.40049427190326e-005
  0
LINE
 8
GROUP0
10
420.959011086689
20
1846.04664614454
30
5.40049427190326e-005
11
423.557087298043
21
1847.54664614453
31
5.43162366984262e-005
  0
LINE
 8
GROUP0
10
423.557087298043
20
1847.54664614453
30
5.43162366984262e-005
11
426.155163509395
21
1846.04664614453
31
5.66210353706964e-005
  0
LINE
 8
GROUP0
10
412.762858663996
20
1846.04664614454
30
6.38121503218514e-005
11
415.360934875349
21
1847.54664614454
31
6.41234443012451e-005
  0
LINE
 8
GROUP0
10
415.360934875349
20
1847.54664614454
30
6.41234443012451e-005
11
417.959011086702
21
1846.04664614454
31
6.64282427930374e-005
  0
LINE
 8
GROUP0
10
417.959011086702
20
1846.04664614454
30
6.64282427930374e-005
11
417.959011086701
21
1843.04664614454
31
6.84217469444803e-005
  0
LINE
 8
GROUP0
10
417.959011086701
20
1843.04664614454
30
6.84217469444803e-005
11
415.360934875346
21
1841.54664614454
31
6.81104528748477e-005
  0
LINE
 8
GROUP0
10
415.360934875346
20
1841.54664614454
30
6.81104528748477e-005
11
412.762858663994
21
1843.04664614454
31
6.58056545635333e-005
  0
LINE
 8
GROUP0
10
412.762858663994
20
1843.04664614454
30
6.58056545635333e-005
11
412.762858663996
21
1846.04664614454
31
6.38121503218514e-005
  0
LINE
 8
GROUP0
10
403.066705202489
20
1834.44857053299
30
8.79261343673221e-005
11
400.468628991141
21
1835.94857053299
31
8.28806660383208e-005
  0
LINE
 8
GROUP0
10
400.468628991141
20
1835.94857053299
30
8.28806660383208e-005
11
400.468628991143
21
1838.94857053299
31
8.16233415246614e-005
  0
LINE
 8
GROUP0
10
400.468628991143
20
1838.94857053299
30
8.16233415246614e-005
11
403.066705202493
21
1840.44857053299
31
8.54114857911981e-005
  0
LINE
 8
GROUP0
10
403.066705202493
20
1840.44857053299
30
8.54114857911981e-005
11
405.664781413841
21
1838.94857053299
31
9.04569543909162e-005
  0
LINE
 8
GROUP0
10
405.664781413841
20
1838.94857053299
30
9.04569543909162e-005
11
405.664781413838
21
1835.94857053299
31
9.17142792655312e-005
  0
LINE
 8
GROUP0
10
405.664781413838
20
1835.94857053299
30
9.17142792655312e-005
11
403.066705202489
21
1834.44857053299
31
8.79261343673221e-005
  0
LINE
 8
GROUP0
10
476.832040115591
20
1862.84089303356
30
0.000171371622411343
11
474.233963904243
21
1864.34089303356
31
0.000166326154714014
  0
LINE
 8
GROUP0
10
474.233963904243
20
1864.34089303356
30
0.000166326154714014
11
474.233963904245
21
1867.34089303356
31
0.000165068829929638
  0
LINE
 8
GROUP0
10
474.233963904245
20
1867.34089303356
30
0.000165068829929638
11
476.832040115595
21
1868.84089303356
31
0.000168856974196174
  0
LINE
 8
GROUP0
10
476.832040115595
20
1868.84089303356
30
0.000168856974196174
11
479.430116326944
21
1867.34089303356
31
0.000173902442705653
  0
LINE
 8
GROUP0
10
479.430116326944
20
1867.34089303356
30
0.000173902442705653
11
479.430116326942
21
1864.34089303356
31
0.000175159767309552
  0
LINE
 8
GROUP0
10
479.430116326942
20
1864.34089303356
30
0.000175159767309552
11
476.832040115591
21
1862.84089303356
31
0.000171371622411343
  0
LINE
 8
GROUP0
10
501.420482054465
20
1862.84089303354
30
0.000193141556558274
11
498.822405843116
21
1864.34089303354
31
0.000188096087236644
  0
LINE
 8
GROUP0
10
498.822405843116
20
1864.34089303354
30
0.000188096087236644
11
498.822405843119
21
1867.34089303354
31
0.000186838762722985
  0
LINE
 8
GROUP0
10
498.822405843119
20
1867.34089303354
30
0.000186838762722985
11
501.420482054468
21
1868.84089303354
31
0.000190626907621194
  0
LINE
 8
GROUP0
10
501.420482054468
20
1868.84089303354
30
0.000190626907621194
11
504.018558265817
21
1867.34089303354
31
0.000195672375679479
  0
LINE
 8
GROUP0
10
504.018558265817
20
1867.34089303354
30
0.000195672375679479
11
504.018558265815
21
1864.34089303354
31
0.000196929699651704
  0
LINE
 8
GROUP0
10
504.018558265815
20
1864.34089303354
30
0.000196929699651704
11
501.420482054465
21
1862.84089303354
31
0.000193141556558274
  0
LINE
 8
GROUP0
10
482.430114249365
20
1864.34089303356
30
0.000166326154714014
11
482.430114249367
21
1867.34089303356
31
0.000165068829839399
  0
LINE
 8
GROUP0
10
482.430114249367
20
1867.34089303356
30
0.000165068829839399
11
485.028190460717
21
1868.84089303356
31
0.000168856974196174
  0
LINE
 8
GROUP0
10
485.028190460717
20
1868.84089303356
30
0.000168856974196174
11
487.626266672066
21
1867.34089303356
31
0.000173902442705653
  0
LINE
 8
GROUP0
10
487.626266672066
20
1867.34089303356
30
0.000173902442705653
11
487.626266672063
21
1864.34089303356
31
0.000175159767309552
  0
LINE
 8
GROUP0
10
487.626266672063
20
1864.34089303356
30
0.000175159767309552
11
485.028190460713
21
1862.84089303356
31
0.000171371622411343
  0
LINE
 8
GROUP0
10
485.028190460713
20
1862.84089303356
30
0.000171371622411343
11
482.430114249365
21
1864.34089303356
31
0.000166326154714014
  0
LINE
 8
GROUP0
10
502.920496344933
20
1857.24281622245
30
0.000164652528068743
11
502.920496344935
21
1860.24281622245
31
0.000163395203103889
  0
LINE
 8
GROUP0
10
502.920496344935
20
1860.24281622245
30
0.000163395203103889
11
505.518572556285
21
1861.74281622245
31
0.000167183347370425
  0
LINE
 8
GROUP0
10
505.518572556285
20
1861.74281622245
30
0.000167183347370425
11
508.116648767633
21
1860.24281622245
31
0.00017222881624086
  0
LINE
 8
GROUP0
10
508.116648767633
20
1860.24281622245
30
0.00017222881624086
11
508.116648767631
21
1857.24281622245
31
0.000173486140393564
  0
LINE
 8
GROUP0
10
508.116648767631
20
1857.24281622245
30
0.000173486140393564
11
505.518572556281
21
1855.74281622245
31
0.000169697996668461
  0
LINE
 8
GROUP0
10
505.518572556281
20
1855.74281622245
30
0.000169697996668461
11
502.920496344933
21
1857.24281622245
31
0.000164652528068743
  0
LINE
 8
GROUP0
10
485.028190460706
20
1834.44858818821
30
0.000168209841294242
11
482.430114249357
21
1835.94858818821
31
0.000163164372965241
  0
LINE
 8
GROUP0
10
482.430114249357
20
1835.94858818821
30
0.000163164372965241
11
482.430114249359
21
1838.94858818821
31
0.000161907048451582
  0
LINE
 8
GROUP0
10
482.430114249359
20
1838.94858818821
30
0.000161907048451582
11
485.02819046071
21
1840.44858818821
31
0.000165695192718118
  0
LINE
 8
GROUP0
10
485.02819046071
20
1840.44858818821
30
0.000165695192718118
11
487.626266672057
21
1838.94858818821
31
0.000170740661317836
  0
LINE
 8
GROUP0
10
487.626266672057
20
1838.94858818821
30
0.000170740661317836
11
487.626266672055
21
1835.94858818821
31
0.000171997986192451
  0
LINE
 8
GROUP0
10
487.626266672055
20
1835.94858818821
30
0.000171997986192451
11
485.028190460706
21
1834.44858818821
31
0.000168209841294242
  0
LINE
 8
GROUP0
10
494.724343922213
20
1846.04666379976
30
0.000144095857203652
11
497.322420133566
21
1847.54666379976
31
0.000144407151183046
  0
LINE
 8
GROUP0
10
497.322420133566
20
1847.54666379976
30
0.000144407151183046
11
499.920496344919
21
1846.04666379976
31
0.000146711949674838
  0
LINE
 8
GROUP0
10
499.920496344919
20
1846.04666379976
30
0.000146711949674838
11
499.920496344918
21
1843.04666379976
31
0.000148705453871401
  0
LINE
 8
GROUP0
10
499.920496344918
20
1843.04666379976
30
0.000148705453871401
11
497.322420133563
21
1841.54666379977
31
0.000148394159801768
  0
LINE
 8
GROUP0
10
497.322420133563
20
1841.54666379977
30
0.000148394159801768
11
494.724343922211
21
1843.04666379977
31
0.000146089361490453
  0
LINE
 8
GROUP0
10
494.724343922211
20
1843.04666379977
30
0.000146089361490453
11
494.724343922213
21
1846.04666379976
31
0.000144095857203652
  0
LINE
 8
GROUP0
10
483.528191499533
20
1846.04666379977
30
0.000166326364339042
11
483.528191499531
21
1843.04666379978
31
0.00016831986894168
  0
LINE
 8
GROUP0
10
483.528191499531
20
1843.04666379978
30
0.00016831986894168
11
480.930115288177
21
1841.54666379978
31
0.000168008574872047
  0
LINE
 8
GROUP0
10
480.930115288177
20
1841.54666379978
30
0.000168008574872047
11
478.332039076826
21
1843.04666379978
31
0.000165703777011927
  0
LINE
 8
GROUP0
10
478.332039076826
20
1843.04666379978
30
0.000165703777011927
11
478.332039076828
21
1846.04666379978
31
0.000163710272228812
  0
LINE
 8
GROUP0
10
478.332039076828
20
1846.04666379978
30
0.000163710272228812
11
480.930115288181
21
1847.54666379977
31
0.000164021565666772
  0
LINE
 8
GROUP0
10
480.930115288181
20
1847.54666379977
30
0.000164021565666772
11
483.528191499533
21
1846.04666379977
31
0.000166326364339042
  0
LINE
 8
GROUP0
10
497.322420133586
20
1861.74281622245
30
0.000167183347370425
11
499.920496344935
21
1860.24281622245
31
0.00017222881624086
  0
LINE
 8
GROUP0
10
499.920496344935
20
1860.24281622245
30
0.00017222881624086
11
499.920496344933
21
1857.24281622245
31
0.000173486140393564
  0
LINE
 8
GROUP0
10
499.920496344933
20
1857.24281622245
30
0.000173486140393564
11
497.322420133582
21
1855.74281622245
31
0.000169697996668461
  0
LINE
 8
GROUP0
10
497.322420133582
20
1855.74281622245
30
0.000169697996668461
11
494.724343922233
21
1857.24281622245
31
0.000164652528068743
  0
LINE
 8
GROUP0
10
494.724343922233
20
1857.24281622245
30
0.000164652528068743
11
494.724343922236
21
1860.24281622245
31
0.000163395203103889
  0
LINE
 8
GROUP0
10
494.724343922236
20
1860.24281622245
30
0.000163395203103889
11
497.322420133586
21
1861.74281622245
31
0.000167183347370425
  0
LINE
 8
GROUP0
10
485.028190460713
20
1848.64474061089
30
0.000171371622952776
11
482.430114249365
21
1850.14474061089
31
0.00016632615507497
  0
LINE
 8
GROUP0
10
482.430114249365
20
1850.14474061089
30
0.00016632615507497
11
482.430114249367
21
1853.14474061089
31
0.000165068830290593
  0
LINE
 8
GROUP0
10
482.430114249367
20
1853.14474061089
30
0.000165068830290593
11
485.028190460718
21
1854.64474061089
31
0.000168856974015696
  0
LINE
 8
GROUP0
10
485.028190460718
20
1854.64474061089
30
0.000168856974015696
11
487.626266672065
21
1853.14474061089
31
0.000173902442434937
  0
LINE
 8
GROUP0
10
487.626266672065
20
1853.14474061089
30
0.000173902442434937
11
487.626266672063
21
1850.14474061089
31
0.000175159767309552
  0
LINE
 8
GROUP0
10
487.626266672063
20
1850.14474061089
30
0.000175159767309552
11
485.028190460713
21
1848.64474061089
31
0.000171371622952776
  0
LINE
 8
GROUP0
10
509.616632399586
20
1854.64474502468
30
0.000199812867403537
11
512.214708610935
21
1853.14474502468
31
0.000204858335822777
  0
LINE
 8
GROUP0
10
512.214708610935
20
1853.14474502468
30
0.000204858335822777
11
512.214708610933
21
1850.14474502468
31
0.000206115660607153
  0
LINE
 8
GROUP0
10
512.214708610933
20
1850.14474502468
30
0.000206115660607153
11
509.616632399583
21
1848.64474502468
31
0.000202327516430856
  0
LINE
 8
GROUP0
10
509.616632399583
20
1848.64474502468
30
0.000202327516430856
11
507.018556188234
21
1850.14474502468
31
0.000197282047199465
  0
LINE
 8
GROUP0
10
507.018556188234
20
1850.14474502468
30
0.000197282047199465
11
507.018556188236
21
1853.14474502468
31
0.000196024723227239
  0
LINE
 8
GROUP0
10
507.018556188236
20
1853.14474502468
30
0.000196024723227239
11
509.616632399586
21
1854.64474502468
31
0.000199812867403537
  0
LINE
 8
GROUP0
10
491.724343922224
20
1843.04666379977
30
0.000158512661609578
11
489.126267710871
21
1841.54666379977
31
0.000158201367675304
  0
LINE
 8
GROUP0
10
489.126267710871
20
1841.54666379977
30
0.000158201367675304
11
486.528191499518
21
1843.04666379977
31
0.000155896569228631
  0
LINE
 8
GROUP0
10
486.528191499518
20
1843.04666379977
30
0.000155896569228631
11
486.52819149952
21
1846.04666379977
31
0.000153903064355276
  0
LINE
 8
GROUP0
10
486.52819149952
20
1846.04666379977
30
0.000153903064355276
11
489.126267710874
21
1847.54666379977
31
0.000154214358515148
  0
LINE
 8
GROUP0
10
489.126267710874
20
1847.54666379977
30
0.000154214358515148
11
491.724343922226
21
1846.04666379977
31
0.000156519157097179
  0
LINE
 8
GROUP0
10
491.724343922226
20
1846.04666379977
30
0.000156519157097179
11
491.724343922224
21
1843.04666379977
31
0.000158512661609578
  0
LINE
 8
GROUP0
10
501.420482054457
20
1834.44858818819
30
0.000189979774177829
11
498.822405843108
21
1835.94858818819
31
0.000184934305578111
  0
LINE
 8
GROUP0
10
498.822405843108
20
1835.94858818819
30
0.000184934305578111
11
498.822405843111
21
1838.94858818819
31
0.000183676981064451
  0
LINE
 8
GROUP0
10
498.822405843111
20
1838.94858818819
30
0.000183676981064451
11
501.420482054461
21
1840.44858818819
31
0.000187465125782182
  0
LINE
 8
GROUP0
10
501.420482054461
20
1840.44858818819
30
0.000187465125782182
11
504.018558265809
21
1838.94858818819
31
0.000192510594111184
  0
LINE
 8
GROUP0
10
504.018558265809
20
1838.94858818819
30
0.000192510594111184
11
504.018558265806
21
1835.94858818819
31
0.000193767918805321
  0
LINE
 8
GROUP0
10
504.018558265806
20
1835.94858818819
30
0.000193767918805321
11
501.420482054457
21
1834.44858818819
31
0.000189979774177829
  0
LINE
 8
GROUP0
10
479.430116326936
20
1838.94858818821
30
0.000170740661408075
11
479.430116326934
21
1835.94858818821
31
0.000171997986102212
  0
LINE
 8
GROUP0
10
479.430116326934
20
1835.94858818821
30
0.000171997986102212
11
476.832040115583
21
1834.44858818821
31
0.000168209841294242
  0
LINE
 8
GROUP0
10
476.832040115583
20
1834.44858818821
30
0.000168209841294242
11
474.233963904234
21
1835.94858818821
31
0.000163164372965241
  0
LINE
 8
GROUP0
10
474.233963904234
20
1835.94858818821
30
0.000163164372965241
11
474.233963904237
21
1838.94858818821
31
0.000161907048541821
  0
LINE
 8
GROUP0
10
474.233963904237
20
1838.94858818821
30
0.000161907048541821
11
476.832040115588
21
1840.44858818821
31
0.00016569519344003
  0
LINE
 8
GROUP0
10
476.832040115588
20
1840.44858818821
30
0.00016569519344003
11
479.430116326936
21
1838.94858818821
31
0.000170740661408075
  0
LINE
 8
GROUP0
10
495.822407920692
20
1850.14474061086
30
0.000196929699922421
11
493.224331709343
21
1848.64474061087
31
0.000193141556648513
  0
LINE
 8
GROUP0
10
493.224331709343
20
1848.64474061087
30
0.000193141556648513
11
490.626255497994
21
1850.14474061086
31
0.000188096087417122
  0
LINE
 8
GROUP0
10
490.626255497994
20
1850.14474061086
30
0.000188096087417122
11
490.626255497996
21
1853.14474061086
31
0.000186838762993702
  0
LINE
 8
GROUP0
10
490.626255497996
20
1853.14474061086
30
0.000186838762993702
11
493.224331709347
21
1854.64474061086
31
0.000190626907350477
  0
LINE
 8
GROUP0
10
493.224331709347
20
1854.64474061086
30
0.000190626907350477
11
495.822407920695
21
1853.14474061086
31
0.000195672375408762
  0
LINE
 8
GROUP0
10
495.822407920695
20
1853.14474061086
30
0.000195672375408762
11
495.822407920692
21
1850.14474061086
31
0.000196929699922421
  0
LINE
 8
GROUP0
10
504.018558265817
20
1853.14474061086
30
0.000195672375318523
11
504.018558265815
21
1850.14474061086
31
0.000196929699922421
  0
LINE
 8
GROUP0
10
504.018558265815
20
1850.14474061086
30
0.000196929699922421
11
501.420482054465
21
1848.64474061087
31
0.000193141556648513
  0
LINE
 8
GROUP0
10
501.420482054465
20
1848.64474061087
30
0.000193141556648513
11
498.822405843116
21
1850.14474061086
31
0.000188096087417122
  0
LINE
 8
GROUP0
10
498.822405843116
20
1850.14474061086
30
0.000188096087417122
11
498.822405843119
21
1853.14474061086
31
0.000186838763264419
  0
LINE
 8
GROUP0
10
498.822405843119
20
1853.14474061086
30
0.000186838763264419
11
501.420482054468
21
1854.64474061086
31
0.000190626907350477
  0
LINE
 8
GROUP0
10
501.420482054468
20
1854.64474061086
30
0.000190626907350477
11
504.018558265817
21
1853.14474061086
31
0.000195672375318523
  0
LINE
 8
GROUP0
10
509.616632399579
20
1840.44859260201
30
0.000196651085654764
11
512.214708610926
21
1838.94859260201
31
0.000201696554344721
  0
LINE
 8
GROUP0
10
512.214708610926
20
1838.94859260201
30
0.000201696554344721
11
512.214708610925
21
1835.94859260201
31
0.000202953878407186
  0
LINE
 8
GROUP0
10
512.214708610925
20
1835.94859260201
30
0.000202953878407186
11
509.616632399574
21
1834.44859260201
31
0.000199165734772322
  0
LINE
 8
GROUP0
10
509.616632399574
20
1834.44859260201
30
0.000199165734772322
11
507.018556188226
21
1835.94859260201
31
0.000194120265450692
  0
LINE
 8
GROUP0
10
507.018556188226
20
1835.94859260201
30
0.000194120265450692
11
507.018556188228
21
1838.94859260201
31
0.000192862941929661
  0
LINE
 8
GROUP0
10
507.018556188228
20
1838.94859260201
30
0.000192862941929661
11
509.616632399579
21
1840.44859260201
31
0.000196651085654764
  0
LINE
 8
GROUP0
10
508.116648767611
20
1846.04666379976
30
0.000136904742252497
11
508.11664876761
21
1843.04666379976
31
0.000138898246990493
  0
LINE
 8
GROUP0
10
508.11664876761
20
1843.04666379976
30
0.000138898246990493
11
505.518572556256
21
1841.54666379976
31
0.000138586952289188
  0
LINE
 8
GROUP0
10
505.518572556256
20
1841.54666379976
30
0.000138586952289188
11
502.920496344903
21
1843.04666379976
31
0.000136282154519307
  0
LINE
 8
GROUP0
10
502.920496344903
20
1843.04666379976
30
0.000136282154519307
11
502.920496344906
21
1846.04666379976
31
0.000134288649600833
  0
LINE
 8
GROUP0
10
502.920496344906
20
1846.04666379976
30
0.000134288649600833
11
505.51857255626
21
1847.54666379976
31
0.000134599943580227
  0
LINE
 8
GROUP0
10
505.51857255626
20
1847.54666379976
30
0.000134599943580227
11
508.116648767611
21
1846.04666379976
31
0.000136904742252497
  0
LINE
 8
GROUP0
10
495.822407920684
20
1835.94858818819
30
0.000193767918805321
11
493.224331709335
21
1834.44858818819
31
0.000189979774177829
  0
LINE
 8
GROUP0
10
493.224331709335
20
1834.44858818819
30
0.000189979774177829
11
490.626255497986
21
1835.94858818819
31
0.000184934306029305
  0
LINE
 8
GROUP0
10
490.626255497986
20
1835.94858818819
30
0.000184934306029305
11
490.626255497988
21
1838.94858818819
31
0.00018367698115469
  0
LINE
 8
GROUP0
10
490.626255497988
20
1838.94858818819
30
0.00018367698115469
11
493.224331709339
21
1840.44858818819
31
0.000187465125872421
  0
LINE
 8
GROUP0
10
493.224331709339
20
1840.44858818819
30
0.000187465125872421
11
495.822407920686
21
1838.94858818819
31
0.000192510594291662
  0
LINE
 8
GROUP0
10
495.822407920686
20
1838.94858818819
30
0.000192510594291662
11
495.822407920684
21
1835.94858818819
31
0.000193767918805321
  0
LINE
 8
GROUP0
10
479.430116326944
20
1853.14474061089
30
0.000173902442525176
11
479.430116326942
21
1850.14474061089
31
0.000175159767309552
  0
LINE
 8
GROUP0
10
479.430116326942
20
1850.14474061089
30
0.000175159767309552
11
476.832040115591
21
1848.64474061089
31
0.000171371623043015
  0
LINE
 8
GROUP0
10
476.832040115591
20
1848.64474061089
30
0.000171371623043015
11
474.233963904243
21
1850.14474061089
31
0.00016632615507497
  0
LINE
 8
GROUP0
10
474.233963904243
20
1850.14474061089
30
0.00016632615507497
11
474.233963904245
21
1853.14474061089
31
0.000165068830290593
  0
LINE
 8
GROUP0
10
474.233963904245
20
1853.14474061089
30
0.000165068830290593
11
476.832040115595
21
1854.64474061089
31
0.000168856974015696
  0
LINE
 8
GROUP0
10
476.832040115595
20
1854.64474061089
30
0.000168856974015696
11
479.430116326944
21
1853.14474061089
31
0.000173902442525176
  0
LINE
 8
GROUP0
10
425.963913937238
20
1836.39470971424
30
1.54759760562229e-011
11
425.814063303481
21
1836.03293828189
31
1.56564539111059e-011
  0
LINE
 8
GROUP0
10
426.202291871135
20
1836.70536988602
30
1.53406176650606e-011
11
425.963913937238
21
1836.39470971424
31
1.54759760562229e-011
  0
LINE
 8
GROUP0
10
426.512952042915
20
1836.94374781992
30
1.51150203464567e-011
11
426.202291871135
21
1836.70536988602
31
1.53406176650606e-011
  0
LINE
 8
GROUP0
10
426.874723475261
20
1837.09359845367
30
1.52052592738983e-011
11
426.512952042915
21
1836.94374781992
31
1.51150203464567e-011
  0
LINE
 8
GROUP0
10
427.262952042915
20
1837.14470971424
30
1.51601398101775e-011
11
426.874723475261
21
1837.09359845367
31
1.52052592738983e-011
  0
LINE
 8
GROUP0
10
427.651180610569
20
1837.09359845367
30
1.53857371287813e-011
11
427.262952042915
21
1837.14470971424
31
1.51601398101775e-011
  0
LINE
 8
GROUP0
10
428.012952042915
20
1836.94374781992
30
1.53406176650606e-011
11
427.651180610569
21
1837.09359845367
31
1.53857371287813e-011
  0
LINE
 8
GROUP0
10
428.323612214695
20
1836.70536988602
30
1.54308565925021e-011
11
428.012952042915
21
1836.94374781992
31
1.53406176650606e-011
  0
LINE
 8
GROUP0
10
428.561990148592
20
1836.39470971424
30
1.56113344473852e-011
11
428.323612214695
21
1836.70536988602
31
1.54308565925021e-011
  0
LINE
 8
GROUP0
10
428.711840782349
20
1836.03293828189
30
1.5836931765989e-011
11
428.561990148592
21
1836.39470971424
31
1.56113344473852e-011
  0
LINE
 8
GROUP0
10
428.762952042915
20
1835.64470971424
30
1.60625290845928e-011
11
428.711840782349
21
1836.03293828189
31
1.5836931765989e-011
  0
LINE
 8
GROUP0
10
428.711840782349
20
1835.25648114659
30
1.63783653306382e-011
11
428.762952042915
21
1835.64470971424
31
1.60625290845928e-011
  0
LINE
 8
GROUP0
10
428.561990148592
20
1834.89470971424
30
1.6423484794359e-011
11
428.711840782349
21
1835.25648114659
31
1.63783653306382e-011
  0
LINE
 8
GROUP0
10
428.323612214695
20
1834.58404954246
30
1.65588431855213e-011
11
428.561990148592
21
1834.89470971424
31
1.6423484794359e-011
  0
LINE
 8
GROUP0
10
428.012952042915
20
1834.34567160856
30
1.68295599678459e-011
11
428.323612214695
21
1834.58404954246
31
1.65588431855213e-011
  0
LINE
 8
GROUP0
10
427.651180610569
20
1834.19582097481
30
1.68295599678459e-011
11
428.012952042915
21
1834.34567160856
31
1.68295599678459e-011
  0
LINE
 8
GROUP0
10
427.262952042915
20
1834.14470971424
30
1.67393210404043e-011
11
427.651180610569
21
1834.19582097481
31
1.68295599678459e-011
  0
LINE
 8
GROUP0
10
426.874723475261
20
1834.19582097481
30
1.66490821129628e-011
11
427.262952042915
21
1834.14470971424
31
1.67393210404043e-011
  0
LINE
 8
GROUP0
10
426.512952042915
20
1834.34567160856
30
1.6603962649242e-011
11
426.874723475261
21
1834.19582097481
31
1.66490821129628e-011
  0
LINE
 8
GROUP0
10
426.202291871135
20
1834.58404954246
30
1.64686042580797e-011
11
426.512952042915
21
1834.34567160856
31
1.6603962649242e-011
  0
LINE
 8
GROUP0
10
425.963913937238
20
1834.89470971424
30
1.62881264031967e-011
11
426.202291871135
21
1834.58404954246
31
1.64686042580797e-011
  0
LINE
 8
GROUP0
10
425.814063303481
20
1835.25648114659
30
1.60625290845928e-011
11
425.963913937238
21
1834.89470971424
31
1.62881264031967e-011
  0
LINE
 8
GROUP0
10
425.762952042915
20
1835.64470971424
30
1.60174096208721e-011
11
425.814063303481
21
1835.25648114659
31
1.60625290845928e-011
  0
LINE
 8
GROUP0
10
425.814063303481
20
1836.03293828189
30
1.56564539111059e-011
11
425.762952042915
21
1835.64470971424
31
1.60174096208721e-011
  0
LINE
 8
GROUP0
10
428.012952042915
20
1868.94374781992
30
-1.21822552046069e-012
11
427.651180610569
21
1869.09359845367
31
-1.44382283906452e-012
  0
LINE
 8
GROUP0
10
428.323612214695
20
1868.70536988602
30
-1.21822552046069e-012
11
428.012952042915
21
1868.94374781992
31
-1.21822552046069e-012
  0
LINE
 8
GROUP0
10
428.561990148592
20
1868.39470971424
30
-1.03774766557763e-012
11
428.323612214695
21
1868.70536988602
31
-1.21822552046069e-012
  0
LINE
 8
GROUP0
10
428.711840782349
20
1868.03293828189
30
-6.76791955811495e-013
11
428.561990148592
21
1868.39470971424
31
-1.03774766557763e-012
  0
LINE
 8
GROUP0
10
428.762952042915
20
1867.64470971424
30
-6.31672492090729e-013
11
428.711840782349
21
1868.03293828189
31
-6.76791955811495e-013
  0
LINE
 8
GROUP0
10
428.711840782349
20
1867.25648114659
30
-4.06075173486897e-013
11
428.762952042915
21
1867.64470971424
31
-6.31672492090729e-013
  0
LINE
 8
GROUP0
10
428.561990148592
20
1866.89470971424
30
-2.25597318603832e-013
11
428.711840782349
21
1867.25648114659
31
-4.06075173486897e-013
  0
LINE
 8
GROUP0
10
428.323612214695
20
1866.58404954246
30
-1.35358391162299e-013
11
428.561990148592
21
1866.89470971424
31
-2.25597318603832e-013
  0
LINE
 8
GROUP0
10
428.012952042915
20
1866.34567160856
30
0.0
11
428.323612214695
21
1866.58404954246
31
-1.35358391162299e-013
  0
LINE
 8
GROUP0
10
427.651180610569
20
1866.19582097481
30
9.02389274415327e-014
11
428.012952042915
21
1866.34567160856
31
0.0
  0
LINE
 8
GROUP0
10
427.262952042915
20
1866.14470971424
30
9.02389274415327e-014
11
427.651180610569
21
1866.19582097481
31
9.02389274415327e-014
  0
LINE
 8
GROUP0
10
426.874723475262
20
1866.19582097481
30
0.0
11
427.262952042915
21
1866.14470971424
31
9.02389274415327e-014
  0
LINE
 8
GROUP0
10
426.512952042915
20
1866.34567160856
30
-9.02389274415327e-014
11
426.874723475262
21
1866.19582097481
31
0.0
  0
LINE
 8
GROUP0
10
426.202291871136
20
1866.58404954246
30
-2.25597318603832e-013
11
426.512952042915
21
1866.34567160856
31
-9.02389274415327e-014
  0
LINE
 8
GROUP0
10
425.963913937239
20
1866.89470971424
30
-4.06075173486897e-013
11
426.202291871136
21
1866.58404954246
31
-2.25597318603832e-013
  0
LINE
 8
GROUP0
10
425.814063303482
20
1867.25648114659
30
-5.86553028369963e-013
11
425.963913937239
21
1866.89470971424
31
-4.06075173486897e-013
  0
LINE
 8
GROUP0
10
425.762952042915
20
1867.64470971424
30
-8.12150346973794e-013
11
425.814063303482
21
1867.25648114659
31
-5.86553028369963e-013
  0
LINE
 8
GROUP0
10
425.814063303482
20
1868.03293828189
30
-9.9262820185686e-013
11
425.762952042915
21
1867.64470971424
31
-8.12150346973794e-013
  0
LINE
 8
GROUP0
10
425.963913937239
20
1868.39470971424
30
-1.03774766557763e-012
11
425.814063303482
21
1868.03293828189
31
-9.9262820185686e-013
  0
LINE
 8
GROUP0
10
426.202291871136
20
1868.70536988602
30
-1.30846444790222e-012
11
425.963913937239
21
1868.39470971424
31
-1.03774766557763e-012
  0
LINE
 8
GROUP0
10
426.512952042915
20
1868.94374781992
30
-1.44382283906452e-012
11
426.202291871136
21
1868.70536988602
31
-1.30846444790222e-012
  0
LINE
 8
GROUP0
10
426.874723475262
20
1869.09359845367
30
-1.53406176650606e-012
11
426.512952042915
21
1868.94374781992
31
-1.44382283906452e-012
  0
LINE
 8
GROUP0
10
427.262952042915
20
1869.14470971424
30
-1.53406176650606e-012
11
426.874723475262
21
1869.09359845367
31
-1.53406176650606e-012
  0
LINE
 8
GROUP0
10
427.651180610569
20
1869.09359845367
30
-1.44382283906452e-012
11
427.262952042915
21
1869.14470971424
31
-1.53406176650606e-012
  0
LINE
 8
GROUP0
10
396.323612214695
20
1868.70536988602
30
-3.20348192417441e-012
11
396.012952042915
21
1868.94374781992
31
-3.29372085161594e-012
  0
LINE
 8
GROUP0
10
396.561990148592
20
1868.39470971424
30
-2.88764567812905e-012
11
396.323612214695
21
1868.70536988602
31
-3.20348192417441e-012
  0
LINE
 8
GROUP0
10
396.711840782349
20
1868.03293828189
30
-2.66204835952522e-012
11
396.561990148592
21
1868.39470971424
31
-2.88764567812905e-012
  0
LINE
 8
GROUP0
10
396.762952042915
20
1867.64470971424
30
-2.57180943208368e-012
11
396.711840782349
21
1868.03293828189
31
-2.66204835952522e-012
  0
LINE
 8
GROUP0
10
396.711840782349
20
1867.25648114659
30
-2.39133157720062e-012
11
396.762952042915
21
1867.64470971424
31
-2.57180943208368e-012
  0
LINE
 8
GROUP0
10
396.561990148592
20
1866.89470971424
30
-2.21085372231755e-012
11
396.711840782349
21
1867.25648114659
31
-2.39133157720062e-012
  0
LINE
 8
GROUP0
10
396.323612214695
20
1866.58404954246
30
-1.94013693999295e-012
11
396.561990148592
21
1866.89470971424
31
-2.21085372231755e-012
  0
LINE
 8
GROUP0
10
396.012952042915
20
1866.34567160856
30
-1.94013693999295e-012
11
396.323612214695
21
1866.58404954246
31
-1.94013693999295e-012
  0
LINE
 8
GROUP0
10
395.651180610569
20
1866.19582097481
30
-1.80477854883065e-012
11
396.012952042915
21
1866.34567160856
31
-1.94013693999295e-012
  0
LINE
 8
GROUP0
10
395.262952042915
20
1866.14470971424
30
-1.89501747627219e-012
11
395.651180610569
21
1866.19582097481
31
-1.80477854883065e-012
  0
LINE
 8
GROUP0
10
394.874723475262
20
1866.19582097481
30
-1.98525640371372e-012
11
395.262952042915
21
1866.14470971424
31
-1.89501747627219e-012
  0
LINE
 8
GROUP0
10
394.512952042915
20
1866.34567160856
30
-2.03037586743449e-012
11
394.874723475262
21
1866.19582097481
31
-1.98525640371372e-012
  0
LINE
 8
GROUP0
10
394.202291871136
20
1866.58404954246
30
-2.03037586743449e-012
11
394.512952042915
21
1866.34567160856
31
-2.03037586743449e-012
  0
LINE
 8
GROUP0
10
393.963913937239
20
1866.89470971424
30
-2.34621211347985e-012
11
394.202291871136
21
1866.58404954246
31
-2.03037586743449e-012
  0
LINE
 8
GROUP0
10
393.814063303482
20
1867.25648114659
30
-2.57180943208368e-012
11
393.963913937239
21
1866.89470971424
31
-2.34621211347985e-012
  0
LINE
 8
GROUP0
10
393.762952042915
20
1867.64470971424
30
-2.75228728696675e-012
11
393.814063303482
21
1867.25648114659
31
-2.57180943208368e-012
  0
LINE
 8
GROUP0
10
393.814063303482
20
1868.03293828189
30
-2.97788460557058e-012
11
393.762952042915
21
1867.64470971424
31
-2.75228728696675e-012
  0
LINE
 8
GROUP0
10
393.963913937239
20
1868.39470971424
30
-3.02300406929135e-012
11
393.814063303482
21
1868.03293828189
31
-2.97788460557058e-012
  0
LINE
 8
GROUP0
10
394.202291871135
20
1868.70536988602
30
-3.29372085161594e-012
11
393.963913937239
21
1868.39470971424
31
-3.02300406929135e-012
  0
LINE
 8
GROUP0
10
394.512952042915
20
1868.94374781992
30
-3.38395977905748e-012
11
394.202291871135
21
1868.70536988602
31
-3.29372085161594e-012
  0
LINE
 8
GROUP0
10
394.874723475262
20
1869.09359845367
30
-3.47419870649901e-012
11
394.512952042915
21
1868.94374781992
31
-3.38395977905748e-012
  0
LINE
 8
GROUP0
10
395.262952042915
20
1869.14470971424
30
-3.47419870649901e-012
11
394.874723475262
21
1869.09359845367
31
-3.47419870649901e-012
  0
LINE
 8
GROUP0
10
395.651180610569
20
1869.09359845367
30
-3.38395977905748e-012
11
395.262952042915
21
1869.14470971424
31
-3.47419870649901e-012
  0
LINE
 8
GROUP0
10
396.012952042915
20
1868.94374781992
30
-3.29372085161594e-012
11
395.651180610569
21
1869.09359845367
31
-3.38395977905748e-012
  0
LINE
 8
GROUP0
10
396.323612214695
20
1836.70536988602
30
1.34907196525091e-011
11
396.012952042915
21
1836.94374781992
31
1.32200028701845e-011
  0
LINE
 8
GROUP0
10
396.561990148592
20
1836.39470971424
30
1.36711975073922e-011
11
396.323612214695
21
1836.70536988602
31
1.34907196525091e-011
  0
LINE
 8
GROUP0
10
396.711840782349
20
1836.03293828189
30
1.3896794825996e-011
11
396.561990148592
21
1836.39470971424
31
1.36711975073922e-011
  0
LINE
 8
GROUP0
10
396.762952042915
20
1835.64470971424
30
1.41223921445999e-011
11
396.711840782349
21
1836.03293828189
31
1.3896794825996e-011
  0
LINE
 8
GROUP0
10
396.711840782349
20
1835.25648114659
30
1.44382283906452e-011
11
396.762952042915
21
1835.64470971424
31
1.41223921445999e-011
  0
LINE
 8
GROUP0
10
396.561990148592
20
1834.89470971424
30
1.4483347854366e-011
11
396.711840782349
21
1835.25648114659
31
1.44382283906452e-011
  0
LINE
 8
GROUP0
10
396.323612214695
20
1834.58404954246
30
1.45735867818075e-011
11
396.561990148592
21
1834.89470971424
31
1.4483347854366e-011
  0
LINE
 8
GROUP0
10
396.012952042915
20
1834.34567160856
30
1.47089451729698e-011
11
396.323612214695
21
1834.58404954246
31
1.45735867818075e-011
  0
LINE
 8
GROUP0
10
395.651180610569
20
1834.19582097481
30
1.49345424915737e-011
11
396.012952042915
21
1834.34567160856
31
1.47089451729698e-011
  0
LINE
 8
GROUP0
10
395.262952042915
20
1834.14470971424
30
1.47991841004114e-011
11
395.651180610569
21
1834.19582097481
31
1.49345424915737e-011
  0
LINE
 8
GROUP0
10
394.874723475261
20
1834.19582097481
30
1.48443035641321e-011
11
395.262952042915
21
1834.14470971424
31
1.47991841004114e-011
  0
LINE
 8
GROUP0
10
394.512952042915
20
1834.34567160856
30
1.46187062455283e-011
11
394.874723475261
21
1834.19582097481
31
1.48443035641321e-011
  0
LINE
 8
GROUP0
10
394.202291871135
20
1834.58404954246
30
1.4483347854366e-011
11
394.512952042915
21
1834.34567160856
31
1.46187062455283e-011
  0
LINE
 8
GROUP0
10
393.963913937238
20
1834.89470971424
30
1.43028699994829e-011
11
394.202291871135
21
1834.58404954246
31
1.4483347854366e-011
  0
LINE
 8
GROUP0
10
393.814063303482
20
1835.25648114659
30
1.41223921445999e-011
11
393.963913937238
21
1834.89470971424
31
1.43028699994829e-011
  0
LINE
 8
GROUP0
10
393.762952042915
20
1835.64470971424
30
1.40321532171583e-011
11
393.814063303482
21
1835.25648114659
31
1.41223921445999e-011
  0
LINE
 8
GROUP0
10
393.814063303482
20
1836.03293828189
30
1.3716316971113e-011
11
393.762952042915
21
1835.64470971424
31
1.40321532171583e-011
  0
LINE
 8
GROUP0
10
393.963913937238
20
1836.39470971424
30
1.35358391162299e-011
11
393.814063303482
21
1836.03293828189
31
1.3716316971113e-011
  0
LINE
 8
GROUP0
10
394.202291871135
20
1836.70536988602
30
1.34004807250676e-011
11
393.963913937238
21
1836.39470971424
31
1.35358391162299e-011
  0
LINE
 8
GROUP0
10
394.512952042915
20
1836.94374781992
30
1.3129763942743e-011
11
394.202291871135
21
1836.70536988602
31
1.34004807250676e-011
  0
LINE
 8
GROUP0
10
394.874723475261
20
1837.09359845367
30
1.31748834064638e-011
11
394.512952042915
21
1836.94374781992
31
1.3129763942743e-011
  0
LINE
 8
GROUP0
10
395.262952042915
20
1837.14470971424
30
1.31748834064638e-011
11
394.874723475261
21
1837.09359845367
31
1.31748834064638e-011
  0
LINE
 8
GROUP0
10
395.651180610569
20
1837.09359845367
30
1.34004807250676e-011
11
395.262952042915
21
1837.14470971424
31
1.31748834064638e-011
  0
LINE
 8
GROUP0
10
396.012952042915
20
1836.94374781992
30
1.32200028701845e-011
11
395.651180610569
21
1837.09359845367
31
1.34004807250676e-011
  0
LINE
 8
GROUP0
10
524.26284645113
20
1884.74481779469
30
0.0
11
524.26284645113
21
1868.64470971424
31
0.0
  0
LINE
 8
GROUP0
10
524.26284645113
20
1868.64470971424
30
0.0
11
524.245809364274
21
1868.51530019168
31
0.0
  0
LINE
 8
GROUP0
10
524.245809364274
20
1868.51530019168
30
0.0
11
524.195859153022
21
1868.39470971424
31
0.0
  0
LINE
 8
GROUP0
10
524.195859153022
20
1868.39470971424
30
0.0
11
524.116399841723
21
1868.29115632364
31
0.0
  0
LINE
 8
GROUP0
10
524.116399841723
20
1868.29115632364
30
0.0
11
524.01284645113
21
1868.21169701234
31
0.0
  0
LINE
 8
GROUP0
10
524.01284645113
20
1868.21169701234
30
0.0
11
523.892255973681
21
1868.16174680109
31
0.0
  0
LINE
 8
GROUP0
10
523.892255973681
20
1868.16174680109
30
0.0
11
523.76284645113
21
1868.14470971424
31
0.0
  0
LINE
 8
GROUP0
10
523.76284645113
20
1868.14470971424
30
0.0
11
523.633436928579
21
1868.16174680109
31
0.0
  0
LINE
 8
GROUP0
10
523.633436928579
20
1868.16174680109
30
0.0
11
523.51284645113
21
1868.21169701234
31
0.0
  0
LINE
 8
GROUP0
10
523.51284645113
20
1868.21169701234
30
0.0
11
523.409293060537
21
1868.29115632364
31
0.0
  0
LINE
 8
GROUP0
10
523.409293060537
20
1868.29115632364
30
0.0
11
523.329833749238
21
1868.39470971424
31
0.0
  0
LINE
 8
GROUP0
10
523.329833749238
20
1868.39470971424
30
0.0
11
523.279883537985
21
1868.51530019168
31
0.0
  0
LINE
 8
GROUP0
10
523.279883537985
20
1868.51530019168
30
0.0
11
523.26284645113
21
1868.64470971424
31
0.0
  0
LINE
 8
GROUP0
10
523.26284645113
20
1880.64470971423
30
0.0
11
523.26284645113
21
1868.64470971424
31
0.0
  0
LINE
 8
GROUP0
10
436.262952042916
20
1880.64474712611
30
0.0
11
523.26284645113
21
1880.64470971423
31
0.0
  0
LINE
 8
GROUP0
10
436.262952042916
20
1883.64474712611
30
0.0
11
436.262952042916
21
1880.64474712611
31
0.0
  0
LINE
 8
GROUP0
10
435.262952042916
20
1884.64474712611
30
0.0
11
436.262952042916
21
1883.64474712611
31
0.0
  0
LINE
 8
GROUP0
10
387.262952042916
20
1884.64478808043
30
1.57918123022682e-012
11
435.262952042916
21
1884.64474712611
31
0.0
  0
LINE
 8
GROUP0
10
387.262952042916
20
1884.64478808043
30
1.57918123022682e-012
11
386.262952042916
21
1883.64478808043
31
1.57918123022682e-012
  0
LINE
 8
GROUP0
10
386.262952042916
20
1883.64478808043
30
1.57918123022682e-012
11
386.262952042916
21
1880.64478808043
31
1.57918123022682e-012
  0
LINE
 8
GROUP0
10
299.262905251128
20
1880.64472818925
30
0.0
11
386.262952042916
21
1880.64478808043
31
1.57918123022682e-012
  0
LINE
 8
GROUP0
10
299.245868164273
20
1868.51531127672
30
0.0
11
299.262905251128
21
1868.64472079927
31
0.0
  0
LINE
 8
GROUP0
10
299.195917953021
20
1868.39472079927
30
0.0
11
299.245868164273
21
1868.51531127672
31
0.0
  0
LINE
 8
GROUP0
10
299.116458641722
20
1868.29116740867
30
0.0
11
299.195917953021
21
1868.39472079927
31
0.0
  0
LINE
 8
GROUP0
10
299.012905251129
20
1868.21170809737
30
0.0
11
299.116458641722
21
1868.29116740867
31
0.0
  0
LINE
 8
GROUP0
10
298.89231477368
20
1868.16175788612
30
0.0
11
299.012905251129
21
1868.21170809737
31
0.0
  0
LINE
 8
GROUP0
10
298.762905251128
20
1868.14472079927
30
0.0
11
298.89231477368
21
1868.16175788612
31
0.0
  0
LINE
 8
GROUP0
10
298.633495728577
20
1868.16175788612
30
0.0
11
298.762905251128
21
1868.14472079927
31
0.0
  0
LINE
 8
GROUP0
10
298.512905251128
20
1868.21170809737
30
0.0
11
298.633495728577
21
1868.16175788612
31
0.0
  0
LINE
 8
GROUP0
10
298.409351860535
20
1868.29116740867
30
0.0
11
298.512905251128
21
1868.21170809737
31
0.0
  0
LINE
 8
GROUP0
10
298.329892549236
20
1868.39472079927
30
0.0
11
298.409351860535
21
1868.29116740867
31
0.0
  0
LINE
 8
GROUP0
10
298.279942337984
20
1868.51531127672
30
0.0
11
298.329892549236
21
1868.39472079927
31
0.0
  0
LINE
 8
GROUP0
10
298.262905251128
20
1868.64472079927
30
0.0
11
298.279942337984
21
1868.51531127672
31
0.0
  0
LINE
 8
GROUP0
10
298.262901556127
20
1884.74481779469
30
0.0
11
298.262905251128
21
1868.64472079927
31
0.0
  0
LINE
 8
GROUP0
10
294.262901556125
20
1886.74481040468
30
0.0
11
298.262901556127
21
1886.74481779469
31
0.0
  0
LINE
 8
GROUP0
10
294.262901556125
20
1886.74481040468
30
0.0
11
294.262931116138
21
1868.64472079927
31
0.0
  0
LINE
 8
GROUP0
10
294.228857420596
20
1868.38590169121
30
0.0
11
294.262931116138
21
1868.64472079927
31
0.0
  0
LINE
 8
GROUP0
10
294.128957443673
20
1868.14472055175
30
0.0
11
294.228857420596
21
1868.38590169121
31
0.0
  0
LINE
 8
GROUP0
10
293.970039203705
20
1867.93761347696
30
0.0
11
294.128957443673
21
1868.14472055175
31
0.0
  0
LINE
 8
GROUP0
10
293.762932716122
20
1867.77869447174
30
0.0
11
293.970039203705
21
1867.93761347696
31
0.0
  0
LINE
 8
GROUP0
10
293.521751945791
20
1867.67879360365
30
0.0
11
293.762932716122
21
1867.77869447174
31
0.0
  0
LINE
 8
GROUP0
10
293.262932963641
20
1867.64471895177
30
0.0
11
293.521751945791
21
1867.67879360365
31
0.0
  0
LINE
 8
GROUP0
10
293.004113855586
20
1867.67879264731
30
0.0
11
293.262932963641
21
1867.64471895177
31
0.0
  0
LINE
 8
GROUP0
10
292.762932716123
20
1867.77869262423
30
0.0
11
293.004113855586
21
1867.67879264731
31
0.0
  0
LINE
 8
GROUP0
10
292.555825641335
20
1867.9376108642
30
0.0
11
292.762932716123
21
1867.77869262423
31
0.0
  0
LINE
 8
GROUP0
10
292.396906636107
20
1868.14471735179
30
0.0
11
292.555825641335
21
1867.9376108642
31
0.0
  0
LINE
 8
GROUP0
10
292.297005768021
20
1868.38589812212
30
0.0
11
292.396906636107
21
1868.14471735179
31
0.0
  0
LINE
 8
GROUP0
10
292.262931116141
20
1868.64471710427
30
0.0
11
292.297005768021
21
1868.38589812212
31
0.0
  0
LINE
 8
GROUP0
10
292.262897861127
20
1886.74480670968
30
0.0
11
292.262931116141
21
1868.64471710427
31
0.0
  0
LINE
 8
GROUP0
10
288.262901556127
20
1886.74479931638
30
0.0
11
292.262897861127
21
1886.74480670968
31
0.0
  0
LINE
 8
GROUP0
10
287.262901556127
20
1885.74480855554
30
0.0
11
287.262901556127
21
1884.74481779469
31
0.0
  0
LINE
 8
GROUP0
10
288.26289786772
20
1884.74479931968
30
0.0
11
287.262901556127
21
1884.74481779469
31
0.0
  0
LINE
 8
GROUP0
10
288.26289786772
20
1884.74479931968
30
0.0
11
288.262897992996
21
1846.64470971424
31
4.51194637207664e-014
  0
LINE
 8
GROUP0
10
298.262898078487
20
1836.64470971424
30
4.51194637207664e-014
11
288.262897992996
21
1846.64470971424
31
4.51194637207664e-014
  0
LINE
 8
GROUP0
10
298.262898078487
20
1820.64470971424
30
4.51194637207664e-014
11
298.262898078487
21
1836.64470971424
31
4.51194637207664e-014
  0
LINE
 8
GROUP0
10
302.262898091639
20
1816.64470971424
30
4.51194637207664e-014
11
298.262898078487
21
1820.64470971424
31
4.51194637207664e-014
  0
LINE
 8
GROUP0
10
302.262898091639
20
1816.64470971424
30
4.51194637207664e-014
11
520.26284645113
21
1816.64470971424
31
4.51194637207664e-014
  0
LINE
 8
GROUP0
10
520.26284645113
20
1816.64470971424
30
4.51194637207664e-014
11
524.26284645113
21
1820.64470971424
31
4.51194637207664e-014
  0
LINE
 8
GROUP0
10
524.26284645113
20
1820.64470971424
30
4.51194637207664e-014
11
524.26284645113
21
1836.64470971424
31
4.51194637207664e-014
  0
LINE
 8
GROUP0
10
534.26284645113
20
1846.64470971424
30
4.51194637207664e-014
11
524.26284645113
21
1836.64470971424
31
4.51194637207664e-014
  0
LINE
 8
GROUP0
10
534.26284645113
20
1884.74481779469
30
0.0
11
534.26284645113
21
1846.64470971424
31
4.51194637207664e-014
  0
LINE
 8
GROUP0
10
534.26284645113
20
1884.74481779469
30
0.0
11
535.26284645113
21
1884.74481779469
31
0.0
  0
LINE
 8
GROUP0
10
530.26284645113
20
1886.74481779469
30
0.0
11
534.26284645113
21
1886.74481779469
31
0.0
  0
LINE
 8
GROUP0
10
530.26284645113
20
1868.64470971424
30
0.0
11
530.26284645113
21
1886.74481779469
31
0.0
  0
LINE
 8
GROUP0
10
530.228772277419
20
1868.38589066913
30
0.0
11
530.26284645113
21
1868.64470971424
31
0.0
  0
LINE
 8
GROUP0
10
530.128871854914
20
1868.14470971424
30
0.0
11
530.228772277419
21
1868.38589066913
31
0.0
  0
LINE
 8
GROUP0
10
529.969953232317
20
1867.93760293305
30
0.0
11
530.128871854914
21
1868.14470971424
31
0.0
  0
LINE
 8
GROUP0
10
529.76284645113
20
1867.77868431045
30
0.0
11
529.969953232317
21
1867.93760293305
31
0.0
  0
LINE
 8
GROUP0
10
529.521665496232
20
1867.67878388795
30
0.0
11
529.76284645113
21
1867.77868431045
31
0.0
  0
LINE
 8
GROUP0
10
529.26284645113
20
1867.64470971423
30
0.0
11
529.521665496232
21
1867.67878388795
31
0.0
  0
LINE
 8
GROUP0
10
529.004027406027
20
1867.67878388795
30
0.0
11
529.26284645113
21
1867.64470971423
31
0.0
  0
LINE
 8
GROUP0
10
528.76284645113
20
1867.77868431045
30
0.0
11
529.004027406027
21
1867.67878388795
31
0.0
  0
LINE
 8
GROUP0
10
528.555739669943
20
1867.93760293305
30
0.0
11
528.76284645113
21
1867.77868431045
31
0.0
  0
LINE
 8
GROUP0
10
528.396821047346
20
1868.14470971424
30
0.0
11
528.555739669943
21
1867.93760293305
31
0.0
  0
LINE
 8
GROUP0
10
528.296920624841
20
1868.38589066913
30
0.0
11
528.396821047346
21
1868.14470971424
31
0.0
  0
LINE
 8
GROUP0
10
528.26284645113
20
1868.64470971424
30
0.0
11
528.296920624841
21
1868.38589066913
31
0.0
  0
LINE
 8
GROUP0
10
528.26284645113
20
1886.74481779469
30
0.0
11
528.26284645113
21
1868.64470971424
31
0.0
  0
LINE
 8
GROUP0
10
524.26284645113
20
1886.74481779469
30
0.0
11
528.26284645113
21
1886.74481779469
31
0.0
  0
LINE
 8
GROUP0
10
524.26284645113
20
1886.74481779469
30
0.0
11
523.26284645113
21
1885.74481779469
31
0.0
  0
LINE
 8
GROUP0
10
523.26284645113
20
1885.74481779469
30
0.0
11
523.26284645113
21
1884.74481779469
31
0.0
  0
LINE
 8
GROUP0
10
524.26284645113
20
1884.74481779469
30
0.0
11
523.26284645113
21
1884.74481779469
31
0.0
  0
LINE
 8
GROUP0
10
338.262890516848
20
1820.64470971423
30
0.0
11
338.262890516848
21
1824.64470971423
31
4.51194637207664e-014
  0
LINE
 8
GROUP0
10
308.262897861134
20
1820.64470971423
30
0.0
11
338.262890516848
21
1820.64470971423
31
0.0
  0
LINE
 8
GROUP0
10
308.262897861134
20
1824.64470971423
30
0.0
11
308.262897861134
21
1820.64470971423
31
0.0
  0
LINE
 8
GROUP0
10
308.262897861134
20
1824.64470971423
30
0.0
11
338.262890516848
21
1824.64470971423
31
4.51194637207664e-014
  0
LINE
 8
GROUP0
10
436.262952042938
20
1820.64470971424
30
0.0
11
436.262952042938
21
1824.64470971423
31
4.51194637207664e-014
  0
LINE
 8
GROUP0
10
386.262952042937
20
1820.64470971424
30
0.0
11
436.262952042938
21
1820.64470971424
31
0.0
  0
LINE
 8
GROUP0
10
386.262952042937
20
1820.64470971424
30
0.0
11
386.262952042937
21
1824.64470971423
31
4.51194637207664e-014
  0
LINE
 8
GROUP0
10
386.262952042937
20
1824.64470971423
30
4.51194637207664e-014
11
436.262952042938
21
1824.64470971423
31
4.51194637207664e-014
  0
LINE
 8
GROUP0
10
514.26284645113
20
1824.64470971423
30
0.0
11
514.26284645113
21
1820.64470971424
31
0.0
  0
LINE
 8
GROUP0
10
484.262853795416
20
1820.64470971424
30
0.0
11
514.26284645113
21
1820.64470971424
31
0.0
  0
LINE
 8
GROUP0
10
484.262853795416
20
1820.64470971424
30
0.0
11
484.262853795416
21
1824.64470971423
31
4.51194637207664e-014
  0
LINE
 8
GROUP0
10
484.262853795416
20
1824.64470971423
30
4.51194637207664e-014
11
514.26284645113
21
1824.64470971423
31
0.0
 0
ENDSEC
 0
EOF
