 0
SECTION
 2
ENTITIES
  0
LINE
 8
GROUP0
10
498.533054134241
20
1885.67528875186
30
0.000198271633492902
11
495.934977922892
21
1887.17528875186
31
0.000193226164800125
  0
LINE
 8
GROUP0
10
495.934977922895
20
1890.17528875186
30
0.000191968840643897
11
498.533054134244
21
1891.67528875186
31
0.000195756985360218
  0
LINE
 8
GROUP0
10
495.934977922892
20
1887.17528875186
30
0.000193226164800125
11
495.934977922895
21
1890.17528875186
31
0.000191968840643897
  0
LINE
 8
GROUP0
10
480.640765656892
20
1880.07720752696
30
0.000169430258271286
11
478.042689445542
21
1878.57720752696
31
0.000165642114547593
  0
LINE
 8
GROUP0
10
501.131130345593
20
1890.17528875186
30
0.000200802453601095
11
501.131130345591
21
1887.17528875186
31
0.000202059778389702
  0
LINE
 8
GROUP0
10
498.533054134244
20
1891.67528875186
30
0.000195756985360218
11
501.131130345593
21
1890.17528875186
31
0.000200802453601095
  0
LINE
 8
GROUP0
10
491.836918079591
20
1880.07720752696
30
0.00016059664594858
11
491.836918079593
21
1883.07720752696
31
0.000159339320980201
  0
LINE
 8
GROUP0
10
501.131130345591
20
1887.17528875186
30
0.000202059778389702
11
498.533054134241
21
1885.67528875186
31
0.000198271633492902
  0
LINE
 8
GROUP0
10
478.042689445545
20
1884.57720752696
30
0.000163127464971086
11
480.640765656894
21
1883.07720752696
31
0.000168172934115057
  0
LINE
 8
GROUP0
10
480.640765656894
20
1883.07720752696
30
0.000168172934115057
11
480.640765656892
21
1880.07720752696
31
0.000169430258271286
  0
LINE
 8
GROUP0
10
400.179268185776
20
1857.28296183747
30
0.000105640185143435
11
397.581191974428
21
1858.78296183747
31
0.000100594716992092
  0
LINE
 8
GROUP0
10
397.581191974428
20
1858.78296183747
30
0.000100594716992092
11
397.58119197443
21
1861.78296183747
31
9.93373921139518e-005
  0
LINE
 8
GROUP0
10
402.777344397126
20
1858.78296183747
30
0.000109428329769518
11
400.179268185776
21
1857.28296183747
31
0.000105640185143435
  0
LINE
 8
GROUP0
10
475.444613234194
20
1880.07720752696
30
0.00016059664594576
11
475.444613234196
21
1883.07720752696
31
0.000159339320977381
  0
LINE
 8
GROUP0
10
475.444613234196
20
1883.07720752696
30
0.000159339320977381
11
478.042689445545
21
1884.57720752696
31
0.000163127464971086
  0
LINE
 8
GROUP0
10
478.042689445542
20
1878.57720752696
30
0.000165642114547593
11
475.444613234194
21
1880.07720752696
31
0.00016059664594576
  0
LINE
 8
GROUP0
10
482.140753444005
20
1891.67528433804
30
0.000186571025484816
11
484.738829655353
21
1890.17528433804
31
0.000191616493635455
  0
LINE
 8
GROUP0
10
484.738829655353
20
1890.17528433804
30
0.000191616493635455
11
484.738829655351
21
1887.17528433805
31
0.000192873817520967
  0
LINE
 8
GROUP0
10
397.58119197443
20
1861.78296183747
30
9.93373921139518e-005
11
400.17926818578
21
1863.28296183747
31
0.000103125536830273
  0
LINE
 8
GROUP0
10
479.542677232652
20
1887.17528433804
30
0.000184040205105201
11
479.542677232654
21
1890.17528433804
31
0.000182782880678256
  0
LINE
 8
GROUP0
10
479.542677232654
20
1890.17528433804
30
0.000182782880678256
11
482.140753444005
21
1891.67528433804
31
0.000186571025484816
  0
LINE
 8
GROUP0
10
402.777344397128
20
1861.78296183747
30
0.000108171005251628
11
402.777344397126
21
1858.78296183747
31
0.000109428329769518
  0
LINE
 8
GROUP0
10
482.140753444002
20
1885.67528433804
30
0.000189085674429651
11
479.542677232652
21
1887.17528433804
31
0.000184040205105201
  0
LINE
 8
GROUP0
10
400.17926818578
20
1863.28296183747
30
0.000103125536830273
11
402.777344397128
21
1861.78296183747
31
0.000108171005251628
  0
LINE
 8
GROUP0
10
463.150385638901
20
1887.17528433807
30
0.000162270272579751
11
463.150385638903
21
1890.17528433807
31
0.000161012947791145
  0
LINE
 8
GROUP0
10
398.679280398667
20
1868.88103744905
30
7.21795680923953e-005
11
398.679280398666
21
1865.88103744905
31
7.41730726090239e-005
  0
LINE
 8
GROUP0
10
465.748461850249
20
1885.67528433807
30
0.000167315740279195
11
463.150385638901
21
1887.17528433807
31
0.000162270272579751
  0
LINE
 8
GROUP0
10
484.738829655351
20
1887.17528433805
30
0.000192873817520967
11
482.140753444002
21
1885.67528433804
31
0.000189085674429651
  0
LINE
 8
GROUP0
10
468.3465380616
20
1887.17528433807
30
0.000171103885175994
11
465.748461850249
21
1885.67528433807
31
0.000167315740279195
  0
LINE
 8
GROUP0
10
468.346538061602
20
1890.17528433807
30
0.000169846560568571
11
468.3465380616
21
1887.17528433807
31
0.000171103885175994
  0
LINE
 8
GROUP0
10
463.150385638903
20
1890.17528433807
30
0.000161012947791145
11
465.748461850253
21
1891.67528433807
31
0.000164801092056271
  0
LINE
 8
GROUP0
10
465.748461850253
20
1891.67528433807
30
0.000164801092056271
11
468.346538061602
21
1890.17528433807
31
0.000169846560568571
  0
LINE
 8
GROUP0
10
393.48312797596
20
1865.88103744905
30
7.15569802266669e-005
11
393.483127975962
21
1868.88103744905
31
6.95634753497876e-005
  0
LINE
 8
GROUP0
10
393.483127975962
20
1868.88103744905
30
6.95634753497876e-005
11
396.081204187316
21
1870.38103744905
31
6.98747695082491e-005
  0
LINE
 8
GROUP0
10
482.140753444002
20
1871.47913191537
30
0.000189085674537515
11
479.542677232652
21
1872.97913191537
31
0.000184040205304009
  0
LINE
 8
GROUP0
10
479.542677232652
20
1872.97913191537
30
0.000184040205304009
11
479.542677232655
21
1875.97913191537
31
0.000182782880877064
  0
LINE
 8
GROUP0
10
396.081204187312
20
1864.38103744905
30
7.38617786310403e-005
11
393.48312797596
21
1865.88103744905
31
7.15569802266669e-005
  0
LINE
 8
GROUP0
10
396.081204187316
20
1870.38103744905
30
6.98747695082491e-005
11
398.679280398667
21
1868.88103744905
31
7.21795680923953e-005
  0
LINE
 8
GROUP0
10
398.679280398666
20
1865.88103744905
30
7.41730726090239e-005
11
396.081204187312
21
1864.38103744905
31
7.38617786310403e-005
  0
LINE
 8
GROUP0
10
484.73882965535
20
1872.97913191537
30
0.000192873817810013
11
482.140753444002
21
1871.47913191537
31
0.000189085674537515
  0
LINE
 8
GROUP0
10
472.444613234191
20
1868.88105510428
30
0.000162270482230159
11
472.444613234189
21
1865.88105510428
31
0.000164263986836322
  0
LINE
 8
GROUP0
10
472.444613234189
20
1865.88105510428
30
0.000164263986836322
11
469.846537022835
21
1864.38105510428
31
0.000163952692768099
  0
LINE
 8
GROUP0
10
467.248460811486
20
1868.88105510428
30
0.000159654390118519
11
469.84653702284
21
1870.38105510428
31
0.000159965683555069
  0
LINE
 8
GROUP0
10
469.84653702284
20
1870.38105510428
30
0.000159965683555069
11
472.444613234191
21
1868.88105510428
31
0.000162270482230159
  0
LINE
 8
GROUP0
10
479.542677232655
20
1875.97913191537
30
0.000182782880877064
11
482.140753444005
21
1877.47913191537
31
0.000186571025231724
  0
LINE
 8
GROUP0
10
484.738829655353
20
1875.97913191537
30
0.000191616493292829
11
484.73882965535
21
1872.97913191537
31
0.000192873817810013
  0
LINE
 8
GROUP0
10
469.846537022835
20
1864.38105510428
30
0.000163952692768099
11
467.248460811484
21
1865.88105510428
31
0.000161647894905864
  0
LINE
 8
GROUP0
10
482.140753444005
20
1877.47913191537
30
0.000186571025231724
11
484.738829655353
21
1875.97913191537
31
0.000191616493292829
  0
LINE
 8
GROUP0
10
467.248460811484
20
1865.88105510428
30
0.000161647894905864
11
467.248460811486
21
1868.88105510428
31
0.000159654390118519
  0
LINE
 8
GROUP0
10
413.973492664668
20
1858.78296625129
30
0.000109780676417004
11
413.97349266467
21
1861.78296625129
31
0.000108523352891743
  0
LINE
 8
GROUP0
10
419.169645087368
20
1861.78296625129
30
0.000117356965308213
11
419.169645087367
21
1858.78296625129
31
0.000118614289374203
  0
LINE
 8
GROUP0
10
416.571568876016
20
1857.28296625129
30
0.000114826145740748
11
413.973492664668
21
1858.78296625129
31
0.000109780676417004
  0
LINE
 8
GROUP0
10
473.944612195364
20
1857.28297949272
30
0.000164153959155044
11
471.346535984015
21
1858.78297949272
31
0.000159108490823928
  0
LINE
 8
GROUP0
10
413.97349266467
20
1861.78296625129
30
0.000108523352891743
11
416.57156887602
21
1863.28296625129
31
0.000112311496615436
  0
LINE
 8
GROUP0
10
419.169645087367
20
1858.78296625129
30
0.000118614289374203
11
416.571568876016
21
1857.28296625129
31
0.000114826145740748
  0
LINE
 8
GROUP0
10
416.57156887602
20
1863.28296625129
30
0.000112311496615436
11
419.169645087368
21
1861.78296625129
31
0.000117356965308213
  0
LINE
 8
GROUP0
10
465.748461850241
20
1857.28297949272
30
0.000164153959153635
11
463.150385638892
21
1858.78297949272
31
0.000159108490822518
  0
LINE
 8
GROUP0
10
476.542688406716
20
1861.78297949272
30
0.000166684779173704
11
476.542688406713
21
1858.78297949272
31
0.000167942104051844
  0
LINE
 8
GROUP0
10
473.944612195368
20
1863.28297949272
30
0.000161639310571166
11
476.542688406716
21
1861.78297949272
31
0.000166684779173704
  0
LINE
 8
GROUP0
10
476.542688406713
20
1858.78297949272
30
0.000167942104051844
11
473.944612195364
21
1857.28297949272
31
0.000164153959155044
  0
LINE
 8
GROUP0
10
468.346538061594
20
1861.78297949272
30
0.000166684779261828
11
468.346538061592
21
1858.78297949272
31
0.000167942103960195
  0
LINE
 8
GROUP0
10
468.346538061592
20
1858.78297949272
30
0.000167942103960195
11
465.748461850241
21
1857.28297949272
31
0.000164153959153635
  0
LINE
 8
GROUP0
10
471.346535984015
20
1858.78297949272
30
0.000159108490823928
11
471.346535984018
21
1861.78297949272
31
0.000157851166306039
  0
LINE
 8
GROUP0
10
471.346535984018
20
1861.78297949272
30
0.000157851166306039
11
473.944612195368
21
1863.28297949272
31
0.000161639310571166
  0
LINE
 8
GROUP0
10
495.934977922895
20
1875.97913632919
30
0.000191968841113421
11
498.533054134244
21
1877.47913632919
31
0.000195756985288309
  0
LINE
 8
GROUP0
10
465.748461850246
20
1863.28297949272
30
0.000161639311291667
11
468.346538061594
21
1861.78297949272
31
0.000166684779261828
  0
LINE
 8
GROUP0
10
463.150385638892
20
1858.78297949272
30
0.000159108490822518
11
463.150385638896
21
1861.78297949272
31
0.000157851166394868
  0
LINE
 8
GROUP0
10
495.934977922892
20
1872.97913632919
30
0.000193226165089172
11
495.934977922895
21
1875.97913632919
31
0.000191968841113421
  0
LINE
 8
GROUP0
10
501.131130345593
20
1875.97913632919
30
0.000200802453709664
11
501.131130345591
21
1872.97913632919
31
0.00020205977849827
  0
LINE
 8
GROUP0
10
501.131130345591
20
1872.97913632919
30
0.00020205977849827
11
498.533054134241
21
1871.47913632919
31
0.000198271634323383
  0
LINE
 8
GROUP0
10
498.533054134244
20
1877.47913632919
30
0.000195756985288309
11
501.131130345593
21
1875.97913632919
31
0.000200802453709664
  0
LINE
 8
GROUP0
10
463.150385638896
20
1861.78297949272
30
0.000157851166394868
11
465.748461850246
21
1863.28297949272
31
0.000161639311291667
  0
LINE
 8
GROUP0
10
498.533054134241
20
1871.47913632919
30
0.000198271634323383
11
495.934977922892
21
1872.97913632919
31
0.000193226165089172
  0
LINE
 8
GROUP0
10
492.934980000473
20
1887.17528433805
30
0.000192873817523082
11
490.336903789123
21
1885.67528433804
31
0.000189085674431061
  0
LINE
 8
GROUP0
10
487.738827577775
20
1887.17528433804
30
0.000184040205106611
11
487.738827577777
21
1890.17528433804
31
0.000182782880589427
  0
LINE
 8
GROUP0
10
492.934980000475
20
1890.17528433804
30
0.000191616493546626
11
492.934980000473
21
1887.17528433805
31
0.000192873817523082
  0
LINE
 8
GROUP0
10
498.533054134232
20
1857.28298390651
30
0.000195109852638059
11
495.934977922884
21
1858.78298390651
31
0.00019006438331361
  0
LINE
 8
GROUP0
10
490.336903789123
20
1885.67528433804
30
0.000189085674431061
11
487.738827577775
21
1887.17528433804
31
0.000184040205106611
  0
LINE
 8
GROUP0
10
487.738827577777
20
1890.17528433804
30
0.000182782880589427
11
490.336903789127
21
1891.67528433804
31
0.000186571025486226
  0
LINE
 8
GROUP0
10
490.336903789127
20
1891.67528433804
30
0.000186571025486226
11
492.934980000475
21
1890.17528433804
31
0.000191616493546626
  0
LINE
 8
GROUP0
10
501.131130345584
20
1861.78298390651
30
0.000197640672204819
11
501.131130345583
21
1858.78298390651
31
0.000198897996271513
  0
LINE
 8
GROUP0
10
495.934977922887
20
1861.78298390651
30
0.000188807059789053
11
498.533054134237
21
1863.28298390651
31
0.000192595203512747
  0
LINE
 8
GROUP0
10
498.533054134237
20
1863.28298390651
30
0.000192595203512747
11
501.131130345584
21
1861.78298390651
31
0.000197640672204819
  0
LINE
 8
GROUP0
10
495.934977922884
20
1858.78298390651
30
0.00019006438331361
11
495.934977922887
21
1861.78298390651
31
0.000188807059789053
  0
LINE
 8
GROUP0
10
497.033070502268
20
1865.88105510426
30
0.00013484236484495
11
494.434994290914
21
1864.38105510427
31
0.000134531070145055
  0
LINE
 8
GROUP0
10
494.434994290914
20
1864.38105510427
30
0.000134531070145055
11
491.836918079562
21
1865.88105510427
31
0.000132226272372354
  0
LINE
 8
GROUP0
10
501.131130345583
20
1858.78298390651
30
0.000198897996271513
11
498.533054134232
21
1857.28298390651
31
0.000195109852638059
  0
LINE
 8
GROUP0
10
491.836918079562
20
1865.88105510427
30
0.000132226272372354
11
491.836918079564
21
1868.88105510427
31
0.000130232767495475
  0
LINE
 8
GROUP0
10
487.738827577769
20
1861.78297949269
30
0.000179621098922433
11
490.336903789119
21
1863.28297949269
31
0.000183409243638755
  0
LINE
 8
GROUP0
10
492.934980000465
20
1858.78297949269
30
0.000189712036667533
11
490.336903789115
21
1857.2829794927
31
0.000185923892041451
  0
LINE
 8
GROUP0
10
497.033070502269
20
1868.88105510426
30
0.000132848860147844
11
497.033070502268
21
1865.88105510426
31
0.00013484236484495
  0
LINE
 8
GROUP0
10
487.738827577767
20
1858.7829794927
30
0.000180878423439618
11
487.738827577769
21
1861.78297949269
31
0.000179621098922433
  0
LINE
 8
GROUP0
10
490.336903789119
20
1863.28297949269
30
0.000183409243638755
11
492.934980000468
21
1861.78297949269
31
0.000188454711969871
  0
LINE
 8
GROUP0
10
490.336903789115
20
1857.2829794927
30
0.000185923892041451
11
487.738827577767
21
1858.7829794927
31
0.000180878423439618
  0
LINE
 8
GROUP0
10
491.836918079564
20
1868.88105510427
30
0.000130232767495475
11
494.434994290918
21
1870.38105510427
31
0.000130544061473459
  0
LINE
 8
GROUP0
10
494.434994290918
20
1870.38105510427
30
0.000130544061473459
11
497.033070502269
21
1868.88105510426
31
0.000132848860147844
  0
LINE
 8
GROUP0
10
492.934980000468
20
1861.78297949269
30
0.000188454711969871
11
492.934980000465
21
1858.78297949269
31
0.000189712036667533
  0
LINE
 8
GROUP0
10
478.042689445529
20
1864.38105510428
30
0.000154145485527646
11
475.444613234177
21
1865.88105510428
31
0.000151840687123977
  0
LINE
 8
GROUP0
10
478.042689445533
20
1870.38105510428
30
0.000150158476404855
11
480.640765656884
21
1868.88105510428
31
0.000152463274989706
  0
LINE
 8
GROUP0
10
480.640765656884
20
1868.88105510428
30
0.000152463274989706
11
480.640765656882
21
1865.88105510428
31
0.00015445677950563
  0
LINE
 8
GROUP0
10
475.444613234179
20
1868.88105510428
30
0.000149847182246393
11
478.042689445533
21
1870.38105510428
31
0.000150158476404855
  0
LINE
 8
GROUP0
10
480.640765656882
20
1865.88105510428
30
0.00015445677950563
11
478.042689445529
21
1864.38105510428
31
0.000154145485527646
  0
LINE
 8
GROUP0
10
390.483127975975
20
1868.88103744906
30
8.19867753328485e-005
11
390.483127975973
21
1865.88103744906
31
8.3980279939716e-005
  0
LINE
 8
GROUP0
10
475.444613234177
20
1865.88105510428
30
0.000151840687123977
11
475.444613234179
21
1868.88105510428
31
0.000149847182246393
  0
LINE
 8
GROUP0
10
387.885051764623
20
1870.38103744906
30
7.96819766584633e-005
11
390.483127975975
21
1868.88103744906
31
8.19867753328485e-005
  0
LINE
 8
GROUP0
10
385.286975553267
20
1865.88103744906
30
8.13641880085536e-005
11
385.286975553269
21
1868.88103744906
31
7.93706832219132e-005
  0
LINE
 8
GROUP0
10
390.483127975973
20
1865.88103744906
30
8.3980279939716e-005
11
387.885051764618
21
1864.38103744906
31
8.36689858714934e-005
  0
LINE
 8
GROUP0
10
385.286975553269
20
1868.88103744906
30
7.93706832219132e-005
11
387.885051764623
21
1870.38103744906
31
7.96819766584633e-005
  0
LINE
 8
GROUP0
10
389.385050725799
20
1858.7829618375
30
7.88247839266176e-005
11
389.385050725801
21
1861.7829618375
31
7.75674594094333e-005
  0
LINE
 8
GROUP0
10
387.885051764618
20
1864.38103744906
30
8.36689858714934e-005
11
385.286975553267
21
1865.88103744906
31
8.13641880085536e-005
  0
LINE
 8
GROUP0
10
391.983126937147
20
1857.2829618375
30
8.38702522584389e-005
11
389.385050725799
21
1858.7829618375
31
7.88247839266176e-005
  0
LINE
 8
GROUP0
10
389.385050725801
20
1861.7829618375
30
7.75674594094333e-005
11
391.983126937151
21
1863.28296183749
31
8.135560367456e-005
  0
LINE
 8
GROUP0
10
394.581203148499
20
1861.7829618375
30
8.6401072276393e-005
11
394.581203148497
21
1858.7829618375
31
8.7658397155238e-005
  0
LINE
 8
GROUP0
10
479.542677232644
20
1858.7829794927
30
0.000180878423889402
11
479.542677232647
21
1861.78297949269
31
0.000179621099010557
  0
LINE
 8
GROUP0
10
394.581203148497
20
1858.7829618375
30
8.7658397155238e-005
11
391.983126937147
21
1857.2829618375
31
8.38702522584389e-005
  0
LINE
 8
GROUP0
10
479.542677232647
20
1861.78297949269
30
0.000179621099010557
11
482.140753443997
21
1863.28297949269
31
0.000183409243726879
  0
LINE
 8
GROUP0
10
484.738829655343
20
1858.78297949269
30
0.000189712036666123
11
482.140753443993
21
1857.2829794927
31
0.000185923892040041
  0
LINE
 8
GROUP0
10
391.983126937151
20
1863.28296183749
30
8.135560367456e-005
11
394.581203148499
21
1861.7829618375
31
8.6401072276393e-005
  0
LINE
 8
GROUP0
10
484.738829655345
20
1861.78297949269
30
0.000188454712148939
11
484.738829655343
21
1858.78297949269
31
0.000189712036666123
  0
LINE
 8
GROUP0
10
482.140753443997
20
1863.28297949269
30
0.000183409243726879
11
484.738829655345
21
1861.78297949269
31
0.000188454712148939
  0
LINE
 8
GROUP0
10
488.836918079576
20
1865.88105510427
30
0.000144649571723743
11
486.238841868221
21
1864.38105510427
31
0.00014433827765552
  0
LINE
 8
GROUP0
10
486.238841868221
20
1864.38105510427
30
0.00014433827765552
11
483.640765656869
21
1865.88105510427
31
0.000142033479342091
  0
LINE
 8
GROUP0
10
483.640765656869
20
1865.88105510427
30
0.000142033479342091
11
483.640765656871
21
1868.88105510427
31
0.000140039975096884
  0
LINE
 8
GROUP0
10
486.238841868224
20
1870.38105510427
30
0.000140351269074868
11
488.836918079577
21
1868.88105510427
31
0.000142656067568775
  0
LINE
 8
GROUP0
10
483.640765656871
20
1868.88105510427
30
0.000140039975096884
11
486.238841868224
21
1870.38105510427
31
0.000140351269074868
  0
LINE
 8
GROUP0
10
505.22922292496
20
1865.88105510426
30
0.000125035156882586
11
502.631146713607
21
1864.38105510426
31
0.000124723863175319
  0
LINE
 8
GROUP0
10
488.836918079577
20
1868.88105510427
30
0.000142656067568775
11
488.836918079576
21
1865.88105510427
31
0.000144649571723743
  0
LINE
 8
GROUP0
10
482.140753443993
20
1857.2829794927
30
0.000185923892040041
11
479.542677232644
21
1858.7829794927
31
0.000180878423889402
  0
LINE
 8
GROUP0
10
502.631146713607
20
1864.38105510426
30
0.000124723863175319
11
500.033070502255
21
1865.88105510426
31
0.000122419065131901
  0
LINE
 8
GROUP0
10
502.63114671361
20
1870.38105510426
30
0.000120736854233006
11
505.229222924962
21
1868.88105510426
31
0.00012304165299763
  0
LINE
 8
GROUP0
10
500.033070502257
20
1868.88105510426
30
0.000120425560345261
11
502.63114671361
21
1870.38105510426
31
0.000120736854233006
  0
LINE
 8
GROUP0
10
351.002384308051
20
1877.47910543256
30
4.43755315502725e-005
11
353.600460519398
21
1875.97910543256
31
4.94209999716277e-005
  0
LINE
 8
GROUP0
10
505.229222924962
20
1868.88105510426
30
0.00012304165299763
11
505.22922292496
21
1865.88105510426
31
0.000125035156882586
  0
LINE
 8
GROUP0
10
353.600460519398
20
1875.97910543256
30
4.94209999716277e-005
11
353.600460519396
21
1872.97910543256
31
5.06783248504727e-005
  0
LINE
 8
GROUP0
10
348.404308096701
20
1875.97910543256
30
4.05873878265794e-005
11
351.002384308051
21
1877.47910543256
31
4.43755315502725e-005
  0
LINE
 8
GROUP0
10
500.033070502255
20
1865.88105510426
30
0.000122419065131901
11
500.033070502257
21
1868.88105510426
31
0.000120425560345261
  0
LINE
 8
GROUP0
10
367.394675901794
20
1863.28295300986
30
6.29836832927888e-005
11
369.992752113142
21
1861.78295300986
31
6.80291516246101e-005
  0
LINE
 8
GROUP0
10
353.600460519396
20
1872.97910543256
30
5.06783248504727e-005
11
351.002384308047
21
1871.47910543256
31
4.68901804951072e-005
  0
LINE
 8
GROUP0
10
364.796599690444
20
1861.78295300986
30
5.91955385764675e-005
11
367.394675901794
21
1863.28295300986
31
6.29836832927888e-005
  0
LINE
 8
GROUP0
10
369.992752113142
20
1861.78295300986
30
6.80291516246101e-005
11
369.99275211314
21
1858.78295300986
31
6.92864763222722e-005
  0
LINE
 8
GROUP0
10
364.796599690442
20
1858.78295300986
30
6.04528630943568e-005
11
364.796599690444
21
1861.78295300986
31
5.91955385764675e-005
  0
LINE
 8
GROUP0
10
351.002384308047
20
1871.47910543256
30
4.68901804951072e-005
11
348.404308096698
21
1872.97910543256
31
4.18447126151855e-005
  0
LINE
 8
GROUP0
10
348.404308096698
20
1872.97910543256
30
4.18447126151855e-005
11
348.404308096701
21
1875.97910543256
31
4.05873878265794e-005
  0
LINE
 8
GROUP0
10
367.39467590179
20
1857.28295300986
30
6.54983316961899e-005
11
364.796599690442
21
1858.78295300986
31
6.04528630943568e-005
  0
LINE
 8
GROUP0
10
360.698537769546
20
1868.88102862144
30
1.96144147509181e-005
11
363.296613980899
21
1870.38102862143
31
1.99257087289018e-005
  0
LINE
 8
GROUP0
10
360.698537769544
20
1865.88102862144
30
2.16079189968299e-005
11
360.698537769546
21
1868.88102862144
31
1.96144147509181e-005
  0
LINE
 8
GROUP0
10
374.090842614943
20
1865.88102862143
30
1.44168044989845e-005
11
371.492766403589
21
1864.38102862143
31
1.41055097990894e-005
  0
LINE
 8
GROUP0
10
363.296613980899
20
1870.38102862143
30
1.99257087289018e-005
11
365.894690192252
21
1868.88102862143
31
2.22305072235141e-005
  0
LINE
 8
GROUP0
10
365.894690192251
20
1865.88102862144
30
2.4224011378482e-005
11
363.296613980896
21
1864.38102862144
31
2.39127173102593e-005
  0
LINE
 8
GROUP0
10
363.296613980896
20
1864.38102862144
30
2.39127173102593e-005
11
360.698537769544
21
1865.88102862144
31
2.16079189968299e-005
  0
LINE
 8
GROUP0
10
365.894690192252
20
1868.88102862143
30
2.22305072235141e-005
11
365.894690192251
21
1865.88102862144
31
2.4224011378482e-005
  0
LINE
 8
GROUP0
10
369.99275211314
20
1858.78295300986
30
6.92864763222722e-005
11
367.39467590179
21
1857.28295300986
31
6.54983316961899e-005
  0
LINE
 8
GROUP0
10
371.492766403589
20
1864.38102862143
30
1.41055097990894e-005
11
368.894690192237
21
1865.88102862143
31
1.18007120270935e-005
  0
LINE
 8
GROUP0
10
368.894690192239
20
1868.88102862143
30
9.80720714950922e-006
11
371.492766403593
21
1870.38102862143
31
1.01185011274929e-005
  0
LINE
 8
GROUP0
10
400.179268185785
20
1871.47911426015
30
0.000108801967640909
11
397.581191974435
21
1872.97911426015
31
0.000103756498406699
  0
LINE
 8
GROUP0
10
368.894690192237
20
1865.88102862143
30
1.18007120270935e-005
11
368.894690192239
21
1868.88102862143
31
9.80720714950922e-006
  0
LINE
 8
GROUP0
10
397.581191974435
20
1872.97911426015
30
0.000103756498406699
11
397.581191974438
21
1875.97911426015
31
0.000102499173979753
  0
LINE
 8
GROUP0
10
397.581191974438
20
1875.97911426015
30
0.000102499173979753
11
400.179268185788
21
1877.47911426015
31
0.000106287318335119
  0
LINE
 8
GROUP0
10
374.090842614944
20
1868.88102862143
30
1.24232998025831e-005
11
374.090842614943
21
1865.88102862143
31
1.44168044989845e-005
  0
LINE
 8
GROUP0
10
371.492766403593
20
1870.38102862143
30
1.01185011274929e-005
11
374.090842614944
21
1868.88102862143
31
1.24232998025831e-005
  0
LINE
 8
GROUP0
10
408.375418530906
20
1885.67526668282
30
0.00010880196753375
11
405.777342319558
21
1887.17526668282
31
0.000103756498210006
  0
LINE
 8
GROUP0
10
408.37541853091
20
1891.67526668282
30
0.000106287318588916
11
410.973494742259
21
1890.17526668282
31
0.00011133278665002
  0
LINE
 8
GROUP0
10
402.777344397134
20
1872.97911426015
30
0.000112590110913408
11
400.179268185785
21
1871.47911426015
31
0.000108801967640909
  0
LINE
 8
GROUP0
10
405.777342319558
20
1887.17526668282
30
0.000103756498210006
11
405.77734231956
21
1890.17526668282
31
0.000102499173692117
  0
LINE
 8
GROUP0
10
402.777344397137
20
1875.97911426015
30
0.000111332786395518
11
402.777344397134
21
1872.97911426015
31
0.000112590110913408
  0
LINE
 8
GROUP0
10
405.77734231956
20
1890.17526668282
30
0.000102499173692117
11
408.37541853091
21
1891.67526668282
31
0.000106287318588916
  0
LINE
 8
GROUP0
10
410.973494742259
20
1890.17526668282
30
0.00011133278665002
11
410.973494742257
21
1887.17526668282
31
0.000112590110625771
  0
LINE
 8
GROUP0
10
400.179268185788
20
1877.47911426015
30
0.000106287318335119
11
402.777344397137
21
1875.97911426015
31
0.000111332786395518
  0
LINE
 8
GROUP0
10
349.502385346866
20
1868.88102862145
30
4.18449218841932e-005
11
349.502385346864
21
1865.88102862145
31
4.38384264910607e-005
  0
LINE
 8
GROUP0
10
344.306232924159
20
1865.88102862145
30
4.12223345598983e-005
11
344.306232924161
21
1868.88102862145
31
3.92288297732579e-005
  0
LINE
 8
GROUP0
10
349.502385346864
20
1865.88102862145
30
4.38384264910607e-005
11
346.90430913551
21
1864.38102862145
31
4.35271324228381e-005
  0
LINE
 8
GROUP0
10
346.904309135515
20
1870.38102862145
30
3.9540123209808e-005
11
349.502385346866
21
1868.88102862145
31
4.18449218841932e-005
  0
LINE
 8
GROUP0
10
410.973494742257
20
1887.17526668282
30
0.000112590110625771
11
408.375418530906
21
1885.67526668282
31
0.00010880196753375
  0
LINE
 8
GROUP0
10
346.90430913551
20
1864.38102862145
30
4.35271324228381e-005
11
344.306232924159
21
1865.88102862145
31
4.12223345598983e-005
  0
LINE
 8
GROUP0
10
393.483127975979
20
1883.07718987173
30
7.90556140800702e-005
11
396.081204187329
21
1884.57718987173
31
8.28437580744801e-005
  0
LINE
 8
GROUP0
10
344.306232924161
20
1868.88102862145
30
3.92288297732579e-005
11
346.904309135515
21
1870.38102862145
31
3.9540123209808e-005
  0
LINE
 8
GROUP0
10
398.679280398678
20
1883.07718987173
30
8.78892272177467e-005
11
398.679280398675
21
1880.07718987174
31
8.91465513746803e-005
  0
LINE
 8
GROUP0
10
393.483127975977
20
1880.07718987173
30
8.03129390484492e-005
11
393.483127975979
21
1883.07718987173
31
7.90556140800702e-005
  0
LINE
 8
GROUP0
10
396.081204187329
20
1884.57718987173
30
8.28437580744801e-005
11
398.679280398678
21
1883.07718987173
31
8.78892272177467e-005
  0
LINE
 8
GROUP0
10
416.571568876028
20
1891.67527109664
30
0.000115473278462908
11
419.169645087377
21
1890.17527109664
31
0.00012051874670449
  0
LINE
 8
GROUP0
10
396.081204187325
20
1878.57718987174
30
8.53584076509872e-005
11
393.483127975977
21
1880.07718987173
31
8.03129390484492e-005
  0
LINE
 8
GROUP0
10
419.169645087377
20
1890.17527109664
30
0.00012051874670449
11
419.169645087374
21
1887.17527109664
31
0.000121776071492391
  0
LINE
 8
GROUP0
10
419.169645087374
20
1887.17527109664
30
0.000121776071492391
11
416.571568876024
21
1885.67527109664
31
0.000117987926595592
  0
LINE
 8
GROUP0
10
398.679280398675
20
1880.07718987174
30
8.91465513746803e-005
11
396.081204187325
21
1878.57718987174
31
8.53584076509872e-005
  0
LINE
 8
GROUP0
10
404.277356610024
20
1878.57718987174
30
8.53584076523972e-005
11
401.679280398675
21
1880.07718987173
31
8.03129390505641e-005
  0
LINE
 8
GROUP0
10
401.679280398675
20
1880.07718987173
30
8.03129390505641e-005
11
401.679280398678
21
1883.07718987173
31
7.90556140814802e-005
  0
LINE
 8
GROUP0
10
390.483127975976
20
1880.07718987174
30
8.91465513732703e-005
11
387.885051764627
21
1878.57718987174
31
8.53584076495772e-005
  0
LINE
 8
GROUP0
10
404.277356610027
20
1884.57718987173
30
8.28437583466068e-005
11
406.875432821376
21
1883.07718987173
31
8.78892272198617e-005
  0
LINE
 8
GROUP0
10
386.385052803385
20
1890.17526668284
30
8.956285367126e-005
11
386.385052803383
21
1887.17526668285
31
9.08201782793883e-005
  0
LINE
 8
GROUP0
10
413.973492664676
20
1887.17527109664
30
0.00011294245790352
11
413.973492664678
21
1890.17527109664
31
0.000111685133746586
  0
LINE
 8
GROUP0
10
383.786976592037
20
1891.67526668284
30
8.45173851596659e-005
11
386.385052803385
21
1890.17526668284
31
8.956285367126e-005
  0
LINE
 8
GROUP0
10
413.973492664678
20
1890.17527109664
30
0.000111685133746586
11
416.571568876028
21
1891.67527109664
31
0.000115473278462908
  0
LINE
 8
GROUP0
10
416.571568876024
20
1885.67527109664
30
0.000117987926595592
11
413.973492664676
21
1887.17527109664
31
0.00011294245790352
  0
LINE
 8
GROUP0
10
438.561934603536
20
1858.78297066508
30
0.000140736570440747
11
438.561934603538
21
1861.78297066508
31
0.000139479245562607
  0
LINE
 8
GROUP0
10
441.160010814889
20
1863.28297066508
30
0.000143267390278928
11
443.758087026236
21
1861.78297066508
31
0.000148312858700284
  0
LINE
 8
GROUP0
10
471.346535984023
20
1872.9791319154
30
0.000162270272960446
11
471.346535984026
21
1875.97913191539
31
0.00016101294817184
  0
LINE
 8
GROUP0
10
471.346535984026
20
1875.97913191539
30
0.00016101294817184
11
473.944612195376
21
1877.4791319154
31
0.000164801091895533
  0
LINE
 8
GROUP0
10
476.542688406721
20
1872.9791319154
30
0.000171103885195734
11
473.944612195372
21
1871.4791319154
31
0.000167315740840368
  0
LINE
 8
GROUP0
10
438.561934603538
20
1861.78297066508
30
0.000139479245562607
11
441.160010814889
21
1863.28297066508
31
0.000143267390278928
  0
LINE
 8
GROUP0
10
443.758087026236
20
1861.78297066508
30
0.000148312858700284
11
443.758087026234
21
1858.78297066508
31
0.000149570183217468
  0
LINE
 8
GROUP0
10
473.944612195376
20
1877.4791319154
30
0.000164801091895533
11
476.542688406723
21
1875.9791319154
31
0.000169846560317594
  0
LINE
 8
GROUP0
10
476.542688406723
20
1875.9791319154
30
0.000169846560317594
11
476.542688406721
21
1872.9791319154
31
0.000171103885195734
  0
LINE
 8
GROUP0
10
473.944612195372
20
1871.4791319154
30
0.000167315740840368
11
471.346535984023
21
1872.9791319154
31
0.000162270272960446
  0
LINE
 8
GROUP0
10
443.758087026234
20
1858.78297066508
30
0.000149570183217468
11
441.160010814885
21
1857.28297066508
31
0.00014578203859209
  0
LINE
 8
GROUP0
10
500.033070502292
20
1883.07720752696
30
0.000159339320981611
11
502.631146713642
21
1884.57720752696
31
0.000163127465246737
  0
LINE
 8
GROUP0
10
502.631146713642
20
1884.57720752696
30
0.000163127465246737
11
505.22922292499
21
1883.07720752696
31
0.000168172934119287
  0
LINE
 8
GROUP0
10
523.121496073113
20
1891.67529316566
30
0.000226712878932767
11
525.719572284462
21
1890.17529316566
31
0.00023175834708411
  0
LINE
 8
GROUP0
10
525.719572284462
20
1890.17529316566
30
0.00023175834708411
11
525.71957228446
21
1887.17529316566
31
0.000233015670969622
  0
LINE
 8
GROUP0
10
441.160010814885
20
1857.28297066508
30
0.00014578203859209
11
438.561934603536
21
1858.78297066508
31
0.000140736570440747
  0
LINE
 8
GROUP0
10
476.542688406721
20
1887.17528433807
30
0.000171103885177404
11
473.944612195371
21
1885.67528433807
31
0.000167315740280605
  0
LINE
 8
GROUP0
10
473.944612195371
20
1885.67528433807
30
0.000167315740280605
11
471.346535984023
21
1887.17528433807
31
0.000162270272581161
  0
LINE
 8
GROUP0
10
500.03307050229
20
1880.07720752696
30
0.00016059664594999
11
500.033070502292
21
1883.07720752696
31
0.000159339320981611
  0
LINE
 8
GROUP0
10
410.973494742248
20
1858.78296183747
30
0.000109428329770928
11
408.375418530899
21
1857.28296183747
31
0.000105640185144845
  0
LINE
 8
GROUP0
10
502.631146713638
20
1878.57720752696
30
0.000165642114552528
11
500.03307050229
21
1880.07720752696
31
0.00016059664594999
  0
LINE
 8
GROUP0
10
410.973494742251
20
1861.78296183747
30
0.00010817100507256
11
410.973494742248
21
1858.78296183747
31
0.000109428329770928
  0
LINE
 8
GROUP0
10
408.375418530899
20
1857.28296183747
30
0.000105640185144845
11
405.77734231955
21
1858.78296183747
31
0.000100594716543012
  0
LINE
 8
GROUP0
10
471.346535984023
20
1887.17528433807
30
0.000162270272581161
11
471.346535984025
21
1890.17528433807
31
0.000161012947703021
  0
LINE
 8
GROUP0
10
505.22922292499
20
1883.07720752696
30
0.000168172934119287
11
505.229222924988
21
1880.07720752696
31
0.000169430258276221
  0
LINE
 8
GROUP0
10
471.346535984025
20
1890.17528433807
30
0.000161012947703021
11
473.944612195376
21
1891.67528433807
31
0.000164801092057681
  0
LINE
 8
GROUP0
10
405.777342319552
20
1861.78296183747
30
9.93373920251228e-005
11
408.375418530902
21
1863.28296183747
31
0.000103125536741444
  0
LINE
 8
GROUP0
10
505.229222924988
20
1880.07720752696
30
0.000169430258276221
11
502.631146713638
21
1878.57720752696
31
0.000165642114552528
  0
LINE
 8
GROUP0
10
405.77734231955
20
1858.78296183747
30
0.000100594716543012
11
405.777342319552
21
1861.78296183747
31
9.93373920251228e-005
  0
LINE
 8
GROUP0
10
473.944612195376
20
1891.67528433807
30
0.000164801092057681
11
476.542688406724
21
1890.17528433807
31
0.000169846560569981
  0
LINE
 8
GROUP0
10
476.542688406724
20
1890.17528433807
30
0.000169846560569981
11
476.542688406721
21
1887.17528433807
31
0.000171103885177404
  0
LINE
 8
GROUP0
10
408.375418530902
20
1863.28296183747
30
0.000103125536741444
11
410.973494742251
21
1861.78296183747
31
0.00010817100507256
  0
LINE
 8
GROUP0
10
468.3465380616
20
1872.9791319154
30
0.000171103885194324
11
465.74846185025
21
1871.4791319154
31
0.000167315740929197
  0
LINE
 8
GROUP0
10
487.738827577777
20
1875.97913191537
30
0.00018278288114919
11
490.336903789127
21
1877.47913191537
31
0.000186571025233839
  0
LINE
 8
GROUP0
10
490.336903789127
20
1877.47913191537
30
0.000186571025233839
11
492.934980000475
21
1875.97913191537
31
0.000191616493204
  0
LINE
 8
GROUP0
10
465.74846185025
20
1871.4791319154
30
0.000167315740929197
11
463.150385638901
21
1872.9791319154
31
0.000162270272959036
  0
LINE
 8
GROUP0
10
463.150385638901
20
1872.9791319154
30
0.000162270272959036
11
463.150385638904
21
1875.9791319154
31
0.00016101294817043
  0
LINE
 8
GROUP0
10
465.748461850254
20
1877.4791319154
30
0.000164801091894123
11
468.346538061602
21
1875.9791319154
31
0.000169846560406423
  0
LINE
 8
GROUP0
10
463.150385638904
20
1875.9791319154
30
0.00016101294817043
11
465.748461850254
21
1877.4791319154
31
0.000164801091894123
  0
LINE
 8
GROUP0
10
468.346538061602
20
1875.9791319154
30
0.000169846560406423
11
468.3465380616
21
1872.9791319154
31
0.000171103885194324
  0
LINE
 8
GROUP0
10
492.934980000475
20
1875.97913191537
30
0.000191616493204
11
492.934980000473
21
1872.97913191537
31
0.000192873817812128
  0
LINE
 8
GROUP0
10
487.738827577775
20
1872.97913191537
30
0.000184040205305419
11
487.738827577777
21
1875.97913191537
31
0.00018278288114919
  0
LINE
 8
GROUP0
10
490.336903789123
20
1871.47913191537
30
0.00018908567453963
11
487.738827577775
21
1872.97913191537
31
0.000184040205305419
  0
LINE
 8
GROUP0
10
381.188900380679
20
1861.7829618375
30
7.75674594982623e-005
11
383.786976592029
21
1863.28296183749
31
8.13556043950614e-005
  0
LINE
 8
GROUP0
10
383.786976592029
20
1863.28296183749
30
8.13556043950614e-005
11
386.385052803377
21
1861.7829618375
31
8.6401072365222e-005
  0
LINE
 8
GROUP0
10
492.934980000473
20
1872.97913191537
30
0.000192873817812128
11
490.336903789123
21
1871.47913191537
31
0.00018908567453963
  0
LINE
 8
GROUP0
10
386.385052803377
20
1861.7829618375
30
8.6401072365222e-005
11
386.385052803375
21
1858.7829618375
31
8.76583970628841e-005
  0
LINE
 8
GROUP0
10
386.385052803375
20
1858.7829618375
30
8.76583970628841e-005
11
383.786976592025
21
1857.2829618375
31
8.38702522563239e-005
  0
LINE
 8
GROUP0
10
472.444613234193
20
1880.07720752696
30
0.000169430258269876
11
469.846537022843
21
1878.57720752696
31
0.000165642114546183
  0
LINE
 8
GROUP0
10
381.188900380676
20
1858.7829618375
30
7.88247839252076e-005
11
381.188900380679
21
1861.7829618375
31
7.75674594982623e-005
  0
LINE
 8
GROUP0
10
383.786976592025
20
1857.2829618375
30
8.38702522563239e-005
11
381.188900380676
21
1858.7829618375
31
7.88247839252076e-005
  0
LINE
 8
GROUP0
10
469.846537022847
20
1884.57720752696
30
0.000163127465240392
11
472.444613234196
21
1883.07720752696
31
0.000168172934113647
  0
LINE
 8
GROUP0
10
472.444613234196
20
1883.07720752696
30
0.000168172934113647
11
472.444613234193
21
1880.07720752696
31
0.000169430258269876
  0
LINE
 8
GROUP0
10
469.846537022843
20
1878.57720752696
30
0.000165642114546183
11
467.248460811495
21
1880.07720752696
31
0.00016059664594435
  0
LINE
 8
GROUP0
10
467.248460811495
20
1880.07720752696
30
0.00016059664594435
11
467.248460811497
21
1883.07720752696
31
0.000159339320975266
  0
LINE
 8
GROUP0
10
467.248460811497
20
1883.07720752696
30
0.000159339320975266
11
469.846537022847
21
1884.57720752696
31
0.000163127465240392
  0
LINE
 8
GROUP0
10
494.434994290943
20
1884.57720752696
30
0.000163127465245327
11
497.033070502291
21
1883.07720752696
31
0.000168172934117877
  0
LINE
 8
GROUP0
10
486.23884186824
20
1878.57720752696
30
0.000165642114549708
11
483.640765656892
21
1880.07720752696
31
0.00016059664594717
  0
LINE
 8
GROUP0
10
483.640765656895
20
1883.07720752696
30
0.000159339320978791
11
486.238841868244
21
1884.57720752696
31
0.000163127465243917
  0
LINE
 8
GROUP0
10
483.640765656892
20
1880.07720752696
30
0.00016059664594717
11
483.640765656895
21
1883.07720752696
31
0.000159339320978791
  0
LINE
 8
GROUP0
10
486.238841868244
20
1884.57720752696
30
0.000163127465243917
11
488.836918079593
21
1883.07720752696
31
0.000168172934116467
  0
LINE
 8
GROUP0
10
488.836918079593
20
1883.07720752696
30
0.000168172934116467
11
488.836918079591
21
1880.07720752696
31
0.000169430258273401
  0
LINE
 8
GROUP0
10
488.836918079591
20
1880.07720752696
30
0.000169430258273401
11
486.23884186824
21
1878.57720752696
31
0.000165642114549708
  0
LINE
 8
GROUP0
10
491.836918079593
20
1883.07720752696
30
0.000159339320980201
11
494.434994290943
21
1884.57720752696
31
0.000163127465245327
  0
LINE
 8
GROUP0
10
497.033070502289
20
1880.07720752696
30
0.000169430258274811
11
494.434994290939
21
1878.57720752696
31
0.000165642114551118
  0
LINE
 8
GROUP0
10
494.434994290939
20
1878.57720752696
30
0.000165642114551118
11
491.836918079591
21
1880.07720752696
31
0.00016059664594858
  0
LINE
 8
GROUP0
10
497.033070502291
20
1883.07720752696
30
0.000168172934117877
11
497.033070502289
21
1880.07720752696
31
0.000169430258274811
  0
LINE
 8
GROUP0
10
322.1600622249
20
1839.47910984635
30
3.60859713672668e-005
11
560.160010814897
21
1839.47910984635
31
3.60859713672668e-005
  0
LINE
 8
GROUP0
10
558.160010814896
20
1909.57921792681
30
3.60859713221473e-005
11
558.160010814896
21
1892.47910984635
31
3.60859713221473e-005
  0
LINE
 8
GROUP0
10
524.160018159183
20
1847.47910984635
30
3.60859713672668e-005
11
554.160010814897
21
1847.47910984635
31
3.60859713221473e-005
  0
LINE
 8
GROUP0
10
322.160093632407
20
1892.47911723638
30
3.60859713221473e-005
11
324.160093632404
21
1892.47912093139
31
3.60859713221473e-005
  0
LINE
 8
GROUP0
10
553.160010814897
20
1909.57921792681
30
3.60859713221473e-005
11
553.160010814897
21
1907.57921792681
31
3.60859713221473e-005
  0
LINE
 8
GROUP0
10
471.530790776636
20
1843.47910984635
30
3.60859713221473e-005
11
471.530790776636
21
1847.47910984635
31
3.60859713672668e-005
  0
LINE
 8
GROUP0
10
358.160054880614
20
1843.47910984635
30
3.60859713221473e-005
11
358.160054880614
21
1847.47910984635
31
3.60859713672668e-005
  0
LINE
 8
GROUP0
10
564.160010814896
20
1907.57921792681
30
3.60859713221473e-005
11
565.160010814896
21
1907.57921792681
31
3.60859713221473e-005
  0
LINE
 8
GROUP0
10
329.160065919893
20
1909.57921792681
30
3.60859713221473e-005
11
329.160065919893
21
1907.57921792681
31
3.60859713221473e-005
  0
LINE
 8
GROUP0
10
324.160065919891
20
1909.5792105368
30
3.60859713221473e-005
11
324.160093632404
21
1892.47912093139
31
3.60859713221473e-005
  0
LINE
 8
GROUP0
10
558.160010814896
20
1892.47910984635
30
3.60859713221473e-005
11
560.160010814896
21
1892.47910984635
31
3.60859713221473e-005
  0
LINE
 8
GROUP0
10
564.160010814896
20
1907.57921792681
30
3.60859713221473e-005
11
564.160010814896
21
1843.47910984635
31
3.60859713672668e-005
  0
LINE
 8
GROUP0
10
565.160010814896
20
1909.57921792681
30
3.60859713221473e-005
11
565.160010814896
21
1907.57921792681
31
3.60859713221473e-005
  0
LINE
 8
GROUP0
10
524.160018159183
20
1843.47910984635
30
3.60859713221473e-005
11
554.160010814897
21
1843.47910984635
31
3.60859713221473e-005
  0
LINE
 8
GROUP0
10
318.160062231487
20
1907.5791994518
30
3.60859713221473e-005
11
317.160065919893
21
1907.57921792681
31
3.60859713221473e-005
  0
LINE
 8
GROUP0
10
411.530790776636
20
1843.47910984635
30
3.60859713221473e-005
11
471.530790776636
21
1843.47910984635
31
3.60859713221473e-005
  0
LINE
 8
GROUP0
10
560.160010814896
20
1909.57921792681
30
3.60859713221473e-005
11
565.160010814896
21
1909.57921792681
31
3.60859713221473e-005
  0
LINE
 8
GROUP0
10
554.160010814897
20
1847.47910984635
30
3.60859713221473e-005
11
554.160010814897
21
1843.47910984635
31
3.60859713221473e-005
  0
LINE
 8
GROUP0
10
553.160010814896
20
1892.47910984635
30
3.60859713221473e-005
11
554.160010814897
21
1892.47910984635
31
3.60859713221473e-005
  0
LINE
 8
GROUP0
10
317.160065919893
20
1909.5791994485
30
3.60859713221473e-005
11
322.160062224893
21
1909.5792068418
31
3.60859713221473e-005
  0
LINE
 8
GROUP0
10
328.160069614895
20
1892.47912093139
30
3.60859713221473e-005
11
329.160069614895
21
1892.47912093139
31
3.60859713221473e-005
  0
LINE
 8
GROUP0
10
524.160018159183
20
1843.47910984635
30
3.60859713221473e-005
11
524.160018159183
21
1847.47910984635
31
3.60859713672668e-005
  0
LINE
 8
GROUP0
10
328.1600622249
20
1843.47910984635
30
3.60859713221473e-005
11
358.160054880614
21
1843.47910984635
31
3.60859713221473e-005
  0
LINE
 8
GROUP0
10
342.806233962924
20
1871.47910543256
30
4.68901805839361e-005
11
340.208157751576
21
1872.97910543256
31
4.18447126130705e-005
  0
LINE
 8
GROUP0
10
344.30623292417
20
1880.07718104412
30
4.01710855990889e-005
11
344.306232924172
21
1883.07718104412
31
3.8913760630005e-005
  0
LINE
 8
GROUP0
10
365.894690192266
20
1880.07718104412
30
4.9004697927435e-005
11
363.296613980915
21
1878.57718104412
31
4.52165542037419e-005
  0
LINE
 8
GROUP0
10
318.160062231487
20
1907.5791994518
30
3.60859713221473e-005
11
318.160062442253
21
1843.47910984635
31
3.60859713672668e-005
  0
LINE
 8
GROUP0
10
345.404310174277
20
1875.97910543256
30
4.94210000604567e-005
11
345.404310174275
21
1872.97910543256
31
5.06783248490628e-005
  0
LINE
 8
GROUP0
10
560.160010814896
20
1892.47910984635
30
3.60859713221473e-005
11
560.160010814896
21
1909.57921792681
31
3.60859713221473e-005
  0
LINE
 8
GROUP0
10
328.1600622249
20
1847.47910984635
30
3.60859713221473e-005
11
328.1600622249
21
1843.47910984635
31
3.60859713221473e-005
  0
LINE
 8
GROUP0
10
317.160065919893
20
1909.5791994485
30
3.60859713221473e-005
11
317.160065919893
21
1907.57921792681
31
3.60859713221473e-005
  0
LINE
 8
GROUP0
10
554.160010814897
20
1907.57921792681
30
3.60859713221473e-005
11
553.160010814897
21
1907.57921792681
31
3.60859713221473e-005
  0
LINE
 8
GROUP0
10
411.530790776636
20
1847.47910984635
30
3.60859713672668e-005
11
471.530790776636
21
1847.47910984635
31
3.60859713672668e-005
  0
LINE
 8
GROUP0
10
322.160062224893
20
1909.5792068418
30
3.60859713221473e-005
11
322.160093632407
21
1892.47911723638
31
3.60859713221473e-005
  0
LINE
 8
GROUP0
10
411.530790776636
20
1843.47910984635
30
3.60859713221473e-005
11
411.530790776636
21
1847.47910984635
31
3.60859713672668e-005
  0
LINE
 8
GROUP0
10
328.1600622249
20
1847.47910984635
30
3.60859713221473e-005
11
358.160054880614
21
1847.47910984635
31
3.60859713672668e-005
  0
LINE
 8
GROUP0
10
328.160065919893
20
1907.57921792681
30
3.60859713221473e-005
11
329.160065919893
21
1907.57921792681
31
3.60859713221473e-005
  0
LINE
 8
GROUP0
10
553.160010814896
20
1903.47910984635
30
3.60859713221473e-005
11
553.160010814896
21
1892.47910984635
31
3.60859713221473e-005
  0
LINE
 8
GROUP0
10
357.698537769569
20
1883.07718104412
30
4.77473737697964e-005
11
357.698537769567
21
1880.07718104412
31
4.9004697926025e-005
  0
LINE
 8
GROUP0
10
345.404310174275
20
1872.97910543256
30
5.06783248490628e-005
11
342.806233962924
21
1871.47910543256
31
4.68901805839361e-005
  0
LINE
 8
GROUP0
10
369.99275211315
20
1890.17525785521
30
7.11909332013649e-005
11
369.992752113148
21
1887.17525785521
31
7.24482571771157e-005
  0
LINE
 8
GROUP0
10
360.698537769567
20
1880.07718104412
30
4.01710856019088e-005
11
360.69853776957
21
1883.07718104412
31
3.89137606328249e-005
  0
LINE
 8
GROUP0
10
342.806233962929
20
1877.47910543256
30
4.43755315488625e-005
11
345.404310174277
21
1875.97910543256
31
4.94210000604567e-005
  0
LINE
 8
GROUP0
10
364.796599690452
20
1890.17525785521
30
6.23573202441663e-005
11
367.394675901802
21
1891.67525785521
31
6.61454651402604e-005
  0
LINE
 8
GROUP0
10
364.79659969045
20
1887.17525785521
30
6.36146447613506e-005
11
364.796599690452
21
1890.17525785521
31
6.23573202441663e-005
  0
LINE
 8
GROUP0
10
349.502385346871
20
1883.07718104412
30
4.77473737676815e-005
11
349.502385346868
21
1880.07718104412
31
4.9004697924615e-005
  0
LINE
 8
GROUP0
10
344.306232924172
20
1883.07718104412
30
3.8913760630005e-005
11
346.904309135522
21
1884.57718104412
31
4.27019048951316e-005
  0
LINE
 8
GROUP0
10
372.992750035567
20
1887.17526226903
30
7.28006044548646e-005
11
372.99275003557
21
1890.17526226903
31
7.1543280298636e-005
  0
LINE
 8
GROUP0
10
365.894690192268
20
1883.07718104412
30
4.77473737712064e-005
11
365.894690192266
21
1880.07718104412
31
4.9004697927435e-005
  0
LINE
 8
GROUP0
10
378.188902458266
20
1887.17526226903
30
8.16342180444407e-005
11
375.590826246916
21
1885.67526226903
31
7.78460731476416e-005
  0
LINE
 8
GROUP0
10
375.590826246919
20
1891.67526226903
30
7.53314250149573e-005
11
378.188902458268
21
1890.17526226903
31
8.03768932558346e-005
  0
LINE
 8
GROUP0
10
367.394675901798
20
1885.67525785521
30
6.86601140850951e-005
11
364.79659969045
21
1887.17525785521
31
6.36146447613506e-005
  0
LINE
 8
GROUP0
10
360.69853776957
20
1883.07718104412
30
3.89137606328249e-005
11
363.296613980919
21
1884.57718104412
31
4.27019048979516e-005
  0
LINE
 8
GROUP0
10
357.698537769567
20
1880.07718104412
30
4.9004697926025e-005
11
355.100461558217
21
1878.57718104412
31
4.52165542023319e-005
  0
LINE
 8
GROUP0
10
363.296613980919
20
1884.57718104412
30
4.27019048979516e-005
11
365.894690192268
21
1883.07718104412
31
4.77473737712064e-005
  0
LINE
 8
GROUP0
10
355.10046155822
20
1884.57718104412
30
4.27019046258248e-005
11
357.698537769569
21
1883.07718104412
31
4.77473737697964e-005
  0
LINE
 8
GROUP0
10
356.600449345329
20
1890.17525785521
30
6.23573203322902e-005
11
359.19852555668
21
1891.67525785521
31
6.61454651388504e-005
  0
LINE
 8
GROUP0
10
346.904309135518
20
1878.57718104412
30
4.5216554200922e-005
11
344.30623292417
21
1880.07718104412
31
4.01710855990889e-005
  0
LINE
 8
GROUP0
10
342.806233962924
20
1885.67525785523
30
4.68901799339338e-005
11
340.208157751576
21
1887.17525785523
31
4.184471223449e-005
  0
LINE
 8
GROUP0
10
367.394675901802
20
1891.67525785521
30
6.61454651402604e-005
11
369.99275211315
21
1890.17525785521
31
7.11909332013649e-005
  0
LINE
 8
GROUP0
10
359.19852555668
20
1891.67525785521
30
6.61454651388504e-005
11
361.796601768028
21
1890.17525785521
31
7.11909332901939e-005
  0
LINE
 8
GROUP0
10
369.992752113148
20
1887.17525785521
30
7.24482571771157e-005
11
367.394675901798
21
1885.67525785521
31
6.86601140850951e-005
  0
LINE
 8
GROUP0
10
378.188902458266
20
1872.97910984635
30
8.16342181523044e-005
11
375.590826246916
21
1871.47910984635
31
7.78460739774167e-005
  0
LINE
 8
GROUP0
10
340.208157751578
20
1875.97910543256
30
4.05873878251695e-005
11
342.806233962929
21
1877.47910543256
31
4.43755315488625e-005
  0
LINE
 8
GROUP0
10
329.160069614895
20
1903.47912832137
30
3.60859713221473e-005
11
329.160069614895
21
1892.47912093139
31
3.60859713221473e-005
  0
LINE
 8
GROUP0
10
340.208157751576
20
1872.97910543256
30
4.18447126130705e-005
11
340.208157751578
21
1875.97910543256
31
4.05873878251695e-005
  0
LINE
 8
GROUP0
10
346.904309135522
20
1884.57718104412
30
4.27019048951316e-005
11
349.502385346871
21
1883.07718104412
31
4.77473737676815e-005
  0
LINE
 8
GROUP0
10
363.296613980915
20
1878.57718104412
30
4.52165542037419e-005
11
360.698537769567
21
1880.07718104412
31
4.01710856019088e-005
  0
LINE
 8
GROUP0
10
375.590826246919
20
1877.47910984635
30
7.53314249430481e-005
11
378.188902458268
21
1875.97910984635
31
8.03768933644033e-005
  0
LINE
 8
GROUP0
10
349.502385346868
20
1880.07718104412
30
4.9004697924615e-005
11
346.904309135518
21
1878.57718104412
31
4.5216554200922e-005
  0
LINE
 8
GROUP0
10
371.492766403614
20
1878.57718104412
30
4.52165542051519e-005
11
368.894690192266
21
1880.07718104412
31
4.01710856033188e-005
  0
LINE
 8
GROUP0
10
375.590826246916
20
1885.67526226903
30
7.78460731476416e-005
11
372.992750035567
21
1887.17526226903
31
7.28006044548646e-005
  0
LINE
 8
GROUP0
10
345.404310174269
20
1861.78295300988
30
4.62592189165667e-005
11
345.404310174267
21
1858.78295300988
31
4.75165436149338e-005
  0
LINE
 8
GROUP0
10
401.679280398654
20
1868.88103744905
30
5.97562681995734e-005
11
404.277356610008
21
1870.38103744905
31
6.0067562177557e-005
  0
LINE
 8
GROUP0
10
348.404308096698
20
1887.17525785523
30
4.18447122359e-005
11
348.4043080967
21
1890.17525785523
31
4.0587387357055e-005
  0
LINE
 8
GROUP0
10
359.198525556676
20
1885.67525785521
30
6.86601140836851e-005
11
356.600449345327
21
1887.17525785521
31
6.36146447599406e-005
  0
LINE
 8
GROUP0
10
351.002384308051
20
1891.67525785523
30
4.43755317124206e-005
11
353.600460519399
21
1890.17525785523
31
4.94210002247197e-005
  0
LINE
 8
GROUP0
10
368.894690192266
20
1880.07718104412
30
4.01710856033188e-005
11
368.894690192268
21
1883.07718104412
31
3.89137606349399e-005
  0
LINE
 8
GROUP0
10
368.894690192268
20
1883.07718104412
30
3.89137606349399e-005
11
371.492766403618
21
1884.57718104412
31
4.27019048993615e-005
  0
LINE
 8
GROUP0
10
374.090842614964
20
1880.07718104412
30
4.9004697928845e-005
11
371.492766403614
21
1878.57718104412
31
4.52165542051519e-005
  0
LINE
 8
GROUP0
10
378.188902458268
20
1890.17526226903
30
8.03768932558346e-005
11
378.188902458266
21
1887.17526226903
31
8.16342180444407e-005
  0
LINE
 8
GROUP0
10
378.188902458268
20
1875.97910984635
30
8.03768933644033e-005
11
378.188902458266
21
1872.97910984635
31
8.16342181523044e-005
  0
LINE
 8
GROUP0
10
352.502385346868
20
1880.07718104412
30
4.01710856004989e-005
11
352.502385346871
21
1883.07718104412
31
3.89137606314149e-005
  0
LINE
 8
GROUP0
10
340.208157751576
20
1887.17525785523
30
4.184471223449e-005
11
340.208157751578
21
1890.17525785523
31
4.0587387445884e-005
  0
LINE
 8
GROUP0
10
353.600460519396
20
1887.17525785523
30
5.0678324832143e-005
11
351.002384308046
21
1885.67525785523
31
4.68901799353438e-005
  0
LINE
 8
GROUP0
10
345.404310174277
20
1890.17525785523
30
4.94210002226048e-005
11
345.404310174275
21
1887.17525785523
31
5.0678324830733e-005
  0
LINE
 8
GROUP0
10
352.502385346871
20
1883.07718104412
30
3.89137606314149e-005
11
355.10046155822
21
1884.57718104412
31
4.27019046258248e-005
  0
LINE
 8
GROUP0
10
375.590826246916
20
1871.47910984635
30
7.78460739774167e-005
11
372.992750035567
21
1872.97910984635
31
7.28006047439111e-005
  0
LINE
 8
GROUP0
10
361.796601768028
20
1875.97910543254
30
7.1190932947568e-005
11
361.796601768025
21
1872.97910543254
31
7.24482574647522e-005
  0
LINE
 8
GROUP0
10
418.071585244075
20
1883.07718987173
30
7.90556140843002e-005
11
420.669661455425
21
1884.57718987173
31
8.28437583494268e-005
  0
LINE
 8
GROUP0
10
372.992750035567
20
1872.97910984635
30
7.28006047439111e-005
11
372.99275003557
21
1875.97910984635
31
7.15432807681604e-005
  0
LINE
 8
GROUP0
10
345.404310174275
20
1887.17525785523
30
5.0678324830733e-005
11
342.806233962924
21
1885.67525785523
31
4.68901799339338e-005
  0
LINE
 8
GROUP0
10
340.208157751578
20
1890.17525785523
30
4.0587387445884e-005
11
342.806233962928
21
1891.67525785523
31
4.43755317110106e-005
  0
LINE
 8
GROUP0
10
355.100461558217
20
1878.57718104412
30
4.52165542023319e-005
11
352.502385346868
21
1880.07718104412
31
4.01710856004989e-005
  0
LINE
 8
GROUP0
10
342.806233962928
20
1891.67525785523
30
4.43755317110106e-005
11
345.404310174277
21
1890.17525785523
31
4.94210002226048e-005
  0
LINE
 8
GROUP0
10
374.090842614966
20
1883.07718104412
30
4.77473737726164e-005
11
374.090842614964
21
1880.07718104412
31
4.9004697928845e-005
  0
LINE
 8
GROUP0
10
348.4043080967
20
1890.17525785523
30
4.0587387357055e-005
11
351.002384308051
21
1891.67525785523
31
4.43755317124206e-005
  0
LINE
 8
GROUP0
10
351.002384308046
20
1885.67525785523
30
4.68901799353438e-005
11
348.404308096698
21
1887.17525785523
31
4.18447122359e-005
  0
LINE
 8
GROUP0
10
372.99275003557
20
1890.17526226903
30
7.1543280298636e-005
11
375.590826246919
21
1891.67526226903
31
7.53314250149573e-005
  0
LINE
 8
GROUP0
10
340.208157751567
20
1858.78295300988
30
3.86829304765524e-005
11
340.208157751571
21
1861.78295300988
31
3.7425606049607e-005
  0
LINE
 8
GROUP0
10
372.99275003557
20
1875.97910984635
30
7.15432807681604e-005
11
375.590826246919
21
1877.47910984635
31
7.53314249430481e-005
  0
LINE
 8
GROUP0
10
371.492766403618
20
1884.57718104412
30
4.27019048993615e-005
11
374.090842614966
21
1883.07718104412
31
4.77473737726164e-005
  0
LINE
 8
GROUP0
10
375.590826246907
20
1857.28295742368
30
7.46842922920932e-005
11
372.992750035559
21
1858.78295742368
31
6.96388229683487e-005
  0
LINE
 8
GROUP0
10
401.679280398652
20
1865.88103744905
30
6.17497724447802e-005
11
401.679280398654
21
1868.88103744905
31
5.97562681995734e-005
  0
LINE
 8
GROUP0
10
406.87543282136
20
1868.88103744905
30
6.23723606714643e-005
11
406.875432821359
21
1865.88103744905
31
6.43658648271372e-005
  0
LINE
 8
GROUP0
10
342.806233962921
20
1863.28295300988
30
4.12137509464061e-005
11
345.404310174269
21
1861.78295300988
31
4.62592189165667e-005
  0
LINE
 8
GROUP0
10
418.071585244073
20
1880.07718987173
30
8.03129390533841e-005
11
418.071585244075
21
1883.07718987173
31
7.90556140843002e-005
  0
LINE
 8
GROUP0
10
356.600449345327
20
1887.17525785521
30
6.36146447599406e-005
11
356.600449345329
21
1890.17525785521
31
6.23573203322902e-005
  0
LINE
 8
GROUP0
10
416.571568876028
20
1877.47911867397
30
0.000115473278390998
11
419.169645087377
21
1875.97911867397
31
0.000120518746813059
  0
LINE
 8
GROUP0
10
361.796601768026
20
1887.17525785521
30
7.24482571757057e-005
11
359.198525556676
21
1885.67525785521
31
6.86601140836851e-005
  0
LINE
 8
GROUP0
10
406.875432821359
20
1865.88103744905
30
6.43658648271372e-005
11
404.277356610005
21
1864.38103744905
31
6.40545707589146e-005
  0
LINE
 8
GROUP0
10
342.806233962916
20
1857.28295300988
30
4.37283988083736e-005
11
340.208157751567
21
1858.78295300988
31
3.86829304765524e-005
  0
LINE
 8
GROUP0
10
361.796601768028
20
1890.17525785521
30
7.11909332901939e-005
11
361.796601768026
21
1887.17525785521
31
7.24482571757057e-005
  0
LINE
 8
GROUP0
10
375.590826246912
20
1863.28295742368
30
7.21696431667807e-005
11
378.188902458259
21
1861.78295742368
31
7.72151118595576e-005
  0
LINE
 8
GROUP0
10
416.571568876024
20
1871.47911867397
30
0.000117987927426072
11
413.973492664676
21
1872.97911867397
31
0.000112942458192566
  0
LINE
 8
GROUP0
10
423.267737666773
20
1883.07718987173
30
8.78892272226817e-005
11
423.267737666771
21
1880.07718987174
31
8.91465513789103e-005
  0
LINE
 8
GROUP0
10
353.600460519399
20
1890.17525785523
30
4.94210002247197e-005
11
353.600460519396
21
1887.17525785523
31
5.0678324832143e-005
  0
LINE
 8
GROUP0
10
413.973492664678
20
1875.97911867397
30
0.000111685134216111
11
416.571568876028
21
1877.47911867397
31
0.000115473278390998
  0
LINE
 8
GROUP0
10
419.169645087374
20
1872.97911867397
30
0.00012177607160096
11
416.571568876024
21
1871.47911867397
31
0.000117987927426072
  0
LINE
 8
GROUP0
10
413.973492664676
20
1872.97911867397
30
0.000112942458192566
11
413.973492664678
21
1875.97911867397
31
0.000111685134216111
  0
LINE
 8
GROUP0
10
379.688918826282
20
1864.38102862142
30
4.29830282935306e-006
11
377.09084261493
21
1865.88102862142
31
1.9935047866404e-006
  0
LINE
 8
GROUP0
10
352.502385346852
20
1865.88102862144
30
3.14151267787166e-005
11
352.502385346854
21
1868.88102862144
31
2.94216219011323e-005
  0
LINE
 8
GROUP0
10
355.100461558204
20
1864.38102862144
30
3.3719925182385e-005
11
352.502385346852
21
1865.88102862144
31
3.14151267787166e-005
  0
LINE
 8
GROUP0
10
404.277356610008
20
1870.38103744905
30
6.0067562177557e-005
11
406.87543282136
21
1868.88103744905
31
6.23723606714643e-005
  0
LINE
 8
GROUP0
10
389.385050725807
20
1872.97911426017
30
8.19865660631358e-005
11
389.385050725809
21
1875.97911426017
31
8.07292412752347e-005
  0
LINE
 8
GROUP0
10
419.169645087377
20
1875.97911867397
30
0.000120518746813059
11
419.169645087374
21
1872.97911867397
31
0.00012177607160096
  0
LINE
 8
GROUP0
10
345.404310174267
20
1858.78295300988
30
4.75165436149338e-005
11
342.806233962916
21
1857.28295300988
31
4.37283988083736e-005
  0
LINE
 8
GROUP0
10
404.277356610005
20
1864.38103744905
30
6.40545707589146e-005
11
401.679280398652
21
1865.88103744905
31
6.17497724447802e-005
  0
LINE
 8
GROUP0
10
420.669661455421
20
1878.57718987174
30
8.53584076552172e-005
11
418.071585244073
21
1880.07718987173
31
8.03129390533841e-005
  0
LINE
 8
GROUP0
10
340.208157751571
20
1861.78295300988
30
3.7425606049607e-005
11
342.806233962921
21
1863.28295300988
31
4.12137509464061e-005
  0
LINE
 8
GROUP0
10
420.669661455425
20
1884.57718987173
30
8.28437583494268e-005
11
423.267737666773
21
1883.07718987173
31
8.78892272226817e-005
  0
LINE
 8
GROUP0
10
423.267737666771
20
1880.07718987174
30
8.91465513789103e-005
11
420.669661455421
21
1878.57718987174
31
8.53584076552172e-005
  0
LINE
 8
GROUP0
10
372.992750035559
20
1858.78295742368
30
6.96388229683487e-005
11
372.992750035562
21
1861.78295742368
31
6.83814994430876e-005
  0
LINE
 8
GROUP0
10
359.19852555668
20
1877.47910543254
30
6.61454648864634e-005
11
361.796601768028
21
1875.97910543254
31
7.1190932947568e-005
  0
LINE
 8
GROUP0
10
356.600449345329
20
1875.97910543254
30
6.23573205310979e-005
11
359.19852555668
21
1877.47910543254
31
6.61454648864634e-005
  0
LINE
 8
GROUP0
10
391.983126937159
20
1877.47911426017
30
8.45173849989278e-005
11
394.581203148507
21
1875.97911426017
31
8.9562853420283e-005
  0
LINE
 8
GROUP0
10
420.66966145539
20
1864.38103744904
30
4.44401562780083e-005
11
418.071585244038
21
1865.88103744904
31
4.21353582352957e-005
  0
LINE
 8
GROUP0
10
394.581203148507
20
1875.97911426017
30
8.9562853420283e-005
11
394.581203148505
21
1872.97911426017
31
9.0820178299128e-005
  0
LINE
 8
GROUP0
10
389.385050725809
20
1875.97911426017
30
8.07292412752347e-005
11
391.983126937159
21
1877.47911426017
31
8.45173849989278e-005
  0
LINE
 8
GROUP0
10
359.198525556676
20
1871.47910543254
30
6.86601141922538e-005
11
356.600449345327
21
1872.97910543254
31
6.36146449587482e-005
  0
LINE
 8
GROUP0
10
379.688918826317
20
1884.57718104412
30
4.27019049014765e-005
11
382.286995037665
21
1883.07718104412
31
4.77473737740264e-005
  0
LINE
 8
GROUP0
10
361.796601768025
20
1872.97910543254
30
7.24482574647522e-005
11
359.198525556676
21
1871.47910543254
31
6.86601141922538e-005
  0
LINE
 8
GROUP0
10
377.090842614967
20
1883.07718104412
30
3.89137606363499e-005
11
379.688918826317
21
1884.57718104412
31
4.27019049014765e-005
  0
LINE
 8
GROUP0
10
382.286995037665
20
1883.07718104412
30
4.77473737740264e-005
11
382.286995037663
21
1880.07718104412
31
4.900469793096e-005
  0
LINE
 8
GROUP0
10
377.09084261493
20
1865.88102862142
30
1.9935047866404e-006
11
377.090842614932
21
1868.88102862142
31
0.0
  0
LINE
 8
GROUP0
10
377.090842614965
20
1880.07718104412
30
4.01710856047288e-005
11
377.090842614967
21
1883.07718104412
31
3.89137606363499e-005
  0
LINE
 8
GROUP0
10
378.188902458259
20
1861.78295742368
30
7.72151118595576e-005
11
378.188902458258
21
1858.78295742368
31
7.84724359255473e-005
  0
LINE
 8
GROUP0
10
359.198525556668
20
1857.28295300986
30
6.54983316947799e-005
11
356.600449345319
21
1858.78295300986
31
6.04528635441415e-005
  0
LINE
 8
GROUP0
10
391.983126937155
20
1885.67526668285
30
8.70320333839991e-005
11
389.385050725807
21
1887.17526668284
31
8.19865656838503e-005
  0
LINE
 8
GROUP0
10
408.375418530906
20
1871.47911426015
30
0.000108801967642319
11
405.777342319558
21
1872.97911426015
31
0.000103756498408814
  0
LINE
 8
GROUP0
10
423.267737666745
20
1868.88103744903
30
4.27579461010241e-005
11
423.267737666743
21
1865.88103744904
31
4.47514499852752e-005
  0
LINE
 8
GROUP0
10
382.286995037663
20
1880.07718104412
30
4.900469793096e-005
11
379.688918826313
21
1878.57718104412
31
4.52165542072669e-005
  0
LINE
 8
GROUP0
10
418.071585244038
20
1865.88103744904
30
4.21353582352957e-005
11
418.07158524404
21
1868.88103744904
31
4.01418534479503e-005
  0
LINE
 8
GROUP0
10
409.875432821348
20
1868.88103744904
30
4.99490605981645e-005
11
412.473509032701
21
1870.38103744904
31
5.02603545761482e-005
  0
LINE
 8
GROUP0
10
356.600449345327
20
1872.97910543254
30
6.36146449587482e-005
11
356.600449345329
21
1875.97910543254
31
6.23573205310979e-005
  0
LINE
 8
GROUP0
10
418.07158524404
20
1868.88103744904
30
4.01418534479503e-005
11
420.669661455394
21
1870.38103744903
31
4.04531473356951e-005
  0
LINE
 8
GROUP0
10
355.100461558208
20
1870.38102862144
30
2.97329160595938e-005
11
357.698537769559
21
1868.88102862144
31
3.20377146437401e-005
  0
LINE
 8
GROUP0
10
372.992750035562
20
1861.78295742368
30
6.83814994430876e-005
11
375.590826246912
21
1863.28295742368
31
7.21696431667807e-005
  0
LINE
 8
GROUP0
10
391.983126937155
20
1871.47911426017
30
8.70320339437625e-005
11
389.385050725807
21
1872.97911426017
31
8.19865660631358e-005
  0
LINE
 8
GROUP0
10
423.267737666743
20
1865.88103744904
30
4.47514499852752e-005
11
420.66966145539
21
1864.38103744904
31
4.44401562780083e-005
  0
LINE
 8
GROUP0
10
357.698537769559
20
1868.88102862144
30
3.20377146437401e-005
11
357.698537769557
21
1865.88102862144
31
3.40312191603687e-005
  0
LINE
 8
GROUP0
10
378.188902458258
20
1858.78295742368
30
7.84724359255473e-005
11
375.590826246907
21
1857.28295742368
31
7.46842922920932e-005
  0
LINE
 8
GROUP0
10
420.669661455394
20
1870.38103744903
30
4.04531473356951e-005
11
423.267737666745
21
1868.88103744903
31
4.27579461010241e-005
  0
LINE
 8
GROUP0
10
394.581203148505
20
1872.97911426017
30
9.0820178299128e-005
11
391.983126937155
21
1871.47911426017
31
8.70320339437625e-005
  0
LINE
 8
GROUP0
10
352.502385346854
20
1868.88102862144
30
2.94216219011323e-005
11
355.100461558208
21
1870.38102862144
31
2.97329160595938e-005
  0
LINE
 8
GROUP0
10
379.688918826313
20
1878.57718104412
30
4.52165542072669e-005
11
377.090842614965
21
1880.07718104412
31
4.01710856047288e-005
  0
LINE
 8
GROUP0
10
361.796601768018
20
1858.78295300986
30
6.92864763208623e-005
11
359.198525556668
21
1857.28295300986
31
6.54983316947799e-005
  0
LINE
 8
GROUP0
10
383.786976592037
20
1877.47911426017
30
8.45173849975178e-005
11
386.385052803385
21
1875.97911426017
31
8.9562853509112e-005
  0
LINE
 8
GROUP0
10
381.188900380685
20
1872.97911426017
30
8.19865660617258e-005
11
381.188900380687
21
1875.97911426017
31
8.07292412738247e-005
  0
LINE
 8
GROUP0
10
412.473509032697
20
1864.38103744904
30
5.42473632477447e-005
11
409.875432821345
21
1865.88103744904
31
5.19425654757488e-005
  0
LINE
 8
GROUP0
10
409.875432821345
20
1865.88103744904
30
5.19425654757488e-005
11
409.875432821348
21
1868.88103744904
31
4.99490605981645e-005
  0
LINE
 8
GROUP0
10
410.973494742259
20
1875.97911426015
30
0.000111332786307394
11
410.973494742257
21
1872.97911426015
31
0.000112590110914818
  0
LINE
 8
GROUP0
10
381.188900380687
20
1875.97911426017
30
8.07292412738247e-005
11
383.786976592037
21
1877.47911426017
31
8.45173849975178e-005
  0
LINE
 8
GROUP0
10
409.875432821376
20
1883.07718987173
30
7.90556140828902e-005
11
412.473509032727
21
1884.57718987173
31
8.28437583480168e-005
  0
LINE
 8
GROUP0
10
359.198525556672
20
1863.28295300986
30
6.29836833816178e-005
11
361.79660176802
21
1861.78295300986
31
6.8029151802973e-005
  0
LINE
 8
GROUP0
10
356.600449345322
20
1861.78295300986
30
5.91955386652965e-005
11
359.198525556672
21
1863.28295300986
31
6.29836833816178e-005
  0
LINE
 8
GROUP0
10
379.688918826285
20
1870.38102862142
30
3.11293887744757e-007
11
382.286995037637
21
1868.88102862142
31
2.61609265236884e-006
  0
LINE
 8
GROUP0
10
356.600449345319
20
1858.78295300986
30
6.04528635441415e-005
11
356.600449345322
21
1861.78295300986
31
5.91955386652965e-005
  0
LINE
 8
GROUP0
10
415.071585244052
20
1865.88103744904
30
5.45586579476398e-005
11
412.473509032697
21
1864.38103744904
31
5.42473632477447e-005
  0
LINE
 8
GROUP0
10
389.385050725808
20
1890.17526668284
30
8.07292408057103e-005
11
391.983126937159
21
1891.67526668284
31
8.45173851610759e-005
  0
LINE
 8
GROUP0
10
390.483127975979
20
1883.07718987173
30
8.78892272163367e-005
11
390.483127975976
21
1880.07718987174
31
8.91465513732703e-005
  0
LINE
 8
GROUP0
10
369.99275211315
20
1875.97910543254
30
7.1190932858739e-005
11
369.992752113148
21
1872.97910543254
31
7.24482574661622e-005
  0
LINE
 8
GROUP0
10
412.473509032727
20
1884.57718987173
30
8.28437583480168e-005
11
415.071585244075
21
1883.07718987173
31
8.78892272212717e-005
  0
LINE
 8
GROUP0
10
408.37541853091
20
1877.47911426015
30
0.000106287318336529
11
410.973494742259
21
1875.97911426015
31
0.000111332786307394
  0
LINE
 8
GROUP0
10
382.286995037635
20
1865.88102862142
30
4.60959653661996e-006
11
379.688918826282
21
1864.38102862142
31
4.29830282935306e-006
  0
LINE
 8
GROUP0
10
377.090842614932
20
1868.88102862142
30
0.0
11
379.688918826285
21
1870.38102862142
31
3.11293887744757e-007
  0
LINE
 8
GROUP0
10
357.698537769557
20
1865.88102862144
30
3.40312191603687e-005
11
355.100461558204
21
1864.38102862144
31
3.3719925182385e-005
  0
LINE
 8
GROUP0
10
415.071585244053
20
1868.88103744904
30
5.25651532512383e-005
11
415.071585244052
21
1865.88103744904
31
5.45586579476398e-005
  0
LINE
 8
GROUP0
10
412.473509032701
20
1870.38103744904
30
5.02603545761482e-005
11
415.071585244053
21
1868.88103744904
31
5.25651532512383e-005
  0
LINE
 8
GROUP0
10
412.473509032722
20
1878.57718987174
30
8.53584076538072e-005
11
409.875432821374
21
1880.07718987173
31
8.03129390519741e-005
  0
LINE
 8
GROUP0
10
415.071585244075
20
1883.07718987173
30
8.78892272212717e-005
11
415.071585244073
21
1880.07718987174
31
8.91465513775003e-005
  0
LINE
 8
GROUP0
10
415.071585244073
20
1880.07718987174
30
8.91465513775003e-005
11
412.473509032722
21
1878.57718987174
31
8.53584076538072e-005
  0
LINE
 8
GROUP0
10
382.286995037637
20
1868.88102862142
30
2.61609265236884e-006
11
382.286995037635
21
1865.88102862142
31
4.60959653661996e-006
  0
LINE
 8
GROUP0
10
409.875432821374
20
1880.07718987173
30
8.03129390519741e-005
11
409.875432821376
21
1883.07718987173
31
7.90556140828902e-005
  0
LINE
 8
GROUP0
10
361.79660176802
20
1861.78295300986
30
6.8029151802973e-005
11
361.796601768018
21
1858.78295300986
31
6.92864763208623e-005
  0
LINE
 8
GROUP0
10
410.973494742257
20
1872.97911426015
30
0.000112590110914818
11
408.375418530906
21
1871.47911426015
31
0.000108801967642319
  0
LINE
 8
GROUP0
10
405.777342319558
20
1872.97911426015
30
0.000103756498408814
11
405.77734231956
21
1875.97911426015
31
0.00010249917425188
  0
LINE
 8
GROUP0
10
405.77734231956
20
1875.97911426015
30
0.00010249917425188
11
408.37541853091
21
1877.47911426015
31
0.000106287318336529
  0
LINE
 8
GROUP0
10
348.404308096693
20
1861.78295300988
30
3.7425605960778e-005
11
351.002384308043
21
1863.28295300988
31
4.12137502259047e-005
  0
LINE
 8
GROUP0
10
351.002384308039
20
1857.28295300988
30
4.37283988097836e-005
11
348.40430809669
21
1858.78295300988
31
3.86829304779623e-005
  0
LINE
 8
GROUP0
10
353.600460519391
20
1861.78295300988
30
4.62592188277378e-005
11
353.600460519388
21
1858.78295300988
31
4.75165437065828e-005
  0
LINE
 8
GROUP0
10
385.28697555328
20
1883.07718987173
30
7.90556140786602e-005
11
387.88505176463
21
1884.57718987173
31
8.28437583437869e-005
  0
LINE
 8
GROUP0
10
394.581203148508
20
1890.17526668284
30
8.956285367267e-005
11
394.581203148505
21
1887.17526668285
31
9.08201782807982e-005
  0
LINE
 8
GROUP0
10
369.992752113148
20
1872.97910543254
30
7.24482574661622e-005
11
367.394675901798
21
1871.47910543254
31
6.86601141936638e-005
  0
LINE
 8
GROUP0
10
367.394675901802
20
1877.47910543254
30
6.61454648878734e-005
11
369.99275211315
21
1875.97910543254
31
7.1190932858739e-005
  0
LINE
 8
GROUP0
10
397.581191974437
20
1890.17526668282
30
0.000102499173780946
11
400.179268185788
21
1891.67526668282
31
0.000106287318587506
  0
LINE
 8
GROUP0
10
381.188900380687
20
1890.17526668284
30
8.07292408945393e-005
11
383.786976592037
21
1891.67526668284
31
8.45173851596659e-005
  0
LINE
 8
GROUP0
10
386.385052803385
20
1875.97911426017
30
8.9562853509112e-005
11
386.385052803383
21
1872.97911426017
31
9.0820178297718e-005
  0
LINE
 8
GROUP0
10
394.581203148505
20
1887.17526668285
30
9.08201782807982e-005
11
391.983126937155
21
1885.67526668285
31
8.70320333839991e-005
  0
LINE
 8
GROUP0
10
387.885051764627
20
1878.57718987174
30
8.53584076495772e-005
11
385.286975553278
21
1880.07718987173
31
8.03129390470392e-005
  0
LINE
 8
GROUP0
10
400.179268185785
20
1885.67526668282
30
0.00010880196753234
11
397.581191974436
21
1887.17526668282
31
0.000103756498208596
  0
LINE
 8
GROUP0
10
353.600460519388
20
1858.78295300988
30
4.75165437065828e-005
11
351.002384308039
21
1857.28295300988
31
4.37283988097836e-005
  0
LINE
 8
GROUP0
10
406.875432821376
20
1883.07718987173
30
8.78892272198617e-005
11
406.875432821374
21
1880.07718987174
31
8.91465513760903e-005
  0
LINE
 8
GROUP0
10
364.79659969045
20
1872.97910543254
30
6.36146449601582e-005
11
364.796599690452
21
1875.97910543254
31
6.23573208032246e-005
  0
LINE
 8
GROUP0
10
402.777344397135
20
1887.17526668282
30
0.000112590110624361
11
400.179268185785
21
1885.67526668282
31
0.00010880196753234
  0
LINE
 8
GROUP0
10
401.679280398678
20
1883.07718987173
30
7.90556140814802e-005
11
404.277356610027
21
1884.57718987173
31
8.28437583466068e-005
  0
LINE
 8
GROUP0
10
364.796599690452
20
1875.97910543254
30
6.23573208032246e-005
11
367.394675901802
21
1877.47910543254
31
6.61454648878734e-005
  0
LINE
 8
GROUP0
10
385.286975553278
20
1880.07718987173
30
8.03129390470392e-005
11
385.28697555328
21
1883.07718987173
31
7.90556140786602e-005
  0
LINE
 8
GROUP0
10
351.002384308043
20
1863.28295300988
30
4.12137502259047e-005
11
353.600460519391
21
1861.78295300988
31
4.62592188277378e-005
  0
LINE
 8
GROUP0
10
386.385052803383
20
1872.97911426017
30
9.0820178297718e-005
11
383.786976592033
21
1871.47911426017
31
8.70320340325914e-005
  0
LINE
 8
GROUP0
10
402.777344397137
20
1890.17526668282
30
0.000111332786738849
11
402.777344397135
21
1887.17526668282
31
0.000112590110624361
  0
LINE
 8
GROUP0
10
387.88505176463
20
1884.57718987173
30
8.28437583437869e-005
11
390.483127975979
21
1883.07718987173
31
8.78892272163367e-005
  0
LINE
 8
GROUP0
10
400.179268185788
20
1891.67526668282
30
0.000106287318587506
11
402.777344397137
21
1890.17526668282
31
0.000111332786738849
  0
LINE
 8
GROUP0
10
367.394675901798
20
1871.47910543254
30
6.86601141936638e-005
11
364.79659969045
21
1872.97910543254
31
6.36146449601582e-005
  0
LINE
 8
GROUP0
10
406.875432821374
20
1880.07718987174
30
8.91465513760903e-005
11
404.277356610024
21
1878.57718987174
31
8.53584076523972e-005
  0
LINE
 8
GROUP0
10
391.983126937159
20
1891.67526668284
30
8.45173851610759e-005
11
394.581203148508
21
1890.17526668284
31
8.956285367267e-005
  0
LINE
 8
GROUP0
10
389.385050725807
20
1887.17526668284
30
8.19865656838503e-005
11
389.385050725808
21
1890.17526668284
31
8.07292408057103e-005
  0
LINE
 8
GROUP0
10
348.40430809669
20
1858.78295300988
30
3.86829304779623e-005
11
348.404308096693
21
1861.78295300988
31
3.7425605960778e-005
  0
LINE
 8
GROUP0
10
383.786976592033
20
1871.47911426017
30
8.70320340325914e-005
11
381.188900380685
21
1872.97911426017
31
8.19865660617258e-005
  0
LINE
 8
GROUP0
10
397.581191974436
20
1887.17526668282
30
0.000103756498208596
11
397.581191974437
21
1890.17526668282
31
0.000102499173780946
  0
LINE
 8
GROUP0
10
416.851545033374
20
1907.47918821255
30
3.60859729013285e-005
11
416.851545033374
21
1903.47918821255
31
3.60859729013285e-005
  0
LINE
 8
GROUP0
10
466.210036519898
20
1907.47914725823
30
3.60859713221473e-005
11
466.210036519898
21
1903.47914725823
31
3.60859713221473e-005
  0
LINE
 8
GROUP0
10
324.160065919891
20
1909.5792105368
30
3.60859713221473e-005
11
329.160065919893
21
1909.57921792681
31
3.60859713221473e-005
  0
LINE
 8
GROUP0
10
416.851545033374
20
1907.47918821255
30
3.60859729013285e-005
11
466.210036519898
21
1907.47914725823
31
3.60859713221473e-005
  0
LINE
 8
GROUP0
10
564.160010814896
20
1843.47910984635
30
3.60859713672668e-005
11
560.160010814897
21
1839.47910984635
31
3.60859713672668e-005
  0
LINE
 8
GROUP0
10
318.160062442253
20
1843.47910984635
30
3.60859713672668e-005
11
322.1600622249
21
1839.47910984635
31
3.60859713672668e-005
  0
LINE
 8
GROUP0
10
386.385052803383
20
1887.17526668285
30
9.08201782793883e-005
11
383.786976592033
21
1885.67526668285
31
8.70320333825891e-005
  0
LINE
 8
GROUP0
10
329.160069614895
20
1903.47912832137
30
3.60859713221473e-005
11
416.851545033374
21
1903.47918821255
31
3.60859729013285e-005
  0
LINE
 8
GROUP0
10
328.160065919893
20
1907.57921792681
30
3.60859713221473e-005
11
328.160069614895
21
1892.47912093139
31
3.60859713221473e-005
  0
LINE
 8
GROUP0
10
383.786976592033
20
1885.67526668285
30
8.70320333825891e-005
11
381.188900380685
21
1887.17526668284
31
8.19865656824403e-005
  0
LINE
 8
GROUP0
10
381.188900380685
20
1887.17526668284
30
8.19865656824403e-005
11
381.188900380687
21
1890.17526668284
31
8.07292408945393e-005
  0
LINE
 8
GROUP0
10
553.160010814897
20
1909.57921792681
30
3.60859713221473e-005
11
558.160010814896
21
1909.57921792681
31
3.60859713221473e-005
  0
LINE
 8
GROUP0
10
509.32728069071
20
1875.97914074301
30
0.000209988413854373
11
509.327280690708
21
1872.97914074301
31
0.000211245738642979
  0
LINE
 8
GROUP0
10
509.327280690708
20
1872.97914074301
30
0.000211245738642979
11
506.729204479358
21
1871.47914074301
31
0.000207457594377852
  0
LINE
 8
GROUP0
10
554.160010814897
20
1907.57921792681
30
3.60859713221473e-005
11
554.160010814897
21
1892.47910984635
31
3.60859713221473e-005
  0
LINE
 8
GROUP0
10
466.210036519898
20
1903.47914725823
30
3.60859713221473e-005
11
553.160010814896
21
1903.47910984635
31
3.60859713221473e-005
  0
LINE
 8
GROUP0
10
532.817660708673
20
1868.88106393188
30
0.000170374620943425
11
535.415736920026
21
1870.38106393188
31
0.000170685914921409
  0
LINE
 8
GROUP0
10
532.81766070867
20
1865.88106393188
30
0.00017236812582101
11
532.817660708673
21
1868.88106393188
31
0.000170374620943425
  0
LINE
 8
GROUP0
10
523.121496073105
20
1863.28298832031
30
0.000223551097175534
11
525.719572284453
21
1861.78298832031
31
0.000228596565597594
  0
LINE
 8
GROUP0
10
504.131128268012
20
1875.97914074301
30
0.000201154801619086
11
506.729204479362
21
1877.47914074301
31
0.000204942945342779
  0
LINE
 8
GROUP0
10
525.719572284453
20
1861.78298832031
30
0.000228596565597594
11
525.719572284451
21
1858.78298832031
31
0.000229853890114778
  0
LINE
 8
GROUP0
10
520.523419861755
20
1861.78298832031
30
0.000219762952459213
11
523.121496073105
21
1863.28298832031
31
0.000223551097175534
  0
LINE
 8
GROUP0
10
525.719572284451
20
1858.78298832031
30
0.000229853890114778
11
523.121496073101
21
1857.28298832031
31
0.000226065745488696
  0
LINE
 8
GROUP0
10
535.415736920022
20
1864.38106393188
30
0.000174672923593006
11
532.81766070867
21
1865.88106393188
31
0.00017236812582101
  0
LINE
 8
GROUP0
10
506.729204479358
20
1871.47914074301
30
0.000207457594377852
11
504.13112826801
21
1872.97914074301
31
0.000202412126406987
  0
LINE
 8
GROUP0
10
506.729204479362
20
1877.47914074301
30
0.000204942945342779
11
509.32728069071
21
1875.97914074301
31
0.000209988413854373
  0
LINE
 8
GROUP0
10
504.13112826801
20
1872.97914074301
30
0.000202412126406987
11
504.131128268012
21
1875.97914074301
31
0.000201154801619086
  0
LINE
 8
GROUP0
10
538.013813131378
20
1868.88106393188
30
0.000172990713596499
11
538.013813131377
21
1865.88106393188
31
0.000174984218292901
  0
LINE
 8
GROUP0
10
523.121496073101
20
1857.28298832031
30
0.000226065745488696
11
520.523419861753
21
1858.78298832031
31
0.000221020277338058
  0
LINE
 8
GROUP0
10
520.523419861753
20
1858.78298832031
30
0.000221020277338058
11
520.523419861755
21
1861.78298832031
31
0.000219762952459213
  0
LINE
 8
GROUP0
10
538.013813131377
20
1865.88106393188
30
0.000174984218292901
11
535.415736920022
21
1864.38106393188
31
0.000174672923593006
  0
LINE
 8
GROUP0
10
535.415736920026
20
1870.38106393188
30
0.000170685914921409
11
538.013813131378
21
1868.88106393188
31
0.000172990713596499
  0
LINE
 8
GROUP0
10
528.719570206885
20
1875.97914074298
30
0.000222924734597141
11
531.317646418235
21
1877.47914074298
31
0.00022671287868179
  0
LINE
 8
GROUP0
10
525.719572284459
20
1872.97914074298
30
0.000233015671258668
11
523.12149607311
21
1871.47914074298
31
0.00022922752798617
  0
LINE
 8
GROUP0
10
539.513796763341
20
1857.28299273413
30
0.000235251706086009
11
536.915720551993
21
1858.78299273413
31
0.000230206236762265
  0
LINE
 8
GROUP0
10
528.719570206883
20
1872.97914074298
30
0.000224182058754074
11
528.719570206885
21
1875.97914074298
31
0.000222924734597141
  0
LINE
 8
GROUP0
10
523.12149607311
20
1871.47914074298
30
0.00022922752798617
11
520.523419861761
21
1872.97914074298
31
0.000224182058752664
  0
LINE
 8
GROUP0
10
533.915722629584
20
1875.97914074298
30
0.000231758346652655
11
533.915722629582
21
1872.97914074298
31
0.000233015671260078
  0
LINE
 8
GROUP0
10
520.523419861761
20
1872.97914074298
30
0.000224182058752664
11
520.523419861763
21
1875.97914074298
31
0.000222924734325014
  0
LINE
 8
GROUP0
10
520.523419861763
20
1875.97914074298
30
0.000222924734325014
11
523.121496073113
21
1877.47914074298
31
0.00022671287868038
  0
LINE
 8
GROUP0
10
531.317646418232
20
1871.47914074298
30
0.00022922752798758
11
528.719570206883
21
1872.97914074298
31
0.000224182058754074
  0
LINE
 8
GROUP0
10
531.317646418235
20
1877.47914074298
30
0.00022671287868179
11
533.915722629584
21
1875.97914074298
31
0.000231758346652655
  0
LINE
 8
GROUP0
10
542.111872974692
20
1858.78299273413
30
0.000239039849719463
11
539.513796763341
21
1857.28299273413
31
0.000235251706086009
  0
LINE
 8
GROUP0
10
536.915720551993
20
1858.78299273413
30
0.000230206236762265
11
536.915720551995
21
1861.78299273413
31
0.000228948913237004
  0
LINE
 8
GROUP0
10
542.111872974693
20
1861.78299273412
30
0.000237782525653474
11
542.111872974692
21
1858.78299273413
31
0.000239039849719463
  0
LINE
 8
GROUP0
10
533.915722629582
20
1872.97914074298
30
0.000233015671260078
11
531.317646418232
21
1871.47914074298
31
0.00022922752798758
  0
LINE
 8
GROUP0
10
539.513796763345
20
1863.28299273412
30
0.000232737056960697
11
542.111872974693
21
1861.78299273412
31
0.000237782525653474
  0
LINE
 8
GROUP0
10
536.915720551995
20
1861.78299273413
30
0.000228948913237004
11
539.513796763345
21
1863.28299273412
31
0.000232737056960697
  0
LINE
 8
GROUP0
10
533.915722629573
20
1858.78298832031
30
0.000229853890116188
11
531.317646418224
21
1857.28298832031
31
0.000226065745490106
  0
LINE
 8
GROUP0
10
521.621508285991
20
1865.88106393189
30
0.000194598632954285
11
519.023432074637
21
1864.38106393189
31
0.000194287338976301
  0
LINE
 8
GROUP0
10
523.121496073113
20
1877.47914074298
30
0.00022671287868038
11
525.719572284462
21
1875.97914074298
31
0.000231758346741484
  0
LINE
 8
GROUP0
10
531.317646418227
20
1863.28298832031
30
0.000223551097086705
11
533.915722629576
21
1861.78298832031
31
0.000228596565418526
  0
LINE
 8
GROUP0
10
506.72920447935
20
1857.28298832033
30
0.00020429581260229
11
504.131128268001
21
1858.78298832033
31
0.000199250344270468
  0
LINE
 8
GROUP0
10
506.729204479354
20
1863.28298832033
30
0.000201781164740322
11
509.327280690702
21
1861.78298832033
31
0.000206826632710483
  0
LINE
 8
GROUP0
10
519.023432074637
20
1864.38106393189
30
0.000194287338976301
11
516.425355863285
21
1865.88106393189
31
0.000191982540572633
  0
LINE
 8
GROUP0
10
528.719570206875
20
1858.78298832031
30
0.000221020276888273
11
528.719570206877
21
1861.78298832031
31
0.000219762952370384
  0
LINE
 8
GROUP0
10
533.915722629576
20
1861.78298832031
30
0.000228596565418526
11
533.915722629573
21
1858.78298832031
31
0.000229853890116188
  0
LINE
 8
GROUP0
10
528.719570206877
20
1861.78298832031
30
0.000219762952370384
11
531.317646418227
21
1863.28298832031
31
0.000223551097086705
  0
LINE
 8
GROUP0
10
509.327280690702
20
1861.78298832033
30
0.000206826632710483
11
509.3272806907
21
1858.78298832033
31
0.00020808395740885
  0
LINE
 8
GROUP0
10
509.3272806907
20
1858.78298832033
30
0.00020808395740885
11
506.72920447935
21
1857.28298832033
31
0.00020429581260229
  0
LINE
 8
GROUP0
10
504.131128268001
20
1858.78298832033
30
0.000199250344270468
11
504.131128268004
21
1861.78298832033
31
0.000197993019843523
  0
LINE
 8
GROUP0
10
504.131128268004
20
1861.78298832033
30
0.000197993019843523
11
506.729204479354
21
1863.28298832033
31
0.000201781164740322
  0
LINE
 8
GROUP0
10
525.719572284462
20
1875.97914074298
30
0.000231758346741484
11
525.719572284459
21
1872.97914074298
31
0.000233015671258668
  0
LINE
 8
GROUP0
10
531.317646418224
20
1857.28298832031
30
0.000226065745490106
11
528.719570206875
21
1858.78298832031
31
0.000221020276888273
  0
LINE
 8
GROUP0
10
512.327278613134
20
1875.97914074301
30
0.000201154801620496
11
514.925354824484
21
1877.47914074301
31
0.000204942945344189
  0
LINE
 8
GROUP0
10
514.92535482448
20
1871.47914074301
30
0.000207457594289023
11
512.327278613132
21
1872.97914074301
31
0.000202412126409102
  0
LINE
 8
GROUP0
10
517.523431035832
20
1875.97914074301
30
0.000209988413766249
11
517.52343103583
21
1872.97914074301
31
0.000211245738644389
  0
LINE
 8
GROUP0
10
516.425355863287
20
1868.88106393189
30
0.000189989035695048
11
519.023432074641
21
1870.38106393189
31
0.00019030032985351
  0
LINE
 8
GROUP0
10
521.621508285992
20
1868.88106393189
30
0.000192605128438361
11
521.621508285991
21
1865.88106393189
31
0.000194598632954285
  0
LINE
 8
GROUP0
10
536.915720552003
20
1875.9791451568
30
0.000232110694562077
11
539.513796763353
21
1877.4791451568
31
0.000235898838736964
  0
LINE
 8
GROUP0
10
512.327278613132
20
1872.97914074301
30
0.000202412126409102
11
512.327278613134
21
1875.97914074301
31
0.000201154801620496
  0
LINE
 8
GROUP0
10
517.52343103583
20
1872.97914074301
30
0.000211245738644389
11
514.92535482448
21
1871.47914074301
31
0.000207457594289023
  0
LINE
 8
GROUP0
10
536.915720552001
20
1872.9791451568
30
0.000233368018537827
11
536.915720552003
21
1875.9791451568
31
0.000232110694562077
  0
LINE
 8
GROUP0
10
542.111872974702
20
1875.9791451568
30
0.000240944307158319
11
542.111872974699
21
1872.9791451568
31
0.000242201631946221
  0
LINE
 8
GROUP0
10
514.925354824484
20
1877.47914074301
30
0.000204942945344189
11
517.523431035832
21
1875.97914074301
31
0.000209988413766249
  0
LINE
 8
GROUP0
10
542.111872974699
20
1872.9791451568
30
0.000242201631946221
11
539.513796763349
21
1871.4791451568
31
0.000238413487771333
  0
LINE
 8
GROUP0
10
516.425355863285
20
1865.88106393189
30
0.000191982540572633
11
516.425355863287
21
1868.88106393189
31
0.000189989035695048
  0
LINE
 8
GROUP0
10
539.513796763349
20
1871.4791451568
30
0.000238413487771333
11
536.915720552001
21
1872.9791451568
31
0.000233368018537827
  0
LINE
 8
GROUP0
10
539.513796763353
20
1877.4791451568
30
0.000235898838736964
11
542.111872974702
21
1875.9791451568
31
0.000240944307158319
  0
LINE
 8
GROUP0
10
519.023432074641
20
1870.38106393189
30
0.00019030032985351
11
521.621508285992
21
1868.88106393189
31
0.000192605128438361
  0
LINE
 8
GROUP0
10
529.817660708699
20
1880.07721635457
30
0.000209572111721351
11
527.219584497349
21
1878.57721635457
31
0.000205783967997658
  0
LINE
 8
GROUP0
10
527.219584497333
20
1870.38106393188
30
0.000180493122522818
11
529.817660708685
21
1868.88106393188
31
0.00018279792101743
  0
LINE
 8
GROUP0
10
510.827279651948
20
1870.38106393189
30
0.000200107537003724
11
513.4253558633
21
1868.88106393189
31
0.000202412335678109
  0
LINE
 8
GROUP0
10
524.621508286003
20
1883.07721635457
30
0.000199481174426741
11
527.219584497352
21
1884.57721635457
31
0.000203269318691868
  0
LINE
 8
GROUP0
10
508.229203440592
20
1865.8810639319
30
0.000201789748353814
11
508.229203440594
21
1868.88106393189
31
0.000199796243567174
  0
LINE
 8
GROUP0
10
510.827279651943
20
1864.3810639319
30
0.000204094546216754
11
508.229203440592
21
1865.8810639319
31
0.000201789748353814
  0
LINE
 8
GROUP0
10
529.817660708685
20
1868.88106393188
30
0.00018279792101743
11
529.817660708684
21
1865.88106393188
31
0.000184791425172398
  0
LINE
 8
GROUP0
10
529.817660708684
20
1865.88106393188
30
0.000184791425172398
11
527.21958449733
21
1864.38106393188
31
0.000184480131104175
  0
LINE
 8
GROUP0
10
529.817660708701
20
1883.07721635457
30
0.000208314787565123
11
529.817660708699
21
1880.07721635457
31
0.000209572111721351
  0
LINE
 8
GROUP0
10
527.219584497352
20
1884.57721635457
30
0.000203269318691868
11
529.817660708701
21
1883.07721635457
31
0.000208314787565123
  0
LINE
 8
GROUP0
10
524.621508286
20
1880.07721635457
30
0.000200738499395825
11
524.621508286003
21
1883.07721635457
31
0.000199481174426741
  0
LINE
 8
GROUP0
10
527.219584497349
20
1878.57721635457
30
0.000205783967997658
11
524.621508286
21
1880.07721635457
31
0.000200738499395825
  0
LINE
 8
GROUP0
10
513.4253558633
20
1868.88106393189
30
0.000202412335678109
11
513.425355863298
21
1865.88106393189
31
0.000204405840284977
  0
LINE
 8
GROUP0
10
513.425355863298
20
1865.88106393189
30
0.000204405840284977
11
510.827279651943
21
1864.3810639319
31
0.000204094546216754
  0
LINE
 8
GROUP0
10
508.229203440594
20
1868.88106393189
30
0.000199796243567174
11
510.827279651948
21
1870.38106393189
31
0.000200107537003724
  0
LINE
 8
GROUP0
10
524.621508285979
20
1868.88106393188
30
0.000180181828544834
11
527.219584497333
21
1870.38106393188
31
0.000180493122522818
  0
LINE
 8
GROUP0
10
512.327278613124
20
1858.78298832033
30
0.000199250344271878
11
512.327278613126
21
1861.78298832033
31
0.000197993019754694
  0
LINE
 8
GROUP0
10
514.925354824472
20
1857.28298832033
30
0.0002042958126037
11
512.327278613124
21
1858.78298832033
31
0.000199250344271878
  0
LINE
 8
GROUP0
10
512.327278613126
20
1861.78298832033
30
0.000197993019754694
11
514.925354824476
21
1863.28298832033
31
0.000201781164019821
  0
LINE
 8
GROUP0
10
538.013813131398
20
1880.07721635457
30
0.000209572111722761
11
535.415736920047
21
1878.57721635457
31
0.000205783967999068
  0
LINE
 8
GROUP0
10
535.415736920052
20
1884.57721635457
30
0.000203269318693983
11
538.0138131314
21
1883.07721635457
31
0.000208314787566533
  0
LINE
 8
GROUP0
10
532.817660708699
20
1880.07721635457
30
0.000200738499397235
11
532.817660708702
21
1883.07721635457
31
0.000199481174428856
  0
LINE
 8
GROUP0
10
524.621508285977
20
1865.88106393188
30
0.000182175332790746
11
524.621508285979
21
1868.88106393188
31
0.000180181828544834
  0
LINE
 8
GROUP0
10
512.327278613132
20
1887.17529316568
30
0.000202412126029816
11
512.327278613133
21
1890.17529316568
31
0.000201154801150971
  0
LINE
 8
GROUP0
10
514.925354824476
20
1863.28298832033
30
0.000201781164019821
11
517.523431035824
21
1861.78298832033
31
0.000206826632621654
  0
LINE
 8
GROUP0
10
517.523431035822
20
1858.78298832033
30
0.000208083957500499
11
514.925354824472
21
1857.28298832033
31
0.0002042958126037
  0
LINE
 8
GROUP0
10
512.327278613133
20
1890.17529316568
30
0.000201154801150971
11
514.925354824484
21
1891.67529316568
31
0.000204942945506337
  0
LINE
 8
GROUP0
10
538.0138131314
20
1883.07721635457
30
0.000208314787566533
11
538.013813131398
21
1880.07721635457
31
0.000209572111722761
  0
LINE
 8
GROUP0
10
532.817660708702
20
1883.07721635457
30
0.000199481174428856
11
535.415736920052
21
1884.57721635457
31
0.000203269318693983
  0
LINE
 8
GROUP0
10
517.523431035824
20
1861.78298832033
30
0.000206826632621654
11
517.523431035822
21
1858.78298832033
31
0.000208083957500499
  0
LINE
 8
GROUP0
10
527.21958449733
20
1864.38106393188
30
0.000184480131104175
11
524.621508285977
21
1865.88106393188
31
0.000182175332790746
  0
LINE
 8
GROUP0
10
535.415736920047
20
1878.57721635457
30
0.000205783967999068
11
532.817660708699
21
1880.07721635457
31
0.000200738499397235
  0
LINE
 8
GROUP0
10
514.92535482448
20
1885.67529316568
30
0.00020745759372926
11
512.327278613132
21
1887.17529316568
31
0.000202412126029816
  0
LINE
 8
GROUP0
10
509.327280690708
20
1887.17529316568
30
0.000211245738624649
11
506.729204479358
21
1885.67529316568
31
0.00020745759372785
  0
LINE
 8
GROUP0
10
531.317646418231
20
1885.67529316566
30
0.000229227527879011
11
528.719570206883
21
1887.17529316566
31
0.000224182058555267
  0
LINE
 8
GROUP0
10
531.317646418235
20
1891.67529316566
30
0.000226712878934882
11
533.915722629584
21
1890.17529316566
31
0.000231758346995281
  0
LINE
 8
GROUP0
10
504.13112826801
20
1887.17529316568
30
0.000202412126028406
11
504.131128268012
21
1890.17529316568
31
0.0002011548012398
  0
LINE
 8
GROUP0
10
514.925354824484
20
1891.67529316568
30
0.000204942945506337
11
517.523431035833
21
1890.17529316568
31
0.000209988414018636
  0
LINE
 8
GROUP0
10
528.719570206885
20
1890.17529316566
30
0.000222924734038082
11
531.317646418235
21
1891.67529316566
31
0.000226712878934882
  0
LINE
 8
GROUP0
10
533.915722629582
20
1887.17529316566
30
0.000233015670971032
11
531.317646418231
21
1885.67529316566
31
0.000229227527879011
  0
LINE
 8
GROUP0
10
533.915722629584
20
1890.17529316566
30
0.000231758346995281
11
533.915722629582
21
1887.17529316566
31
0.000233015670971032
  0
LINE
 8
GROUP0
10
528.719570206883
20
1887.17529316566
30
0.000224182058555267
11
528.719570206885
21
1890.17529316566
31
0.000222924734038082
  0
LINE
 8
GROUP0
10
517.523431035833
20
1890.17529316568
30
0.000209988414018636
11
517.52343103583
21
1887.17529316568
31
0.000211245738626059
  0
LINE
 8
GROUP0
10
517.52343103583
20
1887.17529316568
30
0.000211245738626059
11
514.92535482448
21
1885.67529316568
31
0.00020745759372926
  0
LINE
 8
GROUP0
10
506.729204479358
20
1885.67529316568
30
0.00020745759372785
11
504.13112826801
21
1887.17529316568
31
0.000202412126028406
  0
LINE
 8
GROUP0
10
504.131128268012
20
1890.17529316568
30
0.0002011548012398
11
506.729204479362
21
1891.67529316568
31
0.000204942945504927
  0
LINE
 8
GROUP0
10
509.32728069071
20
1890.17529316568
30
0.000209988414016521
11
509.327280690708
21
1887.17529316568
31
0.000211245738624649
  0
LINE
 8
GROUP0
10
506.729204479362
20
1891.67529316568
30
0.000204942945504927
11
509.32728069071
21
1890.17529316568
31
0.000209988414016521
  0
LINE
 8
GROUP0
10
432.963869566255
20
1857.28297066511
30
0.000124012105706389
11
430.365793354907
21
1858.78297066511
31
0.000118966637375273
  0
LINE
 8
GROUP0
10
430.365793354909
20
1861.78297066511
30
0.000117709312858089
11
432.96386956626
21
1863.28297066511
31
0.00012149745712251
  0
LINE
 8
GROUP0
10
430.365793354907
20
1858.78297066511
30
0.000118966637375273
11
430.365793354909
21
1861.78297066511
31
0.000117709312858089
  0
LINE
 8
GROUP0
10
435.561945777607
20
1861.78297066511
30
0.000126542925725048
11
435.561945777605
21
1858.78297066511
31
0.000127800250603188
  0
LINE
 8
GROUP0
10
435.561945777605
20
1858.78297066511
30
0.000127800250603188
11
432.963869566255
21
1857.28297066511
31
0.000124012105706389
  0
LINE
 8
GROUP0
10
442.660023027763
20
1868.88104627666
30
9.98981216482286e-005
11
445.258099239116
21
1870.38104627666
31
0.000100209415626212
  0
LINE
 8
GROUP0
10
445.258099239116
20
1870.38104627666
30
0.000100209415626212
11
447.856175450468
21
1868.88104627666
31
0.00010251421412012
  0
LINE
 8
GROUP0
10
432.96386956626
20
1863.28297066511
30
0.00012149745712251
11
435.561945777607
21
1861.78297066511
31
0.000126542925725048
  0
LINE
 8
GROUP0
10
460.150387716485
20
1875.97912750158
30
0.000160660600261009
11
460.150387716482
21
1872.97912750158
31
0.000161917925049615
  0
LINE
 8
GROUP0
10
447.856175450468
20
1868.88104627666
30
0.00010251421412012
11
447.856175450467
21
1865.88104627666
31
0.000104507718275793
  0
LINE
 8
GROUP0
10
453.454251661809
20
1870.38104627665
30
9.04022080248035e-005
11
456.052327873161
21
1868.88104627665
31
9.27070066991886e-005
  0
LINE
 8
GROUP0
10
460.150387716482
20
1872.97912750158
30
0.000161917925049615
11
457.552311505133
21
1871.47912750158
31
0.000158129780874727
  0
LINE
 8
GROUP0
10
457.552311505136
20
1877.47912750158
30
0.000155615131839654
11
460.150387716485
21
1875.97912750158
31
0.000160660600261009
  0
LINE
 8
GROUP0
10
450.856175450456
20
1868.88104627665
30
9.00909140468198e-005
11
453.454251661809
21
1870.38104627665
31
9.04022080248035e-005
  0
LINE
 8
GROUP0
10
456.05232787316
20
1865.88104627665
30
9.47005113962951e-005
11
453.454251661805
21
1864.38104627666
31
9.43892166964e-005
  0
LINE
 8
GROUP0
10
447.856175450467
20
1865.88104627666
30
0.000104507718275793
11
445.258099239113
21
1864.38104627666
31
0.00010419642420757
  0
LINE
 8
GROUP0
10
445.258099239113
20
1864.38104627666
30
0.00010419642420757
11
442.660023027761
21
1865.88104627666
31
0.000101891625893435
  0
LINE
 8
GROUP0
10
456.052327873161
20
1868.88104627665
30
9.27070066991886e-005
11
456.05232787316
21
1865.88104627665
31
9.47005113962951e-005
  0
LINE
 8
GROUP0
10
450.856175450453
20
1865.88104627665
30
9.20844189236991e-005
11
450.856175450456
21
1868.88104627665
31
9.00909140468198e-005
  0
LINE
 8
GROUP0
10
442.660023027761
20
1865.88104627666
30
0.000101891625893435
11
442.660023027763
21
1868.88104627666
31
9.98981216482286e-005
  0
LINE
 8
GROUP0
10
453.454251661805
20
1864.38104627666
30
9.43892166964e-005
11
450.856175450453
21
1865.88104627665
31
9.20844189236991e-005
  0
LINE
 8
GROUP0
10
454.954235293786
20
1875.97912750158
30
0.000151826987664766
11
457.552311505136
21
1877.47912750158
31
0.000155615131839654
  0
LINE
 8
GROUP0
10
461.650404084529
20
1878.57719869935
30
0.000125500261103872
11
459.052327873181
21
1880.07719869935
31
0.000120454792502039
  0
LINE
 8
GROUP0
10
424.767719221141
20
1871.47912308778
30
0.000127173887480542
11
422.169643009793
21
1872.97912308778
31
0.000122128419510381
  0
LINE
 8
GROUP0
10
427.365795432491
20
1872.97912308778
30
0.000130962031745668
11
424.767719221141
21
1871.47912308778
31
0.000127173887480542
  0
LINE
 8
GROUP0
10
422.169643009793
20
1872.97912308778
30
0.000122128419510381
11
422.169643009795
21
1875.97912308778
31
0.000120871094721775
  0
LINE
 8
GROUP0
10
451.954237371365
20
1887.17527551043
30
0.000152731964074426
11
449.356161160014
21
1885.67527551043
31
0.000148943820982406
  0
LINE
 8
GROUP0
10
449.356161160014
20
1885.67527551043
30
0.000148943820982406
11
446.758084948666
21
1887.17527551043
31
0.000143898351658661
  0
LINE
 8
GROUP0
10
454.954235293784
20
1872.97912750158
30
0.000153084311641222
11
454.954235293786
21
1875.97912750158
31
0.000151826987664766
  0
LINE
 8
GROUP0
10
459.052327873183
20
1883.07719869935
30
0.000119197467532955
11
461.650404084533
21
1884.57719869935
31
0.000122985611798082
  0
LINE
 8
GROUP0
10
461.650404084533
20
1884.57719869935
30
0.000122985611798082
11
464.248480295881
21
1883.07719869935
31
0.000128031080671337
  0
LINE
 8
GROUP0
10
464.248480295879
20
1880.07719869935
30
0.000129288404827566
11
461.650404084529
21
1878.57719869935
31
0.000125500261103872
  0
LINE
 8
GROUP0
10
422.169643009795
20
1875.97912308778
30
0.000120871094721775
11
424.767719221145
21
1877.47912308778
31
0.000124659238445468
  0
LINE
 8
GROUP0
10
427.365795432494
20
1875.97912308778
30
0.000129704706957767
11
427.365795432491
21
1872.97912308778
31
0.000130962031745668
  0
LINE
 8
GROUP0
10
464.248480295881
20
1883.07719869935
30
0.000128031080671337
11
464.248480295879
21
1880.07719869935
31
0.000129288404827566
  0
LINE
 8
GROUP0
10
457.552311505133
20
1871.47912750158
30
0.000158129780874727
11
454.954235293784
21
1872.97912750158
31
0.000153084311641222
  0
LINE
 8
GROUP0
10
459.052327873181
20
1880.07719869935
30
0.000120454792502039
11
459.052327873183
21
1883.07719869935
31
0.000119197467532955
  0
LINE
 8
GROUP0
10
424.767719221145
20
1877.47912308778
30
0.000124659238445468
11
427.365795432494
21
1875.97912308778
31
0.000129704706957767
  0
LINE
 8
GROUP0
10
454.954235293784
20
1887.17527992425
30
0.000153084311352175
11
454.954235293786
21
1890.17527992425
31
0.000151826987195242
  0
LINE
 8
GROUP0
10
451.954237371367
20
1890.17527551043
30
0.000151474640097971
11
451.954237371365
21
1887.17527551043
31
0.000152731964074426
  0
LINE
 8
GROUP0
10
438.561934603544
20
1872.97912308776
30
0.000143898351855354
11
438.561934603546
21
1875.97912308776
31
0.000142641027428408
  0
LINE
 8
GROUP0
10
457.552311505136
20
1891.67527992425
30
0.000155615131911563
11
460.150387716485
21
1890.17527992425
31
0.000160660600153145
  0
LINE
 8
GROUP0
10
441.160010814893
20
1871.47912308776
30
0.000148943821089564
11
438.561934603544
21
1872.97912308776
31
0.000143898351855354
  0
LINE
 8
GROUP0
10
441.160010814896
20
1877.47912308776
30
0.000146429171783774
11
443.758087026245
21
1875.97912308776
31
0.000151474639844174
  0
LINE
 8
GROUP0
10
454.954235293786
20
1890.17527992425
30
0.000151826987195242
11
457.552311505136
21
1891.67527992425
31
0.000155615131911563
  0
LINE
 8
GROUP0
10
460.150387716485
20
1890.17527992425
30
0.000160660600153145
11
460.150387716483
21
1887.17527992425
31
0.000161917924941046
  0
LINE
 8
GROUP0
10
446.758084948668
20
1890.17527551043
30
0.000142641027140772
11
449.356161160018
21
1891.67527551043
31
0.000146429172037571
  0
LINE
 8
GROUP0
10
446.758084948666
20
1887.17527551043
30
0.000143898351658661
11
446.758084948668
21
1890.17527551043
31
0.000142641027140772
  0
LINE
 8
GROUP0
10
443.758087026245
20
1875.97912308776
30
0.000151474639844174
11
443.758087026242
21
1872.97912308776
31
0.000152731964362063
  0
LINE
 8
GROUP0
10
457.552311505133
20
1885.67527992425
30
0.000158129780044247
11
454.954235293784
21
1887.17527992425
31
0.000153084311352175
  0
LINE
 8
GROUP0
10
443.758087026242
20
1872.97912308776
30
0.000152731964362063
11
441.160010814893
21
1871.47912308776
31
0.000148943821089564
  0
LINE
 8
GROUP0
10
438.561934603546
20
1875.97912308776
30
0.000142641027428408
11
441.160010814896
21
1877.47912308776
31
0.000146429171783774
  0
LINE
 8
GROUP0
10
449.356161160018
20
1891.67527551043
30
0.000146429172037571
11
451.954237371367
21
1890.17527551043
31
0.000151474640097971
  0
LINE
 8
GROUP0
10
460.150387716483
20
1887.17527992425
30
0.000161917924941046
11
457.552311505133
21
1885.67527992425
31
0.000158129780044247
  0
LINE
 8
GROUP0
10
447.856175450484
20
1883.07719869935
30
0.000128031080667812
11
447.856175450482
21
1880.07719869935
31
0.000129288404824746
  0
LINE
 8
GROUP0
10
422.169643009787
20
1861.78297066511
30
0.000117709312946213
11
424.767719221137
21
1863.28297066511
31
0.000121497457843012
  0
LINE
 8
GROUP0
10
447.856175450482
20
1880.07719869935
30
0.000129288404824746
11
445.258099239132
21
1878.57719869935
31
0.000125500261101053
  0
LINE
 8
GROUP0
10
454.954235293776
20
1858.7829750789
30
0.000149922529864954
11
454.954235293778
21
1861.7829750789
31
0.000148665206340398
  0
LINE
 8
GROUP0
10
454.954235293778
20
1861.7829750789
30
0.000148665206340398
11
457.552311505129
21
1863.2829750789
31
0.000152453350064091
  0
LINE
 8
GROUP0
10
460.150387716476
20
1861.7829750789
30
0.000157498818756163
11
460.150387716475
21
1858.7829750789
31
0.000158756142822858
  0
LINE
 8
GROUP0
10
445.258099239132
20
1878.57719869935
30
0.000125500261101053
11
442.660023027783
21
1880.07719869935
31
0.000120454792498514
  0
LINE
 8
GROUP0
10
457.552311505129
20
1863.2829750789
30
0.000152453350064091
11
460.150387716476
21
1861.7829750789
31
0.000157498818756163
  0
LINE
 8
GROUP0
10
445.258099239136
20
1884.57719869935
30
0.000122985611795262
11
447.856175450484
21
1883.07719869935
31
0.000128031080667812
  0
LINE
 8
GROUP0
10
424.767719221137
20
1863.28297066511
30
0.000121497457843012
11
427.365795432486
21
1861.78297066511
31
0.000126542925813877
  0
LINE
 8
GROUP0
10
427.365795432486
20
1861.78297066511
30
0.000126542925813877
11
427.365795432484
21
1858.78297066511
31
0.000127800250511539
  0
LINE
 8
GROUP0
10
442.660023027783
20
1880.07719869935
30
0.000120454792498514
11
442.660023027786
21
1883.07719869935
31
0.000119197467530135
  0
LINE
 8
GROUP0
10
442.660023027786
20
1883.07719869935
30
0.000119197467530135
11
445.258099239136
21
1884.57719869935
31
0.000122985611795262
  0
LINE
 8
GROUP0
10
427.365795432484
20
1858.78297066511
30
0.000127800250511539
11
424.767719221133
21
1857.28297066511
31
0.000124012105704979
  0
LINE
 8
GROUP0
10
424.767719221133
20
1857.28297066511
30
0.000124012105704979
11
422.169643009784
21
1858.78297066511
31
0.000118966637373863
  0
LINE
 8
GROUP0
10
422.169643009784
20
1858.78297066511
30
0.000118966637373863
11
422.169643009787
21
1861.78297066511
31
0.000117709312946213
  0
LINE
 8
GROUP0
10
439.660023027774
20
1865.88104627666
30
0.000114314926056974
11
437.061946816421
21
1864.38104627667
31
0.000114003632079696
  0
LINE
 8
GROUP0
10
434.463870605068
20
1865.88104627667
30
0.000111698833675322
11
434.46387060507
21
1868.88104627667
31
0.000109705328798443
  0
LINE
 8
GROUP0
10
426.267718182378
20
1868.88104627667
30
0.000119512536669864
11
428.865794393731
21
1870.38104627667
31
0.000119823830106414
  0
LINE
 8
GROUP0
10
434.46387060507
20
1868.88104627667
30
0.000109705328798443
11
437.061946816424
21
1870.38104627666
31
0.000110016622956904
  0
LINE
 8
GROUP0
10
426.267718182376
20
1865.88104627667
30
0.000121506041457209
11
426.267718182378
21
1868.88104627667
31
0.000119512536669864
  0
LINE
 8
GROUP0
10
460.150387716475
20
1858.7829750789
30
0.000158756142822858
11
457.552311505124
21
1857.2829750789
31
0.000154967999189404
  0
LINE
 8
GROUP0
10
439.660023027776
20
1868.88104627666
30
0.000112321421541051
11
439.660023027774
21
1865.88104627666
31
0.000114314926056974
  0
LINE
 8
GROUP0
10
431.463870605081
20
1865.88104627667
30
0.000124122133387666
11
428.865794393727
21
1864.38104627667
31
0.000123810839319444
  0
LINE
 8
GROUP0
10
430.365793354917
20
1875.97912308778
30
0.00012087109472389
11
432.963869566267
21
1877.47912308778
31
0.000124659238447583
  0
LINE
 8
GROUP0
10
432.963869566267
20
1877.47912308778
30
0.000124659238447583
11
435.561945777615
21
1875.97912308778
31
0.000129704706868938
  0
LINE
 8
GROUP0
10
431.463870605083
20
1868.88104627667
30
0.000122128628781504
11
431.463870605081
21
1865.88104627667
31
0.000124122133387666
  0
LINE
 8
GROUP0
10
437.061946816421
20
1864.38104627667
30
0.000114003632079696
11
434.463870605068
21
1865.88104627667
31
0.000111698833675322
  0
LINE
 8
GROUP0
10
437.061946816424
20
1870.38104627666
30
0.000110016622956904
11
439.660023027776
21
1868.88104627666
31
0.000112321421541051
  0
LINE
 8
GROUP0
10
457.552311505124
20
1857.2829750789
30
0.000154967999189404
11
454.954235293776
21
1858.7829750789
31
0.000149922529864954
  0
LINE
 8
GROUP0
10
428.865794393727
20
1864.38104627667
30
0.000123810839319444
11
426.267718182376
21
1865.88104627667
31
0.000121506041457209
  0
LINE
 8
GROUP0
10
428.865794393731
20
1870.38104627667
30
0.000119823830106414
11
431.463870605083
21
1868.88104627667
31
0.000122128628781504
  0
LINE
 8
GROUP0
10
461.650404084502
20
1870.38104627665
30
8.05950007843503e-005
11
464.248480295853
21
1868.88104627665
31
8.28997995489744e-005
  0
LINE
 8
GROUP0
10
464.248480295853
20
1868.88104627665
30
8.28997995489744e-005
11
464.248480295852
21
1865.88104627665
31
8.48933034339305e-005
  0
LINE
 8
GROUP0
10
459.052327873147
20
1865.88104627665
30
8.2277211683951e-005
11
459.052327873149
21
1868.88104627665
31
8.02837068966056e-005
  0
LINE
 8
GROUP0
10
437.061946816437
20
1884.57719869935
30
0.000122985611523135
11
439.660023027786
21
1883.07719869935
31
0.000128031080666402
  0
LINE
 8
GROUP0
10
461.650404084498
20
1864.38104627665
30
8.45820097266636e-005
11
459.052327873147
21
1865.88104627665
31
8.2277211683951e-005
  0
LINE
 8
GROUP0
10
439.660023027786
20
1883.07719869935
30
0.000128031080666402
11
439.660023027784
21
1880.07719869935
31
0.000129288404823336
  0
LINE
 8
GROUP0
10
435.561945777615
20
1875.97912308778
30
0.000129704706868938
11
435.561945777613
21
1872.97912308778
31
0.000130962031747078
  0
LINE
 8
GROUP0
10
430.365793354915
20
1872.97912308778
30
0.000122128419511791
11
430.365793354917
21
1875.97912308778
31
0.00012087109472389
  0
LINE
 8
GROUP0
10
439.660023027784
20
1880.07719869935
30
0.000129288404823336
11
437.061946816434
21
1878.57719869935
31
0.000125500261099643
  0
LINE
 8
GROUP0
10
432.963869566263
20
1871.47912308778
30
0.000127173887392418
11
430.365793354915
21
1872.97912308778
31
0.000122128419511791
  0
LINE
 8
GROUP0
10
434.463870605087
20
1883.07719869935
30
0.000119197467528726
11
437.061946816437
21
1884.57719869935
31
0.000122985611523135
  0
LINE
 8
GROUP0
10
437.061946816434
20
1878.57719869935
30
0.000125500261099643
11
434.463870605085
21
1880.07719869935
31
0.000120454792497104
  0
LINE
 8
GROUP0
10
459.052327873149
20
1868.88104627665
30
8.02837068966056e-005
11
461.650404084502
21
1870.38104627665
31
8.05950007843503e-005
  0
LINE
 8
GROUP0
10
434.463870605085
20
1880.07719869935
30
0.000120454792497104
11
434.463870605087
21
1883.07719869935
31
0.000119197467528726
  0
LINE
 8
GROUP0
10
464.248480295852
20
1865.88104627665
30
8.48933034339305e-005
11
461.650404084498
21
1864.38104627665
31
8.45820097266636e-005
  0
LINE
 8
GROUP0
10
435.561945777613
20
1872.97912308778
30
0.000130962031747078
11
432.963869566263
21
1871.47912308778
31
0.000127173887392418
  0
LINE
 8
GROUP0
10
422.169643009793
20
1887.17527551046
30
0.000122128419131096
11
422.169643009795
21
1890.17527551046
31
0.000120871094343195
  0
LINE
 8
GROUP0
10
426.267718182386
20
1880.07719869935
30
0.000120454792495694
11
426.267718182389
21
1883.07719869935
31
0.000119197467527316
  0
LINE
 8
GROUP0
10
428.865794393735
20
1878.57719869935
30
0.000125500261097528
11
426.267718182386
21
1880.07719869935
31
0.000120454792495694
  0
LINE
 8
GROUP0
10
424.767719221145
20
1891.67527551046
30
0.000124659238608321
11
427.365795432494
21
1890.17527551046
31
0.000129704707119915
  0
LINE
 8
GROUP0
10
427.365795432494
20
1890.17527551046
30
0.000129704707119915
11
427.365795432491
21
1887.17527551046
31
0.000130962031727339
  0
LINE
 8
GROUP0
10
449.356161160018
20
1877.47912308776
30
0.000146429171785184
11
451.954237371367
21
1875.97912308776
31
0.000151474639755345
  0
LINE
 8
GROUP0
10
451.954237371367
20
1875.97912308776
30
0.000151474639755345
11
451.954237371365
21
1872.97912308776
31
0.000152731964363473
  0
LINE
 8
GROUP0
10
451.954237371365
20
1872.97912308776
30
0.000152731964363473
11
449.356161160015
21
1871.47912308776
31
0.000148943821090974
  0
LINE
 8
GROUP0
10
424.767719221141
20
1885.67527551046
30
0.000127173886830539
11
422.169643009793
21
1887.17527551046
31
0.000122128419131096
  0
LINE
 8
GROUP0
10
449.356161160015
20
1871.47912308776
30
0.000148943821090974
11
446.758084948666
21
1872.97912308776
31
0.000143898351856764
  0
LINE
 8
GROUP0
10
431.463870605087
20
1883.07719869935
30
0.000128031080664992
11
431.463870605085
21
1880.07719869935
31
0.000129288404821221
  0
LINE
 8
GROUP0
10
431.463870605085
20
1880.07719869935
30
0.000129288404821221
11
428.865794393735
21
1878.57719869935
31
0.000125500261097528
  0
LINE
 8
GROUP0
10
422.169643009795
20
1890.17527551046
30
0.000120871094343195
11
424.767719221145
21
1891.67527551046
31
0.000124659238608321
  0
LINE
 8
GROUP0
10
427.365795432491
20
1887.17527551046
30
0.000130962031727339
11
424.767719221141
21
1885.67527551046
31
0.000127173886830539
  0
LINE
 8
GROUP0
10
426.267718182389
20
1883.07719869935
30
0.000119197467527316
11
428.865794393739
21
1884.57719869935
31
0.000122985611792442
  0
LINE
 8
GROUP0
10
428.865794393739
20
1884.57719869935
30
0.000122985611792442
11
431.463870605087
21
1883.07719869935
31
0.000128031080664992
  0
LINE
 8
GROUP0
10
430.365793354917
20
1890.17527551046
30
0.000120871094254366
11
432.963869566267
21
1891.67527551046
31
0.000124659238609731
  0
LINE
 8
GROUP0
10
450.856175450485
20
1883.07719869935
30
0.000119197467531545
11
453.454251661835
21
1884.57719869935
31
0.000122985611796672
  0
LINE
 8
GROUP0
10
432.963869566267
20
1891.67527551046
30
0.000124659238609731
11
435.561945777616
21
1890.17527551046
31
0.000129704707121325
  0
LINE
 8
GROUP0
10
446.758084948668
20
1875.97912308776
30
0.000142641027700535
11
449.356161160018
21
1877.47912308776
31
0.000146429171785184
  0
LINE
 8
GROUP0
10
435.561945777613
20
1887.17527551046
30
0.000130962031729454
11
432.963869566263
21
1885.67527551046
31
0.000127173886832654
  0
LINE
 8
GROUP0
10
508.229203440605
20
1883.07721635457
30
0.000199481174423921
11
510.827279651955
21
1884.57721635457
31
0.000203269318689048
  0
LINE
 8
GROUP0
10
510.827279651955
20
1884.57721635457
30
0.000203269318689048
11
513.425355863304
21
1883.07721635457
31
0.000208314787561598
  0
LINE
 8
GROUP0
10
430.365793354915
20
1887.17527551046
30
0.000122128419132506
11
430.365793354917
21
1890.17527551046
31
0.000120871094254366
  0
LINE
 8
GROUP0
10
435.561945777616
20
1890.17527551046
30
0.000129704707121325
11
435.561945777613
21
1887.17527551046
31
0.000130962031729454
  0
LINE
 8
GROUP0
10
450.856175450483
20
1880.07719869935
30
0.000120454792500629
11
450.856175450485
21
1883.07719869935
31
0.000119197467531545
  0
LINE
 8
GROUP0
10
456.052327873181
20
1880.07719869935
30
0.000129288404826156
11
453.454251661831
21
1878.57719869935
31
0.000125500261102462
  0
LINE
 8
GROUP0
10
432.963869566263
20
1885.67527551046
30
0.000127173886832654
11
430.365793354915
21
1887.17527551046
31
0.000122128419132506
  0
LINE
 8
GROUP0
10
453.454251661831
20
1878.57719869935
30
0.000125500261102462
11
450.856175450483
21
1880.07719869935
31
0.000120454792500629
  0
LINE
 8
GROUP0
10
456.052327873183
20
1883.07719869935
30
0.000128031080669222
11
456.052327873181
21
1880.07719869935
31
0.000129288404826156
  0
LINE
 8
GROUP0
10
446.758084948666
20
1872.97912308776
30
0.000143898351856764
11
446.758084948668
21
1875.97912308776
31
0.000142641027700535
  0
LINE
 8
GROUP0
10
453.454251661835
20
1884.57719869935
30
0.000122985611796672
11
456.052327873183
21
1883.07719869935
31
0.000128031080669222
  0
LINE
 8
GROUP0
10
513.425355863304
20
1883.07721635457
30
0.000208314787561598
11
513.425355863301
21
1880.07721635457
31
0.000209572111718531
  0
LINE
 8
GROUP0
10
516.425355863302
20
1880.07721635457
30
0.000200738499394415
11
516.425355863304
21
1883.07721635457
31
0.000199481174425331
  0
LINE
 8
GROUP0
10
521.621508286003
20
1883.07721635457
30
0.000208314787563713
11
521.621508286
21
1880.07721635457
31
0.000209572111719941
  0
LINE
 8
GROUP0
10
519.02343207465
20
1878.57721635457
30
0.000205783967996248
11
516.425355863302
21
1880.07721635457
31
0.000200738499394415
  0
LINE
 8
GROUP0
10
446.758084948661
20
1861.78297066508
30
0.000139479245473778
11
449.356161160011
21
1863.28297066508
31
0.000143267390190099
  0
LINE
 8
GROUP0
10
521.621508286
20
1880.07721635457
30
0.000209572111719941
11
519.02343207465
21
1878.57721635457
31
0.000205783967996248
  0
LINE
 8
GROUP0
10
516.425355863304
20
1883.07721635457
30
0.000199481174425331
11
519.023432074654
21
1884.57721635457
31
0.000203269318419741
  0
LINE
 8
GROUP0
10
519.023432074654
20
1884.57721635457
30
0.000203269318419741
11
521.621508286003
21
1883.07721635457
31
0.000208314787563713
  0
LINE
 8
GROUP0
10
446.758084948658
20
1858.78297066508
30
0.000140736569990962
11
446.758084948661
21
1861.78297066508
31
0.000139479245473778
  0
LINE
 8
GROUP0
10
451.954237371356
20
1858.78297066508
30
0.000149570183219583
11
449.356161160007
21
1857.28297066508
31
0.0001457820385935
  0
LINE
 8
GROUP0
10
513.425355863301
20
1880.07721635457
30
0.000209572111718531
11
510.827279651952
21
1878.57721635457
31
0.000205783967994838
  0
LINE
 8
GROUP0
10
508.229203440603
20
1880.07721635457
30
0.000200738499393005
11
508.229203440605
21
1883.07721635457
31
0.000199481174423921
  0
LINE
 8
GROUP0
10
449.356161160007
20
1857.28297066508
30
0.0001457820385935
11
446.758084948658
21
1858.78297066508
31
0.000140736569990962
  0
LINE
 8
GROUP0
10
451.954237371359
20
1861.78297066508
30
0.000148312858521216
11
451.954237371356
21
1858.78297066508
31
0.000149570183219583
  0
LINE
 8
GROUP0
10
510.827279651952
20
1878.57721635457
30
0.000205783967994838
11
508.229203440603
21
1880.07721635457
31
0.000200738499393005
  0
LINE
 8
GROUP0
10
449.356161160011
20
1863.28297066508
30
0.000143267390190099
11
451.954237371359
21
1861.78297066508
31
0.000148312858521216
  0
LINE
 8
GROUP0
10
441.160010814893
20
1885.67527551043
30
0.000148943820980996
11
438.561934603544
21
1887.17527551043
31
0.000143898351656546
  0
LINE
 8
GROUP0
10
542.111872974702
20
1890.17529757947
30
0.000240944307049751
11
542.1118729747
21
1887.17529757948
31
0.000242201631838357
  0
LINE
 8
GROUP0
10
542.1118729747
20
1887.17529757948
30
0.000242201631838357
11
539.513796763349
21
1885.67529757948
31
0.000238413486941558
  0
LINE
 8
GROUP0
10
539.513796763349
20
1885.67529757948
30
0.000238413486941558
11
536.915720552001
21
1887.17529757948
31
0.000233368018248781
  0
LINE
 8
GROUP0
10
523.12149607311
20
1885.67529316566
30
0.000229227527877601
11
520.523419861761
21
1887.17529316566
31
0.000224182058553857
  0
LINE
 8
GROUP0
10
441.160010814897
20
1891.67527551043
30
0.000146429172036161
11
443.758087026245
21
1890.17527551043
31
0.000151474640186799
  0
LINE
 8
GROUP0
10
525.71957228446
20
1887.17529316566
30
0.000233015670969622
11
523.12149607311
21
1885.67529316566
31
0.000229227527877601
  0
LINE
 8
GROUP0
10
539.513796763353
20
1891.67529757947
30
0.000235898838808873
11
542.111872974702
21
1890.17529757947
31
0.000240944307049751
  0
LINE
 8
GROUP0
10
520.523419861761
20
1887.17529316566
30
0.000224182058553857
11
520.523419861762
21
1890.17529316566
31
0.000222924734126206
  0
LINE
 8
GROUP0
10
536.915720552001
20
1887.17529757948
30
0.000233368018248781
11
536.915720552003
21
1890.17529757947
31
0.000232110694092552
  0
LINE
 8
GROUP0
10
438.561934603545
20
1890.17527551043
30
0.000142641027229601
11
441.160010814897
21
1891.67527551043
31
0.000146429172036161
  0
LINE
 8
GROUP0
10
536.915720552003
20
1890.17529757947
30
0.000232110694092552
11
539.513796763353
21
1891.67529757947
31
0.000235898838808873
  0
LINE
 8
GROUP0
10
520.523419861762
20
1890.17529316566
30
0.000222924734126206
11
523.121496073113
21
1891.67529316566
31
0.000226712878932767
  0
LINE
 8
GROUP0
10
443.758087026243
20
1887.17527551043
30
0.000152731964073016
11
441.160010814893
21
1885.67527551043
31
0.000148943820980996
  0
LINE
 8
GROUP0
10
438.561934603544
20
1887.17527551043
30
0.000143898351656546
11
438.561934603545
21
1890.17527551043
31
0.000142641027229601
  0
LINE
 8
GROUP0
10
443.758087026245
20
1890.17527551043
30
0.000151474640186799
11
443.758087026243
21
1887.17527551043
31
0.000152731964073016
 0
ENDSEC
 0
EOF
