 0
SECTION
 2
ENTITIES
  0
LINE
 8
GROUP0
10
475.31400027691
20
1863.34124264033
30
0.000169846560398668
11
475.314000276908
21
1860.34124264033
31
0.000171103885183044
  0
LINE
 8
GROUP0
10
364.665999984876
20
1867.43929176905
30
4.90046978992353e-005
11
362.067923773526
21
1865.93929176905
31
4.52165541741323e-005
  0
LINE
 8
GROUP0
10
362.067923773526
20
1865.93929176905
30
4.52165541741323e-005
11
359.469847562177
21
1867.43929176905
31
4.01710855744142e-005
  0
LINE
 8
GROUP0
10
359.469847562177
20
1867.43929176905
30
4.01710855744142e-005
11
359.469847562179
21
1870.43929176905
31
3.89137606095602e-005
  0
LINE
 8
GROUP0
10
362.067923773529
20
1871.93929176905
30
4.270190460538e-005
11
364.665999984878
21
1870.43929176905
31
4.77473737465317e-005
  0
LINE
 8
GROUP0
10
364.665999984878
20
1870.43929176905
30
4.77473737465317e-005
11
364.665999984876
21
1867.43929176905
31
4.90046978992353e-005
  0
LINE
 8
GROUP0
10
359.469847562179
20
1870.43929176905
30
3.89137606095602e-005
11
362.067923773529
21
1871.93929176905
31
4.270190460538e-005
  0
LINE
 8
GROUP0
10
385.156364673575
20
1874.53737299396
30
8.1634218022586e-005
11
382.558288462225
21
1873.03737299396
31
7.78460731243768e-005
  0
LINE
 8
GROUP0
10
382.558288462225
20
1873.03737299396
30
7.78460731243768e-005
11
379.960212250876
21
1874.53737299396
31
7.28006044344198e-005
  0
LINE
 8
GROUP0
10
379.960212250878
20
1877.53737299396
30
7.15432802817162e-005
11
382.558288462228
21
1879.03737299396
31
7.53314249994474e-005
  0
LINE
 8
GROUP0
10
382.558288462228
20
1879.03737299396
30
7.53314249994474e-005
11
385.156364673577
21
1877.53737299396
31
8.03768932382098e-005
  0
LINE
 8
GROUP0
10
375.862152407574
20
1867.43929176905
30
4.01710855744142e-005
11
375.862152407577
21
1870.43929176905
31
3.89137606095602e-005
  0
LINE
 8
GROUP0
10
385.156364673577
20
1877.53737299396
30
8.03768932382098e-005
11
385.156364673575
21
1874.53737299396
31
8.1634218022586e-005
  0
LINE
 8
GROUP0
10
379.960212250876
20
1874.53737299396
30
7.28006044344198e-005
11
379.960212250878
21
1877.53737299396
31
7.15432802817162e-005
  0
LINE
 8
GROUP0
10
375.862152407577
20
1870.43929176905
30
3.89137606095602e-005
11
378.460228618927
21
1871.93929176905
31
4.27019048760968e-005
  0
LINE
 8
GROUP0
10
381.058304830275
20
1870.43929176905
30
4.77473737465317e-005
11
381.058304830273
21
1867.43929176905
31
4.90046978992353e-005
  0
LINE
 8
GROUP0
10
347.175619966885
20
1874.53736858016
30
4.18447122196852e-005
11
347.175619966887
21
1877.53736858016
31
4.05873874353091e-005
  0
LINE
 8
GROUP0
10
352.371772389585
20
1877.53736858016
30
4.94210002113249e-005
11
352.371772389583
21
1874.53736858016
31
5.06783248152232e-005
  0
LINE
 8
GROUP0
10
378.460228618923
20
1865.93929176905
30
4.52165542192517e-005
11
375.862152407574
21
1867.43929176905
31
4.01710855744142e-005
  0
LINE
 8
GROUP0
10
349.773696178237
20
1879.03736858016
30
4.43755317018457e-005
11
352.371772389585
21
1877.53736858016
31
4.94210002113249e-005
  0
LINE
 8
GROUP0
10
349.773696178233
20
1873.03736858017
30
4.6890179917014e-005
11
347.175619966885
21
1874.53736858016
31
4.18447122196852e-005
  0
LINE
 8
GROUP0
10
378.460228618927
20
1871.93929176905
30
4.27019048760968e-005
11
381.058304830275
21
1870.43929176905
31
4.77473737465317e-005
  0
LINE
 8
GROUP0
10
347.175619966887
20
1877.53736858016
30
4.05873874353091e-005
11
349.773696178237
21
1879.03736858016
31
4.43755317018457e-005
  0
LINE
 8
GROUP0
10
381.058304830273
20
1867.43929176905
30
4.90046978992353e-005
11
378.460228618923
21
1865.93929176905
31
4.52165542192517e-005
  0
LINE
 8
GROUP0
10
352.371772389583
20
1874.53736858016
30
5.06783248152232e-005
11
349.773696178233
21
1873.03736858017
31
4.6890179917014e-005
  0
LINE
 8
GROUP0
10
366.165987771988
20
1879.03736858014
30
6.61454651268656e-005
11
368.764063983337
21
1877.53736858014
31
7.11909332753891e-005
  0
LINE
 8
GROUP0
10
347.175619966879
20
1849.14506373481
30
3.7425606047492e-005
11
349.773696178229
21
1850.64506373481
31
4.12137509457011e-005
  0
LINE
 8
GROUP0
10
425.039047459384
20
1870.43930059667
30
7.905561409558e-005
11
427.637123670734
21
1871.93930059667
31
8.28437583621167e-005
  0
LINE
 8
GROUP0
10
363.567911560636
20
1874.53736858014
30
6.36146447423158e-005
11
363.567911560637
21
1877.53736858014
31
6.23573203188954e-005
  0
LINE
 8
GROUP0
10
352.371772389578
20
1849.14506373481
30
4.62592189137467e-005
11
352.371772389576
21
1846.14506373481
31
4.75165436078839e-005
  0
LINE
 8
GROUP0
10
347.175619966876
20
1846.14506373481
30
3.86829304709124e-005
11
347.175619966879
21
1849.14506373481
31
3.7425606047492e-005
  0
LINE
 8
GROUP0
10
366.165987771985
20
1873.03736858014
30
6.86601140639453e-005
11
363.567911560636
21
1874.53736858014
31
6.36146447423158e-005
  0
LINE
 8
GROUP0
10
368.764063983337
20
1877.53736858014
30
7.11909332753891e-005
11
368.764063983335
21
1874.53736858014
31
7.24482571573759e-005
  0
LINE
 8
GROUP0
10
425.039047459381
20
1867.43930059667
30
8.0312939060434e-005
11
425.039047459384
21
1870.43930059667
31
7.905561409558e-005
  0
LINE
 8
GROUP0
10
349.773696178225
20
1844.64506373482
30
4.37283987999137e-005
11
347.175619966876
21
1846.14506373481
31
3.86829304709124e-005
  0
LINE
 8
GROUP0
10
427.637123670734
20
1871.93930059667
30
8.28437583621167e-005
11
430.235199882081
21
1870.43930059667
31
8.78892272325515e-005
  0
LINE
 8
GROUP0
10
349.773696178229
20
1850.64506373481
30
4.12137509457011e-005
11
352.371772389578
21
1849.14506373481
31
4.62592189137467e-005
  0
LINE
 8
GROUP0
10
368.764063983335
20
1874.53736858014
30
7.24482571573759e-005
11
366.165987771985
21
1873.03736858014
31
6.86601140639453e-005
  0
LINE
 8
GROUP0
10
352.371772389576
20
1846.14506373481
30
4.75165436078839e-005
11
349.773696178225
21
1844.64506373482
31
4.37283987999137e-005
  0
LINE
 8
GROUP0
10
363.567911560637
20
1877.53736858014
30
6.23573203188954e-005
11
366.165987771988
21
1879.03736858014
31
6.61454651268656e-005
  0
LINE
 8
GROUP0
10
423.539031091333
20
1858.8412293989
30
0.000117987927422547
11
420.940954879984
21
1860.3412293989
31
0.000112942458191156
  0
LINE
 8
GROUP0
10
426.137107302685
20
1863.3412293989
30
0.000120518746814469
11
426.137107302683
21
1860.3412293989
31
0.000121776071598845
  0
LINE
 8
GROUP0
10
420.940954879986
20
1863.3412293989
30
0.000111685134218931
11
423.539031091336
21
1864.8412293989
31
0.000115473278395228
  0
LINE
 8
GROUP0
10
420.940954879984
20
1860.3412293989
30
0.000112942458191156
11
420.940954879986
21
1863.3412293989
31
0.000111685134218931
  0
LINE
 8
GROUP0
10
430.235199882079
20
1867.43930059667
30
8.91465513852552e-005
11
427.63712367073
21
1865.93930059667
31
8.53584076601521e-005
  0
LINE
 8
GROUP0
10
427.63712367073
20
1865.93930059667
30
8.53584076601521e-005
11
425.039047459381
21
1867.43930059667
31
8.0312939060434e-005
  0
LINE
 8
GROUP0
10
423.539031091336
20
1864.8412293989
30
0.000115473278395228
11
426.137107302685
21
1863.3412293989
31
0.000120518746814469
  0
LINE
 8
GROUP0
10
426.137107302683
20
1860.3412293989
30
0.000121776071598845
11
423.539031091333
21
1858.8412293989
31
0.000117987927422547
  0
LINE
 8
GROUP0
10
430.235199882081
20
1870.43930059667
30
8.78892272325515e-005
11
430.235199882079
21
1867.43930059667
31
8.91465513852552e-005
  0
LINE
 8
GROUP0
10
379.96021225087
20
1849.14506814861
30
6.83814994353327e-005
11
382.558288462221
21
1850.64506814861
31
7.21696431604357e-005
  0
LINE
 8
GROUP0
10
385.156364673568
20
1849.14506814861
30
7.72151118503928e-005
11
385.156364673567
21
1846.14506814861
31
7.84724359128575e-005
  0
LINE
 8
GROUP0
10
379.960212250868
20
1846.14506814861
30
6.96388229563638e-005
11
379.96021225087
21
1849.14506814861
31
6.83814994353327e-005
  0
LINE
 8
GROUP0
10
382.558288462216
20
1844.64506814861
30
7.46842922779933e-005
11
379.960212250868
21
1846.14506814861
31
6.96388229563638e-005
  0
LINE
 8
GROUP0
10
382.558288462221
20
1850.64506814861
30
7.21696431604357e-005
11
385.156364673568
21
1849.14506814861
31
7.72151118503928e-005
  0
LINE
 8
GROUP0
10
385.156364673567
20
1846.14506814861
30
7.84724359128575e-005
11
382.558288462216
21
1844.64506814861
31
7.46842922779933e-005
  0
LINE
 8
GROUP0
10
478.313998199332
20
1874.537395063
30
0.000162270272587506
11
478.313998199334
21
1877.537395063
31
0.000161012947712891
  0
LINE
 8
GROUP0
10
412.744804534861
20
1849.1450725624
30
9.9337392011023e-005
11
415.342880746211
21
1850.6450725624
31
0.000103125536728754
  0
LINE
 8
GROUP0
10
415.342880746211
20
1850.6450725624
30
0.000103125536728754
11
417.940956957559
21
1849.1450725624
31
0.000108171005057756
  0
LINE
 8
GROUP0
10
507.0005327176
20
1870.43931825189
30
0.000159339320977381
11
509.59860892895
21
1871.93931825189
31
0.000163127465243917
  0
LINE
 8
GROUP0
10
415.342880746207
20
1844.6450725624
30
0.0001056401851244
11
412.744804534858
21
1846.1450725624
31
0.000100594716524682
  0
LINE
 8
GROUP0
10
509.59860892895
20
1871.93931825189
30
0.000163127465243917
11
512.196685140298
21
1870.43931825189
31
0.000168172934114352
  0
LINE
 8
GROUP0
10
512.196685140298
20
1870.43931825189
30
0.000168172934114352
11
512.196685140296
21
1867.43931825189
31
0.000169430258267056
  0
LINE
 8
GROUP0
10
512.196685140296
20
1867.43931825189
30
0.000169430258267056
11
509.598608928946
21
1865.93931825189
31
0.000165642114541953
  0
LINE
 8
GROUP0
10
480.91207441068
20
1873.037395063
30
0.000167315740284835
11
478.313998199332
21
1874.537395063
31
0.000162270272587506
  0
LINE
 8
GROUP0
10
509.598608928946
20
1865.93931825189
30
0.000165642114541953
11
507.000532717598
21
1867.43931825189
31
0.000160596645942235
  0
LINE
 8
GROUP0
10
483.51015062203
20
1874.537395063
30
0.000171103885183044
11
480.91207441068
21
1873.037395063
31
0.000167315740284835
  0
LINE
 8
GROUP0
10
417.940956957556
20
1846.1450725624
30
0.000109428329751893
11
415.342880746207
21
1844.6450725624
31
0.0001056401851244
  0
LINE
 8
GROUP0
10
483.510150622033
20
1877.537395063
30
0.000169846560579145
11
483.51015062203
21
1874.537395063
31
0.000171103885183044
  0
LINE
 8
GROUP0
10
417.940956957559
20
1849.1450725624
30
0.000108171005057756
11
417.940956957556
21
1846.1450725624
31
0.000109428329751893
  0
LINE
 8
GROUP0
10
412.744804534858
20
1846.1450725624
30
0.000100594716524682
11
412.744804534861
21
1849.1450725624
31
9.9337392011023e-005
  0
LINE
 8
GROUP0
10
480.912074410684
20
1879.037395063
30
0.000164801092069666
11
483.510150622033
21
1877.537395063
31
0.000169846560579145
  0
LINE
 8
GROUP0
10
478.313998199334
20
1877.537395063
30
0.000161012947712891
11
480.912074410684
21
1879.037395063
31
0.000164801092069666
  0
LINE
 8
GROUP0
10
507.000532717598
20
1867.43931825189
30
0.000160596645942235
11
507.0005327176
21
1870.43931825189
31
0.000159339320977381
  0
LINE
 8
GROUP0
10
448.127473030193
20
1844.64508139001
30
0.000145782038565301
11
445.529396818845
21
1846.14508139001
31
0.000140736570416777
  0
LINE
 8
GROUP0
10
450.725549241545
20
1849.14508139001
30
0.000148312858679134
11
450.725549241543
21
1846.14508139001
31
0.000149570183192793
  0
LINE
 8
GROUP0
10
532.687034499768
20
1874.53740389059
30
0.000233015670966097
11
530.088958288418
21
1873.03740389059
31
0.000229227527872666
  0
LINE
 8
GROUP0
10
450.725549241543
20
1846.14508139001
30
0.000149570183192793
11
448.127473030193
21
1844.64508139001
31
0.000145782038565301
  0
LINE
 8
GROUP0
10
527.490882077069
20
1874.53740389059
30
0.000224182058551037
11
527.490882077071
21
1877.53740389059
31
0.000222924734127616
  0
LINE
 8
GROUP0
10
530.088958288418
20
1873.03740389059
30
0.000229227527872666
11
527.490882077069
21
1874.53740389059
31
0.000224182058551037
  0
LINE
 8
GROUP0
10
445.529396818845
20
1846.14508139001
30
0.000140736570416777
11
445.529396818847
21
1849.14508139001
31
0.000139479245542162
  0
LINE
 8
GROUP0
10
448.127473030197
20
1850.64508139001
30
0.000143267390259894
11
450.725549241545
21
1849.14508139001
31
0.000148312858679134
  0
LINE
 8
GROUP0
10
445.529396818847
20
1849.14508139001
30
0.000139479245542162
11
448.127473030197
21
1850.64508139001
31
0.000143267390259894
  0
LINE
 8
GROUP0
10
543.883182767309
20
1874.53740830441
30
0.000233368018243141
11
543.883182767312
21
1877.53740830441
31
0.000232110694090437
  0
LINE
 8
GROUP0
10
448.127473030202
20
1873.03738623536
30
0.000148943820990866
11
445.529396818853
21
1874.53738623536
31
0.000143898351669236
  0
LINE
 8
GROUP0
10
543.883182767312
20
1877.53740830441
30
0.000232110694090437
11
546.481258978661
21
1879.03740830441
31
0.000235898838808168
  0
LINE
 8
GROUP0
10
546.481258978661
20
1879.03740830441
30
0.000235898838808168
11
549.07933519001
21
1877.53740830441
31
0.000240944307046931
  0
LINE
 8
GROUP0
10
532.68703449977
20
1877.53740389059
30
0.00023175834708411
11
532.687034499768
21
1874.53740389059
31
0.000233015670966097
  0
LINE
 8
GROUP0
10
445.529396818854
20
1877.53738623536
30
0.000142641027200696
11
448.127473030205
21
1879.03738623536
31
0.000146429172008666
  0
LINE
 8
GROUP0
10
450.725549241551
20
1874.53738623536
30
0.000152731964084296
11
448.127473030202
21
1873.03738623536
31
0.000148943820990866
  0
LINE
 8
GROUP0
10
530.088958288422
20
1879.03740389059
30
0.000226712878935587
11
532.68703449977
21
1877.53740389059
31
0.00023175834708411
  0
LINE
 8
GROUP0
10
448.127473030205
20
1879.03738623536
30
0.000146429172008666
11
450.725549241554
21
1877.53738623536
31
0.00015147464015719
  0
LINE
 8
GROUP0
10
450.725549241554
20
1877.53738623536
30
0.00015147464015719
11
450.725549241551
21
1874.53738623536
31
0.000152731964084296
  0
LINE
 8
GROUP0
10
549.079335190008
20
1874.53740830441
30
0.000242201631831307
11
546.481258978658
21
1873.03740830441
31
0.000238413486933098
  0
LINE
 8
GROUP0
10
546.481258978658
20
1873.03740830441
30
0.000238413486933098
11
543.883182767309
21
1874.53740830441
31
0.000233368018243141
  0
LINE
 8
GROUP0
10
527.490882077071
20
1877.53740389059
30
0.000222924734127616
11
530.088958288422
21
1879.03740389059
31
0.000226712878935587
  0
LINE
 8
GROUP0
10
549.07933519001
20
1877.53740830441
30
0.000240944307046931
11
549.079335190008
21
1874.53740830441
31
0.000242201631831307
  0
LINE
 8
GROUP0
10
445.529396818853
20
1874.53738623536
30
0.000143898351669236
11
445.529396818854
21
1877.53738623536
31
0.000142641027200696
  0
LINE
 8
GROUP0
10
528.588970501311
20
1870.4393270795
30
0.000208314787555253
11
528.588970501309
21
1867.4393270795
31
0.000209572111707956
  0
LINE
 8
GROUP0
10
523.392818078613
20
1870.4393270795
30
0.000199481174418281
11
525.990894289962
21
1871.9393270795
31
0.000203269318414101
  0
LINE
 8
GROUP0
10
525.990894289962
20
1871.9393270795
30
0.000203269318414101
11
528.588970501311
21
1870.4393270795
31
0.000208314787555253
  0
LINE
 8
GROUP0
10
528.588970501309
20
1867.4393270795
30
0.000209572111707956
11
525.990894289959
21
1865.9393270795
31
0.000205783967982853
  0
LINE
 8
GROUP0
10
523.39281807861
20
1867.4393270795
30
0.000200738499383135
11
523.392818078613
21
1870.4393270795
31
0.000199481174418281
  0
LINE
 8
GROUP0
10
525.990894289959
20
1865.9393270795
30
0.000205783967982853
11
523.39281807861
21
1867.4393270795
31
0.000200738499383135
  0
LINE
 8
GROUP0
10
463.01979008849
20
1867.43930942428
30
0.000129288404826156
11
460.421713877139
21
1865.93930942428
31
0.000125500261101053
  0
LINE
 8
GROUP0
10
457.823637665791
20
1867.43930942428
30
0.000120454792501334
11
457.823637665793
21
1870.43930942428
31
0.00011919746753648
  0
LINE
 8
GROUP0
10
458.921699586676
20
1863.34123381269
30
0.000151474639751115
11
458.921699586673
21
1860.34123381269
31
0.000152731964355013
  0
LINE
 8
GROUP0
10
460.421713877143
20
1871.93930942428
30
0.000122985611803017
11
463.019790088492
21
1870.43930942428
31
0.000128031080673452
  0
LINE
 8
GROUP0
10
457.823637665793
20
1870.43930942428
30
0.00011919746753648
11
460.421713877143
21
1871.93930942428
31
0.000122985611803017
  0
LINE
 8
GROUP0
10
463.019790088492
20
1870.43930942428
30
0.000128031080673452
11
463.01979008849
21
1867.43930942428
31
0.000129288404826156
  0
LINE
 8
GROUP0
10
460.421713877139
20
1865.93930942428
30
0.000125500261101053
11
457.823637665791
21
1867.43930942428
31
0.000120454792501334
  0
LINE
 8
GROUP0
10
456.323623375327
20
1864.84123381269
30
0.000146429171783069
11
458.921699586676
21
1863.34123381269
31
0.000151474639751115
  0
LINE
 8
GROUP0
10
458.921699586673
20
1860.34123381269
30
0.000152731964355013
11
456.323623375323
21
1858.84123381269
31
0.000148943821081104
  0
LINE
 8
GROUP0
10
429.137105225102
20
1874.53738623539
30
0.000122128419101486
11
429.137105225104
21
1877.53738623539
31
0.00012087109431711
  0
LINE
 8
GROUP0
10
453.725547163975
20
1860.34123381269
30
0.000143898351849714
11
453.725547163977
21
1863.34123381269
31
0.00014264102769701
  0
LINE
 8
GROUP0
10
431.735181436449
20
1873.03738623539
30
0.000127173886843934
11
429.137105225102
21
1874.53738623539
31
0.000122128419101486
  0
LINE
 8
GROUP0
10
434.333257647802
20
1877.53738623539
30
0.000129704707093126
11
434.3332576478
21
1874.53738623539
31
0.000130962031742143
  0
LINE
 8
GROUP0
10
429.137105225104
20
1877.53738623539
30
0.00012087109431711
11
431.735181436454
21
1879.03738623539
31
0.000124659238583646
  0
LINE
 8
GROUP0
10
434.3332576478
20
1874.53738623539
30
0.000130962031742143
11
431.735181436449
21
1873.03738623539
31
0.000127173886843934
  0
LINE
 8
GROUP0
10
431.735181436454
20
1879.03738623539
30
0.000124659238583646
11
434.333257647802
21
1877.53738623539
31
0.000129704707093126
  0
LINE
 8
GROUP0
10
456.323623375323
20
1858.84123381269
30
0.000148943821081104
11
453.725547163975
21
1860.34123381269
31
0.000143898351849714
  0
LINE
 8
GROUP0
10
441.431332820396
20
1870.43930942428
30
0.00011919746753648
11
444.029409031746
21
1871.93930942428
31
0.0001229856115323
  0
LINE
 8
GROUP0
10
453.725547163977
20
1863.34123381269
30
0.00014264102769701
11
456.323623375327
21
1864.84123381269
31
0.000146429171783069
  0
LINE
 8
GROUP0
10
466.019790088455
20
1853.24315700158
30
8.22772116649162e-005
11
466.019790088457
21
1856.24315700158
31
8.02837068818008e-005
  0
LINE
 8
GROUP0
10
446.627485243092
20
1867.43930942428
30
0.000129288404826156
11
444.029409031742
21
1865.93930942428
31
0.000125500261101053
  0
LINE
 8
GROUP0
10
437.333255570226
20
1863.34123381271
30
0.000120871094723185
11
439.931331781576
21
1864.84123381271
31
0.000124659238448288
  0
LINE
 8
GROUP0
10
468.617866299807
20
1851.74315700158
30
8.45820097055139e-005
11
466.019790088455
21
1853.24315700158
31
8.22772116649162e-005
  0
LINE
 8
GROUP0
10
466.019790088457
20
1856.24315700158
30
8.02837068818008e-005
11
468.617866299811
21
1857.74315700158
31
8.05950007709555e-005
  0
LINE
 8
GROUP0
10
439.931331781576
20
1864.84123381271
30
0.000124659238448288
11
442.529407992924
21
1863.34123381271
31
0.000129704706867528
  0
LINE
 8
GROUP0
10
442.529407992924
20
1863.34123381271
30
0.000129704706867528
11
442.529407992922
21
1860.34123381272
31
0.000130962031742143
  0
LINE
 8
GROUP0
10
442.529407992922
20
1860.34123381272
30
0.000130962031742143
11
439.931331781572
21
1858.84123381272
31
0.000127173887385368
  0
LINE
 8
GROUP0
10
471.215942511162
20
1856.24315700158
30
8.28997995334646e-005
11
471.21594251116
21
1853.24315700158
31
8.48933034141908e-005
  0
LINE
 8
GROUP0
10
471.21594251116
20
1853.24315700158
30
8.48933034141908e-005
11
468.617866299807
21
1851.74315700158
31
8.45820097055139e-005
  0
LINE
 8
GROUP0
10
444.029409031746
20
1871.93930942428
30
0.0001229856115323
11
446.627485243095
21
1870.43930942428
31
0.000128031080673452
  0
LINE
 8
GROUP0
10
439.931331781572
20
1858.84123381272
30
0.000127173887385368
11
437.333255570224
21
1860.34123381272
31
0.000122128419507561
  0
LINE
 8
GROUP0
10
446.627485243095
20
1870.43930942428
30
0.000128031080673452
11
446.627485243092
21
1867.43930942428
31
0.000129288404826156
  0
LINE
 8
GROUP0
10
441.431332820394
20
1867.43930942428
30
0.000120454792501334
11
441.431332820396
21
1870.43930942428
31
0.00011919746753648
  0
LINE
 8
GROUP0
10
468.617866299811
20
1857.74315700158
30
8.05950007709555e-005
11
471.215942511162
21
1856.24315700158
31
8.28997995334646e-005
  0
LINE
 8
GROUP0
10
444.029409031742
20
1865.93930942428
30
0.000125500261101053
11
441.431332820394
21
1867.43930942428
31
0.000120454792501334
  0
LINE
 8
GROUP0
10
433.235180397684
20
1853.2431570016
30
0.000121506041444519
11
433.235180397686
21
1856.2431570016
31
0.000119512536661404
  0
LINE
 8
GROUP0
10
438.431332820392
20
1856.2431570016
30
0.000122128628771634
11
438.43133282039
21
1853.2431570016
31
0.000124122133374271
  0
LINE
 8
GROUP0
10
461.921697509085
20
1846.14508580383
30
0.000149922529838165
11
461.921697509087
21
1849.14508580383
31
0.000148665206317133
  0
LINE
 8
GROUP0
10
435.83325660904
20
1857.7431570016
30
0.000119823830099364
11
438.431332820392
21
1856.2431570016
31
0.000122128628771634
  0
LINE
 8
GROUP0
10
438.43133282039
20
1853.2431570016
30
0.000124122133374271
11
435.833256609035
21
1851.7431570016
31
0.000123810839304639
  0
LINE
 8
GROUP0
10
461.921697509087
20
1849.14508580383
30
0.000148665206317133
11
464.519773720437
21
1850.64508580383
31
0.000152453350042236
  0
LINE
 8
GROUP0
10
464.519773720437
20
1850.64508580383
30
0.000152453350042236
11
467.117849931785
21
1849.14508580383
31
0.000157498818732194
  0
LINE
 8
GROUP0
10
435.833256609035
20
1851.7431570016
30
0.000123810839304639
11
433.235180397684
21
1853.2431570016
31
0.000121506041444519
  0
LINE
 8
GROUP0
10
437.333255570224
20
1860.34123381272
30
0.000122128419507561
11
437.333255570226
21
1863.34123381271
31
0.000120871094723185
  0
LINE
 8
GROUP0
10
433.235180397686
20
1856.2431570016
30
0.000119512536661404
11
435.83325660904
21
1857.7431570016
31
0.000119823830099364
  0
LINE
 8
GROUP0
10
467.117849931785
20
1849.14508580383
30
0.000157498818732194
11
467.117849931784
21
1846.14508580383
31
0.000158756142794658
  0
LINE
 8
GROUP0
10
434.333257647794
20
1849.14508139004
30
0.000126542925795547
11
434.333257647792
21
1846.14508139004
31
0.000127800250489685
  0
LINE
 8
GROUP0
10
429.137105225093
20
1846.14508139004
30
0.000118966637352713
11
429.137105225096
21
1849.14508139004
31
0.000117709312929293
  0
LINE
 8
GROUP0
10
467.117849931784
20
1846.14508580383
30
0.000158756142794658
11
464.519773720433
21
1844.64508580383
31
0.000154967999159794
  0
LINE
 8
GROUP0
10
434.333257647792
20
1846.14508139004
30
0.000127800250489685
11
431.735181436442
21
1844.64508139004
31
0.000124012105681715
  0
LINE
 8
GROUP0
10
431.735181436446
20
1850.64508139004
30
0.000121497457827502
11
434.333257647794
21
1849.14508139004
31
0.000126542925795547
  0
LINE
 8
GROUP0
10
429.137105225096
20
1849.14508139004
30
0.000117709312929293
11
431.735181436446
21
1850.64508139004
31
0.000121497457827502
  0
LINE
 8
GROUP0
10
464.519773720433
20
1844.64508580383
30
0.000154967999159794
11
461.921697509085
21
1846.14508580383
31
0.000149922529838165
  0
LINE
 8
GROUP0
10
461.921697509095
20
1877.53739064918
30
0.000151826987208636
11
464.519773720445
21
1879.03739064918
31
0.000155615131926368
  0
LINE
 8
GROUP0
10
431.735181436442
20
1844.64508139004
30
0.000124012105681715
11
429.137105225093
21
1846.14508139004
31
0.000118966637352713
  0
LINE
 8
GROUP0
10
467.117849931794
20
1877.53739064918
30
0.00016066060016513
11
467.117849931791
21
1874.53739064918
31
0.000161917924949506
  0
LINE
 8
GROUP0
10
464.519773720445
20
1879.03739064918
30
0.000155615131926368
11
467.117849931794
21
1877.53739064918
31
0.00016066060016513
  0
LINE
 8
GROUP0
10
464.519773720441
20
1873.03739064918
30
0.000158129780051297
11
461.921697509093
21
1874.53739064918
31
0.00015308431136134
  0
LINE
 8
GROUP0
10
461.921697509093
20
1874.53739064918
30
0.00015308431136134
11
461.921697509095
21
1877.53739064918
31
0.000151826987208636
  0
LINE
 8
GROUP0
10
467.117849931791
20
1874.53739064918
30
0.000161917924949506
11
464.519773720441
21
1873.03739064918
31
0.000158129780051297
  0
LINE
 8
GROUP0
10
454.823637665776
20
1853.24315700159
30
0.000104507718258873
11
452.225561454422
21
1851.74315700159
31
0.00010419642418924
  0
LINE
 8
GROUP0
10
452.225561454424
20
1857.74315700159
30
0.000100209415615637
11
454.823637665777
21
1856.24315700159
31
0.00010251421410743
  0
LINE
 8
GROUP0
10
449.627485243069
20
1853.24315700159
30
0.000101891625877926
11
449.627485243071
21
1856.24315700159
31
9.98981216362438e-005
  0
LINE
 8
GROUP0
10
449.627485243071
20
1856.24315700159
30
9.98981216362438e-005
11
452.225561454424
21
1857.74315700159
31
0.000100209415615637
  0
LINE
 8
GROUP0
10
452.225561454422
20
1851.74315700159
30
0.00010419642418924
11
449.627485243069
21
1853.24315700159
31
0.000101891625877926
  0
LINE
 8
GROUP0
10
454.823637665777
20
1856.24315700159
30
0.00010251421410743
11
454.823637665776
21
1853.24315700159
31
0.000104507718258873
  0
LINE
 8
GROUP0
10
516.294742906019
20
1877.53740389061
30
0.000209988414020046
11
516.294742906017
21
1874.53740389061
31
0.000211245738623944
  0
LINE
 8
GROUP0
10
513.696666694666
20
1873.03740389061
30
0.000207457593725735
11
511.098590483318
21
1874.53740389061
31
0.000202412126028406
  0
LINE
 8
GROUP0
10
513.69666669467
20
1879.03740389061
30
0.000204942945510567
11
516.294742906019
21
1877.53740389061
31
0.000209988414020046
  0
LINE
 8
GROUP0
10
516.294742906017
20
1874.53740389061
30
0.000211245738623944
11
513.696666694666
21
1873.03740389061
31
0.000207457593725735
  0
LINE
 8
GROUP0
10
511.09859048332
20
1877.53740389061
30
0.00020115480124403
11
513.69666669467
21
1879.03740389061
31
0.000204942945510567
  0
LINE
 8
GROUP0
10
511.098590483318
20
1874.53740389061
30
0.000202412126028406
11
511.09859048332
21
1877.53740389061
31
0.00020115480124403
  0
LINE
 8
GROUP0
10
544.981275346708
20
1870.4393270795
30
0.000208314787555253
11
544.981275346706
21
1867.4393270795
31
0.000209572111707956
  0
LINE
 8
GROUP0
10
544.981275346706
20
1867.4393270795
30
0.000209572111707956
11
542.383199135356
21
1865.9393270795
31
0.000205783967982853
  0
LINE
 8
GROUP0
10
542.383199135356
20
1865.9393270795
30
0.000205783967982853
11
539.785122924008
21
1867.4393270795
31
0.000200738499383135
  0
LINE
 8
GROUP0
10
539.785122924008
20
1867.4393270795
30
0.000200738499383135
11
539.78512292401
21
1870.4393270795
31
0.000199481174418281
  0
LINE
 8
GROUP0
10
539.78512292401
20
1870.4393270795
30
0.000199481174418281
11
542.38319913536
21
1871.9393270795
31
0.000203269318684818
  0
LINE
 8
GROUP0
10
542.38319913536
20
1871.9393270795
30
0.000203269318684818
11
544.981275346708
21
1870.4393270795
31
0.000208314787555253
  0
LINE
 8
GROUP0
10
517.794741867257
20
1857.74317465682
30
0.000200107536981164
11
520.392818078608
21
1856.24317465682
31
0.000202412335653435
  0
LINE
 8
GROUP0
10
515.196665655903
20
1856.24317465683
30
0.000199796243543204
11
517.794741867257
21
1857.74317465682
31
0.000200107536981164
  0
LINE
 8
GROUP0
10
536.785122923994
20
1856.24317465681
30
0.000182797920989231
11
536.785122923993
21
1853.24317465681
31
0.000184791425185793
  0
LINE
 8
GROUP0
10
520.392818078606
20
1853.24317465683
30
0.000204405840256072
11
517.794741867252
21
1851.74317465683
31
0.00020409454618644
  0
LINE
 8
GROUP0
10
534.187046712641
20
1857.74317465681
30
0.000180493122497438
11
536.785122923994
21
1856.24317465681
31
0.000182797920989231
  0
LINE
 8
GROUP0
10
536.785122923993
20
1853.24317465681
30
0.000184791425185793
11
534.187046712638
21
1851.74317465682
31
0.00018448013111616
  0
LINE
 8
GROUP0
10
534.187046712638
20
1851.74317465682
30
0.00018448013111616
11
531.588970501286
21
1853.24317465682
31
0.000182175332804846
  0
LINE
 8
GROUP0
10
531.588970501286
20
1853.24317465682
30
0.000182175332804846
11
531.588970501288
21
1856.24317465681
31
0.000180181828518045
  0
LINE
 8
GROUP0
10
531.588970501288
20
1856.24317465681
30
0.000180181828518045
11
534.187046712641
21
1857.74317465681
31
0.000180493122497438
  0
LINE
 8
GROUP0
10
517.794741867252
20
1851.74317465683
30
0.00020409454618644
11
515.196665655901
21
1853.24317465683
31
0.00020178974832632
  0
LINE
 8
GROUP0
10
515.196665655901
20
1853.24317465683
30
0.00020178974832632
11
515.196665655903
21
1856.24317465683
31
0.000199796243543204
  0
LINE
 8
GROUP0
10
520.392818078608
20
1856.24317465682
30
0.000202412335653435
11
520.392818078606
21
1853.24317465683
31
0.000204405840256072
  0
LINE
 8
GROUP0
10
519.294740828442
20
1863.34125146794
30
0.000201154801604986
11
521.892817039793
21
1864.84125146794
31
0.000204942945330089
  0
LINE
 8
GROUP0
10
524.49089325114
20
1863.34125146794
30
0.000209988413749329
11
524.490893251138
21
1860.34125146794
31
0.000211245738623944
  0
LINE
 8
GROUP0
10
521.892817039793
20
1864.84125146794
30
0.000204942945330089
11
524.49089325114
21
1863.34125146794
31
0.000209988413749329
  0
LINE
 8
GROUP0
10
521.892817039789
20
1858.84125146794
30
0.000207457594267169
11
519.29474082844
21
1860.34125146794
31
0.000202412126389362
  0
LINE
 8
GROUP0
10
519.29474082844
20
1860.34125146794
30
0.000202412126389362
11
519.294740828442
21
1863.34125146794
31
0.000201154801604986
  0
LINE
 8
GROUP0
10
524.490893251138
20
1860.34125146794
30
0.000211245738623944
11
521.892817039789
21
1858.84125146794
31
0.000207457594267169
  0
LINE
 8
GROUP0
10
516.294742906011
20
1849.14509904526
30
0.000206826632722468
11
516.294742906009
21
1846.14509904526
31
0.000208083957416605
  0
LINE
 8
GROUP0
10
516.294742906009
20
1846.14509904526
30
0.000208083957416605
11
513.696666694658
21
1844.64509904526
31
0.000204295812608635
  0
LINE
 8
GROUP0
10
513.696666694658
20
1844.64509904526
30
0.000204295812608635
11
511.098590483309
21
1846.14509904526
31
0.000199250344279633
  0
LINE
 8
GROUP0
10
546.481258978654
20
1850.64510345906
30
0.000232737056969157
11
549.079335190001
21
1849.14510345906
31
0.000237782525659114
  0
LINE
 8
GROUP0
10
511.098590483312
20
1849.14509904526
30
0.000197993019856213
11
513.696666694663
21
1850.64509904526
31
0.000201781164754422
  0
LINE
 8
GROUP0
10
538.28510863354
20
1858.84125146791
30
0.000229227527962905
11
535.687032422191
21
1860.34125146791
31
0.000224182058731515
  0
LINE
 8
GROUP0
10
511.098590483309
20
1846.14509904526
30
0.000199250344279633
11
511.098590483312
21
1849.14509904526
31
0.000197993019856213
  0
LINE
 8
GROUP0
10
513.696666694663
20
1850.64509904526
30
0.000201781164754422
11
516.294742906011
21
1849.14509904526
31
0.000206826632722468
  0
LINE
 8
GROUP0
10
540.88318484489
20
1860.34125146791
30
0.000233015671236814
11
538.28510863354
21
1858.84125146791
31
0.000229227527962905
  0
LINE
 8
GROUP0
10
540.883184844892
20
1863.34125146791
30
0.000231758346632915
11
540.88318484489
21
1860.34125146791
31
0.000233015671236814
  0
LINE
 8
GROUP0
10
535.687032422194
20
1863.34125146791
30
0.000222924734578811
11
538.285108633543
21
1864.84125146791
31
0.00022671287866487
  0
LINE
 8
GROUP0
10
535.687032422191
20
1860.34125146791
30
0.000224182058731515
11
535.687032422194
21
1863.34125146791
31
0.000222924734578811
  0
LINE
 8
GROUP0
10
538.285108633543
20
1864.84125146791
30
0.00022671287866487
11
540.883184844892
21
1863.34125146791
31
0.000231758346632915
  0
LINE
 8
GROUP0
10
532.68703449976
20
1846.14509904524
30
0.000229853890119713
11
530.08895828841
21
1844.64509904524
31
0.000226065745492221
  0
LINE
 8
GROUP0
10
543.883182767304
20
1849.14510345906
30
0.000228948913244054
11
546.481258978654
21
1850.64510345906
31
0.000232737056969157
  0
LINE
 8
GROUP0
10
543.883182767301
20
1846.14510345906
30
0.000230206236765085
11
543.883182767304
21
1849.14510345906
31
0.000228948913244054
  0
LINE
 8
GROUP0
10
549.079335190001
20
1849.14510345906
30
0.000237782525659114
11
549.07933519
21
1846.14510345906
31
0.000239039849721578
  0
LINE
 8
GROUP0
10
530.08895828841
20
1844.64509904524
30
0.000226065745492221
11
527.490882077061
21
1846.14509904524
31
0.000221020277343698
  0
LINE
 8
GROUP0
10
546.481258978649
20
1844.64510345906
30
0.000235251706086714
11
543.883182767301
21
1846.14510345906
31
0.000230206236765085
  0
LINE
 8
GROUP0
10
527.490882077061
20
1846.14509904524
30
0.000221020277343698
11
527.490882077063
21
1849.14509904524
31
0.000219762952469083
  0
LINE
 8
GROUP0
10
527.490882077063
20
1849.14509904524
30
0.000219762952469083
11
530.088958288414
21
1850.64509904524
31
0.000223551097186814
  0
LINE
 8
GROUP0
10
549.07933519
20
1846.14510345906
30
0.000239039849721578
11
546.481258978649
21
1844.64510345906
31
0.000235251706086714
  0
LINE
 8
GROUP0
10
530.088958288414
20
1850.64509904524
30
0.000223551097186814
11
532.687034499761
21
1849.14509904524
31
0.000228596565606054
  0
LINE
 8
GROUP0
10
345.127524440209
20
1834.84122057128
30
3.60859713115724e-005
11
375.127517095923
21
1834.84122057128
31
3.60859713566919e-005
  0
LINE
 8
GROUP0
10
532.687034499761
20
1849.14509904524
30
0.000228596565606054
11
532.68703449976
21
1846.14509904524
31
0.000229853890119713
  0
LINE
 8
GROUP0
10
561.127473030205
20
1896.94132865174
30
3.60859713143924e-005
11
565.127473030205
21
1896.94132865174
31
3.60859713143924e-005
  0
LINE
 8
GROUP0
10
473.127578622013
20
1830.84122057128
30
3.60859713143924e-005
11
473.127578622013
21
1834.84122057128
31
3.60859713595119e-005
  0
LINE
 8
GROUP0
10
561.127473030205
20
1894.94132865174
30
3.60859713143924e-005
11
561.127473030205
21
1879.84122057128
31
3.60859713143924e-005
  0
LINE
 8
GROUP0
10
424.127578621991
20
1894.84129893748
30
3.60859728935736e-005
11
472.127578621991
21
1894.84125798316
31
3.60859713143924e-005
  0
LINE
 8
GROUP0
10
336.127531830204
20
1890.8412390463
30
3.60859713143924e-005
11
423.127578621991
21
1890.84129893748
31
3.60859728935736e-005
  0
LINE
 8
GROUP0
10
423.127578622012
20
1830.84122057128
30
3.60859713143924e-005
11
423.127578622012
21
1834.84122057128
31
3.60859713595119e-005
  0
LINE
 8
GROUP0
10
571.127473030205
20
1894.94132865174
30
3.60859713143924e-005
11
571.127473030205
21
1856.84122057128
31
3.60859713425921e-005
  0
LINE
 8
GROUP0
10
335.127528135202
20
1894.94132865174
30
3.60859713143924e-005
11
335.127531830204
21
1879.84123165632
31
3.60859713143924e-005
  0
LINE
 8
GROUP0
10
521.127480374491
20
1834.84122057128
30
3.60859713623318e-005
11
551.127473030206
21
1834.84122057128
31
3.60859713172124e-005
  0
LINE
 8
GROUP0
10
331.1275281352
20
1896.94132126173
30
3.60859713143924e-005
11
335.127528135202
21
1896.94132865174
31
3.60859713143924e-005
  0
LINE
 8
GROUP0
10
424.127578621991
20
1894.84129893748
30
3.60859728935736e-005
11
423.127578621991
21
1893.84129893748
31
3.60859728935736e-005
  0
LINE
 8
GROUP0
10
423.127578622012
20
1834.84122057128
30
3.60859713595119e-005
11
473.127578622013
21
1834.84122057128
31
3.60859713595119e-005
  0
LINE
 8
GROUP0
10
345.127524440209
20
1834.84122057128
30
3.60859713115724e-005
11
345.127524440209
21
1830.84122057128
31
3.60859713115724e-005
  0
LINE
 8
GROUP0
10
325.127528135202
20
1896.94131017343
30
3.60859713143924e-005
11
329.127524440202
21
1896.94131756673
31
3.60859713143924e-005
  0
LINE
 8
GROUP0
10
473.127578621991
20
1890.84125798316
30
3.60859713143924e-005
11
560.127473030205
21
1890.84122057128
31
3.60859713143924e-005
  0
LINE
 8
GROUP0
10
472.127578621991
20
1894.84125798316
30
3.60859713143924e-005
11
473.127578621991
21
1893.84125798316
31
3.60859713143924e-005
  0
LINE
 8
GROUP0
10
423.127578621991
20
1893.84129893748
30
3.60859728935736e-005
11
423.127578621991
21
1890.84129893748
31
3.60859728935736e-005
  0
LINE
 8
GROUP0
10
567.127473030205
20
1896.94132865174
30
3.60859713143924e-005
11
571.127473030205
21
1896.94132865174
31
3.60859713143924e-005
  0
LINE
 8
GROUP0
10
567.127473030205
20
1879.84122057128
30
3.60859713143924e-005
11
567.127473030205
21
1896.94132865174
31
3.60859713143924e-005
  0
LINE
 8
GROUP0
10
375.127517095923
20
1830.84122057128
30
3.60859713115724e-005
11
375.127517095923
21
1834.84122057128
31
3.60859713566919e-005
  0
LINE
 8
GROUP0
10
571.127473030205
20
1894.94132865174
30
3.60859713143924e-005
11
572.127473030205
21
1894.94132865174
31
3.60859713143924e-005
  0
LINE
 8
GROUP0
10
565.127473030205
20
1896.94132865174
30
3.60859713143924e-005
11
565.127473030205
21
1879.84122057128
31
3.60859713143924e-005
  0
LINE
 8
GROUP0
10
329.127524440202
20
1896.94131756673
30
3.60859713143924e-005
11
329.127555847716
21
1879.84122796132
31
3.60859713143924e-005
  0
LINE
 8
GROUP0
10
336.127531830204
20
1890.8412390463
30
3.60859713143924e-005
11
336.127531830204
21
1879.84123165632
31
3.60859713143924e-005
  0
LINE
 8
GROUP0
10
521.127480374491
20
1830.84122057128
30
3.60859713172124e-005
11
551.127473030206
21
1830.84122057128
31
3.60859713172124e-005
  0
LINE
 8
GROUP0
10
335.127528135202
20
1896.94132865174
30
3.60859713143924e-005
11
336.127528135202
21
1895.94132865174
31
3.60859713143924e-005
  0
LINE
 8
GROUP0
10
521.127480374491
20
1830.84122057128
30
3.60859713172124e-005
11
521.127480374491
21
1834.84122057128
31
3.60859713623318e-005
  0
LINE
 8
GROUP0
10
561.127473030205
20
1896.94132865174
30
3.60859713143924e-005
11
560.127473030205
21
1895.94132865174
31
3.60859713143924e-005
  0
LINE
 8
GROUP0
10
325.127524446795
20
1894.94131017673
30
3.60859713143924e-005
11
325.127524572072
21
1856.84122057128
31
3.60859713425921e-005
  0
LINE
 8
GROUP0
10
329.127555847716
20
1879.84122796132
30
3.60859713143924e-005
11
331.127555847712
21
1879.84123165632
31
3.60859713143924e-005
  0
LINE
 8
GROUP0
10
335.127531830204
20
1879.84123165632
30
3.60859713143924e-005
11
336.127531830204
21
1879.84123165632
31
3.60859713143924e-005
  0
LINE
 8
GROUP0
10
473.127578621991
20
1893.84125798316
30
3.60859713143924e-005
11
473.127578621991
21
1890.84125798316
31
3.60859713143924e-005
  0
LINE
 8
GROUP0
10
345.127524440209
20
1830.84122057128
30
3.60859713115724e-005
11
375.127517095923
21
1830.84122057128
31
3.60859713115724e-005
  0
LINE
 8
GROUP0
10
561.127473030205
20
1894.94132865174
30
3.60859713143924e-005
11
560.127473030205
21
1894.94132865174
31
3.60859713143924e-005
  0
LINE
 8
GROUP0
10
325.127524446795
20
1894.94131017673
30
3.60859713143924e-005
11
324.127528135202
21
1894.94132865174
31
3.60859713143924e-005
  0
LINE
 8
GROUP0
10
336.127528135202
20
1895.94132865174
30
3.60859713143924e-005
11
336.127528135202
21
1894.94132865174
31
3.60859713143924e-005
  0
LINE
 8
GROUP0
10
324.127528135202
20
1895.94131941259
30
3.60859713143924e-005
11
324.127528135202
21
1894.94132865174
31
3.60859713143924e-005
  0
LINE
 8
GROUP0
10
560.127473030205
20
1895.94132865174
30
3.60859713143924e-005
11
560.127473030205
21
1894.94132865174
31
3.60859713143924e-005
  0
LINE
 8
GROUP0
10
325.127528135202
20
1896.94131017343
30
3.60859713143924e-005
11
324.127528135202
21
1895.94131941259
31
3.60859713143924e-005
  0
LINE
 8
GROUP0
10
571.127473030205
20
1896.94132865174
30
3.60859713143924e-005
11
572.127473030205
21
1895.94132865174
31
3.60859713143924e-005
  0
LINE
 8
GROUP0
10
331.1275281352
20
1896.94132126173
30
3.60859713143924e-005
11
331.127555847712
21
1879.84123165632
31
3.60859713143924e-005
  0
LINE
 8
GROUP0
10
560.127473030205
20
1890.84122057128
30
3.60859713143924e-005
11
560.127473030205
21
1879.84122057128
31
3.60859713143924e-005
  0
LINE
 8
GROUP0
10
551.127473030206
20
1834.84122057128
30
3.60859713172124e-005
11
551.127473030206
21
1830.84122057128
31
3.60859713172124e-005
  0
LINE
 8
GROUP0
10
335.127528135202
20
1894.94132865174
30
3.60859713143924e-005
11
336.127528135202
21
1894.94132865174
31
3.60859713143924e-005
  0
LINE
 8
GROUP0
10
572.127473030205
20
1895.94132865174
30
3.60859713143924e-005
11
572.127473030205
21
1894.94132865174
31
3.60859713143924e-005
  0
LINE
 8
GROUP0
10
560.127473030205
20
1879.84122057128
30
3.60859713143924e-005
11
561.127473030205
21
1879.84122057128
31
3.60859713143924e-005
  0
LINE
 8
GROUP0
10
423.127578622012
20
1830.84122057128
30
3.60859713143924e-005
11
473.127578622013
21
1830.84122057128
31
3.60859713143924e-005
  0
LINE
 8
GROUP0
10
565.127473030205
20
1879.84122057128
30
3.60859713143924e-005
11
567.127473030205
21
1879.84122057128
31
3.60859713143924e-005
  0
LINE
 8
GROUP0
10
339.127524670714
20
1826.84122057128
30
3.60859713609218e-005
11
557.127473030205
21
1826.84122057128
31
3.60859713517569e-005
  0
LINE
 8
GROUP0
10
571.127473030205
20
1856.84122057128
30
3.60859713425921e-005
11
561.127473030205
21
1846.84122057128
31
3.6085971344707e-005
  0
LINE
 8
GROUP0
10
339.127524670714
20
1826.84122057128
30
3.60859713609218e-005
11
335.127524657562
21
1830.84122057128
31
3.60859713595119e-005
  0
LINE
 8
GROUP0
10
557.127473030205
20
1826.84122057128
30
3.60859713517569e-005
11
561.127473030205
21
1830.84122057128
31
3.6085971350347e-005
  0
LINE
 8
GROUP0
10
335.127524657562
20
1830.84122057128
30
3.60859713595119e-005
11
335.127524657562
21
1846.84122057128
31
3.60859713595119e-005
  0
LINE
 8
GROUP0
10
335.127524657562
20
1846.84122057128
30
3.60859713595119e-005
11
325.127524572072
21
1856.84122057128
31
3.60859713425921e-005
  0
LINE
 8
GROUP0
10
561.127473030205
20
1830.84122057128
30
3.6085971350347e-005
11
561.127473030205
21
1846.84122057128
31
3.6085971344707e-005
  0
LINE
 8
GROUP0
10
389.254457252944
20
1853.24313934635
30
4.60959653239001e-006
11
386.65638104159
21
1851.74313934636
31
4.29830282371313e-006
  0
LINE
 8
GROUP0
10
386.65638104159
20
1851.74313934636
30
4.29830282371313e-006
11
384.058304830239
21
1853.24313934636
31
1.99350478311544e-006
  0
LINE
 8
GROUP0
10
384.058304830239
20
1853.24313934636
30
1.99350478311544e-006
11
384.058304830241
21
1856.24313934636
31
0.0
  0
LINE
 8
GROUP0
10
384.058304830241
20
1856.24313934636
30
0.0
11
386.656381041594
21
1857.74313934635
31
3.1129388915474e-007
  0
LINE
 8
GROUP0
10
386.656381041594
20
1857.74313934635
30
3.1129388915474e-007
11
389.254457252945
21
1856.24313934635
31
2.61609265166385e-006
  0
LINE
 8
GROUP0
10
389.254457252945
20
1856.24313934635
30
2.61609265166385e-006
11
389.254457252944
21
1853.24313934635
31
4.60959653239001e-006
  0
LINE
 8
GROUP0
10
368.764063983328
20
1849.14506373479
30
6.8029151797333e-005
11
368.764063983326
21
1846.14506373479
31
6.92864763109924e-005
  0
LINE
 8
GROUP0
10
368.764063983326
20
1846.14506373479
30
6.92864763109924e-005
11
366.165987771976
21
1844.64506373479
31
6.54983316835001e-005
  0
LINE
 8
GROUP0
10
366.165987771976
20
1844.64506373479
30
6.54983316835001e-005
11
363.567911560628
21
1846.14506373479
31
6.04528635349766e-005
  0
LINE
 8
GROUP0
10
363.567911560628
20
1846.14506373479
30
6.04528635349766e-005
11
363.56791156063
21
1849.14506373479
31
5.91955386603615e-005
  0
LINE
 8
GROUP0
10
363.56791156063
20
1849.14506373479
30
5.91955386603615e-005
11
366.165987771981
21
1850.64506373479
31
6.29836833780928e-005
  0
LINE
 8
GROUP0
10
366.165987771981
20
1850.64506373479
30
6.29836833780928e-005
11
368.764063983328
21
1849.14506373479
31
6.8029151797333e-005
  0
LINE
 8
GROUP0
10
422.03904745936
20
1853.24314817397
30
5.45586579370649e-005
11
419.440971248006
21
1851.74314817397
31
5.42473632357598e-005
  0
LINE
 8
GROUP0
10
419.440971248006
20
1851.74314817397
30
5.42473632357598e-005
11
416.842895036653
21
1853.24314817397
31
5.19425654658789e-005
  0
LINE
 8
GROUP0
10
416.842895036653
20
1853.24314817397
30
5.19425654658789e-005
11
416.842895036656
21
1856.24314817397
31
4.99490605925246e-005
  0
LINE
 8
GROUP0
10
416.842895036656
20
1856.24314817397
30
4.99490605925246e-005
11
419.44097124801
21
1857.74314817397
31
5.02603545719182e-005
  0
LINE
 8
GROUP0
10
419.44097124801
20
1857.74314817397
30
5.02603545719182e-005
11
422.039047459361
21
1856.24314817397
31
5.25651532441884e-005
  0
LINE
 8
GROUP0
10
422.039047459361
20
1856.24314817397
30
5.25651532441884e-005
11
422.03904745936
21
1853.24314817397
31
5.45586579370649e-005
  0
LINE
 8
GROUP0
10
393.352515018692
20
1860.3412249851
30
9.0820178301243e-005
11
390.754438807341
21
1858.8412249851
31
8.70320340347064e-005
  0
LINE
 8
GROUP0
10
390.754438807341
20
1858.8412249851
30
8.70320340347064e-005
11
388.156362595993
21
1860.3412249851
31
8.19865660666608e-005
  0
LINE
 8
GROUP0
10
388.156362595993
20
1860.3412249851
30
8.19865660666608e-005
11
388.156362595995
21
1863.3412249851
31
8.07292412822846e-005
  0
LINE
 8
GROUP0
10
388.156362595995
20
1863.3412249851
30
8.07292412822846e-005
11
390.754438807345
21
1864.8412249851
31
8.45173850073877e-005
  0
LINE
 8
GROUP0
10
390.754438807345
20
1864.8412249851
30
8.45173850073877e-005
11
393.352515018694
21
1863.3412249851
31
8.95628535168669e-005
  0
LINE
 8
GROUP0
10
393.352515018694
20
1863.3412249851
30
8.95628535168669e-005
11
393.352515018692
21
1860.3412249851
31
9.0820178301243e-005
  0
LINE
 8
GROUP0
10
398.950589152468
20
1879.03737740778
30
8.45173851427461e-005
11
401.548665363816
21
1877.53737740778
31
8.95628536522253e-005
  0
LINE
 8
GROUP0
10
401.548665363816
20
1877.53737740778
30
8.95628536522253e-005
11
401.548665363813
21
1874.53737740778
31
9.08201782561235e-005
  0
LINE
 8
GROUP0
10
401.548665363813
20
1874.53737740778
30
9.08201782561235e-005
11
398.950589152463
21
1873.03737740778
31
8.70320333579144e-005
  0
LINE
 8
GROUP0
10
398.950589152463
20
1873.03737740778
30
8.70320333579144e-005
11
396.352512941115
21
1874.53737740778
31
8.19865656605856e-005
  0
LINE
 8
GROUP0
10
396.352512941115
20
1874.53737740778
30
8.19865656605856e-005
11
396.352512941117
21
1877.53737740778
31
8.07292407859705e-005
  0
LINE
 8
GROUP0
10
396.352512941117
20
1877.53737740778
30
8.07292407859705e-005
11
398.950589152468
21
1879.03737740778
31
8.45173851427461e-005
  0
LINE
 8
GROUP0
10
374.36213811711
20
1864.84121615747
30
6.61454649012683e-005
11
376.960214328459
21
1863.34121615747
31
7.11909328693139e-005
  0
LINE
 8
GROUP0
10
376.960214328459
20
1863.34121615747
30
7.11909328693139e-005
11
376.960214328457
21
1860.34121615747
31
7.24482574732122e-005
  0
LINE
 8
GROUP0
10
376.960214328457
20
1860.34121615747
30
7.24482574732122e-005
11
374.362138117107
21
1858.84121615747
31
6.86601141993037e-005
  0
LINE
 8
GROUP0
10
374.362138117107
20
1858.84121615747
30
6.86601141993037e-005
11
371.764061905758
21
1860.34121615747
31
6.36146449679131e-005
  0
LINE
 8
GROUP0
10
371.764061905758
20
1860.34121615747
30
6.36146449679131e-005
11
371.76406190576
21
1863.34121615747
31
6.23573208152095e-005
  0
LINE
 8
GROUP0
10
371.76406190576
20
1863.34121615747
30
6.23573208152095e-005
11
374.36213811711
21
1864.84121615747
31
6.61454649012683e-005
  0
LINE
 8
GROUP0
10
392.254437768589
20
1870.43930059667
30
7.90556140504606e-005
11
394.852513979939
21
1871.93930059667
31
8.28437583169972e-005
  0
LINE
 8
GROUP0
10
394.852513979939
20
1871.93930059667
30
8.28437583169972e-005
11
397.450590191288
21
1870.43930059667
31
8.78892271874321e-005
  0
LINE
 8
GROUP0
10
397.450590191288
20
1870.43930059667
30
8.78892271874321e-005
11
397.450590191285
21
1867.43930059667
31
8.91465513852552e-005
  0
LINE
 8
GROUP0
10
397.450590191285
20
1867.43930059667
30
8.91465513852552e-005
11
394.852513979935
21
1865.93930059667
31
8.53584076601521e-005
  0
LINE
 8
GROUP0
10
394.852513979935
20
1865.93930059667
30
8.53584076601521e-005
11
392.254437768587
21
1867.43930059667
31
8.0312939060434e-005
  0
LINE
 8
GROUP0
10
392.254437768587
20
1867.43930059667
30
8.0312939060434e-005
11
392.254437768589
21
1870.43930059667
31
7.90556140504606e-005
  0
LINE
 8
GROUP0
10
411.244818825336
20
1871.93930059667
30
8.28437583169972e-005
11
413.842895036685
21
1870.43930059667
31
8.78892272325515e-005
  0
LINE
 8
GROUP0
10
413.842895036685
20
1870.43930059667
30
8.78892272325515e-005
11
413.842895036683
21
1867.43930059667
31
8.91465513852552e-005
  0
LINE
 8
GROUP0
10
413.842895036683
20
1867.43930059667
30
8.91465513852552e-005
11
411.244818825332
21
1865.93930059667
31
8.53584076601521e-005
  0
LINE
 8
GROUP0
10
411.244818825332
20
1865.93930059667
30
8.53584076601521e-005
11
408.646742613983
21
1867.43930059667
31
8.0312939060434e-005
  0
LINE
 8
GROUP0
10
408.646742613983
20
1867.43930059667
30
8.0312939060434e-005
11
408.646742613987
21
1870.43930059667
31
7.905561409558e-005
  0
LINE
 8
GROUP0
10
408.646742613987
20
1870.43930059667
30
7.905561409558e-005
11
411.244818825336
21
1871.93930059667
31
8.28437583169972e-005
  0
LINE
 8
GROUP0
10
356.469847562175
20
1856.24313934638
30
4.18449218898331e-005
11
356.469847562173
21
1853.24313934638
31
4.38384264924707e-005
  0
LINE
 8
GROUP0
10
356.469847562173
20
1853.24313934638
30
4.38384264924707e-005
11
353.871771350819
21
1851.74313934638
31
4.35271324228381e-005
  0
LINE
 8
GROUP0
10
353.871771350819
20
1851.74313934638
30
4.35271324228381e-005
11
351.273695139467
21
1853.24313934638
31
4.12223345627183e-005
  0
LINE
 8
GROUP0
10
351.273695139467
20
1853.24313934638
30
4.12223345627183e-005
11
351.273695139469
21
1856.24313934638
31
3.92288297796028e-005
  0
LINE
 8
GROUP0
10
351.273695139469
20
1856.24313934638
30
3.92288297796028e-005
11
353.871771350823
21
1857.74313934638
31
3.95401232175629e-005
  0
LINE
 8
GROUP0
10
353.871771350823
20
1857.74313934638
30
3.95401232175629e-005
11
356.469847562175
21
1856.24313934638
31
4.18449218898331e-005
  0
LINE
 8
GROUP0
10
415.342880746215
20
1873.03737740775
30
0.000108801967504846
11
412.744804534866
21
1874.53737740775
31
0.000103756498183216
  0
LINE
 8
GROUP0
10
412.744804534866
20
1874.53737740775
30
0.000103756498183216
11
412.744804534869
21
1877.53737740775
31
0.000102499173669557
  0
LINE
 8
GROUP0
10
412.744804534869
20
1877.53737740775
30
0.000102499173669557
11
415.342880746218
21
1879.03737740775
31
0.000106287318567766
  0
LINE
 8
GROUP0
10
415.342880746218
20
1879.03737740775
30
0.000106287318567766
11
417.940956957567
21
1877.53737740775
31
0.000111332786626051
  0
LINE
 8
GROUP0
10
417.940956957567
20
1877.53737740775
30
0.000111332786626051
11
417.940956957565
21
1874.53737740775
31
0.000112590110598276
  0
LINE
 8
GROUP0
10
417.940956957565
20
1874.53737740775
30
0.000112590110598276
11
415.342880746215
21
1873.03737740775
31
0.000108801967504846
  0
LINE
 8
GROUP0
10
407.146730401093
20
1858.84122498508
30
0.000108801967640204
11
404.548654189744
21
1860.34122498508
31
0.000103756498408814
  0
LINE
 8
GROUP0
10
404.548654189744
20
1860.34122498508
30
0.000103756498408814
11
404.548654189746
21
1863.34122498508
31
0.000102499173985393
  0
LINE
 8
GROUP0
10
404.548654189746
20
1863.34122498508
30
0.000102499173985393
11
407.146730401097
21
1864.84122498508
31
0.000106287318342169
  0
LINE
 8
GROUP0
10
407.146730401097
20
1864.84122498508
30
0.000106287318342169
11
409.744806612445
21
1863.34122498508
31
0.000111332786400453
  0
LINE
 8
GROUP0
10
409.744806612445
20
1863.34122498508
30
0.000111332786400453
11
409.744806612442
21
1860.34122498508
31
0.000112590110914113
  0
LINE
 8
GROUP0
10
409.744806612442
20
1860.34122498508
30
0.000112590110914113
11
407.146730401093
21
1858.84122498508
31
0.000108801967640204
  0
LINE
 8
GROUP0
10
370.264076196208
20
1857.74313934637
30
1.99257087338367e-005
11
372.86215240756
21
1856.24313934636
31
2.2230507225629e-005
  0
LINE
 8
GROUP0
10
372.86215240756
20
1856.24313934636
30
2.2230507225629e-005
11
372.862152407559
21
1853.24313934637
31
2.4224011377072e-005
  0
LINE
 8
GROUP0
10
372.862152407559
20
1853.24313934637
30
2.4224011377072e-005
11
370.264076196205
21
1851.74313934637
31
2.39127173074394e-005
  0
LINE
 8
GROUP0
10
370.264076196205
20
1851.74313934637
30
2.39127173074394e-005
11
367.665999984853
21
1853.24313934637
31
2.16079189961249e-005
  0
LINE
 8
GROUP0
10
367.665999984853
20
1853.24313934637
30
2.16079189961249e-005
11
367.665999984854
21
1856.24313934637
31
1.9614414754443e-005
  0
LINE
 8
GROUP0
10
367.665999984854
20
1856.24313934637
30
1.9614414754443e-005
11
370.264076196208
21
1857.74313934637
31
1.99257087338367e-005
  0
LINE
 8
GROUP0
10
355.371770312009
20
1863.34121615749
30
4.05873878413843e-005
11
357.969846523359
21
1864.84121615749
31
4.43755315213679e-005
  0
LINE
 8
GROUP0
10
357.969846523359
20
1864.84121615749
30
4.43755315213679e-005
11
360.567922734707
21
1863.34121615749
31
4.94209999857276e-005
  0
LINE
 8
GROUP0
10
360.567922734707
20
1863.34121615749
30
4.94209999857276e-005
11
360.567922734705
21
1860.34121615749
31
5.06783248603426e-005
  0
LINE
 8
GROUP0
10
360.567922734705
20
1860.34121615749
30
5.06783248603426e-005
11
357.969846523355
21
1858.84121615749
31
4.68901805035671e-005
  0
LINE
 8
GROUP0
10
357.969846523355
20
1858.84121615749
30
4.68901805035671e-005
11
355.371770312007
21
1860.34121615749
31
4.18447126257604e-005
  0
LINE
 8
GROUP0
10
355.371770312007
20
1860.34121615749
30
4.18447126257604e-005
11
355.371770312009
21
1863.34121615749
31
4.05873878413843e-005
  0
LINE
 8
GROUP0
10
398.950589152456
20
1844.64507256243
30
8.38702522408141e-005
11
396.352512941107
21
1846.14507256243
31
7.88247839118128e-005
  0
LINE
 8
GROUP0
10
396.352512941107
20
1846.14507256243
30
7.88247839118128e-005
11
396.352512941109
21
1849.14507256243
31
7.75674593981535e-005
  0
LINE
 8
GROUP0
10
396.352512941109
20
1849.14507256243
30
7.75674593981535e-005
11
398.95058915246
21
1850.64507256243
31
8.13556036646901e-005
  0
LINE
 8
GROUP0
10
398.95058915246
20
1850.64507256243
30
8.13556036646901e-005
11
401.548665363807
21
1849.14507256243
31
8.64010722644082e-005
  0
LINE
 8
GROUP0
10
401.548665363807
20
1849.14507256243
30
8.64010722644082e-005
11
401.548665363805
21
1846.14507256243
31
8.76583971390232e-005
  0
LINE
 8
GROUP0
10
401.548665363805
20
1846.14507256243
30
8.76583971390232e-005
11
398.950589152456
21
1844.64507256243
31
8.38702522408141e-005
  0
LINE
 8
GROUP0
10
485.010151660837
20
1851.74316582921
30
0.000154145485503676
11
482.412075449485
21
1853.24316582921
31
0.000151840687102123
  0
LINE
 8
GROUP0
10
482.412075449485
20
1853.24316582921
30
0.000151840687102123
11
482.412075449487
21
1856.24316582921
31
0.000149847182228768
  0
LINE
 8
GROUP0
10
482.412075449487
20
1856.24316582921
30
0.000149847182228768
11
485.010151660841
21
1857.74316582921
31
0.00015015847638864
  0
LINE
 8
GROUP0
10
485.010151660841
20
1857.74316582921
30
0.00015015847638864
11
487.608227872193
21
1856.24316582921
31
0.000152463274970671
  0
LINE
 8
GROUP0
10
487.608227872193
20
1856.24316582921
30
0.000152463274970671
11
487.608227872191
21
1853.24316582921
31
0.00015445677948307
  0
LINE
 8
GROUP0
10
487.608227872191
20
1853.24316582921
30
0.00015445677948307
11
485.010151660837
21
1851.74316582921
31
0.000154145485503676
  0
LINE
 8
GROUP0
10
499.902442215773
20
1846.14509021763
30
0.000189712036678813
11
497.304366004424
21
1844.64509021763
31
0.000185923892051321
  0
LINE
 8
GROUP0
10
497.304366004424
20
1844.64509021763
30
0.000185923892051321
11
494.706289793075
21
1846.14509021763
31
0.000180878423451603
  0
LINE
 8
GROUP0
10
494.706289793075
20
1846.14509021763
30
0.000180878423451603
11
494.706289793077
21
1849.14509021763
31
0.000179621098892824
  0
LINE
 8
GROUP0
10
494.706289793077
20
1849.14509021763
30
0.000179621098892824
11
497.304366004427
21
1850.64509021763
31
0.000183409243610555
  0
LINE
 8
GROUP0
10
497.304366004427
20
1850.64509021763
30
0.000183409243610555
11
499.902442215776
21
1849.14509021763
31
0.000188454711939556
  0
LINE
 8
GROUP0
10
499.902442215776
20
1849.14509021763
30
0.000188454711939556
11
499.902442215773
21
1846.14509021763
31
0.000189712036678813
  0
LINE
 8
GROUP0
10
504.000532717577
20
1853.2431658292
30
0.000134842364818866
11
501.402456506222
21
1851.7431658292
31
0.000134531070117561
  0
LINE
 8
GROUP0
10
501.402456506222
20
1851.7431658292
30
0.000134531070117561
11
498.80438029487
21
1853.2431658292
31
0.00013222627234768
  0
LINE
 8
GROUP0
10
498.80438029487
20
1853.2431658292
30
0.00013222627234768
11
498.804380294873
21
1856.2431658292
31
0.000130232767474325
  0
LINE
 8
GROUP0
10
498.804380294873
20
1856.2431658292
30
0.000130232767474325
11
501.402456506226
21
1857.7431658292
31
0.000130544061453719
  0
LINE
 8
GROUP0
10
501.402456506226
20
1857.7431658292
30
0.000130544061453719
11
504.000532717578
21
1856.24316582919
31
0.000132848860125989
  0
LINE
 8
GROUP0
10
504.000532717578
20
1856.24316582919
30
0.000132848860125989
11
504.000532717577
21
1853.2431658292
31
0.000134842364818866
  0
LINE
 8
GROUP0
10
499.902442215784
20
1877.53739506298
30
0.000191616493552971
11
499.902442215782
21
1874.53739506298
31
0.000192873817525197
  0
LINE
 8
GROUP0
10
499.902442215782
20
1874.53739506298
30
0.000192873817525197
11
497.304366004431
21
1873.03739506298
31
0.000189085674431766
  0
LINE
 8
GROUP0
10
497.304366004431
20
1873.03739506298
30
0.000189085674431766
11
494.706289793083
21
1874.53739506298
31
0.000184040205110136
  0
LINE
 8
GROUP0
10
494.706289793083
20
1874.53739506298
30
0.000184040205110136
11
494.706289793085
21
1877.53739506298
31
0.000182782880596477
  0
LINE
 8
GROUP0
10
494.706289793085
20
1877.53739506298
30
0.000182782880596477
11
497.304366004435
21
1879.03739506298
31
0.000186571025494686
  0
LINE
 8
GROUP0
10
497.304366004435
20
1879.03739506298
30
0.000186571025494686
11
499.902442215784
21
1877.53739506298
31
0.000191616493552971
  0
LINE
 8
GROUP0
10
502.902440138201
20
1860.34124705412
30
0.000193226165072957
11
502.902440138203
21
1863.34124705412
31
0.000191968841100731
  0
LINE
 8
GROUP0
10
502.902440138203
20
1863.34124705412
30
0.000191968841100731
11
505.500516349553
21
1864.84124705412
31
0.000195756985277029
  0
LINE
 8
GROUP0
10
505.500516349553
20
1864.84124705412
30
0.000195756985277029
11
508.098592560902
21
1863.34124705412
31
0.000200802453696269
  0
LINE
 8
GROUP0
10
508.098592560902
20
1863.34124705412
30
0.000200802453696269
11
508.098592560899
21
1860.34124705412
31
0.000202059778480645
  0
LINE
 8
GROUP0
10
508.098592560899
20
1860.34124705412
30
0.000202059778480645
11
505.50051634955
21
1858.84124705412
31
0.000198271634304348
  0
LINE
 8
GROUP0
10
505.50051634955
20
1858.84124705412
30
0.000198271634304348
11
502.902440138201
21
1860.34124705412
31
0.000193226165072957
  0
LINE
 8
GROUP0
10
480.912074410672
20
1844.64509021765
30
0.000164153959167734
11
478.313998199324
21
1846.14509021765
31
0.000159108490793614
  0
LINE
 8
GROUP0
10
478.313998199324
20
1846.14509021765
30
0.000159108490793614
11
478.313998199326
21
1849.14509021765
31
0.000157851166279954
  0
LINE
 8
GROUP0
10
478.313998199326
20
1849.14509021765
30
0.000157851166279954
11
480.912074410676
21
1850.64509021765
31
0.000161639310546491
  0
LINE
 8
GROUP0
10
480.912074410676
20
1850.64509021765
30
0.000161639310546491
11
483.510150622024
21
1849.14509021765
31
0.000166684779146209
  0
LINE
 8
GROUP0
10
483.510150622024
20
1849.14509021765
30
0.000166684779146209
11
483.510150622022
21
1846.14509021765
31
0.000167942104065943
  0
LINE
 8
GROUP0
10
483.510150622022
20
1846.14509021765
30
0.000167942104065943
11
480.912074410672
21
1844.64509021765
31
0.000164153959167734
  0
LINE
 8
GROUP0
10
491.706291870659
20
1860.3412426403
30
0.000192873817795913
11
489.10821565931
21
1858.8412426403
31
0.000189085674522005
  0
LINE
 8
GROUP0
10
489.10821565931
20
1858.8412426403
30
0.000189085674522005
11
486.510139447961
21
1860.3412426403
31
0.000184040205290614
  0
LINE
 8
GROUP0
10
486.510139447961
20
1860.3412426403
30
0.000184040205290614
11
486.510139447963
21
1863.3412426403
31
0.000182782880867194
  0
LINE
 8
GROUP0
10
486.510139447963
20
1863.3412426403
30
0.000182782880867194
11
489.108215659313
21
1864.8412426403
31
0.000186571025223969
  0
LINE
 8
GROUP0
10
489.108215659313
20
1864.8412426403
30
0.000186571025223969
11
491.706291870662
21
1863.3412426403
31
0.000191616493282254
  0
LINE
 8
GROUP0
10
491.706291870662
20
1863.3412426403
30
0.000191616493282254
11
491.706291870659
21
1860.3412426403
31
0.000192873817795913
  0
LINE
 8
GROUP0
10
405.646742613976
20
1856.24314817398
30
7.21795680888704e-005
11
405.646742613974
21
1853.24314817398
31
7.4173072601269e-005
  0
LINE
 8
GROUP0
10
405.646742613974
20
1853.24314817398
30
7.4173072601269e-005
11
403.048666402621
21
1851.74314817398
31
7.38617786218754e-005
  0
LINE
 8
GROUP0
10
403.048666402621
20
1851.74314817398
30
7.38617786218754e-005
11
400.450590191268
21
1853.24314817399
31
7.1556980220322e-005
  0
LINE
 8
GROUP0
10
400.450590191268
20
1853.24314817399
30
7.1556980220322e-005
11
400.45059019127
21
1856.24314817398
31
6.95634753469676e-005
  0
LINE
 8
GROUP0
10
400.45059019127
20
1856.24314817398
30
6.95634753469676e-005
11
403.048666402624
21
1857.74314817398
31
6.98747695068391e-005
  0
LINE
 8
GROUP0
10
403.048666402624
20
1857.74314817398
30
6.98747695068391e-005
11
405.646742613976
21
1856.24314817398
31
7.21795680888704e-005
  0
LINE
 8
GROUP0
10
493.206304083549
20
1865.93931825189
30
0.000165642114541953
11
490.6082278722
21
1867.43931825189
31
0.000160596645942235
  0
LINE
 8
GROUP0
10
490.6082278722
20
1867.43931825189
30
0.000160596645942235
11
490.608227872203
21
1870.43931825189
31
0.000159339320977381
  0
LINE
 8
GROUP0
10
490.608227872203
20
1870.43931825189
30
0.000159339320977381
11
493.206304083552
21
1871.93931825189
31
0.000163127465243917
  0
LINE
 8
GROUP0
10
493.206304083552
20
1871.93931825189
30
0.000163127465243917
11
495.804380294901
21
1870.43931825189
31
0.000168172934114352
  0
LINE
 8
GROUP0
10
495.804380294901
20
1870.43931825189
30
0.000168172934114352
11
495.804380294899
21
1867.43931825189
31
0.000169430258267056
  0
LINE
 8
GROUP0
10
495.804380294899
20
1867.43931825189
30
0.000169430258267056
11
493.206304083549
21
1865.93931825189
31
0.000165642114541953
  0
LINE
 8
GROUP0
10
476.813999238155
20
1871.93931825189
30
0.000163127465243917
11
479.412075449504
21
1870.43931825189
31
0.000168172934114352
  0
LINE
 8
GROUP0
10
479.412075449504
20
1870.43931825189
30
0.000168172934114352
11
479.412075449502
21
1867.43931825189
31
0.000169430258267056
  0
LINE
 8
GROUP0
10
479.412075449502
20
1867.43931825189
30
0.000169430258267056
11
476.813999238152
21
1865.93931825189
31
0.000165642114541953
  0
LINE
 8
GROUP0
10
476.813999238152
20
1865.93931825189
30
0.000165642114541953
11
474.215923026803
21
1867.43931825189
31
0.000160596645942235
  0
LINE
 8
GROUP0
10
474.215923026803
20
1867.43931825189
30
0.000160596645942235
11
474.215923026806
21
1870.43931825189
31
0.000159339320977381
  0
LINE
 8
GROUP0
10
474.215923026806
20
1870.43931825189
30
0.000159339320977381
11
476.813999238155
21
1871.93931825189
31
0.000163127465243917
  0
LINE
 8
GROUP0
10
475.314000276908
20
1860.34124264033
30
0.000171103885183044
11
472.715924065558
21
1858.84124264033
31
0.000167315740916507
  0
LINE
 8
GROUP0
10
472.715924065558
20
1858.84124264033
30
0.000167315740916507
11
470.11784785421
21
1860.34124264033
31
0.000162270272948462
  0
LINE
 8
GROUP0
10
470.11784785421
20
1860.34124264033
30
0.000162270272948462
11
470.117847854212
21
1863.34124264033
31
0.000161012948164085
  0
LINE
 8
GROUP0
10
470.117847854212
20
1863.34124264033
30
0.000161012948164085
11
472.715924065562
21
1864.84124264033
31
0.000164801091889188
  0
LINE
 8
GROUP0
10
472.715924065562
20
1864.84124264033
30
0.000164801091889188
11
475.31400027691
21
1863.34124264033
31
0.000169846560398668
 0
ENDSEC
 0
EOF
