 0
SECTION
 2
ENTITIES
  0
LINE
 8
GROUP0
10
514.262846451136
20
1808.64470971423
30
7.52027939901201e-005
11
524.262846233783
21
1808.64470971423
31
7.52027939901201e-005
  0
LINE
 8
GROUP0
10
514.262846451133
20
1811.64470971423
30
7.52027942918565e-005
11
514.262846451136
21
1808.64470971423
31
7.52027939901201e-005
  0
LINE
 8
GROUP0
10
534.262846233793
20
1767.64470971423
30
7.5202789957568e-005
11
534.262846233835
21
1613.64470971423
31
7.52027743363637e-005
  0
LINE
 8
GROUP0
10
534.262846233835
20
1613.64470971423
30
7.52027743363637e-005
11
544.262846451192
21
1603.64470971424
31
7.52027733303406e-005
  0
LINE
 8
GROUP0
10
534.262846233793
20
1767.64470971423
30
7.5202789957568e-005
11
524.26284623379
21
1777.64470971423
31
7.52027909177666e-005
  0
LINE
 8
GROUP0
10
524.26284623379
20
1777.64470971423
30
7.52027909177666e-005
11
524.262846233783
21
1808.64470971423
31
7.52027939901201e-005
  0
LINE
 8
GROUP0
10
513.262846451135
20
1812.64470971423
30
7.52027943926703e-005
11
514.262846451133
21
1811.64470971423
31
7.52027942918565e-005
  0
LINE
 8
GROUP0
10
484.262853795415
20
1811.64470971422
30
7.52027943820954e-005
11
484.262853795416
21
1808.64470971422
31
7.5202794080359e-005
  0
LINE
 8
GROUP0
10
485.262853795413
20
1812.64470971422
30
7.52027944377898e-005
11
484.262853795415
21
1811.64470971422
31
7.52027943820954e-005
  0
LINE
 8
GROUP0
10
544.262846451213
20
1560.64470971424
30
7.52027690517465e-005
11
532.262846451209
21
1548.64470971424
31
7.52027678448008e-005
  0
LINE
 8
GROUP0
10
436.26295204294
20
1808.6447097142
30
7.5202794080359e-005
11
484.262853795416
21
1808.64470971422
31
7.5202794080359e-005
  0
LINE
 8
GROUP0
10
436.262952042939
20
1811.6447097142
30
7.52027943820954e-005
11
436.26295204294
21
1808.6447097142
31
7.5202794080359e-005
  0
LINE
 8
GROUP0
10
532.262846451209
20
1548.64470971424
30
7.52027678448008e-005
11
507.26288164848
21
1548.64470971423
31
7.52027678448008e-005
  0
LINE
 8
GROUP0
10
485.262853795413
20
1812.64470971422
30
7.52027944377898e-005
11
513.262846451135
21
1812.64470971423
31
7.52027943926703e-005
  0
LINE
 8
GROUP0
10
544.262846451192
20
1603.64470971424
30
7.52027733303406e-005
11
544.262846451213
21
1560.64470971424
31
7.52027690517465e-005
  0
LINE
 8
GROUP0
10
435.262952042938
20
1812.6447097142
30
7.52027944377898e-005
11
436.262952042939
21
1811.6447097142
31
7.52027943820954e-005
  0
LINE
 8
GROUP0
10
387.262952042938
20
1812.64470971419
30
7.52027944377898e-005
11
435.262952042938
21
1812.6447097142
31
7.52027944377898e-005
  0
LINE
 8
GROUP0
10
507.262881648478
20
1542.64470971423
30
7.5202767241328e-005
11
470.262916845746
21
1542.64470971422
31
7.5202767241328e-005
  0
LINE
 8
GROUP0
10
507.262881648478
20
1542.64470971423
30
7.5202767241328e-005
11
507.26288164848
21
1548.64470971423
31
7.52027678448008e-005
  0
LINE
 8
GROUP0
10
433.262952043001
20
1592.6447097142
30
7.52027722693283e-005
11
429.262952043
21
1596.6447097142
31
7.52027726718785e-005
  0
LINE
 8
GROUP0
10
433.26295204301
20
1548.64470971421
30
7.52027678448008e-005
11
433.262952043001
21
1592.6447097142
31
7.52027722693283e-005
  0
LINE
 8
GROUP0
10
470.262916845748
20
1548.64470971422
30
7.52027678448008e-005
11
433.26295204301
21
1548.64470971421
31
7.52027678448008e-005
  0
LINE
 8
GROUP0
10
470.262916845746
20
1542.64470971422
30
7.5202767241328e-005
11
470.262916845748
21
1548.64470971422
31
7.52027678448008e-005
  0
LINE
 8
GROUP0
10
290.262897861212
20
1548.64470971416
30
7.52027678448008e-005
11
278.262897861209
21
1560.64470971416
31
7.52027690517465e-005
  0
LINE
 8
GROUP0
10
315.262915921812
20
1548.64470971417
30
7.52027678448008e-005
11
290.262897861212
21
1548.64470971416
31
7.52027678448008e-005
  0
LINE
 8
GROUP0
10
315.262915921815
20
1542.64470971417
30
7.5202767241328e-005
11
315.262915921812
21
1548.64470971417
31
7.52027678448008e-005
  0
LINE
 8
GROUP0
10
352.262933982413
20
1542.64470971418
30
7.5202767241328e-005
11
352.26293398241
21
1548.64470971418
31
7.52027678448008e-005
  0
LINE
 8
GROUP0
10
389.26295204301
20
1548.64470971419
30
7.52027678448008e-005
11
352.26293398241
21
1548.64470971418
31
7.52027678448008e-005
  0
LINE
 8
GROUP0
10
389.262952043001
20
1592.64470971419
30
7.52027722693283e-005
11
389.26295204301
21
1548.64470971419
31
7.52027678448008e-005
  0
LINE
 8
GROUP0
10
352.262933982413
20
1542.64470971418
30
7.5202767241328e-005
11
315.262915921815
21
1542.64470971417
31
7.5202767241328e-005
  0
LINE
 8
GROUP0
10
393.262952043
20
1596.64470971419
30
7.52027726718785e-005
11
389.262952043001
21
1592.64470971419
31
7.52027722693283e-005
  0
LINE
 8
GROUP0
10
429.262952043
20
1596.6447097142
30
7.52027726718785e-005
11
393.262952043
21
1596.64470971419
31
7.52027726718785e-005
  0
LINE
 8
GROUP0
10
309.26289786113
20
1812.64470971416
30
7.52027944377898e-005
11
308.262897861132
21
1811.64470971416
31
7.52027943820954e-005
  0
LINE
 8
GROUP0
10
308.262897861132
20
1811.64470971416
30
7.52027943820954e-005
11
308.262897861133
21
1808.64470971416
31
7.52027940352395e-005
  0
LINE
 8
GROUP0
10
338.262890516847
20
1808.64470971417
30
7.5202794080359e-005
11
386.26295204294
21
1808.64470971419
31
7.5202794080359e-005
  0
LINE
 8
GROUP0
10
338.262890516846
20
1811.64470971417
30
7.52027943820954e-005
11
338.262890516847
21
1808.64470971417
31
7.5202794080359e-005
  0
LINE
 8
GROUP0
10
309.26289786113
20
1812.64470971416
30
7.52027944377898e-005
11
337.262890516845
21
1812.64470971417
31
7.52027944377898e-005
  0
LINE
 8
GROUP0
10
298.262897861133
20
1808.64470971416
30
7.52027940352395e-005
11
308.262897861133
21
1808.64470971416
31
7.52027940352395e-005
  0
LINE
 8
GROUP0
10
298.262897861133
20
1808.64470971416
30
7.52027940352395e-005
11
298.262897861143
21
1777.64470971416
31
7.5202791053125e-005
  0
LINE
 8
GROUP0
10
387.262952042938
20
1812.64470971419
30
7.52027944377898e-005
11
386.262952042939
21
1811.64470971419
31
7.52027943820954e-005
  0
LINE
 8
GROUP0
10
288.262897861193
20
1613.64470971416
30
7.52027743814831e-005
11
278.262897861199
21
1603.64470971415
31
7.52027733754601e-005
  0
LINE
 8
GROUP0
10
337.262890516845
20
1812.64470971417
30
7.52027944377898e-005
11
338.262890516846
21
1811.64470971417
31
7.52027943820954e-005
  0
LINE
 8
GROUP0
10
278.262897861209
20
1560.64470971416
30
7.52027690517465e-005
11
278.262897861199
21
1603.64470971415
31
7.52027733754601e-005
  0
LINE
 8
GROUP0
10
304.651483838689
20
1763.08400286039
30
7.52027894986185e-005
11
305.013255269629
21
1762.93415222721
31
7.52027894386942e-005
  0
LINE
 8
GROUP0
10
288.262897861146
20
1767.64470971416
30
7.52027900478069e-005
11
288.262897861193
21
1613.64470971416
31
7.52027743814831e-005
  0
LINE
 8
GROUP0
10
305.013255269629
20
1762.93415222721
30
7.52027894386942e-005
11
305.323915440198
21
1762.69577429423
31
7.52027894147245e-005
  0
LINE
 8
GROUP0
10
298.262897861143
20
1777.64470971416
30
7.5202791053125e-005
11
288.262897861146
21
1767.64470971416
31
7.52027900478069e-005
  0
LINE
 8
GROUP0
10
386.262952042939
20
1811.64470971419
30
7.52027943820954e-005
11
386.26295204294
21
1808.64470971419
31
7.5202794080359e-005
  0
LINE
 8
GROUP0
10
303.513255275402
20
1757.33607602597
30
7.52027888754059e-005
11
303.202595104833
21
1757.57445395894
31
7.52027888993756e-005
  0
LINE
 8
GROUP0
10
304.651483838634
20
1757.18622539277
30
7.5202788860601e-005
11
304.263255272487
21
1757.13511413241
31
7.52027888556661e-005
  0
LINE
 8
GROUP0
10
305.562293373133
20
1762.38511412947
30
7.52027894288243e-005
11
305.712144006328
21
1762.02334269271
31
7.52027893470453e-005
  0
LINE
 8
GROUP0
10
304.263255272487
20
1757.13511413241
30
7.52027888556661e-005
11
303.875026706341
21
1757.18622539279
31
7.5202788860601e-005
  0
LINE
 8
GROUP0
10
303.202595104833
20
1757.57445395894
30
7.52027888993756e-005
11
302.964217171868
21
1757.88511412953
31
7.52027889311002e-005
  0
LINE
 8
GROUP0
10
302.8143665387
20
1758.24688556047
30
7.52027889670548e-005
11
302.763255278341
21
1758.63511412662
31
7.52027890065343e-005
  0
LINE
 8
GROUP0
10
305.323915440155
20
1757.57445395891
30
7.52027888993756e-005
11
305.013255269577
21
1757.33607602594
31
7.52027888754059e-005
  0
LINE
 8
GROUP0
10
305.712144006314
20
1758.24688556041
30
7.52027889670548e-005
11
305.562293373133
21
1757.88511412947
31
7.52027889311002e-005
  0
LINE
 8
GROUP0
10
305.763255266689
20
1761.63511412656
30
7.52027893533902e-005
11
305.763255266691
21
1758.63511412656
31
7.52027890065343e-005
  0
LINE
 8
GROUP0
10
305.562293373133
20
1757.88511412947
30
7.52027889311002e-005
11
305.323915440155
21
1757.57445395891
31
7.52027888993756e-005
  0
LINE
 8
GROUP0
10
302.964217171868
20
1757.88511412953
30
7.52027889311002e-005
11
302.8143665387
21
1758.24688556047
31
7.52027889670548e-005
  0
LINE
 8
GROUP0
10
305.712144006328
20
1762.02334269271
30
7.52027893470453e-005
11
305.763255266689
21
1761.63511412656
31
7.52027893533902e-005
  0
LINE
 8
GROUP0
10
303.875026706341
20
1757.18622539279
30
7.5202788860601e-005
11
303.513255275402
21
1757.33607602597
31
7.52027888754059e-005
  0
LINE
 8
GROUP0
10
305.013255269577
20
1757.33607602594
30
7.52027888754059e-005
11
304.651483838634
21
1757.18622539277
31
7.5202788860601e-005
  0
LINE
 8
GROUP0
10
305.323915440198
20
1762.69577429423
30
7.52027894147245e-005
11
305.562293373133
21
1762.38511412947
31
7.52027894288243e-005
  0
LINE
 8
GROUP0
10
305.763255266691
20
1758.63511412656
30
7.52027890065343e-005
11
305.712144006314
21
1758.24688556041
31
7.52027889670548e-005
  0
LINE
 8
GROUP0
10
303.875026706397
20
1763.0840028604
30
7.52027894986185e-005
11
304.263255272544
21
1763.13511412076
31
7.52027895042584e-005
  0
LINE
 8
GROUP0
10
369.96421871529
20
1762.38511298219
30
7.52027894288243e-005
11
370.202596648298
21
1762.69577314693
31
7.52027894147245e-005
  0
LINE
 8
GROUP0
10
370.513256818876
20
1762.9341510799
30
7.52027894386942e-005
11
370.875028249818
21
1763.08400171307
31
7.5202789453499e-005
  0
LINE
 8
GROUP0
10
302.964217171868
20
1762.38511412953
30
7.52027894288243e-005
11
303.202595104876
21
1762.69577429426
31
7.52027894147245e-005
  0
LINE
 8
GROUP0
10
303.513255275454
20
1762.93415222723
30
7.52027894386942e-005
11
303.875026706397
21
1763.0840028604
31
7.52027894986185e-005
  0
LINE
 8
GROUP0
10
370.202596648298
20
1762.69577314693
30
7.52027894147245e-005
11
370.513256818876
21
1762.9341510799
31
7.52027894386942e-005
  0
LINE
 8
GROUP0
10
370.875028249818
20
1763.08400171307
30
7.5202789453499e-005
11
371.263256815966
21
1763.13511297343
31
7.52027895042584e-005
  0
LINE
 8
GROUP0
10
303.202595104876
20
1762.69577429426
30
7.52027894147245e-005
11
303.513255275454
21
1762.93415222723
31
7.52027894386942e-005
  0
LINE
 8
GROUP0
10
302.814366538714
20
1762.02334269276
30
7.52027893470453e-005
11
302.964217171868
21
1762.38511412953
31
7.52027894288243e-005
  0
LINE
 8
GROUP0
10
369.814368082137
20
1762.02334154543
30
7.52027893470453e-005
11
369.96421871529
21
1762.38511298219
31
7.52027894288243e-005
  0
LINE
 8
GROUP0
10
302.763255278339
20
1761.63511412662
30
7.52027893533902e-005
11
302.763255278341
21
1758.63511412662
31
7.52027890065343e-005
  0
LINE
 8
GROUP0
10
304.263255272544
20
1763.13511412076
30
7.52027895042584e-005
11
304.651483838689
21
1763.08400286039
31
7.52027894986185e-005
  0
LINE
 8
GROUP0
10
369.814368082123
20
1758.24688441313
30
7.52027889670548e-005
11
369.763256821763
21
1758.63511297928
31
7.52027890065343e-005
  0
LINE
 8
GROUP0
10
369.76325682176
20
1761.63511297928
30
7.52027893533902e-005
11
369.763256821763
21
1758.63511297928
31
7.52027890065343e-005
  0
LINE
 8
GROUP0
10
369.76325682176
20
1761.63511297928
30
7.52027893533902e-005
11
369.814368082137
21
1762.02334154543
31
7.52027893470453e-005
  0
LINE
 8
GROUP0
10
302.763255278339
20
1761.63511412662
30
7.52027893533902e-005
11
302.814366538714
21
1762.02334269276
31
7.52027893470453e-005
  0
LINE
 8
GROUP0
10
370.513256818824
20
1757.33607487864
30
7.52027888754059e-005
11
370.202596648255
21
1757.57445281161
31
7.52027888993756e-005
  0
LINE
 8
GROUP0
10
371.651485382056
20
1757.18622424543
30
7.5202788860601e-005
11
371.263256815908
21
1757.13511298508
31
7.52027888556661e-005
  0
LINE
 8
GROUP0
10
372.763256810111
20
1761.63511297922
30
7.52027893533902e-005
11
372.763256810113
21
1758.63511297922
31
7.52027890065343e-005
  0
LINE
 8
GROUP0
10
372.013256813051
20
1762.93415107987
30
7.52027894386942e-005
11
372.32391698362
21
1762.69577314689
31
7.52027894147245e-005
  0
LINE
 8
GROUP0
10
372.712145549751
20
1762.02334154536
30
7.52027893470453e-005
11
372.763256810111
21
1761.63511297922
31
7.52027893533902e-005
  0
LINE
 8
GROUP0
10
372.712145549737
20
1758.24688441307
30
7.52027889670548e-005
11
372.562294916554
21
1757.88511298214
31
7.52027889311002e-005
  0
LINE
 8
GROUP0
10
372.562294916554
20
1757.88511298214
30
7.52027889311002e-005
11
372.323916983577
21
1757.57445281157
31
7.52027888993756e-005
  0
LINE
 8
GROUP0
10
372.562294916554
20
1762.38511298214
30
7.52027894288243e-005
11
372.712145549751
21
1762.02334154536
31
7.52027893470453e-005
  0
LINE
 8
GROUP0
10
372.323916983577
20
1757.57445281157
30
7.52027888993756e-005
11
372.013256812999
21
1757.3360748786
31
7.52027888754059e-005
  0
LINE
 8
GROUP0
10
371.263256815966
20
1763.13511297343
30
7.52027895042584e-005
11
371.651485382111
21
1763.08400171305
31
7.5202789453499e-005
  0
LINE
 8
GROUP0
10
372.013256812999
20
1757.3360748786
30
7.52027888754059e-005
11
371.651485382056
21
1757.18622424543
31
7.5202788860601e-005
  0
LINE
 8
GROUP0
10
371.263256815908
20
1757.13511298508
30
7.52027888556661e-005
11
370.875028249763
21
1757.18622424545
31
7.5202788860601e-005
  0
LINE
 8
GROUP0
10
370.875028249763
20
1757.18622424545
30
7.5202788860601e-005
11
370.513256818824
21
1757.33607487864
31
7.52027888754059e-005
  0
LINE
 8
GROUP0
10
371.651485382111
20
1763.08400171305
30
7.5202789453499e-005
11
372.013256813051
21
1762.93415107987
31
7.52027894386942e-005
  0
LINE
 8
GROUP0
10
372.763256810113
20
1758.63511297922
30
7.52027890065343e-005
11
372.712145549737
21
1758.24688441307
31
7.52027889670548e-005
  0
LINE
 8
GROUP0
10
372.32391698362
20
1762.69577314689
30
7.52027894147245e-005
11
372.562294916554
21
1762.38511298214
31
7.52027894288243e-005
  0
LINE
 8
GROUP0
10
372.013256813049
20
1599.83607423908
30
7.52027730377691e-005
11
371.651485382103
21
1599.68622360591
31
7.52027730229643e-005
  0
LINE
 8
GROUP0
10
370.513256818874
20
1599.83607423911
30
7.52027730377691e-005
11
370.202596648305
21
1600.07445217208
31
7.52027730617388e-005
  0
LINE
 8
GROUP0
10
369.96421871534
20
1600.38511234266
30
7.52027730927585e-005
11
369.814368082172
21
1600.74688377361
31
7.5202773129418e-005
  0
LINE
 8
GROUP0
10
369.814368082172
20
1600.74688377361
30
7.5202773129418e-005
11
369.763256821811
21
1601.13511233976
31
7.52027731681926e-005
  0
LINE
 8
GROUP0
10
369.763256821811
20
1601.13511233976
30
7.52027731681926e-005
11
369.814368082188
21
1601.5233409059
31
7.52027732076721e-005
  0
LINE
 8
GROUP0
10
370.202596648305
20
1600.07445217208
30
7.52027730617388e-005
11
369.96421871534
21
1600.38511234266
31
7.52027730927585e-005
  0
LINE
 8
GROUP0
10
369.814368082188
20
1601.5233409059
30
7.52027732076721e-005
11
369.96421871537
21
1601.88511233684
31
7.52027732436267e-005
  0
LINE
 8
GROUP0
10
371.263256815955
20
1599.63511234555
30
7.52027730173244e-005
11
370.875028249811
21
1599.68622360593
31
7.52027730229643e-005
  0
LINE
 8
GROUP0
10
369.96421871529
20
1757.88511298219
30
7.52027889311002e-005
11
369.814368082123
21
1758.24688441313
31
7.52027889670548e-005
  0
LINE
 8
GROUP0
10
370.202596648255
20
1757.57445281161
30
7.52027888993756e-005
11
369.96421871529
21
1757.88511298219
31
7.52027889311002e-005
  0
LINE
 8
GROUP0
10
372.323916983627
20
1600.07445217204
30
7.52027730617388e-005
11
372.013256813049
21
1599.83607423908
31
7.52027730377691e-005
  0
LINE
 8
GROUP0
10
372.763256810161
20
1601.1351123397
30
7.52027731681926e-005
11
372.712145549787
21
1600.74688377355
31
7.5202773129418e-005
  0
LINE
 8
GROUP0
10
371.651485382103
20
1599.68622360591
30
7.52027730229643e-005
11
371.263256815955
21
1599.63511234555
31
7.52027730173244e-005
  0
LINE
 8
GROUP0
10
372.712145549787
20
1600.74688377355
30
7.5202773129418e-005
11
372.562294916604
21
1600.38511234261
31
7.52027730927585e-005
  0
LINE
 8
GROUP0
10
372.562294916604
20
1600.38511234261
30
7.52027730927585e-005
11
372.323916983627
21
1600.07445217204
31
7.52027730617388e-005
  0
LINE
 8
GROUP0
10
370.875028249811
20
1599.68622360593
30
7.52027730229643e-005
11
370.513256818874
21
1599.83607423911
31
7.52027730377691e-005
  0
LINE
 8
GROUP0
10
372.712145549802
20
1601.52334090584
30
7.52027732076721e-005
11
372.763256810161
21
1601.1351123397
31
7.52027731681926e-005
  0
LINE
 8
GROUP0
10
371.263256816015
20
1602.6351123339
30
7.52027733190608e-005
11
371.651485382161
21
1602.58400107352
31
7.52027733141258e-005
  0
LINE
 8
GROUP0
10
372.562294916634
20
1601.88511233679
30
7.52027732436267e-005
11
372.712145549802
21
1601.52334090584
31
7.52027732076721e-005
  0
LINE
 8
GROUP0
10
369.96421871537
20
1601.88511233684
30
7.52027732436267e-005
11
370.202596648347
21
1602.1957725074
31
7.52027732753513e-005
  0
LINE
 8
GROUP0
10
302.964219208454
20
1600.38511236637
30
7.52027730927585e-005
11
302.814368575124
21
1600.74688379771
31
7.5202773129418e-005
  0
LINE
 8
GROUP0
10
302.763257314707
20
1601.13511236428
30
7.52027731681926e-005
11
302.81436857514
21
1601.52334093084
31
7.52027732076721e-005
  0
LINE
 8
GROUP0
10
302.81436857514
20
1601.52334093084
30
7.52027732076721e-005
11
302.964219208483
21
1601.88511236217
31
7.52027732436267e-005
  0
LINE
 8
GROUP0
10
302.964219208483
20
1601.88511236217
30
7.52027732436267e-005
11
303.202597141718
21
1602.19577253307
31
7.52027732753513e-005
  0
LINE
 8
GROUP0
10
370.875028249869
20
1602.58400107354
30
7.52027733141258e-005
11
371.263256816015
21
1602.6351123339
31
7.52027733190608e-005
  0
LINE
 8
GROUP0
10
372.0132568131
20
1602.43415044034
30
7.5202773299321e-005
11
372.323916983669
21
1602.19577250737
31
7.52027732753513e-005
  0
LINE
 8
GROUP0
10
370.513256818925
20
1602.43415044037
30
7.5202773299321e-005
11
370.875028249869
21
1602.58400107354
31
7.52027733141258e-005
  0
LINE
 8
GROUP0
10
302.814368575124
20
1600.74688379771
30
7.5202773129418e-005
11
302.763257314707
21
1601.13511236428
31
7.52027731681926e-005
  0
LINE
 8
GROUP0
10
303.202597141676
20
1600.07445219546
30
7.52027730617388e-005
11
302.964219208454
21
1600.38511236637
31
7.52027730927585e-005
  0
LINE
 8
GROUP0
10
372.323916983669
20
1602.19577250737
30
7.52027732753513e-005
11
372.562294916634
21
1601.88511233679
31
7.52027732436267e-005
  0
LINE
 8
GROUP0
10
370.202596648347
20
1602.1957725074
30
7.52027732753513e-005
11
370.513256818925
21
1602.43415044037
31
7.5202773299321e-005
  0
LINE
 8
GROUP0
10
371.651485382161
20
1602.58400107352
30
7.52027733141258e-005
11
372.0132568131
21
1602.43415044034
31
7.5202773299321e-005
  0
LINE
 8
GROUP0
10
304.263257310531
20
1602.63511236004
30
7.52027733190608e-005
11
304.651485877095
21
1602.58400109961
31
7.52027733141258e-005
  0
LINE
 8
GROUP0
10
303.202597141718
20
1602.19577253307
30
7.52027732753513e-005
11
303.513257312631
21
1602.43415046629
31
7.5202773299321e-005
  0
LINE
 8
GROUP0
10
304.651485877095
20
1602.58400109961
30
7.52027733141258e-005
11
305.013257308425
21
1602.43415046626
31
7.5202773299321e-005
  0
LINE
 8
GROUP0
10
305.763257306295
20
1601.13511236421
30
7.52027731681926e-005
11
305.712146045865
21
1600.74688379765
31
7.5202773129418e-005
  0
LINE
 8
GROUP0
10
305.712146045865
20
1600.74688379765
30
7.5202773129418e-005
11
305.562295412522
21
1600.38511236632
31
7.52027730927585e-005
  0
LINE
 8
GROUP0
10
305.32391747933
20
1602.19577253303
30
7.52027732753513e-005
11
305.562295412551
21
1601.88511236212
31
7.52027732436267e-005
  0
LINE
 8
GROUP0
10
305.562295412522
20
1600.38511236632
30
7.52027730927585e-005
11
305.323917479287
21
1600.07445219542
31
7.52027730617388e-005
  0
LINE
 8
GROUP0
10
305.323917479287
20
1600.07445219542
30
7.52027730617388e-005
11
305.013257308373
21
1599.8360742622
31
7.52027730377691e-005
  0
LINE
 8
GROUP0
10
305.712146045881
20
1601.52334093078
30
7.52027732076721e-005
11
305.763257306295
21
1601.13511236421
31
7.52027731681926e-005
  0
LINE
 8
GROUP0
10
304.263257310471
20
1599.63511236845
30
7.52027730173244e-005
11
303.875028743907
21
1599.68622362888
31
7.52027730229643e-005
  0
LINE
 8
GROUP0
10
305.013257308373
20
1599.8360742622
30
7.52027730377691e-005
11
304.651485877037
21
1599.68622362886
31
7.52027730229643e-005
  0
LINE
 8
GROUP0
10
305.013257308425
20
1602.43415046626
30
7.5202773299321e-005
11
305.32391747933
21
1602.19577253303
31
7.52027732753513e-005
  0
LINE
 8
GROUP0
10
305.562295412551
20
1601.88511236212
30
7.52027732436267e-005
11
305.712146045881
21
1601.52334093078
31
7.52027732076721e-005
  0
LINE
 8
GROUP0
10
304.651485877037
20
1599.68622362886
30
7.52027730229643e-005
11
304.263257310471
21
1599.63511236845
31
7.52027730173244e-005
  0
LINE
 8
GROUP0
10
303.513257312631
20
1602.43415046629
30
7.5202773299321e-005
11
303.875028743965
21
1602.58400109962
31
7.52027733141258e-005
  0
LINE
 8
GROUP0
10
303.875028743965
20
1602.58400109962
30
7.52027733141258e-005
11
304.263257310531
21
1602.63511236004
31
7.52027733190608e-005
  0
LINE
 8
GROUP0
10
480.859297068155
20
1735.64323843695
30
9.83379465218648e-005
11
480.548636896365
21
1735.40486050307
31
9.85424998730222e-005
  0
LINE
 8
GROUP0
10
481.997525635816
20
1735.79308907066
30
9.75884830977991e-005
11
481.609297068164
21
1735.84420033124
31
9.78441111242401e-005
  0
LINE
 8
GROUP0
10
483.058185807547
20
1734.73242889883
30
9.68900942425632e-005
11
482.908335173806
21
1735.09420033118
31
9.69887630114297e-005
  0
LINE
 8
GROUP0
10
483.058185807511
20
1733.95597176352
30
9.68900942101336e-005
11
483.109297068095
21
1734.34420033117
31
9.68564401372329e-005
  0
LINE
 8
GROUP0
10
480.548636896365
20
1735.40486050307
30
9.85424998730222e-005
11
480.310258962454
21
1735.0942003313
31
9.86994592215407e-005
  0
LINE
 8
GROUP0
10
481.221068500508
20
1735.79308907069
30
9.80997391408111e-005
11
480.859297068155
21
1735.64323843695
31
9.83379465218648e-005
  0
LINE
 8
GROUP0
10
482.908335173806
20
1735.09420033118
30
9.69887630114297e-005
11
482.669957239924
21
1735.40486050297
31
9.71457223317484e-005
  0
LINE
 8
GROUP0
10
483.109297068095
20
1734.34420033117
30
9.68564401372329e-005
11
483.058185807547
21
1734.73242889883
31
9.68900942425632e-005
  0
LINE
 8
GROUP0
10
482.359297068155
20
1735.64323843688
30
9.73502755954869e-005
11
481.997525635816
21
1735.79308907066
31
9.75884830977991e-005
  0
LINE
 8
GROUP0
10
482.669957239826
20
1733.28354015941
30
9.71457222541994e-005
11
482.908335173737
21
1733.59420033118
31
9.69887629508004e-005
  0
LINE
 8
GROUP0
10
303.513257312579
20
1599.83607426222
30
7.52027730377691e-005
11
303.202597141676
21
1600.07445219546
31
7.52027730617388e-005
  0
LINE
 8
GROUP0
10
482.908335173737
20
1733.59420033118
30
9.69887629508004e-005
11
483.058185807511
21
1733.95597176352
31
9.68900942101336e-005
  0
LINE
 8
GROUP0
10
482.359297068036
20
1733.04516222553
30
9.73502755602373e-005
11
482.669957239826
21
1733.28354015941
31
9.71457222541994e-005
  0
LINE
 8
GROUP0
10
481.609297068164
20
1735.84420033124
30
9.78441111242401e-005
11
481.221068500508
21
1735.79308907069
31
9.80997391408111e-005
  0
LINE
 8
GROUP0
10
482.669957239924
20
1735.40486050297
30
9.71457223317484e-005
11
482.359297068155
21
1735.64323843688
31
9.73502755954869e-005
  0
LINE
 8
GROUP0
10
303.875028743907
20
1599.68622362888
30
7.52027730229643e-005
11
303.513257312579
21
1599.83607426222
31
7.52027730377691e-005
  0
LINE
 8
GROUP0
10
480.109297063252
20
1629.04420033131
30
9.88317781689341e-005
11
480.160408323801
21
1628.65597176365
31
9.87981240636038e-005
  0
LINE
 8
GROUP0
10
480.310258957609
20
1629.7942003313
30
9.86994554456055e-005
11
480.160408323836
21
1629.43242889896
31
9.87981241418578e-005
  0
LINE
 8
GROUP0
10
480.160408328644
20
1733.95597176365
30
9.87981278395389e-005
11
480.310258962385
21
1733.5942003313
31
9.86994591157919e-005
  0
LINE
 8
GROUP0
10
480.310258962454
20
1735.0942003313
30
9.86994592215407e-005
11
480.16040832868
21
1734.73242889896
31
9.87981278719685e-005
  0
LINE
 8
GROUP0
10
480.160408323836
20
1629.43242889896
30
9.87981241418578e-005
11
480.109297063252
21
1629.04420033131
31
9.88317781689341e-005
  0
LINE
 8
GROUP0
10
480.548636891521
20
1630.10486050307
30
9.85424960970871e-005
11
480.310258957609
21
1629.7942003313
31
9.86994554456055e-005
  0
LINE
 8
GROUP0
10
481.221068500375
20
1732.89531159183
30
9.8099738984303e-005
11
481.609297068027
21
1732.84420033124
31
9.78441110029815e-005
  0
LINE
 8
GROUP0
10
480.548636896267
20
1733.28354015951
30
9.85424997954731e-005
11
480.859297068036
21
1733.0451622256
31
9.83379464414957e-005
  0
LINE
 8
GROUP0
10
480.16040832868
20
1734.73242889896
30
9.87981278719685e-005
11
480.109297068096
21
1734.34420033131
31
9.88317818997497e-005
  0
LINE
 8
GROUP0
10
481.997525635683
20
1732.89531159179
30
9.7588482941291e-005
11
482.359297068036
21
1733.04516222553
31
9.73502755602373e-005
  0
LINE
 8
GROUP0
10
481.609297068027
20
1732.84420033124
30
9.78441110029815e-005
11
481.997525635683
21
1732.89531159179
31
9.7588482941291e-005
  0
LINE
 8
GROUP0
10
480.310258962385
20
1733.5942003313
30
9.86994591157919e-005
11
480.548636896267
21
1733.28354015951
31
9.85424997954731e-005
  0
LINE
 8
GROUP0
10
480.859297063312
20
1630.34323843695
30
9.83379427910491e-005
11
480.548636891521
21
1630.10486050307
31
9.85424960970871e-005
  0
LINE
 8
GROUP0
10
481.221068495665
20
1630.49308907069
30
9.8099735364876e-005
11
480.859297063312
21
1630.34323843695
31
9.83379427910491e-005
  0
LINE
 8
GROUP0
10
480.109297068096
20
1734.34420033131
30
9.88317818997497e-005
11
480.160408328644
21
1733.95597176365
31
9.87981278395389e-005
  0
LINE
 8
GROUP0
10
480.859297068036
20
1733.0451622256
30
9.83379464414957e-005
11
481.221068500375
21
1732.89531159183
31
9.8099738984303e-005
  0
LINE
 8
GROUP0
10
483.109297063251
20
1629.04420033117
30
9.68564364064173e-005
11
483.058185802703
21
1629.43242889883
31
9.68900905124526e-005
  0
LINE
 8
GROUP0
10
480.859297063192
20
1627.7451622256
30
9.83379427106801e-005
11
481.221068495531
21
1627.59531159183
31
9.80997352986068e-005
  0
LINE
 8
GROUP0
10
483.058185802667
20
1628.65597176352
30
9.68900904341985e-005
11
483.109297063251
21
1629.04420033117
31
9.68564364064173e-005
  0
LINE
 8
GROUP0
10
482.669957235081
20
1630.10486050297
30
9.71457185106939e-005
11
482.359297063311
21
1630.34323843688
31
9.73502719097907e-005
  0
LINE
 8
GROUP0
10
482.908335168962
20
1629.79420033118
30
9.69887592354945e-005
11
482.669957235081
21
1630.10486050297
31
9.71457185106939e-005
  0
LINE
 8
GROUP0
10
480.548636891423
20
1627.98354015951
30
9.85424960646575e-005
11
480.859297063192
21
1627.7451622256
31
9.83379427106801e-005
  0
LINE
 8
GROUP0
10
481.997525630972
20
1630.49308907066
30
9.7588479321864e-005
11
481.609297063321
21
1630.54420033124
31
9.78441073483049e-005
  0
LINE
 8
GROUP0
10
483.058185802703
20
1629.43242889883
30
9.68900905124526e-005
11
482.908335168962
21
1629.79420033118
31
9.69887592354945e-005
  0
LINE
 8
GROUP0
10
482.908335168894
20
1628.29420033118
30
9.69887592199847e-005
11
483.058185802667
21
1628.65597176352
31
9.68900904341985e-005
  0
LINE
 8
GROUP0
10
482.359297063192
20
1627.74516222553
30
9.73502717843022e-005
11
482.669957234982
21
1627.98354015941
31
9.71457184331448e-005
  0
LINE
 8
GROUP0
10
482.359297063311
20
1630.34323843688
30
9.73502719097907e-005
11
481.997525630972
21
1630.49308907066
31
9.7588479321864e-005
  0
LINE
 8
GROUP0
10
481.221068495531
20
1627.59531159183
30
9.80997352986068e-005
11
481.609297063183
21
1627.54420033124
31
9.78441072721658e-005
  0
LINE
 8
GROUP0
10
481.997525630839
20
1627.59531159179
30
9.75884792104753e-005
11
482.359297063192
21
1627.74516222553
31
9.73502717843022e-005
  0
LINE
 8
GROUP0
10
481.609297063183
20
1627.54420033124
30
9.78441072721658e-005
11
481.997525630839
21
1627.59531159179
31
9.75884792104753e-005
  0
LINE
 8
GROUP0
10
482.669957234982
20
1627.98354015941
30
9.71457184331448e-005
11
482.908335168894
21
1628.29420033118
31
9.69887592199847e-005
  0
LINE
 8
GROUP0
10
481.609297063321
20
1630.54420033124
30
9.78441073483049e-005
11
481.221068495665
21
1630.49308907069
31
9.8099735364876e-005
  0
LINE
 8
GROUP0
10
397.169957235135
20
1630.9048605069
30
0.000153442959590527
11
396.859297063367
21
1631.14323844082
31
0.000153647512899385
  0
LINE
 8
GROUP0
10
480.310258957541
20
1628.2942003313
30
9.86994553849763e-005
11
480.548636891423
21
1627.98354015951
31
9.85424960646575e-005
  0
LINE
 8
GROUP0
10
395.359297063247
20
1628.54516222953
30
0.00015463518369957
11
395.721068495587
21
1628.39531159576
31
0.000154396976288201
  0
LINE
 8
GROUP0
10
395.048636891576
20
1630.904860507
30
0.000154839737176921
11
394.810258957665
21
1630.59420033523
31
0.000154996696434495
  0
LINE
 8
GROUP0
10
395.359297063367
20
1631.14323844089
30
0.000154635183825763
11
395.048636891576
21
1630.904860507
31
0.000154839737176921
  0
LINE
 8
GROUP0
10
394.810258957596
20
1629.09420033523
30
0.000154996696373866
11
395.048636891479
21
1628.78354016344
31
0.000154839737098666
  0
LINE
 8
GROUP0
10
394.810258957665
20
1630.59420033523
30
0.000154996696434495
11
394.660408323892
21
1630.23242890289
31
0.000155095365220986
  0
LINE
 8
GROUP0
10
480.160408323801
20
1628.65597176365
30
9.87981240636038e-005
11
480.310258957541
21
1628.2942003313
31
9.86994553849763e-005
  0
LINE
 8
GROUP0
10
394.660408323892
20
1630.23242890289
30
0.000155095365220986
11
394.609297063307
21
1629.84420033524
31
0.000155129019202943
  0
LINE
 8
GROUP0
10
396.497525631027
20
1631.29308907459
30
0.000153885720310754
11
396.109297063376
21
1631.34420033517
31
0.000154141348382314
  0
LINE
 8
GROUP0
10
395.048636891479
20
1628.78354016344
30
0.000154839737098666
11
395.359297063247
21
1628.54516222953
31
0.00015463518369957
  0
LINE
 8
GROUP0
10
394.660408323856
20
1629.45597176759
30
0.000155095365187852
11
394.810258957596
21
1629.09420033523
31
0.000154996696373866
  0
LINE
 8
GROUP0
10
394.609297063307
20
1629.84420033524
30
0.000155129019202943
11
394.660408323856
21
1629.45597176759
31
0.000155095365187852
  0
LINE
 8
GROUP0
10
395.72106849572
20
1631.29308907463
30
0.000154396976398885
11
395.359297063367
21
1631.14323844089
31
0.000154635183825763
  0
LINE
 8
GROUP0
10
396.109297063376
20
1631.34420033517
30
0.000154141348382314
11
395.72106849572
21
1631.29308907463
31
0.000154396976398885
  0
LINE
 8
GROUP0
10
396.859297063367
20
1631.14323844082
30
0.000153647512899385
11
396.497525631027
21
1631.29308907459
31
0.000153885720310754
  0
LINE
 8
GROUP0
10
397.169957235038
20
1628.78354016335
30
0.000153442959557393
11
397.408335168949
21
1629.09420033511
31
0.000153286000208874
  0
LINE
 8
GROUP0
10
396.859297063247
20
1628.54516222946
30
0.000153647512818311
11
397.169957235038
21
1628.78354016335
31
0.000153442959557393
  0
LINE
 8
GROUP0
10
396.497525630894
20
1628.39531159572
30
0.000153885720245189
11
396.859297063247
21
1628.54516222946
31
0.000153647512818311
  0
LINE
 8
GROUP0
10
397.408335168949
20
1629.09420033511
30
0.000153286000208874
11
397.558185802722
21
1629.45597176745
31
0.000153187331513327
  0
LINE
 8
GROUP0
10
395.721068495587
20
1628.39531159576
30
0.000154396976288201
11
396.109297063238
21
1628.34420033517
31
0.000154141348261055
  0
LINE
 8
GROUP0
10
394.54863689637
20
1735.10486050703
30
0.000155168964483593
11
394.310258962459
21
1734.79420033526
31
0.000155325923786992
  0
LINE
 8
GROUP0
10
397.408335169018
20
1630.59420033511
30
0.000153286000269504
11
397.169957235135
21
1630.9048605069
31
0.000153442959590527
  0
LINE
 8
GROUP0
10
395.221068500513
20
1735.49308907465
30
0.000154726203751382
11
394.85929706816
21
1735.34323844091
31
0.000154964411132436
  0
LINE
 8
GROUP0
10
395.609297068169
20
1735.5442003352
30
0.000154470575689691
11
395.221068500513
21
1735.49308907465
31
0.000154726203751382
  0
LINE
 8
GROUP0
10
397.558185802722
20
1629.45597176745
30
0.000153187331513327
11
397.609297063307
21
1629.8442003351
31
0.000153153677440426
  0
LINE
 8
GROUP0
10
394.85929706816
20
1735.34323844091
30
0.000154964411132436
11
394.54863689637
21
1735.10486050703
31
0.000155168964483593
  0
LINE
 8
GROUP0
10
395.997525635821
20
1735.49308907461
30
0.00015421494766325
11
395.609297068169
21
1735.5442003352
31
0.000154470575689691
  0
LINE
 8
GROUP0
10
396.109297063238
20
1628.34420033517
30
0.000154141348261055
11
396.497525630894
21
1628.39531159572
31
0.000153885720245189
  0
LINE
 8
GROUP0
10
397.609297063307
20
1629.8442003351
30
0.000153153677440426
11
397.558185802758
21
1630.23242890276
31
0.000153187331546462
  0
LINE
 8
GROUP0
10
396.35929706816
20
1735.34323844084
30
0.000153976740296297
11
395.997525635821
21
1735.49308907461
31
0.00015421494766325
  0
LINE
 8
GROUP0
10
397.558185802758
20
1630.23242890276
30
0.000153187331546462
11
397.408335169018
21
1630.59420033511
31
0.000153286000269504
  0
LINE
 8
GROUP0
10
394.31025896239
20
1733.29420033526
30
0.000155325923726363
11
394.548636896272
21
1732.98354016347
31
0.000155168964406044
  0
LINE
 8
GROUP0
10
396.908335173742
20
1733.29420033514
30
0.000153615227561371
11
397.058185807516
21
1733.65597176748
31
0.000153516558775585
  0
LINE
 8
GROUP0
10
394.859297068041
20
1732.74516222956
30
0.000154964411052066
11
395.22106850038
21
1732.59531159578
31
0.000154726203685113
  0
LINE
 8
GROUP0
10
396.669957239929
20
1735.10486050693
30
0.000153772186942319
11
396.35929706816
21
1735.34323844084
31
0.000153976740296297
  0
LINE
 8
GROUP0
10
394.160408328649
20
1733.65597176761
30
0.00015542459245011
11
394.31025896239
21
1733.29420033526
31
0.000155325923726363
  0
LINE
 8
GROUP0
10
394.109297068101
20
1734.04420033527
30
0.00015545824655544
11
394.160408328649
21
1733.65597176761
31
0.00015542459245011
  0
LINE
 8
GROUP0
10
397.058185807516
20
1733.65597176748
30
0.000153516558775585
11
397.1092970681
21
1734.04420033513
31
0.000153482904747804
  0
LINE
 8
GROUP0
10
396.669957239832
20
1732.98354016337
30
0.00015377218686477
11
396.908335173742
21
1733.29420033514
31
0.000153615227561371
  0
LINE
 8
GROUP0
10
397.058185807552
20
1734.43242890278
30
0.000153516558853134
11
396.908335173811
21
1734.79420033514
31
0.000153615227576881
  0
LINE
 8
GROUP0
10
395.609297068031
20
1732.5442003352
30
0.000154470575613552
11
395.997525635688
21
1732.59531159575
31
0.000154214947551862
  0
LINE
 8
GROUP0
10
394.548636896272
20
1732.98354016347
30
0.000155168964406044
11
394.859297068041
21
1732.74516222956
31
0.000154964411052066
  0
LINE
 8
GROUP0
10
396.908335173811
20
1734.79420033514
30
0.000153615227576881
11
396.669957239929
21
1735.10486050693
31
0.000153772186942319
  0
LINE
 8
GROUP0
10
396.359297068041
20
1732.74516222949
30
0.000153976740170808
11
396.669957239832
21
1732.98354016337
31
0.00015377218686477
  0
LINE
 8
GROUP0
10
395.997525635688
20
1732.59531159575
30
0.000154214947551862
11
396.359297068041
21
1732.74516222949
31
0.000153976740170808
  0
LINE
 8
GROUP0
10
397.1092970681
20
1734.04420033513
30
0.000153482904747804
11
397.058185807552
21
1734.43242890278
31
0.000153516558853134
  0
LINE
 8
GROUP0
10
395.22106850038
20
1732.59531159578
30
0.000154726203685113
11
395.609297068031
21
1732.5442003352
31
0.000154470575613552
  0
LINE
 8
GROUP0
10
492.908335173737
20
1733.59420033118
30
9.69887629508004e-005
11
493.058185807511
21
1733.95597176352
31
9.68900942101336e-005
  0
LINE
 8
GROUP0
10
491.997525635816
20
1735.79308907066
30
9.75884830977991e-005
11
491.609297068164
21
1735.84420033124
31
9.78441111242401e-005
  0
LINE
 8
GROUP0
10
491.997525635683
20
1732.89531159179
30
9.7588482941291e-005
11
492.359297068036
21
1733.04516222553
31
9.73502755602373e-005
  0
LINE
 8
GROUP0
10
491.609297068026
20
1732.84420033124
30
9.78441110029815e-005
11
491.997525635683
21
1732.89531159179
31
9.7588482941291e-005
  0
LINE
 8
GROUP0
10
492.669957239924
20
1735.40486050298
30
9.71457223317484e-005
11
492.359297068155
21
1735.64323843689
31
9.73502755954869e-005
  0
LINE
 8
GROUP0
10
492.359297068036
20
1733.04516222553
30
9.73502755602373e-005
11
492.669957239826
21
1733.28354015942
31
9.71457222541994e-005
  0
LINE
 8
GROUP0
10
491.609297068164
20
1735.84420033124
30
9.78441111242401e-005
11
491.221068500508
21
1735.7930890707
31
9.80997391408111e-005
  0
LINE
 8
GROUP0
10
493.058185807547
20
1734.73242889883
30
9.68900942425632e-005
11
492.908335173806
21
1735.09420033118
31
9.69887630114297e-005
  0
LINE
 8
GROUP0
10
492.359297068155
20
1735.64323843689
30
9.73502755954869e-005
11
491.997525635816
21
1735.79308907066
31
9.75884830977991e-005
  0
LINE
 8
GROUP0
10
394.160408328685
20
1734.43242890292
30
0.000155424592527659
11
394.109297068101
21
1734.04420033527
31
0.00015545824655544
  0
LINE
 8
GROUP0
10
493.058185807511
20
1733.95597176352
30
9.68900942101336e-005
11
493.109297068095
21
1734.34420033117
31
9.68564401372329e-005
  0
LINE
 8
GROUP0
10
492.908335173806
20
1735.09420033118
30
9.69887630114297e-005
11
492.669957239924
21
1735.40486050298
31
9.71457223317484e-005
  0
LINE
 8
GROUP0
10
492.669957239826
20
1733.28354015942
30
9.71457222541994e-005
11
492.908335173737
21
1733.59420033118
31
9.69887629508004e-005
  0
LINE
 8
GROUP0
10
493.109297068095
20
1734.34420033117
30
9.68564401372329e-005
11
493.058185807547
21
1734.73242889883
31
9.68900942425632e-005
  0
LINE
 8
GROUP0
10
491.221068500508
20
1735.7930890707
30
9.80997391408111e-005
11
490.859297068155
21
1735.64323843695
31
9.83379465218648e-005
  0
LINE
 8
GROUP0
10
394.310258962459
20
1734.79420033526
30
0.000155325923786992
11
394.160408328685
21
1734.43242890292
31
0.000155424592527659
  0
LINE
 8
GROUP0
10
491.997525630972
20
1630.49308907066
30
9.7588479321864e-005
11
491.609297063321
21
1630.54420033124
31
9.78441073483049e-005
  0
LINE
 8
GROUP0
10
493.058185802703
20
1629.43242889883
30
9.68900905124526e-005
11
492.908335168962
21
1629.79420033118
31
9.69887592354945e-005
  0
LINE
 8
GROUP0
10
493.109297063251
20
1629.04420033117
30
9.68564364064173e-005
11
493.058185802703
21
1629.43242889883
31
9.68900905124526e-005
  0
LINE
 8
GROUP0
10
490.859297068036
20
1733.0451622256
30
9.83379464414957e-005
11
491.221068500375
21
1732.89531159183
31
9.8099738984303e-005
  0
LINE
 8
GROUP0
10
491.221068500375
20
1732.89531159183
30
9.8099738984303e-005
11
491.609297068026
21
1732.84420033124
31
9.78441110029815e-005
  0
LINE
 8
GROUP0
10
490.548636896267
20
1733.28354015951
30
9.85424997954731e-005
11
490.859297068036
21
1733.0451622256
31
9.83379464414957e-005
  0
LINE
 8
GROUP0
10
490.548636896365
20
1735.40486050307
30
9.85424998730222e-005
11
490.310258962454
21
1735.0942003313
31
9.86994592215407e-005
  0
LINE
 8
GROUP0
10
492.359297063311
20
1630.34323843689
30
9.73502719097907e-005
11
491.997525630972
21
1630.49308907066
31
9.7588479321864e-005
  0
LINE
 8
GROUP0
10
490.859297068155
20
1735.64323843695
30
9.83379465218648e-005
11
490.548636896365
21
1735.40486050307
31
9.85424998730222e-005
  0
LINE
 8
GROUP0
10
492.908335168962
20
1629.79420033118
30
9.69887592354945e-005
11
492.669957235081
21
1630.10486050298
31
9.71457185106939e-005
  0
LINE
 8
GROUP0
10
490.310258962385
20
1733.5942003313
30
9.86994591157919e-005
11
490.548636896267
21
1733.28354015951
31
9.85424997954731e-005
  0
LINE
 8
GROUP0
10
490.160408328644
20
1733.95597176366
30
9.87981278395389e-005
11
490.310258962385
21
1733.5942003313
31
9.86994591157919e-005
  0
LINE
 8
GROUP0
10
490.16040832868
20
1734.73242889896
30
9.87981278719685e-005
11
490.109297068096
21
1734.34420033131
31
9.88317818997497e-005
  0
LINE
 8
GROUP0
10
490.109297068096
20
1734.34420033131
30
9.88317818997497e-005
11
490.160408328644
21
1733.95597176366
31
9.87981278395389e-005
  0
LINE
 8
GROUP0
10
490.310258962454
20
1735.0942003313
30
9.86994592215407e-005
11
490.16040832868
21
1734.73242889896
31
9.87981278719685e-005
  0
LINE
 8
GROUP0
10
492.669957235081
20
1630.10486050298
30
9.71457185106939e-005
11
492.359297063311
21
1630.34323843689
31
9.73502719097907e-005
  0
LINE
 8
GROUP0
10
491.221068495531
20
1627.59531159183
30
9.80997352986068e-005
11
491.609297063183
21
1627.54420033124
31
9.78441072721658e-005
  0
LINE
 8
GROUP0
10
493.058185802667
20
1628.65597176352
30
9.68900904341985e-005
11
493.109297063251
21
1629.04420033117
31
9.68564364064173e-005
  0
LINE
 8
GROUP0
10
490.160408323801
20
1628.65597176366
30
9.87981240636038e-005
11
490.310258957541
21
1628.2942003313
31
9.86994553849763e-005
  0
LINE
 8
GROUP0
10
490.160408323836
20
1629.43242889896
30
9.87981241418578e-005
11
490.109297063252
21
1629.04420033131
31
9.88317781689341e-005
  0
LINE
 8
GROUP0
10
492.669957234982
20
1627.98354015942
30
9.71457184331448e-005
11
492.908335168894
21
1628.29420033118
31
9.69887592199847e-005
  0
LINE
 8
GROUP0
10
490.310258957541
20
1628.2942003313
30
9.86994553849763e-005
11
490.548636891423
21
1627.98354015951
31
9.85424960646575e-005
  0
LINE
 8
GROUP0
10
491.609297063183
20
1627.54420033124
30
9.78441072721658e-005
11
491.997525630839
21
1627.59531159179
31
9.75884792104753e-005
  0
LINE
 8
GROUP0
10
490.548636891521
20
1630.10486050307
30
9.85424960970871e-005
11
490.310258957609
21
1629.7942003313
31
9.86994554456055e-005
  0
LINE
 8
GROUP0
10
492.908335168894
20
1628.29420033118
30
9.69887592199847e-005
11
493.058185802667
21
1628.65597176352
31
9.68900904341985e-005
  0
LINE
 8
GROUP0
10
491.997525630839
20
1627.59531159179
30
9.75884792104753e-005
11
492.359297063192
21
1627.74516222553
31
9.73502717843022e-005
  0
LINE
 8
GROUP0
10
490.109297063252
20
1629.04420033131
30
9.88317781689341e-005
11
490.160408323801
21
1628.65597176366
31
9.87981240636038e-005
  0
LINE
 8
GROUP0
10
490.310258957609
20
1629.7942003313
30
9.86994554456055e-005
11
490.160408323836
21
1629.43242889896
31
9.87981241418578e-005
  0
LINE
 8
GROUP0
10
490.548636891423
20
1627.98354015951
30
9.85424960646575e-005
11
490.859297063192
21
1627.7451622256
31
9.83379427106801e-005
  0
LINE
 8
GROUP0
10
490.859297063312
20
1630.34323843695
30
9.83379427910491e-005
11
490.548636891521
21
1630.10486050307
31
9.85424960970871e-005
  0
LINE
 8
GROUP0
10
490.859297063192
20
1627.7451622256
30
9.83379427106801e-005
11
491.221068495531
21
1627.59531159183
31
9.80997352986068e-005
  0
LINE
 8
GROUP0
10
492.359297063192
20
1627.74516222553
30
9.73502717843022e-005
11
492.669957234982
21
1627.98354015942
31
9.71457184331448e-005
  0
LINE
 8
GROUP0
10
404.660408323856
20
1629.45597176759
30
0.000155095365187852
11
404.810258957596
21
1629.09420033524
31
0.000154996696373866
  0
LINE
 8
GROUP0
10
404.609297063307
20
1629.84420033525
30
0.000155129019202943
11
404.660408323856
21
1629.45597176759
31
0.000155095365187852
  0
LINE
 8
GROUP0
10
405.048636891479
20
1628.78354016345
30
0.000154839737098666
11
405.359297063247
21
1628.54516222953
31
0.00015463518369957
  0
LINE
 8
GROUP0
10
404.660408323892
20
1630.2324289029
30
0.000155095365220986
11
404.609297063307
21
1629.84420033525
31
0.000155129019202943
  0
LINE
 8
GROUP0
10
405.359297063247
20
1628.54516222953
30
0.00015463518369957
11
405.721068495587
21
1628.39531159576
31
0.000154396976288201
  0
LINE
 8
GROUP0
10
404.810258957596
20
1629.09420033524
30
0.000154996696373866
11
405.048636891479
21
1628.78354016345
31
0.000154839737098666
  0
LINE
 8
GROUP0
10
405.359297063367
20
1631.14323844089
30
0.000154635183825763
11
405.048636891576
21
1630.90486050701
31
0.000154839737176921
  0
LINE
 8
GROUP0
10
406.109297063376
20
1631.34420033518
30
0.000154141348382314
11
405.72106849572
21
1631.29308907463
31
0.000154396976398885
  0
LINE
 8
GROUP0
10
406.859297063367
20
1631.14323844082
30
0.000153647512899385
11
406.497525631027
21
1631.29308907459
31
0.000153885720310754
  0
LINE
 8
GROUP0
10
491.221068495665
20
1630.4930890707
30
9.8099735364876e-005
11
490.859297063312
21
1630.34323843695
31
9.83379427910491e-005
  0
LINE
 8
GROUP0
10
405.72106849572
20
1631.29308907463
30
0.000154396976398885
11
405.359297063367
21
1631.14323844089
31
0.000154635183825763
  0
LINE
 8
GROUP0
10
406.497525631027
20
1631.29308907459
30
0.000153885720310754
11
406.109297063376
21
1631.34420033518
31
0.000154141348382314
  0
LINE
 8
GROUP0
10
407.169957235135
20
1630.90486050691
30
0.000153442959590527
11
406.859297063367
21
1631.14323844082
31
0.000153647512899385
  0
LINE
 8
GROUP0
10
405.048636891576
20
1630.90486050701
30
0.000154839737176921
11
404.810258957665
21
1630.59420033524
31
0.000154996696434495
  0
LINE
 8
GROUP0
10
404.810258957665
20
1630.59420033524
30
0.000154996696434495
11
404.660408323892
21
1630.2324289029
31
0.000155095365220986
  0
LINE
 8
GROUP0
10
491.609297063321
20
1630.54420033124
30
9.78441073483049e-005
11
491.221068495665
21
1630.4930890707
31
9.8099735364876e-005
  0
LINE
 8
GROUP0
10
405.721068495587
20
1628.39531159576
30
0.000154396976288201
11
406.109297063238
21
1628.34420033518
31
0.000154141348261055
  0
LINE
 8
GROUP0
10
407.408335169018
20
1630.59420033512
30
0.000153286000269504
11
407.169957235135
21
1630.90486050691
31
0.000153442959590527
  0
LINE
 8
GROUP0
10
406.908335173742
20
1733.29420033514
30
0.000153615227561371
11
407.058185807516
21
1733.65597176748
31
0.000153516558775585
  0
LINE
 8
GROUP0
10
407.609297063307
20
1629.84420033511
30
0.000153153677440426
11
407.558185802758
21
1630.23242890276
31
0.000153187331546462
  0
LINE
 8
GROUP0
10
406.109297063238
20
1628.34420033518
30
0.000154141348261055
11
406.497525630894
21
1628.39531159573
31
0.000153885720245189
  0
LINE
 8
GROUP0
10
406.359297068041
20
1732.74516222949
30
0.000153976740170808
11
406.669957239832
21
1732.98354016337
31
0.00015377218686477
  0
LINE
 8
GROUP0
10
406.669957239832
20
1732.98354016337
30
0.00015377218686477
11
406.908335173742
21
1733.29420033514
31
0.000153615227561371
  0
LINE
 8
GROUP0
10
405.22106850038
20
1732.59531159578
30
0.000154726203685113
11
405.609297068031
21
1732.5442003352
31
0.000154470575613552
  0
LINE
 8
GROUP0
10
407.408335168949
20
1629.09420033512
30
0.000153286000208874
11
407.558185802722
21
1629.45597176746
31
0.000153187331513327
  0
LINE
 8
GROUP0
10
406.859297063247
20
1628.54516222947
30
0.000153647512818311
11
407.169957235038
21
1628.78354016335
31
0.000153442959557393
  0
LINE
 8
GROUP0
10
406.497525630894
20
1628.39531159573
30
0.000153885720245189
11
406.859297063247
21
1628.54516222947
31
0.000153647512818311
  0
LINE
 8
GROUP0
10
407.558185802722
20
1629.45597176746
30
0.000153187331513327
11
407.609297063307
21
1629.84420033511
31
0.000153153677440426
  0
LINE
 8
GROUP0
10
405.609297068031
20
1732.5442003352
30
0.000154470575613552
11
405.997525635688
21
1732.59531159575
31
0.000154214947551862
  0
LINE
 8
GROUP0
10
405.997525635688
20
1732.59531159575
30
0.000154214947551862
11
406.359297068041
21
1732.74516222949
31
0.000153976740170808
  0
LINE
 8
GROUP0
10
407.558185802758
20
1630.23242890276
30
0.000153187331546462
11
407.408335169018
21
1630.59420033512
31
0.000153286000269504
  0
LINE
 8
GROUP0
10
407.169957235038
20
1628.78354016335
30
0.000153442959557393
11
407.408335168949
21
1629.09420033512
31
0.000153286000208874
  0
LINE
 8
GROUP0
10
404.109297068101
20
1734.04420033527
30
0.00015545824655544
11
404.160408328649
21
1733.65597176761
31
0.00015542459245011
  0
LINE
 8
GROUP0
10
404.54863689637
20
1735.10486050703
30
0.000155168964483593
11
404.310258962459
21
1734.79420033526
31
0.000155325923786992
  0
LINE
 8
GROUP0
10
405.997525635821
20
1735.49308907462
30
0.00015421494766325
11
405.609297068169
21
1735.5442003352
31
0.000154470575689691
  0
LINE
 8
GROUP0
10
406.35929706816
20
1735.34323844084
30
0.000153976740296297
11
405.997525635821
21
1735.49308907462
31
0.00015421494766325
  0
LINE
 8
GROUP0
10
405.609297068169
20
1735.5442003352
30
0.000154470575689691
11
405.221068500513
21
1735.49308907465
31
0.000154726203751382
  0
LINE
 8
GROUP0
10
406.669957239929
20
1735.10486050693
30
0.000153772186942319
11
406.35929706816
21
1735.34323844084
31
0.000153976740296297
  0
LINE
 8
GROUP0
10
406.908335173811
20
1734.79420033514
30
0.000153615227576881
11
406.669957239929
21
1735.10486050693
31
0.000153772186942319
  0
LINE
 8
GROUP0
10
404.85929706816
20
1735.34323844091
30
0.000154964411132436
11
404.54863689637
21
1735.10486050703
31
0.000155168964483593
  0
LINE
 8
GROUP0
10
404.859297068041
20
1732.74516222956
30
0.000154964411052066
11
405.22106850038
21
1732.59531159578
31
0.000154726203685113
  0
LINE
 8
GROUP0
10
407.058185807552
20
1734.43242890279
30
0.000153516558853134
11
406.908335173811
21
1734.79420033514
31
0.000153615227576881
  0
LINE
 8
GROUP0
10
404.31025896239
20
1733.29420033526
30
0.000155325923726363
11
404.548636896272
21
1732.98354016347
31
0.000155168964406044
  0
LINE
 8
GROUP0
10
404.160408328649
20
1733.65597176761
30
0.00015542459245011
11
404.31025896239
21
1733.29420033526
31
0.000155325923726363
  0
LINE
 8
GROUP0
10
404.548636896272
20
1732.98354016347
30
0.000155168964406044
11
404.859297068041
21
1732.74516222956
31
0.000154964411052066
  0
LINE
 8
GROUP0
10
404.160408328685
20
1734.43242890292
30
0.000155424592527659
11
404.109297068101
21
1734.04420033527
31
0.00015545824655544
  0
LINE
 8
GROUP0
10
405.221068500513
20
1735.49308907465
30
0.000154726203751382
11
404.85929706816
21
1735.34323844091
31
0.000154964411132436
  0
LINE
 8
GROUP0
10
404.310258962459
20
1734.79420033526
30
0.000155325923786992
11
404.160408328685
21
1734.43242890292
31
0.000155424592527659
  0
LINE
 8
GROUP0
10
407.058185807516
20
1733.65597176748
30
0.000153516558775585
11
407.1092970681
21
1734.04420033513
31
0.000153482904747804
  0
LINE
 8
GROUP0
10
407.1092970681
20
1734.04420033513
30
0.000153482904747804
11
407.058185807552
21
1734.43242890279
31
0.000153516558853134
 0
ENDSEC
 0
EOF
