 0
SECTION
 2
ENTITIES
  0
LINE
 8
GROUP0
10
344.963992115792
20
1902.80636409184
30
3.60859728935736e-005
11
392.963992115791
21
1902.80632313752
31
3.60859713143924e-005
  0
LINE
 8
GROUP0
10
344.963992115792
20
1902.80636409184
30
3.60859728935736e-005
11
343.963992115792
21
1901.80636409184
31
3.60859728935736e-005
  0
LINE
 8
GROUP0
10
343.963992115792
20
1901.80636409184
30
3.60859728935736e-005
11
343.963992115792
21
1898.80636409184
31
3.60859728935736e-005
  0
LINE
 8
GROUP0
10
256.963945324004
20
1898.80630420066
30
3.60859713143924e-005
11
343.963992115792
21
1898.80636409184
31
3.60859728935736e-005
  0
LINE
 8
GROUP0
10
256.963945324004
20
1898.80630420066
30
3.60859713143924e-005
11
256.963945324004
21
1887.80629681068
31
3.60859713143924e-005
  0
LINE
 8
GROUP0
10
255.963945324004
20
1887.80629681068
30
3.60859713143924e-005
11
256.963945324004
21
1887.80629681068
31
3.60859713143924e-005
  0
LINE
 8
GROUP0
10
255.963941629002
20
1902.9063938061
30
3.60859713143924e-005
11
255.963945324004
21
1887.80629681068
31
3.60859713143924e-005
  0
LINE
 8
GROUP0
10
255.963941629002
20
1902.9063938061
30
3.60859713143924e-005
11
256.963941629002
21
1902.9063938061
31
3.60859713143924e-005
  0
LINE
 8
GROUP0
10
256.963941629002
20
1903.9063938061
30
3.60859713143924e-005
11
256.963941629002
21
1902.9063938061
31
3.60859713143924e-005
  0
LINE
 8
GROUP0
10
255.963941629002
20
1904.9063938061
30
3.60859713143924e-005
11
256.963941629002
21
1903.9063938061
31
3.60859713143924e-005
  0
LINE
 8
GROUP0
10
251.963941629
20
1904.9063864161
30
3.60859713143924e-005
11
255.963941629002
21
1904.9063938061
31
3.60859713143924e-005
  0
LINE
 8
GROUP0
10
251.963941629
20
1904.9063864161
30
3.60859713143924e-005
11
251.963969341513
21
1887.80629681068
31
3.60859713143924e-005
  0
LINE
 8
GROUP0
10
249.963969341516
20
1887.80629311568
30
3.60859713143924e-005
11
251.963969341513
21
1887.80629681068
31
3.60859713143924e-005
  0
LINE
 8
GROUP0
10
249.963937934002
20
1904.90638272109
30
3.60859713143924e-005
11
249.963969341516
21
1887.80629311568
31
3.60859713143924e-005
  0
LINE
 8
GROUP0
10
245.963941629003
20
1904.90637532779
30
3.60859713143924e-005
11
249.963937934002
21
1904.90638272109
31
3.60859713143924e-005
  0
LINE
 8
GROUP0
10
245.963941629003
20
1904.90637532779
30
3.60859713143924e-005
11
244.963941629003
21
1903.90638456695
31
3.60859713143924e-005
  0
LINE
 8
GROUP0
10
244.963941629003
20
1903.90638456695
30
3.60859713143924e-005
11
244.963941629003
21
1902.9063938061
31
3.60859713143924e-005
  0
LINE
 8
GROUP0
10
245.963937940596
20
1902.90637533109
30
3.60859713143924e-005
11
244.963941629003
21
1902.9063938061
31
3.60859713143924e-005
  0
LINE
 8
GROUP0
10
245.963937940596
20
1902.90637533109
30
3.60859713143924e-005
11
245.963938151362
21
1838.80628572565
31
3.60859713595119e-005
  0
LINE
 8
GROUP0
10
245.963938151362
20
1838.80628572565
30
3.60859713595119e-005
11
249.963937934009
21
1834.80628572565
31
3.60859713595119e-005
  0
LINE
 8
GROUP0
10
249.963937934009
20
1834.80628572565
30
3.60859713595119e-005
11
487.963886524006
21
1834.80628572565
31
3.60859713595119e-005
  0
LINE
 8
GROUP0
10
491.963886524005
20
1838.80628572565
30
3.60859713595119e-005
11
487.963886524006
21
1834.80628572565
31
3.60859713595119e-005
  0
LINE
 8
GROUP0
10
491.963886524005
20
1902.9063938061
30
3.60859713143924e-005
11
491.963886524005
21
1838.80628572565
31
3.60859713595119e-005
  0
LINE
 8
GROUP0
10
491.963886524005
20
1902.9063938061
30
3.60859713143924e-005
11
492.963886524005
21
1902.9063938061
31
3.60859713143924e-005
  0
LINE
 8
GROUP0
10
492.963886524005
20
1903.9063938061
30
3.60859713143924e-005
11
492.963886524005
21
1902.9063938061
31
3.60859713143924e-005
  0
LINE
 8
GROUP0
10
491.963886524005
20
1904.9063938061
30
3.60859713143924e-005
11
492.963886524005
21
1903.9063938061
31
3.60859713143924e-005
  0
LINE
 8
GROUP0
10
487.963886524005
20
1904.9063938061
30
3.60859713143924e-005
11
491.963886524005
21
1904.9063938061
31
3.60859713143924e-005
  0
LINE
 8
GROUP0
10
487.963886524005
20
1887.80628572565
30
3.60859713143924e-005
11
487.963886524005
21
1904.9063938061
31
3.60859713143924e-005
  0
LINE
 8
GROUP0
10
485.963886524005
20
1887.80628572565
30
3.60859713143924e-005
11
487.963886524005
21
1887.80628572565
31
3.60859713143924e-005
  0
LINE
 8
GROUP0
10
485.963886524005
20
1904.9063938061
30
3.60859713143924e-005
11
485.963886524005
21
1887.80628572565
31
3.60859713143924e-005
  0
LINE
 8
GROUP0
10
481.963886524006
20
1904.9063938061
30
3.60859713143924e-005
11
485.963886524005
21
1904.9063938061
31
3.60859713143924e-005
  0
LINE
 8
GROUP0
10
481.963886524006
20
1904.9063938061
30
3.60859713143924e-005
11
480.963886524006
21
1903.9063938061
31
3.60859713143924e-005
  0
LINE
 8
GROUP0
10
480.963886524006
20
1903.9063938061
30
3.60859713143924e-005
11
480.963886524006
21
1902.9063938061
31
3.60859713143924e-005
  0
LINE
 8
GROUP0
10
481.963886524006
20
1902.9063938061
30
3.60859713143924e-005
11
480.963886524006
21
1902.9063938061
31
3.60859713143924e-005
  0
LINE
 8
GROUP0
10
481.963886524006
20
1902.9063938061
30
3.60859713143924e-005
11
481.963886524006
21
1887.80628572565
31
3.60859713143924e-005
  0
LINE
 8
GROUP0
10
480.963886524005
20
1887.80628572565
30
3.60859713143924e-005
11
481.963886524006
21
1887.80628572565
31
3.60859713143924e-005
  0
LINE
 8
GROUP0
10
480.963886524005
20
1898.80628572565
30
3.60859713143924e-005
11
480.963886524005
21
1887.80628572565
31
3.60859713143924e-005
  0
LINE
 8
GROUP0
10
393.963992115791
20
1898.80632313752
30
3.60859713143924e-005
11
480.963886524005
21
1898.80628572565
31
3.60859713143924e-005
  0
LINE
 8
GROUP0
10
393.963992115791
20
1901.80632313752
30
3.60859713143924e-005
11
393.963992115791
21
1898.80632313752
31
3.60859713143924e-005
  0
LINE
 8
GROUP0
10
392.963992115791
20
1902.80632313752
30
3.60859713143924e-005
11
393.963992115791
21
1901.80632313752
31
3.60859713143924e-005
  0
LINE
 8
GROUP0
10
481.963886524006
20
1842.80628572565
30
3.60859713143924e-005
11
481.963886524006
21
1838.80628572565
31
3.60859713143924e-005
  0
LINE
 8
GROUP0
10
451.963893868292
20
1838.80628572565
30
3.60859713143924e-005
11
481.963886524006
21
1838.80628572565
31
3.60859713143924e-005
  0
LINE
 8
GROUP0
10
451.963893868292
20
1838.80628572565
30
3.60859713143924e-005
11
451.963893868292
21
1842.80628572565
31
3.60859713595119e-005
  0
LINE
 8
GROUP0
10
451.963893868292
20
1842.80628572565
30
3.60859713595119e-005
11
481.963886524006
21
1842.80628572565
31
3.60859713143924e-005
  0
LINE
 8
GROUP0
10
393.963992115814
20
1838.80628572565
30
3.60859713143924e-005
11
393.963992115814
21
1842.80628572565
31
3.60859713595119e-005
  0
LINE
 8
GROUP0
10
343.963992115812
20
1838.80628572565
30
3.60859713143924e-005
11
393.963992115814
21
1838.80628572565
31
3.60859713143924e-005
  0
LINE
 8
GROUP0
10
343.963992115812
20
1838.80628572565
30
3.60859713143924e-005
11
343.963992115812
21
1842.80628572565
31
3.60859713595119e-005
  0
LINE
 8
GROUP0
10
343.963992115812
20
1842.80628572565
30
3.60859713595119e-005
11
393.963992115814
21
1842.80628572565
31
3.60859713595119e-005
  0
LINE
 8
GROUP0
10
285.963930589723
20
1838.80628572565
30
3.60859713143924e-005
11
285.963930589723
21
1842.80628572565
31
3.60859713595119e-005
  0
LINE
 8
GROUP0
10
255.963937934009
20
1838.80628572565
30
3.60859713143924e-005
11
285.963930589723
21
1838.80628572565
31
3.60859713143924e-005
  0
LINE
 8
GROUP0
10
255.963937934009
20
1842.80628572565
30
3.60859713143924e-005
11
255.963937934009
21
1838.80628572565
31
3.60859713143924e-005
  0
LINE
 8
GROUP0
10
255.963937934009
20
1842.80628572565
30
3.60859713143924e-005
11
285.963930589723
21
1842.80628572565
31
3.60859713595119e-005
  0
LINE
 8
GROUP0
10
437.131156399819
20
1871.3063166223
30
0.000209988413839568
11
437.131156399817
21
1868.3063166223
31
0.000211245738623944
  0
LINE
 8
GROUP0
10
437.131156399817
20
1868.3063166223
30
0.000211245738623944
11
434.533080188467
21
1866.8063166223
31
0.000207457594357408
  0
LINE
 8
GROUP0
10
434.533080188467
20
1866.8063166223
30
0.000207457594357408
11
431.935003977119
21
1868.3063166223
31
0.000202412126389362
  0
LINE
 8
GROUP0
10
431.935003977119
20
1868.3063166223
30
0.000202412126389362
11
431.935003977121
21
1871.3063166223
31
0.000201154801604986
  0
LINE
 8
GROUP0
10
431.935003977121
20
1871.3063166223
30
0.000201154801604986
11
434.533080188471
21
1872.8063166223
31
0.000204942945330089
  0
LINE
 8
GROUP0
10
434.533080188471
20
1872.8063166223
30
0.000204942945330089
11
437.131156399819
21
1871.3063166223
31
0.000209988413839568
  0
LINE
 8
GROUP0
10
453.52344799356
20
1854.1101641996
30
0.000229853890119713
11
450.92537178221
21
1852.6101641996
31
0.000226065745492221
  0
LINE
 8
GROUP0
10
450.92537178221
20
1852.6101641996
30
0.000226065745492221
11
448.327295570862
21
1854.1101641996
31
0.000221020277343698
  0
LINE
 8
GROUP0
10
448.327295570862
20
1854.1101641996
30
0.000221020277343698
11
448.327295570864
21
1857.1101641996
31
0.000219762952469083
  0
LINE
 8
GROUP0
10
448.327295570864
20
1857.1101641996
30
0.000219762952469083
11
450.925371782214
21
1858.6101641996
31
0.000223551097186814
  0
LINE
 8
GROUP0
10
450.925371782214
20
1858.6101641996
30
0.000223551097186814
11
453.523447993562
21
1857.1101641996
31
0.000228596565606054
  0
LINE
 8
GROUP0
10
453.523447993562
20
1857.1101641996
30
0.000228596565606054
11
453.52344799356
21
1854.1101641996
31
0.000229853890119713
  0
LINE
 8
GROUP0
10
465.817688840487
20
1864.20823981117
30
0.00017299071356689
11
465.817688840486
21
1861.20823981117
31
0.000174984218304886
  0
LINE
 8
GROUP0
10
465.817688840486
20
1861.20823981117
30
0.000174984218304886
11
463.219612629131
21
1859.70823981117
31
0.00017467292360358
  0
LINE
 8
GROUP0
10
463.219612629131
20
1859.70823981117
30
0.00017467292360358
11
460.621536417779
21
1861.20823981117
31
0.0001723681258337
  0
LINE
 8
GROUP0
10
460.621536417779
20
1861.20823981117
30
0.0001723681258337
11
460.621536417782
21
1864.20823981117
31
0.000170374620915226
  0
LINE
 8
GROUP0
10
460.621536417782
20
1864.20823981117
30
0.000170374620915226
11
463.219612629135
21
1865.70823981117
31
0.000170685914894619
  0
LINE
 8
GROUP0
10
463.219612629135
20
1865.70823981117
30
0.000170685914894619
11
465.817688840487
21
1864.20823981117
31
0.00017299071356689
  0
LINE
 8
GROUP0
10
467.317672472454
20
1858.61016861342
30
0.000232737056969157
11
469.915748683802
21
1857.11016861342
31
0.000237782525659114
  0
LINE
 8
GROUP0
10
469.915748683802
20
1857.11016861342
30
0.000237782525659114
11
469.915748683801
21
1854.11016861342
31
0.000239039849721578
  0
LINE
 8
GROUP0
10
469.915748683801
20
1854.11016861342
30
0.000239039849721578
11
467.31767247245
21
1852.61016861342
31
0.000235251706086714
  0
LINE
 8
GROUP0
10
467.31767247245
20
1852.61016861342
30
0.000235251706086714
11
464.719596261102
21
1854.11016861342
31
0.000230206236765085
  0
LINE
 8
GROUP0
10
464.719596261102
20
1854.11016861342
30
0.000230206236765085
11
464.719596261104
21
1857.11016861342
31
0.000228948913244054
  0
LINE
 8
GROUP0
10
464.719596261104
20
1857.11016861342
30
0.000228948913244054
11
467.317672472454
21
1858.61016861342
31
0.000232737056969157
  0
LINE
 8
GROUP0
10
461.719598338693
20
1871.30631662227
30
0.000231758346632915
11
461.719598338691
21
1868.30631662228
31
0.000233015671236814
  0
LINE
 8
GROUP0
10
461.719598338691
20
1868.30631662228
30
0.000233015671236814
11
459.121522127341
21
1866.80631662228
31
0.000229227527962905
  0
LINE
 8
GROUP0
10
459.121522127341
20
1866.80631662228
30
0.000229227527962905
11
456.523445915992
21
1868.30631662227
31
0.000224182058731515
  0
LINE
 8
GROUP0
10
456.523445915992
20
1868.30631662227
30
0.000224182058731515
11
456.523445915994
21
1871.30631662227
31
0.000222924734578811
  0
LINE
 8
GROUP0
10
456.523445915994
20
1871.30631662227
30
0.000222924734578811
11
459.121522127344
21
1872.80631662227
31
0.00022671287866487
  0
LINE
 8
GROUP0
10
459.121522127344
20
1872.80631662227
30
0.00022671287866487
11
461.719598338693
21
1871.30631662227
31
0.000231758346632915
  0
LINE
 8
GROUP0
10
453.523447993568
20
1868.30631662228
30
0.000233015671236814
11
450.925371782219
21
1866.80631662228
31
0.000229227527962905
  0
LINE
 8
GROUP0
10
450.925371782219
20
1866.80631662228
30
0.000229227527962905
11
448.32729557087
21
1868.30631662227
31
0.000224182058731515
  0
LINE
 8
GROUP0
10
448.32729557087
20
1868.30631662227
30
0.000224182058731515
11
448.327295570872
21
1871.30631662228
31
0.000222924734308094
  0
LINE
 8
GROUP0
10
448.327295570872
20
1871.30631662228
30
0.000222924734308094
11
450.925371782222
21
1872.80631662227
31
0.00022671287866487
  0
LINE
 8
GROUP0
10
450.925371782222
20
1872.80631662227
30
0.00022671287866487
11
453.523447993571
21
1871.30631662227
31
0.000231758346723154
  0
LINE
 8
GROUP0
10
453.523447993571
20
1871.30631662227
30
0.000231758346723154
11
453.523447993568
21
1868.30631662228
31
0.000233015671236814
  0
LINE
 8
GROUP0
10
437.131156399812
20
1857.11016419962
30
0.000206826632722468
11
437.13115639981
21
1854.11016419962
31
0.000208083957416605
  0
LINE
 8
GROUP0
10
437.13115639981
20
1854.11016419962
30
0.000208083957416605
11
434.533080188459
21
1852.61016419962
31
0.000204295812608635
  0
LINE
 8
GROUP0
10
434.533080188459
20
1852.61016419962
30
0.000204295812608635
11
431.93500397711
21
1854.11016419962
31
0.000199250344279633
  0
LINE
 8
GROUP0
10
431.93500397711
20
1854.11016419962
30
0.000199250344279633
11
431.935003977113
21
1857.11016419962
31
0.000197993019856213
  0
LINE
 8
GROUP0
10
431.935003977113
20
1857.11016419962
30
0.000197993019856213
11
434.533080188463
21
1858.61016419962
31
0.000201781164754422
  0
LINE
 8
GROUP0
10
434.533080188463
20
1858.61016419962
30
0.000201781164754422
11
437.131156399812
21
1857.11016419962
31
0.000206826632722468
  0
LINE
 8
GROUP0
10
459.121522127333
20
1852.6101641996
30
0.000226065745492221
11
456.523445915984
21
1854.1101641996
31
0.000221020276892503
  0
LINE
 8
GROUP0
10
456.523445915984
20
1854.1101641996
30
0.000221020276892503
11
456.523445915986
21
1857.1101641996
31
0.000219762952378844
  0
LINE
 8
GROUP0
10
456.523445915986
20
1857.1101641996
30
0.000219762952378844
11
459.121522127336
21
1858.6101641996
31
0.000223551097096575
  0
LINE
 8
GROUP0
10
459.121522127336
20
1858.6101641996
30
0.000223551097096575
11
461.719598338685
21
1857.1101641996
31
0.000228596565425576
  0
LINE
 8
GROUP0
10
461.719598338685
20
1857.1101641996
30
0.000228596565425576
11
461.719598338682
21
1854.1101641996
31
0.000229853890119713
  0
LINE
 8
GROUP0
10
461.719598338682
20
1854.1101641996
30
0.000229853890119713
11
459.121522127333
21
1852.6101641996
31
0.000226065745492221
  0
LINE
 8
GROUP0
10
449.4253839951
20
1861.20823981118
30
0.00019459863292397
11
446.827307783746
21
1859.70823981118
31
0.000194287338989696
  0
LINE
 8
GROUP0
10
446.827307783746
20
1859.70823981118
30
0.000194287338989696
11
444.229231572394
21
1861.20823981118
31
0.000191982540543023
  0
LINE
 8
GROUP0
10
444.229231572394
20
1861.20823981118
30
0.000191982540543023
11
444.229231572396
21
1864.20823981118
31
0.000189989035669669
  0
LINE
 8
GROUP0
10
444.229231572396
20
1864.20823981118
30
0.000189989035669669
11
446.82730778375
21
1865.70823981118
31
0.00019030032982954
  0
LINE
 8
GROUP0
10
446.82730778375
20
1865.70823981118
30
0.00019030032982954
11
449.425383995101
21
1864.20823981118
31
0.000192605128411572
  0
LINE
 8
GROUP0
10
449.425383995101
20
1864.20823981118
30
0.000192605128411572
11
449.4253839951
21
1861.20823981118
31
0.00019459863292397
  0
LINE
 8
GROUP0
10
467.317672472462
20
1872.80632103609
30
0.000235898838717929
11
469.915748683811
21
1871.30632103609
31
0.00024094430713717
  0
LINE
 8
GROUP0
10
469.915748683811
20
1871.30632103609
30
0.00024094430713717
11
469.915748683808
21
1868.30632103609
31
0.000242201631921546
  0
LINE
 8
GROUP0
10
469.915748683808
20
1868.30632103609
30
0.000242201631921546
11
467.317672472458
21
1866.80632103609
31
0.000238413487745248
  0
LINE
 8
GROUP0
10
467.317672472458
20
1866.80632103609
30
0.000238413487745248
11
464.71959626111
21
1868.30632103609
31
0.000233368018513858
  0
LINE
 8
GROUP0
10
464.71959626111
20
1868.30632103609
30
0.000233368018513858
11
464.719596261112
21
1871.30632103609
31
0.000232110694541632
  0
LINE
 8
GROUP0
10
464.719596261112
20
1871.30632103609
30
0.000232110694541632
11
467.317672472462
21
1872.80632103609
31
0.000235898838717929
  0
LINE
 8
GROUP0
10
442.729230533589
20
1866.8063166223
30
0.000207457594267169
11
440.131154322241
21
1868.3063166223
31
0.000202412126389362
  0
LINE
 8
GROUP0
10
440.131154322241
20
1868.3063166223
30
0.000202412126389362
11
440.131154322243
21
1871.3063166223
31
0.000201154801604986
  0
LINE
 8
GROUP0
10
440.131154322243
20
1871.3063166223
30
0.000201154801604986
11
442.729230533593
21
1872.8063166223
31
0.000204942945330089
  0
LINE
 8
GROUP0
10
442.729230533593
20
1872.8063166223
30
0.000204942945330089
11
445.327306744941
21
1871.3063166223
31
0.000209988413749329
  0
LINE
 8
GROUP0
10
445.327306744941
20
1871.3063166223
30
0.000209988413749329
11
445.327306744939
21
1868.3063166223
31
0.000211245738623944
  0
LINE
 8
GROUP0
10
445.327306744939
20
1868.3063166223
30
0.000211245738623944
11
442.729230533589
21
1866.8063166223
31
0.000207457594267169
  0
LINE
 8
GROUP0
10
455.023460206461
20
1879.90439223386
30
0.000203269318684818
11
457.62153641781
21
1878.40439223386
31
0.000208314787555253
  0
LINE
 8
GROUP0
10
457.62153641781
20
1878.40439223386
30
0.000208314787555253
11
457.621536417808
21
1875.40439223386
31
0.000209572111707956
  0
LINE
 8
GROUP0
10
457.621536417808
20
1875.40439223386
30
0.000209572111707956
11
455.023460206458
21
1873.90439223386
31
0.000205783967982853
  0
LINE
 8
GROUP0
10
455.023460206458
20
1873.90439223386
30
0.000205783967982853
11
452.425383995109
21
1875.40439223386
31
0.000200738499383135
  0
LINE
 8
GROUP0
10
452.425383995109
20
1875.40439223386
30
0.000200738499383135
11
452.425383995112
21
1878.40439223386
31
0.000199481174418281
  0
LINE
 8
GROUP0
10
452.425383995112
20
1878.40439223386
30
0.000199481174418281
11
455.023460206461
21
1879.90439223386
31
0.000203269318684818
  0
LINE
 8
GROUP0
10
441.229231572409
20
1864.20823981118
30
0.000202412335653435
11
441.229231572407
21
1861.20823981119
31
0.000204405840256072
  0
LINE
 8
GROUP0
10
441.229231572407
20
1861.20823981119
30
0.000204405840256072
11
438.631155361052
21
1859.70823981119
31
0.00020409454618644
  0
LINE
 8
GROUP0
10
438.631155361052
20
1859.70823981119
30
0.00020409454618644
11
436.033079149701
21
1861.20823981119
31
0.00020178974832632
  0
LINE
 8
GROUP0
10
436.033079149701
20
1861.20823981119
30
0.00020178974832632
11
436.033079149703
21
1864.20823981119
31
0.000199796243543204
  0
LINE
 8
GROUP0
10
436.033079149703
20
1864.20823981119
30
0.000199796243543204
11
438.631155361057
21
1865.70823981119
31
0.000200107536981164
  0
LINE
 8
GROUP0
10
438.631155361057
20
1865.70823981119
30
0.000200107536981164
11
441.229231572409
21
1864.20823981118
31
0.000202412335653435
  0
LINE
 8
GROUP0
10
452.425383995088
20
1864.20823981118
30
0.000180181828518045
11
455.023460206442
21
1865.70823981117
31
0.000180493122497438
  0
LINE
 8
GROUP0
10
455.023460206442
20
1865.70823981117
30
0.000180493122497438
11
457.621536417794
21
1864.20823981117
31
0.000182797920989231
  0
LINE
 8
GROUP0
10
457.621536417794
20
1864.20823981117
30
0.000182797920989231
11
457.621536417793
21
1861.20823981117
31
0.000184791425185793
  0
LINE
 8
GROUP0
10
457.621536417793
20
1861.20823981117
30
0.000184791425185793
11
455.023460206439
21
1859.70823981118
31
0.00018448013111616
  0
LINE
 8
GROUP0
10
455.023460206439
20
1859.70823981118
30
0.00018448013111616
11
452.425383995086
21
1861.20823981118
31
0.000182175332804846
  0
LINE
 8
GROUP0
10
452.425383995086
20
1861.20823981118
30
0.000182175332804846
11
452.425383995088
21
1864.20823981118
31
0.000180181828518045
  0
LINE
 8
GROUP0
10
442.729230533581
20
1852.61016419962
30
0.000204295812608635
11
440.131154322233
21
1854.11016419962
31
0.000199250344279633
  0
LINE
 8
GROUP0
10
440.131154322233
20
1854.11016419962
30
0.000199250344279633
11
440.131154322235
21
1857.11016419962
31
0.000197993019765974
  0
LINE
 8
GROUP0
10
440.131154322235
20
1857.11016419962
30
0.000197993019765974
11
442.729230533585
21
1858.61016419962
31
0.000201781164032511
  0
LINE
 8
GROUP0
10
442.729230533585
20
1858.61016419962
30
0.000201781164032511
11
445.327306744933
21
1857.11016419962
31
0.000206826632632229
  0
LINE
 8
GROUP0
10
445.327306744933
20
1857.11016419962
30
0.000206826632632229
11
445.327306744931
21
1854.11016419962
31
0.000208083957506844
  0
LINE
 8
GROUP0
10
445.327306744931
20
1854.11016419962
30
0.000208083957506844
11
442.729230533581
21
1852.61016419962
31
0.000204295812608635
  0
LINE
 8
GROUP0
10
460.621536417808
20
1875.40439223386
30
0.000200738499383135
11
460.62153641781
21
1878.40439223386
31
0.000199481174418281
  0
LINE
 8
GROUP0
10
460.62153641781
20
1878.40439223386
30
0.000199481174418281
11
463.219612629161
21
1879.90439223386
31
0.000203269318684818
  0
LINE
 8
GROUP0
10
463.219612629161
20
1879.90439223386
30
0.000203269318684818
11
465.817688840509
21
1878.40439223386
31
0.000208314787555253
  0
LINE
 8
GROUP0
10
465.817688840509
20
1878.40439223386
30
0.000208314787555253
11
465.817688840507
21
1875.40439223386
31
0.000209572111707956
  0
LINE
 8
GROUP0
10
465.817688840507
20
1875.40439223386
30
0.000209572111707956
11
463.219612629156
21
1873.90439223386
31
0.000205783967982853
  0
LINE
 8
GROUP0
10
463.219612629156
20
1873.90439223386
30
0.000205783967982853
11
460.621536417808
21
1875.40439223386
31
0.000200738499383135
  0
LINE
 8
GROUP0
10
440.131154322241
20
1882.50246904497
30
0.000202412126028406
11
440.131154322242
21
1885.50246904497
31
0.000201154801153791
  0
LINE
 8
GROUP0
10
440.131154322242
20
1885.50246904497
30
0.000201154801153791
11
442.729230533593
21
1887.00246904497
31
0.000204942945510567
  0
LINE
 8
GROUP0
10
442.729230533593
20
1887.00246904497
30
0.000204942945510567
11
445.327306744942
21
1885.50246904497
31
0.000209988414020046
  0
LINE
 8
GROUP0
10
445.327306744942
20
1885.50246904497
30
0.000209988414020046
11
445.327306744939
21
1882.50246904497
31
0.000211245738623944
  0
LINE
 8
GROUP0
10
445.327306744939
20
1882.50246904497
30
0.000211245738623944
11
442.729230533589
21
1881.00246904497
31
0.000207457593725735
  0
LINE
 8
GROUP0
10
442.729230533589
20
1881.00246904497
30
0.000207457593725735
11
440.131154322241
21
1882.50246904497
31
0.000202412126028406
  0
LINE
 8
GROUP0
10
459.12152212734
20
1881.00246904495
30
0.000229227527872666
11
456.523445915992
21
1882.50246904495
31
0.000224182058551037
  0
LINE
 8
GROUP0
10
456.523445915992
20
1882.50246904495
30
0.000224182058551037
11
456.523445915994
21
1885.50246904495
31
0.000222924734037377
  0
LINE
 8
GROUP0
10
456.523445915994
20
1885.50246904495
30
0.000222924734037377
11
459.121522127344
21
1887.00246904495
31
0.000226712878935587
  0
LINE
 8
GROUP0
10
459.121522127344
20
1887.00246904495
30
0.000226712878935587
11
461.719598338693
21
1885.50246904495
31
0.000231758346993871
  0
LINE
 8
GROUP0
10
461.719598338693
20
1885.50246904495
30
0.000231758346993871
11
461.719598338691
21
1882.50246904495
31
0.000233015670966097
  0
LINE
 8
GROUP0
10
461.719598338691
20
1882.50246904495
30
0.000233015670966097
11
459.12152212734
21
1881.00246904495
31
0.000229227527872666
  0
LINE
 8
GROUP0
10
434.533080188467
20
1881.00246904497
30
0.000207457593725735
11
431.935003977119
21
1882.50246904497
31
0.000202412126028406
  0
LINE
 8
GROUP0
10
431.935003977119
20
1882.50246904497
30
0.000202412126028406
11
431.935003977121
21
1885.50246904497
31
0.00020115480124403
  0
LINE
 8
GROUP0
10
431.935003977121
20
1885.50246904497
30
0.00020115480124403
11
434.533080188471
21
1887.00246904497
31
0.000204942945510567
  0
LINE
 8
GROUP0
10
434.533080188471
20
1887.00246904497
30
0.000204942945510567
11
437.131156399819
21
1885.50246904497
31
0.000209988414020046
  0
LINE
 8
GROUP0
10
437.131156399819
20
1885.50246904497
30
0.000209988414020046
11
437.131156399817
21
1882.50246904497
31
0.000211245738623944
  0
LINE
 8
GROUP0
10
437.131156399817
20
1882.50246904497
30
0.000211245738623944
11
434.533080188467
21
1881.00246904497
31
0.000207457593725735
  0
LINE
 8
GROUP0
10
360.767745275364
20
1852.6101465444
30
0.000124012105681715
11
358.169669064016
21
1854.1101465444
31
0.000118966637352713
  0
LINE
 8
GROUP0
10
358.169669064016
20
1854.1101465444
30
0.000118966637352713
11
358.169669064018
21
1857.1101465444
31
0.000117709312839054
  0
LINE
 8
GROUP0
10
358.169669064018
20
1857.1101465444
30
0.000117709312839054
11
360.767745275369
21
1858.6101465444
31
0.00012149745710559
  0
LINE
 8
GROUP0
10
360.767745275369
20
1858.6101465444
30
0.00012149745710559
11
363.365821486716
21
1857.1101465444
31
0.000126542925705309
  0
LINE
 8
GROUP0
10
363.365821486716
20
1857.1101465444
30
0.000126542925705309
11
363.365821486714
21
1854.1101465444
31
0.000127800250579924
  0
LINE
 8
GROUP0
10
363.365821486714
20
1854.1101465444
30
0.000127800250579924
11
360.767745275364
21
1852.6101465444
31
0.000124012105681715
  0
LINE
 8
GROUP0
10
370.463898736872
20
1864.20822215595
30
9.98981216362438e-005
11
373.061974948225
21
1865.70822215595
31
0.000100209415615637
  0
LINE
 8
GROUP0
10
373.061974948225
20
1865.70822215595
30
0.000100209415615637
11
375.660051159578
21
1864.20822215595
31
0.00010251421410743
  0
LINE
 8
GROUP0
10
375.660051159578
20
1864.20822215595
30
0.00010251421410743
11
375.660051159576
21
1861.20822215595
31
0.000104507718258873
  0
LINE
 8
GROUP0
10
375.660051159576
20
1861.20822215595
30
0.000104507718258873
11
373.061974948222
21
1859.70822215595
31
0.00010419642418924
  0
LINE
 8
GROUP0
10
373.061974948222
20
1859.70822215595
30
0.00010419642418924
11
370.46389873687
21
1861.20822215595
31
0.000101891625877926
  0
LINE
 8
GROUP0
10
370.46389873687
20
1861.20822215595
30
0.000101891625877926
11
370.463898736872
21
1864.20822215595
31
9.98981216362438e-005
  0
LINE
 8
GROUP0
10
383.85620358227
20
1864.20822215594
30
9.27070066850888e-005
11
383.856203582269
21
1861.20822215594
31
9.47005113779653e-005
  0
LINE
 8
GROUP0
10
383.856203582269
20
1861.20822215594
30
9.47005113779653e-005
11
381.258127370915
21
1859.70822215595
31
9.43892166766602e-005
  0
LINE
 8
GROUP0
10
381.258127370915
20
1859.70822215595
30
9.43892166766602e-005
11
378.660051159562
21
1861.20822215595
31
9.20844189067793e-005
  0
LINE
 8
GROUP0
10
378.660051159562
20
1861.20822215595
30
9.20844189067793e-005
11
378.660051159565
21
1864.20822215595
31
9.00909140334249e-005
  0
LINE
 8
GROUP0
10
378.660051159565
20
1864.20822215595
30
9.00909140334249e-005
11
381.258127370918
21
1865.70822215594
31
9.04022080128186e-005
  0
LINE
 8
GROUP0
10
381.258127370918
20
1865.70822215594
30
9.04022080128186e-005
11
383.85620358227
21
1864.20822215594
31
9.27070066850888e-005
  0
LINE
 8
GROUP0
10
382.758111002895
20
1871.30630338087
30
0.000151826987659831
11
385.356187214245
21
1872.80630338087
31
0.000155615131836129
  0
LINE
 8
GROUP0
10
385.356187214245
20
1872.80630338087
30
0.000155615131836129
11
387.954263425594
21
1871.30630338087
31
0.000160660600255369
  0
LINE
 8
GROUP0
10
387.954263425594
20
1871.30630338087
30
0.000160660600255369
11
387.954263425591
21
1868.30630338087
31
0.000161917925039745
  0
LINE
 8
GROUP0
10
387.954263425591
20
1868.30630338087
30
0.000161917925039745
11
385.356187214242
21
1866.80630338087
31
0.000158129780863447
  0
LINE
 8
GROUP0
10
385.356187214242
20
1866.80630338087
30
0.000158129780863447
11
382.758111002893
21
1868.30630338087
31
0.000153084311632057
  0
LINE
 8
GROUP0
10
382.758111002893
20
1868.30630338087
30
0.000153084311632057
11
382.758111002895
21
1871.30630338087
31
0.000151826987659831
  0
LINE
 8
GROUP0
10
389.454279793638
20
1873.90437457864
30
0.000125500261101053
11
386.85620358229
21
1875.40437457864
31
0.000120454792501334
  0
LINE
 8
GROUP0
10
386.85620358229
20
1875.40437457864
30
0.000120454792501334
11
386.856203582292
21
1878.40437457864
31
0.00011919746753648
  0
LINE
 8
GROUP0
10
386.856203582292
20
1878.40437457864
30
0.00011919746753648
11
389.454279793643
21
1879.90437457864
31
0.000122985611803017
  0
LINE
 8
GROUP0
10
389.454279793643
20
1879.90437457864
30
0.000122985611803017
11
392.05235600499
21
1878.40437457864
31
0.000128031080673452
  0
LINE
 8
GROUP0
10
392.05235600499
20
1878.40437457864
30
0.000128031080673452
11
392.052356004988
21
1875.40437457864
31
0.000129288404826156
  0
LINE
 8
GROUP0
10
392.052356004988
20
1875.40437457864
30
0.000129288404826156
11
389.454279793638
21
1873.90437457864
31
0.000125500261101053
  0
LINE
 8
GROUP0
10
355.1696711416
20
1868.30629896708
30
0.000130962031742143
11
352.57159493025
21
1866.80629896708
31
0.000127173887475607
  0
LINE
 8
GROUP0
10
352.57159493025
20
1866.80629896708
30
0.000127173887475607
11
349.973518718902
21
1868.30629896708
31
0.000122128419507561
  0
LINE
 8
GROUP0
10
349.973518718902
20
1868.30629896708
30
0.000122128419507561
11
349.973518718904
21
1871.30629896707
31
0.000120871094723185
  0
LINE
 8
GROUP0
10
349.973518718904
20
1871.30629896707
30
0.000120871094723185
11
352.571594930254
21
1872.80629896708
31
0.000124659238448288
  0
LINE
 8
GROUP0
10
352.571594930254
20
1872.80629896708
30
0.000124659238448288
11
355.169671141603
21
1871.30629896707
31
0.000129704706957767
  0
LINE
 8
GROUP0
10
355.169671141603
20
1871.30629896707
30
0.000129704706957767
11
355.1696711416
21
1868.30629896708
31
0.000130962031742143
  0
LINE
 8
GROUP0
10
379.758113080474
20
1882.50245138972
30
0.000152731964084296
11
377.160036869124
21
1881.00245138972
31
0.000148943820990866
  0
LINE
 8
GROUP0
10
377.160036869124
20
1881.00245138972
30
0.000148943820990866
11
374.561960657775
21
1882.50245138972
31
0.000143898351669236
  0
LINE
 8
GROUP0
10
374.561960657775
20
1882.50245138972
30
0.000143898351669236
11
374.561960657777
21
1885.50245138972
31
0.000142641027155577
  0
LINE
 8
GROUP0
10
374.561960657777
20
1885.50245138972
30
0.000142641027155577
11
377.160036869127
21
1887.00245138972
31
0.000146429172008666
  0
LINE
 8
GROUP0
10
377.160036869127
20
1887.00245138972
30
0.000146429172008666
11
379.758113080476
21
1885.50245138972
31
0.00015147464011207
  0
LINE
 8
GROUP0
10
379.758113080476
20
1885.50245138972
30
0.00015147464011207
11
379.758113080474
21
1882.50245138972
31
0.000152731964084296
  0
LINE
 8
GROUP0
10
366.365810312655
20
1871.30629896705
30
0.000142641027426293
11
368.963886524005
21
1872.80629896705
31
0.000146429171783069
  0
LINE
 8
GROUP0
10
368.963886524005
20
1872.80629896705
30
0.000146429171783069
11
371.561962735354
21
1871.30629896705
31
0.000151474639841354
  0
LINE
 8
GROUP0
10
371.561962735354
20
1871.30629896705
30
0.000151474639841354
11
371.561962735351
21
1868.30629896705
31
0.000152731964355013
  0
LINE
 8
GROUP0
10
371.561962735351
20
1868.30629896705
30
0.000152731964355013
11
368.963886524002
21
1866.80629896705
31
0.000148943821081104
  0
LINE
 8
GROUP0
10
368.963886524002
20
1866.80629896705
30
0.000148943821081104
11
366.365810312653
21
1868.30629896705
31
0.000143898351849714
  0
LINE
 8
GROUP0
10
366.365810312653
20
1868.30629896705
30
0.000143898351849714
11
366.365810312655
21
1871.30629896705
31
0.000142641027426293
  0
LINE
 8
GROUP0
10
382.758111002895
20
1885.50245580354
30
0.000151826987208636
11
385.356187214245
21
1887.00245580354
31
0.000155615131926368
  0
LINE
 8
GROUP0
10
385.356187214245
20
1887.00245580354
30
0.000155615131926368
11
387.954263425594
21
1885.50245580354
31
0.00016066060016513
  0
LINE
 8
GROUP0
10
387.954263425594
20
1885.50245580354
30
0.00016066060016513
11
387.954263425592
21
1882.50245580354
31
0.000161917924949506
  0
LINE
 8
GROUP0
10
387.954263425592
20
1882.50245580354
30
0.000161917924949506
11
385.356187214242
21
1881.00245580354
31
0.000158129780051297
  0
LINE
 8
GROUP0
10
385.356187214242
20
1881.00245580354
30
0.000158129780051297
11
382.758111002893
21
1882.50245580354
31
0.00015308431136134
  0
LINE
 8
GROUP0
10
382.758111002893
20
1882.50245580354
30
0.00015308431136134
11
382.758111002895
21
1885.50245580354
31
0.000151826987208636
  0
LINE
 8
GROUP0
10
375.660051159591
20
1875.40437457864
30
0.000129288404826156
11
373.061974948241
21
1873.90437457864
31
0.000125500261101053
  0
LINE
 8
GROUP0
10
373.061974948241
20
1873.90437457864
30
0.000125500261101053
11
370.463898736892
21
1875.40437457864
31
0.000120454792501334
  0
LINE
 8
GROUP0
10
370.463898736892
20
1875.40437457864
30
0.000120454792501334
11
370.463898736895
21
1878.40437457864
31
0.00011919746753648
  0
LINE
 8
GROUP0
10
370.463898736895
20
1878.40437457864
30
0.00011919746753648
11
373.061974948245
21
1879.90437457864
31
0.000122985611803017
  0
LINE
 8
GROUP0
10
373.061974948245
20
1879.90437457864
30
0.000122985611803017
11
375.660051159593
21
1878.40437457864
31
0.000128031080673452
  0
LINE
 8
GROUP0
10
375.660051159593
20
1878.40437457864
30
0.000128031080673452
11
375.660051159591
21
1875.40437457864
31
0.000129288404826156
  0
LINE
 8
GROUP0
10
349.973518718896
20
1857.1101465444
30
0.000117709312929293
11
352.571594930246
21
1858.6101465444
31
0.000121497457827502
  0
LINE
 8
GROUP0
10
352.571594930246
20
1858.6101465444
30
0.000121497457827502
11
355.169671141595
21
1857.1101465444
31
0.000126542925795547
  0
LINE
 8
GROUP0
10
355.169671141595
20
1857.1101465444
30
0.000126542925795547
11
355.169671141593
21
1854.1101465444
31
0.000127800250489685
  0
LINE
 8
GROUP0
10
355.169671141593
20
1854.1101465444
30
0.000127800250489685
11
352.571594930242
21
1852.6101465444
31
0.000124012105681715
  0
LINE
 8
GROUP0
10
352.571594930242
20
1852.6101465444
30
0.000124012105681715
11
349.973518718893
21
1854.1101465444
31
0.000118966637352713
  0
LINE
 8
GROUP0
10
349.973518718893
20
1854.1101465444
30
0.000118966637352713
11
349.973518718896
21
1857.1101465444
31
0.000117709312929293
  0
LINE
 8
GROUP0
10
382.758111002885
20
1854.11015095819
30
0.000149922529838165
11
382.758111002887
21
1857.11015095819
31
0.000148665206317133
  0
LINE
 8
GROUP0
10
382.758111002887
20
1857.11015095819
30
0.000148665206317133
11
385.356187214238
21
1858.61015095819
31
0.000152453350042236
  0
LINE
 8
GROUP0
10
385.356187214238
20
1858.61015095819
30
0.000152453350042236
11
387.954263425585
21
1857.11015095819
31
0.000157498818732194
  0
LINE
 8
GROUP0
10
387.954263425585
20
1857.11015095819
30
0.000157498818732194
11
387.954263425584
21
1854.11015095819
31
0.000158756142794658
  0
LINE
 8
GROUP0
10
387.954263425584
20
1854.11015095819
30
0.000158756142794658
11
385.356187214233
21
1852.61015095819
31
0.000154967999159794
  0
LINE
 8
GROUP0
10
385.356187214233
20
1852.61015095819
30
0.000154967999159794
11
382.758111002885
21
1854.11015095819
31
0.000149922529838165
  0
LINE
 8
GROUP0
10
367.463898736885
20
1864.20822215596
30
0.000112321421529771
11
367.463898736883
21
1861.20822215596
31
0.000114314926042169
  0
LINE
 8
GROUP0
10
367.463898736883
20
1861.20822215596
30
0.000114314926042169
11
364.86582252553
21
1859.70822215596
31
0.000114003632062776
  0
LINE
 8
GROUP0
10
364.86582252553
20
1859.70822215596
30
0.000114003632062776
11
362.267746314177
21
1861.20822215596
31
0.000111698833661222
  0
LINE
 8
GROUP0
10
362.267746314177
20
1861.20822215596
30
0.000111698833661222
11
362.267746314179
21
1864.20822215596
31
0.000109705328787868
  0
LINE
 8
GROUP0
10
362.267746314179
20
1864.20822215596
30
0.000109705328787868
11
364.865822525533
21
1865.70822215596
31
0.00011001662294774
  0
LINE
 8
GROUP0
10
364.865822525533
20
1865.70822215596
30
0.00011001662294774
11
367.463898736885
21
1864.20822215596
31
0.000112321421529771
  0
LINE
 8
GROUP0
10
359.267746314192
20
1864.20822215596
30
0.000122128628771634
11
359.26774631419
21
1861.20822215596
31
0.000124122133374271
  0
LINE
 8
GROUP0
10
359.26774631419
20
1861.20822215596
30
0.000124122133374271
11
356.669670102836
21
1859.70822215596
31
0.000123810839304639
  0
LINE
 8
GROUP0
10
356.669670102836
20
1859.70822215596
30
0.000123810839304639
11
354.071593891485
21
1861.20822215596
31
0.000121506041444519
  0
LINE
 8
GROUP0
10
354.071593891485
20
1861.20822215596
30
0.000121506041444519
11
354.071593891487
21
1864.20822215596
31
0.000119512536661404
  0
LINE
 8
GROUP0
10
354.071593891487
20
1864.20822215596
30
0.000119512536661404
11
356.66967010284
21
1865.70822215596
31
0.000119823830099364
  0
LINE
 8
GROUP0
10
356.66967010284
20
1865.70822215596
30
0.000119823830099364
11
359.267746314192
21
1864.20822215596
31
0.000122128628771634
  0
LINE
 8
GROUP0
10
358.169669064026
20
1871.30629896707
30
0.000120871094723185
11
360.767745275377
21
1872.80629896708
31
0.000124659238448288
  0
LINE
 8
GROUP0
10
360.767745275377
20
1872.80629896708
30
0.000124659238448288
11
363.365821486724
21
1871.30629896707
31
0.000129704706867528
  0
LINE
 8
GROUP0
10
363.365821486724
20
1871.30629896707
30
0.000129704706867528
11
363.365821486722
21
1868.30629896708
31
0.000130962031742143
  0
LINE
 8
GROUP0
10
363.365821486722
20
1868.30629896708
30
0.000130962031742143
11
360.767745275372
21
1866.80629896708
31
0.000127173887385368
  0
LINE
 8
GROUP0
10
360.767745275372
20
1866.80629896708
30
0.000127173887385368
11
358.169669064024
21
1868.30629896708
31
0.000122128419507561
  0
LINE
 8
GROUP0
10
358.169669064024
20
1868.30629896708
30
0.000122128419507561
11
358.169669064026
21
1871.30629896707
31
0.000120871094723185
  0
LINE
 8
GROUP0
10
389.454279793611
20
1865.70822215594
30
8.05950007709555e-005
11
392.052356004962
21
1864.20822215594
31
8.28997995334646e-005
  0
LINE
 8
GROUP0
10
392.052356004962
20
1864.20822215594
30
8.28997995334646e-005
11
392.052356004961
21
1861.20822215594
31
8.48933034141908e-005
  0
LINE
 8
GROUP0
10
392.052356004961
20
1861.20822215594
30
8.48933034141908e-005
11
389.454279793608
21
1859.70822215594
31
8.45820097055139e-005
  0
LINE
 8
GROUP0
10
389.454279793608
20
1859.70822215594
30
8.45820097055139e-005
11
386.856203582256
21
1861.20822215594
31
8.22772116649162e-005
  0
LINE
 8
GROUP0
10
386.856203582256
20
1861.20822215594
30
8.22772116649162e-005
11
386.856203582258
21
1864.20822215594
31
8.02837068818008e-005
  0
LINE
 8
GROUP0
10
386.856203582258
20
1864.20822215594
30
8.02837068818008e-005
11
389.454279793611
21
1865.70822215594
31
8.05950007709555e-005
  0
LINE
 8
GROUP0
10
362.267746314196
20
1878.40437457864
30
0.00011919746753648
11
364.865822525546
21
1879.90437457864
31
0.0001229856115323
  0
LINE
 8
GROUP0
10
364.865822525546
20
1879.90437457864
30
0.0001229856115323
11
367.463898736895
21
1878.40437457864
31
0.000128031080673452
  0
LINE
 8
GROUP0
10
367.463898736895
20
1878.40437457864
30
0.000128031080673452
11
367.463898736893
21
1875.40437457864
31
0.000129288404826156
  0
LINE
 8
GROUP0
10
367.463898736893
20
1875.40437457864
30
0.000129288404826156
11
364.865822525543
21
1873.90437457864
31
0.000125500261101053
  0
LINE
 8
GROUP0
10
364.865822525543
20
1873.90437457864
30
0.000125500261101053
11
362.267746314194
21
1875.40437457864
31
0.000120454792501334
  0
LINE
 8
GROUP0
10
362.267746314194
20
1875.40437457864
30
0.000120454792501334
11
362.267746314196
21
1878.40437457864
31
0.00011919746753648
  0
LINE
 8
GROUP0
10
354.071593891498
20
1878.40437457864
30
0.00011919746753648
11
356.669670102848
21
1879.90437457864
31
0.000122985611803017
  0
LINE
 8
GROUP0
10
356.669670102848
20
1879.90437457864
30
0.000122985611803017
11
359.267746314196
21
1878.40437457864
31
0.000128031080673452
  0
LINE
 8
GROUP0
10
359.267746314196
20
1878.40437457864
30
0.000128031080673452
11
359.267746314194
21
1875.40437457864
31
0.000129288404826156
  0
LINE
 8
GROUP0
10
359.267746314194
20
1875.40437457864
30
0.000129288404826156
11
356.669670102844
21
1873.90437457864
31
0.000125500261101053
  0
LINE
 8
GROUP0
10
356.669670102844
20
1873.90437457864
30
0.000125500261101053
11
354.071593891495
21
1875.40437457864
31
0.000120454792501334
  0
LINE
 8
GROUP0
10
354.071593891495
20
1875.40437457864
30
0.000120454792501334
11
354.071593891498
21
1878.40437457864
31
0.00011919746753648
  0
LINE
 8
GROUP0
10
352.57159493025
20
1881.00245138975
30
0.000127173886843934
11
349.973518718902
21
1882.50245138975
31
0.000122128419101486
  0
LINE
 8
GROUP0
10
349.973518718902
20
1882.50245138975
30
0.000122128419101486
11
349.973518718904
21
1885.50245138975
31
0.00012087109431711
  0
LINE
 8
GROUP0
10
349.973518718904
20
1885.50245138975
30
0.00012087109431711
11
352.571594930254
21
1887.00245138975
31
0.000124659238583646
  0
LINE
 8
GROUP0
10
352.571594930254
20
1887.00245138975
30
0.000124659238583646
11
355.169671141603
21
1885.50245138975
31
0.000129704707093126
  0
LINE
 8
GROUP0
10
355.169671141603
20
1885.50245138975
30
0.000129704707093126
11
355.1696711416
21
1882.50245138975
31
0.000130962031742143
  0
LINE
 8
GROUP0
10
355.1696711416
20
1882.50245138975
30
0.000130962031742143
11
352.57159493025
21
1881.00245138975
31
0.000127173886843934
  0
LINE
 8
GROUP0
10
377.160036869127
20
1872.80629896705
30
0.000146429171783069
11
379.758113080476
21
1871.30629896705
31
0.000151474639751115
  0
LINE
 8
GROUP0
10
379.758113080476
20
1871.30629896705
30
0.000151474639751115
11
379.758113080474
21
1868.30629896705
31
0.000152731964355013
  0
LINE
 8
GROUP0
10
379.758113080474
20
1868.30629896705
30
0.000152731964355013
11
377.160036869124
21
1866.80629896705
31
0.000148943821081104
  0
LINE
 8
GROUP0
10
377.160036869124
20
1866.80629896705
30
0.000148943821081104
11
374.561960657775
21
1868.30629896705
31
0.000143898351849714
  0
LINE
 8
GROUP0
10
374.561960657775
20
1868.30629896705
30
0.000143898351849714
11
374.561960657777
21
1871.30629896705
31
0.00014264102769701
  0
LINE
 8
GROUP0
10
374.561960657777
20
1871.30629896705
30
0.00014264102769701
11
377.160036869127
21
1872.80629896705
31
0.000146429171783069
  0
LINE
 8
GROUP0
10
381.25812737094
20
1873.90437457864
30
0.000125500261101053
11
378.660051159592
21
1875.40437457864
31
0.000120454792501334
  0
LINE
 8
GROUP0
10
378.660051159592
20
1875.40437457864
30
0.000120454792501334
11
378.660051159594
21
1878.40437457864
31
0.00011919746753648
  0
LINE
 8
GROUP0
10
378.660051159594
20
1878.40437457864
30
0.00011919746753648
11
381.258127370944
21
1879.90437457864
31
0.000122985611803017
  0
LINE
 8
GROUP0
10
381.258127370944
20
1879.90437457864
30
0.000122985611803017
11
383.856203582292
21
1878.40437457864
31
0.000128031080673452
  0
LINE
 8
GROUP0
10
383.856203582292
20
1878.40437457864
30
0.000128031080673452
11
383.85620358229
21
1875.40437457864
31
0.000129288404826156
  0
LINE
 8
GROUP0
10
383.85620358229
20
1875.40437457864
30
0.000129288404826156
11
381.25812737094
21
1873.90437457864
31
0.000125500261101053
  0
LINE
 8
GROUP0
10
363.365821486722
20
1882.50245138975
30
0.000130962031742143
11
360.767745275372
21
1881.00245138975
31
0.000127173886843934
  0
LINE
 8
GROUP0
10
360.767745275372
20
1881.00245138975
30
0.000127173886843934
11
358.169669064024
21
1882.50245138975
31
0.000122128419146605
  0
LINE
 8
GROUP0
10
358.169669064024
20
1882.50245138975
30
0.000122128419146605
11
358.169669064026
21
1885.50245138975
31
0.000120871094226871
  0
LINE
 8
GROUP0
10
358.169669064026
20
1885.50245138975
30
0.000120871094226871
11
360.767745275376
21
1887.00245138975
31
0.000124659238583646
  0
LINE
 8
GROUP0
10
360.767745275376
20
1887.00245138975
30
0.000124659238583646
11
363.365821486725
21
1885.50245138975
31
0.000129704707093126
  0
LINE
 8
GROUP0
10
363.365821486725
20
1885.50245138975
30
0.000129704707093126
11
363.365821486722
21
1882.50245138975
31
0.000130962031742143
  0
LINE
 8
GROUP0
10
436.033079149714
20
1878.40439223386
30
0.000199481174418281
11
438.631155361064
21
1879.90439223386
31
0.000203269318684818
  0
LINE
 8
GROUP0
10
438.631155361064
20
1879.90439223386
30
0.000203269318684818
11
441.229231572413
21
1878.40439223386
31
0.000208314787555253
  0
LINE
 8
GROUP0
10
441.229231572413
20
1878.40439223386
30
0.000208314787555253
11
441.22923157241
21
1875.40439223386
31
0.000209572111707956
  0
LINE
 8
GROUP0
10
441.22923157241
20
1875.40439223386
30
0.000209572111707956
11
438.631155361061
21
1873.90439223386
31
0.000205783967982853
  0
LINE
 8
GROUP0
10
438.631155361061
20
1873.90439223386
30
0.000205783967982853
11
436.033079149712
21
1875.40439223386
31
0.000200738499383135
  0
LINE
 8
GROUP0
10
436.033079149712
20
1875.40439223386
30
0.000200738499383135
11
436.033079149714
21
1878.40439223386
31
0.000199481174418281
  0
LINE
 8
GROUP0
10
444.229231572413
20
1878.40439223386
30
0.000199481174418281
11
446.827307783763
21
1879.90439223386
31
0.000203269318414101
  0
LINE
 8
GROUP0
10
446.827307783763
20
1879.90439223386
30
0.000203269318414101
11
449.425383995112
21
1878.40439223386
31
0.000208314787555253
  0
LINE
 8
GROUP0
10
449.425383995112
20
1878.40439223386
30
0.000208314787555253
11
449.425383995109
21
1875.40439223386
31
0.000209572111707956
  0
LINE
 8
GROUP0
10
449.425383995109
20
1875.40439223386
30
0.000209572111707956
11
446.827307783759
21
1873.90439223386
31
0.000205783967982853
  0
LINE
 8
GROUP0
10
446.827307783759
20
1873.90439223386
30
0.000205783967982853
11
444.229231572411
21
1875.40439223386
31
0.000200738499383135
  0
LINE
 8
GROUP0
10
444.229231572411
20
1875.40439223386
30
0.000200738499383135
11
444.229231572413
21
1878.40439223386
31
0.000199481174418281
  0
LINE
 8
GROUP0
10
374.561960657767
20
1854.11014654438
30
0.000140736569965583
11
374.56196065777
21
1857.11014654437
31
0.000139479245451923
  0
LINE
 8
GROUP0
10
374.56196065777
20
1857.11014654437
30
0.000139479245451923
11
377.16003686912
21
1858.61014654437
31
0.000143267390169655
  0
LINE
 8
GROUP0
10
377.16003686912
20
1858.61014654437
30
0.000143267390169655
11
379.758113080468
21
1857.11014654437
31
0.000148312858498656
  0
LINE
 8
GROUP0
10
379.758113080468
20
1857.11014654437
30
0.000148312858498656
11
379.758113080465
21
1854.11014654437
31
0.000149570183192793
  0
LINE
 8
GROUP0
10
379.758113080465
20
1854.11014654437
30
0.000149570183192793
11
377.160036869116
21
1852.61014654438
31
0.000145782038565301
  0
LINE
 8
GROUP0
10
377.160036869116
20
1852.61014654438
30
0.000145782038565301
11
374.561960657767
21
1854.11014654438
31
0.000140736569965583
  0
LINE
 8
GROUP0
10
371.561962735352
20
1882.50245138972
30
0.000152731964084296
11
368.963886524002
21
1881.00245138972
31
0.000148943820990866
  0
LINE
 8
GROUP0
10
368.963886524002
20
1881.00245138972
30
0.000148943820990866
11
366.365810312653
21
1882.50245138972
31
0.000143898351669236
  0
LINE
 8
GROUP0
10
366.365810312653
20
1882.50245138972
30
0.000143898351669236
11
366.365810312654
21
1885.50245138972
31
0.000142641027200696
  0
LINE
 8
GROUP0
10
366.365810312654
20
1885.50245138972
30
0.000142641027200696
11
368.963886524006
21
1887.00245138972
31
0.000146429172008666
  0
LINE
 8
GROUP0
10
368.963886524006
20
1887.00245138972
30
0.000146429172008666
11
371.561962735354
21
1885.50245138972
31
0.00015147464015719
  0
LINE
 8
GROUP0
10
371.561962735354
20
1885.50245138972
30
0.00015147464015719
11
371.561962735352
21
1882.50245138972
31
0.000152731964084296
  0
LINE
 8
GROUP0
10
464.71959626111
20
1882.50247345877
30
0.000233368018243141
11
464.719596261112
21
1885.50247345877
31
0.000232110694090437
  0
LINE
 8
GROUP0
10
464.719596261112
20
1885.50247345877
30
0.000232110694090437
11
467.317672472462
21
1887.00247345877
31
0.000235898838808168
  0
LINE
 8
GROUP0
10
467.317672472462
20
1887.00247345877
30
0.000235898838808168
11
469.915748683811
21
1885.50247345877
31
0.000240944307046931
  0
LINE
 8
GROUP0
10
469.915748683811
20
1885.50247345877
30
0.000240944307046931
11
469.915748683808
21
1882.50247345877
31
0.000242201631831307
  0
LINE
 8
GROUP0
10
469.915748683808
20
1882.50247345877
30
0.000242201631831307
11
467.317672472458
21
1881.00247345877
31
0.000238413486933098
  0
LINE
 8
GROUP0
10
467.317672472458
20
1881.00247345877
30
0.000238413486933098
11
464.71959626111
21
1882.50247345877
31
0.000233368018243141
  0
LINE
 8
GROUP0
10
453.523447993569
20
1882.50246904495
30
0.000233015670966097
11
450.925371782219
21
1881.00246904495
31
0.000229227527872666
  0
LINE
 8
GROUP0
10
450.925371782219
20
1881.00246904495
30
0.000229227527872666
11
448.32729557087
21
1882.50246904495
31
0.000224182058551037
  0
LINE
 8
GROUP0
10
448.32729557087
20
1882.50246904495
30
0.000224182058551037
11
448.327295570871
21
1885.50246904495
31
0.000222924734127616
  0
LINE
 8
GROUP0
10
448.327295570871
20
1885.50246904495
30
0.000222924734127616
11
450.925371782222
21
1887.00246904495
31
0.000226712878935587
  0
LINE
 8
GROUP0
10
450.925371782222
20
1887.00246904495
30
0.000226712878935587
11
453.523447993571
21
1885.50246904495
31
0.00023175834708411
  0
LINE
 8
GROUP0
10
453.523447993571
20
1885.50246904495
30
0.00023175834708411
11
453.523447993569
21
1882.50246904495
31
0.000233015670966097
  0
LINE
 8
GROUP0
10
371.561962735343
20
1854.11014654437
30
0.000149570183192793
11
368.963886523994
21
1852.61014654438
31
0.000145782038565301
  0
LINE
 8
GROUP0
10
368.963886523994
20
1852.61014654438
30
0.000145782038565301
11
366.365810312645
21
1854.11014654437
31
0.000140736570416777
  0
LINE
 8
GROUP0
10
366.365810312645
20
1854.11014654437
30
0.000140736570416777
11
366.365810312647
21
1857.11014654437
31
0.000139479245542162
  0
LINE
 8
GROUP0
10
366.365810312647
20
1857.11014654437
30
0.000139479245542162
11
368.963886523998
21
1858.61014654437
31
0.000143267390259894
  0
LINE
 8
GROUP0
10
368.963886523998
20
1858.61014654437
30
0.000143267390259894
11
371.561962735345
21
1857.11014654437
31
0.000148312858679134
  0
LINE
 8
GROUP0
10
371.561962735345
20
1857.11014654437
30
0.000148312858679134
11
371.561962735343
21
1854.11014654437
31
0.000149570183192793
  0
LINE
 8
GROUP0
10
399.150411693132
20
1868.30630779469
30
0.000162270272948462
11
399.150411693135
21
1871.30630779469
31
0.000161012948164085
  0
LINE
 8
GROUP0
10
399.150411693135
20
1871.30630779469
30
0.000161012948164085
11
401.748487904485
21
1872.80630779469
31
0.000164801091889188
  0
LINE
 8
GROUP0
10
401.748487904485
20
1872.80630779469
30
0.000164801091889188
11
404.346564115832
21
1871.30630779469
31
0.000169846560308429
  0
LINE
 8
GROUP0
10
404.346564115832
20
1871.30630779469
30
0.000169846560308429
11
404.34656411583
21
1868.30630779469
31
0.000171103885183044
  0
LINE
 8
GROUP0
10
404.34656411583
20
1868.30630779469
30
0.000171103885183044
11
401.748487904481
21
1866.80630779469
31
0.000167315740826268
  0
LINE
 8
GROUP0
10
401.748487904481
20
1866.80630779469
30
0.000167315740826268
11
399.150411693132
21
1868.30630779469
31
0.000162270272948462
  0
LINE
 8
GROUP0
10
427.836946211401
20
1878.40438340625
30
0.000159339320977381
11
430.435022422751
21
1879.90438340625
31
0.000163127465243917
  0
LINE
 8
GROUP0
10
430.435022422751
20
1879.90438340625
30
0.000163127465243917
11
433.033098634099
21
1878.40438340625
31
0.000168172934114352
  0
LINE
 8
GROUP0
10
433.033098634099
20
1878.40438340625
30
0.000168172934114352
11
433.033098634097
21
1875.40438340625
31
0.000169430258267056
  0
LINE
 8
GROUP0
10
433.033098634097
20
1875.40438340625
30
0.000169430258267056
11
430.435022422747
21
1873.90438340625
31
0.000165642114541953
  0
LINE
 8
GROUP0
10
430.435022422747
20
1873.90438340625
30
0.000165642114541953
11
427.836946211399
21
1875.40438340625
31
0.000160596645942235
  0
LINE
 8
GROUP0
10
427.836946211399
20
1875.40438340625
30
0.000160596645942235
11
427.836946211401
21
1878.40438340625
31
0.000159339320977381
  0
LINE
 8
GROUP0
10
338.77737045136
20
1857.11013771676
30
0.000108171005057756
11
338.777370451357
21
1854.11013771676
31
0.000109428329751893
  0
LINE
 8
GROUP0
10
338.777370451357
20
1854.11013771676
30
0.000109428329751893
11
336.179294240008
21
1852.61013771676
31
0.0001056401851244
  0
LINE
 8
GROUP0
10
336.179294240008
20
1852.61013771676
30
0.0001056401851244
11
333.581218028659
21
1854.11013771676
31
0.000100594716524682
  0
LINE
 8
GROUP0
10
333.581218028659
20
1854.11013771676
30
0.000100594716524682
11
333.581218028661
21
1857.11013771676
31
9.9337392011023e-005
  0
LINE
 8
GROUP0
10
333.581218028661
20
1857.11013771676
30
9.9337392011023e-005
11
336.179294240011
21
1858.61013771676
31
0.000103125536728754
  0
LINE
 8
GROUP0
10
336.179294240011
20
1858.61013771676
30
0.000103125536728754
11
338.77737045136
21
1857.11013771676
31
0.000108171005057756
  0
LINE
 8
GROUP0
10
399.150411693132
20
1882.50246021736
30
0.000162270272587506
11
399.150411693134
21
1885.50246021736
31
0.000161012947712891
  0
LINE
 8
GROUP0
10
399.150411693134
20
1885.50246021736
30
0.000161012947712891
11
401.748487904485
21
1887.00246021736
31
0.000164801092069666
  0
LINE
 8
GROUP0
10
401.748487904485
20
1887.00246021736
30
0.000164801092069666
11
404.346564115833
21
1885.50246021736
31
0.000169846560579145
  0
LINE
 8
GROUP0
10
404.346564115833
20
1885.50246021736
30
0.000169846560579145
11
404.34656411583
21
1882.50246021736
31
0.000171103885183044
  0
LINE
 8
GROUP0
10
404.34656411583
20
1882.50246021736
30
0.000171103885183044
11
401.748487904481
21
1881.00246021736
31
0.000167315740284835
  0
LINE
 8
GROUP0
10
401.748487904481
20
1881.00246021736
30
0.000167315740284835
11
399.150411693132
21
1882.50246021736
31
0.000162270272587506
  0
LINE
 8
GROUP0
10
396.150413770709
20
1868.30630779469
30
0.000171103885183044
11
393.552337559359
21
1866.80630779469
31
0.000167315740916507
  0
LINE
 8
GROUP0
10
393.552337559359
20
1866.80630779469
30
0.000167315740916507
11
390.95426134801
21
1868.30630779469
31
0.000162270272948462
  0
LINE
 8
GROUP0
10
390.95426134801
20
1868.30630779469
30
0.000162270272948462
11
390.954261348013
21
1871.30630779469
31
0.000161012948164085
  0
LINE
 8
GROUP0
10
390.954261348013
20
1871.30630779469
30
0.000161012948164085
11
393.552337559363
21
1872.80630779469
31
0.000164801091889188
  0
LINE
 8
GROUP0
10
393.552337559363
20
1872.80630779469
30
0.000164801091889188
11
396.150413770711
21
1871.30630779469
31
0.000169846560398668
  0
LINE
 8
GROUP0
10
396.150413770711
20
1871.30630779469
30
0.000169846560398668
11
396.150413770709
21
1868.30630779469
31
0.000171103885183044
  0
LINE
 8
GROUP0
10
415.542703286886
20
1871.30630779466
30
0.000182782881137911
11
418.140779498236
21
1872.80630779466
31
0.000186571025223969
  0
LINE
 8
GROUP0
10
418.140779498236
20
1872.80630779466
30
0.000186571025223969
11
420.738855709584
21
1871.30630779466
31
0.000191616493192015
  0
LINE
 8
GROUP0
10
420.738855709584
20
1871.30630779466
30
0.000191616493192015
11
420.738855709582
21
1868.30630779466
31
0.000192873817795913
  0
LINE
 8
GROUP0
10
420.738855709582
20
1868.30630779466
30
0.000192873817795913
11
418.140779498232
21
1866.80630779466
31
0.000189085674522005
  0
LINE
 8
GROUP0
10
418.140779498232
20
1866.80630779466
30
0.000189085674522005
11
415.542703286884
21
1868.30630779466
31
0.000184040205290614
  0
LINE
 8
GROUP0
10
415.542703286884
20
1868.30630779466
30
0.000184040205290614
11
415.542703286886
21
1871.30630779466
31
0.000182782881137911
  0
LINE
 8
GROUP0
10
308.992776089788
20
1857.11013771679
30
7.75674594883924e-005
11
311.590852301138
21
1858.61013771679
31
8.13556043866015e-005
  0
LINE
 8
GROUP0
10
311.590852301138
20
1858.61013771679
30
8.13556043866015e-005
11
314.188928512486
21
1857.11013771679
31
8.64010723546471e-005
  0
LINE
 8
GROUP0
10
314.188928512486
20
1857.11013771679
30
8.64010723546471e-005
11
314.188928512485
21
1854.11013771679
31
8.76583970487843e-005
  0
LINE
 8
GROUP0
10
314.188928512485
20
1854.11013771679
30
8.76583970487843e-005
11
311.590852301134
21
1852.61013771679
31
8.38702522408141e-005
  0
LINE
 8
GROUP0
10
311.590852301134
20
1852.61013771679
30
8.38702522408141e-005
11
308.992776089785
21
1854.11013771679
31
7.88247839118128e-005
  0
LINE
 8
GROUP0
10
308.992776089785
20
1854.11013771679
30
7.88247839118128e-005
11
308.992776089788
21
1857.11013771679
31
7.75674594883924e-005
  0
LINE
 8
GROUP0
10
397.650412731956
20
1879.90438340625
30
0.000163127465243917
11
400.248488943305
21
1878.40438340625
31
0.000168172934114352
  0
LINE
 8
GROUP0
10
400.248488943305
20
1878.40438340625
30
0.000168172934114352
11
400.248488943302
21
1875.40438340625
31
0.000169430258267056
  0
LINE
 8
GROUP0
10
400.248488943302
20
1875.40438340625
30
0.000169430258267056
11
397.650412731952
21
1873.90438340625
31
0.000165642114541953
  0
LINE
 8
GROUP0
10
397.650412731952
20
1873.90438340625
30
0.000165642114541953
11
395.052336520604
21
1875.40438340625
31
0.000160596645942235
  0
LINE
 8
GROUP0
10
395.052336520604
20
1875.40438340625
30
0.000160596645942235
11
395.052336520606
21
1878.40438340625
31
0.000159339320977381
  0
LINE
 8
GROUP0
10
395.052336520606
20
1878.40438340625
30
0.000159339320977381
11
397.650412731956
21
1879.90438340625
31
0.000163127465243917
  0
LINE
 8
GROUP0
10
414.042717577349
20
1873.90438340625
30
0.000165642114541953
11
411.444641366001
21
1875.40438340625
31
0.000160596645942235
  0
LINE
 8
GROUP0
10
411.444641366001
20
1875.40438340625
30
0.000160596645942235
11
411.444641366004
21
1878.40438340625
31
0.000159339320977381
  0
LINE
 8
GROUP0
10
411.444641366004
20
1878.40438340625
30
0.000159339320977381
11
414.042717577353
21
1879.90438340625
31
0.000163127465243917
  0
LINE
 8
GROUP0
10
414.042717577353
20
1879.90438340625
30
0.000163127465243917
11
416.640793788702
21
1878.40438340625
31
0.000168172934114352
  0
LINE
 8
GROUP0
10
416.640793788702
20
1878.40438340625
30
0.000168172934114352
11
416.6407937887
21
1875.40438340625
31
0.000169430258267056
  0
LINE
 8
GROUP0
10
416.6407937887
20
1875.40438340625
30
0.000169430258267056
11
414.042717577349
21
1873.90438340625
31
0.000165642114541953
  0
LINE
 8
GROUP0
10
419.640793788702
20
1878.40438340625
30
0.000159339320977381
11
422.238870000052
21
1879.90438340625
31
0.000163127465243917
  0
LINE
 8
GROUP0
10
422.238870000052
20
1879.90438340625
30
0.000163127465243917
11
424.836946211401
21
1878.40438340625
31
0.000168172934114352
  0
LINE
 8
GROUP0
10
424.836946211401
20
1878.40438340625
30
0.000168172934114352
11
424.836946211398
21
1875.40438340625
31
0.000169430258267056
  0
LINE
 8
GROUP0
10
424.836946211398
20
1875.40438340625
30
0.000169430258267056
11
422.238870000048
21
1873.90438340625
31
0.000165642114541953
  0
LINE
 8
GROUP0
10
422.238870000048
20
1873.90438340625
30
0.000165642114541953
11
419.6407937887
21
1875.40438340625
31
0.000160596645942235
  0
LINE
 8
GROUP0
10
419.6407937887
20
1875.40438340625
30
0.000160596645942235
11
419.640793788702
21
1878.40438340625
31
0.000159339320977381
  0
LINE
 8
GROUP0
10
428.935006054702
20
1885.50246463115
30
0.00020080245360603
11
428.9350060547
21
1882.50246463115
31
0.000202059778390407
  0
LINE
 8
GROUP0
10
428.9350060547
20
1882.50246463115
30
0.000202059778390407
11
426.33692984335
21
1881.00246463116
31
0.000198271633492197
  0
LINE
 8
GROUP0
10
426.33692984335
20
1881.00246463116
30
0.000198271633492197
11
423.738853632001
21
1882.50246463116
31
0.00019322616480224
  0
LINE
 8
GROUP0
10
423.738853632001
20
1882.50246463116
30
0.00019322616480224
11
423.738853632004
21
1885.50246463115
31
0.000191968840649537
  0
LINE
 8
GROUP0
10
423.738853632004
20
1885.50246463115
30
0.000191968840649537
11
426.336929843353
21
1887.00246463115
31
0.000195756985367268
  0
LINE
 8
GROUP0
10
426.336929843353
20
1887.00246463115
30
0.000195756985367268
11
428.935006054702
21
1885.50246463115
31
0.00020080245360603
  0
LINE
 8
GROUP0
10
408.444641366001
20
1875.40438340625
30
0.000169430258267056
11
405.846565154651
21
1873.90438340625
31
0.000165642114541953
  0
LINE
 8
GROUP0
10
405.846565154651
20
1873.90438340625
30
0.000165642114541953
11
403.248488943303
21
1875.40438340625
31
0.000160596645942235
  0
LINE
 8
GROUP0
10
403.248488943303
20
1875.40438340625
30
0.000160596645942235
11
403.248488943305
21
1878.40438340625
31
0.000159339320977381
  0
LINE
 8
GROUP0
10
403.248488943305
20
1878.40438340625
30
0.000159339320977381
11
405.846565154655
21
1879.90438340625
31
0.000163127464973201
  0
LINE
 8
GROUP0
10
405.846565154655
20
1879.90438340625
30
0.000163127464973201
11
408.444641366003
21
1878.40438340625
31
0.000168172934114352
  0
LINE
 8
GROUP0
10
408.444641366003
20
1878.40438340625
30
0.000168172934114352
11
408.444641366001
21
1875.40438340625
31
0.000169430258267056
  0
LINE
 8
GROUP0
10
330.581220106235
20
1854.11013771676
30
0.000109428329751893
11
327.983143894885
21
1852.61013771676
31
0.0001056401851244
  0
LINE
 8
GROUP0
10
327.983143894885
20
1852.61013771676
30
0.0001056401851244
11
325.385067683537
21
1854.11013771676
31
0.000100594716975877
  0
LINE
 8
GROUP0
10
325.385067683537
20
1854.11013771676
30
0.000100594716975877
11
325.385067683539
21
1857.11013771676
31
9.93373921012619e-005
  0
LINE
 8
GROUP0
10
325.385067683539
20
1857.11013771676
30
9.93373921012619e-005
11
327.983143894889
21
1858.61013771676
31
0.000103125536818993
  0
LINE
 8
GROUP0
10
327.983143894889
20
1858.61013771676
30
0.000103125536818993
11
330.581220106237
21
1857.11013771676
31
0.000108171005238233
  0
LINE
 8
GROUP0
10
330.581220106237
20
1857.11013771676
30
0.000108171005238233
11
330.581220106235
21
1854.11013771676
31
0.000109428329751893
  0
LINE
 8
GROUP0
10
409.944629153111
20
1881.00246021734
30
0.000189085674431766
11
407.346552941761
21
1882.50246021734
31
0.000184040205110136
  0
LINE
 8
GROUP0
10
407.346552941761
20
1882.50246021734
30
0.000184040205110136
11
407.346552941763
21
1885.50246021734
31
0.000182782880686716
  0
LINE
 8
GROUP0
10
407.346552941763
20
1885.50246021734
30
0.000182782880686716
11
409.944629153114
21
1887.00246021734
31
0.000186571025494686
  0
LINE
 8
GROUP0
10
409.944629153114
20
1887.00246021734
30
0.000186571025494686
11
412.542705364462
21
1885.50246021734
31
0.00019161649364321
  0
LINE
 8
GROUP0
10
412.542705364462
20
1885.50246021734
30
0.00019161649364321
11
412.54270536446
21
1882.50246021734
31
0.000192873817525197
  0
LINE
 8
GROUP0
10
412.54270536446
20
1882.50246021734
30
0.000192873817525197
11
409.944629153111
21
1881.00246021734
31
0.000189085674431766
  0
LINE
 8
GROUP0
10
396.150413770711
20
1885.50246021736
30
0.000169846560579145
11
396.150413770709
21
1882.50246021736
31
0.000171103885183044
  0
LINE
 8
GROUP0
10
396.150413770709
20
1882.50246021736
30
0.000171103885183044
11
393.552337559358
21
1881.00246021736
31
0.000167315740284835
  0
LINE
 8
GROUP0
10
393.552337559358
20
1881.00246021736
30
0.000167315740284835
11
390.95426134801
21
1882.50246021736
31
0.000162270272587506
  0
LINE
 8
GROUP0
10
390.95426134801
20
1882.50246021736
30
0.000162270272587506
11
390.954261348012
21
1885.50246021736
31
0.00016101294780313
  0
LINE
 8
GROUP0
10
390.954261348012
20
1885.50246021736
30
0.00016101294780313
11
393.552337559363
21
1887.00246021736
31
0.000164801092069666
  0
LINE
 8
GROUP0
10
393.552337559363
20
1887.00246021736
30
0.000164801092069666
11
396.150413770711
21
1885.50246021736
31
0.000169846560579145
  0
LINE
 8
GROUP0
10
326.483156107776
20
1864.20821332834
30
7.21795680888704e-005
11
326.483156107775
21
1861.20821332834
31
7.4173072601269e-005
  0
LINE
 8
GROUP0
10
326.483156107775
20
1861.20821332834
30
7.4173072601269e-005
11
323.885079896421
21
1859.70821332835
31
7.38617786218754e-005
  0
LINE
 8
GROUP0
10
323.885079896421
20
1859.70821332835
30
7.38617786218754e-005
11
321.287003685069
21
1861.20821332835
31
7.1556980220322e-005
  0
LINE
 8
GROUP0
10
321.287003685069
20
1861.20821332835
30
7.1556980220322e-005
11
321.287003685071
21
1864.20821332835
31
6.95634753469676e-005
  0
LINE
 8
GROUP0
10
321.287003685071
20
1864.20821332835
30
6.95634753469676e-005
11
323.885079896425
21
1865.70821332834
31
6.98747695068391e-005
  0
LINE
 8
GROUP0
10
323.885079896425
20
1865.70821332834
30
6.98747695068391e-005
11
326.483156107776
21
1864.20821332834
31
7.21795680888704e-005
  0
LINE
 8
GROUP0
10
412.542705364459
20
1868.30630779466
30
0.000192873817795913
11
409.944629153111
21
1866.80630779466
31
0.000189085674522005
  0
LINE
 8
GROUP0
10
409.944629153111
20
1866.80630779466
30
0.000189085674522005
11
407.346552941761
21
1868.30630779466
31
0.000184040205290614
  0
LINE
 8
GROUP0
10
407.346552941761
20
1868.30630779466
30
0.000184040205290614
11
407.346552941763
21
1871.30630779466
31
0.000182782880867194
  0
LINE
 8
GROUP0
10
407.346552941763
20
1871.30630779466
30
0.000182782880867194
11
409.944629153114
21
1872.80630779466
31
0.000186571025223969
  0
LINE
 8
GROUP0
10
409.944629153114
20
1872.80630779466
30
0.000186571025223969
11
412.542705364462
21
1871.30630779466
31
0.000191616493282254
  0
LINE
 8
GROUP0
10
412.542705364462
20
1871.30630779466
30
0.000191616493282254
11
412.542705364459
21
1868.30630779466
31
0.000192873817795913
  0
LINE
 8
GROUP0
10
395.052336520595
20
1864.20823098357
30
0.000159654390102304
11
397.650412731949
21
1865.70823098357
31
0.000159965683540264
  0
LINE
 8
GROUP0
10
397.650412731949
20
1865.70823098357
30
0.000159965683540264
11
400.2484889433
21
1864.20823098357
31
0.000162270482212534
  0
LINE
 8
GROUP0
10
400.2484889433
20
1864.20823098357
30
0.000162270482212534
11
400.248488943298
21
1861.20823098357
31
0.000164263986815172
  0
LINE
 8
GROUP0
10
400.248488943298
20
1861.20823098357
30
0.000164263986815172
11
397.650412731944
21
1859.70823098358
31
0.000163952692745539
  0
LINE
 8
GROUP0
10
397.650412731944
20
1859.70823098358
30
0.000163952692745539
11
395.052336520593
21
1861.20823098358
31
0.000161647894885419
  0
LINE
 8
GROUP0
10
395.052336520593
20
1861.20823098358
30
0.000161647894885419
11
395.052336520595
21
1864.20823098357
31
0.000159654390102304
  0
LINE
 8
GROUP0
10
344.375444585125
20
1852.61014213058
30
0.000114826145718894
11
341.777368373777
21
1854.11014213058
31
0.000109780676397264
  0
LINE
 8
GROUP0
10
341.777368373777
20
1854.11014213058
30
0.000109780676397264
11
341.777368373779
21
1857.11014213058
31
0.000108523352876233
  0
LINE
 8
GROUP0
10
341.777368373779
20
1857.11014213058
30
0.000108523352876233
11
344.375444585129
21
1858.61014213058
31
0.000112311496601336
  0
LINE
 8
GROUP0
10
344.375444585129
20
1858.61014213058
30
0.000112311496601336
11
346.973520796477
21
1857.11014213058
31
0.000117356965291293
  0
LINE
 8
GROUP0
10
346.973520796477
20
1857.11014213058
30
0.000117356965291293
11
346.973520796476
21
1854.11014213058
31
0.000118614289353758
  0
LINE
 8
GROUP0
10
346.973520796476
20
1854.11014213058
30
0.000118614289353758
11
344.375444585125
21
1852.61014213058
31
0.000114826145718894
  0
LINE
 8
GROUP0
10
401.748487904473
20
1852.61015537201
30
0.000164153959167734
11
399.150411693124
21
1854.11015537201
31
0.000159108490793614
  0
LINE
 8
GROUP0
10
399.150411693124
20
1854.11015537201
30
0.000159108490793614
11
399.150411693127
21
1857.11015537201
31
0.000157851166279954
  0
LINE
 8
GROUP0
10
399.150411693127
20
1857.11015537201
30
0.000157851166279954
11
401.748487904477
21
1858.61015537201
31
0.000161639310546491
  0
LINE
 8
GROUP0
10
401.748487904477
20
1858.61015537201
30
0.000161639310546491
11
404.346564115825
21
1857.11015537201
31
0.000166684779146209
  0
LINE
 8
GROUP0
10
404.346564115825
20
1857.11015537201
30
0.000166684779146209
11
404.346564115822
21
1854.11015537201
31
0.000167942104065943
  0
LINE
 8
GROUP0
10
404.346564115822
20
1854.11015537201
30
0.000167942104065943
11
401.748487904473
21
1852.61015537201
31
0.000164153959167734
  0
LINE
 8
GROUP0
10
396.150413770703
20
1857.11015537201
30
0.000166684779236448
11
396.150413770701
21
1854.11015537201
31
0.000167942103930585
  0
LINE
 8
GROUP0
10
396.150413770701
20
1854.11015537201
30
0.000167942103930585
11
393.55233755935
21
1852.61015537201
31
0.000164153959167734
  0
LINE
 8
GROUP0
10
393.55233755935
20
1852.61015537201
30
0.000164153959167734
11
390.954261348002
21
1854.11015537201
31
0.000159108490793614
  0
LINE
 8
GROUP0
10
390.954261348002
20
1854.11015537201
30
0.000159108490793614
11
390.954261348005
21
1857.11015537201
31
0.000157851166370193
  0
LINE
 8
GROUP0
10
390.954261348005
20
1857.11015537201
30
0.000157851166370193
11
393.552337559355
21
1858.61015537201
31
0.000161639311268402
  0
LINE
 8
GROUP0
10
393.552337559355
20
1858.61015537201
30
0.000161639311268402
11
396.150413770703
21
1857.11015537201
31
0.000166684779236448
  0
LINE
 8
GROUP0
10
423.738853632001
20
1868.30631220848
30
0.000193226165072957
11
423.738853632004
21
1871.30631220848
31
0.000191968841100731
  0
LINE
 8
GROUP0
10
423.738853632004
20
1871.30631220848
30
0.000191968841100731
11
426.336929843353
21
1872.80631220848
31
0.000195756985277029
  0
LINE
 8
GROUP0
10
426.336929843353
20
1872.80631220848
30
0.000195756985277029
11
428.935006054702
21
1871.30631220848
31
0.000200802453696269
  0
LINE
 8
GROUP0
10
428.935006054702
20
1871.30631220848
30
0.000200802453696269
11
428.9350060547
21
1868.30631220848
31
0.000202059778480645
  0
LINE
 8
GROUP0
10
428.9350060547
20
1868.30631220848
30
0.000202059778480645
11
426.33692984335
21
1866.80631220848
31
0.000198271634304348
  0
LINE
 8
GROUP0
10
426.33692984335
20
1866.80631220848
30
0.000198271634304348
11
423.738853632001
21
1868.30631220848
31
0.000193226165072957
  0
LINE
 8
GROUP0
10
420.738855709584
20
1885.50246021734
30
0.000191616493552971
11
420.738855709582
21
1882.50246021734
31
0.000192873817525197
  0
LINE
 8
GROUP0
10
420.738855709582
20
1882.50246021734
30
0.000192873817525197
11
418.140779498232
21
1881.00246021734
31
0.000189085674431766
  0
LINE
 8
GROUP0
10
418.140779498232
20
1881.00246021734
30
0.000189085674431766
11
415.542703286884
21
1882.50246021734
31
0.000184040205110136
  0
LINE
 8
GROUP0
10
415.542703286884
20
1882.50246021734
30
0.000184040205110136
11
415.542703286886
21
1885.50246021734
31
0.000182782880596477
  0
LINE
 8
GROUP0
10
415.542703286886
20
1885.50246021734
30
0.000182782880596477
11
418.140779498236
21
1887.00246021734
31
0.000186571025494686
  0
LINE
 8
GROUP0
10
418.140779498236
20
1887.00246021734
30
0.000186571025494686
11
420.738855709584
21
1885.50246021734
31
0.000191616493552971
  0
LINE
 8
GROUP0
10
426.336929843341
20
1852.61015978581
30
0.000195109852645814
11
423.738853631993
21
1854.11015978581
31
0.000190064383324184
  0
LINE
 8
GROUP0
10
423.738853631993
20
1854.11015978581
30
0.000190064383324184
11
423.738853631996
21
1857.1101597858
31
0.000188807059803153
  0
LINE
 8
GROUP0
10
423.738853631996
20
1857.1101597858
30
0.000188807059803153
11
426.336929843346
21
1858.6101597858
31
0.000192595203483137
  0
LINE
 8
GROUP0
10
426.336929843346
20
1858.6101597858
30
0.000192595203483137
11
428.935006054693
21
1857.1101597858
31
0.000197640672218213
  0
LINE
 8
GROUP0
10
428.935006054693
20
1857.1101597858
30
0.000197640672218213
11
428.935006054692
21
1854.11015978581
31
0.000198897996280678
  0
LINE
 8
GROUP0
10
428.935006054692
20
1854.11015978581
30
0.000198897996280678
11
426.336929843341
21
1852.61015978581
31
0.000195109852645814
  0
LINE
 8
GROUP0
10
424.836946211377
20
1861.20823098356
30
0.000134842364818866
11
422.238870000023
21
1859.70823098356
31
0.000134531070117561
  0
LINE
 8
GROUP0
10
422.238870000023
20
1859.70823098356
30
0.000134531070117561
11
419.640793788671
21
1861.20823098356
31
0.00013222627234768
  0
LINE
 8
GROUP0
10
419.640793788671
20
1861.20823098356
30
0.00013222627234768
11
419.640793788673
21
1864.20823098356
31
0.000130232767474325
  0
LINE
 8
GROUP0
10
419.640793788673
20
1864.20823098356
30
0.000130232767474325
11
422.238870000027
21
1865.70823098356
31
0.000130544061453719
  0
LINE
 8
GROUP0
10
422.238870000027
20
1865.70823098356
30
0.000130544061453719
11
424.836946211379
21
1864.20823098356
31
0.000132848860125989
  0
LINE
 8
GROUP0
10
424.836946211379
20
1864.20823098356
30
0.000132848860125989
11
424.836946211377
21
1861.20823098356
31
0.000134842364818866
  0
LINE
 8
GROUP0
10
420.738855709574
20
1854.11015537199
30
0.000189712036678813
11
418.140779498224
21
1852.61015537199
31
0.000185923892051321
  0
LINE
 8
GROUP0
10
418.140779498224
20
1852.61015537199
30
0.000185923892051321
11
415.542703286876
21
1854.11015537199
31
0.000180878423451603
  0
LINE
 8
GROUP0
10
415.542703286876
20
1854.11015537199
30
0.000180878423451603
11
415.542703286878
21
1857.11015537199
31
0.000179621098892824
  0
LINE
 8
GROUP0
10
415.542703286878
20
1857.11015537199
30
0.000179621098892824
11
418.140779498228
21
1858.61015537199
31
0.000183409243610555
  0
LINE
 8
GROUP0
10
418.140779498228
20
1858.61015537199
30
0.000183409243610555
11
420.738855709577
21
1857.11015537199
31
0.000188454711939556
  0
LINE
 8
GROUP0
10
420.738855709577
20
1857.11015537199
30
0.000188454711939556
11
420.738855709574
21
1854.11015537199
31
0.000189712036678813
  0
LINE
 8
GROUP0
10
405.846565154638
20
1859.70823098357
30
0.000154145485503676
11
403.248488943286
21
1861.20823098357
31
0.000151840687102123
  0
LINE
 8
GROUP0
10
403.248488943286
20
1861.20823098357
30
0.000151840687102123
11
403.248488943288
21
1864.20823098357
31
0.000149847182228768
  0
LINE
 8
GROUP0
10
403.248488943288
20
1864.20823098357
30
0.000149847182228768
11
405.846565154642
21
1865.70823098357
31
0.00015015847638864
  0
LINE
 8
GROUP0
10
405.846565154642
20
1865.70823098357
30
0.00015015847638864
11
408.444641365993
21
1864.20823098357
31
0.000152463274970671
  0
LINE
 8
GROUP0
10
408.444641365993
20
1864.20823098357
30
0.000152463274970671
11
408.444641365991
21
1861.20823098357
31
0.00015445677948307
  0
LINE
 8
GROUP0
10
408.444641365991
20
1861.20823098357
30
0.00015445677948307
11
405.846565154638
21
1859.70823098357
31
0.000154145485503676
  0
LINE
 8
GROUP0
10
318.287003685084
20
1864.20821332835
30
8.19867753307335e-005
11
318.287003685082
21
1861.20821332835
31
8.39802799333711e-005
  0
LINE
 8
GROUP0
10
318.287003685082
20
1861.20821332835
30
8.39802799333711e-005
11
315.688927473727
21
1859.70821332835
31
8.36689858637385e-005
  0
LINE
 8
GROUP0
10
315.688927473727
20
1859.70821332835
30
8.36689858637385e-005
11
313.090851262376
21
1861.20821332835
31
8.13641880036187e-005
  0
LINE
 8
GROUP0
10
313.090851262376
20
1861.20821332835
30
8.13641880036187e-005
11
313.090851262378
21
1864.20821332835
31
7.93706832205032e-005
  0
LINE
 8
GROUP0
10
313.090851262378
20
1864.20821332835
30
7.93706832205032e-005
11
315.688927473732
21
1865.70821332835
31
7.96819766584633e-005
  0
LINE
 8
GROUP0
10
315.688927473732
20
1865.70821332835
30
7.96819766584633e-005
11
318.287003685084
21
1864.20821332835
31
8.19867753307335e-005
  0
LINE
 8
GROUP0
10
319.787002646256
20
1852.61013771679
30
8.38702522408141e-005
11
317.188926434908
21
1854.11013771679
31
7.88247839118128e-005
  0
LINE
 8
GROUP0
10
317.188926434908
20
1854.11013771679
30
7.88247839118128e-005
11
317.18892643491
21
1857.11013771679
31
7.75674593981535e-005
  0
LINE
 8
GROUP0
10
317.18892643491
20
1857.11013771679
30
7.75674593981535e-005
11
319.78700264626
21
1858.61013771679
31
8.13556036646901e-005
  0
LINE
 8
GROUP0
10
319.78700264626
20
1858.61013771679
30
8.13556036646901e-005
11
322.385078857608
21
1857.11013771679
31
8.64010722644082e-005
  0
LINE
 8
GROUP0
10
322.385078857608
20
1857.11013771679
30
8.64010722644082e-005
11
322.385078857606
21
1854.11013771679
31
8.76583971390232e-005
  0
LINE
 8
GROUP0
10
322.385078857606
20
1854.11013771679
30
8.76583971390232e-005
11
319.787002646256
21
1852.61013771679
31
8.38702522408141e-005
  0
LINE
 8
GROUP0
10
407.346552941753
20
1854.11015537199
30
0.000180878423902797
11
407.346552941756
21
1857.11015537199
31
0.000179621098983063
  0
LINE
 8
GROUP0
10
407.346552941756
20
1857.11015537199
30
0.000179621098983063
11
409.944629153106
21
1858.61015537199
31
0.000183409243700794
  0
LINE
 8
GROUP0
10
409.944629153106
20
1858.61015537199
30
0.000183409243700794
11
412.542705364454
21
1857.11015537199
31
0.000188454712120034
  0
LINE
 8
GROUP0
10
412.542705364454
20
1857.11015537199
30
0.000188454712120034
11
412.542705364452
21
1854.11015537199
31
0.000189712036678813
  0
LINE
 8
GROUP0
10
412.542705364452
20
1854.11015537199
30
0.000189712036678813
11
409.944629153102
21
1852.61015537199
31
0.000185923892051321
  0
LINE
 8
GROUP0
10
409.944629153102
20
1852.61015537199
30
0.000185923892051321
11
407.346552941753
21
1854.11015537199
31
0.000180878423902797
  0
LINE
 8
GROUP0
10
414.042717577333
20
1865.70823098356
30
0.000140351269056538
11
416.640793788686
21
1864.20823098356
31
0.00014265606754833
  0
LINE
 8
GROUP0
10
416.640793788686
20
1864.20823098356
30
0.00014265606754833
11
416.640793788685
21
1861.20823098356
31
0.000144649571699773
  0
LINE
 8
GROUP0
10
416.640793788685
20
1861.20823098356
30
0.000144649571699773
11
414.04271757733
21
1859.70823098356
31
0.000144338277630141
  0
LINE
 8
GROUP0
10
414.04271757733
20
1859.70823098356
30
0.000144338277630141
11
411.444641365978
21
1861.20823098356
31
0.000142033479318826
  0
LINE
 8
GROUP0
10
411.444641365978
20
1861.20823098356
30
0.000142033479318826
11
411.44464136598
21
1864.20823098356
31
0.000140039975077144
  0
LINE
 8
GROUP0
10
411.44464136598
20
1864.20823098356
30
0.000140039975077144
11
414.042717577333
21
1865.70823098356
31
0.000140351269056538
  0
LINE
 8
GROUP0
10
433.033098634069
20
1861.20823098355
30
0.000125035156855091
11
430.435022422716
21
1859.70823098355
31
0.000124723863146414
  0
LINE
 8
GROUP0
10
430.435022422716
20
1859.70823098355
30
0.000124723863146414
11
427.836946211364
21
1861.20823098355
31
0.000122419065105817
  0
LINE
 8
GROUP0
10
427.836946211364
20
1861.20823098355
30
0.000122419065105817
11
427.836946211366
21
1864.20823098355
31
0.000120425560322701
  0
LINE
 8
GROUP0
10
427.836946211366
20
1864.20823098355
30
0.000120425560322701
11
430.435022422719
21
1865.70823098355
31
0.000120736854211856
  0
LINE
 8
GROUP0
10
430.435022422719
20
1865.70823098355
30
0.000120736854211856
11
433.033098634071
21
1864.20823098355
31
0.000123041652974365
  0
LINE
 8
GROUP0
10
433.033098634071
20
1864.20823098355
30
0.000123041652974365
11
433.033098634069
21
1861.20823098355
31
0.000125035156855091
  0
LINE
 8
GROUP0
10
276.20818380581
20
1871.30628131185
30
4.05873878413843e-005
11
278.80626001716
21
1872.80628131185
31
4.43755315213679e-005
  0
LINE
 8
GROUP0
10
278.80626001716
20
1872.80628131185
30
4.43755315213679e-005
11
281.404336228507
21
1871.30628131185
31
4.94209999857276e-005
  0
LINE
 8
GROUP0
10
281.404336228507
20
1871.30628131185
30
4.94209999857276e-005
11
281.404336228505
21
1868.30628131185
31
5.06783248603426e-005
  0
LINE
 8
GROUP0
10
281.404336228505
20
1868.30628131185
30
5.06783248603426e-005
11
278.806260017156
21
1866.80628131185
31
4.68901805035671e-005
  0
LINE
 8
GROUP0
10
278.806260017156
20
1866.80628131185
30
4.68901805035671e-005
11
276.208183805807
21
1868.30628131185
31
4.18447126257604e-005
  0
LINE
 8
GROUP0
10
276.208183805807
20
1868.30628131185
30
4.18447126257604e-005
11
276.20818380581
21
1871.30628131185
31
4.05873878413843e-005
  0
LINE
 8
GROUP0
10
295.198551610899
20
1852.61012888915
30
6.54983316835001e-005
11
292.600475399551
21
1854.11012888915
31
6.04528630837819e-005
  0
LINE
 8
GROUP0
10
292.600475399551
20
1854.11012888915
30
6.04528630837819e-005
11
292.600475399553
21
1857.11012888915
31
5.91955385701226e-005
  0
LINE
 8
GROUP0
10
292.600475399553
20
1857.11012888915
30
5.91955385701226e-005
11
295.198551610903
21
1858.61012888915
31
6.29836832878539e-005
  0
LINE
 8
GROUP0
10
295.198551610903
20
1858.61012888915
30
6.29836832878539e-005
11
297.796627822252
21
1857.11012888915
31
6.80291516168552e-005
  0
LINE
 8
GROUP0
10
297.796627822252
20
1857.11012888915
30
6.80291516168552e-005
11
297.796627822249
21
1854.11012888915
31
6.92864763109924e-005
  0
LINE
 8
GROUP0
10
297.796627822249
20
1854.11012888915
30
6.92864763109924e-005
11
295.198551610899
21
1852.61012888915
31
6.54983316835001e-005
  0
LINE
 8
GROUP0
10
291.100489690008
20
1865.70820450073
30
1.99257087338367e-005
11
293.698565901361
21
1864.20820450073
31
2.2230507225629e-005
  0
LINE
 8
GROUP0
10
293.698565901361
20
1864.20820450073
30
2.2230507225629e-005
11
293.69856590136
21
1861.20820450073
31
2.4224011377072e-005
  0
LINE
 8
GROUP0
10
293.69856590136
20
1861.20820450073
30
2.4224011377072e-005
11
291.100489690005
21
1859.70820450073
31
2.39127173074394e-005
  0
LINE
 8
GROUP0
10
291.100489690005
20
1859.70820450073
30
2.39127173074394e-005
11
288.502413478653
21
1861.20820450073
31
2.16079189961249e-005
  0
LINE
 8
GROUP0
10
288.502413478653
20
1861.20820450073
30
2.16079189961249e-005
11
288.502413478655
21
1864.20820450073
31
1.9614414754443e-005
  0
LINE
 8
GROUP0
10
288.502413478655
20
1864.20820450073
30
1.9614414754443e-005
11
291.100489690008
21
1865.70820450073
31
1.99257087338367e-005
  0
LINE
 8
GROUP0
10
301.894718324052
20
1861.20820450072
30
1.44168044961646e-005
11
299.296642112698
21
1859.70820450072
31
1.41055097948595e-005
  0
LINE
 8
GROUP0
10
299.296642112698
20
1859.70820450072
30
1.41055097948595e-005
11
296.698565901346
21
1861.20820450072
31
1.18007120249786e-005
  0
LINE
 8
GROUP0
10
296.698565901346
20
1861.20820450072
30
1.18007120249786e-005
11
296.698565901348
21
1864.20820450072
31
9.8072071516242e-006
  0
LINE
 8
GROUP0
10
296.698565901348
20
1864.20820450072
30
9.8072071516242e-006
11
299.296642112702
21
1865.70820450072
31
1.01185011310179e-005
  0
LINE
 8
GROUP0
10
299.296642112702
20
1865.70820450072
30
1.01185011310179e-005
11
301.894718324053
21
1864.20820450072
31
1.2423299803288e-005
  0
LINE
 8
GROUP0
10
301.894718324053
20
1864.20820450072
30
1.2423299803288e-005
11
301.894718324052
21
1861.20820450072
31
1.44168044961646e-005
  0
LINE
 8
GROUP0
10
327.983143894894
20
1866.80629013944
30
0.000108801967640204
11
325.385067683545
21
1868.30629013944
31
0.000103756498408814
  0
LINE
 8
GROUP0
10
325.385067683545
20
1868.30629013944
30
0.000103756498408814
11
325.385067683547
21
1871.30629013944
31
0.000102499173985393
  0
LINE
 8
GROUP0
10
325.385067683547
20
1871.30629013944
30
0.000102499173985393
11
327.983143894897
21
1872.80629013944
31
0.000106287318342169
  0
LINE
 8
GROUP0
10
327.983143894897
20
1872.80629013944
30
0.000106287318342169
11
330.581220106246
21
1871.30629013944
31
0.000111332786400453
  0
LINE
 8
GROUP0
10
330.581220106246
20
1871.30629013944
30
0.000111332786400453
11
330.581220106243
21
1868.30629013944
31
0.000112590110914113
  0
LINE
 8
GROUP0
10
330.581220106243
20
1868.30629013944
30
0.000112590110914113
11
327.983143894894
21
1866.80629013944
31
0.000108801967640204
  0
LINE
 8
GROUP0
10
336.179294240015
20
1881.00244256211
30
0.000108801967504846
11
333.581218028667
21
1882.50244256211
31
0.000103756498183216
  0
LINE
 8
GROUP0
10
333.581218028667
20
1882.50244256211
30
0.000103756498183216
11
333.581218028669
21
1885.50244256211
31
0.000102499173669557
  0
LINE
 8
GROUP0
10
333.581218028669
20
1885.50244256211
30
0.000102499173669557
11
336.179294240019
21
1887.00244256211
31
0.000106287318567766
  0
LINE
 8
GROUP0
10
336.179294240019
20
1887.00244256211
30
0.000106287318567766
11
338.777370451368
21
1885.50244256211
31
0.000111332786626051
  0
LINE
 8
GROUP0
10
338.777370451368
20
1885.50244256211
30
0.000111332786626051
11
338.777370451366
21
1882.50244256211
31
0.000112590110598276
  0
LINE
 8
GROUP0
10
338.777370451366
20
1882.50244256211
30
0.000112590110598276
11
336.179294240015
21
1881.00244256211
31
0.000108801967504846
  0
LINE
 8
GROUP0
10
277.306261055975
20
1864.20820450074
30
4.18449218898331e-005
11
277.306261055973
21
1861.20820450074
31
4.38384264924707e-005
  0
LINE
 8
GROUP0
10
277.306261055973
20
1861.20820450074
30
4.38384264924707e-005
11
274.708184844619
21
1859.70820450074
31
4.35271324228381e-005
  0
LINE
 8
GROUP0
10
274.708184844619
20
1859.70820450074
30
4.35271324228381e-005
11
272.110108633268
21
1861.20820450074
31
4.12223345627183e-005
  0
LINE
 8
GROUP0
10
272.110108633268
20
1861.20820450074
30
4.12223345627183e-005
11
272.11010863327
21
1864.20820450074
31
3.92288297796028e-005
  0
LINE
 8
GROUP0
10
272.11010863327
20
1864.20820450074
30
3.92288297796028e-005
11
274.708184844624
21
1865.70820450074
31
3.95401232175629e-005
  0
LINE
 8
GROUP0
10
274.708184844624
20
1865.70820450074
30
3.95401232175629e-005
11
277.306261055975
21
1864.20820450074
31
4.18449218898331e-005
  0
LINE
 8
GROUP0
10
321.287003685088
20
1878.40436575103
30
7.90556140504606e-005
11
323.885079896438
21
1879.90436575103
31
8.28437580462804e-005
  0
LINE
 8
GROUP0
10
323.885079896438
20
1879.90436575103
30
8.28437580462804e-005
11
326.483156107787
21
1878.40436575103
31
8.78892272325515e-005
  0
LINE
 8
GROUP0
10
326.483156107787
20
1878.40436575103
30
8.78892272325515e-005
11
326.483156107784
21
1875.40436575103
31
8.91465513852552e-005
  0
LINE
 8
GROUP0
10
326.483156107784
20
1875.40436575103
30
8.91465513852552e-005
11
323.885079896434
21
1873.90436575103
31
8.53584076601521e-005
  0
LINE
 8
GROUP0
10
323.885079896434
20
1873.90436575103
30
8.53584076601521e-005
11
321.287003685086
21
1875.40436575103
31
8.0312939060434e-005
  0
LINE
 8
GROUP0
10
321.287003685086
20
1875.40436575103
30
8.0312939060434e-005
11
321.287003685088
21
1878.40436575103
31
7.90556140504606e-005
  0
LINE
 8
GROUP0
10
344.375444585137
20
1887.00244697593
30
0.000115473278440348
11
346.973520796486
21
1885.50244697593
31
0.00012051874667911
  0
LINE
 8
GROUP0
10
346.973520796486
20
1885.50244697593
30
0.00012051874667911
11
346.973520796484
21
1882.50244697593
31
0.000121776071463486
  0
LINE
 8
GROUP0
10
346.973520796484
20
1882.50244697593
30
0.000121776071463486
11
344.375444585133
21
1881.00244697593
31
0.000117987926610397
  0
LINE
 8
GROUP0
10
344.375444585133
20
1881.00244697593
30
0.000117987926610397
11
341.777368373785
21
1882.50244697593
31
0.00011294245787532
  0
LINE
 8
GROUP0
10
341.777368373785
20
1882.50244697593
30
0.00011294245787532
11
341.777368373787
21
1885.50244697593
31
0.000111685133722617
  0
LINE
 8
GROUP0
10
341.777368373787
20
1885.50244697593
30
0.000111685133722617
11
344.375444585137
21
1887.00244697593
31
0.000115473278440348
  0
LINE
 8
GROUP0
10
308.992776089796
20
1885.50244256214
30
8.07292408762095e-005
11
311.590852301146
21
1887.00244256214
31
8.45173851427461e-005
  0
LINE
 8
GROUP0
10
311.590852301146
20
1887.00244256214
30
8.45173851427461e-005
11
314.188928512494
21
1885.50244256214
31
8.95628536522253e-005
  0
LINE
 8
GROUP0
10
314.188928512494
20
1885.50244256214
30
8.95628536522253e-005
11
314.188928512492
21
1882.50244256214
31
9.08201782561235e-005
  0
LINE
 8
GROUP0
10
314.188928512492
20
1882.50244256214
30
9.08201782561235e-005
11
311.590852301142
21
1881.00244256214
31
8.70320333579144e-005
  0
LINE
 8
GROUP0
10
311.590852301142
20
1881.00244256214
30
8.70320333579144e-005
11
308.992776089794
21
1882.50244256214
31
8.19865656605856e-005
  0
LINE
 8
GROUP0
10
308.992776089794
20
1882.50244256214
30
8.19865656605856e-005
11
308.992776089796
21
1885.50244256214
31
8.07292408762095e-005
  0
LINE
 8
GROUP0
10
332.081232319136
20
1879.90436575103
30
8.28437583169972e-005
11
334.679308530485
21
1878.40436575103
31
8.78892272325515e-005
  0
LINE
 8
GROUP0
10
334.679308530485
20
1878.40436575103
30
8.78892272325515e-005
11
334.679308530483
21
1875.40436575103
31
8.91465513852552e-005
  0
LINE
 8
GROUP0
10
334.679308530483
20
1875.40436575103
30
8.91465513852552e-005
11
332.081232319133
21
1873.90436575103
31
8.53584076601521e-005
  0
LINE
 8
GROUP0
10
332.081232319133
20
1873.90436575103
30
8.53584076601521e-005
11
329.483156107784
21
1875.40436575103
31
8.0312939060434e-005
  0
LINE
 8
GROUP0
10
329.483156107784
20
1875.40436575103
30
8.0312939060434e-005
11
329.483156107787
21
1878.40436575103
31
7.905561409558e-005
  0
LINE
 8
GROUP0
10
329.483156107787
20
1878.40436575103
30
7.905561409558e-005
11
332.081232319136
21
1879.90436575103
31
8.28437583169972e-005
  0
LINE
 8
GROUP0
10
313.090851262389
20
1878.40436575103
30
7.90556140504606e-005
11
315.688927473739
21
1879.90436575103
31
8.28437583169972e-005
  0
LINE
 8
GROUP0
10
315.688927473739
20
1879.90436575103
30
8.28437583169972e-005
11
318.287003685088
21
1878.40436575103
31
8.78892271874321e-005
  0
LINE
 8
GROUP0
10
318.287003685088
20
1878.40436575103
30
8.78892271874321e-005
11
318.287003685085
21
1875.40436575103
31
8.91465513852552e-005
  0
LINE
 8
GROUP0
10
318.287003685085
20
1875.40436575103
30
8.91465513852552e-005
11
315.688927473736
21
1873.90436575103
31
8.53584076601521e-005
  0
LINE
 8
GROUP0
10
315.688927473736
20
1873.90436575103
30
8.53584076601521e-005
11
313.090851262387
21
1875.40436575103
31
8.0312939060434e-005
  0
LINE
 8
GROUP0
10
313.090851262387
20
1875.40436575103
30
8.0312939060434e-005
11
313.090851262389
21
1878.40436575103
31
7.90556140504606e-005
  0
LINE
 8
GROUP0
10
330.581220106244
20
1882.50244256211
30
0.000112590110598276
11
327.983143894894
21
1881.00244256211
31
0.000108801967504846
  0
LINE
 8
GROUP0
10
327.983143894894
20
1881.00244256211
30
0.000108801967504846
11
325.385067683545
21
1882.50244256211
31
0.000103756498183216
  0
LINE
 8
GROUP0
10
325.385067683545
20
1882.50244256211
30
0.000103756498183216
11
325.385067683546
21
1885.50244256211
31
0.000102499173759796
  0
LINE
 8
GROUP0
10
325.385067683546
20
1885.50244256211
30
0.000102499173759796
11
327.983143894897
21
1887.00244256211
31
0.000106287318567766
  0
LINE
 8
GROUP0
10
327.983143894897
20
1887.00244256211
30
0.000106287318567766
11
330.581220106246
21
1885.50244256211
31
0.000111332786716289
  0
LINE
 8
GROUP0
10
330.581220106246
20
1885.50244256211
30
0.000111332786716289
11
330.581220106244
21
1882.50244256211
31
0.000112590110598276
  0
LINE
 8
GROUP0
10
295.198551610911
20
1872.80628131183
30
6.61454649012683e-005
11
297.796627822259
21
1871.30628131183
31
7.11909328693139e-005
  0
LINE
 8
GROUP0
10
297.796627822259
20
1871.30628131183
30
7.11909328693139e-005
11
297.796627822257
21
1868.30628131183
31
7.24482574732122e-005
  0
LINE
 8
GROUP0
10
297.796627822257
20
1868.30628131183
30
7.24482574732122e-005
11
295.198551610907
21
1866.80628131183
31
6.86601141993037e-005
  0
LINE
 8
GROUP0
10
295.198551610907
20
1866.80628131183
30
6.86601141993037e-005
11
292.600475399559
21
1868.30628131183
31
6.36146449679131e-005
  0
LINE
 8
GROUP0
10
292.600475399559
20
1868.30628131183
30
6.36146449679131e-005
11
292.600475399561
21
1871.30628131183
31
6.23573208152095e-005
  0
LINE
 8
GROUP0
10
292.600475399561
20
1871.30628131183
30
6.23573208152095e-005
11
295.198551610911
21
1872.80628131183
31
6.61454649012683e-005
  0
LINE
 8
GROUP0
10
281.4043362285
20
1857.11012888918
30
4.62592188235078e-005
11
281.404336228497
21
1854.11012888918
31
4.75165436981229e-005
  0
LINE
 8
GROUP0
10
281.404336228497
20
1854.11012888918
30
4.75165436981229e-005
11
278.806260017148
21
1852.61012888918
31
4.37283987999137e-005
  0
LINE
 8
GROUP0
10
278.806260017148
20
1852.61012888918
30
4.37283987999137e-005
11
276.208183805799
21
1854.11012888918
31
3.86829304709124e-005
  0
LINE
 8
GROUP0
10
276.208183805799
20
1854.11012888918
30
3.86829304709124e-005
11
276.208183805802
21
1857.11012888918
31
3.74256059572531e-005
  0
LINE
 8
GROUP0
10
276.208183805802
20
1857.11012888918
30
3.74256059572531e-005
11
278.806260017152
21
1858.61012888917
31
4.12137502237897e-005
  0
LINE
 8
GROUP0
10
278.806260017152
20
1858.61012888917
30
4.12137502237897e-005
11
281.4043362285
21
1857.11012888918
31
4.62592188235078e-005
  0
LINE
 8
GROUP0
10
319.787002646268
20
1887.00244256214
30
8.45173851427461e-005
11
322.385078857617
21
1885.50244256214
31
8.95628536522253e-005
  0
LINE
 8
GROUP0
10
322.385078857617
20
1885.50244256214
30
8.95628536522253e-005
11
322.385078857614
21
1882.50244256214
31
9.08201782561235e-005
  0
LINE
 8
GROUP0
10
322.385078857614
20
1882.50244256214
30
9.08201782561235e-005
11
319.787002646264
21
1881.00244256214
31
8.70320333579144e-005
  0
LINE
 8
GROUP0
10
319.787002646264
20
1881.00244256214
30
8.70320333579144e-005
11
317.188926434916
21
1882.50244256214
31
8.19865656605856e-005
  0
LINE
 8
GROUP0
10
317.188926434916
20
1882.50244256214
30
8.19865656605856e-005
11
317.188926434917
21
1885.50244256214
31
8.07292407859705e-005
  0
LINE
 8
GROUP0
10
317.188926434917
20
1885.50244256214
30
8.07292407859705e-005
11
319.787002646268
21
1887.00244256214
31
8.45173851427461e-005
  0
LINE
 8
GROUP0
10
314.188928512492
20
1868.30629013946
30
9.0820178301243e-005
11
311.590852301142
21
1866.80629013946
31
8.70320340347064e-005
  0
LINE
 8
GROUP0
10
311.590852301142
20
1866.80629013946
30
8.70320340347064e-005
11
308.992776089794
21
1868.30629013946
31
8.19865660666608e-005
  0
LINE
 8
GROUP0
10
308.992776089794
20
1868.30629013946
30
8.19865660666608e-005
11
308.992776089796
21
1871.30629013946
31
8.07292412822846e-005
  0
LINE
 8
GROUP0
10
308.992776089796
20
1871.30629013946
30
8.07292412822846e-005
11
311.590852301146
21
1872.80629013946
31
8.45173850073877e-005
  0
LINE
 8
GROUP0
10
311.590852301146
20
1872.80629013946
30
8.45173850073877e-005
11
314.188928512494
21
1871.30629013946
31
8.95628535168669e-005
  0
LINE
 8
GROUP0
10
314.188928512494
20
1871.30629013946
30
8.95628535168669e-005
11
314.188928512492
21
1868.30629013946
31
9.0820178301243e-005
  0
LINE
 8
GROUP0
10
342.875460953161
20
1861.20821332833
30
5.45586579370649e-005
11
340.277384741806
21
1859.70821332834
31
5.42473632357598e-005
  0
LINE
 8
GROUP0
10
340.277384741806
20
1859.70821332834
30
5.42473632357598e-005
11
337.679308530454
21
1861.20821332833
31
5.19425654658789e-005
  0
LINE
 8
GROUP0
10
337.679308530454
20
1861.20821332833
30
5.19425654658789e-005
11
337.679308530457
21
1864.20821332833
31
4.99490605925246e-005
  0
LINE
 8
GROUP0
10
337.679308530457
20
1864.20821332833
30
4.99490605925246e-005
11
340.27738474181
21
1865.70821332833
31
5.02603545719182e-005
  0
LINE
 8
GROUP0
10
340.27738474181
20
1865.70821332833
30
5.02603545719182e-005
11
342.875460953162
21
1864.20821332833
31
5.25651532441884e-005
  0
LINE
 8
GROUP0
10
342.875460953162
20
1864.20821332833
30
5.25651532441884e-005
11
342.875460953161
21
1861.20821332833
31
5.45586579370649e-005
  0
LINE
 8
GROUP0
10
333.581218028669
20
1871.30629013944
30
0.00010249917425611
11
336.179294240019
21
1872.80629013944
31
0.000106287318342169
  0
LINE
 8
GROUP0
10
336.179294240019
20
1872.80629013944
30
0.000106287318342169
11
338.777370451368
21
1871.30629013944
31
0.000111332786310214
  0
LINE
 8
GROUP0
10
338.777370451368
20
1871.30629013944
30
0.000111332786310214
11
338.777370451366
21
1868.30629013944
31
0.000112590110914113
  0
LINE
 8
GROUP0
10
338.777370451366
20
1868.30629013944
30
0.000112590110914113
11
336.179294240016
21
1866.80629013944
31
0.000108801967640204
  0
LINE
 8
GROUP0
10
336.179294240016
20
1866.80629013944
30
0.000108801967640204
11
333.581218028667
21
1868.30629013944
31
0.000103756498408814
  0
LINE
 8
GROUP0
10
333.581218028667
20
1868.30629013944
30
0.000103756498408814
11
333.581218028669
21
1871.30629013944
31
0.00010249917425611
  0
LINE
 8
GROUP0
10
342.875460953182
20
1875.40436575103
30
8.91465513852552e-005
11
340.277384741831
21
1873.90436575103
31
8.53584076601521e-005
  0
LINE
 8
GROUP0
10
340.277384741831
20
1873.90436575103
30
8.53584076601521e-005
11
337.679308530483
21
1875.40436575103
31
8.0312939060434e-005
  0
LINE
 8
GROUP0
10
337.679308530483
20
1875.40436575103
30
8.0312939060434e-005
11
337.679308530485
21
1878.40436575103
31
7.905561409558e-005
  0
LINE
 8
GROUP0
10
337.679308530485
20
1878.40436575103
30
7.905561409558e-005
11
340.277384741836
21
1879.90436575103
31
8.28437583621167e-005
  0
LINE
 8
GROUP0
10
340.277384741836
20
1879.90436575103
30
8.28437583621167e-005
11
342.875460953184
21
1878.40436575103
31
8.78892272325515e-005
  0
LINE
 8
GROUP0
10
342.875460953184
20
1878.40436575103
30
8.78892272325515e-005
11
342.875460953182
21
1875.40436575103
31
8.91465513852552e-005
  0
LINE
 8
GROUP0
10
289.600477477129
20
1857.11012888915
30
6.8029151797333e-005
11
289.600477477127
21
1854.11012888915
31
6.92864763109924e-005
  0
LINE
 8
GROUP0
10
289.600477477127
20
1854.11012888915
30
6.92864763109924e-005
11
287.002401265777
21
1852.61012888915
31
6.54983316835001e-005
  0
LINE
 8
GROUP0
10
287.002401265777
20
1852.61012888915
30
6.54983316835001e-005
11
284.404325054428
21
1854.11012888915
31
6.04528635349766e-005
  0
LINE
 8
GROUP0
10
284.404325054428
20
1854.11012888915
30
6.04528635349766e-005
11
284.404325054431
21
1857.11012888915
31
5.91955386603615e-005
  0
LINE
 8
GROUP0
10
284.404325054431
20
1857.11012888915
30
5.91955386603615e-005
11
287.002401265781
21
1858.61012888915
31
6.29836833780928e-005
  0
LINE
 8
GROUP0
10
287.002401265781
20
1858.61012888915
30
6.29836833780928e-005
11
289.600477477129
21
1857.11012888915
31
6.8029151797333e-005
  0
LINE
 8
GROUP0
10
310.090870746744
20
1861.20820450072
30
4.60959653239001e-006
11
307.492794535391
21
1859.70820450072
31
4.29830282371313e-006
  0
LINE
 8
GROUP0
10
307.492794535391
20
1859.70820450072
30
4.29830282371313e-006
11
304.894718324039
21
1861.20820450072
31
1.99350478311544e-006
  0
LINE
 8
GROUP0
10
304.894718324039
20
1861.20820450072
30
1.99350478311544e-006
11
304.894718324041
21
1864.20820450072
31
0.0
  0
LINE
 8
GROUP0
10
304.894718324041
20
1864.20820450072
30
0.0
11
307.492794535394
21
1865.70820450071
31
3.1129388915474e-007
  0
LINE
 8
GROUP0
10
307.492794535394
20
1865.70820450071
30
3.1129388915474e-007
11
310.090870746746
21
1864.20820450071
31
2.61609265166385e-006
  0
LINE
 8
GROUP0
10
310.090870746746
20
1864.20820450071
30
2.61609265166385e-006
11
310.090870746744
21
1861.20820450072
31
4.60959653239001e-006
  0
LINE
 8
GROUP0
10
285.502413478668
20
1864.20820450073
30
3.203771464797e-005
11
285.502413478666
21
1861.20820450073
31
3.40312191603687e-005
  0
LINE
 8
GROUP0
10
285.502413478666
20
1861.20820450073
30
3.40312191603687e-005
11
282.904337267313
21
1859.70820450073
31
3.3719925180975e-005
  0
LINE
 8
GROUP0
10
282.904337267313
20
1859.70820450073
30
3.3719925180975e-005
11
280.306261055961
21
1861.20820450073
31
3.14151267794216e-005
  0
LINE
 8
GROUP0
10
280.306261055961
20
1861.20820450073
30
3.14151267794216e-005
11
280.306261055963
21
1864.20820450073
31
2.94216219060672e-005
  0
LINE
 8
GROUP0
10
280.306261055963
20
1864.20820450073
30
2.94216219060672e-005
11
282.904337267317
21
1865.70820450073
31
2.97329160659388e-005
  0
LINE
 8
GROUP0
10
282.904337267317
20
1865.70820450073
30
2.97329160659388e-005
11
285.502413478668
21
1864.20820450073
31
3.203771464797e-005
  0
LINE
 8
GROUP0
10
307.492794535422
20
1873.90435692342
30
4.52165542192517e-005
11
304.894718324074
21
1875.40435692341
31
4.01710856195336e-005
  0
LINE
 8
GROUP0
10
304.894718324074
20
1875.40435692341
30
4.01710856195336e-005
11
304.894718324076
21
1878.40435692341
31
3.89137606095602e-005
  0
LINE
 8
GROUP0
10
304.894718324076
20
1878.40435692341
30
3.89137606095602e-005
11
307.492794535426
21
1879.90435692341
31
4.27019048760968e-005
  0
LINE
 8
GROUP0
10
307.492794535426
20
1879.90435692341
30
4.27019048760968e-005
11
310.090870746774
21
1878.40435692341
31
4.77473737465317e-005
  0
LINE
 8
GROUP0
10
310.090870746774
20
1878.40435692341
30
4.77473737465317e-005
11
310.090870746772
21
1875.40435692342
31
4.90046979443548e-005
  0
LINE
 8
GROUP0
10
310.090870746772
20
1875.40435692342
30
4.90046979443548e-005
11
307.492794535422
21
1873.90435692342
31
4.52165542192517e-005
  0
LINE
 8
GROUP0
10
317.188926434918
20
1871.30629013946
30
8.07292412822846e-005
11
319.787002646268
21
1872.80629013946
31
8.45173850073877e-005
  0
LINE
 8
GROUP0
10
319.787002646268
20
1872.80629013946
30
8.45173850073877e-005
11
322.385078857616
21
1871.30629013946
31
8.95628534266279e-005
  0
LINE
 8
GROUP0
10
322.385078857616
20
1871.30629013946
30
8.95628534266279e-005
11
322.385078857614
21
1868.30629013946
31
9.0820178301243e-005
  0
LINE
 8
GROUP0
10
322.385078857614
20
1868.30629013946
30
9.0820178301243e-005
11
319.787002646264
21
1866.80629013946
31
8.70320339444675e-005
  0
LINE
 8
GROUP0
10
319.787002646264
20
1866.80629013946
30
8.70320339444675e-005
11
317.188926434916
21
1868.30629013946
31
8.19865660666608e-005
  0
LINE
 8
GROUP0
10
317.188926434916
20
1868.30629013946
30
8.19865660666608e-005
11
317.188926434918
21
1871.30629013946
31
8.07292412822846e-005
  0
LINE
 8
GROUP0
10
345.875460953149
20
1864.20821332833
30
4.01418534409004e-005
11
348.473537164503
21
1865.70821332833
31
4.04531473300551e-005
  0
LINE
 8
GROUP0
10
348.473537164503
20
1865.70821332833
30
4.04531473300551e-005
11
351.071613375854
21
1864.20821332833
31
4.27579460925642e-005
  0
LINE
 8
GROUP0
10
351.071613375854
20
1864.20821332833
30
4.27579460925642e-005
11
351.071613375852
21
1861.20821332833
31
4.47514499732904e-005
  0
LINE
 8
GROUP0
10
351.071613375852
20
1861.20821332833
30
4.47514499732904e-005
11
348.473537164499
21
1859.70821332833
31
4.44401562646135e-005
  0
LINE
 8
GROUP0
10
348.473537164499
20
1859.70821332833
30
4.44401562646135e-005
11
345.875460953147
21
1861.20821332833
31
4.21353582240158e-005
  0
LINE
 8
GROUP0
10
345.875460953147
20
1861.20821332833
30
4.21353582240158e-005
11
345.875460953149
21
1864.20821332833
31
4.01418534409004e-005
  0
LINE
 8
GROUP0
10
303.394701956021
20
1858.61013330297
30
7.21696431604357e-005
11
305.992778167369
21
1857.11013330297
31
7.72151118503928e-005
  0
LINE
 8
GROUP0
10
305.992778167369
20
1857.11013330297
30
7.72151118503928e-005
11
305.992778167367
21
1854.11013330297
31
7.84724359128575e-005
  0
LINE
 8
GROUP0
10
305.992778167367
20
1854.11013330297
30
7.84724359128575e-005
11
303.394701956016
21
1852.61013330297
31
7.46842922779933e-005
  0
LINE
 8
GROUP0
10
303.394701956016
20
1852.61013330297
30
7.46842922779933e-005
11
300.796625744668
21
1854.11013330297
31
6.96388229563638e-005
  0
LINE
 8
GROUP0
10
300.796625744668
20
1854.11013330297
30
6.96388229563638e-005
11
300.796625744671
21
1857.11013330297
31
6.83814994353327e-005
  0
LINE
 8
GROUP0
10
300.796625744671
20
1857.11013330297
30
6.83814994353327e-005
11
303.394701956021
21
1858.61013330297
31
7.21696431604357e-005
  0
LINE
 8
GROUP0
10
289.600477477137
20
1871.30628131183
30
7.11909329595528e-005
11
289.600477477134
21
1868.30628131183
31
7.24482574732122e-005
  0
LINE
 8
GROUP0
10
289.600477477134
20
1868.30628131183
30
7.24482574732122e-005
11
287.002401265786
21
1866.80628131183
31
6.86601141993037e-005
  0
LINE
 8
GROUP0
10
287.002401265786
20
1866.80628131183
30
6.86601141993037e-005
11
284.404325054436
21
1868.30628131183
31
6.36146449679131e-005
  0
LINE
 8
GROUP0
10
284.404325054436
20
1868.30628131183
30
6.36146449679131e-005
11
284.404325054439
21
1871.30628131183
31
6.23573205444927e-005
  0
LINE
 8
GROUP0
10
284.404325054439
20
1871.30628131183
30
6.23573205444927e-005
11
287.002401265789
21
1872.80628131183
31
6.61454649012683e-005
  0
LINE
 8
GROUP0
10
287.002401265789
20
1872.80628131183
30
6.61454649012683e-005
11
289.600477477137
21
1871.30628131183
31
7.11909329595528e-005
  0
LINE
 8
GROUP0
10
329.483156107761
20
1861.20821332834
30
6.17497724370253e-005
11
329.483156107763
21
1864.20821332834
31
5.97562681953434e-005
  0
LINE
 8
GROUP0
10
329.483156107763
20
1864.20821332834
30
5.97562681953434e-005
11
332.081232319117
21
1865.70821332834
31
6.00675621747371e-005
  0
LINE
 8
GROUP0
10
332.081232319117
20
1865.70821332834
30
6.00675621747371e-005
11
334.679308530469
21
1864.20821332834
31
6.23723606665294e-005
  0
LINE
 8
GROUP0
10
334.679308530469
20
1864.20821332834
30
6.23723606665294e-005
11
334.679308530468
21
1861.20821332834
31
6.43658648179723e-005
  0
LINE
 8
GROUP0
10
334.679308530468
20
1861.20821332834
30
6.43658648179723e-005
11
332.081232319114
21
1859.70821332834
31
6.40545707483398e-005
  0
LINE
 8
GROUP0
10
332.081232319114
20
1859.70821332834
30
6.40545707483398e-005
11
329.483156107761
21
1861.20821332834
31
6.17497724370253e-005
  0
LINE
 8
GROUP0
10
341.777368373787
20
1871.30629455326
30
0.000111685134218931
11
344.375444585137
21
1872.80629455326
31
0.000115473278395228
  0
LINE
 8
GROUP0
10
344.375444585137
20
1872.80629455326
30
0.000115473278395228
11
346.973520796486
21
1871.30629455326
31
0.000120518746814469
  0
LINE
 8
GROUP0
10
346.973520796486
20
1871.30629455326
30
0.000120518746814469
11
346.973520796483
21
1868.30629455326
31
0.000121776071598845
  0
LINE
 8
GROUP0
10
346.973520796483
20
1868.30629455326
30
0.000121776071598845
11
344.375444585133
21
1866.80629455326
31
0.000117987927422547
  0
LINE
 8
GROUP0
10
344.375444585133
20
1866.80629455326
30
0.000117987927422547
11
341.777368373785
21
1868.30629455326
31
0.000112942458191156
  0
LINE
 8
GROUP0
10
341.777368373785
20
1868.30629455326
30
0.000112942458191156
11
341.777368373787
21
1871.30629455326
31
0.000111685134218931
  0
LINE
 8
GROUP0
10
345.875460953182
20
1875.40436575103
30
8.0312939060434e-005
11
345.875460953184
21
1878.40436575103
31
7.905561409558e-005
  0
LINE
 8
GROUP0
10
345.875460953184
20
1878.40436575103
30
7.905561409558e-005
11
348.473537164534
21
1879.90436575103
31
8.28437583621167e-005
  0
LINE
 8
GROUP0
10
348.473537164534
20
1879.90436575103
30
8.28437583621167e-005
11
351.071613375882
21
1878.40436575103
31
8.78892272325515e-005
  0
LINE
 8
GROUP0
10
351.071613375882
20
1878.40436575103
30
8.78892272325515e-005
11
351.07161337588
21
1875.40436575103
31
8.91465513852552e-005
  0
LINE
 8
GROUP0
10
351.07161337588
20
1875.40436575103
30
8.91465513852552e-005
11
348.47353716453
21
1873.90436575103
31
8.53584076601521e-005
  0
LINE
 8
GROUP0
10
348.47353716453
20
1873.90436575103
30
8.53584076601521e-005
11
345.875460953182
21
1875.40436575103
31
8.0312939060434e-005
  0
LINE
 8
GROUP0
10
273.208185883378
20
1857.11012888918
30
4.62592189137467e-005
11
273.208185883376
21
1854.11012888918
31
4.75165436078839e-005
  0
LINE
 8
GROUP0
10
273.208185883376
20
1854.11012888918
30
4.75165436078839e-005
11
270.610109672025
21
1852.61012888918
31
4.37283987999137e-005
  0
LINE
 8
GROUP0
10
270.610109672025
20
1852.61012888918
30
4.37283987999137e-005
11
268.012033460677
21
1854.11012888918
31
3.86829304709124e-005
  0
LINE
 8
GROUP0
10
268.012033460677
20
1854.11012888918
30
3.86829304709124e-005
11
268.01203346068
21
1857.11012888918
31
3.7425606047492e-005
  0
LINE
 8
GROUP0
10
268.01203346068
20
1857.11012888918
30
3.7425606047492e-005
11
270.61010967203
21
1858.61012888917
31
4.12137509457011e-005
  0
LINE
 8
GROUP0
10
270.61010967203
20
1858.61012888917
30
4.12137509457011e-005
11
273.208185883378
21
1857.11012888918
31
4.62592189137467e-005
  0
LINE
 8
GROUP0
10
289.600477477135
20
1882.5024337345
30
7.24482571573759e-005
11
287.002401265786
21
1881.0024337345
31
6.86601140639453e-005
  0
LINE
 8
GROUP0
10
287.002401265786
20
1881.0024337345
30
6.86601140639453e-005
11
284.404325054436
21
1882.5024337345
31
6.36146447423158e-005
  0
LINE
 8
GROUP0
10
284.404325054436
20
1882.5024337345
30
6.36146447423158e-005
11
284.404325054438
21
1885.5024337345
31
6.23573203188954e-005
  0
LINE
 8
GROUP0
10
284.404325054438
20
1885.5024337345
30
6.23573203188954e-005
11
287.002401265789
21
1887.0024337345
31
6.61454651268656e-005
  0
LINE
 8
GROUP0
10
287.002401265789
20
1887.0024337345
30
6.61454651268656e-005
11
289.600477477137
21
1885.5024337345
31
7.11909332753891e-005
  0
LINE
 8
GROUP0
10
289.600477477137
20
1885.5024337345
30
7.11909332753891e-005
11
289.600477477135
21
1882.5024337345
31
7.24482571573759e-005
  0
LINE
 8
GROUP0
10
278.80626001716
20
1887.00243373452
30
4.43755317018457e-005
11
281.404336228508
21
1885.50243373452
31
4.94210002113249e-005
  0
LINE
 8
GROUP0
10
281.404336228508
20
1885.50243373452
30
4.94210002113249e-005
11
281.404336228505
21
1882.50243373453
31
5.06783248152232e-005
  0
LINE
 8
GROUP0
10
281.404336228505
20
1882.50243373453
30
5.06783248152232e-005
11
278.806260017155
21
1881.00243373453
31
4.6890179917014e-005
  0
LINE
 8
GROUP0
10
278.806260017155
20
1881.00243373453
30
4.6890179917014e-005
11
276.208183805807
21
1882.50243373452
31
4.18447122196852e-005
  0
LINE
 8
GROUP0
10
276.208183805807
20
1882.50243373452
30
4.18447122196852e-005
11
276.208183805809
21
1885.50243373452
31
4.05873873450702e-005
  0
LINE
 8
GROUP0
10
276.208183805809
20
1885.50243373452
30
4.05873873450702e-005
11
278.80626001716
21
1887.00243373452
31
4.43755317018457e-005
  0
LINE
 8
GROUP0
10
270.610109672037
20
1887.00243373452
30
4.43755317018457e-005
11
273.208185883386
21
1885.50243373452
31
4.94210002113249e-005
  0
LINE
 8
GROUP0
10
273.208185883386
20
1885.50243373452
30
4.94210002113249e-005
11
273.208185883384
21
1882.50243373453
31
5.06783248152232e-005
  0
LINE
 8
GROUP0
10
273.208185883384
20
1882.50243373453
30
5.06783248152232e-005
11
270.610109672033
21
1881.00243373453
31
4.6890179917014e-005
  0
LINE
 8
GROUP0
10
270.610109672033
20
1881.00243373453
30
4.6890179917014e-005
11
268.012033460685
21
1882.50243373452
31
4.18447122196852e-005
  0
LINE
 8
GROUP0
10
268.012033460685
20
1882.50243373452
30
4.18447122196852e-005
11
268.012033460687
21
1885.50243373452
31
4.05873874353091e-005
  0
LINE
 8
GROUP0
10
268.012033460687
20
1885.50243373452
30
4.05873874353091e-005
11
270.610109672037
21
1887.00243373452
31
4.43755317018457e-005
  0
LINE
 8
GROUP0
10
296.698565901375
20
1875.40435692341
30
4.01710855744142e-005
11
296.698565901377
21
1878.40435692341
31
3.89137606095602e-005
  0
LINE
 8
GROUP0
10
296.698565901377
20
1878.40435692341
30
3.89137606095602e-005
11
299.296642112727
21
1879.90435692341
31
4.27019048760968e-005
  0
LINE
 8
GROUP0
10
299.296642112727
20
1879.90435692341
30
4.27019048760968e-005
11
301.894718324076
21
1878.40435692341
31
4.77473737465317e-005
  0
LINE
 8
GROUP0
10
301.894718324076
20
1878.40435692341
30
4.77473737465317e-005
11
301.894718324073
21
1875.40435692342
31
4.90046978992353e-005
  0
LINE
 8
GROUP0
10
301.894718324073
20
1875.40435692342
30
4.90046978992353e-005
11
299.296642112723
21
1873.90435692342
31
4.52165542192517e-005
  0
LINE
 8
GROUP0
10
299.296642112723
20
1873.90435692342
30
4.52165542192517e-005
11
296.698565901375
21
1875.40435692341
31
4.01710855744142e-005
  0
LINE
 8
GROUP0
10
305.992778167377
20
1885.50243814832
30
8.03768932382098e-005
11
305.992778167375
21
1882.50243814832
31
8.1634218022586e-005
  0
LINE
 8
GROUP0
10
305.992778167375
20
1882.50243814832
30
8.1634218022586e-005
11
303.394701956025
21
1881.00243814832
31
7.78460731243768e-005
  0
LINE
 8
GROUP0
10
303.394701956025
20
1881.00243814832
30
7.78460731243768e-005
11
300.796625744676
21
1882.50243814832
31
7.28006044344198e-005
  0
LINE
 8
GROUP0
10
300.796625744676
20
1882.50243814832
30
7.28006044344198e-005
11
300.796625744679
21
1885.50243814832
31
7.15432802817162e-005
  0
LINE
 8
GROUP0
10
300.796625744679
20
1885.50243814832
30
7.15432802817162e-005
11
303.394701956028
21
1887.00243814832
31
7.53314249994474e-005
  0
LINE
 8
GROUP0
10
303.394701956028
20
1887.00243814832
30
7.53314249994474e-005
11
305.992778167377
21
1885.50243814832
31
8.03768932382098e-005
  0
LINE
 8
GROUP0
10
303.394701956028
20
1872.80628572565
30
7.5331424954328e-005
11
305.992778167377
21
1871.30628572565
31
8.03768933735682e-005
  0
LINE
 8
GROUP0
10
305.992778167377
20
1871.30628572565
30
8.03768933735682e-005
11
305.992778167375
21
1868.30628572565
31
8.16342181579444e-005
  0
LINE
 8
GROUP0
10
305.992778167375
20
1868.30628572565
30
8.16342181579444e-005
11
303.394701956025
21
1866.80628572565
31
7.78460739816467e-005
  0
LINE
 8
GROUP0
10
303.394701956025
20
1866.80628572565
30
7.78460739816467e-005
11
300.796625744676
21
1868.30628572565
31
7.28006047502561e-005
  0
LINE
 8
GROUP0
10
300.796625744676
20
1868.30628572565
30
7.28006047502561e-005
11
300.796625744679
21
1871.30628572565
31
7.15432807780303e-005
  0
LINE
 8
GROUP0
10
300.796625744679
20
1871.30628572565
30
7.15432807780303e-005
11
303.394701956028
21
1872.80628572565
31
7.5331424954328e-005
  0
LINE
 8
GROUP0
10
285.502413478676
20
1875.40435692342
30
4.90046978992353e-005
11
282.904337267326
21
1873.90435692342
31
4.52165541741323e-005
  0
LINE
 8
GROUP0
10
282.904337267326
20
1873.90435692342
30
4.52165541741323e-005
11
280.306261055978
21
1875.40435692341
31
4.01710855744142e-005
  0
LINE
 8
GROUP0
10
280.306261055978
20
1875.40435692341
30
4.01710855744142e-005
11
280.30626105598
21
1878.40435692341
31
3.89137606095602e-005
  0
LINE
 8
GROUP0
10
280.30626105598
20
1878.40435692341
30
3.89137606095602e-005
11
282.904337267329
21
1879.90435692341
31
4.270190460538e-005
  0
LINE
 8
GROUP0
10
282.904337267329
20
1879.90435692341
30
4.270190460538e-005
11
285.502413478678
21
1878.40435692341
31
4.77473737465317e-005
  0
LINE
 8
GROUP0
10
285.502413478678
20
1878.40435692341
30
4.77473737465317e-005
11
285.502413478676
21
1875.40435692342
31
4.90046978992353e-005
  0
LINE
 8
GROUP0
10
288.502413478679
20
1878.40435692341
30
3.89137606095602e-005
11
291.100489690028
21
1879.90435692341
31
4.27019048760968e-005
  0
LINE
 8
GROUP0
10
291.100489690028
20
1879.90435692341
30
4.27019048760968e-005
11
293.698565901377
21
1878.40435692341
31
4.77473737465317e-005
  0
LINE
 8
GROUP0
10
293.698565901377
20
1878.40435692341
30
4.77473737465317e-005
11
293.698565901375
21
1875.40435692342
31
4.90046978992353e-005
  0
LINE
 8
GROUP0
10
293.698565901375
20
1875.40435692342
30
4.90046978992353e-005
11
291.100489690024
21
1873.90435692342
31
4.52165541741323e-005
  0
LINE
 8
GROUP0
10
291.100489690024
20
1873.90435692342
30
4.52165541741323e-005
11
288.502413478676
21
1875.40435692341
31
4.01710855744142e-005
  0
LINE
 8
GROUP0
10
288.502413478676
20
1875.40435692341
30
4.01710855744142e-005
11
288.502413478679
21
1878.40435692341
31
3.89137606095602e-005
  0
LINE
 8
GROUP0
10
268.012033460688
20
1871.30628131185
30
4.05873877962648e-005
11
270.610109672038
21
1872.80628131185
31
4.43755315213679e-005
  0
LINE
 8
GROUP0
10
270.610109672038
20
1872.80628131185
30
4.43755315213679e-005
11
273.208185883386
21
1871.30628131185
31
4.9421000030847e-005
  0
LINE
 8
GROUP0
10
273.208185883386
20
1871.30628131185
30
4.9421000030847e-005
11
273.208185883384
21
1868.30628131185
31
5.06783248603426e-005
  0
LINE
 8
GROUP0
10
273.208185883384
20
1868.30628131185
30
5.06783248603426e-005
11
270.610109672034
21
1866.80628131185
31
4.6890180593806e-005
  0
LINE
 8
GROUP0
10
270.610109672034
20
1866.80628131185
30
4.6890180593806e-005
11
268.012033460685
21
1868.30628131185
31
4.18447126257604e-005
  0
LINE
 8
GROUP0
10
268.012033460685
20
1868.30628131185
30
4.18447126257604e-005
11
268.012033460688
21
1871.30628131185
31
4.05873877962648e-005
  0
LINE
 8
GROUP0
10
292.600475399561
20
1885.5024337345
30
6.23573202286565e-005
11
295.198551610911
21
1887.0024337345
31
6.61454651268656e-005
  0
LINE
 8
GROUP0
10
295.198551610911
20
1887.0024337345
30
6.61454651268656e-005
11
297.796627822259
21
1885.5024337345
31
7.11909331851501e-005
  0
LINE
 8
GROUP0
10
297.796627822259
20
1885.5024337345
30
7.11909331851501e-005
11
297.796627822257
21
1882.5024337345
31
7.24482571573759e-005
  0
LINE
 8
GROUP0
10
297.796627822257
20
1882.5024337345
30
7.24482571573759e-005
11
295.198551610907
21
1881.0024337345
31
6.86601140639453e-005
  0
LINE
 8
GROUP0
10
295.198551610907
20
1881.0024337345
30
6.86601140639453e-005
11
292.600475399559
21
1882.5024337345
31
6.36146447423158e-005
  0
LINE
 8
GROUP0
10
292.600475399559
20
1882.5024337345
30
6.36146447423158e-005
11
292.600475399561
21
1885.5024337345
31
6.23573202286565e-005
  0
LINE
 8
GROUP0
10
272.110108633281
20
1878.40435692341
30
3.89137606095602e-005
11
274.708184844631
21
1879.90435692341
31
4.27019048760968e-005
  0
LINE
 8
GROUP0
10
274.708184844631
20
1879.90435692341
30
4.27019048760968e-005
11
277.30626105598
21
1878.40435692341
31
4.77473737465317e-005
  0
LINE
 8
GROUP0
10
277.30626105598
20
1878.40435692341
30
4.77473737465317e-005
11
277.306261055977
21
1875.40435692342
31
4.90046978992353e-005
  0
LINE
 8
GROUP0
10
277.306261055977
20
1875.40435692342
30
4.90046978992353e-005
11
274.708184844627
21
1873.90435692342
31
4.52165541741323e-005
  0
LINE
 8
GROUP0
10
274.708184844627
20
1873.90435692342
30
4.52165541741323e-005
11
272.110108633279
21
1875.40435692341
31
4.01710855744142e-005
  0
LINE
 8
GROUP0
10
272.110108633279
20
1875.40435692341
30
4.01710855744142e-005
11
272.110108633281
21
1878.40435692341
31
3.89137606095602e-005
 0
ENDSEC
 0
EOF
