 0
SECTION
 2
ENTITIES
  0
LINE
 8
GROUP0
10
425.945900931302
20
1853.14472295555
30
0.000142641027426293
11
428.543977142652
21
1854.64472295555
31
0.000146429171783069
  0
LINE
 8
GROUP0
10
418.847836932839
20
1846.04664614446
30
0.000122128628771634
11
418.847836932837
21
1843.04664614447
31
0.000124122133374271
  0
LINE
 8
GROUP0
10
418.847836932837
20
1843.04664614447
30
0.000124122133374271
11
416.249760721483
21
1841.54664614447
31
0.000123810839304639
  0
LINE
 8
GROUP0
10
416.249760721483
20
1841.54664614447
30
0.000123810839304639
11
413.651684510131
21
1843.04664614447
31
0.000121506041444519
  0
LINE
 8
GROUP0
10
427.043989355531
20
1846.04664614446
30
0.000112321421529771
11
427.04398935553
21
1843.04664614446
31
0.000114314926042169
  0
LINE
 8
GROUP0
10
413.651684510131
20
1843.04664614447
30
0.000121506041444519
11
413.651684510133
21
1846.04664614447
31
0.000119512536661404
  0
LINE
 8
GROUP0
10
413.651684510133
20
1846.04664614447
30
0.000119512536661404
11
416.249760721487
21
1847.54664614446
31
0.000119823830099364
  0
LINE
 8
GROUP0
10
416.249760721487
20
1847.54664614446
30
0.000119823830099364
11
418.847836932839
21
1846.04664614446
31
0.000122128628771634
  0
LINE
 8
GROUP0
10
413.651684510145
20
1860.24279856714
30
0.00011919746753648
11
416.249760721494
21
1861.74279856714
31
0.000122985611803017
  0
LINE
 8
GROUP0
10
409.553609337551
20
1867.34087537825
30
0.00012087109431711
11
412.151685548901
21
1868.84087537825
31
0.000124659238583646
  0
LINE
 8
GROUP0
10
416.249760721494
20
1861.74279856714
30
0.000122985611803017
11
418.847836932843
21
1860.24279856714
31
0.000128031080673452
  0
LINE
 8
GROUP0
10
414.749761760249
20
1867.34087537825
30
0.000129704707093126
11
414.749761760247
21
1864.34087537825
31
0.000130962031742143
  0
LINE
 8
GROUP0
10
414.749761760247
20
1864.34087537825
30
0.000130962031742143
11
412.151685548897
21
1862.84087537825
31
0.000127173886843934
  0
LINE
 8
GROUP0
10
418.847836932843
20
1860.24279856714
30
0.000128031080673452
11
418.84783693284
21
1857.24279856714
31
0.000129288404826156
  0
LINE
 8
GROUP0
10
418.84783693284
20
1857.24279856714
30
0.000129288404826156
11
416.249760721491
21
1855.74279856714
31
0.000125500261101053
  0
LINE
 8
GROUP0
10
412.151685548901
20
1868.84087537825
30
0.000124659238583646
11
414.749761760249
21
1867.34087537825
31
0.000129704707093126
  0
LINE
 8
GROUP0
10
413.651684510142
20
1857.24279856714
30
0.000120454792501334
11
413.651684510145
21
1860.24279856714
31
0.00011919746753648
  0
LINE
 8
GROUP0
10
427.043989355542
20
1860.24279856714
30
0.000128031080673452
11
427.04398935554
21
1857.24279856714
31
0.000129288404826156
  0
LINE
 8
GROUP0
10
421.847836932843
20
1860.24279856714
30
0.00011919746753648
11
424.445913144193
21
1861.74279856714
31
0.0001229856115323
  0
LINE
 8
GROUP0
10
416.249760721491
20
1855.74279856714
30
0.000125500261101053
11
413.651684510142
21
1857.24279856714
31
0.000120454792501334
  0
LINE
 8
GROUP0
10
424.445913144193
20
1861.74279856714
30
0.0001229856115323
11
427.043989355542
21
1860.24279856714
31
0.000128031080673452
  0
LINE
 8
GROUP0
10
449.034370412254
20
1841.54664614444
30
8.45820097055139e-005
11
446.436294200903
21
1843.04664614444
31
8.22772116649162e-005
  0
LINE
 8
GROUP0
10
446.436294200903
20
1843.04664614444
30
8.22772116649162e-005
11
446.436294200905
21
1846.04664614444
31
8.02837068818008e-005
  0
LINE
 8
GROUP0
10
446.436294200905
20
1846.04664614444
30
8.02837068818008e-005
11
449.034370412258
21
1847.54664614444
31
8.05950007709555e-005
  0
LINE
 8
GROUP0
10
420.347835894023
20
1854.64472295558
30
0.000124659238448288
11
422.945912105371
21
1853.14472295558
31
0.000129704706867528
  0
LINE
 8
GROUP0
10
421.847836932841
20
1857.24279856714
30
0.000120454792501334
11
421.847836932843
21
1860.24279856714
31
0.00011919746753648
  0
LINE
 8
GROUP0
10
420.347835894019
20
1848.64472295558
30
0.000127173887385368
11
417.749759682671
21
1850.14472295558
31
0.000122128419507561
  0
LINE
 8
GROUP0
10
417.749759682673
20
1853.14472295558
30
0.000120871094723185
11
420.347835894023
21
1854.64472295558
31
0.000124659238448288
  0
LINE
 8
GROUP0
10
417.749759682671
20
1850.14472295558
30
0.000122128419507561
11
417.749759682673
21
1853.14472295558
31
0.000120871094723185
  0
LINE
 8
GROUP0
10
449.034370412258
20
1847.54664614444
30
8.05950007709555e-005
11
451.632446623609
21
1846.04664614444
31
8.28997995334646e-005
  0
LINE
 8
GROUP0
10
451.632446623609
20
1846.04664614444
30
8.28997995334646e-005
11
451.632446623607
21
1843.04664614444
31
8.48933034141908e-005
  0
LINE
 8
GROUP0
10
427.04398935554
20
1857.24279856714
30
0.000129288404826156
11
424.44591314419
21
1855.74279856714
31
0.000125500261101053
  0
LINE
 8
GROUP0
10
422.945912105371
20
1853.14472295558
30
0.000129704706867528
11
422.945912105369
21
1850.14472295558
31
0.000130962031742143
  0
LINE
 8
GROUP0
10
422.945912105369
20
1850.14472295558
30
0.000130962031742143
11
420.347835894019
21
1848.64472295558
31
0.000127173887385368
  0
LINE
 8
GROUP0
10
424.44591314419
20
1855.74279856714
30
0.000125500261101053
11
421.847836932841
21
1857.24279856714
31
0.000120454792501334
  0
LINE
 8
GROUP0
10
451.632446623607
20
1843.04664614444
30
8.48933034141908e-005
11
449.034370412254
21
1841.54664614444
31
8.45820097055139e-005
  0
LINE
 8
GROUP0
10
331.690199251926
20
1857.24278091192
30
4.01710855744142e-005
11
331.690199251928
21
1860.24278091192
31
3.89137606095602e-005
  0
LINE
 8
GROUP0
10
352.180566018208
20
1867.340857723
30
6.23573202286565e-005
11
354.778642229557
21
1868.840857723
31
6.61454651268656e-005
  0
LINE
 8
GROUP0
10
330.190200290684
20
1854.64470530035
30
4.43755315213679e-005
11
332.788276502033
21
1853.14470530035
31
4.9421000030847e-005
  0
LINE
 8
GROUP0
10
354.778642229554
20
1862.840857723
30
6.86601140639453e-005
11
352.180566018205
21
1864.340857723
31
6.36146447423158e-005
  0
LINE
 8
GROUP0
10
330.19020029068
20
1848.64470530036
30
4.6890180593806e-005
11
327.592124079332
21
1850.14470530036
31
4.18447126257604e-005
  0
LINE
 8
GROUP0
10
357.376718440904
20
1864.340857723
30
7.24482571573759e-005
11
354.778642229554
21
1862.840857723
31
6.86601140639453e-005
  0
LINE
 8
GROUP0
10
352.180566018205
20
1864.340857723
30
6.36146447423158e-005
11
352.180566018208
21
1867.340857723
31
6.23573202286565e-005
  0
LINE
 8
GROUP0
10
327.592124079334
20
1853.14470530035
30
4.05873877962648e-005
11
330.190200290684
21
1854.64470530035
31
4.43755315213679e-005
  0
LINE
 8
GROUP0
10
354.778642229557
20
1868.840857723
30
6.61454651268656e-005
11
357.376718440906
21
1867.340857723
31
7.11909331851501e-005
  0
LINE
 8
GROUP0
10
332.788276502033
20
1853.14470530035
30
4.9421000030847e-005
11
332.788276502031
21
1850.14470530036
31
5.06783248603426e-005
  0
LINE
 8
GROUP0
10
332.788276502031
20
1850.14470530036
30
5.06783248603426e-005
11
330.19020029068
21
1848.64470530036
31
4.6890180593806e-005
  0
LINE
 8
GROUP0
10
357.376718440906
20
1867.340857723
30
7.11909331851501e-005
11
357.376718440904
21
1864.340857723
31
7.24482571573759e-005
  0
LINE
 8
GROUP0
10
327.592124079332
20
1850.14470530036
30
4.18447126257604e-005
11
327.592124079334
21
1853.14470530035
31
4.05873877962648e-005
  0
LINE
 8
GROUP0
10
350.680580308671
20
1855.74278091192
30
4.52165541741323e-005
11
348.082504097323
21
1857.24278091192
31
4.01710855744142e-005
  0
LINE
 8
GROUP0
10
342.484427885973
20
1855.74278091192
30
4.52165541741323e-005
11
339.886351674624
21
1857.24278091192
31
4.01710855744142e-005
  0
LINE
 8
GROUP0
10
348.082504097326
20
1860.24278091192
30
3.89137606095602e-005
11
350.680580308675
21
1861.74278091192
31
4.27019048760968e-005
  0
LINE
 8
GROUP0
10
345.082504097323
20
1857.24278091192
30
4.90046978992353e-005
11
342.484427885973
21
1855.74278091192
31
4.52165541741323e-005
  0
LINE
 8
GROUP0
10
353.278656520024
20
1860.24278091192
30
4.77473737465317e-005
11
353.278656520022
21
1857.24278091192
31
4.90046978992353e-005
  0
LINE
 8
GROUP0
10
350.680580308675
20
1861.74278091192
30
4.27019048760968e-005
11
353.278656520024
21
1860.24278091192
31
4.77473737465317e-005
  0
LINE
 8
GROUP0
10
348.082504097323
20
1857.24278091192
30
4.01710855744142e-005
11
348.082504097326
21
1860.24278091192
31
3.89137606095602e-005
  0
LINE
 8
GROUP0
10
339.886351674624
20
1857.24278091192
30
4.01710855744142e-005
11
339.886351674627
21
1860.24278091192
31
3.89137606095602e-005
  0
LINE
 8
GROUP0
10
339.886351674627
20
1860.24278091192
30
3.89137606095602e-005
11
342.484427885976
21
1861.74278091192
31
4.270190460538e-005
  0
LINE
 8
GROUP0
10
353.278656520022
20
1857.24278091192
30
4.90046978992353e-005
11
350.680580308671
21
1855.74278091192
31
4.52165541741323e-005
  0
LINE
 8
GROUP0
10
360.376716363323
20
1850.14470971415
30
7.28006047502561e-005
11
360.376716363325
21
1853.14470971415
31
7.15432807780303e-005
  0
LINE
 8
GROUP0
10
360.376716363325
20
1853.14470971415
30
7.15432807780303e-005
11
362.974792574675
21
1854.64470971415
31
7.5331424954328e-005
  0
LINE
 8
GROUP0
10
365.572868786022
20
1850.14470971415
30
8.16342181579444e-005
11
362.974792574672
21
1848.64470971415
31
7.78460739816467e-005
  0
LINE
 8
GROUP0
10
365.572868786024
20
1867.34086213682
30
8.03768932382098e-005
11
365.572868786022
21
1864.34086213682
31
8.1634218022586e-005
  0
LINE
 8
GROUP0
10
345.082504097325
20
1860.24278091192
30
4.77473737465317e-005
11
345.082504097323
21
1857.24278091192
31
4.90046978992353e-005
  0
LINE
 8
GROUP0
10
362.974792574672
20
1848.64470971415
30
7.78460739816467e-005
11
360.376716363323
21
1850.14470971415
31
7.28006047502561e-005
  0
LINE
 8
GROUP0
10
360.376716363325
20
1867.34086213682
30
7.15432802817162e-005
11
362.974792574675
21
1868.84086213682
31
7.53314249994474e-005
  0
LINE
 8
GROUP0
10
362.974792574675
20
1868.84086213682
30
7.53314249994474e-005
11
365.572868786024
21
1867.34086213682
31
8.03768932382098e-005
  0
LINE
 8
GROUP0
10
356.278656520022
20
1857.24278091192
30
4.01710855744142e-005
11
356.278656520024
21
1860.24278091192
31
3.89137606095602e-005
  0
LINE
 8
GROUP0
10
360.376716363323
20
1864.34086213682
30
7.28006044344198e-005
11
360.376716363325
21
1867.34086213682
31
7.15432802817162e-005
  0
LINE
 8
GROUP0
10
356.278656520024
20
1860.24278091192
30
3.89137606095602e-005
11
358.876732731374
21
1861.74278091192
31
4.27019048760968e-005
  0
LINE
 8
GROUP0
10
365.572868786024
20
1853.14470971415
30
8.03768933735682e-005
11
365.572868786022
21
1850.14470971415
31
8.16342181579444e-005
  0
LINE
 8
GROUP0
10
342.484427885976
20
1861.74278091192
30
4.270190460538e-005
11
345.082504097325
21
1860.24278091192
31
4.77473737465317e-005
  0
LINE
 8
GROUP0
10
365.572868786022
20
1864.34086213682
30
8.1634218022586e-005
11
362.974792574672
21
1862.84086213682
31
7.78460731243768e-005
  0
LINE
 8
GROUP0
10
362.974792574672
20
1862.84086213682
30
7.78460731243768e-005
11
360.376716363323
21
1864.34086213682
31
7.28006044344198e-005
  0
LINE
 8
GROUP0
10
362.974792574675
20
1854.64470971415
30
7.5331424954328e-005
11
365.572868786024
21
1853.14470971415
31
8.03768933735682e-005
  0
LINE
 8
GROUP0
10
340.984426847155
20
1867.34085772303
30
4.94210002113249e-005
11
340.984426847152
21
1864.34085772303
31
5.06783248152232e-005
  0
LINE
 8
GROUP0
10
358.87673273137
20
1855.74278091192
30
4.52165542192517e-005
11
356.278656520022
21
1857.24278091192
31
4.01710855744142e-005
  0
LINE
 8
GROUP0
10
330.190200290684
20
1868.84085772303
30
4.43755317018457e-005
11
332.788276502033
21
1867.34085772303
31
4.94210002113249e-005
  0
LINE
 8
GROUP0
10
332.788276502031
20
1864.34085772303
30
5.06783248152232e-005
11
330.19020029068
21
1862.84085772303
31
4.6890179917014e-005
  0
LINE
 8
GROUP0
10
330.19020029068
20
1862.84085772303
30
4.6890179917014e-005
11
327.592124079332
21
1864.34085772303
31
4.18447122196852e-005
  0
LINE
 8
GROUP0
10
338.386350635806
20
1868.84085772303
30
4.43755317018457e-005
11
340.984426847155
21
1867.34085772303
31
4.94210002113249e-005
  0
LINE
 8
GROUP0
10
361.47480894272
20
1857.24278091192
30
4.90046978992353e-005
11
358.87673273137
21
1855.74278091192
31
4.52165542192517e-005
  0
LINE
 8
GROUP0
10
332.788276502033
20
1867.34085772303
30
4.94210002113249e-005
11
332.788276502031
21
1864.34085772303
31
5.06783248152232e-005
  0
LINE
 8
GROUP0
10
327.592124079332
20
1864.34085772303
30
4.18447122196852e-005
11
327.592124079334
21
1867.34085772303
31
4.05873874353091e-005
  0
LINE
 8
GROUP0
10
340.984426847152
20
1864.34085772303
30
5.06783248152232e-005
11
338.386350635802
21
1862.84085772303
31
4.6890179917014e-005
  0
LINE
 8
GROUP0
10
338.386350635802
20
1862.84085772303
30
4.6890179917014e-005
11
335.788274424454
21
1864.34085772303
31
4.18447122196852e-005
  0
LINE
 8
GROUP0
10
358.876732731374
20
1861.74278091192
30
4.27019048760968e-005
11
361.474808942722
21
1860.24278091192
31
4.77473737465317e-005
  0
LINE
 8
GROUP0
10
335.788274424454
20
1864.34085772303
30
4.18447122196852e-005
11
335.788274424456
21
1867.34085772303
31
4.05873873450702e-005
  0
LINE
 8
GROUP0
10
335.788274424456
20
1867.34085772303
30
4.05873873450702e-005
11
338.386350635806
21
1868.84085772303
31
4.43755317018457e-005
  0
LINE
 8
GROUP0
10
361.474808942722
20
1860.24278091192
30
4.77473737465317e-005
11
361.47480894272
21
1857.24278091192
31
4.90046978992353e-005
  0
LINE
 8
GROUP0
10
327.592124079334
20
1867.34085772303
30
4.05873874353091e-005
11
330.190200290684
21
1868.84085772303
31
4.43755317018457e-005
  0
LINE
 8
GROUP0
10
327.592124079323
20
1835.94855287768
30
3.86829304709124e-005
11
327.592124079326
21
1838.94855287768
31
3.7425606047492e-005
  0
LINE
 8
GROUP0
10
349.180568095784
20
1867.340857723
30
7.11909332753891e-005
11
349.180568095782
21
1864.340857723
31
7.24482571573759e-005
  0
LINE
 8
GROUP0
10
330.190200290672
20
1834.44855287768
30
4.37283987999137e-005
11
327.592124079323
21
1835.94855287768
31
3.86829304709124e-005
  0
LINE
 8
GROUP0
10
332.788276502025
20
1838.94855287768
30
4.62592189137467e-005
11
332.788276502023
21
1835.94855287768
31
4.75165436078839e-005
  0
LINE
 8
GROUP0
10
405.455551571829
20
1857.24278973953
30
8.0312939060434e-005
11
405.455551571831
21
1860.24278973953
31
7.905561409558e-005
  0
LINE
 8
GROUP0
10
408.053627783181
20
1861.74278973953
30
8.28437583621167e-005
11
410.651703994529
21
1860.24278973953
31
8.78892272325515e-005
  0
LINE
 8
GROUP0
10
410.651703994529
20
1860.24278973953
30
8.78892272325515e-005
11
410.651703994527
21
1857.24278973953
31
8.91465513852552e-005
  0
LINE
 8
GROUP0
10
330.190200290677
20
1840.44855287768
30
4.12137509457011e-005
11
332.788276502025
21
1838.94855287768
31
4.62592189137467e-005
  0
LINE
 8
GROUP0
10
343.984415673084
20
1867.340857723
30
6.23573203188954e-005
11
346.582491884436
21
1868.840857723
31
6.61454651268656e-005
  0
LINE
 8
GROUP0
10
346.582491884436
20
1868.840857723
30
6.61454651268656e-005
11
349.180568095784
21
1867.340857723
31
7.11909332753891e-005
  0
LINE
 8
GROUP0
10
332.788276502023
20
1835.94855287768
30
4.75165436078839e-005
11
330.190200290672
21
1834.44855287768
31
4.37283987999137e-005
  0
LINE
 8
GROUP0
10
405.455551571831
20
1860.24278973953
30
7.905561409558e-005
11
408.053627783181
21
1861.74278973953
31
8.28437583621167e-005
  0
LINE
 8
GROUP0
10
349.180568095782
20
1864.340857723
30
7.24482571573759e-005
11
346.582491884432
21
1862.840857723
31
6.86601140639453e-005
  0
LINE
 8
GROUP0
10
327.592124079326
20
1838.94855287768
30
3.7425606047492e-005
11
330.190200290677
21
1840.44855287768
31
4.12137509457011e-005
  0
LINE
 8
GROUP0
10
346.582491884432
20
1862.840857723
30
6.86601140639453e-005
11
343.984415673083
21
1864.340857723
31
6.36146447423158e-005
  0
LINE
 8
GROUP0
10
343.984415673083
20
1864.340857723
30
6.36146447423158e-005
11
343.984415673084
21
1867.340857723
31
6.23573203188954e-005
  0
LINE
 8
GROUP0
10
394.259399149116
20
1846.04663731684
30
6.23723606665294e-005
11
394.259399149115
21
1843.04663731684
31
6.43658648179723e-005
  0
LINE
 8
GROUP0
10
401.357458992431
20
1850.14471854176
30
0.000112942458191156
11
401.357458992434
21
1853.14471854176
31
0.000111685134218931
  0
LINE
 8
GROUP0
10
394.259399149115
20
1843.04663731684
30
6.43658648179723e-005
11
391.661322937761
21
1841.54663731684
31
6.40545707483398e-005
  0
LINE
 8
GROUP0
10
406.553611415132
20
1853.14471854176
30
0.000120518746814469
11
406.55361141513
21
1850.14471854176
31
0.000121776071598845
  0
LINE
 8
GROUP0
10
391.661322937761
20
1841.54663731684
30
6.40545707483398e-005
11
389.063246726408
21
1843.04663731684
31
6.17497724370253e-005
  0
LINE
 8
GROUP0
10
349.180568095784
20
1853.14470530033
30
7.11909329595528e-005
11
349.180568095781
21
1850.14470530033
31
7.24482574732122e-005
  0
LINE
 8
GROUP0
10
349.180568095781
20
1850.14470530033
30
7.24482574732122e-005
11
346.582491884432
21
1848.64470530033
31
6.86601141993037e-005
  0
LINE
 8
GROUP0
10
403.95553520378
20
1848.64471854176
30
0.000117987927422547
11
401.357458992431
21
1850.14471854176
31
0.000112942458191156
  0
LINE
 8
GROUP0
10
401.357458992434
20
1853.14471854176
30
0.000111685134218931
11
403.955535203784
21
1854.64471854176
31
0.000115473278395228
  0
LINE
 8
GROUP0
10
389.063246726408
20
1843.04663731684
30
6.17497724370253e-005
11
389.06324672641
21
1846.04663731684
31
5.97562681953434e-005
  0
LINE
 8
GROUP0
10
391.661322937763
20
1847.54663731684
30
6.00675621747371e-005
11
394.259399149116
21
1846.04663731684
31
6.23723606665294e-005
  0
LINE
 8
GROUP0
10
410.651703994527
20
1857.24278973953
30
8.91465513852552e-005
11
408.053627783177
21
1855.74278973953
31
8.53584076601521e-005
  0
LINE
 8
GROUP0
10
408.053627783177
20
1855.74278973953
30
8.53584076601521e-005
11
405.455551571829
21
1857.24278973953
31
8.0312939060434e-005
  0
LINE
 8
GROUP0
10
403.955535203784
20
1854.64471854176
30
0.000115473278395228
11
406.553611415132
21
1853.14471854176
31
0.000120518746814469
  0
LINE
 8
GROUP0
10
389.06324672641
20
1846.04663731684
30
5.97562681953434e-005
11
391.661322937763
21
1847.54663731684
31
6.00675621747371e-005
  0
LINE
 8
GROUP0
10
406.55361141513
20
1850.14471854176
30
0.000121776071598845
11
403.95553520378
21
1848.64471854176
31
0.000117987927422547
  0
LINE
 8
GROUP0
10
405.455551571796
20
1846.04663731683
30
4.01418534409004e-005
11
408.05362778315
21
1847.54663731683
31
4.04531473300551e-005
  0
LINE
 8
GROUP0
10
408.05362778315
20
1847.54663731683
30
4.04531473300551e-005
11
410.651703994501
21
1846.04663731683
31
4.27579460925642e-005
  0
LINE
 8
GROUP0
10
362.974792574663
20
1834.44855729147
30
7.46842922779933e-005
11
360.376716363315
21
1835.94855729147
31
6.96388229563638e-005
  0
LINE
 8
GROUP0
10
410.651703994501
20
1846.04663731683
30
4.27579460925642e-005
11
410.651703994499
21
1843.04663731683
31
4.47514499732904e-005
  0
LINE
 8
GROUP0
10
405.455551571794
20
1843.04663731683
30
4.21353582240158e-005
11
405.455551571796
21
1846.04663731683
31
4.01418534409004e-005
  0
LINE
 8
GROUP0
10
343.984415673085
20
1853.14470530033
30
6.23573205444927e-005
11
346.582491884436
21
1854.64470530033
31
6.61454649012683e-005
  0
LINE
 8
GROUP0
10
365.572868786014
20
1835.94855729147
30
7.84724359128575e-005
11
362.974792574663
21
1834.44855729147
31
7.46842922779933e-005
  0
LINE
 8
GROUP0
10
360.376716363315
20
1835.94855729147
30
6.96388229563638e-005
11
360.376716363317
21
1838.94855729147
31
6.83814994353327e-005
  0
LINE
 8
GROUP0
10
343.984415673083
20
1850.14470530033
30
6.36146449679131e-005
11
343.984415673085
21
1853.14470530033
31
6.23573205444927e-005
  0
LINE
 8
GROUP0
10
346.582491884436
20
1854.64470530033
30
6.61454649012683e-005
11
349.180568095784
21
1853.14470530033
31
7.11909329595528e-005
  0
LINE
 8
GROUP0
10
360.376716363317
20
1838.94855729147
30
6.83814994353327e-005
11
362.974792574668
21
1840.44855729147
31
7.21696431604357e-005
  0
LINE
 8
GROUP0
10
365.572868786015
20
1838.94855729147
30
7.72151118503928e-005
11
365.572868786014
21
1835.94855729147
31
7.84724359128575e-005
  0
LINE
 8
GROUP0
10
410.651703994499
20
1843.04663731683
30
4.47514499732904e-005
11
408.053627783146
21
1841.54663731683
31
4.44401562646135e-005
  0
LINE
 8
GROUP0
10
346.582491884432
20
1848.64470530033
30
6.86601141993037e-005
11
343.984415673083
21
1850.14470530033
31
6.36146449679131e-005
  0
LINE
 8
GROUP0
10
408.053627783146
20
1841.54663731683
30
4.44401562646135e-005
11
405.455551571794
21
1843.04663731683
31
4.21353582240158e-005
  0
LINE
 8
GROUP0
10
362.974792574668
20
1840.44855729147
30
7.21696431604357e-005
11
365.572868786015
21
1838.94855729147
31
7.72151118503928e-005
  0
LINE
 8
GROUP0
10
369.670961365418
20
1857.24278091192
30
4.90046979443548e-005
11
367.072885154069
21
1855.74278091192
31
4.52165542192517e-005
  0
LINE
 8
GROUP0
10
381.965169476261
20
1850.14471412797
30
9.0820178301243e-005
11
379.367093264911
21
1848.64471412797
31
8.70320339444675e-005
  0
LINE
 8
GROUP0
10
376.769017053565
20
1853.14471412797
30
8.07292412822846e-005
11
379.367093264915
21
1854.64471412797
31
8.45173850073877e-005
  0
LINE
 8
GROUP0
10
381.965169476263
20
1853.14471412797
30
8.95628534266279e-005
11
381.965169476261
21
1850.14471412797
31
9.0820178301243e-005
  0
LINE
 8
GROUP0
10
364.47480894272
20
1857.24278091192
30
4.01710856195336e-005
11
364.474808942723
21
1860.24278091192
31
3.89137606095602e-005
  0
LINE
 8
GROUP0
10
379.367093264911
20
1848.64471412797
30
8.70320339444675e-005
11
376.769017053563
21
1850.14471412797
31
8.19865660666608e-005
  0
LINE
 8
GROUP0
10
367.072885154069
20
1855.74278091192
30
4.52165542192517e-005
11
364.47480894272
21
1857.24278091192
31
4.01710856195336e-005
  0
LINE
 8
GROUP0
10
369.67096136542
20
1860.24278091192
30
4.77473737465317e-005
11
369.670961365418
21
1857.24278091192
31
4.90046979443548e-005
  0
LINE
 8
GROUP0
10
345.082504097315
20
1846.04662848923
30
3.203771464797e-005
11
345.082504097313
21
1843.04662848924
31
3.40312191603687e-005
  0
LINE
 8
GROUP0
10
345.082504097313
20
1843.04662848924
30
3.40312191603687e-005
11
342.48442788596
21
1841.54662848924
31
3.3719925180975e-005
  0
LINE
 8
GROUP0
10
342.48442788596
20
1841.54662848924
30
3.3719925180975e-005
11
339.886351674607
21
1843.04662848924
31
3.14151267794216e-005
  0
LINE
 8
GROUP0
10
339.886351674607
20
1843.04662848924
30
3.14151267794216e-005
11
339.886351674609
21
1846.04662848924
31
2.94216219060672e-005
  0
LINE
 8
GROUP0
10
364.474808942723
20
1860.24278091192
30
3.89137606095602e-005
11
367.072885154073
21
1861.74278091192
31
4.27019048760968e-005
  0
LINE
 8
GROUP0
10
379.367093264915
20
1854.64471412797
30
8.45173850073877e-005
11
381.965169476263
21
1853.14471412797
31
8.95628534266279e-005
  0
LINE
 8
GROUP0
10
376.769017053563
20
1850.14471412797
30
8.19865660666608e-005
11
376.769017053565
21
1853.14471412797
31
8.07292412822846e-005
  0
LINE
 8
GROUP0
10
367.072885154073
20
1861.74278091192
30
4.27019048760968e-005
11
369.67096136542
21
1860.24278091192
31
4.77473737465317e-005
  0
LINE
 8
GROUP0
10
339.886351674609
20
1846.04662848924
30
2.94216219060672e-005
11
342.484427885964
21
1847.54662848924
31
2.97329160659388e-005
  0
LINE
 8
GROUP0
10
367.072885154041
20
1847.54662848922
30
3.1129388915474e-007
11
369.670961365393
21
1846.04662848922
31
2.61609265166385e-006
  0
LINE
 8
GROUP0
10
342.484427885964
20
1847.54662848924
30
2.97329160659388e-005
11
345.082504097315
21
1846.04662848923
31
3.203771464797e-005
  0
LINE
 8
GROUP0
10
369.670961365391
20
1843.04662848922
30
4.60959653239001e-006
11
367.072885154038
21
1841.54662848922
31
4.29830282371313e-006
  0
LINE
 8
GROUP0
10
369.670961365393
20
1846.04662848922
30
2.61609265166385e-006
11
369.670961365391
21
1843.04662848922
31
4.60959653239001e-006
  0
LINE
 8
GROUP0
10
349.180568095775
20
1838.94855287765
30
6.8029151797333e-005
11
349.180568095773
21
1835.94855287765
31
6.92864763109924e-005
  0
LINE
 8
GROUP0
10
346.582491884424
20
1834.44855287766
30
6.54983316835001e-005
11
343.984415673075
21
1835.94855287765
31
6.04528635349766e-005
  0
LINE
 8
GROUP0
10
349.180568095773
20
1835.94855287765
30
6.92864763109924e-005
11
346.582491884424
21
1834.44855287766
31
6.54983316835001e-005
  0
LINE
 8
GROUP0
10
343.984415673075
20
1835.94855287765
30
6.04528635349766e-005
11
343.984415673077
21
1838.94855287765
31
5.91955386603615e-005
  0
LINE
 8
GROUP0
10
364.474808942688
20
1846.04662848922
30
0.0
11
367.072885154041
21
1847.54662848922
31
3.1129388915474e-007
  0
LINE
 8
GROUP0
10
364.474808942686
20
1843.04662848922
30
1.99350478311544e-006
11
364.474808942688
21
1846.04662848922
31
0.0
  0
LINE
 8
GROUP0
10
367.072885154038
20
1841.54662848922
30
4.29830282371313e-006
11
364.474808942686
21
1843.04662848922
31
1.99350478311544e-006
  0
LINE
 8
GROUP0
10
402.455551571828
20
1857.24278973953
30
8.91465513852552e-005
11
399.857475360478
21
1855.74278973953
31
8.53584076601521e-005
  0
LINE
 8
GROUP0
10
343.984415673077
20
1838.94855287765
30
5.91955386603615e-005
11
346.582491884428
21
1840.44855287765
31
6.29836833780928e-005
  0
LINE
 8
GROUP0
10
346.582491884428
20
1840.44855287765
30
6.29836833780928e-005
11
349.180568095775
21
1838.94855287765
31
6.8029151797333e-005
  0
LINE
 8
GROUP0
10
397.25939914913
20
1857.24278973953
30
8.0312939060434e-005
11
397.259399149132
21
1860.24278973953
31
7.905561409558e-005
  0
LINE
 8
GROUP0
10
393.161308647314
20
1850.14471412794
30
0.000103756498408814
11
393.161308647316
21
1853.14471412794
31
0.00010249917425611
  0
LINE
 8
GROUP0
10
395.759384858662
20
1848.64471412794
30
0.000108801967640204
11
393.161308647314
21
1850.14471412794
31
0.000103756498408814
  0
LINE
 8
GROUP0
10
402.455551571807
20
1843.04663731684
30
5.45586579370649e-005
11
399.857475360453
21
1841.54663731684
31
5.42473632357598e-005
  0
LINE
 8
GROUP0
10
399.857475360453
20
1841.54663731684
30
5.42473632357598e-005
11
397.259399149101
21
1843.04663731684
31
5.19425654658789e-005
  0
LINE
 8
GROUP0
10
399.857475360482
20
1861.74278973953
30
8.28437583621167e-005
11
402.455551571831
21
1860.24278973953
31
8.78892272325515e-005
  0
LINE
 8
GROUP0
10
399.857475360478
20
1855.74278973953
30
8.53584076601521e-005
11
397.25939914913
21
1857.24278973953
31
8.0312939060434e-005
  0
LINE
 8
GROUP0
10
397.259399149132
20
1860.24278973953
30
7.905561409558e-005
11
399.857475360482
21
1861.74278973953
31
8.28437583621167e-005
  0
LINE
 8
GROUP0
10
393.161308647316
20
1853.14471412794
30
0.00010249917425611
11
395.759384858666
21
1854.64471412794
31
0.000106287318342169
  0
LINE
 8
GROUP0
10
398.357461070015
20
1853.14471412794
30
0.000111332786310214
11
398.357461070013
21
1850.14471412794
31
0.000112590110914113
  0
LINE
 8
GROUP0
10
402.455551571831
20
1860.24278973953
30
8.78892272325515e-005
11
402.455551571828
21
1857.24278973953
31
8.91465513852552e-005
  0
LINE
 8
GROUP0
10
395.759384858666
20
1854.64471412794
30
0.000106287318342169
11
398.357461070015
21
1853.14471412794
31
0.000111332786310214
  0
LINE
 8
GROUP0
10
398.357461070013
20
1850.14471412794
30
0.000112590110914113
11
395.759384858662
21
1848.64471412794
31
0.000108801967640204
  0
LINE
 8
GROUP0
10
397.259399149103
20
1846.04663731684
30
4.99490605925246e-005
11
399.857475360457
21
1847.54663731684
31
5.02603545719182e-005
  0
LINE
 8
GROUP0
10
373.769019131139
20
1850.14471412797
30
9.0820178301243e-005
11
371.170942919789
21
1848.64471412797
31
8.70320340347064e-005
  0
LINE
 8
GROUP0
10
397.259399149101
20
1843.04663731684
30
5.19425654658789e-005
11
397.259399149103
21
1846.04663731684
31
4.99490605925246e-005
  0
LINE
 8
GROUP0
10
368.572866708441
20
1850.14471412797
30
8.19865660666608e-005
11
368.572866708443
21
1853.14471412797
31
8.07292412822846e-005
  0
LINE
 8
GROUP0
10
381.965169476264
20
1867.34086655064
30
8.95628536522253e-005
11
381.96516947626
21
1864.34086655064
31
9.08201782561235e-005
  0
LINE
 8
GROUP0
10
371.170942919793
20
1854.64471412797
30
8.45173850073877e-005
11
373.769019131141
21
1853.14471412797
31
8.95628535168669e-005
  0
LINE
 8
GROUP0
10
379.367093264911
20
1862.84086655064
30
8.70320333579144e-005
11
376.769017053563
21
1864.34086655064
31
8.19865656605856e-005
  0
LINE
 8
GROUP0
10
376.769017053563
20
1864.34086655064
30
8.19865656605856e-005
11
376.769017053564
21
1867.34086655064
31
8.07292407859705e-005
  0
LINE
 8
GROUP0
10
373.769019131141
20
1853.14471412797
30
8.95628535168669e-005
11
373.769019131139
21
1850.14471412797
31
9.0820178301243e-005
  0
LINE
 8
GROUP0
10
368.572866708443
20
1853.14471412797
30
8.07292412822846e-005
11
371.170942919793
21
1854.64471412797
31
8.45173850073877e-005
  0
LINE
 8
GROUP0
10
399.857475360457
20
1847.54663731684
30
5.02603545719182e-005
11
402.455551571809
21
1846.04663731683
31
5.25651532441884e-005
  0
LINE
 8
GROUP0
10
381.96516947626
20
1864.34086655064
30
9.08201782561235e-005
11
379.367093264911
21
1862.84086655064
31
8.70320333579144e-005
  0
LINE
 8
GROUP0
10
376.769017053564
20
1867.34086655064
30
8.07292407859705e-005
11
379.367093264915
21
1868.84086655064
31
8.45173851427461e-005
  0
LINE
 8
GROUP0
10
379.367093264915
20
1868.84086655064
30
8.45173851427461e-005
11
381.965169476264
21
1867.34086655064
31
8.95628536522253e-005
  0
LINE
 8
GROUP0
10
402.455551571809
20
1846.04663731683
30
5.25651532441884e-005
11
402.455551571807
21
1843.04663731684
31
5.45586579370649e-005
  0
LINE
 8
GROUP0
10
371.170942919789
20
1848.64471412797
30
8.70320340347064e-005
11
368.572866708441
21
1850.14471412797
31
8.19865660666608e-005
  0
LINE
 8
GROUP0
10
335.788274424446
20
1835.94855287768
30
3.86829304709124e-005
11
335.788274424448
21
1838.94855287768
31
3.74256059572531e-005
  0
LINE
 8
GROUP0
10
338.386350635799
20
1840.44855287768
30
4.12137502237897e-005
11
340.984426847146
21
1838.94855287768
31
4.62592188235078e-005
  0
LINE
 8
GROUP0
10
352.180566018208
20
1853.14470530033
30
6.23573208152095e-005
11
354.778642229557
21
1854.64470530033
31
6.61454649012683e-005
  0
LINE
 8
GROUP0
10
390.16131072489
20
1864.34086655062
30
0.000112590110598276
11
387.563234513541
21
1862.84086655062
31
0.000108801967504846
  0
LINE
 8
GROUP0
10
387.563234513541
20
1862.84086655062
30
0.000108801967504846
11
384.965158302192
21
1864.34086655062
31
0.000103756498183216
  0
LINE
 8
GROUP0
10
338.386350635795
20
1834.44855287768
30
4.37283987999137e-005
11
335.788274424446
21
1835.94855287768
31
3.86829304709124e-005
  0
LINE
 8
GROUP0
10
384.965158302192
20
1864.34086655062
30
0.000103756498183216
11
384.965158302193
21
1867.34086655062
31
0.000102499173759796
  0
LINE
 8
GROUP0
10
340.984426847146
20
1838.94855287768
30
4.62592188235078e-005
11
340.984426847144
21
1835.94855287768
31
4.75165436981229e-005
  0
LINE
 8
GROUP0
10
357.376718440906
20
1853.14470530033
30
7.11909328693139e-005
11
357.376718440904
21
1850.14470530033
31
7.24482574732122e-005
  0
LINE
 8
GROUP0
10
354.778642229554
20
1848.64470530033
30
6.86601141993037e-005
11
352.180566018205
21
1850.14470530033
31
6.36146449679131e-005
  0
LINE
 8
GROUP0
10
354.778642229557
20
1854.64470530033
30
6.61454649012683e-005
11
357.376718440906
21
1853.14470530033
31
7.11909328693139e-005
  0
LINE
 8
GROUP0
10
357.376718440904
20
1850.14470530033
30
7.24482574732122e-005
11
354.778642229554
21
1848.64470530033
31
6.86601141993037e-005
  0
LINE
 8
GROUP0
10
352.180566018205
20
1850.14470530033
30
6.36146449679131e-005
11
352.180566018208
21
1853.14470530033
31
6.23573208152095e-005
  0
LINE
 8
GROUP0
10
335.788274424448
20
1838.94855287768
30
3.74256059572531e-005
11
338.386350635799
21
1840.44855287768
31
4.12137502237897e-005
  0
LINE
 8
GROUP0
10
340.984426847144
20
1835.94855287768
30
4.75165436981229e-005
11
338.386350635795
21
1834.44855287768
31
4.37283987999137e-005
  0
LINE
 8
GROUP0
10
394.25939914913
20
1857.24278973953
30
8.91465513852552e-005
11
391.66132293778
21
1855.74278973953
31
8.53584076601521e-005
  0
LINE
 8
GROUP0
10
389.063246726431
20
1857.24278973953
30
8.0312939060434e-005
11
389.063246726434
21
1860.24278973953
31
7.905561409558e-005
  0
LINE
 8
GROUP0
10
389.063246726434
20
1860.24278973953
30
7.905561409558e-005
11
391.661322937783
21
1861.74278973953
31
8.28437583169972e-005
  0
LINE
 8
GROUP0
10
368.572866708443
20
1867.34086655064
30
8.07292408762095e-005
11
371.170942919793
21
1868.84086655064
31
8.45173851427461e-005
  0
LINE
 8
GROUP0
10
384.965158302193
20
1867.34086655062
30
0.000102499173759796
11
387.563234513544
21
1868.84086655062
31
0.000106287318567766
  0
LINE
 8
GROUP0
10
372.670941881036
20
1860.24278973953
30
7.90556140504606e-005
11
375.269018092386
21
1861.74278973953
31
8.28437583169972e-005
  0
LINE
 8
GROUP0
10
375.269018092386
20
1861.74278973953
30
8.28437583169972e-005
11
377.867094303735
21
1860.24278973953
31
8.78892271874321e-005
  0
LINE
 8
GROUP0
10
377.867094303732
20
1857.24278973953
30
8.91465513852552e-005
11
375.269018092383
21
1855.74278973953
31
8.53584076601521e-005
  0
LINE
 8
GROUP0
10
375.269018092383
20
1855.74278973953
30
8.53584076601521e-005
11
372.670941881034
21
1857.24278973953
31
8.0312939060434e-005
  0
LINE
 8
GROUP0
10
390.161310724893
20
1867.34086655062
30
0.000111332786716289
11
390.16131072489
21
1864.34086655062
31
0.000112590110598276
  0
LINE
 8
GROUP0
10
377.867094303735
20
1860.24278973953
30
8.78892271874321e-005
11
377.867094303732
21
1857.24278973953
31
8.91465513852552e-005
  0
LINE
 8
GROUP0
10
372.670941881034
20
1857.24278973953
30
8.0312939060434e-005
11
372.670941881036
21
1860.24278973953
31
7.90556140504606e-005
  0
LINE
 8
GROUP0
10
391.661322937783
20
1861.74278973953
30
8.28437583169972e-005
11
394.259399149132
21
1860.24278973953
31
8.78892272325515e-005
  0
LINE
 8
GROUP0
10
394.259399149132
20
1860.24278973953
30
8.78892272325515e-005
11
394.25939914913
21
1857.24278973953
31
8.91465513852552e-005
  0
LINE
 8
GROUP0
10
391.66132293778
20
1855.74278973953
30
8.53584076601521e-005
11
389.063246726431
21
1857.24278973953
31
8.0312939060434e-005
  0
LINE
 8
GROUP0
10
387.563234513544
20
1868.84086655062
30
0.000106287318567766
11
390.161310724893
21
1867.34086655062
31
0.000111332786716289
  0
LINE
 8
GROUP0
10
371.170942919793
20
1868.84086655064
30
8.45173851427461e-005
11
373.769019131141
21
1867.34086655064
31
8.95628536522253e-005
  0
LINE
 8
GROUP0
10
371.170942919789
20
1862.84086655064
30
8.70320333579144e-005
11
368.572866708441
21
1864.34086655064
31
8.19865656605856e-005
  0
LINE
 8
GROUP0
10
368.572866708441
20
1864.34086655064
30
8.19865656605856e-005
11
368.572866708443
21
1867.34086655064
31
8.07292408762095e-005
  0
LINE
 8
GROUP0
10
383.465170515085
20
1861.74278973953
30
8.28437580462804e-005
11
386.063246726433
21
1860.24278973953
31
8.78892272325515e-005
  0
LINE
 8
GROUP0
10
373.769019131141
20
1867.34086655064
30
8.95628536522253e-005
11
373.769019131139
21
1864.34086655064
31
9.08201782561235e-005
  0
LINE
 8
GROUP0
10
373.769019131139
20
1864.34086655064
30
9.08201782561235e-005
11
371.170942919789
21
1862.84086655064
31
8.70320333579144e-005
  0
LINE
 8
GROUP0
10
403.955535203784
20
1868.84087096443
30
0.000115473278440348
11
406.553611415132
21
1867.34087096443
31
0.00012051874667911
  0
LINE
 8
GROUP0
10
386.063246726433
20
1860.24278973953
30
8.78892272325515e-005
11
386.063246726431
21
1857.24278973953
31
8.91465513852552e-005
  0
LINE
 8
GROUP0
10
380.867094303735
20
1860.24278973953
30
7.90556140504606e-005
11
383.465170515085
21
1861.74278973953
31
8.28437580462804e-005
  0
LINE
 8
GROUP0
10
406.553611415132
20
1867.34087096443
30
0.00012051874667911
11
406.55361141513
21
1864.34087096443
31
0.000121776071463486
  0
LINE
 8
GROUP0
10
383.465170515081
20
1855.74278973953
30
8.53584076601521e-005
11
380.867094303733
21
1857.24278973953
31
8.0312939060434e-005
  0
LINE
 8
GROUP0
10
386.063246726431
20
1857.24278973953
30
8.91465513852552e-005
11
383.465170515081
21
1855.74278973953
31
8.53584076601521e-005
  0
LINE
 8
GROUP0
10
401.357458992432
20
1864.34087096443
30
0.00011294245787532
11
401.357458992434
21
1867.34087096443
31
0.000111685133722617
  0
LINE
 8
GROUP0
10
401.357458992434
20
1867.34087096443
30
0.000111685133722617
11
403.955535203784
21
1868.84087096443
31
0.000115473278440348
  0
LINE
 8
GROUP0
10
403.95553520378
20
1862.84087096444
30
0.000117987926610397
11
401.357458992432
21
1864.34087096443
31
0.00011294245787532
  0
LINE
 8
GROUP0
10
406.55361141513
20
1864.34087096443
30
0.000121776071463486
11
403.95553520378
21
1862.84087096444
31
0.000117987926610397
  0
LINE
 8
GROUP0
10
398.357461070015
20
1867.34086655062
30
0.000111332786626051
11
398.357461070013
21
1864.34086655062
31
0.000112590110598276
  0
LINE
 8
GROUP0
10
331.690199251917
20
1846.04662848924
30
3.92288297796028e-005
11
334.28827546327
21
1847.54662848924
31
3.95401232175629e-005
  0
LINE
 8
GROUP0
10
387.563234513541
20
1848.64471412794
30
0.000108801967640204
11
384.965158302191
21
1850.14471412794
31
0.000103756498408814
  0
LINE
 8
GROUP0
10
384.965158302191
20
1850.14471412794
30
0.000103756498408814
11
384.965158302194
21
1853.14471412794
31
0.000102499173985393
  0
LINE
 8
GROUP0
10
334.28827546327
20
1847.54662848924
30
3.95401232175629e-005
11
336.886351674622
21
1846.04662848924
31
4.18449218898331e-005
  0
LINE
 8
GROUP0
10
395.759384858662
20
1862.84086655062
30
0.000108801967504846
11
393.161308647314
21
1864.34086655062
31
0.000103756498183216
  0
LINE
 8
GROUP0
10
398.357461070013
20
1864.34086655062
30
0.000112590110598276
11
395.759384858662
21
1862.84086655062
31
0.000108801967504846
  0
LINE
 8
GROUP0
10
393.161308647314
20
1864.34086655062
30
0.000103756498183216
11
393.161308647316
21
1867.34086655062
31
0.000102499173669557
  0
LINE
 8
GROUP0
10
393.161308647316
20
1867.34086655062
30
0.000102499173669557
11
395.759384858666
21
1868.84086655062
31
0.000106287318567766
  0
LINE
 8
GROUP0
10
395.759384858666
20
1868.84086655062
30
0.000106287318567766
11
398.357461070015
21
1867.34086655062
31
0.000111332786626051
  0
LINE
 8
GROUP0
10
336.886351674622
20
1846.04662848924
30
4.18449218898331e-005
11
336.88635167462
21
1843.04662848924
31
4.38384264924707e-005
  0
LINE
 8
GROUP0
10
334.288275463266
20
1841.54662848924
30
4.35271324228381e-005
11
331.690199251915
21
1843.04662848924
31
4.12223345627183e-005
  0
LINE
 8
GROUP0
10
380.867094303733
20
1857.24278973953
30
8.0312939060434e-005
11
380.867094303735
21
1860.24278973953
31
7.90556140504606e-005
  0
LINE
 8
GROUP0
10
331.690199251915
20
1843.04662848924
30
4.12223345627183e-005
11
331.690199251917
21
1846.04662848924
31
3.92288297796028e-005
  0
LINE
 8
GROUP0
10
336.88635167462
20
1843.04662848924
30
4.38384264924707e-005
11
334.288275463266
21
1841.54662848924
31
4.35271324228381e-005
  0
LINE
 8
GROUP0
10
331.690199251928
20
1860.24278091192
30
3.89137606095602e-005
11
334.288275463278
21
1861.74278091192
31
4.27019048760968e-005
  0
LINE
 8
GROUP0
10
334.288275463278
20
1861.74278091192
30
4.27019048760968e-005
11
336.886351674627
21
1860.24278091192
31
4.77473737465317e-005
  0
LINE
 8
GROUP0
10
336.886351674624
20
1857.24278091192
30
4.90046978992353e-005
11
334.288275463274
21
1855.74278091192
31
4.52165541741323e-005
  0
LINE
 8
GROUP0
10
336.886351674627
20
1860.24278091192
30
4.77473737465317e-005
11
336.886351674624
21
1857.24278091192
31
4.90046978992353e-005
  0
LINE
 8
GROUP0
10
334.288275463274
20
1855.74278091192
30
4.52165541741323e-005
11
331.690199251926
21
1857.24278091192
31
4.01710855744142e-005
  0
LINE
 8
GROUP0
10
414.749761760242
20
1838.9485705329
30
0.000126542925795547
11
414.74976176024
21
1835.9485705329
31
0.000127800250489685
  0
LINE
 8
GROUP0
10
412.151685548893
20
1840.4485705329
30
0.000121497457827502
11
414.749761760242
21
1838.9485705329
31
0.000126542925795547
  0
LINE
 8
GROUP0
10
409.55360933754
20
1835.9485705329
30
0.000118966637352713
11
409.553609337543
21
1838.9485705329
31
0.000117709312929293
  0
LINE
 8
GROUP0
10
430.043989355539
20
1857.24279856714
30
0.000120454792501334
11
430.043989355542
21
1860.24279856714
31
0.00011919746753648
  0
LINE
 8
GROUP0
10
432.642065566891
20
1861.74279856714
30
0.000122985611803017
11
435.24014177824
21
1860.24279856714
31
0.000128031080673452
  0
LINE
 8
GROUP0
10
432.642065566888
20
1855.74279856714
30
0.000125500261101053
11
430.043989355539
21
1857.24279856714
31
0.000120454792501334
  0
LINE
 8
GROUP0
10
435.24014177824
20
1860.24279856714
30
0.000128031080673452
11
435.240141778238
21
1857.24279856714
31
0.000129288404826156
  0
LINE
 8
GROUP0
10
430.043989355542
20
1860.24279856714
30
0.00011919746753648
11
432.642065566891
21
1861.74279856714
31
0.000122985611803017
  0
LINE
 8
GROUP0
10
442.338201621542
20
1867.34087979205
30
0.000151826987208636
11
444.936277832892
21
1868.84087979205
31
0.000155615131926368
  0
LINE
 8
GROUP0
10
435.240141778238
20
1857.24279856714
30
0.000129288404826156
11
432.642065566888
21
1855.74279856714
31
0.000125500261101053
  0
LINE
 8
GROUP0
10
444.936277832892
20
1868.84087979205
30
0.000155615131926368
11
447.534354044241
21
1867.34087979205
31
0.00016066060016513
  0
LINE
 8
GROUP0
10
447.534354044241
20
1867.34087979205
30
0.00016066060016513
11
447.534354044239
21
1864.34087979205
31
0.000161917924949506
  0
LINE
 8
GROUP0
10
412.151685548889
20
1834.4485705329
30
0.000124012105681715
11
409.55360933754
21
1835.9485705329
31
0.000118966637352713
  0
LINE
 8
GROUP0
10
414.74976176024
20
1835.9485705329
30
0.000127800250489685
11
412.151685548889
21
1834.4485705329
31
0.000124012105681715
  0
LINE
 8
GROUP0
10
409.553609337543
20
1838.9485705329
30
0.000117709312929293
11
412.151685548893
21
1840.4485705329
31
0.000121497457827502
  0
LINE
 8
GROUP0
10
444.93627783288
20
1834.4485749467
30
0.000154967999159794
11
442.338201621532
21
1835.9485749467
31
0.000149922529838165
  0
LINE
 8
GROUP0
10
421.847836932826
20
1846.04664614446
30
0.000109705328787868
11
424.44591314418
21
1847.54664614446
31
0.00011001662294774
  0
LINE
 8
GROUP0
10
424.445913144176
20
1841.54664614446
30
0.000114003632062776
11
421.847836932824
21
1843.04664614446
31
0.000111698833661222
  0
LINE
 8
GROUP0
10
442.338201621534
20
1838.9485749467
30
0.000148665206317133
11
444.936277832885
21
1840.4485749467
31
0.000152453350042236
  0
LINE
 8
GROUP0
10
444.936277832885
20
1840.4485749467
30
0.000152453350042236
11
447.534354044232
21
1838.9485749467
31
0.000157498818732194
  0
LINE
 8
GROUP0
10
447.534354044232
20
1838.9485749467
30
0.000157498818732194
11
447.534354044231
21
1835.9485749467
31
0.000158756142794658
  0
LINE
 8
GROUP0
10
447.534354044231
20
1835.9485749467
30
0.000158756142794658
11
444.93627783288
21
1834.4485749467
31
0.000154967999159794
  0
LINE
 8
GROUP0
10
424.44591314418
20
1847.54664614446
30
0.00011001662294774
11
427.043989355531
21
1846.04664614446
31
0.000112321421529771
  0
LINE
 8
GROUP0
10
421.847836932824
20
1843.04664614446
30
0.000111698833661222
11
421.847836932826
21
1846.04664614446
31
0.000109705328787868
  0
LINE
 8
GROUP0
10
427.04398935553
20
1843.04664614446
30
0.000114314926042169
11
424.445913144176
21
1841.54664614446
31
0.000114003632062776
  0
LINE
 8
GROUP0
10
442.338201621532
20
1835.9485749467
30
0.000149922529838165
11
442.338201621534
21
1838.9485749467
31
0.000148665206317133
  0
LINE
 8
GROUP0
10
434.142051276424
20
1867.34087537823
30
0.000142641027155577
11
436.740127487774
21
1868.84087537823
31
0.000146429172008666
  0
LINE
 8
GROUP0
10
425.9459009313
20
1850.14472295555
30
0.000143898351849714
11
425.945900931302
21
1853.14472295555
31
0.000142641027426293
  0
LINE
 8
GROUP0
10
434.142051276422
20
1864.34087537823
30
0.000143898351669236
11
434.142051276424
21
1867.34087537823
31
0.000142641027155577
  0
LINE
 8
GROUP0
10
439.338203699123
20
1867.34087537823
30
0.00015147464011207
11
439.338203699121
21
1864.34087537823
31
0.000152731964084296
  0
LINE
 8
GROUP0
10
414.749761760247
20
1850.14472295558
30
0.000130962031742143
11
412.151685548897
21
1848.64472295558
31
0.000127173887475607
  0
LINE
 8
GROUP0
10
436.740127487774
20
1868.84087537823
30
0.000146429172008666
11
439.338203699123
21
1867.34087537823
31
0.00015147464011207
  0
LINE
 8
GROUP0
10
436.74012748777
20
1862.84087537823
30
0.000148943820990866
11
434.142051276422
21
1864.34087537823
31
0.000143898351669236
  0
LINE
 8
GROUP0
10
412.151685548897
20
1848.64472295558
30
0.000127173887475607
11
409.553609337549
21
1850.14472295558
31
0.000122128419507561
  0
LINE
 8
GROUP0
10
428.543977142652
20
1854.64472295555
30
0.000146429171783069
11
431.142053354001
21
1853.14472295555
31
0.000151474639841354
  0
LINE
 8
GROUP0
10
431.142053353998
20
1850.14472295555
30
0.000152731964355013
11
428.543977142649
21
1848.64472295555
31
0.000148943821081104
  0
LINE
 8
GROUP0
10
409.553609337551
20
1853.14472295558
30
0.000120871094723185
11
412.151685548901
21
1854.64472295558
31
0.000124659238448288
  0
LINE
 8
GROUP0
10
409.553609337549
20
1850.14472295558
30
0.000122128419507561
11
409.553609337551
21
1853.14472295558
31
0.000120871094723185
  0
LINE
 8
GROUP0
10
412.151685548901
20
1854.64472295558
30
0.000124659238448288
11
414.749761760249
21
1853.14472295558
31
0.000129704706957767
  0
LINE
 8
GROUP0
10
431.142053354001
20
1853.14472295555
30
0.000151474639841354
11
431.142053353998
21
1850.14472295555
31
0.000152731964355013
  0
LINE
 8
GROUP0
10
439.338203699121
20
1864.34087537823
30
0.000152731964084296
11
436.74012748777
21
1862.84087537823
31
0.000148943820990866
  0
LINE
 8
GROUP0
10
428.543977142649
20
1848.64472295555
30
0.000148943821081104
11
425.9459009313
21
1850.14472295555
31
0.000143898351849714
  0
LINE
 8
GROUP0
10
447.534354044241
20
1853.14472736937
30
0.000160660600255369
11
447.534354044238
21
1850.14472736937
31
0.000161917925039745
  0
LINE
 8
GROUP0
10
451.632446623637
20
1860.24279856714
30
0.000128031080673452
11
451.632446623635
21
1857.24279856714
31
0.000129288404826156
  0
LINE
 8
GROUP0
10
446.436294200939
20
1860.24279856714
30
0.00011919746753648
11
449.034370412289
21
1861.74279856714
31
0.000122985611803017
  0
LINE
 8
GROUP0
10
451.632446623635
20
1857.24279856714
30
0.000129288404826156
11
449.034370412285
21
1855.74279856714
31
0.000125500261101053
  0
LINE
 8
GROUP0
10
442.33820162154
20
1850.14472736937
30
0.000153084311632057
11
442.338201621542
21
1853.14472736937
31
0.000151826987659831
  0
LINE
 8
GROUP0
10
443.436294200917
20
1846.04664614445
30
9.27070066850888e-005
11
443.436294200916
21
1843.04664614445
31
9.47005113779653e-005
  0
LINE
 8
GROUP0
10
442.338201621542
20
1853.14472736937
30
0.000151826987659831
11
444.936277832892
21
1854.64472736937
31
0.000155615131836129
  0
LINE
 8
GROUP0
10
443.436294200916
20
1843.04664614445
30
9.47005113779653e-005
11
440.838217989561
21
1841.54664614445
31
9.43892166766602e-005
  0
LINE
 8
GROUP0
10
440.838217989561
20
1841.54664614445
30
9.43892166766602e-005
11
438.240141778209
21
1843.04664614445
31
9.20844189067793e-005
  0
LINE
 8
GROUP0
10
444.936277832889
20
1848.64472736937
30
0.000158129780863447
11
442.33820162154
21
1850.14472736937
31
0.000153084311632057
  0
LINE
 8
GROUP0
10
449.034370412289
20
1861.74279856714
30
0.000122985611803017
11
451.632446623637
21
1860.24279856714
31
0.000128031080673452
  0
LINE
 8
GROUP0
10
444.936277832892
20
1854.64472736937
30
0.000155615131836129
11
447.534354044241
21
1853.14472736937
31
0.000160660600255369
  0
LINE
 8
GROUP0
10
447.534354044238
20
1850.14472736937
30
0.000161917925039745
11
444.936277832889
21
1848.64472736937
31
0.000158129780863447
  0
LINE
 8
GROUP0
10
414.749761760249
20
1853.14472295558
30
0.000129704706957767
11
414.749761760247
21
1850.14472295558
31
0.000130962031742143
  0
LINE
 8
GROUP0
10
449.034370412285
20
1855.74279856714
30
0.000125500261101053
11
446.436294200937
21
1857.24279856714
31
0.000120454792501334
  0
LINE
 8
GROUP0
10
446.436294200937
20
1857.24279856714
30
0.000120454792501334
11
446.436294200939
21
1860.24279856714
31
0.00011919746753648
  0
LINE
 8
GROUP0
10
432.642065566869
20
1841.54664614446
30
0.00010419642418924
11
430.043989355517
21
1843.04664614446
31
0.000101891625877926
  0
LINE
 8
GROUP0
10
420.347835894011
20
1834.4485705329
30
0.000124012105681715
11
417.749759682663
21
1835.9485705329
31
0.000118966637352713
  0
LINE
 8
GROUP0
10
430.043989355518
20
1846.04664614445
30
9.98981216362438e-005
11
432.642065566872
21
1847.54664614445
31
0.000100209415615637
  0
LINE
 8
GROUP0
10
435.240141778223
20
1843.04664614445
30
0.000104507718258873
11
432.642065566869
21
1841.54664614446
31
0.00010419642418924
  0
LINE
 8
GROUP0
10
417.749759682663
20
1835.9485705329
30
0.000118966637352713
11
417.749759682665
21
1838.9485705329
31
0.000117709312839054
  0
LINE
 8
GROUP0
10
417.749759682665
20
1838.9485705329
30
0.000117709312839054
11
420.347835894015
21
1840.4485705329
31
0.00012149745710559
  0
LINE
 8
GROUP0
10
422.945912105363
20
1838.9485705329
30
0.000126542925705309
11
422.945912105361
21
1835.9485705329
31
0.000127800250579924
  0
LINE
 8
GROUP0
10
432.642065566872
20
1847.54664614445
30
0.000100209415615637
11
435.240141778224
21
1846.04664614445
31
0.00010251421410743
  0
LINE
 8
GROUP0
10
430.043989355517
20
1843.04664614446
30
0.000101891625877926
11
430.043989355518
21
1846.04664614445
31
9.98981216362438e-005
  0
LINE
 8
GROUP0
10
420.347835894015
20
1840.4485705329
30
0.00012149745710559
11
422.945912105363
21
1838.9485705329
31
0.000126542925705309
  0
LINE
 8
GROUP0
10
422.945912105361
20
1835.9485705329
30
0.000127800250579924
11
420.347835894011
21
1834.4485705329
31
0.000124012105681715
  0
LINE
 8
GROUP0
10
494.113170807113
20
1862.84089303348
30
0.000207457593725735
11
491.515094595766
21
1864.34089303348
31
0.000202412126028406
  0
LINE
 8
GROUP0
10
440.838217989565
20
1847.54664614445
30
9.04022080128186e-005
11
443.436294200917
21
1846.04664614445
31
9.27070066850888e-005
  0
LINE
 8
GROUP0
10
438.240141778212
20
1846.04664614445
30
9.00909140334249e-005
11
440.838217989565
21
1847.54664614445
31
9.04022080128186e-005
  0
LINE
 8
GROUP0
10
438.240141778209
20
1843.04664614445
30
9.20844189067793e-005
11
438.240141778212
21
1846.04664614445
31
9.00909140334249e-005
  0
LINE
 8
GROUP0
10
435.240141778224
20
1846.04664614445
30
0.00010251421410743
11
435.240141778223
21
1843.04664614445
31
0.000104507718258873
  0
LINE
 8
GROUP0
10
499.711244940888
20
1864.34089303348
30
0.000202412126028406
11
499.711244940889
21
1867.34089303348
31
0.000201154801153791
  0
LINE
 8
GROUP0
10
516.103536534641
20
1867.34089303345
30
0.000222924734037377
11
518.701612745991
21
1868.84089303345
31
0.000226712878935587
  0
LINE
 8
GROUP0
10
499.711244940889
20
1867.34089303348
30
0.000201154801153791
11
502.30932115224
21
1868.84089303347
31
0.000204942945510567
  0
LINE
 8
GROUP0
10
496.711247018466
20
1867.34089303348
30
0.000209988414020046
11
496.711247018464
21
1864.34089303348
31
0.000211245738623944
  0
LINE
 8
GROUP0
10
521.29968895734
20
1867.34089303345
30
0.000231758346993871
11
521.299688957337
21
1864.34089303345
31
0.000233015670966097
  0
LINE
 8
GROUP0
10
504.907397363585
20
1864.34089303348
30
0.000211245738623944
11
502.309321152236
21
1862.84089303348
31
0.000207457593725735
  0
LINE
 8
GROUP0
10
491.515094595768
20
1867.34089303348
30
0.00020115480124403
11
494.113170807118
21
1868.84089303347
31
0.000204942945510567
  0
LINE
 8
GROUP0
10
491.515094595766
20
1864.34089303348
30
0.000202412126028406
11
491.515094595768
21
1867.34089303348
31
0.00020115480124403
  0
LINE
 8
GROUP0
10
518.701612745987
20
1862.84089303345
30
0.000229227527872666
11
516.103536534639
21
1864.34089303345
31
0.000224182058551037
  0
LINE
 8
GROUP0
10
516.103536534639
20
1864.34089303345
30
0.000224182058551037
11
516.103536534641
21
1867.34089303345
31
0.000222924734037377
  0
LINE
 8
GROUP0
10
518.701612745991
20
1868.84089303345
30
0.000226712878935587
11
521.29968895734
21
1867.34089303345
31
0.000231758346993871
  0
LINE
 8
GROUP0
10
521.299688957337
20
1864.34089303345
30
0.000233015670966097
11
518.701612745987
21
1862.84089303345
31
0.000229227527872666
  0
LINE
 8
GROUP0
10
494.113170807118
20
1868.84089303347
30
0.000204942945510567
11
496.711247018466
21
1867.34089303348
31
0.000209988414020046
  0
LINE
 8
GROUP0
10
496.711247018464
20
1864.34089303348
30
0.000211245738623944
11
494.113170807113
21
1862.84089303348
31
0.000207457593725735
  0
LINE
 8
GROUP0
10
502.30932115224
20
1868.84089303347
30
0.000204942945510567
11
504.907397363588
21
1867.34089303348
31
0.000209988414020046
  0
LINE
 8
GROUP0
10
504.907397363588
20
1867.34089303348
30
0.000209988414020046
11
504.907397363585
21
1864.34089303348
31
0.000211245738623944
  0
LINE
 8
GROUP0
10
514.603550825088
20
1847.54666379968
30
0.000180493122497438
11
517.201627036441
21
1846.04666379968
31
0.000182797920989231
  0
LINE
 8
GROUP0
10
517.201627036441
20
1846.04666379968
30
0.000182797920989231
11
517.20162703644
21
1843.04666379968
31
0.000184791425185793
  0
LINE
 8
GROUP0
10
520.201627036455
20
1857.24281622237
30
0.000200738499383135
11
520.201627036457
21
1860.24281622237
31
0.000199481174418281
  0
LINE
 8
GROUP0
10
525.397779459156
20
1860.24281622237
30
0.000208314787555253
11
525.397779459154
21
1857.24281622237
31
0.000209572111707956
  0
LINE
 8
GROUP0
10
522.799703247803
20
1855.74281622237
30
0.000205783967982853
11
520.201627036455
21
1857.24281622237
31
0.000200738499383135
  0
LINE
 8
GROUP0
10
502.309321152232
20
1840.44858818813
30
0.000201781164032511
11
504.90739736358
21
1838.94858818813
31
0.000206826632632229
  0
LINE
 8
GROUP0
10
502.309321152236
20
1862.84089303348
30
0.000207457593725735
11
499.711244940888
21
1864.34089303348
31
0.000202412126028406
  0
LINE
 8
GROUP0
10
499.711244940882
20
1838.94858818813
30
0.000197993019765974
11
502.309321152232
21
1840.44858818813
31
0.000201781164032511
  0
LINE
 8
GROUP0
10
504.907397363577
20
1835.94858818813
30
0.000208083957506844
11
502.309321152228
21
1834.44858818813
31
0.000204295812608635
  0
LINE
 8
GROUP0
10
502.309321152228
20
1834.44858818813
30
0.000204295812608635
11
499.71124494088
21
1835.94858818813
31
0.000199250344279633
  0
LINE
 8
GROUP0
10
504.90739736358
20
1838.94858818813
30
0.000206826632632229
11
504.907397363577
21
1835.94858818813
31
0.000208083957506844
  0
LINE
 8
GROUP0
10
522.799703247807
20
1861.74281622237
30
0.000203269318684818
11
525.397779459156
21
1860.24281622237
31
0.000208314787555253
  0
LINE
 8
GROUP0
10
525.397779459154
20
1857.24281622237
30
0.000209572111707956
11
522.799703247803
21
1855.74281622237
31
0.000205783967982853
  0
LINE
 8
GROUP0
10
520.201627036457
20
1860.24281622237
30
0.000199481174418281
11
522.799703247807
21
1861.74281622237
31
0.000203269318684818
  0
LINE
 8
GROUP0
10
512.005474613735
20
1846.04666379968
30
0.000180181828518045
11
514.603550825088
21
1847.54666379968
31
0.000180493122497438
  0
LINE
 8
GROUP0
10
499.71124494088
20
1835.94858818813
30
0.000199250344279633
11
499.711244940882
21
1838.94858818813
31
0.000197993019765974
  0
LINE
 8
GROUP0
10
498.211245979699
20
1841.54666379969
30
0.00020409454618644
11
495.613169768348
21
1843.04666379969
31
0.00020178974832632
  0
LINE
 8
GROUP0
10
500.809322191054
20
1843.04666379969
30
0.000204405840256072
11
498.211245979699
21
1841.54666379969
31
0.00020409454618644
  0
LINE
 8
GROUP0
10
514.603550825105
20
1855.74281622237
30
0.000205783967982853
11
512.005474613756
21
1857.24281622237
31
0.000200738499383135
  0
LINE
 8
GROUP0
10
517.201627036455
20
1857.24281622237
30
0.000209572111707956
11
514.603550825105
21
1855.74281622237
31
0.000205783967982853
  0
LINE
 8
GROUP0
10
512.005474613733
20
1843.04666379968
30
0.000182175332804846
11
512.005474613735
21
1846.04666379968
31
0.000180181828518045
  0
LINE
 8
GROUP0
10
512.005474613756
20
1857.24281622237
30
0.000200738499383135
11
512.005474613759
21
1860.24281622237
31
0.000199481174418281
  0
LINE
 8
GROUP0
10
512.005474613759
20
1860.24281622237
30
0.000199481174418281
11
514.603550825108
21
1861.74281622237
31
0.000203269318684818
  0
LINE
 8
GROUP0
10
502.309321152236
20
1848.6447406108
30
0.000207457594267169
11
499.711244940888
21
1850.1447406108
31
0.000202412126389362
  0
LINE
 8
GROUP0
10
514.603550825086
20
1841.54666379968
30
0.00018448013111616
11
512.005474613733
21
1843.04666379968
31
0.000182175332804846
  0
LINE
 8
GROUP0
10
495.613169768348
20
1843.04666379969
30
0.00020178974832632
11
495.61316976835
21
1846.04666379969
31
0.000199796243543204
  0
LINE
 8
GROUP0
10
495.61316976835
20
1846.04666379969
30
0.000199796243543204
11
498.211245979704
21
1847.54666379969
31
0.000200107536981164
  0
LINE
 8
GROUP0
10
498.211245979704
20
1847.54666379969
30
0.000200107536981164
11
500.809322191056
21
1846.04666379969
31
0.000202412335653435
  0
LINE
 8
GROUP0
10
514.603550825108
20
1861.74281622237
30
0.000203269318684818
11
517.201627036457
21
1860.24281622237
31
0.000208314787555253
  0
LINE
 8
GROUP0
10
517.20162703644
20
1843.04666379968
30
0.000184791425185793
11
514.603550825086
21
1841.54666379968
31
0.00018448013111616
  0
LINE
 8
GROUP0
10
517.201627036457
20
1860.24281622237
30
0.000208314787555253
11
517.201627036455
21
1857.24281622237
31
0.000209572111707956
  0
LINE
 8
GROUP0
10
500.809322191056
20
1846.04666379969
30
0.000202412335653435
11
500.809322191054
21
1843.04666379969
31
0.000204405840256072
  0
LINE
 8
GROUP0
10
529.495839302455
20
1850.1447450246
30
0.000242201631921546
11
526.897763091105
21
1848.6447450246
31
0.000238413487745248
  0
LINE
 8
GROUP0
10
502.30932115224
20
1854.6447406108
30
0.000204942945330089
11
504.907397363588
21
1853.1447406108
31
0.000209988413749329
  0
LINE
 8
GROUP0
10
529.495839302458
20
1853.1447450246
30
0.00024094430713717
11
529.495839302455
21
1850.1447450246
31
0.000242201631921546
  0
LINE
 8
GROUP0
10
509.005474613746
20
1843.04666379968
30
0.00019459863292397
11
506.407398402393
21
1841.54666379968
31
0.000194287338989696
  0
LINE
 8
GROUP0
10
506.407398402393
20
1841.54666379968
30
0.000194287338989696
11
503.809322191041
21
1843.04666379969
31
0.000191982540543023
  0
LINE
 8
GROUP0
10
504.907397363588
20
1853.1447406108
30
0.000209988413749329
11
504.907397363586
21
1850.1447406108
31
0.000211245738623944
  0
LINE
 8
GROUP0
10
499.711244940888
20
1850.1447406108
30
0.000202412126389362
11
499.71124494089
21
1853.1447406108
31
0.000201154801604986
  0
LINE
 8
GROUP0
10
499.71124494089
20
1853.1447406108
30
0.000201154801604986
11
502.30932115224
21
1854.6447406108
31
0.000204942945330089
  0
LINE
 8
GROUP0
10
503.809322191043
20
1846.04666379968
30
0.000189989035669669
11
506.407398402397
21
1847.54666379968
31
0.00019030032982954
  0
LINE
 8
GROUP0
10
506.407398402397
20
1847.54666379968
30
0.00019030032982954
11
509.005474613748
21
1846.04666379968
31
0.000192605128411572
  0
LINE
 8
GROUP0
10
526.897763091105
20
1848.6447450246
30
0.000238413487745248
11
524.299686879756
21
1850.1447450246
31
0.000233368018513858
  0
LINE
 8
GROUP0
10
524.299686879756
20
1850.1447450246
30
0.000233368018513858
11
524.299686879759
21
1853.1447450246
31
0.000232110694541632
  0
LINE
 8
GROUP0
10
503.809322191041
20
1843.04666379969
30
0.000191982540543023
11
503.809322191043
21
1846.04666379968
31
0.000189989035669669
  0
LINE
 8
GROUP0
10
524.299686879759
20
1853.1447450246
30
0.000232110694541632
11
526.897763091108
21
1854.6447450246
31
0.000235898838717929
  0
LINE
 8
GROUP0
10
526.897763091108
20
1854.6447450246
30
0.000235898838717929
11
529.495839302458
21
1853.1447450246
31
0.00024094430713717
  0
LINE
 8
GROUP0
10
504.907397363586
20
1850.1447406108
30
0.000211245738623944
11
502.309321152236
21
1848.6447406108
31
0.000207457594267169
  0
LINE
 8
GROUP0
10
516.103536534631
20
1835.9485881881
30
0.000221020276892503
11
516.103536534633
21
1838.9485881881
31
0.000219762952378844
  0
LINE
 8
GROUP0
10
509.005474613748
20
1846.04666379968
30
0.000192605128411572
11
509.005474613746
21
1843.04666379968
31
0.00019459863292397
  0
LINE
 8
GROUP0
10
516.103536534633
20
1838.9485881881
30
0.000219762952378844
11
518.701612745983
21
1840.4485881881
31
0.000223551097096575
  0
LINE
 8
GROUP0
10
491.515094595757
20
1835.94858818813
30
0.000199250344279633
11
491.51509459576
21
1838.94858818813
31
0.000197993019856213
  0
LINE
 8
GROUP0
10
491.51509459576
20
1838.94858818813
30
0.000197993019856213
11
494.11317080711
21
1840.44858818813
31
0.000201781164754422
  0
LINE
 8
GROUP0
10
518.701612745983
20
1840.4485881881
30
0.000223551097096575
11
521.299688957332
21
1838.9485881881
31
0.000228596565425576
  0
LINE
 8
GROUP0
10
513.103538612215
20
1850.14474061078
30
0.000233015671236814
11
510.505462400866
21
1848.64474061078
31
0.000229227527962905
  0
LINE
 8
GROUP0
10
510.505462400866
20
1848.64474061078
30
0.000229227527962905
11
507.907386189516
21
1850.14474061078
31
0.000224182058731515
  0
LINE
 8
GROUP0
10
518.70161274598
20
1834.4485881881
30
0.000226065745492221
11
516.103536534631
21
1835.9485881881
31
0.000221020276892503
  0
LINE
 8
GROUP0
10
494.11317080711
20
1840.44858818813
30
0.000201781164754422
11
496.711247018458
21
1838.94858818813
31
0.000206826632722468
  0
LINE
 8
GROUP0
10
496.711247018456
20
1835.94858818813
30
0.000208083957416605
11
494.113170807106
21
1834.44858818813
31
0.000204295812608635
  0
LINE
 8
GROUP0
10
507.907386189516
20
1850.14474061078
30
0.000224182058731515
11
507.907386189519
21
1853.14474061078
31
0.000222924734308094
  0
LINE
 8
GROUP0
10
496.711247018458
20
1838.94858818813
30
0.000206826632722468
11
496.711247018456
21
1835.94858818813
31
0.000208083957416605
  0
LINE
 8
GROUP0
10
521.299688957329
20
1835.9485881881
30
0.000229853890119713
11
518.70161274598
21
1834.4485881881
31
0.000226065745492221
  0
LINE
 8
GROUP0
10
494.113170807106
20
1834.44858818813
30
0.000204295812608635
11
491.515094595757
21
1835.94858818813
31
0.000199250344279633
  0
LINE
 8
GROUP0
10
521.299688957332
20
1838.9485881881
30
0.000228596565425576
11
521.299688957329
21
1835.9485881881
31
0.000229853890119713
  0
LINE
 8
GROUP0
10
524.299686879751
20
1838.94859260192
30
0.000228948913244054
11
526.897763091101
21
1840.44859260192
31
0.000232737056969157
  0
LINE
 8
GROUP0
10
507.907386189519
20
1853.14474061078
30
0.000222924734308094
11
510.505462400869
21
1854.64474061078
31
0.00022671287866487
  0
LINE
 8
GROUP0
10
526.897763091097
20
1834.44859260192
30
0.000235251706086714
11
524.299686879749
21
1835.94859260192
31
0.000230206236765085
  0
LINE
 8
GROUP0
10
510.505462400869
20
1854.64474061078
30
0.00022671287866487
11
513.103538612218
21
1853.14474061078
31
0.000231758346723154
  0
LINE
 8
GROUP0
10
529.495839302449
20
1838.94859260192
30
0.000237782525659114
11
529.495839302448
21
1835.94859260192
31
0.000239039849721578
  0
LINE
 8
GROUP0
10
526.897763091101
20
1840.44859260192
30
0.000232737056969157
11
529.495839302449
21
1838.94859260192
31
0.000237782525659114
  0
LINE
 8
GROUP0
10
529.495839302448
20
1835.94859260192
30
0.000239039849721578
11
526.897763091097
21
1834.44859260192
31
0.000235251706086714
  0
LINE
 8
GROUP0
10
525.397779459134
20
1846.04666379967
30
0.00017299071356689
11
525.397779459132
21
1843.04666379967
31
0.000174984218304886
  0
LINE
 8
GROUP0
10
521.29968895734
20
1853.14474061078
30
0.000231758346632915
11
521.299688957337
21
1850.14474061078
31
0.000233015671236814
  0
LINE
 8
GROUP0
10
516.103536534641
20
1853.14474061078
30
0.000222924734578811
11
518.701612745991
21
1854.64474061078
31
0.00022671287866487
  0
LINE
 8
GROUP0
10
518.701612745991
20
1854.64474061078
30
0.00022671287866487
11
521.29968895734
21
1853.14474061078
31
0.000231758346632915
  0
LINE
 8
GROUP0
10
521.299688957337
20
1850.14474061078
30
0.000233015671236814
11
518.701612745987
21
1848.64474061078
31
0.000229227527962905
  0
LINE
 8
GROUP0
10
516.103536534639
20
1850.14474061078
30
0.000224182058731515
11
516.103536534641
21
1853.14474061078
31
0.000222924734578811
  0
LINE
 8
GROUP0
10
524.299686879749
20
1835.94859260192
30
0.000230206236765085
11
524.299686879751
21
1838.94859260192
31
0.000228948913244054
  0
LINE
 8
GROUP0
10
513.103538612218
20
1853.14474061078
30
0.000231758346723154
11
513.103538612215
21
1850.14474061078
31
0.000233015671236814
  0
LINE
 8
GROUP0
10
518.701612745987
20
1848.64474061078
30
0.000229227527962905
11
516.103536534639
21
1850.14474061078
31
0.000224182058731515
  0
LINE
 8
GROUP0
10
510.505462400857
20
1834.4485881881
30
0.000226065745492221
11
507.907386189509
21
1835.9485881881
31
0.000221020277343698
  0
LINE
 8
GROUP0
10
510.505462400861
20
1840.4485881881
30
0.000223551097186814
11
513.103538612209
21
1838.9485881881
31
0.000228596565606054
  0
LINE
 8
GROUP0
10
513.103538612207
20
1835.9485881881
30
0.000229853890119713
11
510.505462400857
21
1834.4485881881
31
0.000226065745492221
  0
LINE
 8
GROUP0
10
513.103538612209
20
1838.9485881881
30
0.000228596565606054
11
513.103538612207
21
1835.9485881881
31
0.000229853890119713
  0
LINE
 8
GROUP0
10
496.711247018466
20
1853.1447406108
30
0.000209988413839568
11
496.711247018464
21
1850.1447406108
31
0.000211245738623944
  0
LINE
 8
GROUP0
10
520.201627036428
20
1846.04666379967
30
0.000170374620915226
11
522.799703247782
21
1847.54666379967
31
0.000170685914894619
  0
LINE
 8
GROUP0
10
496.711247018464
20
1850.1447406108
30
0.000211245738623944
11
494.113170807114
21
1848.6447406108
31
0.000207457594357408
  0
LINE
 8
GROUP0
10
494.113170807114
20
1848.6447406108
30
0.000207457594357408
11
491.515094595766
21
1850.1447406108
31
0.000202412126389362
  0
LINE
 8
GROUP0
10
522.799703247782
20
1847.54666379967
30
0.000170685914894619
11
525.397779459134
21
1846.04666379967
31
0.00017299071356689
  0
LINE
 8
GROUP0
10
491.515094595766
20
1850.1447406108
30
0.000202412126389362
11
491.515094595768
21
1853.1447406108
31
0.000201154801604986
  0
LINE
 8
GROUP0
10
491.515094595768
20
1853.1447406108
30
0.000201154801604986
11
494.113170807118
21
1854.6447406108
31
0.000204942945330089
  0
LINE
 8
GROUP0
10
525.397779459132
20
1843.04666379967
30
0.000174984218304886
11
522.799703247778
21
1841.54666379967
31
0.00017467292360358
  0
LINE
 8
GROUP0
10
520.201627036426
20
1843.04666379967
30
0.0001723681258337
11
520.201627036428
21
1846.04666379967
31
0.000170374620915226
  0
LINE
 8
GROUP0
10
507.907386189509
20
1835.9485881881
30
0.000221020277343698
11
507.907386189511
21
1838.9485881881
31
0.000219762952469083
  0
LINE
 8
GROUP0
10
507.907386189511
20
1838.9485881881
30
0.000219762952469083
11
510.505462400861
21
1840.4485881881
31
0.000223551097186814
  0
LINE
 8
GROUP0
10
522.799703247778
20
1841.54666379967
30
0.00017467292360358
11
520.201627036426
21
1843.04666379967
31
0.0001723681258337
  0
LINE
 8
GROUP0
10
305.544028559242
20
1884.74479931959
30
3.60859713143924e-005
11
305.544028684519
21
1846.64470971415
31
3.60859713595119e-005
  0
LINE
 8
GROUP0
10
309.544028552649
20
1886.74480670959
30
3.60859713143924e-005
11
309.544061807664
21
1868.64471710418
31
3.60859713143924e-005
  0
LINE
 8
GROUP0
10
311.544032247647
20
1886.7448104046
30
3.60859713143924e-005
11
311.54406180766
21
1868.64472079918
31
3.60859713143924e-005
  0
LINE
 8
GROUP0
10
551.543977142652
20
1884.7448177946
30
3.60859713143924e-005
11
551.543977142652
21
1846.64470971415
31
3.60859713595119e-005
  0
LINE
 8
GROUP0
10
501.543984486939
20
1824.64470971415
30
3.60859713595119e-005
11
531.543977142653
21
1824.64470971415
31
3.60859713143924e-005
  0
LINE
 8
GROUP0
10
452.544082734438
20
1884.64474712602
30
3.60859713143924e-005
11
453.544082734438
21
1883.64474712602
31
3.60859713143924e-005
  0
LINE
 8
GROUP0
10
315.544032247649
20
1884.7448177946
30
3.60859713143924e-005
11
315.544035942651
21
1868.64472079918
31
3.60859713143924e-005
  0
LINE
 8
GROUP0
10
316.544035942651
20
1880.64472818916
30
3.60859713143924e-005
11
403.544082734439
21
1880.64478808034
31
3.60859728935736e-005
  0
LINE
 8
GROUP0
10
403.544082734459
20
1824.64470971415
30
3.60859713595119e-005
11
453.544082734461
21
1824.64470971415
31
3.60859713595119e-005
  0
LINE
 8
GROUP0
10
319.544028783162
20
1816.64470971415
30
3.60859713595119e-005
11
537.543977142652
21
1816.64470971415
31
3.60859713595119e-005
  0
LINE
 8
GROUP0
10
531.543977142653
20
1824.64470971415
30
3.60859713143924e-005
11
531.543977142653
21
1820.64470971415
31
3.60859713143924e-005
  0
LINE
 8
GROUP0
10
403.544082734459
20
1820.64470971415
30
3.60859713143924e-005
11
453.544082734461
21
1820.64470971415
31
3.60859713143924e-005
  0
LINE
 8
GROUP0
10
501.543984486939
20
1820.64470971415
30
3.60859713143924e-005
11
531.543977142653
21
1820.64470971415
31
3.60859713143924e-005
  0
LINE
 8
GROUP0
10
325.544028552656
20
1824.64470971415
30
3.60859713143924e-005
11
355.54402120837
21
1824.64470971415
31
3.60859713595119e-005
  0
LINE
 8
GROUP0
10
403.544082734459
20
1820.64470971415
30
3.60859713143924e-005
11
403.544082734459
21
1824.64470971415
31
3.60859713595119e-005
  0
LINE
 8
GROUP0
10
404.544082734439
20
1884.64478808034
30
3.60859728935736e-005
11
452.544082734438
21
1884.64474712602
31
3.60859713143924e-005
  0
LINE
 8
GROUP0
10
403.544082734439
20
1883.64478808034
30
3.60859728935736e-005
11
403.544082734439
21
1880.64478808034
31
3.60859728935736e-005
  0
LINE
 8
GROUP0
10
494.113170807118
20
1854.6447406108
30
0.000204942945330089
11
496.711247018466
21
1853.1447406108
31
0.000209988413839568
  0
LINE
 8
GROUP0
10
311.544032247647
20
1886.7448104046
30
3.60859713143924e-005
11
315.294032247649
21
1886.7448177946
31
3.60859713143924e-005
  0
LINE
 8
GROUP0
10
547.543977142652
20
1868.64470971415
30
3.60859713143924e-005
11
547.543977142652
21
1886.7448177946
31
3.60859713143924e-005
  0
LINE
 8
GROUP0
10
541.543977142652
20
1884.7448177946
30
3.60859713143924e-005
11
541.543977142652
21
1868.64470971415
31
3.60859713143924e-005
  0
LINE
 8
GROUP0
10
541.793977142652
20
1886.7448177946
30
3.60859713143924e-005
11
545.543977142652
21
1886.7448177946
31
3.60859713143924e-005
  0
LINE
 8
GROUP0
10
501.543984486939
20
1820.64470971415
30
3.60859713143924e-005
11
501.543984486939
21
1824.64470971415
31
3.60859713595119e-005
  0
LINE
 8
GROUP0
10
551.543977142652
20
1884.7448177946
30
3.60859713143924e-005
11
552.293977142652
21
1884.7448177946
31
3.60859713143924e-005
  0
LINE
 8
GROUP0
10
453.544082734461
20
1820.64470971415
30
3.60859713143924e-005
11
453.544082734461
21
1824.64470971415
31
3.60859713595119e-005
  0
LINE
 8
GROUP0
10
404.544082734439
20
1884.64478808034
30
3.60859728935736e-005
11
403.544082734439
21
1883.64478808034
31
3.60859728935736e-005
  0
LINE
 8
GROUP0
10
325.544028552656
20
1820.64470971415
30
3.60859713143924e-005
11
355.54402120837
21
1820.64470971415
31
3.60859713143924e-005
  0
LINE
 8
GROUP0
10
325.544028552656
20
1824.64470971415
30
3.60859713143924e-005
11
325.544028552656
21
1820.64470971415
31
3.60859713143924e-005
  0
LINE
 8
GROUP0
10
453.544082734438
20
1880.64474712602
30
3.60859713143924e-005
11
540.543977142652
21
1880.64470971415
31
3.60859713143924e-005
  0
LINE
 8
GROUP0
10
355.54402120837
20
1820.64470971415
30
3.60859713143924e-005
11
355.54402120837
21
1824.64470971415
31
3.60859713595119e-005
  0
LINE
 8
GROUP0
10
537.543977142652
20
1816.64470971415
30
3.60859713595119e-005
11
541.543977142652
21
1820.64470971415
31
3.60859713595119e-005
  0
LINE
 8
GROUP0
10
551.293977142652
20
1886.7448177946
30
3.60859713143924e-005
11
552.293977142652
21
1885.7448177946
31
3.60859713143924e-005
  0
LINE
 8
GROUP0
10
551.543977142652
20
1846.64470971415
30
3.60859713595119e-005
11
541.543977142652
21
1836.64470971415
31
3.60859713595119e-005
  0
LINE
 8
GROUP0
10
541.543977142652
20
1820.64470971415
30
3.60859713595119e-005
11
541.543977142652
21
1836.64470971415
31
3.60859713595119e-005
  0
LINE
 8
GROUP0
10
545.543977142652
20
1886.7448177946
30
3.60859713143924e-005
11
545.543977142652
21
1868.64470971415
31
3.60859713143924e-005
  0
LINE
 8
GROUP0
10
453.544082734438
20
1883.64474712602
30
3.60859713143924e-005
11
453.544082734438
21
1880.64474712602
31
3.60859713143924e-005
  0
LINE
 8
GROUP0
10
305.794032247649
20
1886.7447993163
30
3.60859713143924e-005
11
309.544028552649
21
1886.74480670959
31
3.60859713143924e-005
  0
LINE
 8
GROUP0
10
305.794032247649
20
1886.7447993163
30
3.60859713143924e-005
11
304.794032247649
21
1885.74480855545
31
3.60859713143924e-005
  0
LINE
 8
GROUP0
10
315.544028770009
20
1836.64470971415
30
3.60859713595119e-005
11
305.544028684519
21
1846.64470971415
31
3.60859713595119e-005
  0
LINE
 8
GROUP0
10
541.543977142652
20
1868.64470971415
30
3.60859713143924e-005
11
541.526940055797
21
1868.5153001916
31
3.60859713143924e-005
  0
LINE
 8
GROUP0
10
541.526940055797
20
1868.5153001916
30
3.60859713143924e-005
11
541.476989844545
21
1868.39470971415
31
3.60859713143924e-005
  0
LINE
 8
GROUP0
10
315.544028770009
20
1820.64470971415
30
3.60859713595119e-005
11
315.544028770009
21
1836.64470971415
31
3.60859713595119e-005
  0
LINE
 8
GROUP0
10
541.793977142652
20
1886.7448177946
30
3.60859713143924e-005
11
540.793977142652
21
1885.7448177946
31
3.60859713143924e-005
  0
LINE
 8
GROUP0
10
315.544032247649
20
1884.7448177946
30
3.60859713143924e-005
11
316.294032247649
21
1884.7448177946
31
3.60859713143924e-005
  0
LINE
 8
GROUP0
10
547.543977142652
20
1886.7448177946
30
3.60859713143924e-005
11
551.293977142652
21
1886.7448177946
31
3.60859713143924e-005
  0
LINE
 8
GROUP0
10
541.543977142652
20
1884.7448177946
30
3.60859713143924e-005
11
540.793977142652
21
1884.7448177946
31
3.60859713143924e-005
  0
LINE
 8
GROUP0
10
552.293977142652
20
1885.7448177946
30
3.60859713143924e-005
11
552.293977142652
21
1884.7448177946
31
3.60859713143924e-005
  0
LINE
 8
GROUP0
10
540.793977142652
20
1885.7448177946
30
3.60859713143924e-005
11
540.793977142652
21
1884.7448177946
31
3.60859713143924e-005
  0
LINE
 8
GROUP0
10
541.397530533246
20
1868.29115632356
30
3.60859713143924e-005
11
541.293977142652
21
1868.21169701226
31
3.60859713143924e-005
  0
LINE
 8
GROUP0
10
540.543977142652
20
1880.64470971415
30
3.60859713143924e-005
11
540.543977142652
21
1868.64470971415
31
3.60859713143924e-005
  0
LINE
 8
GROUP0
10
541.476989844545
20
1868.39470971415
30
3.60859713143924e-005
11
541.397530533246
21
1868.29115632356
31
3.60859713143924e-005
  0
LINE
 8
GROUP0
10
304.794032247649
20
1885.74480855545
30
3.60859713143924e-005
11
304.794032247649
21
1884.7448177946
31
3.60859713143924e-005
  0
LINE
 8
GROUP0
10
319.544028783162
20
1816.64470971415
30
3.60859713595119e-005
11
315.544028770009
21
1820.64470971415
31
3.60859713595119e-005
  0
LINE
 8
GROUP0
10
316.544035942651
20
1880.64472818916
30
3.60859713143924e-005
11
316.544035942651
21
1868.64472079918
31
3.60859713143924e-005
  0
LINE
 8
GROUP0
10
305.544028559242
20
1884.74479931959
30
3.60859713143924e-005
11
304.794032247649
21
1884.7448177946
31
3.60859713143924e-005
  0
LINE
 8
GROUP0
10
316.294032247649
20
1885.7448177946
30
3.60859713143924e-005
11
316.294032247649
21
1884.7448177946
31
3.60859713143924e-005
  0
LINE
 8
GROUP0
10
315.294032247649
20
1886.7448177946
30
3.60859713143924e-005
11
316.294032247649
21
1885.7448177946
31
3.60859713143924e-005
  0
LINE
 8
GROUP0
10
541.043977142652
20
1868.14470971415
30
3.60859713143924e-005
11
540.914567620101
21
1868.161746801
31
3.60859713143924e-005
  0
LINE
 8
GROUP0
10
540.61096444076
20
1868.39470971415
30
3.60859713143924e-005
11
540.561014229508
21
1868.5153001916
31
3.60859713143924e-005
  0
LINE
 8
GROUP0
10
316.526998855795
20
1868.51531127663
30
3.60859713143924e-005
11
316.544035942651
21
1868.64472079918
31
3.60859713143924e-005
  0
LINE
 8
GROUP0
10
540.561014229508
20
1868.5153001916
30
3.60859713143924e-005
11
540.543977142652
21
1868.64470971415
31
3.60859713143924e-005
  0
LINE
 8
GROUP0
10
316.397589333244
20
1868.29116740859
30
3.60859713143924e-005
11
316.477048644543
21
1868.39472079918
31
3.60859713143924e-005
  0
LINE
 8
GROUP0
10
540.914567620101
20
1868.161746801
30
3.60859713143924e-005
11
540.793977142652
21
1868.21169701226
31
3.60859713143924e-005
  0
LINE
 8
GROUP0
10
540.793977142652
20
1868.21169701226
30
3.60859713143924e-005
11
540.690423752059
21
1868.29115632356
31
3.60859713143924e-005
  0
LINE
 8
GROUP0
10
316.477048644543
20
1868.39472079918
30
3.60859713143924e-005
11
316.526998855795
21
1868.51531127663
31
3.60859713143924e-005
  0
LINE
 8
GROUP0
10
316.294035942651
20
1868.21170809729
30
3.60859713143924e-005
11
316.397589333244
21
1868.29116740859
31
3.60859713143924e-005
  0
LINE
 8
GROUP0
10
541.293977142652
20
1868.21169701226
30
3.60859713143924e-005
11
541.173386665204
21
1868.161746801
31
3.60859713143924e-005
  0
LINE
 8
GROUP0
10
541.173386665204
20
1868.161746801
30
3.60859713143924e-005
11
541.043977142652
21
1868.14470971415
31
3.60859713143924e-005
  0
LINE
 8
GROUP0
10
540.690423752059
20
1868.29115632356
30
3.60859713143924e-005
11
540.61096444076
21
1868.39470971415
31
3.60859713143924e-005
  0
LINE
 8
GROUP0
10
315.9146264201
20
1868.16175788604
30
3.60859713143924e-005
11
316.044035942651
21
1868.14472079918
31
3.60859713143924e-005
  0
LINE
 8
GROUP0
10
311.509988112118
20
1868.38590169113
30
3.60859713143924e-005
11
311.54406180766
21
1868.64472079918
31
3.60859713143924e-005
  0
LINE
 8
GROUP0
10
311.044063407644
20
1867.77869447165
30
3.60859713143924e-005
11
311.251169895228
21
1867.93761347688
31
3.60859713143924e-005
  0
LINE
 8
GROUP0
10
311.410088135196
20
1868.14472055167
30
3.60859713143924e-005
11
311.509988112118
21
1868.38590169113
31
3.60859713143924e-005
  0
LINE
 8
GROUP0
10
311.251169895228
20
1867.93761347688
30
3.60859713143924e-005
11
311.410088135196
21
1868.14472055167
31
3.60859713143924e-005
  0
LINE
 8
GROUP0
10
315.561073029506
20
1868.51531127663
30
3.60859713143924e-005
11
315.611023240759
21
1868.39472079918
31
3.60859713143924e-005
  0
LINE
 8
GROUP0
10
310.802882637313
20
1867.67879360356
30
3.60859713143924e-005
11
311.044063407644
21
1867.77869447165
31
3.60859713143924e-005
  0
LINE
 8
GROUP0
10
316.173445465202
20
1868.16175788604
30
3.60859713143924e-005
11
316.294035942651
21
1868.21170809729
31
3.60859713143924e-005
  0
LINE
 8
GROUP0
10
315.690482552058
20
1868.29116740859
30
3.60859713143924e-005
11
315.794035942651
21
1868.21170809729
31
3.60859713143924e-005
  0
LINE
 8
GROUP0
10
315.611023240759
20
1868.39472079918
30
3.60859713143924e-005
11
315.690482552058
21
1868.29116740859
31
3.60859713143924e-005
  0
LINE
 8
GROUP0
10
315.544035942651
20
1868.64472079918
30
3.60859713143924e-005
11
315.561073029506
21
1868.51531127663
31
3.60859713143924e-005
  0
LINE
 8
GROUP0
10
315.794035942651
20
1868.21170809729
30
3.60859713143924e-005
11
315.9146264201
21
1868.16175788604
31
3.60859713143924e-005
  0
LINE
 8
GROUP0
10
316.044035942651
20
1868.14472079918
30
3.60859713143924e-005
11
316.173445465202
21
1868.16175788604
31
3.60859713143924e-005
  0
LINE
 8
GROUP0
10
309.578136459543
20
1868.38589812203
30
3.60859713143924e-005
11
309.67803732763
21
1868.1447173517
31
3.60859713143924e-005
  0
LINE
 8
GROUP0
10
309.544061807664
20
1868.64471710418
30
3.60859713143924e-005
11
309.578136459543
21
1868.38589812203
31
3.60859713143924e-005
  0
LINE
 8
GROUP0
10
310.544063655163
20
1867.64471895168
30
3.60859713143924e-005
11
310.802882637313
21
1867.67879360356
31
3.60859713143924e-005
  0
LINE
 8
GROUP0
10
310.285244547109
20
1867.67879264723
30
3.60859713143924e-005
11
310.544063655163
21
1867.64471895168
31
3.60859713143924e-005
  0
LINE
 8
GROUP0
10
309.67803732763
20
1868.1447173517
30
3.60859713143924e-005
11
309.836956332857
21
1867.93761086412
31
3.60859713143924e-005
  0
LINE
 8
GROUP0
10
309.836956332857
20
1867.93761086412
30
3.60859713143924e-005
11
310.044063407646
21
1867.77869262415
31
3.60859713143924e-005
  0
LINE
 8
GROUP0
10
310.044063407646
20
1867.77869262415
30
3.60859713143924e-005
11
310.285244547109
21
1867.67879264723
31
3.60859713143924e-005
  0
LINE
 8
GROUP0
10
546.543977142652
20
1867.64470971415
30
3.60859713143924e-005
11
546.802796187755
21
1867.67878388786
31
3.60859713143924e-005
  0
LINE
 8
GROUP0
10
545.836870361466
20
1867.93760293296
30
3.60859713143924e-005
11
546.043977142652
21
1867.77868431036
31
3.60859713143924e-005
  0
LINE
 8
GROUP0
10
547.251083923839
20
1867.93760293296
30
3.60859713143924e-005
11
547.410002546437
21
1868.14470971415
31
3.60859713143924e-005
  0
LINE
 8
GROUP0
10
546.802796187755
20
1867.67878388786
30
3.60859713143924e-005
11
547.043977142652
21
1867.77868431036
31
3.60859713143924e-005
  0
LINE
 8
GROUP0
10
545.677951738868
20
1868.14470971415
30
3.60859713143924e-005
11
545.836870361466
21
1867.93760293296
31
3.60859713143924e-005
  0
LINE
 8
GROUP0
10
545.578051316363
20
1868.38589066905
30
3.60859713143924e-005
11
545.677951738868
21
1868.14470971415
31
3.60859713143924e-005
  0
LINE
 8
GROUP0
10
547.043977142652
20
1867.77868431036
30
3.60859713143924e-005
11
547.251083923839
21
1867.93760293296
31
3.60859713143924e-005
  0
LINE
 8
GROUP0
10
547.509902968941
20
1868.38589066905
30
3.60859713143924e-005
11
547.543977142652
21
1868.64470971415
31
3.60859713143924e-005
  0
LINE
 8
GROUP0
10
546.28515809755
20
1867.67878388786
30
3.60859713143924e-005
11
546.543977142652
21
1867.64470971415
31
3.60859713143924e-005
  0
LINE
 8
GROUP0
10
545.543977142652
20
1868.64470971415
30
3.60859713143924e-005
11
545.578051316363
21
1868.38589066905
31
3.60859713143924e-005
  0
LINE
 8
GROUP0
10
546.043977142652
20
1867.77868431036
30
3.60859713143924e-005
11
546.28515809755
21
1867.67878388786
31
3.60859713143924e-005
  0
LINE
 8
GROUP0
10
547.410002546437
20
1868.14470971415
30
3.60859713143924e-005
11
547.509902968941
21
1868.38589066905
31
3.60859713143924e-005
  0
LINE
 8
GROUP0
10
434.142051276422
20
1850.14472295555
30
0.000143898351849714
11
434.142051276424
21
1853.14472295555
31
0.00014264102769701
  0
LINE
 8
GROUP0
10
434.142051276424
20
1853.14472295555
30
0.00014264102769701
11
436.740127487774
21
1854.64472295555
31
0.000146429171783069
  0
LINE
 8
GROUP0
10
412.151685548897
20
1862.84087537825
30
0.000127173886843934
11
409.553609337549
21
1864.34087537825
31
0.000122128419101486
  0
LINE
 8
GROUP0
10
436.740127487771
20
1848.64472295555
30
0.000148943821081104
11
434.142051276422
21
1850.14472295555
31
0.000143898351849714
  0
LINE
 8
GROUP0
10
409.553609337549
20
1864.34087537825
30
0.000122128419101486
11
409.553609337551
21
1867.34087537825
31
0.00012087109431711
  0
LINE
 8
GROUP0
10
368.572866708435
20
1838.94856170529
30
7.75674594883924e-005
11
371.170942919785
21
1840.44856170529
31
8.13556043866015e-005
  0
LINE
 8
GROUP0
10
371.170942919781
20
1834.44856170529
30
8.38702522408141e-005
11
368.572866708432
21
1835.94856170529
31
7.88247839118128e-005
  0
LINE
 8
GROUP0
10
457.230503350599
20
1855.74280739475
30
0.000165642114541953
11
454.632427139251
21
1857.24280739475
31
0.000160596645942235
  0
LINE
 8
GROUP0
10
454.632427139253
20
1860.24280739475
30
0.000159339320977381
11
457.230503350603
21
1861.74280739475
31
0.000163127465243917
  0
LINE
 8
GROUP0
10
371.170942919785
20
1840.44856170529
30
8.13556043866015e-005
11
373.769019131133
21
1838.94856170529
31
8.64010723546471e-005
  0
LINE
 8
GROUP0
10
368.572866708432
20
1835.94856170529
30
7.88247839118128e-005
11
368.572866708435
21
1838.94856170529
31
7.75674594883924e-005
  0
LINE
 8
GROUP0
10
475.122793905533
20
1853.14473178317
30
0.000182782881137911
11
477.720870116882
21
1854.64473178317
31
0.000186571025223969
  0
LINE
 8
GROUP0
10
454.632427139251
20
1857.24280739475
30
0.000160596645942235
11
454.632427139253
21
1860.24280739475
31
0.000159339320977381
  0
LINE
 8
GROUP0
10
373.769019131133
20
1838.94856170529
30
8.64010723546471e-005
11
373.769019131131
21
1835.94856170529
31
8.76583970487843e-005
  0
LINE
 8
GROUP0
10
459.828579561949
20
1857.24280739475
30
0.000169430258267056
11
457.230503350599
21
1855.74280739475
31
0.000165642114541953
  0
LINE
 8
GROUP0
10
373.769019131131
20
1835.94856170529
30
8.76583970487843e-005
11
371.170942919781
21
1834.44856170529
31
8.38702522408141e-005
  0
LINE
 8
GROUP0
10
459.828579561952
20
1860.24280739475
30
0.000168172934114352
11
459.828579561949
21
1857.24280739475
31
0.000169430258267056
  0
LINE
 8
GROUP0
10
477.720870116882
20
1854.64473178317
30
0.000186571025223969
11
480.318946328231
21
1853.14473178317
31
0.000191616493192015
  0
LINE
 8
GROUP0
10
480.318946328231
20
1853.14473178317
30
0.000191616493192015
11
480.318946328229
21
1850.14473178317
31
0.000192873817795913
  0
LINE
 8
GROUP0
10
480.318946328229
20
1850.14473178317
30
0.000192873817795913
11
477.720870116879
21
1848.64473178317
31
0.000189085674522005
  0
LINE
 8
GROUP0
10
477.720870116879
20
1848.64473178317
30
0.000189085674522005
11
475.12279390553
21
1850.14473178317
31
0.000184040205290614
  0
LINE
 8
GROUP0
10
475.12279390553
20
1850.14473178317
30
0.000184040205290614
11
475.122793905533
21
1853.14473178317
31
0.000182782881137911
  0
LINE
 8
GROUP0
10
458.730502311779
20
1864.34088420586
30
0.000162270272587506
11
458.730502311781
21
1867.34088420586
31
0.000161012947712891
  0
LINE
 8
GROUP0
10
461.328578523131
20
1868.84088420586
30
0.000164801092069666
11
463.92665473448
21
1867.34088420586
31
0.000169846560579145
  0
LINE
 8
GROUP0
10
463.926654734477
20
1864.34088420586
30
0.000171103885183044
11
461.328578523127
21
1862.84088420587
31
0.000167315740284835
  0
LINE
 8
GROUP0
10
453.132428178009
20
1854.64473178319
30
0.000164801091889188
11
455.730504389358
21
1853.14473178319
31
0.000169846560398668
  0
LINE
 8
GROUP0
10
453.132428178005
20
1848.64473178319
30
0.000167315740916507
11
450.534351966657
21
1850.14473178319
31
0.000162270272948462
  0
LINE
 8
GROUP0
10
458.730502311781
20
1867.34088420586
30
0.000161012947712891
11
461.328578523131
21
1868.84088420586
31
0.000164801092069666
  0
LINE
 8
GROUP0
10
461.328578523127
20
1862.84088420587
30
0.000167315740284835
11
458.730502311779
21
1864.34088420586
31
0.000162270272587506
  0
LINE
 8
GROUP0
10
398.357461070007
20
1838.94856170527
30
0.000108171005057756
11
398.357461070004
21
1835.94856170527
31
0.000109428329751893
  0
LINE
 8
GROUP0
10
455.730504389356
20
1850.14473178319
30
0.000171103885183044
11
453.132428178005
21
1848.64473178319
31
0.000167315740916507
  0
LINE
 8
GROUP0
10
463.92665473448
20
1867.34088420586
30
0.000169846560579145
11
463.926654734477
21
1864.34088420586
31
0.000171103885183044
  0
LINE
 8
GROUP0
10
398.357461070004
20
1835.94856170527
30
0.000109428329751893
11
395.759384858655
21
1834.44856170527
31
0.0001056401851244
  0
LINE
 8
GROUP0
10
395.759384858655
20
1834.44856170527
30
0.0001056401851244
11
393.161308647306
21
1835.94856170527
31
0.000100594716524682
  0
LINE
 8
GROUP0
10
393.161308647306
20
1835.94856170527
30
0.000100594716524682
11
393.161308647308
21
1838.94856170527
31
9.9337392011023e-005
  0
LINE
 8
GROUP0
10
450.534351966657
20
1850.14473178319
30
0.000162270272948462
11
450.534351966659
21
1853.14473178319
31
0.000161012948164085
  0
LINE
 8
GROUP0
10
450.534351966659
20
1853.14473178319
30
0.000161012948164085
11
453.132428178009
21
1854.64473178319
31
0.000164801091889188
  0
LINE
 8
GROUP0
10
455.730504389358
20
1853.14473178319
30
0.000169846560398668
11
455.730504389356
21
1850.14473178319
31
0.000171103885183044
  0
LINE
 8
GROUP0
10
461.328578523132
20
1854.64473178319
30
0.000164801091889188
11
463.926654734479
21
1853.14473178319
31
0.000169846560308429
  0
LINE
 8
GROUP0
10
487.417036830045
20
1857.24280739475
30
0.000160596645942235
11
487.417036830048
21
1860.24280739475
31
0.000159339320977381
  0
LINE
 8
GROUP0
10
463.926654734477
20
1850.14473178319
30
0.000171103885183044
11
461.328578523128
21
1848.64473178319
31
0.000167315740826268
  0
LINE
 8
GROUP0
10
458.730502311779
20
1850.14473178319
30
0.000162270272948462
11
458.730502311781
21
1853.14473178319
31
0.000161012948164085
  0
LINE
 8
GROUP0
10
431.14205335399
20
1835.94857053288
30
0.000149570183192793
11
428.54397714264
21
1834.44857053288
31
0.000145782038565301
  0
LINE
 8
GROUP0
10
492.613189252743
20
1857.24280739475
30
0.000169430258267056
11
490.015113041394
21
1855.74280739475
31
0.000165642114541953
  0
LINE
 8
GROUP0
10
490.015113041398
20
1861.74280739475
30
0.000163127465243917
11
492.613189252745
21
1860.24280739475
31
0.000168172934114352
  0
LINE
 8
GROUP0
10
490.015113041394
20
1855.74280739475
30
0.000165642114541953
11
487.417036830045
21
1857.24280739475
31
0.000160596645942235
  0
LINE
 8
GROUP0
10
458.730502311781
20
1853.14473178319
30
0.000161012948164085
11
461.328578523132
21
1854.64473178319
31
0.000164801091889188
  0
LINE
 8
GROUP0
10
395.759384858658
20
1840.44856170527
30
0.000103125536728754
11
398.357461070007
21
1838.94856170527
31
0.000108171005057756
  0
LINE
 8
GROUP0
10
428.54397714264
20
1834.44857053288
30
0.000145782038565301
11
425.945900931292
21
1835.94857053288
31
0.000140736570416777
  0
LINE
 8
GROUP0
10
393.161308647308
20
1838.94856170527
30
9.9337392011023e-005
11
395.759384858658
21
1840.44856170527
31
0.000103125536728754
  0
LINE
 8
GROUP0
10
487.417036830048
20
1860.24280739475
30
0.000159339320977381
11
490.015113041398
21
1861.74280739475
31
0.000163127465243917
  0
LINE
 8
GROUP0
10
461.328578523128
20
1848.64473178319
30
0.000167315740826268
11
458.730502311779
21
1850.14473178319
31
0.000162270272948462
  0
LINE
 8
GROUP0
10
463.926654734479
20
1853.14473178319
30
0.000169846560308429
11
463.926654734477
21
1850.14473178319
31
0.000171103885183044
  0
LINE
 8
GROUP0
10
492.613189252745
20
1860.24280739475
30
0.000168172934114352
11
492.613189252743
21
1857.24280739475
31
0.000169430258267056
  0
LINE
 8
GROUP0
10
524.299686879759
20
1867.34089744727
30
0.000232110694090437
11
526.897763091109
21
1868.84089744727
31
0.000235898838808168
  0
LINE
 8
GROUP0
10
526.897763091109
20
1868.84089744727
30
0.000235898838808168
11
529.495839302458
21
1867.34089744727
31
0.000240944307046931
  0
LINE
 8
GROUP0
10
510.505462400866
20
1862.84089303345
30
0.000229227527872666
11
507.907386189517
21
1864.34089303345
31
0.000224182058551037
  0
LINE
 8
GROUP0
10
513.103538612216
20
1864.34089303345
30
0.000233015670966097
11
510.505462400866
21
1862.84089303345
31
0.000229227527872666
  0
LINE
 8
GROUP0
10
507.907386189517
20
1864.34089303345
30
0.000224182058551037
11
507.907386189518
21
1867.34089303345
31
0.000222924734127616
  0
LINE
 8
GROUP0
10
513.103538612218
20
1867.34089303345
30
0.00023175834708411
11
513.103538612216
21
1864.34089303345
31
0.000233015670966097
  0
LINE
 8
GROUP0
10
425.945900931294
20
1838.94857053288
30
0.000139479245542162
11
428.543977142645
21
1840.44857053288
31
0.000143267390259894
  0
LINE
 8
GROUP0
10
425.945900931292
20
1835.94857053288
30
0.000140736570416777
11
425.945900931294
21
1838.94857053288
31
0.000139479245542162
  0
LINE
 8
GROUP0
10
507.907386189518
20
1867.34089303345
30
0.000222924734127616
11
510.505462400869
21
1868.84089303345
31
0.000226712878935587
  0
LINE
 8
GROUP0
10
431.142053353992
20
1838.94857053288
30
0.000148312858679134
11
431.14205335399
21
1835.94857053288
31
0.000149570183192793
  0
LINE
 8
GROUP0
10
428.543977142645
20
1840.44857053288
30
0.000143267390259894
11
431.142053353992
21
1838.94857053288
31
0.000148312858679134
  0
LINE
 8
GROUP0
10
524.299686879757
20
1864.34089744727
30
0.000233368018243141
11
524.299686879759
21
1867.34089744727
31
0.000232110694090437
  0
LINE
 8
GROUP0
10
510.505462400869
20
1868.84089303345
30
0.000226712878935587
11
513.103538612218
21
1867.34089303345
31
0.00023175834708411
  0
LINE
 8
GROUP0
10
529.495839302458
20
1867.34089744727
30
0.000240944307046931
11
529.495839302455
21
1864.34089744727
31
0.000242201631831307
  0
LINE
 8
GROUP0
10
529.495839302455
20
1864.34089744727
30
0.000242201631831307
11
526.897763091105
21
1862.84089744727
31
0.000238413486933098
  0
LINE
 8
GROUP0
10
526.897763091105
20
1862.84089744727
30
0.000238413486933098
11
524.299686879757
21
1864.34089744727
31
0.000233368018243141
  0
LINE
 8
GROUP0
10
431.142053353999
20
1864.34087537823
30
0.000152731964084296
11
428.543977142649
21
1862.84087537823
31
0.000148943820990866
  0
LINE
 8
GROUP0
10
425.945900931301
20
1867.34087537823
30
0.000142641027200696
11
428.543977142652
21
1868.84087537823
31
0.000146429172008666
  0
LINE
 8
GROUP0
10
428.543977142652
20
1868.84087537823
30
0.000146429172008666
11
431.142053354001
21
1867.34087537823
31
0.00015147464015719
  0
LINE
 8
GROUP0
10
431.142053354001
20
1867.34087537823
30
0.00015147464015719
11
431.142053353999
21
1864.34087537823
31
0.000152731964084296
  0
LINE
 8
GROUP0
10
434.142051276416
20
1838.94857053288
30
0.000139479245451923
11
436.740127487766
21
1840.44857053288
31
0.000143267390169655
  0
LINE
 8
GROUP0
10
436.740127487766
20
1840.44857053288
30
0.000143267390169655
11
439.338203699115
21
1838.94857053288
31
0.000148312858498656
  0
LINE
 8
GROUP0
10
439.338203699115
20
1838.94857053288
30
0.000148312858498656
11
439.338203699112
21
1835.94857053288
31
0.000149570183192793
  0
LINE
 8
GROUP0
10
428.543977142649
20
1862.84087537823
30
0.000148943820990866
11
425.9459009313
21
1864.34087537823
31
0.000143898351669236
  0
LINE
 8
GROUP0
10
434.142051276414
20
1835.94857053288
30
0.000140736569965583
11
434.142051276416
21
1838.94857053288
31
0.000139479245451923
  0
LINE
 8
GROUP0
10
425.9459009313
20
1864.34087537823
30
0.000143898351669236
11
425.945900931301
21
1867.34087537823
31
0.000142641027200696
  0
LINE
 8
GROUP0
10
439.338203699112
20
1835.94857053288
30
0.000149570183192793
11
436.740127487763
21
1834.44857053288
31
0.000145782038565301
  0
LINE
 8
GROUP0
10
506.40739840241
20
1861.74281622236
30
0.000203269318414101
11
509.005474613758
21
1860.24281622237
31
0.000208314787555253
  0
LINE
 8
GROUP0
10
436.740127487763
20
1834.44857053288
30
0.000145782038565301
11
434.142051276414
21
1835.94857053288
31
0.000140736569965583
  0
LINE
 8
GROUP0
10
503.80932219106
20
1860.24281622237
30
0.000199481174418281
11
506.40739840241
21
1861.74281622236
31
0.000203269318414101
  0
LINE
 8
GROUP0
10
420.347835894019
20
1862.84087537825
30
0.000127173886843934
11
417.749759682671
21
1864.34087537825
31
0.000122128419146605
  0
LINE
 8
GROUP0
10
498.211245979708
20
1855.74281622237
30
0.000205783967982853
11
495.613169768359
21
1857.24281622237
31
0.000200738499383135
  0
LINE
 8
GROUP0
10
417.749759682671
20
1864.34087537825
30
0.000122128419146605
11
417.749759682673
21
1867.34087537825
31
0.000120871094226871
  0
LINE
 8
GROUP0
10
506.407398402406
20
1855.74281622237
30
0.000205783967982853
11
503.809322191058
21
1857.24281622237
31
0.000200738499383135
  0
LINE
 8
GROUP0
10
509.005474613756
20
1857.24281622237
30
0.000209572111707956
11
506.407398402406
21
1855.74281622237
31
0.000205783967982853
  0
LINE
 8
GROUP0
10
509.005474613758
20
1860.24281622237
30
0.000208314787555253
11
509.005474613756
21
1857.24281622237
31
0.000209572111707956
  0
LINE
 8
GROUP0
10
417.749759682673
20
1867.34087537825
30
0.000120871094226871
11
420.347835894023
21
1868.84087537825
31
0.000124659238583646
  0
LINE
 8
GROUP0
10
500.80932219106
20
1860.24281622237
30
0.000208314787555253
11
500.809322191057
21
1857.24281622237
31
0.000209572111707956
  0
LINE
 8
GROUP0
10
503.809322191058
20
1857.24281622237
30
0.000200738499383135
11
503.80932219106
21
1860.24281622237
31
0.000199481174418281
  0
LINE
 8
GROUP0
10
500.809322191057
20
1857.24281622237
30
0.000209572111707956
11
498.211245979708
21
1855.74281622237
31
0.000205783967982853
  0
LINE
 8
GROUP0
10
495.613169768359
20
1857.24281622237
30
0.000200738499383135
11
495.613169768361
21
1860.24281622237
31
0.000199481174418281
  0
LINE
 8
GROUP0
10
495.613169768361
20
1860.24281622237
30
0.000199481174418281
11
498.211245979711
21
1861.74281622237
31
0.000203269318684818
  0
LINE
 8
GROUP0
10
498.211245979711
20
1861.74281622237
30
0.000203269318684818
11
500.80932219106
21
1860.24281622237
31
0.000208314787555253
  0
LINE
 8
GROUP0
10
422.945912105369
20
1864.34087537825
30
0.000130962031742143
11
420.347835894019
21
1862.84087537825
31
0.000127173886843934
  0
LINE
 8
GROUP0
10
443.436294200939
20
1860.24279856714
30
0.000128031080673452
11
443.436294200937
21
1857.24279856714
31
0.000129288404826156
  0
LINE
 8
GROUP0
10
420.347835894023
20
1868.84087537825
30
0.000124659238583646
11
422.945912105372
21
1867.34087537825
31
0.000129704707093126
  0
LINE
 8
GROUP0
10
440.838217989587
20
1855.74279856714
30
0.000125500261101053
11
438.240141778238
21
1857.24279856714
31
0.000120454792501334
  0
LINE
 8
GROUP0
10
438.240141778238
20
1857.24279856714
30
0.000120454792501334
11
438.240141778241
21
1860.24279856714
31
0.00011919746753648
  0
LINE
 8
GROUP0
10
438.240141778241
20
1860.24279856714
30
0.00011919746753648
11
440.838217989591
21
1861.74279856714
31
0.000122985611803017
  0
LINE
 8
GROUP0
10
440.838217989591
20
1861.74279856714
30
0.000122985611803017
11
443.436294200939
21
1860.24279856714
31
0.000128031080673452
  0
LINE
 8
GROUP0
10
422.945912105372
20
1867.34087537825
30
0.000129704707093126
11
422.945912105369
21
1864.34087537825
31
0.000130962031742143
  0
LINE
 8
GROUP0
10
443.436294200937
20
1857.24279856714
30
0.000129288404826156
11
440.838217989587
21
1855.74279856714
31
0.000125500261101053
  0
LINE
 8
GROUP0
10
436.740127487774
20
1854.64472295555
30
0.000146429171783069
11
439.338203699123
21
1853.14472295555
31
0.000151474639751115
  0
LINE
 8
GROUP0
10
439.338203699123
20
1853.14472295555
30
0.000151474639751115
11
439.338203699121
21
1850.14472295555
31
0.000152731964355013
  0
LINE
 8
GROUP0
10
439.338203699121
20
1850.14472295555
30
0.000152731964355013
11
436.740127487771
21
1848.64472295555
31
0.000148943821081104
  0
LINE
 8
GROUP0
10
384.965158302194
20
1853.14471412794
30
0.000102499173985393
11
387.563234513544
21
1854.64471412794
31
0.000106287318342169
  0
LINE
 8
GROUP0
10
387.563234513544
20
1854.64471412794
30
0.000106287318342169
11
390.161310724893
21
1853.14471412794
31
0.000111332786400453
  0
LINE
 8
GROUP0
10
390.161310724893
20
1853.14471412794
30
0.000111332786400453
11
390.16131072489
21
1850.14471412794
31
0.000112590110914113
  0
LINE
 8
GROUP0
10
390.16131072489
20
1850.14471412794
30
0.000112590110914113
11
387.563234513541
21
1848.64471412794
31
0.000108801967640204
  0
LINE
 8
GROUP0
10
361.474808942699
20
1843.04662848922
30
1.44168044961646e-005
11
358.876732731345
21
1841.54662848923
31
1.41055097948595e-005
  0
LINE
 8
GROUP0
10
358.876732731345
20
1841.54662848923
30
1.41055097948595e-005
11
356.278656519992
21
1843.04662848923
31
1.18007120249786e-005
  0
LINE
 8
GROUP0
10
356.278656519992
20
1843.04662848923
30
1.18007120249786e-005
11
356.278656519995
21
1846.04662848923
31
9.8072071516242e-006
  0
LINE
 8
GROUP0
10
356.278656519995
20
1846.04662848923
30
9.8072071516242e-006
11
358.876732731349
21
1847.54662848922
31
1.01185011310179e-005
  0
LINE
 8
GROUP0
10
358.876732731349
20
1847.54662848922
30
1.01185011310179e-005
11
361.4748089427
21
1846.04662848922
31
1.2423299803288e-005
  0
LINE
 8
GROUP0
10
361.4748089427
20
1846.04662848922
30
1.2423299803288e-005
11
361.474808942699
21
1843.04662848922
31
1.44168044961646e-005
  0
LINE
 8
GROUP0
10
350.680580308655
20
1847.54662848923
30
1.99257087338367e-005
11
353.278656520008
21
1846.04662848923
31
2.2230507225629e-005
  0
LINE
 8
GROUP0
10
353.278656520008
20
1846.04662848923
30
2.2230507225629e-005
11
353.278656520007
21
1843.04662848923
31
2.4224011377072e-005
  0
LINE
 8
GROUP0
10
353.278656520007
20
1843.04662848923
30
2.4224011377072e-005
11
350.680580308652
21
1841.54662848923
31
2.39127173074394e-005
  0
LINE
 8
GROUP0
10
350.680580308652
20
1841.54662848923
30
2.39127173074394e-005
11
348.0825040973
21
1843.04662848923
31
2.16079189961249e-005
  0
LINE
 8
GROUP0
10
348.0825040973
20
1843.04662848923
30
2.16079189961249e-005
11
348.082504097302
21
1846.04662848923
31
1.9614414754443e-005
  0
LINE
 8
GROUP0
10
348.082504097302
20
1846.04662848923
30
1.9614414754443e-005
11
350.680580308655
21
1847.54662848923
31
1.99257087338367e-005
  0
LINE
 8
GROUP0
10
354.778642229546
20
1834.44855287766
30
6.54983316835001e-005
11
352.180566018197
21
1835.94855287765
31
6.04528630837819e-005
  0
LINE
 8
GROUP0
10
352.180566018197
20
1835.94855287765
30
6.04528630837819e-005
11
352.1805660182
21
1838.94855287765
31
5.91955385701226e-005
  0
LINE
 8
GROUP0
10
352.1805660182
20
1838.94855287765
30
5.91955385701226e-005
11
354.77864222955
21
1840.44855287765
31
6.29836832878539e-005
  0
LINE
 8
GROUP0
10
354.77864222955
20
1840.44855287765
30
6.29836832878539e-005
11
357.376718440898
21
1838.94855287765
31
6.80291516168552e-005
  0
LINE
 8
GROUP0
10
357.376718440898
20
1838.94855287765
30
6.80291516168552e-005
11
357.376718440896
21
1835.94855287765
31
6.92864763109924e-005
  0
LINE
 8
GROUP0
10
357.376718440896
20
1835.94855287765
30
6.92864763109924e-005
11
354.778642229546
21
1834.44855287766
31
6.54983316835001e-005
  0
LINE
 8
GROUP0
10
335.788274424456
20
1853.14470530035
30
4.05873878413843e-005
11
338.386350635807
21
1854.64470530035
31
4.43755315213679e-005
  0
LINE
 8
GROUP0
10
338.386350635807
20
1854.64470530035
30
4.43755315213679e-005
11
340.984426847154
21
1853.14470530035
31
4.94209999857276e-005
  0
LINE
 8
GROUP0
10
340.984426847154
20
1853.14470530035
30
4.94209999857276e-005
11
340.984426847152
21
1850.14470530036
31
5.06783248603426e-005
  0
LINE
 8
GROUP0
10
340.984426847152
20
1850.14470530036
30
5.06783248603426e-005
11
338.386350635803
21
1848.64470530036
31
4.68901805035671e-005
  0
LINE
 8
GROUP0
10
338.386350635803
20
1848.64470530036
30
4.68901805035671e-005
11
335.788274424454
21
1850.14470530036
31
4.18447126257604e-005
  0
LINE
 8
GROUP0
10
335.788274424454
20
1850.14470530036
30
4.18447126257604e-005
11
335.788274424456
21
1853.14470530035
31
4.05873878413843e-005
  0
LINE
 8
GROUP0
10
492.613189252716
20
1843.04665497205
30
0.000125035156855091
11
490.015113041363
21
1841.54665497206
31
0.000124723863146414
  0
LINE
 8
GROUP0
10
490.015113041363
20
1841.54665497206
30
0.000124723863146414
11
487.417036830011
21
1843.04665497206
31
0.000122419065105817
  0
LINE
 8
GROUP0
10
487.417036830011
20
1843.04665497206
30
0.000122419065105817
11
487.417036830013
21
1846.04665497205
31
0.000120425560322701
  0
LINE
 8
GROUP0
10
487.417036830013
20
1846.04665497205
30
0.000120425560322701
11
490.015113041366
21
1847.54665497205
31
0.000120736854211856
  0
LINE
 8
GROUP0
10
490.015113041366
20
1847.54665497205
30
0.000120736854211856
11
492.613189252718
21
1846.04665497205
31
0.000123041652974365
  0
LINE
 8
GROUP0
10
492.613189252718
20
1846.04665497205
30
0.000123041652974365
11
492.613189252716
21
1843.04665497205
31
0.000125035156855091
  0
LINE
 8
GROUP0
10
473.62280819598
20
1847.54665497207
30
0.000140351269056538
11
476.220884407333
21
1846.04665497206
31
0.00014265606754833
  0
LINE
 8
GROUP0
10
476.220884407333
20
1846.04665497206
30
0.00014265606754833
11
476.220884407332
21
1843.04665497207
31
0.000144649571699773
  0
LINE
 8
GROUP0
10
476.220884407332
20
1843.04665497207
30
0.000144649571699773
11
473.622808195977
21
1841.54665497207
31
0.000144338277630141
  0
LINE
 8
GROUP0
10
473.622808195977
20
1841.54665497207
30
0.000144338277630141
11
471.024731984625
21
1843.04665497207
31
0.000142033479318826
  0
LINE
 8
GROUP0
10
471.024731984625
20
1843.04665497207
30
0.000142033479318826
11
471.024731984627
21
1846.04665497207
31
0.000140039975077144
  0
LINE
 8
GROUP0
10
471.024731984627
20
1846.04665497207
30
0.000140039975077144
11
473.62280819598
21
1847.54665497207
31
0.000140351269056538
  0
LINE
 8
GROUP0
10
466.9266435604
20
1835.94857936049
30
0.000180878423902797
11
466.926643560402
21
1838.94857936049
31
0.000179621098983063
  0
LINE
 8
GROUP0
10
466.926643560402
20
1838.94857936049
30
0.000179621098983063
11
469.524719771753
21
1840.44857936049
31
0.000183409243700794
  0
LINE
 8
GROUP0
10
469.524719771753
20
1840.44857936049
30
0.000183409243700794
11
472.1227959831
21
1838.94857936049
31
0.000188454712120034
  0
LINE
 8
GROUP0
10
472.1227959831
20
1838.94857936049
30
0.000188454712120034
11
472.122795983098
21
1835.94857936049
31
0.000189712036678813
  0
LINE
 8
GROUP0
10
472.122795983098
20
1835.94857936049
30
0.000189712036678813
11
469.524719771749
21
1834.44857936049
31
0.000185923892051321
  0
LINE
 8
GROUP0
10
469.524719771749
20
1834.44857936049
30
0.000185923892051321
11
466.9266435604
21
1835.94857936049
31
0.000180878423902797
  0
LINE
 8
GROUP0
10
379.367093264903
20
1834.44856170529
30
8.38702522408141e-005
11
376.769017053555
21
1835.94856170529
31
7.88247839118128e-005
  0
LINE
 8
GROUP0
10
376.769017053555
20
1835.94856170529
30
7.88247839118128e-005
11
376.769017053557
21
1838.94856170529
31
7.75674593981535e-005
  0
LINE
 8
GROUP0
10
376.769017053557
20
1838.94856170529
30
7.75674593981535e-005
11
379.367093264907
21
1840.44856170529
31
8.13556036646901e-005
  0
LINE
 8
GROUP0
10
379.367093264907
20
1840.44856170529
30
8.13556036646901e-005
11
381.965169476255
21
1838.94856170529
31
8.64010722644082e-005
  0
LINE
 8
GROUP0
10
381.965169476255
20
1838.94856170529
30
8.64010722644082e-005
11
381.965169476252
21
1835.94856170529
31
8.76583971390232e-005
  0
LINE
 8
GROUP0
10
381.965169476252
20
1835.94856170529
30
8.76583971390232e-005
11
379.367093264903
21
1834.44856170529
31
8.38702522408141e-005
  0
LINE
 8
GROUP0
10
377.867094303731
20
1846.04663731685
30
8.19867753307335e-005
11
377.867094303729
21
1843.04663731685
31
8.39802799333711e-005
  0
LINE
 8
GROUP0
10
377.867094303729
20
1843.04663731685
30
8.39802799333711e-005
11
375.269018092374
21
1841.54663731686
31
8.36689858637385e-005
  0
LINE
 8
GROUP0
10
375.269018092374
20
1841.54663731686
30
8.36689858637385e-005
11
372.670941881023
21
1843.04663731686
31
8.13641880036187e-005
  0
LINE
 8
GROUP0
10
372.670941881023
20
1843.04663731686
30
8.13641880036187e-005
11
372.670941881025
21
1846.04663731685
31
7.93706832205032e-005
  0
LINE
 8
GROUP0
10
372.670941881025
20
1846.04663731685
30
7.93706832205032e-005
11
375.269018092379
21
1847.54663731685
31
7.96819766584633e-005
  0
LINE
 8
GROUP0
10
375.269018092379
20
1847.54663731685
30
7.96819766584633e-005
11
377.867094303731
21
1846.04663731685
31
8.19867753307335e-005
  0
LINE
 8
GROUP0
10
465.426655773285
20
1841.54665497207
30
0.000154145485503676
11
462.828579561932
21
1843.04665497207
31
0.000151840687102123
  0
LINE
 8
GROUP0
10
462.828579561932
20
1843.04665497207
30
0.000151840687102123
11
462.828579561934
21
1846.04665497207
31
0.000149847182228768
  0
LINE
 8
GROUP0
10
462.828579561934
20
1846.04665497207
30
0.000149847182228768
11
465.426655773288
21
1847.54665497207
31
0.00015015847638864
  0
LINE
 8
GROUP0
10
465.426655773288
20
1847.54665497207
30
0.00015015847638864
11
468.02473198464
21
1846.04665497207
31
0.000152463274970671
  0
LINE
 8
GROUP0
10
468.02473198464
20
1846.04665497207
30
0.000152463274970671
11
468.024731984638
21
1843.04665497207
31
0.00015445677948307
  0
LINE
 8
GROUP0
10
468.024731984638
20
1843.04665497207
30
0.00015445677948307
11
465.426655773285
21
1841.54665497207
31
0.000154145485503676
  0
LINE
 8
GROUP0
10
480.31894632822
20
1835.94857936049
30
0.000189712036678813
11
477.720870116871
21
1834.44857936049
31
0.000185923892051321
  0
LINE
 8
GROUP0
10
477.720870116871
20
1834.44857936049
30
0.000185923892051321
11
475.122793905522
21
1835.94857936049
31
0.000180878423451603
  0
LINE
 8
GROUP0
10
475.122793905522
20
1835.94857936049
30
0.000180878423451603
11
475.122793905525
21
1838.94857936049
31
0.000179621098892824
  0
LINE
 8
GROUP0
10
475.122793905525
20
1838.94857936049
30
0.000179621098892824
11
477.720870116875
21
1840.44857936049
31
0.000183409243610555
  0
LINE
 8
GROUP0
10
477.720870116875
20
1840.44857936049
30
0.000183409243610555
11
480.318946328223
21
1838.94857936049
31
0.000188454711939556
  0
LINE
 8
GROUP0
10
480.318946328223
20
1838.94857936049
30
0.000188454711939556
11
480.31894632822
21
1835.94857936049
31
0.000189712036678813
  0
LINE
 8
GROUP0
10
484.417036830024
20
1843.04665497206
30
0.000134842364818866
11
481.81896061867
21
1841.54665497206
31
0.000134531070117561
  0
LINE
 8
GROUP0
10
481.81896061867
20
1841.54665497206
30
0.000134531070117561
11
479.220884407317
21
1843.04665497206
31
0.00013222627234768
  0
LINE
 8
GROUP0
10
479.220884407317
20
1843.04665497206
30
0.00013222627234768
11
479.22088440732
21
1846.04665497206
31
0.000130232767474325
  0
LINE
 8
GROUP0
10
479.22088440732
20
1846.04665497206
30
0.000130232767474325
11
481.818960618674
21
1847.54665497206
31
0.000130544061453719
  0
LINE
 8
GROUP0
10
481.818960618674
20
1847.54665497206
30
0.000130544061453719
11
484.417036830025
21
1846.04665497206
31
0.000132848860125989
  0
LINE
 8
GROUP0
10
484.417036830025
20
1846.04665497206
30
0.000132848860125989
11
484.417036830024
21
1843.04665497206
31
0.000134842364818866
  0
LINE
 8
GROUP0
10
485.917020461988
20
1834.44858377431
30
0.000195109852645814
11
483.31894425064
21
1835.94858377431
31
0.000190064383324184
  0
LINE
 8
GROUP0
10
483.31894425064
20
1835.94858377431
30
0.000190064383324184
11
483.318944250642
21
1838.94858377431
31
0.000188807059803153
  0
LINE
 8
GROUP0
10
483.318944250642
20
1838.94858377431
30
0.000188807059803153
11
485.917020461993
21
1840.44858377431
31
0.000192595203483137
  0
LINE
 8
GROUP0
10
485.917020461993
20
1840.44858377431
30
0.000192595203483137
11
488.51509667334
21
1838.94858377431
31
0.000197640672218213
  0
LINE
 8
GROUP0
10
488.51509667334
20
1838.94858377431
30
0.000197640672218213
11
488.515096673339
21
1835.94858377431
31
0.000198897996280678
  0
LINE
 8
GROUP0
10
488.515096673339
20
1835.94858377431
30
0.000198897996280678
11
485.917020461988
21
1834.44858377431
31
0.000195109852645814
  0
LINE
 8
GROUP0
10
480.318946328231
20
1867.34088420584
30
0.000191616493552971
11
480.318946328229
21
1864.34088420584
31
0.000192873817525197
  0
LINE
 8
GROUP0
10
480.318946328229
20
1864.34088420584
30
0.000192873817525197
11
477.720870116879
21
1862.84088420584
31
0.000189085674431766
  0
LINE
 8
GROUP0
10
477.720870116879
20
1862.84088420584
30
0.000189085674431766
11
475.12279390553
21
1864.34088420584
31
0.000184040205110136
  0
LINE
 8
GROUP0
10
475.12279390553
20
1864.34088420584
30
0.000184040205110136
11
475.122793905533
21
1867.34088420584
31
0.000182782880596477
  0
LINE
 8
GROUP0
10
475.122793905533
20
1867.34088420584
30
0.000182782880596477
11
477.720870116882
21
1868.84088420584
31
0.000186571025494686
  0
LINE
 8
GROUP0
10
477.720870116882
20
1868.84088420584
30
0.000186571025494686
11
480.318946328231
21
1867.34088420584
31
0.000191616493552971
  0
LINE
 8
GROUP0
10
483.318944250648
20
1850.14473619698
30
0.000193226165072957
11
483.31894425065
21
1853.14473619698
31
0.000191968841100731
  0
LINE
 8
GROUP0
10
483.31894425065
20
1853.14473619698
30
0.000191968841100731
11
485.917020462
21
1854.64473619698
31
0.000195756985277029
  0
LINE
 8
GROUP0
10
485.917020462
20
1854.64473619698
30
0.000195756985277029
11
488.515096673349
21
1853.14473619698
31
0.000200802453696269
  0
LINE
 8
GROUP0
10
488.515096673349
20
1853.14473619698
30
0.000200802453696269
11
488.515096673347
21
1850.14473619698
31
0.000202059778480645
  0
LINE
 8
GROUP0
10
488.515096673347
20
1850.14473619698
30
0.000202059778480645
11
485.917020461997
21
1848.64473619698
31
0.000198271634304348
  0
LINE
 8
GROUP0
10
485.917020461997
20
1848.64473619698
30
0.000198271634304348
11
483.318944250648
21
1850.14473619698
31
0.000193226165072957
  0
LINE
 8
GROUP0
10
455.73050438935
20
1838.94857936051
30
0.000166684779236448
11
455.730504389348
21
1835.94857936051
31
0.000167942103930585
  0
LINE
 8
GROUP0
10
455.730504389348
20
1835.94857936051
30
0.000167942103930585
11
453.132428177997
21
1834.44857936051
31
0.000164153959167734
  0
LINE
 8
GROUP0
10
453.132428177997
20
1834.44857936051
30
0.000164153959167734
11
450.534351966648
21
1835.94857936051
31
0.000159108490793614
  0
LINE
 8
GROUP0
10
450.534351966648
20
1835.94857936051
30
0.000159108490793614
11
450.534351966651
21
1838.94857936051
31
0.000157851166370193
  0
LINE
 8
GROUP0
10
450.534351966651
20
1838.94857936051
30
0.000157851166370193
11
453.132428178002
21
1840.44857936051
31
0.000161639311268402
  0
LINE
 8
GROUP0
10
453.132428178002
20
1840.44857936051
30
0.000161639311268402
11
455.73050438935
21
1838.94857936051
31
0.000166684779236448
  0
LINE
 8
GROUP0
10
461.32857852312
20
1834.44857936051
30
0.000164153959167734
11
458.730502311771
21
1835.94857936051
31
0.000159108490793614
  0
LINE
 8
GROUP0
10
458.730502311771
20
1835.94857936051
30
0.000159108490793614
11
458.730502311773
21
1838.94857936051
31
0.000157851166279954
  0
LINE
 8
GROUP0
10
458.730502311773
20
1838.94857936051
30
0.000157851166279954
11
461.328578523124
21
1840.44857936051
31
0.000161639310546491
  0
LINE
 8
GROUP0
10
461.328578523124
20
1840.44857936051
30
0.000161639310546491
11
463.926654734471
21
1838.94857936051
31
0.000166684779146209
  0
LINE
 8
GROUP0
10
463.926654734471
20
1838.94857936051
30
0.000166684779146209
11
463.926654734469
21
1835.94857936051
31
0.000167942104065943
  0
LINE
 8
GROUP0
10
463.926654734469
20
1835.94857936051
30
0.000167942104065943
11
461.32857852312
21
1834.44857936051
31
0.000164153959167734
  0
LINE
 8
GROUP0
10
403.955535203772
20
1834.44856611908
30
0.000114826145718894
11
401.357458992424
21
1835.94856611909
31
0.000109780676397264
  0
LINE
 8
GROUP0
10
401.357458992424
20
1835.94856611909
30
0.000109780676397264
11
401.357458992426
21
1838.94856611908
31
0.000108523352876233
  0
LINE
 8
GROUP0
10
401.357458992426
20
1838.94856611908
30
0.000108523352876233
11
403.955535203776
21
1840.44856611908
31
0.000112311496601336
  0
LINE
 8
GROUP0
10
403.955535203776
20
1840.44856611908
30
0.000112311496601336
11
406.553611415124
21
1838.94856611908
31
0.000117356965291293
  0
LINE
 8
GROUP0
10
406.553611415124
20
1838.94856611908
30
0.000117356965291293
11
406.553611415123
21
1835.94856611908
31
0.000118614289353758
  0
LINE
 8
GROUP0
10
406.553611415123
20
1835.94856611908
30
0.000118614289353758
11
403.955535203772
21
1834.44856611908
31
0.000114826145718894
  0
LINE
 8
GROUP0
10
454.632427139242
20
1846.04665497208
30
0.000159654390102304
11
457.230503350595
21
1847.54665497208
31
0.000159965683540264
  0
LINE
 8
GROUP0
10
457.230503350595
20
1847.54665497208
30
0.000159965683540264
11
459.828579561947
21
1846.04665497208
31
0.000162270482212534
  0
LINE
 8
GROUP0
10
459.828579561947
20
1846.04665497208
30
0.000162270482212534
11
459.828579561945
21
1843.04665497208
31
0.000164263986815172
  0
LINE
 8
GROUP0
10
459.828579561945
20
1843.04665497208
30
0.000164263986815172
11
457.230503350591
21
1841.54665497208
31
0.000163952692745539
  0
LINE
 8
GROUP0
10
457.230503350591
20
1841.54665497208
30
0.000163952692745539
11
454.63242713924
21
1843.04665497208
31
0.000161647894885419
  0
LINE
 8
GROUP0
10
454.63242713924
20
1843.04665497208
30
0.000161647894885419
11
454.632427139242
21
1846.04665497208
31
0.000159654390102304
  0
LINE
 8
GROUP0
10
472.122795983106
20
1850.14473178317
30
0.000192873817795913
11
469.524719771757
21
1848.64473178317
31
0.000189085674522005
  0
LINE
 8
GROUP0
10
469.524719771757
20
1848.64473178317
30
0.000189085674522005
11
466.926643560408
21
1850.14473178317
31
0.000184040205290614
  0
LINE
 8
GROUP0
10
466.926643560408
20
1850.14473178317
30
0.000184040205290614
11
466.92664356041
21
1853.14473178317
31
0.000182782880867194
  0
LINE
 8
GROUP0
10
466.92664356041
20
1853.14473178317
30
0.000182782880867194
11
469.524719771761
21
1854.64473178317
31
0.000186571025223969
  0
LINE
 8
GROUP0
10
469.524719771761
20
1854.64473178317
30
0.000186571025223969
11
472.122795983109
21
1853.14473178317
31
0.000191616493282254
  0
LINE
 8
GROUP0
10
472.122795983109
20
1853.14473178317
30
0.000191616493282254
11
472.122795983106
21
1850.14473178317
31
0.000192873817795913
  0
LINE
 8
GROUP0
10
386.063246726423
20
1846.04663731685
30
7.21795680888704e-005
11
386.063246726421
21
1843.04663731685
31
7.4173072601269e-005
  0
LINE
 8
GROUP0
10
386.063246726421
20
1843.04663731685
30
7.4173072601269e-005
11
383.465170515068
21
1841.54663731685
31
7.38617786218754e-005
  0
LINE
 8
GROUP0
10
383.465170515068
20
1841.54663731685
30
7.38617786218754e-005
11
380.867094303716
21
1843.04663731685
31
7.1556980220322e-005
  0
LINE
 8
GROUP0
10
380.867094303716
20
1843.04663731685
30
7.1556980220322e-005
11
380.867094303718
21
1846.04663731685
31
6.95634753469676e-005
  0
LINE
 8
GROUP0
10
380.867094303718
20
1846.04663731685
30
6.95634753469676e-005
11
383.465170515072
21
1847.54663731685
31
6.98747695068391e-005
  0
LINE
 8
GROUP0
10
383.465170515072
20
1847.54663731685
30
6.98747695068391e-005
11
386.063246726423
21
1846.04663731685
31
7.21795680888704e-005
  0
LINE
 8
GROUP0
10
455.730504389358
20
1867.34088420586
30
0.000169846560579145
11
455.730504389356
21
1864.34088420586
31
0.000171103885183044
  0
LINE
 8
GROUP0
10
455.730504389356
20
1864.34088420586
30
0.000171103885183044
11
453.132428178005
21
1862.84088420587
31
0.000167315740284835
  0
LINE
 8
GROUP0
10
453.132428178005
20
1862.84088420587
30
0.000167315740284835
11
450.534351966657
21
1864.34088420586
31
0.000162270272587506
  0
LINE
 8
GROUP0
10
450.534351966657
20
1864.34088420586
30
0.000162270272587506
11
450.534351966659
21
1867.34088420586
31
0.00016101294780313
  0
LINE
 8
GROUP0
10
450.534351966659
20
1867.34088420586
30
0.00016101294780313
11
453.132428178009
21
1868.84088420586
31
0.000164801092069666
  0
LINE
 8
GROUP0
10
453.132428178009
20
1868.84088420586
30
0.000164801092069666
11
455.730504389358
21
1867.34088420586
31
0.000169846560579145
  0
LINE
 8
GROUP0
10
469.524719771757
20
1862.84088420584
30
0.000189085674431766
11
466.926643560408
21
1864.34088420584
31
0.000184040205110136
  0
LINE
 8
GROUP0
10
466.926643560408
20
1864.34088420584
30
0.000184040205110136
11
466.926643560409
21
1867.34088420584
31
0.000182782880686716
  0
LINE
 8
GROUP0
10
466.926643560409
20
1867.34088420584
30
0.000182782880686716
11
469.524719771761
21
1868.84088420584
31
0.000186571025494686
  0
LINE
 8
GROUP0
10
469.524719771761
20
1868.84088420584
30
0.000186571025494686
11
472.122795983109
21
1867.34088420584
31
0.00019161649364321
  0
LINE
 8
GROUP0
10
472.122795983109
20
1867.34088420584
30
0.00019161649364321
11
472.122795983107
21
1864.34088420584
31
0.000192873817525197
  0
LINE
 8
GROUP0
10
472.122795983107
20
1864.34088420584
30
0.000192873817525197
11
469.524719771757
21
1862.84088420584
31
0.000189085674431766
  0
LINE
 8
GROUP0
10
390.161310724882
20
1835.94856170527
30
0.000109428329751893
11
387.563234513532
21
1834.44856170527
31
0.0001056401851244
  0
LINE
 8
GROUP0
10
387.563234513532
20
1834.44856170527
30
0.0001056401851244
11
384.965158302184
21
1835.94856170527
31
0.000100594716975877
  0
LINE
 8
GROUP0
10
384.965158302184
20
1835.94856170527
30
0.000100594716975877
11
384.965158302186
21
1838.94856170527
31
9.93373921012619e-005
  0
LINE
 8
GROUP0
10
384.965158302186
20
1838.94856170527
30
9.93373921012619e-005
11
387.563234513536
21
1840.44856170527
31
0.000103125536818993
  0
LINE
 8
GROUP0
10
387.563234513536
20
1840.44856170527
30
0.000103125536818993
11
390.161310724884
21
1838.94856170527
31
0.000108171005238233
  0
LINE
 8
GROUP0
10
390.161310724884
20
1838.94856170527
30
0.000108171005238233
11
390.161310724882
21
1835.94856170527
31
0.000109428329751893
  0
LINE
 8
GROUP0
10
468.024731984648
20
1857.24280739475
30
0.000169430258267056
11
465.426655773298
21
1855.74280739475
31
0.000165642114541953
  0
LINE
 8
GROUP0
10
465.426655773298
20
1855.74280739475
30
0.000165642114541953
11
462.828579561949
21
1857.24280739475
31
0.000160596645942235
  0
LINE
 8
GROUP0
10
462.828579561949
20
1857.24280739475
30
0.000160596645942235
11
462.828579561952
21
1860.24280739475
31
0.000159339320977381
  0
LINE
 8
GROUP0
10
462.828579561952
20
1860.24280739475
30
0.000159339320977381
11
465.426655773301
21
1861.74280739475
31
0.000163127464973201
  0
LINE
 8
GROUP0
10
465.426655773301
20
1861.74280739475
30
0.000163127464973201
11
468.02473198465
21
1860.24280739475
31
0.000168172934114352
  0
LINE
 8
GROUP0
10
468.02473198465
20
1860.24280739475
30
0.000168172934114352
11
468.024731984648
21
1857.24280739475
31
0.000169430258267056
  0
LINE
 8
GROUP0
10
488.515096673349
20
1867.34088861966
30
0.00020080245360603
11
488.515096673347
21
1864.34088861966
31
0.000202059778390407
  0
LINE
 8
GROUP0
10
488.515096673347
20
1864.34088861966
30
0.000202059778390407
11
485.917020461997
21
1862.84088861966
31
0.000198271633492197
  0
LINE
 8
GROUP0
10
485.917020461997
20
1862.84088861966
30
0.000198271633492197
11
483.318944250648
21
1864.34088861966
31
0.00019322616480224
  0
LINE
 8
GROUP0
10
483.318944250648
20
1864.34088861966
30
0.00019322616480224
11
483.31894425065
21
1867.34088861966
31
0.000191968840649537
  0
LINE
 8
GROUP0
10
483.31894425065
20
1867.34088861966
30
0.000191968840649537
11
485.917020462
21
1868.84088861966
31
0.000195756985367268
  0
LINE
 8
GROUP0
10
485.917020462
20
1868.84088861966
30
0.000195756985367268
11
488.515096673349
21
1867.34088861966
31
0.00020080245360603
  0
LINE
 8
GROUP0
10
479.220884407349
20
1860.24280739475
30
0.000159339320977381
11
481.818960618699
21
1861.74280739475
31
0.000163127465243917
  0
LINE
 8
GROUP0
10
481.818960618699
20
1861.74280739475
30
0.000163127465243917
11
484.417036830047
21
1860.24280739475
31
0.000168172934114352
  0
LINE
 8
GROUP0
10
484.417036830047
20
1860.24280739475
30
0.000168172934114352
11
484.417036830045
21
1857.24280739475
31
0.000169430258267056
  0
LINE
 8
GROUP0
10
484.417036830045
20
1857.24280739475
30
0.000169430258267056
11
481.818960618695
21
1855.74280739475
31
0.000165642114541953
  0
LINE
 8
GROUP0
10
481.818960618695
20
1855.74280739475
30
0.000165642114541953
11
479.220884407347
21
1857.24280739475
31
0.000160596645942235
  0
LINE
 8
GROUP0
10
479.220884407347
20
1857.24280739475
30
0.000160596645942235
11
479.220884407349
21
1860.24280739475
31
0.000159339320977381
  0
LINE
 8
GROUP0
10
473.622808195996
20
1855.74280739475
30
0.000165642114541953
11
471.024731984647
21
1857.24280739475
31
0.000160596645942235
  0
LINE
 8
GROUP0
10
471.024731984647
20
1857.24280739475
30
0.000160596645942235
11
471.024731984651
21
1860.24280739475
31
0.000159339320977381
  0
LINE
 8
GROUP0
10
471.024731984651
20
1860.24280739475
30
0.000159339320977381
11
473.622808196
21
1861.74280739475
31
0.000163127465243917
  0
LINE
 8
GROUP0
10
473.622808196
20
1861.74280739475
30
0.000163127465243917
11
476.220884407349
21
1860.24280739475
31
0.000168172934114352
  0
LINE
 8
GROUP0
10
476.220884407349
20
1860.24280739475
30
0.000168172934114352
11
476.220884407347
21
1857.24280739475
31
0.000169430258267056
  0
LINE
 8
GROUP0
10
476.220884407347
20
1857.24280739475
30
0.000169430258267056
11
473.622808195996
21
1855.74280739475
31
0.000165642114541953
  0
LINE
 8
GROUP0
10
457.230503350603
20
1861.74280739475
30
0.000163127465243917
11
459.828579561952
21
1860.24280739475
31
0.000168172934114352
  0
LINE
 8
GROUP0
10
447.534354044239
20
1864.34087979205
30
0.000161917924949506
11
444.936277832889
21
1862.84087979205
31
0.000158129780051297
  0
LINE
 8
GROUP0
10
444.936277832889
20
1862.84087979205
30
0.000158129780051297
11
442.33820162154
21
1864.34087979205
31
0.00015308431136134
  0
LINE
 8
GROUP0
10
442.33820162154
20
1864.34087979205
30
0.00015308431136134
11
442.338201621542
21
1867.34087979205
31
0.000151826987208636
 0
ENDSEC
 0
EOF
