 0
SECTION
 2
ENTITIES
  0
LINE
 8
GROUP0
10
468.024731767282
20
1845.04665497208
30
0.000154456779483125
11
465.426655555929
21
1843.54665497209
31
0.000154145485503731
  0
LINE
 8
GROUP0
10
484.417036612669
20
1848.04665497207
30
0.000132848860126044
11
484.417036612668
21
1845.04665497207
31
0.000134842364818921
  0
LINE
 8
GROUP0
10
477.720869899515
20
1836.4485793605
30
0.000185923892051376
11
475.122793688166
21
1837.9485793605
31
0.000180878423451657
  0
LINE
 8
GROUP0
10
465.426655555932
20
1849.54665497208
30
0.000150158476388695
11
468.024731767284
21
1848.04665497208
31
0.000152463274970726
  0
LINE
 8
GROUP0
10
481.818960401318
20
1849.54665497207
30
0.000130544061453774
11
484.417036612669
21
1848.04665497207
31
0.000132848860126044
  0
LINE
 8
GROUP0
10
475.122793688169
20
1840.9485793605
30
0.000179621098892879
11
477.720869899519
21
1842.4485793605
31
0.00018340924361061
  0
LINE
 8
GROUP0
10
377.867094086373
20
1845.04663731687
30
8.3980279933426e-005
11
375.269017875018
21
1843.54663731687
31
8.36689858637934e-005
  0
LINE
 8
GROUP0
10
484.417036612668
20
1845.04665497207
30
0.000134842364818921
11
481.818960401314
21
1843.54665497207
31
0.000134531070117616
  0
LINE
 8
GROUP0
10
475.122793688166
20
1837.9485793605
30
0.000180878423451657
11
475.122793688169
21
1840.9485793605
31
0.000179621098892879
  0
LINE
 8
GROUP0
10
372.670941663667
20
1845.04663731687
30
8.13641880036736e-005
11
372.670941663669
21
1848.04663731687
31
7.93706832205582e-005
  0
LINE
 8
GROUP0
10
480.318946110864
20
1837.9485793605
30
0.000189712036678868
11
477.720869899515
21
1836.4485793605
31
0.000185923892051376
  0
LINE
 8
GROUP0
10
477.720869899519
20
1842.4485793605
30
0.00018340924361061
11
480.318946110867
21
1840.9485793605
31
0.000188454711939611
  0
LINE
 8
GROUP0
10
465.426655555929
20
1843.54665497209
30
0.000154145485503731
11
462.828579344576
21
1845.04665497209
31
0.000151840687102178
  0
LINE
 8
GROUP0
10
381.965169258899
20
1840.9485617053
30
8.64010722644631e-005
11
381.965169258896
21
1837.9485617053
31
8.76583971390782e-005
  0
LINE
 8
GROUP0
10
466.926643343046
20
1840.9485793605
30
0.000179621098983118
11
469.524719554397
21
1842.4485793605
31
0.000183409243700849
  0
LINE
 8
GROUP0
10
468.024731767284
20
1848.04665497208
30
0.000152463274970726
11
468.024731767282
21
1845.04665497208
31
0.000154456779483125
  0
LINE
 8
GROUP0
10
480.318946110867
20
1840.9485793605
30
0.000188454711939611
11
480.318946110864
21
1837.9485793605
31
0.000189712036678868
  0
LINE
 8
GROUP0
10
462.828579344576
20
1845.04665497209
30
0.000151840687102178
11
462.828579344578
21
1848.04665497209
31
0.000149847182228823
  0
LINE
 8
GROUP0
10
462.828579344578
20
1848.04665497209
30
0.000149847182228823
11
465.426655555932
21
1849.54665497208
31
0.000150158476388695
  0
LINE
 8
GROUP0
10
480.318946110873
20
1866.34088420585
30
0.000192873817525251
11
477.720869899523
21
1864.84088420585
31
0.000189085674431821
  0
LINE
 8
GROUP0
10
352.180565800841
20
1837.94855287767
30
6.04528630838369e-005
11
352.180565800844
21
1840.94855287767
31
5.91955385701776e-005
  0
LINE
 8
GROUP0
10
354.778642012194
20
1842.44855287767
30
6.29836832879088e-005
11
357.376718223542
21
1840.94855287767
31
6.80291516169101e-005
  0
LINE
 8
GROUP0
10
350.680580091296
20
1843.54662848924
30
2.39127173074943e-005
11
348.082503879944
21
1845.04662848924
31
2.16079189961799e-005
  0
LINE
 8
GROUP0
10
353.278656302652
20
1848.04662848924
30
2.2230507225684e-005
11
353.278656302651
21
1845.04662848924
31
2.42240113771269e-005
  0
LINE
 8
GROUP0
10
358.876732513989
20
1843.54662848924
30
1.41055097949144e-005
11
356.278656302636
21
1845.04662848924
31
1.18007120250335e-005
  0
LINE
 8
GROUP0
10
376.769016836199
20
1837.9485617053
30
7.88247839118677e-005
11
376.769016836201
21
1840.9485617053
31
7.75674593982084e-005
  0
LINE
 8
GROUP0
10
492.61318903536
20
1845.04665497207
30
0.000125035156855146
11
490.015112824007
21
1843.54665497207
31
0.000124723863146469
  0
LINE
 8
GROUP0
10
381.965169258896
20
1837.9485617053
30
8.76583971390782e-005
11
379.367093047547
21
1836.4485617053
31
8.38702522408691e-005
  0
LINE
 8
GROUP0
10
340.984426629798
20
1855.14470530037
30
4.94209999857825e-005
11
340.984426629796
21
1852.14470530037
31
5.06783248603976e-005
  0
LINE
 8
GROUP0
10
375.269017875023
20
1849.54663731687
30
7.96819766585183e-005
11
377.867094086374
21
1848.04663731687
31
8.19867753307884e-005
  0
LINE
 8
GROUP0
10
492.613189035362
20
1848.04665497207
30
0.00012304165297442
11
492.61318903536
21
1845.04665497207
31
0.000125035156855146
  0
LINE
 8
GROUP0
10
372.670941663669
20
1848.04663731687
30
7.93706832205582e-005
11
375.269017875023
21
1849.54663731687
31
7.96819766585183e-005
  0
LINE
 8
GROUP0
10
471.024731767269
20
1845.04665497208
30
0.000142033479318881
11
471.024731767271
21
1848.04665497208
31
0.000140039975077199
  0
LINE
 8
GROUP0
10
469.524719554393
20
1836.4485793605
30
0.000185923892051376
11
466.926643343044
21
1837.9485793605
31
0.000180878423902852
  0
LINE
 8
GROUP0
10
472.122795765744
20
1840.9485793605
30
0.000188454712120089
11
472.122795765742
21
1837.9485793605
31
0.000189712036678868
  0
LINE
 8
GROUP0
10
476.220884189976
20
1845.04665497208
30
0.000144649571699828
11
473.622807978621
21
1843.54665497208
31
0.000144338277630195
  0
LINE
 8
GROUP0
10
473.622807978621
20
1843.54665497208
30
0.000144338277630195
11
471.024731767269
21
1845.04665497208
31
0.000142033479318881
  0
LINE
 8
GROUP0
10
471.024731767271
20
1848.04665497208
30
0.000140039975077199
11
473.622807978624
21
1849.54665497208
31
0.000140351269056593
  0
LINE
 8
GROUP0
10
487.417036612657
20
1848.04665497207
30
0.000120425560322756
11
490.01511282401
21
1849.54665497207
31
0.000120736854211911
  0
LINE
 8
GROUP0
10
340.984426629796
20
1852.14470530037
30
5.06783248603976e-005
11
338.386350418447
21
1850.64470530037
31
4.6890180503622e-005
  0
LINE
 8
GROUP0
10
490.01511282401
20
1849.54665497207
30
0.000120736854211911
11
492.613189035362
21
1848.04665497207
31
0.00012304165297442
  0
LINE
 8
GROUP0
10
348.082503879944
20
1845.04662848924
30
2.16079189961799e-005
11
348.082503879946
21
1848.04662848924
31
1.9614414754498e-005
  0
LINE
 8
GROUP0
10
490.015112824007
20
1843.54665497207
30
0.000124723863146469
11
487.417036612655
21
1845.04665497207
31
0.000122419065105872
  0
LINE
 8
GROUP0
10
476.220884189977
20
1848.04665497208
30
0.000142656067548385
11
476.220884189976
21
1845.04665497208
31
0.000144649571699828
  0
LINE
 8
GROUP0
10
379.367093047547
20
1836.4485617053
30
8.38702522408691e-005
11
376.769016836199
21
1837.9485617053
31
7.88247839118677e-005
  0
LINE
 8
GROUP0
10
472.122795765742
20
1837.9485793605
30
0.000189712036678868
11
469.524719554393
21
1836.4485793605
31
0.000185923892051376
  0
LINE
 8
GROUP0
10
469.524719554397
20
1842.4485793605
30
0.000183409243700849
11
472.122795765744
21
1840.9485793605
31
0.000188454712120089
  0
LINE
 8
GROUP0
10
354.77864201219
20
1836.44855287767
30
6.5498331683555e-005
11
352.180565800841
21
1837.94855287767
31
6.04528630838369e-005
  0
LINE
 8
GROUP0
10
487.417036612655
20
1845.04665497207
30
0.000122419065105872
11
487.417036612657
21
1848.04665497207
31
0.000120425560322756
  0
LINE
 8
GROUP0
10
379.367093047551
20
1842.4485617053
30
8.1355603664745e-005
11
381.965169258899
21
1840.9485617053
31
8.64010722644631e-005
  0
LINE
 8
GROUP0
10
338.386350418451
20
1856.64470530037
30
4.43755315214228e-005
11
340.984426629798
21
1855.14470530037
31
4.94209999857825e-005
  0
LINE
 8
GROUP0
10
473.622807978624
20
1849.54665497208
30
0.000140351269056593
11
476.220884189977
21
1848.04665497208
31
0.000142656067548385
  0
LINE
 8
GROUP0
10
377.867094086374
20
1848.04663731687
30
8.19867753307884e-005
11
377.867094086373
21
1845.04663731687
31
8.3980279933426e-005
  0
LINE
 8
GROUP0
10
466.926643343044
20
1837.9485793605
30
0.000180878423902852
11
466.926643343046
21
1840.9485793605
31
0.000179621098983118
  0
LINE
 8
GROUP0
10
376.769016836201
20
1840.9485617053
30
7.75674593982084e-005
11
379.367093047551
21
1842.4485617053
31
8.1355603664745e-005
  0
LINE
 8
GROUP0
10
357.376718223542
20
1840.94855287767
30
6.80291516169101e-005
11
357.376718223539
21
1837.94855287767
31
6.92864763110473e-005
  0
LINE
 8
GROUP0
10
375.269017875018
20
1843.54663731687
30
8.36689858637934e-005
11
372.670941663667
21
1845.04663731687
31
8.13641880036736e-005
  0
LINE
 8
GROUP0
10
358.876732513993
20
1849.54662848924
30
1.01185011310728e-005
11
361.474808725344
21
1848.04662848924
31
1.2423299803343e-005
  0
LINE
 8
GROUP0
10
356.278656302639
20
1848.04662848924
30
9.80720715167914e-006
11
358.876732513993
21
1849.54662848924
31
1.01185011310728e-005
  0
LINE
 8
GROUP0
10
361.474808725343
20
1845.04662848924
30
1.44168044962195e-005
11
358.876732513989
21
1843.54662848924
31
1.41055097949144e-005
  0
LINE
 8
GROUP0
10
335.788274207098
20
1852.14470530037
30
4.18447126258153e-005
11
335.7882742071
21
1855.14470530037
31
4.05873878414392e-005
  0
LINE
 8
GROUP0
10
338.386350418447
20
1850.64470530037
30
4.6890180503622e-005
11
335.788274207098
21
1852.14470530037
31
4.18447126258153e-005
  0
LINE
 8
GROUP0
10
357.376718223539
20
1837.94855287767
30
6.92864763110473e-005
11
354.77864201219
21
1836.44855287767
31
6.5498331683555e-005
  0
LINE
 8
GROUP0
10
485.917020244644
20
1856.644736197
30
0.000195756985277084
11
488.515096455993
21
1855.144736197
31
0.000200802453696324
  0
LINE
 8
GROUP0
10
356.278656302636
20
1845.04662848924
30
1.18007120250335e-005
11
356.278656302639
21
1848.04662848924
31
9.80720715167914e-006
  0
LINE
 8
GROUP0
10
361.474808725344
20
1848.04662848924
30
1.2423299803343e-005
11
361.474808725343
21
1845.04662848924
31
1.44168044962195e-005
  0
LINE
 8
GROUP0
10
352.180565800844
20
1840.94855287767
30
5.91955385701776e-005
11
354.778642012194
21
1842.44855287767
31
6.29836832879088e-005
  0
LINE
 8
GROUP0
10
350.680580091299
20
1849.54662848924
30
1.99257087338916e-005
11
353.278656302652
21
1848.04662848924
31
2.2230507225684e-005
  0
LINE
 8
GROUP0
10
335.7882742071
20
1855.14470530037
30
4.05873878414392e-005
11
338.386350418451
21
1856.64470530037
31
4.43755315214228e-005
  0
LINE
 8
GROUP0
10
348.082503879946
20
1848.04662848924
30
1.9614414754498e-005
11
350.680580091299
21
1849.54662848924
31
1.99257087338916e-005
  0
LINE
 8
GROUP0
10
353.278656302651
20
1845.04662848924
30
2.42240113771269e-005
11
350.680580091296
21
1843.54662848924
31
2.39127173074943e-005
  0
LINE
 8
GROUP0
10
305.544028341886
20
1886.7447993196
30
3.60859713144473e-005
11
305.544028467163
21
1848.64470971416
31
3.6085971342647e-005
  0
LINE
 8
GROUP0
10
315.544028552653
20
1838.64470971416
30
3.60859713595668e-005
11
305.544028467163
21
1848.64470971416
31
3.6085971342647e-005
  0
LINE
 8
GROUP0
10
315.544028552653
20
1822.64470971416
30
3.60859713595668e-005
11
315.544028552653
21
1838.64470971416
31
3.60859713595668e-005
  0
LINE
 8
GROUP0
10
319.544028565806
20
1818.64470971416
30
3.60859713609768e-005
11
315.544028552653
21
1822.64470971416
31
3.60859713595668e-005
  0
LINE
 8
GROUP0
10
319.544028565806
20
1818.64470971416
30
3.60859713609768e-005
11
537.543976925296
21
1818.64470971416
31
3.60859713518119e-005
  0
LINE
 8
GROUP0
10
537.543976925296
20
1818.64470971416
30
3.60859713518119e-005
11
541.543976925296
21
1822.64470971416
31
3.60859713504019e-005
  0
LINE
 8
GROUP0
10
541.543976925296
20
1822.64470971416
30
3.60859713504019e-005
11
541.543976925296
21
1838.64470971416
31
3.6085971344762e-005
  0
LINE
 8
GROUP0
10
551.543976925296
20
1848.64470971416
30
3.6085971342647e-005
11
541.543976925296
21
1838.64470971416
31
3.6085971344762e-005
  0
LINE
 8
GROUP0
10
551.543976925296
20
1886.74481779461
30
3.60859713144473e-005
11
551.543976925296
21
1848.64470971416
31
3.6085971342647e-005
  0
LINE
 8
GROUP0
10
551.543976925296
20
1886.74481779461
30
3.60859713144473e-005
11
552.543976925296
21
1886.74481779461
31
3.60859713144473e-005
  0
LINE
 8
GROUP0
10
552.543976925296
20
1887.74481779461
30
3.60859713144473e-005
11
552.543976925296
21
1886.74481779461
31
3.60859713144473e-005
  0
LINE
 8
GROUP0
10
551.543976925296
20
1888.74481779461
30
3.60859713144473e-005
11
552.543976925296
21
1887.74481779461
31
3.60859713144473e-005
  0
LINE
 8
GROUP0
10
547.543976925296
20
1888.74481779461
30
3.60859713144473e-005
11
551.543976925296
21
1888.74481779461
31
3.60859713144473e-005
  0
LINE
 8
GROUP0
10
547.543976925296
20
1871.64470971416
30
3.60859713144473e-005
11
547.543976925296
21
1888.74481779461
31
3.60859713144473e-005
  0
LINE
 8
GROUP0
10
545.543976925296
20
1871.64470971416
30
3.60859713144473e-005
11
547.543976925296
21
1871.64470971416
31
3.60859713144473e-005
  0
LINE
 8
GROUP0
10
545.543976925296
20
1888.74481779461
30
3.60859713144473e-005
11
545.543976925296
21
1871.64470971416
31
3.60859713144473e-005
  0
LINE
 8
GROUP0
10
541.543976925296
20
1888.74481779461
30
3.60859713144473e-005
11
545.543976925296
21
1888.74481779461
31
3.60859713144473e-005
  0
LINE
 8
GROUP0
10
541.543976925296
20
1888.74481779461
30
3.60859713144473e-005
11
540.543976925296
21
1887.74481779461
31
3.60859713144473e-005
  0
LINE
 8
GROUP0
10
540.543976925296
20
1887.74481779461
30
3.60859713144473e-005
11
540.543976925296
21
1886.74481779461
31
3.60859713144473e-005
  0
LINE
 8
GROUP0
10
541.543976925296
20
1886.74481779461
30
3.60859713144473e-005
11
540.543976925296
21
1886.74481779461
31
3.60859713144473e-005
  0
LINE
 8
GROUP0
10
541.543976925296
20
1886.74481779461
30
3.60859713144473e-005
11
541.543976925296
21
1871.64470971416
31
3.60859713144473e-005
  0
LINE
 8
GROUP0
10
540.543976925296
20
1871.64470971416
30
3.60859713144473e-005
11
541.543976925296
21
1871.64470971416
31
3.60859713144473e-005
  0
LINE
 8
GROUP0
10
540.543976925296
20
1882.64470971416
30
3.60859713144473e-005
11
540.543976925296
21
1871.64470971416
31
3.60859713144473e-005
  0
LINE
 8
GROUP0
10
453.544082517082
20
1882.64474712604
30
3.60859713144473e-005
11
540.543976925296
21
1882.64470971416
31
3.60859713144473e-005
  0
LINE
 8
GROUP0
10
453.544082517082
20
1885.64474712604
30
3.60859713144473e-005
11
453.544082517082
21
1882.64474712604
31
3.60859713144473e-005
  0
LINE
 8
GROUP0
10
452.544082517082
20
1886.64474712604
30
3.60859713144473e-005
11
453.544082517082
21
1885.64474712604
31
3.60859713144473e-005
  0
LINE
 8
GROUP0
10
404.544082517083
20
1886.64478808036
30
3.60859728936286e-005
11
452.544082517082
21
1886.64474712604
31
3.60859713144473e-005
  0
LINE
 8
GROUP0
10
404.544082517083
20
1886.64478808036
30
3.60859728936286e-005
11
403.544082517083
21
1885.64478808036
31
3.60859728936286e-005
  0
LINE
 8
GROUP0
10
403.544082517083
20
1885.64478808036
30
3.60859728936286e-005
11
403.544082517083
21
1882.64478808036
31
3.60859728936286e-005
  0
LINE
 8
GROUP0
10
316.544035725295
20
1882.64472818917
30
3.60859713144473e-005
11
403.544082517083
21
1882.64478808036
31
3.60859728936286e-005
  0
LINE
 8
GROUP0
10
316.544035725295
20
1882.64472818917
30
3.60859713144473e-005
11
316.544035725295
21
1871.64472079919
31
3.60859713144473e-005
  0
LINE
 8
GROUP0
10
315.544035725295
20
1871.64472079919
30
3.60859713144473e-005
11
316.544035725295
21
1871.64472079919
31
3.60859713144473e-005
  0
LINE
 8
GROUP0
10
315.544032030293
20
1886.74481779461
30
3.60859713144473e-005
11
315.544035725295
21
1871.64472079919
31
3.60859713144473e-005
  0
LINE
 8
GROUP0
10
315.544032030293
20
1886.74481779461
30
3.60859713144473e-005
11
316.544032030293
21
1886.74481779461
31
3.60859713144473e-005
  0
LINE
 8
GROUP0
10
316.544032030293
20
1887.74481779461
30
3.60859713144473e-005
11
316.544032030293
21
1886.74481779461
31
3.60859713144473e-005
  0
LINE
 8
GROUP0
10
315.544032030293
20
1888.74481779461
30
3.60859713144473e-005
11
316.544032030293
21
1887.74481779461
31
3.60859713144473e-005
  0
LINE
 8
GROUP0
10
311.544032030291
20
1888.74481040461
30
3.60859713144473e-005
11
315.544032030293
21
1888.74481779461
31
3.60859713144473e-005
  0
LINE
 8
GROUP0
10
311.544032030291
20
1888.74481040461
30
3.60859713144473e-005
11
311.544059742804
21
1871.64472079919
31
3.60859713144473e-005
  0
LINE
 8
GROUP0
10
309.544059742807
20
1871.64471710419
30
3.60859713144473e-005
11
311.544059742804
21
1871.64472079919
31
3.60859713144473e-005
  0
LINE
 8
GROUP0
10
309.544028335293
20
1888.74480670961
30
3.60859713144473e-005
11
309.544059742807
21
1871.64471710419
31
3.60859713144473e-005
  0
LINE
 8
GROUP0
10
305.544032030293
20
1888.74479931631
30
3.60859713144473e-005
11
309.544028335293
21
1888.74480670961
31
3.60859713144473e-005
  0
LINE
 8
GROUP0
10
305.544032030293
20
1888.74479931631
30
3.60859713144473e-005
11
304.544032030293
21
1887.74480855546
31
3.60859713144473e-005
  0
LINE
 8
GROUP0
10
304.544032030293
20
1887.74480855546
30
3.60859713144473e-005
11
304.544032030293
21
1886.74481779461
31
3.60859713144473e-005
  0
LINE
 8
GROUP0
10
305.544028341886
20
1886.7447993196
30
3.60859713144473e-005
11
304.544032030293
21
1886.74481779461
31
3.60859713144473e-005
  0
LINE
 8
GROUP0
10
355.544020991014
20
1822.64470971416
30
3.60859713116274e-005
11
355.544020991014
21
1826.64470971416
31
3.60859713567468e-005
  0
LINE
 8
GROUP0
10
325.5440283353
20
1822.64470971416
30
3.60859713116274e-005
11
355.544020991014
21
1822.64470971416
31
3.60859713116274e-005
  0
LINE
 8
GROUP0
10
325.5440283353
20
1826.64470971416
30
3.60859713116274e-005
11
325.5440283353
21
1822.64470971416
31
3.60859713116274e-005
  0
LINE
 8
GROUP0
10
325.5440283353
20
1826.64470971416
30
3.60859713116274e-005
11
355.544020991014
21
1826.64470971416
31
3.60859713567468e-005
  0
LINE
 8
GROUP0
10
453.544082517105
20
1822.64470971416
30
3.60859713144473e-005
11
453.544082517105
21
1826.64470971416
31
3.60859713595668e-005
  0
LINE
 8
GROUP0
10
403.544082517103
20
1822.64470971416
30
3.60859713144473e-005
11
453.544082517105
21
1822.64470971416
31
3.60859713144473e-005
  0
LINE
 8
GROUP0
10
403.544082517103
20
1822.64470971416
30
3.60859713144473e-005
11
403.544082517103
21
1826.64470971416
31
3.60859713595668e-005
  0
LINE
 8
GROUP0
10
403.544082517103
20
1826.64470971416
30
3.60859713595668e-005
11
453.544082517105
21
1826.64470971416
31
3.60859713595668e-005
  0
LINE
 8
GROUP0
10
531.543976925297
20
1826.64470971416
30
3.60859713172673e-005
11
531.543976925297
21
1822.64470971416
31
3.60859713172673e-005
  0
LINE
 8
GROUP0
10
501.543984269583
20
1822.64470971416
30
3.60859713172673e-005
11
531.543976925297
21
1822.64470971416
31
3.60859713172673e-005
  0
LINE
 8
GROUP0
10
501.543984269583
20
1822.64470971416
30
3.60859713172673e-005
11
501.543984269583
21
1826.64470971416
31
3.60859713623868e-005
  0
LINE
 8
GROUP0
10
501.543984269583
20
1826.64470971416
30
3.60859713623868e-005
11
531.543976925297
21
1826.64470971416
31
3.60859713172673e-005
  0
LINE
 8
GROUP0
10
496.71124680111
20
1855.14474061081
30
0.000209988413839623
11
496.711246801108
21
1852.14474061082
31
0.000211245738623999
  0
LINE
 8
GROUP0
10
496.711246801108
20
1852.14474061082
30
0.000211245738623999
11
494.113170589758
21
1850.64474061082
31
0.000207457594357462
  0
LINE
 8
GROUP0
10
494.113170589758
20
1850.64474061082
30
0.000207457594357462
11
491.51509437841
21
1852.14474061082
31
0.000202412126389417
  0
LINE
 8
GROUP0
10
491.51509437841
20
1852.14474061082
30
0.000202412126389417
11
491.515094378412
21
1855.14474061081
31
0.000201154801605041
  0
LINE
 8
GROUP0
10
491.515094378412
20
1855.14474061081
30
0.000201154801605041
11
494.113170589762
21
1856.64474061081
31
0.000204942945330144
  0
LINE
 8
GROUP0
10
494.113170589762
20
1856.64474061081
30
0.000204942945330144
11
496.71124680111
21
1855.14474061081
31
0.000209988413839623
  0
LINE
 8
GROUP0
10
513.103538394851
20
1837.94858818811
30
0.000229853890119768
11
510.505462183501
21
1836.44858818812
31
0.000226065745492276
  0
LINE
 8
GROUP0
10
510.505462183501
20
1836.44858818812
30
0.000226065745492276
11
507.907385972153
21
1837.94858818811
31
0.000221020277343753
  0
LINE
 8
GROUP0
10
507.907385972153
20
1837.94858818811
30
0.000221020277343753
11
507.907385972155
21
1840.94858818811
31
0.000219762952469137
  0
LINE
 8
GROUP0
10
507.907385972155
20
1840.94858818811
30
0.000219762952469137
11
510.505462183505
21
1842.44858818811
31
0.000223551097186869
  0
LINE
 8
GROUP0
10
510.505462183505
20
1842.44858818811
30
0.000223551097186869
11
513.103538394853
21
1840.94858818811
31
0.000228596565606109
  0
LINE
 8
GROUP0
10
513.103538394853
20
1840.94858818811
30
0.000228596565606109
11
513.103538394851
21
1837.94858818811
31
0.000229853890119768
  0
LINE
 8
GROUP0
10
525.397779241778
20
1848.04666379968
30
0.000172990713566945
11
525.397779241776
21
1845.04666379968
31
0.00017498421830494
  0
LINE
 8
GROUP0
10
525.397779241776
20
1845.04666379968
30
0.00017498421830494
11
522.799703030422
21
1843.54666379969
31
0.000174672923603635
  0
LINE
 8
GROUP0
10
522.799703030422
20
1843.54666379969
30
0.000174672923603635
11
520.20162681907
21
1845.04666379969
31
0.000172368125833754
  0
LINE
 8
GROUP0
10
520.20162681907
20
1845.04666379969
30
0.000172368125833754
11
520.201626819072
21
1848.04666379969
31
0.000170374620915281
  0
LINE
 8
GROUP0
10
520.201626819072
20
1848.04666379969
30
0.000170374620915281
11
522.799703030426
21
1849.54666379968
31
0.000170685914894674
  0
LINE
 8
GROUP0
10
522.799703030426
20
1849.54666379968
30
0.000170685914894674
11
525.397779241778
21
1848.04666379968
31
0.000172990713566945
  0
LINE
 8
GROUP0
10
526.897762873745
20
1842.44859260193
30
0.000232737056969212
11
529.495839085093
21
1840.94859260193
31
0.000237782525659169
  0
LINE
 8
GROUP0
10
529.495839085093
20
1840.94859260193
30
0.000237782525659169
11
529.495839085092
21
1837.94859260193
31
0.000239039849721633
  0
LINE
 8
GROUP0
10
529.495839085092
20
1837.94859260193
30
0.000239039849721633
11
526.897762873741
21
1836.44859260193
31
0.000235251706086769
  0
LINE
 8
GROUP0
10
526.897762873741
20
1836.44859260193
30
0.000235251706086769
11
524.299686662393
21
1837.94859260193
31
0.00023020623676514
  0
LINE
 8
GROUP0
10
524.299686662393
20
1837.94859260193
30
0.00023020623676514
11
524.299686662395
21
1840.94859260193
31
0.000228948913244109
  0
LINE
 8
GROUP0
10
524.299686662395
20
1840.94859260193
30
0.000228948913244109
11
526.897762873745
21
1842.44859260193
31
0.000232737056969212
  0
LINE
 8
GROUP0
10
521.299688739984
20
1855.14474061079
30
0.00023175834663297
11
521.299688739982
21
1852.14474061079
31
0.000233015671236869
  0
LINE
 8
GROUP0
10
521.299688739982
20
1852.14474061079
30
0.000233015671236869
11
518.701612528631
21
1850.64474061079
31
0.00022922752796296
  0
LINE
 8
GROUP0
10
518.701612528631
20
1850.64474061079
30
0.00022922752796296
11
516.103536317283
21
1852.14474061079
31
0.00022418205873157
  0
LINE
 8
GROUP0
10
516.103536317283
20
1852.14474061079
30
0.00022418205873157
11
516.103536317285
21
1855.14474061079
31
0.000222924734578866
  0
LINE
 8
GROUP0
10
516.103536317285
20
1855.14474061079
30
0.000222924734578866
11
518.701612528635
21
1856.64474061079
31
0.000226712878664925
  0
LINE
 8
GROUP0
10
518.701612528635
20
1856.64474061079
30
0.000226712878664925
11
521.299688739984
21
1855.14474061079
31
0.00023175834663297
  0
LINE
 8
GROUP0
10
513.103538394859
20
1852.14474061079
30
0.000233015671236869
11
510.50546218351
21
1850.64474061079
31
0.00022922752796296
  0
LINE
 8
GROUP0
10
510.50546218351
20
1850.64474061079
30
0.00022922752796296
11
507.90738597216
21
1852.14474061079
31
0.00022418205873157
  0
LINE
 8
GROUP0
10
507.90738597216
20
1852.14474061079
30
0.00022418205873157
11
507.907385972163
21
1855.14474061079
31
0.000222924734308149
  0
LINE
 8
GROUP0
10
507.907385972163
20
1855.14474061079
30
0.000222924734308149
11
510.505462183513
21
1856.64474061079
31
0.000226712878664925
  0
LINE
 8
GROUP0
10
510.505462183513
20
1856.64474061079
30
0.000226712878664925
11
513.103538394862
21
1855.14474061079
31
0.000231758346723209
  0
LINE
 8
GROUP0
10
513.103538394862
20
1855.14474061079
30
0.000231758346723209
11
513.103538394859
21
1852.14474061079
31
0.000233015671236869
  0
LINE
 8
GROUP0
10
496.711246801102
20
1840.94858818814
30
0.000206826632722523
11
496.7112468011
21
1837.94858818814
31
0.00020808395741666
  0
LINE
 8
GROUP0
10
496.7112468011
20
1837.94858818814
30
0.00020808395741666
11
494.11317058975
21
1836.44858818814
31
0.00020429581260869
  0
LINE
 8
GROUP0
10
494.11317058975
20
1836.44858818814
30
0.00020429581260869
11
491.515094378401
21
1837.94858818814
31
0.000199250344279688
  0
LINE
 8
GROUP0
10
491.515094378401
20
1837.94858818814
30
0.000199250344279688
11
491.515094378404
21
1840.94858818814
31
0.000197993019856268
  0
LINE
 8
GROUP0
10
491.515094378404
20
1840.94858818814
30
0.000197993019856268
11
494.113170589754
21
1842.44858818814
31
0.000201781164754477
  0
LINE
 8
GROUP0
10
494.113170589754
20
1842.44858818814
30
0.000201781164754477
11
496.711246801102
21
1840.94858818814
31
0.000206826632722523
  0
LINE
 8
GROUP0
10
518.701612528624
20
1836.44858818812
30
0.000226065745492276
11
516.103536317275
21
1837.94858818812
31
0.000221020276892558
  0
LINE
 8
GROUP0
10
516.103536317275
20
1837.94858818812
30
0.000221020276892558
11
516.103536317277
21
1840.94858818811
31
0.000219762952378899
  0
LINE
 8
GROUP0
10
516.103536317277
20
1840.94858818811
30
0.000219762952378899
11
518.701612528627
21
1842.44858818811
31
0.00022355109709663
  0
LINE
 8
GROUP0
10
518.701612528627
20
1842.44858818811
30
0.00022355109709663
11
521.299688739976
21
1840.94858818811
31
0.000228596565425631
  0
LINE
 8
GROUP0
10
521.299688739976
20
1840.94858818811
30
0.000228596565425631
11
521.299688739973
21
1837.94858818811
31
0.000229853890119768
  0
LINE
 8
GROUP0
10
521.299688739973
20
1837.94858818811
30
0.000229853890119768
11
518.701612528624
21
1836.44858818812
31
0.000226065745492276
  0
LINE
 8
GROUP0
10
509.00547439639
20
1845.0466637997
30
0.000194598632924025
11
506.407398185037
21
1843.5466637997
31
0.000194287338989751
  0
LINE
 8
GROUP0
10
506.407398185037
20
1843.5466637997
30
0.000194287338989751
11
503.809321973685
21
1845.0466637997
31
0.000191982540543078
  0
LINE
 8
GROUP0
10
503.809321973685
20
1845.0466637997
30
0.000191982540543078
11
503.809321973687
21
1848.0466637997
31
0.000189989035669724
  0
LINE
 8
GROUP0
10
503.809321973687
20
1848.0466637997
30
0.000189989035669724
11
506.407398185041
21
1849.5466637997
31
0.000190300329829595
  0
LINE
 8
GROUP0
10
506.407398185041
20
1849.5466637997
30
0.000190300329829595
11
509.005474396392
21
1848.0466637997
31
0.000192605128411626
  0
LINE
 8
GROUP0
10
509.005474396392
20
1848.0466637997
30
0.000192605128411626
11
509.00547439639
21
1845.0466637997
31
0.000194598632924025
  0
LINE
 8
GROUP0
10
526.897762873753
20
1856.64474502461
30
0.000235898838717984
11
529.495839085102
21
1855.14474502461
31
0.000240944307137225
  0
LINE
 8
GROUP0
10
529.495839085102
20
1855.14474502461
30
0.000240944307137225
11
529.495839085099
21
1852.14474502461
31
0.000242201631921601
  0
LINE
 8
GROUP0
10
529.495839085099
20
1852.14474502461
30
0.000242201631921601
11
526.897762873749
21
1850.64474502461
31
0.000238413487745303
  0
LINE
 8
GROUP0
10
526.897762873749
20
1850.64474502461
30
0.000238413487745303
11
524.2996866624
21
1852.14474502461
31
0.000233368018513913
  0
LINE
 8
GROUP0
10
524.2996866624
20
1852.14474502461
30
0.000233368018513913
11
524.299686662403
21
1855.14474502461
31
0.000232110694541687
  0
LINE
 8
GROUP0
10
524.299686662403
20
1855.14474502461
30
0.000232110694541687
11
526.897762873753
21
1856.64474502461
31
0.000235898838717984
  0
LINE
 8
GROUP0
10
502.30932093488
20
1850.64474061082
30
0.000207457594267224
11
499.711244723532
21
1852.14474061082
31
0.000202412126389417
  0
LINE
 8
GROUP0
10
499.711244723532
20
1852.14474061082
30
0.000202412126389417
11
499.711244723534
21
1855.14474061081
31
0.000201154801605041
  0
LINE
 8
GROUP0
10
499.711244723534
20
1855.14474061081
30
0.000201154801605041
11
502.309320934884
21
1856.64474061081
31
0.000204942945330144
  0
LINE
 8
GROUP0
10
502.309320934884
20
1856.64474061081
30
0.000204942945330144
11
504.907397146232
21
1855.14474061081
31
0.000209988413749384
  0
LINE
 8
GROUP0
10
504.907397146232
20
1855.14474061081
30
0.000209988413749384
11
504.90739714623
21
1852.14474061082
31
0.000211245738623999
  0
LINE
 8
GROUP0
10
504.90739714623
20
1852.14474061082
30
0.000211245738623999
11
502.30932093488
21
1850.64474061082
31
0.000207457594267224
  0
LINE
 8
GROUP0
10
514.603550607752
20
1863.74281622238
30
0.000203269318684873
11
517.201626819101
21
1862.24281622238
31
0.000208314787555308
  0
LINE
 8
GROUP0
10
517.201626819101
20
1862.24281622238
30
0.000208314787555308
11
517.201626819099
21
1859.24281622238
31
0.000209572111708011
  0
LINE
 8
GROUP0
10
517.201626819099
20
1859.24281622238
30
0.000209572111708011
11
514.603550607749
21
1857.74281622238
31
0.000205783967982908
  0
LINE
 8
GROUP0
10
514.603550607749
20
1857.74281622238
30
0.000205783967982908
11
512.0054743964
21
1859.24281622238
31
0.00020073849938319
  0
LINE
 8
GROUP0
10
512.0054743964
20
1859.24281622238
30
0.00020073849938319
11
512.005474396403
21
1862.24281622238
31
0.000199481174418336
  0
LINE
 8
GROUP0
10
512.005474396403
20
1862.24281622238
30
0.000199481174418336
11
514.603550607752
21
1863.74281622238
31
0.000203269318684873
  0
LINE
 8
GROUP0
10
500.8093219737
20
1848.0466637997
30
0.00020241233565349
11
500.809321973698
21
1845.0466637997
31
0.000204405840256127
  0
LINE
 8
GROUP0
10
500.809321973698
20
1845.0466637997
30
0.000204405840256127
11
498.211245762343
21
1843.5466637997
31
0.000204094546186495
  0
LINE
 8
GROUP0
10
498.211245762343
20
1843.5466637997
30
0.000204094546186495
11
495.613169550992
21
1845.0466637997
31
0.000201789748326375
  0
LINE
 8
GROUP0
10
495.613169550992
20
1845.0466637997
30
0.000201789748326375
11
495.613169550994
21
1848.0466637997
31
0.000199796243543259
  0
LINE
 8
GROUP0
10
495.613169550994
20
1848.0466637997
30
0.000199796243543259
11
498.211245762348
21
1849.5466637997
31
0.000200107536981219
  0
LINE
 8
GROUP0
10
498.211245762348
20
1849.5466637997
30
0.000200107536981219
11
500.8093219737
21
1848.0466637997
31
0.00020241233565349
  0
LINE
 8
GROUP0
10
512.005474396379
20
1848.04666379969
30
0.000180181828518099
11
514.603550607732
21
1849.54666379969
31
0.000180493122497493
  0
LINE
 8
GROUP0
10
514.603550607732
20
1849.54666379969
30
0.000180493122497493
11
517.201626819085
21
1848.04666379969
31
0.000182797920989285
  0
LINE
 8
GROUP0
10
517.201626819085
20
1848.04666379969
30
0.000182797920989285
11
517.201626819084
21
1845.04666379969
31
0.000184791425185848
  0
LINE
 8
GROUP0
10
517.201626819084
20
1845.04666379969
30
0.000184791425185848
11
514.60355060773
21
1843.54666379969
31
0.000184480131116215
  0
LINE
 8
GROUP0
10
514.60355060773
20
1843.54666379969
30
0.000184480131116215
11
512.005474396377
21
1845.04666379969
31
0.000182175332804901
  0
LINE
 8
GROUP0
10
512.005474396377
20
1845.04666379969
30
0.000182175332804901
11
512.005474396379
21
1848.04666379969
31
0.000180181828518099
  0
LINE
 8
GROUP0
10
502.309320934872
20
1836.44858818814
30
0.00020429581260869
11
499.711244723524
21
1837.94858818814
31
0.000199250344279688
  0
LINE
 8
GROUP0
10
499.711244723524
20
1837.94858818814
30
0.000199250344279688
11
499.711244723526
21
1840.94858818814
31
0.000197993019766029
  0
LINE
 8
GROUP0
10
499.711244723526
20
1840.94858818814
30
0.000197993019766029
11
502.309320934876
21
1842.44858818814
31
0.000201781164032566
  0
LINE
 8
GROUP0
10
502.309320934876
20
1842.44858818814
30
0.000201781164032566
11
504.907397146224
21
1840.94858818814
31
0.000206826632632284
  0
LINE
 8
GROUP0
10
504.907397146224
20
1840.94858818814
30
0.000206826632632284
11
504.907397146222
21
1837.94858818814
31
0.000208083957506899
  0
LINE
 8
GROUP0
10
504.907397146222
20
1837.94858818814
30
0.000208083957506899
11
502.309320934872
21
1836.44858818814
31
0.00020429581260869
  0
LINE
 8
GROUP0
10
520.201626819099
20
1859.24281622238
30
0.00020073849938319
11
520.201626819101
21
1862.24281622238
31
0.000199481174418336
  0
LINE
 8
GROUP0
10
520.201626819101
20
1862.24281622238
30
0.000199481174418336
11
522.799703030451
21
1863.74281622238
31
0.000203269318684873
  0
LINE
 8
GROUP0
10
522.799703030451
20
1863.74281622238
30
0.000203269318684873
11
525.3977792418
21
1862.24281622238
31
0.000208314787555308
  0
LINE
 8
GROUP0
10
525.3977792418
20
1862.24281622238
30
0.000208314787555308
11
525.397779241798
21
1859.24281622238
31
0.000209572111708011
  0
LINE
 8
GROUP0
10
525.397779241798
20
1859.24281622238
30
0.000209572111708011
11
522.799703030447
21
1857.74281622238
31
0.000205783967982908
  0
LINE
 8
GROUP0
10
522.799703030447
20
1857.74281622238
30
0.000205783967982908
11
520.201626819099
21
1859.24281622238
31
0.00020073849938319
  0
LINE
 8
GROUP0
10
499.711244723532
20
1866.34089303349
30
0.000202412126028461
11
499.711244723533
21
1869.34089303349
31
0.000201154801153846
  0
LINE
 8
GROUP0
10
499.711244723533
20
1869.34089303349
30
0.000201154801153846
11
502.309320934884
21
1870.84089303349
31
0.000204942945510622
  0
LINE
 8
GROUP0
10
502.309320934884
20
1870.84089303349
30
0.000204942945510622
11
504.907397146232
21
1869.34089303349
31
0.000209988414020101
  0
LINE
 8
GROUP0
10
504.907397146232
20
1869.34089303349
30
0.000209988414020101
11
504.907397146229
21
1866.34089303349
31
0.000211245738623999
  0
LINE
 8
GROUP0
10
504.907397146229
20
1866.34089303349
30
0.000211245738623999
11
502.30932093488
21
1864.84089303349
31
0.00020745759372579
  0
LINE
 8
GROUP0
10
502.30932093488
20
1864.84089303349
30
0.00020745759372579
11
499.711244723532
21
1866.34089303349
31
0.000202412126028461
  0
LINE
 8
GROUP0
10
518.701612528631
20
1864.84089303346
30
0.000229227527872721
11
516.103536317283
21
1866.34089303346
31
0.000224182058551092
  0
LINE
 8
GROUP0
10
516.103536317283
20
1866.34089303346
30
0.000224182058551092
11
516.103536317285
21
1869.34089303346
31
0.000222924734037432
  0
LINE
 8
GROUP0
10
516.103536317285
20
1869.34089303346
30
0.000222924734037432
11
518.701612528635
21
1870.84089303346
31
0.000226712878935642
  0
LINE
 8
GROUP0
10
518.701612528635
20
1870.84089303346
30
0.000226712878935642
11
521.299688739984
21
1869.34089303346
31
0.000231758346993926
  0
LINE
 8
GROUP0
10
521.299688739984
20
1869.34089303346
30
0.000231758346993926
11
521.299688739982
21
1866.34089303346
31
0.000233015670966152
  0
LINE
 8
GROUP0
10
521.299688739982
20
1866.34089303346
30
0.000233015670966152
11
518.701612528631
21
1864.84089303346
31
0.000229227527872721
  0
LINE
 8
GROUP0
10
494.113170589757
20
1864.84089303349
30
0.00020745759372579
11
491.51509437841
21
1866.34089303349
31
0.000202412126028461
  0
LINE
 8
GROUP0
10
491.51509437841
20
1866.34089303349
30
0.000202412126028461
11
491.515094378412
21
1869.34089303349
31
0.000201154801244085
  0
LINE
 8
GROUP0
10
491.515094378412
20
1869.34089303349
30
0.000201154801244085
11
494.113170589762
21
1870.84089303349
31
0.000204942945510622
  0
LINE
 8
GROUP0
10
494.113170589762
20
1870.84089303349
30
0.000204942945510622
11
496.71124680111
21
1869.34089303349
31
0.000209988414020101
  0
LINE
 8
GROUP0
10
496.71124680111
20
1869.34089303349
30
0.000209988414020101
11
496.711246801108
21
1866.34089303349
31
0.000211245738623999
  0
LINE
 8
GROUP0
10
496.711246801108
20
1866.34089303349
30
0.000211245738623999
11
494.113170589757
21
1864.84089303349
31
0.00020745759372579
  0
LINE
 8
GROUP0
10
420.347835676655
20
1836.44857053292
30
0.000124012105681769
11
417.749759465307
21
1837.94857053292
31
0.000118966637352768
  0
LINE
 8
GROUP0
10
417.749759465307
20
1837.94857053292
30
0.000118966637352768
11
417.749759465309
21
1840.94857053292
31
0.000117709312839109
  0
LINE
 8
GROUP0
10
417.749759465309
20
1840.94857053292
30
0.000117709312839109
11
420.347835676659
21
1842.44857053291
31
0.000121497457105645
  0
LINE
 8
GROUP0
10
420.347835676659
20
1842.44857053291
30
0.000121497457105645
11
422.945911888007
21
1840.94857053292
31
0.000126542925705364
  0
LINE
 8
GROUP0
10
422.945911888007
20
1840.94857053292
30
0.000126542925705364
11
422.945911888005
21
1837.94857053291
31
0.000127800250579979
  0
LINE
 8
GROUP0
10
422.945911888005
20
1837.94857053291
30
0.000127800250579979
11
420.347835676655
21
1836.44857053292
31
0.000124012105681769
  0
LINE
 8
GROUP0
10
430.043989138162
20
1848.04664614447
30
9.98981216362987e-005
11
432.642065349516
21
1849.54664614447
31
0.000100209415615692
  0
LINE
 8
GROUP0
10
432.642065349516
20
1849.54664614447
30
0.000100209415615692
11
435.240141560868
21
1848.04664614447
31
0.000102514214107485
  0
LINE
 8
GROUP0
10
435.240141560868
20
1848.04664614447
30
0.000102514214107485
11
435.240141560867
21
1845.04664614447
31
0.000104507718258928
  0
LINE
 8
GROUP0
10
435.240141560867
20
1845.04664614447
30
0.000104507718258928
11
432.642065349513
21
1843.54664614447
31
0.000104196424189295
  0
LINE
 8
GROUP0
10
432.642065349513
20
1843.54664614447
30
0.000104196424189295
11
430.043989138161
21
1845.04664614447
31
0.000101891625877981
  0
LINE
 8
GROUP0
10
430.043989138161
20
1845.04664614447
30
0.000101891625877981
11
430.043989138162
21
1848.04664614447
31
9.98981216362987e-005
  0
LINE
 8
GROUP0
10
443.436293983561
20
1848.04664614446
30
9.27070066851437e-005
11
443.43629398356
21
1845.04664614446
31
9.47005113780202e-005
  0
LINE
 8
GROUP0
10
443.43629398356
20
1845.04664614446
30
9.47005113780202e-005
11
440.838217772205
21
1843.54664614446
31
9.43892166767152e-005
  0
LINE
 8
GROUP0
10
440.838217772205
20
1843.54664614446
30
9.43892166767152e-005
11
438.240141560853
21
1845.04664614446
31
9.20844189068343e-005
  0
LINE
 8
GROUP0
10
438.240141560853
20
1845.04664614446
30
9.20844189068343e-005
11
438.240141560856
21
1848.04664614446
31
9.00909140334799e-005
  0
LINE
 8
GROUP0
10
438.240141560856
20
1848.04664614446
30
9.00909140334799e-005
11
440.838217772209
21
1849.54664614446
31
9.04022080128736e-005
  0
LINE
 8
GROUP0
10
440.838217772209
20
1849.54664614446
30
9.04022080128736e-005
11
443.436293983561
21
1848.04664614446
31
9.27070066851437e-005
  0
LINE
 8
GROUP0
10
442.338201404186
20
1855.14472736939
30
0.000151826987659886
11
444.936277615536
21
1856.64472736939
31
0.000155615131836184
  0
LINE
 8
GROUP0
10
444.936277615536
20
1856.64472736939
30
0.000155615131836184
11
447.534353826885
21
1855.14472736939
31
0.000160660600255424
  0
LINE
 8
GROUP0
10
447.534353826885
20
1855.14472736939
30
0.000160660600255424
11
447.534353826882
21
1852.14472736939
31
0.0001619179250398
  0
LINE
 8
GROUP0
10
447.534353826882
20
1852.14472736939
30
0.0001619179250398
11
444.936277615533
21
1850.64472736939
31
0.000158129780863502
  0
LINE
 8
GROUP0
10
444.936277615533
20
1850.64472736939
30
0.000158129780863502
11
442.338201404184
21
1852.14472736939
31
0.000153084311632112
  0
LINE
 8
GROUP0
10
442.338201404184
20
1852.14472736939
30
0.000153084311632112
11
442.338201404186
21
1855.14472736939
31
0.000151826987659886
  0
LINE
 8
GROUP0
10
449.034370194929
20
1857.74279856716
30
0.000125500261101107
11
446.436293983581
21
1859.24279856715
31
0.000120454792501389
  0
LINE
 8
GROUP0
10
446.436293983581
20
1859.24279856715
30
0.000120454792501389
11
446.436293983583
21
1862.24279856715
31
0.000119197467536535
  0
LINE
 8
GROUP0
10
446.436293983583
20
1862.24279856715
30
0.000119197467536535
11
449.034370194933
21
1863.74279856715
31
0.000122985611803072
  0
LINE
 8
GROUP0
10
449.034370194933
20
1863.74279856715
30
0.000122985611803072
11
451.632446406281
21
1862.24279856715
31
0.000128031080673507
  0
LINE
 8
GROUP0
10
451.632446406281
20
1862.24279856715
30
0.000128031080673507
11
451.632446406279
21
1859.24279856716
31
0.000129288404826211
  0
LINE
 8
GROUP0
10
451.632446406279
20
1859.24279856716
30
0.000129288404826211
11
449.034370194929
21
1857.74279856716
31
0.000125500261101107
  0
LINE
 8
GROUP0
10
414.749761542891
20
1852.14472295559
30
0.000130962031742198
11
412.151685331541
21
1850.64472295559
31
0.000127173887475662
  0
LINE
 8
GROUP0
10
412.151685331541
20
1850.64472295559
30
0.000127173887475662
11
409.553609120193
21
1852.14472295559
31
0.000122128419507616
  0
LINE
 8
GROUP0
10
409.553609120193
20
1852.14472295559
30
0.000122128419507616
11
409.553609120195
21
1855.14472295559
31
0.00012087109472324
  0
LINE
 8
GROUP0
10
409.553609120195
20
1855.14472295559
30
0.00012087109472324
11
412.151685331545
21
1856.64472295559
31
0.000124659238448343
  0
LINE
 8
GROUP0
10
412.151685331545
20
1856.64472295559
30
0.000124659238448343
11
414.749761542893
21
1855.14472295559
31
0.000129704706957822
  0
LINE
 8
GROUP0
10
414.749761542893
20
1855.14472295559
30
0.000129704706957822
11
414.749761542891
21
1852.14472295559
31
0.000130962031742198
  0
LINE
 8
GROUP0
10
439.338203481765
20
1866.34087537824
30
0.000152731964084351
11
436.740127270414
21
1864.84087537824
31
0.000148943820990921
  0
LINE
 8
GROUP0
10
436.740127270414
20
1864.84087537824
30
0.000148943820990921
11
434.142051059066
21
1866.34087537824
31
0.000143898351669291
  0
LINE
 8
GROUP0
10
434.142051059066
20
1866.34087537824
30
0.000143898351669291
11
434.142051059068
21
1869.34087537824
31
0.000142641027155632
  0
LINE
 8
GROUP0
10
434.142051059068
20
1869.34087537824
30
0.000142641027155632
11
436.740127270418
21
1870.84087537824
31
0.000146429172008721
  0
LINE
 8
GROUP0
10
436.740127270418
20
1870.84087537824
30
0.000146429172008721
11
439.338203481767
21
1869.34087537824
31
0.000151474640112125
  0
LINE
 8
GROUP0
10
439.338203481767
20
1869.34087537824
30
0.000151474640112125
11
439.338203481765
21
1866.34087537824
31
0.000152731964084351
  0
LINE
 8
GROUP0
10
425.945900713946
20
1855.14472295557
30
0.000142641027426348
11
428.543976925296
21
1856.64472295557
31
0.000146429171783124
  0
LINE
 8
GROUP0
10
428.543976925296
20
1856.64472295557
30
0.000146429171783124
11
431.142053136645
21
1855.14472295557
31
0.000151474639841409
  0
LINE
 8
GROUP0
10
431.142053136645
20
1855.14472295557
30
0.000151474639841409
11
431.142053136642
21
1852.14472295557
31
0.000152731964355068
  0
LINE
 8
GROUP0
10
431.142053136642
20
1852.14472295557
30
0.000152731964355068
11
428.543976925293
21
1850.64472295557
31
0.000148943821081159
  0
LINE
 8
GROUP0
10
428.543976925293
20
1850.64472295557
30
0.000148943821081159
11
425.945900713944
21
1852.14472295557
31
0.000143898351849769
  0
LINE
 8
GROUP0
10
425.945900713944
20
1852.14472295557
30
0.000143898351849769
11
425.945900713946
21
1855.14472295557
31
0.000142641027426348
  0
LINE
 8
GROUP0
10
442.338201404186
20
1869.34087979206
30
0.000151826987208691
11
444.936277615536
21
1870.84087979206
31
0.000155615131926423
  0
LINE
 8
GROUP0
10
444.936277615536
20
1870.84087979206
30
0.000155615131926423
11
447.534353826885
21
1869.34087979206
31
0.000160660600165185
  0
LINE
 8
GROUP0
10
447.534353826885
20
1869.34087979206
30
0.000160660600165185
11
447.534353826883
21
1866.34087979206
31
0.000161917924949561
  0
LINE
 8
GROUP0
10
447.534353826883
20
1866.34087979206
30
0.000161917924949561
11
444.936277615533
21
1864.84087979206
31
0.000158129780051352
  0
LINE
 8
GROUP0
10
444.936277615533
20
1864.84087979206
30
0.000158129780051352
11
442.338201404184
21
1866.34087979206
31
0.000153084311361395
  0
LINE
 8
GROUP0
10
442.338201404184
20
1866.34087979206
30
0.000153084311361395
11
442.338201404186
21
1869.34087979206
31
0.000151826987208691
  0
LINE
 8
GROUP0
10
435.240141560882
20
1859.24279856716
30
0.000129288404826211
11
432.642065349532
21
1857.74279856716
31
0.000125500261101107
  0
LINE
 8
GROUP0
10
432.642065349532
20
1857.74279856716
30
0.000125500261101107
11
430.043989138183
21
1859.24279856715
31
0.000120454792501389
  0
LINE
 8
GROUP0
10
430.043989138183
20
1859.24279856715
30
0.000120454792501389
11
430.043989138186
21
1862.24279856715
31
0.000119197467536535
  0
LINE
 8
GROUP0
10
430.043989138186
20
1862.24279856715
30
0.000119197467536535
11
432.642065349535
21
1863.74279856715
31
0.000122985611803072
  0
LINE
 8
GROUP0
10
432.642065349535
20
1863.74279856715
30
0.000122985611803072
11
435.240141560884
21
1862.24279856715
31
0.000128031080673507
  0
LINE
 8
GROUP0
10
435.240141560884
20
1862.24279856715
30
0.000128031080673507
11
435.240141560882
21
1859.24279856716
31
0.000129288404826211
  0
LINE
 8
GROUP0
10
409.553609120187
20
1840.94857053292
30
0.000117709312929348
11
412.151685331537
21
1842.44857053291
31
0.000121497457827557
  0
LINE
 8
GROUP0
10
412.151685331537
20
1842.44857053291
30
0.000121497457827557
11
414.749761542886
21
1840.94857053292
31
0.000126542925795602
  0
LINE
 8
GROUP0
10
414.749761542886
20
1840.94857053292
30
0.000126542925795602
11
414.749761542884
21
1837.94857053291
31
0.00012780025048974
  0
LINE
 8
GROUP0
10
414.749761542884
20
1837.94857053291
30
0.00012780025048974
11
412.151685331533
21
1836.44857053292
31
0.000124012105681769
  0
LINE
 8
GROUP0
10
412.151685331533
20
1836.44857053292
30
0.000124012105681769
11
409.553609120184
21
1837.94857053292
31
0.000118966637352768
  0
LINE
 8
GROUP0
10
409.553609120184
20
1837.94857053292
30
0.000118966637352768
11
409.553609120187
21
1840.94857053292
31
0.000117709312929348
  0
LINE
 8
GROUP0
10
442.338201404176
20
1837.94857494671
30
0.00014992252983822
11
442.338201404178
21
1840.94857494671
31
0.000148665206317188
  0
LINE
 8
GROUP0
10
442.338201404178
20
1840.94857494671
30
0.000148665206317188
11
444.936277615529
21
1842.44857494671
31
0.000152453350042291
  0
LINE
 8
GROUP0
10
444.936277615529
20
1842.44857494671
30
0.000152453350042291
11
447.534353826876
21
1840.94857494671
31
0.000157498818732248
  0
LINE
 8
GROUP0
10
447.534353826876
20
1840.94857494671
30
0.000157498818732248
11
447.534353826875
21
1837.94857494671
31
0.000158756142794713
  0
LINE
 8
GROUP0
10
447.534353826875
20
1837.94857494671
30
0.000158756142794713
11
444.936277615524
21
1836.44857494671
31
0.000154967999159849
  0
LINE
 8
GROUP0
10
444.936277615524
20
1836.44857494671
30
0.000154967999159849
11
442.338201404176
21
1837.94857494671
31
0.00014992252983822
  0
LINE
 8
GROUP0
10
427.043989138176
20
1848.04664614447
30
0.000112321421529826
11
427.043989138174
21
1845.04664614447
31
0.000114314926042224
  0
LINE
 8
GROUP0
10
427.043989138174
20
1845.04664614447
30
0.000114314926042224
11
424.44591292682
21
1843.54664614447
31
0.000114003632062831
  0
LINE
 8
GROUP0
10
424.44591292682
20
1843.54664614447
30
0.000114003632062831
11
421.847836715468
21
1845.04664614447
31
0.000111698833661277
  0
LINE
 8
GROUP0
10
421.847836715468
20
1845.04664614447
30
0.000111698833661277
11
421.84783671547
21
1848.04664614447
31
0.000109705328787923
  0
LINE
 8
GROUP0
10
421.84783671547
20
1848.04664614447
30
0.000109705328787923
11
424.445912926824
21
1849.54664614447
31
0.000110016622947794
  0
LINE
 8
GROUP0
10
424.445912926824
20
1849.54664614447
30
0.000110016622947794
11
427.043989138176
21
1848.04664614447
31
0.000112321421529826
  0
LINE
 8
GROUP0
10
418.847836715483
20
1848.04664614448
30
0.000122128628771689
11
418.847836715481
21
1845.04664614448
31
0.000124122133374326
  0
LINE
 8
GROUP0
10
418.847836715481
20
1845.04664614448
30
0.000124122133374326
11
416.249760504127
21
1843.54664614448
31
0.000123810839304694
  0
LINE
 8
GROUP0
10
416.249760504127
20
1843.54664614448
30
0.000123810839304694
11
413.651684292775
21
1845.04664614448
31
0.000121506041444574
  0
LINE
 8
GROUP0
10
413.651684292775
20
1845.04664614448
30
0.000121506041444574
11
413.651684292777
21
1848.04664614448
31
0.000119512536661459
  0
LINE
 8
GROUP0
10
413.651684292777
20
1848.04664614448
30
0.000119512536661459
11
416.249760504131
21
1849.54664614448
31
0.000119823830099419
  0
LINE
 8
GROUP0
10
416.249760504131
20
1849.54664614448
30
0.000119823830099419
11
418.847836715483
21
1848.04664614448
31
0.000122128628771689
  0
LINE
 8
GROUP0
10
417.749759465317
20
1855.14472295559
30
0.00012087109472324
11
420.347835676667
21
1856.64472295559
31
0.000124659238448343
  0
LINE
 8
GROUP0
10
420.347835676667
20
1856.64472295559
30
0.000124659238448343
11
422.945911888015
21
1855.14472295559
31
0.000129704706867583
  0
LINE
 8
GROUP0
10
422.945911888015
20
1855.14472295559
30
0.000129704706867583
11
422.945911888013
21
1852.14472295559
31
0.000130962031742198
  0
LINE
 8
GROUP0
10
422.945911888013
20
1852.14472295559
30
0.000130962031742198
11
420.347835676663
21
1850.64472295559
31
0.000127173887385423
  0
LINE
 8
GROUP0
10
420.347835676663
20
1850.64472295559
30
0.000127173887385423
11
417.749759465315
21
1852.14472295559
31
0.000122128419507616
  0
LINE
 8
GROUP0
10
417.749759465315
20
1852.14472295559
30
0.000122128419507616
11
417.749759465317
21
1855.14472295559
31
0.00012087109472324
  0
LINE
 8
GROUP0
10
449.034370194902
20
1849.54664614445
30
8.05950007710104e-005
11
451.632446406253
21
1848.04664614445
31
8.28997995335195e-005
  0
LINE
 8
GROUP0
10
451.632446406253
20
1848.04664614445
30
8.28997995335195e-005
11
451.632446406252
21
1845.04664614446
31
8.48933034142457e-005
  0
LINE
 8
GROUP0
10
451.632446406252
20
1845.04664614446
30
8.48933034142457e-005
11
449.034370194898
21
1843.54664614446
31
8.45820097055688e-005
  0
LINE
 8
GROUP0
10
449.034370194898
20
1843.54664614446
30
8.45820097055688e-005
11
446.436293983547
21
1845.04664614446
31
8.22772116649711e-005
  0
LINE
 8
GROUP0
10
446.436293983547
20
1845.04664614446
30
8.22772116649711e-005
11
446.436293983549
21
1848.04664614446
31
8.02837068818557e-005
  0
LINE
 8
GROUP0
10
446.436293983549
20
1848.04664614446
30
8.02837068818557e-005
11
449.034370194902
21
1849.54664614445
31
8.05950007710104e-005
  0
LINE
 8
GROUP0
10
421.847836715487
20
1862.24279856715
30
0.000119197467536535
11
424.445912926837
21
1863.74279856715
31
0.000122985611532355
  0
LINE
 8
GROUP0
10
424.445912926837
20
1863.74279856715
30
0.000122985611532355
11
427.043989138186
21
1862.24279856715
31
0.000128031080673507
  0
LINE
 8
GROUP0
10
427.043989138186
20
1862.24279856715
30
0.000128031080673507
11
427.043989138184
21
1859.24279856716
31
0.000129288404826211
  0
LINE
 8
GROUP0
10
427.043989138184
20
1859.24279856716
30
0.000129288404826211
11
424.445912926834
21
1857.74279856716
31
0.000125500261101107
  0
LINE
 8
GROUP0
10
424.445912926834
20
1857.74279856716
30
0.000125500261101107
11
421.847836715485
21
1859.24279856715
31
0.000120454792501389
  0
LINE
 8
GROUP0
10
421.847836715485
20
1859.24279856715
30
0.000120454792501389
11
421.847836715487
21
1862.24279856715
31
0.000119197467536535
  0
LINE
 8
GROUP0
10
413.651684292789
20
1862.24279856715
30
0.000119197467536535
11
416.249760504138
21
1863.74279856715
31
0.000122985611803072
  0
LINE
 8
GROUP0
10
416.249760504138
20
1863.74279856715
30
0.000122985611803072
11
418.847836715487
21
1862.24279856715
31
0.000128031080673507
  0
LINE
 8
GROUP0
10
418.847836715487
20
1862.24279856715
30
0.000128031080673507
11
418.847836715485
21
1859.24279856716
31
0.000129288404826211
  0
LINE
 8
GROUP0
10
418.847836715485
20
1859.24279856716
30
0.000129288404826211
11
416.249760504135
21
1857.74279856716
31
0.000125500261101107
  0
LINE
 8
GROUP0
10
416.249760504135
20
1857.74279856716
30
0.000125500261101107
11
413.651684292786
21
1859.24279856715
31
0.000120454792501389
  0
LINE
 8
GROUP0
10
413.651684292786
20
1859.24279856715
30
0.000120454792501389
11
413.651684292789
21
1862.24279856715
31
0.000119197467536535
  0
LINE
 8
GROUP0
10
412.151685331541
20
1864.84087537827
30
0.000127173886843989
11
409.553609120193
21
1866.34087537826
31
0.000122128419101541
  0
LINE
 8
GROUP0
10
409.553609120193
20
1866.34087537826
30
0.000122128419101541
11
409.553609120195
21
1869.34087537826
31
0.000120871094317165
  0
LINE
 8
GROUP0
10
409.553609120195
20
1869.34087537826
30
0.000120871094317165
11
412.151685331545
21
1870.84087537826
31
0.000124659238583701
  0
LINE
 8
GROUP0
10
412.151685331545
20
1870.84087537826
30
0.000124659238583701
11
414.749761542893
21
1869.34087537826
31
0.000129704707093181
  0
LINE
 8
GROUP0
10
414.749761542893
20
1869.34087537826
30
0.000129704707093181
11
414.749761542891
21
1866.34087537827
31
0.000130962031742198
  0
LINE
 8
GROUP0
10
414.749761542891
20
1866.34087537827
30
0.000130962031742198
11
412.151685331541
21
1864.84087537827
31
0.000127173886843989
  0
LINE
 8
GROUP0
10
436.740127270418
20
1856.64472295557
30
0.000146429171783124
11
439.338203481767
21
1855.14472295557
31
0.00015147463975117
  0
LINE
 8
GROUP0
10
439.338203481767
20
1855.14472295557
30
0.00015147463975117
11
439.338203481765
21
1852.14472295557
31
0.000152731964355068
  0
LINE
 8
GROUP0
10
439.338203481765
20
1852.14472295557
30
0.000152731964355068
11
436.740127270415
21
1850.64472295557
31
0.000148943821081159
  0
LINE
 8
GROUP0
10
436.740127270415
20
1850.64472295557
30
0.000148943821081159
11
434.142051059066
21
1852.14472295557
31
0.000143898351849769
  0
LINE
 8
GROUP0
10
434.142051059066
20
1852.14472295557
30
0.000143898351849769
11
434.142051059068
21
1855.14472295557
31
0.000142641027697065
  0
LINE
 8
GROUP0
10
434.142051059068
20
1855.14472295557
30
0.000142641027697065
11
436.740127270418
21
1856.64472295557
31
0.000146429171783124
  0
LINE
 8
GROUP0
10
440.838217772231
20
1857.74279856716
30
0.000125500261101107
11
438.240141560882
21
1859.24279856715
31
0.000120454792501389
  0
LINE
 8
GROUP0
10
438.240141560882
20
1859.24279856715
30
0.000120454792501389
11
438.240141560885
21
1862.24279856715
31
0.000119197467536535
  0
LINE
 8
GROUP0
10
438.240141560885
20
1862.24279856715
30
0.000119197467536535
11
440.838217772235
21
1863.74279856715
31
0.000122985611803072
  0
LINE
 8
GROUP0
10
440.838217772235
20
1863.74279856715
30
0.000122985611803072
11
443.436293983583
21
1862.24279856715
31
0.000128031080673507
  0
LINE
 8
GROUP0
10
443.436293983583
20
1862.24279856715
30
0.000128031080673507
11
443.436293983581
21
1859.24279856716
31
0.000129288404826211
  0
LINE
 8
GROUP0
10
443.436293983581
20
1859.24279856716
30
0.000129288404826211
11
440.838217772231
21
1857.74279856716
31
0.000125500261101107
  0
LINE
 8
GROUP0
10
422.945911888013
20
1866.34087537827
30
0.000130962031742198
11
420.347835676663
21
1864.84087537827
31
0.000127173886843989
  0
LINE
 8
GROUP0
10
420.347835676663
20
1864.84087537827
30
0.000127173886843989
11
417.749759465315
21
1866.34087537826
31
0.00012212841914666
  0
LINE
 8
GROUP0
10
417.749759465315
20
1866.34087537826
30
0.00012212841914666
11
417.749759465317
21
1869.34087537826
31
0.000120871094226926
  0
LINE
 8
GROUP0
10
417.749759465317
20
1869.34087537826
30
0.000120871094226926
11
420.347835676667
21
1870.84087537826
31
0.000124659238583701
  0
LINE
 8
GROUP0
10
420.347835676667
20
1870.84087537826
30
0.000124659238583701
11
422.945911888016
21
1869.34087537826
31
0.000129704707093181
  0
LINE
 8
GROUP0
10
422.945911888016
20
1869.34087537826
30
0.000129704707093181
11
422.945911888013
21
1866.34087537827
31
0.000130962031742198
  0
LINE
 8
GROUP0
10
495.613169551005
20
1862.24281622238
30
0.000199481174418336
11
498.211245762355
21
1863.74281622238
31
0.000203269318684873
  0
LINE
 8
GROUP0
10
498.211245762355
20
1863.74281622238
30
0.000203269318684873
11
500.809321973704
21
1862.24281622238
31
0.000208314787555308
  0
LINE
 8
GROUP0
10
500.809321973704
20
1862.24281622238
30
0.000208314787555308
11
500.809321973701
21
1859.24281622238
31
0.000209572111708011
  0
LINE
 8
GROUP0
10
500.809321973701
20
1859.24281622238
30
0.000209572111708011
11
498.211245762352
21
1857.74281622238
31
0.000205783967982908
  0
LINE
 8
GROUP0
10
498.211245762352
20
1857.74281622238
30
0.000205783967982908
11
495.613169551003
21
1859.24281622238
31
0.00020073849938319
  0
LINE
 8
GROUP0
10
495.613169551003
20
1859.24281622238
30
0.00020073849938319
11
495.613169551005
21
1862.24281622238
31
0.000199481174418336
  0
LINE
 8
GROUP0
10
503.809321973704
20
1862.24281622238
30
0.000199481174418336
11
506.407398185054
21
1863.74281622238
31
0.000203269318414156
  0
LINE
 8
GROUP0
10
506.407398185054
20
1863.74281622238
30
0.000203269318414156
11
509.005474396403
21
1862.24281622238
31
0.000208314787555308
  0
LINE
 8
GROUP0
10
509.005474396403
20
1862.24281622238
30
0.000208314787555308
11
509.0054743964
21
1859.24281622238
31
0.000209572111708011
  0
LINE
 8
GROUP0
10
509.0054743964
20
1859.24281622238
30
0.000209572111708011
11
506.40739818505
21
1857.74281622238
31
0.000205783967982908
  0
LINE
 8
GROUP0
10
506.40739818505
20
1857.74281622238
30
0.000205783967982908
11
503.809321973702
21
1859.24281622238
31
0.00020073849938319
  0
LINE
 8
GROUP0
10
503.809321973702
20
1859.24281622238
30
0.00020073849938319
11
503.809321973704
21
1862.24281622238
31
0.000199481174418336
  0
LINE
 8
GROUP0
10
434.142051059058
20
1837.94857053289
30
0.000140736569965638
11
434.14205105906
21
1840.94857053289
31
0.000139479245451978
  0
LINE
 8
GROUP0
10
434.14205105906
20
1840.94857053289
30
0.000139479245451978
11
436.74012727041
21
1842.44857053289
31
0.00014326739016971
  0
LINE
 8
GROUP0
10
436.74012727041
20
1842.44857053289
30
0.00014326739016971
11
439.338203481759
21
1840.94857053289
31
0.000148312858498711
  0
LINE
 8
GROUP0
10
439.338203481759
20
1840.94857053289
30
0.000148312858498711
11
439.338203481756
21
1837.94857053289
31
0.000149570183192848
  0
LINE
 8
GROUP0
10
439.338203481756
20
1837.94857053289
30
0.000149570183192848
11
436.740127270407
21
1836.44857053289
31
0.000145782038565356
  0
LINE
 8
GROUP0
10
436.740127270407
20
1836.44857053289
30
0.000145782038565356
11
434.142051059058
21
1837.94857053289
31
0.000140736569965638
  0
LINE
 8
GROUP0
10
431.142053136643
20
1866.34087537824
30
0.000152731964084351
11
428.543976925293
21
1864.84087537824
31
0.000148943820990921
  0
LINE
 8
GROUP0
10
428.543976925293
20
1864.84087537824
30
0.000148943820990921
11
425.945900713944
21
1866.34087537824
31
0.000143898351669291
  0
LINE
 8
GROUP0
10
425.945900713944
20
1866.34087537824
30
0.000143898351669291
11
425.945900713945
21
1869.34087537824
31
0.000142641027200751
  0
LINE
 8
GROUP0
10
425.945900713945
20
1869.34087537824
30
0.000142641027200751
11
428.543976925296
21
1870.84087537824
31
0.000146429172008721
  0
LINE
 8
GROUP0
10
428.543976925296
20
1870.84087537824
30
0.000146429172008721
11
431.142053136645
21
1869.34087537824
31
0.000151474640157245
  0
LINE
 8
GROUP0
10
431.142053136645
20
1869.34087537824
30
0.000151474640157245
11
431.142053136643
21
1866.34087537824
31
0.000152731964084351
  0
LINE
 8
GROUP0
10
524.299686662401
20
1866.34089744728
30
0.000233368018243196
11
524.299686662403
21
1869.34089744728
31
0.000232110694090492
  0
LINE
 8
GROUP0
10
524.299686662403
20
1869.34089744728
30
0.000232110694090492
11
526.897762873753
21
1870.84089744728
31
0.000235898838808223
  0
LINE
 8
GROUP0
10
526.897762873753
20
1870.84089744728
30
0.000235898838808223
11
529.495839085102
21
1869.34089744728
31
0.000240944307046986
  0
LINE
 8
GROUP0
10
529.495839085102
20
1869.34089744728
30
0.000240944307046986
11
529.495839085099
21
1866.34089744728
31
0.000242201631831362
  0
LINE
 8
GROUP0
10
529.495839085099
20
1866.34089744728
30
0.000242201631831362
11
526.897762873749
21
1864.84089744728
31
0.000238413486933153
  0
LINE
 8
GROUP0
10
526.897762873749
20
1864.84089744728
30
0.000238413486933153
11
524.299686662401
21
1866.34089744728
31
0.000233368018243196
  0
LINE
 8
GROUP0
10
513.103538394859
20
1866.34089303346
30
0.000233015670966152
11
510.50546218351
21
1864.84089303346
31
0.000229227527872721
  0
LINE
 8
GROUP0
10
510.50546218351
20
1864.84089303346
30
0.000229227527872721
11
507.907385972161
21
1866.34089303346
31
0.000224182058551092
  0
LINE
 8
GROUP0
10
507.907385972161
20
1866.34089303346
30
0.000224182058551092
11
507.907385972162
21
1869.34089303346
31
0.000222924734127671
  0
LINE
 8
GROUP0
10
507.907385972162
20
1869.34089303346
30
0.000222924734127671
11
510.505462183513
21
1870.84089303346
31
0.000226712878935642
  0
LINE
 8
GROUP0
10
510.505462183513
20
1870.84089303346
30
0.000226712878935642
11
513.103538394862
21
1869.34089303346
31
0.000231758347084165
  0
LINE
 8
GROUP0
10
513.103538394862
20
1869.34089303346
30
0.000231758347084165
11
513.103538394859
21
1866.34089303346
31
0.000233015670966152
  0
LINE
 8
GROUP0
10
431.142053136634
20
1837.94857053289
30
0.000149570183192848
11
428.543976925284
21
1836.44857053289
31
0.000145782038565356
  0
LINE
 8
GROUP0
10
428.543976925284
20
1836.44857053289
30
0.000145782038565356
11
425.945900713936
21
1837.94857053289
31
0.000140736570416832
  0
LINE
 8
GROUP0
10
425.945900713936
20
1837.94857053289
30
0.000140736570416832
11
425.945900713938
21
1840.94857053289
31
0.000139479245542217
  0
LINE
 8
GROUP0
10
425.945900713938
20
1840.94857053289
30
0.000139479245542217
11
428.543976925289
21
1842.44857053289
31
0.000143267390259949
  0
LINE
 8
GROUP0
10
428.543976925289
20
1842.44857053289
30
0.000143267390259949
11
431.142053136636
21
1840.94857053289
31
0.000148312858679189
  0
LINE
 8
GROUP0
10
431.142053136636
20
1840.94857053289
30
0.000148312858679189
11
431.142053136634
21
1837.94857053289
31
0.000149570183192848
  0
LINE
 8
GROUP0
10
458.730502094423
20
1852.1447317832
30
0.000162270272948516
11
458.730502094425
21
1855.1447317832
31
0.00016101294816414
  0
LINE
 8
GROUP0
10
458.730502094425
20
1855.1447317832
30
0.00016101294816414
11
461.328578305776
21
1856.6447317832
31
0.000164801091889243
  0
LINE
 8
GROUP0
10
461.328578305776
20
1856.6447317832
30
0.000164801091889243
11
463.926654517123
21
1855.1447317832
31
0.000169846560308484
  0
LINE
 8
GROUP0
10
463.926654517123
20
1855.1447317832
30
0.000169846560308484
11
463.926654517121
21
1852.1447317832
31
0.000171103885183099
  0
LINE
 8
GROUP0
10
463.926654517121
20
1852.1447317832
30
0.000171103885183099
11
461.328578305772
21
1850.6447317832
31
0.000167315740826323
  0
LINE
 8
GROUP0
10
461.328578305772
20
1850.6447317832
30
0.000167315740826323
11
458.730502094423
21
1852.1447317832
31
0.000162270272948516
  0
LINE
 8
GROUP0
10
487.417036612692
20
1862.24280739477
30
0.000159339320977436
11
490.015112824042
21
1863.74280739477
31
0.000163127465243972
  0
LINE
 8
GROUP0
10
490.015112824042
20
1863.74280739477
30
0.000163127465243972
11
492.613189035389
21
1862.24280739477
31
0.000168172934114407
  0
LINE
 8
GROUP0
10
492.613189035389
20
1862.24280739477
30
0.000168172934114407
11
492.613189035387
21
1859.24280739477
31
0.000169430258267111
  0
LINE
 8
GROUP0
10
492.613189035387
20
1859.24280739477
30
0.000169430258267111
11
490.015112824038
21
1857.74280739477
31
0.000165642114542008
  0
LINE
 8
GROUP0
10
490.015112824038
20
1857.74280739477
30
0.000165642114542008
11
487.417036612689
21
1859.24280739477
31
0.00016059664594229
  0
LINE
 8
GROUP0
10
487.417036612689
20
1859.24280739477
30
0.00016059664594229
11
487.417036612692
21
1862.24280739477
31
0.000159339320977436
  0
LINE
 8
GROUP0
10
398.357460852651
20
1840.94856170528
30
0.000108171005057811
11
398.357460852648
21
1837.94856170528
31
0.000109428329751948
  0
LINE
 8
GROUP0
10
398.357460852648
20
1837.94856170528
30
0.000109428329751948
11
395.759384641299
21
1836.44856170528
31
0.000105640185124455
  0
LINE
 8
GROUP0
10
395.759384641299
20
1836.44856170528
30
0.000105640185124455
11
393.16130842995
21
1837.94856170528
31
0.000100594716524737
  0
LINE
 8
GROUP0
10
393.16130842995
20
1837.94856170528
30
0.000100594716524737
11
393.161308429952
21
1840.94856170528
31
9.93373920110779e-005
  0
LINE
 8
GROUP0
10
393.161308429952
20
1840.94856170528
30
9.93373920110779e-005
11
395.759384641302
21
1842.44856170528
31
0.000103125536728809
  0
LINE
 8
GROUP0
10
395.759384641302
20
1842.44856170528
30
0.000103125536728809
11
398.357460852651
21
1840.94856170528
31
0.000108171005057811
  0
LINE
 8
GROUP0
10
458.730502094423
20
1866.34088420588
30
0.000162270272587561
11
458.730502094425
21
1869.34088420588
31
0.000161012947712946
  0
LINE
 8
GROUP0
10
458.730502094425
20
1869.34088420588
30
0.000161012947712946
11
461.328578305776
21
1870.84088420588
31
0.000164801092069721
  0
LINE
 8
GROUP0
10
461.328578305776
20
1870.84088420588
30
0.000164801092069721
11
463.926654517124
21
1869.34088420588
31
0.0001698465605792
  0
LINE
 8
GROUP0
10
463.926654517124
20
1869.34088420588
30
0.0001698465605792
11
463.926654517121
21
1866.34088420588
31
0.000171103885183099
  0
LINE
 8
GROUP0
10
463.926654517121
20
1866.34088420588
30
0.000171103885183099
11
461.328578305771
21
1864.84088420588
31
0.00016731574028489
  0
LINE
 8
GROUP0
10
461.328578305771
20
1864.84088420588
30
0.00016731574028489
11
458.730502094423
21
1866.34088420588
31
0.000162270272587561
  0
LINE
 8
GROUP0
10
455.730504172
20
1852.1447317832
30
0.000171103885183099
11
453.132427960649
21
1850.6447317832
31
0.000167315740916562
  0
LINE
 8
GROUP0
10
453.132427960649
20
1850.6447317832
30
0.000167315740916562
11
450.534351749301
21
1852.1447317832
31
0.000162270272948516
  0
LINE
 8
GROUP0
10
450.534351749301
20
1852.1447317832
30
0.000162270272948516
11
450.534351749303
21
1855.1447317832
31
0.00016101294816414
  0
LINE
 8
GROUP0
10
450.534351749303
20
1855.1447317832
30
0.00016101294816414
11
453.132427960654
21
1856.6447317832
31
0.000164801091889243
  0
LINE
 8
GROUP0
10
453.132427960654
20
1856.6447317832
30
0.000164801091889243
11
455.730504172002
21
1855.1447317832
31
0.000169846560398723
  0
LINE
 8
GROUP0
10
455.730504172002
20
1855.1447317832
30
0.000169846560398723
11
455.730504172
21
1852.1447317832
31
0.000171103885183099
  0
LINE
 8
GROUP0
10
475.122793688177
20
1855.14473178318
30
0.000182782881137966
11
477.720869899526
21
1856.64473178318
31
0.000186571025224024
  0
LINE
 8
GROUP0
10
477.720869899526
20
1856.64473178318
30
0.000186571025224024
11
480.318946110875
21
1855.14473178318
31
0.00019161649319207
  0
LINE
 8
GROUP0
10
480.318946110875
20
1855.14473178318
30
0.00019161649319207
11
480.318946110873
21
1852.14473178318
31
0.000192873817795968
  0
LINE
 8
GROUP0
10
480.318946110873
20
1852.14473178318
30
0.000192873817795968
11
477.720869899523
21
1850.64473178318
31
0.00018908567452206
  0
LINE
 8
GROUP0
10
477.720869899523
20
1850.64473178318
30
0.00018908567452206
11
475.122793688174
21
1852.14473178318
31
0.000184040205290669
  0
LINE
 8
GROUP0
10
475.122793688174
20
1852.14473178318
30
0.000184040205290669
11
475.122793688177
21
1855.14473178318
31
0.000182782881137966
  0
LINE
 8
GROUP0
10
368.572866491079
20
1840.9485617053
30
7.75674594884473e-005
11
371.170942702429
21
1842.4485617053
31
8.13556043866564e-005
  0
LINE
 8
GROUP0
10
371.170942702429
20
1842.4485617053
30
8.13556043866564e-005
11
373.769018913777
21
1840.9485617053
31
8.64010723547021e-005
  0
LINE
 8
GROUP0
10
373.769018913777
20
1840.9485617053
30
8.64010723547021e-005
11
373.769018913775
21
1837.9485617053
31
8.76583970488392e-005
  0
LINE
 8
GROUP0
10
373.769018913775
20
1837.9485617053
30
8.76583970488392e-005
11
371.170942702425
21
1836.4485617053
31
8.38702522408691e-005
  0
LINE
 8
GROUP0
10
371.170942702425
20
1836.4485617053
30
8.38702522408691e-005
11
368.572866491076
21
1837.9485617053
31
7.88247839118677e-005
  0
LINE
 8
GROUP0
10
368.572866491076
20
1837.9485617053
30
7.88247839118677e-005
11
368.572866491079
21
1840.9485617053
31
7.75674594884473e-005
  0
LINE
 8
GROUP0
10
457.230503133247
20
1863.74280739477
30
0.000163127465243972
11
459.828579344596
21
1862.24280739477
31
0.000168172934114407
  0
LINE
 8
GROUP0
10
459.828579344596
20
1862.24280739477
30
0.000168172934114407
11
459.828579344593
21
1859.24280739477
31
0.000169430258267111
  0
LINE
 8
GROUP0
10
459.828579344593
20
1859.24280739477
30
0.000169430258267111
11
457.230503133243
21
1857.74280739477
31
0.000165642114542008
  0
LINE
 8
GROUP0
10
457.230503133243
20
1857.74280739477
30
0.000165642114542008
11
454.632426921895
21
1859.24280739477
31
0.00016059664594229
  0
LINE
 8
GROUP0
10
454.632426921895
20
1859.24280739477
30
0.00016059664594229
11
454.632426921897
21
1862.24280739477
31
0.000159339320977436
  0
LINE
 8
GROUP0
10
454.632426921897
20
1862.24280739477
30
0.000159339320977436
11
457.230503133247
21
1863.74280739477
31
0.000163127465243972
  0
LINE
 8
GROUP0
10
473.62280797864
20
1857.74280739477
30
0.000165642114542008
11
471.024731767291
21
1859.24280739477
31
0.00016059664594229
  0
LINE
 8
GROUP0
10
471.024731767291
20
1859.24280739477
30
0.00016059664594229
11
471.024731767295
21
1862.24280739477
31
0.000159339320977436
  0
LINE
 8
GROUP0
10
471.024731767295
20
1862.24280739477
30
0.000159339320977436
11
473.622807978644
21
1863.74280739477
31
0.000163127465243972
  0
LINE
 8
GROUP0
10
473.622807978644
20
1863.74280739477
30
0.000163127465243972
11
476.220884189993
21
1862.24280739477
31
0.000168172934114407
  0
LINE
 8
GROUP0
10
476.220884189993
20
1862.24280739477
30
0.000168172934114407
11
476.220884189991
21
1859.24280739477
31
0.000169430258267111
  0
LINE
 8
GROUP0
10
476.220884189991
20
1859.24280739477
30
0.000169430258267111
11
473.62280797864
21
1857.74280739477
31
0.000165642114542008
  0
LINE
 8
GROUP0
10
479.220884189993
20
1862.24280739477
30
0.000159339320977436
11
481.818960401343
21
1863.74280739477
31
0.000163127465243972
  0
LINE
 8
GROUP0
10
481.818960401343
20
1863.74280739477
30
0.000163127465243972
11
484.417036612691
21
1862.24280739477
31
0.000168172934114407
  0
LINE
 8
GROUP0
10
484.417036612691
20
1862.24280739477
30
0.000168172934114407
11
484.417036612689
21
1859.24280739477
31
0.000169430258267111
  0
LINE
 8
GROUP0
10
484.417036612689
20
1859.24280739477
30
0.000169430258267111
11
481.818960401339
21
1857.74280739477
31
0.000165642114542008
  0
LINE
 8
GROUP0
10
481.818960401339
20
1857.74280739477
30
0.000165642114542008
11
479.220884189991
21
1859.24280739477
31
0.00016059664594229
  0
LINE
 8
GROUP0
10
479.220884189991
20
1859.24280739477
30
0.00016059664594229
11
479.220884189993
21
1862.24280739477
31
0.000159339320977436
  0
LINE
 8
GROUP0
10
488.515096455993
20
1869.34088861967
30
0.000200802453606085
11
488.515096455991
21
1866.34088861967
31
0.000202059778390462
  0
LINE
 8
GROUP0
10
488.515096455991
20
1866.34088861967
30
0.000202059778390462
11
485.917020244641
21
1864.84088861967
31
0.000198271633492252
  0
LINE
 8
GROUP0
10
485.917020244641
20
1864.84088861967
30
0.000198271633492252
11
483.318944033292
21
1866.34088861967
31
0.000193226164802295
  0
LINE
 8
GROUP0
10
483.318944033292
20
1866.34088861967
30
0.000193226164802295
11
483.318944033294
21
1869.34088861967
31
0.000191968840649592
  0
LINE
 8
GROUP0
10
483.318944033294
20
1869.34088861967
30
0.000191968840649592
11
485.917020244644
21
1870.84088861967
31
0.000195756985367323
  0
LINE
 8
GROUP0
10
485.917020244644
20
1870.84088861967
30
0.000195756985367323
11
488.515096455993
21
1869.34088861967
31
0.000200802453606085
  0
LINE
 8
GROUP0
10
468.024731767292
20
1859.24280739477
30
0.000169430258267111
11
465.426655555942
21
1857.74280739477
31
0.000165642114542008
  0
LINE
 8
GROUP0
10
465.426655555942
20
1857.74280739477
30
0.000165642114542008
11
462.828579344593
21
1859.24280739477
31
0.00016059664594229
  0
LINE
 8
GROUP0
10
462.828579344593
20
1859.24280739477
30
0.00016059664594229
11
462.828579344596
21
1862.24280739477
31
0.000159339320977436
  0
LINE
 8
GROUP0
10
462.828579344596
20
1862.24280739477
30
0.000159339320977436
11
465.426655555945
21
1863.74280739477
31
0.000163127464973256
  0
LINE
 8
GROUP0
10
465.426655555945
20
1863.74280739477
30
0.000163127464973256
11
468.024731767294
21
1862.24280739477
31
0.000168172934114407
  0
LINE
 8
GROUP0
10
468.024731767294
20
1862.24280739477
30
0.000168172934114407
11
468.024731767292
21
1859.24280739477
31
0.000169430258267111
  0
LINE
 8
GROUP0
10
390.161310507526
20
1837.94856170528
30
0.000109428329751948
11
387.563234296176
21
1836.44856170528
31
0.000105640185124455
  0
LINE
 8
GROUP0
10
387.563234296176
20
1836.44856170528
30
0.000105640185124455
11
384.965158084828
21
1837.94856170528
31
0.000100594716975932
  0
LINE
 8
GROUP0
10
384.965158084828
20
1837.94856170528
30
0.000100594716975932
11
384.96515808483
21
1840.94856170528
31
9.93373921013169e-005
  0
LINE
 8
GROUP0
10
384.96515808483
20
1840.94856170528
30
9.93373921013169e-005
11
387.56323429618
21
1842.44856170528
31
0.000103125536819048
  0
LINE
 8
GROUP0
10
387.56323429618
20
1842.44856170528
30
0.000103125536819048
11
390.161310507528
21
1840.94856170528
31
0.000108171005238288
  0
LINE
 8
GROUP0
10
390.161310507528
20
1840.94856170528
30
0.000108171005238288
11
390.161310507526
21
1837.94856170528
31
0.000109428329751948
  0
LINE
 8
GROUP0
10
469.524719554401
20
1864.84088420585
30
0.000189085674431821
11
466.926643343052
21
1866.34088420585
31
0.000184040205110191
  0
LINE
 8
GROUP0
10
466.926643343052
20
1866.34088420585
30
0.000184040205110191
11
466.926643343053
21
1869.34088420585
31
0.000182782880686771
  0
LINE
 8
GROUP0
10
466.926643343053
20
1869.34088420585
30
0.000182782880686771
11
469.524719554405
21
1870.84088420585
31
0.000186571025494741
  0
LINE
 8
GROUP0
10
469.524719554405
20
1870.84088420585
30
0.000186571025494741
11
472.122795765753
21
1869.34088420585
31
0.000191616493643265
  0
LINE
 8
GROUP0
10
472.122795765753
20
1869.34088420585
30
0.000191616493643265
11
472.122795765751
21
1866.34088420585
31
0.000192873817525251
  0
LINE
 8
GROUP0
10
472.122795765751
20
1866.34088420585
30
0.000192873817525251
11
469.524719554401
21
1864.84088420585
31
0.000189085674431821
  0
LINE
 8
GROUP0
10
455.730504172002
20
1869.34088420588
30
0.0001698465605792
11
455.730504172
21
1866.34088420588
31
0.000171103885183099
  0
LINE
 8
GROUP0
10
455.730504172
20
1866.34088420588
30
0.000171103885183099
11
453.132427960649
21
1864.84088420588
31
0.00016731574028489
  0
LINE
 8
GROUP0
10
453.132427960649
20
1864.84088420588
30
0.00016731574028489
11
450.534351749301
21
1866.34088420588
31
0.000162270272587561
  0
LINE
 8
GROUP0
10
450.534351749301
20
1866.34088420588
30
0.000162270272587561
11
450.534351749303
21
1869.34088420588
31
0.000161012947803185
  0
LINE
 8
GROUP0
10
450.534351749303
20
1869.34088420588
30
0.000161012947803185
11
453.132427960653
21
1870.84088420588
31
0.000164801092069721
  0
LINE
 8
GROUP0
10
453.132427960653
20
1870.84088420588
30
0.000164801092069721
11
455.730504172002
21
1869.34088420588
31
0.0001698465605792
  0
LINE
 8
GROUP0
10
386.063246509067
20
1848.04663731686
30
7.21795680889253e-005
11
386.063246509065
21
1845.04663731686
31
7.4173072601324e-005
  0
LINE
 8
GROUP0
10
386.063246509065
20
1845.04663731686
30
7.4173072601324e-005
11
383.465170297712
21
1843.54663731686
31
7.38617786219303e-005
  0
LINE
 8
GROUP0
10
383.465170297712
20
1843.54663731686
30
7.38617786219303e-005
11
380.86709408636
21
1845.04663731686
31
7.15569802203769e-005
  0
LINE
 8
GROUP0
10
380.86709408636
20
1845.04663731686
30
7.15569802203769e-005
11
380.867094086362
21
1848.04663731686
31
6.95634753470226e-005
  0
LINE
 8
GROUP0
10
380.867094086362
20
1848.04663731686
30
6.95634753470226e-005
11
383.465170297716
21
1849.54663731686
31
6.98747695068941e-005
  0
LINE
 8
GROUP0
10
383.465170297716
20
1849.54663731686
30
6.98747695068941e-005
11
386.063246509067
21
1848.04663731686
31
7.21795680889253e-005
  0
LINE
 8
GROUP0
10
472.12279576575
20
1852.14473178318
30
0.000192873817795968
11
469.524719554401
21
1850.64473178318
31
0.00018908567452206
  0
LINE
 8
GROUP0
10
469.524719554401
20
1850.64473178318
30
0.00018908567452206
11
466.926643343052
21
1852.14473178318
31
0.000184040205290669
  0
LINE
 8
GROUP0
10
466.926643343052
20
1852.14473178318
30
0.000184040205290669
11
466.926643343054
21
1855.14473178318
31
0.000182782880867249
  0
LINE
 8
GROUP0
10
466.926643343054
20
1855.14473178318
30
0.000182782880867249
11
469.524719554405
21
1856.64473178318
31
0.000186571025224024
  0
LINE
 8
GROUP0
10
469.524719554405
20
1856.64473178318
30
0.000186571025224024
11
472.122795765753
21
1855.14473178318
31
0.000191616493282309
  0
LINE
 8
GROUP0
10
472.122795765753
20
1855.14473178318
30
0.000191616493282309
11
472.12279576575
21
1852.14473178318
31
0.000192873817795968
  0
LINE
 8
GROUP0
10
454.632426921886
20
1848.04665497209
30
0.000159654390102359
11
457.230503133239
21
1849.54665497209
31
0.000159965683540319
  0
LINE
 8
GROUP0
10
457.230503133239
20
1849.54665497209
30
0.000159965683540319
11
459.828579344591
21
1848.04665497209
31
0.000162270482212589
  0
LINE
 8
GROUP0
10
459.828579344591
20
1848.04665497209
30
0.000162270482212589
11
459.828579344589
21
1845.04665497209
31
0.000164263986815227
  0
LINE
 8
GROUP0
10
459.828579344589
20
1845.04665497209
30
0.000164263986815227
11
457.230503133235
21
1843.54665497209
31
0.000163952692745594
  0
LINE
 8
GROUP0
10
457.230503133235
20
1843.54665497209
30
0.000163952692745594
11
454.632426921884
21
1845.04665497209
31
0.000161647894885474
  0
LINE
 8
GROUP0
10
454.632426921884
20
1845.04665497209
30
0.000161647894885474
11
454.632426921886
21
1848.04665497209
31
0.000159654390102359
  0
LINE
 8
GROUP0
10
403.955534986416
20
1836.4485661191
30
0.000114826145718949
11
401.357458775068
21
1837.9485661191
31
0.000109780676397319
  0
LINE
 8
GROUP0
10
401.357458775068
20
1837.9485661191
30
0.000109780676397319
11
401.35745877507
21
1840.9485661191
31
0.000108523352876288
  0
LINE
 8
GROUP0
10
401.35745877507
20
1840.9485661191
30
0.000108523352876288
11
403.95553498642
21
1842.4485661191
31
0.000112311496601391
  0
LINE
 8
GROUP0
10
403.95553498642
20
1842.4485661191
30
0.000112311496601391
11
406.553611197768
21
1840.9485661191
31
0.000117356965291348
  0
LINE
 8
GROUP0
10
406.553611197768
20
1840.9485661191
30
0.000117356965291348
11
406.553611197767
21
1837.9485661191
31
0.000118614289353813
  0
LINE
 8
GROUP0
10
406.553611197767
20
1837.9485661191
30
0.000118614289353813
11
403.955534986416
21
1836.4485661191
31
0.000114826145718949
  0
LINE
 8
GROUP0
10
461.328578305764
20
1836.44857936053
30
0.000164153959167789
11
458.730502094415
21
1837.94857936053
31
0.000159108490793668
  0
LINE
 8
GROUP0
10
458.730502094415
20
1837.94857936053
30
0.000159108490793668
11
458.730502094417
21
1840.94857936053
31
0.000157851166280009
  0
LINE
 8
GROUP0
10
458.730502094417
20
1840.94857936053
30
0.000157851166280009
11
461.328578305768
21
1842.44857936053
31
0.000161639310546546
  0
LINE
 8
GROUP0
10
461.328578305768
20
1842.44857936053
30
0.000161639310546546
11
463.926654517115
21
1840.94857936053
31
0.000166684779146264
  0
LINE
 8
GROUP0
10
463.926654517115
20
1840.94857936053
30
0.000166684779146264
11
463.926654517113
21
1837.94857936053
31
0.000167942104065998
  0
LINE
 8
GROUP0
10
463.926654517113
20
1837.94857936053
30
0.000167942104065998
11
461.328578305764
21
1836.44857936053
31
0.000164153959167789
  0
LINE
 8
GROUP0
10
455.730504171994
20
1840.94857936053
30
0.000166684779236503
11
455.730504171992
21
1837.94857936053
31
0.00016794210393064
  0
LINE
 8
GROUP0
10
455.730504171992
20
1837.94857936053
30
0.00016794210393064
11
453.132427960641
21
1836.44857936053
31
0.000164153959167789
  0
LINE
 8
GROUP0
10
453.132427960641
20
1836.44857936053
30
0.000164153959167789
11
450.534351749292
21
1837.94857936053
31
0.000159108490793668
  0
LINE
 8
GROUP0
10
450.534351749292
20
1837.94857936053
30
0.000159108490793668
11
450.534351749295
21
1840.94857936053
31
0.000157851166370248
  0
LINE
 8
GROUP0
10
450.534351749295
20
1840.94857936053
30
0.000157851166370248
11
453.132427960646
21
1842.44857936053
31
0.000161639311268457
  0
LINE
 8
GROUP0
10
453.132427960646
20
1842.44857936053
30
0.000161639311268457
11
455.730504171994
21
1840.94857936053
31
0.000166684779236503
  0
LINE
 8
GROUP0
10
483.318944033292
20
1852.144736197
30
0.000193226165073012
11
483.318944033294
21
1855.144736197
31
0.000191968841100786
  0
LINE
 8
GROUP0
10
483.318944033294
20
1855.144736197
30
0.000191968841100786
11
485.917020244644
21
1856.644736197
31
0.000195756985277084
  0
LINE
 8
GROUP0
10
488.515096455993
20
1855.144736197
30
0.000200802453696324
11
488.515096455991
21
1852.144736197
31
0.0002020597784807
  0
LINE
 8
GROUP0
10
488.515096455991
20
1852.144736197
30
0.0002020597784807
11
485.917020244641
21
1850.644736197
31
0.000198271634304403
  0
LINE
 8
GROUP0
10
485.917020244641
20
1850.644736197
30
0.000198271634304403
11
483.318944033292
21
1852.144736197
31
0.000193226165073012
  0
LINE
 8
GROUP0
10
480.318946110875
20
1869.34088420585
30
0.000191616493553026
11
480.318946110873
21
1866.34088420585
31
0.000192873817525251
  0
LINE
 8
GROUP0
10
477.720869899523
20
1864.84088420585
30
0.000189085674431821
11
475.122793688174
21
1866.34088420585
31
0.000184040205110191
  0
LINE
 8
GROUP0
10
475.122793688174
20
1866.34088420585
30
0.000184040205110191
11
475.122793688177
21
1869.34088420585
31
0.000182782880596532
  0
LINE
 8
GROUP0
10
475.122793688177
20
1869.34088420585
30
0.000182782880596532
11
477.720869899526
21
1870.84088420585
31
0.000186571025494741
  0
LINE
 8
GROUP0
10
477.720869899526
20
1870.84088420585
30
0.000186571025494741
11
480.318946110875
21
1869.34088420585
31
0.000191616493553026
  0
LINE
 8
GROUP0
10
485.917020244632
20
1836.44858377432
30
0.000195109852645869
11
483.318944033284
21
1837.94858377432
31
0.000190064383324239
  0
LINE
 8
GROUP0
10
483.318944033284
20
1837.94858377432
30
0.000190064383324239
11
483.318944033286
21
1840.94858377432
31
0.000188807059803208
  0
LINE
 8
GROUP0
10
483.318944033286
20
1840.94858377432
30
0.000188807059803208
11
485.917020244637
21
1842.44858377432
31
0.000192595203483192
  0
LINE
 8
GROUP0
10
485.917020244637
20
1842.44858377432
30
0.000192595203483192
11
488.515096455984
21
1840.94858377432
31
0.000197640672218268
  0
LINE
 8
GROUP0
10
488.515096455984
20
1840.94858377432
30
0.000197640672218268
11
488.515096455983
21
1837.94858377432
31
0.000198897996280733
  0
LINE
 8
GROUP0
10
488.515096455983
20
1837.94858377432
30
0.000198897996280733
11
485.917020244632
21
1836.44858377432
31
0.000195109852645869
  0
LINE
 8
GROUP0
10
481.818960401314
20
1843.54665497207
30
0.000134531070117616
11
479.220884189961
21
1845.04665497207
31
0.000132226272347735
  0
LINE
 8
GROUP0
10
479.220884189961
20
1845.04665497207
30
0.000132226272347735
11
479.220884189964
21
1848.04665497207
31
0.00013023276747438
  0
LINE
 8
GROUP0
10
479.220884189964
20
1848.04665497207
30
0.00013023276747438
11
481.818960401318
21
1849.54665497207
31
0.000130544061453774
  0
LINE
 8
GROUP0
10
387.563234296185
20
1850.64471412796
30
0.000108801967640259
11
384.965158084835
21
1852.14471412796
31
0.000103756498408868
  0
LINE
 8
GROUP0
10
384.965158084835
20
1852.14471412796
30
0.000103756498408868
11
384.965158084838
21
1855.14471412796
31
0.000102499173985448
  0
LINE
 8
GROUP0
10
384.965158084838
20
1855.14471412796
30
0.000102499173985448
11
387.563234296188
21
1856.64471412796
31
0.000106287318342224
  0
LINE
 8
GROUP0
10
387.563234296188
20
1856.64471412796
30
0.000106287318342224
11
390.161310507537
21
1855.14471412796
31
0.000111332786400508
  0
LINE
 8
GROUP0
10
390.161310507537
20
1855.14471412796
30
0.000111332786400508
11
390.161310507534
21
1852.14471412796
31
0.000112590110914167
  0
LINE
 8
GROUP0
10
390.161310507534
20
1852.14471412796
30
0.000112590110914167
11
387.563234296185
21
1850.64471412796
31
0.000108801967640259
  0
LINE
 8
GROUP0
10
395.759384641306
20
1864.84086655063
30
0.000108801967504901
11
393.161308429958
21
1866.34086655063
31
0.000103756498183271
  0
LINE
 8
GROUP0
10
393.161308429958
20
1866.34086655063
30
0.000103756498183271
11
393.16130842996
21
1869.34086655063
31
0.000102499173669612
  0
LINE
 8
GROUP0
10
393.16130842996
20
1869.34086655063
30
0.000102499173669612
11
395.75938464131
21
1870.84086655063
31
0.000106287318567821
  0
LINE
 8
GROUP0
10
395.75938464131
20
1870.84086655063
30
0.000106287318567821
11
398.357460852659
21
1869.34086655063
31
0.000111332786626105
  0
LINE
 8
GROUP0
10
398.357460852659
20
1869.34086655063
30
0.000111332786626105
11
398.357460852656
21
1866.34086655063
31
0.000112590110598331
  0
LINE
 8
GROUP0
10
398.357460852656
20
1866.34086655063
30
0.000112590110598331
11
395.759384641306
21
1864.84086655063
31
0.000108801967504901
  0
LINE
 8
GROUP0
10
336.886351457266
20
1848.04662848925
30
4.18449218898881e-005
11
336.886351457264
21
1845.04662848925
31
4.38384264925257e-005
  0
LINE
 8
GROUP0
10
336.886351457264
20
1845.04662848925
30
4.38384264925257e-005
11
334.28827524591
21
1843.54662848926
31
4.35271324228931e-005
  0
LINE
 8
GROUP0
10
334.28827524591
20
1843.54662848926
30
4.35271324228931e-005
11
331.690199034559
21
1845.04662848926
31
4.12223345627732e-005
  0
LINE
 8
GROUP0
10
331.690199034559
20
1845.04662848926
30
4.12223345627732e-005
11
331.690199034561
21
1848.04662848925
31
3.92288297796578e-005
  0
LINE
 8
GROUP0
10
331.690199034561
20
1848.04662848925
30
3.92288297796578e-005
11
334.288275245914
21
1849.54662848925
31
3.95401232176179e-005
  0
LINE
 8
GROUP0
10
334.288275245914
20
1849.54662848925
30
3.95401232176179e-005
11
336.886351457266
21
1848.04662848925
31
4.18449218898881e-005
  0
LINE
 8
GROUP0
10
380.867094086379
20
1862.24278973954
30
7.90556140505155e-005
11
383.465170297729
21
1863.74278973954
31
8.28437580463354e-005
  0
LINE
 8
GROUP0
10
383.465170297729
20
1863.74278973954
30
8.28437580463354e-005
11
386.063246509077
21
1862.24278973954
31
8.78892272326065e-005
  0
LINE
 8
GROUP0
10
386.063246509077
20
1862.24278973954
30
8.78892272326065e-005
11
386.063246509075
21
1859.24278973954
31
8.91465513853101e-005
  0
LINE
 8
GROUP0
10
386.063246509075
20
1859.24278973954
30
8.91465513853101e-005
11
383.465170297725
21
1857.74278973954
31
8.53584076602071e-005
  0
LINE
 8
GROUP0
10
383.465170297725
20
1857.74278973954
30
8.53584076602071e-005
11
380.867094086377
21
1859.24278973954
31
8.0312939060489e-005
  0
LINE
 8
GROUP0
10
380.867094086377
20
1859.24278973954
30
8.0312939060489e-005
11
380.867094086379
21
1862.24278973954
31
7.90556140505155e-005
  0
LINE
 8
GROUP0
10
403.955534986428
20
1870.84087096445
30
0.000115473278440403
11
406.553611197776
21
1869.34087096445
31
0.000120518746679165
  0
LINE
 8
GROUP0
10
406.553611197776
20
1869.34087096445
30
0.000120518746679165
11
406.553611197774
21
1866.34087096445
31
0.000121776071463541
  0
LINE
 8
GROUP0
10
406.553611197774
20
1866.34087096445
30
0.000121776071463541
11
403.955534986424
21
1864.84087096445
31
0.000117987926610452
  0
LINE
 8
GROUP0
10
403.955534986424
20
1864.84087096445
30
0.000117987926610452
11
401.357458775076
21
1866.34087096445
31
0.000112942457875375
  0
LINE
 8
GROUP0
10
401.357458775076
20
1866.34087096445
30
0.000112942457875375
11
401.357458775078
21
1869.34087096445
31
0.000111685133722672
  0
LINE
 8
GROUP0
10
401.357458775078
20
1869.34087096445
30
0.000111685133722672
11
403.955534986428
21
1870.84087096445
31
0.000115473278440403
  0
LINE
 8
GROUP0
10
368.572866491087
20
1869.34086655065
30
8.07292408762644e-005
11
371.170942702437
21
1870.84086655065
31
8.4517385142801e-005
  0
LINE
 8
GROUP0
10
371.170942702437
20
1870.84086655065
30
8.4517385142801e-005
11
373.769018913785
21
1869.34086655065
31
8.95628536522802e-005
  0
LINE
 8
GROUP0
10
373.769018913785
20
1869.34086655065
30
8.95628536522802e-005
11
373.769018913783
21
1866.34086655065
31
9.08201782561785e-005
  0
LINE
 8
GROUP0
10
373.769018913783
20
1866.34086655065
30
9.08201782561785e-005
11
371.170942702432
21
1864.84086655065
31
8.70320333579694e-005
  0
LINE
 8
GROUP0
10
371.170942702432
20
1864.84086655065
30
8.70320333579694e-005
11
368.572866491085
21
1866.34086655065
31
8.19865656606405e-005
  0
LINE
 8
GROUP0
10
368.572866491085
20
1866.34086655065
30
8.19865656606405e-005
11
368.572866491087
21
1869.34086655065
31
8.07292408762644e-005
  0
LINE
 8
GROUP0
10
391.661322720427
20
1863.74278973954
30
8.28437583170521e-005
11
394.259398931776
21
1862.24278973954
31
8.78892272326065e-005
  0
LINE
 8
GROUP0
10
394.259398931776
20
1862.24278973954
30
8.78892272326065e-005
11
394.259398931774
21
1859.24278973954
31
8.91465513853101e-005
  0
LINE
 8
GROUP0
10
394.259398931774
20
1859.24278973954
30
8.91465513853101e-005
11
391.661322720424
21
1857.74278973954
31
8.53584076602071e-005
  0
LINE
 8
GROUP0
10
391.661322720424
20
1857.74278973954
30
8.53584076602071e-005
11
389.063246509075
21
1859.24278973954
31
8.0312939060489e-005
  0
LINE
 8
GROUP0
10
389.063246509075
20
1859.24278973954
30
8.0312939060489e-005
11
389.063246509078
21
1862.24278973954
31
7.9055614095635e-005
  0
LINE
 8
GROUP0
10
389.063246509078
20
1862.24278973954
30
7.9055614095635e-005
11
391.661322720427
21
1863.74278973954
31
8.28437583170521e-005
  0
LINE
 8
GROUP0
10
372.67094166368
20
1862.24278973954
30
7.90556140505155e-005
11
375.26901787503
21
1863.74278973954
31
8.28437583170521e-005
  0
LINE
 8
GROUP0
10
375.26901787503
20
1863.74278973954
30
8.28437583170521e-005
11
377.867094086379
21
1862.24278973954
31
8.7889227187487e-005
  0
LINE
 8
GROUP0
10
377.867094086379
20
1862.24278973954
30
8.7889227187487e-005
11
377.867094086376
21
1859.24278973954
31
8.91465513853101e-005
  0
LINE
 8
GROUP0
10
377.867094086376
20
1859.24278973954
30
8.91465513853101e-005
11
375.269017875027
21
1857.74278973954
31
8.53584076602071e-005
  0
LINE
 8
GROUP0
10
375.269017875027
20
1857.74278973954
30
8.53584076602071e-005
11
372.670941663678
21
1859.24278973954
31
8.0312939060489e-005
  0
LINE
 8
GROUP0
10
372.670941663678
20
1859.24278973954
30
8.0312939060489e-005
11
372.67094166368
21
1862.24278973954
31
7.90556140505155e-005
  0
LINE
 8
GROUP0
10
390.161310507534
20
1866.34086655063
30
0.000112590110598331
11
387.563234296185
21
1864.84086655063
31
0.000108801967504901
  0
LINE
 8
GROUP0
10
387.563234296185
20
1864.84086655063
30
0.000108801967504901
11
384.965158084836
21
1866.34086655063
31
0.000103756498183271
  0
LINE
 8
GROUP0
10
384.965158084836
20
1866.34086655063
30
0.000103756498183271
11
384.965158084837
21
1869.34086655063
31
0.000102499173759851
  0
LINE
 8
GROUP0
10
384.965158084837
20
1869.34086655063
30
0.000102499173759851
11
387.563234296188
21
1870.84086655063
31
0.000106287318567821
  0
LINE
 8
GROUP0
10
387.563234296188
20
1870.84086655063
30
0.000106287318567821
11
390.161310507537
21
1869.34086655063
31
0.000111332786716344
  0
LINE
 8
GROUP0
10
390.161310507537
20
1869.34086655063
30
0.000111332786716344
11
390.161310507534
21
1866.34086655063
31
0.000112590110598331
  0
LINE
 8
GROUP0
10
354.778642012201
20
1856.64470530034
30
6.61454649013232e-005
11
357.37671822355
21
1855.14470530034
31
7.11909328693688e-005
  0
LINE
 8
GROUP0
10
357.37671822355
20
1855.14470530034
30
7.11909328693688e-005
11
357.376718223548
21
1852.14470530034
31
7.24482574732671e-005
  0
LINE
 8
GROUP0
10
357.376718223548
20
1852.14470530034
30
7.24482574732671e-005
11
354.778642012198
21
1850.64470530034
31
6.86601141993587e-005
  0
LINE
 8
GROUP0
10
354.778642012198
20
1850.64470530034
30
6.86601141993587e-005
11
352.180565800849
21
1852.14470530034
31
6.36146449679681e-005
  0
LINE
 8
GROUP0
10
352.180565800849
20
1852.14470530034
30
6.36146449679681e-005
11
352.180565800852
21
1855.14470530034
31
6.23573208152645e-005
  0
LINE
 8
GROUP0
10
352.180565800852
20
1855.14470530034
30
6.23573208152645e-005
11
354.778642012201
21
1856.64470530034
31
6.61454649013232e-005
  0
LINE
 8
GROUP0
10
340.98442662979
20
1840.94855287769
30
4.62592188235628e-005
11
340.984426629788
21
1837.94855287769
31
4.75165436981778e-005
  0
LINE
 8
GROUP0
10
340.984426629788
20
1837.94855287769
30
4.75165436981778e-005
11
338.386350418439
21
1836.44855287769
31
4.37283987999687e-005
  0
LINE
 8
GROUP0
10
338.386350418439
20
1836.44855287769
30
4.37283987999687e-005
11
335.78827420709
21
1837.94855287769
31
3.86829304709674e-005
  0
LINE
 8
GROUP0
10
335.78827420709
20
1837.94855287769
30
3.86829304709674e-005
11
335.788274207092
21
1840.94855287769
31
3.7425605957308e-005
  0
LINE
 8
GROUP0
10
335.788274207092
20
1840.94855287769
30
3.7425605957308e-005
11
338.386350418443
21
1842.44855287769
31
4.12137502238446e-005
  0
LINE
 8
GROUP0
10
338.386350418443
20
1842.44855287769
30
4.12137502238446e-005
11
340.98442662979
21
1840.94855287769
31
4.62592188235628e-005
  0
LINE
 8
GROUP0
10
379.367093047559
20
1870.84086655065
30
8.4517385142801e-005
11
381.965169258907
21
1869.34086655065
31
8.95628536522802e-005
  0
LINE
 8
GROUP0
10
381.965169258907
20
1869.34086655065
30
8.95628536522802e-005
11
381.965169258904
21
1866.34086655065
31
9.08201782561785e-005
  0
LINE
 8
GROUP0
10
381.965169258904
20
1866.34086655065
30
9.08201782561785e-005
11
379.367093047555
21
1864.84086655065
31
8.70320333579694e-005
  0
LINE
 8
GROUP0
10
379.367093047555
20
1864.84086655065
30
8.70320333579694e-005
11
376.769016836207
21
1866.34086655065
31
8.19865656606405e-005
  0
LINE
 8
GROUP0
10
376.769016836207
20
1866.34086655065
30
8.19865656606405e-005
11
376.769016836208
21
1869.34086655065
31
8.07292407860255e-005
  0
LINE
 8
GROUP0
10
376.769016836208
20
1869.34086655065
30
8.07292407860255e-005
11
379.367093047559
21
1870.84086655065
31
8.4517385142801e-005
  0
LINE
 8
GROUP0
10
373.769018913783
20
1852.14471412798
30
9.08201783012979e-005
11
371.170942702433
21
1850.64471412798
31
8.70320340347613e-005
  0
LINE
 8
GROUP0
10
371.170942702433
20
1850.64471412798
30
8.70320340347613e-005
11
368.572866491085
21
1852.14471412798
31
8.19865660667157e-005
  0
LINE
 8
GROUP0
10
368.572866491085
20
1852.14471412798
30
8.19865660667157e-005
11
368.572866491087
21
1855.14471412798
31
8.07292412823396e-005
  0
LINE
 8
GROUP0
10
368.572866491087
20
1855.14471412798
30
8.07292412823396e-005
11
371.170942702437
21
1856.64471412798
31
8.45173850074427e-005
  0
LINE
 8
GROUP0
10
371.170942702437
20
1856.64471412798
30
8.45173850074427e-005
11
373.769018913785
21
1855.14471412798
31
8.95628535169218e-005
  0
LINE
 8
GROUP0
10
373.769018913785
20
1855.14471412798
30
8.95628535169218e-005
11
373.769018913783
21
1852.14471412798
31
9.08201783012979e-005
  0
LINE
 8
GROUP0
10
402.455551354451
20
1845.04663731685
30
5.45586579371199e-005
11
399.857475143097
21
1843.54663731685
31
5.42473632358148e-005
  0
LINE
 8
GROUP0
10
399.857475143097
20
1843.54663731685
30
5.42473632358148e-005
11
397.259398931745
21
1845.04663731685
31
5.19425654659339e-005
  0
LINE
 8
GROUP0
10
397.259398931745
20
1845.04663731685
30
5.19425654659339e-005
11
397.259398931747
21
1848.04663731685
31
4.99490605925795e-005
  0
LINE
 8
GROUP0
10
397.259398931747
20
1848.04663731685
30
4.99490605925795e-005
11
399.857475143101
21
1849.54663731685
31
5.02603545719732e-005
  0
LINE
 8
GROUP0
10
399.857475143101
20
1849.54663731685
30
5.02603545719732e-005
11
402.455551354453
21
1848.04663731685
31
5.25651532442434e-005
  0
LINE
 8
GROUP0
10
402.455551354453
20
1848.04663731685
30
5.25651532442434e-005
11
402.455551354451
21
1845.04663731685
31
5.45586579371199e-005
  0
LINE
 8
GROUP0
10
393.16130842996
20
1855.14471412796
30
0.000102499174256165
11
395.75938464131
21
1856.64471412796
31
0.000106287318342224
  0
LINE
 8
GROUP0
10
395.75938464131
20
1856.64471412796
30
0.000106287318342224
11
398.357460852659
21
1855.14471412796
31
0.000111332786310269
  0
LINE
 8
GROUP0
10
398.357460852659
20
1855.14471412796
30
0.000111332786310269
11
398.357460852656
21
1852.14471412796
31
0.000112590110914167
  0
LINE
 8
GROUP0
10
398.357460852656
20
1852.14471412796
30
0.000112590110914167
11
395.759384641306
21
1850.64471412796
31
0.000108801967640259
  0
LINE
 8
GROUP0
10
395.759384641306
20
1850.64471412796
30
0.000108801967640259
11
393.161308429958
21
1852.14471412796
31
0.000103756498408868
  0
LINE
 8
GROUP0
10
393.161308429958
20
1852.14471412796
30
0.000103756498408868
11
393.16130842996
21
1855.14471412796
31
0.000102499174256165
  0
LINE
 8
GROUP0
10
402.455551354473
20
1859.24278973954
30
8.91465513853101e-005
11
399.857475143122
21
1857.74278973954
31
8.53584076602071e-005
  0
LINE
 8
GROUP0
10
399.857475143122
20
1857.74278973954
30
8.53584076602071e-005
11
397.259398931774
21
1859.24278973954
31
8.0312939060489e-005
  0
LINE
 8
GROUP0
10
397.259398931774
20
1859.24278973954
30
8.0312939060489e-005
11
397.259398931776
21
1862.24278973954
31
7.9055614095635e-005
  0
LINE
 8
GROUP0
10
397.259398931776
20
1862.24278973954
30
7.9055614095635e-005
11
399.857475143126
21
1863.74278973954
31
8.28437583621716e-005
  0
LINE
 8
GROUP0
10
399.857475143126
20
1863.74278973954
30
8.28437583621716e-005
11
402.455551354475
21
1862.24278973954
31
8.78892272326065e-005
  0
LINE
 8
GROUP0
10
402.455551354475
20
1862.24278973954
30
8.78892272326065e-005
11
402.455551354473
21
1859.24278973954
31
8.91465513853101e-005
  0
LINE
 8
GROUP0
10
349.180567878419
20
1840.94855287767
30
6.8029151797388e-005
11
349.180567878417
21
1837.94855287767
31
6.92864763110473e-005
  0
LINE
 8
GROUP0
10
349.180567878417
20
1837.94855287767
30
6.92864763110473e-005
11
346.582491667068
21
1836.44855287767
31
6.5498331683555e-005
  0
LINE
 8
GROUP0
10
346.582491667068
20
1836.44855287767
30
6.5498331683555e-005
11
343.984415455719
21
1837.94855287767
31
6.04528635350315e-005
  0
LINE
 8
GROUP0
10
343.984415455719
20
1837.94855287767
30
6.04528635350315e-005
11
343.984415455721
21
1840.94855287767
31
5.91955386604165e-005
  0
LINE
 8
GROUP0
10
343.984415455721
20
1840.94855287767
30
5.91955386604165e-005
11
346.582491667072
21
1842.44855287767
31
6.29836833781477e-005
  0
LINE
 8
GROUP0
10
346.582491667072
20
1842.44855287767
30
6.29836833781477e-005
11
349.180567878419
21
1840.94855287767
31
6.8029151797388e-005
  0
LINE
 8
GROUP0
10
369.670961148035
20
1845.04662848923
30
4.60959653244496e-006
11
367.072884936682
21
1843.54662848923
31
4.29830282376807e-006
  0
LINE
 8
GROUP0
10
367.072884936682
20
1843.54662848923
30
4.29830282376807e-006
11
364.47480872533
21
1845.04662848923
31
1.99350478317038e-006
  0
LINE
 8
GROUP0
10
364.47480872533
20
1845.04662848923
30
1.99350478317038e-006
11
364.474808725332
21
1848.04662848923
31
5.4943003881887e-017
  0
LINE
 8
GROUP0
10
364.474808725332
20
1848.04662848923
30
5.4943003881887e-017
11
367.072884936685
21
1849.54662848923
31
3.11293889209683e-007
  0
LINE
 8
GROUP0
10
367.072884936685
20
1849.54662848923
30
3.11293889209683e-007
11
369.670961148037
21
1848.04662848923
31
2.61609265171879e-006
  0
LINE
 8
GROUP0
10
369.670961148037
20
1848.04662848923
30
2.61609265171879e-006
11
369.670961148035
21
1845.04662848923
31
4.60959653244496e-006
  0
LINE
 8
GROUP0
10
345.082503879959
20
1848.04662848925
30
3.20377146480249e-005
11
345.082503879957
21
1845.04662848925
31
3.40312191604236e-005
  0
LINE
 8
GROUP0
10
345.082503879957
20
1845.04662848925
30
3.40312191604236e-005
11
342.484427668604
21
1843.54662848925
31
3.37199251810299e-005
  0
LINE
 8
GROUP0
10
342.484427668604
20
1843.54662848925
30
3.37199251810299e-005
11
339.886351457251
21
1845.04662848925
31
3.14151267794765e-005
  0
LINE
 8
GROUP0
10
339.886351457251
20
1845.04662848925
30
3.14151267794765e-005
11
339.886351457253
21
1848.04662848925
31
2.94216219061222e-005
  0
LINE
 8
GROUP0
10
339.886351457253
20
1848.04662848925
30
2.94216219061222e-005
11
342.484427668607
21
1849.54662848925
31
2.97329160659937e-005
  0
LINE
 8
GROUP0
10
342.484427668607
20
1849.54662848925
30
2.97329160659937e-005
11
345.082503879959
21
1848.04662848925
31
3.20377146480249e-005
  0
LINE
 8
GROUP0
10
367.072884936713
20
1857.74278091193
30
4.52165542193067e-005
11
364.474808725364
21
1859.24278091193
31
4.01710856195886e-005
  0
LINE
 8
GROUP0
10
364.474808725364
20
1859.24278091193
30
4.01710856195886e-005
11
364.474808725367
21
1862.24278091193
31
3.89137606096151e-005
  0
LINE
 8
GROUP0
10
364.474808725367
20
1862.24278091193
30
3.89137606096151e-005
11
367.072884936717
21
1863.74278091193
31
4.27019048761518e-005
  0
LINE
 8
GROUP0
10
367.072884936717
20
1863.74278091193
30
4.27019048761518e-005
11
369.670961148064
21
1862.24278091193
31
4.77473737465866e-005
  0
LINE
 8
GROUP0
10
369.670961148064
20
1862.24278091193
30
4.77473737465866e-005
11
369.670961148062
21
1859.24278091193
31
4.90046979444097e-005
  0
LINE
 8
GROUP0
10
369.670961148062
20
1859.24278091193
30
4.90046979444097e-005
11
367.072884936713
21
1857.74278091193
31
4.52165542193067e-005
  0
LINE
 8
GROUP0
10
376.769016836209
20
1855.14471412798
30
8.07292412823396e-005
11
379.367093047559
21
1856.64471412798
31
8.45173850074427e-005
  0
LINE
 8
GROUP0
10
379.367093047559
20
1856.64471412798
30
8.45173850074427e-005
11
381.965169258907
21
1855.14471412798
31
8.95628534266829e-005
  0
LINE
 8
GROUP0
10
381.965169258907
20
1855.14471412798
30
8.95628534266829e-005
11
381.965169258905
21
1852.14471412798
31
9.08201783012979e-005
  0
LINE
 8
GROUP0
10
381.965169258905
20
1852.14471412798
30
9.08201783012979e-005
11
379.367093047555
21
1850.64471412798
31
8.70320339445224e-005
  0
LINE
 8
GROUP0
10
379.367093047555
20
1850.64471412798
30
8.70320339445224e-005
11
376.769016836207
21
1852.14471412798
31
8.19865660667157e-005
  0
LINE
 8
GROUP0
10
376.769016836207
20
1852.14471412798
30
8.19865660667157e-005
11
376.769016836209
21
1855.14471412798
31
8.07292412823396e-005
  0
LINE
 8
GROUP0
10
405.45555135444
20
1848.04663731684
30
4.01418534409553e-005
11
408.053627565794
21
1849.54663731684
31
4.04531473301101e-005
  0
LINE
 8
GROUP0
10
408.053627565794
20
1849.54663731684
30
4.04531473301101e-005
11
410.651703777145
21
1848.04663731684
31
4.27579460926192e-005
  0
LINE
 8
GROUP0
10
410.651703777145
20
1848.04663731684
30
4.27579460926192e-005
11
410.651703777143
21
1845.04663731684
31
4.47514499733453e-005
  0
LINE
 8
GROUP0
10
410.651703777143
20
1845.04663731684
30
4.47514499733453e-005
11
408.05362756579
21
1843.54663731684
31
4.44401562646685e-005
  0
LINE
 8
GROUP0
10
408.05362756579
20
1843.54663731684
30
4.44401562646685e-005
11
405.455551354438
21
1845.04663731684
31
4.21353582240708e-005
  0
LINE
 8
GROUP0
10
405.455551354438
20
1845.04663731684
30
4.21353582240708e-005
11
405.45555135444
21
1848.04663731684
31
4.01418534409553e-005
  0
LINE
 8
GROUP0
10
362.974792357312
20
1842.44855729149
30
7.21696431604907e-005
11
365.572868568659
21
1840.94855729149
31
7.72151118504477e-005
  0
LINE
 8
GROUP0
10
365.572868568659
20
1840.94855729149
30
7.72151118504477e-005
11
365.572868568658
21
1837.94855729149
31
7.84724359129124e-005
  0
LINE
 8
GROUP0
10
365.572868568658
20
1837.94855729149
30
7.84724359129124e-005
11
362.974792357307
21
1836.44855729149
31
7.46842922780483e-005
  0
LINE
 8
GROUP0
10
362.974792357307
20
1836.44855729149
30
7.46842922780483e-005
11
360.376716145959
21
1837.94855729149
31
6.96388229564188e-005
  0
LINE
 8
GROUP0
10
360.376716145959
20
1837.94855729149
30
6.96388229564188e-005
11
360.376716145961
21
1840.94855729149
31
6.83814994353876e-005
  0
LINE
 8
GROUP0
10
360.376716145961
20
1840.94855729149
30
6.83814994353876e-005
11
362.974792357312
21
1842.44855729149
31
7.21696431604907e-005
  0
LINE
 8
GROUP0
10
349.180567878428
20
1855.14470530034
30
7.11909329596078e-005
11
349.180567878425
21
1852.14470530034
31
7.24482574732671e-005
  0
LINE
 8
GROUP0
10
349.180567878425
20
1852.14470530034
30
7.24482574732671e-005
11
346.582491667076
21
1850.64470530034
31
6.86601141993587e-005
  0
LINE
 8
GROUP0
10
346.582491667076
20
1850.64470530034
30
6.86601141993587e-005
11
343.984415455727
21
1852.14470530034
31
6.36146449679681e-005
  0
LINE
 8
GROUP0
10
343.984415455727
20
1852.14470530034
30
6.36146449679681e-005
11
343.984415455729
21
1855.14470530034
31
6.23573205445477e-005
  0
LINE
 8
GROUP0
10
343.984415455729
20
1855.14470530034
30
6.23573205445477e-005
11
346.58249166708
21
1856.64470530034
31
6.61454649013232e-005
  0
LINE
 8
GROUP0
10
346.58249166708
20
1856.64470530034
30
6.61454649013232e-005
11
349.180567878428
21
1855.14470530034
31
7.11909329596078e-005
  0
LINE
 8
GROUP0
10
389.063246509052
20
1845.04663731686
30
6.17497724370802e-005
11
389.063246509054
21
1848.04663731686
31
5.97562681953984e-005
  0
LINE
 8
GROUP0
10
389.063246509054
20
1848.04663731686
30
5.97562681953984e-005
11
391.661322720407
21
1849.54663731685
31
6.0067562174792e-005
  0
LINE
 8
GROUP0
10
391.661322720407
20
1849.54663731685
30
6.0067562174792e-005
11
394.25939893176
21
1848.04663731685
31
6.23723606665843e-005
  0
LINE
 8
GROUP0
10
394.25939893176
20
1848.04663731685
30
6.23723606665843e-005
11
394.259398931759
21
1845.04663731686
31
6.43658648180273e-005
  0
LINE
 8
GROUP0
10
394.259398931759
20
1845.04663731686
30
6.43658648180273e-005
11
391.661322720404
21
1843.54663731686
31
6.40545707483947e-005
  0
LINE
 8
GROUP0
10
391.661322720404
20
1843.54663731686
30
6.40545707483947e-005
11
389.063246509052
21
1845.04663731686
31
6.17497724370802e-005
  0
LINE
 8
GROUP0
10
401.357458775078
20
1855.14471854177
30
0.000111685134218986
11
403.955534986427
21
1856.64471854177
31
0.000115473278395283
  0
LINE
 8
GROUP0
10
403.955534986427
20
1856.64471854177
30
0.000115473278395283
11
406.553611197776
21
1855.14471854177
31
0.000120518746814524
  0
LINE
 8
GROUP0
10
406.553611197776
20
1855.14471854177
30
0.000120518746814524
11
406.553611197774
21
1852.14471854177
31
0.0001217760715989
  0
LINE
 8
GROUP0
10
406.553611197774
20
1852.14471854177
30
0.0001217760715989
11
403.955534986424
21
1850.64471854177
31
0.000117987927422602
  0
LINE
 8
GROUP0
10
403.955534986424
20
1850.64471854177
30
0.000117987927422602
11
401.357458775075
21
1852.14471854177
31
0.000112942458191211
  0
LINE
 8
GROUP0
10
401.357458775075
20
1852.14471854177
30
0.000112942458191211
11
401.357458775078
21
1855.14471854177
31
0.000111685134218986
  0
LINE
 8
GROUP0
10
405.455551354473
20
1859.24278973954
30
8.0312939060489e-005
11
405.455551354475
21
1862.24278973954
31
7.9055614095635e-005
  0
LINE
 8
GROUP0
10
405.455551354475
20
1862.24278973954
30
7.9055614095635e-005
11
408.053627565825
21
1863.74278973954
31
8.28437583621716e-005
  0
LINE
 8
GROUP0
10
408.053627565825
20
1863.74278973954
30
8.28437583621716e-005
11
410.651703777173
21
1862.24278973954
31
8.78892272326065e-005
  0
LINE
 8
GROUP0
10
410.651703777173
20
1862.24278973954
30
8.78892272326065e-005
11
410.651703777171
21
1859.24278973954
31
8.91465513853101e-005
  0
LINE
 8
GROUP0
10
410.651703777171
20
1859.24278973954
30
8.91465513853101e-005
11
408.053627565821
21
1857.74278973954
31
8.53584076602071e-005
  0
LINE
 8
GROUP0
10
408.053627565821
20
1857.74278973954
30
8.53584076602071e-005
11
405.455551354473
21
1859.24278973954
31
8.0312939060489e-005
  0
LINE
 8
GROUP0
10
332.788276284669
20
1840.94855287769
30
4.62592189138017e-005
11
332.788276284667
21
1837.94855287769
31
4.75165436079389e-005
  0
LINE
 8
GROUP0
10
332.788276284667
20
1837.94855287769
30
4.75165436079389e-005
11
330.190200073316
21
1836.44855287769
31
4.37283987999687e-005
  0
LINE
 8
GROUP0
10
330.190200073316
20
1836.44855287769
30
4.37283987999687e-005
11
327.592123861967
21
1837.94855287769
31
3.86829304709674e-005
  0
LINE
 8
GROUP0
10
327.592123861967
20
1837.94855287769
30
3.86829304709674e-005
11
327.59212386197
21
1840.94855287769
31
3.7425606047547e-005
  0
LINE
 8
GROUP0
10
327.59212386197
20
1840.94855287769
30
3.7425606047547e-005
11
330.190200073321
21
1842.44855287769
31
4.12137509457561e-005
  0
LINE
 8
GROUP0
10
330.190200073321
20
1842.44855287769
30
4.12137509457561e-005
11
332.788276284669
21
1840.94855287769
31
4.62592189138017e-005
  0
LINE
 8
GROUP0
10
349.180567878426
20
1866.34085772302
30
7.24482571574309e-005
11
346.582491667076
21
1864.84085772302
31
6.86601140640003e-005
  0
LINE
 8
GROUP0
10
346.582491667076
20
1864.84085772302
30
6.86601140640003e-005
11
343.984415455727
21
1866.34085772302
31
6.36146447423708e-005
  0
LINE
 8
GROUP0
10
343.984415455727
20
1866.34085772302
30
6.36146447423708e-005
11
343.984415455728
21
1869.34085772302
31
6.23573203189503e-005
  0
LINE
 8
GROUP0
10
343.984415455728
20
1869.34085772302
30
6.23573203189503e-005
11
346.58249166708
21
1870.84085772302
31
6.61454651269205e-005
  0
LINE
 8
GROUP0
10
346.58249166708
20
1870.84085772302
30
6.61454651269205e-005
11
349.180567878428
21
1869.34085772302
31
7.1190933275444e-005
  0
LINE
 8
GROUP0
10
349.180567878428
20
1869.34085772302
30
7.1190933275444e-005
11
349.180567878426
21
1866.34085772302
31
7.24482571574309e-005
  0
LINE
 8
GROUP0
10
338.38635041845
20
1870.84085772304
30
4.43755317019007e-005
11
340.984426629799
21
1869.34085772304
31
4.94210002113798e-005
  0
LINE
 8
GROUP0
10
340.984426629799
20
1869.34085772304
30
4.94210002113798e-005
11
340.984426629796
21
1866.34085772304
31
5.06783248152781e-005
  0
LINE
 8
GROUP0
10
340.984426629796
20
1866.34085772304
30
5.06783248152781e-005
11
338.386350418446
21
1864.84085772304
31
4.6890179917069e-005
  0
LINE
 8
GROUP0
10
338.386350418446
20
1864.84085772304
30
4.6890179917069e-005
11
335.788274207098
21
1866.34085772304
31
4.18447122197402e-005
  0
LINE
 8
GROUP0
10
335.788274207098
20
1866.34085772304
30
4.18447122197402e-005
11
335.7882742071
21
1869.34085772304
31
4.05873873451251e-005
  0
LINE
 8
GROUP0
10
335.7882742071
20
1869.34085772304
30
4.05873873451251e-005
11
338.38635041845
21
1870.84085772304
31
4.43755317019007e-005
  0
LINE
 8
GROUP0
10
330.190200073328
20
1870.84085772304
30
4.43755317019007e-005
11
332.788276284677
21
1869.34085772304
31
4.94210002113798e-005
  0
LINE
 8
GROUP0
10
332.788276284677
20
1869.34085772304
30
4.94210002113798e-005
11
332.788276284675
21
1866.34085772304
31
5.06783248152781e-005
  0
LINE
 8
GROUP0
10
332.788276284675
20
1866.34085772304
30
5.06783248152781e-005
11
330.190200073324
21
1864.84085772304
31
4.6890179917069e-005
  0
LINE
 8
GROUP0
10
330.190200073324
20
1864.84085772304
30
4.6890179917069e-005
11
327.592123861976
21
1866.34085772304
31
4.18447122197402e-005
  0
LINE
 8
GROUP0
10
327.592123861976
20
1866.34085772304
30
4.18447122197402e-005
11
327.592123861978
21
1869.34085772304
31
4.0587387435364e-005
  0
LINE
 8
GROUP0
10
327.592123861978
20
1869.34085772304
30
4.0587387435364e-005
11
330.190200073328
21
1870.84085772304
31
4.43755317019007e-005
  0
LINE
 8
GROUP0
10
356.278656302666
20
1859.24278091193
30
4.01710855744691e-005
11
356.278656302668
21
1862.24278091193
31
3.89137606096151e-005
  0
LINE
 8
GROUP0
10
356.278656302668
20
1862.24278091193
30
3.89137606096151e-005
11
358.876732514018
21
1863.74278091193
31
4.27019048761518e-005
  0
LINE
 8
GROUP0
10
358.876732514018
20
1863.74278091193
30
4.27019048761518e-005
11
361.474808725366
21
1862.24278091193
31
4.77473737465866e-005
  0
LINE
 8
GROUP0
10
361.474808725366
20
1862.24278091193
30
4.77473737465866e-005
11
361.474808725364
21
1859.24278091193
31
4.90046978992903e-005
  0
LINE
 8
GROUP0
10
361.474808725364
20
1859.24278091193
30
4.90046978992903e-005
11
358.876732514014
21
1857.74278091193
31
4.52165542193067e-005
  0
LINE
 8
GROUP0
10
358.876732514014
20
1857.74278091193
30
4.52165542193067e-005
11
356.278656302666
21
1859.24278091193
31
4.01710855744691e-005
  0
LINE
 8
GROUP0
10
365.572868568668
20
1869.34086213683
30
8.03768932382648e-005
11
365.572868568666
21
1866.34086213684
31
8.16342180226409e-005
  0
LINE
 8
GROUP0
10
365.572868568666
20
1866.34086213684
30
8.16342180226409e-005
11
362.974792357316
21
1864.84086213684
31
7.78460731244318e-005
  0
LINE
 8
GROUP0
10
362.974792357316
20
1864.84086213684
30
7.78460731244318e-005
11
360.376716145967
21
1866.34086213684
31
7.28006044344748e-005
  0
LINE
 8
GROUP0
10
360.376716145967
20
1866.34086213684
30
7.28006044344748e-005
11
360.376716145969
21
1869.34086213684
31
7.15432802817711e-005
  0
LINE
 8
GROUP0
10
360.376716145969
20
1869.34086213684
30
7.15432802817711e-005
11
362.974792357319
21
1870.84086213683
31
7.53314249995024e-005
  0
LINE
 8
GROUP0
10
362.974792357319
20
1870.84086213683
30
7.53314249995024e-005
11
365.572868568668
21
1869.34086213683
31
8.03768932382648e-005
  0
LINE
 8
GROUP0
10
362.974792357319
20
1856.64470971416
30
7.53314249543829e-005
11
365.572868568668
21
1855.14470971416
31
8.03768933736232e-005
  0
LINE
 8
GROUP0
10
365.572868568668
20
1855.14470971416
30
8.03768933736232e-005
11
365.572868568666
21
1852.14470971416
31
8.16342181579993e-005
  0
LINE
 8
GROUP0
10
365.572868568666
20
1852.14470971416
30
8.16342181579993e-005
11
362.974792357316
21
1850.64470971416
31
7.78460739817016e-005
  0
LINE
 8
GROUP0
10
362.974792357316
20
1850.64470971416
30
7.78460739817016e-005
11
360.376716145967
21
1852.14470971416
31
7.2800604750311e-005
  0
LINE
 8
GROUP0
10
360.376716145967
20
1852.14470971416
30
7.2800604750311e-005
11
360.376716145969
21
1855.14470971416
31
7.15432807780852e-005
  0
LINE
 8
GROUP0
10
360.376716145969
20
1855.14470971416
30
7.15432807780852e-005
11
362.974792357319
21
1856.64470971416
31
7.53314249543829e-005
  0
LINE
 8
GROUP0
10
345.082503879967
20
1859.24278091193
30
4.90046978992903e-005
11
342.484427668617
21
1857.74278091193
31
4.52165541741872e-005
  0
LINE
 8
GROUP0
10
342.484427668617
20
1857.74278091193
30
4.52165541741872e-005
11
339.886351457268
21
1859.24278091193
31
4.01710855744691e-005
  0
LINE
 8
GROUP0
10
339.886351457268
20
1859.24278091193
30
4.01710855744691e-005
11
339.886351457271
21
1862.24278091193
31
3.89137606096151e-005
  0
LINE
 8
GROUP0
10
339.886351457271
20
1862.24278091193
30
3.89137606096151e-005
11
342.48442766862
21
1863.74278091193
31
4.2701904605435e-005
  0
LINE
 8
GROUP0
10
342.48442766862
20
1863.74278091193
30
4.2701904605435e-005
11
345.082503879969
21
1862.24278091193
31
4.77473737465866e-005
  0
LINE
 8
GROUP0
10
345.082503879969
20
1862.24278091193
30
4.77473737465866e-005
11
345.082503879967
21
1859.24278091193
31
4.90046978992903e-005
  0
LINE
 8
GROUP0
10
348.08250387997
20
1862.24278091193
30
3.89137606096151e-005
11
350.680580091319
21
1863.74278091193
31
4.27019048761518e-005
  0
LINE
 8
GROUP0
10
350.680580091319
20
1863.74278091193
30
4.27019048761518e-005
11
353.278656302668
21
1862.24278091193
31
4.77473737465866e-005
  0
LINE
 8
GROUP0
10
353.278656302668
20
1862.24278091193
30
4.77473737465866e-005
11
353.278656302666
21
1859.24278091193
31
4.90046978992903e-005
  0
LINE
 8
GROUP0
10
353.278656302666
20
1859.24278091193
30
4.90046978992903e-005
11
350.680580091315
21
1857.74278091193
31
4.52165541741872e-005
  0
LINE
 8
GROUP0
10
350.680580091315
20
1857.74278091193
30
4.52165541741872e-005
11
348.082503879966
21
1859.24278091193
31
4.01710855744691e-005
  0
LINE
 8
GROUP0
10
348.082503879966
20
1859.24278091193
30
4.01710855744691e-005
11
348.08250387997
21
1862.24278091193
31
3.89137606096151e-005
  0
LINE
 8
GROUP0
10
327.592123861978
20
1855.14470530037
30
4.05873877963197e-005
11
330.190200073328
21
1856.64470530037
31
4.43755315214228e-005
  0
LINE
 8
GROUP0
10
330.190200073328
20
1856.64470530037
30
4.43755315214228e-005
11
332.788276284677
21
1855.14470530037
31
4.9421000030902e-005
  0
LINE
 8
GROUP0
10
332.788276284677
20
1855.14470530037
30
4.9421000030902e-005
11
332.788276284675
21
1852.14470530037
31
5.06783248603976e-005
  0
LINE
 8
GROUP0
10
332.788276284675
20
1852.14470530037
30
5.06783248603976e-005
11
330.190200073324
21
1850.64470530037
31
4.6890180593861e-005
  0
LINE
 8
GROUP0
10
330.190200073324
20
1850.64470530037
30
4.6890180593861e-005
11
327.592123861976
21
1852.14470530037
31
4.18447126258153e-005
  0
LINE
 8
GROUP0
10
327.592123861976
20
1852.14470530037
30
4.18447126258153e-005
11
327.592123861978
21
1855.14470530037
31
4.05873877963197e-005
  0
LINE
 8
GROUP0
10
352.180565800852
20
1869.34085772302
30
6.23573202287114e-005
11
354.778642012201
21
1870.84085772302
31
6.61454651269205e-005
  0
LINE
 8
GROUP0
10
354.778642012201
20
1870.84085772302
30
6.61454651269205e-005
11
357.37671822355
21
1869.34085772302
31
7.11909331852051e-005
  0
LINE
 8
GROUP0
10
357.37671822355
20
1869.34085772302
30
7.11909331852051e-005
11
357.376718223548
21
1866.34085772302
31
7.24482571574309e-005
  0
LINE
 8
GROUP0
10
357.376718223548
20
1866.34085772302
30
7.24482571574309e-005
11
354.778642012198
21
1864.84085772302
31
6.86601140640003e-005
  0
LINE
 8
GROUP0
10
354.778642012198
20
1864.84085772302
30
6.86601140640003e-005
11
352.180565800849
21
1866.34085772302
31
6.36146447423708e-005
  0
LINE
 8
GROUP0
10
352.180565800849
20
1866.34085772302
30
6.36146447423708e-005
11
352.180565800852
21
1869.34085772302
31
6.23573202287114e-005
  0
LINE
 8
GROUP0
10
331.690199034572
20
1862.24278091193
30
3.89137606096151e-005
11
334.288275245922
21
1863.74278091193
31
4.27019048761518e-005
  0
LINE
 8
GROUP0
10
334.288275245922
20
1863.74278091193
30
4.27019048761518e-005
11
336.886351457271
21
1862.24278091193
31
4.77473737465866e-005
  0
LINE
 8
GROUP0
10
336.886351457271
20
1862.24278091193
30
4.77473737465866e-005
11
336.886351457268
21
1859.24278091193
31
4.90046978992903e-005
  0
LINE
 8
GROUP0
10
336.886351457268
20
1859.24278091193
30
4.90046978992903e-005
11
334.288275245918
21
1857.74278091193
31
4.52165541741872e-005
  0
LINE
 8
GROUP0
10
334.288275245918
20
1857.74278091193
30
4.52165541741872e-005
11
331.69019903457
21
1859.24278091193
31
4.01710855744691e-005
  0
LINE
 8
GROUP0
10
331.69019903457
20
1859.24278091193
30
4.01710855744691e-005
11
331.690199034572
21
1862.24278091193
31
3.89137606096151e-005
 0
ENDSEC
 0
EOF
