 0
SECTION
 2
ENTITIES
  0
LINE
 8
GROUP0
10
204.81529264672
20
1858.2363929177
30
1.02630375831969e-005
11
204.427064079067
21
1858.28750417826
31
1.02641146877247e-005
  0
LINE
 8
GROUP0
10
203.315292646722
20
1859.7363929177
30
1.02946481575161e-005
11
203.366403907288
21
1860.12462148535
31
1.03028295761087e-005
  0
LINE
 8
GROUP0
10
203.75463247494
20
1860.79705308948
30
1.0317000208715e-005
11
204.065292646722
21
1861.03543102337
31
1.03220237181567e-005
  0
LINE
 8
GROUP0
10
212.39103746636
20
1854.47041791922
30
1.01836744959227e-005
11
215.442317964865
21
1852.36800283438
31
1.01393687969797e-005
  0
LINE
 8
GROUP0
10
203.754632474941
20
1858.67573274592
30
1.02722961063173e-005
11
203.516254541045
21
1858.9863929177
31
1.0278842870709e-005
  0
LINE
 8
GROUP0
10
220.898738796248
20
1840.08290809638
30
9.8804761982707e-006
11
221.530176105334
21
1840.14866012579
31
9.88186183815132e-006
  0
LINE
 8
GROUP0
10
204.427064079069
20
1861.18528165713
30
1.03251816273076e-005
11
204.815292646722
21
1861.2363929177
31
1.03262587318353e-005
  0
LINE
 8
GROUP0
10
235.978179457022
20
1841.17248481757
30
9.90343762871659e-006
11
237.274528982473
21
1841.89050990588
31
9.91856908594269e-006
  0
LINE
 8
GROUP0
10
217.630685808493
20
1845.48808413989
30
9.99438334339242e-006
11
217.375894548727
21
1844.90660411364
31
9.98212939899989e-006
  0
LINE
 8
GROUP0
10
230.446256162955
20
1840.37741607672
30
9.88668257578817e-006
11
230.246627332998
21
1839.85318511969
31
9.87563508144107e-006
  0
LINE
 8
GROUP0
10
231.726008894277
20
1839.93982070929
30
9.87746081516083e-006
11
232.900825025869
21
1840.14187759406
31
9.88171890462519e-006
  0
LINE
 8
GROUP0
10
205.565292646721
20
1861.03543102337
30
1.03220237181567e-005
11
205.875952818501
21
1860.79705308948
31
1.0317000208715e-005
  0
LINE
 8
GROUP0
10
203.516254541045
20
1860.4863929177
30
1.03104534450282e-005
11
203.75463247494
21
1860.79705308948
31
1.0317000208715e-005
  0
LINE
 8
GROUP0
10
204.065292646722
20
1861.03543102337
30
1.03220237181567e-005
11
204.427064079069
21
1861.18528165713
31
1.03251816273076e-005
  0
LINE
 8
GROUP0
10
206.114330752399
20
1860.4863929177
30
1.03104534450282e-005
11
206.264181386156
21
1860.12462148535
31
1.03028295761087e-005
  0
LINE
 8
GROUP0
10
206.315292646721
20
1859.7363929177
30
1.02946481575161e-005
11
206.264181386154
21
1859.34816435004
31
1.02864667389235e-005
  0
LINE
 8
GROUP0
10
204.065292646721
20
1858.43735481202
30
1.02672725975805e-005
11
203.754632474941
21
1858.67573274592
31
1.02722961063173e-005
  0
LINE
 8
GROUP0
10
205.203521214375
20
1858.28750417826
30
1.02641146877247e-005
11
204.81529264672
21
1858.2363929177
31
1.02630375831969e-005
  0
LINE
 8
GROUP0
10
203.366403907288
20
1860.12462148535
30
1.03028295761087e-005
11
203.516254541045
21
1860.4863929177
31
1.03104534450282e-005
  0
LINE
 8
GROUP0
10
204.815292646722
20
1861.2363929177
30
1.03262587318353e-005
11
205.203521214376
21
1861.18528165713
31
1.03251816273076e-005
  0
LINE
 8
GROUP0
10
224.286760332418
20
1842.53060657031
30
9.93205830114308e-006
11
230.446256162955
21
1840.37741607672
31
9.88668257578817e-006
  0
LINE
 8
GROUP0
10
218.084972383809
20
1841.33314270026
30
9.90682328752546e-006
11
218.542482378318
21
1840.89300292975
31
9.89754790664543e-006
  0
LINE
 8
GROUP0
10
230.246627332998
20
1839.85318511969
30
9.87563508144107e-006
11
231.726008894277
21
1839.93982070929
31
9.87746081516083e-006
  0
LINE
 8
GROUP0
10
218.420055391623
20
1846.47645706183
30
1.00152120338926e-005
11
217.982276918723
21
1846.01668685919
31
1.00055229674545e-005
  0
LINE
 8
GROUP0
10
222.140703084304
20
1840.32271141058
30
9.88552974529044e-006
11
222.711891057325
21
1840.59980911261
31
9.89136922331379e-006
  0
LINE
 8
GROUP0
10
205.203521214376
20
1861.18528165713
30
1.03251816273076e-005
11
205.565292646721
21
1861.03543102337
31
1.03220237181567e-005
  0
LINE
 8
GROUP0
10
224.025997164084
20
1841.95177966601
30
9.91986026752101e-006
11
224.286760332418
21
1842.53060657031
31
9.93205830114308e-006
  0
LINE
 8
GROUP0
10
231.891147138907
20
1855.7251939202
30
1.0210117288495e-005
11
231.70429754479
21
1854.08385747916
31
1.01755282303273e-005
  0
LINE
 8
GROUP0
10
206.264181386154
20
1859.34816435004
30
1.02864667389235e-005
11
206.114330752398
21
1858.9863929177
31
1.0278842870709e-005
  0
LINE
 8
GROUP0
10
206.114330752398
20
1858.9863929177
30
1.0278842870709e-005
11
205.8759528185
21
1858.67573274592
31
1.02722961063173e-005
  0
LINE
 8
GROUP0
10
231.70429754479
20
1854.08385747916
30
1.01755282303273e-005
11
231.346690656973
21
1852.46088880545
31
1.01413262499239e-005
  0
LINE
 8
GROUP0
10
221.530176105334
20
1840.14866012579
30
9.88186183815132e-006
11
222.140703084304
21
1840.32271141058
31
9.88552974529044e-006
  0
LINE
 8
GROUP0
10
239.57326555474
20
1844.4654001022
30
9.97283159092643e-006
11
239.40285539849
21
1846.36088508612
31
1.00127765028657e-005
  0
LINE
 8
GROUP0
10
219.069269063307
20
1840.53869575507
30
9.89008133827629e-006
11
219.64942729695
21
1840.28091567999
31
9.88464895413932e-006
  0
LINE
 8
GROUP0
10
220.265451373889
20
1840.12744087225
30
9.88141466972126e-006
11
220.898738796248
21
1840.08290809638
31
9.8804761982707e-006
  0
LINE
 8
GROUP0
10
217.982276918723
20
1846.01668685919
30
1.00055229674545e-005
11
217.630685808493
21
1845.48808413989
31
9.99438334339242e-006
  0
LINE
 8
GROUP0
10
220.73853676988
20
1847.38905662543
30
1.00344438979272e-005
11
220.107809009387
21
1847.31680625922
31
1.00329213141293e-005
  0
LINE
 8
GROUP0
10
221.989820363355
20
1847.20392173773
30
1.00305424178992e-005
11
221.372249545886
21
1847.35104507453
31
1.00336428533132e-005
  0
LINE
 8
GROUP0
10
218.542482378318
20
1840.89300292975
30
9.89754790664543e-006
11
219.069269063307
21
1840.53869575507
31
9.89008133827629e-006
  0
LINE
 8
GROUP0
10
217.189540865255
20
1843.73639428115
30
9.95746872866077e-006
11
217.184322359397
21
1843.65629136062
31
9.95578066288472e-006
  0
LINE
 8
GROUP0
10
237.274528982473
20
1841.89050990588
30
9.91856908594269e-006
11
238.482647421194
21
1842.74872148282
31
9.93665479293027e-006
  0
LINE
 8
GROUP0
10
217.375894548727
20
1844.90660411364
30
9.98212939899989e-006
11
217.225593569113
21
1844.28980005032
31
9.96913104479025e-006
  0
LINE
 8
GROUP0
10
239.041180136038
20
1848.22933334357
30
1.0052151651152e-005
11
238.491962911918
21
1850.05149215704
31
1.00905513088778e-005
  0
LINE
 8
GROUP0
10
223.944705965353
20
1845.65905505663
30
9.9979863363131e-006
11
223.565025331808
21
1846.16785758978
31
1.00087086962797e-005
  0
LINE
 8
GROUP0
10
236.855415823294
20
1853.48253149039
30
1.01628560574107e-005
11
235.784938337637
21
1855.05605978018
31
1.01960161462078e-005
  0
LINE
 8
GROUP0
10
228.043424608541
20
1839.36353439337
30
9.8653163214224e-006
11
225.086360933615
21
1840.39724296576
31
9.88710040246699e-006
  0
LINE
 8
GROUP0
10
221.154237689806
20
1838.34168762213
30
9.84378221207671e-006
11
220.241203250719
21
1838.36538738257
31
9.84428165422546e-006
  0
LINE
 8
GROUP0
10
235.784938337637
20
1855.05605978018
30
1.01960161462078e-005
11
234.560473921133
21
1856.51297468192
31
1.02267187568839e-005
  0
LINE
 8
GROUP0
10
217.430515291525
20
1842.41557628161
30
9.92963418534054e-006
11
217.710550310446
21
1841.84582644946
31
9.91762743920988e-006
  0
LINE
 8
GROUP0
10
217.225593569113
20
1844.28980005032
30
9.96913104479025e-006
11
217.189540865255
21
1843.73639428115
31
9.95746872866077e-006
  0
LINE
 8
GROUP0
10
223.668983461692
20
1841.42682594306
30
9.90879754112495e-006
11
224.025997164084
21
1841.95177966601
31
9.91986026752101e-006
  0
LINE
 8
GROUP0
10
227.640535356833
20
1838.75984901434
30
9.85259442685682e-006
11
228.043424608541
21
1839.36353439337
31
9.8653163214224e-006
  0
LINE
 8
GROUP0
10
219.64942729695
20
1840.28091567999
30
9.88464895413932e-006
11
220.265451373889
21
1840.12744087225
31
9.88141466972126e-006
  0
LINE
 8
GROUP0
10
232.900825025869
20
1840.14187759406
30
9.88171890462519e-006
11
233.186481001211
21
1840.19100898749
31
9.8827542856339e-006
  0
LINE
 8
GROUP0
10
231.701476576163
20
1859.01825422293
30
1.02795143068435e-005
11
231.890201093985
21
1857.37713331229
31
1.02449297902318e-005
  0
LINE
 8
GROUP0
10
217.253322603536
20
1843.02520120388
30
9.94248124764341e-006
11
217.430515291525
21
1842.41557628161
31
9.92963418534054e-006
  0
LINE
 8
GROUP0
10
222.711891057325
20
1840.59980911261
30
9.89136922331379e-006
11
223.226495745016
21
1840.97158760077
31
9.89920397778676e-006
  0
LINE
 8
GROUP0
10
223.226495745016
20
1840.97158760077
30
9.89920397778676e-006
11
223.668983461692
21
1841.42682594306
31
9.90879754112495e-006
  0
LINE
 8
GROUP0
10
234.609801771476
20
1840.60361618048
30
9.89144945277021e-006
11
235.978179457022
21
1841.17248481757
31
9.90343762871659e-006
  0
LINE
 8
GROUP0
10
227.187208177878
20
1838.19306129462
30
9.84065010350421e-006
11
227.640535356833
21
1838.75984901434
31
9.85259442685682e-006
  0
LINE
 8
GROUP0
10
217.710550310446
20
1841.84582644946
30
9.91762743920988e-006
11
218.084972383809
21
1841.33314270026
31
9.90682328752546e-006
  0
LINE
 8
GROUP0
10
222.572601201368
20
1846.95212692267
30
1.00252361659281e-005
11
221.989820363355
21
1847.20392173773
31
1.00305424178992e-005
  0
LINE
 8
GROUP0
10
217.184322359397
20
1843.65629136062
30
9.95578066288472e-006
11
217.253322603536
21
1843.02520120388
31
9.94248124764341e-006
  0
LINE
 8
GROUP0
10
231.890201093985
20
1857.37713331229
30
1.02449297902318e-005
11
231.891147138907
21
1855.7251939202
31
1.0210117288495e-005
  0
LINE
 8
GROUP0
10
229.324864866568
20
1849.35562080389
30
1.00758867133177e-005
11
229.854501249624
21
1848.45918220526
31
1.00569954208651e-005
  0
LINE
 8
GROUP0
10
234.560473921133
20
1856.51297468192
30
1.02267187568839e-005
11
233.194629194571
21
1857.83825391776
31
1.02546473150666e-005
  0
LINE
 8
GROUP0
10
239.40285539849
20
1846.36088508612
30
1.00127765028657e-005
11
239.041180136038
21
1848.22933334357
31
1.0052151651152e-005
  0
LINE
 8
GROUP0
10
233.194629194571
20
1857.83825391776
30
1.02546473150666e-005
11
231.701476576163
21
1859.01825422293
31
1.02795143068435e-005
  0
LINE
 8
GROUP0
10
215.578096391989
20
1844.97836047656
30
9.98364157218656e-006
11
215.862368585898
21
1845.84633583075
31
1.00019330380285e-005
  0
LINE
 8
GROUP0
10
235.133738996818
20
1831.60468191153
30
9.70180846647795e-006
11
236.289885999991
21
1833.11638254172
31
9.73366561655142e-006
  0
LINE
 8
GROUP0
10
237.76086092217
20
1851.80859273917
30
1.01275799475442e-005
11
236.855415823294
21
1853.48253149039
31
1.01628560574107e-005
  0
LINE
 8
GROUP0
10
228.710498812033
20
1832.57502740866
30
9.72225725250353e-006
11
225.773431780172
21
1834.83425516135
31
9.76986757640352e-006
  0
LINE
 8
GROUP0
10
229.324864866568
20
1838.11716789252
30
9.83905074752878e-006
11
231.346690656973
21
1835.01189798361
31
9.77361117073805e-006
  0
LINE
 8
GROUP0
10
230.83669233544
20
1827.87519735343
30
9.62321436784874e-006
11
232.39302587731
21
1828.97051996237
31
9.64629688554042e-006
  0
LINE
 8
GROUP0
10
224.230592729879
20
1845.09221774584
30
9.98604096745792e-006
11
223.944705965353
21
1845.65905505663
31
9.9979863363131e-006
  0
LINE
 8
GROUP0
10
230.289786817862
20
1847.5133299256
30
1.00370627986845e-005
11
224.230592729879
21
1845.09221774584
31
9.98604096745792e-006
  0
LINE
 8
GROUP0
10
215.637590410543
20
1842.26508647448
30
9.9264628059148e-006
11
215.464079859092
21
1843.16179216153
31
9.94535972702049e-006
  0
LINE
 8
GROUP0
10
238.491962911918
20
1850.05149215704
30
1.00905513088778e-005
11
237.76086092217
21
1851.80859273917
31
1.01275799475442e-005
  0
LINE
 8
GROUP0
10
215.464079859092
20
1843.16179216153
30
9.94535972702049e-006
11
215.451479914023
21
1843.73639428115
31
9.95746872866077e-006
  0
LINE
 8
GROUP0
10
229.828454496695
20
1850.12906593329
30
1.00921860765824e-005
11
229.324864866568
21
1849.35562080389
31
1.00758867133177e-005
  0
LINE
 8
GROUP0
10
219.345203282667
20
1838.54250949866
30
9.84801427536541e-006
11
218.491828920675
21
1838.86799472815
31
9.85487345890879e-006
  0
LINE
 8
GROUP0
10
238.482647421194
20
1842.74872148282
30
9.93665479293027e-006
11
239.587444784476
21
1843.73639428115
31
9.95746872866077e-006
  0
LINE
 8
GROUP0
10
231.346690656973
20
1852.46088880545
30
1.01413262499239e-005
11
229.828454496695
21
1850.12906593329
31
1.00921860765824e-005
  0
LINE
 8
GROUP0
10
222.058217885329
20
1838.47208732611
30
9.84653021865456e-006
11
221.154237689806
21
1838.34168762213
31
9.84378221207671e-006
  0
LINE
 8
GROUP0
10
221.372249545886
20
1847.35104507453
30
1.00336428533132e-005
11
220.73853676988
21
1847.38905662543
31
1.00344438979272e-005
  0
LINE
 8
GROUP0
10
219.118974568679
20
1848.85987609869
30
1.00654395299105e-005
11
220.006349506213
21
1849.0761045838
31
1.00699962679252e-005
  0
LINE
 8
GROUP0
10
229.854501249624
20
1848.45918220526
30
1.00569954208651e-005
11
230.289786817862
21
1847.5133299256
31
1.00370627986845e-005
  0
LINE
 8
GROUP0
10
218.491828920675
20
1838.86799472815
30
9.85487345890879e-006
11
217.705457689597
21
1839.33254570014
31
9.86466327428936e-006
  0
LINE
 8
GROUP0
10
223.565025331808
20
1846.16785758978
30
1.00087086962797e-005
11
223.103008272483
21
1846.60326141364
31
1.0017884272906e-005
  0
LINE
 8
GROUP0
10
239.587444784476
20
1843.73639428115
30
9.95746872866077e-006
11
239.57326555474
21
1844.4654001022
31
9.97283159092643e-006
  0
LINE
 8
GROUP0
10
216.421016695334
20
1840.62217086798
30
9.89184046861769e-006
11
215.959636690451
21
1841.41040748602
31
9.9084515432224e-006
  0
LINE
 8
GROUP0
10
234.88063764794
20
1839.37467903143
30
9.86555118021592e-006
11
233.167266371084
21
1838.9072260285
31
9.85570020822224e-006
  0
LINE
 8
GROUP0
10
224.463336946798
20
1839.72938579566
30
9.87302616970997e-006
11
223.736743929221
21
1839.17599052435
31
9.86136407494786e-006
  0
LINE
 8
GROUP0
10
223.103008272483
20
1846.60326141364
30
1.0017884272906e-005
11
222.572601201368
21
1846.95212692267
31
1.00252361659281e-005
  0
LINE
 8
GROUP0
10
220.006349506213
20
1849.0761045838
30
1.00699962679252e-005
11
220.917465145123
21
1849.13980049139
31
1.00713385776108e-005
  0
LINE
 8
GROUP0
10
223.736743929221
20
1839.17599052435
30
9.86136407494786e-006
11
222.927330019309
21
1838.75286144263
31
9.85244717243705e-006
  0
LINE
 8
GROUP0
10
222.680055501295
20
1851.96152776724
30
1.01308028569225e-005
11
221.517705859972
21
1852.13789838797
31
1.01345196411307e-005
  0
LINE
 8
GROUP0
10
238.11430788262
20
1836.4513162995
30
9.8039450637466e-006
11
238.763798239066
21
1838.24018997199
31
9.84164327948456e-006
  0
LINE
 8
GROUP0
10
215.862368585898
20
1845.84633583075
30
1.00019330380285e-005
11
216.288754465414
21
1846.65403694159
31
1.00189543021378e-005
  0
LINE
 8
GROUP0
10
220.846965724958
20
1855.53096479422
30
1.02060241593149e-005
11
220.210655155016
21
1855.51430028922
31
1.0205672976199e-005
  0
LINE
 8
GROUP0
10
224.284214021995
20
1847.89848464972
30
1.00451794398271e-005
11
224.935911180808
21
1847.25857681281
31
1.00316942035994e-005
  0
LINE
 8
GROUP0
10
231.346690656973
20
1835.01189798361
30
9.77361117073805e-006
11
228.710498812033
21
1832.57502740866
31
9.72225725250353e-006
  0
LINE
 8
GROUP0
10
227.844821932151
20
1848.42091125494
30
1.00561889097461e-005
11
227.187208177877
21
1849.27972549445
31
1.00742873171578e-005
  0
LINE
 8
GROUP0
10
227.187208177877
20
1849.27972549445
30
1.00742873171578e-005
11
229.074403288199
21
1852.17822164542
31
1.01353694020756e-005
  0
LINE
 8
GROUP0
10
216.417891504599
20
1850.91383117682
30
1.01087239963216e-005
11
215.462227823568
21
1850.22908920294
31
1.00942939380788e-005
  0
LINE
 8
GROUP0
10
225.865491869284
20
1850.50150817877
30
1.01000348187941e-005
11
224.875301363303
21
1851.13529533392
31
1.01133910690498e-005
  0
LINE
 8
GROUP0
10
223.534059526755
20
1848.41949981696
30
1.00561591654447e-005
11
224.284214021995
21
1847.89848464972
31
1.00451794398271e-005
  0
LINE
 8
GROUP0
10
216.288754465414
20
1846.65403694159
30
1.00189543021378e-005
11
216.845071794821
21
1847.37839836127
31
1.00342192890068e-005
  0
LINE
 8
GROUP0
10
217.515434267355
20
1847.99872535712
30
1.00472918837691e-005
11
218.280687334372
21
1848.49729866034
31
1.00577986763328e-005
  0
LINE
 8
GROUP0
10
215.462227823568
20
1850.22908920294
30
1.00942939380788e-005
11
212.6141266845
21
1852.19151014334
31
1.01356494402571e-005
  0
LINE
 8
GROUP0
10
219.718410374953
20
1852.09078115469
30
1.01335267062574e-005
11
218.566886904073
21
1851.85381978995
31
1.01285330496859e-005
  0
LINE
 8
GROUP0
10
237.203521214373
20
1829.18528165713
30
9.65082271249251e-006
11
237.565292646719
21
1829.03543102337
31
9.64766480263668e-006
  0
LINE
 8
GROUP0
10
213.029117586447
20
1846.9109949494
30
1.00243693618107e-005
11
212.663362028434
21
1845.79368347174
31
1.00008234573568e-005
  0
LINE
 8
GROUP0
10
220.210655155016
20
1855.51430028922
30
1.0205672976199e-005
11
219.718410374953
21
1852.09078115469
31
1.01335267062574e-005
  0
LINE
 8
GROUP0
10
221.826293887927
20
1849.04915184027
30
1.00694282730962e-005
11
222.706876637771
21
1848.80674308783
31
1.00643198199191e-005
  0
LINE
 8
GROUP0
10
221.517705859972
20
1852.13789838797
30
1.01345196411307e-005
11
220.846965724958
21
1855.53096479422
31
1.02060241593149e-005
  0
LINE
 8
GROUP0
10
222.706876637771
20
1848.80674308783
30
1.00643198199191e-005
11
223.534059526755
21
1848.41949981696
31
1.00561591654447e-005
  0
LINE
 8
GROUP0
10
218.280687334372
20
1848.49729866034
30
1.00577986763328e-005
11
219.118974568679
21
1848.85987609869
31
1.00654395299105e-005
  0
LINE
 8
GROUP0
10
222.78134525044
20
1832.70322984702
30
9.72495895382175e-006
11
223.737693788839
21
1831.49311250693
31
9.69945728487853e-006
  0
LINE
 8
GROUP0
10
238.763798239066
20
1838.24018997199
30
9.84164327948456e-006
11
239.228607656791
21
1840.08568710333
31
9.88053476262962e-006
  0
LINE
 8
GROUP0
10
229.634036543204
20
1838.6146768952
30
9.84953511078412e-006
11
229.324864866568
21
1838.11716789252
31
9.83905074752878e-006
  0
LINE
 8
GROUP0
10
237.203521214373
20
1826.28750417826
30
9.58975577290966e-006
11
236.81529264672
21
1826.2363929177
31
9.58867866838187e-006
  0
LINE
 8
GROUP0
10
220.917465145123
20
1849.13980049139
30
1.00713385776108e-005
11
221.826293887927
21
1849.04915184027
31
1.00694282730962e-005
  0
LINE
 8
GROUP0
10
237.286831381155
20
1834.73749441153
30
9.76782846780488e-006
11
238.11430788262
21
1836.4513162995
31
9.8039450637466e-006
  0
LINE
 8
GROUP0
10
218.566886904073
20
1851.85381978995
30
1.01285330496859e-005
11
217.459531786277
21
1851.45894378668
31
1.01202115450283e-005
  0
LINE
 8
GROUP0
10
229.074403288199
20
1852.17822164542
30
1.01353694020756e-005
11
228.606983187033
21
1852.61029905325
31
1.01444748785651e-005
  0
LINE
 8
GROUP0
10
236.427064079065
20
1829.18528165713
30
9.65082271249251e-006
11
236.815292646719
21
1829.2363929177
31
9.6518998170203e-006
  0
LINE
 8
GROUP0
10
216.845071794821
20
1847.37839836127
30
1.00342192890068e-005
11
217.515434267355
21
1847.99872535712
31
1.00472918837691e-005
  0
LINE
 8
GROUP0
10
238.264181386152
20
1827.34816435004
30
9.61210782410848e-006
11
238.114330752396
21
1826.9863929177
31
9.60448395589397e-006
  0
LINE
 8
GROUP0
10
213.546776773764
20
1847.96654838568
30
1.00466137953337e-005
11
213.029117586447
21
1846.9109949494
31
1.00243693618107e-005
  0
LINE
 8
GROUP0
10
238.264181386153
20
1828.12462148535
30
9.62847066129369e-006
11
238.315292646718
21
1827.73639291769
31
9.62028924270109e-006
  0
LINE
 8
GROUP0
10
235.516254541043
20
1828.4863929177
30
9.6360945295082e-006
11
235.754632474939
21
1828.79705308947
31
9.64264129389991e-006
  0
LINE
 8
GROUP0
10
236.06529264672
20
1826.43735481202
30
9.59291368276549e-006
11
235.754632474939
21
1826.67573274592
31
9.59793719150226e-006
  0
LINE
 8
GROUP0
10
238.114330752396
20
1826.9863929177
30
9.60448395589397e-006
11
237.875952818499
21
1826.67573274592
31
9.59793719150226e-006
  0
LINE
 8
GROUP0
10
237.565292646719
20
1826.43735481202
30
9.59291368276549e-006
11
237.203521214373
21
1826.28750417826
31
9.58975577290966e-006
  0
LINE
 8
GROUP0
10
214.206267359091
20
1848.9398092652
30
1.0067124019264e-005
11
213.546776773764
21
1847.96654838568
31
1.00466137953337e-005
  0
LINE
 8
GROUP0
10
237.565292646719
20
1829.03543102337
30
9.64766480263668e-006
11
237.875952818499
21
1828.79705308948
31
9.64264129389991e-006
  0
LINE
 8
GROUP0
10
212.663362028434
20
1845.79368347174
30
1.00008234573568e-005
11
212.456625463797
21
1844.63635003811
31
9.97643414111238e-006
  0
LINE
 8
GROUP0
10
235.754632474939
20
1828.79705308947
30
9.64264129389991e-006
11
236.06529264672
21
1829.03543102337
31
9.64766480263668e-006
  0
LINE
 8
GROUP0
10
236.06529264672
20
1829.03543102337
30
9.64766480263668e-006
11
236.427064079065
21
1829.18528165713
31
9.65082271249251e-006
  0
LINE
 8
GROUP0
10
204.815292646719
20
1826.2363929177
30
9.58867866838187e-006
11
204.427064079065
21
1826.28750417826
31
9.58975577290966e-006
  0
LINE
 8
GROUP0
10
235.366403907285
20
1828.12462148535
30
9.62847066129369e-006
11
235.516254541043
21
1828.4863929177
31
9.6360945295082e-006
  0
LINE
 8
GROUP0
10
237.875952818499
20
1828.79705308948
30
9.64264129389991e-006
11
238.114330752395
21
1828.4863929177
31
9.6360945295082e-006
  0
LINE
 8
GROUP0
10
217.459531786277
20
1851.45894378668
30
1.01202115450283e-005
11
216.417891504599
21
1850.91383117682
31
1.01087239963216e-005
  0
LINE
 8
GROUP0
10
236.815292646719
20
1829.2363929177
30
9.6518998170203e-006
11
237.203521214373
21
1829.18528165713
31
9.65082271249251e-006
  0
LINE
 8
GROUP0
10
235.315292646718
20
1827.7363929177
30
9.62028924270109e-006
11
235.366403907285
21
1828.12462148535
31
9.62847066129369e-006
  0
LINE
 8
GROUP0
10
238.315292646718
20
1827.73639291769
30
9.62028924270109e-006
11
238.264181386152
21
1827.34816435004
31
9.61210782410848e-006
  0
LINE
 8
GROUP0
10
228.606983187033
20
1852.61029905325
30
1.01444748785651e-005
11
225.865491869284
21
1850.50150817877
31
1.01000348187941e-005
  0
LINE
 8
GROUP0
10
212.456625463797
20
1844.63635003811
30
9.97643414111238e-006
11
209.047166349723
21
1844.05465829617
31
9.96417573412289e-006
  0
LINE
 8
GROUP0
10
224.935911180808
20
1847.25857681281
30
1.00316942035994e-005
11
227.844821932151
21
1848.42091125494
31
1.00561889097461e-005
  0
LINE
 8
GROUP0
10
235.754632474939
20
1826.67573274592
30
9.59793719150226e-006
11
235.516254541043
21
1826.9863929177
31
9.60448395589397e-006
  0
LINE
 8
GROUP0
10
236.427064079066
20
1826.28750417826
30
9.58975577290966e-006
11
236.06529264672
21
1826.43735481202
31
9.59291368276549e-006
  0
LINE
 8
GROUP0
10
212.6141266845
20
1852.19151014334
30
1.01356494402571e-005
11
212.169962408378
21
1851.73556465155
31
1.01260409741011e-005
  0
LINE
 8
GROUP0
10
237.875952818499
20
1826.67573274592
30
9.59793719150226e-006
11
237.565292646719
21
1826.43735481202
31
9.59291368276549e-006
  0
LINE
 8
GROUP0
10
236.81529264672
20
1826.2363929177
30
9.58867866838187e-006
11
236.427064079066
21
1826.28750417826
31
9.58975577290966e-006
  0
LINE
 8
GROUP0
10
206.114330752396
20
1826.9863929177
30
9.60448395589397e-006
11
205.8759528185
21
1826.67573274592
31
9.59793719150226e-006
  0
LINE
 8
GROUP0
10
212.169962408378
20
1851.73556465155
30
1.01260409741011e-005
11
214.206267359091
21
1848.9398092652
31
1.0067124019264e-005
  0
LINE
 8
GROUP0
10
224.875301363303
20
1851.13529533392
30
1.01133910690498e-005
11
223.806560518576
21
1851.6251444245
31
1.01237140096688e-005
  0
LINE
 8
GROUP0
10
223.806560518576
20
1851.6251444245
30
1.01237140096688e-005
11
222.680055501295
21
1851.96152776724
31
1.01308028569225e-005
  0
LINE
 8
GROUP0
10
238.114330752395
20
1828.4863929177
30
9.6360945295082e-006
11
238.264181386153
21
1828.12462148535
31
9.62847066129369e-006
  0
LINE
 8
GROUP0
10
206.264181386153
20
1827.34816435004
30
9.61210782410848e-006
11
206.114330752396
21
1826.9863929177
31
9.60448395589397e-006
  0
LINE
 8
GROUP0
10
205.8759528185
20
1826.67573274592
30
9.59793719150226e-006
11
205.565292646719
21
1826.43735481202
31
9.59291368276549e-006
  0
LINE
 8
GROUP0
10
205.56529264672
20
1829.03543102337
30
9.64766480263668e-006
11
205.8759528185
21
1828.79705308948
31
9.64264129389991e-006
  0
LINE
 8
GROUP0
10
205.203521214373
20
1826.28750417826
30
9.58975577290966e-006
11
204.815292646719
21
1826.2363929177
31
9.58867866838187e-006
  0
LINE
 8
GROUP0
10
203.75463247494
20
1828.79705308948
30
9.64264129389991e-006
11
204.065292646719
21
1829.03543102337
31
9.64766480263668e-006
  0
LINE
 8
GROUP0
10
214.597668649985
20
1860.10495180136
30
1.03024150628905e-005
11
216.069708826376
21
1859.24545759207
31
1.02843023258192e-005
  0
LINE
 8
GROUP0
10
224.422996523214
20
1853.26298040396
30
1.01582293003333e-005
11
225.773431780172
21
1852.63853162772
31
1.01450698442584e-005
  0
LINE
 8
GROUP0
10
203.315292646719
20
1827.7363929177
30
9.62028924270109e-006
11
203.366403907286
21
1828.12462148535
31
9.62847066129369e-006
  0
LINE
 8
GROUP0
10
204.065292646719
20
1829.03543102337
30
9.64766480263668e-006
11
204.427064079066
21
1829.18528165713
31
9.65082271249251e-006
  0
LINE
 8
GROUP0
10
203.516254541041
20
1826.9863929177
30
9.60448395589397e-006
11
203.366403907286
21
1827.34816435004
31
9.61210782410848e-006
  0
LINE
 8
GROUP0
10
203.516254541043
20
1828.4863929177
30
9.6360945295082e-006
11
203.75463247494
21
1828.79705308948
31
9.64264129389991e-006
  0
LINE
 8
GROUP0
10
203.754632474939
20
1826.67573274592
30
9.59793719150226e-006
11
203.516254541041
21
1826.9863929177
31
9.60448395589397e-006
  0
LINE
 8
GROUP0
10
235.516254541043
20
1826.9863929177
30
9.60448395589397e-006
11
235.366403907286
21
1827.34816435004
31
9.61210782410848e-006
  0
LINE
 8
GROUP0
10
204.81529264672
20
1829.2363929177
30
9.6518998170203e-006
11
205.203521214373
21
1829.18528165713
31
9.65082271249251e-006
  0
LINE
 8
GROUP0
10
203.366403907286
20
1828.12462148535
30
9.62847066129369e-006
11
203.516254541043
21
1828.4863929177
31
9.6360945295082e-006
  0
LINE
 8
GROUP0
10
229.574016096427
20
1860.32659334189
30
1.03070858734844e-005
11
227.847274782492
21
1861.12676042563
31
1.03239483678408e-005
  0
LINE
 8
GROUP0
10
230.294454099967
20
1853.43356603629
30
1.01618241731605e-005
11
230.580998899771
21
1855.05983442313
31
1.01960956918223e-005
  0
LINE
 8
GROUP0
10
228.710498812033
20
1854.8977593804
30
1.01926801681584e-005
11
230.294454099967
21
1853.43356603629
31
1.01618241731605e-005
  0
LINE
 8
GROUP0
10
218.688632967307
20
1857.225045147
30
1.02417247277165e-005
11
222.277366521193
21
1857.31901639945
31
1.02437050512938e-005
  0
LINE
 8
GROUP0
10
220.406024875476
20
1862.4814319039
30
1.03524963302515e-005
11
218.508071901633
21
1862.34113878256
31
1.03495398322717e-005
  0
LINE
 8
GROUP0
10
222.308423878981
20
1862.42860597617
30
1.03513830913782e-005
11
220.406024875476
21
1862.4814319039
31
1.03524963302515e-005
  0
LINE
 8
GROUP0
10
230.539674284293
20
1858.35580152518
30
1.02655539668928e-005
11
230.212443830802
21
1859.97437089926
31
1.02996632380781e-005
  0
LINE
 8
GROUP0
10
216.069708826376
20
1859.24545759207
30
1.02843023258192e-005
11
217.430782320334
21
1858.21924680716
31
1.02626762510216e-005
  0
LINE
 8
GROUP0
10
204.427064079066
20
1829.18528165713
30
9.65082271249251e-006
11
204.81529264672
21
1829.2363929177
31
9.6518998170203e-006
  0
LINE
 8
GROUP0
10
205.203521214373
20
1829.18528165713
30
9.65082271249251e-006
11
205.56529264672
21
1829.03543102337
31
9.64766480263668e-006
  0
LINE
 8
GROUP0
10
216.634117128683
20
1862.00917619711
30
1.03425441475458e-005
11
214.803466799093
21
1861.4889621163
31
1.03315813036575e-005
  0
LINE
 8
GROUP0
10
230.212443830802
20
1859.97437089926
30
1.02996632380781e-005
11
229.574016096427
21
1860.32659334189
31
1.03070858734844e-005
  0
LINE
 8
GROUP0
10
235.366403907286
20
1827.34816435004
30
9.61210782410848e-006
11
235.315292646718
21
1827.7363929177
31
9.62028924270109e-006
  0
LINE
 8
GROUP0
10
205.565292646719
20
1826.43735481202
30
9.59291368276549e-006
11
205.203521214373
21
1826.28750417826
31
9.58975577290966e-006
  0
LINE
 8
GROUP0
10
204.427064079065
20
1826.28750417826
30
9.58975577290966e-006
11
204.065292646719
21
1826.43735481202
31
9.59291368276549e-006
  0
LINE
 8
GROUP0
10
203.366403907286
20
1827.34816435004
30
9.61210782410848e-006
11
203.315292646719
21
1827.7363929177
31
9.62028924270109e-006
  0
LINE
 8
GROUP0
10
204.065292646719
20
1826.43735481202
30
9.59291368276549e-006
11
203.754632474939
21
1826.67573274592
31
9.59793719150226e-006
  0
LINE
 8
GROUP0
10
227.847274782492
20
1861.12676042563
30
1.03239483678408e-005
11
226.048313143087
21
1861.7477588082
31
1.03370351110799e-005
  0
LINE
 8
GROUP0
10
222.995958330466
20
1853.68389791495
30
1.0167099596553e-005
11
224.422996523214
21
1853.26298040396
31
1.01582293003333e-005
  0
LINE
 8
GROUP0
10
218.662096025778
20
1857.0404824639
30
1.02378353058652e-005
11
218.688632967307
21
1857.225045147
31
1.02417247277165e-005
  0
LINE
 8
GROUP0
10
205.8759528185
20
1828.79705308948
30
9.64264129389991e-006
11
206.114330752396
21
1828.4863929177
31
9.6360945295082e-006
  0
LINE
 8
GROUP0
10
213.034979822471
20
1860.78585237509
30
1.03167641683555e-005
11
214.597668649985
21
1860.10495180136
31
1.03024150628905e-005
  0
LINE
 8
GROUP0
10
218.508071901633
20
1862.34113878256
30
1.03495398322717e-005
11
216.634117128683
21
1862.00917619711
31
1.03425441475458e-005
  0
LINE
 8
GROUP0
10
203.192240240408
20
1844.72406709439
30
9.97828266509626e-006
11
202.087442877128
21
1843.73639428115
31
9.95746872866077e-006
  0
LINE
 8
GROUP0
10
214.803466799093
20
1861.4889621163
30
1.03315813036575e-005
11
213.034979822471
21
1860.78585237509
31
1.03167641683555e-005
  0
LINE
 8
GROUP0
10
224.195667269064
20
1862.18320650107
30
1.03462116126551e-005
11
222.308423878981
21
1862.42860597617
31
1.03513830913782e-005
  0
LINE
 8
GROUP0
10
207.065087797476
20
1846.86917060858
30
1.00234879678918e-005
11
205.696708204581
21
1846.3003019715
31
1.00114997919454e-005
  0
LINE
 8
GROUP0
10
209.981565954519
20
1833.45191759116
30
9.74073658733254e-006
11
210.366957189871
21
1835.08014387137
31
9.77504936562901e-006
  0
LINE
 8
GROUP0
10
210.366957189871
20
1835.08014387137
30
9.77504936562901e-006
11
209.885994436575
21
1835.57386583334
31
9.78545392171792e-006
  0
LINE
 8
GROUP0
10
206.264181386153
20
1828.12462148535
30
9.62847066129369e-006
11
206.31529264672
21
1827.7363929177
31
9.62028924270109e-006
  0
LINE
 8
GROUP0
10
225.773431780172
20
1852.63853162772
30
1.01450698442584e-005
11
228.710498812033
21
1854.8977593804
31
1.01926801681584e-005
  0
LINE
 8
GROUP0
10
226.048313143087
20
1861.7477588082
30
1.03370351110799e-005
11
224.195667269064
21
1862.18320650107
31
1.03462116126551e-005
  0
LINE
 8
GROUP0
10
230.580998899771
20
1855.05983442313
30
1.01960956918223e-005
11
230.663165571525
21
1856.70910734183
31
1.02308520007921e-005
  0
LINE
 8
GROUP0
10
206.114330752396
20
1828.4863929177
30
9.6360945295082e-006
11
206.264181386153
21
1828.12462148535
31
9.62847066129369e-006
  0
LINE
 8
GROUP0
10
209.948877813649
20
1847.53296798712
30
1.00374766449807e-005
11
208.488405706717
21
1847.28177780158
31
1.00321831343231e-005
  0
LINE
 8
GROUP0
10
222.277366521193
20
1857.31901639945
30
1.02437050512938e-005
11
222.995958330466
21
1853.68389791495
31
1.0167099596553e-005
  0
LINE
 8
GROUP0
10
209.885994436575
20
1835.57386583334
30
9.78545392171792e-006
11
212.06756544335
21
1838.56906646735
31
9.8485739294385e-006
  0
LINE
 8
GROUP0
10
206.31529264672
20
1827.7363929177
30
9.62028924270109e-006
11
206.264181386153
21
1827.34816435004
31
9.61210782410848e-006
  0
LINE
 8
GROUP0
10
211.407980444265
20
1839.9026922608
30
9.87667838091566e-006
11
210.949850561453
21
1841.31822341925
31
9.9065088824124e-006
  0
LINE
 8
GROUP0
10
210.949850561453
20
1841.31822341925
30
9.9065088824124e-006
11
207.297165396049
21
1841.94141131884
31
9.91964176735305e-006
  0
LINE
 8
GROUP0
10
230.663165571525
20
1856.70910734183
30
1.02308520007921e-005
11
230.539674284293
21
1858.35580152518
31
1.02655539668928e-005
  0
LINE
 8
GROUP0
10
202.087442877128
20
1843.73639428115
30
9.95746872866077e-006
11
202.101622106863
21
1843.007388475
31
9.94210586780508e-006
  0
LINE
 8
GROUP0
10
207.297165396049
20
1841.94141131884
30
9.91964176735305e-006
11
207.297165396048
21
1845.53137713915
31
9.99529568785351e-006
  0
LINE
 8
GROUP0
10
202.101622106863
20
1843.007388475
30
9.94210586780508e-006
11
202.272030355765
21
1841.11190361029
31
9.9021609579808e-006
  0
LINE
 8
GROUP0
10
210.02892256005
20
1847.53765625006
30
1.00375754446214e-005
11
209.948877813649
21
1847.53296798712
31
1.00374766449807e-005
  0
LINE
 8
GROUP0
10
207.297165396048
20
1845.53137713915
30
9.99529568785351e-006
11
210.949850561453
21
1846.15456336981
31
1.00084285375446e-005
  0
LINE
 8
GROUP0
10
209.97341108544
20
1828.45453161246
30
9.63542309337373e-006
11
209.783475401236
21
1830.1169328118
31
9.67045606432015e-006
  0
LINE
 8
GROUP0
10
209.783475401236
20
1830.1169328118
30
9.67045606432015e-006
11
209.78620481713
21
1831.79014581686
31
9.70571688009847e-006
  0
LINE
 8
GROUP0
10
217.430782320334
20
1858.21924680716
30
1.02626762510216e-005
11
218.662096025778
21
1857.0404824639
31
1.02378353058652e-005
  0
LINE
 8
GROUP0
10
213.827613832786
20
1826.34602922446
30
9.59098911274547e-006
11
215.626575472189
21
1825.72502702719
31
9.57790228913735e-006
  0
LINE
 8
GROUP0
10
228.639907839133
20
1826.6869334603
30
9.59817323186174e-006
11
227.231594087911
21
1827.29063219077
31
9.61089540771898e-006
  0
LINE
 8
GROUP0
10
202.272030355765
20
1841.11190361029
30
9.9021609579808e-006
11
202.633707525566
21
1839.24345439917
31
9.86278578924971e-006
  0
LINE
 8
GROUP0
10
236.065292646721
20
1861.03543102337
30
1.03220237181567e-005
11
236.427064079068
21
1861.18528165713
31
1.03251816273076e-005
  0
LINE
 8
GROUP0
10
221.268861713244
20
1824.99135774619
30
9.56244115103977e-006
11
223.166814806296
21
1825.13164896018
31
9.56539760813002e-006
  0
LINE
 8
GROUP0
10
209.78620481713
20
1831.79014581686
30
9.70571688009847e-006
11
209.981565954519
21
1833.45191759116
31
9.74073658733254e-006
  0
LINE
 8
GROUP0
10
212.391037466361
20
1833.00236696249
30
9.73126288455473e-006
11
211.380541326834
21
1834.03967184073
31
9.75312275290352e-006
  0
LINE
 8
GROUP0
10
218.161275865866
20
1833.91548913962
30
9.75050576196845e-006
11
216.7582216285
21
1834.41051668173
31
9.76093783176535e-006
  0
LINE
 8
GROUP0
10
211.462442877127
20
1827.49841684348
30
9.61527420232366e-006
11
212.100869657827
21
1827.1461924935
31
9.60785152673282e-006
  0
LINE
 8
GROUP0
10
238.114330752397
20
1858.9863929177
30
1.0278842870709e-005
11
237.875952818501
21
1858.67573274592
31
1.02722961063173e-005
  0
LINE
 8
GROUP0
10
205.889947416616
20
1832.41672605521
30
9.71892125471441e-006
11
207.11441374047
21
1830.95981592185
31
9.68821874414716e-006
  0
LINE
 8
GROUP0
10
211.011718275381
20
1830.76391405112
30
9.68409036327111e-006
11
211.01732778771
21
1830.68910879141
31
9.68251393855812e-006
  0
LINE
 8
GROUP0
10
210.949850561453
20
1846.15456336981
30
1.00084285375446e-005
11
211.279613020254
21
1847.23781341559
31
1.00312566413852e-005
  0
LINE
 8
GROUP0
10
211.279613020254
20
1847.23781341559
30
1.00312566413852e-005
11
211.42825937493
21
1847.61960357672
31
1.00393023794054e-005
  0
LINE
 8
GROUP0
10
203.182926657035
20
1837.42129463202
30
9.82438611178415e-006
11
203.914024832083
21
1835.6641940499
31
9.78735747311776e-006
  0
LINE
 8
GROUP0
10
208.488405706717
20
1847.28177780158
30
1.00321831343231e-005
11
207.065087797476
21
1846.86917060858
31
1.00234879678918e-005
  0
LINE
 8
GROUP0
10
202.633707525566
20
1839.24345439917
30
9.86278578924971e-006
11
203.182926657035
21
1837.42129463202
31
9.82438611178415e-006
  0
LINE
 8
GROUP0
10
212.06756544335
20
1838.56906646735
30
9.8485739294385e-006
11
211.407980444265
21
1839.9026922608
31
9.87667838091566e-006
  0
LINE
 8
GROUP0
10
211.42825937493
20
1847.61960357672
30
1.00393023794054e-005
11
210.02892256005
21
1847.53765625006
31
1.00375754446214e-005
  0
LINE
 8
GROUP0
10
205.696708204581
20
1846.3003019715
30
1.00114997919454e-005
11
204.400360586477
21
1845.58227664477
31
9.99636832978434e-006
  0
LINE
 8
GROUP0
10
235.366403907287
20
1859.34816435004
30
1.02864667389235e-005
11
235.315292646721
21
1859.7363929177
31
1.02946481575161e-005
  0
LINE
 8
GROUP0
10
211.01732778771
20
1830.68910879141
30
9.68251393855812e-006
11
211.135197164847
21
1829.11710256583
31
9.64938592617481e-006
  0
LINE
 8
GROUP0
10
215.442317964865
20
1835.10478490836
30
9.77556864342199e-006
11
212.391037466361
21
1833.00236696249
31
9.73126288455473e-006
  0
LINE
 8
GROUP0
10
208.480259420706
20
1829.63453287131
30
9.66029010489033e-006
11
209.97341108544
21
1828.45453161246
31
9.63542309337373e-006
  0
LINE
 8
GROUP0
10
204.819475653007
20
1833.99025625235
30
9.75208138299099e-006
11
205.889947416616
21
1832.41672605521
31
9.71892125471441e-006
  0
LINE
 8
GROUP0
10
222.277366521193
20
1830.15376848227
30
9.67123232918365e-006
11
218.688632967306
21
1830.24774354941
31
9.67321273313004e-006
  0
LINE
 8
GROUP0
10
204.400360586477
20
1845.58227664477
30
9.99636832978434e-006
11
203.192240240408
21
1844.72406709439
31
9.97828266509626e-006
  0
LINE
 8
GROUP0
10
207.11441374047
20
1830.95981592185
30
9.68821874414716e-006
11
208.480259420706
21
1829.63453287131
31
9.66029010489033e-006
  0
LINE
 8
GROUP0
10
203.914024832083
20
1835.6641940499
30
9.78735747311776e-006
11
204.819475653007
21
1833.99025625235
31
9.75208138299099e-006
  0
LINE
 8
GROUP0
10
223.166814806296
20
1825.13164896018
30
9.56539760813002e-006
11
225.040771486593
21
1825.46361154562
31
9.57239329356096e-006
  0
LINE
 8
GROUP0
10
216.7582216285
20
1834.41051668173
30
9.76093783176535e-006
11
215.442317964865
21
1835.10478490836
31
9.77556864342199e-006
  0
LINE
 8
GROUP0
10
211.135197164847
20
1829.11710256583
30
9.64938592617481e-006
11
211.462442877127
21
1827.49841684348
31
9.61527420232366e-006
  0
LINE
 8
GROUP0
10
203.601997854545
20
1846.55576843268
30
1.00168834195669e-005
11
205.150834562613
21
1847.4248155976
31
1.00351974726354e-005
  0
LINE
 8
GROUP0
10
227.231594087911
20
1827.29063219077
30
9.61089540771898e-006
11
225.894800188376
21
1828.03949159628
31
9.62667665854178e-006
  0
LINE
 8
GROUP0
10
211.380541326834
20
1834.03967184073
30
9.75312275290352e-006
11
211.093925001455
21
1832.41330045706
31
9.71884906427745e-006
  0
LINE
 8
GROUP0
10
224.64444542153
20
1828.92516130454
30
9.64534100996173e-006
11
223.494466783835
21
1829.93775934226
31
9.66668021379902e-006
  0
LINE
 8
GROUP0
10
225.040771486593
20
1825.46361154562
30
9.57239329356096e-006
11
226.871421816183
21
1825.98382562644
31
9.58335613744921e-006
  0
LINE
 8
GROUP0
10
237.565292646721
20
1858.43735481202
30
1.02672725975805e-005
11
237.203521214375
21
1858.28750417826
31
1.02641146877247e-005
  0
LINE
 8
GROUP0
10
215.626575472189
20
1825.72502702719
30
9.57790228913735e-006
11
217.479221346212
21
1825.28958314902
31
9.56872586863611e-006
  0
LINE
 8
GROUP0
10
236.427064079068
20
1861.18528165713
30
1.03251816273076e-005
11
236.815292646721
21
1861.2363929177
31
1.03262587318353e-005
  0
LINE
 8
GROUP0
10
203.560577871635
20
1851.02147048956
30
1.01109923569154e-005
11
202.911087515188
21
1849.23259872443
31
1.00732941806569e-005
  0
LINE
 8
GROUP0
10
219.366464497878
20
1825.04418367392
30
9.56355438920808e-006
11
221.268861713244
21
1824.99135774619
31
9.56244115103977e-006
  0
LINE
 8
GROUP0
10
225.894800188376
20
1828.03949159628
30
9.62667665854178e-006
11
224.64444542153
21
1828.92516130454
31
9.64534100996173e-006
  0
LINE
 8
GROUP0
10
209.047166349723
20
1844.05465829617
30
9.96417573412289e-006
11
209.047166349722
21
1843.41812837368
31
9.95076168371911e-006
  0
LINE
 8
GROUP0
10
212.100869657827
20
1827.1461924935
30
9.60785152673282e-006
11
213.827613832786
21
1826.34602922446
31
9.59098911274547e-006
  0
LINE
 8
GROUP0
10
205.385004522634
20
1854.35640424735
30
1.01812718041105e-005
11
204.388058187796
21
1852.73529142386
31
1.01471089324123e-005
  0
LINE
 8
GROUP0
10
238.264181386154
20
1860.12462148535
30
1.03028295761087e-005
11
238.315292646721
21
1859.7363929177
31
1.02946481575161e-005
  0
LINE
 8
GROUP0
10
238.114330752397
20
1860.4863929177
30
1.03104534450282e-005
11
238.264181386154
21
1860.12462148535
31
1.03028295761087e-005
  0
LINE
 8
GROUP0
10
222.457694890334
20
1831.06599229819
30
9.6904562747524e-006
11
222.277366521193
21
1830.15376848227
31
9.67123232918365e-006
  0
LINE
 8
GROUP0
10
223.494466783835
20
1829.93775934226
30
9.66668021379902e-006
11
222.457694890334
21
1831.06599229819
31
9.6904562747524e-006
  0
LINE
 8
GROUP0
10
236.815292646721
20
1858.2363929177
30
1.02630375831969e-005
11
236.427064079067
21
1858.28750417826
31
1.02641146877247e-005
  0
LINE
 8
GROUP0
10
211.093925001455
20
1832.41330045706
30
9.71884906427745e-006
11
211.011718275381
21
1830.76391405112
31
9.68409036327111e-006
  0
LINE
 8
GROUP0
10
205.150834562613
20
1847.4248155976
30
1.00351974726354e-005
11
206.794251921011
21
1848.09810966498
31
1.00493862806306e-005
  0
LINE
 8
GROUP0
10
217.479221346212
20
1825.28958314902
30
9.56872586863611e-006
11
219.366464497878
21
1825.04418367392
31
9.56355438920808e-006
  0
LINE
 8
GROUP0
10
237.203521214375
20
1858.28750417826
30
1.02641146877247e-005
11
236.815292646721
21
1858.2363929177
31
1.02630375831969e-005
  0
LINE
 8
GROUP0
10
212.456625463797
20
1842.83643853909
30
9.93850331691415e-006
11
212.663362028434
21
1841.67910331732
31
9.91411396330522e-006
  0
LINE
 8
GROUP0
10
238.315292646721
20
1859.7363929177
30
1.02946481575161e-005
11
238.264181386155
21
1859.34816435004
31
1.02864667389235e-005
  0
LINE
 8
GROUP0
10
213.546776773764
20
1839.50623935706
30
9.86832364506807e-006
11
214.206267359091
21
1838.53297943121
31
9.84781344158247e-006
  0
LINE
 8
GROUP0
10
237.875952818502
20
1860.79705308947
30
1.0317000208715e-005
11
238.114330752397
21
1860.4863929177
31
1.03104534450282e-005
  0
LINE
 8
GROUP0
10
218.688632967306
20
1830.24774354941
30
9.67321273313004e-006
11
218.161275865866
21
1833.91548913962
31
9.75050576196845e-006
  0
LINE
 8
GROUP0
10
226.871421816183
20
1825.98382562644
30
9.58335613744921e-006
11
228.639907839133
21
1826.6869334603
31
9.59817323186174e-006
  0
LINE
 8
GROUP0
10
236.065292646721
20
1858.43735481202
30
1.02672725975805e-005
11
235.754632474941
21
1858.67573274592
31
1.02722961063173e-005
  0
LINE
 8
GROUP0
10
235.516254541044
20
1858.9863929177
30
1.0278842870709e-005
11
235.366403907287
21
1859.34816435004
31
1.02864667389235e-005
  0
LINE
 8
GROUP0
10
235.754632474941
20
1860.79705308947
30
1.0317000208715e-005
11
236.065292646721
21
1861.03543102337
31
1.03220237181567e-005
  0
LINE
 8
GROUP0
10
237.203521214375
20
1861.18528165713
30
1.03251816273076e-005
11
237.565292646721
21
1861.03543102337
31
1.03220237181567e-005
  0
LINE
 8
GROUP0
10
235.754632474941
20
1858.67573274592
30
1.02722961063173e-005
11
235.516254541044
21
1858.9863929177
31
1.0278842870709e-005
  0
LINE
 8
GROUP0
10
236.427064079067
20
1858.28750417826
30
1.02641146877247e-005
11
236.065292646721
21
1858.43735481202
31
1.02672725975805e-005
  0
LINE
 8
GROUP0
10
264.773923063346
20
1840.63557337257
30
4.3174984730332e-006
11
264.552045399005
21
1840.53837323078
31
4.34502379292878e-006
  0
LINE
 8
GROUP0
10
235.366403907288
20
1860.12462148535
30
1.03028295761087e-005
11
235.516254541045
21
1860.48639291769
31
1.03104534450282e-005
  0
LINE
 8
GROUP0
10
266.270135242008
20
1846.30275923356
30
4.23749901872772e-006
11
266.114937272079
21
1846.26969401256
31
4.25748826795025e-006
  0
LINE
 8
GROUP0
10
206.541147711112
20
1855.86810392386
30
1.02131289337393e-005
11
205.385004522634
21
1854.35640424735
31
1.01812718041105e-005
  0
LINE
 8
GROUP0
10
264.343614865835
20
1840.44706400667
30
4.37088093063198e-006
11
264.188972857355
21
1840.37931845331
31
4.39006533956565e-006
  0
LINE
 8
GROUP0
10
264.968906465344
20
1840.72099167899
30
4.29330956264184e-006
11
264.773923063346
21
1840.63557337257
31
4.3174984730332e-006
  0
LINE
 8
GROUP0
10
267.305761800878
20
1846.03459151852
30
4.09381082092652e-006
11
267.176581284678
21
1846.12599354841
31
4.1129552652952e-006
  0
LINE
 8
GROUP0
10
209.047166349722
20
1843.41812837368
30
9.95076168371911e-006
11
212.456625463797
21
1842.83643853909
31
9.93850331691415e-006
  0
LINE
 8
GROUP0
10
213.029117586446
20
1840.56179183966
30
9.89056805814625e-006
11
213.546776773764
21
1839.50623935706
31
9.86832364506807e-006
  0
LINE
 8
GROUP0
10
236.815292646721
20
1861.2363929177
30
1.03262587318353e-005
11
237.203521214375
21
1861.18528165713
31
1.03251816273076e-005
  0
LINE
 8
GROUP0
10
206.794251921011
20
1848.09810966498
30
1.00493862806306e-005
11
208.507620336844
21
1848.56556266791
31
1.00592372526243e-005
  0
LINE
 8
GROUP0
10
235.516254541045
20
1860.48639291769
30
1.03104534450282e-005
11
235.754632474941
21
1860.79705308947
31
1.0317000208715e-005
  0
LINE
 8
GROUP0
10
283.145447231917
20
1848.6794772035
30
9.10211799962646e-006
11
283.145446452929
21
1847.56697542425
31
9.07867363370563e-006
  0
LINE
 8
GROUP0
10
265.124546020399
20
1842.87823022034
30
4.31802543311988e-006
11
265.124545381894
21
1841.96635700409
31
4.2988090112217e-006
  0
LINE
 8
GROUP0
10
265.825414796699
20
1846.14985118566
30
4.29355273469656e-006
11
265.691169357652
21
1846.06322585554
31
4.30962055897322e-006
  0
LINE
 8
GROUP0
10
283.145444655395
20
1844.99985027169
30
9.02457517322208e-006
11
283.145443861116
21
1843.86551094388
31
9.00067060851106e-006
  0
LINE
 8
GROUP0
10
283.14544555671
20
1846.2870524394
30
9.05170108081999e-006
11
283.145444655395
21
1844.99985027169
31
9.02457517322208e-006
  0
LINE
 8
GROUP0
10
265.09665421148
20
1840.77695539699
30
4.27746156250741e-006
11
264.968906465344
21
1840.72099167899
31
4.29330956264184e-006
  0
LINE
 8
GROUP0
10
210.838195326162
20
1859.59758848196
30
1.02917230323685e-005
11
209.281860830618
21
1858.50226682669
31
1.02686405351216e-005
  0
LINE
 8
GROUP0
10
235.315292646721
20
1859.7363929177
30
1.02946481575161e-005
11
235.366403907288
21
1860.12462148535
31
1.03028295761087e-005
  0
LINE
 8
GROUP0
10
267.176581284678
20
1846.12599354841
30
4.1129552652952e-006
11
267.040971006852
21
1846.19974134792
31
4.13258466846478e-006
  0
LINE
 8
GROUP0
10
212.663362028434
20
1841.67910331732
30
9.91411396330522e-006
11
213.029117586446
21
1840.56179183966
31
9.89056805814625e-006
  0
LINE
 8
GROUP0
10
278.658183731269
20
1841.71059233859
30
9.55335819621261e-006
11
278.575419196601
21
1841.91600551425
31
9.56871858889263e-006
  0
LINE
 8
GROUP0
10
214.206267359091
20
1838.53297943121
30
9.84781344158247e-006
11
212.169962408377
21
1835.73722404486
31
9.78889648674541e-006
  0
LINE
 8
GROUP0
10
283.145443286007
20
1843.04417647872
30
8.983362174525e-006
11
283.145443042201
21
1842.69598889895
31
8.97602470351644e-006
  0
LINE
 8
GROUP0
10
204.388058187796
20
1852.73529142386
30
1.01471089324123e-005
11
203.560577871635
21
1851.02147048956
31
1.01109923569154e-005
  0
LINE
 8
GROUP0
10
211.462442877127
20
1859.97437089926
30
1.02996632380781e-005
11
210.838195326162
21
1859.59758848196
31
1.02917230323685e-005
  0
LINE
 8
GROUP0
10
237.565292646721
20
1861.03543102337
30
1.03220237181567e-005
11
237.875952818502
21
1860.79705308947
31
1.0317000208715e-005
  0
LINE
 8
GROUP0
10
237.875952818501
20
1858.67573274592
30
1.02722961063173e-005
11
237.565292646721
21
1858.43735481202
31
1.02672725975805e-005
  0
LINE
 8
GROUP0
10
279.031866576188
20
1841.14701517978
30
9.49167397513162e-006
11
278.886417250155
21
1841.32610700043
31
9.51483485616689e-006
  0
LINE
 8
GROUP0
10
283.145443042201
20
1842.69598889895
30
8.97602470351644e-006
11
283.136718006833
21
1842.47857449287
31
8.97260592843119e-006
  0
LINE
 8
GROUP0
10
280.390240922177
20
1847.29631026741
30
9.44020650319177e-006
11
280.619610607116
21
1847.32201186374
31
9.41017581438941e-006
  0
LINE
 8
GROUP0
10
283.136718006833
20
1842.47857449287
30
8.97260592843119e-006
11
283.106965995835
21
1842.2507587156
31
8.97177055284026e-006
  0
LINE
 8
GROUP0
10
278.761853025484
20
1841.51396277701
30
9.53539655506042e-006
11
278.658183731269
21
1841.71059233859
31
9.55335819621261e-006
  0
LINE
 8
GROUP0
10
280.169589696376
20
1847.24967710498
30
9.46863407982335e-006
11
280.390240922177
21
1847.29631026741
31
9.44020650319177e-006
  0
LINE
 8
GROUP0
10
279.957662078685
20
1840.49826824985
30
9.3546047490789e-006
11
279.754477382321
21
1840.58672203213
31
9.38355094433629e-006
  0
LINE
 8
GROUP0
10
281.739785849219
20
1840.54392264516
30
9.11803052200399e-006
11
281.532006929614
21
1840.46497330823
31
9.14406127305867e-006
  0
LINE
 8
GROUP0
10
278.761856282318
20
1846.16516767547
30
9.63341391448935e-006
11
278.886420770304
21
1846.35336241492
31
9.62077695167429e-006
  0
LINE
 8
GROUP0
10
283.106965995835
20
1842.2507587156
30
8.97177055284026e-006
11
283.056099773827
21
1842.03175160133
31
8.97393522608647e-006
  0
LINE
 8
GROUP0
10
280.857090789285
20
1840.35364871952
30
9.23167371544298e-006
11
280.619605731111
21
1840.35840791344
31
9.26342801992885e-006
  0
LINE
 8
GROUP0
10
281.090671685999
20
1840.3698281545
30
9.20088107310701e-006
11
280.857090789285
21
1840.35364871952
31
9.23167371544298e-006
  0
LINE
 8
GROUP0
10
282.485055498387
20
1841.06850195692
30
9.02974953395086e-006
11
282.311715235442
21
1840.90617940524
31
9.04943311784145e-006
  0
LINE
 8
GROUP0
10
264.188972857355
20
1840.37931845331
30
4.39006533956565e-006
11
264.12846076708
21
1840.35280932373
31
4.39757224896531e-006
  0
LINE
 8
GROUP0
10
264.552045399005
20
1840.53837323078
30
4.34502379292878e-006
11
264.343614865835
21
1840.44706400667
31
4.37088093063198e-006
  0
LINE
 8
GROUP0
10
283.145447781541
20
1849.4644157544
30
9.11865943656886e-006
11
283.145447231917
21
1848.6794772035
31
9.10211799962646e-006
  0
LINE
 8
GROUP0
10
278.575419196601
20
1841.91600551425
30
9.56871858889263e-006
11
278.513569250574
21
1842.13021213308
31
9.58147658607911e-006
  0
LINE
 8
GROUP0
10
265.124544578825
20
1840.81946491768
30
4.27464000344879e-006
11
265.09665421148
21
1840.77695539699
31
4.27746156250741e-006
  0
LINE
 8
GROUP0
10
280.169584921658
20
1840.43072584203
30
9.32493460991113e-006
11
279.957662078685
21
1840.49826824985
31
9.3546047490789e-006
  0
LINE
 8
GROUP0
10
278.886417250155
20
1841.32610700043
30
9.51483485616689e-006
11
278.761853025484
21
1841.51396277701
31
9.53539655506042e-006
  0
LINE
 8
GROUP0
10
279.197450463686
20
1840.97746971665
30
9.46603070086649e-006
11
279.031866576188
21
1841.14701517978
31
9.49167397513162e-006
  0
LINE
 8
GROUP0
10
265.133513824308
20
1845.14661537877
30
4.3646332525904e-006
11
265.124547496398
21
1844.98615863482
31
4.3624469565462e-006
  0
LINE
 8
GROUP0
10
283.145443861116
20
1843.86551094388
30
9.00067060851106e-006
11
283.145443286007
21
1843.04417647872
31
8.983362174525e-006
  0
LINE
 8
GROUP0
10
279.754477382321
20
1840.58672203213
30
9.38355094433629e-006
11
279.560040661646
21
1840.69607899797
31
9.4117717159059e-006
  0
LINE
 8
GROUP0
10
283.056099773827
20
1842.03175160133
30
8.97393522608647e-006
11
282.984119340801
21
1841.82154332097
31
8.97909951389497e-006
  0
LINE
 8
GROUP0
10
265.966683945909
20
1846.21869928396
30
4.27617409482495e-006
11
265.825414796699
21
1846.14985118566
31
4.29355273469656e-006
  0
LINE
 8
GROUP0
10
283.145447989668
20
1849.7616490542
30
9.12492311157531e-006
11
283.145447781541
21
1849.4644157544
31
9.11865943656886e-006
  0
LINE
 8
GROUP0
10
283.145446452929
20
1847.56697542425
30
9.07867363370563e-006
11
283.14544555671
21
1846.2870524394
31
9.05170108081999e-006
  0
LINE
 8
GROUP0
10
265.124544861874
20
1841.22369737436
30
4.28315854832939e-006
11
265.124544578825
21
1840.81946491768
31
4.27464000344879e-006
  0
LINE
 8
GROUP0
10
282.984119340801
20
1841.82154332097
30
8.97909951389497e-006
11
282.891024696751
21
1841.62012404544
31
8.98726325552768e-006
  0
LINE
 8
GROUP0
10
265.16041453061
20
1845.29997176157
30
4.36427953291463e-006
11
265.133513824308
21
1845.14661537877
31
4.3646332525904e-006
  0
LINE
 8
GROUP0
10
266.432238322495
20
1846.31781880908
30
4.21620984250581e-006
11
266.270135242008
21
1846.30275923356
31
4.23749901872772e-006
  0
LINE
 8
GROUP0
10
280.619605731111
20
1840.35840791344
30
9.26342801992885e-006
11
280.39023608216
21
1840.38410299959
31
9.29454187336698e-006
  0
LINE
 8
GROUP0
10
279.560040661646
20
1840.69607899797
30
9.4117717159059e-006
11
279.374361745741
21
1840.82633095645
31
9.43926544724194e-006
  0
LINE
 8
GROUP0
10
280.619610607116
20
1847.32201186374
30
9.41017581438941e-006
11
280.843332505489
21
1847.32706670106
31
9.38046283993077e-006
  0
LINE
 8
GROUP0
10
282.891024696751
20
1841.62012404544
30
8.98726325552768e-006
11
282.77681584167
21
1841.42748394564
31
8.99842633325099e-006
  0
LINE
 8
GROUP0
10
281.315639637325
20
1840.40693908104
30
9.17167750937864e-006
11
281.090671685999
21
1840.3698281545
31
9.20088107310701e-006
  0
LINE
 8
GROUP0
10
278.452652440814
20
1842.58504501654
30
9.59918098777379e-006
11
278.45048858628
21
1842.72319186409
31
9.60238065921826e-006
  0
LINE
 8
GROUP0
10
282.314188524237
20
1849.39837331728
30
9.22806479213278e-006
11
282.474111898759
21
1849.46826278518
31
9.20822169895308e-006
  0
LINE
 8
GROUP0
10
282.027574989121
20
1846.98424078735
30
9.21539256281689e-006
11
282.148928671158
21
1846.90644276356
31
9.19757801252641e-006
  0
LINE
 8
GROUP0
10
279.374361745741
20
1840.82633095645
30
9.43926544724194e-006
11
279.197450463686
21
1840.97746971665
31
9.46603070086649e-006
  0
LINE
 8
GROUP0
10
280.39023608216
20
1840.38410299959
30
9.29454187336698e-006
11
280.169584921658
21
1840.43072584203
31
9.32493460991113e-006
  0
LINE
 8
GROUP0
10
282.641492775551
20
1841.2436131925
30
9.0125884946779e-006
11
282.485055498387
21
1841.06850195692
31
9.02974953395086e-006
  0
LINE
 8
GROUP0
10
282.14892955993
20
1848.17573014027
30
9.2243263435321e-006
11
282.148929865127
21
1848.61159392695
31
9.23351161308816e-006
  0
LINE
 8
GROUP0
10
282.311715235442
20
1840.90617940524
30
9.04943311784145e-006
11
282.129627715781
21
1840.76453388458
31
9.07071819594707e-006
  0
LINE
 8
GROUP0
10
281.028532781
20
1847.31700535779
30
9.35556577109642e-006
11
281.208388035086
21
1847.29393998847
31
9.33110704983697e-006
  0
LINE
 8
GROUP0
10
278.45048922004
20
1843.62828832716
30
9.62145431467332e-006
11
278.450489516166
21
1844.05119616107
31
9.63036641901116e-006
  0
LINE
 8
GROUP0
10
282.474111898759
20
1849.46826278518
30
9.20822169895308e-006
11
282.655586444607
21
1849.54757051294
31
9.18570455352152e-006
  0
LINE
 8
GROUP0
10
280.843332505489
20
1847.32706670106
30
9.38046283993077e-006
11
281.028532781
21
1847.31700535779
31
9.35556577109642e-006
  0
LINE
 8
GROUP0
10
282.148928972252
20
1847.33644562486
30
9.20663968013158e-006
11
282.14892924949
21
1847.73237949406
31
9.21498338779525e-006
  0
LINE
 8
GROUP0
10
281.93898868249
20
1840.64377890092
30
9.09358336824706e-006
11
281.739785849219
21
1840.54392264516
31
9.11803052200399e-006
  0
LINE
 8
GROUP0
10
278.450489794104
20
1844.44813063507
30
9.63873125809367e-006
11
278.450490017482
21
1844.76714502936
31
9.64545407722284e-006
  0
LINE
 8
GROUP0
10
281.532006929614
20
1840.46497330823
30
9.14406127305867e-006
11
281.315639637325
21
1840.40693908104
31
9.17167750937864e-006
  0
LINE
 8
GROUP0
10
278.45265419782
20
1845.09429010004
30
9.65205969995497e-006
11
278.472645803754
21
1845.32585165948
31
9.65427494295512e-006
  0
LINE
 8
GROUP0
10
282.129627715781
20
1840.76453388458
30
9.07071819594707e-006
11
281.93898868249
21
1840.64377890092
31
9.09358336824706e-006
  0
LINE
 8
GROUP0
10
281.874407982882
20
1847.07203141428
30
9.237657931771e-006
11
282.027574989121
21
1846.98424078735
31
9.21539256281689e-006
  0
LINE
 8
GROUP0
10
282.148930306018
20
1849.24124637562
30
9.24678054942674e-006
11
282.149304959488
21
1849.32631615464
31
9.24852333876736e-006
  0
LINE
 8
GROUP0
10
278.450488718724
20
1842.91233945887
30
9.6063667015811e-006
11
278.450488942102
21
1843.23135385316
31
9.61308943047134e-006
  0
LINE
 8
GROUP0
10
278.513571644243
20
1845.54870053857
30
9.6535161632938e-006
11
278.575421890215
21
1845.76285639547
31
9.64978531027283e-006
  0
LINE
 8
GROUP0
10
281.208388035086
20
1847.29393998847
30
9.33110704983697e-006
11
281.382900725032
21
1847.2578902513
31
9.30708686579518e-006
  0
LINE
 8
GROUP0
10
281.382900725032
20
1847.2578902513
30
9.30708686579518e-006
11
281.552073308123
21
1847.20887580443
31
9.2835052718454e-006
  0
LINE
 8
GROUP0
10
279.56004506473
20
1846.98428651188
30
9.54428653323625e-006
11
279.75448193856
21
1847.09365539813
31
9.52067508289134e-006
  0
LINE
 8
GROUP0
10
278.450488942102
20
1843.23135385316
30
9.61308943047134e-006
11
278.45048922004
21
1843.62828832716
31
9.62145431467332e-006
  0
LINE
 8
GROUP0
10
282.77681584167
20
1841.42748394564
30
8.99842633325099e-006
11
282.641492775551
21
1841.2436131925
31
9.0125884946779e-006
  0
LINE
 8
GROUP0
10
295.992212088449
20
1841.67925423836
30
1.78458091254496e-007
11
296.132478076645
21
1841.81600941154
31
1.62644195089712e-007
  0
LINE
 8
GROUP0
10
279.37436596641
20
1846.85402537583
30
9.56629019449595e-006
11
279.56004506473
21
1846.98428651188
31
9.54428653323625e-006
  0
LINE
 8
GROUP0
10
282.14892924949
20
1847.73237949406
30
9.21498338779525e-006
11
282.14892955993
21
1848.17573014027
31
9.2243263435321e-006
  0
LINE
 8
GROUP0
10
279.75448193856
20
1847.09365539813
30
9.52067508289134e-006
11
279.957666758806
21
1847.18212220553
31
9.49545730631884e-006
  0
LINE
 8
GROUP0
10
295.335831709528
20
1841.37500253151
30
2.59534325791622e-007
11
295.511951601484
21
1841.41289772413
31
2.36858118740635e-007
  0
LINE
 8
GROUP0
10
278.450489516166
20
1844.05119616107
30
9.63036641901116e-006
11
278.450489794104
21
1844.44813063507
31
9.63873125809367e-006
  0
LINE
 8
GROUP0
10
279.197454472693
20
1846.70288181909
30
9.58668537225371e-006
11
279.37436596641
21
1846.85402537583
31
9.56629019449595e-006
  0
LINE
 8
GROUP0
10
296.248469069429
20
1841.96500192058
30
1.50323836256572e-007
11
296.340344077844
21
1842.1267611583
31
1.41486740912189e-007
  0
LINE
 8
GROUP0
10
295.511951601484
20
1841.41289772413
30
2.36858118740635e-007
11
295.68007014264
21
1841.47617397638
31
2.15783408724635e-007
  0
LINE
 8
GROUP0
10
279.031870347484
20
1846.53294276491
30
9.60517462631483e-006
11
279.197454472693
21
1846.70288181909
31
9.58668537225371e-006
  0
LINE
 8
GROUP0
10
295.84016456197
20
1841.56492743292
30
1.96314974881817e-007
11
295.992212088449
21
1841.67925423836
31
1.78458091254496e-007
  0
LINE
 8
GROUP0
10
278.450490017482
20
1844.76714502936
30
9.64545407722284e-006
11
278.450490149926
21
1844.95629262414
31
9.64944002934676e-006
  0
LINE
 8
GROUP0
10
278.658186712598
20
1845.96833888838
30
9.64308397153335e-006
11
278.761856282318
21
1846.16516767547
31
9.63341391448935e-006
  0
LINE
 8
GROUP0
10
278.47264372228
20
1842.35322202415
30
9.59163104075067e-006
11
278.452652440814
21
1842.58504501654
31
9.59918098777379e-006
  0
LINE
 8
GROUP0
10
278.472645803754
20
1845.32585165948
30
9.65427494295512e-006
11
278.513571644243
21
1845.54870053857
31
9.6535161632938e-006
  0
LINE
 8
GROUP0
10
279.957666758806
20
1847.18212220553
30
9.49545730631884e-006
11
280.169589696376
21
1847.24967710498
31
9.46863407982335e-006
  0
LINE
 8
GROUP0
10
282.149304959488
20
1849.32631615464
30
9.24852333876736e-006
11
282.19839373862
21
1849.34776885763
31
9.24243247271694e-006
  0
LINE
 8
GROUP0
10
282.655586444607
20
1849.54757051294
30
9.18570455352152e-006
11
282.836034744202
21
1849.62642975212
31
9.16331475848131e-006
  0
LINE
 8
GROUP0
10
281.552073308123
20
1847.20887580443
30
9.2835052718454e-006
11
281.715908241645
21
1847.14691630603
31
9.26036227574256e-006
  0
LINE
 8
GROUP0
10
278.513569250574
20
1842.13021213308
30
9.58147658607911e-006
11
278.47264372228
21
1842.35322202415
31
9.59163104075067e-006
  0
LINE
 8
GROUP0
10
295.68007014264
20
1841.47617397638
30
2.15783408724635e-007
11
295.84016456197
21
1841.56492743292
31
1.96314974881817e-007
  0
LINE
 8
GROUP0
10
278.45048858628
20
1842.72319186409
30
9.60238065921826e-006
11
278.450488718724
21
1842.91233945887
31
9.6063667015811e-006
  0
LINE
 8
GROUP0
10
278.575421890215
20
1845.76285639547
30
9.64978531027283e-006
11
278.658186712598
21
1845.96833888838
31
9.64308397153335e-006
  0
LINE
 8
GROUP0
10
278.886420770304
20
1846.35336241492
30
9.62077695167429e-006
11
279.031870347484
21
1846.53294276491
31
9.60517462631483e-006
  0
LINE
 8
GROUP0
10
278.450490149926
20
1844.95629262414
30
9.64944002934676e-006
11
278.45265419782
21
1845.09429010004
31
9.65205969995497e-006
  0
LINE
 8
GROUP0
10
283.103542934312
20
1849.74333577117
30
9.13012270113422e-006
11
283.145447989668
21
1849.7616490542
31
9.12492311157531e-006
  0
LINE
 8
GROUP0
10
281.715908241645
20
1847.14691630603
30
9.26036227574256e-006
11
281.874407982882
21
1847.07203141428
31
9.237657931771e-006
  0
LINE
 8
GROUP0
10
296.471458038546
20
1842.71911414054
30
1.36493833041706e-007
11
296.471458067045
21
1842.75981348701
31
1.37351519502449e-007
  0
LINE
 8
GROUP0
10
296.132478076645
20
1841.81600941154
30
1.62644195089712e-007
11
296.248469069429
21
1841.96500192058
31
1.50323836256572e-007
  0
LINE
 8
GROUP0
10
282.148930126638
20
1848.98506721758
30
9.24138194778323e-006
11
282.148930306018
21
1849.24124637562
31
9.24678054942674e-006
  0
LINE
 8
GROUP0
10
297.344123123468
20
1843.18762617924
30
3.00510397954756e-008
11
297.462888186367
21
1843.24020651812
31
1.53290297177922e-008
  0
LINE
 8
GROUP0
10
297.116920394443
20
1843.08703770485
30
5.82146837790898e-008
11
297.344123123468
21
1843.18762617924
31
3.00510397954756e-008
  0
LINE
 8
GROUP0
10
282.148929865127
20
1848.61159392695
30
9.23351161308816e-006
11
282.148930126638
21
1848.98506721758
31
9.24138194778323e-006
  0
LINE
 8
GROUP0
10
282.14892876666
20
1847.04283216918
30
9.20045224432897e-006
11
282.148928972252
21
1847.33644562486
31
9.20663968013158e-006
  0
LINE
 8
GROUP0
10
282.19839373862
20
1849.34776885763
30
9.24243247271694e-006
11
282.314188524237
21
1849.39837331728
31
9.22806479213278e-006
  0
LINE
 8
GROUP0
10
296.471458093622
20
1842.79776905732
30
1.38151429079914e-007
11
296.616041650911
21
1842.86528584087
31
1.20302878453549e-007
  0
LINE
 8
GROUP0
10
293.327596224861
20
1841.17731346851
30
5.23042659739126e-007
11
293.127819706918
21
1841.44325223921
31
5.55274906244296e-007
  0
LINE
 8
GROUP0
10
282.836034744202
20
1849.62642975212
30
9.16331475848131e-006
11
282.992879379963
21
1849.69497375434
31
9.14385367347115e-006
  0
LINE
 8
GROUP0
10
296.033469965498
20
1840.53454678171
30
1.48835826657701e-007
11
295.735829324027
21
1840.4304936989
31
1.86315006434068e-007
  0
LINE
 8
GROUP0
10
292.861408448626
20
1842.03096440787
30
6.03169654783686e-007
11
292.794793949292
21
1842.35279852874
31
6.18830729209874e-007
  0
LINE
 8
GROUP0
10
297.467541598364
20
1842.8259821041
30
5.97956972825386e-009
11
297.467541525965
21
1842.72258722233
31
3.80074589023671e-009
  0
LINE
 8
GROUP0
10
295.075257873847
20
1840.35306191746
30
2.72729713879372e-007
11
294.736977732365
21
1840.38020795248
31
3.18390654169276e-007
  0
LINE
 8
GROUP0
10
296.850989927516
20
1842.96930346779
30
9.11790760671494e-008
11
297.116920394443
21
1843.08703770485
31
5.82146837790898e-008
  0
LINE
 8
GROUP0
10
282.992879379963
20
1849.69497375434
30
9.14385367347115e-006
11
283.103542934312
21
1849.74333577117
31
9.13012270113422e-006
  0
LINE
 8
GROUP0
10
297.462888186367
20
1843.24020651812
30
1.53290297177922e-008
11
297.46754186936
21
1843.21300147809
31
1.4135506398727e-008
  0
LINE
 8
GROUP0
10
296.408057559792
20
1842.30141616092
30
1.36141943524182e-007
11
296.451563973178
21
1842.48909596468
31
1.34298211368344e-007
  0
LINE
 8
GROUP0
10
296.470817775907
20
1842.68992960578
30
1.35964127012667e-007
11
296.471458038546
21
1842.71911414054
31
1.36493833041706e-007
  0
LINE
 8
GROUP0
10
295.151733237798
20
1841.36239225391
30
2.83806755835281e-007
11
295.335831709528
21
1841.37500253151
31
2.59534325791622e-007
  0
LINE
 8
GROUP0
10
296.616041650911
20
1842.86528584087
30
1.20302878453549e-007
11
296.850989927516
21
1842.96930346779
31
9.11790760671494e-008
  0
LINE
 8
GROUP0
10
293.56920574192
20
1840.93246844042
30
4.85679208567236e-007
11
293.327596224861
21
1841.17731346851
31
5.23042659739126e-007
  0
LINE
 8
GROUP0
10
294.116027082331
20
1840.56766364978
30
4.05106471995653e-007
11
293.833351513494
21
1840.72791258916
31
4.46160837003218e-007
  0
LINE
 8
GROUP0
10
295.86225067848
20
1847.20665187203
30
3.12262803553454e-007
11
296.160724693489
21
1847.08088485378
31
2.69829330412641e-007
  0
LINE
 8
GROUP0
10
292.772587030507
20
1842.6933251559
30
6.28966862559199e-007
11
292.772587167831
21
1842.88944330441
31
6.33099710967144e-007
  0
LINE
 8
GROUP0
10
292.794793949292
20
1842.35279852874
30
6.18830729209874e-007
11
292.772587030507
21
1842.6933251559
31
6.28966862559199e-007
  0
LINE
 8
GROUP0
10
292.772588328847
20
1844.54753310552
30
6.68041553991694e-007
11
292.772588591012
21
1844.92194047996
31
6.75931618582259e-007
  0
LINE
 8
GROUP0
10
297.467541525965
20
1842.72258722233
30
3.80074589023671e-009
11
297.466347142273
21
1842.62378639411
31
1.87778113613923e-009
  0
LINE
 8
GROUP0
10
296.451563973178
20
1842.48909596468
30
1.34298211368344e-007
11
296.470817775907
21
1842.68992960578
31
1.35964127012667e-007
  0
LINE
 8
GROUP0
10
297.036032230708
20
1841.41169008864
30
3.36905407072319e-008
11
296.807290211201
21
1841.12079100143
31
5.80488366153098e-008
  0
LINE
 8
GROUP0
10
296.340344077844
20
1842.1267611583
30
1.41486740912189e-007
11
296.408057559792
21
1842.30141616092
31
1.36141943524182e-007
  0
LINE
 8
GROUP0
10
297.46754186936
20
1843.21300147809
30
1.4135506398727e-008
11
297.467541796961
21
1843.10960659632
31
1.1956546497327e-008
  0
LINE
 8
GROUP0
10
292.972420408004
20
1841.72779243185
30
5.81984036895911e-007
11
292.861408448626
21
1842.03096440787
31
6.03169654783686e-007
  0
LINE
 8
GROUP0
10
296.471458067045
20
1842.75981348701
30
1.37351519502449e-007
11
296.471458093622
21
1842.79776905732
31
1.38151429079914e-007
  0
LINE
 8
GROUP0
10
282.148928671158
20
1846.90644276356
30
9.19757801252641e-006
11
282.14892876666
21
1847.04283216918
31
9.20045224432897e-006
  0
LINE
 8
GROUP0
10
292.772587167831
20
1842.88944330441
30
6.33099710967144e-007
11
292.7725875049
21
1843.37082421441
31
6.4324410540828e-007
  0
LINE
 8
GROUP0
10
270.410025111426
20
1681.01885229481
30
6.52840549130729e-006
11
270.410025111426
21
1725.01885229481
31
7.4556489992661e-006
  0
LINE
 8
GROUP0
10
270.410025111426
20
1725.01885229481
30
7.4556489992661e-006
11
274.410025111426
21
1729.01885229481
31
7.53994386317736e-006
  0
LINE
 8
GROUP0
10
349.410093981796
20
1930.01885229481
30
1.17757607528635e-005
11
311.410101326083
21
1930.01885229481
31
1.17757607528635e-005
  0
LINE
 8
GROUP0
10
405.410079293224
20
1930.01885229481
30
1.17757607528635e-005
11
377.41008663751
21
1930.01885229481
31
1.17757607528635e-005
  0
LINE
 8
GROUP0
10
311.410101326083
20
1926.01885229481
30
1.16914658431277e-005
11
273.410108670369
21
1926.01885229481
31
1.16914658431277e-005
  0
LINE
 8
GROUP0
10
377.41008663751
20
1930.01885229481
30
1.17757607528635e-005
11
377.41008663751
21
1926.01885229481
31
1.16914658431277e-005
  0
LINE
 8
GROUP0
10
377.41008663751
20
1926.01885229481
30
1.16914658431277e-005
11
349.410093981796
21
1926.01885229481
31
1.16914658431277e-005
  0
LINE
 8
GROUP0
10
310.410025111426
20
1729.01885229481
30
7.53994386317736e-006
11
314.410025111426
21
1725.01885229481
31
7.4556489992661e-006
  0
LINE
 8
GROUP0
10
273.410108670369
20
1930.01885229481
30
1.17757607528635e-005
11
235.410116014655
21
1930.01885229481
31
1.17757607528635e-005
  0
LINE
 8
GROUP0
10
314.410025111426
20
1725.01885229481
30
7.4556489992661e-006
11
314.410025111426
21
1681.01885229481
31
6.52840549130729e-006
  0
LINE
 8
GROUP0
10
159.410130703227
20
1693.01885229481
30
6.78129008445105e-006
11
171.410130703227
21
1681.01885229481
31
6.52840549130729e-006
  0
LINE
 8
GROUP0
10
413.410079293224
20
1681.01885229481
30
6.52840549130729e-006
11
425.410079293224
21
1693.01885229481
31
6.78129008445105e-006
  0
LINE
 8
GROUP0
10
349.410093981796
20
1930.01885229481
30
1.17757607528635e-005
11
349.410093981796
21
1926.01885229481
31
1.16914658431277e-005
  0
LINE
 8
GROUP0
10
425.410079293224
20
1693.01885229481
30
6.78129008445105e-006
11
425.410079293224
21
1736.01885229481
31
7.68745987643204e-006
  0
LINE
 8
GROUP0
10
207.410123358941
20
1930.01885229481
30
1.17757607528635e-005
11
179.410130703227
21
1930.01885229481
31
1.17757607979829e-005
  0
LINE
 8
GROUP0
10
405.410079293224
20
1930.01885229481
30
1.17757607528635e-005
11
405.410079293224
21
1926.01885229481
31
1.16914658882472e-005
  0
LINE
 8
GROUP0
10
388.410061232625
20
1681.01885229481
30
6.52840549130729e-006
11
413.410079293224
21
1681.01885229481
31
6.52840549130729e-006
  0
LINE
 8
GROUP0
10
179.410130703227
20
1926.01885229481
30
1.16914659333667e-005
11
169.410130920581
21
1926.01885229481
31
1.16914659333667e-005
  0
LINE
 8
GROUP0
10
384.910079293224
20
2000.0188522948
30
1.17757607528635e-005
11
405.410079293224
21
2000.0188522948
31
1.17757607528635e-005
  0
LINE
 8
GROUP0
10
415.410079293224
20
2004.01885229481
30
1.17757607528635e-005
11
415.410079293224
21
1940.01885229481
31
1.17757607979829e-005
  0
LINE
 8
GROUP0
10
169.410134398229
20
2004.01885229481
30
1.17757607528635e-005
11
169.410130920581
21
1940.01885229481
31
1.17757607979829e-005
  0
LINE
 8
GROUP0
10
415.410079293224
20
1926.01885229481
30
1.16914658882472e-005
11
405.410079293224
21
1926.01885229481
31
1.16914658882472e-005
  0
LINE
 8
GROUP0
10
169.410130920581
20
1926.01885229481
30
1.16914659333667e-005
11
169.410130920581
21
1746.01885229481
31
7.89819708203465e-006
  0
LINE
 8
GROUP0
10
196.41009550596
20
1675.01885229481
30
6.40196314961594e-006
11
196.41009550596
21
1681.01885229481
31
6.52840544618782e-006
  0
LINE
 8
GROUP0
10
233.410060308693
20
1675.01885229481
30
6.40196319473541e-006
11
233.410060308693
21
1681.01885229481
31
6.52840549130729e-006
  0
LINE
 8
GROUP0
10
159.410130703227
20
1736.01885229481
30
7.68745992155151e-006
11
159.410130703227
21
1693.01885229481
31
6.78129008445105e-006
  0
LINE
 8
GROUP0
10
388.410061232625
20
1675.01885229481
30
6.40196319473541e-006
11
388.410061232625
21
1681.01885229481
31
6.52840549130729e-006
  0
LINE
 8
GROUP0
10
235.410116014655
20
1930.01885229481
30
1.17757607528635e-005
11
235.410116014655
21
1926.01885229481
31
1.16914658431277e-005
  0
LINE
 8
GROUP0
10
196.41009550596
20
1675.01885229481
30
6.40196314961594e-006
11
233.410060308693
21
1675.01885229481
31
6.40196319473541e-006
  0
LINE
 8
GROUP0
10
273.410108670369
20
1930.01885229481
30
1.17757607528635e-005
11
273.410108670369
21
1926.01885229481
31
1.16914658431277e-005
  0
LINE
 8
GROUP0
10
274.410025111426
20
1729.01885229481
30
7.53994386317736e-006
11
310.410025111426
21
1729.01885229481
31
7.53994386317736e-006
  0
LINE
 8
GROUP0
10
311.410101326083
20
1930.01885229481
30
1.17757607528635e-005
11
311.410101326083
21
1926.01885229481
31
1.16914658431277e-005
  0
LINE
 8
GROUP0
10
415.410079293224
20
1926.01885229481
30
1.16914658882472e-005
11
415.410079293224
21
1746.01885229481
31
7.89819703691519e-006
  0
LINE
 8
GROUP0
10
207.410123358941
20
1930.01885229481
30
1.17757607528635e-005
11
207.410123358941
21
1926.01885229481
31
1.16914658431277e-005
  0
LINE
 8
GROUP0
10
314.410025111426
20
1681.01885229481
30
6.52840549130729e-006
11
351.410043172026
21
1681.01885229481
31
6.52840544618782e-006
  0
LINE
 8
GROUP0
10
415.410079293224
20
1746.01885229481
30
7.89819703691519e-006
11
425.410079293224
21
1736.01885229481
31
7.68745987643204e-006
  0
LINE
 8
GROUP0
10
233.410060308693
20
1681.01885229481
30
6.52840549130729e-006
11
270.410025111426
21
1681.01885229481
31
6.52840549130729e-006
  0
LINE
 8
GROUP0
10
169.410130920581
20
1746.01885229481
30
7.89819708203465e-006
11
159.410130703227
21
1736.01885229481
31
7.68745992155151e-006
  0
LINE
 8
GROUP0
10
405.410079293224
20
2004.01885229481
30
1.17757607528635e-005
11
415.410079293224
21
2004.01885229481
31
1.17757607528635e-005
  0
LINE
 8
GROUP0
10
405.410079293224
20
2004.01885229481
30
1.17757607528635e-005
11
405.410079293224
21
2000.0188522948
31
1.17757607528635e-005
  0
LINE
 8
GROUP0
10
415.410079293224
20
1940.01885229481
30
1.17757607979829e-005
11
411.410079293224
21
1936.01885229481
31
1.17757607979829e-005
  0
LINE
 8
GROUP0
10
351.410043172026
20
1675.01885229481
30
6.40196314961594e-006
11
351.410043172026
21
1681.01885229481
31
6.52840544618782e-006
  0
LINE
 8
GROUP0
10
169.410130920581
20
1940.01885229481
30
1.17757607979829e-005
11
173.410130703228
21
1936.01885229481
31
1.17757607979829e-005
  0
LINE
 8
GROUP0
10
235.410116014655
20
1926.01885229481
30
1.16914658431277e-005
11
207.410123358941
21
1926.01885229481
31
1.16914658431277e-005
  0
LINE
 8
GROUP0
10
179.410130703227
20
1930.01885229481
30
1.17757607979829e-005
11
179.410130703227
21
1926.01885229481
31
1.16914659333667e-005
  0
LINE
 8
GROUP0
10
351.410043172026
20
1675.01885229481
30
6.40196314961594e-006
11
388.410061232625
21
1675.01885229481
31
6.40196319473541e-006
  0
LINE
 8
GROUP0
10
171.410130703227
20
1681.01885229481
30
6.52840549130729e-006
11
196.41009550596
21
1681.01885229481
31
6.52840544618782e-006
  0
LINE
 8
GROUP0
10
322.410104998226
20
2004.01888970668
30
1.17757607528635e-005
11
322.410104998226
21
2000.01888970668
31
1.17757607528635e-005
  0
LINE
 8
GROUP0
10
377.41008663751
20
1940.01885229481
30
1.17757607528635e-005
11
377.41008663751
21
1944.01885229481
31
1.17757607979829e-005
  0
LINE
 8
GROUP0
10
349.410093981796
20
1940.01885229481
30
1.17757607528635e-005
11
349.410093981796
21
1944.01885229481
31
1.17757607979829e-005
  0
LINE
 8
GROUP0
10
179.410138093222
20
2000.01887076982
30
1.17757607528635e-005
11
199.910113831156
21
2000.01888360716
31
1.17757607528635e-005
  0
LINE
 8
GROUP0
10
311.410101326083
20
1940.01885229481
30
1.17757607528635e-005
11
349.410093981796
21
1940.01885229481
31
1.17757607528635e-005
  0
LINE
 8
GROUP0
10
302.410104998226
20
1980.01888970668
30
1.17757607528635e-005
11
298.410104998225
21
1976.01888970668
31
1.17757607528635e-005
  0
LINE
 8
GROUP0
10
262.410104998226
20
2004.01888970668
30
1.17757607528635e-005
11
282.410104998226
21
2004.01888970668
31
1.17757607528635e-005
  0
LINE
 8
GROUP0
10
302.410104998226
20
2004.01888970668
30
1.17757607528635e-005
11
302.410104998226
21
1980.01888970668
31
1.17757607528635e-005
  0
LINE
 8
GROUP0
10
377.41008663751
20
1940.01885229481
30
1.17757607528635e-005
11
405.410079293224
21
1940.01885229481
31
1.17757607528635e-005
  0
LINE
 8
GROUP0
10
282.410104998226
20
1980.01888970668
30
1.17757607528635e-005
11
282.410104998226
21
2004.01888970668
31
1.17757607528635e-005
  0
LINE
 8
GROUP0
10
384.910079293224
20
1957.01888970668
30
1.17757607528635e-005
11
340.910079293224
21
1957.01888970668
31
1.17757607528635e-005
  0
LINE
 8
GROUP0
10
235.410116014655
20
1940.01885229481
30
1.17757607528635e-005
11
273.410108670369
21
1940.01885229481
31
1.17757607528635e-005
  0
LINE
 8
GROUP0
10
235.410116014655
20
1940.01885229481
30
1.17757607528635e-005
11
235.410116014655
21
1944.01885229481
31
1.17757607979829e-005
  0
LINE
 8
GROUP0
10
169.410134398229
20
2004.01885229481
30
1.17757607528635e-005
11
179.410134398221
21
2004.01887076981
31
1.17757607528635e-005
  0
LINE
 8
GROUP0
10
173.410130703228
20
1936.01885229481
30
1.17757607979829e-005
11
411.410079293224
21
1936.01885229481
31
1.17757607979829e-005
  0
LINE
 8
GROUP0
10
199.910113831156
20
1957.01888970668
30
1.17757607528635e-005
11
199.910113831156
21
2000.01888360716
31
1.17757607528635e-005
  0
LINE
 8
GROUP0
10
273.410108670369
20
1940.01885229481
30
1.17757607528635e-005
11
273.410108670369
21
1944.01885229481
31
1.17757607979829e-005
  0
LINE
 8
GROUP0
10
340.910079293224
20
1957.01888970668
30
1.17757607528635e-005
11
340.910079293224
21
2000.01888360716
31
1.17757607528635e-005
  0
LINE
 8
GROUP0
10
235.410116014655
20
1944.01885229481
30
1.17757607979829e-005
11
273.410108670369
21
1944.01885229481
31
1.17757607979829e-005
  0
LINE
 8
GROUP0
10
311.410101326083
20
1940.01885229481
30
1.17757607528635e-005
11
311.410101326083
21
1944.01885229481
31
1.17757607979829e-005
  0
LINE
 8
GROUP0
10
405.410079293224
20
1944.01885229481
30
1.17757607528635e-005
11
405.410079293224
21
1940.01885229481
31
1.17757607528635e-005
  0
LINE
 8
GROUP0
10
311.410101326083
20
1944.01885229481
30
1.17757607979829e-005
11
349.410093981796
21
1944.01885229481
31
1.17757607979829e-005
  0
LINE
 8
GROUP0
10
243.910113831156
20
2000.0188659113
30
1.17757607528635e-005
11
262.410104998226
21
2000.01888970668
31
1.17757607528635e-005
  0
LINE
 8
GROUP0
10
298.410104998225
20
1976.01888970668
30
1.17757607528635e-005
11
286.410104998226
21
1976.01888970668
31
1.17757607528635e-005
  0
LINE
 8
GROUP0
10
243.910113831156
20
1957.01888970668
30
1.17757607528635e-005
11
243.910113831156
21
2000.0188659113
31
1.17757607528635e-005
  0
LINE
 8
GROUP0
10
243.910113831156
20
1957.01888970668
30
1.17757607528635e-005
11
199.910113831156
21
1957.01888970668
31
1.17757607528635e-005
  0
LINE
 8
GROUP0
10
262.410104998226
20
2004.01888970668
30
1.17757607528635e-005
11
262.410104998226
21
2000.01888970668
31
1.17757607528635e-005
  0
LINE
 8
GROUP0
10
302.410104998226
20
2004.01888970668
30
1.17757607528635e-005
11
322.410104998226
21
2004.01888970668
31
1.17757607528635e-005
  0
LINE
 8
GROUP0
10
286.410104998226
20
1976.01888970668
30
1.17757607528635e-005
11
282.410104998226
21
1980.01888970668
31
1.17757607528635e-005
  0
LINE
 8
GROUP0
10
384.910079293224
20
1957.01888970668
30
1.17757607528635e-005
11
384.910079293224
21
2000.0188522948
31
1.17757607528635e-005
  0
LINE
 8
GROUP0
10
322.410104998226
20
2000.01888970668
30
1.17757607528635e-005
11
340.910079293224
21
2000.01888360716
31
1.17757607528635e-005
  0
LINE
 8
GROUP0
10
179.410134398221
20
2004.01887076981
30
1.17757607528635e-005
11
179.410138093222
21
2000.01887076982
31
1.17757607528635e-005
  0
LINE
 8
GROUP0
10
212.6141266845
20
1835.28127664572
30
9.77928798040484e-006
11
215.462227823568
21
1837.24369949347
31
9.82064352206269e-006
  0
LINE
 8
GROUP0
10
377.41008663751
20
1944.01885229481
30
1.17757607979829e-005
11
405.410079293224
21
1944.01885229481
31
1.17757607528635e-005
  0
LINE
 8
GROUP0
10
212.06756544335
20
1848.90372222907
30
1.0066363530703e-005
11
209.885994436575
21
1851.89892095572
31
1.0129483498944e-005
  0
LINE
 8
GROUP0
10
218.425867082906
20
1855.39752477652
30
1.02032120823936e-005
11
217.291564943625
21
1856.65589231497
31
1.02297305628662e-005
  0
LINE
 8
GROUP0
10
212.06756544335
20
1848.90372222907
30
1.0066363530703e-005
11
212.040850164724
21
1848.85811180121
31
1.00654023500624e-005
  0
LINE
 8
GROUP0
10
216.7582216285
20
1853.06227010733
30
1.01539995881916e-005
11
218.161275865866
21
1853.55729764945
31
1.01644316579885e-005
  0
LINE
 8
GROUP0
10
216.006055834127
20
1857.75934309012
30
1.0252984370962e-005
11
214.590331079794
21
1858.68985456473
31
1.02725937058401e-005
  0
LINE
 8
GROUP0
10
218.161275865866
20
1853.55729764945
30
1.01644316579885e-005
11
218.425867082906
21
1855.39752477652
31
1.02032120823936e-005
  0
LINE
 8
GROUP0
10
209.885994436575
20
1851.89892095572
30
1.0129483498944e-005
11
212.39103746636
21
1854.47041791922
31
1.01836744959227e-005
  0
LINE
 8
GROUP0
10
220.846965724958
20
1831.94182485587
30
9.70891332127133e-006
11
221.517705859974
21
1835.33488840109
31
9.78041777953131e-006
  0
LINE
 8
GROUP0
10
222.680055501295
20
1835.51125997549
30
9.78413458347926e-006
11
223.806560518576
21
1835.84764236456
31
9.79122341099314e-006
  0
LINE
 8
GROUP0
10
179.410130703228
20
1944.01885229481
30
1.17757607528635e-005
11
207.410123358941
21
1944.01885229481
31
1.17757607979829e-005
  0
LINE
 8
GROUP0
10
179.410130703228
20
1944.01885229481
30
1.17757607528635e-005
11
179.410130703228
21
1940.0188522948
31
1.17757607528635e-005
  0
LINE
 8
GROUP0
10
179.410130703228
20
1940.0188522948
30
1.17757607528635e-005
11
207.410123358941
21
1940.0188522948
31
1.17757607528635e-005
  0
LINE
 8
GROUP0
10
207.844576361013
20
1857.25481885916
30
1.02423521702588e-005
11
206.541147711112
21
1855.86810392386
31
1.02131289337393e-005
  0
LINE
 8
GROUP0
10
238.264181386155
20
1859.34816435004
30
1.02864667389235e-005
11
238.114330752397
21
1858.9863929177
31
1.0278842870709e-005
  0
LINE
 8
GROUP0
10
228.606983187033
20
1834.86248868948
30
9.77046256183667e-006
11
229.074403288199
21
1835.29456514365
31
9.77956801858637e-006
  0
LINE
 8
GROUP0
10
217.459531786276
20
1836.0138458634
30
9.79472593626296e-006
11
218.566886904074
21
1835.61896699912
31
9.78640437097611e-006
  0
LINE
 8
GROUP0
10
215.442317964865
20
1852.36800283438
30
1.01393687969797e-005
11
216.7582216285
21
1853.06227010733
31
1.01539995881916e-005
  0
LINE
 8
GROUP0
10
216.417891504599
20
1836.55895751959
30
9.80621346452493e-006
11
217.459531786276
21
1836.0138458634
31
9.79472593626296e-006
  0
LINE
 8
GROUP0
10
202.446281912161
20
1847.38709968573
30
1.00344026580323e-005
11
202.170946600272
21
1845.50398952013
31
9.99471852883849e-006
  0
LINE
 8
GROUP0
10
221.517705859974
20
1835.33488840109
30
9.78041777953131e-006
11
222.680055501295
21
1835.51125997549
31
9.78413458347926e-006
  0
LINE
 8
GROUP0
10
210.265264990164
20
1848.82016700751
30
1.00646027119067e-005
11
212.040850164724
21
1848.85811180121
31
1.00654023500624e-005
  0
LINE
 8
GROUP0
10
219.718410374952
20
1835.38200563437
30
9.78141071440452e-006
11
220.210655155017
21
1831.95848649985
31
9.70926444446296e-006
  0
LINE
 8
GROUP0
10
202.911087515188
20
1849.23259872443
30
1.00732941806569e-005
11
202.446281912161
21
1847.38709968573
31
1.00344026580323e-005
  0
LINE
 8
GROUP0
10
212.169962408377
20
1835.73722404486
30
9.78889648674541e-006
11
212.6141266845
21
1835.28127664572
31
9.77928798040484e-006
  0
LINE
 8
GROUP0
10
212.551271917654
20
1859.6066026116
30
1.02919129937706e-005
11
211.462442877127
21
1859.97437089926
31
1.02996632380781e-005
  0
LINE
 8
GROUP0
10
220.210655155017
20
1831.95848649985
30
9.70926444446296e-006
11
220.846965724958
21
1831.94182485587
31
9.70891332127133e-006
  0
LINE
 8
GROUP0
10
207.410123358941
20
1940.0188522948
30
1.17757607528635e-005
11
207.410123358941
21
1944.01885229481
31
1.17757607979829e-005
  0
LINE
 8
GROUP0
10
223.806560518576
20
1835.84764236456
30
9.79122341099314e-006
11
224.875301363303
21
1836.33749240881
31
9.80154637135189e-006
  0
LINE
 8
GROUP0
10
202.170946600272
20
1845.50398952013
30
9.99471852883849e-006
11
203.601997854545
21
1846.55576843268
31
1.00168834195669e-005
  0
LINE
 8
GROUP0
10
225.865491869284
20
1836.97127956397
30
9.81490262231266e-006
11
228.606983187033
21
1834.86248868948
31
9.77046256183667e-006
  0
LINE
 8
GROUP0
10
214.590331079794
20
1858.68985456473
30
1.02725937058401e-005
11
213.067504885031
21
1859.43223661429
31
1.02882384540703e-005
  0
LINE
 8
GROUP0
10
224.875301363303
20
1836.33749240881
30
9.80154637135189e-006
11
225.865491869284
21
1836.97127956397
31
9.81490262231266e-006
  0
LINE
 8
GROUP0
10
206.264181386156
20
1860.12462148535
30
1.03028295761087e-005
11
206.315292646721
21
1859.7363929177
31
1.02946481575161e-005
  0
LINE
 8
GROUP0
10
203.516254541045
20
1858.9863929177
30
1.0278842870709e-005
11
203.366403907287
21
1859.34816435004
31
1.02864667389235e-005
  0
LINE
 8
GROUP0
10
217.291564943625
20
1856.65589231497
30
1.02297305628662e-005
11
216.006055834127
21
1857.75934309012
31
1.0252984370962e-005
  0
LINE
 8
GROUP0
10
205.875952818501
20
1860.79705308948
30
1.0317000208715e-005
11
206.114330752399
21
1860.4863929177
31
1.03104534450282e-005
  0
LINE
 8
GROUP0
10
208.507620336844
20
1848.56556266791
30
1.00592372526243e-005
11
210.265264990164
21
1848.82016700751
31
1.00646027119067e-005
  0
LINE
 8
GROUP0
10
215.462227823568
20
1837.24369949347
30
9.82064352206269e-006
11
216.417891504599
21
1836.55895751959
31
9.80621346452493e-006
  0
LINE
 8
GROUP0
10
204.427064079067
20
1858.28750417826
30
1.02641146877247e-005
11
204.065292646721
21
1858.43735481202
31
1.02672725975805e-005
  0
LINE
 8
GROUP0
10
229.074403288199
20
1835.29456514365
30
9.77956801858637e-006
11
227.187208177878
21
1838.19306129462
31
9.84065010350421e-006
  0
LINE
 8
GROUP0
10
209.281860830618
20
1858.50226682669
30
1.02686405351216e-005
11
207.844576361013
21
1857.25481885916
31
1.02423521702588e-005
  0
LINE
 8
GROUP0
10
213.067504885031
20
1859.43223661429
30
1.02882384540703e-005
11
212.551271917654
21
1859.6066026116
31
1.02919129937706e-005
  0
LINE
 8
GROUP0
10
203.366403907287
20
1859.34816435004
30
1.02864667389235e-005
11
203.315292646722
21
1859.7363929177
31
1.02946481575161e-005
  0
LINE
 8
GROUP0
10
205.565292646721
20
1858.43735481202
30
1.02672725975805e-005
11
205.203521214375
21
1858.28750417826
31
1.02641146877247e-005
  0
LINE
 8
GROUP0
10
218.566886904074
20
1835.61896699912
30
9.78640437097611e-006
11
219.718410374952
21
1835.38200563437
31
9.78141071440452e-006
  0
LINE
 8
GROUP0
10
205.8759528185
20
1858.67573274592
30
1.02722961063173e-005
11
205.565292646721
21
1858.43735481202
31
1.02672725975805e-005
  0
LINE
 8
GROUP0
10
233.186481001211
20
1840.19100898749
30
9.8827542856339e-006
11
234.609801771476
21
1840.60361618048
31
9.89144945277021e-006
  0
LINE
 8
GROUP0
10
294.736977732365
20
1840.38020795248
30
3.18390654169276e-007
11
294.417234978574
21
1840.45175198374
31
3.62516258067824e-007
  0
LINE
 8
GROUP0
10
292.772587929357
20
1843.97700758256
30
6.56018551459248e-007
11
292.772588328847
21
1844.54753310552
31
6.68041553991694e-007
  0
LINE
 8
GROUP0
10
293.127819706918
20
1841.44325223921
30
5.55274906244296e-007
11
292.972420408004
21
1841.72779243185
31
5.81984036895911e-007
  0
LINE
 8
GROUP0
10
297.467541796961
20
1843.10960659632
30
1.1956546497327e-008
11
297.467541697662
21
1842.96779435021
31
8.96812579198602e-009
  0
LINE
 8
GROUP0
10
297.466347142273
20
1842.62378639411
30
1.87778113613923e-009
11
297.431405666571
21
1842.31367961352
31
0.0
  0
LINE
 8
GROUP0
10
296.309245327762
20
1840.68215282849
30
1.15188645050113e-007
11
296.033469965498
21
1840.53454678171
31
1.48835826657701e-007
  0
LINE
 8
GROUP0
10
294.417234978574
20
1840.45175198374
30
3.62516258067824e-007
11
294.116027082331
21
1840.56766364978
31
4.05106471995653e-007
  0
LINE
 8
GROUP0
10
297.216278572179
20
1841.70753531615
30
1.59002935928854e-008
11
297.036032230708
21
1841.41169008864
31
3.36905407072319e-008
  0
LINE
 8
GROUP0
10
296.956408063414
20
1846.45425281305
30
1.50568624857073e-007
11
297.147980242772
21
1846.1911039287
31
1.19488732275297e-007
  0
LINE
 8
GROUP0
10
296.807290211201
20
1841.12079100143
30
5.80488366153098e-008
11
296.563147820452
21
1840.87330930912
31
8.53748081452998e-008
  0
LINE
 8
GROUP0
10
293.833351513494
20
1840.72791258916
30
4.46160837003218e-007
11
293.56920574192
21
1840.93246844042
31
4.85679208567236e-007
  0
LINE
 8
GROUP0
10
292.7725875049
20
1843.37082421441
30
6.4324410540828e-007
11
292.772587929357
21
1843.97700758256
31
6.56018551459248e-007
  0
LINE
 8
GROUP0
10
297.467541697662
20
1842.96779435021
30
8.96812579198602e-009
11
297.467541598364
21
1842.8259821041
31
5.97956972825386e-009
  0
LINE
 8
GROUP0
10
296.563147820452
20
1840.87330930912
30
8.53748081452998e-008
11
296.309245327762
21
1840.68215282849
31
1.15188645050113e-007
  0
LINE
 8
GROUP0
10
297.467543109012
20
1844.98339497895
30
5.14439153498358e-008
11
297.467543060031
21
1844.91344293034
31
4.99697658862264e-008
  0
LINE
 8
GROUP0
10
297.431405666571
20
1842.31367961352
30
0.0
11
297.348059597003
21
1842.00823053933
31
4.67218744248932e-009
  0
LINE
 8
GROUP0
10
295.416330993715
20
1840.36999611016
30
2.2762551675215e-007
11
295.075257873847
21
1840.35306191746
31
2.72729713879372e-007
  0
LINE
 8
GROUP0
10
297.348059597003
20
1842.00823053933
30
4.67218744248932e-009
11
297.216278572179
21
1841.70753531615
31
1.59002935928854e-008
  0
LINE
 8
GROUP0
10
295.735829324027
20
1840.4304936989
30
1.86315006434068e-007
11
295.416330993715
21
1840.36999611016
31
2.2762551675215e-007
  0
LINE
 8
GROUP0
10
293.036010583793
20
1846.0799430841
30
6.65223926671343e-007
11
293.211134727822
21
1846.35666654739
31
6.47713460416588e-007
  0
LINE
 8
GROUP0
10
297.294769255813
20
1845.90456325939
30
9.38850122700341e-008
11
297.396775102561
21
1845.59466116657
31
7.3758059854212e-008
  0
LINE
 8
GROUP0
10
292.818920863179
20
1845.47147098264
30
6.81336676539024e-007
11
292.905269255433
21
1845.78490066694
31
6.7643259690775e-007
  0
LINE
 8
GROUP0
10
297.396775102561
20
1845.59466116657
30
7.3758059854212e-008
11
297.453997783035
21
1845.2614280117
31
5.91085595746943e-008
  0
LINE
 8
GROUP0
10
297.467542856652
20
1844.62298985895
30
4.38488848175655e-008
11
297.467542759754
21
1844.48460645844
31
4.09326778139096e-008
  0
LINE
 8
GROUP0
10
297.467542759754
20
1844.48460645844
30
4.09326778139096e-008
11
297.467542704384
21
1844.40553022958
31
3.92662475257044e-008
  0
LINE
 8
GROUP0
10
292.905269255433
20
1845.78490066694
30
6.7643259690775e-007
11
293.036010583793
21
1846.0799430841
31
6.65223926671343e-007
  0
LINE
 8
GROUP0
10
292.776975527471
20
1845.13958571791
30
6.79933464037274e-007
11
292.818920863179
21
1845.47147098264
31
6.81336676539024e-007
  0
LINE
 8
GROUP0
10
295.729421430217
20
1843.62714313873
30
2.54534130422757e-007
11
294.761313443485
21
1843.19698099881
31
3.74506575778755e-007
  0
LINE
 8
GROUP0
10
296.668773734174
20
1844.04452818538
30
1.38125232296282e-007
11
295.729421430217
21
1843.62714313873
31
2.54534130422757e-007
  0
LINE
 8
GROUP0
10
297.467543060031
20
1844.91344293034
30
4.99697658862264e-008
11
297.467542966327
21
1844.77962161996
31
4.71497437093404e-008
  0
LINE
 8
GROUP0
10
293.430631567082
20
1846.61513937011
30
6.23904080854221e-007
11
293.684320602284
21
1846.84424413972
31
5.94918289742452e-007
  0
LINE
 8
GROUP0
10
295.550462289886
20
1847.28805799883
30
3.55536111357191e-007
11
295.86225067848
21
1847.20665187203
31
3.12262803553454e-007
  0
LINE
 8
GROUP0
10
294.247613829096
20
1847.16965822251
30
5.26695516717135e-007
11
294.557059262157
21
1847.26585425474
31
4.87477308025452e-007
  0
LINE
 8
GROUP0
10
296.160724693489
20
1847.08088485378
30
2.69829330412641e-007
11
296.445907106025
21
1846.91078730551
31
2.28233309768067e-007
  0
LINE
 8
GROUP0
10
292.772588591012
20
1844.92194047996
30
6.75931618582259e-007
11
292.776975527471
21
1845.13958571791
31
6.79933464037274e-007
  0
LINE
 8
GROUP0
10
293.984088989614
20
1841.98576730946
30
4.52576857878917e-007
11
294.101214684672
21
1841.83001840074
31
4.33683224854153e-007
  0
LINE
 8
GROUP0
10
297.453997783035
20
1845.2614280117
30
5.91085595746943e-008
11
297.467543109012
21
1844.98339497895
31
5.14439153498358e-008
  0
LINE
 8
GROUP0
10
295.22533675659
20
1847.32507287274
30
3.99651592281058e-007
11
295.550462289886
21
1847.28805799883
31
3.55536111357191e-007
  0
LINE
 8
GROUP0
10
297.32056921039
20
1844.33414229939
30
5.73517620505726e-008
11
296.668773734174
21
1844.04452818538
31
1.38125232296282e-007
  0
LINE
 8
GROUP0
10
296.445907106025
20
1846.91078730551
30
2.28233309768067e-007
11
296.717820687203
21
1846.69638958868
31
1.87472267099142e-007
  0
LINE
 8
GROUP0
10
297.467542966327
20
1844.77962161996
30
4.71497437093404e-008
11
297.467542856652
21
1844.62298985895
31
4.38488848175655e-008
  0
LINE
 8
GROUP0
10
289.31037113862
20
1840.55619977573
30
8.1092183386311e-006
11
289.310371235554
21
1840.69463490519
31
8.11213572649572e-006
  0
LINE
 8
GROUP0
10
297.147980242772
20
1846.1911039287
30
1.19488732275297e-007
11
297.294769255813
21
1845.90456325939
31
9.38850122700341e-008
  0
LINE
 8
GROUP0
10
296.717820687203
20
1846.69638958868
30
1.87472267099142e-007
11
296.956408063414
21
1846.45425281305
31
1.50568624857073e-007
  0
LINE
 8
GROUP0
10
294.885040615121
20
1847.31766913224
30
4.44853082481877e-007
11
295.22533675659
21
1847.32507287274
31
3.99651592281058e-007
  0
LINE
 8
GROUP0
10
293.211134727822
20
1846.35666654739
30
6.47713460416588e-007
11
293.430631567082
21
1846.61513937011
31
6.23904080854221e-007
  0
LINE
 8
GROUP0
10
293.892386807004
20
1842.15378363487
30
4.68340494486075e-007
11
293.984088989614
21
1841.98576730946
31
4.52576857878917e-007
  0
LINE
 8
GROUP0
10
294.557059262157
20
1847.26585425474
30
4.87477308025452e-007
11
294.885040615121
21
1847.31766913224
31
4.44853082481877e-007
  0
LINE
 8
GROUP0
10
293.684320602284
20
1846.84424413972
30
5.94918289742452e-007
11
293.956701785838
21
1847.02911139702
31
5.62508933832362e-007
  0
LINE
 8
GROUP0
10
297.467542704384
20
1844.40553022958
30
3.92662475257044e-008
11
297.32056921039
21
1844.33414229939
31
5.73517620505726e-008
  0
LINE
 8
GROUP0
10
293.956701785838
20
1847.02911139702
30
5.62508933832362e-007
11
294.247613829096
21
1847.16965822251
31
5.26695516717135e-007
  0
LINE
 8
GROUP0
10
293.826095486321
20
1842.33419135293
30
4.80978144667965e-007
11
293.892386807004
21
1842.15378363487
31
4.68340494486075e-007
  0
LINE
 8
GROUP0
10
294.241922480777
20
1841.68804060791
30
4.11936508365462e-007
11
294.397150207616
21
1841.57055093548
31
3.88770492876223e-007
  0
LINE
 8
GROUP0
10
289.310370904805
20
1840.22227988133
30
8.10218154161379e-006
11
289.3103709414
21
1840.27454213481
31
8.10328281113937e-006
  0
LINE
 8
GROUP0
10
289.310371235554
20
1840.69463490519
30
8.11213572649572e-006
11
289.31037128891
21
1840.77083406867
31
8.11374152609456e-006
  0
LINE
 8
GROUP0
10
293.785202377044
20
1842.5271144396
30
4.90494363375449e-007
11
293.826095486321
21
1842.33419135293
31
4.80978144667965e-007
  0
LINE
 8
GROUP0
10
289.310371029953
20
1840.40100880928
30
8.10594793396735e-006
11
289.31037113862
21
1840.55619977573
31
8.1092183386311e-006
  0
LINE
 8
GROUP0
10
294.397150207616
20
1841.57055093548
30
3.88770492876223e-007
11
294.565712255227
21
1841.4793374085
31
3.64381002498915e-007
  0
LINE
 8
GROUP0
10
287.779980865723
20
1840.35834609812
30
8.30903211713197e-006
11
287.431053136086
21
1840.40653088495
31
8.35655556491455e-006
  0
LINE
 8
GROUP0
10
294.74764151512
20
1841.41430388234
30
3.38761454726777e-007
11
294.942970878806
21
1841.37535421236
31
3.11905446825911e-007
  0
LINE
 8
GROUP0
10
294.101214684672
20
1841.83001840074
30
4.33683224854153e-007
11
294.241922480777
21
1841.68804060791
31
4.11936508365462e-007
  0
LINE
 8
GROUP0
10
285.611503233897
20
1844.96237164313
30
8.69508844161815e-006
11
285.623070449024
21
1845.23363961971
31
8.69926333361137e-006
  0
LINE
 8
GROUP0
10
289.3103709414
20
1840.27454213481
30
8.10328281113937e-006
11
289.310371029953
21
1840.40100880928
31
8.10594793396735e-006
  0
LINE
 8
GROUP0
10
286.242666999066
20
1841.09280861958
30
8.52941591060752e-006
11
286.017496871067
21
1841.36754948733
31
8.56521824172951e-006
  0
LINE
 8
GROUP0
10
285.715624387452
20
1841.979149311
30
8.61834301643105e-006
11
285.638880372523
21
1842.31609158569
31
8.63567267630483e-006
  0
LINE
 8
GROUP0
10
285.611570069307
20
1842.67385098145
30
8.64685214367333e-006
11
285.611501782363
21
1842.88938219773
31
8.65140321144042e-006
  0
LINE
 8
GROUP0
10
294.761313443485
20
1843.19698099881
30
3.74506575778755e-007
11
294.023250918947
21
1842.86903560501
31
4.65970732832499e-007
  0
LINE
 8
GROUP0
10
285.623070449024
20
1845.23363961971
30
8.69926333361137e-006
11
285.681600102888
21
1845.57801727866
31
8.69871922460352e-006
  0
LINE
 8
GROUP0
10
287.431053136086
20
1840.40653088495
30
8.35655556491455e-006
11
287.102784729685
21
1840.5041687746
31
8.40236744250045e-006
  0
LINE
 8
GROUP0
10
285.841822943748
20
1841.66298249801
30
8.59485940010174e-006
11
285.715624387452
21
1841.979149311
31
8.61834301643105e-006
  0
LINE
 8
GROUP0
10
285.611502141769
20
1843.40266316708
30
8.66221985839632e-006
11
285.61150259159
21
1844.04507032835
31
8.67575767430906e-006
  0
LINE
 8
GROUP0
10
288.38223825323
20
1840.38807074236
30
8.22938463835299e-006
11
288.104030168791
21
1840.35698048255
31
8.26581128819948e-006
  0
LINE
 8
GROUP0
10
286.508273497202
20
1840.84766103023
30
8.48884756470825e-006
11
286.242666999066
21
1841.09280861958
31
8.52941591060752e-006
  0
LINE
 8
GROUP0
10
288.900678055357
20
1840.54171396481
30
8.16352038870982e-006
11
288.647751840687
21
1840.44959897532
31
8.19529131901309e-006
  0
LINE
 8
GROUP0
10
285.638880372523
20
1842.31609158569
30
8.63567267630483e-006
11
285.611570069307
21
1842.67385098145
31
8.64685214367333e-006
  0
LINE
 8
GROUP0
10
285.611501782363
20
1842.88938219773
30
8.65140321144042e-006
11
285.611502141769
21
1843.40266316708
31
8.66221985839632e-006
  0
LINE
 8
GROUP0
10
294.942970878806
20
1841.37535421236
30
3.11905446825911e-007
11
295.151733237798
21
1841.36239225391
31
2.83806755835281e-007
  0
LINE
 8
GROUP0
10
294.565712255227
20
1841.4793374085
30
3.64381002498915e-007
11
294.74764151512
21
1841.41430388234
31
3.38761454726777e-007
  0
LINE
 8
GROUP0
10
288.104030168791
20
1840.35698048255
30
8.26581128819948e-006
11
287.779980865723
21
1840.35834609812
31
8.30903211713197e-006
  0
LINE
 8
GROUP0
10
294.023250918947
20
1842.86903560501
30
4.65970732832499e-007
11
293.769694828653
21
1842.73267687083
31
4.96893205015336e-007
  0
LINE
 8
GROUP0
10
293.769694828653
20
1842.73267687083
30
4.96893205015336e-007
11
293.785202377044
21
1842.5271144396
31
4.90494363375449e-007
  0
LINE
 8
GROUP0
10
245.329713367594
20
1849.74388998126
30
1.41649461240734e-005
11
245.599533070173
21
1849.70187242147
31
1.41280967908608e-005
  0
LINE
 8
GROUP0
10
242.183645472886
20
1846.59805439288
30
1.45179861082589e-005
11
242.183645705712
21
1846.93056138688
31
1.45249932660185e-005
  0
LINE
 8
GROUP0
10
242.888007588073
20
1841.28472865719
30
1.43121318149142e-005
11
242.712736271225
21
1841.49750823865
31
1.43399774660824e-005
  0
LINE
 8
GROUP0
10
242.548844118065
20
1848.3704941626
30
1.45066611383748e-005
11
242.6965902649
21
1848.5934190239
31
1.44916661520167e-005
  0
LINE
 8
GROUP0
10
242.6965902649
20
1848.5934190239
30
1.44916661520167e-005
11
242.86935982912
21
1848.80619608
31
1.44731219932082e-005
  0
LINE
 8
GROUP0
10
245.357160907918
20
1840.37381666569
30
1.39638261145381e-005
11
245.077895225077
21
1840.35394083209
31
1.40006301830586e-005
  0
LINE
 8
GROUP0
10
247.349488388689
20
1848.50546388022
30
1.38696354298862e-005
11
247.487316610911
21
1848.27847787529
31
1.3846481105273e-005
  0
LINE
 8
GROUP0
10
242.185650360878
20
1847.10342420393
30
1.45283688406272e-005
11
242.208199828125
21
1847.37718605159
31
1.45311324317499e-005
  0
LINE
 8
GROUP0
10
242.337080950354
20
1842.19541914019
30
1.4404755420222e-005
11
242.261933074043
21
1842.44812301925
31
1.44200971249842e-005
  0
LINE
 8
GROUP0
10
246.574087671155
20
1849.28595783357
30
1.39894351544101e-005
11
246.791604453304
21
1849.11987115893
31
1.3956942677168e-005
  0
LINE
 8
GROUP0
10
242.183643070247
20
1843.16675683561
30
1.44456765044487e-005
11
242.183643284732
21
1843.47307071848
31
1.44521316312096e-005
  0
LINE
 8
GROUP0
10
243.996577995145
20
1840.52170814123
30
1.41482926611425e-005
11
243.752949663793
21
1840.62530064644
31
1.41829484890665e-005
  0
LINE
 8
GROUP0
10
243.52010620577
20
1840.75353472755
30
1.42166862360127e-005
11
243.298030069852
21
1840.90640140489
31
1.42495077878335e-005
  0
LINE
 8
GROUP0
10
242.86935982912
20
1848.80619608
30
1.44731219932082e-005
11
243.066589372974
21
1849.00827077729
31
1.44510920540908e-005
  0
LINE
 8
GROUP0
10
243.278021994321
20
1849.18929482173
30
1.44267253765373e-005
11
243.499849082575
21
1849.34542861958
31
1.44004486405114e-005
  0
LINE
 8
GROUP0
10
249.805890610433
20
1837.91871987242
30
1.33191244100495e-005
11
249.805890818534
21
1838.21591668546
31
1.3325387406149e-005
  0
LINE
 8
GROUP0
10
244.491355169136
20
1849.72164910654
30
1.42762207860692e-005
11
244.765344390283
21
1849.75377249256
31
1.42403781865308e-005
  0
LINE
 8
GROUP0
10
242.183643655113
20
1844.0020260459
30
1.44632785949395e-005
11
242.183644120255
21
1844.66631244747
31
1.44772774429425e-005
  0
LINE
 8
GROUP0
10
242.211829323431
20
1842.71096511733
30
1.44323144069924e-005
11
242.186775004746
21
1842.98400829227
31
1.44414078683097e-005
  0
LINE
 8
GROUP0
10
247.750423705684
20
1847.53655225922
30
1.37957770074248e-005
11
247.788007016095
21
1847.26889941781
31
1.37851270888723e-005
  0
LINE
 8
GROUP0
10
242.183644619022
20
1845.37861955277
30
1.44922883550613e-005
11
242.183645090277
21
1846.05163699138
31
1.4506471153003e-005
  0
LINE
 8
GROUP0
10
242.183645090277
20
1846.05163699138
30
1.4506471153003e-005
11
242.183645472886
21
1846.59805439288
31
1.45179861082589e-005
  0
LINE
 8
GROUP0
10
243.974737272698
20
1849.58314302779
30
1.43421611085381e-005
11
244.227823681015
21
1849.66478241431
31
1.43101480770624e-005
  0
LINE
 8
GROUP0
10
247.788007016095
20
1847.26889941781
30
1.37851270888723e-005
11
247.800534200638
21
1846.99106354056
31
1.37776024087488e-005
  0
LINE
 8
GROUP0
10
247.186593836428
20
1848.72229950274
30
1.38959169443453e-005
11
247.349488388689
21
1848.50546388022
31
1.38696354298862e-005
  0
LINE
 8
GROUP0
10
242.712736271225
20
1841.49750823865
30
1.43399774660824e-005
11
242.562487855171
21
1841.72017460774
31
1.4364696148067e-005
  0
LINE
 8
GROUP0
10
242.186775004746
20
1842.98400829227
30
1.44414078683097e-005
11
242.183643070247
21
1843.16675683561
31
1.44456765044487e-005
  0
LINE
 8
GROUP0
10
243.73208329096
20
1849.4767015589
30
1.43722609309338e-005
11
243.974737272698
21
1849.58314302779
31
1.43421611085381e-005
  0
LINE
 8
GROUP0
10
247.800533361549
20
1845.79272870662
30
1.37523492662717e-005
11
247.800532871952
21
1845.09351815689
31
1.37376143463874e-005
  0
LINE
 8
GROUP0
10
242.255799243645
20
1847.64076744059
30
1.45303425979126e-005
11
242.32844330126
21
1847.89417490163
31
1.45260001977954e-005
  0
LINE
 8
GROUP0
10
243.499849082575
20
1849.34542861958
30
1.44004486405114e-005
11
243.73208329096
21
1849.4767015589
31
1.43722609309338e-005
  0
LINE
 8
GROUP0
10
243.752949663793
20
1840.62530064644
30
1.41829484890665e-005
11
243.52010620577
21
1840.75353472755
31
1.42166862360127e-005
  0
LINE
 8
GROUP0
10
250.822141434002
20
1846.91587804851
30
1.3373272929873e-005
11
251.012778504181
21
1847.0366302432
31
1.33504078344171e-005
  0
LINE
 8
GROUP0
10
254.499227741137
20
1845.09429602979
30
1.28447727262559e-005
11
254.501392306052
21
1844.95630939361
31
1.2841576295658e-005
  0
LINE
 8
GROUP0
10
246.346133978615
20
1849.42717190905
30
1.40227946416271e-005
11
246.574087671155
21
1849.28595783357
31
1.39894351544101e-005
  0
LINE
 8
GROUP0
10
249.805894738479
20
1843.81413420459
30
1.34433617501539e-005
11
249.805895313517
21
1844.63536784716
31
1.34606680141758e-005
  0
LINE
 8
GROUP0
10
249.814634526015
20
1845.2006276505
30
1.34714152448367e-005
11
249.844428577295
21
1845.42821663557
31
1.34722401555321e-005
  0
LINE
 8
GROUP0
10
249.805895313517
20
1844.63536784716
30
1.34606680141758e-005
11
249.805895557292
21
1844.98351268529
31
1.34680046293245e-005
  0
LINE
 8
GROUP0
10
251.860833730198
20
1847.31060855457
30
1.32431456780546e-005
11
252.094261132062
21
1847.32679227465
31
1.32123735650747e-005
  0
LINE
 8
GROUP0
10
250.174849279764
20
1846.25181659555
30
1.34455551778934e-005
11
250.310220529804
21
1846.43611769046
31
1.34313957236343e-005
  0
LINE
 8
GROUP0
10
254.189884971927
20
1846.16519150889
30
1.29085721731759e-005
11
254.293607275587
21
1845.96834389206
31
1.28905989433714e-005
  0
LINE
 8
GROUP0
10
253.197083821244
20
1847.09368841554
30
1.30604678531099e-005
11
253.391560992127
21
1846.98433048166
31
1.30322417369988e-005
  0
LINE
 8
GROUP0
10
242.437267646139
20
1841.95279062231
30
1.43862886885282e-005
11
242.337080950354
21
1842.19541914019
31
1.4404755420222e-005
  0
LINE
 8
GROUP0
10
249.844428577295
20
1845.42821663557
30
1.34722401555321e-005
11
249.895356088293
21
1845.64711200261
31
1.34700650512298e-005
  0
LINE
 8
GROUP0
10
243.298030069852
20
1840.90640140489
30
1.42495077878335e-005
11
243.086703704815
21
1841.08389169878
31
1.42814154815762e-005
  0
LINE
 8
GROUP0
10
246.998630913292
20
1848.92899127355
30
1.39253259221872e-005
11
247.186593836428
21
1848.72229950274
31
1.38959169443453e-005
  0
LINE
 8
GROUP0
10
243.066589372974
20
1849.00827077729
30
1.44510920540908e-005
11
243.278021994321
21
1849.18929482173
31
1.44267253765373e-005
  0
LINE
 8
GROUP0
10
245.858868514971
20
1849.6350998149
30
1.40921232616886e-005
11
246.107731538836
21
1849.54354277346
31
1.4057023338393e-005
  0
LINE
 8
GROUP0
10
246.791604453304
20
1849.11987115893
30
1.3956942677168e-005
11
246.998630913292
21
1848.92899127355
31
1.39253259221872e-005
  0
LINE
 8
GROUP0
10
245.599533070173
20
1849.70187242147
30
1.41280967908608e-005
11
245.858868514971
21
1849.6350998149
31
1.40921232616886e-005
  0
LINE
 8
GROUP0
10
246.107731538836
20
1849.54354277346
30
1.4057023338393e-005
11
246.346133978615
21
1849.42717190905
31
1.40227946416271e-005
  0
LINE
 8
GROUP0
10
245.049397570387
20
1849.76118188236
30
1.42026733699563e-005
11
245.329713367594
21
1849.74388998126
31
1.41649461240734e-005
  0
LINE
 8
GROUP0
10
249.967408049026
20
1845.85733177162
30
1.34648914399071e-005
11
250.060575449511
21
1846.05889396261
31
1.34567209648995e-005
  0
LINE
 8
GROUP0
10
253.577242307769
20
1846.85408500144
30
1.30047477821804e-005
11
253.754103195462
21
1846.70296262308
31
1.29779895960969e-005
  0
LINE
 8
GROUP0
10
251.012778504181
20
1847.0366302432
30
1.33504078344171e-005
11
251.211958897083
21
1847.13649003934
31
1.33259638235128e-005
  0
LINE
 8
GROUP0
10
244.227823681015
20
1849.66478241431
30
1.43101480770624e-005
11
244.491355169136
21
1849.72164910654
31
1.42762207860692e-005
  0
LINE
 8
GROUP0
10
247.687782228574
20
1847.79402859548
30
1.38095523477044e-005
11
247.750423705684
21
1847.53655225922
31
1.37957770074248e-005
  0
LINE
 8
GROUP0
10
250.060575449511
20
1846.05889396261
30
1.34567209648995e-005
11
250.174849279764
21
1846.25181659555
31
1.34455551778934e-005
  0
LINE
 8
GROUP0
10
250.310220529804
20
1846.43611769046
30
1.34313957236343e-005
11
250.466680189647
21
1846.61181526733
31
1.34142440628648e-005
  0
LINE
 8
GROUP0
10
254.065252175194
20
1846.35340942618
30
1.29291507537987e-005
11
254.189884971927
21
1846.16519150889
31
1.29085721731759e-005
  0
LINE
 8
GROUP0
10
247.600080543927
20
1848.04133495727
30
1.38264536074351e-005
11
247.687782228574
21
1847.79402859548
31
1.38095523477044e-005
  0
LINE
 8
GROUP0
10
247.487316610911
20
1848.27847787529
30
1.3846481105273e-005
11
247.600080543927
21
1848.04133495727
31
1.38264536074351e-005
  0
LINE
 8
GROUP0
10
249.805891368091
20
1839.00075888154
30
1.334192685713e-005
11
249.805892146984
21
1840.11312409606
31
1.33653683001556e-005
  0
LINE
 8
GROUP0
10
244.765344390283
20
1849.75377249256
30
1.42403781865308e-005
11
245.049397570387
21
1849.76118188236
31
1.42026733699563e-005
  0
LINE
 8
GROUP0
10
249.805890818534
20
1838.21591668546
30
1.3325387406149e-005
11
249.805891368091
21
1839.00075888154
31
1.334192685713e-005
  0
LINE
 8
GROUP0
10
254.501391376166
20
1843.62830509663
30
1.2813590626104e-005
11
254.501391098227
21
1843.23137062263
31
1.2805225741902e-005
  0
LINE
 8
GROUP0
10
252.094261132062
20
1847.32679227465
30
1.32123735650747e-005
11
252.331708039449
21
1847.32203172381
31
1.31806243301835e-005
  0
LINE
 8
GROUP0
10
253.391560992127
20
1846.98433048166
30
1.30322417369988e-005
11
253.577242307769
21
1846.85408500144
31
1.30047477821804e-005
  0
LINE
 8
GROUP0
10
252.993830687673
20
1840.49824672098
30
1.29485691438114e-005
11
252.781835429826
21
1840.43069182158
31
1.29754020716966e-005
  0
LINE
 8
GROUP0
10
254.501392173608
20
1844.76716179883
30
1.28375902984146e-005
11
254.50139195023
21
1844.44814740454
31
1.28308675244049e-005
  0
LINE
 8
GROUP0
10
251.922919576299
20
1840.36318579884
30
1.30884628891825e-005
11
251.743115768984
21
1840.38591425001
31
1.31129076064884e-005
  0
LINE
 8
GROUP0
10
251.399410749118
20
1840.47004286123
30
1.31604924660911e-005
11
251.235529194797
21
1840.5315249303
31
1.31836315368006e-005
  0
LINE
 8
GROUP0
10
249.805895557292
20
1844.98351268529
30
1.34680046293245e-005
11
249.814634526015
21
1845.2006276505
31
1.34714152448367e-005
  0
LINE
 8
GROUP0
10
253.919717076304
20
1846.53301566394
30
1.295233384489e-005
11
254.065252175194
21
1846.35340942618
31
1.29291507537987e-005
  0
LINE
 8
GROUP0
10
251.419689984515
20
1847.21544678873
30
1.32999395901057e-005
11
251.635979138284
21
1847.2734898432
31
1.32723339624996e-005
  0
LINE
 8
GROUP0
10
252.331708039449
20
1847.32203172381
30
1.31806243301835e-005
11
252.561122904222
21
1847.29633045722
31
1.31495043912577e-005
  0
LINE
 8
GROUP0
10
252.561122904222
20
1847.29633045722
30
1.31495043912577e-005
11
252.781840204584
21
1847.24969905151
31
1.31191027210598e-005
  0
LINE
 8
GROUP0
10
249.895356088293
20
1845.64711200261
30
1.34700650512298e-005
11
249.967408049026
21
1845.85733177162
31
1.34648914399071e-005
  0
LINE
 8
GROUP0
10
252.993835367827
20
1847.18214815489
30
1.30894226119005e-005
11
253.197083821244
21
1847.09368841554
31
1.30604678531099e-005
  0
LINE
 8
GROUP0
10
254.376410895256
20
1845.76284855573
30
1.28752315853742e-005
11
254.438287640016
21
1845.54868747989
31
1.28624709839487e-005
  0
LINE
 8
GROUP0
10
254.479229318949
20
1845.32584264458
30
1.28523178412665e-005
11
254.499227741137
21
1845.09429602979
31
1.28447727262559e-005
  0
LINE
 8
GROUP0
10
252.331703163394
20
1840.3583570629
30
1.30338750453707e-005
11
252.108011143049
21
1840.35329331126
31
1.30635838617887e-005
  0
LINE
 8
GROUP0
10
252.108011143049
20
1840.35329331126
30
1.30635838617887e-005
11
251.922919576299
21
1840.36318579884
31
1.30884628891825e-005
  0
LINE
 8
GROUP0
10
252.781840204584
20
1847.24969905151
30
1.31191027210598e-005
11
252.993835367827
21
1847.18214815489
31
1.30894226119005e-005
  0
LINE
 8
GROUP0
10
254.50139195023
20
1844.44814740454
30
1.28308675244049e-005
11
254.501391672291
21
1844.05121293054
31
1.28225027304418e-005
  0
LINE
 8
GROUP0
10
253.577238087067
20
1840.8263435506
30
1.28777219076448e-005
11
253.391556589015
21
1840.69608241456
31
1.28997260652186e-005
  0
LINE
 8
GROUP0
10
254.438287640016
20
1845.54868747989
30
1.28624709839487e-005
11
254.479229318949
21
1845.32584264458
31
1.28523178412665e-005
  0
LINE
 8
GROUP0
10
251.211958897083
20
1847.13649003934
30
1.33259638235128e-005
11
251.419689984515
21
1847.21544678873
31
1.32999395901057e-005
  0
LINE
 8
GROUP0
10
251.235529194797
20
1840.5315249303
30
1.31836315368006e-005
11
251.076974716369
21
1840.60600678105
31
1.32063346068523e-005
  0
LINE
 8
GROUP0
10
254.501390874849
20
1842.91235622834
30
1.27985029678923e-005
11
254.501390742406
21
1842.72320863356
31
1.27945169706489e-005
  0
LINE
 8
GROUP0
10
250.802372886107
20
1839.50291297797
30
1.32196896360626e-005
11
250.802372581138
21
1839.06737431719
31
1.32105113536785e-005
  0
LINE
 8
GROUP0
10
249.805893944297
20
1842.67993412217
30
1.34194600752036e-005
11
249.805894738479
21
1843.81413420459
31
1.34433617501539e-005
  0
LINE
 8
GROUP0
10
251.743115768984
20
1840.38591425001
30
1.31129076064884e-005
11
251.568609550219
21
1840.4215196193
31
1.31369176139762e-005
  0
LINE
 8
GROUP0
10
249.805893043092
20
1841.39288996446
30
1.33923375424005e-005
11
249.805893944297
21
1842.67993412217
31
1.34194600752036e-005
  0
LINE
 8
GROUP0
10
249.805892146984
20
1840.11312409606
30
1.33653683001556e-005
11
249.805893043092
21
1841.39288996446
31
1.33923375424005e-005
  0
LINE
 8
GROUP0
10
254.501391098227
20
1843.23137062263
30
1.2805225741902e-005
11
254.501390874849
21
1842.91235622834
31
1.27985029678923e-005
  0
LINE
 8
GROUP0
10
253.91971330498
20
1841.14704848266
30
1.28388323589967e-005
11
253.75409918641
21
1840.97748710738
31
1.28573335429261e-005
  0
LINE
 8
GROUP0
10
253.75409918641
20
1840.97748710738
30
1.28573335429261e-005
11
253.577238087067
21
1840.8263435506
31
1.28777219076448e-005
  0
LINE
 8
GROUP0
10
254.438285246399
20
1842.13027483351
30
1.27904329125961e-005
11
254.376408201696
21
1841.91607553098
31
1.27941665045095e-005
  0
LINE
 8
GROUP0
10
254.499225984147
20
1842.58507329077
30
1.27918944843042e-005
11
254.479227237515
21
1842.35327081041
31
1.27896751579926e-005
  0
LINE
 8
GROUP0
10
254.501390742406
20
1842.72320863356
30
1.27945169706489e-005
11
254.499225984147
21
1842.58507329077
31
1.27918944843042e-005
  0
LINE
 8
GROUP0
10
254.501392306052
20
1844.95630939361
30
1.2841576295658e-005
11
254.501392173608
21
1844.76716179883
31
1.28375902984146e-005
  0
LINE
 8
GROUP0
10
250.80199750074
20
1838.35318542962
30
1.31955107323223e-005
11
250.752910502539
21
1838.33177546827
31
1.32016022730497e-005
  0
LINE
 8
GROUP0
10
250.640040314739
20
1846.77424410344
30
1.33945601462182e-005
11
250.822141434002
21
1846.91587804851
31
1.3373272929873e-005
  0
LINE
 8
GROUP0
10
250.802372319822
20
1838.69417961323
30
1.32026467540902e-005
11
250.802372140576
21
1838.4381915481
31
1.31972521793589e-005
  0
LINE
 8
GROUP0
10
250.92375714295
20
1840.69352936798
30
1.32286011397476e-005
11
250.802373774216
21
1840.77125354923
31
1.32464180595149e-005
  0
LINE
 8
GROUP0
10
260.665669582877
20
1842.71913921221
30
4.90898912242077e-006
11
260.665669611376
21
1842.75983855869
31
4.90984680888151e-006
  0
LINE
 8
GROUP0
10
250.466680189647
20
1846.61181526733
30
1.34142440628648e-005
11
250.640040314739
21
1846.77424410344
31
1.33945601462182e-005
  0
LINE
 8
GROUP0
10
250.802372581138
20
1839.06737431719
30
1.32105113536785e-005
11
250.802372319822
21
1838.69417961323
31
1.32026467540902e-005
  0
LINE
 8
GROUP0
10
254.065248655048
20
1841.32615937865
30
1.2823208770385e-005
11
253.91971330498
21
1841.14704848266
31
1.28388323589967e-005
  0
LINE
 8
GROUP0
10
254.189881715122
20
1841.51402763264
30
1.28105557238911e-005
11
254.065248655048
21
1841.32615937865
31
1.2823208770385e-005
  0
LINE
 8
GROUP0
10
250.802373774216
20
1840.77125354923
30
1.32464180595149e-005
11
250.802373678785
21
1840.6349658812
31
1.32435460174163e-005
  0
LINE
 8
GROUP0
10
254.501391672291
20
1844.05121293054
30
1.28225027304418e-005
11
254.501391376166
21
1843.62830509663
31
1.2813590626104e-005
  0
LINE
 8
GROUP0
10
254.376408201696
20
1841.91607553098
30
1.27941665045095e-005
11
254.293604294304
21
1841.71066307372
31
1.28008744631203e-005
  0
LINE
 8
GROUP0
10
259.874698436847
20
1841.47619904777
30
4.98822315674885e-006
11
260.034721716034
21
1841.56495250435
31
4.96876419799341e-006
  0
LINE
 8
GROUP0
10
253.754103195462
20
1846.70296262308
30
1.29779895960969e-005
11
253.919717076304
21
1846.53301566394
31
1.295233384489e-005
  0
LINE
 8
GROUP0
10
254.293604294304
20
1841.71066307372
30
1.28008744631203e-005
11
254.189881715122
21
1841.51402763264
31
1.28105557238911e-005
  0
LINE
 8
GROUP0
10
254.293607275587
20
1845.96834389206
30
1.28905989433714e-005
11
254.376410895256
21
1845.76284855573
31
1.28752315853742e-005
  0
LINE
 8
GROUP0
10
253.391556589015
20
1840.69608241456
30
1.28997260652186e-005
11
253.197079264976
21
1840.58671352833
31
1.29233427945408e-005
  0
LINE
 8
GROUP0
10
260.442648231792
20
1841.96502699228
30
4.92282336757022e-006
11
260.534531845743
21
1842.12678622999
31
4.91398523377318e-006
  0
LINE
 8
GROUP0
10
251.076974716369
20
1840.60600678105
30
1.32063346068523e-005
11
250.92375714295
21
1840.69352936798
31
1.32286011397476e-005
  0
LINE
 8
GROUP0
10
250.637119917935
20
1838.28127183121
30
1.3215971537045e-005
11
250.477202345401
21
1838.21152160869
31
1.3235816797369e-005
  0
LINE
 8
GROUP0
10
260.645832205187
20
1842.48912103631
30
4.90678587555804e-006
11
260.665041480901
21
1842.68995467745
31
4.90845788303496e-006
  0
LINE
 8
GROUP0
10
251.635979138284
20
1847.2734898432
30
1.32723339624996e-005
11
251.860833730198
21
1847.31060855457
31
1.32431456780546e-005
  0
LINE
 8
GROUP0
10
254.479227237515
20
1842.35327081041
30
1.27896751579926e-005
11
254.438285246399
21
1842.13027483351
31
1.27904329125961e-005
  0
LINE
 8
GROUP0
10
250.752910502539
20
1838.33177546827
30
1.32016022730497e-005
11
250.637119917935
21
1838.28127183121
31
1.3215971537045e-005
  0
LINE
 8
GROUP0
10
259.346161699265
20
1841.36241732544
30
5.05627307851864e-006
11
259.530408308044
21
1841.37502760293
31
5.03198097709379e-006
  0
LINE
 8
GROUP0
10
250.802373473347
20
1840.34157144197
30
1.32373631513694e-005
11
250.802373196316
21
1839.94593291356
31
1.32290257124912e-005
  0
LINE
 8
GROUP0
10
250.115292630448
20
1838.05366976819
30
1.32807286192027e-005
11
249.958453684979
21
1837.9852623307
31
1.33001919059017e-005
  0
LINE
 8
GROUP0
10
260.034721716034
20
1841.56495250435
30
4.96876419799341e-006
11
260.186650311186
21
1841.67927930988
31
4.95092319641732e-006
  0
LINE
 8
GROUP0
10
250.477202345401
20
1838.21152160869
30
1.3235816797369e-005
11
250.295734383413
21
1838.13237189094
31
1.32583363707917e-005
  0
LINE
 8
GROUP0
10
252.781835429826
20
1840.43069182158
30
1.29754020716966e-005
11
252.561118064159
21
1840.3840586592
31
1.30038384007991e-005
  0
LINE
 8
GROUP0
10
250.802373196316
20
1839.94593291356
30
1.32290257124912e-005
11
250.802372886107
21
1839.50291297797
31
1.32196896360626e-005
  0
LINE
 8
GROUP0
10
260.810211213967
20
1842.86531091257
30
4.89280376335111e-006
11
261.045091271001
21
1842.96932853954
31
4.86368907439139e-006
  0
LINE
 8
GROUP0
10
260.665669637953
20
1842.797794129
30
4.91064667404451e-006
11
260.810211213967
21
1842.86531091257
31
4.89280376335111e-006
  0
LINE
 8
GROUP0
10
259.530408308044
20
1841.37502760293
30
5.03198097709379e-006
11
259.706590594044
21
1841.4129227955
31
5.00929651318094e-006
  0
LINE
 8
GROUP0
10
256.989043221007
20
1842.35282360039
30
5.39132101032846e-006
11
256.966870880549
21
1842.69335022752
31
5.40145245195855e-006
  0
LINE
 8
GROUP0
10
249.958453684979
20
1837.9852623307
30
1.33001919059017e-005
11
249.847794145482
21
1837.9369966687
31
1.33139243213565e-005
  0
LINE
 8
GROUP0
10
250.802373678785
20
1840.6349658812
30
1.32435460174163e-005
11
250.802373473347
21
1840.34157144197
31
1.32373631513694e-005
  0
LINE
 8
GROUP0
10
253.197079264976
20
1840.58671352833
30
1.29233427945408e-005
11
252.993830687673
21
1840.49824672098
31
1.29485691438114e-005
  0
LINE
 8
GROUP0
10
261.538081280819
20
1843.18765125109
30
4.80258003411893e-006
11
261.6568118591
21
1843.24023159
31
4.78786276087995e-006
  0
LINE
 8
GROUP0
10
259.706590594044
20
1841.4129227955
30
5.00929651318094e-006
11
259.874698436847
21
1841.47619904777
31
4.98822315674885e-006
  0
LINE
 8
GROUP0
10
260.665041480901
20
1842.68995467745
30
4.90845788303496e-006
11
260.665669582877
21
1842.71913921221
31
4.90898912242077e-006
  0
LINE
 8
GROUP0
10
260.186650311186
20
1841.67927930988
30
4.95092319641732e-006
11
260.326747308208
21
1841.81603448317
31
4.93513181415994e-006
  0
LINE
 8
GROUP0
10
261.542183217589
20
1842.00825561106
30
4.77717920788212e-006
11
261.410584720725
21
1841.70756038776
31
4.78838294952211e-006
  0
LINE
 8
GROUP0
10
261.661463919847
20
1842.82600717598
30
4.7785134362488e-006
11
261.661463847449
21
1842.7226122942
31
4.77633452217185e-006
  0
LINE
 8
GROUP0
10
261.661464190843
20
1843.21302654997
30
4.78666928268034e-006
11
261.661464118445
21
1843.10963166819
31
4.78449045884233e-006
  0
LINE
 8
GROUP0
10
261.410584720725
20
1841.70756038776
30
4.78838294952211e-006
11
261.230545927304
21
1841.41171516011
31
4.80614549399072e-006
  0
LINE
 8
GROUP0
10
261.6568118591
20
1843.24023159
30
4.78786276087995e-006
11
261.661464190843
21
1843.21302654997
31
4.78666928268034e-006
  0
LINE
 8
GROUP0
10
260.602294415171
20
1842.30144123258
30
4.90863389476792e-006
11
260.645832205187
21
1842.48912103631
31
4.90678587555804e-006
  0
LINE
 8
GROUP0
10
259.930331494514
20
1840.43051877037
30
4.95877158401825e-006
11
259.610984253061
21
1840.37002118153
31
5.00006192593605e-006
  0
LINE
 8
GROUP0
10
260.326747308208
20
1841.81603448317
30
4.93513181415994e-006
11
260.442648231792
21
1841.96502699228
31
4.92282336757022e-006
  0
LINE
 8
GROUP0
10
251.568609550219
20
1840.4215196193
30
1.31369176139762e-005
11
251.399410749118
21
1840.47004286123
31
1.31604924660911e-005
  0
LINE
 8
GROUP0
10
249.847794145482
20
1837.9369966687
30
1.33139243213565e-005
11
249.805890610433
21
1837.91871987242
31
1.33191244100495e-005
  0
LINE
 8
GROUP0
10
257.013139606845
20
1845.47149605431
30
5.45383101911434e-006
11
257.099412001746
21
1845.78492573867
31
5.44893704553795e-006
  0
LINE
 8
GROUP0
10
250.802372140576
20
1838.4381915481
30
1.31972521793589e-005
11
250.80199750074
21
1838.35318542962
31
1.31955107323223e-005
  0
LINE
 8
GROUP0
10
257.878493705428
20
1846.84426921142
30
5.36741872344537e-006
11
258.150880839453
21
1847.02913646872
31
5.33500855538493e-006
  0
LINE
 8
GROUP0
10
256.966871354943
20
1843.37084928604
30
5.41572978434157e-006
11
256.9668717794
21
1843.97703265418
31
5.42850418527308e-006
  0
LINE
 8
GROUP0
10
250.295734383413
20
1838.13237189094
30
1.32583363707917e-005
11
250.115292630448
21
1838.05366976819
31
1.32807286192027e-005
  0
LINE
 8
GROUP0
10
252.561118064159
20
1840.3840586592
30
1.30038384007991e-005
11
252.331703163394
21
1840.3583570629
31
1.30338750453707e-005
  0
LINE
 8
GROUP0
10
258.310257585799
20
1840.56768872145
30
5.17759923538974e-006
11
258.027512813454
21
1840.72793766088
31
5.21866289430184e-006
  0
LINE
 8
GROUP0
10
260.503732067631
20
1840.68217789997
30
4.88764734324909e-006
11
260.227914942745
21
1840.53457185322
31
4.92129993848733e-006
  0
LINE
 8
GROUP0
10
260.665669611376
20
1842.75983855869
30
4.90984680888151e-006
11
260.665669637953
21
1842.797794129
31
4.91064667404451e-006
  0
LINE
 8
GROUP0
10
257.230104320717
20
1846.07996815585
30
5.43773487320931e-006
11
257.405251985505
21
1846.35669161913
31
5.42022133812603e-006
  0
LINE
 8
GROUP0
10
258.027512813454
20
1840.72793766088
30
5.21866289430184e-006
11
257.763419003078
21
1840.9324935121
31
5.25817427305397e-006
  0
LINE
 8
GROUP0
10
259.079745231189
20
1847.31769420357
30
5.2172826328023e-006
11
259.42012128493
21
1847.32509794401
31
5.17207049511303e-006
  0
LINE
 8
GROUP0
10
258.295521931686
20
1841.83004347235
30
5.20616579124944e-006
11
258.436466125241
21
1841.68806567935
31
5.18438753555062e-006
  0
LINE
 8
GROUP0
10
256.966872441055
20
1844.92196555158
30
5.44841734263501e-006
11
256.971251714265
21
1845.13961078954
31
5.45242013559877e-006
  0
LINE
 8
GROUP0
10
261.661465381515
20
1844.91346800222
30
4.82250367752624e-006
11
261.661465287811
21
1844.77964669184
31
4.81968351999096e-006
  0
LINE
 8
GROUP0
10
261.661464118445
20
1843.10963166819
30
4.78449045884233e-006
11
261.661464019146
21
1842.96781942209
31
4.78150194789806e-006
  0
LINE
 8
GROUP0
10
256.966870880549
20
1842.69335022752
30
5.40145245195855e-006
11
256.966871017874
21
1842.88946837604
31
5.40558538990044e-006
  0
LINE
 8
GROUP0
10
261.661463847449
20
1842.7226122942
30
4.77633452217185e-006
11
261.660271851581
21
1842.62381146598
31
4.77441137764489e-006
  0
LINE
 8
GROUP0
10
256.966871017874
20
1842.88946837604
30
5.40558538990044e-006
11
256.966871354943
21
1843.37084928604
31
5.41572978434157e-006
  0
LINE
 8
GROUP0
10
261.488691577297
20
1845.90458833126
30
4.86641892461503e-006
11
261.590697424045
21
1845.59468623845
31
4.84629192637476e-006
  0
LINE
 8
GROUP0
10
261.661464019146
20
1842.96781942209
30
4.78150194789806e-006
11
261.661463919847
21
1842.82600717598
31
4.7785134362488e-006
  0
LINE
 8
GROUP0
10
261.230545927304
20
1841.41171516011
30
4.80614549399072e-006
11
261.002013704844
21
1841.12081607274
31
4.83047590536523e-006
  0
LINE
 8
GROUP0
10
256.96687217889
20
1844.54755817714
30
5.44052718780552e-006
11
256.966872441055
21
1844.92196555158
31
5.44841734263501e-006
  0
LINE
 8
GROUP0
10
261.310944522369
20
1843.08706277666
30
4.83073501516551e-006
11
261.538081280819
21
1843.18765125109
31
4.80258003411893e-006
  0
LINE
 8
GROUP0
10
256.971251714265
20
1845.13961078954
30
5.45242013559877e-006
11
257.013139606845
21
1845.47149605431
31
5.45383101911434e-006
  0
LINE
 8
GROUP0
10
257.166529679666
20
1841.72781750359
30
5.35449299817747e-006
11
257.05558434682
21
1842.03098947957
31
5.37566963658698e-006
  0
LINE
 8
GROUP0
10
257.05558434682
20
1842.03098947957
30
5.37566963658698e-006
11
256.989043221007
21
1842.35282360039
31
5.39132101032846e-006
  0
LINE
 8
GROUP0
10
261.660271851581
20
1842.62381146598
30
4.77441137764489e-006
11
261.625394550379
21
1842.31370468536
31
4.77252497869118e-006
  0
LINE
 8
GROUP0
10
257.763419003078
20
1840.9324935121
30
5.25817427305397e-006
11
257.521774653176
21
1841.17733854021
31
5.29554237082563e-006
  0
LINE
 8
GROUP0
10
258.17813155781
20
1841.98579238126
30
5.2250947528143e-006
11
258.295521931686
21
1841.83004347235
31
5.20616579124944e-006
  0
LINE
 8
GROUP0
10
261.625394550379
20
1842.31370468536
30
4.77252497869118e-006
11
261.542183217589
21
1842.00825561106
31
4.77717920788212e-006
  0
LINE
 8
GROUP0
10
261.045091271001
20
1842.96932853954
30
4.86368907439139e-006
11
261.310944522369
21
1843.08706277666
31
4.83073501516551e-006
  0
LINE
 8
GROUP0
10
260.534531845743
20
1842.12678622999
30
4.91398523377318e-006
11
260.602294415171
21
1842.30144123258
31
4.90863389476792e-006
  0
LINE
 8
GROUP0
10
258.931578570648
20
1840.38023302388
30
5.09083401175059e-006
11
258.611622958675
21
1840.45177705529
31
5.13498804091128e-006
  0
LINE
 8
GROUP0
10
259.27009406028
20
1840.3530869887
30
5.04514175784787e-006
11
258.931578570648
21
1840.38023302388
31
5.09083401175059e-006
  0
LINE
 8
GROUP0
10
259.610984253061
20
1840.37002118153
30
5.00006192593605e-006
11
259.27009406028
21
1840.3530869887
31
5.04514175784787e-006
  0
LINE
 8
GROUP0
10
257.099412001746
20
1845.78492573867
30
5.44893704553795e-006
11
257.230104320717
21
1846.07996815585
31
5.43773487320931e-006
  0
LINE
 8
GROUP0
10
260.757780339048
20
1840.8733343805
30
4.85781405915042e-006
11
260.503732067631
21
1840.68217789997
31
4.88764734324909e-006
  0
LINE
 8
GROUP0
10
267.53450759074
20
1847.08092051626
30
4.08537156363353e-006
11
267.769218395716
21
1846.94226466856
31
4.05116535821537e-006
  0
LINE
 8
GROUP0
10
258.591828807511
20
1841.57057600683
30
5.16120356251482e-006
11
258.760439224172
21
1841.47936247982
31
5.13680753052026e-006
  0
LINE
 8
GROUP0
10
261.661465287811
20
1844.77964669184
30
4.81968351999096e-006
11
261.661465178136
21
1844.62301493083
31
4.8163827520431e-006
  0
LINE
 8
GROUP0
10
266.184291561926
20
1847.31213693393
30
4.27021220276158e-006
11
266.469363068607
21
1847.32756125086
31
4.23254057084765e-006
  0
LINE
 8
GROUP0
10
258.954865367681
20
1843.19700607095
30
5.14708980299261e-006
11
258.2167018257
21
1842.86906067722
31
5.23856740564654e-006
  0
LINE
 8
GROUP0
10
260.227914942745
20
1840.53457185322
30
4.92129993848733e-006
11
259.930331494514
21
1840.43051877037
31
4.95877158401825e-006
  0
LINE
 8
GROUP0
10
261.590697424045
20
1845.59468623845
30
4.84629192637476e-006
11
261.647920104518
21
1845.26145308358
31
4.83164242680023e-006
  0
LINE
 8
GROUP0
10
258.611622958675
20
1840.45177705529
30
5.13498804091128e-006
11
258.310257585799
21
1840.56768872145
31
5.17759923538974e-006
  0
LINE
 8
GROUP0
10
260.355363130742
20
1847.08090992516
30
5.04226772485294e-006
11
260.640382147409
21
1846.910812377
31
5.00069349620436e-006
  0
LINE
 8
GROUP0
10
261.661465178136
20
1844.62301493083
30
4.8163827520431e-006
11
261.661465081238
21
1844.48463153032
31
4.81346649921499e-006
  0
LINE
 8
GROUP0
10
261.661465081238
20
1844.48463153032
30
4.81346649921499e-006
11
261.661465025868
21
1844.40555530146
31
4.8118001598707e-006
  0
LINE
 8
GROUP0
10
258.441905379407
20
1847.16968329413
30
5.29918020372722e-006
11
258.751536963812
21
1847.26587932623
31
5.2599370439721e-006
  0
LINE
 8
GROUP0
10
261.002013704844
20
1841.12081607274
30
4.83047590536523e-006
11
260.757780339048
21
1840.8733343805
31
4.85781405915042e-006
  0
LINE
 8
GROUP0
10
261.514471415846
20
1844.33416737128
30
4.82988829132447e-006
11
260.862586729422
21
1844.04455325734
31
4.91067367240361e-006
  0
LINE
 8
GROUP0
10
256.9668717794
20
1843.97703265418
30
5.42850418527308e-006
11
256.96687217889
21
1844.54755817714
31
5.44052718780552e-006
  0
LINE
 8
GROUP0
10
257.521774653176
20
1841.17733854021
30
5.29554237082563e-006
11
257.321914641225
21
1841.44327731097
31
5.32778567159942e-006
  0
LINE
 8
GROUP0
10
258.086190278722
20
1842.15380870684
30
5.24089010769946e-006
11
258.17813155781
21
1841.98579238126
31
5.2250947528143e-006
  0
LINE
 8
GROUP0
10
266.754588537739
20
1847.3121365346
30
4.19419826066525e-006
11
267.027189733383
21
1847.26587548376
31
4.15688879986664e-006
  0
LINE
 8
GROUP0
10
261.647920104518
20
1845.26145308358
30
4.83164242680023e-006
11
261.661465430496
21
1844.98342005083
31
4.82397782698984e-006
  0
LINE
 8
GROUP0
10
260.862586729422
20
1844.04455325734
30
4.91067367240361e-006
11
259.923105857811
21
1843.62716821077
31
5.02709976104576e-006
  0
LINE
 8
GROUP0
10
258.2167018257
20
1842.86906067722
30
5.23856740564654e-006
11
257.963111613474
21
1842.73270194306
31
5.26949443489522e-006
  0
LINE
 8
GROUP0
10
257.963111613474
20
1842.73270194306
30
5.26949443489522e-006
11
257.978675246224
21
1842.52713951179
31
5.26308810342435e-006
  0
LINE
 8
GROUP0
10
267.769218395716
20
1846.94226466856
30
4.05116535821537e-006
11
267.991293213733
21
1846.77284862419
31
4.01799518521817e-006
  0
LINE
 8
GROUP0
10
257.624890417858
20
1846.61516444175
30
5.3963930083889e-006
11
257.878493705428
21
1846.84426921142
31
5.36741872344537e-006
  0
LINE
 8
GROUP0
10
261.150330384898
20
1846.45427788492
30
4.92310249208261e-006
11
261.341902564255
21
1846.19112900058
31
4.89202259950083e-006
  0
LINE
 8
GROUP0
10
258.150880839453
20
1847.02913646872
30
5.33500855538493e-006
11
258.441905379407
21
1847.16968329413
31
5.29918020372722e-006
  0
LINE
 8
GROUP0
10
264.128460964173
20
1840.63428533675
30
4.40350390464306e-006
11
264.128461467855
21
1841.35361292558
31
4.41866271977398e-006
  0
LINE
 8
GROUP0
10
264.128462146732
20
1842.32314141487
30
4.43909406219189e-006
11
264.128462869407
21
1843.35522012927
31
4.46084361556687e-006
  0
LINE
 8
GROUP0
10
268.199703659243
20
1846.57340470518
30
3.98601346030536e-006
11
268.381116730641
21
1846.35672095421
31
3.95726697577925e-006
  0
LINE
 8
GROUP0
10
257.321914641225
20
1841.44327731097
30
5.32778567159942e-006
11
257.166529679666
21
1841.72781750359
31
5.35449299817747e-006
  0
LINE
 8
GROUP0
10
257.405251985505
20
1846.35669161913
30
5.42022133812603e-006
11
257.624890417858
21
1846.61516444175
31
5.3963930083889e-006
  0
LINE
 8
GROUP0
10
259.923105857811
20
1843.62716821077
30
5.02709976104576e-006
11
258.954865367681
21
1843.19700607095
31
5.14708980299261e-006
  0
LINE
 8
GROUP0
10
268.738759433438
20
1845.63050849046
30
3.89429336520863e-006
11
268.795774830475
21
1845.36291394113
31
3.88105468217548e-006
  0
LINE
 8
GROUP0
10
260.91188100732
20
1846.69641466046
30
4.95998772487849e-006
11
261.150330384898
21
1846.45427788492
31
4.92310249208261e-006
  0
LINE
 8
GROUP0
10
264.299539955
20
1845.88531689089
30
4.4913593660989e-006
11
264.417572926393
21
1846.12737388024
31
4.48072797120114e-006
  0
LINE
 8
GROUP0
10
268.381116730641
20
1846.35672095421
30
3.95726697577925e-006
11
268.531430383493
21
1846.12737099966
31
3.93239860292383e-006
  0
LINE
 8
GROUP0
10
261.661465025868
20
1844.40555530146
30
4.8118001598707e-006
11
261.514471415846
21
1844.33416737128
31
4.82988829132447e-006
  0
LINE
 8
GROUP0
10
261.341902564255
20
1846.19112900058
30
4.89202259950083e-006
11
261.488691577297
21
1845.90458833126
31
4.86641892461503e-006
  0
LINE
 8
GROUP0
10
267.991293213733
20
1846.77284862419
30
4.01799518521817e-006
11
268.199703659243
21
1846.57340470518
31
3.98601346030536e-006
  0
LINE
 8
GROUP0
10
258.9423378571
20
1841.41432895368
30
5.11119213373878e-006
11
259.137565188172
21
1841.37537928377
31
5.08434979633043e-006
  0
LINE
 8
GROUP0
10
264.952580241019
20
1846.77285075194
30
4.4230202927209e-006
11
265.173137174605
21
1846.94226648637
31
4.3971928802844e-006
  0
LINE
 8
GROUP0
10
258.751536963812
20
1847.26587932623
30
5.2599370439721e-006
11
259.079745231189
21
1847.31769420357
31
5.2172826328023e-006
  0
LINE
 8
GROUP0
10
259.745139085029
20
1847.28808307018
30
5.12796936217863e-006
11
260.056917571791
21
1847.20667694339
31
5.08469740725381e-006
  0
LINE
 8
GROUP0
10
267.826755632116
20
1843.66715571407
30
3.97447786712468e-006
11
267.826756206447
21
1844.48737921728
31
3.99176288904401e-006
  0
LINE
 8
GROUP0
10
258.436466125241
20
1841.68806567935
30
5.18438753555062e-006
11
258.591828807511
21
1841.57057600683
31
5.16120356251482e-006
  0
LINE
 8
GROUP0
10
264.566390009511
20
1846.35672362533
30
4.46572566843995e-006
11
264.745988276
21
1846.57340712351
31
4.4463536379713e-006
  0
LINE
 8
GROUP0
10
261.661465430496
20
1844.98342005083
30
4.82397782698984e-006
11
261.661465381515
21
1844.91346800222
31
4.82250367752624e-006
  0
LINE
 8
GROUP0
10
267.027189733383
20
1847.26587548376
30
4.15688879986664e-006
11
267.287163727173
21
1847.18879713282
31
4.12061304008171e-006
  0
LINE
 8
GROUP0
10
265.406576524168
20
1847.08092200626
30
4.36900003413787e-006
11
265.652908539028
21
1847.18879827715
31
4.33844017933005e-006
  0
LINE
 8
GROUP0
10
264.128461467855
20
1841.35361292558
30
4.41866271977398e-006
11
264.128462146732
21
1842.32314141487
31
4.43909406219189e-006
  0
LINE
 8
GROUP0
10
264.130174994693
20
1845.08249248392
30
4.49701531294866e-006
11
264.155838060797
21
1845.36291719007
31
4.49950430701507e-006
  0
LINE
 8
GROUP0
10
268.60813650457
20
1840.69491632377
30
3.80769306660422e-006
11
268.399584931639
21
1840.60360709975
31
3.83356626613152e-006
  0
LINE
 8
GROUP0
10
258.019703154749
20
1842.33421642503
30
5.2535539278753e-006
11
258.086190278722
21
1842.15380870684
31
5.24089010769946e-006
  0
LINE
 8
GROUP0
10
260.640382147409
20
1846.910812377
30
5.00069349620436e-006
11
260.91188100732
21
1846.69641466046
31
4.95998772487849e-006
  0
LINE
 8
GROUP0
10
268.823418027194
20
1844.3303771326
30
3.85561092970388e-006
11
268.823417451927
21
1843.50881731138
31
3.8382977010698e-006
  0
LINE
 8
GROUP0
10
257.978675246224
20
1842.52713951179
30
5.26308810342435e-006
11
258.019703154749
21
1842.33421642503
31
5.2535539278753e-006
  0
LINE
 8
GROUP0
10
259.42012128493
20
1847.32509794401
30
5.17207049511303e-006
11
259.745139085029
21
1847.28808307018
31
5.12796936217863e-006
  0
LINE
 8
GROUP0
10
264.12846076708
20
1840.35280932373
30
4.39757224896531e-006
11
264.128460964173
21
1840.63428533675
31
4.40350390464306e-006
  0
LINE
 8
GROUP0
10
267.820519242094
20
1845.08086291292
30
4.00510107670948e-006
11
267.797199516895
21
1845.24382946496
31
4.0116436675508e-006
  0
LINE
 8
GROUP0
10
260.056917571791
20
1847.20667694339
30
5.08469740725381e-006
11
260.355363130742
21
1847.08090992516
31
5.04226772485294e-006
  0
LINE
 8
GROUP0
10
267.826756519058
20
1844.93382998485
30
4.00117117494436e-006
11
267.820519242094
21
1845.08086291292
31
4.00510107670948e-006
  0
LINE
 8
GROUP0
10
264.155838060797
20
1845.36291719007
30
4.49950430701507e-006
11
264.212294023684
21
1845.63051165995
31
4.49761858273834e-006
  0
LINE
 8
GROUP0
10
265.652908539028
20
1847.18879827715
30
4.33844017933005e-006
11
265.912143468507
21
1847.26587626453
31
4.30551151742731e-006
  0
LINE
 8
GROUP0
10
265.912143468507
20
1847.26587626453
30
4.30551151742731e-006
11
266.184291561926
21
1847.31213693393
31
4.27021220276158e-006
  0
LINE
 8
GROUP0
10
267.757105041118
20
1845.3979181527
30
4.02023492808712e-006
11
267.700215316098
21
1845.54313190452
31
4.03087785382783e-006
  0
LINE
 8
GROUP0
10
268.823415547595
20
1840.78917100663
30
3.78098509848379e-006
11
268.762868316744
21
1840.76266187708
31
3.78849674542714e-006
  0
LINE
 8
GROUP0
10
267.040971006852
20
1846.19974134792
30
4.13258466846478e-006
11
266.898873863952
21
1846.2558173468
31
4.15270624038455e-006
  0
LINE
 8
GROUP0
10
268.177578418519
20
1840.50640695805
30
3.86110882166224e-006
11
267.982481785777
21
1840.42098865171
31
3.88531284707394e-006
  0
LINE
 8
GROUP0
10
267.826754926925
20
1842.66004584303
30
3.95325449975559e-006
11
267.826755632116
21
1843.66715571407
31
3.97447786712468e-006
  0
LINE
 8
GROUP0
10
265.691169357652
20
1846.06322585554
30
4.30962055897322e-006
11
265.563987161967
21
1845.95889943149
31
4.32437393694807e-006
  0
LINE
 8
GROUP0
10
267.826754221734
20
1841.652935972
30
3.93203113309148e-006
11
267.826754926925
21
1842.66004584303
31
3.95325449975559e-006
  0
LINE
 8
GROUP0
10
264.128463504485
20
1844.26219839345
30
4.47995692750558e-006
11
264.12846392057
21
1844.85642553205
31
4.49247941166631e-006
  0
LINE
 8
GROUP0
10
268.823416797313
20
1842.57393889412
30
3.81859647405891e-006
11
268.823416182372
21
1841.69571977488
31
3.80008931462061e-006
  0
LINE
 8
GROUP0
10
264.417572926393
20
1846.12737388024
30
4.48072797120114e-006
11
264.566390009511
21
1846.35672362533
31
4.46572566843995e-006
  0
LINE
 8
GROUP0
10
268.82169080885
20
1845.08248919886
30
3.87169083471694e-006
11
268.823418404092
21
1844.86864046375
31
3.86695404748227e-006
  0
LINE
 8
GROUP0
10
267.826753334792
20
1840.38626170121
30
3.90533786968628e-006
11
267.826753647402
21
1840.83271246879
31
3.91474615629161e-006
  0
LINE
 8
GROUP0
10
265.348752203325
20
1845.71691163446
30
4.34796270841753e-006
11
265.268030791775
21
1845.58517260029
31
4.35594570993847e-006
  0
LINE
 8
GROUP0
10
259.137565188172
20
1841.37537928377
30
5.08434979633043e-006
11
259.346161699265
21
1841.36241732544
31
5.05627307851864e-006
  0
LINE
 8
GROUP0
10
264.212294023684
20
1845.63051165995
30
4.49761858273834e-006
11
264.299539955
21
1845.88531689089
31
4.4913593660989e-006
  0
LINE
 8
GROUP0
10
258.760439224172
20
1841.47936247982
30
5.13680753052026e-006
11
258.9423378571
21
1841.41432895368
31
5.11119213373878e-006
  0
LINE
 8
GROUP0
10
268.795774830475
20
1845.36291394113
30
3.88105468217548e-006
11
268.82169080885
21
1845.08248919886
31
3.87169083471694e-006
  0
LINE
 8
GROUP0
10
266.469363068607
20
1847.32756125086
30
4.23254057084765e-006
11
266.754588537739
21
1847.3121365346
31
4.19419826066525e-006
  0
LINE
 8
GROUP0
10
265.173137174605
20
1846.94226648637
30
4.3971928802844e-006
11
265.406576524168
21
1847.08092200626
31
4.36900003413787e-006
  0
LINE
 8
GROUP0
10
268.823417451927
20
1843.50881731138
30
3.8382977010698e-006
11
268.823416797313
21
1842.57393889412
31
3.81859647405891e-006
  0
LINE
 8
GROUP0
10
267.4285696589
20
1845.92555282849
30
4.07514412540944e-006
11
267.305761800878
21
1846.03459151852
31
4.09381082092652e-006
  0
LINE
 8
GROUP0
10
264.12846392057
20
1844.85642553205
30
4.49247941166631e-006
11
264.130174994693
21
1845.08249248392
31
4.49701531294866e-006
  0
LINE
 8
GROUP0
10
266.75023275253
20
1846.2942039748
30
4.17332723612329e-006
11
266.594990569139
21
1846.31488366167
31
4.19445509122762e-006
  0
LINE
 8
GROUP0
10
264.745988276
20
1846.57340712351
30
4.4463536379713e-006
11
264.952580241019
21
1846.77285075194
31
4.4230202927209e-006
  0
LINE
 8
GROUP0
10
268.823416182372
20
1841.69571977488
30
3.80008931462061e-006
11
268.823415726126
21
1841.0441378477
31
3.78635815193595e-006
  0
LINE
 8
GROUP0
10
268.531430383493
20
1846.12737099966
30
3.93239860292383e-006
11
268.650644617768
21
1845.88531384419
31
3.91140770231169e-006
  0
LINE
 8
GROUP0
10
264.128462869407
20
1843.35522012927
30
4.46084361556687e-006
11
264.128463504485
21
1844.26219839345
31
4.47995692750558e-006
  0
LINE
 8
GROUP0
10
265.205252543651
20
1845.44617507237
30
4.36138419084298e-006
11
265.16041453061
21
1845.29997176157
31
4.36427953291463e-006
  0
LINE
 8
GROUP0
10
267.287163727173
20
1847.18879713282
30
4.12061304008171e-006
11
267.53450759074
21
1847.08092051626
31
4.08537156363353e-006
  0
LINE
 8
GROUP0
10
266.898873863952
20
1846.2558173468
30
4.15270624038455e-006
11
266.75023275253
21
1846.2942039748
31
4.17332723612329e-006
  0
LINE
 8
GROUP0
10
268.762868316744
20
1840.76266187708
30
3.78849674542714e-006
11
268.60813650457
21
1840.69491632377
31
3.80769306660422e-006
  0
LINE
 8
GROUP0
10
267.826753647402
20
1840.83271246879
30
3.91474615629161e-006
11
267.826754221734
21
1841.652935972
31
3.93203113309148e-006
  0
LINE
 8
GROUP0
10
267.535968123656
20
1845.80694631402
30
4.0583296832819e-006
11
267.4285696589
21
1845.92555282849
31
4.07514412540944e-006
  0
LINE
 8
GROUP0
10
268.650644617768
20
1845.88531384419
30
3.91140770231169e-006
11
268.738759433438
21
1845.63050849046
31
3.89429336520863e-006
  0
LINE
 8
GROUP0
10
265.563987161967
20
1845.95889943149
30
4.32437393694807e-006
11
265.447419706646
21
1845.84133946403
31
4.33743366984318e-006
  0
LINE
 8
GROUP0
10
265.124547178925
20
1844.53276306632
30
4.35289231720537e-006
11
265.124546658905
21
1843.79010343659
31
4.33724180989858e-006
  0
LINE
 8
GROUP0
10
266.594990569139
20
1846.31488366167
30
4.19445509122762e-006
11
266.432238322495
21
1846.31781880908
31
4.21620984250581e-006
  0
LINE
 8
GROUP0
10
265.124547496398
20
1844.98615863482
30
4.3624469565462e-006
11
265.124547461973
21
1844.93699552301
31
4.36141090720543e-006
  0
LINE
 8
GROUP0
10
268.399584931639
20
1840.60360709975
30
3.83356626613152e-006
11
268.177578418519
21
1840.50640695805
31
3.86110882166224e-006
  0
LINE
 8
GROUP0
10
267.982481785777
20
1840.42098865171
30
3.88531284707394e-006
11
267.85465985398
21
1840.36502493376
31
3.90117072837093e-006
  0
LINE
 8
GROUP0
10
268.823418404092
20
1844.86864046375
30
3.86695404748227e-006
11
268.823418027194
21
1844.3303771326
31
3.85561092970388e-006
  0
LINE
 8
GROUP0
10
268.823415726126
20
1841.0441378477
30
3.78635815193595e-006
11
268.823415547595
21
1840.78917100663
31
3.78098509848379e-006
  0
LINE
 8
GROUP0
10
267.826756206447
20
1844.48737921728
30
3.99176288904401e-006
11
267.826756519058
21
1844.93382998485
31
4.00117117494436e-006
  0
LINE
 8
GROUP0
10
265.447419706646
20
1845.84133946403
30
4.33743366984318e-006
11
265.348752203325
21
1845.71691163446
31
4.34796270841753e-006
  0
LINE
 8
GROUP0
10
265.124545381894
20
1841.96635700409
30
4.2988090112217e-006
11
265.124544861874
21
1841.22369737436
31
4.28315854832939e-006
  0
LINE
 8
GROUP0
10
265.124547461973
20
1844.93699552301
30
4.36141090720543e-006
11
265.124547178925
21
1844.53276306632
31
4.35289231720537e-006
  0
LINE
 8
GROUP0
10
267.700215316098
20
1845.54313190452
30
4.03087785382783e-006
11
267.626509843166
21
1845.67947364883
31
4.04357516745057e-006
  0
LINE
 8
GROUP0
10
267.626509843166
20
1845.67947364883
30
4.04357516745057e-006
11
267.535968123656
21
1845.80694631402
31
4.0583296832819e-006
  0
LINE
 8
GROUP0
10
267.797199516895
20
1845.24382946496
30
4.0116436675508e-006
11
267.757105041118
21
1845.3979181527
31
4.02023492808712e-006
  0
LINE
 8
GROUP0
10
265.124546658905
20
1843.79010343659
30
4.33724180989858e-006
11
265.124546020399
21
1842.87823022034
31
4.31802543311988e-006
  0
LINE
 8
GROUP0
10
265.268030791775
20
1845.58517260029
30
4.35594570993847e-006
11
265.205252543651
21
1845.44617507237
31
4.36138419084298e-006
  0
LINE
 8
GROUP0
10
267.85465985398
20
1840.36502493376
30
3.90117072837093e-006
11
267.826753334792
21
1840.38626170121
31
3.90533786968628e-006
  0
LINE
 8
GROUP0
10
266.114937272079
20
1846.26969401256
30
4.25748826795025e-006
11
265.966683945909
21
1846.21869928396
31
4.27617409482495e-006
  0
LINE
 8
GROUP0
10
289.31037128891
20
1840.77083406867
30
8.11374152609456e-006
11
289.14112402144
21
1840.66456449422
31
8.13406068037592e-006
  0
LINE
 8
GROUP0
10
286.017496871067
20
1841.36754948733
30
8.56521824172951e-006
11
285.841822943748
21
1841.66298249801
31
8.59485940010174e-006
  0
LINE
 8
GROUP0
10
289.14112402144
20
1840.66456449422
30
8.13406068037592e-006
11
288.900678055357
21
1840.54171396481
31
8.16352038870982e-006
  0
LINE
 8
GROUP0
10
288.647751840687
20
1840.44959897532
30
8.19529131901309e-006
11
288.38223825323
21
1840.38807074236
31
8.22938463835299e-006
  0
LINE
 8
GROUP0
10
290.023931235692
20
1846.11164658726
30
8.13118262892876e-006
11
290.167065239644
21
1845.80180633337
31
8.10557505543929e-006
  0
LINE
 8
GROUP0
10
290.307033587764
20
1841.29663544115
30
7.99197859236989e-006
11
290.307032954788
21
1840.39265917332
31
7.97292854355924e-006
  0
LINE
 8
GROUP0
10
287.102784729685
20
1840.5041687746
30
8.40236744250045e-006
11
286.795187549173
21
1840.65122405904
31
8.44646555313577e-006
  0
LINE
 8
GROUP0
10
285.681600102888
20
1845.57801727866
30
8.69871922460352e-006
11
285.789576595102
21
1845.90186278508
31
8.69115182692282e-006
  0
LINE
 8
GROUP0
10
290.167060747844
20
1839.38689996781
30
7.97039026775859e-006
11
290.02392631009
21
1839.07721201147
31
7.98294217051465e-006
  0
LINE
 8
GROUP0
10
290.307032954788
20
1840.39265917332
30
7.97292854355924e-006
11
290.303645358842
21
1840.06805902312
31
7.96653956757209e-006
  0
LINE
 8
GROUP0
10
290.307035405103
20
1843.89204528471
30
8.04667307180429e-006
11
290.307034496433
21
1842.59434036293
31
8.01932583208709e-006
  0
LINE
 8
GROUP0
10
290.260307435668
20
1845.47148489613
30
8.08618588873933e-006
11
290.303648896702
21
1845.12060788379
31
8.07301469102906e-006
  0
LINE
 8
GROUP0
10
288.366345392543
20
1847.29443260078
30
8.3770450747811e-006
11
288.702063789397
21
1847.21239429757
31
8.33056885891636e-006
  0
LINE
 8
GROUP0
10
285.947020755403
20
1846.2052505307
30
8.6765598659444e-006
11
286.153953413526
21
1846.48825490722
31
8.65494211075291e-006
  0
LINE
 8
GROUP0
10
285.61150259159
20
1844.04507032835
30
8.67575767430906e-006
11
285.611502999682
21
1844.62788078566
31
8.68803947644547e-006
  0
LINE
 8
GROUP0
10
286.795187549173
20
1840.65122405904
30
8.44646555313577e-006
11
286.508273497202
21
1840.84766103023
31
8.48884756470825e-006
  0
LINE
 8
GROUP0
10
290.307036038079
20
1844.79602155254
30
8.06572298525654e-006
11
290.307035405103
21
1843.89204528471
31
8.04667307180429e-006
  0
LINE
 8
GROUP0
10
289.017624341612
20
1847.08093092511
30
8.28573789257159e-006
11
289.312997292525
21
1846.90008711848
31
8.24255708671839e-006
  0
LINE
 8
GROUP0
10
285.611502999682
20
1844.62788078566
30
8.68803947644547e-006
11
285.611503233897
21
1844.96237164313
31
8.69508844161815e-006
  0
LINE
 8
GROUP0
10
288.01049890771
20
1847.32700119969
30
8.42516158266471e-006
11
288.366345392543
21
1847.29443260078
31
8.3770450747811e-006
  0
LINE
 8
GROUP0
10
289.83090902014
20
1838.78806685772
30
8.00257579023911e-006
11
289.588147178552
21
1838.51963669456
31
8.02927630236816e-006
  0
LINE
 8
GROUP0
10
286.987058462454
20
1847.12778387118
30
8.55737612150409e-006
11
287.307712701094
21
1847.24364369915
31
8.51707817091096e-006
  0
LINE
 8
GROUP0
10
287.649030578923
20
1847.31006433403
30
8.4729842613207e-006
11
288.01049890771
21
1847.32700119969
31
8.42516158266471e-006
  0
LINE
 8
GROUP0
10
286.407788513569
20
1846.74792517605
30
8.62658100214131e-006
11
286.687079765709
21
1846.96252948513
31
8.5938772029559e-006
  0
LINE
 8
GROUP0
10
289.312991263166
20
1838.28933551703
30
8.06109804071253e-006
11
289.017618058847
21
1838.10828261962
31
8.09665247422098e-006
  0
LINE
 8
GROUP0
10
290.167065239644
20
1845.80180633337
30
8.10557505543929e-006
11
290.260307435668
21
1845.47148489613
31
8.08618588873933e-006
  0
LINE
 8
GROUP0
10
289.588152885477
20
1846.66990751272
30
8.20103139674289e-006
11
289.830914350871
21
1846.4010800495
31
8.16300887005461e-006
  0
LINE
 8
GROUP0
10
290.307034496433
20
1842.59434036293
30
8.01932583208709e-006
11
290.307033587764
21
1841.29663544115
31
7.99197859236989e-006
  0
LINE
 8
GROUP0
10
286.687079765709
20
1846.96252948513
30
8.5938772029559e-006
11
286.987058462454
21
1847.12778387118
31
8.55737612150409e-006
  0
LINE
 8
GROUP0
10
287.307712701094
20
1847.24364369915
30
8.51707817091096e-006
11
287.649030578923
21
1847.31006433403
31
8.4729842613207e-006
  0
LINE
 8
GROUP0
10
289.312997292525
20
1846.90008711848
30
8.24255708671839e-006
11
289.588152885477
21
1846.66990751272
31
8.20103139674289e-006
  0
LINE
 8
GROUP0
10
288.702063789397
20
1847.21239429757
30
8.33056885891636e-006
11
289.017624341612
21
1847.08093092511
31
8.28573789257159e-006
  0
LINE
 8
GROUP0
10
287.329730420575
20
1839.04218015521
30
8.3413088732831e-006
11
287.510356466748
21
1838.95771787408
31
8.31545346421936e-006
  0
LINE
 8
GROUP0
10
285.833390734618
20
1839.19165783948
30
8.54390355750079e-006
11
285.750357190103
21
1839.39037538376
31
8.55915862795764e-006
  0
LINE
 8
GROUP0
10
287.510356466748
20
1838.95771787408
30
8.31545346421936e-006
11
287.698692648454
21
1838.90162405215
31
8.28916842339211e-006
  0
LINE
 8
GROUP0
10
290.260303406422
20
1839.71716941046
30
7.96492207075228e-006
11
290.167060747844
21
1839.38689996781
31
7.97039026775859e-006
  0
LINE
 8
GROUP0
10
290.02392631009
20
1839.07721201147
30
7.98294217051465e-006
11
289.83090902014
21
1838.78806685772
31
8.00257579023911e-006
  0
LINE
 8
GROUP0
10
289.017618058847
20
1838.10828261962
30
8.09665247422098e-006
11
288.702057322364
21
1837.97658512639
31
8.13593770787602e-006
  0
LINE
 8
GROUP0
10
285.936601828323
20
1839.00118570397
30
8.52613276745018e-006
11
285.833390734618
21
1839.19165783948
31
8.54390355750079e-006
  0
LINE
 8
GROUP0
10
287.894768722412
20
1838.87393439742
30
8.26245021738336e-006
11
288.093713058055
21
1838.87468288601
31
8.23594905573488e-006
  0
LINE
 8
GROUP0
10
286.153953413526
20
1846.48825490722
30
8.65494211075291e-006
11
286.407788513569
21
1846.74792517605
31
8.62658100214131e-006
  0
LINE
 8
GROUP0
10
286.854714897753
20
1839.45126747017
30
8.41324379590169e-006
11
286.926235432174
21
1839.36424236244
31
8.40187701296457e-006
  0
LINE
 8
GROUP0
10
286.926235432174
20
1839.36424236244
30
8.40187701296457e-006
11
287.007351719575
21
1839.28105022324
31
8.38931204882876e-006
  0
LINE
 8
GROUP0
10
286.61072827287
20
1839.72379416553
30
8.4515075664926e-006
11
286.697430246236
21
1839.73647135897
31
8.44021836435838e-006
  0
LINE
 8
GROUP0
10
289.588147178552
20
1838.51963669456
30
8.02927630236816e-006
11
289.312991263166
21
1838.28933551703
31
8.06109804071253e-006
  0
LINE
 8
GROUP0
10
286.060058911486
20
1838.81877746137
30
8.50583331838961e-006
11
285.936601828323
21
1839.00118570397
31
8.52613276745018e-006
  0
LINE
 8
GROUP0
10
290.303648896702
20
1845.12060788379
30
8.07301469102906e-006
11
290.307036038079
21
1844.79602155254
31
8.06572298525654e-006
  0
LINE
 8
GROUP0
10
288.702057322364
20
1837.97658512639
30
8.13593770787602e-006
11
288.366338810483
21
1837.89435016143
31
8.17895207507746e-006
  0
LINE
 8
GROUP0
10
286.740342061397
20
1839.63726889298
30
8.43240814077384e-006
11
286.792760359698
21
1839.54223862186
31
8.42341870520014e-006
  0
LINE
 8
GROUP0
10
286.407782697371
20
1838.44159822033
30
8.45153731502402e-006
11
286.20383042437
21
1838.64425159581
31
8.48299236114181e-006
  0
LINE
 8
GROUP0
10
286.697430246236
20
1839.73647135897
30
8.44021836435838e-006
11
286.740342061397
21
1839.63726889298
31
8.43240814077384e-006
  0
LINE
 8
GROUP0
10
286.987052114025
20
1838.06135819099
30
8.36631441988311e-006
11
286.687073648864
21
1838.22683716559
31
8.40978523672931e-006
  0
LINE
 8
GROUP0
10
285.71540274947
20
1839.53336818167
30
8.56683100805555e-006
11
285.859869573794
21
1839.56409470118
31
8.54822285151768e-006
  0
LINE
 8
GROUP0
10
286.687073648864
20
1838.22683716559
30
8.40978523672931e-006
11
286.407782697371
21
1838.44159822033
31
8.45153731502402e-006
  0
LINE
 8
GROUP0
10
286.792760359698
20
1839.54223862186
30
8.42341870520014e-006
11
286.854714897753
21
1839.45126747017
31
8.41324379590169e-006
  0
LINE
 8
GROUP0
10
286.20383042437
20
1838.64425159581
30
8.48299236114181e-006
11
286.060058911486
21
1838.81877746137
31
8.50583331838961e-006
  0
LINE
 8
GROUP0
10
287.007351719575
20
1839.28105022324
30
8.38931204882876e-006
11
287.156784753218
21
1839.15497518752
31
8.36673750791439e-006
  0
LINE
 8
GROUP0
10
285.789576595102
20
1845.90186278508
30
8.69115182692282e-006
11
285.947020755403
21
1846.2052505307
31
8.6765598659444e-006
  0
LINE
 8
GROUP0
10
285.859869573794
20
1839.56409470118
30
8.54822285151768e-006
11
286.111585798829
21
1839.61763199968
31
8.51580020299059e-006
  0
LINE
 8
GROUP0
10
290.303645358842
20
1840.06805902312
30
7.96653956757209e-006
11
290.260303406422
21
1839.71716941046
31
7.96492207075228e-006
  0
LINE
 8
GROUP0
10
286.389041880034
20
1839.67664388515
30
8.48006208532537e-006
11
286.61072827287
21
1839.72379416553
31
8.4515075664926e-006
  0
LINE
 8
GROUP0
10
288.010492279973
20
1837.86168484879
30
8.22569386269567e-006
11
287.649023974942
21
1837.87867497859
31
8.27423146418926e-006
  0
LINE
 8
GROUP0
10
285.750357190103
20
1839.39037538376
30
8.55915862795764e-006
11
285.71540274947
21
1839.53336818167
31
8.56683100805555e-006
  0
LINE
 8
GROUP0
10
289.830914350871
20
1846.4010800495
30
8.16300887005461e-006
11
290.023931235692
21
1846.11164658726
31
8.13118262892876e-006
  0
LINE
 8
GROUP0
10
233.830310346915
20
1830.21796602255
30
9.67258520951364e-006
11
235.133738996818
21
1831.60468191153
31
9.70180846647795e-006
  0
LINE
 8
GROUP0
10
287.649023974942
20
1837.87867497859
30
8.27423146418926e-006
11
287.307706190251
21
1837.94526842063
31
8.32112851986699e-006
  0
LINE
 8
GROUP0
10
272.323379022818
20
1848.6414242399
30
1.05437717113077e-005
11
272.323376859677
21
1845.55216270564
31
1.04786700327708e-005
  0
LINE
 8
GROUP0
10
288.94947368104
20
1839.30244612219
30
8.13090062029564e-006
11
289.075688440406
21
1839.45768697805
31
8.11734914940021e-006
  0
LINE
 8
GROUP0
10
272.323374004078
20
1841.47397595185
30
1.03927282499194e-005
11
276.756437191108
21
1841.47397284776
31
9.80185248576348e-006
  0
LINE
 8
GROUP0
10
289.075688440406
20
1839.45768697805
30
8.11734914940021e-006
11
289.174817102149
21
1839.6274008817
31
8.10771300386315e-006
  0
LINE
 8
GROUP0
10
288.635309659499
20
1839.04740977085
30
8.16740048352194e-006
11
288.797806107274
21
1839.16169477685
31
8.14815006128788e-006
  0
LINE
 8
GROUP0
10
276.756437191108
20
1841.47397284776
30
9.80185248576348e-006
11
276.320577662586
21
1840.47694969371
31
9.83893651209655e-006
  0
LINE
 8
GROUP0
10
288.093713058055
20
1838.87468288601
30
8.23594905573488e-006
11
288.28324230518
21
1838.90386811741
31
8.21130202557363e-006
  0
LINE
 8
GROUP0
10
289.174817102149
20
1839.6274008817
30
8.10771300386315e-006
11
289.246928106586
21
1839.81147773334
31
8.10198056824252e-006
  0
LINE
 8
GROUP0
10
272.323376859677
20
1845.55216270564
30
1.04786700327708e-005
11
275.946616075173
21
1845.5521601686
31
9.99573438580925e-006
  0
LINE
 8
GROUP0
10
288.366338810483
20
1837.89435016143
30
8.17895207507746e-006
11
288.010492279973
21
1837.86168484879
31
8.22569386269567e-006
  0
LINE
 8
GROUP0
10
287.156784753218
20
1839.15497518752
30
8.36673750791439e-006
11
287.329730420575
21
1839.04218015521
31
8.3413088732831e-006
  0
LINE
 8
GROUP0
10
287.307706190251
20
1837.94526842063
30
8.32112851986699e-006
11
286.987052114025
21
1838.06135819099
31
8.36631441988311e-006
  0
LINE
 8
GROUP0
10
276.320577662586
20
1840.47694969371
30
9.83893651209655e-006
11
271.327289820963
21
1840.47695319008
31
1.05044837338253e-005
  0
LINE
 8
GROUP0
10
275.946616075173
20
1845.5521601686
30
9.99573438580925e-006
11
275.511624216458
21
1844.55694465674
31
1.00327409095935e-005
  0
LINE
 8
GROUP0
10
271.327289820963
20
1840.47695319008
30
1.05044837338253e-005
11
271.327295934108
21
1849.20736174319
31
1.06884643508554e-005
  0
LINE
 8
GROUP0
10
286.111585798829
20
1839.61763199968
30
8.51580020299059e-006
11
286.389041880034
21
1839.67664388515
31
8.48006208532537e-006
  0
LINE
 8
GROUP0
10
275.946618935785
20
1849.63750518785
30
1.00818270650671e-005
11
275.511627076462
21
1848.64142200745
31
1.01188153944276e-005
  0
LINE
 8
GROUP0
10
275.511627076462
20
1848.64142200745
30
1.01188153944276e-005
11
272.323379022818
21
1848.6414242399
31
1.05437717113077e-005
  0
LINE
 8
GROUP0
10
288.463781448898
20
1838.96145564836
30
8.18845186466022e-006
11
288.635309659499
21
1839.04740977085
31
8.16740048352194e-006
  0
LINE
 8
GROUP0
10
272.323376162815
20
1844.55694688919
30
1.04576973174175e-005
11
272.323374004078
21
1841.47397595185
31
1.03927282499194e-005
  0
LINE
 8
GROUP0
10
287.698692648454
20
1838.90162405215
30
8.28916842339211e-006
11
287.894768722412
21
1838.87393439742
31
8.26245021738336e-006
  0
LINE
 8
GROUP0
10
288.28324230518
20
1838.90386811741
30
8.21130202557363e-006
11
288.463781448898
21
1838.96145564836
31
8.18845186466022e-006
  0
LINE
 8
GROUP0
10
275.511624216458
20
1844.55694465674
30
1.00327409095935e-005
11
272.323376162815
21
1844.55694688919
31
1.04576973174175e-005
  0
LINE
 8
GROUP0
10
289.246928106586
20
1839.81147773334
30
8.10198056824252e-006
11
289.292089894033
21
1840.00980743315
31
8.10014054363761e-006
  0
LINE
 8
GROUP0
10
272.323379724694
20
1849.64379832181
30
1.05648953230675e-005
11
275.946618935785
21
1849.63750518785
31
1.00818270650671e-005
  0
LINE
 8
GROUP0
10
288.797806107274
20
1839.16169477685
30
8.14815006128788e-006
11
288.94947368104
21
1839.30244612219
31
8.13090062029564e-006
  0
LINE
 8
GROUP0
10
289.292089894033
20
1840.00980743315
30
8.10014054363761e-006
11
289.310370904805
21
1840.22227988133
31
8.10218154161379e-006
  0
LINE
 8
GROUP0
10
271.327295934108
20
1849.20736174319
30
1.06884643508554e-005
11
272.323379724694
21
1849.64379832181
31
1.05648953230675e-005
  0
LINE
 8
GROUP0
10
239.228607656791
20
1840.08568710333
30
9.88053476262962e-006
11
239.503937246634
21
1841.96879703051
31
9.92021888618355e-006
  0
LINE
 8
GROUP0
10
227.350505831076
20
1828.63554185874
30
9.63923765216479e-006
11
228.748348238303
21
1827.98360342032
31
9.62549888685049e-006
  0
LINE
 8
GROUP0
10
225.773431780172
20
1834.83425516135
30
9.76986757640352e-006
11
224.422996523215
21
1834.20980733878
31
9.75670814006846e-006
  0
LINE
 8
GROUP0
10
217.705457689597
20
1839.33254570014
30
9.86466327428936e-006
11
217.00855064614
21
1839.92289299017
31
9.87710408517084e-006
  0
LINE
 8
GROUP0
10
217.00855064614
20
1839.92289299017
30
9.87710408517084e-006
11
216.421016695334
21
1840.62217086798
31
9.89184046861769e-006
  0
LINE
 8
GROUP0
10
222.927330019309
20
1838.75286144263
30
9.85244717243705e-006
11
222.058217885329
21
1838.47208732611
31
9.84653021865456e-006
  0
LINE
 8
GROUP0
10
223.737693788839
20
1831.49311250693
30
9.69945728487853e-006
11
224.541370394065
21
1830.68910879141
31
9.68251393855812e-006
  0
LINE
 8
GROUP0
10
225.086360933615
20
1840.39724296576
30
9.88710040246699e-006
11
224.463336946798
21
1839.72938579566
31
9.87302616970997e-006
  0
LINE
 8
GROUP0
10
247.364394365329
20
1841.63279148575
30
1.37228164340919e-005
11
247.204006232969
21
1841.41514557027
31
1.37396077884488e-005
  0
LINE
 8
GROUP0
10
220.107809009387
20
1847.31680625922
30
1.00329213141293e-005
11
219.499107243849
21
1847.13647789008
31
1.00291211258874e-005
  0
LINE
 8
GROUP0
10
224.828111650778
20
1830.40225214011
30
9.67646880319917e-006
11
226.037837984396
21
1829.44541257864
31
9.65630463780065e-006
  0
LINE
 8
GROUP0
10
222.995958330466
20
1833.78888887412
30
9.74783782410893e-006
11
222.78134525044
21
1832.70322984702
31
9.72495895382175e-006
  0
LINE
 8
GROUP0
10
239.503937246634
20
1841.96879703051
30
9.92021888618355e-006
11
238.072891714407
21
1840.91702026373
31
9.89805404127964e-006
  0
LINE
 8
GROUP0
10
215.959636690451
20
1841.41040748602
30
9.9084515432224e-006
11
215.637590410543
21
1842.26508647448
31
9.9264628059148e-006
  0
LINE
 8
GROUP0
10
247.204006232969
20
1841.41514557027
30
1.37396077884488e-005
11
247.018549947943
21
1841.20752664233
31
1.37599515906472e-005
  0
LINE
 8
GROUP0
10
233.167266371084
20
1838.9072260285
30
9.85570020822224e-006
11
231.409621717764
21
1838.65262073523
31
9.85033472849506e-006
  0
LINE
 8
GROUP0
10
247.800532871952
20
1845.09351815689
30
1.37376143463874e-005
11
247.8005323793
21
1844.38994208864
31
1.37227875195656e-005
  0
LINE
 8
GROUP0
10
247.800531494358
20
1843.12612447689
30
1.36961544568048e-005
11
247.790384168045
21
1842.87362590109
31
1.36921858749695e-005
  0
LINE
 8
GROUP0
10
246.596302915812
20
1840.84557768583
30
1.3808604691623e-005
11
246.369393245536
21
1840.70160450052
31
1.38358150755469e-005
  0
LINE
 8
GROUP0
10
215.451479914023
20
1843.73639428115
30
9.95746872866077e-006
11
215.444057466818
21
1844.0749124313
31
9.96460256424969e-006
  0
LINE
 8
GROUP0
10
219.499107243849
20
1847.13647789008
30
1.00291211258874e-005
11
218.930803181958
21
1846.85351318366
31
1.00231580078436e-005
  0
LINE
 8
GROUP0
10
247.609974335583
20
1842.09841571076
30
1.36998959587242e-005
11
247.499716385906
21
1841.86052724663
31
1.37095788057262e-005
  0
LINE
 8
GROUP0
10
228.748348238303
20
1827.98360342032
30
9.62549888685049e-006
11
230.212443830802
21
1827.49841684348
31
9.61527420232366e-006
  0
LINE
 8
GROUP0
10
245.884219481753
20
1840.48807164242
30
1.38959831120389e-005
11
245.625931714523
21
1840.41852992903
31
1.39289444376134e-005
  0
LINE
 8
GROUP0
10
224.422996523215
20
1834.20980733878
30
9.75670814006846e-006
11
222.995958330466
21
1833.78888887412
31
9.74783782410893e-006
  0
LINE
 8
GROUP0
10
238.072891714407
20
1840.91702026373
30
9.89805404127964e-006
11
236.524051191641
21
1840.04797309882
31
9.87973998821112e-006
  0
LINE
 8
GROUP0
10
232.39302587731
20
1828.97051996237
30
9.64629688554042e-006
11
233.830310346915
21
1830.21796602255
31
9.67258520951364e-006
  0
LINE
 8
GROUP0
10
247.800531944725
20
1843.76931087227
30
1.37097086038485e-005
11
247.800531629366
21
1843.31893487822
31
1.37002175984613e-005
  0
LINE
 8
GROUP0
10
236.524051191641
20
1840.04797309882
30
9.87973998821112e-006
11
234.88063764794
21
1839.37467903143
31
9.86555118021592e-006
  0
LINE
 8
GROUP0
10
224.541370394065
20
1830.68910879141
30
9.68251393855812e-006
11
224.828111650778
21
1830.40225214011
31
9.67646880319917e-006
  0
LINE
 8
GROUP0
10
220.241203250719
20
1838.36538738257
30
9.84428165422546e-006
11
219.345203282667
21
1838.54250949866
31
9.84801427536541e-006
  0
LINE
 8
GROUP0
10
218.930803181958
20
1846.85351318366
30
1.00231580078436e-005
11
218.420055391623
21
1846.47645706183
31
1.00152120338926e-005
  0
LINE
 8
GROUP0
10
215.444057466818
20
1844.0749124313
30
9.96460256424969e-006
11
215.578096391989
21
1844.97836047656
31
9.98364157218656e-006
  0
LINE
 8
GROUP0
10
231.409621717764
20
1838.65262073523
30
9.85033472849506e-006
11
229.634036543204
21
1838.6146768952
31
9.84953511078412e-006
  0
LINE
 8
GROUP0
10
242.32844330126
20
1847.89417490163
30
1.45260001977954e-005
11
242.426126694793
21
1848.13741496541
31
1.45181060914878e-005
  0
LINE
 8
GROUP0
10
244.251008751051
20
1840.44276619161
30
1.41127164151933e-005
11
243.996577995145
21
1840.52170814123
31
1.41482926611425e-005
  0
LINE
 8
GROUP0
10
247.755306185769
20
1842.60490218014
30
1.36911984164712e-005
11
247.695170255242
21
1842.34651973598
31
1.36937687207461e-005
  0
LINE
 8
GROUP0
10
244.79234774142
20
1840.35886987785
30
1.4038794218485e-005
11
244.516259482734
21
1840.38848377725
31
1.40762176383591e-005
  0
LINE
 8
GROUP0
10
242.426126694793
20
1848.13741496541
30
1.45181060914878e-005
11
242.548844118065
21
1848.3704941626
31
1.45066611383748e-005
  0
LINE
 8
GROUP0
10
242.562487855171
20
1841.72017460774
30
1.4364696148067e-005
11
242.437267646139
21
1841.95279062231
31
1.43862886885282e-005
  0
LINE
 8
GROUP0
10
245.077895225077
20
1840.35394083209
30
1.40006301830586e-005
11
244.79234774142
21
1840.35886987785
31
1.4038794218485e-005
  0
LINE
 8
GROUP0
10
242.183645705712
20
1846.93056138688
30
1.45249932660185e-005
11
242.185650360878
21
1847.10342420393
31
1.45283688406272e-005
  0
LINE
 8
GROUP0
10
242.183644120255
20
1844.66631244747
30
1.44772774429425e-005
11
242.183644619022
21
1845.37861955277
31
1.44922883550613e-005
  0
LINE
 8
GROUP0
10
242.261933074043
20
1842.44812301925
30
1.44200971249842e-005
11
242.211829323431
21
1842.71096511733
31
1.44323144069924e-005
  0
LINE
 8
GROUP0
10
247.800531629366
20
1843.31893487822
30
1.37002175984613e-005
11
247.800531494358
21
1843.12612447689
31
1.36961544568048e-005
  0
LINE
 8
GROUP0
10
226.037837984396
20
1829.44541257864
30
9.65630463780065e-006
11
227.350505831076
21
1828.63554185874
31
9.63923765216479e-006
  0
LINE
 8
GROUP0
10
245.625931714523
20
1840.41852992903
30
1.39289444376134e-005
11
245.357160907918
21
1840.37381666569
31
1.39638261145381e-005
  0
LINE
 8
GROUP0
10
242.208199828125
20
1847.37718605159
30
1.45311324317499e-005
11
242.255799243645
21
1847.64076744059
31
1.45303425979126e-005
  0
LINE
 8
GROUP0
10
242.183643284732
20
1843.47307071848
30
1.44521316312096e-005
11
242.183643655113
21
1844.0020260459
31
1.44632785949395e-005
  0
LINE
 8
GROUP0
10
246.812776894159
20
1841.01434340239
30
1.37833076761074e-005
11
246.596302915812
21
1840.84557768583
31
1.3808604691623e-005
  0
LINE
 8
GROUP0
10
236.289885999991
20
1833.11638254172
30
9.73366561655142e-006
11
237.286831381155
21
1834.73749441153
31
9.76782846780488e-006
  0
LINE
 8
GROUP0
10
246.13203604647
20
1840.58243282615
30
1.38649405959979e-005
11
245.884219481753
21
1840.48807164242
31
1.38959831120389e-005
  0
LINE
 8
GROUP0
10
247.800534200638
20
1846.99106354056
30
1.37776024087488e-005
11
247.800534087028
21
1846.82881176887
31
1.37741831606142e-005
  0
LINE
 8
GROUP0
10
247.018549947943
20
1841.20752664233
30
1.37599515906472e-005
11
246.812776894159
21
1841.01434340239
31
1.37833076761074e-005
  0
LINE
 8
GROUP0
10
247.800533786952
20
1846.40026336742
30
1.37651520988102e-005
11
247.800533361549
21
1845.79272870662
31
1.37523492662717e-005
  0
LINE
 8
GROUP0
10
247.790384168045
20
1842.87362590109
30
1.36921858749695e-005
11
247.755306185769
21
1842.60490218014
31
1.36911984164712e-005
  0
LINE
 8
GROUP0
10
247.8005323793
20
1844.38994208864
30
1.37227875195656e-005
11
247.800531944725
21
1843.76931087227
31
1.37097086038485e-005
  0
LINE
 8
GROUP0
10
246.369393245536
20
1840.70160450052
30
1.38358150755469e-005
11
246.13203604647
21
1840.58243282615
31
1.38649405959979e-005
  0
LINE
 8
GROUP0
10
247.499716385906
20
1841.86052724663
30
1.37095788057262e-005
11
247.364394365329
21
1841.63279148575
31
1.37228164340919e-005
  0
LINE
 8
GROUP0
10
247.800534087028
20
1846.82881176887
30
1.37741831606142e-005
11
247.800533786952
21
1846.40026336742
31
1.37651520988102e-005
  0
LINE
 8
GROUP0
10
230.212443830802
20
1827.49841684348
30
9.61527420232366e-006
11
230.83669233544
21
1827.87519735343
31
9.62321436784874e-006
  0
LINE
 8
GROUP0
10
243.086703704815
20
1841.08389169878
30
1.42814154815762e-005
11
242.888007588073
21
1841.28472865719
31
1.43121318149142e-005
  0
LINE
 8
GROUP0
10
244.516259482734
20
1840.38848377725
30
1.40762176383591e-005
11
244.251008751051
21
1840.44276619161
31
1.41127164151933e-005
  0
LINE
 8
GROUP0
10
247.695170255242
20
1842.34651973598
30
1.36937687207461e-005
11
247.609974335583
21
1842.09841571076
31
1.36998959587242e-005
 0
ENDSEC
 0
EOF
