 0
SECTION
 2
ENTITIES
  0
LINE
 8
GROUP0
10
1052.84006568065
20
2764.56735801078
30
5.16426417718208e-007
11
1067.34035626904
21
2731.56748129221
31
4.08115565875278e-007
  0
LINE
 8
GROUP0
10
1349.84574381145
20
2498.07081018869
30
5.11491295895894e-007
11
1349.84590999212
21
2486.56877161515
31
6.56415690158951e-007
  0
LINE
 8
GROUP0
10
1067.34035626904
20
2731.56748129221
30
4.08115565875278e-007
11
1335.3400400772
21
2731.57057875711
31
1.55693489816144e-006
  0
LINE
 8
GROUP0
10
1052.83996001321
20
2776.56721411701
30
5.77473097251868e-007
11
1052.84006568065
21
2764.56735801078
31
5.16426417718208e-007
  0
LINE
 8
GROUP0
10
1048.33983667119
20
2781.06719315165
30
7.54653937562466e-007
11
1052.83996001321
21
2776.56721411701
31
5.77473097251868e-007
  0
LINE
 8
GROUP0
10
1373.34254987724
20
2781.07085654661
30
1.96566151693389e-006
11
1373.34598548144
21
2482.07117269159
31
4.98999115094989e-007
  0
LINE
 8
GROUP0
10
1029.33983667097
20
2781.06711348507
30
5.24527617429271e-007
11
1048.33983667119
21
2781.06719315165
31
7.54653937562466e-007
  0
LINE
 8
GROUP0
10
1349.84590999212
20
2486.56877161515
30
6.56415690158951e-007
11
1354.34598548348
21
2482.07088571157
31
4.91785009160139e-007
  0
LINE
 8
GROUP0
10
1373.34598548144
20
2482.07117269159
30
4.98999115094989e-007
11
1354.34598548348
21
2482.07088571157
31
4.91785009160139e-007
  0
LINE
 8
GROUP0
10
1354.34254987979
20
2781.07052275503
30
1.86568044000524e-006
11
1373.34254987724
21
2781.07085654661
31
1.96566151693389e-006
  0
LINE
 8
GROUP0
10
1354.34254987979
20
2781.07052275503
30
1.86568044000524e-006
11
1349.83945705624
21
2776.57043486003
31
1.64039607000177e-006
  0
LINE
 8
GROUP0
10
1349.8400400772
20
2764.57057875711
30
1.58714174745e-006
11
1349.83945705624
21
2776.57043486003
31
1.64039607000177e-006
  0
LINE
 8
GROUP0
10
1335.3400400772
20
2731.57057875711
30
1.55693489816144e-006
11
1349.8400400772
21
2764.57057875711
31
1.58714174745e-006
  0
LINE
 8
GROUP0
10
1038.10269192071
20
2771.32983974964
30
8.38095617794465e-007
11
1037.82458287393
21
2771.69227536923
31
8.3840865663376e-007
  0
LINE
 8
GROUP0
10
1313.34334300698
20
2486.57022297908
30
4.2313145875994e-007
11
1086.34328266911
21
2486.56775301252
31
4.22143568101774e-007
  0
LINE
 8
GROUP0
10
1037.64975160582
20
2773.02020766689
30
8.41196498058139e-007
11
1037.82457553622
21
2773.44227497621
31
8.4253040988358e-007
  0
LINE
 8
GROUP0
10
1052.84309278491
20
2509.56739396042
30
5.07311789732512e-007
11
1052.84325781925
21
2486.56753027591
31
4.58585791918154e-007
  0
LINE
 8
GROUP0
10
1037.82457553622
20
2773.44227497621
30
8.4253040988358e-007
11
1038.10268154362
21
2773.80471292799
31
8.43924646432015e-007
  0
LINE
 8
GROUP0
10
1037.59012371435
20
2772.56727418965
30
8.4001382667509e-007
11
1037.64975160582
21
2773.02020766689
31
8.41196498058139e-007
  0
LINE
 8
GROUP0
10
1076.34303240884
20
2509.56764420209
30
5.08353327433042e-007
11
1052.84309278491
21
2509.56739396042
31
5.07311789732512e-007
  0
LINE
 8
GROUP0
10
1038.10268154362
20
2773.80471292799
30
8.43924646432015e-007
11
1038.4651171632
21
2774.08282197477
31
8.45284140993385e-007
  0
LINE
 8
GROUP0
10
1323.34322332249
20
2498.07033178749
30
5.32355212712332e-007
11
1313.34334300698
21
2486.57022297908
31
4.2313145875994e-007
  0
LINE
 8
GROUP0
10
1029.34289342686
20
2482.06742962612
30
4.213462169389e-007
11
1029.33983667097
21
2781.06711348507
31
5.24527617429271e-007
  0
LINE
 8
GROUP0
10
1076.34303240884
20
2509.56764420209
30
5.08353327433042e-007
11
1086.34328266911
21
2486.56775301252
31
4.22143568101774e-007
  0
LINE
 8
GROUP0
10
1037.64975540409
20
2772.11434121247
30
8.39062933977175e-007
11
1037.59012371435
21
2772.56727418965
31
8.4001382667509e-007
  0
LINE
 8
GROUP0
10
1037.82458287393
20
2771.69227536923
30
8.3840865663376e-007
11
1037.64975540409
21
2772.11434121247
31
8.39062933977175e-007
  0
LINE
 8
GROUP0
10
1048.34289342704
20
2482.06750930596
30
5.47260066596778e-007
11
1029.34289342686
21
2482.06742962612
31
4.213462169389e-007
  0
LINE
 8
GROUP0
10
1048.34289342704
20
2482.06750930596
30
5.47260066596778e-007
11
1052.84325781925
21
2486.56753027591
31
4.58585791918154e-007
  0
LINE
 8
GROUP0
10
1349.84574381145
20
2498.07081018869
30
5.11491295895894e-007
11
1323.34322332249
21
2498.07033178749
31
5.32355212712332e-007
  0
LINE
 8
GROUP0
10
1040.85566376874
20
2773.4422876855
30
8.48422199695165e-007
11
1041.03049123858
21
2773.02022184226
31
8.47767967471213e-007
  0
LINE
 8
GROUP0
10
1038.88719718181
20
2770.87690981184
30
8.38553760829086e-007
11
1038.46512987249
21
2771.05173374224
31
8.38145113846167e-007
  0
LINE
 8
GROUP0
10
1039.79306363623
20
2770.87691361012
30
8.40314547900789e-007
11
1039.34013065905
21
2770.81728192038
31
8.39293720034107e-007
  0
LINE
 8
GROUP0
10
1039.34011598362
20
2774.31728113435
30
8.47537181414282e-007
11
1039.79304946086
21
2774.25765324288
31
8.48277140619302e-007
  0
LINE
 8
GROUP0
10
1040.21511677018
20
2774.08282931248
30
8.48685787602221e-007
11
1040.57755472196
21
2773.80472330508
31
8.48735283653923e-007
  0
LINE
 8
GROUP0
10
1039.79304946086
20
2774.25765324288
30
8.48277140619302e-007
11
1040.21511677018
21
2774.08282931248
31
8.48685787602221e-007
  0
LINE
 8
GROUP0
10
1041.09012292832
20
2772.56728886508
30
8.46817074773298e-007
11
1041.03049503686
21
2772.11435538784
31
8.4563440339025e-007
  0
LINE
 8
GROUP0
10
1041.03049503686
20
2772.11435538784
30
8.4563440339025e-007
11
1040.85567110645
21
2771.69228807852
31
8.44300491564809e-007
  0
LINE
 8
GROUP0
10
1039.34013065905
20
2770.81728192038
30
8.39293720034107e-007
11
1038.88719718181
21
2770.87690981184
31
8.38553760829086e-007
  0
LINE
 8
GROUP0
10
1038.4651171632
20
2774.08282197477
30
8.45284140993385e-007
11
1038.88718300644
21
2774.2576494446
31
8.46516308428136e-007
  0
LINE
 8
GROUP0
10
1040.57755472196
20
2773.80472330508
30
8.48735283653923e-007
11
1040.85566376874
21
2773.4422876855
31
8.48422199695165e-007
  0
LINE
 8
GROUP0
10
1041.03049123858
20
2773.02022184226
30
8.47767967471213e-007
11
1041.09012292832
21
2772.56728886508
31
8.46817074773298e-007
  0
LINE
 8
GROUP0
10
1040.85567110645
20
2771.69228807852
30
8.44300491564809e-007
11
1040.57756509906
21
2771.32985012674
31
8.42906255016374e-007
  0
LINE
 8
GROUP0
10
1040.57756509906
20
2771.32985012674
30
8.42906255016374e-007
11
1040.21512947947
21
2771.05174107996
31
8.41546760455003e-007
  0
LINE
 8
GROUP0
10
1038.88718300644
20
2774.2576494446
30
8.46516308428136e-007
11
1039.34011598362
21
2774.31728113435
31
8.47537181414282e-007
  0
LINE
 8
GROUP0
10
1040.21512947947
20
2771.05174107996
30
8.41546760455003e-007
11
1039.79306363623
21
2770.87691361012
31
8.40314547900789e-007
  0
LINE
 8
GROUP0
10
1040.21801261579
20
2489.0519308157
30
1.77362355913147e-007
11
1039.79594668886
21
2488.87710331085
31
1.76130188478396e-007
  0
LINE
 8
GROUP0
10
1038.10556425856
20
2491.80490320889
30
1.79740241890158e-007
11
1038.46799994991
21
2492.08301231115
31
1.81099736451529e-007
  0
LINE
 8
GROUP0
10
1038.46799994991
20
2492.08301231115
30
1.81099736451529e-007
11
1038.89006587684
21
2492.25783981599
31
1.82331949005743e-007
  0
LINE
 8
GROUP0
10
1037.82746553513
20
2489.69246523049
30
1.74224297211367e-007
11
1037.65263803028
21
2490.11453115741
31
1.74878529435318e-007
  0
LINE
 8
GROUP0
10
1038.10557463738
20
2489.33002953913
30
1.73911213252609e-007
11
1037.82746553513
21
2489.69246523049
31
1.74224297211367e-007
  0
LINE
 8
GROUP0
10
1037.65263803028
20
2490.11453115741
30
1.74878529435318e-007
11
1037.59300632838
21
2490.56746422449
31
1.75829422133233e-007
  0
LINE
 8
GROUP0
10
1038.46512987249
20
2771.05173374224
30
8.38145113846167e-007
11
1038.10269192071
21
2771.32983974964
31
8.38095617794465e-007
  0
LINE
 8
GROUP0
10
1040.58044830714
20
2489.33003991795
30
1.78721850474517e-007
11
1040.21801261579
21
2489.0519308157
31
1.77362355913147e-007
  0
LINE
 8
GROUP0
10
1039.79594668886
20
2488.87710331085
30
1.76130188478396e-007
11
1039.34301362178
21
2488.81747160896
31
1.7510931549225e-007
  0
LINE
 8
GROUP0
10
1038.89008005457
20
2488.87709951194
30
1.74369356287229e-007
11
1038.46801266132
21
2489.05192347677
31
1.7396070930431e-007
  0
LINE
 8
GROUP0
10
1037.65263423137
20
2491.0203977917
30
1.77012093516282e-007
11
1037.82745819619
21
2491.44246518495
31
1.78346005341723e-007
  0
LINE
 8
GROUP0
10
1038.46801266132
20
2489.05192347677
30
1.7396070930431e-007
11
1038.10557463738
21
2489.33002953913
31
1.73911213252609e-007
  0
LINE
 8
GROUP0
10
1037.59300632838
20
2490.56746422449
30
1.75829422133233e-007
11
1037.65263423137
21
2491.0203977917
31
1.77012093516282e-007
  0
LINE
 8
GROUP0
10
1037.82745819619
20
2491.44246518495
30
1.78346005341723e-007
11
1038.10556425856
21
2491.80490320889
31
1.79740241890158e-007
  0
LINE
 8
GROUP0
10
1039.34301362178
20
2488.81747160896
30
1.7510931549225e-007
11
1038.89008005457
21
2488.87709951194
31
1.74369356287229e-007
  0
LINE
 8
GROUP0
10
1364.58331048835
20
2491.80628141211
30
8.14345499122737e-007
11
1364.8614222424
21
2491.4438477406
31
8.14032460283443e-007
  0
LINE
 8
GROUP0
10
1364.8614222424
20
2491.4438477406
30
8.14032460283443e-007
11
1365.03625283145
21
2491.02178307836
31
8.13378228059491e-007
  0
LINE
 8
GROUP0
10
1040.85855436951
20
2489.69247794189
30
1.80116087022952e-007
11
1040.58044830714
21
2489.33003991795
31
1.78721850474517e-007
  0
LINE
 8
GROUP0
10
1040.85854703057
20
2491.44247789636
30
1.84237840272772e-007
11
1041.03337453542
21
2491.02041196943
31
1.83583562929357e-007
  0
LINE
 8
GROUP0
10
1040.58043792832
20
2491.80491358771
30
1.84550879112066e-007
11
1040.85854703057
21
2491.44247789636
31
1.84237840272772e-007
  0
LINE
 8
GROUP0
10
1039.34299894392
20
2492.31747151789
30
1.83352776872425e-007
11
1039.79593251113
21
2492.2578436149
31
1.84092736077446e-007
  0
LINE
 8
GROUP0
10
1040.21799990438
20
2492.08301965008
30
1.84501383060365e-007
11
1040.58043792832
21
2491.80491358771
31
1.84550879112066e-007
  0
LINE
 8
GROUP0
10
1365.03625283145
20
2491.02178307836
30
8.13378228059491e-007
11
1365.0958878398
21
2490.56885043463
31
8.12427335361576e-007
  0
LINE
 8
GROUP0
10
1041.03337453542
20
2491.02041196943
30
1.83583562929357e-007
11
1041.09300623732
21
2490.56747890236
31
1.82632670231442e-007
  0
LINE
 8
GROUP0
10
1041.09300623732
20
2490.56747890236
30
1.82632670231442e-007
11
1041.03337833433
21
2490.11454533514
31
1.81449998848393e-007
  0
LINE
 8
GROUP0
10
1038.89006587684
20
2492.25783981599
30
1.82331949005743e-007
11
1039.34299894392
21
2492.31747151789
31
1.83352776872425e-007
  0
LINE
 8
GROUP0
10
1364.22087042575
20
2492.08438483711
30
8.14296003071036e-007
11
1364.58331048835
21
2491.80628141211
31
8.14345499122737e-007
  0
LINE
 8
GROUP0
10
1363.7988017459
20
2492.2592057268
30
8.13887356088117e-007
11
1364.22087042575
21
2492.08438483711
31
8.14296003071036e-007
  0
LINE
 8
GROUP0
10
1363.34586773184
20
2492.31883032644
30
8.13147396883096e-007
11
1363.7988017459
21
2492.2592057268
31
8.13887356088117e-007
  0
LINE
 8
GROUP0
10
1039.79593251113
20
2492.2578436149
30
1.84092736077446e-007
11
1040.21799990438
21
2492.08301965008
31
1.84501383060365e-007
  0
LINE
 8
GROUP0
10
1041.03337833433
20
2490.11454533514
30
1.81449998848393e-007
11
1040.85855436951
21
2489.69247794189
31
1.80116087022952e-007
  0
LINE
 8
GROUP0
10
1365.03626324016
20
2490.11591642056
30
8.11244663978527e-007
11
1364.86144235047
21
2489.69384774072
31
8.09910752153087e-007
  0
LINE
 8
GROUP0
10
1364.86144235047
20
2489.69384774072
30
8.09910752153087e-007
11
1364.58333892546
21
2489.33140767812
31
8.08516515604651e-007
  0
LINE
 8
GROUP0
10
1361.59588784003
20
2490.56881021848
30
8.0562399702444e-007
11
1361.65551243967
21
2491.02174423255
31
8.06806713526953e-007
  0
LINE
 8
GROUP0
10
1364.58333892546
20
2489.33140767812
30
8.08516515604651e-007
11
1364.22090525395
21
2489.05329592407
31
8.07157021043281e-007
  0
LINE
 8
GROUP0
10
1363.34590794798
20
2488.81883032667
30
8.04903980622385e-007
11
1362.89297393392
21
2488.87845492631
31
8.041639762979e-007
  0
LINE
 8
GROUP0
10
1362.47090525407
20
2489.053275816
30
8.03755329314981e-007
11
1362.10846519147
21
2489.33137924101
31
8.0370583326328e-007
  0
LINE
 8
GROUP0
10
1361.65552284837
20
2490.11587757475
30
8.04673149445989e-007
11
1361.59588784003
21
2490.56881021848
31
8.0562399702444e-007
  0
LINE
 8
GROUP0
10
1361.65551243967
20
2491.02174423255
30
8.06806713526953e-007
11
1361.83033332935
21
2491.4438129124
31
8.0814058023293e-007
  0
LINE
 8
GROUP0
10
1361.83033332935
20
2491.4438129124
30
8.0814058023293e-007
11
1362.10843675436
21
2491.806252975
31
8.09534816781365e-007
  0
LINE
 8
GROUP0
10
1365.0958878398
20
2490.56885043463
30
8.12427335361576e-007
11
1365.03626324016
21
2490.11591642056
31
8.11244663978527e-007
  0
LINE
 8
GROUP0
10
1362.89297393392
20
2488.87845492631
30
8.041639762979e-007
11
1362.47090525407
21
2489.053275816
31
8.03755329314981e-007
  0
LINE
 8
GROUP0
10
1361.83035343743
20
2489.69381291251
30
8.04018872102574e-007
11
1361.65552284837
21
2490.11587757475
31
8.04673149445989e-007
  0
LINE
 8
GROUP0
10
1362.10846519147
20
2489.33137924101
30
8.0370583326328e-007
11
1361.83035343743
21
2489.69381291251
31
8.04018872102574e-007
  0
LINE
 8
GROUP0
10
1364.22090525395
20
2489.05329592407
30
8.07157021043281e-007
11
1363.79884059172
21
2488.87846533501
31
8.05924808489067e-007
  0
LINE
 8
GROUP0
10
1363.79884059172
20
2488.87846533501
30
8.05924808489067e-007
11
1363.34590794798
21
2488.81883032667
31
8.04903980622385e-007
  0
LINE
 8
GROUP0
10
1362.10843675436
20
2491.806252975
30
8.09534816781365e-007
11
1362.47087042587
21
2492.08436472904
31
8.108943564622e-007
  0
LINE
 8
GROUP0
10
1363.34262746176
20
2774.31864006277
30
1.47733107951353e-006
11
1363.79556147582
21
2774.25901546313
31
1.47807108383802e-006
  0
LINE
 8
GROUP0
10
1362.47087042587
20
2492.08436472904
30
8.108943564622e-007
11
1362.89293508811
21
2492.2591953181
31
8.1212652389695e-007
  0
LINE
 8
GROUP0
10
1364.58007021827
20
2773.80609114843
30
1.47852922687264e-006
11
1364.85818197231
21
2773.44365747693
31
1.47821618803334e-006
  0
LINE
 8
GROUP0
10
1364.85818197231
20
2773.44365747693
30
1.47821618803334e-006
11
1365.03301256137
21
2773.02159281469
31
1.47756191068993e-006
  0
LINE
 8
GROUP0
10
1365.03301256137
20
2773.02159281469
30
1.47756191068993e-006
11
1365.09264756971
21
2772.56866017096
31
1.47661106311148e-006
  0
LINE
 8
GROUP0
10
1365.09264756971
20
2772.56866017096
30
1.47661106311148e-006
11
1365.03302297007
21
2772.11572615689
31
1.47542834660896e-006
  0
LINE
 8
GROUP0
10
1362.88969481802
20
2774.25900505443
30
1.47631025164685e-006
11
1363.34262746176
21
2774.31864006277
31
1.47733107951353e-006
  0
LINE
 8
GROUP0
10
1365.03302297007
20
2772.11572615689
30
1.47542834660896e-006
11
1364.85820208039
21
2771.69365747704
31
1.47409447990299e-006
  0
LINE
 8
GROUP0
10
1364.21763015567
20
2774.08419457344
30
1.47847973082094e-006
11
1364.58007021827
21
2773.80609114843
31
1.47852922687264e-006
  0
LINE
 8
GROUP0
10
1363.79556147582
20
2774.25901546313
30
1.47807108383802e-006
11
1364.21763015567
21
2774.08419457344
31
1.47847973082094e-006
  0
LINE
 8
GROUP0
10
1362.89293508811
20
2492.2591953181
30
8.1212652389695e-007
11
1363.34586773184
21
2492.31883032644
31
8.13147396883096e-007
  0
LINE
 8
GROUP0
10
1363.79560032163
20
2770.87827507134
30
1.47010853623897e-006
11
1363.3426676779
21
2770.818640063
31
1.46908766325282e-006
  0
LINE
 8
GROUP0
10
1361.82711316734
20
2771.69362264884
30
1.46820259985247e-006
11
1361.65228257829
21
2772.11568731108
31
1.46885683207643e-006
  0
LINE
 8
GROUP0
10
1364.21766498387
20
2771.0531056604
30
1.47134070367372e-006
11
1363.79560032163
21
2770.87827507134
31
1.47010853623897e-006
  0
LINE
 8
GROUP0
10
1362.10522492139
20
2771.33118897733
30
1.46788956101318e-006
11
1361.82711316734
21
2771.69362264884
31
1.46820259985247e-006
  0
LINE
 8
GROUP0
10
1361.65228257829
20
2772.11568731108
30
1.46885683207643e-006
11
1361.59264756994
21
2772.56861995481
31
1.46980772477434e-006
  0
LINE
 8
GROUP0
10
1361.59264756994
20
2772.56861995481
30
1.46980772477434e-006
11
1361.65227216958
21
2773.02155396888
31
1.47099039615739e-006
  0
LINE
 8
GROUP0
10
1364.85820208039
20
2771.69365747704
30
1.47409447990299e-006
11
1364.58009865538
21
2771.33121741444
31
1.47270024335455e-006
  0
LINE
 8
GROUP0
10
1363.3426676779
20
2770.818640063
30
1.46908766325282e-006
11
1362.88973366384
21
2770.87826466264
31
1.4683477040478e-006
  0
LINE
 8
GROUP0
10
1362.88973366384
20
2770.87826466264
30
1.4683477040478e-006
11
1362.46766498399
21
2771.05308555233
31
1.46793905706488e-006
  0
LINE
 8
GROUP0
10
1364.58009865538
20
2771.33121741444
30
1.47270024335455e-006
11
1364.21766498387
21
2771.0531056604
31
1.47134070367372e-006
  0
LINE
 8
GROUP0
10
1362.46766498399
20
2771.05308555233
30
1.46793905706488e-006
11
1362.10522492139
21
2771.33118897733
31
1.46788956101318e-006
  0
LINE
 8
GROUP0
10
1362.10519648428
20
2773.80606271132
30
1.47371854453127e-006
11
1362.46763015578
21
2774.08417446537
31
1.47507803909264e-006
  0
LINE
 8
GROUP0
10
1361.82709305927
20
2773.44362264872
30
1.47232430798283e-006
11
1362.10519648428
21
2773.80606271132
31
1.47371854453127e-006
  0
LINE
 8
GROUP0
10
1361.65227216958
20
2773.02155396888
30
1.47099039615739e-006
11
1361.82709305927
21
2773.44362264872
31
1.47232430798283e-006
  0
LINE
 8
GROUP0
10
1362.46763015578
20
2774.08417446537
30
1.47507803909264e-006
11
1362.88969481802
21
2774.25900505443
31
1.47631025164685e-006
  0
LINE
 8
GROUP0
10
1283.34345187208
20
2706.06716783426
30
1.16107833569856e-006
11
1318.34323355353
21
2706.06716783426
31
1.22911032036654e-006
  0
LINE
 8
GROUP0
10
1176.34049606323
20
2716.56874108414
30
9.77821979120108e-007
11
1171.34044494719
21
2716.56874108414
31
9.68102930798409e-007
  0
LINE
 8
GROUP0
10
1318.34323355353
20
2721.07038231213
30
1.26444716244123e-006
11
1283.34345187208
21
2721.07038231213
31
1.19641517777325e-006
  0
LINE
 8
GROUP0
10
1318.34323355353
20
2706.06716783426
30
1.22911032036654e-006
11
1318.34323355353
21
2721.07038231213
31
1.26444716244123e-006
  0
LINE
 8
GROUP0
10
1171.34044494719
20
2716.56874108414
30
9.68102930798409e-007
11
1171.34044494719
21
2721.56868329529
31
9.7987924618792e-007
  0
LINE
 8
GROUP0
10
1283.34345187208
20
2721.07038231213
30
1.19641517777325e-006
11
1283.34345187208
21
2706.06716783426
31
1.16107833569856e-006
  0
LINE
 8
GROUP0
10
1171.34044494719
20
2711.56868329529
30
9.56326389811579e-007
11
1176.34049606323
21
2711.56868329529
31
9.66045393013815e-007
  0
LINE
 8
GROUP0
10
1176.34049606323
20
2721.56868329529
30
9.89598249390156e-007
11
1176.34049606323
21
2716.56874108414
31
9.77821979120108e-007
  0
LINE
 8
GROUP0
10
1176.34049606323
20
2706.56874108414
30
9.54269122743767e-007
11
1171.34044494719
21
2706.56874108414
31
9.44550074422068e-007
  0
LINE
 8
GROUP0
10
1176.34049606323
20
2711.56868329529
30
9.66045393013815e-007
11
1176.34049606323
21
2706.56874108414
31
9.54269122743767e-007
  0
LINE
 8
GROUP0
10
1171.34044494719
20
2721.56868329529
30
9.7987924618792e-007
11
1176.34049606323
21
2721.56868329529
31
9.89598249390156e-007
  0
LINE
 8
GROUP0
10
1171.34044494719
20
2706.56874108414
30
9.44550074422068e-007
11
1171.34044494719
21
2711.56868329529
31
9.56326389811579e-007
  0
LINE
 8
GROUP0
10
1051.91897287771
20
2741.80538675179
30
6.84848306775621e-007
11
1053.93038145924
21
2737.22780709458
31
6.7797652221202e-007
  0
LINE
 8
GROUP0
10
1049.90756429618
20
2746.38296640901
30
7.04115400651517e-007
11
1054.4851439534
21
2748.39437499053
31
7.04115445770981e-007
  0
LINE
 8
GROUP0
10
1304.78220013033
20
2699.00650766248
30
5.06751992546128e-007
11
1304.54382219643
21
2699.31716783426
31
5.06751992546128e-007
  0
LINE
 8
GROUP0
10
1304.39397156268
20
2699.67893926661
30
5.06751992546128e-007
11
1304.34286030211
21
2700.06716783426
31
5.06751992546128e-007
  0
LINE
 8
GROUP0
10
1058.50796111645
20
2739.2392156761
30
6.91611804626291e-007
11
1056.49655253493
21
2743.81679533332
31
6.98483589189891e-007
  0
LINE
 8
GROUP0
10
1052.47373537187
20
2752.97195464775
30
7.04115445770981e-007
11
1047.89615571465
21
2750.96054606623
31
7.04115445770981e-007
  0
LINE
 8
GROUP0
10
1304.54382219643
20
2699.31716783426
30
5.06751992546128e-007
11
1304.39397156268
21
2699.67893926661
31
5.06751992546128e-007
  0
LINE
 8
GROUP0
10
1304.34286030211
20
2700.06716783426
30
5.06751992546128e-007
11
1304.39397156268
21
2700.45539640192
31
5.06751992546128e-007
  0
LINE
 8
GROUP0
10
1304.39397156268
20
2700.45539640192
30
5.06751992546128e-007
11
1304.54382219643
21
2700.81716783426
31
5.06751992546128e-007
  0
LINE
 8
GROUP0
10
1304.54382219643
20
2700.81716783426
30
5.06751992546128e-007
11
1304.78220013033
21
2701.12782800604
31
5.06751992546128e-007
  0
LINE
 8
GROUP0
10
1053.93038145924
20
2737.22780709458
30
6.7797652221202e-007
11
1058.50796111645
21
2739.2392156761
31
6.91611804626291e-007
  0
LINE
 8
GROUP0
10
1056.49655253493
20
2743.81679533332
30
6.98483589189891e-007
11
1051.91897287771
21
2741.80538675179
31
6.84848306775621e-007
  0
LINE
 8
GROUP0
10
1304.78220013033
20
2701.12782800604
30
5.06751992546128e-007
11
1305.09286030211
21
2701.36620593994
31
5.06751992546128e-007
  0
LINE
 8
GROUP0
10
1054.4851439534
20
2748.39437499053
30
7.04115445770981e-007
11
1052.47373537187
21
2752.97195464775
31
7.04115445770981e-007
  0
LINE
 8
GROUP0
10
1047.89615571465
20
2750.96054606623
30
7.04115445770981e-007
11
1049.90756429618
21
2746.38296640901
31
7.04115400651517e-007
  0
LINE
 8
GROUP0
10
1305.09286030211
20
2698.76812972859
30
5.06751992546128e-007
11
1304.78220013033
21
2699.00650766248
31
5.06751992546128e-007
  0
LINE
 8
GROUP0
10
1306.59286030211
20
2698.76812972859
30
5.06751992546128e-007
11
1306.23108886977
21
2698.61827909483
31
5.06751992546128e-007
  0
LINE
 8
GROUP0
10
1305.84286030211
20
2698.56716783426
30
5.06751992546128e-007
11
1305.45463173446
21
2698.61827909483
31
5.06751992546128e-007
  0
LINE
 8
GROUP0
10
1305.45463173446
20
2701.5160565737
30
5.06751992546128e-007
11
1305.84286030211
21
2701.56716783426
31
5.06751992546128e-007
  0
LINE
 8
GROUP0
10
1307.14189840779
20
2700.81716783426
30
5.06751992546128e-007
11
1307.29174904155
21
2700.45539640192
31
5.06751992546128e-007
  0
LINE
 8
GROUP0
10
1307.29174904155
20
2699.67893926661
30
5.06751992546128e-007
11
1307.14189840779
21
2699.31716783426
31
5.06751992546128e-007
  0
LINE
 8
GROUP0
10
1307.14189840779
20
2699.31716783426
30
5.06751992546128e-007
11
1306.90352047389
21
2699.00650766248
31
5.06751992546128e-007
  0
LINE
 8
GROUP0
10
1306.90352047389
20
2701.12782800604
30
5.06751992546128e-007
11
1307.14189840779
21
2700.81716783426
31
5.06751992546128e-007
  0
LINE
 8
GROUP0
10
1307.34286030211
20
2700.06716783426
30
5.06751992546128e-007
11
1307.29174904155
21
2699.67893926661
31
5.06751992546128e-007
  0
LINE
 8
GROUP0
10
1306.23108886977
20
2701.5160565737
30
5.06751992546128e-007
11
1306.59286030211
21
2701.36620593994
31
5.06751992546128e-007
  0
LINE
 8
GROUP0
10
1306.59286030211
20
2701.36620593994
30
5.06751992546128e-007
11
1306.90352047389
21
2701.12782800604
31
5.06751992546128e-007
  0
LINE
 8
GROUP0
10
1305.09286030211
20
2701.36620593994
30
5.06751992546128e-007
11
1305.45463173446
21
2701.5160565737
31
5.06751992546128e-007
  0
LINE
 8
GROUP0
10
1306.90352047389
20
2699.00650766248
30
5.06751992546128e-007
11
1306.59286030211
21
2698.76812972859
31
5.06751992546128e-007
  0
LINE
 8
GROUP0
10
1307.29174904155
20
2700.45539640192
30
5.06751992546128e-007
11
1307.34286030211
21
2700.06716783426
31
5.06751992546128e-007
  0
LINE
 8
GROUP0
10
1306.23108886977
20
2698.61827909483
30
5.06751992546128e-007
11
1305.84286030211
21
2698.56716783426
31
5.06751992546128e-007
  0
LINE
 8
GROUP0
10
1305.84286030211
20
2701.56716783426
30
5.06751992546128e-007
11
1306.23108886977
21
2701.5160565737
31
5.06751992546128e-007
  0
LINE
 8
GROUP0
10
1097.23108886977
20
2698.61827909483
30
5.06751992546128e-007
11
1096.84286030211
21
2698.56716783426
31
5.06751992546128e-007
  0
LINE
 8
GROUP0
10
1097.90352047389
20
2701.12782800604
30
5.06751992546128e-007
11
1098.14189840779
21
2700.81716783426
31
5.06751992546128e-007
  0
LINE
 8
GROUP0
10
1305.45463173446
20
2698.61827909483
30
5.06751992546128e-007
11
1305.09286030211
21
2698.76812972859
31
5.06751992546128e-007
  0
LINE
 8
GROUP0
10
1096.84286030211
20
2701.56716783426
30
5.06751992546128e-007
11
1097.23108886977
21
2701.5160565737
31
5.06751992546128e-007
  0
LINE
 8
GROUP0
10
1098.14189840779
20
2700.81716783426
30
5.06751992546128e-007
11
1098.29174904155
21
2700.45539640192
31
5.06751992546128e-007
  0
LINE
 8
GROUP0
10
1098.14189840779
20
2699.31716783426
30
5.06751992546128e-007
11
1097.90352047389
21
2699.00650766248
31
5.06751992546128e-007
  0
LINE
 8
GROUP0
10
1098.34286030211
20
2700.06716783426
30
5.06751992546128e-007
11
1098.29174904155
21
2699.67893926661
31
5.06751992546128e-007
  0
LINE
 8
GROUP0
10
1096.09286030211
20
2701.36620593994
30
5.06751992546128e-007
11
1096.45463173446
21
2701.5160565737
31
5.06751992546128e-007
  0
LINE
 8
GROUP0
10
1098.29174904155
20
2700.45539640192
30
5.06751992546128e-007
11
1098.34286030211
21
2700.06716783426
31
5.06751992546128e-007
  0
LINE
 8
GROUP0
10
1098.29174904155
20
2699.67893926661
30
5.06751992546128e-007
11
1098.14189840779
21
2699.31716783426
31
5.06751992546128e-007
  0
LINE
 8
GROUP0
10
1097.59286030211
20
2701.36620593994
30
5.06751992546128e-007
11
1097.90352047389
21
2701.12782800604
31
5.06751992546128e-007
  0
LINE
 8
GROUP0
10
1097.23108886977
20
2701.5160565737
30
5.06751992546128e-007
11
1097.59286030211
21
2701.36620593994
31
5.06751992546128e-007
  0
LINE
 8
GROUP0
10
1097.59286030211
20
2698.76812972859
30
5.06751992546128e-007
11
1097.23108886977
21
2698.61827909483
31
5.06751992546128e-007
  0
LINE
 8
GROUP0
10
1096.84286030211
20
2698.56716783426
30
5.06751992546128e-007
11
1096.45463173446
21
2698.61827909483
31
5.06751992546128e-007
  0
LINE
 8
GROUP0
10
1097.90352047389
20
2699.00650766248
30
5.06751992546128e-007
11
1097.59286030211
21
2698.76812972859
31
5.06751992546128e-007
  0
LINE
 8
GROUP0
10
1096.45463173446
20
2701.5160565737
30
5.06751992546128e-007
11
1096.84286030211
21
2701.56716783426
31
5.06751992546128e-007
  0
LINE
 8
GROUP0
10
1095.78220013033
20
2699.00650766248
30
5.06751992546128e-007
11
1095.54382219643
21
2699.31716783426
31
5.06751992546128e-007
  0
LINE
 8
GROUP0
10
1096.09286030211
20
2698.76812972859
30
5.06751992546128e-007
11
1095.78220013033
21
2699.00650766248
31
5.06751992546128e-007
  0
LINE
 8
GROUP0
10
1096.45463173446
20
2698.61827909483
30
5.06751992546128e-007
11
1096.09286030211
21
2698.76812972859
31
5.06751992546128e-007
  0
LINE
 8
GROUP0
10
1095.54382219643
20
2699.31716783426
30
5.06751992546128e-007
11
1095.39397156268
21
2699.67893926661
31
5.06751992546128e-007
  0
LINE
 8
GROUP0
10
1095.34286030211
20
2700.06716783426
30
5.06751992546128e-007
11
1095.39397156268
21
2700.45539640192
31
5.06751992546128e-007
  0
LINE
 8
GROUP0
10
1095.39397156268
20
2699.67893926661
30
5.06751992546128e-007
11
1095.34286030211
21
2700.06716783426
31
5.06751992546128e-007
  0
LINE
 8
GROUP0
10
1098.14189840779
20
2490.31716783426
30
3.63189123220309e-009
11
1097.90352047389
21
2490.00650766248
31
3.63189123220309e-009
  0
LINE
 8
GROUP0
10
1095.78220013033
20
2701.12782800604
30
5.06751992546128e-007
11
1096.09286030211
21
2701.36620593994
31
5.06751992546128e-007
  0
LINE
 8
GROUP0
10
1096.45463173446
20
2489.61827909483
30
3.63189123220309e-009
11
1096.09286030211
21
2489.76812972859
31
3.63189123220309e-009
  0
LINE
 8
GROUP0
10
1098.29174904155
20
2490.67893926661
30
3.63189123220309e-009
11
1098.14189840779
21
2490.31716783426
31
3.63189123220309e-009
  0
LINE
 8
GROUP0
10
1097.59286030211
20
2489.76812972859
30
3.63189123220309e-009
11
1097.23108886977
21
2489.61827909483
31
3.63189123220309e-009
  0
LINE
 8
GROUP0
10
1095.39397156268
20
2700.45539640192
30
5.06751992546128e-007
11
1095.54382219643
21
2700.81716783426
31
5.06751992546128e-007
  0
LINE
 8
GROUP0
10
1095.78220013033
20
2490.00650766248
30
3.63189123220309e-009
11
1095.54382219643
21
2490.31716783426
31
3.63189123220309e-009
  0
LINE
 8
GROUP0
10
1098.34286030211
20
2491.06716783426
30
3.63189123220309e-009
11
1098.29174904155
21
2490.67893926661
31
3.63189123220309e-009
  0
LINE
 8
GROUP0
10
1097.90352047389
20
2490.00650766248
30
3.63189123220309e-009
11
1097.59286030211
21
2489.76812972859
31
3.63189123220309e-009
  0
LINE
 8
GROUP0
10
1097.23108886977
20
2489.61827909483
30
3.63189123220309e-009
11
1096.84286030211
21
2489.56716783426
31
3.63189123220309e-009
  0
LINE
 8
GROUP0
10
1096.09286030211
20
2489.76812972859
30
3.63189123220309e-009
11
1095.78220013033
21
2490.00650766248
31
3.63189123220309e-009
  0
LINE
 8
GROUP0
10
1095.39397156268
20
2490.67893926661
30
3.63189123220309e-009
11
1095.34286030211
21
2491.06716783426
31
3.63189123220309e-009
  0
LINE
 8
GROUP0
10
1095.34286030211
20
2491.06716783426
30
3.63189123220309e-009
11
1095.39397156268
21
2491.45539640192
31
3.63189123220309e-009
  0
LINE
 8
GROUP0
10
1096.84286030211
20
2489.56716783426
30
3.63189123220309e-009
11
1096.45463173446
21
2489.61827909483
31
3.63189123220309e-009
  0
LINE
 8
GROUP0
10
1095.54382219643
20
2700.81716783426
30
5.06751992546128e-007
11
1095.78220013033
21
2701.12782800604
31
5.06751992546128e-007
  0
LINE
 8
GROUP0
10
1095.54382219643
20
2490.31716783426
30
3.63189123220309e-009
11
1095.39397156268
21
2490.67893926661
31
3.63189123220309e-009
  0
LINE
 8
GROUP0
10
1096.09286030211
20
2492.36620593994
30
3.63189123220309e-009
11
1096.45463173446
21
2492.5160565737
31
3.63189123220309e-009
  0
LINE
 8
GROUP0
10
1200.28220013033
20
2701.12782800604
30
5.09323260544647e-007
11
1200.04382219643
21
2700.81716783426
31
5.08568953350164e-007
  0
LINE
 8
GROUP0
10
1098.29174904155
20
2491.45539640192
30
3.63189123220309e-009
11
1098.34286030211
21
2491.06716783426
31
3.63189123220309e-009
  0
LINE
 8
GROUP0
10
1200.59286030211
20
2701.36620593994
30
5.09902368861503e-007
11
1200.28220013033
21
2701.12782800604
31
5.09323260544647e-007
  0
LINE
 8
GROUP0
10
1096.45463173446
20
2492.5160565737
30
3.63189123220309e-009
11
1096.84286030211
21
2492.56716783426
31
3.63189123220309e-009
  0
LINE
 8
GROUP0
10
1097.90352047389
20
2492.12782800604
30
3.63189123220309e-009
11
1098.14189840779
21
2491.81716783426
31
3.63189123220309e-009
  0
LINE
 8
GROUP0
10
1200.95463173446
20
2701.5160565737
30
5.10266753650512e-007
11
1200.59286030211
21
2701.36620593994
31
5.09902368861503e-007
  0
LINE
 8
GROUP0
10
1095.78220013033
20
2492.12782800604
30
3.63189123220309e-009
11
1096.09286030211
21
2492.36620593994
31
3.63189123220309e-009
  0
LINE
 8
GROUP0
10
1097.23108886977
20
2492.5160565737
30
3.63189123220309e-009
11
1097.59286030211
21
2492.36620593994
31
3.63189123220309e-009
  0
LINE
 8
GROUP0
10
1097.59286030211
20
2492.36620593994
30
3.63189123220309e-009
11
1097.90352047389
21
2492.12782800604
31
3.63189123220309e-009
  0
LINE
 8
GROUP0
10
1199.89397156268
20
2700.45539640192
30
5.0769083834723e-007
11
1199.84286030211
21
2700.06716783426
31
5.06748698825277e-007
  0
LINE
 8
GROUP0
10
1200.04382219643
20
2700.81716783426
30
5.08568953350164e-007
11
1199.89397156268
21
2700.45539640192
31
5.0769083834723e-007
  0
LINE
 8
GROUP0
10
1098.14189840779
20
2491.81716783426
30
3.63189123220309e-009
11
1098.29174904155
21
2491.45539640192
31
3.63189123220309e-009
  0
LINE
 8
GROUP0
10
1095.39397156268
20
2491.45539640192
30
3.63189123220309e-009
11
1095.54382219643
21
2491.81716783426
31
3.63189123220309e-009
  0
LINE
 8
GROUP0
10
1095.54382219643
20
2491.81716783426
30
3.63189123220309e-009
11
1095.78220013033
21
2492.12782800604
31
3.63189123220309e-009
  0
LINE
 8
GROUP0
10
1096.84286030211
20
2492.56716783426
30
3.63189123220309e-009
11
1097.23108886977
21
2492.5160565737
31
3.63189123220309e-009
  0
LINE
 8
GROUP0
10
1201.73108886977
20
2698.61827909483
30
5.03237231441744e-007
11
1202.09286030211
21
2698.76812972859
31
5.03601616230753e-007
  0
LINE
 8
GROUP0
10
1202.79174904155
20
2700.45539640192
30
5.07697200191615e-007
11
1202.64189840779
21
2700.81716783426
31
5.08574683522056e-007
  0
LINE
 8
GROUP0
10
1201.34286030211
20
2698.56716783426
30
5.03112340766165e-007
11
1201.73108886977
21
2698.61827909483
31
5.03237231441744e-007
  0
LINE
 8
GROUP0
10
1200.95463173446
20
2698.61827909483
30
5.03235516902123e-007
11
1201.34286030211
21
2698.56716783426
31
5.03112340766165e-007
  0
LINE
 8
GROUP0
10
1202.40352047389
20
2701.12782800604
30
5.09327952968874e-007
11
1202.09286030211
21
2701.36620593994
31
5.09905662582355e-007
  0
LINE
 8
GROUP0
10
1202.09286030211
20
2701.36620593994
30
5.09905662582355e-007
11
1201.73108886977
21
2701.5160565737
31
5.10268468190134e-007
  0
LINE
 8
GROUP0
10
1202.40352047389
20
2699.00650766248
30
5.04180724547609e-007
11
1202.64189840779
21
2699.31716783426
31
5.04935031742093e-007
  0
LINE
 8
GROUP0
10
1200.59286030211
20
2698.76812972859
30
5.03598322509902e-007
11
1200.95463173446
21
2698.61827909483
31
5.03235516902123e-007
  0
LINE
 8
GROUP0
10
1200.28220013033
20
2699.00650766248
30
5.04176032123382e-007
11
1200.59286030211
21
2698.76812972859
31
5.03598322509902e-007
  0
LINE
 8
GROUP0
10
1202.64189840779
20
2700.81716783426
30
5.08574683522056e-007
11
1202.40352047389
21
2701.12782800604
31
5.09327952968874e-007
  0
LINE
 8
GROUP0
10
1202.79174904155
20
2699.67893926661
30
5.05813146745027e-007
11
1202.84286030211
21
2700.06716783426
31
5.0675528626698e-007
  0
LINE
 8
GROUP0
10
1201.73108886977
20
2701.5160565737
30
5.10268468190134e-007
11
1201.34286030211
21
2701.56716783426
31
5.10391644326091e-007
  0
LINE
 8
GROUP0
10
1201.34286030211
20
2701.56716783426
30
5.10391644326091e-007
11
1200.95463173446
21
2701.5160565737
31
5.10266753650512e-007
  0
LINE
 8
GROUP0
10
1202.84286030211
20
2700.06716783426
30
5.0675528626698e-007
11
1202.79174904155
21
2700.45539640192
31
5.07697200191615e-007
  0
LINE
 8
GROUP0
10
1202.64189840779
20
2699.31716783426
30
5.04935031742093e-007
11
1202.79174904155
21
2699.67893926661
31
5.05813146745027e-007
  0
LINE
 8
GROUP0
10
1202.09286030211
20
2698.76812972859
30
5.03601616230753e-007
11
1202.40352047389
21
2699.00650766248
31
5.04180724547609e-007
  0
LINE
 8
GROUP0
10
1305.84286030211
20
2489.56716783426
30
0.0
11
1306.23108886977
21
2489.61827909483
31
1.24619958796757e-010
  0
LINE
 8
GROUP0
10
1304.54382219643
20
2490.31716783426
30
1.81308053015528e-009
11
1304.78220013033
21
2490.00650766248
31
1.06139026456731e-009
  0
LINE
 8
GROUP0
10
1304.39397156268
20
2491.45539640192
30
4.56866153797364e-009
11
1304.34286030211
21
2491.06716783426
31
3.62855239188775e-009
  0
LINE
 8
GROUP0
10
1304.54382219643
20
2491.81716783426
30
5.44492664289464e-009
11
1304.39397156268
21
2491.45539640192
31
4.56866153797364e-009
  0
LINE
 8
GROUP0
10
1304.78220013033
20
2492.12782800604
30
6.19765465614819e-009
11
1304.54382219643
21
2491.81716783426
31
5.44492664289464e-009
  0
LINE
 8
GROUP0
10
1200.04382219643
20
2699.31716783426
30
5.04929301570201e-007
11
1200.28220013033
21
2699.00650766248
31
5.04176032123382e-007
  0
LINE
 8
GROUP0
10
1306.59286030211
20
2489.76812972859
30
4.88282836386134e-010
11
1306.90352047389
21
2490.00650766248
31
1.06612780825799e-009
  0
LINE
 8
GROUP0
10
1306.23108886977
20
2489.61827909483
30
1.24619958796757e-010
11
1306.59286030211
21
2489.76812972859
31
4.88282836386134e-010
  0
LINE
 8
GROUP0
10
1305.09286030211
20
2489.76812972859
30
4.84943996070797e-010
11
1305.45463173446
21
2489.61827909483
31
1.22905419175368e-010
  0
LINE
 8
GROUP0
10
1306.90352047389
20
2490.00650766248
30
1.06612780825799e-009
11
1307.14189840779
21
2490.31716783426
31
1.81885582151153e-009
  0
LINE
 8
GROUP0
10
1304.78220013033
20
2490.00650766248
30
1.06139026456731e-009
11
1305.09286030211
21
2489.76812972859
31
4.84943996070797e-010
  0
LINE
 8
GROUP0
10
1304.39397156268
20
2490.67893926661
30
2.68866884312047e-009
11
1304.54382219643
21
2490.31716783426
31
1.81308053015528e-009
  0
LINE
 8
GROUP0
10
1304.34286030211
20
2491.06716783426
30
3.62855239188775e-009
11
1304.39397156268
21
2490.67893926661
31
2.68866884312047e-009
  0
LINE
 8
GROUP0
10
1199.84286030211
20
2700.06716783426
30
5.06748698825277e-007
11
1199.89397156268
21
2699.67893926661
31
5.05806784900642e-007
  0
LINE
 8
GROUP0
10
1199.89397156268
20
2699.67893926661
30
5.05806784900642e-007
11
1200.04382219643
21
2699.31716783426
31
5.04929301570201e-007
  0
LINE
 8
GROUP0
10
1305.45463173446
20
2489.61827909483
30
1.22905419175368e-010
11
1305.84286030211
21
2489.56716783426
31
0.0
  0
LINE
 8
GROUP0
10
1200.04382219643
20
2491.81716783426
30
3.63022181204542e-009
11
1200.28220013033
21
2492.12782800604
31
3.63022181204542e-009
  0
LINE
 8
GROUP0
10
1200.28220013033
20
2492.12782800604
30
3.63022181204542e-009
11
1200.59286030211
21
2492.36620593994
31
3.63022181204542e-009
  0
LINE
 8
GROUP0
10
1307.34286030211
20
2491.06716783426
30
3.63523007251842e-009
11
1307.29174904155
21
2491.45539640192
31
4.57511362128571e-009
  0
LINE
 8
GROUP0
10
1306.59286030211
20
2492.36620593994
30
6.77883846833538e-009
11
1306.23108886977
21
2492.5160565737
31
7.14087704523081e-009
  0
LINE
 8
GROUP0
10
1306.23108886977
20
2492.5160565737
30
7.14087704523081e-009
11
1305.84286030211
21
2492.56716783426
31
7.26378246440618e-009
  0
LINE
 8
GROUP0
10
1307.29174904155
20
2490.67893926661
30
2.69512092643254e-009
11
1307.34286030211
21
2491.06716783426
31
3.63523007251842e-009
  0
LINE
 8
GROUP0
10
1305.09286030211
20
2492.36620593994
30
6.77549962802004e-009
11
1304.78220013033
21
2492.12782800604
31
6.19765465614819e-009
  0
LINE
 8
GROUP0
10
1305.84286030211
20
2492.56716783426
30
7.26378246440618e-009
11
1305.45463173446
21
2492.5160565737
31
7.13916250560942e-009
  0
LINE
 8
GROUP0
10
1307.14189840779
20
2491.81716783426
30
5.4507019342509e-009
11
1306.90352047389
21
2492.12782800604
31
6.20239219983887e-009
  0
LINE
 8
GROUP0
10
1199.89397156268
20
2491.45539640192
30
3.63022181204542e-009
11
1200.04382219643
21
2491.81716783426
31
3.63022181204542e-009
  0
LINE
 8
GROUP0
10
1307.14189840779
20
2490.31716783426
30
1.81885582151153e-009
11
1307.29174904155
21
2490.67893926661
31
2.69512092643254e-009
  0
LINE
 8
GROUP0
10
1306.90352047389
20
2492.12782800604
30
6.20239219983887e-009
11
1306.59286030211
21
2492.36620593994
31
6.77883846833538e-009
  0
LINE
 8
GROUP0
10
1200.59286030211
20
2492.36620593994
30
3.63022181204542e-009
11
1200.95463173446
21
2492.5160565737
31
3.63022181204542e-009
  0
LINE
 8
GROUP0
10
1200.95463173446
20
2492.5160565737
30
3.63022181204542e-009
11
1201.34286030211
21
2492.56716783426
31
3.63022181204542e-009
  0
LINE
 8
GROUP0
10
1305.45463173446
20
2492.5160565737
30
7.13916250560942e-009
11
1305.09286030211
21
2492.36620593994
31
6.77549962802004e-009
  0
LINE
 8
GROUP0
10
1307.29174904155
20
2491.45539640192
30
4.57511362128571e-009
11
1307.14189840779
21
2491.81716783426
31
5.4507019342509e-009
  0
LINE
 8
GROUP0
10
1202.40352047389
20
2490.00650766248
30
3.63022181204542e-009
11
1202.09286030211
21
2489.76812972859
31
3.63022181204542e-009
  0
LINE
 8
GROUP0
10
1201.73108886977
20
2492.5160565737
30
3.63022181204542e-009
11
1202.09286030211
21
2492.36620593994
31
3.63022181204542e-009
  0
LINE
 8
GROUP0
10
1202.64189840779
20
2491.81716783426
30
3.63022181204542e-009
11
1202.79174904155
21
2491.45539640192
31
3.63022181204542e-009
  0
LINE
 8
GROUP0
10
1201.73108886977
20
2489.61827909483
30
3.63022181204542e-009
11
1201.34286030211
21
2489.56716783426
31
3.63022181204542e-009
  0
LINE
 8
GROUP0
10
1201.34286030211
20
2489.56716783426
30
3.63022181204542e-009
11
1200.95463173446
21
2489.61827909483
31
3.63022181204542e-009
  0
LINE
 8
GROUP0
10
1200.95463173446
20
2489.61827909483
30
3.63022181204542e-009
11
1200.59286030211
21
2489.76812972859
31
3.63022181204542e-009
  0
LINE
 8
GROUP0
10
1202.09286030211
20
2489.76812972859
30
3.63022181204542e-009
11
1201.73108886977
21
2489.61827909483
31
3.63022181204542e-009
  0
LINE
 8
GROUP0
10
1200.28220013033
20
2490.00650766248
30
3.63022181204542e-009
11
1200.04382219643
21
2490.31716783426
31
3.63022181204542e-009
  0
LINE
 8
GROUP0
10
1201.34286030211
20
2492.56716783426
30
3.63022181204542e-009
11
1201.73108886977
21
2492.5160565737
31
3.63022181204542e-009
  0
LINE
 8
GROUP0
10
1202.79174904155
20
2491.45539640192
30
3.63022181204542e-009
11
1202.84286030211
21
2491.06716783426
31
3.63022181204542e-009
  0
LINE
 8
GROUP0
10
1202.09286030211
20
2492.36620593994
30
3.63022181204542e-009
11
1202.40352047389
21
2492.12782800604
31
3.63022181204542e-009
  0
LINE
 8
GROUP0
10
1202.40352047389
20
2492.12782800604
30
3.63022181204542e-009
11
1202.64189840779
21
2491.81716783426
31
3.63022181204542e-009
  0
LINE
 8
GROUP0
10
1202.64189840779
20
2490.31716783426
30
3.63022181204542e-009
11
1202.40352047389
21
2490.00650766248
31
3.63022181204542e-009
  0
LINE
 8
GROUP0
10
1200.59286030211
20
2489.76812972859
30
3.63022181204542e-009
11
1200.28220013033
21
2490.00650766248
31
3.63022181204542e-009
  0
LINE
 8
GROUP0
10
1202.84286030211
20
2491.06716783426
30
3.63022181204542e-009
11
1202.79174904155
21
2490.67893926661
31
3.63022181204542e-009
  0
LINE
 8
GROUP0
10
1202.79174904155
20
2490.67893926661
30
3.63022181204542e-009
11
1202.64189840779
21
2490.31716783426
31
3.63022181204542e-009
  0
LINE
 8
GROUP0
10
1199.84286030211
20
2491.06716783426
30
3.63022181204542e-009
11
1199.89397156268
21
2491.45539640192
31
3.63022181204542e-009
  0
LINE
 8
GROUP0
10
1199.89397156268
20
2490.67893926661
30
3.63022181204542e-009
11
1199.84286030211
21
2491.06716783426
31
3.63022181204542e-009
  0
LINE
 8
GROUP0
10
1200.04382219643
20
2490.31716783426
30
3.63022181204542e-009
11
1199.89397156268
21
2490.67893926661
31
3.63022181204542e-009
 0
ENDSEC
 0
EOF
