 0
SECTION
 2
ENTITIES
  0
LINE
 8
GROUP0
10
122.955508122188
20
1575.08428137324
30
4.69512869388955e-005
11
123.273345436065
21
1574.67006786358
31
4.72016359471916e-005
  0
LINE
 8
GROUP0
10
400.182903453453
20
1504.49564012766
30
9.23329728858557e-005
11
399.7946748858
21
1504.54675138823
31
9.21583097609702e-005
  0
LINE
 8
GROUP0
10
123.541294794319
20
1573.670067908
30
4.75983188754525e-005
11
123.473146532732
21
1573.1524298065
31
4.77176194757789e-005
  0
LINE
 8
GROUP0
10
123.473146532732
20
1573.1524298065
30
4.77176194757789e-005
11
123.273345767708
21
1572.67006786358
31
4.77720969446926e-005
  0
LINE
 8
GROUP0
10
399.7946748858
20
1504.54675138823
30
9.21583097609702e-005
11
399.432903453453
21
1504.69660202199
31
9.19691835109149e-005
  0
LINE
 8
GROUP0
10
123.273345436065
20
1574.67006786358
30
4.72016359471916e-005
11
123.473146361061
21
1574.18770598691
31
4.74223270232499e-005
  0
LINE
 8
GROUP0
10
122.541295081532
20
1571.93801693462
30
4.76764016570541e-005
11
122.058933204866
21
1571.73821600962
31
4.75327576904272e-005
  0
LINE
 8
GROUP0
10
122.058933204866
20
1571.73821600962
30
4.75327576904272e-005
11
121.541295125962
21
1571.67006757636
31
4.73368829031484e-005
  0
LINE
 8
GROUP0
10
122.9555085912
20
1572.2558542485
30
4.77580380447984e-005
11
122.541295081532
21
1571.93801693462
31
4.76764016570541e-005
  0
LINE
 8
GROUP0
10
121.541295125962
20
1571.67006757636
30
4.73368829031484e-005
11
121.023657024454
21
1571.73821583795
31
4.71021370774816e-005
  0
LINE
 8
GROUP0
10
123.273345767708
20
1572.67006786358
30
4.77720969446926e-005
11
122.9555085912
21
1572.2558542485
31
4.77580380447984e-005
  0
LINE
 8
GROUP0
10
401.243563625233
20
1504.93497995588
30
9.26608212345581e-005
11
400.932903453454
21
1504.69660202199
31
9.25930921164053e-005
  0
LINE
 8
GROUP0
10
123.473146361061
20
1574.18770598691
30
4.74223270232499e-005
11
123.541294794319
21
1573.670067908
31
4.75983188754525e-005
  0
LINE
 8
GROUP0
10
400.932903453454
20
1504.69660202199
30
9.25930921164053e-005
11
400.571132021108
21
1504.54675138823
31
9.24812687460363e-005
  0
LINE
 8
GROUP0
10
400.571132021108
20
1504.54675138823
30
9.24812687460363e-005
11
400.182903453453
21
1504.49564012766
31
9.23329728858557e-005
  0
LINE
 8
GROUP0
10
399.432903453453
20
1504.69660202199
30
9.19691835109149e-005
11
399.122243281673
21
1504.93497995588
31
9.17784810645639e-005
  0
LINE
 8
GROUP0
10
401.243563625231
20
1507.05630029944
30
9.21136525391053e-005
11
401.48194155913
21
1506.74564012766
31
9.22929347014101e-005
  0
LINE
 8
GROUP0
10
399.122243281673
20
1504.93497995588
30
9.17784810645639e-005
11
398.883865347776
21
1505.24564012766
31
9.15991994443976e-005
  0
LINE
 8
GROUP0
10
401.48194155913
20
1506.74564012766
30
9.22929347014101e-005
11
401.631792192887
21
1506.38386869532
31
9.24485773279138e-005
  0
LINE
 8
GROUP0
10
401.631792192887
20
1506.38386869532
30
9.24485773279138e-005
11
401.682903453453
21
1505.99564012766
31
9.25699756329224e-005
  0
LINE
 8
GROUP0
10
401.682903453453
20
1505.99564012766
30
9.25699756329224e-005
11
401.631792192885
21
1505.60741156001
31
9.26488546186655e-005
  0
LINE
 8
GROUP0
10
400.182903453454
20
1507.49564012766
30
9.1559160086141e-005
11
400.571132021107
21
1507.4445288671
31
9.17338231207876e-005
  0
LINE
 8
GROUP0
10
398.883865347776
20
1505.24564012766
30
9.15991994443976e-005
11
398.734014714018
21
1505.60741156001
31
9.14435551928883e-005
  0
LINE
 8
GROUP0
10
398.682903453454
20
1505.99564012766
30
9.13221582414636e-005
11
398.734014714022
21
1506.38386869532
31
9.12432783533312e-005
  0
LINE
 8
GROUP0
10
399.432903453453
20
1507.29467823334
30
9.12990421189364e-005
11
399.794674885799
21
1507.4445288671
31
9.14108641357214e-005
  0
LINE
 8
GROUP0
10
400.571132021107
20
1507.4445288671
30
9.17338231207876e-005
11
400.932903453452
21
1507.29467823334
31
9.19229507244268e-005
  0
LINE
 8
GROUP0
10
398.734014714022
20
1506.38386869532
30
9.12432783533312e-005
11
398.883865347777
21
1506.74564012766
31
9.12122931347792e-005
  0
LINE
 8
GROUP0
10
399.122243281674
20
1507.05630029944
30
9.12313123691111e-005
11
399.432903453453
21
1507.29467823334
31
9.12990421189364e-005
  0
LINE
 8
GROUP0
10
399.794674885799
20
1507.4445288671
30
9.14108641357214e-005
11
400.182903453454
21
1507.49564012766
31
9.1559160086141e-005
  0
LINE
 8
GROUP0
10
398.883865347777
20
1506.74564012766
30
9.12122931347792e-005
11
399.122243281674
21
1507.05630029944
31
9.12313123691111e-005
  0
LINE
 8
GROUP0
10
400.932903453452
20
1507.29467823334
30
9.19229507244268e-005
11
401.243563625231
21
1507.05630029944
31
9.21136525391053e-005
  0
LINE
 8
GROUP0
10
398.734014714018
20
1505.60741156001
30
9.14435551928883e-005
11
398.682903453454
21
1505.99564012766
31
9.13221582414636e-005
  0
LINE
 8
GROUP0
10
309.822233445175
20
1452.53499507097
30
9.68343991953113e-005
11
309.583855511277
21
1452.84565524275
31
9.66551175744401e-005
  0
LINE
 8
GROUP0
10
309.583855511277
20
1452.84565524275
30
9.66551175744401e-005
11
309.434004877523
21
1453.2074266751
31
9.64994751284143e-005
  0
LINE
 8
GROUP0
10
401.481941559129
20
1505.24564012766
30
9.26798410110285e-005
11
401.243563625233
21
1504.93497995588
31
9.26608212345581e-005
  0
LINE
 8
GROUP0
10
309.434004877523
20
1453.2074266751
30
9.64994751284143e-005
11
309.382893616955
21
1453.59565524275
31
9.63780771843614e-005
  0
LINE
 8
GROUP0
10
309.583855511277
20
1454.34565524275
30
9.62682112648217e-005
11
309.822233445176
21
1454.65631541453
31
9.62872310412921e-005
  0
LINE
 8
GROUP0
10
401.631792192885
20
1505.60741156001
30
9.26488546186655e-005
11
401.481941559129
21
1505.24564012766
31
9.26798410110285e-005
  0
LINE
 8
GROUP0
10
309.382893616955
20
1453.59565524275
30
9.63780771843614e-005
11
309.434004877522
21
1453.98388381041
31
9.62991976571847e-005
  0
LINE
 8
GROUP0
10
310.132893616955
20
1454.89469334843
30
9.63549601594449e-005
11
310.4946650493
21
1455.04454398219
31
9.64667835291089e-005
  0
LINE
 8
GROUP0
10
309.822233445176
20
1454.65631541453
30
9.62872310412921e-005
11
310.132893616955
21
1454.89469334843
31
9.63549601594449e-005
  0
LINE
 8
GROUP0
10
310.4946650493
20
1455.04454398219
30
9.64667835291089e-005
11
310.882893616954
21
1455.09565524276
31
9.66150795704723e-005
  0
LINE
 8
GROUP0
10
310.132893616956
20
1452.29661713708
30
9.70251017311963e-005
11
309.822233445175
21
1452.53499507097
31
9.68343991953113e-005
  0
LINE
 8
GROUP0
10
310.494665049301
20
1452.14676650332
30
9.7214228613629e-005
11
310.132893616956
21
1452.29661713708
31
9.70251017311963e-005
  0
LINE
 8
GROUP0
10
310.882893616954
20
1455.09565524276
30
9.66150795704723e-005
11
311.271122184608
21
1455.04454398219
31
9.6789742514175e-005
  0
LINE
 8
GROUP0
10
311.271122184608
20
1455.04454398219
30
9.6789742514175e-005
11
311.632893616956
21
1454.89469334843
31
9.69788687649353e-005
  0
LINE
 8
GROUP0
10
311.632893616956
20
1454.89469334843
30
9.69788687649353e-005
11
311.943553788736
21
1454.65631541453
31
9.71695712112863e-005
  0
LINE
 8
GROUP0
10
309.434004877522
20
1453.98388381041
30
9.62991976571847e-005
11
309.583855511277
21
1454.34565524275
31
9.62682112648217e-005
  0
LINE
 8
GROUP0
10
311.943553788736
20
1454.65631541453
30
9.71695712112863e-005
11
312.181931722631
21
1454.34565524275
31
9.73488528314526e-005
  0
LINE
 8
GROUP0
10
312.331782356389
20
1453.98388381041
30
9.75044960000948e-005
11
312.382893616953
21
1453.59565524275
31
9.76258945758202e-005
  0
LINE
 8
GROUP0
10
310.494665049328
20
1504.49676693642
30
9.7214235514087e-005
11
310.132893617014
21
1504.64661757016
31
9.70251080006868e-005
  0
LINE
 8
GROUP0
10
312.382893616953
20
1453.59565524275
30
9.76258945758202e-005
11
312.331782356391
21
1453.2074266751
31
9.77047734713243e-005
  0
LINE
 8
GROUP0
10
310.132893617014
20
1504.64661757016
30
9.70251080006868e-005
11
309.822233445263
21
1504.88499550404
31
9.68344055543357e-005
  0
LINE
 8
GROUP0
10
309.382893617085
20
1505.94565567573
30
9.63780834531469e-005
11
309.434004877649
21
1506.33388424335
31
9.62992039259702e-005
  0
LINE
 8
GROUP0
10
312.181931722631
20
1454.34565524275
30
9.73488528314526e-005
11
312.331782356389
21
1453.98388381041
31
9.75044960000948e-005
  0
LINE
 8
GROUP0
10
312.331782356391
20
1453.2074266751
30
9.77047734713243e-005
11
312.181931722631
21
1452.84565524275
31
9.7735759141071e-005
  0
LINE
 8
GROUP0
10
312.181931722631
20
1452.84565524275
30
9.7735759141071e-005
11
311.943553788734
21
1452.53499507097
31
9.77167393653056e-005
  0
LINE
 8
GROUP0
10
311.632893616955
20
1452.29661713708
30
9.76490103366867e-005
11
311.271122184609
21
1452.14676650332
31
9.75371875986952e-005
  0
LINE
 8
GROUP0
10
310.882893616955
20
1452.09565524275
30
9.73888921897092e-005
11
310.494665049301
21
1452.14676650332
31
9.7214228613629e-005
  0
LINE
 8
GROUP0
10
309.822233445263
20
1504.88499550404
30
9.68344055543357e-005
11
309.583855511388
21
1505.19565567579
31
9.66551238432256e-005
  0
LINE
 8
GROUP0
10
309.434004877644
20
1505.55742710811
30
9.64994809460051e-005
11
309.382893617085
21
1505.94565567573
31
9.63780834531469e-005
  0
LINE
 8
GROUP0
10
311.943553788734
20
1452.53499507097
30
9.77167393653056e-005
11
311.632893616955
21
1452.29661713708
31
9.76490103366867e-005
  0
LINE
 8
GROUP0
10
309.583855511388
20
1505.19565567579
30
9.66551238432256e-005
11
309.434004877644
21
1505.55742710811
31
9.64994809460051e-005
  0
LINE
 8
GROUP0
10
311.271122184609
20
1452.14676650332
30
9.75371875986952e-005
11
310.882893616955
21
1452.09565524275
31
9.73888921897092e-005
  0
LINE
 8
GROUP0
10
310.882893616958
20
1507.44565567559
30
9.66150850271075e-005
11
311.271122184579
21
1507.39454441503
31
9.67897486934266e-005
  0
LINE
 8
GROUP0
10
310.132893617023
20
1507.24469378129
30
9.63549663379914e-005
11
310.494665049338
21
1507.39454441503
31
9.64667897083604e-005
  0
LINE
 8
GROUP0
10
309.583855511394
20
1506.69565567566
30
9.62682174433682e-005
11
309.822233445271
21
1507.00631584741
31
9.62872372198387e-005
  0
LINE
 8
GROUP0
10
311.632893616891
20
1507.24469378128
30
9.69788750337208e-005
11
311.943553788643
21
1507.00631584741
31
9.71695773898329e-005
  0
LINE
 8
GROUP0
10
312.382893616821
20
1505.94565567572
30
9.76259008446056e-005
11
312.331782356256
21
1505.5574271081
31
9.77047797401098e-005
  0
LINE
 8
GROUP0
10
312.331782356256
20
1505.5574271081
30
9.77047797401098e-005
11
312.181931722512
21
1505.19565567578
31
9.77357655000954e-005
  0
LINE
 8
GROUP0
10
312.181931722512
20
1505.19565567578
30
9.77357655000954e-005
11
311.943553788636
21
1504.88499550403
31
9.771674572433e-005
  0
LINE
 8
GROUP0
10
310.494665049338
20
1507.39454441503
30
9.64667897083604e-005
11
310.882893616958
21
1507.44565567559
31
9.66150850271075e-005
  0
LINE
 8
GROUP0
10
309.434004877649
20
1506.33388424335
30
9.62992039259702e-005
11
309.583855511394
21
1506.69565567566
31
9.62682174433682e-005
  0
LINE
 8
GROUP0
10
311.943553788643
20
1507.00631584741
30
9.71695773898329e-005
11
312.18193172252
21
1506.69565567565
31
9.7348859100238e-005
  0
LINE
 8
GROUP0
10
312.331782356262
20
1506.33388424334
30
9.75045022688803e-005
11
312.382893616821
21
1505.94565567572
31
9.76259008446056e-005
  0
LINE
 8
GROUP0
10
311.943553788636
20
1504.88499550403
30
9.771674572433e-005
11
311.632893616882
21
1504.64661757016
31
9.76490166964161e-005
  0
LINE
 8
GROUP0
10
309.822233445271
20
1507.00631584741
30
9.62872372198387e-005
11
310.132893617023
21
1507.24469378129
31
9.63549663379914e-005
  0
LINE
 8
GROUP0
10
311.632893616882
20
1504.64661757016
30
9.76490166964161e-005
11
311.271122184568
21
1504.49676693642
31
9.75371944991532e-005
  0
LINE
 8
GROUP0
10
312.18193172252
20
1506.69565567565
30
9.7348859100238e-005
11
312.331782356262
21
1506.33388424334
31
9.75045022688803e-005
  0
LINE
 8
GROUP0
10
311.271122184579
20
1507.39454441503
30
9.67897486934266e-005
11
311.632893616891
21
1507.24469378128
31
9.69788750337208e-005
  0
LINE
 8
GROUP0
10
310.882893616947
20
1504.44565567585
30
9.73888985487337e-005
11
310.494665049328
21
1504.49676693642
31
9.7214235514087e-005
  0
LINE
 8
GROUP0
10
311.271122184568
20
1504.49676693642
30
9.75371944991532e-005
11
310.882893616947
21
1504.44565567585
31
9.73888985487337e-005
  0
LINE
 8
GROUP0
10
363.52640438029
20
1577.15550315545
30
0.000338710301358919
11
361.041087667735
21
1579.06248057195
31
0.000337049322316196
  0
LINE
 8
GROUP0
10
337.840993657444
20
1584.16974473813
30
0.000333120192442171
11
337.898927829094
21
1583.7297534248
31
0.000333274542209216
  0
LINE
 8
GROUP0
10
361.041087667735
20
1579.06248057195
30
0.000337049322316196
11
358.146893994596
21
1580.26123201038
31
0.00033541384346969
  0
LINE
 8
GROUP0
10
371.390964622209
20
1585.64260992151
30
0.000347585987419396
11
370.980953881598
21
1585.81243311379
31
0.000347354295107721
  0
LINE
 8
GROUP0
10
341.19106661087
20
1580.19756470276
30
0.000332324010881546
11
341.601077381231
21
1580.02774158232
31
0.000332555704276088
  0
LINE
 8
GROUP0
10
342.481062134428
20
1580.02775788917
30
0.000332946416633134
11
342.89106661058
21
1580.19759620518
31
0.000333078810870813
  0
LINE
 8
GROUP0
10
358.146893994596
20
1580.26123201038
30
0.00033541384346969
11
355.041057876823
21
1580.67006454123
31
0.000333915316384237
  0
LINE
 8
GROUP0
10
337.898927829094
20
1583.7297534248
30
0.000333274542209216
11
338.068766073284
21
1583.3197489189
31
0.000333469811361459
  0
LINE
 8
GROUP0
10
371.743095239153
20
1582.9682916702
30
0.000348524144284357
11
369.243143147141
21
1580.46824620913
31
0.000344700156266325
  0
LINE
 8
GROUP0
10
349.041087669794
20
1579.06225820188
30
0.000331721321319711
11
346.555841634728
21
1577.15518867669
31
0.000331175370589637
  0
LINE
 8
GROUP0
10
343.041280248952
20
1568.66984217322
30
0.000332095485208933
11
343.450227887021
21
1565.5640212096
31
0.000333185013144888
  0
LINE
 8
GROUP0
10
344.649086588297
20
1562.66987196619
30
0.000334563385438197
11
346.556156113493
21
1560.18462593112
31
0.000336136671142861
  0
LINE
 8
GROUP0
10
349.041472826049
20
1558.27764851463
30
0.000337797648561283
11
351.935666499184
21
1557.0788970762
31
0.000339433130295436
  0
LINE
 8
GROUP0
10
346.556156113493
20
1560.18462593112
30
0.000336136671142861
11
349.041472826049
21
1558.27764851463
31
0.000337797648561283
  0
LINE
 8
GROUP0
10
366.838935540363
20
1582.87236471359
30
0.000342929857499141
11
366.568780406357
21
1582.52027817931
31
0.000342912835248749
  0
LINE
 8
GROUP0
10
370.100969128398
20
1585.81241696109
30
0.000346963582479959
11
369.690964622496
21
1585.6425787169
31
0.000346831188061802
  0
LINE
 8
GROUP0
10
368.481062149357
20
1580.02823971038
30
0.000344490419754734
11
368.891066625507
21
1580.19807802639
31
0.000344622812729067
  0
LINE
 8
GROUP0
10
341.601077381231
20
1580.02774158232
30
0.000332555704276088
11
342.041070831249
21
1579.96982364044
31
0.000332767995137995
  0
LINE
 8
GROUP0
10
368.891066625507
20
1580.19807802639
30
0.000344622812729067
11
369.243143147141
21
1580.46824620913
31
0.000344700156266325
  0
LINE
 8
GROUP0
10
372.240991646057
20
1584.17038233764
30
0.000348393795340873
11
372.183057474408
21
1584.61037365097
31
0.000348239444762383
  0
LINE
 8
GROUP0
10
367.191066625798
20
1580.19804652396
30
0.00034386801364219
11
367.601077396161
21
1580.02822340352
31
0.000344099705773387
  0
LINE
 8
GROUP0
10
366.568811908785
20
1580.8202781796
30
0.000343409825632629
11
366.83898009152
21
1580.46820165797
31
0.000343632707089453
  0
LINE
 8
GROUP0
10
366.838935540363
20
1582.87236471359
30
0.000342929857499141
11
369.338888053532
21
1585.37241059584
31
0.000346753844705022
  0
LINE
 8
GROUP0
10
340.743053119979
20
1585.37187953555
30
0.000334057291232442
11
343.243098581056
21
1582.87192744354
31
0.000332453303554414
  0
LINE
 8
GROUP0
10
366.398957285913
20
1582.11026740895
30
0.000342957294849477
11
366.341039344044
21
1581.67027395893
31
0.000343060205901191
  0
LINE
 8
GROUP0
10
371.743095239153
20
1582.9682916702
30
0.000348524144284357
11
372.013250434838
21
1583.32037815716
31
0.00034854116482021
  0
LINE
 8
GROUP0
10
343.683105079806
20
1582.10984644576
30
0.00033287145461538
11
343.513266763791
21
1582.51985092191
31
0.000332676184470509
  0
LINE
 8
GROUP0
10
342.041070831249
20
1579.96982364044
30
0.000332767995137995
11
342.481062134428
21
1580.02775788917
31
0.000332946416633134
  0
LINE
 8
GROUP0
10
366.83898009152
20
1580.46820165797
30
0.000343632707089453
11
367.191066625798
21
1580.19804652396
31
0.00034386801364219
  0
LINE
 8
GROUP0
10
372.013250434838
20
1583.32037815716
30
0.00034854116482021
11
372.183073627108
21
1583.73038889777
31
0.000348496705941392
  0
LINE
 8
GROUP0
10
372.183057474408
20
1584.61037365097
30
0.000348239444762383
11
372.013219230219
21
1585.02037815687
31
0.000348044175068002
  0
LINE
 8
GROUP0
10
372.013219230219
20
1585.02037815687
30
0.000348044175068002
11
371.743051109162
21
1585.37245472583
31
0.000347821292528311
  0
LINE
 8
GROUP0
10
343.513298266218
20
1580.8198509222
30
0.000333173175395823
11
343.683121386659
21
1581.22986169256
31
0.00033312871579439
  0
LINE
 8
GROUP0
10
367.601077396161
20
1580.02822340352
30
0.000344099705773387
11
368.041070846179
21
1579.97030546165
31
0.000344311997357205
  0
LINE
 8
GROUP0
10
370.540960441726
20
1585.87035113274
30
0.000347142003614143
11
370.100969128398
21
1585.81241696109
31
0.000346963582479959
  0
LINE
 8
GROUP0
10
343.683121386659
20
1581.22986169256
30
0.00033312871579439
11
343.741039328532
21
1581.66985514258
31
0.000333025804201947
  0
LINE
 8
GROUP0
10
370.980953881598
20
1585.81243311379
30
0.000347354295107721
11
370.540960441726
21
1585.87035113274
31
0.000347142003614143
  0
LINE
 8
GROUP0
10
338.690966633314
20
1585.64200352662
30
0.000333067185231872
11
338.338890064348
21
1585.37183540556
31
0.000332989843409154
  0
LINE
 8
GROUP0
10
338.068734868663
20
1585.01974891861
30
0.000332972820887339
11
337.898911676395
21
1584.609738178
31
0.000333017280939968
  0
LINE
 8
GROUP0
10
369.690964622496
20
1585.6425787169
30
0.000346831188061802
11
369.338888053532
21
1585.37241059584
31
0.000346753844705022
  0
LINE
 8
GROUP0
10
366.568780406357
20
1582.52027817931
30
0.000342912835248749
11
366.398957285913
21
1582.11026740895
31
0.000342957294849477
  0
LINE
 8
GROUP0
10
372.241566836329
20
1553.17038434845
30
0.000357456564288888
11
372.183632664682
21
1553.61037566178
31
0.000357302214521843
  0
LINE
 8
GROUP0
10
372.183073627108
20
1583.73038889777
30
0.000348496705941392
11
372.240991646057
21
1584.17038233764
31
0.000348393795340873
  0
LINE
 8
GROUP0
10
338.338890064348
20
1585.37183540556
30
0.000332989843409154
11
338.068734868663
21
1585.01974891861
31
0.000332972820887339
  0
LINE
 8
GROUP0
10
340.838980076593
20
1580.46771983676
30
0.000332088705411676
11
338.338934194341
21
1582.96767234993
31
0.000333692693901855
  0
LINE
 8
GROUP0
10
337.898911676395
20
1584.609738178
30
0.000333017280939968
11
337.840993657444
21
1584.16974473813
31
0.000333120192442171
  0
LINE
 8
GROUP0
10
371.743670429427
20
1551.96829368102
30
0.000357586914314534
11
372.013825625111
21
1552.32038016797
31
0.000357603935121809
  0
LINE
 8
GROUP0
10
369.339507373796
20
1551.96824955103
30
0.00035651946441575
11
369.691593860749
21
1551.69809435534
31
0.00035675477069777
  0
LINE
 8
GROUP0
10
372.013794420494
20
1554.02038016768
30
0.000357106945279362
11
371.743626299433
21
1554.37245673665
31
0.000356884062468249
  0
LINE
 8
GROUP0
10
343.513266763791
20
1582.51985092191
30
0.000332676184470509
11
343.243098581056
21
1582.87192744354
31
0.000332453303554414
  0
LINE
 8
GROUP0
10
372.183632664682
20
1553.61037566178
30
0.000357302214521843
11
372.013794420494
21
1554.02038016768
31
0.000357106945279362
  0
LINE
 8
GROUP0
10
338.068766073284
20
1583.3197489189
30
0.000333469811361459
11
338.338934194341
21
1582.96767234993
31
0.000333692693901855
  0
LINE
 8
GROUP0
10
368.041489662527
20
1557.37030544614
30
0.000350919048630077
11
367.601498359347
21
1557.31237119741
31
0.000350740626503265
  0
LINE
 8
GROUP0
10
366.341039344044
20
1581.67027395893
30
0.000343060205901191
11
366.39897359277
21
1581.23028265575
31
0.000343214556208965
  0
LINE
 8
GROUP0
10
366.569293729986
20
1554.82027816467
30
0.000351010858214695
11
366.839461912722
21
1554.46820164304
31
0.000351233741206286
  0
LINE
 8
GROUP0
10
366.399439107117
20
1556.11026739402
30
0.000350558327161532
11
366.341521165246
21
1555.670273944
31
0.000350661239205169
  0
LINE
 8
GROUP0
10
370.98158935456
20
1551.52828731577
30
0.000357377176720075
11
371.391593860462
21
1551.69812555996
31
0.000357509569965125
  0
LINE
 8
GROUP0
10
343.741039328532
20
1581.66985514258
30
0.000333025804201947
11
343.683105079806
21
1582.10984644576
31
0.00033287145461538
  0
LINE
 8
GROUP0
10
372.18364881738
20
1552.73039090858
30
0.000357559475159419
11
372.241566836329
21
1553.17038434845
31
0.000357456564288888
  0
LINE
 8
GROUP0
10
371.743051109162
20
1585.37245472583
30
0.000347821292528311
11
371.390964622209
21
1585.64260992151
31
0.000347585987419396
  0
LINE
 8
GROUP0
10
366.39897359277
20
1581.23028265575
30
0.000343214556208965
11
366.568811908785
21
1580.8202781796
31
0.000343409825632629
  0
LINE
 8
GROUP0
10
368.041070846179
20
1579.97030546165
30
0.000344311997357205
11
368.481062149357
21
1580.02823971038
31
0.000344490419754734
  0
LINE
 8
GROUP0
10
423.54120240738
20
1584.6701198557
30
7.61298654758935e-005
11
413.541200677879
21
1594.67011810388
31
6.94748891976515e-005
  0
LINE
 8
GROUP0
10
369.243580417185
20
1556.87240924982
30
0.000351598339349024
11
368.891493882906
21
1557.14256438382
31
0.000351363032345092
  0
LINE
 8
GROUP0
10
371.391593860462
20
1551.69812555996
30
0.000357509569965125
11
371.743670429427
21
1551.96829368102
31
0.000357586914314534
  0
LINE
 8
GROUP0
10
343.243143132213
20
1580.46776438792
30
0.000333156153956876
11
343.513298266218
21
1580.8198509222
31
0.000333173175395823
  0
LINE
 8
GROUP0
10
366.399455413972
20
1555.23028264082
30
0.000350815589152692
11
366.569293729986
21
1554.82027816467
31
0.000351010858214695
  0
LINE
 8
GROUP0
10
342.89106661058
20
1580.19759620518
30
0.000333078810870813
11
343.243143132213
21
1580.46776438792
31
0.000333156153956876
  0
LINE
 8
GROUP0
10
413.541200677879
20
1594.67011810388
30
6.94748891976515e-005
11
413.541195316405
21
1625.67011810387
31
4.88444578355507e-005
  0
LINE
 8
GROUP0
10
340.838980076593
20
1580.46771983676
30
0.000332088705411676
11
341.19106661087
21
1580.19756470276
31
0.000332324010881546
  0
LINE
 8
GROUP0
10
366.839417361564
20
1556.87236469866
30
0.000350530890533107
11
366.569262227559
21
1556.52027816438
31
0.000350513868011293
  0
LINE
 8
GROUP0
10
339.100971139214
20
1585.81184177081
30
0.000333199580462179
11
338.690966633314
21
1585.64200352662
31
0.000333067185231872
  0
LINE
 8
GROUP0
10
366.341521165246
20
1555.670273944
30
0.000350661239205169
11
366.399455413972
21
1555.23028264082
31
0.000350815589152692
  0
LINE
 8
GROUP0
10
366.569262227559
20
1556.52027816438
30
0.000350513868011293
11
366.399439107117
21
1556.11026739402
31
0.000350558327161532
  0
LINE
 8
GROUP0
10
368.891493882906
20
1557.14256438382
30
0.000351363032345092
11
368.481483112546
21
1557.31238750427
31
0.000351131340574851
  0
LINE
 8
GROUP0
10
369.339507373796
20
1551.96824955103
30
0.00035651946441575
11
366.839461912722
21
1554.46820164304
31
0.000351233741206286
  0
LINE
 8
GROUP0
10
372.013825625111
20
1552.32038016797
30
0.000357603935121809
11
372.18364881738
21
1552.73039090858
31
0.000357559475159419
  0
LINE
 8
GROUP0
10
339.540962452543
20
1585.86977594246
30
0.000333378002228035
11
339.100971139214
21
1585.81184177081
31
0.000333199580462179
  0
LINE
 8
GROUP0
10
367.601498359347
20
1557.31237119741
30
0.000350740626503265
11
367.191493883198
21
1557.1425328814
31
0.000350608233258215
  0
LINE
 8
GROUP0
10
338.691595871567
20
1551.69751916507
30
0.00034299076786784
11
339.101606612177
21
1551.5276959728
31
0.000343222461262382
  0
LINE
 8
GROUP0
10
340.39159587128
20
1551.69755036968
30
0.000343745568759496
11
340.743672440242
21
1551.96771849074
31
0.000343822912206515
  0
LINE
 8
GROUP0
10
342.481483097616
20
1557.31190568306
30
0.000339587337453251
11
342.0414896476
21
1557.36982362493
31
0.000339375045959672
  0
LINE
 8
GROUP0
10
338.33946525462
20
1554.37183741638
30
0.000342052613168614
11
340.839417346637
21
1556.87188287746
31
0.000338986887410803
  0
LINE
 8
GROUP0
10
343.243624953416
20
1554.46776437299
30
0.000340757187261559
11
343.513780087418
21
1554.81985090727
31
0.000340774208519323
  0
LINE
 8
GROUP0
10
339.101606612177
20
1551.5276959728
30
0.000343222461262382
11
339.541600052048
21
1551.46977795385
31
0.000343434752665722
  0
LINE
 8
GROUP0
10
369.691593860749
20
1551.69809435534
30
0.00035675477069777
11
370.10160460136
21
1551.52827116307
31
0.000356986463821596
  0
LINE
 8
GROUP0
10
339.980955892414
20
1585.81185792351
30
0.000333590293992331
11
339.540962452543
21
1585.86977594246
31
0.000333378002228035
  0
LINE
 8
GROUP0
10
340.390966633026
20
1585.64203473124
30
0.000333821985762572
11
339.980955892414
21
1585.81185792351
31
0.000333590293992331
  0
LINE
 8
GROUP0
10
341.60149834442
20
1557.3118893762
30
0.000339196624284055
11
341.19149386827
21
1557.14205106019
31
0.000339064230948766
  0
LINE
 8
GROUP0
10
369.243580417185
20
1556.87240924982
30
0.000351598339349024
11
371.743626299433
21
1554.37245673665
31
0.000356884062468249
  0
LINE
 8
GROUP0
10
370.541598041233
20
1551.47035314413
30
0.000357198754503024
11
370.98158935456
21
1551.52828731577
31
0.000357377176720075
  0
LINE
 8
GROUP0
10
343.513780087418
20
1554.81985090727
30
0.000340774208519323
11
343.683603207866
21
1555.22986167763
31
0.000340729749640506
  0
LINE
 8
GROUP0
10
340.743053119979
20
1585.37187953555
30
0.000334057291232442
11
340.390966633026
21
1585.64203473124
31
0.000333821985762572
  0
LINE
 8
GROUP0
10
342.0414896476
20
1557.36982362493
30
0.000339375045959672
11
341.60149834442
21
1557.3118893762
31
0.000339196624284055
  0
LINE
 8
GROUP0
10
343.683603207866
20
1555.22986167763
30
0.000340729749640506
11
343.741521149733
21
1555.66985512765
31
0.000340626837144969
  0
LINE
 8
GROUP0
10
342.891493867978
20
1557.14208256262
30
0.00033981903111851
11
342.481483097616
21
1557.31190568306
31
0.000339587337453251
  0
LINE
 8
GROUP0
10
368.481483112546
20
1557.31238750427
30
0.000351131340574851
11
368.041489662527
21
1557.37030544614
31
0.000350919048630077
  0
LINE
 8
GROUP0
10
338.339509384614
20
1551.96767436075
30
0.000342755463119881
11
338.691595871567
21
1551.69751916507
31
0.00034299076786784
  0
LINE
 8
GROUP0
10
370.10160460136
20
1551.52827116307
30
0.000356986463821596
11
370.541598041233
21
1551.47035314413
31
0.000357198754503024
  0
LINE
 8
GROUP0
10
367.191493883198
20
1557.1425328814
30
0.000350608233258215
11
366.839417361564
21
1556.87236469866
31
0.000350530890533107
  0
LINE
 8
GROUP0
10
337.899503019367
20
1552.72975543562
30
0.000342337311607721
11
338.069341263554
21
1552.31975092971
31
0.000342532581121624
  0
LINE
 8
GROUP0
10
225.399812747512
20
1555.22753862266
30
0.000293379795575138
11
225.569650994147
21
1554.81753411778
31
0.000293575065268814
  0
LINE
 8
GROUP0
10
343.513748584992
20
1556.51985090698
30
0.000340277217864726
11
343.243580402258
21
1556.87192742861
31
0.000340054335144557
  0
LINE
 8
GROUP0
10
228.691950596588
20
1551.69534978011
30
0.000299318976037349
11
229.101961308462
21
1551.52552651846
31
0.000299550669522131
  0
LINE
 8
GROUP0
10
338.069310058938
20
1554.01975092943
30
0.000342035590918222
11
337.899486866667
21
1553.60974018882
31
0.000342080050699428
  0
LINE
 8
GROUP0
10
343.243624953416
20
1554.46776437299
30
0.000340757187261559
11
340.743672440242
21
1551.96771849074
31
0.000343822912206515
  0
LINE
 8
GROUP0
10
339.541600052048
20
1551.46977795385
30
0.000343434752665722
11
339.981591365377
21
1551.5277121255
31
0.000343613175243729
  0
LINE
 8
GROUP0
10
338.069341263554
20
1552.31975092971
30
0.000342532581121624
11
338.339509384614
21
1551.96767436075
31
0.000342755463119881
  0
LINE
 8
GROUP0
10
338.33946525462
20
1554.37183741638
30
0.000342052613168614
11
338.069310058938
21
1554.01975092943
31
0.000342035590918222
  0
LINE
 8
GROUP0
10
225.569650994147
20
1554.81753411778
30
0.000293575065268814
11
225.839819117304
21
1554.46545755042
31
0.00029379794609467
  0
LINE
 8
GROUP0
10
227.891851540031
20
1557.13981994397
30
0.0002939272386773
11
227.481840798407
21
1557.3096431338
31
0.000293695546185146
  0
LINE
 8
GROUP0
10
343.683586901008
20
1556.10984643083
30
0.000340472487197446
11
343.513748584992
21
1556.51985090698
31
0.000340277217864726
  0
LINE
 8
GROUP0
10
337.84156884772
20
1553.16974674894
30
0.000342182962202336
11
337.899503019367
21
1552.72975543562
31
0.000342337311607721
  0
LINE
 8
GROUP0
10
271.291320634119
20
1431.42010043947
30
6.04701130838325e-005
11
297.791320634113
21
1431.42010508181
31
7.11254924282034e-005
  0
LINE
 8
GROUP0
10
343.243580402258
20
1556.87192742861
30
0.000340054335144557
11
342.891493867978
21
1557.14208256262
31
0.00033981903111851
  0
LINE
 8
GROUP0
10
271.29131791879
20
1446.92010043947
30
5.55942629815342e-005
11
271.291320634119
21
1431.42010043947
31
6.04701130838325e-005
  0
LINE
 8
GROUP0
10
225.399796589561
20
1556.10752337586
30
0.000293122533673512
11
225.341878573239
21
1555.66752993565
31
0.000293225444544748
  0
LINE
 8
GROUP0
10
226.601856045206
20
1557.30962697585
30
0.000293304833647623
11
226.191851540319
21
1557.13978872921
31
0.000293172439500183
  0
LINE
 8
GROUP0
10
228.339864155349
20
1551.96550503537
30
0.000299083671108913
11
225.839819117304
21
1554.46545755042
31
0.00029379794609467
  0
LINE
 8
GROUP0
10
225.839774972968
20
1556.86962060605
30
0.000293095095420787
11
225.569619779387
21
1556.51753411749
31
0.000293078074163022
  0
LINE
 8
GROUP0
10
293.201488035568
20
1593.6703669086
30
0.000156268056643954
11
294.200492677737
21
1591.25855753241
31
0.000157216026112444
  0
LINE
 8
GROUP0
10
274.881977047215
20
1586.08217328921
30
0.000151693282743326
11
274.541234862477
21
1588.6703636813
31
0.000150933496286287
  0
LINE
 8
GROUP0
10
343.741521149733
20
1555.66985512765
30
0.000340626837144969
11
343.683586901008
21
1556.10984643083
31
0.000340472487197446
  0
LINE
 8
GROUP0
10
228.243938028595
20
1556.86966475039
30
0.00029416254369527
11
227.891851540031
21
1557.13981994397
31
0.0002939272386773
  0
LINE
 8
GROUP0
10
227.041847358191
20
1557.36756115012
30
0.000293483253879417
11
226.601856045206
21
1557.30962697585
31
0.000293304833647623
  0
LINE
 8
GROUP0
10
341.19149386827
20
1557.14205106019
30
0.000339064230948766
11
340.839417346637
21
1556.87188287746
31
0.000338986887410803
  0
LINE
 8
GROUP0
10
297.791317918789
20
1446.92010508181
30
6.62496419649494e-005
11
271.29131791879
21
1446.92010043947
31
5.55942629815342e-005
  0
LINE
 8
GROUP0
10
228.243938028595
20
1556.86966475039
30
0.00029416254369527
11
230.743983487815
21
1554.36971181418
31
0.000299448269612607
  0
LINE
 8
GROUP0
10
277.470168273555
20
1581.599296376
30
0.000153712801936495
11
275.880981689385
21
1583.67036391301
31
0.000152641252212521
  0
LINE
 8
GROUP0
10
279.541236360271
20
1580.01011050821
30
0.000154834907791151
11
277.470168273555
21
1581.599296376
31
0.000153712801936495
  0
LINE
 8
GROUP0
10
289.54123636027
20
1580.01011223772
30
0.000158356065933102
11
287.129426984074
21
1579.01110759555
31
0.000157753785526549
  0
LINE
 8
GROUP0
10
339.981591365377
20
1551.5277121255
30
0.000343613175243729
11
340.39159587128
21
1551.69755036968
31
0.000343745568759496
  0
LINE
 8
GROUP0
10
227.481840798407
20
1557.3096431338
30
0.000293695546185146
11
227.041847358191
21
1557.36756115012
31
0.000293483253879417
  0
LINE
 8
GROUP0
10
337.899486866667
20
1553.60974018882
30
0.000342080050699428
11
337.84156884772
21
1553.16974674894
31
0.000342182962202336
  0
LINE
 8
GROUP0
10
294.200493572994
20
1586.08217663036
30
0.000158495637927347
11
293.201489765071
21
1583.67036690861
31
0.000158740077014857
  0
LINE
 8
GROUP0
10
294.541234862475
20
1588.67036714031
30
0.000157975812570188
11
294.200493572994
21
1586.08217663036
31
0.000158495637927347
  0
LINE
 8
GROUP0
10
297.791320634113
20
1431.42010508181
30
7.11254924282034e-005
11
297.791317918789
21
1446.92010508181
31
6.62496419649494e-005
  0
LINE
 8
GROUP0
10
225.569619779387
20
1556.51753411749
30
0.000293078074163022
11
225.399796589561
21
1556.10752337586
31
0.000293122533673512
  0
LINE
 8
GROUP0
10
275.880981689385
20
1583.67036391301
30
0.000152641252212521
11
274.881977047215
21
1586.08217328921
31
0.000151693282743326
  0
LINE
 8
GROUP0
10
225.341878573239
20
1555.66752993565
30
0.000293225444544748
11
225.399812747512
21
1555.22753862266
31
0.000293379795575138
  0
LINE
 8
GROUP0
10
228.339864155349
20
1551.96550503537
30
0.000299083671108913
11
228.691950596588
21
1551.69534978011
31
0.000299318976037349
  0
LINE
 8
GROUP0
10
226.191851540319
20
1557.13978872921
30
0.000293172439500183
11
225.839774972968
21
1556.86962060605
31
0.000293095095420787
  0
LINE
 8
GROUP0
10
161.041279816659
20
1561.67007060863
30
7.37864874710281e-006
11
172.041279816659
21
1561.67007060863
31
7.01064230897996e-006
  0
LINE
 8
GROUP0
10
294.291254064173
20
1565.67006911256
30
7.79174585335218e-005
11
314.791254064173
21
1565.67006911255
31
7.80054875096303e-005
  0
LINE
 8
GROUP0
10
294.291254064173
20
1561.67006911255
30
7.89062663935414e-005
11
294.291254064173
21
1565.67006911256
31
7.79174585335218e-005
  0
LINE
 8
GROUP0
10
172.04127981666
20
1565.67007060863
30
5.75200652007113e-006
11
161.04127981666
21
1565.67007060863
31
5.64516588595354e-006
  0
LINE
 8
GROUP0
10
291.612301451397
20
1595.74143444562
30
0.000155196506919275
11
293.201488035568
21
1593.6703669086
31
0.000156268056643954
  0
LINE
 8
GROUP0
10
275.88097995988
20
1593.67036391301
30
0.000150169231841618
11
277.470165827668
21
1595.74143199973
31
0.000150216837296846
  0
LINE
 8
GROUP0
10
274.881976151958
20
1591.25855419126
30
0.000150413670928423
11
275.88097995988
21
1593.67036391301
31
0.000150169231841618
  0
LINE
 8
GROUP0
10
281.541320634107
20
1363.90287285614
30
0.000118954811639971
11
287.541320634107
21
1363.90287285614
31
0.000118954811639971
  0
LINE
 8
GROUP0
10
287.541320634107
20
1363.90287285614
30
0.000118954811639971
11
287.541320634109
21
1375.90287285614
31
0.000118954812684063
  0
LINE
 8
GROUP0
10
287.541320634109
20
1375.90287285614
30
0.000118954812684063
11
281.541320634109
21
1375.90287285614
31
0.000118954812684063
  0
LINE
 8
GROUP0
10
172.041279816659
20
1561.67007060863
30
7.01064230897996e-006
11
172.04127981666
21
1565.67007060863
31
5.75200652007113e-006
  0
LINE
 8
GROUP0
10
284.541236591979
20
1578.67036541081
30
0.00015692667479914
11
281.953046082024
21
1579.01110670029
31
0.000155931099964957
  0
LINE
 8
GROUP0
10
274.541234862477
20
1588.6703636813
30
0.000150933496286287
11
274.881976151958
21
1591.25855419126
31
0.000150413670928423
  0
LINE
 8
GROUP0
10
294.200492677737
20
1591.25855753241
30
0.000157216026112444
11
294.541234862475
21
1588.67036714031
31
0.000157975812570188
  0
LINE
 8
GROUP0
10
161.04127981666
20
1565.67007060863
30
5.64516588595354e-006
11
161.041279816659
21
1561.67007060863
31
7.37864874710281e-006
  0
LINE
 8
GROUP0
10
284.541234862478
20
1604.95662453736
30
0.000150428659271645
11
277.470165827668
21
1595.74143199973
31
0.000150216837296846
  0
LINE
 8
GROUP0
10
291.612303897285
20
1581.59929882189
30
0.000158692471558924
11
289.54123636027
21
1580.01011223772
31
0.000158356065933102
  0
LINE
 8
GROUP0
10
281.953046082024
20
1579.01110670029
30
0.000155931099964957
11
279.541236360271
21
1580.01011050821
31
0.000154834907791151
  0
LINE
 8
GROUP0
10
281.541320634141
20
1513.90287285613
30
7.78527292569386e-005
11
287.541320634141
21
1513.90287285613
31
7.78527292569386e-005
  0
LINE
 8
GROUP0
10
254.291254064173
20
1561.67006911256
30
6.48216320209616e-005
11
254.291254064173
21
1565.67006911256
31
6.3832824160942e-005
  0
LINE
 8
GROUP0
10
314.791254064173
20
1565.67006911255
30
7.80054875096303e-005
11
314.791254064173
21
1561.67006911255
31
8.60366126461787e-005
  0
LINE
 8
GROUP0
10
287.541320634141
20
1513.90287285613
30
7.78527292569386e-005
11
287.541320634142
21
1525.90287285613
31
7.78527303010312e-005
  0
LINE
 8
GROUP0
10
291.612301451397
20
1595.74143444562
30
0.000155196506919275
11
284.541234862478
21
1604.95662453736
31
0.000150428659271645
  0
LINE
 8
GROUP0
10
281.541320634109
20
1375.90287285614
30
0.000118954812684063
11
281.541320634107
21
1363.90287285614
31
0.000118954811639971
  0
LINE
 8
GROUP0
10
287.541320634142
20
1525.90287285613
30
7.78527303010312e-005
11
281.541320634142
21
1525.90287285613
31
7.78527303010312e-005
  0
LINE
 8
GROUP0
10
287.129426984074
20
1579.01110759555
30
0.000157753785526549
11
284.541236591979
21
1578.67036541081
31
0.00015692667479914
  0
LINE
 8
GROUP0
10
254.291254064173
20
1565.67006911256
30
6.3832824160942e-005
11
274.791254064173
21
1565.67006911256
31
6.39208531370505e-005
  0
LINE
 8
GROUP0
10
314.791254064173
20
1561.67006911255
30
8.60366126461787e-005
11
294.291254064173
21
1561.67006911255
31
7.89062663935414e-005
  0
LINE
 8
GROUP0
10
274.791254064173
20
1561.67006911256
30
7.19519782735989e-005
11
254.291254064173
21
1561.67006911256
31
6.48216320209616e-005
  0
LINE
 8
GROUP0
10
281.541320634142
20
1525.90287285613
30
7.78527303010312e-005
11
281.541320634141
21
1513.90287285613
31
7.78527292569386e-005
  0
LINE
 8
GROUP0
10
293.201489765071
20
1583.67036690861
30
0.000158740077014857
11
291.612303897285
21
1581.59929882189
31
0.000158692471558924
  0
LINE
 8
GROUP0
10
274.791254064173
20
1565.67006911256
30
6.39208531370505e-005
11
274.791254064173
21
1561.67006911256
31
7.19519782735989e-005
  0
LINE
 8
GROUP0
10
170.779865973134
20
1534.57149366659
30
0.000113267706821218
11
170.391637405481
21
1534.52038240602
31
0.00011314364020259
  0
LINE
 8
GROUP0
10
171.452297577261
20
1537.0810425778
30
0.000112884115255302
11
171.690675511158
21
1536.77038240602
31
0.000113044847723204
  0
LINE
 8
GROUP0
10
169.641637405482
20
1534.72134430034
30
0.000112829875047793
11
169.330977233702
21
1534.95972223424
31
0.000112661559164801
  0
LINE
 8
GROUP0
10
169.092599299805
20
1535.27038240602
30
0.000112500826697604
11
168.942748666048
21
1535.63215383837
31
0.000112358631294884
  0
LINE
 8
GROUP0
10
253.340675511137
20
1369.92038240601
30
0.00011335950013745
11
253.490526144893
21
1369.55861097366
31
0.000113501695539464
  0
LINE
 8
GROUP0
10
170.003408837829
20
1537.46927114545
30
0.000112277967599589
11
170.391637405482
21
1537.52038240602
31
0.000112402034217512
  0
LINE
 8
GROUP0
10
170.391637405481
20
1534.52038240602
30
0.00011314364020259
11
170.003408837827
21
1534.57149366659
31
0.000112994303896741
  0
LINE
 8
GROUP0
10
170.391637405482
20
1537.52038240602
30
0.000112402034217512
11
170.779865973136
21
1537.46927114545
31
0.000112551370524067
  0
LINE
 8
GROUP0
10
252.04163740546
20
1370.67038240601
30
0.000112716686721998
11
252.429865973114
21
1370.61927114544
31
0.000112866022938313
  0
LINE
 8
GROUP0
10
253.490526144893
20
1369.55861097366
30
0.000113501695539464
11
253.54163740546
21
1369.17038240601
31
0.000113615663480948
  0
LINE
 8
GROUP0
10
397.041224664261
20
1561.67006911254
30
0.000114129006578334
11
397.041224664261
21
1565.67006911254
31
0.000114129006925895
  0
LINE
 8
GROUP0
10
408.041228359171
20
1561.67006911254
30
0.000120353130297157
11
397.041224664261
21
1561.67006911254
31
0.000114129006578334
  0
LINE
 8
GROUP0
10
171.840526144914
20
1535.63215383837
30
0.000113378984865764
11
171.690675511158
21
1535.27038240602
31
0.000113415650625504
  0
LINE
 8
GROUP0
10
171.891637405481
20
1536.02038240602
30
0.000113301011066702
11
171.840526144914
21
1535.63215383837
31
0.000113378984865764
  0
LINE
 8
GROUP0
10
171.141637405481
20
1534.72134430034
30
0.000113358048904444
11
170.779865973134
21
1534.57149366659
31
0.000113267706821218
  0
LINE
 8
GROUP0
10
397.041224664261
20
1565.67006911254
30
0.000114129006925895
11
408.041228359171
21
1565.67006911254
31
0.000112322003807025
  0
LINE
 8
GROUP0
10
169.092599299805
20
1536.77038240602
30
0.000112130023795304
11
169.330977233702
21
1537.0810425778
31
0.0001121371646089
  0
LINE
 8
GROUP0
10
169.641637405482
20
1537.3194205117
30
0.000112187625516363
11
170.003408837829
21
1537.46927114545
31
0.000112277967599589
  0
LINE
 8
GROUP0
10
171.690675511158
20
1536.77038240602
30
0.000113044847723204
11
171.840526144915
21
1536.40861097367
31
0.000113187043125218
  0
LINE
 8
GROUP0
10
170.779865973136
20
1537.46927114545
30
0.000112551370524067
11
171.141637405481
21
1537.3194205117
31
0.000112715799373014
  0
LINE
 8
GROUP0
10
169.330977233702
20
1534.95972223424
30
0.000112661559164801
11
169.092599299805
21
1535.27038240602
31
0.000112500826697604
  0
LINE
 8
GROUP0
10
171.141637405481
20
1537.3194205117
30
0.000112715799373014
11
171.452297577261
21
1537.0810425778
31
0.000112884115255302
  0
LINE
 8
GROUP0
10
171.840526144915
20
1536.40861097367
30
0.000113187043125218
11
171.891637405481
21
1536.02038240602
31
0.000113301011066702
  0
LINE
 8
GROUP0
10
170.003408837827
20
1534.57149366659
30
0.000112994303896741
11
169.641637405482
21
1534.72134430034
31
0.000112829875047793
  0
LINE
 8
GROUP0
10
168.942748666048
20
1535.63215383837
30
0.000112358631294884
11
168.891637405482
21
1536.02038240602
31
0.0001122446633534
  0
LINE
 8
GROUP0
10
169.330977233702
20
1537.0810425778
30
0.0001121371646089
11
169.641637405482
21
1537.3194205117
31
0.000112187625516363
  0
LINE
 8
GROUP0
10
171.690675511158
20
1535.27038240602
30
0.000113415650625504
11
171.452297577261
21
1534.95972223424
31
0.000113408509811203
  0
LINE
 8
GROUP0
10
408.041228359171
20
1565.67006911254
30
0.000112322003807025
11
408.041228359171
21
1561.67006911254
31
0.000120353130297157
  0
LINE
 8
GROUP0
10
171.452297577261
20
1534.95972223424
30
0.000113408509811203
11
171.141637405481
21
1534.72134430034
31
0.000113358048904444
  0
LINE
 8
GROUP0
10
168.942748666049
20
1536.40861097367
30
0.000112166689554338
11
169.092599299805
21
1536.77038240602
31
0.000112130023795304
  0
LINE
 8
GROUP0
10
253.10229757724
20
1370.23104257779
30
0.000113198767669548
11
253.340675511137
21
1369.92038240601
31
0.00011335950013745
  0
LINE
 8
GROUP0
10
168.891637405482
20
1536.02038240602
30
0.0001122446633534
11
168.942748666049
21
1536.40861097367
31
0.000112166689554338
  0
LINE
 8
GROUP0
10
253.10229757724
20
1368.10972223423
30
0.000113723162315688
11
252.79163740546
21
1367.87134430033
31
0.000113672701408929
  0
LINE
 8
GROUP0
10
250.98097723368
20
1368.10972223423
30
0.000112976211759525
11
250.742599299784
21
1368.42038240601
31
0.000112815479292327
  0
LINE
 8
GROUP0
10
286.473090348574
20
1616.18773388348
30
0.000103196369803754
11
286.541238695996
21
1615.67009579328
31
0.000103348327059771
  0
LINE
 8
GROUP0
10
253.490526144894
20
1368.78215383836
30
0.00011369363728001
11
253.340675511136
21
1368.42038240601
31
0.000113730303129989
  0
LINE
 8
GROUP0
10
253.340675511136
20
1368.42038240601
30
0.000113730303129989
11
253.10229757724
21
1368.10972223423
31
0.000113723162315688
  0
LINE
 8
GROUP0
10
286.273289503565
20
1616.67009579328
30
0.000103006775964481
11
286.473090348574
21
1616.18773388348
31
0.000103196369803754
  0
LINE
 8
GROUP0
10
282.541238695996
20
1615.67009579328
30
0.000101939863622513
11
282.609387043418
21
1616.18773388348
31
0.000101835898586472
  0
LINE
 8
GROUP0
10
285.058876786201
20
1613.7382441407
30
0.00010330392148819
11
284.541238695996
21
1613.67009579328
31
0.0001031384992708
  0
LINE
 8
GROUP0
10
250.742599299784
20
1368.42038240601
30
0.000112815479292327
11
250.592748666027
21
1368.78215383836
31
0.000112673283889608
  0
LINE
 8
GROUP0
10
252.429865973114
20
1370.61927114544
30
0.000112866022938313
11
252.79163740546
21
1370.46942051169
31
0.000113030451786555
  0
LINE
 8
GROUP0
10
285.541238695996
20
1613.93804498571
30
0.000103424377569783
11
285.058876786201
21
1613.7382441407
31
0.00010330392148819
  0
LINE
 8
GROUP0
10
250.592748666027
20
1368.78215383836
30
0.000112673283889608
11
250.54163740546
21
1369.17038240601
31
0.000112559315948124
  0
LINE
 8
GROUP0
10
285.541238695997
20
1617.40214660085
30
0.000102568044830426
11
285.955452258369
21
1617.08430935565
31
0.000102792465947354
  0
LINE
 8
GROUP0
10
251.29163740546
20
1370.46942051169
30
0.000112502278020143
11
251.653408837806
21
1370.61927114544
31
0.000112592620104074
  0
LINE
 8
GROUP0
10
252.79163740546
20
1370.46942051169
30
0.000113030451786555
11
253.10229757724
21
1370.23104257779
31
0.000113198767669548
  0
LINE
 8
GROUP0
10
250.742599299784
20
1369.92038240601
30
0.000112444676299789
11
250.98097723368
21
1370.23104257779
31
0.000112451817113385
  0
LINE
 8
GROUP0
10
253.54163740546
20
1369.17038240601
30
0.000113615663480948
11
253.490526144894
21
1368.78215383836
31
0.00011369363728001
  0
LINE
 8
GROUP0
10
252.429865973114
20
1367.72149366658
30
0.000113582359324998
11
252.04163740546
21
1367.67038240601
31
0.000113458292707075
  0
LINE
 8
GROUP0
10
252.79163740546
20
1367.87134430033
30
0.000113672701408929
11
252.429865973114
21
1367.72149366658
31
0.000113582359324998
  0
LINE
 8
GROUP0
10
250.98097723368
20
1370.23104257779
30
0.000112451817113385
11
251.29163740546
21
1370.46942051169
31
0.000112502278020143
  0
LINE
 8
GROUP0
10
252.04163740546
20
1367.67038240601
30
0.000113458292707075
11
251.653408837806
21
1367.72149366658
31
0.00011330895649076
  0
LINE
 8
GROUP0
10
250.54163740546
20
1369.17038240601
30
0.000112559315948124
11
250.592748666026
21
1369.55861097366
31
0.000112481342149062
  0
LINE
 8
GROUP0
10
250.592748666026
20
1369.55861097366
30
0.000112481342149062
11
250.742599299784
21
1369.92038240601
31
0.000112444676299789
  0
LINE
 8
GROUP0
10
251.29163740546
20
1367.87134430033
30
0.000113144527642517
11
250.98097723368
21
1368.10972223423
31
0.000112976211759525
  0
LINE
 8
GROUP0
10
251.653408837806
20
1370.61927114544
30
0.000112592620104074
11
252.04163740546
21
1370.67038240601
31
0.000112716686721998
  0
LINE
 8
GROUP0
10
286.473090348574
20
1615.15245770307
30
0.000103452292095108
11
286.273289503565
21
1614.67009579328
31
0.000103501179894139
  0
LINE
 8
GROUP0
10
286.541238695996
20
1615.67009579328
30
0.000103348327059771
11
286.473090348574
21
1615.15245770307
31
0.000103452292095108
  0
LINE
 8
GROUP0
10
285.058876786202
20
1617.60194744585
30
0.000102348806395947
11
285.541238695997
21
1617.40214660085
31
0.000102568044830426
  0
LINE
 8
GROUP0
10
285.955452258369
20
1617.08430935565
30
0.000102792465947354
11
286.273289503565
21
1616.67009579328
31
0.000103006775964481
  0
LINE
 8
GROUP0
10
283.541238695996
20
1613.93804498571
30
0.000102720145851154
11
283.127025133623
21
1614.2558822309
31
0.000102495724734225
  0
LINE
 8
GROUP0
10
284.541238695997
20
1617.67009579328
30
0.00010214969141078
11
285.058876786202
21
1617.60194744585
31
0.000102348806395947
  0
LINE
 8
GROUP0
10
251.653408837806
20
1367.72149366658
30
0.00011330895649076
11
251.29163740546
21
1367.87134430033
31
0.000113144527642517
  0
LINE
 8
GROUP0
10
283.127025133623
20
1617.08430935565
30
0.00010179653193263
11
283.541238695996
21
1617.40214660085
31
0.000101863813111797
  0
LINE
 8
GROUP0
10
402.782895280717
20
1525.90287411475
30
0.000117667318013814
11
390.782895280717
21
1525.90287411475
31
0.000117667318013814
  0
LINE
 8
GROUP0
10
283.127025133623
20
1614.2558822309
30
0.000102495724734225
11
282.809187888427
21
1614.67009579328
31
0.000102281414717098
  0
LINE
 8
GROUP0
10
284.541238695996
20
1613.67009579328
30
0.0001031384992708
11
284.023600605791
21
1613.7382441407
31
0.000102939384285633
  0
LINE
 8
GROUP0
10
282.809187888428
20
1616.67009579328
30
0.000101787010787441
11
283.127025133623
21
1617.08430935565
31
0.00010179653193263
  0
LINE
 8
GROUP0
10
285.955452258369
20
1614.2558822309
30
0.00010349165874895
11
285.541238695996
21
1613.93804498571
31
0.000103424377569783
  0
LINE
 8
GROUP0
10
284.023600605792
20
1617.60194744585
30
0.000101984269193389
11
284.541238695997
21
1617.67009579328
31
0.00010214969141078
  0
LINE
 8
GROUP0
10
402.782895280717
20
1531.90287411475
30
0.000115779364330804
11
402.782895280717
21
1525.90287411475
31
0.000117667318013814
  0
LINE
 8
GROUP0
10
313.8828952807
20
1531.90287411476
30
0.000117790257523565
11
325.882895280699
21
1531.90287411476
31
0.000117790257523565
  0
LINE
 8
GROUP0
10
230.242599075385
20
1368.41047251772
30
0.00341605225577948
11
230.092748442217
21
1368.77224394866
31
0.00341591006037746
  0
LINE
 8
GROUP0
10
230.791637178971
20
1370.45951061543
30
0.00341573905455312
11
231.153408609916
21
1370.60936124859
31
0.00341582939663705
  0
LINE
 8
GROUP0
10
230.48097700835
20
1368.09981234714
30
0.00341621298824738
11
230.242599075385
21
1368.41047251772
31
0.00341605225577948
  0
LINE
 8
GROUP0
10
286.273289503565
20
1614.67009579328
30
0.000103501179894139
11
285.955452258369
21
1614.2558822309
31
0.00010349165874895
  0
LINE
 8
GROUP0
10
390.782895280717
20
1531.90287411475
30
0.000115779364330804
11
402.782895280717
21
1531.90287411475
31
0.000115779364330804
  0
LINE
 8
GROUP0
10
230.092748442217
20
1368.77224394866
30
0.00341591006037746
11
230.041637181857
21
1369.16047251481
31
0.00341579609243598
  0
LINE
 8
GROUP0
10
232.291637173093
20
1367.86143441413
30
0.0034169094779419
11
231.929865742149
21
1367.71158378096
31
0.00341681913585797
  0
LINE
 8
GROUP0
10
284.023600605791
20
1613.7382441407
30
0.000102939384285633
11
283.541238695996
21
1613.93804498571
31
0.000102720145851154
  0
LINE
 8
GROUP0
10
390.782895280717
20
1525.90287411475
30
0.000117667318013814
11
390.782895280717
21
1531.90287411475
31
0.000115779364330804
  0
LINE
 8
GROUP0
10
313.882895280698
20
1525.90287411476
30
0.000119678211206575
11
313.8828952807
21
1531.90287411476
31
0.000117790257523565
  0
LINE
 8
GROUP0
10
283.541238695996
20
1617.40214660085
30
0.000101863813111797
11
284.023600605792
21
1617.60194744585
31
0.000101984269193389
  0
LINE
 8
GROUP0
10
232.602297343672
20
1368.0998123471
30
0.00341695993880354
11
232.291637173093
21
1367.86143441413
31
0.0034169094779419
  0
LINE
 8
GROUP0
10
230.480977008393
20
1370.22113268246
30
0.00341568859369148
11
230.791637178971
21
1370.45951061543
31
0.00341573905455312
  0
LINE
 8
GROUP0
10
231.929865742149
20
1367.71158378096
30
0.00341681913585797
11
231.541637176001
21
1367.6604725206
31
0.00341669506919493
  0
LINE
 8
GROUP0
10
230.041637181857
20
1369.16047251481
30
0.00341579609243598
11
230.092748442233
21
1369.54870108095
31
0.00341571811863692
  0
LINE
 8
GROUP0
10
232.291637173146
20
1370.4595106154
30
0.00341626722836465
11
232.602297343715
21
1370.22113268242
31
0.00341643554424764
  0
LINE
 8
GROUP0
10
231.153408609916
20
1370.60936124859
30
0.00341582939663705
11
231.541637176063
21
1370.66047250895
31
0.00341595346330009
  0
LINE
 8
GROUP0
10
231.541637176001
20
1367.6604725206
30
0.00341669506919493
11
231.153408609856
21
1367.71158378098
31
0.00341654573297862
  0
LINE
 8
GROUP0
10
325.882895280699
20
1531.90287411476
30
0.000117790257523565
11
325.882895280698
21
1525.90287411476
31
0.000119678211206575
  0
LINE
 8
GROUP0
10
282.809187888427
20
1614.67009579328
30
0.000102281414717098
11
282.609387043418
21
1615.15245770307
31
0.000102091820877825
  0
LINE
 8
GROUP0
10
325.882895280698
20
1525.90287411476
30
0.000119678211206575
11
313.882895280698
21
1525.90287411476
31
0.000119678211206575
  0
LINE
 8
GROUP0
10
282.609387043418
20
1616.18773388348
30
0.000101835898586472
11
282.809187888428
21
1616.67009579328
31
0.000101787010787441
  0
LINE
 8
GROUP0
10
282.609387043418
20
1615.15245770307
30
0.000102091820877825
11
282.541238695996
21
1615.67009579328
31
0.000101939863622513
  0
LINE
 8
GROUP0
10
230.092748442233
20
1369.54870108095
30
0.00341571811863692
11
230.242599075416
21
1369.91047251189
31
0.00341568145283206
  0
LINE
 8
GROUP0
10
231.541637176063
20
1370.66047250895
30
0.00341595346330009
11
231.929865742208
21
1370.60936124858
31
0.00341610279951641
  0
LINE
 8
GROUP0
10
191.291637312237
20
1370.45951064051
30
4.89160358441765e-005
11
191.60229748314
21
1370.22113270728
31
4.90843517271688e-005
  0
LINE
 8
GROUP0
10
191.990526049676
20
1368.7722439719
30
4.95792213376311e-005
11
191.840675416332
21
1368.41047254057
31
4.96158871417851e-005
  0
LINE
 8
GROUP0
10
190.541637314344
20
1370.66047253429
30
4.86022707796185e-005
11
190.929865880908
21
1370.60936127386
31
4.87516069959337e-005
  0
LINE
 8
GROUP0
10
230.242599075416
20
1369.91047251189
30
0.00341568145283206
11
230.480977008393
21
1370.22113268246
31
0.00341568859369148
  0
LINE
 8
GROUP0
10
191.840675416363
20
1369.91047253636
30
4.92450841943659e-005
11
191.990526049692
21
1369.54870110503
31
4.93872795970851e-005
  0
LINE
 8
GROUP0
10
191.840675416332
20
1368.41047254057
30
4.96158871417851e-005
11
191.602297483097
21
1368.09981236967
31
4.96087462830697e-005
  0
LINE
 8
GROUP0
10
232.840675276649
20
1368.41047251766
30
0.00341696707966226
11
232.602297343672
21
1368.0998123471
31
0.00341695993880354
  0
LINE
 8
GROUP0
10
232.990525909831
20
1368.7722439486
30
0.0034169304138581
11
232.840675276649
21
1368.41047251766
31
0.00341696707966226
  0
LINE
 8
GROUP0
10
191.60229748314
20
1370.22113270728
30
4.90843517271688e-005
11
191.840675416363
21
1369.91047253636
31
4.92450841943659e-005
  0
LINE
 8
GROUP0
10
192.041637310107
20
1369.16047253846
30
4.95012475385692e-005
11
191.990526049676
21
1368.7722439719
31
4.95792213376311e-005
  0
LINE
 8
GROUP0
10
230.791637178918
20
1367.86143441416
30
0.00341638130413037
11
230.48097700835
21
1368.09981234714
31
0.00341621298824738
  0
LINE
 8
GROUP0
10
191.990526049692
20
1369.54870110503
30
4.93872795970851e-005
11
192.041637310107
21
1369.16047253846
31
4.95012475385692e-005
  0
LINE
 8
GROUP0
10
189.242599212264
20
1368.41047254062
30
4.87010632590046e-005
11
189.092748578935
21
1368.77224397196
31
4.85588678569904e-005
  0
LINE
 8
GROUP0
10
189.79163731639
20
1367.86143443647
30
4.9030111609899e-005
11
189.480977145486
21
1368.09981236971
31
4.88617957269066e-005
  0
LINE
 8
GROUP0
10
191.291637312184
20
1367.86143443644
30
4.95582854214305e-005
11
190.929865880849
21
1367.71158380311
31
4.94679433375e-005
  0
LINE
 8
GROUP0
10
190.153408747719
20
1367.71158380313
30
4.91945404581418e-005
11
189.79163731639
21
1367.86143443647
31
4.9030111609899e-005
  0
LINE
 8
GROUP0
10
189.242599212295
20
1369.91047253642
30
4.83302603115854e-005
11
189.48097714553
21
1370.22113270732
31
4.83374011710058e-005
  0
LINE
 8
GROUP0
10
231.153408609856
20
1367.71158378098
30
0.00341654573297862
11
230.791637178918
21
1367.86143441416
31
0.00341638130413037
  0
LINE
 8
GROUP0
10
230.041637262808
20
1522.16047251643
30
0.00341930419363751
11
230.092748523239
21
1522.54870108299
31
0.00341922621983844
  0
LINE
 8
GROUP0
10
189.48097714553
20
1370.22113270732
30
4.83374011710058e-005
11
189.791637316443
21
1370.45951064054
31
4.8387862032645e-005
  0
LINE
 8
GROUP0
10
232.990525909847
20
1369.54870108089
30
0.00341673847211756
11
233.041637170207
21
1369.16047251475
31
0.00341685244005904
  0
LINE
 8
GROUP0
10
232.84067527668
20
1369.91047251184
30
0.00341659627671484
11
232.990525909847
21
1369.54870108089
31
0.00341673847211756
  0
LINE
 8
GROUP0
10
190.541637314283
20
1367.6604725427
30
4.93438766744569e-005
11
190.153408747719
21
1367.71158380313
31
4.91945404581418e-005
  0
LINE
 8
GROUP0
10
189.480977145486
20
1368.09981236971
30
4.88617957269066e-005
11
189.242599212264
21
1368.41047254062
31
4.87010632590046e-005
  0
LINE
 8
GROUP0
10
189.04163731852
20
1369.16047253852
30
4.84448999155063e-005
11
189.092748578951
21
1369.54870110509
31
4.83669261164443e-005
  0
LINE
 8
GROUP0
10
233.041637170207
20
1369.16047251475
30
0.00341685244005904
11
232.990525909831
21
1368.7722439486
31
0.0034169304138581
  0
LINE
 8
GROUP0
10
190.929865880908
20
1370.60936127386
30
4.87516069959337e-005
11
191.291637312237
21
1370.45951064051
31
4.89160358441765e-005
  0
LINE
 8
GROUP0
10
231.929865742208
20
1370.60936124858
30
0.00341610279951641
11
232.291637173146
21
1370.4595106154
31
0.00341626722836465
  0
LINE
 8
GROUP0
10
232.602297343715
20
1370.22113268242
30
0.00341643554424764
11
232.84067527668
21
1369.91047251184
31
0.00341659627671484
  0
LINE
 8
GROUP0
10
191.602297483097
20
1368.09981236967
30
4.96087462830697e-005
11
191.291637312184
21
1367.86143443644
31
4.95582854214305e-005
  0
LINE
 8
GROUP0
10
230.092748523239
20
1522.54870108299
30
0.00341922621983844
11
230.242599156583
21
1522.91047251432
31
0.00341918955403359
  0
LINE
 8
GROUP0
10
230.791637260731
20
1523.45951061845
30
0.00341924715575465
11
231.153408692066
21
1523.60936125177
31
0.00341933749783858
  0
LINE
 8
GROUP0
10
232.291637256525
20
1523.45951061841
30
0.00341977532952106
11
232.602297427428
21
1523.22113268518
31
0.00341994364535893
  0
LINE
 8
GROUP0
10
189.092748578935
20
1368.77224397196
30
4.85588678569904e-005
11
189.04163731852
21
1369.16047253852
31
4.84448999155063e-005
  0
LINE
 8
GROUP0
10
230.480977089818
20
1523.22113268522
30
0.00341919669484789
11
230.791637260731
21
1523.45951061845
31
0.00341924715575465
  0
LINE
 8
GROUP0
10
231.929865825196
20
1523.60936125176
30
0.00341961090067281
11
232.291637256525
21
1523.45951061841
31
0.00341977532952106
  0
LINE
 8
GROUP0
10
231.541637258632
20
1523.66047251219
30
0.0034194615644565
11
231.929865825196
21
1523.60936125176
31
0.00341961090067281
  0
LINE
 8
GROUP0
10
232.84067536062
20
1521.41047251847
30
0.00342047518077355
11
232.602297427385
21
1521.09981234757
31
0.00342046803995995
  0
LINE
 8
GROUP0
10
233.041637254395
20
1522.16047251637
30
0.00342036054117033
11
232.990525993964
21
1521.7722439498
31
0.00342043851496939
  0
LINE
 8
GROUP0
10
231.541637258571
20
1520.6604725206
30
0.00342020317035134
11
231.153408692007
21
1520.71158378103
31
0.00342005383413502
  0
LINE
 8
GROUP0
10
189.242599296235
20
1521.41047253981
30
5.22091644154121e-005
11
189.092748663067
21
1521.77224397076
31
5.20669690133979e-005
  0
LINE
 8
GROUP0
10
189.092748663083
20
1522.54870110305
30
5.18750272728519e-005
11
189.242599296266
21
1522.91047253399
31
5.18383614679929e-005
  0
LINE
 8
GROUP0
10
232.84067536065
20
1522.91047251427
30
0.00342010437782613
11
232.99052599398
21
1522.54870108293
31
0.00342024657322885
  0
LINE
 8
GROUP0
10
190.153408747778
20
1370.60936127387
30
4.84782041165754e-005
11
190.541637314344
21
1370.66047253429
31
4.86022707796185e-005
  0
LINE
 8
GROUP0
10
189.242599296266
20
1522.91047253399
30
5.18383614679929e-005
11
189.480977229243
21
1523.22113270456
31
5.18455022822939e-005
  0
LINE
 8
GROUP0
10
189.480977229243
20
1523.22113270456
30
5.18455022822939e-005
11
189.791637399821
21
1523.45951063752
31
5.18959631890525e-005
  0
LINE
 8
GROUP0
10
232.291637256472
20
1520.86143441435
30
0.00342041757905319
11
231.929865825137
21
1520.71158378102
31
0.00342032723696926
  0
LINE
 8
GROUP0
10
231.929865825137
20
1520.71158378102
30
0.00342032723696926
11
231.541637258571
21
1520.6604725206
31
0.00342020317035134
  0
LINE
 8
GROUP0
10
189.041637402708
20
1522.16047253691
30
5.19530010719138e-005
11
189.092748663083
21
1522.54870110305
31
5.18750272728519e-005
  0
LINE
 8
GROUP0
10
189.791637399821
20
1523.45951063752
30
5.18959631890525e-005
11
190.153408830766
21
1523.60936127069
31
5.1986305272983e-005
  0
LINE
 8
GROUP0
10
230.242599156552
20
1521.41047251853
30
0.00341956035698101
11
230.092748523223
21
1521.77224394986
31
0.00341941816157899
  0
LINE
 8
GROUP0
10
190.153408830707
20
1520.71158380308
30
5.27026415694298e-005
11
189.791637399768
21
1520.86143443626
31
5.25382127211871e-005
  0
LINE
 8
GROUP0
10
231.153408692066
20
1523.60936125177
30
0.00341933749783858
11
231.541637258632
21
1523.66047251219
31
0.0034194615644565
  0
LINE
 8
GROUP0
10
230.242599156583
20
1522.91047251432
30
0.00341918955403359
11
230.480977089818
21
1523.22113268522
31
0.00341919669484789
  0
LINE
 8
GROUP0
10
189.791637316443
20
1370.45951064054
30
4.8387862032645e-005
11
190.153408747778
21
1370.60936127387
31
4.84782041165754e-005
  0
LINE
 8
GROUP0
10
230.480977089774
20
1521.09981234761
30
0.00341972108944891
11
230.242599156552
21
1521.41047251853
31
0.00341956035698101
  0
LINE
 8
GROUP0
10
190.929865880849
20
1367.71158380311
30
4.94679433375e-005
11
190.541637314283
21
1367.6604725427
31
4.93438766744569e-005
  0
LINE
 8
GROUP0
10
232.99052599398
20
1522.54870108293
30
0.00342024657322885
11
233.041637254395
21
1522.16047251637
31
0.00342036054117033
  0
LINE
 8
GROUP0
10
189.092748578951
20
1369.54870110509
30
4.83669261164443e-005
11
189.242599212295
21
1369.91047253642
31
4.83302603115854e-005
  0
LINE
 8
GROUP0
10
232.602297427385
20
1521.09981234757
30
0.00342046803995995
11
232.291637256472
21
1520.86143441435
31
0.00342041757905319
  0
LINE
 8
GROUP0
10
232.990525993964
20
1521.7722439498
30
0.00342043851496939
11
232.84067536062
21
1521.41047251847
31
0.00342047518077355
  0
LINE
 8
GROUP0
10
232.602297427428
20
1523.22113268518
30
0.00341994364535893
11
232.84067536065
21
1522.91047251427
31
0.00342010437782613
  0
LINE
 8
GROUP0
10
392.321041833499
20
1379.30008794938
30
0.000113115151624443
11
392.631702005279
21
1379.53846588328
31
0.00011316508476954
  0
LINE
 8
GROUP0
10
190.929865963058
20
1523.60936127067
30
5.22597081072218e-005
11
191.291637393996
21
1523.45951063749
31
5.24241369554645e-005
  0
LINE
 8
GROUP0
10
391.182813265846
20
1379.15023731562
30
0.000112704532276597
11
391.5710418335
21
1379.09912605506
31
0.000112876752091579
  0
LINE
 8
GROUP0
10
390.122153094067
20
1380.98735462271
30
0.000111699892034123
11
390.0710418335
21
1380.59912605506
31
0.000111801495753605
  0
LINE
 8
GROUP0
10
231.153408692007
20
1520.71158378103
30
0.00342005383413502
11
230.791637260678
21
1520.86143441438
31
0.00341988940528678
  0
LINE
 8
GROUP0
10
189.791637399768
20
1520.86143443626
30
5.25382127211871e-005
11
189.4809772292
21
1521.09981236924
31
5.23698968833142e-005
  0
LINE
 8
GROUP0
10
390.8210418335
20
1379.30008794938
30
0.000112511883684663
11
391.182813265846
21
1379.15023731562
31
0.000112704532276597
  0
LINE
 8
GROUP0
10
191.291637393996
20
1523.45951063749
30
5.24241369554645e-005
11
191.602297564565
21
1523.22113270451
31
5.25924527933375e-005
  0
LINE
 8
GROUP0
10
390.272003727824
20
1379.84912605506
30
0.000112118312561216
11
390.51038166172
21
1379.53846588328
31
0.000112311935042675
  0
LINE
 8
GROUP0
10
390.51038166172
20
1379.53846588328
30
0.000112311935042675
11
390.8210418335
21
1379.30008794938
31
0.000112511883684663
  0
LINE
 8
GROUP0
10
190.541637396852
20
1520.6604725427
30
5.2851977785745e-005
11
190.153408830707
21
1520.71158380308
31
5.27026415694298e-005
  0
LINE
 8
GROUP0
10
190.153408830766
20
1523.60936127069
30
5.1986305272983e-005
11
190.541637396913
21
1523.66047253105
31
5.21103718909066e-005
  0
LINE
 8
GROUP0
10
191.602297564522
20
1521.09981236919
30
5.31168473943577e-005
11
191.291637393943
21
1520.86143443623
31
5.30663864875991e-005
  0
LINE
 8
GROUP0
10
189.092748663067
20
1521.77224397076
30
5.20669690133979e-005
11
189.041637402708
21
1522.16047253691
31
5.19530010719138e-005
  0
LINE
 8
GROUP0
10
191.291637393943
20
1520.86143443623
30
5.30663864875991e-005
11
190.929865962999
21
1520.71158380306
31
5.29760444036687e-005
  0
LINE
 8
GROUP0
10
392.631702005279
20
1379.53846588328
30
0.00011316508476954
11
392.870079939176
21
1379.84912605506
31
0.000113163203269573
  0
LINE
 8
GROUP0
10
191.990526130697
20
1522.54870110299
30
5.28953806632537e-005
11
192.041637391057
21
1522.16047253684
31
5.30093486047378e-005
  0
LINE
 8
GROUP0
10
190.541637396913
20
1523.66047253105
30
5.21103718909066e-005
11
190.929865963058
21
1523.60936127067
31
5.22597081072218e-005
  0
LINE
 8
GROUP0
10
192.041637391057
20
1522.16047253684
30
5.30093486047378e-005
11
191.990526130682
21
1521.7722439707
31
5.30873224037998e-005
  0
LINE
 8
GROUP0
10
189.4809772292
20
1521.09981236924
30
5.23698968833142e-005
11
189.242599296235
21
1521.41047253981
31
5.22091644154121e-005
  0
LINE
 8
GROUP0
10
191.602297564565
20
1523.22113270451
30
5.25924527933375e-005
11
191.84067549753
21
1522.91047253394
31
5.27531852605345e-005
  0
LINE
 8
GROUP0
10
391.5710418335
20
1382.09912605506
30
0.000111932775295898
11
391.182813265846
21
1382.04801479449
31
0.000111792720640419
  0
LINE
 8
GROUP0
10
191.990526130682
20
1521.7722439707
30
5.30873224037998e-005
11
191.840675497499
21
1521.41047253976
31
5.31239882079537e-005
  0
LINE
 8
GROUP0
10
391.959270401153
20
1379.15023731562
30
0.000113016806747057
11
392.321041833499
21
1379.30008794938
31
0.000113115151624443
  0
LINE
 8
GROUP0
10
390.272003727824
20
1381.34912605506
30
0.000111646324117903
11
390.122153094067
21
1380.98735462271
31
0.000111699892034123
  0
LINE
 8
GROUP0
10
391.959270401154
20
1382.04801479449
30
0.000112104995110879
11
391.5710418335
21
1382.09912605506
31
0.000111932775295898
  0
LINE
 8
GROUP0
10
392.3210418335
20
1381.89816416073
30
0.000112297643702813
11
391.959270401154
21
1382.04801479449
31
0.000112104995110879
  0
LINE
 8
GROUP0
10
230.791637260678
20
1520.86143441438
30
0.00341988940528678
11
230.480977089774
21
1521.09981234761
31
0.00341972108944891
  0
LINE
 8
GROUP0
10
230.092748523223
20
1521.77224394986
30
0.00341941816157899
11
230.041637262808
21
1522.16047251643
31
0.00341930419363751
  0
LINE
 8
GROUP0
10
190.929865962999
20
1520.71158380306
30
5.29760444036687e-005
11
190.541637396852
21
1520.6604725427
31
5.2851977785745e-005
  0
LINE
 8
GROUP0
10
191.84067549753
20
1522.91047253394
30
5.27531852605345e-005
11
191.990526130697
21
1522.54870110299
31
5.28953806632537e-005
  0
LINE
 8
GROUP0
10
191.840675497499
20
1521.41047253976
30
5.31239882079537e-005
11
191.602297564522
21
1521.09981236919
31
5.31168473943577e-005
  0
LINE
 8
GROUP0
10
392.870079939176
20
1379.84912605506
30
0.000113163203269573
11
393.019930572933
21
1380.2108974874
31
0.000113109635353353
  0
LINE
 8
GROUP0
10
291.599003591664
20
1479.54597721732
30
0.000131383224154585
11
291.83738152556
21
1479.23531704554
31
0.000131576846681164
  0
LINE
 8
GROUP0
10
296.568374000933
20
1387.51436467223
30
0.000129965303251212
11
296.517262740367
21
1387.12613610457
31
0.000130066906970694
  0
LINE
 8
GROUP0
10
391.5710418335
20
1379.09912605506
30
0.000112876752091579
11
391.959270401153
21
1379.15023731562
31
0.000113016806747057
  0
LINE
 8
GROUP0
10
392.870079939176
20
1381.34912605506
30
0.00011269121482626
11
392.631702005279
21
1381.65978622684
31
0.000112497592344801
  0
LINE
 8
GROUP0
10
391.182813265846
20
1382.04801479449
30
0.000111792720640419
11
390.8210418335
21
1381.89816416073
31
0.000111694375763033
  0
LINE
 8
GROUP0
10
298.767262740366
20
1385.8270979989
30
0.000131380562931771
11
299.077922912146
21
1386.06547593279
31
0.000131430496031043
  0
LINE
 8
GROUP0
10
390.0710418335
20
1380.59912605506
30
0.000111801495753605
11
390.122153094067
21
1380.2108974874
31
0.000111944211201148
  0
LINE
 8
GROUP0
10
297.267262740366
20
1385.8270979989
30
0.000130777294946871
11
297.629034172712
21
1385.67724736514
31
0.000130969943538101
  0
LINE
 8
GROUP0
10
296.956602568587
20
1386.06547593279
30
0.000130577346304178
11
297.267262740366
21
1385.8270979989
31
0.000130777294946871
  0
LINE
 8
GROUP0
10
299.517262740366
20
1387.12613610457
30
0.000131273442940494
11
299.466151479799
21
1387.51436467223
31
0.000131130727493656
  0
LINE
 8
GROUP0
10
296.568374000933
20
1386.73790753692
30
0.000130209622417532
11
296.71822463469
21
1386.37613610457
31
0.0001303837237776
  0
LINE
 8
GROUP0
10
390.8210418335
20
1381.89816416073
30
0.000111694375763033
11
390.51038166172
21
1381.65978622684
31
0.000111644442617936
  0
LINE
 8
GROUP0
10
296.71822463469
20
1386.37613610457
30
0.0001303837237776
11
296.956602568587
21
1386.06547593279
31
0.000130577346304178
  0
LINE
 8
GROUP0
10
393.071041833499
20
1380.59912605506
30
0.000113008031633166
11
393.019930572933
21
1380.98735462271
31
0.000112865316186328
  0
LINE
 8
GROUP0
10
390.51038166172
20
1381.65978622684
30
0.000111644442617936
11
390.272003727824
21
1381.34912605506
31
0.000111646324117903
  0
LINE
 8
GROUP0
10
299.077922912146
20
1386.06547593279
30
0.000131430496031043
11
299.316300846042
21
1386.37613610457
31
0.000131428614576196
  0
LINE
 8
GROUP0
10
299.316300846042
20
1386.37613610457
30
0.000131428614576196
11
299.466151479799
21
1386.73790753692
31
0.000131375046659976
  0
LINE
 8
GROUP0
10
299.466151479799
20
1386.73790753692
30
0.000131375046659976
11
299.517262740366
21
1387.12613610457
31
0.000131273442940494
  0
LINE
 8
GROUP0
10
296.517262740367
20
1387.12613610457
30
0.000130066906970694
11
296.568374000933
21
1386.73790753692
31
0.000130209622417532
  0
LINE
 8
GROUP0
10
298.40549130802
20
1385.67724736514
30
0.00013128221800856
11
298.767262740366
21
1385.8270979989
31
0.000131380562931771
  0
LINE
 8
GROUP0
10
298.017262740366
20
1385.62613610457
30
0.000131142163353787
11
298.40549130802
21
1385.67724736514
31
0.00013128221800856
  0
LINE
 8
GROUP0
10
299.077922912146
20
1388.18679627635
30
0.00013076300360701
11
298.767262740366
21
1388.42517421025
31
0.000130563054964317
  0
LINE
 8
GROUP0
10
393.019930572933
20
1380.2108974874
30
0.000113109635353353
11
393.071041833499
21
1380.59912605506
31
0.000113008031633166
  0
LINE
 8
GROUP0
10
390.122153094067
20
1380.2108974874
30
0.000111944211201148
11
390.272003727824
21
1379.84912605506
31
0.000112118312561216
  0
LINE
 8
GROUP0
10
291.449152957907
20
1479.90774864966
30
0.000131209122794518
11
291.599003591664
21
1479.54597721732
31
0.000131383224154585
  0
LINE
 8
GROUP0
10
297.267262740366
20
1388.42517421025
30
0.000129959786979417
11
296.956602568587
21
1388.18679627635
31
0.000129909853880145
  0
LINE
 8
GROUP0
10
392.631702005279
20
1381.65978622684
30
0.000112497592344801
11
392.3210418335
21
1381.89816416073
31
0.000112297643702813
  0
LINE
 8
GROUP0
10
298.767262740366
20
1388.42517421025
30
0.000130563054964317
11
298.40549130802
21
1388.57502484401
31
0.000130370406373087
  0
LINE
 8
GROUP0
10
393.019930572933
20
1380.98735462271
30
0.000112865316186328
11
392.870079939176
21
1381.34912605506
31
0.00011269121482626
  0
LINE
 8
GROUP0
10
297.629034172712
20
1385.67724736514
30
0.000130969943538101
11
298.017262740366
21
1385.62613610457
31
0.000131142163353787
  0
LINE
 8
GROUP0
10
298.40549130802
20
1388.57502484401
30
0.000130370406373087
11
298.017262740366
21
1388.62613610457
31
0.000130198186557401
  0
LINE
 8
GROUP0
10
296.71822463469
20
1387.87613610457
30
0.000129911735334287
11
296.568374000933
21
1387.51436467223
31
0.000129965303251212
  0
LINE
 8
GROUP0
10
291.837381525561
20
1481.3566373891
30
0.00013090935425713
11
291.599003591664
21
1481.04597721732
31
0.000130911235711273
  0
LINE
 8
GROUP0
10
293.958701869119
20
1479.23531704554
30
0.000132429996408029
11
294.197079803016
21
1479.54597721732
31
0.000132428114953181
  0
LINE
 8
GROUP0
10
297.629034172713
20
1388.57502484401
30
0.000130058131902627
11
297.267262740366
21
1388.42517421025
31
0.000129959786979417
  0
LINE
 8
GROUP0
10
293.286270264994
20
1481.74486595675
30
0.000131369906749368
11
292.89804169734
21
1481.79597721732
31
0.000131197686934387
  0
LINE
 8
GROUP0
10
293.95870186912
20
1481.3566373891
30
0.000131762503983995
11
293.64804169734
21
1481.59501532299
31
0.000131562555341302
  0
LINE
 8
GROUP0
10
291.39804169734
20
1480.29597721732
30
0.00013106640734768
11
291.449152957907
21
1479.90774864966
31
0.000131209122794518
  0
LINE
 8
GROUP0
10
294.346930436773
20
1480.68420578497
30
0.000132130227870642
11
294.197079803016
21
1481.04597721732
31
0.000131956126509869
  0
LINE
 8
GROUP0
10
294.39804169734
20
1480.29597721732
30
0.00013227294331748
11
294.346930436773
21
1480.68420578497
31
0.000132130227870642
  0
LINE
 8
GROUP0
10
294.346930436773
20
1479.90774864966
30
0.000132374547036962
11
294.39804169734
21
1480.29597721732
31
0.00013227294331748
  0
LINE
 8
GROUP0
10
293.64804169734
20
1481.59501532299
30
0.000131562555341302
11
293.286270264994
21
1481.74486595675
31
0.000131369906749368
  0
LINE
 8
GROUP0
10
214.04186019413
20
1556.66732244913
30
0.000283495860102834
11
217.14768122695
21
1557.07626956165
31
0.000284755311764445
  0
LINE
 8
GROUP0
10
296.956602568587
20
1388.18679627635
30
0.000129909853880145
11
296.71822463469
21
1387.87613610457
31
0.000129911735334287
  0
LINE
 8
GROUP0
10
291.449152957907
20
1480.68420578497
30
0.000130964803628197
11
291.39804169734
21
1480.29597721732
31
0.00013106640734768
  0
LINE
 8
GROUP0
10
224.43383452856
20
1574.66751326569
30
0.000282847792764118
11
222.526765423904
21
1577.15275962346
31
0.000281274509224483
  0
LINE
 8
GROUP0
10
291.599003591664
20
1481.04597721732
30
0.000130911235711273
11
291.449152957907
21
1480.68420578497
31
0.000130964803628197
  0
LINE
 8
GROUP0
10
294.197079803016
20
1479.54597721732
30
0.000132428114953181
11
294.346930436773
21
1479.90774864966
31
0.000132374547036962
  0
LINE
 8
GROUP0
10
292.89804169734
20
1481.79597721732
30
0.000131197686934387
11
292.509813129686
21
1481.74486595675
31
0.000131057632278908
  0
LINE
 8
GROUP0
10
298.017262740366
20
1388.62613610457
30
0.000130198186557401
11
297.629034172713
21
1388.57502484401
31
0.000130058131902627
  0
LINE
 8
GROUP0
10
220.041830673224
20
1558.27512777319
30
0.00028568985552902
11
222.527077030997
21
1560.18219687784
31
0.000286235808244351
  0
LINE
 8
GROUP0
10
224.434054868044
20
1562.66751326771
30
0.000286355961051238
11
225.632806796211
21
1565.561706738
31
0.000286042127548913
  0
LINE
 8
GROUP0
10
299.466151479799
20
1387.51436467223
30
0.000131130727493656
11
299.316300846042
21
1387.87613610457
31
0.000130956626132883
  0
LINE
 8
GROUP0
10
292.14804169734
20
1481.59501532299
30
0.000130959287356403
11
291.837381525561
21
1481.3566373891
31
0.00013090935425713
  0
LINE
 8
GROUP0
10
225.632692740103
20
1571.77336381941
30
0.000284226166049351
11
224.43383452856
21
1574.66751326569
31
0.000282847792764118
  0
LINE
 8
GROUP0
10
385.049323626459
20
1325.42013328904
30
0.000140534327292846
11
385.049320122811
21
1345.42013328904
31
0.00013479853263812
  0
LINE
 8
GROUP0
10
385.049320122811
20
1345.42013328904
30
0.00013479853263812
11
365.049320122814
21
1345.4201297854
31
0.000134798536157438
  0
LINE
 8
GROUP0
10
299.316300846042
20
1387.87613610457
30
0.000130956626132883
11
299.077922912146
21
1388.18679627635
31
0.00013076300360701
  0
LINE
 8
GROUP0
10
222.526765423904
20
1577.15275962346
30
0.000281274509224483
11
220.041449034038
21
1579.05973746051
31
0.000279613530272704
  0
LINE
 8
GROUP0
10
294.197079803016
20
1481.04597721732
30
0.000131956126509869
11
293.95870186912
21
1481.3566373891
31
0.000131762503983995
  0
LINE
 8
GROUP0
10
365.049323626458
20
1325.4201297854
30
0.000140534330812164
11
385.049323626459
21
1325.42013328904
31
0.000140534327292846
  0
LINE
 8
GROUP0
10
292.509813129686
20
1481.74486595675
30
0.000131057632278908
11
292.14804169734
21
1481.59501532299
31
0.000130959287356403
  0
LINE
 8
GROUP0
10
291.83738152556
20
1479.23531704554
30
0.000131576846681164
11
292.14804169734
21
1478.99693911164
31
0.000131776795323152
  0
LINE
 8
GROUP0
10
202.041639856667
20
1568.66710210762
30
0.000274659690187556
11
202.450586969182
21
1565.56128107479
31
0.000275749219116139
  0
LINE
 8
GROUP0
10
220.041449034038
20
1579.05973746051
30
0.000279613530272704
11
217.147255563748
21
1580.25848938868
31
0.000277978050523808
  0
LINE
 8
GROUP0
10
210.935598482334
20
1580.25837533256
30
0.000275220073582227
11
208.041449036062
21
1579.05951712102
31
0.000274285528734786
  0
LINE
 8
GROUP0
10
343.450227887021
20
1565.5640212096
30
0.000333185013144888
11
344.649086588297
21
1562.66987196619
31
0.000334563385438197
  0
LINE
 8
GROUP0
10
222.527077030997
20
1560.18219687784
30
0.000286235808244351
11
224.434054868044
21
1562.66751326771
31
0.000286355961051238
  0
LINE
 8
GROUP0
10
208.041830675248
20
1558.2749074337
30
0.000280361853900862
11
210.936024145535
21
1557.07615550553
31
0.000281997334010714
  0
LINE
 8
GROUP0
10
203.649445180725
20
1562.66713162852
30
0.000277127592041121
11
205.55651428538
21
1560.18188527075
31
0.000278700876301963
  0
LINE
 8
GROUP0
10
214.041419515156
20
1580.66732244508
30
0.00027647952388955
11
210.935598482334
21
1580.25837533256
31
0.000275220073582227
  0
LINE
 8
GROUP0
10
202.450586969182
20
1565.56128107479
30
0.000275749219116139
11
203.649445180725
21
1562.66713162852
31
0.000277127592041121
  0
LINE
 8
GROUP0
10
205.55651428538
20
1560.18188527075
30
0.000278700876301963
11
208.041830675248
21
1558.2749074337
31
0.000280361853900862
  0
LINE
 8
GROUP0
10
226.041639852618
20
1568.66754278659
30
0.000285315693534111
11
225.632692740103
21
1571.77336381941
31
0.000284226166049351
  0
LINE
 8
GROUP0
10
203.649224841238
20
1574.6671316265
30
0.000273619423754001
11
202.450472913073
21
1571.77293815621
31
0.000273933257436099
  0
LINE
 8
GROUP0
10
365.049320122814
20
1345.4201297854
30
0.000134798536157438
11
365.049323626458
21
1325.4201297854
31
0.000140534330812164
  0
LINE
 8
GROUP0
10
343.450112779807
20
1571.77567829099
30
0.000331369051285074
11
343.041280248952
21
1568.66984217322
31
0.000332095485208933
  0
LINE
 8
GROUP0
10
208.041449036062
20
1579.05951712102
30
0.000274285528734786
11
205.55620267829
21
1577.15244801637
31
0.000273739577101617
  0
LINE
 8
GROUP0
10
367.041280244829
20
1568.67028691336
30
0.00034275148747262
11
366.632332606761
21
1571.77610787698
31
0.00034166195953737
  0
LINE
 8
GROUP0
10
365.433473905484
20
1574.67025712039
30
0.000340283585619761
11
363.52640438029
21
1577.15550315545
31
0.000338710301358919
  0
LINE
 8
GROUP0
10
205.55620267829
20
1577.15244801637
30
0.000273739577101617
11
203.649224841238
21
1574.6671316265
31
0.000273619423754001
  0
LINE
 8
GROUP0
10
366.632447713975
20
1565.56445079559
30
0.000343477921487423
11
367.041280244829
21
1568.67028691336
31
0.00034275148747262
  0
LINE
 8
GROUP0
10
351.935666499184
20
1557.0788970762
30
0.000339433130295436
11
355.041502616959
21
1556.67006454535
31
0.000340931654222526
  0
LINE
 8
GROUP0
10
346.555841634728
20
1577.15518867669
30
0.000331175370589637
11
344.648864218231
21
1574.66987196413
31
0.000331055217602272
  0
LINE
 8
GROUP0
10
210.936024145535
20
1557.07615550553
30
0.000281997334010714
11
214.04186019413
21
1556.66732244913
31
0.000283495860102834
  0
LINE
 8
GROUP0
10
355.041502616959
20
1556.67006454535
30
0.000340931654222526
11
358.147323580578
21
1557.07901218342
31
0.000342191105883433
  0
LINE
 8
GROUP0
10
217.147255563748
20
1580.25848938868
30
0.000277978050523808
11
214.041419515156
21
1580.66732244508
31
0.00027647952388955
  0
LINE
 8
GROUP0
10
355.041057876823
20
1580.67006454123
30
0.000333915316384237
11
351.935236913203
21
1580.26111690316
31
0.000332655867430498
  0
LINE
 8
GROUP0
10
366.632332606761
20
1571.77610787698
30
0.00034166195953737
11
365.433473905484
21
1574.67025712039
31
0.000340283585619761
  0
LINE
 8
GROUP0
10
358.147323580578
20
1557.07901218342
30
0.000342191105883433
11
361.041472823989
21
1558.2778708847
31
0.000343125649287052
  0
LINE
 8
GROUP0
10
344.648864218231
20
1574.66987196413
30
0.000331055217602272
11
343.450112779807
21
1571.77567829099
31
0.000331369051285074
  0
LINE
 8
GROUP0
10
365.433696275551
20
1562.67025712245
30
0.000343791755531181
11
366.632447713975
21
1565.56445079559
31
0.000343477921487423
  0
LINE
 8
GROUP0
10
202.450472913073
20
1571.77293815621
30
0.000273933257436099
11
202.041639856667
21
1568.66710210762
31
0.000274659690187556
  0
LINE
 8
GROUP0
10
225.632806796211
20
1565.561706738
30
0.000286042127548913
11
226.041639852618
21
1568.66754278659
31
0.000285315693534111
  0
LINE
 8
GROUP0
10
217.14768122695
20
1557.07626956165
30
0.000284755311764445
11
220.041830673224
21
1558.27512777319
31
0.00028568985552902
  0
LINE
 8
GROUP0
10
196.841355887975
20
1584.16700555249
30
0.000275684398503662
11
196.899289985171
21
1583.72701422936
31
0.000275838748360946
  0
LINE
 8
GROUP0
10
197.06912815998
20
1583.31700969472
30
0.000276034018144861
11
197.339296221463
21
1582.96493308004
31
0.000276256899873106
  0
LINE
 8
GROUP0
10
202.513659929895
20
1580.81711077672
30
0.000275737382719954
11
202.683483119717
21
1581.22712151835
31
0.000275692923119225
  0
LINE
 8
GROUP0
10
201.041432351089
20
1579.96708374409
30
0.000275332201921397
11
201.481423664071
21
1580.02501791836
31
0.000275510622423908
  0
LINE
 8
GROUP0
10
351.935236913203
20
1580.26111690316
30
0.000332655867430498
11
349.041087669794
21
1579.06225820188
31
0.000331721321319711
  0
LINE
 8
GROUP0
10
199.839341680684
20
1580.46498014382
30
0.00027465291120245
11
197.339296221463
21
1582.96493308004
31
0.000276256899873106
  0
LINE
 8
GROUP0
10
202.243504736312
20
1580.46502428816
30
0.000275720360830517
11
202.513659929895
21
1580.81711077672
31
0.000275737382719954
  0
LINE
 8
GROUP0
10
196.899289985171
20
1583.72701422936
30
0.000275838748360946
11
197.06912815998
21
1583.31700969472
31
0.000276034018144861
  0
LINE
 8
GROUP0
10
230.743457266379
20
1582.96554674782
30
0.000291088352692059
11
228.243504751323
21
1580.46550170977
31
0.000287264364132594
  0
LINE
 8
GROUP0
10
202.683483119717
20
1581.22712151835
30
0.000275692923119225
11
202.74140113604
21
1581.66711495856
31
0.000275590010082255
  0
LINE
 8
GROUP0
10
202.513628715132
20
1582.51711077644
30
0.000275240392516551
11
202.243460591975
21
1582.86918734379
31
0.000275017510157338
  0
LINE
 8
GROUP0
10
198.981318400814
20
1585.80911837576
30
0.000276154499963582
11
198.541324970744
21
1585.86703646916
31
0.00027594220874072
  0
LINE
 8
GROUP0
10
201.481423664071
20
1580.02501791836
30
0.000275510622423908
11
201.891428168962
21
1580.194856165
31
0.000275643017022542
  0
LINE
 8
GROUP0
10
202.683466961768
20
1582.10710627155
30
0.00027543566157926
11
202.513628715132
21
1582.51711077644
31
0.000275240392516551
  0
LINE
 8
GROUP0
10
200.601438910872
20
1580.02500176041
30
0.000275119910427818
11
201.041432351089
21
1579.96708374409
31
0.000275332201921397
  0
LINE
 8
GROUP0
10
198.101333647614
20
1585.80910237196
30
0.000275763787426059
11
197.69132911297
21
1585.63926419715
31
0.000275631393007902
  0
LINE
 8
GROUP0
10
202.243938013587
20
1556.86918732878
30
0.000282618541566298
11
201.891851525022
21
1557.13934252236
31
0.000282383236187372
  0
LINE
 8
GROUP0
10
197.69132911297
20
1585.63926419715
30
0.000275631393007902
11
197.339252498291
21
1585.36909613567
31
0.0002755540493797
  0
LINE
 8
GROUP0
10
201.891428168962
20
1580.194856165
30
0.000275643017022542
11
202.243504736312
21
1580.46502428816
31
0.000275720360830517
  0
LINE
 8
GROUP0
10
198.541324970744
20
1585.86703646916
30
0.00027594220874072
11
198.101333647614
21
1585.80910237196
31
0.000275763787426059
  0
LINE
 8
GROUP0
10
227.891428183972
20
1580.19533358661
30
0.000287187021317248
11
228.243504751323
21
1580.46550170977
31
0.000287264364132594
  0
LINE
 8
GROUP0
10
361.041472823989
20
1558.2778708847
30
0.000343125649287052
11
363.526718859052
21
1560.18494040989
31
0.000343671601912143
  0
LINE
 8
GROUP0
10
196.89927398138
20
1584.60699898256
30
0.000275581488173859
11
196.841355887975
21
1584.16700555249
31
0.000275684398503662
  0
LINE
 8
GROUP0
10
199.839341680684
20
1580.46498014382
30
0.00027465291120245
11
200.191428169247
21
1580.19482495024
31
0.000274888216762559
  0
LINE
 8
GROUP0
10
199.743415553927
20
1585.36913985884
30
0.000276621498737051
11
202.243460591975
21
1582.86918734379
31
0.000275017510157338
  0
LINE
 8
GROUP0
10
199.743415553927
20
1585.36913985884
30
0.000276621498737051
11
199.391329112688
21
1585.63929511411
31
0.00027638619371908
  0
LINE
 8
GROUP0
10
202.74140113604
20
1581.66711495856
30
0.000275590010082255
11
202.683466961768
21
1582.10710627155
31
0.00027543566157926
  0
LINE
 8
GROUP0
10
197.339252498291
20
1585.36909613567
30
0.0002755540493797
11
197.069097243029
21
1585.01700969444
31
0.000275537027309786
  0
LINE
 8
GROUP0
10
197.069097243029
20
1585.01700969444
30
0.000275537027309786
11
196.89927398138
21
1584.60699898256
31
0.000275581488173859
  0
LINE
 8
GROUP0
10
200.191428169247
20
1580.19482495024
30
0.000274888216762559
11
200.601438910872
21
1580.02500176041
31
0.000275119910427818
  0
LINE
 8
GROUP0
10
363.526718859052
20
1560.18494040989
30
0.000343671601912143
11
365.433696275551
21
1562.67025712245
31
0.000343791755531181
  0
LINE
 8
GROUP0
10
199.391329112688
20
1585.63929511411
30
0.00027638619371908
11
198.981318400814
21
1585.80911837576
31
0.000276154499963582
  0
LINE
 8
GROUP0
10
229.981316390095
20
1585.80968832037
30
0.000289918502703274
11
229.541322960025
21
1585.86760641377
31
0.000289706212563279
  0
LINE
 8
GROUP0
10
231.013612521641
20
1583.31763318906
30
0.000291105374040063
11
231.183435783291
21
1583.72764390093
31
0.000291060913356467
  0
LINE
 8
GROUP0
10
200.191851525309
20
1557.1393113076
30
0.000281628435114534
11
199.839774957958
21
1556.86914318444
31
0.000281551092118709
  0
LINE
 8
GROUP0
10
200.601856030196
20
1557.30914955423
30
0.000281760829803407
11
200.191851525309
21
1557.1393113076
31
0.000281628435114534
  0
LINE
 8
GROUP0
10
230.743413543209
20
1585.36970980346
30
0.000290385501837698
11
230.391327101968
21
1585.63986505872
31
0.000290150195917338
  0
LINE
 8
GROUP0
10
226.191428184258
20
1580.19530237185
30
0.000286432220967026
11
226.60143892588
21
1580.02547918203
31
0.000286663914632285
  0
LINE
 8
GROUP0
10
202.683944383382
20
1556.10710625654
30
0.000283036691544397
11
202.514106136747
21
1556.51711076143
31
0.000282841422662872
  0
LINE
 8
GROUP0
10
225.399319167949
20
1582.10752339088
30
0.000285521502084074
11
225.341401151623
21
1581.66752995066
31
0.000285624414037472
  0
LINE
 8
GROUP0
10
227.041432366099
20
1579.9675611657
30
0.000286876204682041
11
227.481423679082
21
1580.02549533998
31
0.000287054626808853
  0
LINE
 8
GROUP0
10
231.183419779498
20
1584.60762865414
30
0.000290803652176752
11
231.013581604688
21
1585.01763318878
31
0.00029060838302451
  0
LINE
 8
GROUP0
10
229.10133163689
20
1585.80967231658
30
0.000289527790346228
11
228.69132710225
21
1585.63983414177
31
0.000289395395928071
  0
LINE
 8
GROUP0
10
201.481840783397
20
1557.30916571218
30
0.000282151541709258
11
201.04184734318
21
1557.36708372851
31
0.000281939251750446
  0
LINE
 8
GROUP0
10
201.891851525022
20
1557.13934252236
30
0.000282383236187372
11
201.481840783397
21
1557.30916571218
31
0.000282151541709258
  0
LINE
 8
GROUP0
10
225.839297551354
20
1582.86962062106
30
0.000285494064282543
11
228.339250487571
21
1585.36966608029
31
0.000289318052119392
  0
LINE
 8
GROUP0
10
227.481423679082
20
1580.02549533998
30
0.000287054626808853
11
227.891428183972
21
1580.19533358661
31
0.000287187021317248
  0
LINE
 8
GROUP0
10
201.04184734318
20
1557.36708372851
30
0.000281939251750446
11
200.601856030196
21
1557.30914955423
31
0.000281760829803407
  0
LINE
 8
GROUP0
10
228.69132710225
20
1585.63983414177
30
0.000289395395928071
11
228.339250487571
21
1585.36966608029
31
0.000289318052119392
  0
LINE
 8
GROUP0
10
202.243982157925
20
1554.46502427315
30
0.000283321392239477
11
202.514137351509
21
1554.81711076171
31
0.00028333841403938
  0
LINE
 8
GROUP0
10
231.241353876694
20
1584.167637331
30
0.000290958002846187
11
231.183419779498
21
1584.60762865414
31
0.000290803652176752
  0
LINE
 8
GROUP0
10
202.514106136747
20
1556.51711076143
30
0.000282841422662872
11
202.243938013587
21
1556.86918732878
31
0.000282618541566298
  0
LINE
 8
GROUP0
10
226.60143892588
20
1580.02547918203
30
0.000286663914632285
11
227.041432366099
21
1579.9675611657
31
0.000286876204682041
  0
LINE
 8
GROUP0
10
225.56914235777
20
1582.5175341325
30
0.000285477042663118
11
225.399319167949
21
1582.10752339088
31
0.000285521502084074
  0
LINE
 8
GROUP0
10
229.541322960025
20
1585.86760641377
30
0.000289706212563279
11
229.10133163689
21
1585.80967231658
31
0.000289527790346228
  0
LINE
 8
GROUP0
10
225.839341695695
20
1580.46545756543
30
0.0002861969151362
11
226.191428184258
21
1580.19530237185
31
0.000286432220967026
  0
LINE
 8
GROUP0
10
230.391327101968
20
1585.63986505872
30
0.000290150195917338
11
229.981316390095
21
1585.80968832037
31
0.000289918502703274
  0
LINE
 8
GROUP0
10
230.743457266379
20
1582.96554674782
30
0.000291088352692059
11
231.013612521641
21
1583.31763318906
31
0.000291105374040063
  0
LINE
 8
GROUP0
10
225.399335325898
20
1581.22753863768
30
0.000285778763353323
11
225.569173572535
21
1580.81753413279
31
0.000285974033498898
  0
LINE
 8
GROUP0
10
225.839297551354
20
1582.86962062106
30
0.000285494064282543
11
225.56914235777
21
1582.5175341325
31
0.000285477042663118
  0
LINE
 8
GROUP0
10
225.569173572535
20
1580.81753413279
30
0.000285974033498898
11
225.839341695695
21
1580.46545756543
31
0.0002861969151362
  0
LINE
 8
GROUP0
10
231.183435783291
20
1583.72764390093
30
0.000291060913356467
11
231.241353876694
21
1584.167637331
31
0.000290958002846187
  0
LINE
 8
GROUP0
10
231.013581604688
20
1585.01763318878
30
0.00029060838302451
11
230.743413543209
21
1585.36970980346
31
0.000290385501837698
  0
LINE
 8
GROUP0
10
225.341401151623
20
1581.66752995066
30
0.000285624414037472
11
225.399335325898
21
1581.22753863768
31
0.000285778763353323
  0
LINE
 8
GROUP0
10
231.183989724106
20
1553.60763066486
30
0.000299866419771183
11
231.0141515493
21
1554.0176351995
31
0.000299671151249908
  0
LINE
 8
GROUP0
10
230.391950596306
20
1551.69538069706
30
0.000300073775936377
11
230.744027210986
21
1551.96554875854
31
0.000300151120195546
  0
LINE
 8
GROUP0
10
202.514137351509
20
1554.81711076171
30
0.00028333841403938
11
202.683960541331
21
1555.22712150334
31
0.000283293952724112
  0
LINE
 8
GROUP0
10
229.981946061666
20
1551.52554252225
30
0.000299941382871804
11
230.391950596306
21
1551.69538069706
31
0.000300073775936377
  0
LINE
 8
GROUP0
10
230.744027210986
20
1551.96554875854
30
0.000300151120195546
11
231.014182466249
21
1552.31763519978
31
0.000300168141272833
  0
LINE
 8
GROUP0
10
196.841925832584
20
1553.16700756321
30
0.000284747166007149
11
196.89985992978
21
1552.72701624008
31
0.000284901515503477
  0
LINE
 8
GROUP0
10
415.041314266285
20
1303.67013131171
30
0.000246920924701027
11
154.041327359536
21
1303.67008630634
31
5.66341206038434e-005
  0
LINE
 8
GROUP0
10
154.041321867187
20
1336.17030456715
30
3.8256601112352e-005
11
154.041327359536
21
1303.67008630634
31
5.66341206038434e-005
  0
LINE
 8
GROUP0
10
202.741878557655
20
1555.66711494355
30
0.000283191042574787
11
202.683944383382
21
1556.10710625654
31
0.000283036691544397
  0
LINE
 8
GROUP0
10
231.241923821303
20
1553.16763934172
30
0.000300020769357046
11
231.183989724106
21
1553.60763066486
31
0.000299866419771183
  0
LINE
 8
GROUP0
10
197.3398224429
20
1554.36909814639
30
0.000284616816883893
11
197.069667187639
21
1554.01701170516
31
0.000284599795625423
  0
LINE
 8
GROUP0
10
196.89985992978
20
1552.72701624008
30
0.000284901515503477
11
197.069698104589
21
1552.31701170544
31
0.000285096785287392
  0
LINE
 8
GROUP0
10
198.101963319183
20
1551.52495657385
30
0.000285786665428855
11
198.541956749256
21
1551.46703848044
31
0.000285998957012673
  0
LINE
 8
GROUP0
10
197.691952607308
20
1551.69477983549
30
0.000285554973387897
11
198.101963319183
21
1551.52495657385
31
0.000285786665428855
  0
LINE
 8
GROUP0
10
198.981948072387
20
1551.52497257764
30
0.000286177379139485
11
199.391952607027
21
1551.69481075245
31
0.000286309773918597
  0
LINE
 8
GROUP0
10
196.899843925989
20
1553.60700099328
30
0.000284644254775662
11
196.841925832584
21
1553.16700756321
31
0.000284747166007149
  0
LINE
 8
GROUP0
10
229.101961308462
20
1551.52552651846
30
0.000299550669522131
11
229.541954738532
21
1551.46760842505
31
0.000299762960564515
  0
LINE
 8
GROUP0
10
231.0141515493
20
1554.0176351995
30
0.000299671151249908
11
230.743983487815
21
1554.36971181418
31
0.000299448269612607
  0
LINE
 8
GROUP0
10
197.069667187639
20
1554.01701170516
30
0.000284599795625423
11
196.899843925989
21
1553.60700099328
31
0.000284644254775662
  0
LINE
 8
GROUP0
10
202.683960541331
20
1555.22712150334
30
0.000283293952724112
11
202.741878557655
21
1555.66711494355
31
0.000283191042574787
  0
LINE
 8
GROUP0
10
231.014182466249
20
1552.31763519978
30
0.000300168141272833
11
231.184005727899
21
1552.72764591165
31
0.000300123681672104
  0
LINE
 8
GROUP0
10
197.339866166069
20
1551.96493509076
30
0.00028531966764731
11
197.691952607308
21
1551.69477983549
31
0.000285554973387897
  0
LINE
 8
GROUP0
10
231.184005727899
20
1552.72764591165
30
0.000300123681672104
11
231.241923821303
21
1553.16763934172
31
0.000300020769357046
  0
LINE
 8
GROUP0
10
197.3398224429
20
1554.36909814639
30
0.000284616816883893
11
199.839774957958
21
1556.86914318444
31
0.000281551092118709
  0
LINE
 8
GROUP0
10
198.541956749256
20
1551.46703848044
30
0.000285998957012673
11
198.981948072387
21
1551.52497257764
31
0.000286177379139485
  0
LINE
 8
GROUP0
10
197.069698104589
20
1552.31701170544
30
0.000285096785287392
11
197.339866166069
21
1551.96493509076
31
0.00028531966764731
  0
LINE
 8
GROUP0
10
144.041557045736
20
1346.17008455455
30
3.255241700586e-005
11
154.041321867187
21
1336.17030456715
31
3.8256601112352e-005
  0
LINE
 8
GROUP0
10
229.541954738532
20
1551.46760842505
30
0.000299762960564515
11
229.981946061666
21
1551.52554252225
31
0.000299941382871804
  0
LINE
 8
GROUP0
10
202.243982157925
20
1554.46502427315
30
0.000283321392239477
11
199.744029221707
21
1551.96497881393
31
0.000286387116372988
  0
LINE
 8
GROUP0
10
199.391952607027
20
1551.69481075245
30
0.000286309773918597
11
199.744029221707
21
1551.96497881393
31
0.000286387116372988
  0
LINE
 8
GROUP0
10
425.04124183968
20
1346.17013304267
30
0.000228524382179529
11
415.041308773983
21
1336.17013131171
31
0.000225756181380377
  0
LINE
 8
GROUP0
10
425.04124183968
20
1346.17013304267
30
0.000228524382179529
11
461.552756138386
21
1346.17018789214
31
0.000228532642289991
  0
LINE
 8
GROUP0
10
404.023674128161
20
1315.60198114447
30
0.000236122386938203
11
404.541312206679
21
1315.67012958074
31
0.000236318259740931
  0
LINE
 8
GROUP0
10
107.54128152879
20
1584.67006518903
30
4.01373425717555e-005
11
145.541281498411
21
1584.67007177458
31
5.47883964046481e-005
  0
LINE
 8
GROUP0
10
461.541202385069
20
1584.67017477345
30
7.90295984778755e-005
11
461.552756138386
21
1346.17018789214
31
0.000228532642289991
  0
LINE
 8
GROUP0
10
404.541312206679
20
1315.67012958074
30
0.000236318259740931
11
405.058950308577
21
1315.60198132216
31
0.000236553010077839
  0
LINE
 8
GROUP0
10
415.041308773983
20
1336.17013131171
30
0.000225756181380377
11
415.041314266285
21
1303.67013131171
31
0.000246920924701027
  0
LINE
 8
GROUP0
10
155.541274408555
20
1625.67007348268
30
3.87066390768576e-005
11
413.541195316405
21
1625.67011810387
31
4.88444578355507e-005
  0
LINE
 8
GROUP0
10
144.041557045736
20
1346.17008455455
30
3.255241700586e-005
11
107.541320932257
21
1346.17007820471
31
0.0
  0
LINE
 8
GROUP0
10
405.058950308577
20
1315.60198132216
30
0.000236553010077839
11
405.541312252665
21
1315.40218055994
31
0.000236810634257739
  0
LINE
 8
GROUP0
10
423.54120240738
20
1584.6701198557
30
7.61298654758935e-005
11
461.541202385069
21
1584.67017477345
31
7.90295984778755e-005
  0
LINE
 8
GROUP0
10
145.541281498411
20
1584.67007177458
30
5.47883964046481e-005
11
155.541279769182
21
1594.67007350987
31
5.37749679171084e-005
  0
LINE
 8
GROUP0
10
405.541312252665
20
1315.40218055994
30
0.000236810634257739
11
405.955525869587
21
1315.08434338584
31
0.000237073582433545
  0
LINE
 8
GROUP0
10
107.541320932257
20
1346.17007820471
30
0.0
11
107.54128152879
21
1584.67006518903
31
4.01373425717555e-005
  0
LINE
 8
GROUP0
10
155.541279769182
20
1594.67007350987
30
5.37749679171084e-005
11
155.541274408555
21
1625.67007348268
31
3.87066390768576e-005
  0
LINE
 8
GROUP0
10
406.473164291365
20
1313.15249182211
30
0.000237839919301192
11
406.273363529147
21
1312.67012987802
31
0.000237894396861049
  0
LINE
 8
GROUP0
10
406.273363529147
20
1312.67012987802
30
0.000237894396861049
11
405.955526355047
21
1312.25591626109
31
0.000237880336156376
  0
LINE
 8
GROUP0
10
405.955526355047
20
1312.25591626109
30
0.000237880336156376
11
405.541312847223
21
1311.9380789448
31
0.000237798706626086
  0
LINE
 8
GROUP0
10
406.273363185882
20
1314.67012987802
30
0.000237323935772604
11
406.473164113689
21
1314.18776800251
31
0.00023754462666889
  0
LINE
 8
GROUP0
10
405.058950971724
20
1311.738278017
30
0.000237655058148217
11
404.541312893216
21
1311.67012958074
31
0.000237459181645694
  0
LINE
 8
GROUP0
10
402.609460986203
20
1313.15249115896
30
0.000236232823200194
11
402.541312549947
21
1313.67012923747
31
0.0002360568255727
  0
LINE
 8
GROUP0
10
403.541312847226
20
1311.93807860153
30
0.000236966810648204
11
403.127099230299
21
1312.25591577564
31
0.000236703862563342
  0
LINE
 8
GROUP0
10
402.541312549947
20
1313.67012923747
30
0.0002360568255727
11
402.609460808522
21
1314.18776733937
31
0.00023593753074837
  0
LINE
 8
GROUP0
10
406.541312549944
20
1313.67012992401
30
0.000237720619152765
11
406.473164291365
21
1313.15249182211
31
0.000237839919301192
  0
LINE
 8
GROUP0
10
405.955525869587
20
1315.08434338584
30
0.000237073582433545
11
406.273363185882
21
1314.67012987802
31
0.000237323935772604
  0
LINE
 8
GROUP0
10
406.473164113689
20
1314.18776800251
30
0.00023754462666889
11
406.541312549944
21
1313.67012992401
31
0.000237720619152765
  0
LINE
 8
GROUP0
10
403.127099230299
20
1312.25591577564
30
0.000236703862563342
11
402.80926191401
21
1312.67012928346
31
0.00023645351409648
  0
LINE
 8
GROUP0
10
404.541312893216
20
1311.67012958074
30
0.000237459181645694
11
404.023674791314
21
1311.73827783931
31
0.000237224438257183
  0
LINE
 8
GROUP0
10
402.80926191401
20
1312.67012928346
30
0.00023645351409648
11
402.609460986203
21
1313.15249115896
31
0.000236232823200194
  0
LINE
 8
GROUP0
10
404.023674791314
20
1311.73827783931
30
0.000237224438257183
11
403.541312847226
21
1311.93807860153
31
0.000236966810648204
  0
LINE
 8
GROUP0
10
405.541312847223
20
1311.9380789448
30
0.000237798706626086
11
405.058950971724
21
1311.738278017
31
0.000237655058148217
  0
LINE
 8
GROUP0
10
403.541312252662
20
1315.40218021667
30
0.000235978743152759
11
404.023674128161
21
1315.60198114447
31
0.000236122386938203
  0
LINE
 8
GROUP0
10
165.541325940464
20
1311.93803740138
30
5.52171141542657e-005
11
165.058964064959
21
1311.73823647358
31
5.50734701883437e-005
  0
LINE
 8
GROUP0
10
164.023687884545
20
1311.73823629589
30
5.46428506582652e-005
11
163.541325940463
21
1311.93803705811
31
5.43852232297637e-005
  0
LINE
 8
GROUP0
10
402.609460808522
20
1314.18776733937
30
0.00023593753074837
11
402.80926157074
21
1314.67012928346
31
0.000235883048135133
  0
LINE
 8
GROUP0
10
166.273376622388
20
1312.6700883346
30
5.5312809623087e-005
11
165.955539448285
21
1312.25587471767
31
5.52987518962988e-005
  0
LINE
 8
GROUP0
10
166.473177384608
20
1313.15245027868
30
5.52583317925126e-005
11
166.273376622388
21
1312.6700883346
31
5.5312809623087e-005
  0
LINE
 8
GROUP0
10
165.955539448285
20
1312.25587471767
30
5.52987518962988e-005
11
165.541325940464
21
1311.93803740138
31
5.52171141542657e-005
  0
LINE
 8
GROUP0
10
164.54132598645
20
1311.67008803732
30
5.48775944077318e-005
11
164.023687884545
21
1311.73823629589
31
5.46428506582652e-005
  0
LINE
 8
GROUP0
10
403.127098744843
20
1315.08434290038
30
0.00023589711226959
11
403.541312252662
21
1315.40218021667
31
0.000235978743152759
  0
LINE
 8
GROUP0
10
166.541325643181
20
1313.67008838059
30
5.51390315538469e-005
11
166.473177384608
21
1313.15245027868
31
5.52583317925126e-005
  0
LINE
 8
GROUP0
10
166.27337627912
20
1314.67008833459
30
5.47423484444032e-005
11
166.473177206916
21
1314.18772645909
31
5.49630393406886e-005
  0
LINE
 8
GROUP0
10
402.80926157074
20
1314.67012928346
30
0.000235883048135133
11
403.127098744843
21
1315.08434290038
31
0.00023589711226959
  0
LINE
 8
GROUP0
10
165.058964064959
20
1311.73823647358
30
5.50734701883437e-005
11
164.54132598645
21
1311.67008803732
31
5.48775944077318e-005
  0
LINE
 8
GROUP0
10
163.541325940463
20
1311.93803705811
30
5.43852232297637e-005
11
163.127112323543
21
1312.25587423221
31
5.41222755058579e-005
  0
LINE
 8
GROUP0
10
163.127112323543
20
1312.25587423221
30
5.41222755058579e-005
11
162.80927500725
21
1312.67008774004
31
5.38719246927832e-005
  0
LINE
 8
GROUP0
10
166.473177206916
20
1314.18772645909
30
5.49630393406886e-005
11
166.541325643181
21
1313.67008838059
31
5.51390315538469e-005
  0
LINE
 8
GROUP0
10
165.5413253459
20
1315.40213901652
30
5.42290518024402e-005
11
165.955538962831
21
1315.08430184242
31
5.44919999782456e-005
  0
LINE
 8
GROUP0
10
163.541325345904
20
1315.40213867325
30
5.33971556440804e-005
11
164.023687221405
21
1315.60193960105
31
5.35408046633823e-005
  0
LINE
 8
GROUP0
10
164.023687221405
20
1315.60193960105
30
5.35408046633823e-005
11
164.541325299911
21
1315.67008803731
31
5.37366721420129e-005
  0
LINE
 8
GROUP0
10
165.955538962831
20
1315.08430184242
30
5.44919999782456e-005
11
166.27337627912
21
1314.67008833459
31
5.47423484444032e-005
  0
LINE
 8
GROUP0
10
445.54129563935
20
1573.67012366401
30
8.40178554523674e-005
11
445.609443897177
21
1574.18776176601
31
8.38985533186842e-005
  0
LINE
 8
GROUP0
10
162.609474079449
20
1313.15244961554
30
5.36512341574535e-005
11
162.541325643185
21
1313.67008769405
31
5.34752432978791e-005
  0
LINE
 8
GROUP0
10
162.809274663984
20
1314.67008774003
30
5.33014605362148e-005
11
163.127111838086
21
1315.08430135696
31
5.33155216025483e-005
  0
LINE
 8
GROUP0
10
162.80927500725
20
1312.67008774004
30
5.38719246927832e-005
11
162.609474079449
21
1313.15244961554
31
5.36512341574535e-005
  0
LINE
 8
GROUP0
10
163.127111838086
20
1315.08430135696
30
5.33155216025483e-005
11
163.541325345904
21
1315.40213867325
31
5.33971556440804e-005
  0
LINE
 8
GROUP0
10
165.058963401815
20
1315.60193977874
30
5.39714241934608e-005
11
165.5413253459
21
1315.40213901652
31
5.42290518024402e-005
  0
LINE
 8
GROUP0
10
445.609444076375
20
1573.1524855856
30
8.41938457712132e-005
11
445.54129563935
21
1573.67012366401
31
8.40178554523674e-005
  0
LINE
 8
GROUP0
10
162.541325643185
20
1313.67008769405
30
5.34752432978791e-005
11
162.609473901766
21
1314.18772579595
31
5.33559417056295e-005
  0
LINE
 8
GROUP0
10
445.609443897177
20
1574.18776176601
30
8.38985533186842e-005
11
445.809244658687
21
1574.67012371039
31
8.38440783764605e-005
  0
LINE
 8
GROUP0
10
445.809244658687
20
1574.67012371039
30
8.38440783764605e-005
11
446.127081832185
21
1575.08433732778
31
8.38581349301426e-005
  0
LINE
 8
GROUP0
10
162.609473901766
20
1314.18772579595
30
5.33559417056295e-005
11
162.809274663984
21
1314.67008774003
31
5.33014605362148e-005
  0
LINE
 8
GROUP0
10
164.541325299911
20
1315.67008803731
30
5.37366721420129e-005
11
165.058963401815
21
1315.60193977874
31
5.39714241934608e-005
  0
LINE
 8
GROUP0
10
448.541295339538
20
1575.40217499087
30
8.47716639569285e-005
11
448.955508956931
21
1575.08433781738
31
8.50346124936896e-005
  0
LINE
 8
GROUP0
10
449.473147202324
20
1574.18776243481
30
8.55056528487608e-005
11
449.541295639352
21
1573.6701243564
31
8.56816437985741e-005
  0
LINE
 8
GROUP0
10
449.541295639352
20
1573.6701243564
30
8.56816437985741e-005
11
449.473147381531
21
1573.1524862544
31
8.58009453012898e-005
  0
LINE
 8
GROUP0
10
448.058933395161
20
1575.60197575239
30
8.45140386046273e-005
11
448.541295339538
21
1575.40217499087
31
8.47716639569285e-005
  0
LINE
 8
GROUP0
10
449.473147381531
20
1573.1524862544
30
8.58009453012898e-005
11
449.273346620017
21
1572.67012431002
31
8.5855425928566e-005
  0
LINE
 8
GROUP0
10
449.273346620017
20
1572.67012431002
30
8.5855425928566e-005
11
448.955509446521
21
1572.25591069263
31
8.58413647726985e-005
  0
LINE
 8
GROUP0
10
449.273346273824
20
1574.67012431002
30
8.52849614117468e-005
11
449.473147202324
21
1574.18776243481
31
8.55056528487608e-005
  0
LINE
 8
GROUP0
10
448.955509446521
20
1572.25591069263
30
8.58413647726985e-005
11
448.541295939168
21
1571.93807337574
31
8.57597330773785e-005
  0
LINE
 8
GROUP0
10
446.541295339545
20
1575.40217464468
30
8.39397693326305e-005
11
447.023657214746
21
1575.60197557318
31
8.40834168185756e-005
  0
LINE
 8
GROUP0
10
448.541295939168
20
1571.93807337574
30
8.57597330773785e-005
11
448.058934063953
21
1571.73827244723
31
8.56160851402388e-005
  0
LINE
 8
GROUP0
10
448.955508956931
20
1575.08433781738
30
8.50346124936896e-005
11
449.273346273824
21
1574.67012431002
31
8.52849614117468e-005
  0
LINE
 8
GROUP0
10
448.058934063953
20
1571.73827244723
30
8.56160851402388e-005
11
447.541295985549
21
1571.67012401021
31
8.54202131503667e-005
  0
LINE
 8
GROUP0
10
447.541295985549
20
1571.67012401021
30
8.54202131503667e-005
11
447.02365788354
21
1571.73827226803
31
8.51854619103642e-005
  0
LINE
 8
GROUP0
10
446.127081832185
20
1575.08433732778
30
8.38581349301426e-005
11
446.541295339545
21
1575.40217464468
31
8.39397693326305e-005
  0
LINE
 8
GROUP0
10
447.023657214746
20
1575.60197557318
30
8.40834168185756e-005
11
447.541295293155
21
1575.67012401021
31
8.42792898010758e-005
  0
LINE
 8
GROUP0
10
447.541295293155
20
1575.67012401021
30
8.42792898010758e-005
11
448.058933395161
21
1575.60197575239
31
8.45140386046273e-005
  0
LINE
 8
GROUP0
10
196.331334267439
20
1333.43247897975
30
0.000147731558072395
11
196.092956333539
21
1333.12181880797
31
0.000147728718407036
  0
LINE
 8
GROUP0
10
447.02365788354
20
1571.73827226803
30
8.51854619103642e-005
11
446.541295939169
21
1571.93807302954
31
8.4927835294718e-005
  0
LINE
 8
GROUP0
10
196.092956333539
20
1333.12181880797
30
0.000147728718407036
11
195.782296161758
21
1332.88344087408
31
0.000147677272270963
  0
LINE
 8
GROUP0
10
196.331334267432
20
1334.93247897975
30
0.000147301373534131
11
196.481184901193
21
1334.57070754741
31
0.000147462917876728
  0
LINE
 8
GROUP0
10
446.127082321782
20
1572.25591020304
30
8.46648930746818e-005
11
445.809245004886
21
1572.67012371039
31
8.44145384715722e-005
  0
LINE
 8
GROUP0
10
196.481184901193
20
1334.57070754741
30
0.000147462917876728
11
196.532296161755
21
1334.18247897975
31
0.000147593969671478
  0
LINE
 8
GROUP0
10
196.48118490119
20
1333.7942504121
30
0.00014768559761289
11
196.331334267439
21
1333.43247897975
31
0.000147731558072395
  0
LINE
 8
GROUP0
10
446.541295939169
20
1571.93807302954
30
8.4927835294718e-005
11
446.127082321782
21
1572.25591020304
31
8.46648930746818e-005
  0
LINE
 8
GROUP0
10
195.782296161761
20
1335.48151708543
30
0.000146932169312425
11
196.092956333537
21
1335.24313915153
31
0.000147120345609536
  0
LINE
 8
GROUP0
10
195.782296161758
20
1332.88344087408
30
0.000147677272270963
11
195.420524729413
21
1332.73359024032
31
0.000147580726080998
  0
LINE
 8
GROUP0
10
195.032296161759
20
1332.68247897975
30
0.000147445657803053
11
194.644067594104
21
1332.73359024032
31
0.000147281276321787
  0
LINE
 8
GROUP0
10
196.092956333537
20
1335.24313915153
30
0.000147120345609536
11
196.331334267432
21
1334.93247897975
31
0.000147301373534131
  0
LINE
 8
GROUP0
10
196.532296161755
20
1334.18247897975
30
0.000147593969671478
11
196.48118490119
21
1333.7942504121
31
0.00014768559761289
  0
LINE
 8
GROUP0
10
445.809245004886
20
1572.67012371039
30
8.44145384715722e-005
11
445.609444076375
21
1573.1524855856
31
8.41938457712132e-005
  0
LINE
 8
GROUP0
10
195.420524729413
20
1332.73359024032
30
0.000147580726080998
11
195.032296161759
21
1332.68247897975
31
0.000147445657803053
  0
LINE
 8
GROUP0
10
194.644067594104
20
1332.73359024032
30
0.000147281276321787
11
194.282296161759
21
1332.88344087408
31
0.000147098775864274
  0
LINE
 8
GROUP0
10
233.981351689973
20
1335.24339677626
30
0.000821150654642749
11
234.292011861755
21
1335.48177471016
31
0.000821202101500734
  0
LINE
 8
GROUP0
10
234.292011861755
20
1335.48177471016
30
0.000821202101500734
11
234.653783294102
21
1335.63162534392
31
0.000821298648412611
  0
LINE
 8
GROUP0
10
194.282296161759
20
1332.88344087408
30
0.000147098775864274
11
193.971635989978
21
1333.12181880797
31
0.000146910598845251
  0
LINE
 8
GROUP0
10
193.583407422325
20
1333.7942504121
30
0.000146568029104044
11
193.532296161756
21
1334.18247897975
31
0.000146436976677622
  0
LINE
 8
GROUP0
10
195.420524729417
20
1335.63136771919
30
0.000146749673366858
11
195.782296161761
21
1335.48151708543
31
0.000146932169312425
  0
LINE
 8
GROUP0
10
233.742973756076
20
1334.93273660448
30
0.000821147814977391
11
233.981351689973
21
1335.24339677626
31
0.000821150654642749
  0
LINE
 8
GROUP0
10
193.971635989978
20
1333.12181880797
30
0.000146910598845251
11
193.733258056082
21
1333.43247897975
31
0.000146729573537585
  0
LINE
 8
GROUP0
10
193.733258056081
20
1334.93247897975
30
0.000146299388999321
11
193.971635989981
21
1335.24313915153
31
0.000146302226769662
  0
LINE
 8
GROUP0
10
234.653783294102
20
1335.63162534392
30
0.000821298648412611
11
235.042011861757
21
1335.68273660449
31
0.000821433715336972
  0
LINE
 8
GROUP0
10
193.532296161756
20
1334.18247897975
30
0.000146436976677622
11
193.583407422323
21
1334.57070754741
31
0.000146345349187404
  0
LINE
 8
GROUP0
10
193.971635989981
20
1335.24313915153
30
0.000146302226769662
11
194.282296161756
21
1335.48151708543
31
0.000146353672905736
  0
LINE
 8
GROUP0
10
194.282296161756
20
1335.48151708543
30
0.000146353672905736
11
194.644067594108
21
1335.63136771919
31
0.000146450221622391
  0
LINE
 8
GROUP0
10
194.644067594108
20
1335.63136771919
30
0.000146450221622391
11
195.032296161758
21
1335.68247897975
31
0.00014658528872723
  0
LINE
 8
GROUP0
10
195.032296161758
20
1335.68247897975
30
0.00014658528872723
11
195.420524729417
21
1335.63136771919
31
0.000146749673366858
  0
LINE
 8
GROUP0
10
193.583407422323
20
1334.57070754741
30
0.000146345349187404
11
193.733258056081
21
1334.93247897975
31
0.000146299388999321
  0
LINE
 8
GROUP0
10
193.733258056082
20
1333.43247897975
30
0.000146729573537585
11
193.583407422325
21
1333.7942504121
31
0.000146568029104044
  0
LINE
 8
GROUP0
10
235.792011861754
20
1335.48177471016
30
0.000821780598087901
11
236.102672033534
21
1335.24339677626
31
0.00082196877122665
  0
LINE
 8
GROUP0
10
236.490900601188
20
1333.79450803683
30
0.000822534024403815
11
236.341049967431
21
1333.43273660448
31
0.000822579982787119
  0
LINE
 8
GROUP0
10
235.042011861757
20
1335.68273660449
30
0.000821433715336972
11
235.430240429409
21
1335.63162534392
31
0.000821598099344928
  0
LINE
 8
GROUP0
10
236.341049967431
20
1333.43273660448
30
0.000822579982787119
11
236.102672033534
21
1333.1220764327
31
0.000822577143121761
  0
LINE
 8
GROUP0
10
235.792011861754
20
1332.88369849881
30
0.000822525698609988
11
235.430240429403
21
1332.73384786505
31
0.00082242915187859
  0
LINE
 8
GROUP0
10
236.542011861754
20
1334.18273660448
30
0.000822442396461698
11
236.490900601188
21
1333.79450803683
31
0.000822534024403815
  0
LINE
 8
GROUP0
10
235.430240429403
20
1332.73384786505
30
0.00082242915187859
11
235.042011861752
21
1332.68273660449
31
0.000822294084232317
  0
LINE
 8
GROUP0
10
235.042011861752
20
1332.68273660449
30
0.000822294084232317
11
234.653783294093
21
1332.73384786505
31
0.000822129700946272
  0
LINE
 8
GROUP0
10
235.430240429409
20
1335.63162534392
30
0.000821598099344928
11
235.792011861754
21
1335.48177471016
31
0.000821780598087901
  0
LINE
 8
GROUP0
10
234.653783294093
20
1332.73384786505
30
0.000822129700946272
11
234.292011861749
21
1332.88369849881
31
0.000821947202022821
  0
LINE
 8
GROUP0
10
236.102672033534
20
1333.1220764327
30
0.000822577143121761
11
235.792011861754
21
1332.88369849881
31
0.000822525698609988
  0
LINE
 8
GROUP0
10
234.292011861749
20
1332.88369849881
30
0.000821947202022821
11
233.98135168998
21
1333.1220764327
31
0.00082175902744025
  0
LINE
 8
GROUP0
10
236.341049967426
20
1334.93273660448
30
0.000822149798429333
11
236.490900601185
21
1334.57096517214
31
0.000822311343493842
  0
LINE
 8
GROUP0
10
233.98135168998
20
1333.1220764327
30
0.00082175902744025
11
233.742973756081
21
1333.43273660448
31
0.000821577999515655
  0
LINE
 8
GROUP0
10
236.102672033534
20
1335.24339677626
30
0.00082196877122665
11
236.341049967426
21
1334.93273660448
31
0.000822149798429333
  0
LINE
 8
GROUP0
10
236.490900601185
20
1334.57096517214
30
0.000822311343493842
11
236.542011861754
21
1334.18273660448
31
0.000822442396461698
  0
LINE
 8
GROUP0
10
229.015135400887
20
1339.67012801669
30
0.000295306827673347
11
224.015134632618
21
1344.67012715108
31
0.000121497442627178
  0
LINE
 8
GROUP0
10
229.01513820371
20
1323.67012801677
30
0.00043055232755243
11
229.015135400887
21
1339.67012801669
31
0.000295306827673347
  0
LINE
 8
GROUP0
10
120.127081466453
20
1572.25585377948
30
4.65815630079414e-005
11
119.809244152574
21
1572.67006728915
31
4.63312124655835e-005
  0
LINE
 8
GROUP0
10
233.742973756081
20
1333.43273660448
30
0.000821577999515655
11
233.59312312232
21
1333.79450803683
31
0.000821416456977836
  0
LINE
 8
GROUP0
10
224.015134632618
20
1344.67012715108
30
0.000121497442627178
11
206.015134604017
21
1344.67012403535
31
0.000144652620652469
  0
LINE
 8
GROUP0
10
233.59312312232
20
1333.79450803683
30
0.000821416456977836
11
233.542011861756
21
1334.18273660449
31
0.000821285403467842
  0
LINE
 8
GROUP0
10
206.015134604017
20
1344.67012403535
30
0.000144652620652469
11
201.015135462182
21
1339.67012316987
31
0.000150258159698258
  0
LINE
 8
GROUP0
10
233.542011861756
20
1334.18273660449
30
0.000821285403467842
11
233.593123122322
21
1334.57096517214
31
0.000821193776067863
  0
LINE
 8
GROUP0
10
120.541295081531
20
1571.93801660297
30
4.68445101911186e-005
11
120.127081466453
21
1572.25585377948
31
4.65815630079414e-005
  0
LINE
 8
GROUP0
10
201.015138208335
20
1323.67012316988
30
0.000160908820951772
11
229.01513820371
21
1323.67012801677
31
0.00043055232755243
  0
LINE
 8
GROUP0
10
119.809244152574
20
1572.67006728915
30
4.63312124655835e-005
11
119.609443227576
21
1573.15242916581
31
4.61105203066581e-005
  0
LINE
 8
GROUP0
10
121.023657024454
20
1571.73821583795
30
4.71021370774816e-005
11
120.541295081531
21
1571.93801660297
31
4.68445101911186e-005
  0
LINE
 8
GROUP0
10
119.609443227576
20
1573.15242916581
30
4.61105203066581e-005
11
119.541294794314
21
1573.67006724472
31
4.5934530258529e-005
  0
LINE
 8
GROUP0
10
119.541294794314
20
1573.67006724472
30
4.5934530258529e-005
11
119.609443055903
21
1574.18770534622
31
4.58152276736512e-005
  0
LINE
 8
GROUP0
10
233.593123122322
20
1334.57096517214
30
0.000821193776067863
11
233.742973756076
21
1334.93273660448
31
0.000821147814977391
  0
LINE
 8
GROUP0
10
201.015135462182
20
1339.67012316987
30
0.000150258159698258
11
201.015138208335
21
1323.67012316988
31
0.000160908820951772
  0
LINE
 8
GROUP0
10
120.127080997441
20
1575.08428090423
30
4.57748089241539e-005
11
120.541294507103
21
1575.40211821811
31
4.58564401682793e-005
  0
LINE
 8
GROUP0
10
121.541294462677
20
1575.67006757636
30
4.61959599148132e-005
11
122.058932564181
21
1575.60191931478
31
4.64307118767271e-005
  0
LINE
 8
GROUP0
10
119.809243820927
20
1574.67006728915
30
4.57607492121093e-005
11
120.127080997441
21
1575.08428090423
31
4.57748089241539e-005
  0
LINE
 8
GROUP0
10
122.058932564181
20
1575.60191931478
30
4.64307118767271e-005
11
122.541294507106
21
1575.40211854975
31
4.66883384021344e-005
  0
LINE
 8
GROUP0
10
121.023656383773
20
1575.6019191431
30
4.60000910833036e-005
11
121.541294462677
21
1575.67006757636
31
4.61959599148132e-005
  0
LINE
 8
GROUP0
10
122.541294507106
20
1575.40211854975
30
4.66883384021344e-005
11
122.955508122188
21
1575.08428137324
31
4.69512869388955e-005
  0
LINE
 8
GROUP0
10
119.609443055903
20
1574.18770534622
30
4.58152276736512e-005
11
119.809243820927
21
1574.67006728915
31
4.57607492121093e-005
  0
LINE
 8
GROUP0
10
120.541294507103
20
1575.40211821811
30
4.58564401682793e-005
11
121.023656383773
21
1575.6019191431
31
4.60000910833036e-005
  0
LINE
 8
GROUP0
10
188.556144215158
20
1343.91743280698
30
0.000198546582645187
11
175.856144370849
21
1343.91942141861
31
0.000198457666620422
  0
LINE
 8
GROUP0
10
188.553247418693
20
1325.41743303377
30
0.000203851073167277
11
188.556144215158
21
1343.91743280698
31
0.000198546582645187
  0
LINE
 8
GROUP0
10
401.543554366838
20
1454.70629980894
30
8.31025001356234e-005
11
401.781932300732
21
1454.39563963716
31
8.3281781214356e-005
  0
LINE
 8
GROUP0
10
188.553247418693
20
1325.41743303377
30
0.000203851073167277
11
175.853247574385
21
1325.4194216454
31
0.000203762159127768
  0
LINE
 8
GROUP0
10
175.856144370849
20
1343.91942141861
30
0.000198457666620422
11
175.853247574385
21
1325.4194216454
31
0.000203762159127768
  0
LINE
 8
GROUP0
10
399.183856089379
20
1452.89563963716
30
8.2588046679255e-005
11
399.034005455626
21
1453.2574110695
31
8.24324035113177e-005
  0
LINE
 8
GROUP0
10
399.034005455625
20
1454.03386820481
30
8.22321265815218e-005
11
399.18385608938
21
1454.39563963716
31
8.22011403696365e-005
  0
LINE
 8
GROUP0
10
401.982894195056
20
1453.64563963716
30
8.35588229587236e-005
11
401.931782934492
21
1453.2574110695
31
8.36377024859003e-005
  0
LINE
 8
GROUP0
10
401.232894195056
20
1452.34660153148
30
8.35819393519677e-005
11
400.87112276271
21
1452.19675089772
31
8.34701169742269e-005
  0
LINE
 8
GROUP0
10
400.87112276271
20
1452.19675089772
30
8.34701169742269e-005
11
400.482894195057
21
1452.14563963716
31
8.33218205726127e-005
  0
LINE
 8
GROUP0
10
400.482894195057
20
1452.14563963716
30
8.33218205726127e-005
11
400.094665627403
21
1452.19675089772
31
8.31471577184439e-005
  0
LINE
 8
GROUP0
10
400.094665627403
20
1452.19675089772
30
8.31471577184439e-005
11
399.732894195056
21
1452.34660153148
31
8.29580307464772e-005
  0
LINE
 8
GROUP0
10
399.034005455626
20
1453.2574110695
30
8.24324035113177e-005
11
398.982894195057
21
1453.64563963716
31
8.23110055672649e-005
  0
LINE
 8
GROUP0
10
401.543554366836
20
1452.58497946538
30
8.3649667748209e-005
11
401.232894195056
21
1452.34660153148
31
8.35819393519677e-005
  0
LINE
 8
GROUP0
10
401.781932300732
20
1454.39563963716
30
8.3281781214356e-005
11
401.931782934491
21
1454.03386820481
31
8.34374255561043e-005
  0
LINE
 8
GROUP0
10
401.781932300732
20
1452.89563963716
30
8.36686875239745e-005
11
401.543554366836
21
1452.58497946538
31
8.3649667748209e-005
  0
LINE
 8
GROUP0
10
399.422234023277
20
1452.58497946538
30
8.27673282098873e-005
11
399.183856089379
21
1452.89563963716
31
8.2588046679255e-005
  0
LINE
 8
GROUP0
10
401.931782934491
20
1454.03386820481
30
8.34374255561043e-005
11
401.982894195056
21
1453.64563963716
31
8.35588229587236e-005
  0
LINE
 8
GROUP0
10
401.931782934492
20
1453.2574110695
30
8.36377024859003e-005
11
401.781932300732
21
1452.89563963716
31
8.36686875239745e-005
  0
LINE
 8
GROUP0
10
399.732894195056
20
1452.34660153148
30
8.29580307464772e-005
11
399.422234023277
21
1452.58497946538
31
8.27673282098873e-005
  0
LINE
 8
GROUP0
10
398.982894195057
20
1453.64563963716
30
8.23110055672649e-005
11
399.034005455625
21
1454.03386820481
31
8.22321265815218e-005
  0
LINE
 8
GROUP0
10
400.871122762711
20
1455.09452837659
30
8.2722671529456e-005
11
401.232894195055
21
1454.94467774283
31
8.29117985014227e-005
  0
LINE
 8
GROUP0
10
400.094665627403
20
1455.09452837659
30
8.2399712363912e-005
11
400.482894195057
21
1455.14563963716
31
8.25480079533758e-005
  0
LINE
 8
GROUP0
10
399.18385608938
20
1454.39563963716
30
8.22011403696365e-005
11
399.422234023278
21
1454.70629980894
31
8.22201607777795e-005
  0
LINE
 8
GROUP0
10
401.232894195055
20
1454.94467774283
30
8.29117985014227e-005
11
401.543554366838
21
1454.70629980894
31
8.31025001356234e-005
  0
LINE
 8
GROUP0
10
400.482894195057
20
1455.14563963716
30
8.25480079533758e-005
11
400.871122762711
21
1455.09452837659
31
8.2722671529456e-005
  0
LINE
 8
GROUP0
10
399.732894195058
20
1454.94467774283
30
8.22878898959323e-005
11
400.094665627403
21
1455.09452837659
31
8.2399712363912e-005
  0
LINE
 8
GROUP0
10
399.422234023278
20
1454.70629980894
30
8.22201607777795e-005
11
399.732894195058
21
1454.94467774283
31
8.22878898959323e-005
  0
LINE
 8
GROUP0
10
390.821044792807
20
1481.72299183971
30
0.000111694402270013
11
390.510384621028
21
1481.48461390582
31
0.000111644469170036
  0
LINE
 8
GROUP0
10
293.64804169734
20
1478.99693911164
30
0.000132380063308052
11
293.958701869119
21
1479.23531704554
31
0.000132429996408029
  0
LINE
 8
GROUP0
10
293.286270264994
20
1478.84708847788
30
0.000132281718385546
11
293.64804169734
21
1478.99693911164
31
0.000132380063308052
  0
LINE
 8
GROUP0
10
292.89804169734
20
1478.79597721732
30
0.000132141663730773
11
293.286270264994
21
1478.84708847788
31
0.000132281718385546
  0
LINE
 8
GROUP0
10
390.071044792808
20
1480.42395373404
30
0.000111801522260585
11
390.122156053374
21
1480.03572516638
31
0.000111944237707423
  0
LINE
 8
GROUP0
10
292.14804169734
20
1478.99693911164
30
0.000131776795323152
11
292.509813129686
21
1478.84708847788
31
0.000131969443915086
  0
LINE
 8
GROUP0
10
390.272006687131
20
1481.17395373404
30
0.000111646350624883
11
390.122156053374
21
1480.81218230169
31
0.000111699918541103
  0
LINE
 8
GROUP0
10
390.122156053374
20
1480.81218230169
30
0.000111699918541103
11
390.071044792808
21
1480.42395373404
31
0.000111801522260585
  0
LINE
 8
GROUP0
10
292.509813129686
20
1478.84708847788
30
0.000131969443915086
11
292.89804169734
21
1478.79597721732
31
0.000132141663730773
  0
LINE
 8
GROUP0
10
390.510384621028
20
1481.48461390582
30
0.000111644469170036
11
390.272006687131
21
1481.17395373404
31
0.000111646350624883
  0
LINE
 8
GROUP0
10
391.959273360461
20
1478.9750649946
30
0.000113016833299157
11
392.321044792807
21
1479.12491562836
31
0.000113115178221662
  0
LINE
 8
GROUP0
10
393.01993353224
20
1480.03572516638
30
0.000113109661949867
11
393.071044792807
21
1480.42395373404
31
0.000113008058230385
  0
LINE
 8
GROUP0
10
392.870082898483
20
1481.17395373404
30
0.000112691241423479
11
392.631704964587
21
1481.48461390582
31
0.000112497618896901
  0
LINE
 8
GROUP0
10
391.571044792807
20
1481.92395373404
30
0.000111932801847997
11
391.182816225154
21
1481.87284247347
31
0.000111792747192518
  0
LINE
 8
GROUP0
10
391.959273360461
20
1481.87284247347
30
0.000112105021662978
11
391.571044792807
21
1481.92395373404
31
0.000111932801847997
  0
LINE
 8
GROUP0
10
392.631704964587
20
1481.48461390582
30
0.000112497618896901
11
392.321044792807
21
1481.72299183971
31
0.000112297670254913
  0
LINE
 8
GROUP0
10
391.182816225153
20
1478.9750649946
30
0.000112704558828697
11
391.571044792807
21
1478.92395373404
31
0.000112876778643678
  0
LINE
 8
GROUP0
10
391.182816225154
20
1481.87284247347
30
0.000111792747192518
11
390.821044792807
21
1481.72299183971
31
0.000111694402270013
  0
LINE
 8
GROUP0
10
391.571044792807
20
1478.92395373404
30
0.000112876778643678
11
391.959273360461
21
1478.9750649946
31
0.000113016833299157
  0
LINE
 8
GROUP0
10
390.821044792807
20
1479.12491562836
30
0.000112511910236762
11
391.182816225153
21
1478.9750649946
31
0.000112704558828697
  0
LINE
 8
GROUP0
10
392.321044792807
20
1481.72299183971
30
0.000112297670254913
11
391.959273360461
21
1481.87284247347
31
0.000112105021662978
  0
LINE
 8
GROUP0
10
393.01993353224
20
1480.81218230169
30
0.000112865342783547
11
392.870082898483
21
1481.17395373404
31
0.000112691241423479
  0
LINE
 8
GROUP0
10
393.071044792807
20
1480.42395373404
30
0.000113008058230385
11
393.01993353224
21
1480.81218230169
31
0.000112865342783547
  0
LINE
 8
GROUP0
10
392.870082898483
20
1479.67395373404
30
0.000113163229866792
11
393.01993353224
21
1480.03572516638
31
0.000113109661949867
  0
LINE
 8
GROUP0
10
392.631704964586
20
1479.36329356226
30
0.000113165111321639
11
392.870082898483
21
1479.67395373404
31
0.000113163229866792
  0
LINE
 8
GROUP0
10
392.321044792807
20
1479.12491562836
30
0.000113115178221662
11
392.631704964586
21
1479.36329356226
31
0.000113165111321639
  0
LINE
 8
GROUP0
10
292.041665241067
20
1555.67018356577
30
9.35752786041799e-005
11
292.041665241067
21
1551.67018356577
31
9.3575278256619e-005
  0
LINE
 8
GROUP0
10
279.04214965772
20
1545.67018097159
30
0.000100298193108844
11
277.04214965772
21
1545.6701809716
31
9.95264718317401e-005
  0
LINE
 8
GROUP0
10
390.272006687131
20
1479.67395373404
30
0.000112118339068196
11
390.510384621027
21
1479.36329356226
31
0.000112311961594774
  0
LINE
 8
GROUP0
10
390.510384621027
20
1479.36329356226
30
0.000112311961594774
11
390.821044792807
21
1479.12491562836
31
0.000112511910236762
  0
LINE
 8
GROUP0
10
277.041665227781
20
1551.67009449625
30
8.34571312231525e-005
11
279.041665227781
21
1551.67009449625
31
8.42288525002566e-005
  0
LINE
 8
GROUP0
10
279.041665227782
20
1555.67009449625
30
8.42288528478174e-005
11
277.041665227782
21
1555.67009449625
31
8.34571315707133e-005
  0
LINE
 8
GROUP0
10
277.04214965772
20
1545.6701809716
30
9.95264718317401e-005
11
277.04214965772
21
1541.67018097159
31
9.95264714841792e-005
  0
LINE
 8
GROUP0
10
292.042149675195
20
1545.67018356585
30
9.98211752038458e-005
11
292.042149675195
21
1541.67018356585
31
9.98211748562849e-005
  0
LINE
 8
GROUP0
10
290.041665241067
20
1551.67018356577
30
9.28035569795149e-005
11
290.041665241067
21
1555.67018356577
31
9.28035573270758e-005
  0
LINE
 8
GROUP0
10
390.122156053374
20
1480.03572516638
30
0.000111944237707423
11
390.272006687131
21
1479.67395373404
31
0.000112118339068196
  0
LINE
 8
GROUP0
10
277.04214965772
20
1541.67018097159
30
9.95264714841792e-005
11
279.04214965772
21
1541.67018097159
31
0.000100298192761283
  0
LINE
 8
GROUP0
10
290.041665241067
20
1555.67018356577
30
9.28035573270758e-005
11
292.041665241067
21
1555.67018356577
31
9.35752786041799e-005
  0
LINE
 8
GROUP0
10
279.041665227781
20
1551.67009449625
30
8.42288525002566e-005
11
279.041665227782
21
1555.67009449625
31
8.42288528478174e-005
  0
LINE
 8
GROUP0
10
279.04214965772
20
1541.67018097159
30
0.000100298192761283
11
279.04214965772
21
1545.67018097159
31
0.000100298193108844
  0
LINE
 8
GROUP0
10
292.041665241067
20
1551.67018356577
30
9.3575278256619e-005
11
290.041665241067
21
1551.67018356577
31
9.28035569795149e-005
  0
LINE
 8
GROUP0
10
277.041665227782
20
1555.67009449625
30
8.34571315707133e-005
11
277.041665227781
21
1551.67009449625
31
8.34571312231525e-005
  0
LINE
 8
GROUP0
10
292.042149675195
20
1541.67018356585
30
9.98211748562849e-005
11
290.042149675195
21
1541.67018356585
31
9.90494535791808e-005
  0
LINE
 8
GROUP0
10
290.042149675195
20
1545.67018356585
30
9.90494539267417e-005
11
292.042149675195
21
1545.67018356585
31
9.98211752038458e-005
  0
LINE
 8
GROUP0
10
290.042149675195
20
1541.67018356585
30
9.90494535791808e-005
11
290.042149675195
21
1545.67018356585
31
9.90494539267417e-005
 0
ENDSEC
 0
EOF
