 0
SECTION
 2
ENTITIES
  0
LINE
 8
GROUP0
10
-220.95503548075
20
2128.92642055368
30
0.000503162171988508
11
-221.154829955106
21
2128.44405600523
31
0.000509245285657078
  0
LINE
 8
GROUP0
10
-224.618931569508
20
2128.44401025443
30
0.000508986521043253
11
-224.818738785085
21
2128.92636952529
31
0.000502873557566991
  0
LINE
 8
GROUP0
10
-220.955049153765
20
2129.96169673379
30
0.000490074169068289
11
-220.88689396985
21
2129.44405954378
31
0.00049662326114282
  0
LINE
 8
GROUP0
10
-59.8862787174378
20
2081.44607943385
30
0.00107466936859818
11
-59.3686397637549
21
2081.37793764935
31
0.00107556957318605
  0
LINE
 8
GROUP0
10
-221.154856369342
20
2130.44405600465
30
0.000483961205592026
11
-220.955049153765
21
2129.96169673379
31
0.000490074169068289
  0
LINE
 8
GROUP0
10
-222.369230365138
20
2127.51218831403
30
0.000520935076246243
11
-222.88686755519
21
2127.44403313012
31
0.000521757943390094
  0
LINE
 8
GROUP0
10
-60.8862753192226
20
2081.17811756328
30
0.00107798208742017
11
-60.4039159430911
21
2081.37792452366
31
0.00107549223225514
  0
LINE
 8
GROUP0
10
-224.301088853812
20
2128.02980088989
30
0.000514246767594056
11
-224.618931569508
21
2128.44401025443
31
0.000508986521043253
  0
LINE
 8
GROUP0
10
-221.472699085037
20
2130.85826536918
30
0.000478700959065192
11
-221.154856369342
21
2130.44405600465
31
0.000483961205592026
  0
LINE
 8
GROUP0
10
-221.886916845036
20
2131.17609714372
30
0.000474651906588719
11
-221.472699085037
21
2130.85826536918
31
0.000478700959065192
  0
LINE
 8
GROUP0
10
-223.404506545328
20
2127.51217464102
30
0.000520857742252456
11
-223.886871093814
21
2127.71196911536
31
0.000518295820068415
  0
LINE
 8
GROUP0
10
-222.88686755519
20
2127.44403313012
30
0.000521757943390094
11
-223.404506545328
21
2127.51217464102
31
0.000520857742252456
  0
LINE
 8
GROUP0
10
-223.886871093814
20
2127.71196911536
30
0.000518295820068415
11
-224.301088853812
21
2128.02980088989
31
0.000514246767594056
  0
LINE
 8
GROUP0
10
-220.88689396985
20
2129.44405954378
30
0.00049662326114282
11
-220.95503548075
21
2128.92642055368
31
0.000503162171988508
  0
LINE
 8
GROUP0
10
-221.154829955106
20
2128.44405600523
30
0.000509245285657078
11
-221.472661729667
21
2128.02983824527
31
0.000514458047997818
  0
LINE
 8
GROUP0
10
-221.472661729667
20
2128.02983824527
30
0.000514458047997818
11
-221.886871094239
21
2127.71199552959
31
0.000518445217877028
  0
LINE
 8
GROUP0
10
104.527200506826
20
2130.86241863118
30
0.000502020762653244
11
104.845043753348
21
2130.44820967404
31
0.000507281004090743
  0
LINE
 8
GROUP0
10
-224.618957983743
20
2130.44401025385
30
0.000483702441000761
11
-224.301126209182
21
2130.85822801381
31
0.000478489678682581
  0
LINE
 8
GROUP0
10
-223.404557573712
20
2131.37587794504
30
0.000472012650411596
11
-222.88692038366
21
2131.44403312895
31
0.000471189783269155
  0
LINE
 8
GROUP0
10
69.1133141078803
20
2391.44385684383
30
0.000107973989575705
11
69.113297720869
21
2362.44397573831
31
0.000114762008223557
  0
LINE
 8
GROUP0
10
-223.886916844611
20
2131.17607072948
30
0.000474502508780106
11
-223.404557573712
21
2131.37587794504
31
0.000472012650411596
  0
LINE
 8
GROUP0
10
70.1138734130395
20
2069.44772462167
30
0.00128737818340984
11
-189.886117596795
21
2069.44443425244
31
0.00105773033588885
  0
LINE
 8
GROUP0
10
117.112988082947
20
2350.4438082959
30
0.000120768168467622
11
117.113215795529
21
2146.44405954292
31
0.00065750996759032
  0
LINE
 8
GROUP0
10
-189.886117596795
20
2069.44443425244
30
0.00105773033588885
11
-189.88652302457
21
2101.44445258878
31
0.000889372560675011
  0
LINE
 8
GROUP0
10
104.845043753348
20
2130.44820967404
30
0.000507281004090743
11
105.044851587105
21
2129.96585065931
31
0.000513393964352243
  0
LINE
 8
GROUP0
10
105.044851587105
20
2129.96585065931
30
0.000513393964352243
11
105.113007434426
21
2129.4482135567
31
0.000519943055355893
  0
LINE
 8
GROUP0
10
-189.88652302457
20
2101.44445258878
30
0.000889372560675011
11
-200.886662452367
21
2112.4443132923
31
0.000749506155503526
  0
LINE
 8
GROUP0
10
104.113032529987
20
2127.71614826111
30
0.000541765028457186
11
103.630673515215
21
2127.51634042737
31
0.000544254894676482
  0
LINE
 8
GROUP0
10
117.113253742899
20
2112.4483368115
30
0.000744603454938086
11
81.1133291306088
21
2112.44787775293
31
0.000733028675108371
  0
LINE
 8
GROUP0
10
-224.301126209182
20
2130.85822801381
30
0.000478489678682581
11
-223.886916844611
21
2131.17607072948
31
0.000474502508780106
  0
LINE
 8
GROUP0
10
105.044866586949
20
2128.93057447932
30
0.000526481967373982
11
104.845072730821
21
2128.44820967487
31
0.000532565084324993
  0
LINE
 8
GROUP0
10
105.113007434426
20
2129.4482135567
30
0.000519943055355893
11
105.044866586949
21
2128.93057447932
31
0.000526481967373982
  0
LINE
 8
GROUP0
10
-224.818738785085
20
2128.92636952529
30
0.000502873557566991
11
-224.886893969
21
2129.4440067153
31
0.000496324465514314
  0
LINE
 8
GROUP0
10
-61.8862533584806
20
2079.4460540792
30
0.00109980403737518
11
-61.8181115739737
21
2079.96369303284
31
0.00109326512702651
  0
LINE
 8
GROUP0
10
-188.88676270664
20
2391.44345360941
30
7.99186104897598e-005
11
-188.88650491263
21
2362.44278792222
31
9.0513343298676e-005
  0
LINE
 8
GROUP0
10
104.845072730821
20
2128.44820967487
30
0.000532565084324993
11
104.527241487162
21
2128.03399150761
31
0.000537777851843191
  0
LINE
 8
GROUP0
10
104.112982339531
20
2131.18024987482
30
0.00049797171686432
11
104.527200506826
21
2130.86241863118
31
0.000502020762653244
  0
LINE
 8
GROUP0
10
70.1134677038841
20
2101.44773846015
30
0.00087402590936525
11
70.1138734130395
21
2069.44772462167
31
0.00128737818340984
  0
LINE
 8
GROUP0
10
-236.886669447279
20
2112.44385484973
30
0.000744366095922094
11
-236.886625068585
21
2146.44405954292
31
0.00065750996759032
  0
LINE
 8
GROUP0
10
101.18116328308
20
2128.93051849914
30
0.00052619341557828
11
101.113007435759
21
2129.44815560175
31
0.000519644324575336
  0
LINE
 8
GROUP0
10
-224.8187524581
20
2129.9616457054
30
0.000489785554669331
11
-224.618957983743
21
2130.44401025385
31
0.000483702441000761
  0
LINE
 8
GROUP0
10
101.698814363359
20
2128.03395052727
30
0.000537566617279395
11
101.380971116838
21
2128.44815948441
31
0.000532306375839781
  0
LINE
 8
GROUP0
10
104.527241487162
20
2128.03399150761
30
0.000537777851843191
11
104.113032529987
21
2127.71614826111
31
0.000541765028457186
  0
LINE
 8
GROUP0
10
81.1133291306088
20
2112.44787775293
30
0.000733028675108371
11
70.1134677038841
21
2101.44773846015
31
0.00087402590936525
  0
LINE
 8
GROUP0
10
-221.886871094239
20
2127.71199552959
30
0.000518445217877028
11
-222.369230365138
21
2127.51218831403
31
0.000520935076246243
  0
LINE
 8
GROUP0
10
69.113297720869
20
2362.44397573831
30
0.000114762008223557
11
80.1132790370208
21
2350.44385684385
31
0.000116439311205552
  0
LINE
 8
GROUP0
10
69.1133141078803
20
2391.44385684383
30
0.000107973989575705
11
-188.88676270664
21
2391.44345360941
31
7.99186104897598e-005
  0
LINE
 8
GROUP0
10
-224.886893969
20
2129.4440067153
30
0.000496324465514314
11
-224.8187524581
21
2129.9616457054
31
0.000489785554669331
  0
LINE
 8
GROUP0
10
-53.6259398943181
20
2339.20669717264
30
8.97546216877709e-005
11
-51.0326369947037
21
2341.19660776293
31
9.1159675235658e-005
  0
LINE
 8
GROUP0
10
64.1132940872031
20
2157.94405954304
30
0.000921278565160527
11
64.0451457397806
21
2157.42642145283
31
0.000921737006083012
  0
LINE
 8
GROUP0
10
60.1132940872047
20
2157.94405954304
30
0.000921001068772703
11
60.1814424346268
21
2158.46169763325
31
0.000920542627804394
  0
LINE
 8
GROUP0
10
-60.4039159430911
20
2081.37792452366
30
0.00107549223225514
11
-59.8862787174378
21
2081.44607943385
31
0.00107466936859818
  0
LINE
 8
GROUP0
10
-61.6183168447686
20
2080.44605747526
30
0.00108718201471293
11
-61.3004848514851
21
2080.86027506686
31
0.00108196925451396
  0
LINE
 8
GROUP0
10
-63.1275477235131
20
2337.95578844262
30
8.6099727456701e-005
11
-59.8867263851788
21
2337.52912564898
31
8.71354000153979e-005
  0
LINE
 8
GROUP0
10
64.0451457397806
20
2157.42642145283
30
0.000921737006083012
11
63.845344894771
21
2156.94405954304
31
0.000922154749436749
  0
LINE
 8
GROUP0
10
-222.369281393522
20
2131.37589161806
30
0.000472089984405383
11
-221.886916845036
21
2131.17609714372
31
0.000474651906588719
  0
LINE
 8
GROUP0
10
-61.3004848514851
20
2080.86027506686
30
0.00108196925451396
11
-60.8862753192226
21
2081.17811756328
31
0.00107798208742017
  0
LINE
 8
GROUP0
10
-222.88692038366
20
2131.44403312895
30
0.000471189783269155
11
-222.369281393522
21
2131.37589161806
31
0.000472089984405383
  0
LINE
 8
GROUP0
10
-70.7307250973539
20
2343.78991372518
30
8.48647370930933e-005
11
-68.740814507069
21
2341.19661082557
31
8.49243458611426e-005
  0
LINE
 8
GROUP0
10
-59.8867263851788
20
2337.52912564898
30
8.71354000153979e-005
11
-56.6459048992629
21
2337.95578732162
31
8.83820163669169e-005
  0
LINE
 8
GROUP0
10
-71.9816349483763
20
2346.80987873013
30
8.51708141175744e-005
11
-70.7307250973539
21
2343.78991372518
31
8.48647370930933e-005
  0
LINE
 8
GROUP0
10
-61.8181115739737
20
2079.96369303284
30
0.00109326512702651
11
-61.6183168447686
21
2080.44605747526
31
0.00108718201471293
  0
LINE
 8
GROUP0
10
-68.740814507069
20
2341.19661082557
30
8.49243458611426e-005
11
-66.1475122957668
21
2339.20669933826
31
8.5345578035817e-005
  0
LINE
 8
GROUP0
10
-236.886669447279
20
2112.44385484973
30
0.000744366095922094
11
-200.886662452367
21
2112.4443132923
31
0.000749506155503526
  0
LINE
 8
GROUP0
10
-66.1475122957668
20
2339.20669933826
30
8.5345578035817e-005
11
-63.1275477235131
21
2337.95578844262
31
8.6099727456701e-005
  0
LINE
 8
GROUP0
10
-56.6459048992629
20
2337.95578732162
30
8.83820163669169e-005
11
-53.6259398943181
21
2339.20669717264
31
8.97546216877709e-005
  0
LINE
 8
GROUP0
10
61.1132940872027
20
2156.21200873547
30
0.00092262023524744
11
60.69908052483
21
2156.52984598067
31
0.000922307107405773
  0
LINE
 8
GROUP0
10
63.5275076495775
20
2159.35827310541
30
0.000919972526595136
11
63.8453448947728
21
2158.94405954304
31
0.000920365203325324
  0
LINE
 8
GROUP0
10
-51.0326369947037
20
2341.19660776293
30
9.1159675235658e-005
11
-49.0427255073921
21
2343.78990997423
31
9.25014247173173e-005
  0
LINE
 8
GROUP0
10
63.8453448947728
20
2158.94405954304
30
0.000920365203325324
11
64.0451457397815
21
2158.46169763324
31
0.000920810668799482
  0
LINE
 8
GROUP0
10
60.3812432796348
20
2156.94405954304
30
0.000921914430494403
11
60.181442434626
21
2157.42642145284
31
0.000921468965087924
  0
LINE
 8
GROUP0
10
61.1132940872057
20
2159.67611035061
30
0.000919520650536998
11
61.5956559970006
21
2159.87591119562
31
0.000919375337500594
  0
LINE
 8
GROUP0
10
62.6309321774103
20
2159.87591119562
30
0.000919447158708064
11
63.1132940872048
21
2159.67611035061
31
0.00091965939868579
  0
LINE
 8
GROUP0
10
61.5956559970006
20
2159.87591119562
30
0.000919375337500594
11
62.1132940872053
21
2159.94405954304
31
0.00091935027085519
  0
LINE
 8
GROUP0
10
60.1814424346268
20
2158.46169763325
30
0.000920542627804394
11
60.3812432796367
21
2158.94405954304
31
0.000920124884473217
  0
LINE
 8
GROUP0
10
60.69908052483
20
2156.52984598067
30
0.000922307107405773
11
60.3812432796348
21
2156.94405954304
31
0.000921914430494403
  0
LINE
 8
GROUP0
10
-188.88650491263
20
2362.44278792222
30
9.0513343298676e-005
11
-199.886222188486
21
2350.44453022461
31
8.71007317063022e-005
  0
LINE
 8
GROUP0
10
60.6990805248325
20
2159.35827310541
30
0.000919776306965436
11
61.1132940872057
21
2159.67611035061
31
0.000919520650536998
  0
LINE
 8
GROUP0
10
64.0451457397815
20
2158.46169763324
30
0.000920810668799482
11
64.1132940872031
21
2157.94405954304
31
0.000921278565160527
  0
LINE
 8
GROUP0
10
60.181442434626
20
2157.42642145284
30
0.000921468965087924
11
60.1132940872047
21
2157.94405954304
31
0.000921001068772703
  0
LINE
 8
GROUP0
10
-169.386703360532
20
2157.94405954305
30
0.000690054602228929
11
-169.31855501311
21
2158.46169763325
31
0.000689596161329004
  0
LINE
 8
GROUP0
10
62.1132940872019
20
2155.94405954304
30
0.000922929363145719
11
61.5956559969973
21
2156.01220789046
31
0.000922832475066543
  0
LINE
 8
GROUP0
10
-168.386703360531
20
2159.67611035061
30
0.000688574183993224
11
-167.904341450736
21
2159.87591119562
31
0.000688428870889141
  0
LINE
 8
GROUP0
10
63.527507649575
20
2156.52984598067
30
0.000922503326877555
11
63.1132940872019
21
2156.21200873547
31
0.000922758983441352
  0
LINE
 8
GROUP0
10
60.3812432796367
20
2158.94405954304
30
0.000920124884473217
11
60.6990805248325
21
2159.35827310541
31
0.000919776306965436
  0
LINE
 8
GROUP0
10
-167.904341450736
20
2159.87591119562
30
0.000688428870889141
11
-167.386703360532
21
2159.94405954304
31
0.000688403804333976
  0
LINE
 8
GROUP0
10
-169.118754168103
20
2156.94405954305
30
0.000690967964018307
11
-169.318555013111
21
2157.42642145284
31
0.000690522498589269
  0
LINE
 8
GROUP0
10
62.6309321774069
20
2156.01220789046
30
0.000922904296409371
11
62.1132940872019
21
2155.94405954304
31
0.000922929363145719
  0
LINE
 8
GROUP0
10
46.6132940872091
20
2159.67611035061
30
0.000905540513474068
11
47.095655997004
21
2159.87591119562
31
0.000905395200573023
  0
LINE
 8
GROUP0
10
-167.386703360535
20
2155.94405954305
30
0.000691982896579385
11
-167.90434145074
21
2156.01220789047
31
0.000691886008590448
  0
LINE
 8
GROUP0
10
-166.386703360532
20
2159.67611035061
30
0.000688712932119456
11
-165.97248979816
21
2159.35827310542
31
0.000689026060028802
  0
LINE
 8
GROUP0
10
-165.386703360534
20
2157.94405954304
30
0.000690332098639312
11
-165.454851707956
21
2157.42642145284
31
0.000690790539494118
  0
LINE
 8
GROUP0
10
-166.86906527033
20
2156.01220789047
30
0.000691957830023515
11
-167.386703360535
21
2155.94405954305
31
0.000691982896579385
  0
LINE
 8
GROUP0
10
-165.454851707955
20
2158.46169763325
30
0.000689864202301532
11
-165.386703360534
21
2157.94405954304
31
0.000690332098639312
  0
LINE
 8
GROUP0
10
-168.386703360535
20
2156.21200873548
30
0.000691673768771345
11
-168.800916922907
21
2156.52984598067
31
0.000691360640929678
  0
LINE
 8
GROUP0
10
47.095655997004
20
2159.87591119562
30
0.000905395200573023
11
47.6132940872089
21
2159.94405954304
31
0.000905370133905059
  0
LINE
 8
GROUP0
10
-165.654652552964
20
2158.94405954304
30
0.000689418736916908
11
-165.454851707955
21
2158.46169763325
31
0.000689864202301532
  0
LINE
 8
GROUP0
10
-166.869065270327
20
2159.87591119562
30
0.000688500692209409
11
-166.386703360532
21
2159.67611035061
31
0.000688712932119456
  0
LINE
 8
GROUP0
10
-169.118754168101
20
2158.94405954305
30
0.000689178417952002
11
-168.800916922905
21
2159.35827310542
31
0.000688829840511901
  0
LINE
 8
GROUP0
10
-169.31855501311
20
2158.46169763325
30
0.000689596161329004
11
-169.118754168101
21
2158.94405954305
31
0.000689178417952002
  0
LINE
 8
GROUP0
10
-165.972489798162
20
2156.52984598067
30
0.0006915568603789
11
-166.386703360535
21
2156.21200873548
31
0.000691812516987816
  0
LINE
 8
GROUP0
10
-165.454851707956
20
2157.42642145284
30
0.000690790539494118
11
-165.654652552966
21
2156.94405954305
31
0.000691208282960654
  0
LINE
 8
GROUP0
10
-168.800916922905
20
2159.35827310542
30
0.000688829840511901
11
-168.386703360531
21
2159.67611035061
31
0.000688574183993224
  0
LINE
 8
GROUP0
10
63.1132940872019
20
2156.21200873547
30
0.000922758983441352
11
62.6309321774069
21
2156.01220789046
31
0.000922904296409371
  0
LINE
 8
GROUP0
10
-167.386703360532
20
2159.94405954304
30
0.000688403804333976
11
-166.869065270327
21
2159.87591119562
31
0.000688500692209409
  0
LINE
 8
GROUP0
10
-165.97248979816
20
2159.35827310542
30
0.000689026060028802
11
-165.654652552964
21
2158.94405954304
31
0.000689418736916908
  0
LINE
 8
GROUP0
10
63.845344894771
20
2156.94405954304
30
0.000922154749436749
11
63.527507649575
21
2156.52984598067
31
0.000922503326877555
  0
LINE
 8
GROUP0
10
61.5956559969973
20
2156.01220789046
30
0.000922832475066543
11
61.1132940872027
21
2156.21200873547
31
0.00092262023524744
  0
LINE
 8
GROUP0
10
63.1132940872048
20
2159.67611035061
30
0.00091965939868579
11
63.5275076495775
21
2159.35827310541
31
0.000919972526595136
  0
LINE
 8
GROUP0
10
-168.800916922907
20
2156.52984598067
30
0.000691360640929678
11
-169.118754168103
21
2156.94405954305
31
0.000690967964018307
  0
LINE
 8
GROUP0
10
62.1132940872053
20
2159.94405954304
30
0.00091935027085519
11
62.6309321774103
21
2159.87591119562
31
0.000919447158708064
  0
LINE
 8
GROUP0
10
-169.318555013111
20
2157.42642145284
30
0.000690522498589269
11
-169.386703360532
21
2157.94405954305
31
0.000690054602228929
  0
LINE
 8
GROUP0
10
49.0275076495785
20
2156.52984598067
30
0.000908523189972543
11
48.6132940872052
21
2156.21200873547
31
0.00090877884653634
  0
LINE
 8
GROUP0
10
49.6132940872064
20
2157.94405954304
30
0.000907298428232955
11
49.545145739784
21
2157.42642145283
31
0.00090775686915544
  0
LINE
 8
GROUP0
10
46.6132940872061
20
2156.21200873547
30
0.000908640098319868
11
46.1990805248336
21
2156.52984598067
31
0.000908326970455642
  0
LINE
 8
GROUP0
10
48.6132940872052
20
2156.21200873547
30
0.00090877884653634
11
48.1309321774103
21
2156.01220789046
31
0.000908924159572039
  0
LINE
 8
GROUP0
10
49.3453448947764
20
2158.94405954304
30
0.000906385066465432
11
49.5451457397848
21
2158.46169763324
31
0.00090683053189447
  0
LINE
 8
GROUP0
10
48.6132940872083
20
2159.67611035061
30
0.000905679261803338
11
49.0275076495811
21
2159.35827310541
31
0.000905992389645005
  0
LINE
 8
GROUP0
10
-183.300916922901
20
2159.35827310542
30
0.00067484970356177
11
-182.886703360528
21
2159.67611035061
31
0.000674594047065652
  0
LINE
 8
GROUP0
10
47.0956559970007
20
2156.01220789046
30
0.000908852338161531
11
46.6132940872061
21
2156.21200873547
31
0.000908640098319868
  0
LINE
 8
GROUP0
10
47.6132940872089
20
2159.94405954304
30
0.000905370133905059
11
48.1309321774135
21
2159.87591119562
31
0.000905467021870732
  0
LINE
 8
GROUP0
10
45.88124327964
20
2158.94405954304
30
0.000906144747455406
11
46.199080524836
21
2159.35827310541
31
0.000905796169925066
  0
LINE
 8
GROUP0
10
48.1309321774103
20
2156.01220789046
30
0.000908924159572039
11
47.6132940872056
21
2155.94405954304
31
0.000908949226195588
  0
LINE
 8
GROUP0
10
49.545145739784
20
2157.42642145283
30
0.00090775686915544
11
49.3453448947745
21
2156.94405954304
31
0.000908174612599416
  0
LINE
 8
GROUP0
10
45.6814424346302
20
2158.46169763325
30
0.000906562490967061
11
45.88124327964
21
2158.94405954304
31
0.000906144747455406
  0
LINE
 8
GROUP0
10
-183.618754168099
20
2156.94405954305
30
0.000676987827090736
11
-183.818555013108
21
2157.42642145284
31
0.000676542361684257
  0
LINE
 8
GROUP0
10
45.6814424346294
20
2157.42642145284
30
0.000907488828137792
11
45.6132940872081
21
2157.94405954304
31
0.000907020931777452
  0
LINE
 8
GROUP0
10
49.3453448947745
20
2156.94405954304
30
0.000908174612599416
11
49.0275076495785
21
2156.52984598067
31
0.000908523189972543
  0
LINE
 8
GROUP0
10
-183.818555013107
20
2158.46169763325
30
0.000675616024423992
11
-183.618754168097
21
2158.94405954305
31
0.00067519828106955
  0
LINE
 8
GROUP0
10
47.6132940872056
20
2155.94405954304
30
0.000908949226195588
11
47.0956559970007
21
2156.01220789046
31
0.000908852338161531
  0
LINE
 8
GROUP0
10
49.0275076495811
20
2159.35827310541
30
0.000905992389645005
11
49.3453448947764
21
2158.94405954304
31
0.000906385066465432
  0
LINE
 8
GROUP0
10
-182.886703360528
20
2159.67611035061
30
0.000674594047065652
11
-182.404341450733
21
2159.87591119562
31
0.000674448734029248
  0
LINE
 8
GROUP0
10
46.199080524836
20
2159.35827310541
30
0.000905796169925066
11
46.6132940872091
21
2159.67611035061
31
0.000905540513474068
  0
LINE
 8
GROUP0
10
45.6132940872081
20
2157.94405954304
30
0.000907020931777452
11
45.6814424346302
21
2158.46169763325
31
0.000906562490967061
  0
LINE
 8
GROUP0
10
-183.300916922904
20
2156.52984598068
30
0.000677380504002106
11
-183.618754168099
21
2156.94405954305
31
0.000676987827090736
  0
LINE
 8
GROUP0
10
-166.386703360535
20
2156.21200873548
30
0.000691812516987816
11
-166.86906527033
21
2156.01220789047
31
0.000691957830023515
  0
LINE
 8
GROUP0
10
49.5451457397848
20
2158.46169763324
30
0.00090683053189447
11
49.6132940872064
21
2157.94405954304
31
0.000907298428232955
  0
LINE
 8
GROUP0
10
-182.404341450736
20
2156.01220789047
30
0.000677905871685436
11
-182.886703360531
21
2156.21200873548
31
0.000677693631843773
  0
LINE
 8
GROUP0
10
-165.654652552966
20
2156.94405954305
30
0.000691208282960654
11
-165.972489798162
21
2156.52984598067
31
0.0006915568603789
  0
LINE
 8
GROUP0
10
46.1990805248336
20
2156.52984598067
30
0.000908326970455642
11
45.8812432796382
21
2156.94405954304
31
0.000907934293589391
  0
LINE
 8
GROUP0
10
-183.886703360529
20
2157.94405954305
30
0.000676074465301357
11
-183.818555013107
21
2158.46169763325
31
0.000675616024423992
  0
LINE
 8
GROUP0
10
-182.886703360531
20
2156.21200873548
30
0.000677693631843773
11
-183.300916922904
21
2156.52984598068
31
0.000677380504002106
  0
LINE
 8
GROUP0
10
48.1309321774135
20
2159.87591119562
30
0.000905467021870732
11
48.6132940872083
21
2159.67611035061
31
0.000905679261803338
  0
LINE
 8
GROUP0
10
-167.90434145074
20
2156.01220789047
30
0.000691886008590448
11
-168.386703360535
21
2156.21200873548
31
0.000691673768771345
  0
LINE
 8
GROUP0
10
-182.404341450733
20
2159.87591119562
30
0.000674448734029248
11
-181.886703360528
21
2159.94405954304
31
0.000674423667451524
  0
LINE
 8
GROUP0
10
102.112982340199
20
2131.18022089734
30
0.000497822351485322
11
102.595341354971
21
2131.38002873108
31
0.000495332485254041
  0
LINE
 8
GROUP0
10
-181.886703360532
20
2155.94405954305
30
0.000678002759742052
11
-182.404341450736
21
2156.01220789047
31
0.000677905871685436
  0
LINE
 8
GROUP0
10
-180.886703360532
20
2156.21200873548
30
0.000677832380015125
11
-181.369065270327
21
2156.01220789047
31
0.000677977693050824
  0
LINE
 8
GROUP0
10
-180.472489798156
20
2159.35827310542
30
0.00067504592319147
11
-180.154652552961
21
2158.94405954304
31
0.000675438599989336
  0
LINE
 8
GROUP0
10
101.380942139364
20
2130.44815948358
30
0.00050702229561681
11
101.698773383023
21
2130.86237765084
31
0.000501809528089447
  0
LINE
 8
GROUP0
10
103.112978457619
20
2131.4481845784
30
0.000494509609744054
11
103.630617535036
21
2131.38004373093
31
0.000495409802497226
  0
LINE
 8
GROUP0
10
101.181148283236
20
2129.96579467912
30
0.000513105412567821
11
101.380942139364
21
2130.44815948358
31
0.00050702229561681
  0
LINE
 8
GROUP0
10
102.595341354971
20
2131.38002873108
30
0.000495332485254041
11
103.112978457619
21
2131.4481845784
31
0.000494509609744054
  0
LINE
 8
GROUP0
10
-180.154652552961
20
2158.94405954304
30
0.000675438599989336
11
-179.954851707952
21
2158.46169763325
31
0.000675884065486759
  0
LINE
 8
GROUP0
10
101.698773383023
20
2130.86237765084
30
0.000501809528089447
11
102.112982340199
21
2131.18022089734
31
0.000497822351485322
  0
LINE
 8
GROUP0
10
-181.886703360528
20
2159.94405954304
30
0.000674423667451524
11
-181.369065270323
21
2159.87591119562
31
0.000674520555439756
  0
LINE
 8
GROUP0
10
-179.954851707953
20
2157.42642145284
30
0.000676810402611666
11
-180.154652552963
21
2156.94405954305
31
0.000677228146123321
  0
LINE
 8
GROUP0
10
103.113036412566
20
2127.44818458005
30
0.000545077770211144
11
102.595397335149
21
2127.51632542752
31
0.000544177577444577
  0
LINE
 8
GROUP0
10
-180.154652552963
20
2156.94405954305
30
0.000677228146123321
11
-180.472489798159
21
2156.52984598067
31
0.000677576723473888
  0
LINE
 8
GROUP0
10
101.113007435759
20
2129.44815560175
30
0.000519644324575336
11
101.181148283236
21
2129.96579467912
31
0.000513105412567821
  0
LINE
 8
GROUP0
10
-181.369065270327
20
2156.01220789047
30
0.000677977693050824
11
-181.886703360532
21
2155.94405954305
31
0.000678002759742052
  0
LINE
 8
GROUP0
10
102.595397335149
20
2127.51632542752
30
0.000544177577444577
11
102.113032530654
21
2127.71611928363
31
0.000541615663078188
  0
LINE
 8
GROUP0
10
101.380971116838
20
2128.44815948441
30
0.000532306375839781
11
101.18116328308
21
2128.93051849914
31
0.00052619341557828
  0
LINE
 8
GROUP0
10
45.8812432796382
20
2156.94405954304
30
0.000907934293589391
11
45.6814424346294
21
2157.42642145284
31
0.000907488828137792
  0
LINE
 8
GROUP0
10
-58.4720577296729
20
2080.86031092691
30
0.00108218055382419
11
-58.154215233224
21
2080.44610139468
31
0.0010874408024392
  0
LINE
 8
GROUP0
10
-180.886703360529
20
2159.67611035061
30
0.000674732795169325
11
-180.472489798156
21
2159.35827310542
31
0.00067504592319147
  0
LINE
 8
GROUP0
10
-180.472489798159
20
2156.52984598067
30
0.000677576723473888
11
-180.886703360532
21
2156.21200873548
31
0.000677832380015125
  0
LINE
 8
GROUP0
10
-183.618754168097
20
2158.94405954305
30
0.00067519828106955
11
-183.300916922901
21
2159.35827310542
31
0.00067484970356177
  0
LINE
 8
GROUP0
10
-179.886703360531
20
2157.94405954304
30
0.00067635196180198
11
-179.954851707953
21
2157.42642145284
31
0.000676810402611666
  0
LINE
 8
GROUP0
10
-61.300448991438
20
2078.03184794527
30
0.0011177263433218
11
-61.6182914878862
21
2078.4460574775
31
0.00111246609468634
  0
LINE
 8
GROUP0
10
103.630617535036
20
2131.38004373093
30
0.000495409802497226
11
104.112982339531
21
2131.18024987482
31
0.00049797171686432
  0
LINE
 8
GROUP0
10
-58.8862753212967
20
2081.17814292016
30
0.00107813149859542
11
-58.4720577296729
21
2080.86031092691
31
0.00108218055382419
  0
LINE
 8
GROUP0
10
-57.9544082728249
20
2079.96374201858
30
0.00109355376725636
11
-57.8862533626296
21
2079.44610479297
31
0.00110010285974825
  0
LINE
 8
GROUP0
10
-183.818555013108
20
2157.42642145284
30
0.000676542361684257
11
-183.886703360529
21
2157.94405954305
31
0.000676074465301357
  0
LINE
 8
GROUP0
10
-181.369065270323
20
2159.87591119562
30
0.000674520555439756
11
-180.886703360529
21
2159.67611035061
31
0.000674732795169325
  0
LINE
 8
GROUP0
10
-179.954851707952
20
2158.46169763325
30
0.000675884065486759
11
-179.886703360531
21
2157.94405954304
31
0.00067635196180198
  0
LINE
 8
GROUP0
10
117.112988082947
20
2350.4438082959
30
0.000120768168467622
11
80.1132790370208
21
2350.44385684385
31
0.000116439311205552
  0
LINE
 8
GROUP0
10
22.045251304656
20
2380.92578771077
30
0.000185519409217028
11
22.1133997409193
21
2381.44342578928
31
0.000185695400225355
  0
LINE
 8
GROUP0
10
22.1133997409193
20
2381.44342578928
30
0.000185695400225355
11
22.0452514823393
21
2381.96106389118
31
0.000185814701966358
  0
LINE
 8
GROUP0
10
21.5276135460194
20
2382.85763945219
30
0.000185855122326761
11
21.1134000382012
21
2383.17547676848
31
0.000185773488376173
  0
LINE
 8
GROUP0
10
-236.886625068585
20
2146.44405954292
30
0.00065750996759032
11
117.113215795529
21
2146.44405954292
31
0.00065750996759032
  0
LINE
 8
GROUP0
10
21.8454503768548
20
2380.44342583527
30
0.000185298718544225
11
22.045251304656
21
2380.92578771077
31
0.000185519409217028
  0
LINE
 8
GROUP0
10
117.113215795529
20
2146.44405954292
30
0.00065750996759032
11
117.113253742899
21
2112.4483368115
31
0.000744603454938086
  0
LINE
 8
GROUP0
10
21.8454507201215
20
2382.44342583527
30
0.000185869183275361
11
21.5276135460194
21
2382.85763945219
31
0.000185855122326761
  0
LINE
 8
GROUP0
10
21.1133994436415
20
2379.71137515334
30
0.000184785419796452
11
21.5276130605614
21
2380.02921232744
31
0.000185048367612006
  0
LINE
 8
GROUP0
10
-236.886358798348
20
2350.44381199126
30
8.26097120460556e-005
11
-199.886222188486
21
2350.44453022461
31
8.71007317063022e-005
  0
LINE
 8
GROUP0
10
-58.1541898763416
20
2078.44610139691
30
0.00111272488242389
11
-58.4720218696252
21
2078.03188380532
31
0.00111793764263203
  0
LINE
 8
GROUP0
10
-59.3686397637549
20
2081.37793764935
30
0.00107556957318605
11
-58.8862753212967
21
2081.17814292016
31
0.00107813149859542
  0
LINE
 8
GROUP0
10
-61.8180984482853
20
2078.92841685359
30
0.00110635312988963
11
-61.8862533584806
21
2079.4460540792
31
0.00109980403737518
  0
LINE
 8
GROUP0
10
22.0452514823393
20
2381.96106389118
30
0.000185814701966358
11
21.8454507201215
21
2382.44342583527
31
0.000185869183275361
  0
LINE
 8
GROUP0
10
-236.886625068585
20
2146.44405954292
30
0.00065750996759032
11
-236.886358798348
21
2350.44381199126
31
8.26097120460556e-005
  0
LINE
 8
GROUP0
10
21.5276130605614
20
2380.02921232744
30
0.000185048367612006
11
21.8454503768548
21
2380.44342583527
31
0.000185298718544225
  0
LINE
 8
GROUP0
10
20.6310381626998
20
2383.37527769628
30
0.000185629839413975
11
20.1134000841944
21
2383.44342613255
31
0.000185433971955085
  0
LINE
 8
GROUP0
10
-58.154215233224
20
2080.44610139468
30
0.0010874408024392
11
-57.9544082728249
21
2079.96374201858
31
0.00109355376725636
  0
LINE
 8
GROUP0
10
-58.8862314018884
20
2077.7140413089
30
0.00112192480972582
11
-59.3685907780194
21
2077.51423434851
31
0.00112441466486828
  0
LINE
 8
GROUP0
10
21.1134000382012
20
2383.17547676848
30
0.000185773488376173
11
20.6310381626998
21
2383.37527769628
31
0.000185629839413975
  0
LINE
 8
GROUP0
10
20.6310374995599
20
2379.51157439112
30
0.000184527792310846
11
21.1133994436415
21
2379.71137515334
31
0.000184785419796452
  0
LINE
 8
GROUP0
10
103.630673515215
20
2127.51634042737
30
0.000544254894676482
11
103.113036412566
21
2127.44818458005
31
0.000545077770211144
  0
LINE
 8
GROUP0
10
-59.3685907780194
20
2077.51423434851
30
0.00112441466486828
11
-59.8862280036728
21
2077.44607943832
31
0.00112523752854781
  0
LINE
 8
GROUP0
10
-60.4038669573554
20
2077.51422122282
30
0.00112433732395994
11
-60.8862313998135
21
2077.71401595201
31
0.00112177539855056
  0
LINE
 8
GROUP0
10
18.1815479994973
20
2380.92578837392
30
0.000183912311581969
11
18.3813487617173
21
2380.44342642983
31
0.000183857833613921
  0
LINE
 8
GROUP0
10
-58.4720218696252
20
2078.03188380532
30
0.00111793764263203
11
-58.8862314018884
21
2077.7140413089
31
0.00112192480972582
  0
LINE
 8
GROUP0
10
-60.8862313998135
20
2077.71401595201
30
0.00112177539855056
11
-61.300448991438
21
2078.03184794527
31
0.0011177263433218
  0
LINE
 8
GROUP0
10
-57.8862533626296
20
2079.44610479297
30
0.00110010285974825
11
-57.9543951471369
21
2078.92846583933
31
0.00110664177014204
  0
LINE
 8
GROUP0
10
102.113032530654
20
2127.71611928363
30
0.000541615663078188
11
101.698814363359
21
2128.03395052727
31
0.000537566617279395
  0
LINE
 8
GROUP0
10
-59.8862280036728
20
2077.44607943832
30
0.00112523752854781
11
-60.4038669573554
21
2077.51422122282
31
0.00112433732395994
  0
LINE
 8
GROUP0
10
-57.9543951471369
20
2078.92846583933
30
0.00110664177014204
11
-58.1541898763416
21
2078.44610139691
31
0.00111272488242389
  0
LINE
 8
GROUP0
10
-61.6182914878862
20
2078.4460574775
30
0.00111246609468634
11
-61.8180984482853
21
2078.92841685359
31
0.00110635312988963
  0
LINE
 8
GROUP0
10
-141.886587165839
20
2381.44346801926
30
1.73777994511015e-007
11
-141.818438907261
21
2380.92582991736
31
5.44776973310235e-008
  0
LINE
 8
GROUP0
10
19.5957619822904
20
2383.37527787397
30
0.000185199219883897
11
19.1134000382053
21
2383.17547711175
31
0.000184941592217813
  0
LINE
 8
GROUP0
10
19.5957613191455
20
2379.51157456881
30
0.000184097172780767
11
20.1133993976552
21
2379.44342613255
31
0.000184293048541639
  0
LINE
 8
GROUP0
10
-140.886587463118
20
2379.71141704006
30
9.56900241710912e-008
11
-140.40422558762
21
2379.51161611226
31
2.39338447050041e-007
  0
LINE
 8
GROUP0
10
18.3813487617173
20
2380.44342642983
30
0.000183857833613921
11
18.6991859358201
21
2380.0292128129
31
0.000183871891221565
  0
LINE
 8
GROUP0
10
-141.618638145043
20
2380.44346797328
30
0.0
11
-141.300800970943
21
2380.02925435635
31
1.40605855292186e-008
  0
LINE
 8
GROUP0
10
-139.886587509111
20
2379.443467676
30
4.35214927718697e-007
11
-139.36894940721
21
2379.51161593457
31
6.69958338084253e-007
  0
LINE
 8
GROUP0
10
-141.300800485482
20
2382.8576814811
30
8.20815119806362e-007
11
-141.618637801778
21
2382.44346797328
31
5.70461663013111e-007
  0
LINE
 8
GROUP0
10
19.1133994436405
20
2379.71137549661
30
0.00018395352887195
11
19.5957613191455
21
2379.51157456881
31
0.000184097172780767
  0
LINE
 8
GROUP0
10
-140.40422558762
20
2379.51161611226
30
2.39338447050041e-007
11
-139.886587509111
21
2379.443467676
31
4.35214927718697e-007
  0
LINE
 8
GROUP0
10
-137.886587165843
20
2381.44346733272
30
1.83757157457554e-006
11
-137.954735424417
21
2381.96110543463
31
1.95686654765881e-006
  0
LINE
 8
GROUP0
10
20.1133993976552
20
2379.44342613255
30
0.000184293048541639
11
20.6310374995599
21
2379.51157439112
31
0.000184527792310846
  0
LINE
 8
GROUP0
10
19.1134000382053
20
2383.17547711175
30
0.000184941592217813
11
18.6991864212738
21
2382.85763993765
31
0.000184678643951064
  0
LINE
 8
GROUP0
10
-138.472373360738
20
2382.85768099564
30
1.99728528376131e-006
11
-138.886586868558
21
2383.17551831193
31
1.91565449153552e-006
  0
LINE
 8
GROUP0
10
-138.886587463121
20
2379.71141669679
30
9.27586002053005e-007
11
-138.472373846195
21
2380.02925387089
31
1.19053417856341e-006
  0
LINE
 8
GROUP0
10
-141.818438729584
20
2381.96110609777
30
3.49770627139367e-007
11
-141.886587165839
21
2381.44346801926
31
1.73777994511015e-007
  0
LINE
 8
GROUP0
10
-137.954735424417
20
2381.96110543463
30
1.95686654765881e-006
11
-138.154536186636
21
2382.44346737871
31
2.01134930048474e-006
  0
LINE
 8
GROUP0
10
18.3813491049847
20
2382.44342642983
30
0.000184428295367173
11
18.1815481771886
21
2381.96106455433
31
0.000184207604331299
  0
LINE
 8
GROUP0
10
20.1134000841944
20
2383.44342613255
30
0.000185433971955085
11
19.5957619822904
21
2383.37527787397
31
0.000185199219883897
  0
LINE
 8
GROUP0
10
-141.618637801778
20
2382.44346797328
30
5.70461663013111e-007
11
-141.818438729584
21
2381.96110609777
31
3.49770627139367e-007
  0
LINE
 8
GROUP0
10
-138.154536529905
20
2380.44346737872
30
1.44088276456955e-006
11
-137.954735602099
21
2380.92582925422
31
1.66157379832832e-006
  0
LINE
 8
GROUP0
10
-138.154536186636
20
2382.44346737871
30
2.01134930048474e-006
11
-138.472373360738
21
2382.85768099564
31
1.99728528376131e-006
  0
LINE
 8
GROUP0
10
18.1815481771886
20
2381.96106455433
30
0.000184207604331299
11
18.1133997409231
21
2381.44342647582
31
0.000184031611969387
  0
LINE
 8
GROUP0
10
-141.300800970943
20
2380.02925435635
30
1.40605855292186e-008
11
-140.886587463118
21
2379.71141704006
31
9.56900241710912e-008
  0
LINE
 8
GROUP0
10
18.1133997409231
20
2381.44342647582
30
0.000184031611969387
11
18.1815479994973
21
2380.92578837392
31
0.000183912311581969
  0
LINE
 8
GROUP0
10
-141.818438907261
20
2380.92582991736
30
5.44776973310235e-008
11
-141.618638145043
21
2380.44346797328
31
0.0
  0
LINE
 8
GROUP0
10
-139.36894940721
20
2379.51161593457
30
6.69958338084253e-007
11
-138.886587463121
21
2379.71141669679
31
9.27586002053005e-007
  0
LINE
 8
GROUP0
10
-138.472373846195
20
2380.02925387089
30
1.19053417856341e-006
11
-138.154536529905
21
2380.44346737872
31
1.44088276456955e-006
  0
LINE
 8
GROUP0
10
18.6991864212738
20
2382.85763993765
30
0.000184678643951064
11
18.3813491049847
21
2382.44342642983
31
0.000184428295367173
  0
LINE
 8
GROUP0
10
-137.954735602099
20
2380.92582925422
30
1.66157379832832e-006
11
-137.886587165843
21
2381.44346733272
31
1.83757157457554e-006
  0
LINE
 8
GROUP0
10
-138.886586868558
20
2383.17551831193
30
1.91565449153552e-006
11
-139.368948744056
21
2383.37531923973
31
1.77201076319577e-006
  0
LINE
 8
GROUP0
10
18.6991859358201
20
2380.0292128129
30
0.000183871891221565
11
19.1133994436405
21
2379.71137549661
31
0.00018395352887195
  0
LINE
 8
GROUP0
10
-49.0427233417791
20
2356.31148237568
30
9.5596786496227e-005
11
-50.8322721563994
21
2358.64366863199
31
9.55431796701101e-005
  0
LINE
 8
GROUP0
10
-59.8867242993799
20
2370.44365522661
30
9.52719465639074e-005
11
-68.9411738960001
21
2358.64367100079
31
8.91667487719738e-005
  0
LINE
 8
GROUP0
10
-47.7918134907574
20
2353.29151737073
30
9.52907094717459e-005
11
-49.0427233417791
21
2356.31148237568
31
9.5596786496227e-005
  0
LINE
 8
GROUP0
10
-50.8322721563994
20
2358.64366863199
30
9.55431796701101e-005
11
-59.8867242993799
21
2370.44365522661
31
9.52719465639074e-005
  0
LINE
 8
GROUP0
10
-72.4082966210155
20
2350.05070021604
30
8.58217181331888e-005
11
-71.9816349483763
21
2346.80987873013
31
8.51708141175744e-005
  0
LINE
 8
GROUP0
10
-70.7307229317416
20
2356.31148612663
30
8.79600988720031e-005
11
-71.9816338273735
21
2353.29152155438
31
8.67730911757347e-005
  0
LINE
 8
GROUP0
10
-47.3651518181175
20
2350.05069588482
30
9.46398054596564e-005
11
-47.7918134907574
21
2353.29151737073
31
9.52907094717459e-005
  0
LINE
 8
GROUP0
10
-165.654652552983
20
2135.94405954305
30
0.000708402912969364
11
-165.454851707974
21
2135.46169763325
31
0.000708848378420962
  0
LINE
 8
GROUP0
10
-165.972489798178
20
2136.35827310542
30
0.000708010236170792
11
-165.654652552983
21
2135.94405954305
31
0.000708402912969364
  0
LINE
 8
GROUP0
10
62.1132940871837
20
2132.94405954305
30
0.00094191353917491
11
61.5956559969788
21
2133.01220789047
31
0.000941816651141558
  0
LINE
 8
GROUP0
10
60.1814424346085
20
2135.46169763325
30
0.000939526803879409
11
60.3812432796181
21
2135.94405954305
31
0.000939109060435434
  0
LINE
 8
GROUP0
10
-140.404224924473
20
2383.37531941742
30
1.34138762356018e-006
11
-140.886586868561
21
2383.1755186552
31
1.08376338655569e-006
  0
LINE
 8
GROUP0
10
60.699080524814
20
2136.35827310542
30
0.000938760482972067
11
61.1132940871874
21
2136.67611035061
31
0.00093850482647595
  0
LINE
 8
GROUP0
10
-140.886586868561
20
2383.1755186552
30
1.08376338655569e-006
11
-141.300800485482
21
2382.8576814811
31
8.20815119806362e-007
  0
LINE
 8
GROUP0
10
63.1132940871865
20
2136.67611035061
30
0.000938643574714981
11
63.527507649559
21
2136.35827310542
31
0.000938956702624327
  0
LINE
 8
GROUP0
10
60.1814424346077
20
2134.42642145284
30
0.000940453141162234
11
60.1132940871862
21
2134.94405954305
31
0.000939985244779334
  0
LINE
 8
GROUP0
10
60.6990805248116
20
2133.52984598068
30
0.000941291283434964
11
60.3812432796162
21
2133.94405954305
31
0.000940898606524299
  0
LINE
 8
GROUP0
10
61.1132940871842
20
2133.21200873548
30
0.000941604411299191
11
60.6990805248116
21
2133.52984598068
31
0.000941291283434964
  0
LINE
 8
GROUP0
10
61.1132940871874
20
2136.67611035061
30
0.00093850482647595
11
61.5956559969824
21
2136.87591119562
31
0.00093835951353049
  0
LINE
 8
GROUP0
10
60.3812432796162
20
2133.94405954305
30
0.000940898606524299
11
60.1814424346077
21
2134.42642145284
31
0.000940453141162234
  0
LINE
 8
GROUP0
10
-49.0427255073921
20
2343.78990997423
30
9.25014247173173e-005
11
-47.7918146117606
21
2346.80987454648
31
9.36884324135856e-005
  0
LINE
 8
GROUP0
10
-166.386703360551
20
2136.67611035062
30
0.000707697108284006
11
-165.972489798178
21
2136.35827310542
31
0.000708010236170792
  0
LINE
 8
GROUP0
10
60.3812432796181
20
2135.94405954305
30
0.000939109060435434
11
60.699080524814
21
2136.35827310542
31
0.000938760482972067
  0
LINE
 8
GROUP0
10
-139.368948744056
20
2383.37531923973
30
1.77201076319577e-006
11
-139.886586822574
21
2383.443467676
31
1.57613798020817e-006
  0
LINE
 8
GROUP0
10
-165.454851707974
20
2135.46169763325
30
0.000708848378420962
11
-165.386703360552
21
2134.94405954305
31
0.000709316274736182
  0
LINE
 8
GROUP0
10
60.1132940871862
20
2134.94405954305
30
0.000939985244779334
11
60.1814424346085
21
2135.46169763325
31
0.000939526803879409
  0
LINE
 8
GROUP0
10
-139.886586822574
20
2383.443467676
30
1.57613798020817e-006
11
-140.404224924473
21
2383.37531941742
31
1.34138762356018e-006
  0
LINE
 8
GROUP0
10
-47.7918146117606
20
2346.80987454648
30
9.36884324135856e-005
11
-47.3651518181175
21
2350.05069588482
31
9.46398054596564e-005
  0
LINE
 8
GROUP0
10
62.6309321773919
20
2136.87591119562
30
0.000938431334873319
11
63.1132940871865
21
2136.67611035061
31
0.000938643574714981
  0
LINE
 8
GROUP0
10
62.6309321773885
20
2133.01220789047
30
0.000941888472574626
11
62.1132940871837
21
2132.94405954305
31
0.00094191353917491
  0
LINE
 8
GROUP0
10
-71.9816338273735
20
2353.29152155438
30
8.67730911757347e-005
11
-72.4082966210155
21
2350.05070021604
31
8.58217181331888e-005
  0
LINE
 8
GROUP0
10
-68.9411738960001
20
2358.64367100079
30
8.91667487719738e-005
11
-70.7307229317416
21
2356.31148612663
31
8.79600988720031e-005
  0
LINE
 8
GROUP0
10
-182.886703360546
20
2136.67611035062
30
0.000693578223072283
11
-182.404341450751
21
2136.87591119563
31
0.000693432910149383
  0
LINE
 8
GROUP0
10
-183.300916922922
20
2133.52984598068
30
0.000696364679963618
11
-183.618754168117
21
2133.94405954305
31
0.000695972003143191
  0
LINE
 8
GROUP0
10
-179.95485170797
20
2135.46169763325
30
0.000694868241470831
11
-179.886703360549
21
2134.94405954305
31
0.000695336137808611
  0
LINE
 8
GROUP0
10
-180.472489798177
20
2133.52984598068
30
0.000696560899638438
11
-180.88670336055
21
2133.21200873548
31
0.000696816556134555
  0
LINE
 8
GROUP0
10
63.527507649559
20
2136.35827310542
30
0.000938956702624327
11
63.8453448947543
21
2135.94405954304
31
0.000939349379445459
  0
LINE
 8
GROUP0
10
-181.369065270342
20
2136.87591119563
30
0.000693504731514771
11
-180.886703360547
21
2136.67611035062
31
0.000693716971333874
  0
LINE
 8
GROUP0
10
-183.618754168117
20
2133.94405954305
30
0.000695972003143191
11
-183.818555013126
21
2134.42642145285
31
0.000695526537781832
  0
LINE
 8
GROUP0
10
-180.88670336055
20
2133.21200873548
30
0.000696816556134555
11
-181.369065270345
21
2133.01220789047
31
0.000696961869261198
  0
LINE
 8
GROUP0
10
47.6132940871871
20
2132.94405954305
30
0.000927933402269898
11
47.0956559969822
21
2133.01220789047
31
0.000927836514236546
  0
LINE
 8
GROUP0
10
62.1132940871871
20
2136.94405954304
30
0.000938334446861822
11
62.6309321773919
21
2136.87591119562
31
0.000938431334873319
  0
LINE
 8
GROUP0
10
45.8812432796199
20
2133.94405954305
30
0.000926918469641846
11
45.6814424346111
21
2134.42642145284
31
0.000926473004279782
  0
LINE
 8
GROUP0
10
64.0451457397623
20
2134.42642145284
30
0.000940721182089643
11
63.8453448947526
21
2133.94405954305
31
0.000941138925579443
  0
LINE
 8
GROUP0
10
64.0451457397631
20
2135.46169763325
30
0.000939794844874497
11
64.1132940871845
21
2134.94405954304
31
0.000940262741234837
  0
LINE
 8
GROUP0
10
-183.30091692292
20
2136.35827310542
30
0.00069383387959096
11
-182.886703360546
21
2136.67611035062
31
0.000693578223072283
  0
LINE
 8
GROUP0
10
-183.818555013125
20
2135.46169763326
30
0.000694600200520862
11
-183.618754168116
21
2135.94405954305
31
0.000694182457054326
  0
LINE
 8
GROUP0
10
63.8453448947526
20
2133.94405954305
30
0.000941138925579443
11
63.5275076495566
21
2133.52984598067
31
0.000941487503064664
  0
LINE
 8
GROUP0
10
-180.154652552981
20
2133.94405954305
30
0.000696212322130657
11
-180.472489798177
21
2133.52984598068
31
0.000696560899638438
  0
LINE
 8
GROUP0
10
-180.154652552979
20
2135.94405954305
30
0.000694422776132031
11
-179.95485170797
21
2135.46169763325
31
0.000694868241470831
  0
LINE
 8
GROUP0
10
-183.618754168116
20
2135.94405954305
30
0.000694182457054326
11
-183.30091692292
21
2136.35827310542
31
0.00069383387959096
  0
LINE
 8
GROUP0
10
-183.886703360547
20
2134.94405954305
30
0.000695058641443347
11
-183.818555013125
21
2135.46169763326
31
0.000694600200520862
  0
LINE
 8
GROUP0
10
-180.886703360547
20
2136.67611035062
30
0.000693716971333874
11
-180.472489798175
21
2136.35827310542
31
0.00069403009922066
  0
LINE
 8
GROUP0
10
61.5956559969824
20
2136.87591119562
30
0.00093835951353049
11
62.1132940871871
21
2136.94405954304
31
0.000938334446861822
  0
LINE
 8
GROUP0
10
63.8453448947543
20
2135.94405954304
30
0.000939349379445459
11
64.0451457397631
21
2135.46169763325
31
0.000939794844874497
  0
LINE
 8
GROUP0
10
63.1132940871835
20
2133.21200873548
30
0.000941743159493102
11
62.6309321773885
21
2133.01220789047
31
0.000941888472574626
  0
LINE
 8
GROUP0
10
63.5275076495566
20
2133.52984598067
30
0.000941487503064664
11
63.1132940871835
21
2133.21200873548
31
0.000941743159493102
  0
LINE
 8
GROUP0
10
-181.886703360547
20
2136.94405954305
30
0.000693407843480714
11
-181.369065270342
21
2136.87591119563
31
0.000693504731514771
  0
LINE
 8
GROUP0
10
64.1132940871845
20
2134.94405954304
30
0.000940262741234837
11
64.0451457397623
21
2134.42642145284
31
0.000940721182089643
  0
LINE
 8
GROUP0
10
61.5956559969788
20
2133.01220789047
30
0.000941816651141558
11
61.1132940871842
21
2133.21200873548
31
0.000941604411299191
  0
LINE
 8
GROUP0
10
-182.404341450751
20
2136.87591119563
30
0.000693432910149383
11
-181.886703360547
21
2136.94405954305
31
0.000693407843480714
  0
LINE
 8
GROUP0
10
-179.886703360549
20
2134.94405954305
30
0.000695336137808611
11
-179.954851707971
21
2134.42642145285
31
0.000695794578731801
  0
LINE
 8
GROUP0
10
-180.472489798175
20
2136.35827310542
30
0.00069403009922066
11
-180.154652552979
21
2135.94405954305
31
0.000694422776132031
  0
LINE
 8
GROUP0
10
-179.954851707971
20
2134.42642145285
30
0.000695794578731801
11
-180.154652552981
21
2133.94405954305
31
0.000696212322130657
  0
LINE
 8
GROUP0
10
45.8812432796215
20
2135.94405954305
30
0.000925128923552981
11
46.1990805248175
21
2136.35827310542
31
0.000924780346021936
  0
LINE
 8
GROUP0
10
49.5451457397656
20
2134.42642145284
30
0.000926741045162072
11
49.3453448947562
21
2133.94405954305
31
0.000927158788561633
  0
LINE
 8
GROUP0
10
-182.886703360549
20
2133.21200873549
30
0.000696677807872964
11
-183.300916922922
21
2133.52984598068
31
0.000696364679963618
  0
LINE
 8
GROUP0
10
45.6814424346111
20
2134.42642145284
30
0.000926473004279782
11
45.6132940871896
21
2134.94405954305
31
0.000926005108009681
  0
LINE
 8
GROUP0
10
49.0275076495625
20
2136.35827310542
30
0.000924976565764435
11
49.3453448947578
21
2135.94405954304
31
0.000925369242563007
  0
LINE
 8
GROUP0
10
49.5451457397665
20
2135.46169763325
30
0.000925814707992045
11
49.6132940871879
21
2134.94405954304
31
0.000926282604307266
  0
LINE
 8
GROUP0
10
45.6814424346118
20
2135.46169763325
30
0.000925546666996957
11
45.8812432796215
21
2135.94405954305
31
0.000925128923552981
  0
LINE
 8
GROUP0
10
49.3453448947562
20
2133.94405954305
30
0.000927158788561633
11
49.0275076495602
21
2133.52984598067
31
0.000927507366159652
  0
LINE
 8
GROUP0
10
-165.386703360552
20
2134.94405954305
30
0.000709316274736182
11
-165.454851707975
21
2134.42642145285
31
0.000709774715636813
  0
LINE
 8
GROUP0
10
46.1990805248152
20
2133.52984598068
30
0.000927311146507392
11
45.8812432796199
21
2133.94405954305
31
0.000926918469641846
  0
LINE
 8
GROUP0
10
-182.404341450755
20
2133.01220789048
30
0.000696890047737891
11
-182.886703360549
21
2133.21200873549
31
0.000696677807872964
  0
LINE
 8
GROUP0
10
46.6132940871878
20
2133.21200873548
30
0.000927624274394179
11
46.1990805248152
21
2133.52984598068
31
0.000927311146507392
  0
LINE
 8
GROUP0
10
49.6132940871879
20
2134.94405954304
30
0.000926282604307266
11
49.5451457397656
21
2134.42642145284
31
0.000926741045162072
  0
LINE
 8
GROUP0
10
-181.88670336055
20
2132.94405954305
30
0.000696986935816363
11
-182.404341450755
21
2133.01220789048
31
0.000696890047737891
  0
LINE
 8
GROUP0
10
47.0956559969822
20
2133.01220789047
30
0.000927836514236546
11
46.6132940871878
21
2133.21200873548
31
0.000927624274394179
  0
LINE
 8
GROUP0
10
48.61329408719
20
2136.67611035061
30
0.000924663437832529
11
49.0275076495625
21
2136.35827310542
31
0.000924976565764435
  0
LINE
 8
GROUP0
10
-165.454851707975
20
2134.42642145285
30
0.000709774715636813
11
-165.654652552984
21
2133.94405954305
31
0.000710192459058229
  0
LINE
 8
GROUP0
10
49.3453448947578
20
2135.94405954304
30
0.000925369242563007
11
49.5451457397665
21
2135.46169763325
31
0.000925814707992045
  0
LINE
 8
GROUP0
10
48.1309321773918
20
2133.01220789047
30
0.000927908335601935
11
47.6132940871871
21
2132.94405954305
31
0.000927933402269898
  0
LINE
 8
GROUP0
10
-165.97248979818
20
2133.52984598068
30
0.000710541036543449
11
-166.386703360554
21
2133.21200873548
31
0.000710796693039567
  0
LINE
 8
GROUP0
10
-166.386703360554
20
2133.21200873548
30
0.000710796693039567
11
-166.869065270349
21
2133.01220789047
31
0.00071094200616621
  0
LINE
 8
GROUP0
10
-181.369065270345
20
2133.01220789047
30
0.000696961869261198
11
-181.88670336055
21
2132.94405954305
31
0.000696986935816363
  0
LINE
 8
GROUP0
10
-165.654652552984
20
2133.94405954305
30
0.000710192459058229
11
-165.97248979818
21
2133.52984598068
31
0.000710541036543449
  0
LINE
 8
GROUP0
10
45.6132940871896
20
2134.94405954305
30
0.000926005108009681
11
45.6814424346118
21
2135.46169763325
31
0.000925546666996957
  0
LINE
 8
GROUP0
10
48.1309321773953
20
2136.87591119562
30
0.000924451197900627
11
48.61329408719
21
2136.67611035061
31
0.000924663437832529
  0
LINE
 8
GROUP0
10
-183.818555013126
20
2134.42642145285
30
0.000695526537781832
11
-183.886703360547
21
2134.94405954305
31
0.000695058641443347
  0
LINE
 8
GROUP0
10
48.6132940871869
20
2133.21200873548
30
0.00092776302261065
11
48.1309321773918
21
2133.01220789047
31
0.000927908335601935
  0
LINE
 8
GROUP0
10
47.6132940871906
20
2136.94405954304
30
0.000924354310001929
11
48.1309321773953
21
2136.87591119562
31
0.000924451197900627
  0
LINE
 8
GROUP0
10
46.6132940871908
20
2136.67611035061
30
0.000924524689570938
11
47.0956559969856
21
2136.87591119562
31
0.000924379376625478
  0
LINE
 8
GROUP0
10
49.0275076495602
20
2133.52984598067
30
0.000927507366159652
11
48.6132940871869
21
2133.21200873548
31
0.00092776302261065
  0
LINE
 8
GROUP0
10
47.0956559969856
20
2136.87591119562
30
0.000924379376625478
11
47.6132940871906
21
2136.94405954304
31
0.000924354310001929
  0
LINE
 8
GROUP0
10
46.1990805248175
20
2136.35827310542
30
0.000924780346021936
11
46.6132940871908
21
2136.67611035061
31
0.000924524689570938
  0
LINE
 8
GROUP0
10
-167.904341450758
20
2133.01220789048
30
0.000710870184665463
11
-168.386703360553
21
2133.21200873549
31
0.000710657944845655
  0
LINE
 8
GROUP0
10
-166.869065270349
20
2133.01220789047
30
0.00071094200616621
11
-167.386703360553
21
2132.94405954305
31
0.000710967072608576
  0
LINE
 8
GROUP0
10
-168.386703360553
20
2133.21200873549
30
0.000710657944845655
11
-168.800916922925
21
2133.52984598068
31
0.00071034481684607
  0
LINE
 8
GROUP0
10
-169.118754168121
20
2133.94405954305
30
0.000709952140070763
11
-169.318555013129
21
2134.42642145285
31
0.000709506674664284
  0
LINE
 8
GROUP0
10
-169.118754168119
20
2135.94405954305
30
0.000708162594027017
11
-168.800916922923
21
2136.35827310542
31
0.000707814016563651
  0
LINE
 8
GROUP0
10
-167.904341450755
20
2136.87591119563
30
0.000707413047009275
11
-167.38670336055
21
2136.94405954305
31
0.000707387980408286
  0
LINE
 8
GROUP0
10
-167.38670336055
20
2136.94405954305
30
0.000707387980408286
11
-166.869065270345
21
2136.87591119563
31
0.000707484868419783
  0
LINE
 8
GROUP0
10
-166.869065270345
20
2136.87591119563
30
0.000707484868419783
11
-166.386703360551
21
2136.67611035062
31
0.000707697108284006
  0
LINE
 8
GROUP0
10
-169.386703360551
20
2134.94405954305
30
0.000709038778348359
11
-169.318555013129
21
2135.46169763326
31
0.000708580337358194
  0
LINE
 8
GROUP0
10
-168.38670336055
20
2136.67611035062
30
0.000707558359977295
11
-167.904341450755
21
2136.87591119563
31
0.000707413047009275
  0
LINE
 8
GROUP0
10
-169.318555013129
20
2134.42642145285
30
0.000709506674664284
11
-169.386703360551
21
2134.94405954305
31
0.000709038778348359
  0
LINE
 8
GROUP0
10
-169.318555013129
20
2135.46169763326
30
0.000708580337358194
11
-169.118754168119
21
2135.94405954305
31
0.000708162594027017
  0
LINE
 8
GROUP0
10
-167.386703360553
20
2132.94405954305
30
0.000710967072608576
11
-167.904341450758
21
2133.01220789048
31
0.000710870184665463
  0
LINE
 8
GROUP0
10
-168.800916922923
20
2136.35827310542
30
0.000707814016563651
11
-168.38670336055
21
2136.67611035062
31
0.000707558359977295
  0
LINE
 8
GROUP0
10
-168.800916922925
20
2133.52984598068
30
0.00071034481684607
11
-169.118754168121
21
2133.94405954305
31
0.000709952140070763
 0
ENDSEC
 0
EOF
