 0
SECTION
 2
ENTITIES
  0
LINE
 8
GROUP0
10
23.5109591539806
20
2125.16196766305
30
0.00092556289585542
11
23.6608097877375
21
2124.8001962307
31
0.000925896994942532
  0
LINE
 8
GROUP0
10
38.0109591539771
20
2125.16196766305
30
0.000939543032747037
11
38.1608097877339
21
2124.8001962307
31
0.000939877131837674
  0
LINE
 8
GROUP0
10
37.1001496159546
20
2125.86085640248
30
0.000938854499318636
11
37.4619210483007
21
2125.71100576873
31
0.000939013679203232
  0
LINE
 8
GROUP0
10
35.9619210483012
20
2125.71100576873
30
0.000938909618029599
11
36.3236924806473
21
2125.86085640248
31
0.00093880063329107
  0
LINE
 8
GROUP0
10
35.6512608765215
20
2125.47262783483
30
0.000939101360409794
11
35.9619210483012
21
2125.71100576873
31
0.000938909618029599
  0
LINE
 8
GROUP0
10
36.711921048301
20
2125.91196766305
30
0.000938781833325347
11
37.1001496159546
21
2125.86085640248
31
0.000938854499318636
  0
LINE
 8
GROUP0
10
-193.848736571215
20
2123.35130749128
30
0.000710052994259369
11
-194.087114505112
21
2123.66196766306
31
0.000709758486648632
  0
LINE
 8
GROUP0
10
38.1608097877338
20
2124.0237390954
30
0.000940571884770536
11
38.0109591539769
21
2123.66196766305
31
0.000940885192349816
  0
LINE
 8
GROUP0
10
20.7119210483051
20
2124.41196766305
30
0.000926039794887551
11
20.7630323088714
21
2124.8001962307
31
0.000925695964221596
  0
LINE
 8
GROUP0
10
35.9619210483011
20
2123.11292955737
30
0.000941234306653022
11
35.6512608765214
21
2123.35130749127
31
0.000940999460722774
  0
LINE
 8
GROUP0
10
35.2630323088678
20
2124.0237390954
30
0.000940370854019284
11
35.2119210483015
21
2124.41196766305
31
0.000940019931754493
  0
LINE
 8
GROUP0
10
38.2119210483003
20
2124.41196766305
30
0.000940228054102465
11
38.1608097877338
21
2124.0237390954
31
0.000940571884770536
  0
LINE
 8
GROUP0
10
37.7725812200802
20
2123.35130749127
30
0.00094114662544646
11
37.4619210483005
21
2123.11292955737
31
0.00094133836782736
  0
LINE
 8
GROUP0
10
36.7119210483008
20
2122.91196766305
30
0.000941466152530906
11
36.3236924806472
21
2122.96307892362
31
0.000941393486537617
  0
LINE
 8
GROUP0
10
20.9128829426283
20
2125.16196766305
30
0.000925382656642315
11
21.1512608765251
21
2125.47262783483
31
0.000925121223544967
  0
LINE
 8
GROUP0
10
22.6001496159581
20
2125.86085640248
30
0.000924874362440414
11
22.9619210483042
21
2125.71100576873
31
0.00092503354232078
  0
LINE
 8
GROUP0
10
35.2119210483015
20
2124.41196766305
30
0.000940019931754493
11
35.2630323088679
21
2124.8001962307
31
0.000939676101086423
  0
LINE
 8
GROUP0
10
38.0109591539769
20
2123.66196766305
30
0.000940885192349816
11
37.7725812200802
21
2123.35130749127
31
0.00094114662544646
  0
LINE
 8
GROUP0
10
21.4619210483048
20
2125.71100576873
30
0.000924929481162656
11
21.8236924806508
21
2125.86085640248
31
0.000924820496421308
  0
LINE
 8
GROUP0
10
21.1512608765249
20
2123.35130749127
30
0.000927019323845257
11
20.9128829426282
21
2123.66196766305
31
0.00092672481623593
  0
LINE
 8
GROUP0
10
37.4619210483005
20
2123.11292955737
30
0.00094133836782736
11
37.1001496159544
21
2122.96307892362
31
0.000941447352565183
  0
LINE
 8
GROUP0
10
38.1608097877339
20
2124.8001962307
30
0.000939877131837674
11
38.2119210483003
21
2124.41196766305
31
0.000940228054102465
  0
LINE
 8
GROUP0
10
35.6512608765214
20
2123.35130749127
30
0.000940999460722774
11
35.4128829426247
21
2123.66196766305
31
0.000940704953109217
  0
LINE
 8
GROUP0
10
35.4128829426247
20
2123.66196766305
30
0.000940704953109217
11
35.2630323088678
21
2124.0237390954
31
0.000940370854019284
  0
LINE
 8
GROUP0
10
37.4619210483007
20
2125.71100576873
30
0.000939013679203232
11
37.7725812200803
21
2125.47262783483
31
0.000939248525133479
  0
LINE
 8
GROUP0
10
36.3236924806472
20
2122.96307892362
30
0.000941393486537617
11
35.9619210483011
21
2123.11292955737
31
0.000941234306653022
  0
LINE
 8
GROUP0
10
36.3236924806473
20
2125.86085640248
30
0.00093880063329107
11
36.711921048301
21
2125.91196766305
31
0.000938781833325347
  0
LINE
 8
GROUP0
10
35.4128829426248
20
2125.16196766305
30
0.000939362793506437
11
35.6512608765215
21
2125.47262783483
31
0.000939101360409794
  0
LINE
 8
GROUP0
10
35.2630323088679
20
2124.8001962307
30
0.000939676101086423
11
35.4128829426248
21
2125.16196766305
31
0.000939362793506437
  0
LINE
 8
GROUP0
10
37.1001496159544
20
2122.96307892362
30
0.000941447352565183
11
36.7119210483008
21
2122.91196766305
31
0.000941466152530906
  0
LINE
 8
GROUP0
10
20.7630323088714
20
2124.0237390954
30
0.000926390717150227
11
20.7119210483051
21
2124.41196766305
31
0.000926039794887551
  0
LINE
 8
GROUP0
10
37.7725812200803
20
2125.47262783483
30
0.000939248525133479
11
38.0109591539771
21
2125.16196766305
31
0.000939543032747037
  0
LINE
 8
GROUP0
10
-206.538076399433
20
2125.71100576873
30
0.00069408707582706
11
-206.227416227653
21
2125.47262783483
31
0.000694321921755897
  0
LINE
 8
GROUP0
10
-192.399847831782
20
2122.96307892362
30
0.000710500886098253
11
-192.788076399436
21
2122.91196766306
31
0.000710519686063976
  0
LINE
 8
GROUP0
10
-194.236965138869
20
2124.80019623071
30
0.000708729634636412
11
-194.087114505112
21
2125.16196766305
31
0.000708416327059952
  0
LINE
 8
GROUP0
10
-206.227416227653
20
2123.35130749128
30
0.000696220022060418
11
-206.538076399433
21
2123.11292955738
31
0.000696411764439908
  0
LINE
 8
GROUP0
10
-207.288076399433
20
2125.91196766305
30
0.000693855229950585
11
-206.899847831779
21
2125.86085640249
31
0.000693927895943169
  0
LINE
 8
GROUP0
10
-191.48903829376
20
2123.66196766306
30
0.000709938725889936
11
-191.727416227657
21
2123.35130749128
31
0.000710200158983759
  0
LINE
 8
GROUP0
10
-205.788076399433
20
2124.41196766306
30
0.000695301450719948
11
-205.83918766
21
2124.0237390954
31
0.000695645281386609
  0
LINE
 8
GROUP0
10
-205.83918766
20
2124.80019623071
30
0.000694950528457272
11
-205.788076399433
21
2124.41196766306
31
0.000695301450719948
  0
LINE
 8
GROUP0
10
-191.727416227657
20
2123.35130749128
30
0.000710200158983759
11
-192.038076399436
21
2123.11292955738
31
0.00071039190136184
  0
LINE
 8
GROUP0
10
-205.83918766
20
2124.0237390954
30
0.000695645281386609
11
-205.989038293757
21
2123.66196766306
31
0.000695958588964479
  0
LINE
 8
GROUP0
10
-191.339187660003
20
2124.80019623071
30
0.000708930665388369
11
-191.288076399437
21
2124.41196766306
31
0.000709281587649635
  0
LINE
 8
GROUP0
10
-192.038076399436
20
2123.11292955738
30
0.00071039190136184
11
-192.399847831782
21
2122.96307892362
31
0.000710500886098253
  0
LINE
 8
GROUP0
10
-192.038076399436
20
2125.71100576873
30
0.000708067212762387
11
-191.727416227657
21
2125.47262783483
31
0.000708302058690519
  0
LINE
 8
GROUP0
10
-193.17630496709
20
2125.86085640249
30
0.00070785416685093
11
-192.788076399436
21
2125.91196766305
31
0.000707835366885912
  0
LINE
 8
GROUP0
10
-205.989038293757
20
2123.66196766306
30
0.000695958588964479
11
-206.227416227653
21
2123.35130749128
31
0.000696220022060418
  0
LINE
 8
GROUP0
10
-194.087114505112
20
2125.16196766305
30
0.000708416327059952
11
-193.848736571215
21
2125.47262783483
31
0.000708154893966129
  0
LINE
 8
GROUP0
10
-193.17630496709
20
2122.96307892362
30
0.000710447020070687
11
-193.538076399436
21
2123.11292955738
31
0.000710287840187501
  0
LINE
 8
GROUP0
10
-192.788076399436
20
2122.91196766306
30
0.000710519686063976
11
-193.17630496709
21
2122.96307892362
31
0.000710447020070687
  0
LINE
 8
GROUP0
10
-206.227416227653
20
2125.47262783483
30
0.000694321921755897
11
-205.989038293757
21
2125.16196766305
31
0.000694616429368044
  0
LINE
 8
GROUP0
10
-192.788076399436
20
2125.91196766305
30
0.000707835366885912
11
-192.399847831782
21
2125.86085640249
31
0.000707908032878496
  0
LINE
 8
GROUP0
10
-205.989038293757
20
2125.16196766305
30
0.000694616429368044
11
-205.83918766
21
2124.80019623071
31
0.000694950528457272
  0
LINE
 8
GROUP0
10
-193.538076399436
20
2125.71100576873
30
0.000707963151587343
11
-193.17630496709
21
2125.86085640249
31
0.00070785416685093
  0
LINE
 8
GROUP0
10
-191.339187660003
20
2124.0237390954
30
0.00070962541831418
11
-191.48903829376
21
2123.66196766306
31
0.000709938725889936
  0
LINE
 8
GROUP0
10
-193.848736571215
20
2125.47262783483
30
0.000708154893966129
11
-193.538076399436
21
2125.71100576873
31
0.000707963151587343
  0
LINE
 8
GROUP0
10
-194.236965138869
20
2124.0237390954
30
0.000709424387562224
11
-194.288076399435
21
2124.41196766306
31
0.000709073465300253
  0
LINE
 8
GROUP0
10
-191.727416227657
20
2125.47262783483
30
0.000708302058690519
11
-191.48903829376
21
2125.16196766305
31
0.000708596566301256
  0
LINE
 8
GROUP0
10
-194.288076399435
20
2124.41196766306
30
0.000709073465300253
11
-194.236965138869
21
2124.80019623071
31
0.000708729634636412
  0
LINE
 8
GROUP0
10
-191.288076399437
20
2124.41196766306
30
0.000709281587649635
11
-191.339187660003
21
2124.0237390954
31
0.00070962541831418
  0
LINE
 8
GROUP0
10
-193.538076399436
20
2123.11292955738
30
0.000710287840187501
11
-193.848736571215
21
2123.35130749128
31
0.000710052994259369
  0
LINE
 8
GROUP0
10
-191.48903829376
20
2125.16196766305
30
0.000708596566301256
11
-191.339187660003
21
2124.80019623071
31
0.000708930665388369
  0
LINE
 8
GROUP0
10
-192.399847831782
20
2125.86085640249
30
0.000707908032878496
11
-192.038076399436
21
2125.71100576873
31
0.000708067212762387
  0
LINE
 8
GROUP0
10
-194.087114505112
20
2123.66196766306
30
0.000709758486648632
11
-194.236965138869
21
2124.0237390954
31
0.000709424387562224
  0
LINE
 8
GROUP0
10
-262.288042486163
20
2101.91176296974
30
0.000744366095922094
11
-262.287998107469
21
2135.91196766292
31
0.00065750996759032
  0
LINE
 8
GROUP0
10
91.7116150440624
20
2339.91171641591
30
0.000120768168467622
11
91.711842756645
21
2135.91196766292
31
0.00065750996759032
  0
LINE
 8
GROUP0
10
-208.038076399432
20
2123.11292955738
30
0.000696307703267685
11
-208.348736571212
21
2123.35130749128
31
0.000696072857338847
  0
LINE
 8
GROUP0
10
-206.899847831779
20
2122.96307892362
30
0.000696520749177731
11
-207.288076399433
21
2122.91196766306
31
0.000696539549144159
  0
LINE
 8
GROUP0
10
-208.587114505109
20
2123.66196766306
30
0.0006957783497267
11
-208.736965138866
21
2124.0237390954
31
0.000695444250638177
  0
LINE
 8
GROUP0
10
-207.676304967086
20
2122.96307892362
30
0.000696466883151575
11
-208.038076399432
21
2123.11292955738
31
0.000696307703267685
  0
LINE
 8
GROUP0
10
23.7119210483038
20
2124.41196766305
30
0.000926247917203798
11
23.6608097877374
21
2124.0237390954
31
0.000926591747870459
  0
LINE
 8
GROUP0
10
-208.038076399432
20
2125.71100576873
30
0.000693983014654131
11
-207.676304967086
21
2125.86085640249
31
0.000693874029916308
  0
LINE
 8
GROUP0
10
-208.348736571212
20
2123.35130749128
30
0.000696072857338847
11
-208.587114505109
21
2123.66196766306
31
0.0006957783497267
  0
LINE
 8
GROUP0
10
-208.788076399432
20
2124.41196766306
30
0.000695093328374796
11
-208.736965138866
21
2124.80019623071
31
0.000694749497708841
  0
LINE
 8
GROUP0
10
44.7120946649997
20
2090.91564658015
30
0.00087402590936525
11
44.7125003741551
21
2058.91563274167
31
0.00128737818340984
  0
LINE
 8
GROUP0
10
-208.348736571212
20
2125.47262783483
30
0.000694174757034327
11
-208.038076399432
21
2125.71100576873
31
0.000693983014654131
  0
LINE
 8
GROUP0
10
-206.899847831779
20
2125.86085640249
30
0.000693927895943169
11
-206.538076399433
21
2125.71100576873
31
0.00069408707582706
  0
LINE
 8
GROUP0
10
-208.736965138866
20
2124.80019623071
30
0.000694749497708841
11
-208.587114505109
21
2125.16196766305
31
0.00069443619012956
  0
LINE
 8
GROUP0
10
-207.288076399433
20
2122.91196766306
30
0.000696539549144159
11
-207.676304967086
21
2122.96307892362
31
0.000696466883151575
  0
LINE
 8
GROUP0
10
-87.019689883653
20
2069.91396559527
30
0.00108718201471364
11
-86.7018578903695
21
2070.32818318686
31
0.00108196925451396
  0
LINE
 8
GROUP0
10
-214.288135745524
20
2380.91136172941
30
7.99186104897598e-005
11
-214.287877951515
21
2351.91069604222
31
9.0513343298676e-005
  0
LINE
 8
GROUP0
10
-215.287490635679
20
2058.91234237244
30
0.00105773033588885
11
-215.287896063454
21
2090.91236070879
31
0.000889372560675011
  0
LINE
 8
GROUP0
10
-214.287877951515
20
2351.91069604222
30
9.0513343298676e-005
11
-225.28759522737
21
2339.91243834461
31
8.71007317063022e-005
  0
LINE
 8
GROUP0
10
43.7119410689959
20
2380.91176496384
30
0.000107973989575705
11
43.7119246819846
21
2351.91188385831
31
0.000114762008224262
  0
LINE
 8
GROUP0
10
55.7119560917244
20
2101.91578587293
30
0.000733028675108371
11
44.7120946649997
21
2090.91564658015
31
0.00087402590936525
  0
LINE
 8
GROUP0
10
44.7125003741551
20
2058.91563274167
30
0.00128737818340984
11
-215.287490635679
21
2058.91234237244
31
0.00105773033588885
  0
LINE
 8
GROUP0
10
43.7119410689959
20
2380.91176496384
30
0.000107973989575705
11
-214.288135745524
21
2380.91136172941
31
7.99186104897598e-005
  0
LINE
 8
GROUP0
10
91.7118807040144
20
2101.9162449315
30
0.000744603454938086
11
55.7119560917244
21
2101.91578587293
31
0.000733028675108371
  0
LINE
 8
GROUP0
10
-215.287896063454
20
2090.91236070879
30
0.000889372560675011
11
-226.288035491252
21
2101.9122214123
31
0.000749506155503526
  0
LINE
 8
GROUP0
10
43.7119246819846
20
2351.91188385831
30
0.000114762008224262
11
54.7119059981364
21
2339.91176496385
31
0.000116439311205552
  0
LINE
 8
GROUP0
10
-208.736965138866
20
2124.0237390954
30
0.000695444250638177
11
-208.788076399432
21
2124.41196766306
31
0.000695093328374796
  0
LINE
 8
GROUP0
10
-87.287626397365
20
2068.91396219921
30
0.00109980403737518
11
-87.2194846128581
21
2069.43160115285
31
0.00109326512702651
  0
LINE
 8
GROUP0
10
23.6608097877375
20
2124.8001962307
30
0.000925896994942532
11
23.7119210483038
21
2124.41196766305
31
0.000926247917203798
  0
LINE
 8
GROUP0
10
-206.538076399433
20
2123.11292955738
30
0.000696411764439908
11
-206.899847831779
21
2122.96307892362
31
0.000696520749177731
  0
LINE
 8
GROUP0
10
-207.676304967086
20
2125.86085640249
30
0.000693874029916308
11
-207.288076399433
21
2125.91196766305
31
0.000693855229950585
  0
LINE
 8
GROUP0
10
-208.587114505109
20
2125.16196766305
30
0.00069443619012956
11
-208.348736571212
21
2125.47262783483
31
0.000694174757034327
  0
LINE
 8
GROUP0
10
-249.702461892697
20
2117.4977090099
30
0.000514246767594762
11
-250.020304608392
21
2117.91191837444
31
0.000508986521043253
  0
LINE
 8
GROUP0
10
-248.288293422545
20
2120.91194124896
30
0.000471189783269155
11
-247.770654432406
21
2120.84379973806
31
0.000472089984405383
  0
LINE
 8
GROUP0
10
-247.288289883921
20
2120.64400526372
30
0.000474651906588719
11
-246.874072123921
21
2120.32617348919
31
0.000478700959065192
  0
LINE
 8
GROUP0
10
-246.874034768552
20
2117.49774636527
30
0.000514458047997818
11
-247.288244133123
21
2117.1799036496
31
0.000518445217877028
  0
LINE
 8
GROUP0
10
-85.8052889819755
20
2070.84583264367
30
0.00107549223225514
11
-85.2876517563222
21
2070.91398755386
31
0.00107466936859818
  0
LINE
 8
GROUP0
10
-86.7018578903695
20
2070.32818318686
30
0.00108196925451396
11
-86.287648358107
21
2070.64602568328
31
0.00107798208742017
  0
LINE
 8
GROUP0
10
-248.805879584212
20
2116.98008276102
30
0.000520857742252456
11
-249.288244132698
21
2117.17987723536
31
0.000518295820068415
  0
LINE
 8
GROUP0
10
-262.288042486163
20
2101.91176296974
30
0.000744366095922094
11
-226.288035491252
21
2101.9122214123
31
0.000749506155503526
  0
LINE
 8
GROUP0
10
-246.556202993991
20
2117.91196412524
30
0.000509245285657078
11
-246.874034768552
21
2117.49774636527
31
0.000514458047997818
  0
LINE
 8
GROUP0
10
-247.288244133123
20
2117.1799036496
30
0.000518445217877028
11
-247.770603404022
21
2116.98009643404
31
0.000520935076246243
  0
LINE
 8
GROUP0
10
-248.805930612597
20
2120.84378606505
30
0.000472012650411596
11
-248.288293422545
21
2120.91194124896
31
0.000471189783269155
  0
LINE
 8
GROUP0
10
79.6434935480644
20
2118.39848259933
30
0.000526481967373982
11
79.4436996919364
21
2117.91611779487
31
0.000532565084324993
  0
LINE
 8
GROUP0
10
-246.874072123921
20
2120.32617348919
30
0.000478700959065192
11
-246.556229408226
21
2119.91196412465
31
0.000483961205592026
  0
LINE
 8
GROUP0
10
-86.287648358107
20
2070.64602568328
30
0.00107798208742017
11
-85.8052889819755
21
2070.84583264367
31
0.00107549223225514
  0
LINE
 8
GROUP0
10
-250.220111823969
20
2118.3942776453
30
0.000502873557566991
11
-250.288267007884
21
2118.91191483531
31
0.000496324465514314
  0
LINE
 8
GROUP0
10
-250.020304608392
20
2117.91191837444
30
0.000508986521043253
11
-250.220111823969
21
2118.3942776453
31
0.000502873557566991
  0
LINE
 8
GROUP0
10
-247.770654432406
20
2120.84379973806
30
0.000472089984405383
11
-247.288289883921
21
2120.64400526372
31
0.000474651906588719
  0
LINE
 8
GROUP0
10
-249.288244132698
20
2117.17987723536
30
0.000518295820068415
11
-249.702461892697
21
2117.4977090099
31
0.000514246767594762
  0
LINE
 8
GROUP0
10
79.6434785482206
20
2119.43375877931
30
0.000513393964352243
11
79.7116343955418
21
2118.9161216767
31
0.000519943055355893
  0
LINE
 8
GROUP0
10
-247.770603404022
20
2116.98009643404
30
0.000520935076246243
11
-248.288240594074
21
2116.91194125013
31
0.000521757943390799
  0
LINE
 8
GROUP0
10
79.7116343955418
20
2118.9161216767
30
0.000519943055355893
11
79.6434935480644
21
2118.39848259933
31
0.000526481967373982
  0
LINE
 8
GROUP0
10
79.1258274679418
20
2120.33032675119
30
0.000502020762653949
11
79.4436707144632
21
2119.91611779405
31
0.000507281004090743
  0
LINE
 8
GROUP0
10
-87.2194846128581
20
2069.43160115285
30
0.00109326512702651
11
-87.019689883653
21
2069.91396559527
31
0.00108718201471364
  0
LINE
 8
GROUP0
10
-246.556229408226
20
2119.91196412465
30
0.000483961205592026
11
-246.356422192649
21
2119.42960485379
31
0.000490074169068289
  0
LINE
 8
GROUP0
10
-246.288267008735
20
2118.91196766378
30
0.00049662326114282
11
-246.356408519635
21
2118.39432867368
31
0.000503162171988508
  0
LINE
 8
GROUP0
10
78.7116093006467
20
2120.64815799482
30
0.00049797171686432
11
79.1258274679418
21
2120.33032675119
31
0.000502020762653949
  0
LINE
 8
GROUP0
10
-249.702499248066
20
2120.32613613382
30
0.000478489678682581
11
-249.288289883496
21
2120.64397884949
31
0.000474502508780106
  0
LINE
 8
GROUP0
10
-248.288240594074
20
2116.91194125013
30
0.000521757943390799
11
-248.805879584212
21
2116.98008276102
31
0.000520857742252456
  0
LINE
 8
GROUP0
10
79.4436707144632
20
2119.91611779405
30
0.000507281004090743
11
79.6434785482206
21
2119.43375877931
31
0.000513393964352243
  0
LINE
 8
GROUP0
10
-85.2876517563222
20
2070.91398755386
30
0.00107466936859818
11
-84.7700128026392
21
2070.84584576936
31
0.00107556957318605
  0
LINE
 8
GROUP0
10
-246.356422192649
20
2119.42960485379
30
0.000490074169068289
11
-246.288267008735
21
2118.91196766378
31
0.00049662326114282
  0
LINE
 8
GROUP0
10
-246.356408519635
20
2118.39432867368
30
0.000503162171988508
11
-246.556202993991
21
2117.91196412524
31
0.000509245285657078
  0
LINE
 8
GROUP0
10
91.711842756645
20
2135.91196766292
30
0.00065750996759032
11
91.7118807040144
21
2101.9162449315
31
0.000744603454938086
  0
LINE
 8
GROUP0
10
-83.5555882721084
20
2069.91400951468
30
0.00108744080243991
11
-83.3557813117093
21
2069.43165013859
31
0.00109355376725636
  0
LINE
 8
GROUP0
10
75.97956910048
20
2119.91606760359
30
0.00050702229561681
11
76.297400344139
21
2120.33028577085
31
0.000501809528090152
  0
LINE
 8
GROUP0
10
-83.8733949085095
20
2067.49979192532
30
0.00111793764263203
11
-84.2876044407728
21
2067.1819494289
31
0.00112192480972582
  0
LINE
 8
GROUP0
10
76.297400344139
20
2120.33028577085
30
0.000501809528090152
11
76.7116093013142
21
2120.64812901734
31
0.000497822351485322
  0
LINE
 8
GROUP0
10
75.711634396875
20
2118.91606372175
30
0.000519644324575336
11
75.779775244352
21
2119.43370279913
31
0.000513105412567821
  0
LINE
 8
GROUP0
10
77.1939683160864
20
2120.84793685109
30
0.000495332485254041
11
77.7116054187351
21
2120.9160926984
31
0.000494509609744759
  0
LINE
 8
GROUP0
10
76.2974413244745
20
2117.50185864727
30
0.000537566617279395
11
75.9795980779531
21
2117.91606760441
31
0.000532306375839781
  0
LINE
 8
GROUP0
10
78.7116594911029
20
2117.18405638111
30
0.000541765028457186
11
78.2293004763307
21
2116.98424854737
31
0.000544254894676482
  0
LINE
 8
GROUP0
10
75.779775244352
20
2119.43370279913
30
0.000513105412567821
11
75.97956910048
21
2119.91606760359
31
0.00050702229561681
  0
LINE
 8
GROUP0
10
78.2293004763307
20
2116.98424854737
30
0.000544254894676482
11
77.7116633736813
21
2116.91609270006
31
0.000545077770211144
  0
LINE
 8
GROUP0
10
79.4436996919364
20
2117.91611779487
30
0.000532565084324993
11
79.1258684482777
21
2117.50189962761
31
0.000537777851843191
  0
LINE
 8
GROUP0
10
-250.288267007884
20
2118.91191483531
30
0.000496324465514314
11
-250.220125496984
21
2119.4295538254
31
0.000489785554669331
  0
LINE
 8
GROUP0
10
-250.020331022627
20
2119.91191837385
30
0.000483702441000761
11
-249.702499248066
21
2120.32613613382
31
0.000478489678682581
  0
LINE
 8
GROUP0
10
77.1940242962649
20
2116.98423354753
30
0.000544177577444577
11
76.7116594917696
21
2117.18402740364
31
0.000541615663078188
  0
LINE
 8
GROUP0
10
79.1258684482777
20
2117.50189962761
30
0.000537777851843191
11
78.7116594911029
21
2117.18405638111
31
0.000541765028457186
  0
LINE
 8
GROUP0
10
78.2292444961515
20
2120.84795185093
30
0.000495409802497226
11
78.7116093006467
21
2120.64815799482
31
0.00049797171686432
  0
LINE
 8
GROUP0
10
-85.8052399962398
20
2066.98212934283
30
0.00112433732395994
11
-86.2876044386979
21
2067.18192407202
31
0.00112177539855056
  0
LINE
 8
GROUP0
10
-86.7018220303224
20
2067.49975606527
30
0.0011177263433218
11
-87.0196645267706
21
2067.9139655975
31
0.00111246609468634
  0
LINE
 8
GROUP0
10
75.9795980779531
20
2117.91606760441
30
0.000532306375839781
11
75.7797902441961
21
2118.39842661915
31
0.00052619341557828
  0
LINE
 8
GROUP0
10
-87.2194714871697
20
2068.3963249736
30
0.00110635312988963
11
-87.287626397365
21
2068.91396219921
31
0.00109980403737518
  0
LINE
 8
GROUP0
10
-84.2876044407728
20
2067.1819494289
30
0.00112192480972582
11
-84.7699638169038
21
2066.98214246852
31
0.00112441466486828
  0
LINE
 8
GROUP0
10
77.7116054187351
20
2120.9160926984
30
0.000494509609744759
11
78.2292444961515
21
2120.84795185093
31
0.000495409802497226
  0
LINE
 8
GROUP0
10
-86.2876044386979
20
2067.18192407202
30
0.00112177539855056
11
-86.7018220303224
21
2067.49975606527
31
0.0011177263433218
  0
LINE
 8
GROUP0
10
-250.220125496984
20
2119.4295538254
30
0.000489785554669331
11
-250.020331022627
21
2119.91191837385
31
0.000483702441000761
  0
LINE
 8
GROUP0
10
77.7116633736813
20
2116.91609270006
30
0.000545077770211144
11
77.1940242962649
21
2116.98423354753
31
0.000544177577444577
  0
LINE
 8
GROUP0
10
76.7116594917696
20
2117.18402740364
30
0.000541615663078188
11
76.2974413244745
21
2117.50185864727
31
0.000537566617279395
  0
LINE
 8
GROUP0
10
-249.288289883496
20
2120.64397884949
30
0.000474502508780106
11
-248.805930612597
21
2120.84378606505
31
0.000472012650411596
  0
LINE
 8
GROUP0
10
76.7116093013142
20
2120.64812901734
30
0.000497822351485322
11
77.1939683160864
21
2120.84793685109
31
0.000495332485254041
  0
LINE
 8
GROUP0
10
-83.8734307685573
20
2070.32821904691
30
0.00108218055382419
11
-83.5555882721084
21
2069.91400951468
31
0.00108744080243991
  0
LINE
 8
GROUP0
10
-84.7700128026392
20
2070.84584576936
30
0.00107556957318605
11
-84.2876483601811
21
2070.64605104017
31
0.00107813149859542
  0
LINE
 8
GROUP0
10
75.7797902441961
20
2118.39842661915
30
0.00052619341557828
11
75.711634396875
21
2118.91606372175
31
0.000519644324575336
  0
LINE
 8
GROUP0
10
-83.287626401514
20
2068.91401291298
30
0.00110010285974825
11
-83.3557681860213
21
2068.39637395933
31
0.00110664177014204
  0
LINE
 8
GROUP0
10
-85.2876010425572
20
2066.91398755833
30
0.00112523752854781
11
-85.8052399962398
21
2066.98212934283
31
0.00112433732395994
  0
LINE
 8
GROUP0
10
-262.287731837233
20
2339.91172011126
30
8.26097120460556e-005
11
-225.28759522737
21
2339.91243834461
31
8.71007317063022e-005
  0
LINE
 8
GROUP0
10
-84.7699638169038
20
2066.98214246852
30
0.00112441466486828
11
-85.2876010425572
21
2066.91398755833
31
0.00112523752854781
  0
LINE
 8
GROUP0
10
-83.3557813117093
20
2069.43165013859
30
0.00109355376725636
11
-83.287626401514
21
2068.91401291298
31
0.00110010285974825
  0
LINE
 8
GROUP0
10
-262.287998107469
20
2135.91196766292
30
0.00065750996759032
11
91.711842756645
21
2135.91196766292
31
0.00065750996759032
  0
LINE
 8
GROUP0
10
-3.35612155654507
20
2371.42897201118
30
0.000185814701966358
11
-3.55592231876286
21
2371.91133395527
31
0.000185869183276066
  0
LINE
 8
GROUP0
10
-4.77033553932446
20
2368.97948251113
30
0.000184527792310846
11
-4.28797359524293
21
2369.17928327335
31
0.000184785419796452
  0
LINE
 8
GROUP0
10
-4.28797359524293
20
2369.17928327335
30
0.000184785419796452
11
-3.87375997832297
21
2369.49712044745
31
0.000185048367612006
  0
LINE
 8
GROUP0
10
-3.55592231876286
20
2371.91133395527
30
0.000185869183276066
11
-3.87375949286498
21
2372.32554757219
31
0.000185855122326761
  0
LINE
 8
GROUP0
10
-7.21982503938709
20
2370.39369649392
30
0.000183912311581969
11
-7.02002427716713
21
2369.91133454983
31
0.000183857833613921
  0
LINE
 8
GROUP0
10
-7.28797329796129
20
2370.91133459582
30
0.000184031611969387
11
-7.21982503938709
21
2370.39369649392
31
0.000183912311581969
  0
LINE
 8
GROUP0
10
-84.2876483601811
20
2070.64605104017
30
0.00107813149859542
11
-83.8734307685573
21
2070.32821904691
31
0.00108218055382419
  0
LINE
 8
GROUP0
10
91.7116150440624
20
2339.91171641591
30
0.000120768168467622
11
54.7119059981364
21
2339.91176496385
31
0.000116439311205552
  0
LINE
 8
GROUP0
10
-4.77033487618457
20
2372.84318581628
30
0.000185629839413975
11
-5.28797295468998
21
2372.91133425255
31
0.000185433971955085
  0
LINE
 8
GROUP0
10
-4.28797300068319
20
2372.64338488848
30
0.000185773488376173
11
-4.77033487618457
21
2372.84318581628
31
0.000185629839413975
  0
LINE
 8
GROUP0
10
-3.87375997832297
20
2369.49712044745
30
0.000185048367612006
11
-3.55592266202958
21
2369.91133395527
31
0.000185298718544225
  0
LINE
 8
GROUP0
10
-3.35612173422841
20
2370.39369583077
30
0.000185519409217028
11
-3.28797329796509
21
2370.91133390928
31
0.000185695400225355
  0
LINE
 8
GROUP0
10
-83.555562915226
20
2067.91400951691
30
0.00111272488242389
11
-83.8733949085095
21
2067.49979192532
31
0.00111793764263203
  0
LINE
 8
GROUP0
10
-262.287998107469
20
2135.91196766292
30
0.00065750996759032
11
-262.287731837233
21
2339.91172011126
31
8.26097120460556e-005
  0
LINE
 8
GROUP0
10
-3.55592266202958
20
2369.91133395527
30
0.000185298718544225
11
-3.35612173422841
21
2370.39369583077
31
0.000185519409217028
  0
LINE
 8
GROUP0
10
-3.28797329796509
20
2370.91133390928
30
0.000185695400225355
11
-3.35612155654507
21
2371.42897201118
31
0.000185814701966358
  0
LINE
 8
GROUP0
10
-5.80561171973893
20
2368.97948268882
30
0.000184097172780767
11
-5.28797364122919
21
2368.91133425255
31
0.000184293048541639
  0
LINE
 8
GROUP0
10
-7.02002427716713
20
2369.91133454983
30
0.000183857833613921
11
-6.7021871030643
21
2369.49712093291
31
0.000183871891221565
  0
LINE
 8
GROUP0
10
-7.21982486169581
20
2371.42897267433
30
0.000184207604331299
11
-7.28797329796129
21
2370.91133459582
31
0.000184031611969387
  0
LINE
 8
GROUP0
10
-163.287960204727
20
2370.91137545273
30
1.83757157457554e-006
11
-163.356108463302
21
2371.42901355463
31
1.95686654765881e-006
  0
LINE
 8
GROUP0
10
-87.0196645267706
20
2067.9139655975
30
0.00111246609468634
11
-87.2194714871697
21
2068.3963249736
31
0.00110635312988963
  0
LINE
 8
GROUP0
10
-5.28797364122919
20
2368.91133425255
30
0.000184293048541639
11
-4.77033553932446
21
2368.97948251113
31
0.000184527792310846
  0
LINE
 8
GROUP0
10
-83.3557681860213
20
2068.39637395933
30
0.00110664177014204
11
-83.555562915226
21
2067.91400951691
31
0.00111272488242389
  0
LINE
 8
GROUP0
10
-3.87375949286498
20
2372.32554757219
30
0.000185855122326761
11
-4.28797300068319
21
2372.64338488848
31
0.000185773488376173
  0
LINE
 8
GROUP0
10
-6.7021871030643
20
2369.49712093291
30
0.000183871891221565
11
-6.28797359524392
21
2369.17928361662
31
0.00018395352887195
  0
LINE
 8
GROUP0
10
-6.28797359524392
20
2369.17928361662
30
0.00018395352887195
11
-5.80561171973893
21
2368.97948268882
31
0.000184097172780767
  0
LINE
 8
GROUP0
10
-6.28797300067912
20
2372.64338523175
30
0.000184941592217813
11
-6.70218661761063
21
2372.32554805765
31
0.000184678643951064
  0
LINE
 8
GROUP0
10
-163.55590922552
20
2371.91137549872
30
2.01134930118974e-006
11
-163.873746399623
21
2372.32558911564
31
1.99728528376131e-006
  0
LINE
 8
GROUP0
10
-163.87374688508
20
2369.4971619909
30
1.19053417856341e-006
11
-163.55590956879
21
2369.91137549872
31
1.44088276456955e-006
  0
LINE
 8
GROUP0
10
-164.287959907442
20
2372.64342643193
30
1.91565449153552e-006
11
-164.77032178294
21
2372.84322735973
31
1.77201076319577e-006
  0
LINE
 8
GROUP0
10
-96.132095970626
20
2345.77939424664
30
8.79600988720031e-005
11
-97.3830068662579
21
2342.75942967438
31
8.67730911757347e-005
  0
LINE
 8
GROUP0
10
-97.8096696598999
20
2339.51860833605
30
8.58217181338938e-005
11
-97.3830079872607
21
2336.27778685013
31
8.51708141175744e-005
  0
LINE
 8
GROUP0
10
-167.219811946145
20
2370.39373803737
30
5.44776973310235e-008
11
-167.020011183927
21
2369.91137609328
31
0.0
  0
LINE
 8
GROUP0
10
-167.287960204724
20
2370.91137613927
30
1.73777994511015e-007
11
-167.219811946145
21
2370.39373803737
31
5.44776973310235e-008
  0
LINE
 8
GROUP0
10
-165.805598626504
20
2368.97952423227
30
2.39338447755033e-007
11
-165.287960547996
21
2368.911375796
31
4.35214927718697e-007
  0
LINE
 8
GROUP0
10
-165.287959861458
20
2372.911375796
30
1.57613798020817e-006
11
-165.805597963357
21
2372.84322753742
31
1.34138762356018e-006
  0
LINE
 8
GROUP0
10
-166.702173524367
20
2372.3255896011
30
8.20815119806362e-007
11
-167.020010840662
21
2371.91137609328
31
5.70461663718103e-007
  0
LINE
 8
GROUP0
10
-166.702174009827
20
2369.49716247636
30
1.40605855292186e-008
11
-166.287960502003
21
2369.17932516007
31
9.56900241710912e-008
  0
LINE
 8
GROUP0
10
-164.287960502006
20
2369.1793248168
30
9.27586002053005e-007
11
-163.87374688508
21
2369.4971619909
31
1.19053417856341e-006
  0
LINE
 8
GROUP0
10
-5.28797295468998
20
2372.91133425255
30
0.000185433971955085
11
-5.80561105659399
21
2372.84318599397
31
0.000185199219883897
  0
LINE
 8
GROUP0
10
-166.287960502003
20
2369.17932516007
30
9.56900241710912e-008
11
-165.805598626504
21
2368.97952423227
31
2.39338447755033e-007
  0
LINE
 8
GROUP0
10
-167.219811768469
20
2371.42901421778
30
3.49770627139367e-007
11
-167.287960204724
21
2370.91137613927
31
1.73777994511015e-007
  0
LINE
 8
GROUP0
10
-167.020011183927
20
2369.91137609328
30
0.0
11
-166.702174009827
21
2369.49716247636
31
1.40605855292186e-008
  0
LINE
 8
GROUP0
10
-76.2336451952837
20
2348.111576752
30
9.55431796701101e-005
11
-85.2880973382643
21
2359.91156334661
31
9.52719465639074e-005
  0
LINE
 8
GROUP0
10
-163.55590956879
20
2369.91137549872
30
1.44088276456955e-006
11
-163.356108640984
21
2370.39373737422
31
1.66157379832832e-006
  0
LINE
 8
GROUP0
10
-163.356108463302
20
2371.42901355463
30
1.95686654765881e-006
11
-163.55590922552
21
2371.91137549872
31
2.01134930118974e-006
  0
LINE
 8
GROUP0
10
-163.873746399623
20
2372.32558911564
30
1.99728528376131e-006
11
-164.287959907442
21
2372.64342643193
31
1.91565449153552e-006
  0
LINE
 8
GROUP0
10
-165.287960547996
20
2368.911375796
30
4.35214927718697e-007
11
-164.770322446094
21
2368.97952405458
31
6.69958338789245e-007
  0
LINE
 8
GROUP0
10
-163.356108640984
20
2370.39373737422
30
1.66157379832832e-006
11
-163.287960204727
21
2370.91137545273
31
1.83757157457554e-006
  0
LINE
 8
GROUP0
10
-7.0200239338997
20
2371.91133454983
30
0.000184428295367878
11
-7.21982486169581
21
2371.42897267433
31
0.000184207604331299
  0
LINE
 8
GROUP0
10
-166.287959907445
20
2372.6434267752
30
1.08376338655569e-006
11
-166.702173524367
21
2372.3255896011
31
8.20815119806362e-007
  0
LINE
 8
GROUP0
10
-165.805597963357
20
2372.84322753742
30
1.34138762356018e-006
11
-166.287959907445
21
2372.6434267752
31
1.08376338655569e-006
  0
LINE
 8
GROUP0
10
-164.770322446094
20
2368.97952405458
30
6.69958338789245e-007
11
-164.287960502006
21
2369.1793248168
31
9.27586002053005e-007
  0
LINE
 8
GROUP0
10
-164.77032178294
20
2372.84322735973
30
1.77201076319577e-006
11
-165.287959861458
21
2372.911375796
31
1.57613798020817e-006
  0
LINE
 8
GROUP0
10
-97.3830068662579
20
2342.75942967438
30
8.67730911757347e-005
11
-97.8096696598999
21
2339.51860833605
31
8.58217181338938e-005
  0
LINE
 8
GROUP0
10
-167.020010840662
20
2371.91137609328
30
5.70461663718103e-007
11
-167.219811768469
21
2371.42901421778
31
3.49770627139367e-007
  0
LINE
 8
GROUP0
10
-5.80561105659399
20
2372.84318599397
30
0.000185199219883897
11
-6.28797300067912
21
2372.64338523175
31
0.000184941592217813
  0
LINE
 8
GROUP0
10
-6.70218661761063
20
2372.32554805765
30
0.000184678643951064
11
-7.0200239338997
21
2371.91133454983
31
0.000184428295367878
  0
LINE
 8
GROUP0
10
-74.4440985462765
20
2333.25781809423
30
9.25014247173173e-005
11
-73.193187650645
21
2336.27778266649
31
9.36884324135856e-005
  0
LINE
 8
GROUP0
10
-72.7665248570019
20
2339.51860400482
30
9.46398054603614e-005
11
-73.1931865296418
21
2342.75942549074
31
9.52907094717459e-005
  0
LINE
 8
GROUP0
10
-85.2880973382643
20
2359.91156334661
30
9.52719465639074e-005
11
-94.3425469348845
21
2348.11157912079
31
8.91667487719738e-005
  0
LINE
 8
GROUP0
10
-73.193187650645
20
2336.27778266649
30
9.36884324135856e-005
11
-72.7665248570019
21
2339.51860400482
31
9.46398054603614e-005
  0
LINE
 8
GROUP0
10
-79.0273129332025
20
2328.67460529265
30
8.97546216877709e-005
11
-76.4340100335881
21
2330.66451588293
31
9.1159675235658e-005
  0
LINE
 8
GROUP0
10
-194.288076399417
20
2147.41196766305
30
0.000690089289257667
11
-194.23696513885
21
2147.8001962307
31
0.000689745458588187
  0
LINE
 8
GROUP0
10
-194.23696513885
20
2147.8001962307
30
0.000689745458588187
11
-194.087114505094
21
2148.16196766305
31
0.000689432151005381
  0
LINE
 8
GROUP0
10
-192.788076399417
20
2145.91196766305
30
0.000691535510003061
11
-193.176304967071
21
2145.96307892362
31
0.000691462844018231
  0
LINE
 8
GROUP0
10
-192.399847831764
20
2145.96307892362
30
0.000691516710029583
11
-192.788076399417
21
2145.91196766305
31
0.000691535510003061
  0
LINE
 8
GROUP0
10
-94.3425469348845
20
2348.11157912079
30
8.91667487719738e-005
11
-96.132095970626
21
2345.77939424664
31
8.79600988720031e-005
  0
LINE
 8
GROUP0
10
-94.1421875459534
20
2330.66451894557
30
8.49243458611426e-005
11
-91.5488853346512
21
2328.67460745826
31
8.5345578035817e-005
  0
LINE
 8
GROUP0
10
-193.848736571197
20
2148.47262783483
30
0.000689170717903803
11
-193.538076399417
21
2148.71100576873
31
0.000688978975516558
  0
LINE
 8
GROUP0
10
-96.1320981362383
20
2333.25782184519
30
8.48647370930933e-005
11
-94.1421875459534
21
2330.66451894557
31
8.49243458611426e-005
  0
LINE
 8
GROUP0
10
-73.1931865296418
20
2342.75942549074
30
9.52907094717459e-005
11
-74.4440963806635
21
2345.77939049568
31
9.5596786496227e-005
  0
LINE
 8
GROUP0
10
-194.23696513885
20
2147.0237390954
30
0.000690440211521753
11
-194.288076399417
21
2147.41196766305
31
0.000690089289257667
  0
LINE
 8
GROUP0
10
-85.2880994240631
20
2326.99703376899
30
8.71354000153979e-005
11
-82.0472779381473
21
2327.42369544162
31
8.83820163669169e-005
  0
LINE
 8
GROUP0
10
-193.848736571197
20
2146.35130749127
30
0.000691068818217488
11
-194.087114505094
21
2146.66196766305
31
0.000690774310608161
  0
LINE
 8
GROUP0
10
-193.176304967071
20
2148.86085640248
30
0.000688869990770979
11
-192.788076399417
21
2148.91196766305
31
0.000688851190797501
  0
LINE
 8
GROUP0
10
-194.087114505094
20
2148.16196766305
30
0.000689432151005381
11
-193.848736571197
21
2148.47262783483
31
0.000689170717903803
  0
LINE
 8
GROUP0
10
-97.3830079872607
20
2336.27778685013
30
8.51708141175744e-005
11
-96.1320981362383
21
2333.25782184519
31
8.48647370930933e-005
  0
LINE
 8
GROUP0
10
-193.538076399417
20
2148.71100576873
30
0.000688978975516558
11
-193.176304967071
21
2148.86085640248
31
0.000688869990770979
  0
LINE
 8
GROUP0
10
-74.4440963806635
20
2345.77939049568
30
9.5596786496227e-005
11
-76.2336451952837
21
2348.111576752
31
9.55431796701101e-005
  0
LINE
 8
GROUP0
10
-193.176304967071
20
2145.96307892362
30
0.000691462844018231
11
-193.538076399417
21
2146.11292955737
31
0.000691303664140685
  0
LINE
 8
GROUP0
10
-193.538076399417
20
2146.11292955737
30
0.000691303664140685
11
-193.848736571197
21
2146.35130749127
31
0.000691068818217488
  0
LINE
 8
GROUP0
10
-192.788076399417
20
2148.91196766305
30
0.000688851190797501
11
-192.399847831764
21
2148.86085640248
31
0.000688923856782331
  0
LINE
 8
GROUP0
10
-88.5289207623975
20
2327.42369656263
30
8.6099727456701e-005
11
-85.2880994240631
21
2326.99703376899
31
8.71354000153979e-005
  0
LINE
 8
GROUP0
10
-194.087114505094
20
2146.66196766305
30
0.000690774310608161
11
-194.23696513885
21
2147.0237390954
31
0.000690440211521753
  0
LINE
 8
GROUP0
10
-192.038076399418
20
2146.11292955737
30
0.000691407725283299
11
-192.399847831764
21
2145.96307892362
31
0.000691516710029583
  0
LINE
 8
GROUP0
10
-205.839187659981
20
2147.0237390954
30
0.000676661105344728
11
-205.989038293738
21
2146.66196766305
31
0.000676974412921188
  0
LINE
 8
GROUP0
10
-82.0472779381473
20
2327.42369544162
30
8.83820163669169e-005
11
-79.0273129332025
21
2328.67460529265
31
8.97546216877709e-005
  0
LINE
 8
GROUP0
10
-91.5488853346512
20
2328.67460745826
30
8.5345578035817e-005
11
-88.5289207623975
21
2327.42369656263
31
8.6099727456701e-005
  0
LINE
 8
GROUP0
10
-76.4340100335881
20
2330.66451588293
30
9.1159675235658e-005
11
-74.4440985462765
21
2333.25781809423
31
9.25014247173173e-005
  0
LINE
 8
GROUP0
10
-208.736965138847
20
2147.8001962307
30
0.00067576532169093
11
-208.58711450509
21
2148.16196766305
31
0.000675452014113764
  0
LINE
 8
GROUP0
10
-191.727416227638
20
2148.47262783483
30
0.000689317882583074
11
-191.489038293741
21
2148.16196766305
31
0.000689612390191696
  0
LINE
 8
GROUP0
10
-205.989038293738
20
2148.16196766305
30
0.000675632253333214
11
-205.839187659981
21
2147.8001962307
31
0.000675966352418916
  0
LINE
 8
GROUP0
10
-192.399847831764
20
2148.86085640248
30
0.000688923856782331
11
-192.038076399418
21
2148.71100576873
31
0.000689083036659172
  0
LINE
 8
GROUP0
10
-191.727416227638
20
2146.35130749127
30
0.000691215982896759
11
-192.038076399418
21
2146.11292955737
31
0.000691407725283299
  0
LINE
 8
GROUP0
10
-208.58711450509
20
2148.16196766305
30
0.000675452014113764
11
-208.348736571193
21
2148.47262783483
31
0.000675190581018531
  0
LINE
 8
GROUP0
10
-205.788076399415
20
2147.41196766305
30
0.000676317274679478
11
-205.839187659981
21
2147.0237390954
31
0.000676661105344728
  0
LINE
 8
GROUP0
10
-191.489038293741
20
2148.16196766305
30
0.000689612390191696
11
-191.339187659984
21
2147.8001962307
31
0.000689946489278809
  0
LINE
 8
GROUP0
10
-207.676304967068
20
2148.86085640248
30
0.000674889853898397
11
-207.288076399414
21
2148.91196766305
31
0.000674871053929854
  0
LINE
 8
GROUP0
10
-191.339187659984
20
2147.0237390954
30
0.000690641242212375
11
-191.489038293741
21
2146.66196766305
31
0.000690954549795181
  0
LINE
 8
GROUP0
10
-208.58711450509
20
2146.66196766305
30
0.000676794173701739
11
-208.736965138847
21
2147.0237390954
31
0.000676460074616741
  0
LINE
 8
GROUP0
10
-191.339187659984
20
2147.8001962307
30
0.000689946489278809
11
-191.288076399418
21
2147.41196766305
31
0.000690297411542895
  0
LINE
 8
GROUP0
10
-206.538076399414
20
2148.71100576873
30
0.000675102899799984
11
-206.227416227635
21
2148.47262783483
31
0.000675337745725296
  0
LINE
 8
GROUP0
10
-208.038076399414
20
2146.11292955737
30
0.000677323527235674
11
-208.348736571194
21
2146.35130749127
31
0.000677088681310362
  0
LINE
 8
GROUP0
10
-206.89984783176
20
2148.86085640248
30
0.000674943719919618
11
-206.538076399414
21
2148.71100576873
31
0.000675102899799984
  0
LINE
 8
GROUP0
10
-206.899847831761
20
2145.96307892362
30
0.000677536573137261
11
-207.288076399414
21
2145.91196766305
31
0.000677555373105804
  0
LINE
 8
GROUP0
10
-208.348736571194
20
2146.35130749127
30
0.000677088681310362
11
-208.58711450509
21
2146.66196766305
31
0.000676794173701739
  0
LINE
 8
GROUP0
10
-207.288076399414
20
2145.91196766305
30
0.000677555373105804
11
-207.676304967068
21
2145.96307892362
31
0.000677482707116039
  0
LINE
 8
GROUP0
10
-208.038076399414
20
2148.71100576873
30
0.00067499883863763
11
-207.676304967068
21
2148.86085640248
31
0.000674889853898397
  0
LINE
 8
GROUP0
10
-208.736965138847
20
2147.0237390954
30
0.000676460074616741
11
-208.788076399413
21
2147.41196766305
31
0.00067610915235618
  0
LINE
 8
GROUP0
10
-205.989038293738
20
2146.66196766305
30
0.000676974412921188
11
-206.227416227635
21
2146.35130749127
31
0.000677235846017127
  0
LINE
 8
GROUP0
10
-208.788076399413
20
2147.41196766305
30
0.00067610915235618
11
-208.736965138847
21
2147.8001962307
31
0.00067576532169093
  0
LINE
 8
GROUP0
10
35.6512608765399
20
2146.35130749126
30
0.000922015284699223
11
35.4128829426432
21
2146.66196766304
31
0.000921720777094831
  0
LINE
 8
GROUP0
10
-208.348736571193
20
2148.47262783483
30
0.000675190581018531
11
-208.038076399414
21
2148.71100576873
31
0.00067499883863763
  0
LINE
 8
GROUP0
10
-207.676304967068
20
2145.96307892362
30
0.000677482707116039
11
-208.038076399414
21
2146.11292955737
31
0.000677323527235674
  0
LINE
 8
GROUP0
10
-206.538076399414
20
2146.11292955737
30
0.000677427588398027
11
-206.899847831761
21
2145.96307892362
31
0.000677536573137261
  0
LINE
 8
GROUP0
10
-205.839187659981
20
2147.8001962307
30
0.000675966352418916
11
-205.788076399415
21
2147.41196766305
31
0.000676317274679478
  0
LINE
 8
GROUP0
10
-191.288076399418
20
2147.41196766305
30
0.000690297411542895
11
-191.339187659984
21
2147.0237390954
31
0.000690641242212375
  0
LINE
 8
GROUP0
10
-192.038076399418
20
2148.71100576873
30
0.000689083036659172
11
-191.727416227638
21
2148.47262783483
31
0.000689317882583074
  0
LINE
 8
GROUP0
10
-191.489038293741
20
2146.66196766305
30
0.000690954549795181
11
-191.727416227638
21
2146.35130749127
31
0.000691215982896759
  0
LINE
 8
GROUP0
10
-206.227416227635
20
2148.47262783483
30
0.000675337745725296
11
-205.989038293738
21
2148.16196766305
31
0.000675632253333214
  0
LINE
 8
GROUP0
10
-206.227416227635
20
2146.35130749127
30
0.000677235846017127
11
-206.538076399414
21
2146.11292955737
31
0.000677427588398027
  0
LINE
 8
GROUP0
10
22.211921048323
20
2148.91196766304
30
0.000905817520419344
11
22.6001496159767
21
2148.86085640248
31
0.000905890186411928
  0
LINE
 8
GROUP0
10
35.2630323088863
20
2147.8001962307
30
0.000920691925090367
11
35.4128829426432
21
2148.16196766304
31
0.000920378617513201
  0
LINE
 8
GROUP0
10
22.9619210483228
20
2148.71100576872
30
0.000906049366295819
11
23.2725812201024
21
2148.47262783482
31
0.000906284212225361
  0
LINE
 8
GROUP0
10
38.2119210483188
20
2147.41196766304
30
0.000921243878043665
11
38.1608097877524
21
2147.02373909539
31
0.000921587708707505
  0
LINE
 8
GROUP0
10
22.6001496159767
20
2148.86085640248
30
0.000905890186411928
11
22.9619210483228
21
2148.71100576872
31
0.000906049366295819
  0
LINE
 8
GROUP0
10
23.2725812201024
20
2148.47262783482
30
0.000906284212225361
11
23.5109591539992
21
2148.16196766304
31
0.000906578719837509
  0
LINE
 8
GROUP0
10
36.7119210483195
20
2148.91196766304
30
0.000919797657317306
11
37.1001496159731
21
2148.86085640248
31
0.000919870323302135
  0
LINE
 8
GROUP0
10
37.7725812200987
20
2146.35130749126
30
0.000922162449381314
11
37.4619210483189
21
2146.11292955737
31
0.000922354191765035
  0
LINE
 8
GROUP0
10
37.4619210483189
20
2146.11292955737
30
0.000922354191765035
11
37.1001496159729
21
2145.96307892361
31
0.000922463176507793
  0
LINE
 8
GROUP0
10
35.9619210483196
20
2146.11292955737
30
0.000922250130619601
11
35.6512608765399
21
2146.35130749126
31
0.000922015284699223
  0
LINE
 8
GROUP0
10
20.9128829426469
20
2148.16196766304
30
0.000906398480598319
11
21.1512608765436
21
2148.47262783482
31
0.000906137047502381
  0
LINE
 8
GROUP0
10
35.2630323088863
20
2147.02373909539
30
0.000921386678012653
11
35.21192104832
21
2147.41196766304
31
0.000921035755754207
  0
LINE
 8
GROUP0
10
23.660809787756
20
2147.8001962307
30
0.000906912818926031
11
23.7119210483223
21
2147.41196766304
31
0.000907263741189412
  0
LINE
 8
GROUP0
10
-207.288076399414
20
2148.91196766305
30
0.000674871053929854
11
-206.89984783176
21
2148.86085640248
31
0.000674943719919618
  0
LINE
 8
GROUP0
10
38.1608097877524
20
2147.02373909539
30
0.000921587708707505
11
38.0109591539955
21
2146.66196766304
31
0.000921901016284671
  0
LINE
 8
GROUP0
10
38.1608097877524
20
2147.8001962307
30
0.000920892955784514
11
38.2119210483188
21
2147.41196766304
31
0.000921243878043665
  0
LINE
 8
GROUP0
10
23.5109591539992
20
2148.16196766304
30
0.000906578719837509
11
23.660809787756
21
2147.8001962307
31
0.000906912818926031
  0
LINE
 8
GROUP0
10
37.7725812200988
20
2148.47262783482
30
0.000920264349098648
11
38.0109591539955
21
2148.16196766304
31
0.000920558856703041
  0
LINE
 8
GROUP0
10
36.7119210483193
20
2145.91196766304
30
0.000922481976480566
11
36.3236924806657
21
2145.96307892361
31
0.000922409310495736
  0
LINE
 8
GROUP0
10
38.0109591539955
20
2146.66196766304
30
0.000921901016284671
11
37.7725812200987
21
2146.35130749126
31
0.000922162449381314
  0
LINE
 8
GROUP0
10
35.21192104832
20
2147.41196766304
30
0.000921035755754207
11
35.2630323088863
21
2147.8001962307
31
0.000920691925090367
  0
LINE
 8
GROUP0
10
38.0109591539955
20
2148.16196766304
30
0.000920558856703041
11
38.1608097877524
21
2147.8001962307
31
0.000920892955784514
  0
LINE
 8
GROUP0
10
35.4128829426432
20
2148.16196766304
30
0.000920378617513201
11
35.65126087654
21
2148.47262783482
31
0.000920117184415853
  0
LINE
 8
GROUP0
10
23.7119210483223
20
2147.41196766304
30
0.000907263741189412
11
23.6608097877559
21
2147.02373909539
31
0.000907607571856778
  0
LINE
 8
GROUP0
10
36.3236924806658
20
2148.86085640248
30
0.000919816457290079
11
36.7119210483195
21
2148.91196766304
31
0.000919797657317306
  0
LINE
 8
GROUP0
10
37.4619210483191
20
2148.71100576872
30
0.000920029503177566
11
37.7725812200988
21
2148.47262783482
31
0.000920264349098648
  0
LINE
 8
GROUP0
10
37.1001496159731
20
2148.86085640248
30
0.000919870323302135
11
37.4619210483191
21
2148.71100576872
31
0.000920029503177566
  0
LINE
 8
GROUP0
10
35.4128829426432
20
2146.66196766304
30
0.000921720777094831
11
35.2630323088863
21
2147.02373909539
31
0.000921386678012653
  0
LINE
 8
GROUP0
10
35.65126087654
20
2148.47262783482
30
0.000920117184415853
11
35.9619210483198
21
2148.71100576872
31
0.000919925442032837
  0
LINE
 8
GROUP0
10
37.1001496159729
20
2145.96307892361
30
0.000922463176507793
11
36.7119210483193
21
2145.91196766304
31
0.000922481976480566
  0
LINE
 8
GROUP0
10
36.3236924806657
20
2145.96307892361
30
0.000922409310495736
11
35.9619210483196
21
2146.11292955737
31
0.000922250130619601
  0
LINE
 8
GROUP0
10
35.9619210483198
20
2148.71100576872
30
0.000919925442032837
11
36.3236924806658
21
2148.86085640248
31
0.000919816457290079
  0
LINE
 8
GROUP0
10
20.7119210483236
20
2147.41196766304
30
0.00090705561884285
11
20.76303230889
21
2147.8001962307
31
0.00090671178817619
  0
LINE
 8
GROUP0
10
21.4619210483231
20
2146.11292955737
30
0.000908269993736444
11
21.1512608765435
21
2146.35130749126
31
0.000908035147807607
  0
LINE
 8
GROUP0
10
22.9619210483226
20
2146.11292955737
30
0.000908374054910077
11
22.6001496159765
21
2145.96307892361
31
0.0009084830396479
  0
LINE
 8
GROUP0
10
23.510959153999
20
2146.66196766304
30
0.000907920879434648
11
23.2725812201023
21
2146.35130749126
31
0.000908182312529882
  0
LINE
 8
GROUP0
10
21.1512608765436
20
2148.47262783482
30
0.000906137047502381
11
21.4619210483233
21
2148.71100576872
31
0.000905945305122891
  0
LINE
 8
GROUP0
10
21.4619210483233
20
2148.71100576872
30
0.000905945305122891
11
21.8236924806694
21
2148.86085640248
31
0.000905836320385067
  0
LINE
 8
GROUP0
10
23.6608097877559
20
2147.02373909539
30
0.000907607571856778
11
23.510959153999
21
2146.66196766304
31
0.000907920879434648
  0
LINE
 8
GROUP0
10
22.2119210483229
20
2145.91196766304
30
0.000908501839613623
11
21.8236924806692
21
2145.96307892361
31
0.000908429173620334
  0
LINE
 8
GROUP0
10
21.8236924806692
20
2145.96307892361
30
0.000908429173620334
11
21.4619210483231
21
2146.11292955737
31
0.000908269993736444
  0
LINE
 8
GROUP0
10
21.8236924806694
20
2148.86085640248
30
0.000905836320385067
11
22.211921048323
21
2148.91196766304
31
0.000905817520419344
  0
LINE
 8
GROUP0
10
20.9128829426467
20
2146.66196766304
30
0.000907740640195459
11
20.7630323088899
21
2147.02373909539
31
0.000907406541106937
  0
LINE
 8
GROUP0
10
21.1512608765435
20
2146.35130749126
30
0.000908035147807607
11
20.9128829426467
21
2146.66196766304
31
0.000907740640195459
  0
LINE
 8
GROUP0
10
22.6001496159765
20
2145.96307892361
30
0.0009084830396479
11
22.2119210483229
21
2145.91196766304
31
0.000908501839613623
  0
LINE
 8
GROUP0
10
20.76303230889
20
2147.8001962307
30
0.00090671178817619
11
20.9128829426469
21
2148.16196766304
31
0.000906398480598319
  0
LINE
 8
GROUP0
10
20.7630323088899
20
2147.02373909539
30
0.000907406541106937
11
20.7119210483236
21
2147.41196766304
31
0.00090705561884285
  0
LINE
 8
GROUP0
10
23.2725812201023
20
2146.35130749126
30
0.000908182312529882
11
22.9619210483226
21
2146.11292955737
31
0.000908374054910077
  0
LINE
 8
GROUP0
10
20.7630323088714
20
2124.8001962307
30
0.000925695964221596
11
20.9128829426283
21
2125.16196766305
31
0.000925382656642315
  0
LINE
 8
GROUP0
10
20.9128829426282
20
2123.66196766305
30
0.00092672481623593
11
20.7630323088714
21
2124.0237390954
31
0.000926390717150227
  0
LINE
 8
GROUP0
10
21.8236924806508
20
2125.86085640248
30
0.000924820496421308
11
22.2119210483045
21
2125.91196766305
31
0.00092480169645206
  0
LINE
 8
GROUP0
10
22.9619210483042
20
2125.71100576873
30
0.00092503354232078
11
23.2725812200838
21
2125.47262783483
31
0.000925268388246092
  0
LINE
 8
GROUP0
10
21.4619210483046
20
2123.11292955737
30
0.000927254169771274
11
21.1512608765249
21
2123.35130749127
31
0.000927019323845257
  0
LINE
 8
GROUP0
10
23.6608097877374
20
2124.0237390954
30
0.000926591747870459
11
23.5109591539805
21
2123.66196766305
31
0.000926905055449739
  0
LINE
 8
GROUP0
10
22.2119210483044
20
2122.91196766305
30
0.000927486015639994
11
21.8236924806506
21
2122.96307892362
31
0.000927413349650935
  0
LINE
 8
GROUP0
10
22.2119210483045
20
2125.91196766305
30
0.00092480169645206
11
22.6001496159581
21
2125.86085640248
31
0.000924874362440414
  0
LINE
 8
GROUP0
10
22.961921048304
20
2123.11292955737
30
0.000927358230929398
11
22.6001496159579
21
2122.96307892362
31
0.000927467215670041
  0
LINE
 8
GROUP0
10
23.2725812200838
20
2123.35130749127
30
0.000927166488547088
11
22.961921048304
21
2123.11292955737
31
0.000927358230929398
  0
LINE
 8
GROUP0
10
21.8236924806506
20
2122.96307892362
30
0.000927413349650935
11
21.4619210483046
21
2123.11292955737
31
0.000927254169771274
  0
LINE
 8
GROUP0
10
23.5109591539805
20
2123.66196766305
30
0.000926905055449739
11
23.2725812200838
21
2123.35130749127
31
0.000927166488547088
  0
LINE
 8
GROUP0
10
21.1512608765251
20
2125.47262783483
30
0.000925121223544967
11
21.4619210483048
21
2125.71100576873
31
0.000924929481162656
  0
LINE
 8
GROUP0
10
23.2725812200838
20
2125.47262783483
30
0.000925268388246092
11
23.5109591539806
21
2125.16196766305
31
0.00092556289585542
  0
LINE
 8
GROUP0
10
22.6001496159579
20
2122.96307892362
30
0.000927467215670041
11
22.2119210483044
21
2122.91196766305
31
0.000927486015639994
 0
ENDSEC
 0
EOF
