 0
SECTION
 2
ENTITIES
  0
LINE
 8
GROUP0
10
1524.46425568223
20
1652.59518349418
30
0.000311824812326433
11
1741.96430155134
21
1652.59518707585
31
0.00037199004013182
  0
LINE
 8
GROUP0
10
1524.46425568223
20
1652.59518349418
30
0.000311824812326433
11
1524.46425607586
21
1622.59518349419
31
0.000287099140237101
  0
LINE
 8
GROUP0
10
1474.46427300582
20
1385.09515474448
30
0.000267748002623769
11
1504.46427312067
21
1385.0951547445
31
0.000220797540593454
  0
LINE
 8
GROUP0
10
1741.96430155134
20
1652.59518707585
30
0.00037199004013182
11
1741.96430108595
21
1622.59518707585
31
0.000359701926036227
  0
LINE
 8
GROUP0
10
1504.46425692849
20
1602.59515895279
30
0.0
11
1524.46425607586
21
1622.59518349419
31
0.000287099140237101
  0
LINE
 8
GROUP0
10
1741.96429673537
20
1365.09515178788
30
0.000352003122852373
11
1761.96429742772
21
1385.09515156683
31
0.000342182750642106
  0
LINE
 8
GROUP0
10
1474.46425692844
20
1602.59518274548
30
0.000190686232451753
11
1504.46425692849
21
1602.59515895279
31
0.0
  0
LINE
 8
GROUP0
10
1741.96429623081
20
1335.09516290357
30
0.000236810707050239
11
1741.96429673537
21
1365.09515178788
31
0.000352003122852373
  0
LINE
 8
GROUP0
10
1741.96429623081
20
1335.09516290357
30
0.000236810707050239
11
1524.46427448422
21
1335.09516530756
31
0.000213228624597672
  0
LINE
 8
GROUP0
10
1761.96429742772
20
1385.09515156683
30
0.000342182750642106
11
1791.96429742771
21
1385.09515123525
31
0.000332607466772217
  0
LINE
 8
GROUP0
10
1791.96430108593
20
1602.5951861451
30
0.000297640181598346
11
1791.96429742771
21
1385.09515123525
31
0.000332607466772217
  0
LINE
 8
GROUP0
10
1761.96430108594
20
1602.59518661048
30
0.000323515193303781
11
1741.96430108595
21
1622.59518707585
31
0.000359701926036227
  0
LINE
 8
GROUP0
10
1474.46427300582
20
1385.09515474448
30
0.000267748002623769
11
1474.46425692844
21
1602.59518274548
31
0.000190686232451753
  0
LINE
 8
GROUP0
10
1791.96430108593
20
1602.5951861451
30
0.000297640181598346
11
1761.96430108594
21
1602.59518661048
31
0.000323515193303781
  0
LINE
 8
GROUP0
10
1639.46429409015
20
1608.89496827038
30
0.000277174596208996
11
1642.05311593995
21
1610.8814411428
31
0.000278278499233586
  0
LINE
 8
GROUP0
10
1624.37553459967
20
1628.55902248309
30
0.000270953984498989
11
1622.38906172725
21
1625.97020063329
31
0.000270099658259548
  0
LINE
 8
GROUP0
10
1633.21432526981
20
1607.22029417225
30
0.000274530857959521
11
1636.44954719381
21
1607.6462192188
31
0.000275896345558779
  0
LINE
 8
GROUP0
10
1524.4642744842
20
1365.09515419188
30
0.000272266707400837
11
1524.46427448422
21
1335.09516530756
31
0.000213228624597672
  0
LINE
 8
GROUP0
10
1622.38906172725
20
1613.4702629926
30
0.000270014274355601
11
1624.37553459967
21
1610.8814411428
31
0.000270833233421408
  0
LINE
 8
GROUP0
10
1504.46427312067
20
1385.0951547445
30
0.000220797540593454
11
1524.4642744842
21
1365.09515419188
31
0.000272266707400837
  0
LINE
 8
GROUP0
10
1621.14031267566
20
1616.48500988894
30
0.000269508931765383
11
1622.38906172725
21
1613.4702629926
31
0.000270014274355601
  0
LINE
 8
GROUP0
10
1626.96435644946
20
1608.89496827039
30
0.000271909998267317
11
1629.9791033458
21
1607.6462192188
31
0.000273171189135502
  0
LINE
 8
GROUP0
10
1626.96435644946
20
1608.89496827039
30
0.000271909998267317
11
1624.37553459967
21
1610.8814411428
31
0.000270833233421408
  0
LINE
 8
GROUP0
10
1620.71438762912
20
1619.72023181295
30
0.000269351643921789
11
1621.14031267566
21
1616.48500988894
31
0.000269508931765383
  0
LINE
 8
GROUP0
10
1636.44954719381
20
1607.6462192188
30
0.000275896345558779
11
1639.46429409015
21
1608.89496827038
31
0.000277174596208996
  0
LINE
 8
GROUP0
10
1629.9791033458
20
1607.6462192188
30
0.000273171189135502
11
1633.21432526981
21
1607.22029417225
31
0.000274530857959521
  0
LINE
 8
GROUP0
10
1621.14031267567
20
1622.95545373695
30
0.000269553129731737
11
1622.38906172725
21
1625.97020063329
31
0.000270099658259548
  0
LINE
 8
GROUP0
10
1621.14031267567
20
1622.95545373695
30
0.000269553129731737
11
1620.71438762912
21
1619.72023181295
31
0.000269351643921789
  0
LINE
 8
GROUP0
10
1624.37553459967
20
1628.55902248309
30
0.000270953984498989
11
1626.96435644947
21
1630.54549535551
31
0.00027205788752358
  0
LINE
 8
GROUP0
10
1626.96435644947
20
1630.54549535551
30
0.00027205788752358
11
1629.97910334581
21
1631.79424440709
31
0.000273336138173796
  0
LINE
 8
GROUP0
10
1649.8456040827
20
1634.08902561914
30
0.000281718986098056
11
1650.09987222997
21
1634.42039773359
31
0.000281828339711465
  0
LINE
 8
GROUP0
10
1636.44954719382
20
1631.79424440709
30
0.000276061294597074
11
1639.46429409016
21
1630.5454953555
31
0.000277322485470899
  0
LINE
 8
GROUP0
10
1633.21432526981
20
1632.22016945364
30
0.000274701625773055
11
1629.97910334581
21
1631.79424440709
31
0.000273336138173796
  0
LINE
 8
GROUP0
10
1645.7142629105
20
1619.72023181294
30
0.000279880839810787
11
1645.28833786395
21
1616.48500988894
31
0.000279679354000839
  0
LINE
 8
GROUP0
10
1633.21432526981
20
1632.22016945364
30
0.000274701625773055
11
1636.44954719382
21
1631.79424440709
31
0.000276061294597074
  0
LINE
 8
GROUP0
10
1642.05311593995
20
1628.55902248309
30
0.000278399250311168
11
1644.03958881237
21
1625.97020063329
31
0.000279218209376975
  0
LINE
 8
GROUP0
10
1645.28833786396
20
1622.95545373695
30
0.000279723551967193
11
1645.7142629105
21
1619.72023181294
31
0.000279880839810787
  0
LINE
 8
GROUP0
10
1645.28833786396
20
1622.95545373695
30
0.000279723551967193
11
1644.03958881237
21
1625.97020063329
31
0.000279218209376975
  0
LINE
 8
GROUP0
10
1644.03958881237
20
1613.4702629926
30
0.000279132825473027
11
1642.05311593995
21
1610.8814411428
31
0.000278278499233586
  0
LINE
 8
GROUP0
10
1649.51423450323
20
1633.83475416793
30
0.000281577686330792
11
1649.8456040827
21
1634.08902561914
31
0.000281718986098056
  0
LINE
 8
GROUP0
10
1648.71423557472
20
1633.62039081798
30
0.000281239286568491
11
1649.12834577418
21
1633.67491156446
31
0.00028141406975486
  0
LINE
 8
GROUP0
10
1649.12834577418
20
1633.67491156446
30
0.00028141406975486
11
1649.51423450323
21
1633.83475416793
31
0.000281577686330792
  0
LINE
 8
GROUP0
10
1639.46429409016
20
1630.5454953555
30
0.000277322485470899
11
1642.05311593995
21
1628.55902248309
31
0.000278399250311168
  0
LINE
 8
GROUP0
10
1648.30012483059
20
1633.67490742728
30
0.000281065247966072
11
1648.71423557472
21
1633.62039081798
31
0.000281239286568491
  0
LINE
 8
GROUP0
10
1645.28833786395
20
1616.48500988894
30
0.000279679354000839
11
1644.03958881237
21
1613.4702629926
31
0.000279132825473027
  0
LINE
 8
GROUP0
10
1647.91423450465
20
1633.83474617553
30
0.000280903814376954
11
1648.30012483059
21
1633.67490742728
31
0.000281065247966072
  0
LINE
 8
GROUP0
10
1647.11422758376
20
1635.22038282412
30
0.000280576340445071
11
1647.16874833023
21
1634.80627262467
31
0.000280596474261285
  0
LINE
 8
GROUP0
10
1647.91422071329
20
1636.6060275033
30
0.000280922738483946
11
1647.58285108197
21
1636.35175601391
31
0.000280781438699762
  0
LINE
 8
GROUP0
10
1649.12833038869
20
1636.76587421924
30
0.000281435176854306
11
1648.71421964583
21
1636.82039083693
31
0.000281261138246247
  0
LINE
 8
GROUP0
10
1647.58285108197
20
1636.35175601391
30
0.000280781438699762
11
1647.32858294132
21
1636.02038389417
31
0.000280672085080713
  0
LINE
 8
GROUP0
10
1647.58286238491
20
1634.08901431617
30
0.000280765987246134
11
1647.91423450465
21
1633.83474617553
31
0.000280903814376954
  0
LINE
 8
GROUP0
10
1647.32858294132
20
1636.02038389417
30
0.000280672085080713
11
1647.16874419306
21
1635.63449356824
31
0.000280602129890184
  0
LINE
 8
GROUP0
10
1648.30010944543
20
1636.76587009888
30
0.000281086355065518
11
1647.91422071329
21
1636.6060275033
31
0.000280922738483946
  0
LINE
 8
GROUP0
10
1649.51422071123
20
1636.60603546323
30
0.000281596610437784
11
1649.12833038869
21
1636.76587421924
31
0.000281435176854306
  0
LINE
 8
GROUP0
10
1650.09986427006
20
1636.02039773148
30
0.000281839265553163
11
1649.84559282567
21
1636.35176731597
31
0.000281734437568604
  0
LINE
 8
GROUP0
10
1648.71421964583
20
1636.82039083693
30
0.000281261138246247
11
1648.30010944543
21
1636.76587009888
31
0.000281086355065518
  0
LINE
 8
GROUP0
10
1649.84559282567
20
1636.35176731597
30
0.000281734437568604
11
1649.51422071123
21
1636.60603546323
31
0.000281596610437784
  0
LINE
 8
GROUP0
10
1647.3285909337
20
1634.42038389563
30
0.000280661159255935
11
1647.58286238491
21
1634.08901431617
31
0.000280765987246134
  0
LINE
 8
GROUP0
10
1650.25970686564
20
1635.63450899936
30
0.000281903950542173
11
1650.09986427006
21
1636.02039773148
31
0.000281839265553163
  0
LINE
 8
GROUP0
10
1647.16874833023
20
1634.80627262467
30
0.000280596474261285
11
1647.3285909337
21
1634.42038389563
31
0.000280661159255935
  0
LINE
 8
GROUP0
10
1650.31422760368
20
1635.22039879896
30
0.000281924084358387
11
1650.25970686564
21
1635.63450899936
31
0.000281903950542173
  0
LINE
 8
GROUP0
10
1647.16874419306
20
1635.63449356824
30
0.000280602129890184
11
1647.11422758376
21
1635.22038282412
31
0.000280576340445071
  0
LINE
 8
GROUP0
10
1617.30007785813
20
1636.76572339391
30
0.000268030072726511
11
1616.9141883303
21
1636.6058827179
31
0.000267866455823462
  0
LINE
 8
GROUP0
10
1617.71418833029
20
1636.82024207186
30
0.000268204856008758
11
1617.30007785813
21
1636.76572339391
31
0.000268030072726511
  0
LINE
 8
GROUP0
10
1650.25971098599
20
1634.80628805612
30
0.000281898294913274
11
1650.31422760368
21
1635.22039879896
31
0.000281924084358387
  0
LINE
 8
GROUP0
10
1618.51418833029
20
1636.60588271793
30
0.000268540327726541
11
1618.12829880245
21
1636.76572339393
31
0.000268378894487098
  0
LINE
 8
GROUP0
10
1616.58281748041
20
1634.08887122194
30
0.000267709699317953
11
1616.91418959528
21
1633.83460307434
31
0.000267847526448772
  0
LINE
 8
GROUP0
10
1616.16870700825
20
1634.80613159966
30
0.000267540187861526
11
1616.32854768425
21
1634.42024207183
31
0.000267604872032745
  0
LINE
 8
GROUP0
10
1616.16870700825
20
1635.63435254399
30
0.000267545845227524
11
1616.11418833031
21
1635.22024207183
31
0.000267520054919501
  0
LINE
 8
GROUP0
10
1616.32854768425
20
1636.02024207183
30
0.000267615801230203
11
1616.16870700825
21
1635.63435254399
31
0.000267545845227524
  0
LINE
 8
GROUP0
10
1616.9141883303
20
1636.6058827179
30
0.000267866455823462
11
1616.5828174804
21
1636.35161292173
31
0.000267725155531684
  0
LINE
 8
GROUP0
10
1618.12829880245
20
1636.76572339393
30
0.000268378894487098
11
1617.71418833029
21
1636.82024207186
31
0.000268204856008758
  0
LINE
 8
GROUP0
10
1618.84555918018
20
1636.35161292177
30
0.000268678154310287
11
1618.51418833029
21
1636.60588271793
31
0.000268540327726541
  0
LINE
 8
GROUP0
10
1616.5828174804
20
1636.35161292173
30
0.000267725155531684
11
1616.32854768425
21
1636.02024207183
31
0.000267615801230203
  0
LINE
 8
GROUP0
10
1619.09981936783
20
1636.02025459386
30
0.000268782977630622
11
1618.84555918018
21
1636.35161292177
31
0.000268678154310287
  0
LINE
 8
GROUP0
10
1616.32854768425
20
1634.42024207183
30
0.000267604872032745
11
1616.58281748041
21
1634.08887122194
31
0.000267709699317953
  0
LINE
 8
GROUP0
10
1650.09987222997
20
1634.42039773359
30
0.000281828339711465
11
1650.25971098599
21
1634.80628805612
31
0.000281898294913274
  0
LINE
 8
GROUP0
10
1616.11418833031
20
1635.22024207183
30
0.000267520054919501
11
1616.16870700825
21
1634.80613159966
31
0.000267540187861526
  0
LINE
 8
GROUP0
10
1616.91418959528
20
1633.83460307434
30
0.000267847526448772
11
1617.30007991831
21
1633.67476431813
31
0.000268008960032251
  0
LINE
 8
GROUP0
10
1647.58301949111
20
1603.08897772746
30
0.000280554300021318
11
1647.91439034101
21
1602.83470793131
31
0.000280692126605064
  0
LINE
 8
GROUP0
10
1618.84555918016
20
1634.08888247901
30
0.000268662698169875
11
1619.09982732776
21
1634.42025459389
31
0.000268772051788924
  0
LINE
 8
GROUP0
10
1647.32874969495
20
1603.42034857736
30
0.000280449472736111
11
1647.58301949111
21
1603.08897772746
31
0.000280554300021318
  0
LINE
 8
GROUP0
10
1647.16890901894
20
1603.8062381052
30
0.000280384788564891
11
1647.32874969495
21
1603.42034857736
31
0.000280449472736111
  0
LINE
 8
GROUP0
10
1647.114390341
20
1604.22034857736
30
0.000280364655622867
11
1647.16890901894
21
1603.8062381052
31
0.000280384788564891
  0
LINE
 8
GROUP0
10
1617.30007991831
20
1633.67476431813
30
0.000268008960032251
11
1617.71419066169
21
1633.62024770038
31
0.000268182998640309
  0
LINE
 8
GROUP0
10
1619.25966196362
20
1635.63436586124
30
0.000268847662619631
11
1619.09981936783
21
1636.02025459386
31
0.000268782977630622
  0
LINE
 8
GROUP0
10
1619.31418270173
20
1635.22025566031
30
0.000268867796435845
11
1619.25966196362
21
1635.63436586124
31
0.000268847662619631
  0
LINE
 8
GROUP0
10
1618.51418959525
20
1633.83461103429
30
0.00026852139840261
11
1618.84555918016
21
1634.08888247901
31
0.000268662698169875
  0
LINE
 8
GROUP0
10
1618.12830086262
20
1633.6747684385
30
0.000268357781826678
11
1618.51418959525
21
1633.83461103429
31
0.00026852139840261
  0
LINE
 8
GROUP0
10
1647.16890901894
20
1604.63445904952
30
0.000280390445930889
11
1647.114390341
21
1604.22034857736
31
0.000280364655622867
  0
LINE
 8
GROUP0
10
1647.32874969495
20
1605.02034857735
30
0.000280460401933569
11
1647.16890901894
21
1604.63445904952
31
0.000280390445930889
  0
LINE
 8
GROUP0
10
1619.09982732776
20
1634.42025459389
30
0.000268772051788924
11
1619.25966608398
21
1634.80614491692
31
0.000268842006990733
  0
LINE
 8
GROUP0
10
1619.25966608398
20
1634.80614491692
30
0.000268842006990733
11
1619.31418270173
21
1635.22025566031
31
0.000268867796435845
  0
LINE
 8
GROUP0
10
1617.71419066169
20
1633.62024770038
30
0.000268182998640309
11
1618.12830086262
21
1633.6747684385
31
0.000268357781826678
  0
LINE
 8
GROUP0
10
1647.58301949111
20
1605.35171942724
30
0.00028056975623505
11
1647.32874969495
21
1605.02034857735
31
0.000280460401933569
  0
LINE
 8
GROUP0
10
1650.10003098708
20
1605.02034857726
30
0.00028162758229886
11
1649.84576119096
21
1605.35171942719
31
0.000281522755013652
  0
LINE
 8
GROUP0
10
1650.25987166309
20
1604.63445904943
30
0.000281692266470079
11
1650.10003098708
21
1605.02034857726
31
0.00028162758229886
  0
LINE
 8
GROUP0
10
1650.25987166309
20
1603.80623810513
30
0.000281686609104081
11
1650.31439034102
21
1604.22034857728
31
0.000281712399412104
  0
LINE
 8
GROUP0
10
1648.71439034104
20
1605.82034857731
30
0.000281049456712124
11
1648.30027986887
21
1605.76582989938
31
0.000280874673429876
  0
LINE
 8
GROUP0
10
1648.71439034102
20
1602.62034857735
30
0.000281027598322847
11
1649.12850081318
21
1602.67486725528
31
0.000281202381605095
  0
LINE
 8
GROUP0
10
1648.30027986887
20
1605.76582989938
30
0.000280874673429876
11
1647.91439034102
21
1605.60598922339
31
0.000280711056526828
  0
LINE
 8
GROUP0
10
1647.91439034102
20
1605.60598922339
30
0.000280711056526828
11
1647.58301949111
21
1605.35171942724
31
0.00028056975623505
  0
LINE
 8
GROUP0
10
1649.12850081321
20
1605.76582989937
30
0.000281223495190463
11
1648.71439034104
21
1605.82034857731
31
0.000281049456712124
  0
LINE
 8
GROUP0
10
1650.31439034102
20
1604.22034857728
30
0.000281712399412104
11
1650.25987166309
21
1604.63445904943
31
0.000281692266470079
  0
LINE
 8
GROUP0
10
1649.84576119096
20
1605.35171942719
30
0.000281522755013652
11
1649.51439034105
21
1605.60598922335
31
0.000281384928429906
  0
LINE
 8
GROUP0
10
1650.10003098708
20
1603.4203485773
30
0.000281616653101402
11
1650.25987166309
21
1603.80623810513
31
0.000281686609104081
  0
LINE
 8
GROUP0
10
1649.84576119092
20
1603.08897772742
30
0.000281507298799921
11
1650.10003098708
21
1603.4203485773
31
0.000281616653101402
  0
LINE
 8
GROUP0
10
1649.51439034105
20
1605.60598922335
30
0.000281384928429906
11
1649.12850081321
21
1605.76582989937
31
0.000281223495190463
  0
LINE
 8
GROUP0
10
1649.51439034102
20
1602.83470793128
30
0.000281365998508143
11
1649.84576119092
21
1603.08897772742
31
0.000281507298799921
  0
LINE
 8
GROUP0
10
1649.12850081318
20
1602.67486725528
30
0.000281202381605095
11
1649.51439034102
21
1602.83470793128
31
0.000281365998508143
  0
LINE
 8
GROUP0
10
1647.91439034101
20
1602.83470793131
30
0.000280692126605064
11
1648.30027986885
21
1602.6748672553
31
0.000280853559844507
  0
LINE
 8
GROUP0
10
1616.91434252434
20
1602.83454550482
30
0.000267635837328939
11
1617.30023284722
21
1602.67470674865
31
0.000267797270912418
  0
LINE
 8
GROUP0
10
1616.32869896497
20
1603.42018323714
30
0.00026739318220792
11
1616.58297040958
21
1603.08881365234
31
0.00026749801019248
  0
LINE
 8
GROUP0
10
1616.16885636924
20
1603.80607196964
30
0.00026732849721891
11
1616.32869896497
21
1603.42018323714
31
0.00026739318220792
  0
LINE
 8
GROUP0
10
1618.51434252373
20
1602.8345534647
30
0.000268309709277137
11
1618.84571210852
21
1603.08882490931
31
0.000268451009050041
  0
LINE
 8
GROUP0
10
1616.11433563115
20
1604.22018217043
30
0.000267308363408336
11
1616.16885636924
21
1603.80607196964
31
0.00026732849721891
  0
LINE
 8
GROUP0
10
1617.71434359046
20
1602.6201901309
30
0.000267971309514836
11
1618.12845379124
21
1602.67471086898
31
0.000268146092701205
  0
LINE
 8
GROUP0
10
1616.16885224888
20
1604.63429291367
30
0.000267334152853449
11
1616.11433563115
21
1604.22018217043
31
0.000267308363408336
  0
LINE
 8
GROUP0
10
1616.58295915255
20
1605.35155535131
30
0.000267513461668667
11
1616.32869100505
21
1605.02018323656
31
0.000267404108049618
  0
LINE
 8
GROUP0
10
1618.12845379124
20
1602.67471086898
30
0.000268146092701205
11
1618.51434252373
21
1602.8345534647
31
0.000268309709277137
  0
LINE
 8
GROUP0
10
1616.58297040958
20
1603.08881365234
30
0.00026749801019248
11
1616.91434252434
21
1602.83454550482
31
0.000267635837328939
  0
LINE
 8
GROUP0
10
1618.84571210852
20
1603.08882490931
30
0.000268451009050041
11
1619.09998025612
21
1603.42019702418
31
0.00026856036266909
  0
LINE
 8
GROUP0
10
1616.32869100505
20
1605.02018323656
30
0.000267404108049618
11
1616.16885224888
21
1604.63429291367
31
0.000267334152853449
  0
LINE
 8
GROUP0
10
1648.30027986885
20
1602.6748672553
30
0.000280853559844507
11
1648.71439034102
21
1602.62034857735
31
0.000281027598322847
  0
LINE
 8
GROUP0
10
1616.91432873666
20
1605.6058267968
30
0.000267654761441571
11
1616.58295915255
21
1605.35155535131
31
0.000267513461668667
  0
LINE
 8
GROUP0
10
1617.30023284722
20
1602.67470674865
30
0.000267797270912418
11
1617.71434359046
21
1602.6201901309
31
0.000267971309514836
  0
LINE
 8
GROUP0
10
1618.51432873661
20
1605.60583475669
30
0.000268328633389769
11
1618.12843841359
21
1605.76567351292
31
0.000268167199806291
  0
LINE
 8
GROUP0
10
1632.46427659287
20
1440.8635930611
30
0.000239174519899921
11
1632.82604802522
21
1440.71374242735
31
0.000239299637526402
  0
LINE
 8
GROUP0
10
1617.30021746928
20
1605.76566939258
30
0.000267818378017504
11
1616.91432873666
21
1605.6058267968
31
0.000267654761441571
  0
LINE
 8
GROUP0
10
1619.25981489197
20
1604.63430829152
30
0.000268635973499798
11
1619.09997229619
21
1605.02019702416
31
0.000268571288510788
  0
LINE
 8
GROUP0
10
1632.82604802522
20
1440.71374242735
30
0.000239299637526402
11
1633.21427659287
21
1440.66263116678
31
0.000239437297055334
  0
LINE
 8
GROUP0
10
1617.7143276702
20
1605.82019013069
30
0.000267993161198232
11
1617.30021746928
21
1605.76566939258
31
0.000267818378017504
  0
LINE
 8
GROUP0
10
1633.60250516053
20
1440.71374242735
30
0.000239578117225259
11
1633.96427659287
21
1440.8635930611
31
0.000239712501368761
  0
LINE
 8
GROUP0
10
1619.09998025612
20
1603.42019702418
30
0.00026856036266909
11
1619.25981901234
21
1603.80608734721
31
0.000268630317865259
  0
LINE
 8
GROUP0
10
1633.21427659287
20
1440.66263116678
30
0.000239437297055334
11
1633.60250516053
21
1440.71374242735
31
0.000239578117225259
  0
LINE
 8
GROUP0
10
1619.09997229619
20
1605.02019702416
30
0.000268571288510788
11
1618.84570085148
21
1605.35156660908
31
0.000268466460520589
  0
LINE
 8
GROUP0
10
1619.31433563009
20
1604.22019809059
30
0.000268656107310372
11
1619.25981489197
21
1604.63430829152
31
0.000268635973499798
  0
LINE
 8
GROUP0
10
1618.84570085148
20
1605.35156660908
30
0.000268466460520589
11
1618.51432873661
21
1605.60583475669
31
0.000268328633389769
  0
LINE
 8
GROUP0
10
1634.27493676465
20
1441.101970995
30
0.00023983129143601
11
1634.51331469855
21
1441.41263116678
31
0.000239926392070267
  0
LINE
 8
GROUP0
10
1633.96427659287
20
1440.8635930611
30
0.000239712501368761
11
1634.27493676465
21
1441.101970995
31
0.00023983129143601
  0
LINE
 8
GROUP0
10
1619.25981901234
20
1603.80608734721
30
0.000268630317865259
11
1619.31433563009
21
1604.22019809059
31
0.000268656107310372
  0
LINE
 8
GROUP0
10
1618.12843841359
20
1605.76567351292
30
0.000268167199806291
11
1617.7143276702
21
1605.82019013069
31
0.000267993161198232
  0
LINE
 8
GROUP0
10
1631.71427659288
20
1442.16263116678
30
0.000238945694379566
11
1631.76538785344
21
1441.77440259913
31
0.000238952021938799
  0
LINE
 8
GROUP0
10
1633.60250516053
20
1520.61151990622
30
0.000241638988588111
11
1633.21427659288
21
1520.66263116678
31
0.000241501329059179
  0
LINE
 8
GROUP0
10
1631.76538785344
20
1441.77440259913
30
0.000238952021938799
11
1631.9152384872
21
1441.41263116678
31
0.000238994580833474
  0
LINE
 8
GROUP0
10
1631.71427659288
20
1519.16263116678
30
0.000240916968802907
11
1631.71427659288
21
1442.16263116678
31
0.000238945694379566
  0
LINE
 8
GROUP0
10
1631.9152384872
20
1441.41263116678
30
0.000238994580833474
11
1632.15361642109
21
1441.101970995
31
0.000239070470744984
  0
LINE
 8
GROUP0
10
1632.46427659288
20
1520.46166927246
30
0.000241226124751392
11
1632.1536164211
21
1520.22329133856
31
0.000241107334678503
  0
LINE
 8
GROUP0
10
1633.21427659288
20
1520.66263116678
30
0.000241501329059179
11
1632.82604802522
21
1520.61151990622
31
0.000241360508889255
  0
LINE
 8
GROUP0
10
1631.76538785344
20
1519.55085973444
30
0.000240947303791472
11
1631.71427659288
21
1519.16263116678
31
0.000240916968802907
  0
LINE
 8
GROUP0
10
1631.9152384872
20
1519.91263116678
30
0.000241012234049887
11
1631.76538785344
21
1519.55085973444
31
0.000240947303791472
  0
LINE
 8
GROUP0
10
1632.1536164211
20
1520.22329133856
30
0.000241107334678503
11
1631.9152384872
21
1519.91263116678
31
0.000241012234049887
  0
LINE
 8
GROUP0
10
1632.82604802522
20
1520.61151990622
30
0.000241360508889255
11
1632.46427659288
21
1520.46166927246
31
0.000241226124751392
  0
LINE
 8
GROUP0
10
1633.96427659288
20
1520.46166927246
30
0.000241764106214593
11
1633.60250516053
21
1520.61151990622
31
0.000241638988588111
  0
LINE
 8
GROUP0
10
1634.27493676466
20
1520.22329133856
30
0.000241868155375169
11
1633.96427659288
21
1520.46166927246
31
0.000241764106214593
  0
LINE
 8
GROUP0
10
1634.51331469855
20
1519.91263116678
30
0.000241944045286679
11
1634.27493676466
21
1520.22329133856
31
0.000241868155375169
  0
LINE
 8
GROUP0
10
1634.66316533231
20
1519.55085973444
30
0.000241986604175715
11
1634.51331469855
21
1519.91263116678
31
0.000241944045286679
  0
LINE
 8
GROUP0
10
1632.15361642109
20
1441.101970995
30
0.000239070470744984
11
1632.46427659287
21
1440.8635930611
31
0.000239174519899921
  0
LINE
 8
GROUP0
10
1574.21429506059
20
1606.84503075904
30
0.000181245332104973
11
1537.21433025785
21
1606.84503075904
31
0.000181245332104973
  0
LINE
 8
GROUP0
10
1634.71427659288
20
1519.16263116678
30
0.000241992931740587
11
1634.66316533231
21
1519.55085973444
31
0.000241986604175715
  0
LINE
 8
GROUP0
10
1574.21429506059
20
1610.84503075904
30
0.000181245332104973
11
1574.21429506059
21
1606.84503075904
31
0.000181245332104973
  0
LINE
 8
GROUP0
10
1634.66316533231
20
1441.77440259913
30
0.000239991322328681
11
1634.71427659288
21
1442.16263116678
31
0.000240021657317246
  0
LINE
 8
GROUP0
10
1729.21429598452
20
1610.84503075904
30
0.000181245332104973
11
1729.21429598452
21
1606.84503075904
31
0.000181245332104973
  0
LINE
 8
GROUP0
10
1537.21433025785
20
1610.84503075904
30
0.000181245332104973
11
1574.21429506059
21
1610.84503075904
31
0.000181245332104973
  0
LINE
 8
GROUP0
10
1634.51331469855
20
1441.41263116678
30
0.000239926392070267
11
1634.66316533231
21
1441.77440259913
31
0.000239991322328681
  0
LINE
 8
GROUP0
10
1692.21427792392
20
1606.84503075904
30
0.000181245332104973
11
1692.21427792392
21
1610.84503075904
31
0.000181245332104973
  0
LINE
 8
GROUP0
10
1634.71427659288
20
1442.16263116678
30
0.000240021657317246
11
1634.71427659288
21
1519.16263116678
31
0.000241992931740587
  0
LINE
 8
GROUP0
10
1729.21429598452
20
1606.84503075904
30
0.000181245332104973
11
1692.21427792392
21
1606.84503075904
31
0.000181245332104973
  0
LINE
 8
GROUP0
10
1692.21427792392
20
1610.84503075904
30
0.000181245332104973
11
1729.21429598452
21
1610.84503075904
31
0.000181245332104973
  0
LINE
 8
GROUP0
10
1537.21433025785
20
1606.84503075904
30
0.000181245332104973
11
1537.21433025785
21
1610.84503075904
31
0.000181245332104973
 0
ENDSEC
 0
EOF
