 0
SECTION
 2
ENTITIES
  0
LINE
 8
Layer0
10
1474.13026016676
20
1444.86085249358
30
0.000238945694379566
11
1474.18137142733
21
1444.47262392593
31
0.000238952021938799
  0
LINE
 8
Layer0
10
1474.13026016676
20
1521.86085249358
30
0.000240916968802907
11
1474.13026016676
21
1444.86085249358
31
0.000238945694379566
  0
LINE
 8
Layer0
10
1474.18137142733
20
1522.24908106123
30
0.000240947303791472
11
1474.13026016676
21
1521.86085249358
31
0.000240916968802907
  0
LINE
 8
Layer0
10
1461.51596383
20
1606.11841835098
30
0.00026856036266909
11
1461.67580258622
21
1606.50430867401
31
0.000268630317865259
  0
LINE
 8
Layer0
10
1475.24203159911
20
1443.41196375415
30
0.000239299637526402
11
1475.63026016676
21
1443.36085249358
31
0.000239437297055334
  0
LINE
 8
Layer0
10
1475.63026016676
20
1443.36085249358
30
0.000239437297055334
11
1476.01848873441
21
1443.41196375415
31
0.000239578117225259
  0
LINE
 8
Layer0
10
1461.73031920398
20
1606.91841941739
30
0.000268656107310372
11
1461.67579846586
21
1607.33252961832
31
0.000268635973499798
  0
LINE
 8
Layer0
10
1461.67580258622
20
1606.50430867401
30
0.000268630317865259
11
1461.73031920398
21
1606.91841941739
31
0.000268656107310372
  0
LINE
 8
Layer0
10
1476.69092033854
20
1443.8001923218
30
0.00023983129143601
11
1476.92929827244
21
1444.11085249358
31
0.000239926392070267
  0
LINE
 8
Layer0
10
1476.38026016676
20
1443.5618143879
30
0.000239712501368761
11
1476.69092033854
21
1443.8001923218
31
0.00023983129143601
  0
LINE
 8
Layer0
10
1474.18137142733
20
1444.47262392593
30
0.000238952021938799
11
1474.33122206108
21
1444.11085249358
31
0.000238994580833474
  0
LINE
 8
Layer0
10
1474.88026016676
20
1443.5618143879
30
0.000239174519899921
11
1475.24203159911
21
1443.41196375415
31
0.000239299637526402
  0
LINE
 8
Layer0
10
1474.56959999498
20
1443.8001923218
30
0.000239070470744984
11
1474.88026016676
21
1443.5618143879
31
0.000239174519899921
  0
LINE
 8
Layer0
10
1476.01848873441
20
1443.41196375415
30
0.000239578117225259
11
1476.38026016676
21
1443.5618143879
31
0.000239712501368761
  0
LINE
 8
Layer0
10
1474.33122206108
20
1444.11085249358
30
0.000238994580833474
11
1474.56959999498
21
1443.8001923218
31
0.000239070470744984
  0
LINE
 8
Layer0
10
1475.24203159911
20
1523.30974123301
30
0.000241360508889255
11
1474.88026016676
21
1523.15989059926
31
0.000241226124751392
  0
LINE
 8
Layer0
10
1476.69092033854
20
1522.92151266536
30
0.000241868155375169
11
1476.38026016676
21
1523.15989059926
31
0.000241764106214593
  0
LINE
 8
Layer0
10
1477.13026016676
20
1521.86085249358
30
0.000241992931740587
11
1477.0791489062
21
1522.24908106123
31
0.000241986604175715
  0
LINE
 8
Layer0
10
1571.63027955841
20
1609.54325208583
30
0.000181245332104973
11
1534.63026149781
21
1609.54325208583
31
0.000181245332104973
  0
LINE
 8
Layer0
10
1477.0791489062
20
1522.24908106123
30
0.000241986604175715
11
1476.92929827244
21
1522.61085249358
31
0.000241944045286679
  0
LINE
 8
Layer0
10
1474.56959999498
20
1522.92151266536
30
0.000241107334678503
11
1474.33122206109
21
1522.61085249358
31
0.000241012234049887
  0
LINE
 8
Layer0
10
1476.01848873442
20
1523.30974123301
30
0.000241638988588111
11
1475.63026016676
21
1523.36085249358
31
0.000241501329059179
  0
LINE
 8
Layer0
10
1476.92929827244
20
1522.61085249358
30
0.000241944045286679
11
1476.69092033854
21
1522.92151266536
31
0.000241868155375169
  0
LINE
 8
Layer0
10
1477.13026016676
20
1444.86085249358
30
0.000240021657317246
11
1477.13026016676
21
1521.86085249358
31
0.000241992931740587
  0
LINE
 8
Layer0
10
1474.88026016676
20
1523.15989059926
30
0.000241226124751392
11
1474.56959999498
21
1522.92151266536
31
0.000241107334678503
  0
LINE
 8
Layer0
10
1474.33122206109
20
1522.61085249358
30
0.000241012234049887
11
1474.18137142733
21
1522.24908106123
31
0.000240947303791472
  0
LINE
 8
Layer0
10
1476.38026016676
20
1523.15989059926
30
0.000241764106214593
11
1476.01848873442
21
1523.30974123301
31
0.000241638988588111
  0
LINE
 8
Layer0
10
1477.07914890619
20
1444.47262392592
30
0.000239991322328681
11
1477.13026016676
21
1444.86085249358
31
0.000240021657317246
  0
LINE
 8
Layer0
10
1475.63026016676
20
1523.36085249358
30
0.000241501329059179
11
1475.24203159911
21
1523.30974123301
31
0.000241360508889255
  0
LINE
 8
Layer0
10
1476.92929827244
20
1444.11085249358
30
0.000239926392070267
11
1477.07914890619
21
1444.47262392592
31
0.000239991322328681
  0
LINE
 8
Layer0
10
1571.63027955841
20
1613.54325208583
30
0.000181245332104973
11
1571.63027955841
21
1609.54325208583
31
0.000181245332104973
  0
LINE
 8
Layer0
10
1416.63027863447
20
1609.54325208583
30
0.000181245332104973
11
1379.63031383174
21
1609.54325208583
31
0.000181245332104973
  0
LINE
 8
Layer0
10
1379.63031383174
20
1609.54325208583
30
0.000181245332104973
11
1379.63031383174
21
1613.54325208583
31
0.000181245332104973
  0
LINE
 8
Layer0
10
1534.63026149781
20
1609.54325208583
30
0.000181245332104973
11
1534.63026149781
21
1613.54325208583
31
0.000181245332104973
  0
LINE
 8
Layer0
10
1534.63026149781
20
1613.54325208583
30
0.000181245332104973
11
1571.63027955841
21
1613.54325208583
31
0.000181245332104973
  0
LINE
 8
Layer0
10
1416.63027863447
20
1613.54325208583
30
0.000181245332104973
11
1416.63027863447
21
1609.54325208583
31
0.000181245332104973
  0
LINE
 8
Layer0
10
1379.63031383174
20
1613.54325208583
30
0.000181245332104973
11
1416.63027863447
21
1613.54325208583
31
0.000181245332104973
  0
LINE
 8
Layer0
10
1459.71606143202
20
1639.46394472071
30
0.000268030072726511
11
1459.33017190419
21
1639.30410404469
31
0.000267866455823462
  0
LINE
 8
Layer0
10
1459.33017190419
20
1639.30410404469
30
0.000267866455823462
11
1458.99880105429
21
1639.04983424853
31
0.000267725155531684
  0
LINE
 8
Layer0
10
1458.58469058213
20
1638.33257387079
30
0.000267545845227524
11
1458.5301719042
21
1637.91846339862
31
0.000267520054919501
  0
LINE
 8
Layer0
10
1460.54428237634
20
1639.46394472072
30
0.000268378894487098
11
1460.13017190418
21
1639.51846339865
31
0.000268204856008758
  0
LINE
 8
Layer0
10
1458.5301719042
20
1637.91846339862
30
0.000267520054919501
11
1458.58469058213
21
1637.50435292646
31
0.000267540187861526
  0
LINE
 8
Layer0
10
1458.74453125814
20
1638.71846339863
30
0.000267615801230203
11
1458.58469058213
21
1638.33257387079
31
0.000267545845227524
  0
LINE
 8
Layer0
10
1458.99880105429
20
1639.04983424853
30
0.000267725155531684
11
1458.74453125814
21
1638.71846339863
31
0.000267615801230203
  0
LINE
 8
Layer0
10
1460.93017190417
20
1639.30410404472
30
0.000268540327726541
11
1460.54428237634
21
1639.46394472072
31
0.000268378894487098
  0
LINE
 8
Layer0
10
1492.73037391491
20
1606.91856990408
30
0.000281712399412104
11
1492.67585523697
21
1607.33268037623
31
0.000281692266470079
  0
LINE
 8
Layer0
10
1492.51601456096
20
1606.1185699041
30
0.000281616653101402
11
1492.67585523697
21
1606.50445943192
31
0.000281686609104081
  0
LINE
 8
Layer0
10
1492.26174476481
20
1605.78719905422
30
0.000281507298799921
11
1492.51601456096
21
1606.1185699041
31
0.000281616653101402
  0
LINE
 8
Layer0
10
1491.54448438707
20
1605.37308858208
30
0.000281202381605095
11
1491.93037391491
21
1605.53292925807
31
0.000281365998508143
  0
LINE
 8
Layer0
10
1460.93017316913
20
1636.53283236109
30
0.00026852139840261
11
1461.26154275405
21
1636.7871038058
31
0.000268662698169875
  0
LINE
 8
Layer0
10
1459.33017316917
20
1636.53282440114
30
0.000267847526448772
11
1459.7160634922
21
1636.37298564492
31
0.000268008960032251
  0
LINE
 8
Layer0
10
1492.26174476485
20
1608.04994075399
30
0.000281522755013652
11
1491.93037391494
21
1608.30421055015
31
0.000281384928429906
  0
LINE
 8
Layer0
10
1461.67564965786
20
1637.50436624372
30
0.000268842006990733
11
1461.73016627562
21
1637.9184769871
31
0.000268867796435845
  0
LINE
 8
Layer0
10
1491.93037391491
20
1605.53292925807
30
0.000281365998508143
11
1492.26174476481
21
1605.78719905422
31
0.000281507298799921
  0
LINE
 8
Layer0
10
1460.13017190418
20
1639.51846339865
30
0.000268204856008758
11
1459.71606143202
21
1639.46394472071
31
0.000268030072726511
  0
LINE
 8
Layer0
10
1489.999003065
20
1608.04994075404
30
0.00028056975623505
11
1489.74473326884
21
1607.71856990415
31
0.000280460401933569
  0
LINE
 8
Layer0
10
1459.7160634922
20
1636.37298564492
30
0.000268008960032251
11
1460.13017423558
21
1636.31846902717
31
0.000268182998640309
  0
LINE
 8
Layer0
10
1461.26154275405
20
1636.7871038058
30
0.000268662698169875
11
1461.51581090164
21
1637.11847592068
31
0.000268772051788924
  0
LINE
 8
Layer0
10
1461.6756455375
20
1638.33258718803
30
0.000268847662619631
11
1461.51580294172
21
1638.71847592066
31
0.000268782977630622
  0
LINE
 8
Layer0
10
1460.13017423558
20
1636.31846902717
30
0.000268182998640309
11
1460.54428443651
21
1636.3729897653
31
0.000268357781826678
  0
LINE
 8
Layer0
10
1489.58489259283
20
1607.33268037632
30
0.000280390445930889
11
1489.53037391489
21
1606.91856990416
31
0.000280364655622867
  0
LINE
 8
Layer0
10
1490.71626344275
20
1608.46405122618
30
0.000280874673429876
11
1490.33037391491
21
1608.30421055018
31
0.000280711056526828
  0
LINE
 8
Layer0
10
1492.67585523697
20
1607.33268037623
30
0.000281692266470079
11
1492.51601456096
21
1607.71856990406
31
0.00028162758229886
  0
LINE
 8
Layer0
10
1461.51581090164
20
1637.11847592068
30
0.000268772051788924
11
1461.67564965786
21
1637.50436624372
31
0.000268842006990733
  0
LINE
 8
Layer0
10
1461.51580294172
20
1638.71847592066
30
0.000268782977630622
11
1461.26154275407
21
1639.04983424857
31
0.000268678154310287
  0
LINE
 8
Layer0
10
1489.74473326884
20
1606.11856990416
30
0.000280449472736111
11
1489.999003065
21
1605.78719905426
31
0.000280554300021318
  0
LINE
 8
Layer0
10
1489.74473326884
20
1607.71856990415
30
0.000280460401933569
11
1489.58489259283
21
1607.33268037632
31
0.000280390445930889
  0
LINE
 8
Layer0
10
1492.67585523697
20
1606.50445943192
30
0.000281686609104081
11
1492.73037391491
21
1606.91856990408
31
0.000281712399412104
  0
LINE
 8
Layer0
10
1489.999003065
20
1605.78719905426
30
0.000280554300021318
11
1490.3303739149
21
1605.5329292581
31
0.000280692126605064
  0
LINE
 8
Layer0
10
1490.33037391491
20
1608.30421055018
30
0.000280711056526828
11
1489.999003065
21
1608.04994075404
31
0.00028056975623505
  0
LINE
 8
Layer0
10
1461.73016627562
20
1637.9184769871
30
0.000268867796435845
11
1461.6756455375
21
1638.33258718803
31
0.000268847662619631
  0
LINE
 8
Layer0
10
1489.58489259283
20
1606.504459432
30
0.000280384788564891
11
1489.74473326884
21
1606.11856990416
31
0.000280449472736111
  0
LINE
 8
Layer0
10
1491.13037391492
20
1608.51856990411
30
0.000281049456712124
11
1490.71626344275
21
1608.46405122618
31
0.000280874673429876
  0
LINE
 8
Layer0
10
1461.26154275407
20
1639.04983424857
30
0.000268678154310287
11
1460.93017190417
21
1639.30410404472
31
0.000268540327726541
  0
LINE
 8
Layer0
10
1491.93037391494
20
1608.30421055015
30
0.000281384928429906
11
1491.5444843871
21
1608.46405122616
31
0.000281223495190463
  0
LINE
 8
Layer0
10
1489.53037391489
20
1606.91856990416
30
0.000280364655622867
11
1489.58489259283
21
1606.504459432
31
0.000280384788564891
  0
LINE
 8
Layer0
10
1460.54428443651
20
1636.3729897653
30
0.000268357781826678
11
1460.93017316913
21
1636.53283236109
31
0.00026852139840261
  0
LINE
 8
Layer0
10
1459.71621642111
20
1605.37292807544
30
0.000267797270912418
11
1460.13032716435
21
1605.31841145769
31
0.000267971309514836
  0
LINE
 8
Layer0
10
1458.99894272644
20
1608.0497766781
30
0.000267513461668667
11
1458.74467457894
21
1607.71840456335
31
0.000267404108049618
  0
LINE
 8
Layer0
10
1460.9303123105
20
1608.30405608348
30
0.000268328633389769
11
1460.54442198747
21
1608.46389483972
31
0.000268167199806291
  0
LINE
 8
Layer0
10
1461.67579846586
20
1607.33252961832
30
0.000268635973499798
11
1461.51595587008
21
1607.71841835096
31
0.000268571288510788
  0
LINE
 8
Layer0
10
1460.13031124409
20
1608.51841145748
30
0.000267993161198232
11
1459.71620104317
21
1608.46389071938
31
0.000267818378017504
  0
LINE
 8
Layer0
10
1634.38028465982
20
1605.2934074719
30
0.000297640181598346
11
1604.38028465983
21
1605.29340793728
31
0.000323515193303781
  0
LINE
 8
Layer0
10
1460.93032609761
20
1605.5327747915
30
0.000268309709277137
11
1461.26169568241
21
1605.78704623611
31
0.000268451009050041
  0
LINE
 8
Layer0
10
1491.13037391491
20
1605.31856990415
30
0.000281027598322847
11
1491.54448438707
21
1605.37308858208
31
0.000281202381605095
  0
LINE
 8
Layer0
10
1459.33032609822
20
1605.53276683162
30
0.000267635837328939
11
1459.71621642111
21
1605.37292807544
31
0.000267797270912418
  0
LINE
 8
Layer0
10
1458.53031920503
20
1606.91840349723
30
0.000267308363408336
11
1458.58483994313
21
1606.50429329644
31
0.00026732849721891
  0
LINE
 8
Layer0
10
1634.38028465982
20
1605.2934074719
30
0.000297640181598346
11
1634.38028100159
21
1387.79337256205
31
0.000332607466772217
  0
LINE
 8
Layer0
10
1584.38027980469
20
1337.79338423037
30
0.000236810707050239
11
1584.38028030925
21
1367.79337311468
31
0.000352003122852373
  0
LINE
 8
Layer0
10
1460.54442198747
20
1608.46389483972
30
0.000268167199806291
11
1460.13031124409
21
1608.51841145748
31
0.000267993161198232
  0
LINE
 8
Layer0
10
1584.38028030925
20
1367.79337311468
30
0.000352003122852373
11
1604.38028100161
21
1387.79337289363
31
0.000342182750642106
  0
LINE
 8
Layer0
10
1491.5444843871
20
1608.46405122616
30
0.000281223495190463
11
1491.13037391492
21
1608.51856990411
31
0.000281049456712124
  0
LINE
 8
Layer0
10
1461.26168442537
20
1608.04978793588
30
0.000268466460520589
11
1460.9303123105
21
1608.30405608348
31
0.000268328633389769
  0
LINE
 8
Layer0
10
1461.26169568241
20
1605.78704623611
30
0.000268451009050041
11
1461.51596383
21
1606.11841835098
31
0.00026856036266909
  0
LINE
 8
Layer0
10
1458.74468253886
20
1606.11840456394
30
0.00026739318220792
11
1458.99895398347
21
1605.78703497914
31
0.00026749801019248
  0
LINE
 8
Layer0
10
1490.71626344274
20
1605.37308858209
30
0.000280853559844507
11
1491.13037391491
21
1605.31856990415
31
0.000281027598322847
  0
LINE
 8
Layer0
10
1461.51595587008
20
1607.71841835096
30
0.000268571288510788
11
1461.26168442537
21
1608.04978793588
31
0.000268466460520589
  0
LINE
 8
Layer0
10
1459.33031231054
20
1608.3040481236
30
0.000267654761441571
11
1458.99894272644
21
1608.0497766781
31
0.000267513461668667
  0
LINE
 8
Layer0
10
1492.51601456096
20
1607.71856990406
30
0.00028162758229886
11
1492.26174476485
21
1608.04994075399
31
0.000281522755013652
  0
LINE
 8
Layer0
10
1604.38028100161
20
1387.79337289363
30
0.000342182750642106
11
1634.38028100159
21
1387.79337256205
31
0.000332607466772217
  0
LINE
 8
Layer0
10
1604.38028465983
20
1605.29340793728
30
0.000323515193303781
11
1584.38028465984
21
1625.29340840265
31
0.000359701926036227
  0
LINE
 8
Layer0
10
1458.74467457894
20
1607.71840456335
30
0.000267404108049618
11
1458.58483582277
21
1607.33251424046
31
0.000267334152853449
  0
LINE
 8
Layer0
10
1460.13032716435
20
1605.31841145769
30
0.000267971309514836
11
1460.54443736512
21
1605.37293219578
31
0.000268146092701205
  0
LINE
 8
Layer0
10
1458.58483994313
20
1606.50429329644
30
0.00026732849721891
11
1458.74468253886
21
1606.11840456394
31
0.00026739318220792
  0
LINE
 8
Layer0
10
1460.54443736512
20
1605.37293219578
30
0.000268146092701205
11
1460.93032609761
21
1605.5327747915
31
0.000268309709277137
  0
LINE
 8
Layer0
10
1490.3303739149
20
1605.5329292581
30
0.000280692126605064
11
1490.71626344274
21
1605.37308858209
31
0.000280853559844507
  0
LINE
 8
Layer0
10
1458.99895398347
20
1605.78703497914
30
0.00026749801019248
11
1459.33032609822
21
1605.53276683162
31
0.000267635837328939
  0
LINE
 8
Layer0
10
1459.71620104317
20
1608.46389071938
30
0.000267818378017504
11
1459.33031231054
21
1608.3040481236
31
0.000267654761441571
  0
LINE
 8
Layer0
10
1458.58483582277
20
1607.33251424046
30
0.000267334152853449
11
1458.53031920503
21
1606.91840349723
31
0.000267308363408336
  0
LINE
 8
Layer0
10
1366.88023925611
20
1655.29340482098
30
0.000311824812326433
11
1366.88023964975
21
1625.29340482099
31
0.000287099140237101
  0
LINE
 8
Layer0
10
1469.38034002335
20
1611.59318959718
30
0.000271909998267317
11
1466.79151817356
21
1613.5796624696
31
0.000270833233421408
  0
LINE
 8
Layer0
10
1469.38034002335
20
1633.2437166823
30
0.00027205788752358
11
1472.39508691969
21
1634.49246573389
31
0.000273336138173796
  0
LINE
 8
Layer0
10
1487.70432143784
20
1625.65367506374
30
0.000279723551967193
11
1486.45557238626
21
1628.66842196009
31
0.000279218209376975
  0
LINE
 8
Layer0
10
1475.6303088437
20
1634.91839078043
30
0.000274701625773055
11
1478.8655307677
21
1634.49246573389
31
0.000276061294597074
  0
LINE
 8
Layer0
10
1484.46909951384
20
1631.25724380988
30
0.000278399250311168
11
1486.45557238626
21
1628.66842196009
31
0.000279218209376975
  0
LINE
 8
Layer0
10
1463.55629624955
20
1619.18323121574
30
0.000269508931765383
11
1464.80504530114
21
1616.1684843194
31
0.000270014274355601
  0
LINE
 8
Layer0
10
1475.6303088437
20
1634.91839078043
30
0.000274701625773055
11
1472.39508691969
21
1634.49246573389
31
0.000273336138173796
  0
LINE
 8
Layer0
10
1487.70432143784
20
1619.18323121574
30
0.000279679354000839
11
1486.45557238625
21
1616.16848431939
31
0.000279132825473027
  0
LINE
 8
Layer0
10
1463.13037120301
20
1622.41845313975
30
0.000269351643921789
11
1463.55629624955
21
1619.18323121574
31
0.000269508931765383
  0
LINE
 8
Layer0
10
1486.45557238625
20
1616.16848431939
30
0.000279132825473027
11
1484.46909951384
21
1613.5796624696
31
0.000278278499233586
  0
LINE
 8
Layer0
10
1466.79151817356
20
1631.25724380989
30
0.000270953984498989
11
1469.38034002335
21
1633.2437166823
31
0.00027205788752358
  0
LINE
 8
Layer0
10
1481.88027766404
20
1611.59318959718
30
0.000277174596208996
11
1484.46909951384
21
1613.5796624696
31
0.000278278499233586
  0
LINE
 8
Layer0
10
1584.38028512523
20
1655.29340840265
30
0.00037199004013182
11
1584.38028465984
21
1625.29340840265
31
0.000359701926036227
  0
LINE
 8
Layer0
10
1475.6303088437
20
1609.91851549905
30
0.000274530857959521
11
1478.8655307677
21
1610.3444405456
31
0.000275896345558779
  0
LINE
 8
Layer0
10
1366.88025805809
20
1367.79337551867
30
0.000272266707400837
11
1366.8802580581
21
1337.79338663436
31
0.000213228624597672
  0
LINE
 8
Layer0
10
1366.88023925611
20
1655.29340482098
30
0.000311824812326433
11
1584.38028512523
21
1655.29340840265
31
0.00037199004013182
  0
LINE
 8
Layer0
10
1463.55629624955
20
1625.65367506375
30
0.000269553129731737
11
1464.80504530114
21
1628.66842196009
31
0.000270099658259548
  0
LINE
 8
Layer0
10
1478.8655307677
20
1610.3444405456
30
0.000275896345558779
11
1481.88027766404
21
1611.59318959718
31
0.000277174596208996
  0
LINE
 8
Layer0
10
1316.88025657971
20
1387.79337607127
30
0.000267748002623769
11
1316.88024050233
21
1605.29340407228
31
0.000190686232451753
  0
LINE
 8
Layer0
10
1469.38034002335
20
1611.59318959718
30
0.000271909998267317
11
1472.39508691969
21
1610.3444405456
31
0.000273171189135502
  0
LINE
 8
Layer0
10
1466.79151817356
20
1631.25724380989
30
0.000270953984498989
11
1464.80504530114
21
1628.66842196009
31
0.000270099658259548
  0
LINE
 8
Layer0
10
1316.88025657971
20
1387.79337607127
30
0.000267748002623769
11
1346.88025669455
21
1387.79337607129
31
0.000220797540593454
  0
LINE
 8
Layer0
10
1346.88025669455
20
1387.79337607129
30
0.000220797540593454
11
1366.88025805809
21
1367.79337551867
31
0.000272266707400837
  0
LINE
 8
Layer0
10
1316.88024050233
20
1605.29340407228
30
0.000190686232451753
11
1346.88024050238
21
1605.29338027958
31
0.0
  0
LINE
 8
Layer0
10
1472.39508691969
20
1610.3444405456
30
0.000273171189135502
11
1475.6303088437
21
1609.91851549905
31
0.000274530857959521
  0
LINE
 8
Layer0
10
1463.55629624955
20
1625.65367506375
30
0.000269553129731737
11
1463.13037120301
21
1622.41845313975
31
0.000269351643921789
  0
LINE
 8
Layer0
10
1346.88024050238
20
1605.29338027958
30
0.0
11
1366.88023964975
21
1625.29340482099
31
0.000287099140237101
  0
LINE
 8
Layer0
10
1481.88027766404
20
1633.2437166823
30
0.000277322485470899
11
1484.46909951384
21
1631.25724380988
31
0.000278399250311168
  0
LINE
 8
Layer0
10
1488.13024648439
20
1622.41845313974
30
0.000279880839810787
11
1487.70432143784
21
1619.18323121574
31
0.000279679354000839
  0
LINE
 8
Layer0
10
1584.38027980469
20
1337.79338423037
30
0.000236810707050239
11
1366.8802580581
21
1337.79338663436
31
0.000213228624597672
  0
LINE
 8
Layer0
10
1464.80504530114
20
1616.1684843194
30
0.000270014274355601
11
1466.79151817356
21
1613.5796624696
31
0.000270833233421408
  0
LINE
 8
Layer0
10
1489.74457450759
20
1637.11860522242
30
0.000280661159255935
11
1489.9988459588
21
1636.78723564297
31
0.000280765987246134
  0
LINE
 8
Layer0
10
1491.93021807712
20
1636.53297549473
30
0.000281577686330792
11
1492.26158765658
21
1636.78724694594
31
0.000281718986098056
  0
LINE
 8
Layer0
10
1492.51584784394
20
1638.71861905828
30
0.000281839265553163
11
1492.26157639956
21
1639.04998864276
31
0.000281734437568604
  0
LINE
 8
Layer0
10
1458.58469058213
20
1637.50435292646
30
0.000267540187861526
11
1458.74453125814
21
1637.11846339863
31
0.000267604872032745
  0
LINE
 8
Layer0
10
1490.33020428718
20
1639.30424883009
30
0.000280922738483946
11
1489.99883465586
21
1639.0499773407
31
0.000280781438699762
  0
LINE
 8
Layer0
10
1487.70432143784
20
1625.65367506374
30
0.000279723551967193
11
1488.13024648439
21
1622.41845313974
31
0.000279880839810787
  0
LINE
 8
Layer0
10
1489.58473190411
20
1637.50449395146
30
0.000280596474261285
11
1489.74457450759
21
1637.11860522242
31
0.000280661159255935
  0
LINE
 8
Layer0
10
1491.54431396257
20
1639.46409554604
30
0.000281435176854306
11
1491.13020321972
21
1639.51861216373
31
0.000281261138246247
  0
LINE
 8
Layer0
10
1492.51585580386
20
1637.11861906038
30
0.000281828339711465
11
1492.67569455988
21
1637.50450938291
31
0.000281898294913274
  0
LINE
 8
Layer0
10
1492.67569455988
20
1637.50450938291
30
0.000281898294913274
11
1492.73021117757
21
1637.91862012576
31
0.000281924084358387
  0
LINE
 8
Layer0
10
1491.13020321972
20
1639.51861216373
30
0.000281261138246247
11
1490.71609301931
21
1639.46409142568
31
0.000281086355065518
  0
LINE
 8
Layer0
10
1458.74453125814
20
1637.11846339863
30
0.000267604872032745
11
1458.9988010543
21
1636.78709254873
31
0.000267709699317953
  0
LINE
 8
Layer0
10
1492.67569043952
20
1638.33273032615
30
0.000281903950542173
11
1492.51584784394
21
1638.71861905828
31
0.000281839265553163
  0
LINE
 8
Layer0
10
1491.93020428511
20
1639.30425679003
30
0.000281596610437784
11
1491.54431396257
21
1639.46409554604
31
0.000281435176854306
  0
LINE
 8
Layer0
10
1492.26157639956
20
1639.04998864276
30
0.000281734437568604
11
1491.93020428511
21
1639.30425679003
31
0.000281596610437784
  0
LINE
 8
Layer0
10
1458.9988010543
20
1636.78709254873
30
0.000267709699317953
11
1459.33017316917
21
1636.53282440114
31
0.000267847526448772
  0
LINE
 8
Layer0
10
1478.8655307677
20
1634.49246573389
30
0.000276061294597074
11
1481.88027766404
21
1633.2437166823
31
0.000277322485470899
  0
LINE
 8
Layer0
10
1490.71609301931
20
1639.46409142568
30
0.000281086355065518
11
1490.33020428718
21
1639.30424883009
31
0.000280922738483946
  0
LINE
 8
Layer0
10
1491.54432934807
20
1636.37313289125
30
0.00028141406975486
11
1491.93021807712
21
1636.53297549473
31
0.000281577686330792
  0
LINE
 8
Layer0
10
1489.99883465586
20
1639.0499773407
30
0.000280781438699762
11
1489.7445665152
21
1638.71860522097
31
0.000280672085080713
  0
LINE
 8
Layer0
10
1490.33021807854
20
1636.53296750233
30
0.000280903814376954
11
1490.71610840448
21
1636.37312875408
31
0.000281065247966072
  0
LINE
 8
Layer0
10
1489.7445665152
20
1638.71860522097
30
0.000280672085080713
11
1489.58472776695
21
1638.33271489504
31
0.000280602129890184
  0
LINE
 8
Layer0
10
1491.1302191486
20
1636.31861214478
30
0.000281239286568491
11
1491.54432934807
21
1636.37313289125
31
0.00028141406975486
  0
LINE
 8
Layer0
10
1489.9988459588
20
1636.78723564297
30
0.000280765987246134
11
1490.33021807854
21
1636.53296750233
31
0.000280903814376954
  0
LINE
 8
Layer0
10
1489.53021115764
20
1637.91860415092
30
0.000280576340445071
11
1489.58473190411
21
1637.50449395146
31
0.000280596474261285
  0
LINE
 8
Layer0
10
1489.58472776695
20
1638.33271489504
30
0.000280602129890184
11
1489.53021115764
21
1637.91860415092
31
0.000280576340445071
  0
LINE
 8
Layer0
10
1492.73021117757
20
1637.91862012576
30
0.000281924084358387
11
1492.67569043952
21
1638.33273032615
31
0.000281903950542173
  0
LINE
 8
Layer0
10
1490.71610840448
20
1636.37312875408
30
0.000281065247966072
11
1491.1302191486
21
1636.31861214478
31
0.000281239286568491
  0
LINE
 8
Layer0
10
1492.26158765658
20
1636.78724694594
30
0.000281718986098056
11
1492.51585580386
21
1637.11861906038
31
0.000281828339711465
 0
ENDSEC
 0
EOF
