 0
SECTION
 2
ENTITIES
  0
LINE
 8
GROUP0
10
1395.37731207814
20
1026.4453627844
30
1.9953592742894e-005
11
1393.30624477717
21
1028.03454967619
31
1.87281030338937e-005
  0
LINE
 8
GROUP0
10
1410.37731486225
20
1035.10561200001
30
2.76133771221154e-005
11
1420.37731486225
21
1035.10560878519
31
3.31048492970609e-005
  0
LINE
 8
GROUP0
10
1407.44838494734
20
1042.17668075348
30
2.55894717016147e-005
11
1409.03757050751
21
1040.10561243072
31
2.65811658628934e-005
  0
LINE
 8
GROUP0
10
1397.78912130595
20
1025.446357784
30
2.13293629325761e-005
11
1395.37731207814
21
1026.4453627844
31
1.9953592742894e-005
  0
LINE
 8
GROUP0
10
1407.4483804009
20
1028.03454512975
30
2.64420575931013e-005
11
1405.37731207814
21
1026.44535956958
31
2.54081824408559e-005
  0
LINE
 8
GROUP0
10
1400.37731164744
20
1025.10561521483
30
2.2761656575554e-005
11
1400.37730843262
21
1015.10561521483
31
2.34014088130507e-005
  0
LINE
 8
GROUP0
10
1390.37731486226
20
1035.10561842965
30
1.67041980645877e-005
11
1380.37731486226
21
1035.10562164447
31
1.12864911143262e-005
  0
LINE
 8
GROUP0
10
1402.96550841856
20
1044.76487264567
30
2.29882113066182e-005
11
1405.37731764637
21
1043.76586764527
31
2.43639821730923e-005
  0
LINE
 8
GROUP0
10
1410.0365739572
20
1037.69380256058
30
2.72714829419485e-005
11
1410.37731486225
21
1035.10561200001
31
2.76133771221154e-005
  0
LINE
 8
GROUP0
10
1400.37731164744
20
1025.10561521483
30
2.2761656575554e-005
11
1397.78912130595
21
1025.446357784
31
2.13293629325761e-005
  0
LINE
 8
GROUP0
10
1390.71805576731
20
1032.51742786908
30
1.70460925154714e-005
11
1390.37731486226
21
1035.10561842965
31
1.67041980645877e-005
  0
LINE
 8
GROUP0
10
1393.30624477717
20
1028.03454967619
30
1.87281030338937e-005
11
1391.717059217
21
1030.10561799895
31
1.77364085342191e-005
  0
LINE
 8
GROUP0
10
1402.965502208
20
1025.44635611988
30
2.41528658561307e-005
11
1400.37731164744
21
1025.10561521483
31
2.2761656575554e-005
  0
LINE
 8
GROUP0
10
1500.37730874327
20
1005.10562537234
30
2.85058652686132e-005
11
1375.37730330679
21
1180.10562148913
31
6.47637400703616e-006
  0
LINE
 8
GROUP0
10
1391.71706243182
20
1040.10561799895
30
1.71335392474603e-005
11
1393.30624932361
21
1042.17668529992
31
1.78755173228851e-005
  0
LINE
 8
GROUP0
10
1375.37730951991
20
980.10562148914
30
2.55884012197782e-005
11
1375.3773078113
21
1035.10562148914
31
2.19928107844325e-005
  0
LINE
 8
GROUP0
10
1375.37730330679
20
1180.10562148913
30
6.47637400703616e-006
11
1350.37730330679
21
1180.10562071249
31
8.35742089559943e-006
  0
LINE
 8
GROUP0
10
1390.37731486226
20
1035.10561842965
30
1.67041980645877e-005
11
1390.71805743142
21
1037.69380877113
31
1.67340241281622e-005
  0
LINE
 8
GROUP0
10
1400.37731807708
20
1045.10561521483
30
2.15559187465075e-005
11
1402.96550841856
21
1044.76487264567
31
2.29882113066182e-005
  0
LINE
 8
GROUP0
10
1409.03757050751
20
1040.10561243072
30
2.65811658628934e-005
11
1410.0365739572
21
1037.69380256058
31
2.72714829419485e-005
  0
LINE
 8
GROUP0
10
1500.37730874327
20
1005.10562537234
30
2.85058652686132e-005
11
1500.37730951991
21
980.105625372342
31
3.02632791640889e-005
  0
LINE
 8
GROUP0
10
1405.37731207814
20
1026.44535956958
30
2.54081824408559e-005
11
1402.965502208
21
1025.44635611988
31
2.41528658561307e-005
  0
LINE
 8
GROUP0
10
1391.717059217
20
1030.10561799895
30
1.77364085342191e-005
11
1390.71805576731
21
1032.51742786908
31
1.70460925154714e-005
  0
LINE
 8
GROUP0
10
1405.37731764637
20
1043.76586764527
30
2.43639821730923e-005
11
1407.44838494734
21
1042.17668075348
31
2.55894717016147e-005
  0
LINE
 8
GROUP0
10
1410.03657229309
20
1032.51742165853
30
2.75835508329436e-005
11
1409.03756729269
21
1030.10561243072
31
2.71840349466146e-005
  0
LINE
 8
GROUP0
10
1390.71805743142
20
1037.69380877113
30
1.67340241281622e-005
11
1391.71706243182
21
1040.10561799895
31
1.71335392474603e-005
  0
LINE
 8
GROUP0
10
1350.37730330679
20
1180.10562071249
30
8.35742089559943e-006
11
1350.3773078113
21
1035.1056207125
31
2.08175160953061e-005
  0
LINE
 8
GROUP0
10
1393.30624932361
20
1042.17668529992
30
1.78755173228851e-005
11
1395.37731764637
21
1043.76587086008
31
1.89093921592942e-005
  0
LINE
 8
GROUP0
10
1409.03756729269
20
1030.10561243072
30
2.71840349466146e-005
11
1407.4483804009
21
1028.03454512975
31
2.64420575931013e-005
  0
LINE
 8
GROUP0
10
1375.37730951991
20
980.10562148914
30
2.55884012197782e-005
11
1500.37730951991
21
980.105625372342
31
3.02632791640889e-005
  0
LINE
 8
GROUP0
10
1375.3773078113
20
1035.10562148914
30
2.19928107844325e-005
11
1350.3773078113
21
1035.1056207125
31
2.08175160953061e-005
  0
LINE
 8
GROUP0
10
1397.78912751651
20
1044.76487430978
30
2.0164709104975e-005
11
1400.37731807708
21
1045.10561521483
31
2.15559187465075e-005
  0
LINE
 8
GROUP0
10
1395.37731764637
20
1043.76587086008
30
1.89093921592942e-005
11
1397.78912751651
21
1044.76487430978
31
2.0164709104975e-005
  0
LINE
 8
GROUP0
10
1410.37731486225
20
1035.10561200001
30
2.76133771221154e-005
11
1410.03657229309
21
1032.51742165853
31
2.75835508329436e-005
  0
LINE
 8
GROUP0
10
1400.37731807708
20
1045.10561521483
30
2.15559187465075e-005
11
1400.3773212919
21
1055.10561521483
31
2.09899323653673e-005
 0
ENDSEC
 0
EOF
