 0
SECTION
 2
ENTITIES
  0
POLYLINE
 8
Layer0
 66
     1
70
    8
 10
0.0
 20
 0.0
 30
0.0
  0
VERTEX
  8
MY3DLAYER
10
3582.10225489254
20
3962.30600343744
30
1.55984573524393e-007
 70
     32
  0
VERTEX
  8
MY3DLAYER
10
3581.7615147705
20
3959.71781277378
30
0.0
 70
     32
  0
VERTEX
  8
MY3DLAYER
10
3581.76168949545
20
3679.71781277384
30
8.11699152336587e-011
 70
     32
  0
VERTEX
  8
MY3DLAYER
10
3582.10243284763
20
3677.12962253545
30
1.56067232381929e-007
 70
     32
  0
VERTEX
  8
MY3DLAYER
10
3583.1014385777
20
3674.71781360987
30
6.13390175630002e-007
 70
     32
  0
VERTEX
  8
MY3DLAYER
10
3584.69062609606
20
3672.64674678969
30
1.34088666285948e-006
 70
     32
  0
VERTEX
  8
MY3DLAYER
10
3586.7616948996
20
3671.05756185609
30
2.28897423859564e-006
 70
     32
  0
VERTEX
  8
MY3DLAYER
10
3589.17350507197
20
3670.05855913605
30
3.39305035836901e-006
 70
     32
  0
VERTEX
  8
MY3DLAYER
10
3591.76169573562
20
3669.71781901402
30
4.57786757799283e-006
 70
     32
  0
VERTEX
  8
MY3DLAYER
10
3594.34988597402
20
3670.0585623662
30
5.76268353427167e-006
 70
     32
  0
VERTEX
  8
MY3DLAYER
10
3596.7616948996
20
3671.05756809627
30
6.86676001500075e-006
 70
     32
  0
VERTEX
  8
MY3DLAYER
10
3598.83276171979
20
3672.64675561462
30
7.81484799681209e-006
 70
     32
  0
VERTEX
  8
MY3DLAYER
10
3600.42194665338
20
3674.71782441817
30
8.54234128055964e-006
 70
     32
  0
VERTEX
  8
MY3DLAYER
10
3601.42094937341
20
3677.12963459055
30
8.99966521643591e-006
 70
     32
  0
VERTEX
  8
MY3DLAYER
10
3601.76168949544
20
3679.71782525419
30
9.15564771446498e-006
 70
     32
  0
VERTEX
  8
MY3DLAYER
10
3601.7615147705
20
3959.71782525414
30
9.15556505560744e-006
 70
     32
  0
VERTEX
  8
MY3DLAYER
10
3601.42077141832
20
3962.30601549253
30
8.9995796699327e-006
 70
     32
  0
VERTEX
  8
MY3DLAYER
10
3600.42176568826
20
3964.71782441812
30
8.54225744859605e-006
 70
     32
  0
VERTEX
  8
MY3DLAYER
10
3598.8325781699
20
3966.7888912383
30
7.81476308198137e-006
 70
     32
  0
VERTEX
  8
MY3DLAYER
10
3596.76150936635
20
3968.37807617189
30
6.86666982119277e-006
 70
     32
  0
VERTEX
  8
MY3DLAYER
10
3594.34969919398
20
3969.37707889193
30
5.76259785241007e-006
 70
     32
  0
VERTEX
  8
MY3DLAYER
10
3591.76150853033
20
3969.71781901397
30
4.5777808132641e-006
 70
     32
  0
VERTEX
  8
MY3DLAYER
10
3589.17331829193
20
3969.37707566177
30
3.39296165350333e-006
 70
     32
  0
VERTEX
  8
MY3DLAYER
10
3586.76150936635
20
3968.37806993172
30
2.2888886018535e-006
 70
     32
  0
VERTEX
  8
MY3DLAYER
10
3584.69044254617
20
3966.78888241336
30
1.34079809335219e-006
 70
     32
  0
VERTEX
  8
MY3DLAYER
10
3583.10125761258
20
3964.71781360981
30
6.13305305918743e-007
 70
     32
  0
VERTEX
  8
MY3DLAYER
10
3582.10225489254
20
3962.30600343744
30
1.55984573524393e-007
 70
     32
  0
SEQEND
  0
POLYLINE
 8
Layer0
 66
     1
70
    8
 10
0.0
 20
 0.0
 30
0.0
  0
VERTEX
  8
MY3DLAYER
10
3589.82983816589
20
3679.20017971831
30
3.69350596578499e-006
 70
     32
  0
VERTEX
  8
MY3DLAYER
10
3589.76168949545
20
3679.71781776598
30
3.66230829307312e-006
 70
     32
  0
VERTEX
  8
MY3DLAYER
10
3589.82983751986
20
3680.23545589872
30
3.69350601090446e-006
 70
     32
  0
VERTEX
  8
MY3DLAYER
10
3590.02963806387
20
3680.71781793319
30
3.7849695708303e-006
 70
     32
  0
VERTEX
  8
MY3DLAYER
10
3590.34747505058
20
3681.1320316939
30
3.93046851634438e-006
 70
     32
  0
VERTEX
  8
MY3DLAYER
10
3590.76168841462
20
3681.44986919757
30
4.12008685266585e-006
 70
     32
  0
VERTEX
  8
MY3DLAYER
10
3591.24405019974
20
3681.64967034358
30
4.34090096668172e-006
 70
     32
  0
VERTEX
  8
MY3DLAYER
10
3591.76168824742
20
3681.71781901402
30
4.57786437451091e-006
 70
     32
  0
VERTEX
  8
MY3DLAYER
10
3592.27932638015
20
3681.64967098961
30
4.81482913592401e-006
 70
     32
  0
VERTEX
  8
MY3DLAYER
10
3592.76168841462
20
3681.4498704456
30
5.03564261826739e-006
 70
     32
  0
VERTEX
  8
MY3DLAYER
10
3593.17590217533
20
3681.13203345889
30
5.22526131554457e-006
 70
     32
  0
VERTEX
  8
MY3DLAYER
10
3593.493739679
20
3680.71782009485
30
5.37075886235527e-006
 70
     32
  0
VERTEX
  8
MY3DLAYER
10
3593.69354082501
20
3680.23545830973
30
5.46222481361269e-006
 70
     32
  0
VERTEX
  8
MY3DLAYER
10
3593.76168949545
20
3679.71782026205
30
5.49342054618762e-006
 70
     32
  0
VERTEX
  8
MY3DLAYER
10
3593.69354147104
20
3679.20018212933
30
5.46222512944894e-006
 70
     32
  0
VERTEX
  8
MY3DLAYER
10
3593.49374092703
20
3678.71782009485
30
5.37075985498348e-006
 70
     32
  0
VERTEX
  8
MY3DLAYER
10
3593.17590394032
20
3678.30360633414
30
5.22526095458886e-006
 70
     32
  0
VERTEX
  8
MY3DLAYER
10
3592.76169057628
20
3677.98576883046
30
5.03564311458149e-006
 70
     32
  0
VERTEX
  8
MY3DLAYER
10
3592.27932879117
20
3677.78596768445
30
4.81482882008777e-006
 70
     32
  0
VERTEX
  8
MY3DLAYER
10
3591.76169074348
20
3677.71781901402
30
4.57786559273643e-006
 70
     32
  0
VERTEX
  8
MY3DLAYER
10
3591.24405261076
20
3677.78596703843
30
4.34090213978777e-006
 70
     32
  0
VERTEX
  8
MY3DLAYER
10
3590.76169057628
20
3677.98576758243
30
4.12008613075443e-006
 70
     32
  0
VERTEX
  8
MY3DLAYER
10
3590.34747681557
20
3678.30360456915
30
3.9304686065833e-006
 70
     32
  0
VERTEX
  8
MY3DLAYER
10
3590.0296393119
20
3678.71781793319
30
3.78496966106923e-006
 70
     32
  0
VERTEX
  8
MY3DLAYER
10
3589.82983816589
20
3679.20017971831
30
3.69350596578499e-006
 70
     32
  0
SEQEND
  0
POLYLINE
 8
Layer0
 66
     1
70
    8
 10
0.0
 20
 0.0
 30
0.0
  0
VERTEX
  8
MY3DLAYER
10
3589.8297539235
20
3814.20017971828
30
3.6934645461173e-006
 70
     32
  0
VERTEX
  8
MY3DLAYER
10
3589.76160525306
20
3814.71781776596
30
3.66226786603363e-006
 70
     32
  0
VERTEX
  8
MY3DLAYER
10
3589.82975327747
20
3815.23545589869
30
3.69346432051998e-006
 70
     32
  0
VERTEX
  8
MY3DLAYER
10
3590.02955382148
20
3815.71781793316
30
3.78492968522437e-006
 70
     32
  0
VERTEX
  8
MY3DLAYER
10
3590.3473908082
20
3816.13203169387
30
3.93042858561898e-006
 70
     32
  0
VERTEX
  8
MY3DLAYER
10
3590.76160417223
20
3816.44986919754
30
4.1200462451485e-006
 70
     32
  0
VERTEX
  8
MY3DLAYER
10
3591.24396595735
20
3816.64967034356
30
4.34086220906238e-006
 70
     32
  0
VERTEX
  8
MY3DLAYER
10
3591.76160400503
20
3816.71781901399
30
4.57782439866605e-006
 70
     32
  0
VERTEX
  8
MY3DLAYER
10
3592.27924213776
20
3816.64967098959
30
4.814787490659e-006
 70
     32
  0
VERTEX
  8
MY3DLAYER
10
3592.76160417223
20
3816.44987044558
30
5.03560286801985e-006
 70
     32
  0
VERTEX
  8
MY3DLAYER
10
3593.17581793295
20
3816.13203345886
30
5.22522201649167e-006
 70
     32
  0
VERTEX
  8
MY3DLAYER
10
3593.49365543661
20
3815.71782009482
30
5.37071893162988e-006
 70
     32
  0
VERTEX
  8
MY3DLAYER
10
3593.69345658263
20
3815.23545830971
30
5.46218470240944e-006
 70
     32
  0
VERTEX
  8
MY3DLAYER
10
3593.76160525306
20
3814.71782026202
30
5.4933815178515e-006
 70
     32
  0
VERTEX
  8
MY3DLAYER
10
3593.69345722865
20
3814.2001821293
30
5.46218483776784e-006
 70
     32
  0
VERTEX
  8
MY3DLAYER
10
3593.49365668465
20
3813.71782009482
30
5.37072037545272e-006
 70
     32
  0
VERTEX
  8
MY3DLAYER
10
3593.17581969793
20
3813.30360633412
30
5.22522251280577e-006
 70
     32
  0
VERTEX
  8
MY3DLAYER
10
3592.7616063339
20
3812.98576883044
30
5.03560593614338e-006
 70
     32
  0
VERTEX
  8
MY3DLAYER
10
3592.27924454878
20
3812.78596768443
30
4.81479024294629e-006
 70
     32
  0
VERTEX
  8
MY3DLAYER
10
3591.7616065011
20
3812.71781901399
30
4.57782710583388e-006
 70
     32
  0
VERTEX
  8
MY3DLAYER
10
3591.24396836837
20
3812.7859670384
30
4.34086338216844e-006
 70
     32
  0
VERTEX
  8
MY3DLAYER
10
3590.7616063339
20
3812.98576758241
30
4.12004759873241e-006
 70
     32
  0
VERTEX
  8
MY3DLAYER
10
3590.34739257318
20
3813.30360456912
30
3.93042714179614e-006
 70
     32
  0
VERTEX
  8
MY3DLAYER
10
3590.02955506951
20
3813.71781793316
30
3.78493063273311e-006
 70
     32
  0
VERTEX
  8
MY3DLAYER
10
3589.8297539235
20
3814.20017971828
30
3.6934645461173e-006
 70
     32
  0
SEQEND
  0
POLYLINE
 8
Layer0
 66
     1
70
    8
 10
0.0
 20
 0.0
 30
0.0
  0
VERTEX
  8
MY3DLAYER
10
3589.82966344094
20
3959.20017971826
30
3.69342407395834e-006
 70
     32
  0
VERTEX
  8
MY3DLAYER
10
3589.7615147705
20
3959.71781776594
30
3.66222816090556e-006
 70
     32
  0
VERTEX
  8
MY3DLAYER
10
3589.82966279491
20
3960.23545589866
30
3.69342235941872e-006
 70
     32
  0
VERTEX
  8
MY3DLAYER
10
3590.02946333892
20
3960.71781793314
30
3.78488894234863e-006
 70
     32
  0
VERTEX
  8
MY3DLAYER
10
3590.34730032564
20
3961.13203169384
30
3.93038454902239e-006
 70
     32
  0
VERTEX
  8
MY3DLAYER
10
3590.76151368967
20
3961.44986919751
30
4.12000306582172e-006
 70
     32
  0
VERTEX
  8
MY3DLAYER
10
3591.24387547479
20
3961.64967034353
30
4.34082038331951e-006
 70
     32
  0
VERTEX
  8
MY3DLAYER
10
3591.76151352247
20
3961.71781901397
30
4.57778270828157e-006
 70
     32
  0
VERTEX
  8
MY3DLAYER
10
3592.2791516552
20
3961.64967098956
30
4.81474530396042e-006
 70
     32
  0
VERTEX
  8
MY3DLAYER
10
3592.76151368967
20
3961.44987044555
30
5.0355612678743e-006
 70
     32
  0
VERTEX
  8
MY3DLAYER
10
3593.17572745038
20
3961.13203345884
30
5.22518005539041e-006
 70
     32
  0
VERTEX
  8
MY3DLAYER
10
3593.49356495405
20
3960.71782009479
30
5.37067742172326e-006
 70
     32
  0
VERTEX
  8
MY3DLAYER
10
3593.69336610007
20
3960.23545830968
30
5.46214395953371e-006
 70
     32
  0
VERTEX
  8
MY3DLAYER
10
3593.7615147705
20
3959.717820262
30
5.4933397372281e-006
 70
     32
  0
VERTEX
  8
MY3DLAYER
10
3593.69336674609
20
3959.20018212927
30
5.4621424705914e-006
 70
     32
  0
VERTEX
  8
MY3DLAYER
10
3593.49356620209
20
3958.71782009479
30
5.37067728636487e-006
 70
     32
  0
VERTEX
  8
MY3DLAYER
10
3593.17572921537
20
3958.30360633409
30
5.22517910788167e-006
 70
     32
  0
VERTEX
  8
MY3DLAYER
10
3592.76151585133
20
3957.98576883041
30
5.03556090691859e-006
 70
     32
  0
VERTEX
  8
MY3DLAYER
10
3592.27915406622
20
3957.7859676844
30
4.81474697338058e-006
 70
     32
  0
VERTEX
  8
MY3DLAYER
10
3591.76151601854
20
3957.71781901396
30
4.57778275340104e-006
 70
     32
  0
VERTEX
  8
MY3DLAYER
10
3591.24387788581
20
3957.78596703837
30
4.34082096987254e-006
 70
     32
  0
VERTEX
  8
MY3DLAYER
10
3590.76151585133
20
3957.98576758238
30
4.12000604370633e-006
 70
     32
  0
VERTEX
  8
MY3DLAYER
10
3590.34730209062
20
3958.30360456909
30
3.93038698547343e-006
 70
     32
  0
VERTEX
  8
MY3DLAYER
10
3590.02946458695
20
3958.71781793313
30
3.78488813019828e-006
 70
     32
  0
VERTEX
  8
MY3DLAYER
10
3589.82966344094
20
3959.20017971826
30
3.69342407395834e-006
 70
     32
  0
SEQEND
 0
ENDSEC
 0
EOF
