 0
SECTION
 2
ENTITIES
  0
LINE
 8
GROUP0
10
1206.6370558501
20
786.327750868516
30
2.68178812490305e-012
11
1206.63705587626
21
747.327750868726
31
1.53338426955862e-008
  0
LINE
 8
GROUP0
10
1206.63705587626
20
747.327750868726
30
1.53338426955862e-008
11
1245.63705587626
21
747.327750868726
31
1.53311609074613e-008
  0
LINE
 8
GROUP0
10
1240.59157438725
20
750.413640354098
30
8.60403047253655e-008
11
1240.53705570885
21
750.827750826201
31
8.5789849402218e-008
  0
LINE
 8
GROUP0
10
1245.63705587626
20
747.327750868726
30
1.53311609074613e-008
11
1245.6370558501
21
786.327750868516
31
0.0
  0
LINE
 8
GROUP0
10
1245.6370558501
20
786.327750868516
30
0.0
11
1206.6370558501
21
786.327750868516
31
2.68178812490305e-012
  0
LINE
 8
GROUP0
10
1209.72294523496
20
752.373232303804
30
3.25852100069302e-007
11
1210.13705570706
21
752.427750982204
31
3.25819088131674e-007
  0
LINE
 8
GROUP0
10
1240.53705570885
20
750.827750826201
30
8.5789849402218e-008
11
1240.59157438633
21
751.241861298426
31
8.55393856191711e-008
  0
LINE
 8
GROUP0
10
1243.5226963558
20
750.027750829538
30
8.62735074935728e-008
11
1243.26842656001
21
749.696379979355
31
8.64739478911858e-008
  0
LINE
 8
GROUP0
10
1243.26842656001
20
749.696379979355
30
8.64739478911858e-008
11
1242.9370557104
21
749.442110182828
31
8.66277404032445e-008
  0
LINE
 8
GROUP0
10
1242.9370557104
20
749.442110182828
30
8.66277404032445e-008
11
1242.55116618274
21
749.28226950639
31
8.67244116742327e-008
  0
LINE
 8
GROUP0
10
1242.55116617929
20
752.373232150515
30
8.48550544829685e-008
11
1242.9370557073
21
752.213391474939
31
8.49517201140237e-008
  0
LINE
 8
GROUP0
10
1243.26842655748
20
751.959121679152
30
8.51054646866522e-008
11
1243.52269635401
21
751.627750829538
31
8.53058698346842e-008
  0
LINE
 8
GROUP0
10
1241.00568485769
20
751.959121676623
30
8.51055760753283e-008
11
1241.3370557073
21
752.21339147315
31
8.49517849732528e-008
  0
LINE
 8
GROUP0
10
1240.7514150619
20
751.627750826441
30
8.53060150629581e-008
11
1241.00568485769
21
751.959121676623
31
8.51055760753283e-008
  0
LINE
 8
GROUP0
10
1242.9370557073
20
752.213391474939
30
8.49517201140237e-008
11
1243.26842655748
21
751.959121679152
31
8.51054646866522e-008
  0
LINE
 8
GROUP0
10
1242.13705570706
20
752.427750827989
30
8.48221003546534e-008
11
1242.55116617929
21
752.373232150515
31
8.48550544829685e-008
  0
LINE
 8
GROUP0
10
1243.68253703045
20
751.241861301881
30
8.55392178311653e-008
11
1243.73705570885
21
750.827750829778
31
8.57896745642961e-008
  0
LINE
 8
GROUP0
10
1240.59157438633
20
751.241861298426
30
8.55393856191711e-008
11
1240.7514150619
21
751.627750826441
31
8.53060150629581e-008
  0
LINE
 8
GROUP0
10
1241.72294523496
20
752.373232149589
30
8.48551137022646e-008
11
1242.13705570706
21
752.427750827989
31
8.48221003546534e-008
  0
LINE
 8
GROUP0
10
1243.73705570885
20
750.827750829778
30
8.57896745642961e-008
11
1243.68253703138
21
750.413640357553
31
8.60401397573263e-008
  0
LINE
 8
GROUP0
10
1241.3370557073
20
752.21339147315
30
8.49517849732528e-008
11
1241.72294523496
21
752.373232149589
31
8.48551137022646e-008
  0
LINE
 8
GROUP0
10
1243.52269635401
20
751.627750829538
30
8.53058698346842e-008
11
1243.68253703045
21
751.241861301881
31
8.55392178311653e-008
  0
LINE
 8
GROUP0
10
1243.68253703138
20
750.413640357553
30
8.60401397573263e-008
11
1243.5226963558
21
750.027750829538
31
8.62735074935728e-008
  0
LINE
 8
GROUP0
10
1242.13705571064
20
749.227750827989
30
8.67574222018774e-008
11
1241.72294523841
21
749.282269505464
31
8.67244680735624e-008
  0
LINE
 8
GROUP0
10
1241.3370557104
20
749.44211018104
30
8.66278052624736e-008
11
1241.00568486022
21
749.696379976827
31
8.64740578698786e-008
  0
LINE
 8
GROUP0
10
1242.55116618274
20
749.28226950639
30
8.67244116742327e-008
11
1242.13705571064
21
749.227750827989
31
8.67574222018774e-008
  0
LINE
 8
GROUP0
10
1241.72294523841
20
749.282269505464
30
8.67244680735624e-008
11
1241.3370557104
21
749.44211018104
31
8.66278052624736e-008
  0
LINE
 8
GROUP0
10
1241.00568486022
20
749.696379976827
30
8.64740578698786e-008
11
1240.75141506369
21
750.027750826441
31
8.62736555418131e-008
  0
LINE
 8
GROUP0
10
1240.75141506369
20
750.027750826441
30
8.62736555418131e-008
11
1240.59157438725
21
750.413640354098
31
8.60403047253655e-008
  0
LINE
 8
GROUP0
10
1210.55116618274
20
749.282269660605
30
3.27721399451253e-007
11
1210.13705571064
21
749.227750982204
31
3.27754409978898e-007
  0
LINE
 8
GROUP0
10
1209.3370557073
20
752.213391627365
30
3.25948772750273e-007
11
1209.72294523496
21
752.373232303804
31
3.25852100069302e-007
  0
LINE
 8
GROUP0
10
1210.55116617929
20
752.37323230473
30
3.25852042259989e-007
11
1210.9370557073
21
752.213391629153
31
3.25948707891044e-007
  0
LINE
 8
GROUP0
10
1210.9370557073
20
752.213391629153
30
3.25948707891044e-007
11
1211.26842655748
21
751.959121833367
31
3.26102455283639e-007
  0
LINE
 8
GROUP0
10
1211.26842655748
20
751.959121833367
30
3.26102455283639e-007
11
1211.52269635401
21
751.627750983753
31
3.26302857611704e-007
  0
LINE
 8
GROUP0
10
1209.72294523841
20
749.282269659679
30
3.27721455850583e-007
11
1209.3370557104
21
749.442110335255
31
3.27624791629511e-007
  0
LINE
 8
GROUP0
10
1208.75141506369
20
750.027750980656
30
3.2727064190885e-007
11
1208.59157438725
21
750.413640508313
31
3.27037292502386e-007
  0
LINE
 8
GROUP0
10
1208.59157438633
20
751.241861452641
30
3.26536373396191e-007
11
1208.7514150619
21
751.627750980656
31
3.26303002839978e-007
  0
LINE
 8
GROUP0
10
1209.3370557104
20
749.442110335255
30
3.27624791629511e-007
11
1209.00568486022
21
749.696380131041
31
3.27471045646899e-007
  0
LINE
 8
GROUP0
10
1208.53705570885
20
750.827750980416
30
3.26786837179238e-007
11
1208.59157438633
21
751.241861452641
31
3.26536373396191e-007
  0
LINE
 8
GROUP0
10
1210.13705570706
20
752.427750982204
30
3.25819088131674e-007
11
1210.55116617929
21
752.37323230473
31
3.25852042259989e-007
  0
LINE
 8
GROUP0
10
1210.13705571064
20
749.227750982204
30
3.27754409978898e-007
11
1209.72294523841
21
749.282269659679
31
3.27721455850583e-007
  0
LINE
 8
GROUP0
10
1208.7514150619
20
751.627750980656
30
3.26303002839978e-007
11
1209.00568485769
21
751.959121830838
31
3.26102563852348e-007
  0
LINE
 8
GROUP0
10
1209.00568486022
20
749.696380131041
30
3.27471045646899e-007
11
1208.75141506369
21
750.027750980656
31
3.2727064190885e-007
  0
LINE
 8
GROUP0
10
1208.59157438725
20
750.413640508313
30
3.27037292502386e-007
11
1208.53705570885
21
750.827750980416
31
3.26786837179238e-007
  0
LINE
 8
GROUP0
10
1209.00568485769
20
751.959121830838
30
3.26102563852348e-007
11
1209.3370557073
21
752.213391627365
31
3.25948772750273e-007
  0
LINE
 8
GROUP0
10
1208.53705567309
20
782.827750980416
30
3.07433711765892e-007
11
1208.59157435056
21
783.241861452641
31
3.07183246572862e-007
  0
LINE
 8
GROUP0
10
1211.5226963558
20
750.027750983753
30
3.27270498090559e-007
11
1211.26842656001
21
749.69638013357
31
3.27470935668206e-007
  0
LINE
 8
GROUP0
10
1209.00568482192
20
783.959121830838
30
3.06749438439002e-007
11
1209.33705567154
21
784.213391627365
31
3.06595647336927e-007
  0
LINE
 8
GROUP0
10
1211.73705570885
20
750.827750983993
30
3.26786662341316e-007
11
1211.68253703138
21
750.413640511768
31
3.27037127534346e-007
  0
LINE
 8
GROUP0
10
1209.33705567154
20
784.213391627365
30
3.06595647336927e-007
11
1209.7229451992
21
784.373232303804
31
3.06498971835989e-007
  0
LINE
 8
GROUP0
10
1208.75141502614
20
783.627750980656
30
3.06949876016649e-007
11
1209.00568482192
21
783.959121830838
31
3.06749438439002e-007
  0
LINE
 8
GROUP0
10
1208.59157435056
20
783.241861452641
30
3.07183246572862e-007
11
1208.75141502614
21
783.627750980656
31
3.06949876016649e-007
  0
LINE
 8
GROUP0
10
1211.52269635401
20
751.627750983753
30
3.26302857611704e-007
11
1211.68253703045
21
751.241861456096
31
3.26536205608185e-007
  0
LINE
 8
GROUP0
10
1208.59157435149
20
782.413640508313
30
3.07684165679056e-007
11
1208.53705567309
21
782.827750980416
31
3.07433711765892e-007
  0
LINE
 8
GROUP0
10
1210.9370557104
20
749.442110337043
30
3.27624726770281e-007
11
1210.55116618274
21
749.282269660605
31
3.27721399451253e-007
  0
LINE
 8
GROUP0
10
1210.55116614352
20
784.37323230473
30
3.06498915436659e-007
11
1210.93705567154
21
784.213391629153
31
3.06595582477698e-007
  0
LINE
 8
GROUP0
10
1210.1370556713
20
784.427750982204
30
3.06465961308344e-007
11
1210.55116614352
21
784.37323230473
31
3.06498915436659e-007
  0
LINE
 8
GROUP0
10
1209.7229451992
20
784.373232303804
30
3.06498971835989e-007
11
1210.1370556713
21
784.427750982204
31
3.06465961308344e-007
  0
LINE
 8
GROUP0
10
1211.68253703045
20
751.241861456096
30
3.26536205608185e-007
11
1211.73705570885
21
750.827750983993
31
3.26786662341316e-007
  0
LINE
 8
GROUP0
10
1211.68253703138
20
750.413640511768
30
3.27037127534346e-007
11
1211.5226963558
21
750.027750983753
31
3.27270498090559e-007
  0
LINE
 8
GROUP0
10
1211.26842656001
20
749.69638013357
30
3.27470935668206e-007
11
1210.9370557104
21
749.442110337043
31
3.27624726770281e-007
  0
LINE
 8
GROUP0
10
1210.55116614698
20
781.282269660605
30
3.08368274037907e-007
11
1210.13705567488
21
781.227750982204
31
3.08401283155568e-007
  0
LINE
 8
GROUP0
10
1210.13705567488
20
781.227750982204
30
3.08401283155568e-007
11
1209.72294520265
21
781.282269659679
31
3.08368329027253e-007
  0
LINE
 8
GROUP0
10
1209.33705567464
20
781.442110335255
30
3.08271663396198e-007
11
1209.00568482445
21
781.696380131041
31
3.08117918823569e-007
  0
LINE
 8
GROUP0
10
1209.00568482445
20
781.696380131041
30
3.08117918823569e-007
11
1208.75141502793
21
782.027750980656
31
3.07917513675537e-007
  0
LINE
 8
GROUP0
10
1211.52269631825
20
783.627750983753
30
3.06949732198358e-007
11
1211.68253699469
21
783.241861456096
31
3.07183078784856e-007
  0
LINE
 8
GROUP0
10
1211.26842652172
20
783.959121833367
30
3.06749325640343e-007
11
1211.52269631825
21
783.627750983753
31
3.06949732198358e-007
  0
LINE
 8
GROUP0
10
1209.72294520265
20
781.282269659679
30
3.08368329027253e-007
11
1209.33705567464
21
781.442110335255
31
3.08271663396198e-007
  0
LINE
 8
GROUP0
10
1211.68253699469
20
783.241861456096
30
3.07183078784856e-007
11
1211.73705567309
21
782.827750983993
31
3.07433534108004e-007
  0
LINE
 8
GROUP0
10
1211.52269632004
20
782.027750983753
30
3.07917368447264e-007
11
1211.26842652425
21
781.69638013357
31
3.08117807434893e-007
  0
LINE
 8
GROUP0
10
1211.26842652425
20
781.69638013357
30
3.08117807434893e-007
11
1210.93705567464
21
781.442110337043
31
3.08271598536969e-007
  0
LINE
 8
GROUP0
10
1211.73705567309
20
782.827750983993
30
3.07433534108004e-007
11
1211.68253699561
21
782.413640511768
31
3.07683997891051e-007
  0
LINE
 8
GROUP0
10
1210.93705567154
20
784.213391629153
30
3.06595582477698e-007
11
1211.26842652172
21
783.959121833367
31
3.06749325640343e-007
  0
LINE
 8
GROUP0
10
1211.68253699561
20
782.413640511768
30
3.07683997891051e-007
11
1211.52269632004
21
782.027750983753
31
3.07917368447264e-007
  0
LINE
 8
GROUP0
10
1210.93705567464
20
781.442110337043
30
3.08271598536969e-007
11
1210.55116614698
21
781.282269660605
31
3.08368274037907e-007
  0
LINE
 8
GROUP0
10
1242.13705567488
20
781.227750827989
30
6.74042953785481e-008
11
1241.72294520265
21
781.282269505464
31
6.7371341250233e-008
  0
LINE
 8
GROUP0
10
1241.00568482445
20
781.696379976826
30
6.71209324565325e-008
11
1240.75141502793
21
782.027750826441
31
6.69205258985173e-008
  0
LINE
 8
GROUP0
10
1240.75141502793
20
782.027750826441
30
6.69205258985173e-008
11
1240.59157435149
21
782.413640354098
31
6.66871779020362e-008
  0
LINE
 8
GROUP0
10
1208.75141502793
20
782.027750980656
30
3.07917513675537e-007
11
1208.59157435149
21
782.413640508313
31
3.07684165679056e-007
  0
LINE
 8
GROUP0
10
1241.00568482192
20
783.959121676623
30
6.57524478420157e-008
11
1241.33705567154
21
784.21339147315
31
6.55986567399403e-008
  0
LINE
 8
GROUP0
10
1240.53705567309
20
782.827750826201
30
6.64367211689054e-008
11
1240.59157435056
21
783.241861298426
31
6.6186260205825e-008
  0
LINE
 8
GROUP0
10
1241.33705567154
20
784.21339147315
30
6.55986567399403e-008
11
1241.7229451992
21
784.373232149589
31
6.55019840589688e-008
  0
LINE
 8
GROUP0
10
1240.75141502614
20
783.627750826441
30
6.59528882396287e-008
11
1241.00568482192
21
783.959121676623
31
6.57524478420157e-008
  0
LINE
 8
GROUP0
10
1242.55116614352
20
784.373232150515
30
6.55019276596391e-008
11
1242.93705567154
21
784.213391474939
31
6.55985918807112e-008
  0
LINE
 8
GROUP0
10
1241.72294520265
20
781.282269505464
30
6.7371341250233e-008
11
1241.33705567464
21
781.44211018104
31
6.72746756191778e-008
  0
LINE
 8
GROUP0
10
1240.59157435149
20
782.413640354098
30
6.66871779020362e-008
11
1240.53705567309
21
782.827750826201
31
6.64367211689054e-008
  0
LINE
 8
GROUP0
10
1242.55116614698
20
781.28226950639
30
6.73712834409201e-008
11
1242.13705567488
21
781.227750827989
31
6.74042953785481e-008
  0
LINE
 8
GROUP0
10
1241.7229451992
20
784.373232149589
30
6.55019840589688e-008
11
1242.1370556713
21
784.427750827989
31
6.54689735313241e-008
  0
LINE
 8
GROUP0
10
1242.1370556713
20
784.427750827989
30
6.54689735313241e-008
11
1242.55116614352
21
784.373232150515
31
6.55019276596391e-008
  0
LINE
 8
GROUP0
10
1241.33705567464
20
781.44211018104
30
6.72746756191778e-008
11
1241.00568482445
21
781.696379976826
31
6.71209324565325e-008
  0
LINE
 8
GROUP0
10
1240.59157435056
20
783.241861298426
30
6.6186260205825e-008
11
1240.75141502614
21
783.627750826441
31
6.59528882396287e-008
  0
LINE
 8
GROUP0
10
1243.68253699469
20
783.241861301881
30
6.6186091007836e-008
11
1243.73705567309
21
782.827750829778
31
6.64365463309835e-008
  0
LINE
 8
GROUP0
10
1243.68253699561
20
782.413640357553
30
6.66870101140304e-008
11
1243.52269632004
21
782.027750829538
31
6.69203806702434e-008
  0
LINE
 8
GROUP0
10
1243.52269631825
20
783.627750829538
30
6.59527416013717e-008
11
1243.68253699469
21
783.241861301881
31
6.6186091007836e-008
  0
LINE
 8
GROUP0
10
1243.73705567309
20
782.827750829778
30
6.64365463309835e-008
11
1243.68253699561
21
782.413640357553
31
6.66870101140304e-008
  0
LINE
 8
GROUP0
10
1243.52269632004
20
782.027750829538
30
6.69203806702434e-008
11
1243.26842652425
21
781.696379979355
31
6.71208196578732e-008
  0
LINE
 8
GROUP0
10
1242.93705567464
20
781.442110182828
30
6.72746107599487e-008
11
1242.55116614698
21
781.28226950639
31
6.73712834409201e-008
  0
LINE
 8
GROUP0
10
1242.93705567154
20
784.213391474939
30
6.55985918807112e-008
11
1243.26842652172
21
783.959121679152
31
6.57523378633229e-008
  0
LINE
 8
GROUP0
10
1243.26842652172
20
783.959121679152
30
6.57523378633229e-008
11
1243.52269631825
21
783.627750829538
31
6.59527416013717e-008
  0
LINE
 8
GROUP0
10
1243.26842652425
20
781.696379979355
30
6.71208196578732e-008
11
1242.93705567464
21
781.442110182828
31
6.72746107599487e-008
 0
ENDSEC
 0
EOF
