 0
SECTION
 2
ENTITIES
  0
LINE
 8
COMPONENT2
10
2776.39336613196
20
388.948280188388
30
4.67486023040919e-005
11
2751.43018777777
21
363.77839596872
31
4.67486023040919e-005
  0
LINE
 8
COMPONENT2
10
2751.43018777777
20
363.77839596872
30
4.67486023040919e-005
11
2751.43018777777
21
249.48245471148
31
4.67486023040919e-005
  0
LINE
 8
COMPONENT2
10
2751.43018777777
20
249.48245471148
30
4.67486023040919e-005
11
2868.26585510218
21
249.48245471148
31
4.67486023040919e-005
  0
LINE
 8
COMPONENT2
10
2868.26585510218
20
249.48245471148
30
4.67486023040919e-005
11
2892.38980764253
21
274.438742870154
31
4.67486023040919e-005
  0
LINE
 8
COMPONENT2
10
2892.38980764253
20
274.438742870154
30
4.67486023040919e-005
11
2892.38980764253
21
388.948280188388
31
4.67486023040919e-005
  0
LINE
 8
COMPONENT2
10
2892.38980764253
20
388.948280188388
30
4.67486023040919e-005
11
2776.39336613196
21
388.948280188388
31
4.67486023040919e-005
  0
LINE
 8
COMPONENT2
10
2806.83838403862
20
305.852522266352
30
4.67486023040919e-005
11
2806.83838403862
21
333.015740048777
31
4.67486023040919e-005
  0
LINE
 8
COMPONENT2
10
2806.83838403862
20
333.015740048777
30
4.67486023040919e-005
11
2836.28432359547
21
333.015740048777
31
4.67486023040919e-005
  0
LINE
 8
COMPONENT2
10
2836.28432359547
20
333.015740048777
30
4.67486023040919e-005
11
2836.28432359547
21
305.852522266352
31
4.67486023040919e-005
  0
LINE
 8
COMPONENT2
10
2836.28432359547
20
305.852522266352
30
4.67486023040919e-005
11
2806.83838403862
21
305.852522266352
31
4.67486023040919e-005
  0
LINE
 8
COMPONENT2
10
2840.07393112923
20
345.951393110371
30
4.67486023040919e-005
11
2806.83838403862
21
345.951393110371
31
4.67486023040919e-005
  0
LINE
 8
COMPONENT2
10
2806.83838403862
20
345.951393110371
30
4.67486023040919e-005
11
2806.83838403862
21
355.787147209352
31
4.67486023040919e-005
  0
LINE
 8
COMPONENT2
10
2806.83838403862
20
355.787147209352
30
4.67486023040919e-005
11
2849.91037424776
21
355.787147209352
31
4.67486023040919e-005
  0
LINE
 8
COMPONENT2
10
2849.91037424776
20
355.787147209352
30
4.67486023040919e-005
11
2840.07393112923
21
345.951393110371
31
4.67486023040919e-005
  0
LINE
 8
COMPONENT2
10
2803.12594669464
20
292.918247243861
30
4.67486023040919e-005
11
2836.28432359547
21
292.918247243861
31
4.67486023040919e-005
  0
LINE
 8
COMPONENT2
10
2836.28432359547
20
292.918247243861
30
4.67486023040919e-005
11
2836.28432359547
21
283.696409565349
31
4.67486023040919e-005
  0
LINE
 8
COMPONENT2
10
2836.28432359547
20
283.696409565349
30
4.67486023040919e-005
11
2794.26791133937
21
283.696409565349
31
4.67486023040919e-005
  0
LINE
 8
COMPONENT2
10
2794.26791133937
20
283.696409565349
30
4.67486023040919e-005
11
2803.12594669464
21
292.918247243861
31
4.67486023040919e-005
  0
LINE
 8
COMPONENT2
10
2764.36721887847
20
358.45158581536
30
4.67486023040919e-005
11
2772.62167310654
21
366.774252979043
31
4.67486023040919e-005
  0
LINE
 8
COMPONENT2
10
2772.62167310654
20
366.774252979043
30
4.67486023040919e-005
11
2772.62167310654
21
270.759378464651
31
4.67486023040919e-005
  0
LINE
 8
COMPONENT2
10
2772.62167310654
20
270.759378464651
30
4.67486023040919e-005
11
2849.22135469617
21
270.759378464651
31
4.67486023040919e-005
  0
LINE
 8
COMPONENT2
10
2849.22135469617
20
270.759378464651
30
4.67486023040919e-005
11
2849.22135469617
21
299.384006716003
31
4.67486023040919e-005
  0
LINE
 8
COMPONENT2
10
2849.22135469617
20
299.384006716003
30
4.67486023040919e-005
11
2849.22135469617
21
305.852522266352
31
4.67486023040919e-005
  0
LINE
 8
COMPONENT2
10
2849.22135469617
20
305.852522266352
30
4.67486023040919e-005
11
2849.22135469617
21
336.804658562983
31
4.67486023040919e-005
  0
LINE
 8
COMPONENT2
10
2849.22135469617
20
336.804658562983
30
4.67486023040919e-005
11
2859.05641977559
21
346.641790701067
31
4.67486023040919e-005
  0
LINE
 8
COMPONENT2
10
2859.05641977559
20
346.641790701067
30
4.67486023040919e-005
11
2859.05641977559
21
262.416729733971
31
4.67486023040919e-005
  0
LINE
 8
COMPONENT2
10
2859.05641977559
20
262.416729733971
30
4.67486023040919e-005
11
2764.36721887847
21
262.416729733971
31
4.67486023040919e-005
  0
LINE
 8
COMPONENT2
10
2764.36721887847
20
262.416729733971
30
4.67486023040919e-005
11
2764.36721887847
21
358.45158581536
31
4.67486023040919e-005
  0
LINE
 8
COMPONENT2
10
2879.45277654183
20
279.669779305843
30
4.67486023040919e-005
11
2871.99069479809
21
271.947248171596
31
4.67486023040919e-005
  0
LINE
 8
COMPONENT2
10
2871.99069479809
20
271.947248171596
30
4.67486023040919e-005
11
2871.99069479809
21
368.722800270946
31
4.67486023040919e-005
  0
LINE
 8
COMPONENT2
10
2871.99069479809
20
368.722800270946
30
4.67486023040919e-005
11
2793.90135293792
21
368.722800270946
31
4.67486023040919e-005
  0
LINE
 8
COMPONENT2
10
2793.90135293792
20
368.722800270946
30
4.67486023040919e-005
11
2793.90135293792
21
301.988500621022
31
4.67486023040919e-005
  0
LINE
 8
COMPONENT2
10
2793.90135293792
20
301.988500621022
30
4.67486023040919e-005
11
2785.55594812903
21
293.29858603634
31
4.67486023040919e-005
  0
LINE
 8
COMPONENT2
10
2785.55594812903
20
293.29858603634
30
4.67486023040919e-005
11
2785.55594812903
21
376.012627126794
31
4.67486023040919e-005
  0
LINE
 8
COMPONENT2
10
2785.55594812903
20
376.012627126794
30
4.67486023040919e-005
11
2879.45277654183
21
376.012627126794
31
4.67486023040919e-005
  0
LINE
 8
COMPONENT2
10
2879.45277654183
20
376.012627126794
30
4.67486023040919e-005
11
2879.45277654183
21
279.669779305843
31
4.67486023040919e-005
  0
LINE
 8
Layer0
10
2709.56140786437
20
228.534135348479
30
3.53335192968984e-005
11
2709.97551839547
21
228.479617118307
31
3.54528290106515e-005
  0
LINE
 8
Layer0
10
2728.64729912158
20
208.979618092983
30
1.31726836521295e-005
11
2729.06140959374
21
209.03413677092
31
1.32832183972198e-005
  0
LINE
 8
Layer0
10
2728.26140959374
20
208.819777416976
30
1.30233838881111e-005
11
2728.64729912158
21
208.979618092983
31
1.31726836521295e-005
  0
LINE
 8
Layer0
10
2727.93003874384
20
206.302765921024
30
1.18847225714092e-005
11
2727.67576894769
21
206.634136770922
31
1.19717680785669e-005
  0
LINE
 8
Layer0
10
2727.51592827168
20
207.848247243085
30
1.24535555620753e-005
11
2727.67576894769
21
208.234136770921
31
1.26511358143233e-005
  0
LINE
 8
Layer0
10
2727.51592827168
20
207.020026298758
30
1.21018889572611e-005
11
2727.46140959374
21
207.434136770922
31
1.22662177439281e-005
  0
LINE
 8
Layer0
10
2699.56136085279
20
404.434126966628
30
0.000101573954217216
11
2699.56135800799
21
419.434126966609
31
9.22257090635981e-005
  0
LINE
 8
Layer0
10
2935.16139978943
20
226.934186934259
30
6.33456316709413e-005
11
2935.10688111149
21
226.520076462095
31
6.31528399022585e-005
  0
LINE
 8
Layer0
10
2735.14693172154
20
224.9486427444
30
4.19066988278871e-005
11
2735.94152483453
21
225.984176650332
31
4.24293307961676e-005
  0
LINE
 8
Layer0
10
2710.69273028029
20
413.065497816503
30
9.7051320939201e-005
11
2710.94700007645
21
412.734126966605
31
9.6959925284068e-005
  0
LINE
 8
Layer0
10
2913.6472890686
20
208.979667809184
30
6.9771919824646e-005
11
2914.06139948181
21
209.034186934885
31
7.02605942077383e-005
  0
LINE
 8
Layer0
10
2727.46135800801
20
431.434125235911
30
0.000129444613282459
11
2727.51587623818
21
431.848235767017
31
0.000129582834368236
  0
LINE
 8
Layer0
10
2726.61139781561
20
228.484176650332
30
4.59038845477266e-005
11
2726.78176868416
21
227.19008142482
31
4.50218984752837e-005
  0
LINE
 8
Layer0
10
2729.47547015122
20
429.888646091664
30
0.000127400015669821
11
2729.06135973801
21
429.834126965963
31
0.000127662349300905
  0
LINE
 8
Layer0
10
2912.46134962608
20
431.434177129943
30
0.000148100240696181
11
2912.51586830402
21
431.848287602107
31
0.000148293032509983
  0
LINE
 8
Layer0
10
2710.69278166759
20
225.802765721937
30
3.68917865728235e-005
11
2710.36141109263
21
225.548495567485
31
3.69384678919005e-005
  0
LINE
 8
Layer0
10
2710.36141109263
20
225.548495567485
30
3.69384678919005e-005
11
2709.97552173763
21
225.38865447423
31
3.69278061626233e-005
  0
LINE
 8
Layer0
10
2731.61139781561
20
233.484176650331
30
4.81985163609977e-005
11
2730.31730259009
21
233.313805781776
31
4.83413891732454e-005
  0
LINE
 8
Layer0
10
2915.19277328503
20
206.302817308343
30
7.02966373498981e-005
11
2914.86140271007
21
206.04854715389
31
6.98105989361153e-005
  0
LINE
 8
Layer0
10
2709.97546990256
20
413.479608288667
30
9.70806764744481e-005
11
2710.36135943039
21
413.31976761266
31
9.7092506933194e-005
  0
LINE
 8
Layer0
10
2727.51587713371
20
431.020014822702
30
0.00012923122425299
11
2727.46135800801
21
431.434125235911
31
0.000129444613282459
  0
LINE
 8
Layer0
10
2915.19272047598
20
432.56554797984
30
0.000149192215730665
11
2915.44699027214
21
432.234177129942
31
0.000149103149277607
  0
LINE
 8
Layer0
10
2727.51587623818
20
431.848235767017
30
0.000129582834368236
11
2727.67571649693
21
432.234125467678
31
0.000129636467874761
  0
LINE
 8
Layer0
10
2934.36135112366
20
410.548538771323
30
0.000161839582625944
11
2933.97546176866
21
410.388697678069
31
0.000161546669458801
  0
LINE
 8
Layer0
10
2729.47552006591
20
205.888655448859
30
1.20350176707973e-005
11
2729.06140959374
21
205.834136770922
31
1.1924482925707e-005
  0
LINE
 8
Layer0
10
2730.4470502398
20
206.634136770921
30
1.2556565553723e-005
11
2730.19278044364
21
206.302765921023
31
1.23622076884544e-005
  0
LINE
 8
Layer0
10
2708.4300375212
20
228.065504975072
30
3.530226075803e-005
11
2708.76140809616
21
228.319775129525
31
3.52555793938336e-005
  0
LINE
 8
Layer0
10
2735.44102844126
20
408.090043519062
30
0.000122255617727873
11
2735.61139930981
21
409.384138744574
31
0.000123436851965764
  0
LINE
 8
Layer0
10
2729.86140959374
20
206.048496124867
30
1.21843174348157e-005
11
2729.47552006591
21
205.888655448859
31
1.20350176707973e-005
  0
LINE
 8
Layer0
10
2932.194439138
20
411.109768618109
30
0.000168096534950735
11
2932.1757098444
21
411.134177054108
31
0.000162176255311053
  0
LINE
 8
Layer0
10
2710.92832008182
20
227.758545282734
30
4.19606909439096e-005
11
2710.94704937541
21
227.734136846739
31
3.60274390974524e-005
  0
LINE
 8
Layer0
10
2915.44699027214
20
432.234177129942
30
0.000149103149277607
11
2915.60683094815
21
431.848287602106
31
0.000148969603109705
  0
LINE
 8
Layer0
10
2729.88575474557
20
206.067176816889
30
2.06479610760368e-005
11
2729.86140959374
21
206.048496124867
31
1.21843174348157e-005
  0
LINE
 8
Layer0
10
2935.1613496254
20
411.934180282369
30
0.0001638580062572
11
2935.10683139522
21
411.520069751263
31
0.000163292549691363
  0
LINE
 8
Layer0
10
2934.36139978943
20
228.319827580313
30
6.37756861699756e-005
11
2934.69277063933
21
228.065557784157
31
6.37371691727395e-005
  0
LINE
 8
Layer0
10
2915.44704272288
20
206.634188433169
30
7.07310431248942e-005
11
2915.19277328503
21
206.302817308343
31
7.02966373498981e-005
  0
LINE
 8
Layer0
10
2727.92998838141
20
430.302754892743
30
0.000128641242145378
11
2727.67571822696
21
430.634125467703
31
0.000128957209328107
  0
LINE
 8
Layer0
10
2921.56134962608
20
441.434178552343
30
0.000150957663552731
11
2921.56134962608
21
419.434178552344
31
0.000156764119103059
  0
LINE
 8
Layer0
10
2934.94704043549
20
226.134186934259
30
6.29493197177311e-005
11
2934.69277063933
21
225.802816084361
31
6.27489407502679e-005
  0
LINE
 8
Layer0
10
2736.44102694705
20
229.778271875844
30
4.48186577155951e-005
11
2735.94152483453
21
230.984176650331
31
4.57075690391662e-005
  0
LINE
 8
Layer0
10
2727.07586540388
20
405.848604838643
30
0.0001165060912097
11
2728.11139930981
21
405.054011725654
31
0.000116304038490611
  0
LINE
 8
Layer0
10
2933.97551026159
20
225.388705612197
30
6.24110835889979e-005
11
2933.56139978943
21
225.33418693426
31
6.22966298575278e-005
  0
LINE
 8
Layer0
10
2708.76135943039
20
413.31976761266
30
9.67526413692354e-005
11
2709.14724895823
21
413.479608288668
31
9.69047490979591e-005
  0
LINE
 8
Layer0
10
2735.94152483453
20
230.984176650331
30
4.57075690391662e-005
11
2735.14693172154
21
232.019710556264
31
4.65428277706792e-005
  0
LINE
 8
Layer0
10
2932.43002893953
20
225.802816084362
30
6.22536566364573e-005
11
2932.17575914338
21
226.13418693426
31
6.23427230895146e-005
  0
LINE
 8
Layer0
10
2911.21726468434
20
224.654546024622
30
8.81135022350321e-005
11
2912.51135990985
21
224.484175156067
31
8.81135022350321e-005
  0
LINE
 8
Layer0
10
2921.56134962608
20
419.434178552344
30
0.000156764119103059
11
2943.56134962607
21
419.43417855234
31
0.000171191367942924
  0
LINE
 8
Layer0
10
2934.69277063933
20
225.802816084361
30
6.27489407502679e-005
11
2934.36139978943
21
225.548546288205
31
6.25653584055641e-005
  0
LINE
 8
Layer0
10
2915.04689530999
20
406.848603344428
30
0.000165957994012444
11
2915.84148842298
21
407.88413725036
31
0.000166682678699814
  0
LINE
 8
Layer0
10
2730.19278044364
20
208.565507620819
30
1.33229787515177e-005
11
2730.4470502398
21
208.234136770921
31
1.32359332894794e-005
  0
LINE
 8
Layer0
10
2906.68173227261
20
409.090042024849
30
0.000160914333259399
11
2907.18123438514
21
407.884137250361
31
0.000161004603499748
  0
LINE
 8
Layer0
10
2708.01587810833
20
411.520016494443
30
9.58045523947959e-005
11
2707.9613594304
21
411.934126966606
31
9.59746848529619e-005
  0
LINE
 8
Layer0
10
2708.19439947636
20
411.109781814768
30
0.000104113035253661
11
2708.17571878434
21
411.134126966607
31
9.56691755046535e-005
  0
LINE
 8
Layer0
10
2908.97582600392
20
233.019709061999
30
8.81135022350321e-005
11
2908.18123289093
21
231.984175156067
31
8.81135022350321e-005
  0
LINE
 8
Layer0
10
2933.56139978943
20
228.534186934258
30
6.3694195951669e-005
11
2933.9755102616
21
228.479668256321
31
6.37610287963497e-005
  0
LINE
 8
Layer0
10
2934.36139978943
20
225.548546288205
30
6.25653584055641e-005
11
2933.97551026159
21
225.388705612197
31
6.24110835889979e-005
  0
LINE
 8
Layer0
10
2728.26135650975
20
432.819766746958
30
0.000129481365747708
11
2728.64724586475
21
432.979607840212
31
0.000129283200070418
  0
LINE
 8
Layer0
10
2734.11139781561
20
232.814303669253
30
4.72675125031685e-005
11
2732.90549304112
21
233.313805781776
31
4.78322370057072e-005
  0
LINE
 8
Layer0
10
2735.14693172154
20
232.019710556264
30
4.65428277706792e-005
11
2734.11139781561
21
232.814303669253
31
4.72675125031685e-005
  0
LINE
 8
Layer0
10
2729.86135650972
20
432.819768476985
30
0.000128378360357928
11
2729.88576769516
21
432.801037157521
31
0.000134909767838209
  0
LINE
 8
Layer0
10
2729.47546680906
20
432.97960873574
30
0.000128712242494444
11
2729.86135650972
21
432.819768476985
31
0.000128378360357928
  0
LINE
 8
Layer0
10
2914.86134962608
20
430.048536483888
30
0.00014802040491837
11
2914.47546009825
21
429.88869580788
31
0.000147866130146923
  0
LINE
 8
Layer0
10
2727.92998593479
20
432.565496592504
30
0.000129601858809636
11
2728.26135650975
21
432.819766746958
31
0.000129481365747708
  0
LINE
 8
Layer0
10
2907.68173077841
20
230.778270381579
30
8.81135022350321e-005
11
2907.51135990985
21
229.484175156067
31
8.81135022350321e-005
  0
LINE
 8
Layer0
10
2729.06135973801
20
429.834126965963
30
0.000127662349300905
11
2728.6472492069
21
429.888645196136
31
0.000127970973290914
  0
LINE
 8
Layer0
10
2915.01135990985
20
233.814302174989
30
8.81135022350321e-005
11
2913.80545513537
21
234.313804287512
31
8.81135022350321e-005
  0
LINE
 8
Layer0
10
2934.69277063933
20
228.065557784157
30
6.37371691727395e-005
11
2934.94704043549
21
227.734186934258
31
6.36481027648017e-005
  0
LINE
 8
Layer0
10
2921.56140121183
20
219.434186934259
30
6.92865619026151e-005
11
2921.56140121183
21
197.434186934259
31
6.92865619026151e-005
  0
LINE
 8
Layer0
10
2914.01136140406
20
406.054010231438
30
0.000165122735280931
11
2915.04689530999
21
406.848603344428
31
0.000165957994012444
  0
LINE
 8
Layer0
10
2708.43003996783
20
225.80276327531
30
3.63820189306807e-005
11
2708.17576981337
21
226.13413385027
31
3.61666082334011e-005
  0
LINE
 8
Layer0
10
2708.76141109265
20
225.548493837458
30
3.65780077743238e-005
11
2708.43003996783
21
225.80276327531
31
3.63820189306807e-005
  0
LINE
 8
Layer0
10
2933.5613478954
20
413.534178552316
30
0.000165672267608841
11
2933.9754584265
21
413.479660322143
31
0.000165684028087298
  0
LINE
 8
Layer0
10
2931.96134962545
20
411.934176822315
30
0.000163203220191832
11
2932.01586785562
21
412.348287353422
31
0.00016376867675767
  0
LINE
 8
Layer0
10
2709.14730079331
20
225.388653578703
30
3.67412182750826e-005
11
2708.76141109265
21
225.548493837458
31
3.65780077743238e-005
  0
LINE
 8
Layer0
10
2913.2614027101
20
206.048545423863
30
6.80175076819722e-005
11
2912.93003158527
21
206.302814861716
31
6.77608235040594e-005
  0
LINE
 8
Layer0
10
2735.94152483453
20
225.984176650332
30
4.24293307961676e-005
11
2736.44102694705
21
227.19008142482
31
4.3121716715433e-005
  0
LINE
 8
Layer0
10
2917.3409890413
20
230.778270381579
30
8.81135022350321e-005
11
2916.84148692878
21
231.984175156067
31
8.81135022350321e-005
  0
LINE
 8
Layer0
10
2916.04689381579
20
225.948641250134
30
8.81135022350321e-005
11
2916.84148692878
21
226.984175156067
31
8.81135022350321e-005
  0
LINE
 8
Layer0
10
2917.51135990985
20
229.484175156067
30
8.81135022350321e-005
11
2917.3409890413
21
230.778270381579
31
8.81135022350321e-005
  0
LINE
 8
Layer0
10
2728.26135950624
20
430.048485454891
30
0.000128304855382311
11
2727.92998838141
21
430.302754892743
31
0.000128641242145378
  0
LINE
 8
Layer0
10
2912.67576143082
20
206.634185436676
30
6.76253180234454e-005
11
2912.51592033756
21
207.020074791675
31
6.76202258407699e-005
  0
LINE
 8
Layer0
10
2933.56137824129
20
394.433931474051
30
0.000147116906201461
11
2943.56135019413
21
404.434178552342
31
0.000164012920145851
  0
LINE
 8
Layer0
10
2730.31730259009
20
233.313805781776
30
4.83413891732454e-005
11
2729.11139781561
21
232.814303669253
31
4.8251118932896e-005
  0
LINE
 8
Layer0
10
2734.11139781561
20
224.15404963141
30
4.15894372579828e-005
11
2735.14693172154
21
224.9486427444
31
4.19066988278871e-005
  0
LINE
 8
Layer0
10
2710.36140809613
20
228.319776859551
30
3.56160395565297e-005
11
2710.69277922096
21
228.065507421699
31
3.58120283550534e-005
  0
LINE
 8
Layer0
10
2912.51135990985
20
224.484175156067
30
8.81135022350321e-005
11
2913.80545513537
21
224.654546024622
31
8.81135022350321e-005
  0
LINE
 8
Layer0
10
2917.3409890413
20
228.190079930554
30
8.81135022350321e-005
11
2917.51135990985
21
229.484175156067
31
8.81135022350321e-005
  0
LINE
 8
Layer0
10
2710.94705110544
20
226.134136846764
30
3.6790943443421e-005
11
2710.69278166759
21
225.802765721937
31
3.68917865728235e-005
  0
LINE
 8
Layer0
10
2732.90549304112
20
233.313805781776
30
4.78322370057072e-005
11
2731.61139781561
21
233.484176650331
31
4.81985163609977e-005
  0
LINE
 8
Layer0
10
2896.56140121184
20
207.434186934259
30
6.24739209246883e-005
11
2746.56140959372
21
207.434140089843
31
2.96777941134252e-005
  0
LINE
 8
Layer0
10
2709.56140959374
20
244.434135348504
30
4.02930613972785e-005
11
2699.56140902569
21
234.434135348504
31
3.87403391680863e-005
  0
LINE
 8
Layer0
10
2906.56134962611
20
441.434175707544
30
0.000161850791022644
11
2896.5613496261
21
431.43417381101
31
0.000158001022231602
  0
LINE
 8
Layer0
10
2729.86140959374
20
208.819777416975
30
1.33610168958853e-005
11
2729.88576970311
21
208.801085247619
31
2.21524030877163e-005
  0
LINE
 8
Layer0
10
2699.56140902569
20
234.434135348504
30
3.87403391680863e-005
11
2699.56140959374
21
219.434135348506
31
2.97300081165019e-005
  0
LINE
 8
Layer0
10
2711.10684075246
20
411.520016494442
30
9.64611222581624e-005
11
2710.94700007645
21
411.134126966606
31
9.62578398983283e-005
  0
LINE
 8
Layer0
10
2710.94700007645
20
411.134126966606
30
9.62578398983283e-005
11
2710.92830790709
21
411.109766857234
31
0.000105037362603966
  0
LINE
 8
Layer0
10
2721.56140959374
20
219.434135348511
30
2.49818562082282e-005
11
2699.56140959374
21
219.434135348506
31
2.97300081165019e-005
  0
LINE
 8
Layer0
10
2699.56136085279
20
404.434126966628
30
0.000101573954217216
11
2709.56136274932
21
394.434126966625
31
0.000102016573855224
  0
LINE
 8
Layer0
10
2733.11139930981
20
413.714265763495
30
0.000125980401814374
11
2731.90549453532
21
414.213767876018
31
0.000125852740442767
  0
LINE
 8
Layer0
10
2912.46140121186
20
207.434185204884
30
6.77458939247089e-005
11
2912.51591944203
21
207.84829573599
31
6.79937581498535e-005
  0
LINE
 8
Layer0
10
2933.9755102616
20
228.479668256321
30
6.37610287963497e-005
11
2934.36139978943
21
228.319827580313
31
6.37756861699756e-005
  0
LINE
 8
Layer0
10
2912.67570898003
20
430.634177129943
30
0.00014779776964744
11
2912.51586830402
21
431.020066657779
31
0.000147931315770222
  0
LINE
 8
Layer0
10
2912.51592033756
20
207.020074791675
30
6.76202258407699e-005
11
2912.46140121186
21
207.434185204884
31
6.77458939247089e-005
  0
LINE
 8
Layer0
10
2728.07586390968
20
224.9486427444
30
4.32977283750802e-005
11
2729.11139781561
21
224.15404963141
31
4.25730437328298e-005
  0
LINE
 8
Layer0
10
2912.51586830402
20
431.848287602107
30
0.000148293032509983
11
2912.67570898003
21
432.234177129942
31
0.000148496552649391
  0
LINE
 8
Layer0
10
2730.6068909158
20
207.848247243085
30
1.31058123656658e-005
11
2730.66140959374
21
207.434136770921
31
1.29414836692376e-005
  0
LINE
 8
Layer0
10
2934.94699113647
20
411.134180050602
30
0.000162743316685976
11
2934.92825981701
21
411.109768865157
31
0.000169262996895725
  0
LINE
 8
Layer0
10
2912.51135990985
20
234.484175156067
30
8.81135022350321e-005
11
2911.21726468434
21
234.313804287512
31
8.81135022350321e-005
  0
LINE
 8
Layer0
10
2728.26140959374
20
206.048496124867
30
1.1846684472161e-005
11
2727.93003874384
21
206.302765921024
31
1.18847225714092e-005
  0
LINE
 8
Layer0
10
2907.18123438514
20
407.884137250361
30
0.000161004603499748
11
2907.97582749813
21
406.848603344429
31
0.000161321865069652
  0
LINE
 8
Layer0
10
2933.9754584265
20
413.479660322143
30
0.000165684028087298
11
2934.36134812716
21
413.319820063388
31
0.000165549036878332
  0
LINE
 8
Layer0
10
2728.64729912158
20
205.88865544886
30
1.18602459842521e-005
11
2728.26140959374
21
206.048496124867
31
1.1846684472161e-005
  0
LINE
 8
Layer0
10
2729.47552006591
20
208.979618092983
30
1.33474553386748e-005
11
2729.86140959374
21
208.819777416975
31
1.33610168958853e-005
  0
LINE
 8
Layer0
10
2710.92830790709
20
411.109766857234
30
0.000105037362603966
11
2710.69273028029
21
410.802756116707
31
9.60584222912786e-005
  0
LINE
 8
Layer0
10
2730.4470502398
20
208.234136770921
30
1.32359332894794e-005
11
2730.6068909158
21
207.848247243085
31
1.31058123656658e-005
  0
LINE
 8
Layer0
10
2709.56135943039
20
410.334126966607
30
9.56124650311807e-005
11
2709.14724895823
21
410.388645644544
31
9.55484243593929e-005
  0
LINE
 8
Layer0
10
2710.69273028029
20
410.802756116707
30
9.60584222912786e-005
11
2710.36135943039
21
410.548486320551
31
9.58764594194861e-005
  0
LINE
 8
Layer0
10
2709.97546990256
20
410.388645644544
30
9.57243516907624e-005
11
2709.56135943039
21
410.334126966607
31
9.56124650311807e-005
  0
LINE
 8
Layer0
10
2709.14724895823
20
410.388645644544
30
9.55484243593929e-005
11
2708.76135943039
21
410.548486320552
31
9.55365938555275e-005
  0
LINE
 8
Layer0
10
2710.94704937541
20
227.734136846739
30
3.60274390974524e-005
11
2711.10689046867
21
227.34824749174
31
3.6247591940608e-005
  0
LINE
 8
Layer0
10
2708.76135943039
20
410.548486320552
30
9.55365938555275e-005
11
2708.4299885805
21
410.802756116708
31
9.55777798495205e-005
  0
LINE
 8
Layer0
10
2914.86134962608
20
432.819817775996
30
0.000149230732682781
11
2915.19272047598
21
432.56554797984
31
0.000149192215730665
  0
LINE
 8
Layer0
10
2913.64723915392
20
429.888695807881
30
0.000147684843570772
11
2913.26134962608
21
430.048536483888
31
0.000147670186197146
  0
LINE
 8
Layer0
10
2915.1927708384
20
208.565559008104
30
7.13171467634055e-005
11
2915.44704099285
21
208.234188433144
31
7.14526521989001e-005
  0
LINE
 8
Layer0
10
2914.01136140406
20
414.714264269282
30
0.000166826391636477
11
2912.80545662957
21
415.213766381806
31
0.000166134005672092
  0
LINE
 8
Layer0
10
2943.56139836704
20
234.434186934228
30
7.91344135695482e-005
11
2933.56142508571
21
244.433861633437
31
8.71693404135954e-005
  0
LINE
 8
Layer0
10
2934.36134812716
20
413.319820063388
30
0.000165549036878332
11
2934.69271925199
21
413.065550625536
31
0.000165276493389399
  0
LINE
 8
Layer0
10
2943.56139836704
20
234.434186934228
30
7.91344135695482e-005
11
2943.56140121183
21
219.434186934259
31
5.87319545342524e-005
  0
LINE
 8
Layer0
10
2912.80545662957
20
415.213766381806
30
0.000166134005672092
11
2911.51136140406
21
415.38413725036
31
0.000165319050789492
  0
LINE
 8
Layer0
10
2933.56137824129
20
394.433931474051
30
0.000147116906201461
11
2933.56142508571
21
244.433861633437
31
8.71693404135954e-005
  0
LINE
 8
Layer0
10
2721.56140959374
20
197.434135348525
30
0.0
11
2721.56140959374
21
219.434135348511
31
2.49818562082282e-005
  0
LINE
 8
Layer0
10
2911.51136140406
20
415.38413725036
30
0.000165319050789492
11
2910.21726617855
21
415.213766381806
31
0.000164437064717049
  0
LINE
 8
Layer0
10
2915.66134962608
20
431.434177129942
30
0.000148800678138628
11
2915.60683094815
21
431.020066657778
31
0.000148607886369945
  0
LINE
 8
Layer0
10
2915.60683094815
20
431.848287602106
30
0.000148969603109705
11
2915.66134962608
21
431.434177129942
31
0.000148800678138628
  0
LINE
 8
Layer0
10
2730.66135800796
20
431.434128695966
30
0.00012723860245778
11
2730.60683977778
21
431.020018164859
31
0.000127100381372003
  0
LINE
 8
Layer0
10
2933.14723748219
20
413.479659426615
30
0.000165514556945112
11
2933.5613478954
21
413.534178552316
31
0.000165672267608841
  0
LINE
 8
Layer0
10
2913.2613997136
20
208.81982671593
30
6.92673713313496e-005
11
2913.6472890686
21
208.979667809184
31
6.9771919824646e-005
  0
LINE
 8
Layer0
10
2915.60683094815
20
431.020066657778
30
0.000148607886369945
11
2915.44699027214
21
430.634177129943
31
0.000148404366185417
  0
LINE
 8
Layer0
10
2912.93002913864
20
208.565556561477
30
6.87813328273279e-005
11
2913.2613997136
21
208.81982671593
31
6.92673713313496e-005
  0
LINE
 8
Layer0
10
2709.56141132442
20
225.33413534853
30
3.68605279888357e-005
11
2709.14730079331
21
225.388653578703
31
3.67412182750826e-005
  0
LINE
 8
Layer0
10
2736.56135800798
20
441.434127534644
30
0.00013589174680888
11
2721.56135800798
21
441.434126966587
31
0.000131634814156811
  0
LINE
 8
Layer0
10
2932.17570811438
20
412.734177054082
30
0.000164317909717937
11
2932.42997755223
21
413.065548178908
31
0.000164813489725191
  0
LINE
 8
Layer0
10
2729.3173040843
20
414.213767876018
30
0.000124664951610143
11
2728.11139930981
21
413.714265763495
31
0.000123685770046222
  0
LINE
 8
Layer0
10
2907.51135990985
20
229.484175156067
30
8.81135022350321e-005
11
2907.68173077841
21
228.190079930554
31
8.81135022350321e-005
  0
LINE
 8
Layer0
10
2730.60683888226
20
431.848239109174
30
0.000127451991487249
11
2730.66135800796
21
431.434128695966
31
0.00012723860245778
  0
LINE
 8
Layer0
10
2908.18123289093
20
226.984175156067
30
8.81135022350321e-005
11
2908.97582600392
21
225.948641250134
31
8.81135022350321e-005
  0
LINE
 8
Layer0
10
2711.10689046867
20
227.34824749174
30
3.6247591940608e-005
11
2711.16140959437
21
226.934137078532
31
3.64574837604437e-005
  0
LINE
 8
Layer0
10
2934.94698940644
20
412.734180050576
30
0.00016488497113798
11
2935.1068304997
21
412.348290695577
31
0.000164401151564064
  0
LINE
 8
Layer0
10
2932.42997755223
20
413.065548178908
30
0.000164813489725191
11
2932.76134812719
21
413.319818333361
31
0.000165221643823088
  0
LINE
 8
Layer0
10
2727.28127079669
20
225.984176650332
30
4.41329871517127e-005
11
2728.07586390968
21
224.9486427444
31
4.32977283750802e-005
  0
LINE
 8
Layer0
10
2709.97552173763
20
225.38865447423
30
3.69278061626233e-005
11
2709.56141132442
21
225.33413534853
31
3.68605279888357e-005
  0
LINE
 8
Layer0
10
2729.06140959374
20
205.834136770922
30
1.1924482925707e-005
11
2728.64729912158
21
205.88865544886
31
1.18602459842521e-005
  0
LINE
 8
Layer0
10
2932.17575914338
20
226.13418693426
30
6.23427230895146e-005
11
2932.01591846737
21
226.520076462096
31
6.24762692574166e-005
  0
LINE
 8
Layer0
10
2708.17571878434
20
412.734126966606
30
9.63712608903933e-005
11
2708.4299885805
21
413.065497816504
31
9.65706784974429e-005
  0
LINE
 8
Layer0
10
2915.44699027214
20
430.634177129943
30
0.000148404366185417
11
2915.19272047598
21
430.302806280044
31
0.000148203987217954
  0
LINE
 8
Layer0
10
2727.67576894769
20
208.234136770921
30
1.26511358143233e-005
11
2727.93003874384
21
208.56550762082
31
1.28454936344724e-005
  0
LINE
 8
Layer0
10
2908.97582600392
20
225.948641250134
30
8.81135022350321e-005
11
2910.01135990985
21
225.154048137145
31
8.81135022350321e-005
  0
LINE
 8
Layer0
10
2699.56135800799
20
419.434126966609
30
9.22257090635981e-005
11
2721.56135800799
21
419.434126966596
31
0.000112459413408672
  0
LINE
 8
Layer0
10
2935.1068304997
20
412.348290695577
30
0.000164401151564064
11
2935.1613496254
21
411.934180282369
31
0.0001638580062572
  0
LINE
 8
Layer0
10
2933.14728931727
20
225.388705612198
30
6.22297970579666e-005
11
2932.76139978943
21
225.548546288205
31
6.22151396843407e-005
  0
LINE
 8
Layer0
10
2735.44102844126
20
410.678233970086
30
0.000124461710850454
11
2734.94152632873
21
411.884138744573
31
0.000125260351933676
  0
LINE
 8
Layer0
10
2726.28127229089
20
406.884138744576
30
0.000117024088371309
11
2727.07586540388
21
405.848604838643
31
0.0001165060912097
  0
LINE
 8
Layer0
10
2746.56135800798
20
431.434126966592
30
0.000128824340358236
11
2736.56135800798
21
441.434127534644
31
0.00013589174680888
  0
LINE
 8
Layer0
10
2932.1757098444
20
411.134177054108
30
0.000162176255311053
11
2932.01586875115
21
411.520066409107
31
0.000162660074884968
  0
LINE
 8
Layer0
10
2725.78177017837
20
408.090043519062
30
0.00011782272949965
11
2726.28127229089
21
406.884138744576
31
0.000117024088371309
  0
LINE
 8
Layer0
10
2710.36135943039
20
413.31976761266
30
9.7092506933194e-005
11
2710.69273028029
21
413.065497816503
31
9.7051320939201e-005
  0
LINE
 8
Layer0
10
2711.10684075246
20
412.348237438769
30
9.68245483488062e-005
11
2711.16135943039
21
411.934126966605
31
9.66544159357596e-005
  0
LINE
 8
Layer0
10
2733.11139930981
20
405.054011725653
30
0.000118598670303882
11
2734.14693321574
21
405.848604838642
31
0.000119751190605299
  0
LINE
 8
Layer0
10
2732.90549304112
20
223.654547518887
30
4.14991670176335e-005
11
2734.11139781561
21
224.15404963141
31
4.15894372579828e-005
  0
LINE
 8
Layer0
10
2914.47546009825
20
432.979658452004
30
0.000149216075354275
11
2914.86134962608
21
432.819817775996
31
0.000149230732682781
  0
LINE
 8
Layer0
10
2913.64723915392
20
432.979658452004
30
0.000149034788778124
11
2914.06134962608
21
433.034177129941
31
0.000149149242509594
  0
LINE
 8
Layer0
10
2913.26134962608
20
432.819817775997
30
0.000148880513961558
11
2913.64723915392
21
432.979658452004
31
0.000149034788778124
  0
LINE
 8
Layer0
10
2710.94700007645
20
412.734126966605
30
9.6959925284068e-005
11
2711.10684075246
21
412.348237438769
31
9.68245483488062e-005
  0
LINE
 8
Layer0
10
2730.19273008118
20
430.302757339371
30
0.000127081356885483
11
2729.88576794221
21
430.067216478512
31
0.000133142093370608
  0
LINE
 8
Layer0
10
2913.80545513537
20
234.313804287512
30
8.81135022350321e-005
11
2912.51135990985
21
234.484175156067
31
8.81135022350321e-005
  0
LINE
 8
Layer0
10
2912.51586830402
20
431.020066657779
30
0.000147931315770222
11
2912.46134962608
21
431.434177129943
31
0.000148100240696181
  0
LINE
 8
Layer0
10
2708.01587810833
20
412.34823743877
30
9.61679785756786e-005
11
2708.17571878434
21
412.734126966606
31
9.63712608903933e-005
  0
LINE
 8
Layer0
10
2934.94704043549
20
227.734186934258
30
6.36481027648017e-005
11
2935.10688111149
21
227.348297406423
31
6.35145565968997e-005
  0
LINE
 8
Layer0
10
2943.56134962607
20
419.43417855234
30
0.000171191367942924
11
2943.56135019413
21
404.434178552342
31
0.000164012920145851
  0
LINE
 8
Layer0
10
2914.06134962608
20
429.834177129943
30
0.000147751676415453
11
2913.64723915392
21
429.888695807881
31
0.000147684843570772
  0
LINE
 8
Layer0
10
2935.10688111149
20
226.520076462095
30
6.31528399022585e-005
11
2934.94704043549
21
226.134186934259
31
6.29493197177311e-005
  0
LINE
 8
Layer0
10
2730.60683977778
20
431.020018164859
30
0.000127100381372003
11
2730.44699951903
21
430.634128464198
31
0.000127046747865478
  0
LINE
 8
Layer0
10
2933.14724082434
20
410.388696782541
30
0.000161377198316615
11
2932.76135112368
21
410.548537041297
31
0.000161512189570701
  0
LINE
 8
Layer0
10
2933.56135135545
20
410.334178552369
30
0.000161388958795072
11
2933.14724082434
21
410.388696782541
31
0.000161377198316615
  0
LINE
 8
Layer0
10
2728.07586390967
20
232.019710556264
30
4.79338574081112e-005
11
2727.28127079669
21
230.984176650331
31
4.74112253947112e-005
  0
LINE
 8
Layer0
10
2932.76135112368
20
410.548537041297
30
0.000161512189570701
11
2932.42997999886
21
410.802806479149
31
0.000161784733014514
  0
LINE
 8
Layer0
10
2934.92825981701
20
411.109768865157
30
0.000169262996895725
11
2934.69272169862
21
410.802808925776
31
0.000162247736723842
  0
LINE
 8
Layer0
10
2708.76140809616
20
228.319775129525
30
3.52555793938336e-005
11
2709.14729745116
21
228.479616222779
31
3.52662411231108e-005
  0
LINE
 8
Layer0
10
2709.14729745116
20
228.479616222779
30
3.52662411231108e-005
11
2709.56140786437
21
228.534135348479
31
3.53335192968984e-005
  0
LINE
 8
Layer0
10
2933.56139978943
20
225.33418693426
30
6.22966298575278e-005
11
2933.14728931727
21
225.388705612198
31
6.22297970579666e-005
  0
LINE
 8
Layer0
10
2708.01592872012
20
226.520023205269
30
3.59464553902455e-005
11
2707.96140959442
21
226.934133618478
31
3.57365635252904e-005
  0
LINE
 8
Layer0
10
2726.78176868416
20
229.778271875844
30
4.67188394754459e-005
11
2726.61139781561
21
228.484176650332
31
4.59038845477266e-005
  0
LINE
 8
Layer0
10
2708.19449940281
20
227.758545035685
30
4.19518631854743e-005
11
2708.4300375212
21
228.065504975072
31
3.530226075803e-005
  0
LINE
 8
Layer0
10
2708.17576981337
20
226.13413385027
30
3.61666082334011e-005
11
2708.01592872012
21
226.520023205269
31
3.59464553902455e-005
  0
LINE
 8
Layer0
10
2734.14693321574
20
405.848604838642
30
0.000119751190605299
11
2734.94152632873
21
406.884138744575
31
0.00012099850726095
  0
LINE
 8
Layer0
10
2726.78176868416
20
227.19008142482
30
4.50218984752837e-005
11
2727.28127079669
21
225.984176650332
31
4.41329871517127e-005
  0
LINE
 8
Layer0
10
2916.84148692878
20
231.984175156067
30
8.81135022350321e-005
11
2916.04689381579
21
233.019709061999
31
8.81135022350321e-005
  0
LINE
 8
Layer0
10
2708.4299885805
20
413.065497816504
30
9.65706784974429e-005
11
2708.76135943039
21
413.31976761266
31
9.67526413692354e-005
  0
LINE
 8
Layer0
10
2932.01586875115
20
411.520066409107
30
0.000162660074884968
11
2931.96134962545
21
411.934176822315
31
0.000163203220191832
  0
LINE
 8
Layer0
10
2912.92997877619
20
430.302806280045
30
0.000147708703194382
11
2912.67570898003
21
430.634177129943
31
0.00014779776964744
  0
LINE
 8
Layer0
10
2932.76139978943
20
225.548546288205
30
6.22151396843407e-005
11
2932.43002893953
21
225.802816084362
31
6.22536566364573e-005
  0
LINE
 8
Layer0
10
2913.23700447425
20
432.801137083967
30
0.000157317600918105
11
2913.26134962608
21
432.819817775997
31
0.000148880513961558
  0
LINE
 8
Layer0
10
2896.56140121184
20
207.434186934259
30
6.24739209246883e-005
11
2906.56140121184
21
197.434186366202
31
6.5098925933782e-005
  0
LINE
 8
Layer0
10
2913.80545513537
20
224.654546024622
30
8.81135022350321e-005
11
2915.01135990985
21
225.154048137145
31
8.81135022350321e-005
  0
LINE
 8
Layer0
10
2916.3409905355
20
411.678232475872
30
0.000167756555369891
11
2915.84148842298
21
412.88413725036
31
0.000167666285129542
  0
LINE
 8
Layer0
10
2707.96140959442
20
226.934133618478
30
3.57365635252904e-005
11
2708.01592782459
21
227.348244149585
31
3.5551236456044e-005
  0
LINE
 8
Layer0
10
2932.43002893953
20
228.065557784157
30
6.32418851491678e-005
11
2932.76139978943
21
228.319827580314
31
6.34254674487522e-005
  0
LINE
 8
Layer0
10
2729.88576794221
20
430.067216478512
30
0.000133142093370608
11
2729.86135950622
21
430.048487184919
31
0.000127201849947411
  0
LINE
 8
Layer0
10
2727.67571649693
20
432.234125467678
30
0.000129636467874761
11
2727.92998593479
21
432.565496592504
31
0.000129601858809636
  0
LINE
 8
Layer0
10
2730.3173025901
20
223.654547518887
30
4.20083192302911e-005
11
2731.61139781561
21
223.484176650333
31
4.16420398750006e-005
  0
LINE
 8
Layer0
10
2731.61139781561
20
223.484176650333
30
4.16420398750006e-005
11
2732.90549304112
21
223.654547518887
31
4.14991670176335e-005
  0
LINE
 8
Layer0
10
2729.11139781561
20
224.15404963141
30
4.25730437328298e-005
11
2730.3173025901
21
223.654547518887
31
4.20083192302911e-005
  0
LINE
 8
Layer0
10
2913.23698951671
20
430.067228653237
30
0.000156467200229926
11
2912.92997877619
21
430.302806280045
31
0.000147708703194382
  0
LINE
 8
Layer0
10
2727.67571822696
20
430.634125467703
30
0.000128957209328107
11
2727.51587713371
21
431.020014822702
31
0.00012923122425299
  0
LINE
 8
Layer0
10
2916.04689381579
20
233.019709061999
30
8.81135022350321e-005
11
2915.01135990985
21
233.814302174989
31
8.81135022350321e-005
  0
LINE
 8
Layer0
10
2730.61139930981
20
414.384138744573
30
0.000125404064870338
11
2729.3173040843
21
414.213767876018
31
0.000124664951610143
  0
LINE
 8
Layer0
10
2728.64724586475
20
432.979607840212
30
0.000129283200070418
11
2729.06135627795
21
433.034126965913
31
0.000129020866439333
  0
LINE
 8
Layer0
10
2709.97551839547
20
228.479617118307
30
3.54528290106515e-005
11
2710.36140809613
21
228.319776859551
31
3.56160395565297e-005
  0
LINE
 8
Layer0
10
2727.28127079669
20
230.984176650331
30
4.74112253947112e-005
11
2726.78176868416
21
229.778271875844
31
4.67188394754459e-005
  0
LINE
 8
Layer0
10
2731.90549453532
20
414.213767876018
30
0.000125852740442767
11
2730.61139930981
21
414.384138744573
31
0.000125404064870338
  0
LINE
 8
Layer0
10
2736.56140959371
20
197.43413819331
30
2.061504579558e-005
11
2721.56140959374
21
197.434135348525
31
0.0
  0
LINE
 8
Layer0
10
2734.94152632873
20
406.884138744575
30
0.00012099850726095
11
2735.44102844126
21
408.090043519062
31
0.000122255617727873
  0
LINE
 8
Layer0
10
2909.01136140406
20
414.714264269283
30
0.000163548153348358
11
2907.97582749813
21
413.919671156294
31
0.000162712894616845
  0
LINE
 8
Layer0
10
2721.56135800799
20
419.434126966596
30
0.000112459413408672
11
2721.56135800798
21
441.434126966587
31
0.000131634814156811
  0
LINE
 8
Layer0
10
2907.97582749813
20
413.919671156294
30
0.000162712894616845
11
2907.18123438514
21
412.884137250362
31
0.000161988209974595
  0
LINE
 8
Layer0
10
2910.21726617855
20
415.213766381806
30
0.000164437064717049
11
2909.01136140406
21
414.714264269283
31
0.000163548153348358
  0
LINE
 8
Layer0
10
2913.64729241076
20
205.888705165108
30
6.8377878102055e-005
11
2913.2614027101
21
206.048545423863
31
6.80175076819722e-005
  0
LINE
 8
Layer0
10
2932.42997999886
20
410.802806479149
30
0.000161784733014514
11
2932.194439138
21
411.109768618109
31
0.000168096534950735
  0
LINE
 8
Layer0
10
2710.36135943039
20
410.548486320551
30
9.58764594194861e-005
11
2709.97546990256
21
410.388645644544
31
9.57243516907624e-005
  0
LINE
 8
Layer0
10
2729.88576769516
20
432.801037157521
30
0.000134909767838209
11
2730.19272763455
21
432.565499039133
31
0.000128041973639981
  0
LINE
 8
Layer0
10
2729.88576970311
20
208.801085247619
30
2.21524030877163e-005
11
2730.19278044364
21
208.565507620819
31
1.33229787515177e-005
  0
LINE
 8
Layer0
10
2914.86139971358
20
208.819828445956
30
7.10604624952538e-005
11
2915.1927708384
21
208.565559008104
31
7.13171467634055e-005
  0
LINE
 8
Layer0
10
2736.44102694705
20
227.19008142482
30
4.3121716715433e-005
11
2736.61139781561
21
228.484176650332
31
4.39366716431522e-005
  0
LINE
 8
Layer0
10
2709.14724895823
20
413.479608288668
30
9.69047490979591e-005
11
2709.5613594304
21
413.534126966605
31
9.70166357575408e-005
  0
LINE
 8
Layer0
10
2915.01135990985
20
225.154048137145
30
8.81135022350321e-005
11
2916.04689381579
21
225.948641250134
31
8.81135022350321e-005
  0
LINE
 8
Layer0
10
2711.16140959437
20
226.934137078532
30
3.64574837604437e-005
11
2711.1068913642
21
226.520026547425
31
3.66428108748096e-005
  0
LINE
 8
Layer0
10
2711.1068913642
20
226.520026547425
30
3.66428108748096e-005
11
2710.94705110544
21
226.134136846764
31
3.6790943443421e-005
  0
LINE
 8
Layer0
10
2915.60688208611
20
207.848299078144
30
7.14577444266951e-005
11
2915.66140121181
21
207.434188664936
31
7.13320763427561e-005
  0
LINE
 8
Layer0
10
2932.01586785562
20
412.348287353422
30
0.00016376867675767
11
2932.17570811438
21
412.734177054082
31
0.000164317909717937
  0
LINE
 8
Layer0
10
2730.6068909158
20
207.020026298757
30
1.27541457608515e-005
11
2730.4470502398
21
206.634136770921
31
1.2556565553723e-005
  0
LINE
 8
Layer0
10
2906.56134962611
20
441.434175707544
30
0.000161850791022644
11
2921.56134962608
21
441.434178552343
31
0.000150957663552731
  0
LINE
 8
Layer0
10
2709.5613594304
20
413.534126966605
30
9.70166357575408e-005
11
2709.97546990256
21
413.479608288667
31
9.70806764744481e-005
  0
LINE
 8
Layer0
10
2734.14693321574
20
412.919672650506
30
0.000125778349140404
11
2733.11139930981
21
413.714265763495
31
0.000125980401814374
  0
LINE
 8
Layer0
10
2730.44699951903
20
430.634128464198
30
0.000127046747865478
11
2730.19273008118
21
430.302757339371
31
0.000127081356885483
  0
LINE
 8
Layer0
10
2729.86135950622
20
430.048487184919
30
0.000127201849947411
11
2729.47547015122
21
429.888646091664
31
0.000127400015669821
  0
LINE
 8
Layer0
10
2734.94152632873
20
411.884138744573
30
0.000125260351933676
11
2734.14693321574
21
412.919672650506
31
0.000125778349140404
  0
LINE
 8
Layer0
10
2910.01135990985
20
233.814302174989
30
8.81135022350321e-005
11
2908.97582600392
21
233.019709061999
31
8.81135022350321e-005
  0
LINE
 8
Layer0
10
2943.56140121183
20
219.434186934259
30
5.87319545342524e-005
11
2921.56140121183
21
219.434186934259
31
6.92865619026151e-005
  0
LINE
 8
Layer0
10
2907.68173077841
20
228.190079930554
30
8.81135022350321e-005
11
2908.18123289093
21
226.984175156067
31
8.81135022350321e-005
  0
LINE
 8
Layer0
10
2915.04689530999
20
413.919671156293
30
0.000167349023604757
11
2914.01136140406
21
414.714264269282
31
0.000166826391636477
  0
LINE
 8
Layer0
10
2912.67575970079
20
208.234185436651
30
6.83469271425707e-005
11
2912.93002913864
21
208.565556561477
31
6.87813328273279e-005
  0
LINE
 8
Layer0
10
2911.21726468434
20
234.313804287512
30
8.81135022350321e-005
11
2910.01135990985
21
233.814302174989
31
8.81135022350321e-005
  0
LINE
 8
Layer0
10
2915.84148842298
20
412.88413725036
30
0.000167666285129542
11
2915.04689530999
21
413.919671156293
31
0.000167349023604757
  0
LINE
 8
Layer0
10
2730.19278044364
20
206.302765921023
30
1.23622076884544e-005
11
2729.88575474557
21
206.067176816889
31
2.06479610760368e-005
  0
LINE
 8
Layer0
10
2708.01592782459
20
227.348244149585
30
3.5551236456044e-005
11
2708.17576808335
21
227.734133850245
31
3.54031038874325e-005
  0
LINE
 8
Layer0
10
2730.19272763455
20
432.565499039133
30
0.000128041973639981
11
2730.446997789
21
432.234128464173
31
0.000127726006457252
  0
LINE
 8
Layer0
10
2708.17576808335
20
227.734133850245
30
3.54031038874325e-005
11
2708.19449940281
21
227.758545035685
31
4.19518631854743e-005
  0
LINE
 8
Layer0
10
2729.06135627795
20
433.034126965913
30
0.000129020866439333
11
2729.47546680906
21
432.97960873574
31
0.000128712242494444
  0
LINE
 8
Layer0
10
2932.76139978943
20
228.319827580314
30
6.34254674487522e-005
11
2933.14728931727
21
228.479668256321
31
6.35797422201989e-005
  0
LINE
 8
Layer0
10
2728.6472492069
20
429.888645196136
30
0.000127970973290914
11
2728.26135950624
21
430.048485454891
31
0.000128304855382311
  0
LINE
 8
Layer0
10
2730.66140959374
20
207.434136770921
30
1.29414836692376e-005
11
2730.6068909158
21
207.020026298757
31
1.27541457608515e-005
  0
LINE
 8
Layer0
10
2934.69271925199
20
413.065550625536
30
0.000165276493389399
11
2934.94698940644
21
412.734180050576
31
0.00016488497113798
  0
LINE
 8
Layer0
10
2914.47551001292
20
208.979668704712
30
7.07000921202905e-005
11
2914.86139971358
21
208.819828445956
31
7.10604624952538e-005
  0
LINE
 8
Layer0
10
2730.446997789
20
432.234128464173
30
0.000127726006457252
11
2730.60683888226
21
431.848239109174
31
0.000127451991487249
  0
LINE
 8
Layer0
10
2914.06139948181
20
209.034186934885
30
7.02605942077383e-005
11
2914.47551001292
21
208.979668704712
31
7.07000921202905e-005
  0
LINE
 8
Layer0
10
2933.14728931727
20
228.479668256321
30
6.35797422201989e-005
11
2933.56139978943
21
228.534186934258
31
6.3694195951669e-005
  0
LINE
 8
Layer0
10
2708.17571878434
20
411.134126966607
30
9.56691755046535e-005
11
2708.01587810833
21
411.520016494443
31
9.58045523947959e-005
  0
LINE
 8
Layer0
10
2914.47546009825
20
429.88869580788
30
0.000147866130146923
11
2914.06134962608
21
429.834177129943
31
0.000147751676415453
  0
LINE
 8
Layer0
10
2711.16135943039
20
411.934126966605
30
9.66544159357596e-005
11
2711.10684075246
21
411.520016494442
31
9.64611222581624e-005
  0
LINE
 8
Layer0
10
2910.01135990985
20
225.154048137145
30
8.81135022350321e-005
11
2911.21726468434
21
224.654546024622
31
8.81135022350321e-005
  0
LINE
 8
Layer0
10
2916.84148692878
20
226.984175156067
30
8.81135022350321e-005
11
2917.3409890413
21
228.190079930554
31
8.81135022350321e-005
  0
LINE
 8
Layer0
10
2907.18123438514
20
412.884137250362
30
0.000161988209974595
11
2906.68173227261
21
411.678232475874
31
0.000161423485426937
  0
LINE
 8
Layer0
10
2914.06134962608
20
433.034177129941
30
0.000149149242509594
11
2914.47546009825
21
432.979658452004
31
0.000149216075354275
  0
LINE
 8
Layer0
10
2931.96139978943
20
226.93418693426
30
6.26451942284945e-005
11
2932.01591846737
21
227.348297406423
31
6.28379859971773e-005
  0
LINE
 8
Layer0
10
2916.51136140406
20
410.38413725036
30
0.000167613682557644
11
2916.3409905355
21
411.678232475872
31
0.000167756555369891
  0
LINE
 8
Layer0
10
2932.01591846737
20
226.520076462096
30
6.24762692574166e-005
11
2931.96139978943
21
226.93418693426
31
6.26451942284945e-005
  0
LINE
 8
Layer0
10
2915.66140121181
20
207.434188664936
30
7.13320763427561e-005
11
2915.60688298164
21
207.020078133829
31
7.10842120273725e-005
  0
LINE
 8
Layer0
10
2730.61139930981
20
404.384138744575
30
0.000116880375479766
11
2731.90549453532
21
404.55450961313
31
0.000117619488694842
  0
LINE
 8
Layer0
10
2915.60688298164
20
207.020078133829
30
7.10842120273725e-005
11
2915.44704272288
21
206.634188433169
31
7.07310431248942e-005
  0
LINE
 8
Layer0
10
2915.84148842298
20
407.88413725036
30
0.000166682678699814
11
2916.3409905355
21
409.090042024847
31
0.000167247403247472
  0
LINE
 8
Layer0
10
2912.67570898003
20
432.234177129942
30
0.000148496552649391
11
2912.92997877619
21
432.565547979841
31
0.000148696931661974
  0
LINE
 8
Layer0
10
2935.10683139522
20
411.520069751263
30
0.000163292549691363
11
2934.94699113647
21
411.134180050602
31
0.000162743316685976
  0
LINE
 8
Layer0
10
2912.92997877619
20
432.565547979841
30
0.000148696931661974
11
2913.23700447425
21
432.801137083967
31
0.000157317600918105
  0
LINE
 8
Layer0
10
2906.56140121184
20
197.434186366202
30
6.5098925933782e-005
11
2921.56140121183
21
197.434186934259
31
6.92865619026151e-005
  0
LINE
 8
Layer0
10
2746.56135800798
20
431.434126966592
30
0.000128824340358236
11
2896.5613496261
21
431.43417381101
31
0.000158001022231602
  0
LINE
 8
Layer0
10
2909.01136140406
20
406.054010231439
30
0.000161844497037933
11
2910.21726617855
21
405.554508118916
31
0.000162536882957198
  0
LINE
 8
Layer0
10
2916.3409905355
20
409.090042024847
30
0.000167247403247472
11
2916.51136140406
21
410.38413725036
31
0.000167613682557644
  0
LINE
 8
Layer0
10
2731.90549453532
20
404.55450961313
30
0.000117619488694842
11
2733.11139930981
21
405.054011725653
31
0.000118598670303882
  0
LINE
 8
Layer0
10
2906.68173227261
20
411.678232475874
30
0.000161423485426937
11
2906.51136140406
21
410.384137250361
31
0.000161057206071646
  0
LINE
 8
Layer0
10
2914.47551335507
20
205.888706060635
30
6.93060503976994e-005
11
2914.06140294186
21
205.834186934935
31
6.88173760146071e-005
  0
LINE
 8
Layer0
10
2912.80545662957
20
405.554508118915
30
0.000164233823912241
11
2914.01136140406
21
406.054010231438
31
0.000165122735280931
  0
LINE
 8
Layer0
10
2735.61139930981
20
409.384138744574
30
0.000123436851965764
11
2735.44102844126
21
410.678233970086
31
0.000124461710850454
  0
LINE
 8
Layer0
10
2906.51136140406
20
410.384137250361
30
0.000161057206071646
11
2906.68173227261
21
409.090042024849
31
0.000160914333259399
  0
LINE
 8
Layer0
10
2932.01591846737
20
227.348297406423
30
6.28379859971773e-005
11
2932.17575914338
21
227.734186934259
31
6.30415061365852e-005
  0
LINE
 8
Layer0
10
2729.11139781561
20
232.814303669253
30
4.8251118932896e-005
11
2728.07586390967
21
232.019710556264
31
4.79338574081112e-005
  0
LINE
 8
Layer0
10
2907.97582749813
20
406.848603344429
30
0.000161321865069652
11
2909.01136140406
21
406.054010231439
31
0.000161844497037933
  0
LINE
 8
Layer0
10
2727.93003874384
20
208.56550762082
30
1.28454936344724e-005
11
2728.26140959374
21
208.819777416976
31
1.30233838881111e-005
  0
LINE
 8
Layer0
10
2915.19272047598
20
430.302806280044
30
0.000148203987217954
11
2914.86134962608
21
430.048536483888
31
0.00014802040491837
  0
LINE
 8
Layer0
10
2727.67576894769
20
206.634136770922
30
1.19717680785669e-005
11
2727.51592827168
21
207.020026298758
31
1.21018889572611e-005
  0
LINE
 8
Layer0
10
2729.06140959374
20
209.03413677092
30
1.32832183972198e-005
11
2729.47552006591
21
208.979618092983
31
1.33474553386748e-005
  0
LINE
 8
Layer0
10
2709.56140959374
20
244.434135348504
30
4.02930613972785e-005
11
2709.56136274932
21
394.434126966625
31
0.000102016573855224
  0
LINE
 8
Layer0
10
2707.9613594304
20
411.934126966606
30
9.59746848529619e-005
11
2708.01587810833
21
412.34823743877
31
9.61679785756786e-005
  0
LINE
 8
Layer0
10
2708.4299885805
20
410.802756116708
30
9.55777798495205e-005
11
2708.19439947636
21
411.109781814768
31
0.000104113035253661
  0
LINE
 8
Layer0
10
2727.46140959374
20
207.434136770922
30
1.22662177439281e-005
11
2727.51592827168
21
207.848247243085
31
1.24535555620753e-005
  0
LINE
 8
Layer0
10
2908.18123289093
20
231.984175156067
30
8.81135022350321e-005
11
2907.68173077841
21
230.778270381579
31
8.81135022350321e-005
  0
LINE
 8
Layer0
10
2910.21726617855
20
405.554508118916
30
0.000162536882957198
11
2911.51136140406
21
405.384137250361
31
0.000163351837839798
  0
LINE
 8
Layer0
10
2913.26134962608
20
430.048536483888
30
0.000147670186197146
11
2913.23698951671
21
430.067228653237
31
0.000156467200229926
  0
LINE
 8
Layer0
10
2729.3173040843
20
404.55450961313
30
0.000116431699907338
11
2730.61139930981
21
404.384138744575
31
0.000116880375479766
  0
LINE
 8
Layer0
10
2728.11139930981
20
413.714265763495
30
0.000123685770046222
11
2727.07586540388
21
412.919672650506
31
0.000122533249744805
  0
LINE
 8
Layer0
10
2725.61139930981
20
409.384138744575
30
0.000118847588384341
11
2725.78177017837
21
408.090043519062
31
0.00011782272949965
  0
LINE
 8
Layer0
10
2932.17575914338
20
227.734186934259
30
6.30415061365852e-005
11
2932.43002893953
21
228.065557784157
31
6.32418851491678e-005
  0
LINE
 8
Layer0
10
2727.07586540388
20
412.919672650506
30
0.000122533249744805
11
2726.28127229089
21
411.884138744574
31
0.000121285933089155
  0
LINE
 8
Layer0
10
2726.28127229089
20
411.884138744574
30
0.000121285933089155
11
2725.78177017837
21
410.678233970087
31
0.000120028822622231
  0
LINE
 8
Layer0
10
2728.11139930981
20
405.054011725654
30
0.000116304038490611
11
2729.3173040843
21
404.55450961313
31
0.000116431699907338
  0
LINE
 8
Layer0
10
2725.78177017837
20
410.678233970087
30
0.000120028822622231
11
2725.61139930981
21
409.384138744575
31
0.000118847588384341
  0
LINE
 8
Layer0
10
2736.56140959371
20
197.43413819331
30
2.061504579558e-005
11
2746.56140959372
21
207.434140089843
31
2.96777941134252e-005
  0
LINE
 8
Layer0
10
2710.69277922096
20
228.065507421699
30
3.58120283550534e-005
11
2710.92832008182
21
227.758545282734
31
4.19606909439096e-005
  0
LINE
 8
Layer0
10
2914.06140294186
20
205.834186934935
30
6.88173760146071e-005
11
2913.64729241076
21
205.888705165108
31
6.8377878102055e-005
  0
LINE
 8
Layer0
10
2932.76134812719
20
413.319818333361
30
0.000165221643823088
11
2933.14723748219
21
413.479659426615
31
0.000165514556945112
  0
LINE
 8
Layer0
10
2914.86140271007
20
206.04854715389
30
6.98105989361153e-005
11
2914.47551335507
21
205.888706060635
31
6.93060503976994e-005
  0
LINE
 8
Layer0
10
2934.69272169862
20
410.802808925776
30
0.000162247736723842
11
2934.36135112366
21
410.548538771323
31
0.000161839582625944
  0
LINE
 8
Layer0
10
2912.51591944203
20
207.84829573599
30
6.79937581498535e-005
11
2912.67575970079
21
208.234185436651
31
6.83469271425707e-005
  0
LINE
 8
Layer0
10
2911.51136140406
20
405.384137250361
30
0.000163351837839798
11
2912.80545662957
21
405.554508118915
31
0.000164233823912241
  0
LINE
 8
Layer0
10
2915.44704099285
20
208.234188433144
30
7.14526521989001e-005
11
2915.60688208611
21
207.848299078144
31
7.14577444266951e-005
  0
LINE
 8
Layer0
10
2912.93003158527
20
206.302814861716
30
6.77608235040594e-005
11
2912.67576143082
21
206.634185436676
31
6.76253180234454e-005
  0
LINE
 8
Layer0
10
2933.97546176866
20
410.388697678069
30
0.000161546669458801
11
2933.56135135545
21
410.334178552369
31
0.000161388958795072
  0
LINE
 8
Layer0
10
2736.61139781561
20
228.484176650332
30
4.39366716431522e-005
11
2736.44102694705
21
229.778271875844
31
4.48186577155951e-005
  0
LINE
 8
Layer0
10
2935.10688111149
20
227.348297406423
30
6.35145565968997e-005
11
2935.16139978943
21
226.934186934259
31
6.33456316709413e-005
 0
ENDSEC
 0
EOF
