 0
SECTION
 2
ENTITIES
  0
LINE
 8
Layer0
10
3945.38307838325
20
514.43452335047
30
4.22931396336534e-005
11
3945.06524113418
21
514.848736909868
31
4.23445657860344e-005
  0
LINE
 8
Layer0
10
4093.65101526573
20
279.434604766413
30
0.0
11
4093.65101672007
21
311.434541212669
31
2.49780419892431e-005
  0
LINE
 8
Layer0
10
4083.65101457348
20
511.434525580675
30
0.000201172917744347
11
4084.16865266354
21
511.502673929176
31
0.000201398104903056
  0
LINE
 8
Layer0
10
4093.65101672007
20
311.434541212669
30
2.49780419892431e-005
11
4103.65101669922
21
321.434541212665
31
3.41061783377117e-005
  0
LINE
 8
Layer0
10
4085.38306537896
20
512.434525584286
30
0.000202247507777115
11
4085.58286622297
21
512.916887494498
31
0.000202524125418968
  0
LINE
 8
Layer0
10
3944.651028257
20
291.166653236049
30
4.58306342517423e-005
11
3944.16866634679
21
291.366454080052
31
4.5730311050135e-005
  0
LINE
 8
Layer0
10
4093.65101539657
20
491.434528119435
30
0.000185143480675265
11
4093.65101454846
21
523.434525674275
31
0.00020963751823615
  0
LINE
 8
Layer0
10
3941.65102826061
20
289.434602422225
30
4.39693913420136e-005
11
3941.71917660911
21
288.916964332162
31
4.37799942560324e-005
  0
LINE
 8
Layer0
10
3941.91897745096
20
290.434602422783
30
4.44872306165189e-005
11
3941.71917660695
21
289.952240512572
31
4.42106165835177e-005
  0
LINE
 8
Layer0
10
3941.71917660695
20
289.952240512572
30
4.42106165835177e-005
11
3941.65102826061
21
289.434602422225
31
4.39693913420136e-005
  0
LINE
 8
Layer0
10
3942.23681469529
20
290.848815985819
30
4.47803843352634e-005
11
3941.91897745096
21
290.434602422783
31
4.44872306165189e-005
  0
LINE
 8
Layer0
10
4083.13337648313
20
511.502673927018
30
0.000201004423733941
11
4083.65101457348
21
511.434525580675
31
0.000201172917744347
  0
LINE
 8
Layer0
10
3945.06524182004
20
290.848815991717
30
4.5855945818285e-005
11
3944.651028257
21
291.166653236049
31
4.58306342517423e-005
  0
LINE
 8
Layer0
10
3945.3830790661
20
290.434602430006
30
4.58045182220812e-005
11
3945.06524182004
21
290.848815991717
31
4.5855945818285e-005
  0
LINE
 8
Layer0
10
3945.58287924247
20
512.916885262136
30
4.17378597642681e-005
11
3945.65102758504
21
513.434523352979
31
4.19790850057722e-005
  0
LINE
 8
Layer0
10
3941.91897745513
20
288.434602422784
30
4.36553352703095e-005
11
3942.23681470119
21
288.020388861074
31
4.36039076741057e-005
  0
LINE
 8
Layer0
10
3941.71917660911
20
288.916964332162
30
4.37799942560324e-005
11
3941.91897745513
21
288.434602422784
31
4.36553352703095e-005
  0
LINE
 8
Layer0
10
3945.65102758504
20
513.434523352979
30
4.19790850057722e-005
11
3945.58287923278
21
513.952161442546
31
4.21684828136648e-005
  0
LINE
 8
Layer0
10
3942.651028257
20
291.166653231878
30
4.50701002906784e-005
11
3942.23681469529
21
290.848815985819
31
4.47803843352634e-005
  0
LINE
 8
Layer0
10
3945.58287923278
20
513.952161442546
30
4.21684828136648e-005
11
3945.38307838325
21
514.43452335047
31
4.22931396336534e-005
  0
LINE
 8
Layer0
10
3943.13339016638
20
291.366454077894
30
4.53366298803159e-005
11
3942.651028257
21
291.166653231878
31
4.50701002906784e-005
  0
LINE
 8
Layer0
10
4085.06522813463
20
512.02031202125
30
0.000201954354057665
11
4085.38306537896
21
512.434525584286
31
0.000202247507777115
  0
LINE
 8
Layer0
10
3943.13338947676
20
515.36637498199
30
4.18252592329138e-005
11
3942.65102756883
21
515.166574132466
31
4.15587253118077e-005
  0
LINE
 8
Layer0
10
4085.65101456931
20
513.434525584844
30
0.000202765350661177
11
4085.58286622081
21
513.952163674908
31
0.000202954743414985
  0
LINE
 8
Layer0
10
4135.65101669922
20
321.434541361667
30
3.46664658514073e-005
11
4135.65101539657
21
481.434528268439
31
0.000182956601375983
  0
LINE
 8
Layer0
10
4081.91896376383
20
512.434525577064
30
0.000200930225224227
11
4082.23680100989
21
512.020312015354
31
0.000200878796906817
  0
LINE
 8
Layer0
10
3942.23681400943
20
514.848736883393
30
4.12690108002156e-005
11
3941.91897676812
21
514.434523318046
31
4.09758570814711e-005
  0
LINE
 8
Layer0
10
3943.65102756632
20
515.434523334258
30
4.20504456697113e-005
11
3943.13338947676
21
515.36637498199
31
4.18252592329138e-005
  0
LINE
 8
Layer0
10
3944.65102826422
20
287.702551620911
30
4.43897488702438e-005
11
3945.06524182593
21
288.020388866971
31
4.46794612161017e-005
  0
LINE
 8
Layer0
10
4082.23680100989
20
512.020312015354
30
0.000200878796906817
11
4082.65101457292
21
511.702474771022
31
0.000200904101254246
  0
LINE
 8
Layer0
10
3942.65102756883
20
515.166574132466
30
4.15587253118077e-005
11
3942.23681400943
21
514.848736883393
31
4.12690108002156e-005
  0
LINE
 8
Layer0
10
4093.65101539657
20
491.434528119435
30
0.000185143480675265
11
4103.65101539657
21
481.434528154914
31
0.000182355805968715
  0
LINE
 8
Layer0
10
4103.65101539657
20
481.434528154914
30
0.000182355805968715
11
4135.65101539657
21
481.434528268439
31
0.000182956601375983
  0
LINE
 8
Layer0
10
3944.16866634679
20
291.366454080052
30
4.5730311050135e-005
11
3943.65102825644
21
291.434602426395
31
4.55618163171134e-005
  0
LINE
 8
Layer0
10
4082.65101457292
20
511.702474771022
30
0.000200904101254246
11
4083.13337648313
21
511.502673927018
31
0.000201004423733941
  0
LINE
 8
Layer0
10
3941.71917592762
20
513.95216140638
30
4.0699241604647e-005
11
3941.65102758504
21
513.434523315538
31
4.04580163631429e-005
  0
LINE
 8
Layer0
10
3945.06524113418
20
514.848736909868
30
4.23445657860344e-005
11
3944.65102756883
21
515.166574151187
31
4.23192585509602e-005
  0
LINE
 8
Layer0
10
3941.65102758504
20
513.434523315538
30
4.04580163631429e-005
11
3941.71917593731
21
512.916885225971
31
4.0268621442896e-005
  0
LINE
 8
Layer0
10
3941.71917593731
20
512.916885225971
30
4.0268621442896e-005
11
3941.91897678684
21
512.434523318046
31
4.01439602914388e-005
  0
LINE
 8
Layer0
10
3941.91897678684
20
512.434523318046
30
4.01439602914388e-005
11
3942.23681403591
21
512.020309758648
31
4.0092532695235e-005
  0
LINE
 8
Layer0
10
3942.23681403591
20
512.020309758648
30
4.0092532695235e-005
11
3942.65102760126
21
511.70247251733
31
4.01178413741321e-005
  0
LINE
 8
Layer0
10
3942.65102760126
20
511.70247251733
30
4.01178413741321e-005
11
3943.13338951292
21
511.502671676836
31
4.02181609661822e-005
  0
LINE
 8
Layer0
10
3945.06524116065
20
512.020309785123
30
4.11680920125224e-005
11
3945.38307840197
21
512.434523350471
31
4.1461244287444e-005
  0
LINE
 8
Layer0
10
3944.65102760126
20
511.70247253605
30
4.08783760571074e-005
11
3945.06524116065
21
512.020309785123
31
4.11680920125224e-005
  0
LINE
 8
Layer0
10
3941.91897676812
20
514.434523318046
30
4.09758570814711e-005
11
3941.71917592762
21
513.95216140638
31
4.0699241604647e-005
  0
LINE
 8
Layer0
10
4084.16865266354
20
511.502673929176
30
0.000201398104903056
11
4084.65101457292
21
511.702474775191
31
0.00020166463810225
  0
LINE
 8
Layer0
10
4084.65101457292
20
511.702474775191
30
0.00020166463810225
11
4085.06522813463
21
512.02031202125
31
0.000201954354057665
  0
LINE
 8
Layer0
10
3945.58287991427
20
288.916964340218
30
4.52492347431388e-005
11
3945.65102826061
21
289.434602430565
31
4.549045854082e-005
  0
LINE
 8
Layer0
10
3945.06524182593
20
288.020388866971
30
4.46794612161017e-005
11
3945.38307907027
21
288.434602430007
31
4.49726192663147e-005
  0
LINE
 8
Layer0
10
4085.58286622297
20
512.916887494498
30
0.000202524125418968
11
4085.65101456931
21
513.434525584844
31
0.000202765350661177
  0
LINE
 8
Layer0
10
3943.13338951292
20
511.502671676836
30
4.02181609661822e-005
11
3943.65102760376
21
511.434523334259
31
4.03866556992039e-005
  0
LINE
 8
Layer0
10
3943.65102760376
20
511.434523334259
30
4.03866556992039e-005
11
3944.16866569333
21
511.502671686526
31
4.06118435798242e-005
  0
LINE
 8
Layer0
10
3945.65102826061
20
289.434602430565
30
4.549045854082e-005
11
3945.58287991211
21
289.952240520628
31
4.56798549048898e-005
  0
LINE
 8
Layer0
10
3945.58287991211
20
289.952240520628
30
4.56798549048898e-005
11
3945.3830790661
21
290.434602430006
31
4.58045182220812e-005
  0
LINE
 8
Layer0
10
3945.38307840197
20
512.434523350471
30
4.1461244287444e-005
11
3945.58287924247
21
512.916885262136
31
4.17378597642681e-005
  0
LINE
 8
Layer0
10
3942.23681470119
20
288.020388861074
30
4.36039076741057e-005
11
3942.65102826422
21
287.702551616741
31
4.36292149091799e-005
  0
LINE
 8
Layer0
10
3933.65102828146
20
279.434602332795
30
4.52927181039009e-005
11
4093.65101526573
21
279.434604766413
31
0.0
  0
LINE
 8
Layer0
10
3945.38307907027
20
288.434602430007
30
4.49726192663147e-005
11
3945.58287991427
21
288.916964340218
31
4.52492347431388e-005
  0
LINE
 8
Layer0
10
3944.16866569333
20
511.502671686526
30
4.06118435798242e-005
11
3944.65102760126
21
511.70247253605
31
4.08783760571074e-005
  0
LINE
 8
Layer0
10
4103.65101669922
20
321.434541212665
30
3.41061783377117e-005
11
4135.65101669922
21
321.434541361667
31
3.46664658514073e-005
  0
LINE
 8
Layer0
10
3943.65102825644
20
291.434602426395
30
4.55618163171134e-005
11
3943.13339016638
21
291.366454077894
31
4.53366298803159e-005
  0
LINE
 8
Layer0
10
3944.65102756883
20
515.166574151187
30
4.23192585509602e-005
11
3944.16866565717
21
515.366374991681
31
4.22189404027329e-005
  0
LINE
 8
Layer0
10
3944.16866565717
20
515.366374991681
30
4.22189404027329e-005
11
3943.65102756632
21
515.434523334258
31
4.20504456697113e-005
  0
LINE
 8
Layer0
10
3943.13339017444
20
287.502750772738
30
4.37295359450529e-005
11
3943.65102826478
21
287.434602426395
31
4.38980292342517e-005
  0
LINE
 8
Layer0
10
3942.65102826422
20
287.702551616741
30
4.36292149091799e-005
11
3943.13339017444
21
287.502750772738
31
4.37295359450529e-005
  0
LINE
 8
Layer0
10
3943.65102826478
20
287.434602426395
30
4.38980292342517e-005
11
3944.16866635485
21
287.502750774897
31
4.4123217114872e-005
  0
LINE
 8
Layer0
10
3944.16866635485
20
287.502750774897
30
4.4123217114872e-005
11
3944.65102826422
21
287.702551620911
31
4.43897488702438e-005
  0
LINE
 8
Layer0
10
4139.40096062788
20
739.387558358956
30
0.00112321241369444
11
4139.46910957295
21
739.905196370479
31
0.00112337068842338
  0
LINE
 8
Layer0
10
4329.46885023708
20
579.905207727169
30
0.00108933546980818
11
4329.46881333743
21
547.904989466383
31
0.00107108154833443
  0
LINE
 8
Layer0
10
4139.20115922595
20
738.905196679845
30
0.00112304366751206
11
4139.40096062788
21
739.387558358956
31
0.00112321241369444
  0
LINE
 8
Layer0
10
4339.46862487302
20
589.904977900089
30
0.00109243989748182
11
4329.46885023708
21
579.905207727169
31
0.00108933546980818
  0
LINE
 8
Layer0
10
4159.48045493056
20
590.386283703934
30
0.00099706009126917
11
4169.46886333011
21
579.905173228322
31
0.00099692991197205
  0
LINE
 8
Layer0
10
4375.4688593227
20
589.904937142542
30
0.00111541798758258
11
4375.46904195359
21
749.904924126779
31
0.00105187538889565
  0
LINE
 8
Layer0
10
4339.46862487302
20
589.904977900089
30
0.00109243989748182
11
4375.4688593227
21
589.904937142542
31
0.00111541798758258
  0
LINE
 8
Layer0
10
4169.46882643073
20
547.905173228349
30
0.00097592259513512
11
4329.46881333743
21
547.904989466383
31
0.00107108154833443
  0
LINE
 8
Layer0
10
4137.9867454327
20
737.973346429391
30
0.00112258846831518
11
4138.46910757317
21
738.17314671748
31
0.00112272068941537
  0
LINE
 8
Layer0
10
4137.46910726381
20
737.905198679618
30
0.00112248829617565
11
4137.9867454327
21
737.973346429391
31
0.00112258846831518
  0
LINE
 8
Layer0
10
4138.46910757317
20
738.17314671748
30
0.00112272068941537
11
4138.88332150251
21
738.490983484438
31
0.00112287594970377
  0
LINE
 8
Layer0
10
4138.88332150251
20
738.490983484438
30
0.00112287594970377
11
4139.20115922595
21
738.905196679845
31
0.00112304366751206
  0
LINE
 8
Layer0
10
4136.05489437777
20
738.49098675005
30
0.00112243481253554
11
4136.46910757318
21
738.173149026617
31
0.00112240875836607
  0
LINE
 8
Layer0
10
4135.73705761081
20
738.905200679388
30
0.00112250338693935
11
4136.05489437777
21
738.49098675005
31
0.00112243481253554
  0
LINE
 8
Layer0
10
4136.46910757318
20
738.173149026617
30
0.00112240875836607
11
4136.95146925229
21
737.973347624688
31
0.00112242700048321
  0
LINE
 8
Layer0
10
4136.95146925229
20
737.973347624688
30
0.00112242700048321
11
4137.46910726381
21
737.905198679618
31
0.00112248829617565
  0
LINE
 8
Layer0
10
4135.53725851802
20
740.422839000275
30
0.00112290510195539
11
4135.46910957295
21
739.905200988752
31
0.0011227468268655
  0
LINE
 8
Layer0
10
4136.9514737132
20
741.837050929841
30
0.0011235290469737
11
4136.46911157272
21
741.637250641752
31
0.00112339682605398
  0
LINE
 8
Layer0
10
4136.46911157272
20
741.637250641752
30
0.00112339682605398
11
4136.05489764338
21
741.319413874794
31
0.0011232415660363
  0
LINE
 8
Layer0
10
4136.05489764338
20
741.319413874794
30
0.0011232415660363
11
4135.73705991995
21
740.905200679386
31
0.00112307384831825
  0
LINE
 8
Layer0
10
4135.73705991995
20
740.905200679386
30
0.00112307384831825
11
4135.53725851802
21
740.422839000275
31
0.00112290510195539
  0
LINE
 8
Layer0
10
4135.46910957295
20
739.905200988752
30
0.0011227468268655
11
4135.53725732272
21
739.387562819866
31
0.00112260980923567
  0
LINE
 8
Layer0
10
4135.53725732272
20
739.387562819866
30
0.00112260980923567
11
4135.73705761081
21
738.905200679388
31
0.00112250338693935
  0
LINE
 8
Layer0
10
4360.05481529577
20
738.490728325075
30
0.00104915341943352
11
4360.46902849349
21
738.172890604656
31
0.0010491273658062
  0
LINE
 8
Layer0
10
4359.7369785258
20
738.904942252101
30
0.00104922199437806
11
4360.05481529577
21
738.490728325075
31
0.00104915341943352
  0
LINE
 8
Layer0
10
4359.5371782342
20
739.387304391126
30
0.0010493284169451
11
4359.7369785258
21
738.904942252101
31
0.00104922199437806
  0
LINE
 8
Layer0
10
4359.46903048067
20
739.904942559516
30
0.00104946543466588
11
4359.5371782342
21
739.387304391126
31
0.0010493284169451
  0
LINE
 8
Layer0
10
4360.95139017406
20
737.973089206236
30
0.00104914560846688
11
4361.46902818608
21
737.904940264931
31
0.00104920690416214
  0
LINE
 8
Layer0
10
4359.53717942197
20
740.422580571534
30
0.00104962370957599
11
4359.46903048067
21
739.904942559516
31
0.00104946543466588
  0
LINE
 8
Layer0
10
4360.46902849349
20
738.172890604656
30
0.0010491273658062
11
4360.95139017406
21
737.973089206236
31
0.00104914560846688
  0
LINE
 8
Layer0
10
4359.73698082039
20
740.904942252099
30
0.00104979245612145
11
4359.53717942197
21
740.422580571534
31
0.00104962370957599
  0
LINE
 8
Layer0
10
4360.05481854081
20
741.319155449819
30
0.00104996017366183
11
4359.73698082039
21
740.904942252099
31
0.00104979245612145
  0
LINE
 8
Layer0
10
4360.46903246783
20
741.63699221979
30
0.00105011543341091
11
4360.05481854081
21
741.319155449819
31
0.00104996017366183
  0
LINE
 8
Layer0
10
4360.95139460686
20
741.836792511388
30
0.0010502476551456
11
4360.46903246783
21
741.63699221979
31
0.00105011543341091
  0
LINE
 8
Layer0
10
4361.46903277525
20
741.904940264928
30
0.00105034782674652
11
4360.95139460686
21
741.836792511388
31
0.0010502476551456
  0
LINE
 8
Layer0
10
4361.98667078727
20
741.836791323623
30
0.00105040912198988
11
4361.46903277525
21
741.904940264928
31
0.00105034782674652
  0
LINE
 8
Layer0
10
4362.46903246783
20
741.636989925203
30
0.001050427365192
11
4361.98667078727
21
741.836791323623
31
0.00105040912198988
  0
LINE
 8
Layer0
10
4362.88324566555
20
741.319152204784
30
0.00105040131129466
11
4362.46903246783
21
741.636989925203
31
0.001050427365192
  0
LINE
 8
Layer0
10
4363.20108243552
20
740.904938277758
30
0.0010503327365306
11
4362.88324566555
21
741.319152204784
31
0.00105040131129466
  0
LINE
 8
Layer0
10
4363.40088272712
20
740.422576138733
30
0.00105022631378308
11
4363.20108243552
21
740.904938277758
31
0.0010503327365306
  0
LINE
 8
Layer0
10
4363.46903048066
20
739.904937970343
30
0.00105008929597207
11
4363.40088272712
21
740.422576138733
31
0.00105022631378308
  0
LINE
 8
Layer0
10
4363.40088153936
20
739.387299958325
30
0.00104993102115219
11
4363.46903048066
21
739.904937970343
31
0.00105008929597207
  0
LINE
 8
Layer0
10
4363.20108014094
20
738.90493827776
30
0.00104976227478721
11
4363.40088153936
21
739.387299958325
31
0.00104993102115219
  0
LINE
 8
Layer0
10
4362.88324242052
20
738.49072508004
30
0.00104959455706635
11
4363.20108014094
21
738.90493827776
31
0.00104976227478721
  0
LINE
 8
Layer0
10
4362.46902849349
20
738.172888310069
30
0.00104943929722703
11
4362.88324242052
21
738.49072508004
31
0.00104959455706635
  0
LINE
 8
Layer0
10
4361.4688684865
20
597.904953280679
30
0.00111584575714103
11
4361.98650665539
21
597.973101030452
31
0.00111594592928056
  0
LINE
 8
Layer0
10
4360.95123047498
20
597.97310222575
30
0.00111578446189978
11
4361.4688684865
21
597.904953280679
31
0.00111584575714103
  0
LINE
 8
Layer0
10
4360.46886879587
20
598.172903627679
30
0.00111576621869978
11
4360.95123047498
21
597.97310222575
31
0.00111578446189978
  0
LINE
 8
Layer0
10
4360.05465560046
20
598.490741351112
30
0.00111579227332115
11
4360.46886879587
21
598.172903627679
31
0.00111576621869978
  0
LINE
 8
Layer0
10
4359.7368188335
20
598.90495528045
30
0.00111586084772496
11
4360.05465560046
21
598.490741351112
31
0.00111579227332115
  0
LINE
 8
Layer0
10
4359.53701854541
20
599.387317420929
30
0.00111596727047247
11
4359.7368188335
21
598.90495528045
31
0.00111586084772496
  0
LINE
 8
Layer0
10
4359.46887079564
20
599.904955589815
30
0.0011161042881023
11
4359.53701854541
21
599.387317420929
31
0.00111596727047247
  0
LINE
 8
Layer0
10
4359.53701974071
20
600.422593601338
30
0.00111626256292077
11
4359.46887079564
21
599.904955589815
31
0.0011161042881023
  0
LINE
 8
Layer0
10
4359.73682114264
20
600.904955280448
30
0.00111643130928434
11
4359.53701974071
21
600.422593601338
31
0.00111626256292077
  0
LINE
 8
Layer0
10
4360.05465886607
20
601.319168475856
30
0.00111659902736334
11
4359.73682114264
21
600.904955280448
31
0.00111643130928434
  0
LINE
 8
Layer0
10
4360.46887279541
20
601.637005242814
30
0.00111675428683959
11
4360.05465886607
21
601.319168475856
31
0.00111659902736334
  0
LINE
 8
Layer0
10
4360.95123493589
20
601.836805530903
30
0.00111688650875194
11
4360.46887279541
21
601.637005242814
31
0.00111675428683959
  0
LINE
 8
Layer0
10
4361.46887310478
20
601.904953280676
30
0.00111698667971836
11
4360.95123493589
21
601.836805530903
31
0.00111688650875194
  0
LINE
 8
Layer0
10
4361.9865111163
20
601.836804335606
30
0.00111704797595223
11
4361.46887310478
21
601.904953280676
31
0.00111698667971836
  0
LINE
 8
Layer0
10
4362.46887279541
20
601.637002933677
30
0.0011170662186108
11
4361.9865111163
21
601.836804335606
31
0.00111704797595223
  0
LINE
 8
Layer0
10
4362.88308599082
20
601.319165210243
30
0.00111704016471205
11
4362.46887279541
21
601.637002933677
31
0.0011170662186108
  0
LINE
 8
Layer0
10
4363.20092275778
20
600.904951280905
30
0.00111697158931491
11
4362.88308599082
21
601.319165210243
31
0.00111704016471205
  0
LINE
 8
Layer0
10
4363.40072304587
20
600.422589140427
30
0.0011168651672893
11
4363.20092275778
21
600.904951280905
31
0.00111697158931491
  0
LINE
 8
Layer0
10
4363.46887079564
20
599.904950971541
30
0.00111672814938876
11
4363.40072304587
21
600.422589140427
31
0.0011168651672893
  0
LINE
 8
Layer0
10
4363.40072185057
20
599.387312960018
30
0.00111656987466053
11
4363.46887079564
21
599.904950971541
31
0.00111672814938876
  0
LINE
 8
Layer0
10
4363.20092044864
20
598.904951280907
30
0.00111640112847814
11
4363.40072185057
21
599.387312960018
31
0.00111656987466053
  0
LINE
 8
Layer0
10
4362.88308272521
20
598.490738085499
30
0.00111623341003748
11
4363.20092044864
21
598.904951280907
31
0.00111640112847814
  0
LINE
 8
Layer0
10
4362.46886879587
20
598.172901318542
30
0.0011160781504717
11
4362.88308272521
21
598.490738085499
31
0.00111623341003748
  0
LINE
 8
Layer0
10
4361.98650665539
20
597.973101030452
30
0.00111594592928056
11
4362.46886879587
21
598.172901318542
31
0.0011160781504717
  0
LINE
 8
Layer0
10
4317.73677355025
20
558.905003769833
30
0.00107622447290311
11
4317.53697214903
21
558.42264209043
31
0.00107605572653955
  0
LINE
 8
Layer0
10
4318.05461127308
20
559.319216965706
30
0.00107639219053163
11
4317.73677355025
21
558.905003769833
31
0.00107622447290311
  0
LINE
 8
Layer0
10
4318.46882520195
20
559.637053733269
30
0.00107654745054931
11
4318.05461127308
21
559.319216965706
31
0.00107639219053163
  0
LINE
 8
Layer0
10
4318.95118734214
20
559.836854022064
30
0.00107667967192093
11
4318.46882520195
21
559.637053733269
31
0.00107654745054931
  0
LINE
 8
Layer0
10
4319.46882551093
20
559.905001772594
30
0.00107677984342949
11
4318.95118734214
21
559.836854022064
31
0.00107667967192093
  0
LINE
 8
Layer0
10
4319.98646352255
20
559.836852828281
30
0.00107684113930311
11
4319.46882551093
21
559.905001772594
31
0.00107677984342949
  0
LINE
 8
Layer0
10
4320.46882520195
20
559.637051427057
30
0.00107685938205192
11
4319.98646352255
21
559.836852828281
31
0.00107684113930311
  0
LINE
 8
Layer0
10
4320.88303839782
20
559.31921370423
30
0.00107683332761174
11
4320.46882520195
21
559.637051427057
31
0.00107685938205192
  0
LINE
 8
Layer0
10
4321.20087516539
20
558.904999775357
30
0.00107676475320793
11
4320.88303839782
21
559.31921370423
31
0.00107683332761174
  0
LINE
 8
Layer0
10
4321.40067545418
20
558.422637635171
30
0.00107665833018969
11
4321.20087516539
21
558.904999775357
31
0.00107676475320793
  0
LINE
 8
Layer0
10
4321.46882320471
20
557.904999466384
30
0.00107652131328178
11
4321.40067545418
21
558.422637635171
31
0.00107665833018969
  0
LINE
 8
Layer0
10
4321.4006742604
20
557.387361454762
30
0.00107636303756021
11
4321.46882320471
21
557.904999466384
31
0.00107652131328178
  0
LINE
 8
Layer0
10
4321.20087285918
20
556.904999775359
30
0.00107619429119735
11
4321.4006742604
21
557.387361454762
31
0.00107636303756021
  0
LINE
 8
Layer0
10
4320.88303513635
20
556.490786579486
30
0.00107602657374932
11
4321.20087285918
21
556.904999775359
31
0.00107619429119735
  0
LINE
 8
Layer0
10
4320.46882120748
20
556.172949811923
30
0.00107587131373093
11
4320.88303513635
21
556.490786579486
31
0.00107602657374932
  0
LINE
 8
Layer0
10
4319.98645906729
20
555.973149523128
30
0.00107573909217883
11
4320.46882120748
21
556.172949811923
31
0.00107587131373093
  0
LINE
 8
Layer0
10
4319.4688208985
20
555.905001772598
30
0.00107563892085075
11
4319.98645906729
21
555.973149523128
31
0.00107573909217883
  0
LINE
 8
Layer0
10
4318.95118288688
20
555.973150716911
30
0.00107557762515831
11
4319.4688208985
21
555.905001772598
31
0.00107563892085075
  0
LINE
 8
Layer0
10
4318.46882120748
20
556.172952118134
30
0.00107555938231856
11
4318.95118288688
21
555.973150716911
31
0.00107557762515831
  0
LINE
 8
Layer0
10
4318.0546080116
20
556.490789840962
30
0.00107558543648802
11
4318.46882120748
21
556.172952118134
31
0.00107555938231856
  0
LINE
 8
Layer0
10
4317.73677124404
20
556.905003769835
30
0.00107565401143327
11
4318.0546080116
21
556.490789840962
31
0.00107558543648802
  0
LINE
 8
Layer0
10
4317.53697095525
20
557.387365910021
30
0.00107576043391007
11
4317.73677124404
21
556.905003769835
31
0.00107565401143327
  0
LINE
 8
Layer0
10
4317.46882320471
20
557.905004078808
30
0.00107589745117894
11
4317.53697095525
21
557.387365910021
31
0.00107576043391007
  0
LINE
 8
Layer0
10
4317.53697214903
20
558.42264209043
30
0.00107605572653955
11
4317.46882320471
21
557.905004078808
31
0.00107589745117894
  0
LINE
 8
Layer0
10
4179.98647661582
20
559.837014259412
30
0.00098378581087204
11
4179.4688386042
21
559.905163203725
31
0.000983724514998413
  0
LINE
 8
Layer0
10
4180.46883829523
20
559.637212858188
30
0.000983804053621551
11
4179.98647661582
21
559.837014259412
31
0.00098378581087204
  0
LINE
 8
Layer0
10
4180.8830514911
20
559.31937513536
30
0.000983778000173996
11
4180.46883829523
21
559.637212858188
31
0.000983804053621551
  0
LINE
 8
Layer0
10
4181.20088825866
20
558.905161206487
30
0.000983709424777557
11
4180.8830514911
21
559.31937513536
31
0.000983778000173996
  0
LINE
 8
Layer0
10
4181.40068854746
20
558.422799066301
30
0.000983603002751954
11
4181.20088825866
21
558.905161206487
31
0.000983709424777557
  0
LINE
 8
Layer0
10
4181.46883629799
20
557.905160897514
30
0.000983465984851406
11
4181.40068854746
21
558.422799066301
31
0.000983603002751954
  0
LINE
 8
Layer0
10
4181.40068735367
20
557.387522885892
30
0.000983307709941994
11
4181.46883629799
21
557.905160897514
31
0.000983465984851406
  0
LINE
 8
Layer0
10
4181.20088595245
20
556.905161206489
30
0.000983138963758906
11
4181.40068735367
21
557.387522885892
31
0.000983307709941994
  0
LINE
 8
Layer0
10
4180.88304822962
20
556.490948010616
30
0.000982971245769437
11
4181.20088595245
21
556.905161206489
31
0.000983138963758906
  0
LINE
 8
Layer0
10
4180.46883430075
20
556.173111243053
30
0.000982815985660812
11
4180.88304822962
21
556.490948010616
31
0.000982971245769437
  0
LINE
 8
Layer0
10
4179.98647216056
20
555.973310954258
30
0.000982683764198955
11
4180.46883430075
21
556.173111243053
31
0.000982815985660812
  0
LINE
 8
Layer0
10
4179.46883399178
20
555.905163203728
30
0.000982583592871578
11
4179.98647216056
21
555.973310954258
31
0.000982683764198955
  0
LINE
 8
Layer0
10
4178.95119598015
20
555.973312148041
30
0.000982522296727234
11
4179.46883399178
21
555.905163203728
31
0.000982583592871578
  0
LINE
 8
Layer0
10
4178.46883430075
20
556.173113549265
30
0.000982504054609395
11
4178.95119598015
21
555.973312148041
31
0.000982522296727234
  0
LINE
 8
Layer0
10
4178.05462110488
20
556.490951272092
30
0.000982530108417906
11
4178.46883430075
21
556.173113549265
31
0.000982504054609395
  0
LINE
 8
Layer0
10
4177.73678433731
20
556.905165200965
30
0.000982598683002195
11
4178.05462110488
21
556.490951272092
31
0.000982530108417906
  0
LINE
 8
Layer0
10
4177.53698404852
20
557.387527341152
30
0.000982705105478992
11
4177.73678433731
21
556.905165200965
31
0.000982598683002195
  0
LINE
 8
Layer0
10
4177.46883629799
20
557.905165509938
30
0.000982842123108824
11
4177.53698404852
21
557.387527341152
31
0.000982705105478992
  0
LINE
 8
Layer0
10
4177.5369852423
20
558.422803521561
30
0.000983000397927997
11
4177.46883629799
21
557.905165509938
31
0.000982842123108824
  0
LINE
 8
Layer0
10
4177.73678664353
20
558.905165200964
30
0.00098316914447204
11
4177.5369852423
21
558.422803521561
31
0.000983000397927997
  0
LINE
 8
Layer0
10
4178.05462436636
20
559.319378396837
30
0.000983336862281031
11
4177.73678664353
21
558.905165200964
31
0.00098316914447204
  0
LINE
 8
Layer0
10
4178.46883829523
20
559.6372151644
30
0.000983492122298712
11
4178.05462436636
21
559.319378396837
31
0.000983336862281031
  0
LINE
 8
Layer0
10
4178.95120043541
20
559.837015453195
30
0.000983624343399614
11
4178.46883829523
21
559.6372151644
31
0.000983492122298712
  0
LINE
 8
Layer0
10
4179.4688386042
20
559.905163203725
30
0.000983724514998413
11
4178.95120043541
21
559.837015453195
31
0.000983624343399614
  0
LINE
 8
Layer0
10
4136.95131401407
20
601.837063941963
30
0.000988481747898112
11
4136.46895187504
21
601.637263650365
31
0.000988349527246291
  0
LINE
 8
Layer0
10
4137.46895218246
20
601.905211695502
30
0.000988581919950221
11
4136.95131401407
21
601.837063941963
31
0.000988481747898112
  0
LINE
 8
Layer0
10
4137.98659019448
20
601.837062754197
30
0.000988643215554541
11
4137.46895218246
21
601.905211695502
31
0.000988581919950221
  0
LINE
 8
Layer0
10
4138.46895187504
20
601.637261355777
30
0.000988661458305462
11
4137.98659019448
21
601.837062754197
31
0.000988643215554541
  0
LINE
 8
Layer0
10
4138.88316507276
20
601.319423635357
30
0.000988635404137406
11
4138.46895187504
21
601.637261355777
31
0.000988661458305462
  0
LINE
 8
Layer0
10
4139.20100184273
20
600.905209708331
30
0.000988566829553822
11
4138.88316507276
21
601.319423635357
31
0.000988635404137406
  0
LINE
 8
Layer0
10
4139.40080213433
20
600.422847569306
30
0.000988460406986785
11
4139.20100184273
21
600.905209708331
31
0.000988566829553822
  0
LINE
 8
Layer0
10
4139.46894988787
20
599.905209400915
30
0.000988323389987922
11
4139.40080213433
21
600.422847569306
31
0.000988460406986785
  0
LINE
 8
Layer0
10
4139.40080094656
20
599.387571388897
30
0.000988165114536371
11
4139.46894988787
21
599.905209400915
31
0.000988323389987922
  0
LINE
 8
Layer0
10
4139.20099954814
20
598.905209708333
30
0.000987996368171395
11
4139.40080094656
21
599.387571388897
31
0.000988165114536371
  0
LINE
 8
Layer0
10
4138.88316182772
20
598.490996510613
30
0.000987828650631006
11
4139.20099954814
21
598.905209708333
31
0.000987996368171395
  0
LINE
 8
Layer0
10
4138.4689479007
20
598.173159740642
30
0.000987673390340493
11
4138.88316182772
21
598.490996510613
31
0.000987828650631006
  0
LINE
 8
Layer0
10
4137.98658576167
20
597.973359449043
30
0.000987541169327716
11
4138.4689479007
21
598.173159740642
31
0.000987673390340493
  0
LINE
 8
Layer0
10
4137.46894759328
20
597.905211695505
30
0.000987440997546324
11
4137.98658576167
21
597.973359449043
31
0.000987541169327716
  0
LINE
 8
Layer0
10
4136.95130958126
20
597.97336063681
30
0.000987379701399865
11
4137.46894759328
21
597.905211695505
31
0.000987440997546324
  0
LINE
 8
Layer0
10
4136.4689479007
20
598.173162035229
30
0.000987361459191083
11
4136.95130958126
21
597.97336063681
31
0.000987379701399865
  0
LINE
 8
Layer0
10
4136.05473470298
20
598.490999755649
30
0.000987387513178661
11
4136.4689479007
21
598.173162035229
31
0.000987361459191083
  0
LINE
 8
Layer0
10
4135.73689793301
20
598.905213682675
30
0.000987456087852484
11
4136.05473470298
21
598.490999755649
31
0.000987387513178661
  0
LINE
 8
Layer0
10
4135.53709764141
20
599.3875758217
30
0.00098756251050976
11
4135.73689793301
21
598.905213682675
31
0.000987456087852484
  0
LINE
 8
Layer0
10
4135.46894988787
20
599.90521399009
30
0.000987699527598862
11
4135.53709764141
21
599.3875758217
31
0.00098756251050976
  0
LINE
 8
Layer0
10
4135.53709882918
20
600.422852002109
30
0.000987857802779696
11
4135.46894988787
21
599.90521399009
31
0.000987699527598862
  0
LINE
 8
Layer0
10
4135.7369002276
20
600.905213682673
30
0.000988026548693477
11
4135.53709882918
21
600.422852002109
31
0.000987857802779696
  0
LINE
 8
Layer0
10
4136.05473794802
20
601.319426880394
30
0.000988194267497211
11
4135.7369002276
21
600.905213682673
31
0.000988026548693477
  0
LINE
 8
Layer0
10
4136.46895187504
20
601.637263650365
30
0.000988349527246291
11
4136.05473794802
21
601.319426880394
31
0.000988194267497211
  0
LINE
 8
Layer0
10
4375.46904195359
20
749.904924126779
30
0.00105187538889565
11
4123.46912104589
21
749.905214817748
31
0.00113225248734071
  0
LINE
 8
Layer0
10
4169.46886333011
20
579.905173228322
30
0.00099692991197205
11
4169.46882643073
21
547.905173228349
31
0.00097592259513512
  0
LINE
 8
Layer0
10
4317.46883413886
20
565.888265148283
30
0.0
11
4324.46884819286
21
578.388258313414
31
5.68834174981547e-006
  0
LINE
 8
Layer0
10
4281.46883891393
20
565.888306787794
30
2.52528736786439e-005
11
4317.46883413886
21
565.888265148283
31
0.0
  0
LINE
 8
Layer0
10
4281.46886783027
20
590.888313299198
30
2.63966121137604e-005
11
4274.46885296794
21
578.388316146075
31
2.37395076454483e-005
  0
LINE
 8
Layer0
10
4317.4688630552
20
590.888271659685
30
7.20621400555621e-006
11
4281.46886783027
21
590.888313299198
31
2.63966121137604e-005
  0
LINE
 8
Layer0
10
4324.46884819286
20
578.388258313414
30
5.68834174981547e-006
11
4317.4688630552
21
590.888271659685
31
7.20621400555621e-006
  0
LINE
 8
Layer0
10
4274.46885296794
20
578.388316146075
30
2.37395076454483e-005
11
4281.46883891393
21
565.888306787794
31
2.52528736786439e-005
  0
LINE
 8
Layer0
10
4123.46912104589
20
749.905214817748
30
0.00113225248734071
11
4123.46894061018
21
590.386111788832
31
0.00100641659568373
  0
LINE
 8
Layer0
10
4159.48045493056
20
590.386283703934
30
0.00099706009126917
11
4123.46894061018
21
590.386111788832
31
0.00100641659568373
  0
LINE
 8
Layer0
10
4137.46911188208
20
741.905198679615
30
0.00112362921875227
11
4136.9514737132
21
741.837050929841
31
0.0011235290469737
  0
LINE
 8
Layer0
10
4361.98666635447
20
737.973088018471
30
0.00104930707558258
11
4362.46902849349
21
738.172888310069
31
0.00104943929722703
  0
LINE
 8
Layer0
10
4361.46902818608
20
737.904940264931
30
0.00104920690416214
11
4361.98666635447
21
737.973088018471
31
0.00104930707558258
  0
LINE
 8
Layer0
10
4137.98674989361
20
741.837049734544
30
0.00112369051444471
11
4137.46911188208
21
741.905198679615
31
0.00112362921875227
  0
LINE
 8
Layer0
10
4138.88332476813
20
741.319410609182
30
0.00112368270374597
11
4138.46911157272
21
741.637248332615
31
0.001123708757374
  0
LINE
 8
Layer0
10
4138.46911157272
20
741.637248332615
30
0.001123708757374
11
4137.98674989361
21
741.837049734544
31
0.00112369051444471
  0
LINE
 8
Layer0
10
4139.40096182317
20
740.422834539365
30
0.0011235077065044
11
4139.20116153508
21
740.905196679844
31
0.00112361412834953
  0
LINE
 8
Layer0
10
4139.46910957295
20
739.905196370479
30
0.00112337068842338
11
4139.40096182317
21
740.422834539365
31
0.0011235077065044
  0
LINE
 8
Layer0
10
4139.20116153508
20
740.905196679844
30
0.00112361412834953
11
4138.88332476813
21
741.319410609182
31
0.00112368270374597
  0
LINE
 8
Layer0
10
4123.71916300247
20
471.952164652527
30
0.000178310326528658
11
4123.65101465689
21
471.43452656208
31
0.000178069101287154
  0
LINE
 8
Layer0
10
4123.91896384577
20
472.43452656303
30
0.000178586944893128
11
4123.71916300247
21
471.952164652527
31
0.000178310326528658
  0
LINE
 8
Layer0
10
4124.2368010895
20
472.848740126531
30
0.000178880096446138
11
4123.91896384577
21
472.43452656303
31
0.000178586944893128
  0
LINE
 8
Layer0
10
4124.65101465074
20
473.166577373196
30
0.000179169811679641
11
4124.2368010895
21
472.848740126531
31
0.000178880096446138
  0
LINE
 8
Layer0
10
4125.13337655983
20
473.366378219916
30
0.000179436344878836
11
4124.65101465074
21
473.166577373196
31
0.000179169811679641
  0
LINE
 8
Layer0
10
4125.65101464979
20
473.434526569174
30
0.000179661531315634
11
4125.13337655983
21
473.366378219916
31
0.000179436344878836
  0
LINE
 8
Layer0
10
4126.16865274024
20
473.366378223589
30
0.000179830026048655
11
4125.65101464979
21
473.434526569174
31
0.000179661531315634
  0
LINE
 8
Layer0
10
4126.65101465074
20
473.166577380291
30
0.000179930347084528
11
4126.16865274024
21
473.366378223589
31
0.000179830026048655
  0
LINE
 8
Layer0
10
4127.06522821424
20
472.848740136565
30
0.000179955651431957
11
4126.65101465074
21
473.166577380291
31
0.000179930347084528
  0
LINE
 8
Layer0
10
4127.38306546091
20
472.434526575319
30
0.000179904226001487
11
4127.06522821424
21
472.848740136565
31
0.000179955651431957
  0
LINE
 8
Layer0
10
4127.58286630763
20
471.952164666233
30
0.000179779569181499
11
4127.38306546091
21
472.434526575319
31
0.000179904226001487
  0
LINE
 8
Layer0
10
4127.65101465688
20
471.43452657627
30
0.000179590169929783
11
4127.58286630763
21
471.952164666233
31
0.000179779569181499
  0
LINE
 8
Layer0
10
4127.5828663113
20
470.916888485823
30
0.000179348944688279
11
4127.65101465688
21
471.43452657627
31
0.000179590169929783
  0
LINE
 8
Layer0
10
4127.383065468
20
470.43452657532
30
0.000179072330655278
11
4127.5828663113
21
470.916888485823
31
0.000179348944688279
  0
LINE
 8
Layer0
10
4127.06522822428
20
470.020313011819
30
0.000178779177658445
11
4127.383065468
21
470.43452657532
31
0.000179072330655278
  0
LINE
 8
Layer0
10
4126.65101466303
20
469.702475765154
30
0.000178489462424941
11
4127.06522822428
21
470.020313011819
31
0.000178779177658445
  0
LINE
 8
Layer0
10
4126.16865275394
20
469.502674918433
30
0.000178222927781924
11
4126.65101466303
21
469.702475765154
31
0.000178489462424941
  0
LINE
 8
Layer0
10
4125.65101466398
20
469.434526569175
30
0.000177997741345126
11
4126.16865275394
21
469.502674918433
31
0.000178222927781924
  0
LINE
 8
Layer0
10
4125.13337657353
20
469.502674914761
30
0.000177829246612105
11
4125.65101466398
21
469.434526569175
31
0.000177997741345126
  0
LINE
 8
Layer0
10
4123.71916350289
20
331.952177745749
30
3.73234598574024e-005
11
4123.6510151573
21
331.434539655302
31
3.70822324501641e-005
  0
LINE
 8
Layer0
10
4123.91896434618
20
332.434539656253
30
3.76000724465808e-005
11
4123.71916350289
21
331.952177745749
31
3.73234598574024e-005
  0
LINE
 8
Layer0
10
4124.23680158991
20
332.848753219753
30
3.78932261653253e-005
11
4123.91896434618
21
332.434539656253
31
3.76000724465808e-005
  0
LINE
 8
Layer0
10
4124.65101515116
20
333.166590466419
30
3.81829377892717e-005
11
4124.23680158991
21
332.848753219753
31
3.78932261653253e-005
  0
LINE
 8
Layer0
10
4125.13337706024
20
333.366391313139
30
3.84494709884664e-005
11
4124.65101515116
21
333.166590466419
31
3.81829377892717e-005
  0
LINE
 8
Layer0
10
4125.6510151502
20
333.434539662397
30
3.86746581471753e-005
11
4125.13337706024
21
333.366391313139
31
3.84494709884664e-005
  0
LINE
 8
Layer0
10
4126.16865324065
20
333.366391316812
30
3.88431528801969e-005
11
4125.6510151502
21
333.434539662397
31
3.86746581471753e-005
  0
LINE
 8
Layer0
10
4126.65101515115
20
333.166590473514
30
3.89434753598927e-005
11
4126.16865324065
21
333.366391316812
31
3.88431528801969e-005
  0
LINE
 8
Layer0
10
4127.06522871466
20
332.848753229787
30
3.89687869264355e-005
11
4126.65101515115
21
333.166590473514
31
3.89434753598927e-005
  0
LINE
 8
Layer0
10
4127.38306596132
20
332.434539668541
30
3.89173593302317e-005
11
4127.06522871466
21
332.848753229787
31
3.89687869264355e-005
  0
LINE
 8
Layer0
10
4127.58286680804
20
331.952177759455
30
3.87926960130403e-005
11
4127.38306596132
21
332.434539668541
31
3.89173593302317e-005
  0
LINE
 8
Layer0
10
4127.6510151573
20
331.434539669492
30
3.86033003708819e-005
11
4127.58286680804
21
331.952177759455
31
3.87926960130403e-005
  0
LINE
 8
Layer0
10
4127.58286681171
20
330.916901579045
30
3.83620758512893e-005
11
4127.6510151573
21
331.434539669492
31
3.86033003708819e-005
  0
LINE
 8
Layer0
10
4127.38306596842
20
330.434539668542
30
3.80854603744651e-005
11
4127.58286681171
21
330.916901579045
31
3.83620758512893e-005
  0
LINE
 8
Layer0
10
4127.06522872469
20
330.020326105041
30
3.77923059338092e-005
11
4127.38306596842
21
330.434539668542
31
3.80854603744651e-005
  0
LINE
 8
Layer0
10
4126.65101516344
20
329.702488858376
30
3.75025907003057e-005
11
4127.06522872469
21
330.020326105041
31
3.77923059338092e-005
  0
LINE
 8
Layer0
10
4126.16865325436
20
329.502688011655
30
3.72360582230224e-005
11
4126.65101516344
21
329.702488858376
31
3.75025907003057e-005
  0
LINE
 8
Layer0
10
4125.6510151644
20
329.434539662397
30
3.70108710643136e-005
11
4126.16865325436
21
329.502688011655
31
3.72360582230224e-005
  0
LINE
 8
Layer0
10
4125.13337707395
20
329.502688007983
30
3.68423770532034e-005
11
4125.6510151644
21
329.434539662397
31
3.70108710643136e-005
  0
LINE
 8
Layer0
10
4124.65101516344
20
329.702488851281
30
3.67420567392418e-005
11
4125.13337707395
21
329.502688007983
31
3.68423770532034e-005
  0
LINE
 8
Layer0
10
4124.23680159994
20
330.020326095007
30
3.67167487822562e-005
11
4124.65101516344
21
329.702488851281
31
3.67420567392418e-005
  0
LINE
 8
Layer0
10
4123.91896435328
20
330.434539656253
30
3.676817637846e-005
11
4124.23680159994
21
330.020326095007
31
3.67167487822562e-005
  0
LINE
 8
Layer0
10
4123.71916350656
20
330.916901565339
30
3.68928360860943e-005
11
4123.91896435328
21
330.434539656253
31
3.676817637846e-005
  0
LINE
 8
Layer0
10
4123.6510151573
20
331.434539655302
30
3.70822324501641e-005
11
4123.71916350656
21
330.916901565339
31
3.68928360860943e-005
  0
LINE
 8
Layer0
10
4081.71916359714
20
288.916966564524
30
2.88010578358144e-006
11
4081.91896444667
21
288.434604656599
31
2.75544535333072e-006
  0
LINE
 8
Layer0
10
4081.65101524487
20
289.434604654091
30
3.06950142503482e-006
11
4081.71916359714
21
288.916966564524
31
2.88010578358144e-006
  0
LINE
 8
Layer0
10
4081.71916358745
20
289.952242744934
30
3.31072594533244e-006
11
4081.65101524487
21
289.434604654091
31
3.06950142503482e-006
  0
LINE
 8
Layer0
10
4081.91896442795
20
290.434604656598
30
3.58734142145156e-006
11
4081.71916358745
21
289.952242744934
31
3.31072594533244e-006
  0
LINE
 8
Layer0
10
4082.23680166926
20
290.848818221947
30
3.88049875045815e-006
11
4081.91896442795
21
290.434604656598
31
3.58734142145156e-006
  0
LINE
 8
Layer0
10
4082.65101522866
20
291.166655471019
30
4.17021037440457e-006
11
4082.23680166926
21
290.848818221947
31
3.88049875045815e-006
  0
LINE
 8
Layer0
10
4083.13337713659
20
291.366456320543
30
4.43674357359924e-006
11
4082.65101522866
21
291.166655471019
31
4.17021037440457e-006
  0
LINE
 8
Layer0
10
4083.65101522615
20
291.43460467281
30
4.66193073160315e-006
11
4083.13337713659
21
291.366456320543
31
4.43674357359924e-006
  0
LINE
 8
Layer0
10
4084.168653317
20
291.366456330233
30
4.83042546462475e-006
11
4083.65101522615
21
291.43460467281
31
4.66193073160315e-006
  0
LINE
 8
Layer0
10
4084.65101522866
20
291.166655489739
30
4.9307414471178e-006
11
4084.168653317
21
291.366456330233
31
4.83042546462475e-006
  0
LINE
 8
Layer0
10
4085.06522879401
20
290.84881824842
30
4.95605301366053e-006
11
4084.65101522866
21
291.166655489739
31
4.9307414471178e-006
  0
LINE
 8
Layer0
10
4085.38306604308
20
290.434604689022
30
4.90462541816172e-006
11
4085.06522879401
21
290.84881824842
31
4.95605301366053e-006
  0
LINE
 8
Layer0
10
4085.58286689261
20
289.952242781097
30
4.7799685974681e-006
11
4085.38306604308
21
290.434604689022
31
4.90462541816172e-006
  0
LINE
 8
Layer0
10
4085.65101524487
20
289.43460469153
30
4.59057006836905e-006
11
4085.58286689261
21
289.952242781097
31
4.7799685974681e-006
  0
LINE
 8
Layer0
10
4085.5828669023
20
288.916966600687
30
4.34934482616001e-006
11
4085.65101524487
21
289.43460469153
31
4.59057006836905e-006
  0
LINE
 8
Layer0
10
4085.3830660618
20
288.434604689022
30
4.0727300719523e-006
11
4085.5828669023
21
288.916966600687
31
4.34934482616001e-006
  0
LINE
 8
Layer0
10
4085.06522882048
20
288.020391123674
30
3.77957563059139e-006
11
4085.3830660618
21
288.434604689022
31
4.0727300719523e-006
  0
LINE
 8
Layer0
10
4084.65101526109
20
287.702553874601
30
3.48985678753078e-006
11
4085.06522882048
21
288.020391123674
31
3.77957563059139e-006
  0
LINE
 8
Layer0
10
4084.16865335316
20
287.502753025077
30
3.2233308074503e-006
11
4084.65101526109
21
287.702553874601
31
3.48985678753078e-006
  0
LINE
 8
Layer0
10
4083.65101526359
20
287.434604672811
30
2.9981436487414e-006
11
4084.16865335316
21
287.502753025077
31
3.2233308074503e-006
  0
LINE
 8
Layer0
10
4083.13337717275
20
287.502753015387
30
2.82964963833621e-006
11
4083.65101526359
21
287.434604672811
31
2.9981436487414e-006
  0
LINE
 8
Layer0
10
4082.65101526109
20
287.702553855882
30
2.72932571481754e-006
11
4083.13337717275
21
287.502753015387
31
2.82964963833621e-006
  0
LINE
 8
Layer0
10
4082.23680169574
20
288.020391097201
30
2.70401775783191e-006
11
4082.65101526109
21
287.702553855882
31
2.72932571481754e-006
  0
LINE
 8
Layer0
10
4081.91896444667
20
288.434604656599
30
2.75544535333072e-006
11
4082.23680169574
21
288.020391097201
31
2.70401775783191e-006
  0
LINE
 8
Layer0
10
4374.03184199424
20
480.542937687125
30
0.00111701777346332
11
4374.099990879
21
481.060575706587
31
0.00111723345866953
  0
LINE
 8
Layer0
10
4553.58238544071
20
524.992177637951
30
0.00124764568964975
11
4553.10002332322
21
524.792377294364
31
0.00124751617167213
  0
LINE
 8
Layer0
10
4412.36798476325
20
524.060470812923
30
0.00113788634076262
11
4412.16818342032
21
523.578109109371
31
0.00113767152802655
  0
LINE
 8
Layer0
10
4371.58235078343
20
479.128726667453
30
0.00111619891345518
11
4372.0999888029
21
479.060577782695
31
0.00111622394141276
  0
LINE
 8
Layer0
10
4371.09998908104
20
479.328528013179
30
0.00111623056439732
11
4371.58235078343
21
479.128726667453
31
0.00111619891345518
  0
LINE
 8
Layer0
10
4370.6857758486
20
479.646365688351
30
0.00111631673234712
11
4371.09998908104
21
479.328528013179
31
0.00111623056439732
  0
LINE
 8
Layer0
10
4564.09977848468
20
289.060394217215
30
0.00103818428943674
11
4564.10003191788
21
533.060315124862
31
0.00126049159104009
  0
LINE
 8
Layer0
10
4416.10003453857
20
523.060466960548
30
0.00113786161276417
11
4416.03188672548
21
523.578105121098
31
0.00113806347211111
  0
LINE
 8
Layer0
10
4373.8318974009
20
342.060589077959
30
0.00112814781895793
11
4373.51406058568
21
342.474802970264
31
0.00112828263883913
  0
LINE
 8
Layer0
10
4555.5142365552
20
524.474537539556
30
0.00124763288940171
11
4555.10002332322
21
524.792375215333
31
0.00124771905663171
  0
LINE
 8
Layer0
10
4374.03169774519
20
341.578226960761
30
0.00112797354251249
11
4373.8318974009
21
342.060589077959
31
0.00112814781895793
  0
LINE
 8
Layer0
10
4555.10002332322
20
524.792375215333
30
0.00124771905663171
11
4554.61766162112
21
524.992176561765
31
0.00124775071046079
  0
LINE
 8
Layer0
10
4552.16793669294
20
298.542768443545
30
0.00104373609087765
11
4552.36773704004
21
298.060406327508
31
0.00104356181443432
  0
LINE
 8
Layer0
10
4362.0999997531
20
491.06058649943
30
0.00111722982187015
11
4362.09983439959
21
331.060599592673
31
0.00111868601678341
  0
LINE
 8
Layer0
10
4555.51400098241
20
297.646189517434
30
0.00104371391782311
11
4555.83183865517
21
298.060402751722
31
0.00104391322150422
  0
LINE
 8
Layer0
10
4416.03165408626
20
299.57818419921
30
0.0011369714097747
11
4415.83185374268
21
300.060546316701
31
0.00113714568622084
  0
LINE
 8
Layer0
10
4415.51424956076
20
524.474681127592
30
0.00113837256626849
11
4415.10003632647
21
524.792518800356
31
0.00113845873638121
  0
LINE
 8
Layer0
10
4414.61767462292
20
524.992320143279
30
0.00113849038732053
11
4414.10003660306
21
525.060469025028
31
0.00113846536224707
  0
LINE
 8
Layer0
10
4553.58215278378
20
300.992256726517
30
0.00104486747101833
11
4553.09979066774
21
300.792456379422
31
0.00104473795592624
  0
LINE
 8
Layer0
10
4553.58238142433
20
521.128474332797
30
0.00124608739067669
11
4554.1000194437
21
521.060325447283
31
0.00124611241574733
  0
LINE
 8
Layer0
10
4370.68563346094
20
342.474805906322
30
0.00112799571269629
11
4370.36779578577
21
342.060592673881
31
0.00112779641118163
  0
LINE
 8
Layer0
10
4370.36794110949
20
482.060579580654
30
0.00111725818380078
11
4370.16813976376
21
481.578217878264
31
0.001117043371064
  0
LINE
 8
Layer0
10
4373.51405764963
20
339.64637584552
30
0.00112714188298175
11
4373.83189532479
21
340.060589077961
31
0.00112734118738547
  0
LINE
 8
Layer0
10
4370.16799336537
20
340.542954791081
30
0.00112716405316696
11
4370.36779370966
21
340.060592673882
31
0.00112698977960917
  0
LINE
 8
Layer0
10
4412.36775004851
20
298.060549917691
30
0.00113598764326464
11
4412.68558686312
21
297.646336024921
31
0.00113585282627108
  0
LINE
 8
Layer0
10
4564.10003191788
20
533.060315124862
30
0.00126049159104009
11
4404.58093509808
21
533.060477187248
31
0.00113745305199398
  0
LINE
 8
Layer0
10
4415.83185166364
20
298.060546316702
30
0.00113633905103742
11
4416.03165301008
21
298.542908018801
31
0.00113655386521661
  0
LINE
 8
Layer0
10
4413.5821617972
20
297.128697002712
30
0.00113573500449008
11
4414.09979981656
21
297.060548117197
31
0.00113576002955931
  0
LINE
 8
Layer0
10
4381.10025035835
20
479.060575026412
30
0.0001281928748115
11
4381.10010870067
21
343.060579801588
31
0.0
  0
LINE
 8
Layer0
10
4370.36793903338
20
480.060579580656
30
0.00111645155150641
11
4370.6857758486
21
479.646365688351
31
0.00111631673234712
  0
LINE
 8
Layer0
10
4412.16795078111
20
299.578188215591
30
0.00113657946715581
11
4412.09980189559
21
299.060550196227
31
0.00113636377906124
  0
LINE
 8
Layer0
10
4556.0318737134
20
523.577961529296
30
0.00124732379523939
11
4555.83207336981
21
524.060323646787
31
0.00124749807168695
  0
LINE
 8
Layer0
10
4093.65101454846
20
523.434525674275
30
0.00020963751823615
11
3933.6510275642
21
523.434523240658
31
3.86375546123141e-005
  0
LINE
 8
Layer0
10
4555.83183865517
20
298.060402751722
30
0.00104391322150422
11
4556.0316399981
21
298.542764455274
31
0.00104412803784986
  0
LINE
 8
Layer0
10
4555.83207336981
20
524.060323646787
30
0.00124749807168695
11
4555.5142365552
21
524.474537539556
31
0.00124763288940171
  0
LINE
 8
Layer0
10
4554.09978681537
20
297.060404539616
30
0.00104333420074239
11
4554.61742497591
21
297.128552352711
31
0.001043414194322
  0
LINE
 8
Layer0
10
4554.61765760474
20
521.128473256611
30
0.00124619241221177
11
4555.10001972223
21
521.328273600198
31
0.00124632192730174
  0
LINE
 8
Layer0
10
4374.03184306892
20
481.578213867534
30
0.00111743531513164
11
4373.83204272462
21
482.060575984732
31
0.00111760959157708
  0
LINE
 8
Layer0
10
4415.83208637838
20
524.060467237135
30
0.00113823774855585
11
4415.51424956076
21
524.474681127592
31
0.00113837256626849
  0
LINE
 8
Layer0
10
4372.61763097457
20
482.992428897935
30
0.00111786223035023
11
4372.09999295511
21
483.060577782693
31
0.00111783720527888
  0
LINE
 8
Layer0
10
4372.0999888029
20
479.060577782695
30
0.00111622394141276
11
4372.61762696384
21
479.128725592781
31
0.00111630393715599
  0
LINE
 8
Layer0
10
4370.36779370966
20
340.060592673882
30
0.00112698977960917
11
4370.68563052488
21
339.646378781577
31
0.0011268549618937
  0
LINE
 8
Layer0
10
4555.51400390203
20
300.474616642177
30
0.00104485467367133
11
4555.09979066774
21
300.792454314941
31
0.00104494084378405
  0
LINE
 8
Layer0
10
4412.68558686312
20
297.646336024921
30
0.00113585282627108
11
4413.0998000951
21
297.328498349144
31
0.00113576665543293
  0
LINE
 8
Layer0
10
4416.09980189559
20
299.060546038164
30
0.00113676955042423
11
4416.03165408626
21
299.57818419921
31
0.0011369714097747
  0
LINE
 8
Layer0
10
4556.10002152273
20
523.06032336825
30
0.00124712193661225
11
4556.0318737134
21
523.577961529296
31
0.00124732379523939
  0
LINE
 8
Layer0
10
4415.51401398787
20
297.646333084726
30
0.00113613974952134
11
4415.83185166364
21
298.060546316702
31
0.00113633905103742
  0
LINE
 8
Layer0
10
4371.58235479416
20
482.992429972607
30
0.00111775720881515
11
4371.09999267697
21
482.792629628315
31
0.00111762769661212
  0
LINE
 8
Layer0
10
4552.10002152273
20
523.060327526312
30
0.00124671616813691
11
4552.16816933206
21
522.542689365266
31
0.00124651430589809
  0
LINE
 8
Layer0
10
4370.68577878466
20
482.474792813095
30
0.00111745749109215
11
4370.36794110949
21
482.060579580654
31
0.00111725818380078
  0
LINE
 8
Layer0
10
4556.0316399981
20
298.542764455274
30
0.00104412803784986
11
4556.09978887984
21
299.060402475133
31
0.00104434371800269
  0
LINE
 8
Layer0
10
4394.10005266039
20
331.06056637474
30
0.00113105868331019
11
4362.09983439959
21
331.060599592673
31
0.00111868601678341
  0
LINE
 8
Layer0
10
4372.61748164012
20
339.128738686008
30
0.00112684215948345
11
4373.09984375732
21
339.3285390303
31
0.00112697167746177
  0
LINE
 8
Layer0
10
4555.09979066774
20
300.792454314941
30
0.00104494084378405
11
4554.61742896419
21
300.992255657864
31
0.00104497249255763
  0
LINE
 8
Layer0
10
4553.10002332322
20
524.792377294364
30
0.00124751617167213
11
4552.68580943045
21
524.47454047975
31
0.00124734596543025
  0
LINE
 8
Layer0
10
4404.58110907949
20
501.048962887156
30
0.00113614615620248
11
4404.58093509808
21
533.060477187248
31
0.00113745305199398
  0
LINE
 8
Layer0
10
4415.83185374268
20
300.060546316701
30
0.00113714568622084
11
4415.51401692806
21
300.474760209471
31
0.00113728050610274
  0
LINE
 8
Layer0
10
4404.09982398381
20
321.060792889297
30
0.00112673257602515
11
4404.09979150044
21
289.060558439608
31
0.00113118962257912
  0
LINE
 8
Layer0
10
3933.6510275642
20
523.434523240658
30
3.86375546123141e-005
11
3933.65102828146
21
279.434602332795
31
4.52927181039009e-005
  0
LINE
 8
Layer0
10
4371.58220947044
20
342.992443065833
30
0.001128295436196
11
4371.09984735324
21
342.792642721541
31
0.00112816592110532
  0
LINE
 8
Layer0
10
4372.09984347917
20
339.060590875922
30
0.00112676216590596
11
4372.61748164012
21
339.128738686008
31
0.00112684215948345
  0
LINE
 8
Layer0
10
4415.0998000951
20
297.328496270112
30
0.00113596954111372
11
4415.51401398787
21
297.646333084726
31
0.00113613974952134
  0
LINE
 8
Layer0
10
4412.68558980332
20
300.474763149666
30
0.00113699357996414
11
4412.36775212754
21
300.06054991769
31
0.00113679427844736
  0
LINE
 8
Layer0
10
4404.09979150044
20
289.060558439608
30
0.00113118962257912
11
4564.09977848468
21
289.060394217215
31
0.00103818428943674
  0
LINE
 8
Layer0
10
4371.09984735324
20
342.792642721541
30
0.00112816592110532
11
4370.68563346094
21
342.474805906322
31
0.00112799571269629
  0
LINE
 8
Layer0
10
4555.83207129078
20
522.060323646788
30
0.00124669143722543
11
4556.03187263721
21
522.542685348887
31
0.00124690625068342
  0
LINE
 8
Layer0
10
4373.51420590941
20
482.474789877037
30
0.00111774441218019
11
4373.09999267696
21
482.792627552209
31
0.00111783057940809
  0
LINE
 8
Layer0
10
4370.16799444004
20
341.57823097149
30
0.00112758160061058
11
4370.09984555528
21
341.060592952027
31
0.00112736591251672
  0
LINE
 8
Layer0
10
4552.36773704004
20
298.060406327508
30
0.00104356181443432
11
4552.68557385767
21
297.646192437051
31
0.00104342699672167
  0
LINE
 8
Layer0
10
4416.03188565682
20
522.542828940689
30
0.00113764592755937
11
4416.10003453857
21
523.060466960548
31
0.00113786161276417
  0
LINE
 8
Layer0
10
4373.09984735324
20
342.792640645435
30
0.00112836880895467
11
4372.61748565085
21
342.992441991162
31
0.00112840045773107
  0
LINE
 8
Layer0
10
4556.09978887984
20
299.060402475133
30
0.00104434371800269
11
4556.03164106675
21
299.578040635683
31
0.00104454557734963
  0
LINE
 8
Layer0
10
4552.1679377616
20
299.578044623954
30
0.00104415363543079
11
4552.09978887985
21
299.060406604095
31
0.00104393794733764
  0
LINE
 8
Layer0
10
4415.09980369609
20
300.792597885248
30
0.0011373666704437
11
4414.61744199399
21
300.99239923168
31
0.0011373983249961
  0
LINE
 8
Layer0
10
4552.36773910452
20
300.060406327506
30
0.00104436844600114
11
4552.1679377616
21
299.578044623954
31
0.00104415363543079
  0
LINE
 8
Layer0
10
4372.61748565085
20
342.992441991162
30
0.00112840045773107
11
4372.09984763139
21
343.060590875919
31
0.00112837543482617
  0
LINE
 8
Layer0
10
4555.514233615
20
521.646110414812
30
0.00124649213498744
11
4555.83207129078
21
522.060323646788
31
0.00124669143722543
  0
LINE
 8
Layer0
10
4370.099990879
20
481.060579858801
30
0.00111682769018925
11
4370.16813868909
21
480.542941697854
31
0.00111662583156141
  0
LINE
 8
Layer0
10
4412.16818342032
20
523.578109109371
30
0.00113767152802655
11
4412.10003453858
21
523.060471089512
31
0.00113745583993269
  0
LINE
 8
Layer0
10
4412.16794970492
20
298.542912035182
30
0.00113616191971149
11
4412.36775004851
21
298.060549917691
31
0.00113598764326464
  0
LINE
 8
Layer0
10
4552.16817040824
20
523.577965545676
30
0.00124693185117809
11
4552.10002152273
21
523.060327526312
31
0.00124671616813691
  0
LINE
 8
Layer0
10
4414.61767063464
20
521.128616838125
30
0.00113693208619584
11
4415.10003275068
21
521.328417185221
31
0.00113706160128722
  0
LINE
 8
Layer0
10
4413.09980369609
20
300.79259996428
30
0.00113716378548411
11
4412.68558980332
21
300.474763149666
31
0.00113699357996414
  0
LINE
 8
Layer0
10
4409.10025686975
20
479.060545861591
30
0.000124691546229005
11
4381.10025035835
21
479.060575026412
31
0.0001281928748115
  0
LINE
 8
Layer0
10
4413.0998000951
20
297.328498349144
30
0.00113576665543293
11
4413.5821617972
21
297.128697002712
31
0.00113573500449008
  0
LINE
 8
Layer0
10
4373.09999267696
20
482.792627552209
30
0.00111783057940809
11
4372.61763097457
21
482.992428897935
31
0.00111786223035023
  0
LINE
 8
Layer0
10
4414.10003660306
20
525.060469025028
30
0.00113846536224707
11
4413.58239844251
21
524.992321211933
31
0.00113838536650173
  0
LINE
 8
Layer0
10
4413.10003632647
20
524.792520864838
30
0.00113825585068773
11
4412.68582243601
21
524.474684047211
31
0.00113808564300061
  0
LINE
 8
Layer0
10
4413.58239844251
20
524.992321211933
30
0.00113838536650173
11
4413.10003632647
21
524.792520864838
31
0.00113825585068773
  0
LINE
 8
Layer0
10
4371.09999267697
20
482.792629628315
30
0.00111762769661212
11
4370.68577878466
21
482.474792813095
31
0.00111745749109215
  0
LINE
 8
Layer0
10
4413.58216581358
20
300.992400307866
30
0.00113729330346173
11
4413.09980369609
21
300.79259996428
31
0.00113716378548411
  0
LINE
 8
Layer0
10
4412.10003453858
20
523.060471089512
30
0.00113745583993269
11
4412.16818235167
21
522.542832928962
31
0.00113725398275149
  0
LINE
 8
Layer0
10
4412.68582243601
20
524.474684047211
30
0.00113808564300061
11
4412.36798476325
21
524.060470812923
31
0.00113788634076262
  0
LINE
 8
Layer0
10
4552.16816933206
20
522.542689365266
30
0.00124651430589809
11
4552.36796967565
21
522.060327247776
31
0.00124634002945265
  0
LINE
 8
Layer0
10
4412.16818235167
20
522.542832928962
30
0.00113725398275149
11
4412.36798269877
21
522.060470812924
31
0.00113707970630816
  0
LINE
 8
Layer0
10
4409.10011521208
20
343.060550636762
30
2.56114707677391e-006
11
4409.10025686975
21
479.060545861591
31
0.000124691546229005
  0
LINE
 8
Layer0
10
4412.36798269877
20
522.060470812924
30
0.00113707970630816
11
4412.68581951639
21
521.646256922467
31
0.00113694488931743
  0
LINE
 8
Layer0
10
4371.58220545971
20
339.12873976068
30
0.00112673713794838
11
4372.09984347917
21
339.060590875922
31
0.00112676216590596
  0
LINE
 8
Layer0
10
4554.61742896419
20
300.992255657864
30
0.00104497249255763
11
4554.09979094433
21
301.060404539612
31
0.00104494746965132
  0
LINE
 8
Layer0
10
4373.09998908104
20
479.328525937073
30
0.00111643345008093
11
4373.51420297335
21
479.646362752293
31
0.00111660365487899
  0
LINE
 8
Layer0
10
4413.58239445424
20
521.12861790678
30
0.00113682706754348
11
4414.10003247409
21
521.060469025031
31
0.0011368520904505
  0
LINE
 8
Layer0
10
4416.03165301008
20
298.542908018801
30
0.00113655386521661
11
4416.09980189559
21
299.060546038164
31
0.00113676955042423
  0
LINE
 8
Layer0
10
4415.8320843139
20
522.060467237136
30
0.00113743111193565
11
4416.03188565682
21
522.542828940689
31
0.00113764592755937
  0
LINE
 8
Layer0
10
4554.1000194437
20
521.060325447283
30
0.00124611241574733
11
4554.61765760474
21
521.128473256611
31
0.00124619241221177
  0
LINE
 8
Layer0
10
4404.58110907949
20
501.048962887156
30
0.00113614615620248
11
4394.09999975308
21
491.060553281723
31
0.00113235592450652
  0
LINE
 8
Layer0
10
4414.09980397462
20
301.060548117195
30
0.00113737329631661
11
4413.58216581358
21
300.992400307866
31
0.00113729330346173
  0
LINE
 8
Layer0
10
4412.68581951639
20
521.646256922467
30
0.00113694488931743
11
4413.10003275068
21
521.328419249703
31
0.00113685871631706
  0
LINE
 8
Layer0
10
4413.10003275068
20
521.328419249703
30
0.00113685871631706
11
4413.58239445424
21
521.12861790678
31
0.00113682706754348
  0
LINE
 8
Layer0
10
4372.09999295511
20
483.060577782693
30
0.00111783720527888
11
4371.58235479416
21
482.992429972607
31
0.00111775720881515
  0
LINE
 8
Layer0
10
4415.10003632647
20
524.792518800356
30
0.00113845873638121
11
4414.61767462292
21
524.992320143279
31
0.00113849038732053
  0
LINE
 8
Layer0
10
4373.51406058568
20
342.474802970264
30
0.00112828263883913
11
4373.09984735324
21
342.792640645435
31
0.00112836880895467
  0
LINE
 8
Layer0
10
4412.36775212754
20
300.06054991769
30
0.00113679427844736
11
4412.16795078111
21
299.578188215591
31
0.00113657946715581
  0
LINE
 8
Layer0
10
4555.83184071965
20
300.06040275172
30
0.00104471985379295
11
4555.51400390203
21
300.474616642177
31
0.00104485467367133
  0
LINE
 8
Layer0
10
4555.09978709195
20
297.328352699806
30
0.00104354371157911
11
4555.51400098241
21
297.646189517434
31
0.00104371391782311
  0
LINE
 8
Layer0
10
4553.10001972223
20
521.328275679229
30
0.00124611903945451
11
4553.58238142433
21
521.128474332797
31
0.00124608739067669
  0
LINE
 8
Layer0
10
4555.10001972223
20
521.328273600198
30
0.00124632192730174
11
4555.514233615
21
521.646110414812
31
0.00124649213498744
  0
LINE
 8
Layer0
10
4552.68580649026
20
521.646113355006
30
0.00124620521245769
11
4553.10001972223
21
521.328275679229
31
0.00124611903945451
  0
LINE
 8
Layer0
10
4373.09984375732
20
339.3285390303
30
0.00112697167746177
11
4373.51405764963
21
339.64637584552
31
0.00112714188298175
  0
LINE
 8
Layer0
10
4373.83189532479
20
340.060589077961
30
0.00112734118738547
11
4374.03169667052
21
340.542950780351
31
0.00112755600012084
  0
LINE
 8
Layer0
10
4554.61742497591
20
297.128552352711
30
0.001043414194322
11
4555.09978709195
21
297.328352699806
31
0.00104354371157911
  0
LINE
 8
Layer0
10
4404.09982398381
20
321.060792889297
30
0.00112673257602515
11
4394.10005266039
21
331.06056637474
31
0.00113105868331019
  0
LINE
 8
Layer0
10
4372.61762696384
20
479.128725592781
30
0.00111630393715599
11
4373.09998908104
21
479.328525937073
31
0.00111643345008093
  0
LINE
 8
Layer0
10
4552.09978887985
20
299.060406604095
30
0.00104393794733764
11
4552.16793669294
21
298.542768443545
31
0.00104373609087765
  0
LINE
 8
Layer0
10
4371.09984375732
20
339.328541106406
30
0.00112676879177817
11
4371.58220545971
21
339.12873976068
31
0.00112673713794838
  0
LINE
 8
Layer0
10
4552.68557677728
20
300.474619561794
30
0.00104456774751722
11
4552.36773910452
21
300.060406327506
31
0.00104436844600114
  0
LINE
 8
Layer0
10
4412.09980189559
20
299.060550196227
30
0.00113636377906124
11
4412.16794970492
21
298.542912035182
31
0.00113616191971149
  0
LINE
 8
Layer0
10
4415.51424664114
20
521.646254002848
30
0.0011372318125846
11
4415.8320843139
21
522.060467237136
31
0.00113743111193565
  0
LINE
 8
Layer0
10
4552.68557385767
20
297.646192437051
30
0.00104342699672167
11
4553.09978709195
21
297.328354764287
31
0.00104334082660896
  0
LINE
 8
Layer0
10
4374.03169667052
20
340.542950780351
30
0.00112755600012084
11
4374.09984555528
21
341.060588799815
31
0.00112777168316132
  0
LINE
 8
Layer0
10
4415.51401692806
20
300.474760209471
30
0.00113728050610274
11
4415.09980369609
21
300.792597885248
31
0.0011373666704437
  0
LINE
 8
Layer0
10
4552.68580943045
20
524.47454047975
30
0.00124734596543025
11
4552.36797175467
21
524.060327247774
31
0.00124714666463608
  0
LINE
 8
Layer0
10
4415.10003275068
20
521.328417185221
30
0.00113706160128722
11
4415.51424664114
21
521.646254002848
31
0.0011372318125846
  0
LINE
 8
Layer0
10
4556.03164106675
20
299.578040635683
30
0.00104454557734963
11
4555.83184071965
21
300.06040275172
31
0.00104471985379295
  0
LINE
 8
Layer0
10
4553.09978709195
20
297.328354764287
30
0.00104334082660896
11
4553.5821487955
21
297.128553421365
31
0.00104330917278199
  0
LINE
 8
Layer0
10
4416.03188672548
20
523.578105121098
30
0.00113806347211111
11
4415.83208637838
21
524.060467237135
31
0.00113823774855585
  0
LINE
 8
Layer0
10
4414.61744199399
20
300.99239923168
30
0.0011373983249961
11
4414.09980397462
21
301.060548117195
31
0.00113737329631661
  0
LINE
 8
Layer0
10
4554.09979094433
20
301.060404539612
30
0.00104494746965132
11
4553.58215278378
21
300.992256726517
31
0.00104486747101833
  0
LINE
 8
Layer0
10
4373.83204064852
20
480.060575984734
30
0.00111680296289227
11
4374.03184199424
21
480.542937687125
31
0.00111701777346332
  0
LINE
 8
Layer0
10
4554.61766162112
20
524.992176561765
30
0.00124775071046079
11
4554.10002360176
21
525.06032544728
31
0.00124772568250462
  0
LINE
 8
Layer0
10
4553.5821487955
20
297.128553421365
30
0.00104330917278199
11
4554.09978681537
21
297.060404539616
31
0.00104333420074239
  0
LINE
 8
Layer0
10
4370.09984555528
20
341.060592952027
30
0.00112736591251672
11
4370.16799336537
21
340.542954791081
31
0.00112716405316696
  0
LINE
 8
Layer0
10
4370.16813976376
20
481.578217878264
30
0.001117043371064
11
4370.099990879
21
481.060579858801
31
0.00111682769018925
  0
LINE
 8
Layer0
10
4373.83204272462
20
482.060575984732
30
0.00111760959157708
11
4373.51420590941
21
482.474789877037
31
0.00111774441218019
  0
LINE
 8
Layer0
10
4414.10003247409
20
521.060469025031
30
0.0011368520904505
11
4414.61767063464
21
521.128616838125
31
0.00113693208619584
  0
LINE
 8
Layer0
10
4381.10010870067
20
343.060579801588
30
0.0
11
4409.10011521208
21
343.060550636762
31
2.56114707677391e-006
  0
LINE
 8
Layer0
10
4553.09979066774
20
300.792456379422
30
0.00104473795592624
11
4552.68557677728
21
300.474619561794
31
0.00104456774751722
  0
LINE
 8
Layer0
10
4552.36797175467
20
524.060327247774
30
0.00124714666463608
11
4552.16817040824
21
523.577965545676
31
0.00124693185117809
  0
LINE
 8
Layer0
10
4394.09999975308
20
491.060553281723
30
0.00113235592450652
11
4362.0999997531
21
491.06058649943
31
0.00111722982187015
  0
LINE
 8
Layer0
10
4370.68563052488
20
339.646378781577
30
0.0011268549618937
11
4371.09984375732
21
339.328541106406
31
0.00112676879177817
  0
LINE
 8
Layer0
10
4370.16813868909
20
480.542941697854
30
0.00111662583156141
11
4370.36793903338
21
480.060579580656
31
0.00111645155150641
  0
LINE
 8
Layer0
10
4374.099990879
20
481.060575706587
30
0.00111723345866953
11
4374.03184306892
21
481.578213867534
31
0.00111743531513164
  0
LINE
 8
Layer0
10
4374.09984555528
20
341.060588799815
30
0.00112777168316132
11
4374.03169774519
21
341.578226960761
31
0.00112797354251249
  0
LINE
 8
Layer0
10
4556.03187263721
20
522.542685348887
30
0.00124690625068342
11
4556.10002152273
21
523.06032336825
31
0.00124712193661225
  0
LINE
 8
Layer0
10
4414.61743797761
20
297.128695926526
30
0.00113584002602375
11
4415.0998000951
21
297.328496270112
31
0.00113596954111372
  0
LINE
 8
Layer0
10
4373.51420297335
20
479.646362752293
30
0.00111660365487899
11
4373.83204064852
21
480.060575984734
31
0.00111680296289227
  0
LINE
 8
Layer0
10
4552.36796967565
20
522.060327247776
30
0.00124634002945265
11
4552.68580649026
21
521.646113355006
31
0.00124620521245769
  0
LINE
 8
Layer0
10
4370.36779578577
20
342.060592673881
30
0.00112779641118163
11
4370.16799444004
21
341.57823097149
31
0.00112758160061058
  0
LINE
 8
Layer0
10
4554.10002360176
20
525.06032544728
30
0.00124772568250462
11
4553.58238544071
21
524.992177637951
31
0.00124764568964975
  0
LINE
 8
Layer0
10
4414.09979981656
20
297.060548117197
30
0.00113576002955931
11
4414.61743797761
21
297.128695926526
31
0.00113584002602375
  0
LINE
 8
Layer0
10
4372.09984763139
20
343.060590875919
30
0.00112837543482617
11
4371.58220947044
21
342.992443065833
31
0.001128295436196
  0
LINE
 8
Layer0
10
4082.23680100399
20
514.8487391401
30
0.000202055270680329
11
4081.91896375966
21
514.434525577064
31
0.00020176212201426
  0
LINE
 8
Layer0
10
4081.91896375966
20
514.434525577064
30
0.00020176212201426
11
4081.71916291565
21
513.952163666852
31
0.00020148550653814
  0
LINE
 8
Layer0
10
4081.71916291565
20
513.952163666852
30
0.00020148550653814
11
4081.65101456931
21
513.434525576505
31
0.000201244282017843
  0
LINE
 8
Layer0
10
4081.65101456931
20
513.434525576505
30
0.000201244282017843
11
4081.71916291781
21
512.916887486442
31
0.000201054883488744
  0
LINE
 8
Layer0
10
4081.71916291781
20
512.916887486442
30
0.000201054883488744
11
4081.91896376383
21
512.434525577064
31
0.000200930225224227
  0
LINE
 8
Layer0
10
4085.38306537479
20
514.434525584286
30
0.000203079406732881
11
4085.06522812873
21
514.848739145996
31
0.000203130832162646
  0
LINE
 8
Layer0
10
4085.06522812873
20
514.848739145996
30
0.000203130832162646
11
4084.6510145657
21
515.166576390328
31
0.000203105522761837
  0
LINE
 8
Layer0
10
4085.58286622081
20
513.952163674908
30
0.000202954743414985
11
4085.38306537479
21
514.434525584286
31
0.000203079406732881
  0
LINE
 8
Layer0
10
4124.65101466303
20
469.702475758059
30
0.000177728927020054
11
4125.13337657353
21
469.502674914761
31
0.000177829246612105
  0
LINE
 8
Layer0
10
4082.6510145657
20
515.166576386159
30
0.000202344985913833
11
4082.23680100399
21
514.8487391401
31
0.000202055270680329
  0
LINE
 8
Layer0
10
4083.13337647508
20
515.366377232174
30
0.000202611521278762
11
4082.6510145657
21
515.166576386159
31
0.000202344985913833
  0
LINE
 8
Layer0
10
4083.65101456514
20
515.434525580675
30
0.000202836708436765
11
4083.13337647508
21
515.366377232174
31
0.000202611521278762
  0
LINE
 8
Layer0
10
4084.16865265549
20
515.366377234332
30
0.000203005203169787
11
4083.65101456514
21
515.434525580675
31
0.000202836708436765
  0
LINE
 8
Layer0
10
4084.6510145657
20
515.166576390328
30
0.000203105522761837
11
4084.16865265549
21
515.366377234332
31
0.000203005203169787
  0
LINE
 8
Layer0
10
4123.91896385286
20
470.43452656303
30
0.000177755047381184
11
4124.23680109953
21
470.020313001785
31
0.000177703619063069
  0
LINE
 8
Layer0
10
4124.23680109953
20
470.020313001785
30
0.000177703619063069
11
4124.65101466303
21
469.702475758059
31
0.000177728927020054
  0
LINE
 8
Layer0
10
4123.71916300614
20
470.916888472116
30
0.000177879707088818
11
4123.91896385286
21
470.43452656303
31
0.000177755047381184
  0
LINE
 8
Layer0
10
4123.65101465689
20
471.43452656208
30
0.000178069101287154
11
4123.71916300614
21
470.916888472116
31
0.000177879707088818
 0
ENDSEC
 0
EOF
