 0
SECTION
 2
ENTITIES
  0
LINE
 8
Layer0
10
3172.35570736632
20
-35.4988067236758
30
8.49593036130081e-005
11
3171.91274310808
21
-32.1341591373466
31
8.62650038620849e-005
  0
LINE
 8
Layer0
10
3196.17107335726
20
-38.6341591373396
30
8.94799112526989e-005
11
3194.10513126348
21
-41.3265472927618
31
8.78417107183616e-005
  0
LINE
 8
Layer0
10
3221.46385367357
20
-51.7459346117738
30
9.01692275876886e-005
11
3221.61370430732
21
-51.3841631794281
31
9.03580316868879e-005
  0
LINE
 8
Layer0
10
3170.79841121561
20
-48.559141009039
30
7.9087737822725e-005
11
3170.76499582435
21
-48.6026886825745
31
7.90612409439006e-005
  0
LINE
 8
Layer0
10
3167.86729130817
20
-6.34502534381483
30
9.61134376208594e-005
11
3168.02713390389
21
-5.95913661132331
31
9.63148287927318e-005
  0
LINE
 8
Layer0
10
3173.65441285888
20
-38.6341591373395
30
8.39597769327849e-005
11
3172.35570736632
21
-35.4988067236758
31
8.49593036130081e-005
  0
LINE
 8
Layer0
10
3199.9986524088
20
-49.3046202702689
30
8.5933049048581e-005
11
3199.6127636763
21
-49.14477767454
31
8.59056336784736e-005
  0
LINE
 8
Layer0
10
3168.99866009733
20
-5.21366218245205
30
9.6866358801817e-005
11
3168.61277056949
21
-5.37350285845985
31
9.67045675394296e-005
  0
LINE
 8
Layer0
10
3168.57470621899
20
-5.40271058670124
30
9.66829585874684e-005
11
3168.61277056949
21
-5.37350285845985
31
9.67045675394296e-005
  0
LINE
 8
Layer0
10
3116.9128149877
20
40.9908705555682
30
0.000109761159172361
11
3116.91270581816
21
10.990892112493
31
9.77166556475506e-005
  0
LINE
 8
Layer0
10
3146.91274241303
20
-43.6341631794223
30
7.53021462688075e-005
11
3146.52451384537
21
-43.5830519188554
31
7.52284531337466e-005
  0
LINE
 8
Layer0
10
3170.76499582435
20
-48.6026886825745
30
7.90612409439006e-005
11
3170.54413579054
21
-48.8905174870234
31
7.88861093957927e-005
  0
LINE
 8
Layer0
10
3168.28139409157
20
-48.8905062299937
30
7.83313854137102e-005
11
3168.22712352404
21
-48.8197787210942
31
7.83478101674895e-005
  0
LINE
 8
Layer0
10
3170.21276367579
20
-49.1447856345295
30
7.86979918399933e-005
11
3170.54413579054
21
-48.8905174870234
31
7.88861093957927e-005
  0
LINE
 8
Layer0
10
3169.41276260965
20
-49.3591410084329
30
7.8411763194719e-005
11
3168.99865240887
21
-49.3046202703357
31
7.83331581179603e-005
  0
LINE
 8
Layer0
10
3169.44955934369
20
-36.16398434319
30
8.39672379944645e-005
11
3169.41277056946
21
-36.159141009157
31
8.39602547873852e-005
  0
LINE
 8
Layer0
10
3169.41276260968
20
-18.35914350379
30
9.14423060020209e-005
11
3169.44955934381
21
-18.3591435037973
31
9.14513270071193e-005
  0
LINE
 8
Layer0
10
3222.52451384534
20
-33.5830519188654
30
9.80638450423399e-005
11
3222.91274241299
21
-33.6341631794324
31
9.81375381774008e-005
  0
LINE
 8
Layer0
10
3169.44955934378
20
-49.3591410084401
30
7.84207841998175e-005
11
3169.82687335289
21
-49.3046243906944
31
7.85362011867186e-005
  0
LINE
 8
Layer0
10
3199.02712594402
20
-17.5591366105316
30
9.90387723315056e-005
11
3198.86728718785
21
-17.1732462876425
31
9.91617918014054e-005
  0
LINE
 8
Layer0
10
3199.61276367633
20
-18.1447801698975
30
9.89361764857755e-005
11
3199.28139409153
21
-17.890508725284
31
9.89618191459929e-005
  0
LINE
 8
Layer0
10
3148.2117805187
20
-31.3841631794285
30
8.07697820792264e-005
11
3147.97340258481
21
-31.0735030076486
31
8.0841924807995e-005
  0
LINE
 8
Layer0
10
3171.01277056946
20
-37.7591410091575
30
8.36799630231866e-005
11
3170.95825189153
21
-37.3450305369935
31
8.38406645941259e-005
  0
LINE
 8
Layer0
10
3184.91274310801
20
-9.13415913747483
30
9.91198777597457e-005
11
3188.27739069433
21
-9.57712339571636
31
9.97585516138599e-005
  0
LINE
 8
Layer0
10
3169.41277056949
20
-5.15914350451535
30
9.69907975890472e-005
11
3168.99866009733
21
-5.21366218245205
31
9.6866358801817e-005
  0
LINE
 8
Layer0
10
3146.52451384537
20
-53.5830519188536
30
7.10250518884958e-005
11
3146.16274241303
21
-53.4332012850961
31
7.09993490445537e-005
  0
LINE
 8
Layer0
10
3224.412742413
20
-52.134163179433
30
9.07289825366142e-005
11
3224.36163115243
21
-52.5223917470864
31
9.0553264170401e-005
  0
LINE
 8
Layer0
10
3224.41274241299
20
-32.1341631794366
30
9.91357850214758e-005
11
3224.36163115243
21
-31.7459346117829
31
9.92864427459939e-005
  0
LINE
 8
Layer0
10
3223.97340258477
20
-33.1948233512147
30
9.85822394187874e-005
11
3224.21178051867
21
-32.8841631794355
31
9.87712625617032e-005
  0
LINE
 8
Layer0
10
3201.95825189158
20
-17.1732539764938
30
9.99195625915217e-005
11
3202.01277056952
21
-16.7591435043298
31
0.000100106995515858
  0
LINE
 8
Layer0
10
3147.66274241303
20
-40.8351250737497
30
7.66625626208217e-005
11
3147.97340258481
21
-41.0735030076468
31
7.66385235683842e-005
  0
LINE
 8
Layer0
10
3169.82688104163
20
-36.2136596870945
30
8.40388608003728e-005
11
3169.44955934369
21
-36.16398434319
31
8.39672379944645e-005
  0
LINE
 8
Layer0
10
3145.61370430735
20
-32.8841631794228
30
7.95023333162614e-005
11
3145.85208224125
21
-33.1948233512027
31
7.94301905818528e-005
  0
LINE
 8
Layer0
10
3145.85208224125
20
-33.1948233512027
30
7.94301905818528e-005
11
3146.16274241303
21
-33.4332012850997
31
7.94061515294153e-005
  0
LINE
 8
Layer0
10
3197.46977884975
20
-18.7695115511318
30
9.81482074303486e-005
11
3197.91274310799
21
-22.1341591374613
31
9.68425071812717e-005
  0
LINE
 8
Layer0
10
3076.66271995682
20
-135.259039174639
30
2.98827041071537e-005
11
3076.66270125068
21
0.990894478652308
31
6.7490899087197e-005
  0
LINE
 8
Layer0
10
3146.52451384537
20
-33.5830519188572
30
7.94318543733574e-005
11
3146.91274241303
21
-33.634163179424
31
7.95055475084183e-005
  0
LINE
 8
Layer0
10
3146.52451384538
20
-30.6852744399929
30
8.06499065222788e-005
11
3146.16274241303
21
-30.8351250737491
31
8.04982272085031e-005
  0
LINE
 8
Layer0
10
3146.16274241303
20
-30.8351250737491
30
8.04982272085031e-005
11
3145.85208224125
21
-31.0735030076451
31
8.03218666400429e-005
  0
LINE
 8
Layer0
10
3148.36163115246
20
-41.7459346117728
30
7.64510508317606e-005
11
3148.2117805187
21
-41.3841631794268
31
7.65663808339756e-005
  0
LINE
 8
Layer0
10
3222.16274241299
20
-33.4332012851079
30
9.80381421983978e-005
11
3222.52451384534
21
-33.5830519188654
31
9.80638450423399e-005
  0
LINE
 8
Layer0
10
3224.36163115243
20
-42.5223917470882
30
9.47566654156518e-005
11
3224.412742413
21
-42.1341631794348
31
9.4932383781865e-005
  0
LINE
 8
Layer0
10
3076.66271995682
20
-135.259039174639
30
2.98827041071537e-005
11
3106.66271995622
21
-135.259142358775
31
3.72634307789887e-005
  0
LINE
 8
Layer0
10
3170.21277056949
20
-5.37350285846067
30
9.70968199704103e-005
11
3169.82688104165
21
-5.21366218245296
31
9.70694036020347e-005
  0
LINE
 8
Layer0
10
3145.85208224125
20
-31.0735030076451
30
8.03218666400429e-005
11
3145.61370430735
21
-31.3841631794242
31
8.0132843502767e-005
  0
LINE
 8
Layer0
10
3116.91270581816
20
10.990892112493
30
9.77166556475506e-005
11
3106.6644257395
21
0.990894926185771
31
6.98188260416899e-005
  0
LINE
 8
Layer0
10
3168.99865240889
20
-18.304622765693
30
9.13637009196222e-005
11
3168.6127636764
21
-18.1447801699641
31
9.13362855551547e-005
  0
LINE
 8
Layer0
10
3148.36163115246
20
-52.5223917470779
30
7.19212735014185e-005
11
3148.41274241303
21
-52.1341631794245
31
7.20969918676317e-005
  0
LINE
 8
Layer0
10
3147.30097098068
20
-53.5830519188549
30
7.12154063883474e-005
11
3147.66274241303
21
-53.4332012850988
31
7.13670857021231e-005
  0
LINE
 8
Layer0
10
3222.91274241299
20
-43.6341631794306
30
9.393413693779e-005
11
3222.52451384534
21
-43.5830519188636
31
9.38604437970891e-005
  0
LINE
 8
Layer0
10
3223.30097098065
20
-50.6852744399983
30
9.10654492006113e-005
11
3223.662742413
21
-50.8351250737559
31
9.10911520445534e-005
  0
LINE
 8
Layer0
10
3199.22712352398
20
-48.8197787210274
30
8.59477010981102e-005
11
3199.02712594399
21
-48.5591341151742
31
8.60082295242037e-005
  0
LINE
 8
Layer0
10
3170.79841121552
20
-36.9591410091568
30
8.39636832631552e-005
11
3170.54414141936
21
-36.6277701592584
31
8.40406355067991e-005
  0
LINE
 8
Layer0
10
3146.16274241303
20
-53.4332012850961
30
7.09993490445537e-005
11
3145.85208224125
21
-53.1948233511991
31
7.10233880969913e-005
  0
LINE
 8
Layer0
10
3191.41274310806
20
-43.392489386532
30
8.63132524846932e-005
11
3188.2773906944
21
-44.6911948790907
31
8.49986984432505e-005
  0
LINE
 8
Layer0
10
3222.162742413
20
-43.4332012851061
30
9.3834740953147e-005
11
3221.85208224122
21
-43.1948233512088
31
9.38587800112245e-005
  0
LINE
 8
Layer0
10
3199.02712594399
20
-48.5591341151742
30
8.60082295242037e-005
11
3198.86728718782
21
-48.173243792285
31
8.61312489997434e-005
  0
LINE
 8
Layer0
10
3224.21178051867
20
-62.8841631794302
30
8.61610588315909e-005
11
3223.97340258478
21
-63.1948233512095
31
8.5972035694315e-005
  0
LINE
 8
Layer0
10
3170.54414141939
20
-5.62777265461674
30
9.70711783141009e-005
11
3170.21277056949
21
-5.37350285846067
31
9.70968199704103e-005
  0
LINE
 8
Layer0
10
3148.2117805187
20
-62.8841631794216
30
6.75290681626084e-005
11
3147.97340258481
21
-63.1948233512008
31
6.73400450253325e-005
  0
LINE
 8
Layer0
10
3146.91274241303
20
-33.634163179424
30
7.95055475084183e-005
11
3147.30097098068
21
-33.5830519188584
31
7.9622208873209e-005
  0
LINE
 8
Layer0
10
3221.85208224121
20
-33.1948233512106
30
9.80621812508353e-005
11
3222.16274241299
21
-33.4332012851079
31
9.80381421983978e-005
  0
LINE
 8
Layer0
10
3147.97340258481
20
-53.1948233512026
30
7.15434462649434e-005
11
3147.66274241303
21
-53.4332012850988
31
7.13670857021231e-005
  0
LINE
 8
Layer0
10
3170.79841121554
20
-5.95914350451516
30
9.69942260648171e-005
11
3170.54414141939
21
-5.62777265461674
31
9.70711783141009e-005
  0
LINE
 8
Layer0
10
3148.36163115246
20
-62.5223917470761
30
6.77178722561678e-005
11
3148.2117805187
21
-62.8841631794216
31
6.75290681626084e-005
  0
LINE
 8
Layer0
10
3148.41274241303
20
-62.1341631794227
30
6.78935906280209e-005
11
3148.36163115246
21
-61.7459346117693
31
6.8044248346899e-005
  0
LINE
 8
Layer0
10
3188.2773906944
20
-44.6911948790907
30
8.49986984432505e-005
11
3184.91274310807
21
-45.1341591373325
31
8.39876332836109e-005
  0
LINE
 8
Layer0
10
3221.46385367356
20
-42.5223917470825
30
9.40462527422081e-005
11
3221.61370430732
21
-42.8841631794288
31
9.39309227399931e-005
  0
LINE
 8
Layer0
10
3199.99865240883
20
-18.3046227656261
30
9.89635918502429e-005
11
3199.61276367633
21
-18.1447801698975
31
9.89361764857755e-005
  0
LINE
 8
Layer0
10
3148.36163115246
20
-32.5223917470813
30
8.03280759862801e-005
11
3148.41274241303
21
-32.134163179428
31
8.05037943581333e-005
  0
LINE
 8
Layer0
10
3146.91274241303
20
-40.6341631794253
30
7.65631666418187e-005
11
3147.30097098068
21
-40.6852744399924
31
7.66368597768796e-005
  0
LINE
 8
Layer0
10
3198.86729130812
20
-6.34502534374697
30
0.00010371332855148
11
3198.81277057002
21
-6.75913554452557
31
0.000103525895232348
  0
LINE
 8
Layer0
10
3199.02713390384
20
-5.95913661125554
30
0.000103914719723353
11
3199.28140534846
21
-5.62776702646311
31
0.000104116344275651
  0
LINE
 8
Layer0
10
3145.41274241303
20
-32.1341631794231
30
7.97683210373545e-005
11
3145.46385367359
21
-32.5223917470767
31
7.96176633184764e-005
  0
LINE
 8
Layer0
10
3170.95825189153
20
-37.3450305369935
30
8.38406645941259e-005
11
3170.79841121552
21
-36.9591410091568
31
8.39636832631552e-005
  0
LINE
 8
Layer0
10
3173.65441285882
20
-15.634159137469
30
9.36275997906577e-005
11
3175.72035495259
21
-12.9417709820464
31
9.52658003249951e-005
  0
LINE
 8
Layer0
10
3178.41274310801
20
-10.8758288882758
30
9.67942585643033e-005
11
3181.54809552168
21
-9.57712339571672
31
9.81088126001062e-005
  0
LINE
 8
Layer0
10
3145.61370430735
20
-51.3841631794206
30
7.17260410179055e-005
11
3145.85208224125
21
-51.0735030076416
31
7.19150641551813e-005
  0
LINE
 8
Layer0
10
3116.9128149877
20
40.9908705555682
30
0.000109761159172361
11
3253.16278919633
21
40.9908705565786
31
0.00015961082489131
  0
LINE
 8
Layer0
10
3145.4638536736
20
-51.7459346117663
30
7.15372369187062e-005
11
3145.61370430735
21
-51.3841631794206
31
7.17260410179055e-005
  0
LINE
 8
Layer0
10
3293.16274016749
20
0.990866231388208
30
9.4300076684517e-005
11
3293.16274016751
21
-135.259174401165
31
6.12361503293357e-005
  0
LINE
 8
Layer0
10
3223.662742413
20
-30.8351250737594
30
9.9497954529415e-005
11
3223.30097098065
21
-30.6852744400019
31
9.94722516854729e-005
  0
LINE
 8
Layer0
10
3199.28139409153
20
-17.890508725284
30
9.89618191459929e-005
11
3199.227123524
21
-17.8197812163848
31
9.89782439054121e-005
  0
LINE
 8
Layer0
10
3222.52451384534
20
-30.6852744400003
30
9.92818971856213e-005
11
3222.162742413
21
-30.8351250737566
31
9.91302178718456e-005
  0
LINE
 8
Layer0
10
3178.41274310808
20
-43.3924893865319
30
8.31262014449052e-005
11
3175.72035495265
21
-41.3265472927617
31
8.33345399200436e-005
  0
LINE
 8
Layer0
10
3224.21178051867
20
-31.3841631794367
30
9.94017727482088e-005
11
3223.97340258478
21
-31.0735030076567
31
9.94739154769775e-005
  0
LINE
 8
Layer0
10
3106.6644257395
20
0.990894926185771
30
6.98188260416899e-005
11
3076.66270125068
21
0.990894478652308
31
6.7490899087197e-005
  0
LINE
 8
Layer0
10
3202.01277056944
20
-6.75914350444794
30
0.000104310396755469
11
3201.9582518915
21
-6.34503303228397
31
0.000104471098326409
  0
LINE
 8
Layer0
10
3201.54414141934
20
-5.62777265454897
30
0.000104671069244722
11
3201.21277056944
21
-5.37350285839272
31
0.000104696710901031
  0
LINE
 8
Layer0
10
3201.79841121549
20
-5.9591435044474
30
0.000104594116995438
11
3201.54414141934
21
-5.62777265454897
31
0.000104671069244722
  0
LINE
 8
Layer0
10
3201.79841121547
20
-36.9591410090889
30
9.15635741937759e-005
11
3201.54414141931
21
-36.6277701591905
31
9.16405264374198e-005
  0
LINE
 8
Layer0
10
3200.41277056944
20
-5.15914350444758
30
0.000104590688519668
11
3199.99866009728
21
-5.21366218238428
31
0.000104466249732438
  0
LINE
 8
Layer0
10
3202.01277056949
20
-47.7591410089723
30
8.70764527141965e-005
11
3202.01277056941
21
-37.7591410090895
31
9.12798539538073e-005
  0
LINE
 8
Layer0
10
3201.79841121558
20
-17.5591435043293
30
9.97181715550077e-005
11
3201.76499582431
21
-17.6026911778648
31
9.96916746761833e-005
  0
LINE
 8
Layer0
10
3253.16271579768
20
-145.509149655094
30
4.83181598234239e-005
11
3263.16810763725
21
-135.259168528943
31
0.00010699801302354
  0
LINE
 8
Layer0
10
3169.41277056946
20
-36.159141009157
30
8.39602547873852e-005
11
3168.9986600973
21
-36.2136596870938
31
8.38358160001551e-005
  0
LINE
 8
Layer0
10
3147.30097098068
20
-50.6852744399907
30
7.24334585372688e-005
11
3146.91274241303
21
-50.6341631794236
31
7.2359765396568e-005
  0
LINE
 8
Layer0
10
3222.52451384534
20
-53.5830519188618
30
8.96570425574783e-005
11
3222.162742413
21
-53.4332012851044
31
8.96313397135362e-005
  0
LINE
 8
Layer0
10
3198.86729130809
20
-37.3450228483887
30
9.06827857441783e-005
11
3198.81277056999
21
-37.7591330491672
31
9.04953524306862e-005
  0
LINE
 8
Layer0
10
3222.162742413
20
-60.8351250737513
30
8.65200141473732e-005
11
3222.52451384535
21
-60.6852744399951
31
8.66716934611489e-005
  0
LINE
 8
Layer0
10
3221.85208224122
20
-61.0735030076473
30
8.6343653578913e-005
11
3222.162742413
21
-60.8351250737513
31
8.65200141473732e-005
  0
LINE
 8
Layer0
10
3147.30097098068
20
-63.5830519188532
30
6.70120051487366e-005
11
3146.91274241303
21
-63.6341631794188
31
6.68953437839459e-005
  0
LINE
 8
Layer0
10
3221.412742413
20
-52.1341631794272
30
8.99935092214754e-005
11
3221.46385367357
21
-51.7459346117738
31
9.01692275876886e-005
  0
LINE
 8
Layer0
10
3223.97340258477
20
-53.1948233512112
30
9.01754369339258e-005
11
3223.66274241299
21
-53.4332012851072
31
8.99990763711056e-005
  0
LINE
 8
Layer0
10
3253.16275911204
20
-175.509149655101
30
4.42436964527282e-005
11
3253.16271579768
21
-145.509149655094
31
4.83181598234239e-005
  0
LINE
 8
Layer0
10
3147.30097098068
20
-43.5830519188567
30
7.54188076335982e-005
11
3146.91274241303
21
-43.6341631794223
31
7.53021462688075e-005
  0
LINE
 8
Layer0
10
3224.40629770276
20
-62.1831156137559
30
8.6503424651152e-005
11
3224.36163115243
21
-62.5223917470846
31
8.63498629251502e-005
  0
LINE
 8
Layer0
10
3224.36163115243
20
-62.5223917470846
30
8.63498629251502e-005
11
3224.21178051867
21
-62.8841631794302
31
8.61610588315909e-005
  0
LINE
 8
Layer0
10
3146.52451384538
20
-50.6852744399893
30
7.22431040317772e-005
11
3146.16274241303
21
-50.8351250737455
31
7.20914247236415e-005
  0
LINE
 8
Layer0
10
3145.61370430736
20
-61.3841631794189
30
6.75226397726547e-005
11
3145.85208224125
21
-61.0735030076398
31
6.77116629099306e-005
  0
LINE
 8
Layer0
10
3223.97340258478
20
-63.1948233512095
30
8.5972035694315e-005
11
3223.662742413
21
-63.4332012851055
31
8.57956751258548e-005
  0
LINE
 8
Layer0
10
3221.61370430732
20
-61.3841631794264
30
8.61546304416372e-005
11
3221.85208224122
21
-61.0735030076473
31
8.6343653578913e-005
  0
LINE
 8
Layer0
10
3200.44955934374
20
-18.3591435037306
30
9.90512179377401e-005
11
3200.82687335285
21
-18.3046268859849
31
9.91666349190012e-005
  0
LINE
 8
Layer0
10
3145.61370430735
20
-62.8841631794175
30
6.68921295861491e-005
11
3145.4638536736
21
-62.5223917470714
31
6.70074595883641e-005
  0
LINE
 8
Layer0
10
3222.52451384534
20
-63.5830519188601
30
8.54536413122275e-005
11
3222.162742413
21
-63.4332012851026
31
8.54279384682854e-005
  0
LINE
 8
Layer0
10
3222.162742413
20
-63.4332012851026
30
8.54279384682854e-005
11
3221.85208224122
21
-63.1948233512053
31
8.5451977520723e-005
  0
LINE
 8
Layer0
10
3146.52451384537
20
-63.5830519188519
30
6.68216506432451e-005
11
3146.16274241303
21
-63.4332012850944
31
6.6795947799303e-005
  0
LINE
 8
Layer0
10
3170.95825189155
20
-6.34503303235174
30
9.68712073957878e-005
11
3170.79841121554
21
-5.95914350451516
31
9.69942260648171e-005
  0
LINE
 8
Layer0
10
3221.61370430732
20
-32.8841631794306
30
9.81343239852439e-005
11
3221.85208224121
21
-33.1948233512106
31
9.80621812508353e-005
  0
LINE
 8
Layer0
10
3145.85208224125
20
-63.1948233511974
30
6.68199868573804e-005
11
3145.61370430735
21
-62.8841631794175
31
6.68921295861491e-005
  0
LINE
 8
Layer0
10
3224.21178051867
20
-32.8841631794355
30
9.87712625617032e-005
11
3224.36163115243
21
-32.5223917470899
31
9.89600666552626e-005
  0
LINE
 8
Layer0
10
3223.30097098065
20
-63.5830519188615
30
8.56439958120792e-005
11
3222.912742413
21
-63.6341631794271
31
8.55273344472884e-005
  0
LINE
 8
Layer0
10
3200.8268810416
20
-5.21366218238501
30
0.000104669294532655
11
3200.44955934367
21
-5.16398683848051
31
0.000104597671726747
  0
LINE
 8
Layer0
10
3145.85208224125
20
-61.0735030076398
30
6.77116629099306e-005
11
3146.16274241303
21
-60.8351250737438
31
6.78880234783907e-005
  0
LINE
 8
Layer0
10
3222.912742413
20
-63.6341631794271
30
8.55273344472884e-005
11
3222.52451384534
21
-63.5830519188601
31
8.54536413122275e-005
  0
LINE
 8
Layer0
10
3146.52451384538
20
-60.6852744399876
30
6.80397027921664e-005
11
3146.91274241303
21
-60.6341631794218
31
6.81563641569571e-005
  0
LINE
 8
Layer0
10
3224.21178051867
20
-52.8841631794319
30
9.03644600712017e-005
11
3223.97340258477
21
-53.1948233512112
31
9.01754369339258e-005
  0
LINE
 8
Layer0
10
3146.16274241303
20
-63.4332012850944
30
6.6795947799303e-005
11
3145.85208224125
21
-63.1948233511974
31
6.68199868573804e-005
  0
LINE
 8
Layer0
10
3201.95825189147
20
-37.3450305369255
30
9.14405555247466e-005
11
3201.79841121547
21
-36.9591410090889
31
9.15635741937759e-005
  0
LINE
 8
Layer0
10
3221.61370430732
20
-62.8841631794253
30
8.55241202551316e-005
11
3221.46385367357
21
-62.522391747079
31
8.56394502573465e-005
  0
LINE
 8
Layer0
10
3221.85208224122
20
-63.1948233512053
30
8.5451977520723e-005
11
3221.61370430732
21
-62.8841631794253
31
8.55241202551316e-005
  0
LINE
 8
Layer0
10
3168.9986600973
20
-36.2136596870938
30
8.38358160001551e-005
11
3168.61277056946
21
-36.3735003631015
31
8.36740247321277e-005
  0
LINE
 8
Layer0
10
3222.52451384535
20
-50.6852744399968
30
9.08750947007597e-005
11
3222.912742413
21
-50.6341631794312
31
9.09917560655504e-005
  0
LINE
 8
Layer0
10
3147.97340258481
20
-63.1948233512008
30
6.73400450253325e-005
11
3147.66274241303
21
-63.4332012850969
31
6.71636844568724e-005
  0
LINE
 8
Layer0
10
3181.54809552174
20
-44.6911948790908
30
8.33489594294967e-005
11
3178.41274310808
21
-43.3924893865319
31
8.31262014449052e-005
  0
LINE
 8
Layer0
10
3146.52451384538
20
-60.6852744399876
30
6.80397027921664e-005
11
3146.16274241303
21
-60.8351250737438
31
6.78880234783907e-005
  0
LINE
 8
Layer0
10
3145.61370430735
20
-42.884163179421
30
7.52989320710107e-005
11
3145.4638536736
21
-42.5223917470749
31
7.54142620732256e-005
  0
LINE
 8
Layer0
10
3222.162742413
20
-43.4332012851061
30
9.3834740953147e-005
11
3222.52451384534
21
-43.5830519188636
31
9.38604437970891e-005
  0
LINE
 8
Layer0
10
3223.662742413
20
-50.8351250737559
30
9.10911520445534e-005
11
3223.97340258478
21
-51.0735030076531
31
9.10671129921159e-005
  0
LINE
 8
Layer0
10
3224.412742413
20
-42.1341631794348
30
9.4932383781865e-005
11
3224.36163115243
21
-41.7459346117812
31
9.50830415007431e-005
  0
LINE
 8
Layer0
10
3224.21178051867
20
-41.384163179435
30
9.51983715029581e-005
11
3223.97340258478
21
-41.0735030076549
31
9.52705142373667e-005
  0
LINE
 8
Layer0
10
3145.4638536736
20
-31.7459346117699
30
7.99440394035677e-005
11
3145.41274241303
21
-32.1341631794231
31
7.97683210373545e-005
  0
LINE
 8
Layer0
10
3146.16274241303
20
-33.4332012850997
30
7.94061515294153e-005
11
3146.52451384537
21
-33.5830519188572
31
7.94318543733574e-005
  0
LINE
 8
Layer0
10
3199.02713390382
20
-36.9591341158971
30
9.08841769160507e-005
11
3199.28140534843
21
-36.6277645311046
31
9.10858014683491e-005
  0
LINE
 8
Layer0
10
3198.86729130809
20
-37.3450228483887
30
9.06827857441783e-005
11
3199.02713390382
21
-36.9591341158971
31
9.08841769160507e-005
  0
LINE
 8
Layer0
10
3168.61276367637
20
-49.1447776746069
30
7.83057427478528e-005
11
3168.28139409157
21
-48.8905062299937
31
7.83313854137102e-005
  0
LINE
 8
Layer0
10
3168.02712594406
20
-48.5591341152413
30
7.8408338593583e-005
11
3167.86728718789
21
-48.1732437923519
31
7.85313580691227e-005
  0
LINE
 8
Layer0
10
3170.95825189162
20
-48.1732514812034
30
7.92891288535991e-005
11
3171.01277056956
21
-47.7591410090394
31
7.94765617835758e-005
  0
LINE
 8
Layer0
10
3222.91274241299
20
-53.6341631794289
30
8.97307356925392e-005
11
3222.52451384534
21
-53.5830519188618
31
8.96570425574783e-005
  0
LINE
 8
Layer0
10
3200.41276260961
20
-18.3591435037232
30
9.90421969270017e-005
11
3200.44955934374
21
-18.3591435037306
31
9.90512179377401e-005
  0
LINE
 8
Layer0
10
3148.40629770279
20
-62.1831156137482
30
6.78714339821696e-005
11
3148.36163115246
21
-62.5223917470761
31
6.77178722561678e-005
  0
LINE
 8
Layer0
10
3181.54809552168
20
-9.57712339571672
30
9.81088126001062e-005
11
3184.91274310801
21
-9.13415913747483
31
9.91198777597457e-005
  0
LINE
 8
Layer0
10
3200.41276260959
20
-49.3591410083659
30
8.60116541253397e-005
11
3200.44955934372
21
-49.3591410083732
31
8.60206751304382e-005
  0
LINE
 8
Layer0
10
3170.79841121561
20
-48.559141009039
30
7.9087737822725e-005
11
3170.95825189162
21
-48.1732514812034
31
7.92891288535991e-005
  0
LINE
 8
Layer0
10
3222.912742413
20
-50.6341631794312
30
9.09917560655504e-005
11
3223.30097098065
21
-50.6852744399983
31
9.10654492006113e-005
  0
LINE
 8
Layer0
10
3163.23444364861
20
-108.445531296697
30
0.000100190737849637
11
3169.23444364861
21
-108.445531296698
31
0.000101661684479915
  0
LINE
 8
Layer0
10
3147.66274241303
20
-60.8351250737461
30
6.82557601359601e-005
11
3147.97340258481
21
-61.0735030076433
31
6.82317210835226e-005
  0
LINE
 8
Layer0
10
3163.23444364861
20
-111.445531296695
30
9.89297174766257e-005
11
3163.23444364861
21
-108.445531296697
31
0.000100190737849637
  0
LINE
 8
Layer0
10
3172.35570736626
20
-18.7695115511331
30
9.19912976239168e-005
11
3173.65441285882
21
-15.634159137469
31
9.36275997906577e-005
  0
LINE
 8
Layer0
10
3171.01277056949
20
-6.75914350451562
30
9.67105058248485e-005
11
3170.95825189155
21
-6.34503303235174
31
9.68712073957878e-005
  0
LINE
 8
Layer0
10
3199.57470621891
20
-36.402708091275
30
9.12523067107873e-005
11
3199.61277056941
21
-36.3735003630337
31
9.12739156627484e-005
  0
LINE
 8
Layer0
10
3201.21276367572
20
-49.1447856344624
30
8.6297882770614e-005
11
3201.54413579047
21
-48.8905174869564
31
8.64860003264134e-005
  0
LINE
 8
Layer0
10
3168.28140534848
20
-36.6277645311725
30
8.34859105433683e-005
11
3168.57470621897
21
-36.4027080913428
31
8.36524157801666e-005
  0
LINE
 8
Layer0
10
3145.41918712327
20
-62.1831156137478
30
6.71391206086724e-005
11
3145.41274241303
21
-62.1341631794178
31
6.71581173128821e-005
  0
LINE
 8
Layer0
10
3201.95825189156
20
-48.1732514811364
30
8.68890197842198e-005
11
3202.01277056949
21
-47.7591410089723
31
8.70764527141965e-005
  0
LINE
 8
Layer0
10
3224.412742413
20
-62.1341631794313
30
8.65255812970034e-005
11
3224.40629770276
21
-62.1831156137559
31
8.6503424651152e-005
  0
LINE
 8
Layer0
10
3224.36163115243
20
-61.7459346117777
30
8.66762390158815e-005
11
3224.412742413
21
-62.1341631794313
31
8.65255812970034e-005
  0
LINE
 8
Layer0
10
3145.4638536736
20
-62.5223917470714
30
6.70074595883641e-005
11
3145.41918712327
21
-62.1831156137478
31
6.71391206086724e-005
  0
LINE
 8
Layer0
10
3147.66274241303
20
-50.8351250737479
30
7.24591613812109e-005
11
3147.97340258481
21
-51.0735030076451
31
7.24351223231334e-005
  0
LINE
 8
Layer0
10
3223.30097098065
20
-53.5830519188633
30
8.98473970573299e-005
11
3222.91274241299
21
-53.6341631794289
31
8.97307356925392e-005
  0
LINE
 8
Layer0
10
3202.01277056941
20
-37.7591410090895
30
9.12798539538073e-005
11
3201.95825189147
21
-37.3450305369255
31
9.14405555247466e-005
  0
LINE
 8
Layer0
10
3223.66274241299
20
-53.4332012851072
30
8.99990763711056e-005
11
3223.30097098065
21
-53.5830519188633
31
8.98473970573299e-005
  0
LINE
 8
Layer0
10
3147.66274241303
20
-60.8351250737461
30
6.82557601359601e-005
11
3147.30097098069
21
-60.6852744399888
31
6.8230057292018e-005
  0
LINE
 8
Layer0
10
3223.97340258478
20
-61.0735030076514
30
8.68637117468651e-005
11
3224.21178051868
21
-61.3841631794314
31
8.67915690180965e-005
  0
LINE
 8
Layer0
10
3168.02713390387
20
-36.959134115965
30
8.32842859854299e-005
11
3168.28140534848
21
-36.6277645311725
31
8.34859105433683e-005
  0
LINE
 8
Layer0
10
3222.52451384535
20
-60.6852744399951
30
8.66716934611489e-005
11
3222.912742413
21
-60.6341631794295
31
8.67883548202997e-005
  0
LINE
 8
Layer0
10
3223.30097098065
20
-40.6852744400001
30
9.52688504458621e-005
11
3223.662742413
21
-40.8351250737577
31
9.52945532898042e-005
  0
LINE
 8
Layer0
10
3223.30097098065
20
-43.583051918865
30
9.40507982969407e-005
11
3223.66274241299
21
-43.433201285109
31
9.42024776107164e-005
  0
LINE
 8
Layer0
10
3184.91274310807
20
-45.1341591373325
30
8.39876332836109e-005
11
3181.54809552174
21
-44.6911948790908
31
8.33489594294967e-005
  0
LINE
 8
Layer0
10
3222.91274241299
20
-33.6341631794324
30
9.81375381774008e-005
11
3223.30097098065
21
-33.5830519188668
31
9.82541995421915e-005
  0
LINE
 8
Layer0
10
3147.30097098068
20
-33.5830519188584
30
7.9622208873209e-005
11
3147.66274241302
21
-33.4332012851022
31
7.97738881869847e-005
  0
LINE
 8
Layer0
10
3146.91274241303
20
-63.6341631794188
30
6.68953437839459e-005
11
3146.52451384537
21
-63.5830519188519
31
6.68216506432451e-005
  0
LINE
 8
Layer0
10
3223.30097098065
20
-30.6852744400019
30
9.94722516854729e-005
11
3222.912742413
21
-30.6341631794347
31
9.9398558550412e-005
  0
LINE
 8
Layer0
10
3223.662742413
20
-40.8351250737577
30
9.52945532898042e-005
11
3223.97340258478
21
-41.0735030076549
31
9.52705142373667e-005
  0
LINE
 8
Layer0
10
3145.4638536736
20
-42.5223917470749
30
7.54142620732256e-005
11
3145.41274241303
21
-42.1341631794214
31
7.55649197977437e-005
  0
LINE
 8
Layer0
10
3222.912742413
20
-30.6341631794347
30
9.9398558550412e-005
11
3222.52451384534
21
-30.6852744400003
31
9.92818971856213e-005
  0
LINE
 8
Layer0
10
3145.4638536736
20
-61.7459346117646
30
6.73338356790953e-005
11
3145.61370430736
21
-61.3841631794189
31
6.75226397726547e-005
  0
LINE
 8
Layer0
10
3222.91274241299
20
-43.6341631794306
30
9.393413693779e-005
11
3223.30097098065
21
-43.583051918865
31
9.40507982969407e-005
  0
LINE
 8
Layer0
10
3221.61370430732
20
-41.3841631794299
30
9.45614329264988e-005
11
3221.85208224122
21
-41.0735030076508
31
9.47504560637746e-005
  0
LINE
 8
Layer0
10
3223.97340258478
20
-31.0735030076567
30
9.94739154769775e-005
11
3223.662742413
21
-30.8351250737594
31
9.9497954529415e-005
  0
LINE
 8
Layer0
10
3222.162742413
20
-40.8351250737547
30
9.49268166322348e-005
11
3221.85208224122
21
-41.0735030076508
31
9.47504560637746e-005
  0
LINE
 8
Layer0
10
3146.16274241303
20
-43.433201285098
30
7.52027502841646e-005
11
3146.52451384537
21
-43.5830519188554
31
7.52284531337466e-005
  0
LINE
 8
Layer0
10
3199.57470621894
20
-5.40271058663338
30
0.000104282849518089
11
3199.61277056944
21
-5.37350285839217
31
0.00010430445846441
  0
LINE
 8
Layer0
10
3145.4638536736
20
-41.7459346117681
30
7.57406381639569e-005
11
3145.61370430735
21
-41.3841631794225
31
7.59294422575163e-005
  0
LINE
 8
Layer0
10
3145.85208224125
20
-43.1948233512009
30
7.5226789342242e-005
11
3146.16274241303
21
-43.433201285098
31
7.52027502841646e-005
  0
LINE
 8
Layer0
10
3221.85208224122
20
-43.1948233512088
30
9.38587800112245e-005
11
3221.61370430732
21
-42.8841631794288
31
9.39309227399931e-005
  0
LINE
 8
Layer0
10
3221.412742413
20
-42.134163179429
30
9.41969104610862e-005
11
3221.46385367356
21
-41.7459346117755
31
9.43726288329394e-005
  0
LINE
 8
Layer0
10
3223.66274241299
20
-43.433201285109
30
9.42024776107164e-005
11
3223.97340258477
21
-43.1948233512129
31
9.43788381791766e-005
  0
LINE
 8
Layer0
10
3201.21276367575
20
-18.1447881298198
30
9.93284255722759e-005
11
3201.5441357905
21
-17.8905199823138
31
9.95165431280753e-005
  0
LINE
 8
Layer0
10
3221.61370430732
20
-41.3841631794299
30
9.45614329264988e-005
11
3221.46385367356
21
-41.7459346117755
31
9.43726288329394e-005
  0
LINE
 8
Layer0
10
3224.36163115243
20
-41.7459346117812
30
9.50830415007431e-005
11
3224.21178051867
21
-41.384163179435
31
9.51983715029581e-005
  0
LINE
 8
Layer0
10
3199.99866009728
20
-5.21366218238428
30
0.000104466249732438
11
3199.61277056944
21
-5.37350285839217
31
0.00010430445846441
  0
LINE
 8
Layer0
10
3202.01277056952
20
-16.7591435043298
30
0.000100106995515858
11
3202.01277056944
21
-6.75914350444794
31
0.000104310396755469
  0
LINE
 8
Layer0
10
3194.10513126342
20
-12.9417709820455
30
9.97729711233131e-005
11
3196.17107335719
21
-15.6341591374678
31
9.91477341105718e-005
  0
LINE
 8
Layer0
10
3223.30097098065
20
-40.6852744400001
30
9.52688504458621e-005
11
3222.912742413
21
-40.6341631794329
31
9.51951573108012e-005
  0
LINE
 8
Layer0
10
3221.46385367356
20
-42.5223917470825
30
9.40462527422081e-005
11
3221.412742413
21
-42.134163179429
31
9.41969104610862e-005
  0
LINE
 8
Layer0
10
3201.9582518915
20
-6.34503303228397
30
0.000104471098326409
11
3201.79841121549
21
-5.9591435044474
31
0.000104594116995438
  0
LINE
 8
Layer0
10
3145.85208224125
20
-43.1948233512009
30
7.5226789342242e-005
11
3145.61370430735
21
-42.884163179421
31
7.52989320710107e-005
  0
LINE
 8
Layer0
10
3145.85208224125
20
-41.0735030076434
30
7.61184654004321e-005
11
3145.61370430735
21
-41.3841631794225
31
7.59294422575163e-005
  0
LINE
 8
Layer0
10
3191.412743108
20
-10.8758288882752
30
9.99813095984514e-005
11
3194.10513126342
21
-12.9417709820455
31
9.97729711233131e-005
  0
LINE
 8
Layer0
10
3201.21277056944
20
-5.37350285839272
30
0.000104696710901031
11
3200.8268810416
21
-5.21366218238501
31
0.000104669294532655
  0
LINE
 8
Layer0
10
3201.79841121558
20
-17.5591435043293
30
9.97181715550077e-005
11
3201.95825189158
21
-17.1732539764938
31
9.99195625915217e-005
  0
LINE
 8
Layer0
10
3188.27739069433
20
-9.57712339571636
30
9.97585516138599e-005
11
3191.412743108
21
-10.8758288882752
31
9.99813095984514e-005
  0
LINE
 8
Layer0
10
3147.97340258481
20
-41.0735030076468
30
7.66385235683842e-005
11
3148.2117805187
21
-41.3841631794268
31
7.65663808339756e-005
  0
LINE
 8
Layer0
10
3170.54414141936
20
-36.6277701592584
30
8.40406355067991e-005
11
3170.21277056947
21
-36.3735003631023
31
8.40662771687484e-005
  0
LINE
 8
Layer0
10
3197.91274310799
20
-22.1341591374613
30
9.68425071812717e-005
11
3197.91274310805
21
-32.1341591373469
31
9.2639105936021e-005
  0
LINE
 8
Layer0
10
3170.21276367581
20
-18.1447881298866
30
9.17285346416552e-005
11
3169.82687335292
21
-18.3046268860517
31
9.15667439883805e-005
  0
LINE
 8
Layer0
10
3198.86728718785
20
-17.1732462876425
30
9.91617918014054e-005
11
3198.81277057011
21
-16.7591355444072
31
9.93224939927373e-005
  0
LINE
 8
Layer0
10
3201.76499582431
20
-17.6026911778648
30
9.96916746761833e-005
11
3201.5441357905
21
-17.8905199823138
31
9.95165431280753e-005
  0
LINE
 8
Layer0
10
3148.2117805187
20
-32.8841631794269
30
8.01392718927207e-005
11
3148.36163115246
21
-32.5223917470813
31
8.03280759862801e-005
  0
LINE
 8
Layer0
10
3146.16274241303
20
-40.8351250737473
30
7.62948259632523e-005
11
3145.85208224125
21
-41.0735030076434
31
7.61184654004321e-005
  0
LINE
 8
Layer0
10
3147.97340258481
20
-43.1948233512043
30
7.57468475101941e-005
11
3147.66274241303
21
-43.4332012851005
31
7.55704869473739e-005
  0
LINE
 8
Layer0
10
3145.85208224125
20
-51.0735030076416
30
7.19150641551813e-005
11
3146.16274241303
21
-50.8351250737455
31
7.20914247236415e-005
  0
LINE
 8
Layer0
10
3200.41276260961
20
-18.3591435037232
30
9.90421969270017e-005
11
3199.99865240883
21
-18.3046227656261
31
9.89635918502429e-005
  0
LINE
 8
Layer0
10
3200.82688104158
20
-36.2136596870265
30
9.16387517309936e-005
11
3200.44955934364
21
-36.163984343122
31
9.15671289250852e-005
  0
LINE
 8
Layer0
10
3201.54414141931
20
-36.6277701591905
30
9.16405264374198e-005
11
3201.21277056941
21
-36.3735003630341
31
9.16661680993691e-005
  0
LINE
 8
Layer0
10
3147.66274241303
20
-63.4332012850969
30
6.71636844568724e-005
11
3147.30097098068
21
-63.5830519188532
31
6.70120051487366e-005
  0
LINE
 8
Layer0
10
3201.21276367575
20
-18.1447881298198
30
9.93284255722759e-005
11
3200.82687335285
21
-18.3046268859849
31
9.91666349190012e-005
  0
LINE
 8
Layer0
10
3147.30097098068
20
-53.5830519188549
30
7.12154063883474e-005
11
3146.91274241303
21
-53.6341631794205
31
7.10987450235567e-005
  0
LINE
 8
Layer0
10
3148.2117805187
20
-52.8841631794235
30
7.17324694078592e-005
11
3147.97340258481
21
-53.1948233512026
31
7.15434462649434e-005
  0
LINE
 8
Layer0
10
3146.91274241303
20
-53.6341631794205
30
7.10987450235567e-005
11
3146.52451384537
21
-53.5830519188536
31
7.10250518884958e-005
  0
LINE
 8
Layer0
10
3168.22712352404
20
-48.8197787210942
30
7.83478101674895e-005
11
3168.02712594406
21
-48.5591341152413
31
7.8408338593583e-005
  0
LINE
 8
Layer0
10
3221.412742413
20
-62.1341631794255
30
8.57901079762247e-005
11
3221.46385367357
21
-61.7459346117721
31
8.59658263424379e-005
  0
LINE
 8
Layer0
10
3263.1627850279
20
0.990867620953989
30
0.000114839296119351
11
3253.16274310312
21
10.9908704001333
31
0.00012529785363018
  0
LINE
 8
Layer0
10
3148.36163115246
20
-52.5223917470779
30
7.19212735014185e-005
11
3148.2117805187
21
-52.8841631794235
31
7.17324694078592e-005
  0
LINE
 8
Layer0
10
3163.23444364864
20
-117.445531296634
30
9.64076767306032e-005
11
3163.23444364864
21
-114.445531296637
31
9.76686971036145e-005
  0
LINE
 8
Layer0
10
3175.72035495259
20
-12.9417709820464
30
9.52658003249951e-005
11
3178.41274310801
21
-10.8758288882758
31
9.67942585643033e-005
  0
LINE
 8
Layer0
10
3224.21178051867
20
-42.8841631794337
30
9.45678613164525e-005
11
3223.97340258477
21
-43.1948233512129
31
9.43788381791766e-005
  0
LINE
 8
Layer0
10
3147.66274241303
20
-30.8351250737514
30
8.08659638660725e-005
11
3147.30097098068
21
-30.6852744399941
31
8.08402610221304e-005
  0
LINE
 8
Layer0
10
3168.22712352407
20
-17.8197812164514
30
9.13783529747914e-005
11
3168.02712594409
21
-17.5591366105984
31
9.14388814008848e-005
  0
LINE
 8
Layer0
10
3168.02713390389
20
-5.95913661132331
30
9.63148287927318e-005
11
3168.28140534851
21
-5.62776702653079
31
9.65164533450302e-005
  0
LINE
 8
Layer0
10
3148.41274241303
20
-42.1341631794263
30
7.63003931128825e-005
11
3148.36163115246
21
-41.7459346117728
31
7.64510508317606e-005
  0
LINE
 8
Layer0
10
3145.85208224125
20
-53.1948233511991
30
7.10233880969913e-005
11
3145.61370430735
21
-52.8841631794192
31
7.10955308313999e-005
  0
LINE
 8
Layer0
10
3147.30097098068
20
-30.6852744399941
30
8.08402610221304e-005
11
3146.91274241303
21
-30.6341631794271
31
8.07665678814295e-005
  0
LINE
 8
Layer0
10
3221.46385367357
20
-61.7459346117721
30
8.59658263424379e-005
11
3221.61370430732
21
-61.3841631794264
31
8.61546304416372e-005
  0
LINE
 8
Layer0
10
3168.99865240887
20
-49.3046202703357
30
7.83331581179603e-005
11
3168.61276367637
21
-49.1447776746069
31
7.83057427478528e-005
  0
LINE
 8
Layer0
10
3169.41276260965
20
-49.3591410084329
30
7.8411763194719e-005
11
3169.44955934378
21
-49.3591410084401
31
7.84207841998175e-005
  0
LINE
 8
Layer0
10
3263.16810763725
20
-135.259168528943
30
0.00010699801302354
11
3293.16274016751
21
-135.259174401165
31
6.12361503293357e-005
  0
LINE
 8
Layer0
10
3196.17107335719
20
-15.6341591374678
30
9.91477341105718e-005
11
3197.46977884975
21
-18.7695115511318
31
9.81482074303486e-005
  0
LINE
 8
Layer0
10
3167.86728718789
20
-48.1732437923519
30
7.85313580691227e-005
11
3167.81277057015
21
-47.7591330491168
31
7.86920602548147e-005
  0
LINE
 8
Layer0
10
3116.91267964902
20
-145.509128097211
30
1.06632510100901e-005
11
3116.91267377554
21
-175.509149655098
31
0.0
  0
LINE
 8
Layer0
10
3106.66271995622
20
-135.259142358775
30
3.72634307789887e-005
11
3116.91267964902
21
-145.509128097211
31
1.06632510100901e-005
  0
LINE
 8
Layer0
10
3170.76499582437
20
-17.6026911779316
30
9.20917837455626e-005
11
3170.54413579056
21
-17.8905199823807
31
9.19166521974546e-005
  0
LINE
 8
Layer0
10
3170.21276367581
20
-18.1447881298866
30
9.17285346416552e-005
11
3170.54413579056
21
-17.8905199823807
31
9.19166521974546e-005
  0
LINE
 8
Layer0
10
3170.21277056947
20
-36.3735003631023
30
8.40662771687484e-005
11
3169.82688104163
21
-36.2136596870945
31
8.40388608003728e-005
  0
LINE
 8
Layer0
10
3171.01277056958
20
-16.7591435043968
30
9.25071045852377e-005
11
3171.01277056949
21
-6.75914350451562
31
9.67105058248485e-005
  0
LINE
 8
Layer0
10
3167.81277057005
20
-37.7591330492349
30
8.28954615000654e-005
11
3167.81277057015
21
-47.7591330491168
31
7.86920602548147e-005
  0
LINE
 8
Layer0
10
3171.91274310802
20
-22.1341591374626
30
9.04684051073357e-005
11
3171.91274310808
21
-32.1341591373466
31
8.62650038620849e-005
  0
LINE
 8
Layer0
10
3171.01277056956
20
-47.7591410090394
30
7.94765617835758e-005
11
3171.01277056946
21
-37.7591410091575
31
8.36799630231866e-005
  0
LINE
 8
Layer0
10
3170.95825189165
20
-17.1732539765608
30
9.23196716609009e-005
11
3171.01277056958
21
-16.7591435043968
31
9.25071045852377e-005
  0
LINE
 8
Layer0
10
3198.81277056999
20
-37.7591330491672
30
9.04953524306862e-005
11
3198.81277057008
21
-47.7591330490498
31
8.62919511854354e-005
  0
LINE
 8
Layer0
10
3198.86728718782
20
-48.173243792285
30
8.61312489997434e-005
11
3198.81277057008
21
-47.7591330490498
31
8.62919511854354e-005
  0
LINE
 8
Layer0
10
3222.162742413
20
-30.8351250737566
30
9.91302178718456e-005
11
3221.85208224122
21
-31.0735030076526
31
9.89538573090254e-005
  0
LINE
 8
Layer0
10
3221.85208224122
20
-31.0735030076526
30
9.89538573090254e-005
11
3221.61370430732
21
-31.3841631794317
31
9.87648341717495e-005
  0
LINE
 8
Layer0
10
3221.61370430732
20
-31.3841631794317
30
9.87648341717495e-005
11
3221.46385367356
21
-31.7459346117774
31
9.85760300725502e-005
  0
LINE
 8
Layer0
10
3221.46385367356
20
-32.5223917470843
30
9.82496539874589e-005
11
3221.61370430732
21
-32.8841631794306
31
9.81343239852439e-005
  0
LINE
 8
Layer0
10
3223.66274241299
20
-33.4332012851108
30
9.84058788559672e-005
11
3223.97340258477
21
-33.1948233512147
31
9.85822394187874e-005
  0
LINE
 8
Layer0
10
3222.162742413
20
-50.835125073753
30
9.0723415386984e-005
11
3222.52451384535
21
-50.6852744399968
31
9.08750947007597e-005
  0
LINE
 8
Layer0
10
3147.66274241302
20
-33.4332012851022
30
7.97738881869847e-005
11
3147.9734025848
21
-33.1948233512061
31
7.99502487554449e-005
  0
LINE
 8
Layer0
10
3148.41274241303
20
-32.134163179428
30
8.05037943581333e-005
11
3148.36163115246
21
-31.7459346117746
31
8.06544520770114e-005
  0
LINE
 8
Layer0
10
3197.46977884981
20
-35.4988067236758
30
9.11162134194399e-005
11
3196.17107335726
21
-38.6341591373396
31
8.94799112526989e-005
  0
LINE
 8
Layer0
10
3147.9734025848
20
-33.1948233512061
30
7.99502487554449e-005
11
3148.2117805187
21
-32.8841631794269
31
8.01392718927207e-005
  0
LINE
 8
Layer0
10
3221.61370430732
20
-51.3841631794281
30
9.03580316868879e-005
11
3221.85208224122
21
-51.0735030076491
31
9.05470548241638e-005
  0
LINE
 8
Layer0
10
3170.79841121564
20
-17.5591435043962
30
9.2118280624387e-005
11
3170.76499582437
21
-17.6026911779316
31
9.20917837455626e-005
  0
LINE
 8
Layer0
10
3145.41274241303
20
-52.1341631794196
30
7.13615185524929e-005
11
3145.4638536736
21
-51.7459346117663
31
7.15372369187062e-005
  0
LINE
 8
Layer0
10
3168.6127636764
20
-18.1447801699641
30
9.13362855551547e-005
11
3168.2813940916
21
-17.8905087253509
31
9.13619282153721e-005
  0
LINE
 8
Layer0
10
3200.41277056941
20
-36.1591410090889
30
9.1560145718006e-005
11
3199.99866009725
21
-36.2136596870258
31
9.14357069307758e-005
  0
LINE
 8
Layer0
10
3170.21276367579
20
-49.1447856345295
30
7.86979918399933e-005
11
3169.82687335289
21
-49.3046243906944
31
7.85362011867186e-005
  0
LINE
 8
Layer0
10
3200.44955934364
20
-36.163984343122
30
9.15671289250852e-005
11
3200.41277056941
21
-36.1591410090889
31
9.1560145718006e-005
  0
LINE
 8
Layer0
10
3221.46385367357
20
-62.522391747079
30
8.56394502573465e-005
11
3221.41918712324
21
-62.1831156137555
31
8.57711112776549e-005
  0
LINE
 8
Layer0
10
3293.16274016749
20
0.990866231388208
30
9.4300076684517e-005
11
3263.1627850279
21
0.990867620953989
31
0.000114839296119351
  0
LINE
 8
Layer0
10
3148.41274241303
20
-62.1341631794227
30
6.78935906280209e-005
11
3148.40629770279
21
-62.1831156137482
31
6.78714339821696e-005
  0
LINE
 8
Layer0
10
3221.41918712324
20
-62.1831156137555
30
8.57711112776549e-005
11
3221.412742413
21
-62.1341631794255
31
8.57901079762247e-005
  0
LINE
 8
Layer0
10
3253.16275911204
20
-175.509149655101
30
4.42436964527282e-005
11
3116.91267377554
21
-175.509149655098
31
0.0
  0
LINE
 8
Layer0
10
3148.21178051871
20
-51.3841631794251
30
7.23629795943648e-005
11
3147.97340258481
21
-51.0735030076451
31
7.24351223231334e-005
  0
LINE
 8
Layer0
10
3169.23444364864
20
-117.445531296636
30
9.78786233608808e-005
11
3163.23444364864
21
-117.445531296634
31
9.64076767306032e-005
  0
LINE
 8
Layer0
10
3169.41276260968
20
-18.35914350379
30
9.14423060020209e-005
11
3168.99865240889
21
-18.304622765693
31
9.13637009196222e-005
  0
LINE
 8
Layer0
10
3223.662742413
20
-63.4332012851055
30
8.57956751258548e-005
11
3223.30097098065
21
-63.5830519188615
31
8.56439958120792e-005
  0
LINE
 8
Layer0
10
3163.23444364864
20
-114.445531296637
30
9.76686971036145e-005
11
3169.23444364864
21
-114.445531296638
31
9.91396437338921e-005
  0
LINE
 8
Layer0
10
3147.97340258481
20
-31.0735030076486
30
8.0841924807995e-005
11
3147.66274241303
21
-30.8351250737514
31
8.08659638660725e-005
  0
LINE
 8
Layer0
10
3146.91274241303
20
-30.6341631794271
30
8.07665678814295e-005
11
3146.52451384538
21
-30.6852744399929
31
8.06499065222788e-005
  0
LINE
 8
Layer0
10
3148.36163115246
20
-42.5223917470796
30
7.61246747466693e-005
11
3148.41274241303
21
-42.1341631794263
31
7.63003931128825e-005
  0
LINE
 8
Layer0
10
3223.662742413
20
-60.8351250737542
30
8.68877508049426e-005
11
3223.97340258478
21
-61.0735030076514
31
8.68637117468651e-005
  0
LINE
 8
Layer0
10
3221.46385367356
20
-31.7459346117774
30
9.85760300725502e-005
11
3221.412742413
21
-32.1341631794308
31
9.8400311706337e-005
  0
LINE
 8
Layer0
10
3147.66274241303
20
-50.8351250737479
30
7.24591613812109e-005
11
3147.30097098068
21
-50.6852744399907
31
7.24334585372688e-005
  0
LINE
 8
Layer0
10
3167.86729130817
20
-6.34502534381483
30
9.61134376208594e-005
11
3167.81277057007
21
-6.75913554459325
31
9.59260043017274e-005
  0
LINE
 8
Layer0
10
3221.85208224122
20
-51.0735030076491
30
9.05470548241638e-005
11
3222.162742413
21
-50.835125073753
31
9.0723415386984e-005
  0
LINE
 8
Layer0
10
3169.44955934372
20
-5.16398683854828
30
9.69977807961264e-005
11
3169.41277056949
21
-5.15914350451535
31
9.69907975890472e-005
  0
LINE
 8
Layer0
10
3169.82688104165
20
-5.21366218245296
30
9.70694036020347e-005
11
3169.44955934372
21
-5.16398683854828
31
9.69977807961264e-005
  0
LINE
 8
Layer0
10
3194.10513126348
20
-41.3265472927618
30
8.78417107183616e-005
11
3191.41274310806
21
-43.392489386532
31
8.63132524846932e-005
  0
LINE
 8
Layer0
10
3175.72035495265
20
-41.3265472927617
30
8.33345399200436e-005
11
3173.65441285888
21
-38.6341591373395
31
8.39597769327849e-005
  0
LINE
 8
Layer0
10
3224.36163115243
20
-52.5223917470864
30
9.0553264170401e-005
11
3224.21178051867
21
-52.8841631794319
31
9.03644600712017e-005
  0
LINE
 8
Layer0
10
3168.2813940916
20
-17.8905087253509
30
9.13619282153721e-005
11
3168.22712352407
21
-17.8197812164514
31
9.13783529747914e-005
  0
LINE
 8
Layer0
10
3224.36163115243
20
-31.7459346117829
30
9.92864427459939e-005
11
3224.21178051867
21
-31.3841631794367
31
9.94017727482088e-005
  0
LINE
 8
Layer0
10
3221.46385367356
20
-52.5223917470808
30
8.98428514969574e-005
11
3221.412742413
21
-52.1341631794272
31
8.99935092214754e-005
  0
LINE
 8
Layer0
10
3167.86729130814
20
-37.3450228484564
30
8.30828948135576e-005
11
3168.02713390387
21
-36.959134115965
31
8.32842859854299e-005
  0
LINE
 8
Layer0
10
3169.23444364864
20
-114.445531296638
30
9.91396437338921e-005
11
3169.23444364864
21
-117.445531296636
31
9.78786233608808e-005
  0
LINE
 8
Layer0
10
3223.30097098065
20
-33.5830519188668
30
9.82541995421915e-005
11
3223.66274241299
21
-33.4332012851108
31
9.84058788559672e-005
  0
LINE
 8
Layer0
10
3167.86729130814
20
-37.3450228484564
30
8.30828948135576e-005
11
3167.81277057005
21
-37.7591330492349
31
8.28954615000654e-005
  0
LINE
 8
Layer0
10
3201.76499582428
20
-48.6026886825074
30
8.66611318745214e-005
11
3201.54413579047
21
-48.8905174869564
31
8.64860003264134e-005
  0
LINE
 8
Layer0
10
3199.28140534843
20
-36.6277645311046
30
9.10858014683491e-005
11
3199.57470621891
21
-36.402708091275
31
9.12523067107873e-005
  0
LINE
 8
Layer0
10
3147.30097098069
20
-60.6852744399888
30
6.8230057292018e-005
11
3146.91274241303
21
-60.6341631794218
31
6.81563641569571e-005
  0
LINE
 8
Layer0
10
3200.44955934372
20
-49.3591410083732
30
8.60206751304382e-005
11
3200.82687335283
21
-49.3046243906276
31
8.61360921173393e-005
  0
LINE
 8
Layer0
10
3148.36163115246
20
-31.7459346117746
30
8.06544520770114e-005
11
3148.2117805187
21
-31.3841631794285
31
8.07697820792264e-005
  0
LINE
 8
Layer0
10
3199.227123524
20
-17.8197812163848
30
9.89782439054121e-005
11
3199.02712594402
21
-17.5591366105316
31
9.90387723315056e-005
  0
LINE
 8
Layer0
10
3147.66274241303
20
-43.4332012851005
30
7.55704869473739e-005
11
3147.30097098068
21
-43.5830519188567
31
7.54188076335982e-005
  0
LINE
 8
Layer0
10
3145.41274241303
20
-62.1341631794178
30
6.71581173128821e-005
11
3145.4638536736
21
-61.7459346117646
31
6.73338356790953e-005
  0
LINE
 8
Layer0
10
3222.52451384535
20
-40.6852744399985
30
9.50784959460105e-005
11
3222.912742413
21
-40.6341631794329
31
9.51951573108012e-005
  0
LINE
 8
Layer0
10
3168.02712594409
20
-17.5591366105984
30
9.14388814008848e-005
11
3167.86728718791
21
-17.1732462877093
31
9.15619008707846e-005
  0
LINE
 8
Layer0
10
3224.36163115243
20
-51.7459346117794
30
9.08796402611323e-005
11
3224.412742413
21
-52.134163179433
31
9.07289825366142e-005
  0
LINE
 8
Layer0
10
3201.21276367572
20
-49.1447856344624
30
8.6297882770614e-005
11
3200.82687335283
21
-49.3046243906276
31
8.61360921173393e-005
  0
LINE
 8
Layer0
10
3145.46385367359
20
-32.5223917470767
30
7.96176633184764e-005
11
3145.61370430735
21
-32.8841631794228
31
7.95023333162614e-005
  0
LINE
 8
Layer0
10
3167.86728718791
20
-17.1732462877093
30
9.15619008707846e-005
11
3167.81277057017
21
-16.7591355444742
31
9.17226030621165e-005
  0
LINE
 8
Layer0
10
3167.81277057007
20
-6.75913554459325
30
9.59260043017274e-005
11
3167.81277057017
21
-16.7591355444742
31
9.17226030621165e-005
  0
LINE
 8
Layer0
10
3145.61370430735
20
-31.3841631794242
30
8.0132843502767e-005
11
3145.4638536736
21
-31.7459346117699
31
7.99440394035677e-005
  0
LINE
 8
Layer0
10
3201.79841121555
20
-48.5591410089718
30
8.66876287477059e-005
11
3201.76499582428
21
-48.6026886825074
31
8.66611318745214e-005
  0
LINE
 8
Layer0
10
3171.91274310802
20
-22.1341591374626
30
9.04684051073357e-005
11
3172.35570736626
21
-18.7695115511331
31
9.19912976239168e-005
  0
LINE
 8
Layer0
10
3199.99866009725
20
-36.2136596870258
30
9.14357069307758e-005
11
3199.61277056941
21
-36.3735003630337
31
9.12739156627484e-005
  0
LINE
 8
Layer0
10
3198.81277057002
20
-6.75913554452557
30
0.000103525895232348
11
3198.81277057011
21
-16.7591355444072
31
9.93224939927373e-005
  0
LINE
 8
Layer0
10
3197.91274310805
20
-32.1341591373469
30
9.2639105936021e-005
11
3197.46977884981
21
-35.4988067236758
31
9.11162134194399e-005
  0
LINE
 8
Layer0
10
3145.41274241303
20
-42.1341631794214
30
7.55649197977437e-005
11
3145.4638536736
21
-41.7459346117681
31
7.57406381639569e-005
  0
LINE
 8
Layer0
10
3200.41276260959
20
-49.3591410083659
30
8.60116541253397e-005
11
3199.9986524088
21
-49.3046202702689
31
8.5933049048581e-005
  0
LINE
 8
Layer0
10
3146.52451384538
20
-40.6852744399911
30
7.6446505277028e-005
11
3146.16274241303
21
-40.8351250737473
31
7.62948259632523e-005
  0
LINE
 8
Layer0
10
3199.28140534846
20
-5.62776702646311
30
0.000104116344275651
11
3199.57470621894
21
-5.40271058663338
31
0.000104282849518089
  0
LINE
 8
Layer0
10
3222.52451384535
20
-40.6852744399985
30
9.50784959460105e-005
11
3222.162742413
21
-40.8351250737547
31
9.49268166322348e-005
  0
LINE
 8
Layer0
10
3221.85208224122
20
-53.194823351207
30
8.96553787659737e-005
11
3221.61370430732
21
-52.8841631794271
31
8.97275215003823e-005
  0
LINE
 8
Layer0
10
3222.912742413
20
-60.6341631794295
30
8.67883548202997e-005
11
3223.30097098065
21
-60.6852744399966
31
8.68620479610005e-005
  0
LINE
 8
Layer0
10
3221.46385367356
20
-52.5223917470808
30
8.98428514969574e-005
11
3221.61370430732
21
-52.8841631794271
31
8.97275215003823e-005
  0
LINE
 8
Layer0
10
3168.57470621897
20
-36.4027080913428
30
8.36524157801666e-005
11
3168.61277056946
21
-36.3735003631015
31
8.36740247321277e-005
  0
LINE
 8
Layer0
10
3223.30097098065
20
-60.6852744399966
30
8.68620479610005e-005
11
3223.662742413
21
-60.8351250737542
31
8.68877508049426e-005
  0
LINE
 8
Layer0
10
3224.21178051868
20
-61.3841631794314
30
8.67915690180965e-005
11
3224.36163115243
21
-61.7459346117777
31
8.66762390158815e-005
  0
LINE
 8
Layer0
10
3223.97340258478
20
-51.0735030076531
30
9.10671129921159e-005
11
3224.21178051867
21
-51.3841631794332
31
9.09949702577073e-005
  0
LINE
 8
Layer0
10
3146.52451384538
20
-50.6852744399893
30
7.22431040317772e-005
11
3146.91274241303
21
-50.6341631794236
31
7.2359765396568e-005
  0
LINE
 8
Layer0
10
3222.162742413
20
-53.4332012851044
30
8.96313397135362e-005
11
3221.85208224122
21
-53.194823351207
31
8.96553787659737e-005
  0
LINE
 8
Layer0
10
3224.21178051867
20
-51.3841631794332
30
9.09949702577073e-005
11
3224.36163115243
21
-51.7459346117794
31
9.08796402611323e-005
  0
LINE
 8
Layer0
10
3169.23444364861
20
-108.445531296698
30
0.000101661684479915
11
3169.23444364861
21
-111.445531296696
31
0.000100400664106903
  0
LINE
 8
Layer0
10
3148.21178051871
20
-61.3841631794232
30
6.8159578349114e-005
11
3147.97340258481
21
-61.0735030076433
31
6.82317210835226e-005
  0
LINE
 8
Layer0
10
3169.23444364861
20
-111.445531296696
30
0.000100400664106903
11
3163.23444364861
21
-111.445531296695
31
9.89297174766257e-005
  0
LINE
 8
Layer0
10
3200.44955934367
20
-5.16398683848051
30
0.000104597671726747
11
3200.41277056944
21
-5.15914350444758
31
0.000104590688519668
  0
LINE
 8
Layer0
10
3224.36163115243
20
-32.5223917470899
30
9.89600666552626e-005
11
3224.41274241299
21
-32.1341631794366
31
9.91357850214758e-005
  0
LINE
 8
Layer0
10
3148.21178051871
20
-61.3841631794232
30
6.8159578349114e-005
11
3148.36163115246
21
-61.7459346117693
31
6.8044248346899e-005
  0
LINE
 8
Layer0
10
3147.66274241303
20
-40.8351250737497
30
7.66625626208217e-005
11
3147.30097098068
21
-40.6852744399924
31
7.66368597768796e-005
  0
LINE
 8
Layer0
10
3170.79841121564
20
-17.5591435043962
30
9.2118280624387e-005
11
3170.95825189165
21
-17.1732539765608
31
9.23196716609009e-005
  0
LINE
 8
Layer0
10
3199.6127636763
20
-49.14477767454
30
8.59056336784736e-005
11
3199.28139409151
21
-48.8905062299266
31
8.5931276338691e-005
  0
LINE
 8
Layer0
10
3201.79841121555
20
-48.5591410089718
30
8.66876287477059e-005
11
3201.95825189156
21
-48.1732514811364
31
8.68890197842198e-005
  0
LINE
 8
Layer0
10
3221.412742413
20
-32.1341631794308
30
9.8400311706337e-005
11
3221.46385367356
21
-32.5223917470843
31
9.82496539874589e-005
  0
LINE
 8
Layer0
10
3168.28140534851
20
-5.62776702653079
30
9.65164533450302e-005
11
3168.57470621899
21
-5.40271058670124
31
9.66829585874684e-005
  0
LINE
 8
Layer0
10
3169.44955934381
20
-18.3591435037973
30
9.14513270071193e-005
11
3169.82687335292
21
-18.3046268860517
31
9.15667439883805e-005
  0
LINE
 8
Layer0
10
3198.86729130812
20
-6.34502534374697
30
0.00010371332855148
11
3199.02713390384
21
-5.95913661125554
31
0.000103914719723353
  0
LINE
 8
Layer0
10
3224.21178051867
20
-42.8841631794337
30
9.45678613164525e-005
11
3224.36163115243
21
-42.5223917470882
31
9.47566654156518e-005
  0
LINE
 8
Layer0
10
3199.28139409151
20
-48.8905062299266
30
8.5931276338691e-005
11
3199.22712352398
21
-48.8197787210274
31
8.59477010981102e-005
  0
LINE
 8
Layer0
10
3253.16274310312
20
10.9908704001333
30
0.00012529785363018
11
3253.16278919633
21
40.9908705565786
31
0.00015961082489131
  0
LINE
 8
Layer0
10
3148.2117805187
20
-42.8841631794252
30
7.593587064747e-005
11
3148.36163115246
21
-42.5223917470796
31
7.61246747466693e-005
  0
LINE
 8
Layer0
10
3146.52451384538
20
-40.6852744399911
30
7.6446505277028e-005
11
3146.91274241303
21
-40.6341631794253
31
7.65631666418187e-005
  0
LINE
 8
Layer0
10
3148.21178051871
20
-51.3841631794251
30
7.23629795943648e-005
11
3148.36163115246
21
-51.7459346117711
31
7.22476495921498e-005
  0
LINE
 8
Layer0
10
3148.2117805187
20
-42.8841631794252
30
7.593587064747e-005
11
3147.97340258481
21
-43.1948233512043
31
7.57468475101941e-005
  0
LINE
 8
Layer0
10
3145.61370430735
20
-52.8841631794192
30
7.10955308313999e-005
11
3145.4638536736
21
-52.5223917470731
31
7.12108608336148e-005
  0
LINE
 8
Layer0
10
3145.4638536736
20
-52.5223917470731
30
7.12108608336148e-005
11
3145.41274241303
21
-52.1341631794196
31
7.13615185524929e-005
  0
LINE
 8
Layer0
10
3201.21277056941
20
-36.3735003630341
30
9.16661680993691e-005
11
3200.82688104158
21
-36.2136596870265
31
9.16387517309936e-005
  0
LINE
 8
Layer0
10
3148.41274241303
20
-52.1341631794245
30
7.20969918676317e-005
11
3148.36163115246
21
-51.7459346117711
31
7.22476495921498e-005
 0
ENDSEC
 0
EOF
