 0
SECTION
 2
ENTITIES
  0
POLYLINE
 8
Layer0
 66
     1
70
    8
 10
0.0
 20
 0.0
 30
0.0
  0
VERTEX
  8
MY3DLAYER
10
1460.46771530397
20
831.255879910134
30
0.000155723209826419
 70
     32
  0
VERTEX
  8
MY3DLAYER
10
1438.46771530398
20
831.255879910147
30
0.000135489505481345
 70
     32
  0
VERTEX
  8
MY3DLAYER
10
1438.46771814877
20
816.255879910166
30
0.000144837750634963
 70
     32
  0
VERTEX
  8
MY3DLAYER
10
1458.46772004531
20
791.255879910165
30
0.000140956474832166
 70
     32
  0
VERTEX
  8
MY3DLAYER
10
1458.46776688973
20
571.255888292057
30
4.89544753339288e-005
 70
     32
  0
VERTEX
  8
MY3DLAYER
10
1438.46776632168
20
546.255888292061
30
3.87403391680863e-005
 70
     32
  0
VERTEX
  8
MY3DLAYER
10
1438.46776688974
20
531.255888292064
30
2.97300081165019e-005
 70
     32
  0
VERTEX
  8
MY3DLAYER
10
1460.46776688974
20
531.255888292068
30
2.49818562082282e-005
 70
     32
  0
VERTEX
  8
MY3DLAYER
10
1460.46776688974
20
509.255888292082
30
0.0
 70
     32
  0
VERTEX
  8
MY3DLAYER
10
1475.46776688971
20
509.255891136867
30
2.061504579558e-005
 70
     32
  0
VERTEX
  8
MY3DLAYER
10
1500.46776688971
20
529.255893033398
30
3.40041737416641e-005
 70
     32
  0
VERTEX
  8
MY3DLAYER
10
1720.46775850783
20
529.255939877805
30
8.84894585421847e-005
 70
     32
  0
VERTEX
  8
MY3DLAYER
10
1745.46775850783
20
509.25593930975
30
8.67880839230395e-005
 70
     32
  0
VERTEX
  8
MY3DLAYER
10
1760.46775850783
20
509.255939877807
30
9.09757198918726e-005
 70
     32
  0
VERTEX
  8
MY3DLAYER
10
1760.46775850783
20
531.255939877807
30
9.09757198918726e-005
 70
     32
  0
VERTEX
  8
MY3DLAYER
10
1782.46775850782
20
531.255939877807
30
8.04211125235099e-005
 70
     32
  0
VERTEX
  8
MY3DLAYER
10
1782.46775566303
20
546.255939877776
30
0.000100823571558806
 70
     32
  0
VERTEX
  8
MY3DLAYER
10
1762.46775376649
20
566.255614576982
30
0.0001164113392079
 70
     32
  0
VERTEX
  8
MY3DLAYER
10
1762.46770692206
20
796.255684417582
30
0.000208809032612933
 70
     32
  0
VERTEX
  8
MY3DLAYER
10
1782.46770749011
20
816.255931495871
30
0.000228965874552856
 70
     32
  0
VERTEX
  8
MY3DLAYER
10
1782.46770692205
20
831.255931495869
30
0.000236144322349929
 70
     32
  0
VERTEX
  8
MY3DLAYER
10
1760.46770692206
20
831.255931495873
30
0.000221717073510064
 70
     32
  0
VERTEX
  8
MY3DLAYER
10
1760.46770692207
20
853.255931495872
30
0.000215910617959736
 70
     32
  0
VERTEX
  8
MY3DLAYER
10
1745.46770692209
20
853.255928651074
30
0.000226803745429649
 70
     32
  0
VERTEX
  8
MY3DLAYER
10
1720.46770692209
20
833.255926754542
30
0.000215353327069323
 70
     32
  0
VERTEX
  8
MY3DLAYER
10
1500.46771530397
20
833.255879910131
30
0.00017103356099426
 70
     32
  0
VERTEX
  8
MY3DLAYER
10
1475.46771530397
20
853.255880478183
30
0.000179155543226628
 70
     32
  0
VERTEX
  8
MY3DLAYER
10
1460.46771530397
20
853.255879910126
30
0.000174898610574559
 70
     32
  0
VERTEX
  8
MY3DLAYER
10
1460.46771530397
20
831.255879910134
30
0.000155723209826419
 70
     32
  0
SEQEND
  0
POLYLINE
 8
Layer0
 66
     1
70
    8
 10
0.0
 20
 0.0
 30
0.0
  0
VERTEX
  8
MY3DLAYER
10
1750.12362198033
20
546.13555723106
30
0.00010980266022429
 70
     32
  0
VERTEX
  8
MY3DLAYER
10
1751.41771720584
20
546.305928099615
30
0.00010980266022429
 70
     32
  0
VERTEX
  8
MY3DLAYER
10
1752.71181243136
20
546.13555723106
30
0.00010980266022429
 70
     32
  0
VERTEX
  8
MY3DLAYER
10
1753.91771720584
20
545.636055118537
30
0.00010980266022429
 70
     32
  0
VERTEX
  8
MY3DLAYER
10
1754.95325111178
20
544.841462005547
30
0.00010980266022429
 70
     32
  0
VERTEX
  8
MY3DLAYER
10
1755.74784422477
20
543.805928099615
30
0.00010980266022429
 70
     32
  0
VERTEX
  8
MY3DLAYER
10
1756.24734633729
20
542.600023325127
30
0.00010980266022429
 70
     32
  0
VERTEX
  8
MY3DLAYER
10
1756.41771720584
20
541.305928099615
30
0.00010980266022429
 70
     32
  0
VERTEX
  8
MY3DLAYER
10
1756.24734633729
20
540.011832874102
30
0.00010980266022429
 70
     32
  0
VERTEX
  8
MY3DLAYER
10
1755.74784422477
20
538.805928099615
30
0.00010980266022429
 70
     32
  0
VERTEX
  8
MY3DLAYER
10
1754.95325111178
20
537.770394193682
30
0.00010980266022429
 70
     32
  0
VERTEX
  8
MY3DLAYER
10
1753.91771720584
20
536.975801080692
30
0.00010980266022429
 70
     32
  0
VERTEX
  8
MY3DLAYER
10
1752.71181243136
20
536.476298968169
30
0.00010980266022429
 70
     32
  0
VERTEX
  8
MY3DLAYER
10
1751.41771720584
20
536.305928099615
30
0.00010980266022429
 70
     32
  0
VERTEX
  8
MY3DLAYER
10
1750.12362198033
20
536.476298968169
30
0.00010980266022429
 70
     32
  0
VERTEX
  8
MY3DLAYER
10
1748.91771720584
20
536.975801080692
30
0.00010980266022429
 70
     32
  0
VERTEX
  8
MY3DLAYER
10
1747.88218329991
20
537.770394193682
30
0.00010980266022429
 70
     32
  0
VERTEX
  8
MY3DLAYER
10
1747.08759018692
20
538.805928099615
30
0.00010980266022429
 70
     32
  0
VERTEX
  8
MY3DLAYER
10
1746.5880880744
20
540.011832874102
30
0.00010980266022429
 70
     32
  0
VERTEX
  8
MY3DLAYER
10
1746.41771720584
20
541.305928099615
30
0.00010980266022429
 70
     32
  0
VERTEX
  8
MY3DLAYER
10
1746.5880880744
20
542.600023325127
30
0.00010980266022429
 70
     32
  0
VERTEX
  8
MY3DLAYER
10
1747.08759018692
20
543.805928099615
30
0.00010980266022429
 70
     32
  0
VERTEX
  8
MY3DLAYER
10
1747.88218329991
20
544.841462005547
30
0.00010980266022429
 70
     32
  0
VERTEX
  8
MY3DLAYER
10
1748.91771720584
20
545.636055118537
30
0.00010980266022429
 70
     32
  0
VERTEX
  8
MY3DLAYER
10
1750.12362198033
20
546.13555723106
30
0.00010980266022429
 70
     32
  0
SEQEND
  0
POLYLINE
 8
Layer0
 66
     1
70
    8
 10
0.0
 20
 0.0
 30
0.0
  0
VERTEX
  8
MY3DLAYER
10
1749.12362347453
20
827.035519325335
30
0.000229390019124054
 70
     32
  0
VERTEX
  8
MY3DLAYER
10
1750.41771870004
20
827.20589019389
30
0.000230272005196497
 70
     32
  0
VERTEX
  8
MY3DLAYER
10
1751.71181392555
20
827.035519325335
30
0.000231086960079097
 70
     32
  0
VERTEX
  8
MY3DLAYER
10
1752.91771870004
20
826.536017212812
30
0.000231779346043481
 70
     32
  0
VERTEX
  8
MY3DLAYER
10
1753.95325260597
20
825.741424099822
30
0.000232301978011762
 70
     32
  0
VERTEX
  8
MY3DLAYER
10
1754.74784571896
20
824.705890193889
30
0.000232619239536547
 70
     32
  0
VERTEX
  8
MY3DLAYER
10
1755.24734783148
20
823.499985419401
30
0.000232709509776896
 70
     32
  0
VERTEX
  8
MY3DLAYER
10
1755.41771870004
20
822.205890193889
30
0.000232566636964648
 70
     32
  0
VERTEX
  8
MY3DLAYER
10
1755.24734783148
20
820.911794968377
30
0.000232200357654477
 70
     32
  0
VERTEX
  8
MY3DLAYER
10
1754.74784571896
20
819.705890193889
30
0.000231635633106819
 70
     32
  0
VERTEX
  8
MY3DLAYER
10
1753.95325260597
20
818.670356287957
30
0.000230910948419449
 70
     32
  0
VERTEX
  8
MY3DLAYER
10
1752.91771870004
20
817.875763174967
30
0.000230075689687936
 70
     32
  0
VERTEX
  8
MY3DLAYER
10
1751.71181392555
20
817.376261062445
30
0.000229186778319246
 70
     32
  0
VERTEX
  8
MY3DLAYER
10
1750.41771870004
20
817.20589019389
30
0.000228304792246803
 70
     32
  0
VERTEX
  8
MY3DLAYER
10
1749.12362347453
20
817.376261062445
30
0.000227489837364203
 70
     32
  0
VERTEX
  8
MY3DLAYER
10
1747.91771870004
20
817.875763174968
30
0.000226797451444938
 70
     32
  0
VERTEX
  8
MY3DLAYER
10
1746.88218479411
20
818.670356287958
30
0.000226274819476657
 70
     32
  0
VERTEX
  8
MY3DLAYER
10
1746.08759168112
20
819.705890193891
30
0.000225957557906753
 70
     32
  0
VERTEX
  8
MY3DLAYER
10
1745.5880895686
20
820.911794968379
30
0.000225867287666404
 70
     32
  0
VERTEX
  8
MY3DLAYER
10
1745.41771870004
20
822.205890193891
30
0.000226010160478651
 70
     32
  0
VERTEX
  8
MY3DLAYER
10
1745.58808956859
20
823.499985419403
30
0.000226376439833942
 70
     32
  0
VERTEX
  8
MY3DLAYER
10
1746.08759168112
20
824.705890193891
30
0.0002269411643816
 70
     32
  0
VERTEX
  8
MY3DLAYER
10
1746.88218479411
20
825.741424099823
30
0.00022766584902385
 70
     32
  0
VERTEX
  8
MY3DLAYER
10
1747.91771870004
20
826.536017212813
30
0.000228501107755363
 70
     32
  0
VERTEX
  8
MY3DLAYER
10
1749.12362347453
20
827.035519325335
30
0.000229390019124054
 70
     32
  0
SEQEND
  0
POLYLINE
 8
Layer0
 66
     1
70
    8
 10
0.0
 20
 0.0
 30
0.0
  0
VERTEX
  8
MY3DLAYER
10
1468.22366138029
20
826.035520819557
30
0.00016792874802789
 70
     32
  0
VERTEX
  8
MY3DLAYER
10
1469.5177566058
20
826.205891688111
30
0.000168667861288085
 70
     32
  0
VERTEX
  8
MY3DLAYER
10
1470.81185183131
20
826.035520819556
30
0.000169116536860514
 70
     32
  0
VERTEX
  8
MY3DLAYER
10
1472.0177566058
20
825.536018707033
30
0.000169244198232121
 70
     32
  0
VERTEX
  8
MY3DLAYER
10
1473.05329051173
20
824.741425594044
30
0.000169042145558151
 70
     32
  0
VERTEX
  8
MY3DLAYER
10
1473.84788362472
20
823.705891688112
30
0.000168524148351423
 70
     32
  0
VERTEX
  8
MY3DLAYER
10
1474.34738573724
20
822.499986913624
30
0.000167725507268202
 70
     32
  0
VERTEX
  8
MY3DLAYER
10
1474.5177566058
20
821.205891688112
30
0.000166700648383511
 70
     32
  0
VERTEX
  8
MY3DLAYER
10
1474.34738573724
20
819.9117964626
30
0.000165519414145621
 70
     32
  0
VERTEX
  8
MY3DLAYER
10
1473.84788362472
20
818.705891688113
30
0.000164262303678697
 70
     32
  0
VERTEX
  8
MY3DLAYER
10
1473.05329051173
20
817.670357782181
30
0.000163014987023047
 70
     32
  0
VERTEX
  8
MY3DLAYER
10
1472.0177566058
20
816.875764669192
30
0.00016186246672163
 70
     32
  0
VERTEX
  8
MY3DLAYER
10
1470.81185183131
20
816.376262556669
30
0.00016088328511259
 70
     32
  0
VERTEX
  8
MY3DLAYER
10
1469.5177566058
20
816.205891688114
30
0.000160144171897514
 70
     32
  0
VERTEX
  8
MY3DLAYER
10
1468.22366138029
20
816.376262556669
30
0.000159695496325085
 70
     32
  0
VERTEX
  8
MY3DLAYER
10
1467.0177566058
20
816.875764669192
30
0.000159567834908358
 70
     32
  0
VERTEX
  8
MY3DLAYER
10
1465.98222269987
20
817.670357782182
30
0.000159769887627448
 70
     32
  0
VERTEX
  8
MY3DLAYER
10
1465.18762958688
20
818.705891688114
30
0.000160287884789057
 70
     32
  0
VERTEX
  8
MY3DLAYER
10
1464.68812747435
20
819.911796462601
30
0.000161086525917398
 70
     32
  0
VERTEX
  8
MY3DLAYER
10
1464.5177566058
20
821.205891688113
30
0.000162111384802088
 70
     32
  0
VERTEX
  8
MY3DLAYER
10
1464.68812747435
20
822.499986913625
30
0.000163292619039979
 70
     32
  0
VERTEX
  8
MY3DLAYER
10
1465.18762958688
20
823.705891688112
30
0.000164549729506902
 70
     32
  0
VERTEX
  8
MY3DLAYER
10
1465.98222269986
20
824.741425594045
30
0.000165797046162552
 70
     32
  0
VERTEX
  8
MY3DLAYER
10
1467.0177566058
20
825.536018707034
30
0.00016694956646397
 70
     32
  0
VERTEX
  8
MY3DLAYER
10
1468.22366138029
20
826.035520819557
30
0.00016792874802789
 70
     32
  0
SEQEND
  0
POLYLINE
 8
Layer0
 66
     1
70
    8
 10
0.0
 20
 0.0
 30
0.0
  0
VERTEX
  8
MY3DLAYER
10
1469.22365988609
20
545.135558725333
30
4.83413891732454e-005
 70
     32
  0
VERTEX
  8
MY3DLAYER
10
1470.5177551116
20
545.305929593888
30
4.81985163609977e-005
 70
     32
  0
VERTEX
  8
MY3DLAYER
10
1471.81185033711
20
545.135558725333
30
4.78322370057072e-005
 70
     32
  0
VERTEX
  8
MY3DLAYER
10
1473.0177551116
20
544.63605661281
30
4.72675125031685e-005
 70
     32
  0
VERTEX
  8
MY3DLAYER
10
1474.05328901753
20
543.841463499821
30
4.65428277706792e-005
 70
     32
  0
VERTEX
  8
MY3DLAYER
10
1474.84788213052
20
542.805929593889
30
4.57075690391662e-005
 70
     32
  0
VERTEX
  8
MY3DLAYER
10
1475.34738424305
20
541.600024819401
30
4.48186577155951e-005
 70
     32
  0
VERTEX
  8
MY3DLAYER
10
1475.5177551116
20
540.305929593889
30
4.39366716431522e-005
 70
     32
  0
VERTEX
  8
MY3DLAYER
10
1475.34738424305
20
539.011834368377
30
4.3121716715433e-005
 70
     32
  0
VERTEX
  8
MY3DLAYER
10
1474.84788213052
20
537.805929593889
30
4.24293307961676e-005
 70
     32
  0
VERTEX
  8
MY3DLAYER
10
1474.05328901753
20
536.770395687957
30
4.19066988278871e-005
 70
     32
  0
VERTEX
  8
MY3DLAYER
10
1473.0177551116
20
535.975802574967
30
4.15894372579828e-005
 70
     32
  0
VERTEX
  8
MY3DLAYER
10
1471.81185033711
20
535.476300462445
30
4.14991670176335e-005
 70
     32
  0
VERTEX
  8
MY3DLAYER
10
1470.5177551116
20
535.30592959389
30
4.16420398750006e-005
 70
     32
  0
VERTEX
  8
MY3DLAYER
10
1469.22365988609
20
535.476300462445
30
4.20083192302911e-005
 70
     32
  0
VERTEX
  8
MY3DLAYER
10
1468.0177551116
20
535.975802574968
30
4.25730437328298e-005
 70
     32
  0
VERTEX
  8
MY3DLAYER
10
1466.98222120567
20
536.770395687957
30
4.32977283750802e-005
 70
     32
  0
VERTEX
  8
MY3DLAYER
10
1466.18762809268
20
537.805929593889
30
4.41329871517127e-005
 70
     32
  0
VERTEX
  8
MY3DLAYER
10
1465.68812598016
20
539.011834368377
30
4.50218984752837e-005
 70
     32
  0
VERTEX
  8
MY3DLAYER
10
1465.5177551116
20
540.305929593889
30
4.59038845477266e-005
 70
     32
  0
VERTEX
  8
MY3DLAYER
10
1465.68812598016
20
541.600024819401
30
4.67188394754459e-005
 70
     32
  0
VERTEX
  8
MY3DLAYER
10
1466.18762809268
20
542.805929593888
30
4.74112253947112e-005
 70
     32
  0
VERTEX
  8
MY3DLAYER
10
1466.98222120567
20
543.841463499821
30
4.79338574081112e-005
 70
     32
  0
VERTEX
  8
MY3DLAYER
10
1468.0177551116
20
544.63605661281
30
4.8251118932896e-005
 70
     32
  0
VERTEX
  8
MY3DLAYER
10
1469.22365988609
20
545.135558725333
30
4.83413891732454e-005
 70
     32
  0
SEQEND
  0
POLYLINE
 8
Layer0
 66
     1
70
    8
 10
0.0
 20
 0.0
 30
0.0
  0
VERTEX
  8
MY3DLAYER
10
1754.35340001887
20
518.455941376717
30
9.24202011141517e-005
 70
     32
  0
VERTEX
  8
MY3DLAYER
10
1754.09913058102
20
518.12457025189
30
9.19857953391556e-005
 70
     32
  0
VERTEX
  8
MY3DLAYER
10
1753.76776000606
20
517.870300097438
30
9.14997569253728e-005
 70
     32
  0
VERTEX
  8
MY3DLAYER
10
1753.38187065106
20
517.710459004183
30
9.0995208386957e-005
 70
     32
  0
VERTEX
  8
MY3DLAYER
10
1752.96776023785
20
517.655939878483
30
9.05065340038647e-005
 70
     32
  0
VERTEX
  8
MY3DLAYER
10
1752.55364970675
20
517.710458108656
30
9.00670360913125e-005
 70
     32
  0
VERTEX
  8
MY3DLAYER
10
1752.16776000609
20
517.870298367411
30
8.97066656712298e-005
 70
     32
  0
VERTEX
  8
MY3DLAYER
10
1751.83638888126
20
518.124567805264
30
8.94499814933169e-005
 70
     32
  0
VERTEX
  8
MY3DLAYER
10
1751.58211872681
20
518.455938380224
30
8.93144760127029e-005
 70
     32
  0
VERTEX
  8
MY3DLAYER
10
1751.42227763355
20
518.841827735223
30
8.93093838300274e-005
 70
     32
  0
VERTEX
  8
MY3DLAYER
10
1751.36775850785
20
519.255938148432
30
8.94350519139664e-005
 70
     32
  0
VERTEX
  8
MY3DLAYER
10
1751.42227673803
20
519.670048679538
30
8.96829161391111e-005
 70
     32
  0
VERTEX
  8
MY3DLAYER
10
1751.58211699678
20
520.055938380199
30
9.00360851318283e-005
 70
     32
  0
VERTEX
  8
MY3DLAYER
10
1751.83638643463
20
520.387309505025
30
9.04704908165854e-005
 70
     32
  0
VERTEX
  8
MY3DLAYER
10
1752.16775700959
20
520.641579659478
30
9.09565293206071e-005
 70
     32
  0
VERTEX
  8
MY3DLAYER
10
1752.55364636459
20
520.801420752732
30
9.14610778139036e-005
 70
     32
  0
VERTEX
  8
MY3DLAYER
10
1752.9677567778
20
520.855939878433
30
9.19497521969958e-005
 70
     32
  0
VERTEX
  8
MY3DLAYER
10
1753.38186730891
20
520.80142164826
30
9.2389250109548e-005
 70
     32
  0
VERTEX
  8
MY3DLAYER
10
1753.76775700957
20
520.641581389504
30
9.27496204845113e-005
 70
     32
  0
VERTEX
  8
MY3DLAYER
10
1754.09912813439
20
520.387311951652
30
9.3006304752663e-005
 70
     32
  0
VERTEX
  8
MY3DLAYER
10
1754.35339828885
20
520.055941376692
30
9.31418101881576e-005
 70
     32
  0
VERTEX
  8
MY3DLAYER
10
1754.5132393821
20
519.670052021692
30
9.31469024159526e-005
 70
     32
  0
VERTEX
  8
MY3DLAYER
10
1754.5677585078
20
519.255941608484
30
9.30212343320136e-005
 70
     32
  0
VERTEX
  8
MY3DLAYER
10
1754.51324027763
20
518.841831077377
30
9.277337001663e-005
 70
     32
  0
VERTEX
  8
MY3DLAYER
10
1754.35340001887
20
518.455941376717
30
9.24202011141517e-005
 70
     32
  0
SEQEND
  0
POLYLINE
 8
Layer0
 66
     1
70
    8
 10
0.0
 20
 0.0
 30
0.0
  0
VERTEX
  8
MY3DLAYER
10
1771.08211643937
20
539.555939877807
30
8.47306641258427e-005
 70
     32
  0
VERTEX
  8
MY3DLAYER
10
1771.33638623552
20
539.887310727705
30
8.49310431384254e-005
 70
     32
  0
VERTEX
  8
MY3DLAYER
10
1771.66775708542
20
540.141580523862
30
8.51146254380097e-005
 70
     32
  0
VERTEX
  8
MY3DLAYER
10
1772.05364661326
20
540.301421199869
30
8.52689002094564e-005
 70
     32
  0
VERTEX
  8
MY3DLAYER
10
1772.46775708542
20
540.355939877806
30
8.53833539409266e-005
 70
     32
  0
VERTEX
  8
MY3DLAYER
10
1772.88186755759
20
540.301421199869
30
8.54501867856072e-005
 70
     32
  0
VERTEX
  8
MY3DLAYER
10
1773.26775708542
20
540.141580523861
30
8.54648441592332e-005
 70
     32
  0
VERTEX
  8
MY3DLAYER
10
1773.59912793532
20
539.887310727704
30
8.5426327161997e-005
 70
     32
  0
VERTEX
  8
MY3DLAYER
10
1773.85339773148
20
539.555939877806
30
8.53372607540592e-005
 70
     32
  0
VERTEX
  8
MY3DLAYER
10
1774.01323840748
20
539.17005034997
30
8.52037145861573e-005
 70
     32
  0
VERTEX
  8
MY3DLAYER
10
1774.06775708542
20
538.755939877806
30
8.50347896601988e-005
 70
     32
  0
VERTEX
  8
MY3DLAYER
10
1774.01323840748
20
538.341829405643
30
8.4841997891516e-005
 70
     32
  0
VERTEX
  8
MY3DLAYER
10
1773.85339773148
20
537.955939877807
30
8.46384777069886e-005
 70
     32
  0
VERTEX
  8
MY3DLAYER
10
1773.59912793532
20
537.624569027909
30
8.44380987395254e-005
 70
     32
  0
VERTEX
  8
MY3DLAYER
10
1773.26775708542
20
537.370299231752
30
8.42545163948216e-005
 70
     32
  0
VERTEX
  8
MY3DLAYER
10
1772.88186755759
20
537.210458555745
30
8.41002415782555e-005
 70
     32
  0
VERTEX
  8
MY3DLAYER
10
1772.46775708542
20
537.155939877808
30
8.39857878467853e-005
 70
     32
  0
VERTEX
  8
MY3DLAYER
10
1772.05364661326
20
537.210458555745
30
8.39189550472241e-005
 70
     32
  0
VERTEX
  8
MY3DLAYER
10
1771.66775708542
20
537.370299231753
30
8.39042976735982e-005
 70
     32
  0
VERTEX
  8
MY3DLAYER
10
1771.33638623552
20
537.624569027909
30
8.39428146257148e-005
 70
     32
  0
VERTEX
  8
MY3DLAYER
10
1771.08211643937
20
537.955939877808
30
8.40318810787721e-005
 70
     32
  0
VERTEX
  8
MY3DLAYER
10
1770.92227576336
20
538.341829405644
30
8.41654272466741e-005
 70
     32
  0
VERTEX
  8
MY3DLAYER
10
1770.86775708542
20
538.755939877807
30
8.4334352217752e-005
 70
     32
  0
VERTEX
  8
MY3DLAYER
10
1770.92227576336
20
539.170050349971
30
8.45271439864348e-005
 70
     32
  0
VERTEX
  8
MY3DLAYER
10
1771.08211643937
20
539.555939877807
30
8.47306641258427e-005
 70
     32
  0
SEQEND
  0
POLYLINE
 8
Layer0
 66
     1
70
    8
 10
0.0
 20
 0.0
 30
0.0
  0
VERTEX
  8
MY3DLAYER
10
1771.10079643398
20
822.931521561638
30
0.000233049489357739
 70
     32
  0
VERTEX
  8
MY3DLAYER
10
1771.08206714038
20
822.955929997637
30
0.000227129209718058
 70
     32
  0
VERTEX
  8
MY3DLAYER
10
1770.92222604713
20
823.341819352636
30
0.000227613029291973
 70
     32
  0
VERTEX
  8
MY3DLAYER
10
1770.86770692143
20
823.755929765844
30
0.000228156174598837
 70
     32
  0
VERTEX
  8
MY3DLAYER
10
1770.9222251516
20
824.170040296951
30
0.000228721631164674
 70
     32
  0
VERTEX
  8
MY3DLAYER
10
1771.08206541036
20
824.555929997611
30
0.000229270864124942
 70
     32
  0
VERTEX
  8
MY3DLAYER
10
1771.33633484821
20
824.887301122438
30
0.000229766444132196
 70
     32
  0
VERTEX
  8
MY3DLAYER
10
1771.66770542317
20
825.14157127689
30
0.000230174598230093
 70
     32
  0
VERTEX
  8
MY3DLAYER
10
1772.05359477817
20
825.301412370144
30
0.000230467511352117
 70
     32
  0
VERTEX
  8
MY3DLAYER
10
1772.46770519138
20
825.355931495845
30
0.000230625222015846
 70
     32
  0
VERTEX
  8
MY3DLAYER
10
1772.88181572248
20
825.301413265672
30
0.000230636982494303
 70
     32
  0
VERTEX
  8
MY3DLAYER
10
1773.26770542314
20
825.141573006917
30
0.000230501991285337
 70
     32
  0
VERTEX
  8
MY3DLAYER
10
1773.59907654797
20
824.887303569065
30
0.000230229447796404
 70
     32
  0
VERTEX
  8
MY3DLAYER
10
1773.85334670242
20
824.555932994105
30
0.000229837925544985
 70
     32
  0
VERTEX
  8
MY3DLAYER
10
1774.01318779568
20
824.170043639106
30
0.000229354105971069
 70
     32
  0
VERTEX
  8
MY3DLAYER
10
1774.06770692138
20
823.755933225898
30
0.000228810960664205
 70
     32
  0
VERTEX
  8
MY3DLAYER
10
1774.01318869121
20
823.341822694792
30
0.000228245504098368
 70
     32
  0
VERTEX
  8
MY3DLAYER
10
1773.85334843245
20
822.955932994132
30
0.000227696271092981
 70
     32
  0
VERTEX
  8
MY3DLAYER
10
1773.83461711299
20
822.931521808686
30
0.00023421595130273
 70
     32
  0
VERTEX
  8
MY3DLAYER
10
1773.5990789946
20
822.624561869305
30
0.000227200691130847
 70
     32
  0
VERTEX
  8
MY3DLAYER
10
1773.26770841964
20
822.370291714852
30
0.000226792537032949
 70
     32
  0
VERTEX
  8
MY3DLAYER
10
1772.88181906464
20
822.210450621598
30
0.000226499623865806
 70
     32
  0
VERTEX
  8
MY3DLAYER
10
1772.46770865143
20
822.155931495898
30
0.000226341913202077
 70
     32
  0
VERTEX
  8
MY3DLAYER
10
1772.05359812032
20
822.210449726071
30
0.000226330152723619
 70
     32
  0
VERTEX
  8
MY3DLAYER
10
1771.66770841966
20
822.370289984826
30
0.000226465143977705
 70
     32
  0
VERTEX
  8
MY3DLAYER
10
1771.33633729484
20
822.624559422678
30
0.000226737687421519
 70
     32
  0
VERTEX
  8
MY3DLAYER
10
1771.10079643398
20
822.931521561638
30
0.000233049489357739
 70
     32
  0
SEQEND
  0
POLYLINE
 8
Layer0
 66
     1
70
    8
 10
0.0
 20
 0.0
 30
0.0
  0
VERTEX
  8
MY3DLAYER
10
1468.79211204157
20
517.888929760447
30
2.06479610760368e-005
 70
     32
  0
VERTEX
  8
MY3DLAYER
10
1468.76776688974
20
517.870249068424
30
1.21843174348157e-005
 70
     32
  0
VERTEX
  8
MY3DLAYER
10
1468.3818773619
20
517.710408392417
30
1.20350176707973e-005
 70
     32
  0
VERTEX
  8
MY3DLAYER
10
1467.96776688974
20
517.655889714479
30
1.1924482925707e-005
 70
     32
  0
VERTEX
  8
MY3DLAYER
10
1467.55365641757
20
517.710408392417
30
1.18602459842521e-005
 70
     32
  0
VERTEX
  8
MY3DLAYER
10
1467.16776688974
20
517.870249068425
30
1.1846684472161e-005
 70
     32
  0
VERTEX
  8
MY3DLAYER
10
1466.83639603984
20
518.124518864581
30
1.18847225714092e-005
 70
     32
  0
VERTEX
  8
MY3DLAYER
10
1466.58212624368
20
518.455889714479
30
1.19717680785669e-005
 70
     32
  0
VERTEX
  8
MY3DLAYER
10
1466.42228556767
20
518.841779242315
30
1.21018889572611e-005
 70
     32
  0
VERTEX
  8
MY3DLAYER
10
1466.36776688974
20
519.255889714479
30
1.22662177439281e-005
 70
     32
  0
VERTEX
  8
MY3DLAYER
10
1466.42228556767
20
519.670000186643
30
1.24535555620753e-005
 70
     32
  0
VERTEX
  8
MY3DLAYER
10
1466.58212624368
20
520.055889714478
30
1.26511358143233e-005
 70
     32
  0
VERTEX
  8
MY3DLAYER
10
1466.83639603984
20
520.387260564377
30
1.28454936344724e-005
 70
     32
  0
VERTEX
  8
MY3DLAYER
10
1467.16776688974
20
520.641530360533
30
1.30233838881111e-005
 70
     32
  0
VERTEX
  8
MY3DLAYER
10
1467.55365641757
20
520.80137103654
30
1.31726836521295e-005
 70
     32
  0
VERTEX
  8
MY3DLAYER
10
1467.96776688974
20
520.855889714478
30
1.32832183972198e-005
 70
     32
  0
VERTEX
  8
MY3DLAYER
10
1468.3818773619
20
520.80137103654
30
1.33474553386748e-005
 70
     32
  0
VERTEX
  8
MY3DLAYER
10
1468.76776688974
20
520.641530360533
30
1.33610168958853e-005
 70
     32
  0
VERTEX
  8
MY3DLAYER
10
1468.7921269991
20
520.622838191176
30
2.21524030877163e-005
 70
     32
  0
VERTEX
  8
MY3DLAYER
10
1469.09913773964
20
520.387260564376
30
1.33229787515177e-005
 70
     32
  0
VERTEX
  8
MY3DLAYER
10
1469.35340753579
20
520.055889714478
30
1.32359332894794e-005
 70
     32
  0
VERTEX
  8
MY3DLAYER
10
1469.5132482118
20
519.670000186642
30
1.31058123656658e-005
 70
     32
  0
VERTEX
  8
MY3DLAYER
10
1469.56776688974
20
519.255889714478
30
1.29414836692376e-005
 70
     32
  0
VERTEX
  8
MY3DLAYER
10
1469.5132482118
20
518.841779242314
30
1.27541457608515e-005
 70
     32
  0
VERTEX
  8
MY3DLAYER
10
1469.35340753579
20
518.455889714479
30
1.2556565553723e-005
 70
     32
  0
VERTEX
  8
MY3DLAYER
10
1469.09913773963
20
518.12451886458
30
1.23622076884544e-005
 70
     32
  0
VERTEX
  8
MY3DLAYER
10
1468.79211204157
20
517.888929760447
30
2.06479610760368e-005
 70
     32
  0
SEQEND
  0
POLYLINE
 8
Layer0
 66
     1
70
    8
 10
0.0
 20
 0.0
 30
0.0
  0
VERTEX
  8
MY3DLAYER
10
1446.92228512059
20
539.169997093142
30
3.5551236456044e-005
 70
     32
  0
VERTEX
  8
MY3DLAYER
10
1447.08212537934
20
539.555886793803
30
3.54031038874325e-005
 70
     32
  0
VERTEX
  8
MY3DLAYER
10
1447.1008566988
20
539.580297979243
30
4.19518631854743e-005
 70
     32
  0
VERTEX
  8
MY3DLAYER
10
1447.33639481719
20
539.887257918629
30
3.530226075803e-005
 70
     32
  0
VERTEX
  8
MY3DLAYER
10
1447.66776539215
20
540.141528073082
30
3.52555793938336e-005
 70
     32
  0
VERTEX
  8
MY3DLAYER
10
1448.05365474715
20
540.301369166336
30
3.52662411231108e-005
 70
     32
  0
VERTEX
  8
MY3DLAYER
10
1448.46776516036
20
540.355888292037
30
3.53335192968984e-005
 70
     32
  0
VERTEX
  8
MY3DLAYER
10
1448.88187569147
20
540.301370061864
30
3.54528290106515e-005
 70
     32
  0
VERTEX
  8
MY3DLAYER
10
1449.26776539213
20
540.141529803108
30
3.56160395565297e-005
 70
     32
  0
VERTEX
  8
MY3DLAYER
10
1449.59913651696
20
539.887260365256
30
3.58120283550534e-005
 70
     32
  0
VERTEX
  8
MY3DLAYER
10
1449.83467737781
20
539.580298226291
30
4.19606909439096e-005
 70
     32
  0
VERTEX
  8
MY3DLAYER
10
1449.85340667141
20
539.555889790297
30
3.60274390974524e-005
 70
     32
  0
VERTEX
  8
MY3DLAYER
10
1450.01324776466
20
539.170000435297
30
3.6247591940608e-005
 70
     32
  0
VERTEX
  8
MY3DLAYER
10
1450.06776689036
20
538.755890022089
30
3.64574837604437e-005
 70
     32
  0
VERTEX
  8
MY3DLAYER
10
1450.01324866019
20
538.341779490982
30
3.66428108748096e-005
 70
     32
  0
VERTEX
  8
MY3DLAYER
10
1449.85340840144
20
537.955889790322
30
3.6790943443421e-005
 70
     32
  0
VERTEX
  8
MY3DLAYER
10
1449.59913896358
20
537.624518665495
30
3.68917865728235e-005
 70
     32
  0
VERTEX
  8
MY3DLAYER
10
1449.26776838862
20
537.370248511042
30
3.69384678919005e-005
 70
     32
  0
VERTEX
  8
MY3DLAYER
10
1448.88187903362
20
537.210407417788
30
3.69278061626233e-005
 70
     32
  0
VERTEX
  8
MY3DLAYER
10
1448.46776862042
20
537.155888292087
30
3.68605279888357e-005
 70
     32
  0
VERTEX
  8
MY3DLAYER
10
1448.05365808931
20
537.21040652226
30
3.67412182750826e-005
 70
     32
  0
VERTEX
  8
MY3DLAYER
10
1447.66776838865
20
537.370246781015
30
3.65780077743238e-005
 70
     32
  0
VERTEX
  8
MY3DLAYER
10
1447.33639726382
20
537.624516218867
30
3.63820189306807e-005
 70
     32
  0
VERTEX
  8
MY3DLAYER
10
1447.08212710937
20
537.955886793828
30
3.61666082334011e-005
 70
     32
  0
VERTEX
  8
MY3DLAYER
10
1446.92228601611
20
538.341776148827
30
3.59464553902455e-005
 70
     32
  0
VERTEX
  8
MY3DLAYER
10
1446.86776689041
20
538.755886562035
30
3.57365635252904e-005
 70
     32
  0
VERTEX
  8
MY3DLAYER
10
1446.92228512059
20
539.169997093142
30
3.5551236456044e-005
 70
     32
  0
SEQEND
  0
POLYLINE
 8
Layer0
 66
     1
70
    8
 10
0.0
 20
 0.0
 30
0.0
  0
VERTEX
  8
MY3DLAYER
10
1468.7921252382
20
841.888969422051
30
0.000176405889788356
 70
     32
  0
VERTEX
  8
MY3DLAYER
10
1468.7677168022
20
841.870240128457
30
0.000170465646365159
 70
     32
  0
VERTEX
  8
MY3DLAYER
10
1468.3818274472
20
841.710399035203
30
0.000170663812087568
 70
     32
  0
VERTEX
  8
MY3DLAYER
10
1467.96771703399
20
841.655879909502
30
0.000170926145718653
 70
     32
  0
VERTEX
  8
MY3DLAYER
10
1467.55360650289
20
841.710398139674
30
0.000171234769708661
 70
     32
  0
VERTEX
  8
MY3DLAYER
10
1467.16771680223
20
841.87023839843
30
0.000171568651800058
 70
     32
  0
VERTEX
  8
MY3DLAYER
10
1466.8363456774
20
842.124507836282
30
0.000171905038563125
 70
     32
  0
VERTEX
  8
MY3DLAYER
10
1466.58207552295
20
842.455878411241
30
0.000172221005745854
 70
     32
  0
VERTEX
  8
MY3DLAYER
10
1466.42223442969
20
842.841767766241
30
0.000172495020670738
 70
     32
  0
VERTEX
  8
MY3DLAYER
10
1466.36771530399
20
843.255878179449
30
0.000172708409700206
 70
     32
  0
VERTEX
  8
MY3DLAYER
10
1466.42223353417
20
843.669988710556
30
0.000172846630785983
 70
     32
  0
VERTEX
  8
MY3DLAYER
10
1466.58207379292
20
844.055878411216
30
0.000172900264292508
 70
     32
  0
VERTEX
  8
MY3DLAYER
10
1466.83634323077
20
844.387249536043
30
0.000172865655227383
 70
     32
  0
VERTEX
  8
MY3DLAYER
10
1467.16771380573
20
844.641519690496
30
0.000172745162165455
 70
     32
  0
VERTEX
  8
MY3DLAYER
10
1467.55360316073
20
844.801360783751
30
0.000172546996488165
 70
     32
  0
VERTEX
  8
MY3DLAYER
10
1467.96771357394
20
844.855879909451
30
0.000172284662857081
 70
     32
  0
VERTEX
  8
MY3DLAYER
10
1468.38182410505
20
844.801361679279
30
0.000171976038912192
 70
     32
  0
VERTEX
  8
MY3DLAYER
10
1468.76771380571
20
844.641521420524
30
0.000171642156775675
 70
     32
  0
VERTEX
  8
MY3DLAYER
10
1468.79212499115
20
844.622790101059
30
0.000178173564255957
 70
     32
  0
VERTEX
  8
MY3DLAYER
10
1469.09908493053
20
844.387251982672
30
0.000171305770057728
 70
     32
  0
VERTEX
  8
MY3DLAYER
10
1469.35335508499
20
844.055881407712
30
0.000170989802874999
 70
     32
  0
VERTEX
  8
MY3DLAYER
10
1469.51319617824
20
843.669992052712
30
0.000170715787904996
 70
     32
  0
VERTEX
  8
MY3DLAYER
10
1469.56771530394
20
843.255881639504
30
0.000170502398875527
 70
     32
  0
VERTEX
  8
MY3DLAYER
10
1469.51319707377
20
842.841771108397
30
0.00017036417778975
 70
     32
  0
VERTEX
  8
MY3DLAYER
10
1469.35335681501
20
842.455881407737
30
0.000170310544283225
 70
     32
  0
VERTEX
  8
MY3DLAYER
10
1469.09908737716
20
842.12451028291
30
0.000170345153303231
 70
     32
  0
VERTEX
  8
MY3DLAYER
10
1468.7921252382
20
841.888969422051
30
0.000176405889788356
 70
     32
  0
SEQEND
  0
POLYLINE
 8
Layer0
 66
     1
70
    8
 10
0.0
 20
 0.0
 30
0.0
  0
VERTEX
  8
MY3DLAYER
10
1447.10075677235
20
822.931534758307
30
0.000147376831671409
 70
     32
  0
VERTEX
  8
MY3DLAYER
10
1447.08207608033
20
822.955879910145
30
0.000138932971922401
 70
     32
  0
VERTEX
  8
MY3DLAYER
10
1446.92223540432
20
823.341769437981
30
0.000139068348812543
 70
     32
  0
VERTEX
  8
MY3DLAYER
10
1446.86771672638
20
823.755879910145
30
0.000139238481270709
 70
     32
  0
VERTEX
  8
MY3DLAYER
10
1446.92223540432
20
824.169990382308
30
0.000139431774993426
 70
     32
  0
VERTEX
  8
MY3DLAYER
10
1447.08207608033
20
824.555879910144
30
0.000139635057308141
 70
     32
  0
VERTEX
  8
MY3DLAYER
10
1447.33634587648
20
824.887250760043
30
0.00013983447491519
 70
     32
  0
VERTEX
  8
MY3DLAYER
10
1447.66771672638
20
825.141520556199
30
0.000140016437786983
 70
     32
  0
VERTEX
  8
MY3DLAYER
10
1448.05360625422
20
825.301361232206
30
0.000140168545515706
 70
     32
  0
VERTEX
  8
MY3DLAYER
10
1448.46771672638
20
825.355879910143
30
0.000140280432175288
 70
     32
  0
VERTEX
  8
MY3DLAYER
10
1448.88182719854
20
825.301361232206
30
0.000140344472892195
 70
     32
  0
VERTEX
  8
MY3DLAYER
10
1449.26771672638
20
825.141520556198
30
0.000140356303350941
 70
     32
  0
VERTEX
  8
MY3DLAYER
10
1449.59908757628
20
824.887250760042
30
0.000140315117356948
 70
     32
  0
VERTEX
  8
MY3DLAYER
10
1449.85335737243
20
824.555879910144
30
0.000140223721701815
 70
     32
  0
VERTEX
  8
MY3DLAYER
10
1450.01319804844
20
824.169990382308
30
0.000140088344766554
 70
     32
  0
VERTEX
  8
MY3DLAYER
10
1450.06771672638
20
823.755879910144
30
0.000139918212353507
 70
     32
  0
VERTEX
  8
MY3DLAYER
10
1450.01319804844
20
823.34176943798
30
0.00013972491867591
 70
     32
  0
VERTEX
  8
MY3DLAYER
10
1449.85335737243
20
822.955879910144
30
0.000139521636316076
 70
     32
  0
VERTEX
  8
MY3DLAYER
10
1449.83466520308
20
822.931519800773
30
0.000148301159021713
 70
     32
  0
VERTEX
  8
MY3DLAYER
10
1449.59908757628
20
822.624509060246
30
0.000139322218709026
 70
     32
  0
VERTEX
  8
MY3DLAYER
10
1449.26771672638
20
822.37023926409
30
0.000139140255837233
 70
     32
  0
VERTEX
  8
MY3DLAYER
10
1448.88182719854
20
822.210398588082
30
0.00013898814810851
 70
     32
  0
VERTEX
  8
MY3DLAYER
10
1448.46771672638
20
822.155879910145
30
0.000138876261448928
 70
     32
  0
VERTEX
  8
MY3DLAYER
10
1448.05360625422
20
822.210398588083
30
0.00013881222077714
 70
     32
  0
VERTEX
  8
MY3DLAYER
10
1447.66771672638
20
822.37023926409
30
0.000138800390273275
 70
     32
  0
VERTEX
  8
MY3DLAYER
10
1447.33634587648
20
822.624509060247
30
0.000138841576267268
 70
     32
  0
VERTEX
  8
MY3DLAYER
10
1447.10075677235
20
822.931534758307
30
0.000147376831671409
 70
     32
  0
SEQEND
  0
POLYLINE
 8
Layer0
 66
     1
70
    8
 10
0.0
 20
 0.0
 30
0.0
  0
VERTEX
  8
MY3DLAYER
10
1752.14336177023
20
844.622890027496
30
0.00022227055532511
 70
     32
  0
VERTEX
  8
MY3DLAYER
10
1752.16770692206
20
844.641570719526
30
0.000213833468368563
 70
     32
  0
VERTEX
  8
MY3DLAYER
10
1752.5535964499
20
844.801411395533
30
0.000213987743185129
 70
     32
  0
VERTEX
  8
MY3DLAYER
10
1752.96770692206
20
844.855930073471
30
0.000214102196916599
 70
     32
  0
VERTEX
  8
MY3DLAYER
10
1753.38181739423
20
844.801411395533
30
0.00021416902976128
 70
     32
  0
VERTEX
  8
MY3DLAYER
10
1753.76770692206
20
844.641570719526
30
0.000214183687089786
 70
     32
  0
VERTEX
  8
MY3DLAYER
10
1754.09907777196
20
844.387300923369
30
0.00021414517013767
 70
     32
  0
VERTEX
  8
MY3DLAYER
10
1754.35334756812
20
844.055930073471
30
0.000214056103684612
 70
     32
  0
VERTEX
  8
MY3DLAYER
10
1754.51318824413
20
843.670040545635
30
0.00021392255751671
 70
     32
  0
VERTEX
  8
MY3DLAYER
10
1754.56770692206
20
843.255930073471
30
0.000213753632545632
 70
     32
  0
VERTEX
  8
MY3DLAYER
10
1754.51318824413
20
842.841819601307
30
0.00021356084077695
 70
     32
  0
VERTEX
  8
MY3DLAYER
10
1754.35334756812
20
842.455930073472
30
0.000213357320592422
 70
     32
  0
VERTEX
  8
MY3DLAYER
10
1754.09907777196
20
842.124559223573
30
0.000213156941624959
 70
     32
  0
VERTEX
  8
MY3DLAYER
10
1753.76770692206
20
841.870289427417
30
0.000212973359325375
 70
     32
  0
VERTEX
  8
MY3DLAYER
10
1753.38181739423
20
841.71044875141
30
0.000212819084553928
 70
     32
  0
VERTEX
  8
MY3DLAYER
10
1752.96770692206
20
841.655930073472
30
0.000212704630822458
 70
     32
  0
VERTEX
  8
MY3DLAYER
10
1752.5535964499
20
841.71044875141
30
0.000212637797977777
 70
     32
  0
VERTEX
  8
MY3DLAYER
10
1752.16770692206
20
841.870289427418
30
0.000212623140604151
 70
     32
  0
VERTEX
  8
MY3DLAYER
10
1752.1433468127
20
841.888981596766
30
0.000221420154636931
 70
     32
  0
VERTEX
  8
MY3DLAYER
10
1751.83633607217
20
842.124559223574
30
0.000212661657601387
 70
     32
  0
VERTEX
  8
MY3DLAYER
10
1751.58206627601
20
842.455930073472
30
0.000212750724054445
 70
     32
  0
VERTEX
  8
MY3DLAYER
10
1751.4222256
20
842.841819601308
30
0.000212884270177227
 70
     32
  0
VERTEX
  8
MY3DLAYER
10
1751.36770692207
20
843.255930073472
30
0.000213053195103186
 70
     32
  0
VERTEX
  8
MY3DLAYER
10
1751.4222256
20
843.670040545636
30
0.000213245986916988
 70
     32
  0
VERTEX
  8
MY3DLAYER
10
1751.58206627601
20
844.055930073471
30
0.000213449507056396
 70
     32
  0
VERTEX
  8
MY3DLAYER
10
1751.83633607217
20
844.38730092337
30
0.000213649886068978
 70
     32
  0
VERTEX
  8
MY3DLAYER
10
1752.14336177023
20
844.622890027496
30
0.00022227055532511
 70
     32
  0
SEQEND
 0
ENDSEC
 0
EOF
