 0
SECTION
 2
ENTITIES
  0
POLYLINE
 8
Layer0
 66
     1
70
    8
 10
0.0
 20
 0.0
 30
0.0
  0
VERTEX
  8
MY3DLAYER
10
3361.69598500421
20
934.509177931914
30
0.000410917122682172
 70
     32
  0
VERTEX
  8
MY3DLAYER
10
3361.69600464369
20
1215.50878962078
30
0.00031112748023849
 70
     32
  0
VERTEX
  8
MY3DLAYER
10
3373.69597333014
20
1224.50887786079
30
0.000343208211535719
 70
     32
  0
VERTEX
  8
MY3DLAYER
10
3374.695986007
20
1224.50885399943
30
0.000401068030653686
 70
     32
  0
VERTEX
  8
MY3DLAYER
10
3374.69598608926
20
1247.00911572567
30
0.000397102022753994
 70
     32
  0
VERTEX
  8
MY3DLAYER
10
2436.69599910506
20
1247.00911815919
30
0.0
 70
     32
  0
VERTEX
  8
MY3DLAYER
10
2436.69599901237
20
1214.50888204571
30
3.08816886544605e-005
 70
     32
  0
VERTEX
  8
MY3DLAYER
10
2426.69621727319
20
1204.50911897603
30
2.9931040649972e-005
 70
     32
  0
VERTEX
  8
MY3DLAYER
10
2394.69599901238
20
1204.50911908956
30
2.68888799378419e-005
 70
     32
  0
VERTEX
  8
MY3DLAYER
10
2394.69599847024
20
944.509132182805
30
0.000216773774831863
 70
     32
  0
VERTEX
  8
MY3DLAYER
10
2426.69599847024
20
944.509132069279
30
0.000217062394838324
 70
     32
  0
VERTEX
  8
MY3DLAYER
10
2437.17709739272
20
934.520711546722
30
0.000226504176168013
 70
     32
  0
VERTEX
  8
MY3DLAYER
10
2437.17709738585
20
902.009197246838
30
0.00022660816389844
 70
     32
  0
VERTEX
  8
MY3DLAYER
10
3374.69598536
20
902.009194817822
30
0.000432353580559788
 70
     32
  0
VERTEX
  8
MY3DLAYER
10
3374.69598536079
20
924.509162466633
30
0.000413591781904312
 70
     32
  0
VERTEX
  8
MY3DLAYER
10
3373.69592043636
20
924.509163483043
30
0.000412773039564209
 70
     32
  0
VERTEX
  8
MY3DLAYER
10
3361.69598500421
20
934.509177931914
30
0.000410917122682172
 70
     32
  0
SEQEND
  0
POLYLINE
 8
Layer0
 66
     1
70
    8
 10
0.0
 20
 0.0
 30
0.0
  0
VERTEX
  8
MY3DLAYER
10
2448.62785005125
20
910.991545753213
30
0.000248560148946647
 70
     32
  0
VERTEX
  8
MY3DLAYER
10
2448.42804920173
20
910.509183845288
30
0.000248684808421634
 70
     32
  0
VERTEX
  8
MY3DLAYER
10
2448.11021195265
20
910.09497028589
30
0.00024873623629631
 70
     32
  0
VERTEX
  8
MY3DLAYER
10
2447.69599838731
20
909.777133044571
30
0.000248710928050277
 70
     32
  0
VERTEX
  8
MY3DLAYER
10
2447.21363647564
20
909.577332204077
30
0.000248610608152261
 70
     32
  0
VERTEX
  8
MY3DLAYER
10
2446.6959983848
20
909.5091838615
30
0.000248442113465064
 70
     32
  0
VERTEX
  8
MY3DLAYER
10
2446.17836029523
20
909.577332213767
30
0.000248216926352179
 70
     32
  0
VERTEX
  8
MY3DLAYER
10
2445.69599838731
20
909.777133063291
30
0.000247950393207974
 70
     32
  0
VERTEX
  8
MY3DLAYER
10
2445.28178482791
20
910.094970312364
30
0.000247660677686129
 70
     32
  0
VERTEX
  8
MY3DLAYER
10
2444.96394758659
20
910.509183877712
30
0.000247367523342762
 70
     32
  0
VERTEX
  8
MY3DLAYER
10
2444.7641467461
20
910.991545789377
30
0.000247090908355907
 70
     32
  0
VERTEX
  8
MY3DLAYER
10
2444.69599840352
20
911.50918388022
30
0.000246849683457029
 70
     32
  0
VERTEX
  8
MY3DLAYER
10
2444.76414675579
20
912.026821969787
30
0.000246660287652722
 70
     32
  0
VERTEX
  8
MY3DLAYER
10
2444.96394760531
20
912.509183877712
30
0.00024653562817703
 70
     32
  0
VERTEX
  8
MY3DLAYER
10
2445.28178485438
20
912.92339743711
30
0.00024648420030306
 70
     32
  0
VERTEX
  8
MY3DLAYER
10
2445.69599841973
20
913.241234678428
30
0.000246509508548387
 70
     32
  0
VERTEX
  8
MY3DLAYER
10
2446.1783603314
20
913.441035518923
30
0.000246609828446404
 70
     32
  0
VERTEX
  8
MY3DLAYER
10
2446.69599842224
20
913.5091838615
30
0.000246778323133601
 70
     32
  0
VERTEX
  8
MY3DLAYER
10
2447.21363651181
20
913.441035509233
30
0.000247003510246485
 70
     32
  0
VERTEX
  8
MY3DLAYER
10
2447.69599841973
20
913.241234659709
30
0.00024727004339069
 70
     32
  0
VERTEX
  8
MY3DLAYER
10
2448.11021197913
20
912.923397410636
30
0.000247559758913241
 70
     32
  0
VERTEX
  8
MY3DLAYER
10
2448.42804922045
20
912.509183845288
30
0.000247852913255903
 70
     32
  0
VERTEX
  8
MY3DLAYER
10
2448.62785006094
20
912.026821933624
30
0.000248129528243463
 70
     32
  0
VERTEX
  8
MY3DLAYER
10
2448.69599840352
20
911.509183842781
30
0.000248370753141636
 70
     32
  0
VERTEX
  8
MY3DLAYER
10
2448.62785005125
20
910.991545753213
30
0.000248560148946647
 70
     32
  0
SEQEND
  0
POLYLINE
 8
Layer0
 66
     1
70
    8
 10
0.0
 20
 0.0
 30
0.0
  0
VERTEX
  8
MY3DLAYER
10
2406.62785014551
20
955.026770230677
30
0.000214116786460161
 70
     32
  0
VERTEX
  8
MY3DLAYER
10
2406.69599849109
20
954.50913214023
30
0.000214358011359039
 70
     32
  0
VERTEX
  8
MY3DLAYER
10
2406.62785014183
20
953.991494050267
30
0.000214547407163346
 70
     32
  0
VERTEX
  8
MY3DLAYER
10
2406.42804929511
20
953.509132141181
30
0.000214672066639038
 70
     32
  0
VERTEX
  8
MY3DLAYER
10
2406.11021204845
20
953.094918579935
30
0.000214723494693486
 70
     32
  0
VERTEX
  8
MY3DLAYER
10
2405.69599848495
20
952.777081336209
30
0.000214698186448159
 70
     32
  0
VERTEX
  8
MY3DLAYER
10
2405.21363657444
20
952.577280492911
30
0.000214597866550142
 70
     32
  0
VERTEX
  8
MY3DLAYER
10
2404.695998484
20
952.509132147325
30
0.000214429371862945
 70
     32
  0
VERTEX
  8
MY3DLAYER
10
2404.17836039403
20
952.577280496584
30
0.000214204184930539
 70
     32
  0
VERTEX
  8
MY3DLAYER
10
2403.69599848495
20
952.777081343304
30
0.000213937651786333
 70
     32
  0
VERTEX
  8
MY3DLAYER
10
2403.2817849237
20
953.094918589969
30
0.000213647936263783
 70
     32
  0
VERTEX
  8
MY3DLAYER
10
2402.96394767998
20
953.50913215347
30
0.000213354781921121
 70
     32
  0
VERTEX
  8
MY3DLAYER
10
2402.76414683668
20
953.991494063973
30
0.000213078166933561
 70
     32
  0
VERTEX
  8
MY3DLAYER
10
2402.69599849109
20
954.50913215442
30
0.000212836942034683
 70
     32
  0
VERTEX
  8
MY3DLAYER
10
2402.76414684035
20
955.026770244383
30
0.000212647546230377
 70
     32
  0
VERTEX
  8
MY3DLAYER
10
2402.96394768707
20
955.509132153469
30
0.00021252288675539
 70
     32
  0
VERTEX
  8
MY3DLAYER
10
2403.28178493374
20
955.923345714715
30
0.000212471458700236
 70
     32
  0
VERTEX
  8
MY3DLAYER
10
2403.69599849724
20
956.241182958442
30
0.000212496766946268
 70
     32
  0
VERTEX
  8
MY3DLAYER
10
2404.17836040774
20
956.440983801739
30
0.000212597086844285
 70
     32
  0
VERTEX
  8
MY3DLAYER
10
2404.69599849819
20
956.509132147325
30
0.000212765581531482
 70
     32
  0
VERTEX
  8
MY3DLAYER
10
2405.21363658815
20
956.440983798067
30
0.000212990768463889
 70
     32
  0
VERTEX
  8
MY3DLAYER
10
2405.69599849724
20
956.241182951347
30
0.000213257301608094
 70
     32
  0
VERTEX
  8
MY3DLAYER
10
2406.11021205848
20
955.923345704681
30
0.000213547017129939
 70
     32
  0
VERTEX
  8
MY3DLAYER
10
2406.42804930221
20
955.509132141181
30
0.000213840171473306
 70
     32
  0
VERTEX
  8
MY3DLAYER
10
2406.62785014551
20
955.026770230677
30
0.000214116786460161
 70
     32
  0
SEQEND
  0
POLYLINE
 8
Layer0
 66
     1
70
    8
 10
0.0
 20
 0.0
 30
0.0
  0
VERTEX
  8
MY3DLAYER
10
2405.69599898538
20
1192.77706824297
30
3.21165569783788e-005
 70
     32
  0
VERTEX
  8
MY3DLAYER
10
2405.21363707487
20
1192.57726739967
30
3.20162370803623e-005
 70
     32
  0
VERTEX
  8
MY3DLAYER
10
2404.69599898443
20
1192.50911905409
30
3.18477423931651e-005
 70
     32
  0
VERTEX
  8
MY3DLAYER
10
2404.17836089447
20
1192.57726740334
30
3.16225554607585e-005
 70
     32
  0
VERTEX
  8
MY3DLAYER
10
2403.69599898538
20
1192.77706825006
30
3.13560223165532e-005
 70
     32
  0
VERTEX
  8
MY3DLAYER
10
2403.28178542413
20
1193.09490549673
30
3.10663067940031e-005
 70
     32
  0
VERTEX
  8
MY3DLAYER
10
2402.96394818041
20
1193.50911906023
30
3.0773152451341e-005
 70
     32
  0
VERTEX
  8
MY3DLAYER
10
2402.76414733711
20
1193.99148097073
30
3.04965374637811e-005
 70
     32
  0
VERTEX
  8
MY3DLAYER
10
2402.69599899152
20
1194.50911906118
30
3.0255312564903e-005
 70
     32
  0
VERTEX
  8
MY3DLAYER
10
2402.76414734078
20
1195.02675715114
30
3.00659167605966e-005
 70
     32
  0
VERTEX
  8
MY3DLAYER
10
2402.9639481875
20
1195.50911906023
30
2.99412572856095e-005
 70
     32
  0
VERTEX
  8
MY3DLAYER
10
2403.28178543417
20
1195.92333262148
30
2.98898292304561e-005
 70
     32
  0
VERTEX
  8
MY3DLAYER
10
2403.69599899767
20
1196.2411698652
30
2.99151374764883e-005
 70
     32
  0
VERTEX
  8
MY3DLAYER
10
2404.17836090817
20
1196.4409707085
30
3.00154573745048e-005
 70
     32
  0
VERTEX
  8
MY3DLAYER
10
2404.69599899862
20
1196.50911905409
30
3.0183952061702e-005
 70
     32
  0
VERTEX
  8
MY3DLAYER
10
2405.21363708858
20
1196.44097070483
30
3.04091389941086e-005
 70
     32
  0
VERTEX
  8
MY3DLAYER
10
2405.69599899767
20
1196.24116985811
30
3.06756721383139e-005
 70
     32
  0
VERTEX
  8
MY3DLAYER
10
2406.11021255891
20
1195.92333261144
30
3.0965387660159e-005
 70
     32
  0
VERTEX
  8
MY3DLAYER
10
2406.42804980264
20
1195.50911904794
30
3.12585420035261e-005
 70
     32
  0
VERTEX
  8
MY3DLAYER
10
2406.62785064594
20
1195.02675713744
30
3.1535156990381e-005
 70
     32
  0
VERTEX
  8
MY3DLAYER
10
2406.69599899152
20
1194.50911904699
30
3.17763818892591e-005
 70
     32
  0
VERTEX
  8
MY3DLAYER
10
2406.62785064227
20
1193.99148095703
30
3.19657776935656e-005
 70
     32
  0
VERTEX
  8
MY3DLAYER
10
2406.42804979554
20
1193.50911904794
30
3.20904371692576e-005
 70
     32
  0
VERTEX
  8
MY3DLAYER
10
2406.11021254888
20
1193.0949054867
30
3.2141865223706e-005
 70
     32
  0
VERTEX
  8
MY3DLAYER
10
2405.69599898538
20
1192.77706824297
30
3.21165569783788e-005
 70
     32
  0
SEQEND
  0
POLYLINE
 8
Layer0
 66
     1
70
    8
 10
0.0
 20
 0.0
 30
0.0
  0
VERTEX
  8
MY3DLAYER
10
2444.6959990791
20
1237.50916288949
30
7.0801465628989e-006
 70
     32
  0
VERTEX
  8
MY3DLAYER
10
2444.7641474276
20
1238.02680097955
30
6.89075075859247e-006
 70
     32
  0
VERTEX
  8
MY3DLAYER
10
2444.96394827361
20
1238.50916288893
30
6.7660912829004e-006
 70
     32
  0
VERTEX
  8
MY3DLAYER
10
2445.28178551967
20
1238.92337645064
30
6.71466322845204e-006
 70
     32
  0
VERTEX
  8
MY3DLAYER
10
2445.69599908271
20
1239.24121369497
30
6.73997147377925e-006
 70
     32
  0
VERTEX
  8
MY3DLAYER
10
2446.17836099292
20
1239.44101453897
30
6.84029137179576e-006
 70
     32
  0
VERTEX
  8
MY3DLAYER
10
2446.69599908327
20
1239.50916288532
30
7.00878605899291e-006
 70
     32
  0
VERTEX
  8
MY3DLAYER
10
2447.21363717333
20
1239.44101453681
30
7.2339729913995e-006
 70
     32
  0
VERTEX
  8
MY3DLAYER
10
2447.69599908271
20
1239.2412136908
30
7.50050631608268e-006
 70
     32
  0
VERTEX
  8
MY3DLAYER
10
2448.11021264442
20
1238.92337644474
30
7.79022183863276e-006
 70
     32
  0
VERTEX
  8
MY3DLAYER
10
2448.42804988875
20
1238.5091628817
30
8.08337600081699e-006
 70
     32
  0
VERTEX
  8
MY3DLAYER
10
2448.62785073276
20
1238.02680097149
30
8.35999098837692e-006
 70
     32
  0
VERTEX
  8
MY3DLAYER
10
2448.6959990791
20
1237.50916288115
30
8.60121588655005e-006
 70
     32
  0
VERTEX
  8
MY3DLAYER
10
2448.6278507306
20
1236.99152479108
30
8.79061169156148e-006
 70
     32
  0
VERTEX
  8
MY3DLAYER
10
2448.42804988458
20
1236.5091628817
30
8.91527116654855e-006
 70
     32
  0
VERTEX
  8
MY3DLAYER
10
2448.11021263852
20
1236.09494931999
30
8.9666992217019e-006
 70
     32
  0
VERTEX
  8
MY3DLAYER
10
2447.69599907549
20
1235.77711207566
30
8.9413909756697e-006
 70
     32
  0
VERTEX
  8
MY3DLAYER
10
2447.21363716528
20
1235.57731123166
30
8.8410710776532e-006
 70
     32
  0
VERTEX
  8
MY3DLAYER
10
2446.69599907493
20
1235.50916288532
30
8.67257639045604e-006
 70
     32
  0
VERTEX
  8
MY3DLAYER
10
2446.17836098487
20
1235.57731123382
30
8.44738945804946e-006
 70
     32
  0
VERTEX
  8
MY3DLAYER
10
2445.69599907549
20
1235.77711207983
30
8.18085613336628e-006
 70
     32
  0
VERTEX
  8
MY3DLAYER
10
2445.28178551378
20
1236.09494932589
30
7.89114061152119e-006
 70
     32
  0
VERTEX
  8
MY3DLAYER
10
2444.96394826944
20
1236.50916288893
30
7.59798644863197e-006
 70
     32
  0
VERTEX
  8
MY3DLAYER
10
2444.76414742544
20
1236.99152479914
30
7.32137146177703e-006
 70
     32
  0
VERTEX
  8
MY3DLAYER
10
2444.6959990791
20
1237.50916288949
30
7.0801465628989e-006
 70
     32
  0
SEQEND
  0
POLYLINE
 8
Layer0
 66
     1
70
    8
 10
0.0
 20
 0.0
 30
0.0
  0
VERTEX
  8
MY3DLAYER
10
3362.76413441557
20
1238.02679874729
30
0.000393779068349716
 70
     32
  0
VERTEX
  8
MY3DLAYER
10
3362.96393526509
20
1238.50916065521
30
0.000393654408874024
 70
     32
  0
VERTEX
  8
MY3DLAYER
10
3363.28177251416
20
1238.92337421461
30
0.000393602980819576
 70
     32
  0
VERTEX
  8
MY3DLAYER
10
3363.69598607951
20
1239.24121145593
30
0.000393628289064903
 70
     32
  0
VERTEX
  8
MY3DLAYER
10
3364.17834799118
20
1239.44101229642
30
0.00039372860896292
 70
     32
  0
VERTEX
  8
MY3DLAYER
10
3364.69598608202
20
1239.509160639
30
0.000393897103650117
 70
     32
  0
VERTEX
  8
MY3DLAYER
10
3365.21362417159
20
1239.44101228673
30
0.000394122290582524
 70
     32
  0
VERTEX
  8
MY3DLAYER
10
3365.69598607951
20
1239.24121143721
30
0.000394388823726729
 70
     32
  0
VERTEX
  8
MY3DLAYER
10
3366.11019963891
20
1238.92337418813
30
0.000394678539248574
 70
     32
  0
VERTEX
  8
MY3DLAYER
10
3366.42803688023
20
1238.50916062279
30
0.000394971693591941
 70
     32
  0
VERTEX
  8
MY3DLAYER
10
3366.62783772072
20
1238.02679871112
30
0.000395248308578796
 70
     32
  0
VERTEX
  8
MY3DLAYER
10
3366.6959860633
20
1237.50916062028
30
0.000395489533477674
 70
     32
  0
VERTEX
  8
MY3DLAYER
10
3366.62783771103
20
1236.99152253071
30
0.000395678929281981
 70
     32
  0
VERTEX
  8
MY3DLAYER
10
3366.42803686151
20
1236.50916062279
30
0.000395803588757673
 70
     32
  0
VERTEX
  8
MY3DLAYER
10
3366.11019961243
20
1236.09494706339
30
0.000395855016812121
 70
     32
  0
VERTEX
  8
MY3DLAYER
10
3365.69598604709
20
1235.77710982207
30
0.000395829708566794
 70
     32
  0
VERTEX
  8
MY3DLAYER
10
3365.21362413542
20
1235.57730898158
30
0.000395729388668777
 70
     32
  0
VERTEX
  8
MY3DLAYER
10
3364.69598604458
20
1235.509160639
30
0.00039556089398158
 70
     32
  0
VERTEX
  8
MY3DLAYER
10
3364.17834795501
20
1235.57730899127
30
0.000395335707049173
 70
     32
  0
VERTEX
  8
MY3DLAYER
10
3363.69598604709
20
1235.77710984079
30
0.000395069173904968
 70
     32
  0
VERTEX
  8
MY3DLAYER
10
3363.28177248769
20
1236.09494708986
30
0.000394779458383123
 70
     32
  0
VERTEX
  8
MY3DLAYER
10
3362.96393524637
20
1236.50916065521
30
0.000394486304039756
 70
     32
  0
VERTEX
  8
MY3DLAYER
10
3362.76413440588
20
1236.99152256688
30
0.000394209689052901
 70
     32
  0
VERTEX
  8
MY3DLAYER
10
3362.6959860633
20
1237.50916065772
30
0.000393968464154023
 70
     32
  0
VERTEX
  8
MY3DLAYER
10
3362.76413441557
20
1238.02679874729
30
0.000393779068349716
 70
     32
  0
SEQEND
  0
POLYLINE
 8
Layer0
 66
     1
70
    8
 10
0.0
 20
 0.0
 30
0.0
  0
VERTEX
  8
MY3DLAYER
10
3364.17834730154
20
913.441033268841
30
0.00043181199371445
 70
     32
  0
VERTEX
  8
MY3DLAYER
10
3364.69598539188
20
913.509181615183
30
0.000431980488401647
 70
     32
  0
VERTEX
  8
MY3DLAYER
10
3365.21362348195
20
913.441033266682
30
0.000432205675334054
 70
     32
  0
VERTEX
  8
MY3DLAYER
10
3365.69598539133
20
913.241232420667
30
0.000432472208658737
 70
     32
  0
VERTEX
  8
MY3DLAYER
10
3366.11019895304
20
912.923395174608
30
0.000432761924180582
 70
     32
  0
VERTEX
  8
MY3DLAYER
10
3366.42803619737
20
912.509181611572
30
0.000433055078343472
 70
     32
  0
VERTEX
  8
MY3DLAYER
10
3366.62783704137
20
912.02681970136
30
0.000433331693330326
 70
     32
  0
VERTEX
  8
MY3DLAYER
10
3366.69598538771
20
911.509181611013
30
0.000433572918229205
 70
     32
  0
VERTEX
  8
MY3DLAYER
10
3366.62783703921
20
910.991543520951
30
0.000433762314033511
 70
     32
  0
VERTEX
  8
MY3DLAYER
10
3366.4280361932
20
910.509181611572
30
0.000433886973509203
 70
     32
  0
VERTEX
  8
MY3DLAYER
10
3366.11019894714
20
910.094968049862
30
0.000433938401563651
 70
     32
  0
VERTEX
  8
MY3DLAYER
10
3365.6959853841
20
909.77713080553
30
0.000433913093318324
 70
     32
  0
VERTEX
  8
MY3DLAYER
10
3365.21362347389
20
909.577329961526
30
0.000433812773420308
 70
     32
  0
VERTEX
  8
MY3DLAYER
10
3364.69598538354
20
909.509181615184
30
0.000433644278733111
 70
     32
  0
VERTEX
  8
MY3DLAYER
10
3364.17834729348
20
909.577329963685
30
0.000433419091800704
 70
     32
  0
VERTEX
  8
MY3DLAYER
10
3363.6959853841
20
909.7771308097
30
0.000433152558476021
 70
     32
  0
VERTEX
  8
MY3DLAYER
10
3363.28177182239
20
910.094968055759
30
0.000432862842954176
 70
     32
  0
VERTEX
  8
MY3DLAYER
10
3362.96393457806
20
910.509181618795
30
0.000432569688791286
 70
     32
  0
VERTEX
  8
MY3DLAYER
10
3362.76413373406
20
910.991543529007
30
0.000432293073804432
 70
     32
  0
VERTEX
  8
MY3DLAYER
10
3362.69598538771
20
911.509181619354
30
0.000432051848905553
 70
     32
  0
VERTEX
  8
MY3DLAYER
10
3362.76413373621
20
912.026819709417
30
0.000431862453101247
 70
     32
  0
VERTEX
  8
MY3DLAYER
10
3362.96393458223
20
912.509181618795
30
0.000431737793625555
 70
     32
  0
VERTEX
  8
MY3DLAYER
10
3363.28177182829
20
912.923395180505
30
0.000431686365571107
 70
     32
  0
VERTEX
  8
MY3DLAYER
10
3363.69598539133
20
913.241232424837
30
0.000431711673816434
 70
     32
  0
VERTEX
  8
MY3DLAYER
10
3364.17834730154
20
913.441033268841
30
0.00043181199371445
 70
     32
  0
SEQEND
 0
ENDSEC
 0
EOF
