 0
SECTION
 2
ENTITIES
  0
POLYLINE
 8
Layer0
 66
     1
70
    8
 10
0.0
 20
 0.0
 30
0.0
  0
VERTEX
  8
MY3DLAYER
10
2928.53298500428
20
527.38917793182
30
0.000184164002743894
 70
     32
  0
VERTEX
  8
MY3DLAYER
10
2928.53300464375
20
808.388789620684
30
8.43743603002121e-005
 70
     32
  0
VERTEX
  8
MY3DLAYER
10
2940.53297333021
20
817.388877860696
30
0.000116455091597441
 70
     32
  0
VERTEX
  8
MY3DLAYER
10
2941.53298600706
20
817.388853999333
30
0.000174314910715408
 70
     32
  0
VERTEX
  8
MY3DLAYER
10
2941.53298608932
20
839.889115725573
30
0.000170348902815717
 70
     32
  0
VERTEX
  8
MY3DLAYER
10
2803.53299910506
20
839.889118159186
30
0.0
 70
     32
  0
VERTEX
  8
MY3DLAYER
10
2803.53299901238
20
807.388882045705
30
3.08816886544605e-005
 70
     32
  0
VERTEX
  8
MY3DLAYER
10
2793.53321727319
20
797.389118976034
30
2.9931040649972e-005
 70
     32
  0
VERTEX
  8
MY3DLAYER
10
2761.53299901238
20
797.389119089559
30
2.68888799378419e-005
 70
     32
  0
VERTEX
  8
MY3DLAYER
10
2761.53299847024
20
537.389132182805
30
0.000216773774831863
 70
     32
  0
VERTEX
  8
MY3DLAYER
10
2793.53299847024
20
537.389132069279
30
0.000217062394838324
 70
     32
  0
VERTEX
  8
MY3DLAYER
10
2804.01409739272
20
527.400711546722
30
0.000226504176168013
 70
     32
  0
VERTEX
  8
MY3DLAYER
10
2804.01409738585
20
494.889197246838
30
0.00022660816389844
 70
     32
  0
VERTEX
  8
MY3DLAYER
10
2941.53298536006
20
494.889194817728
30
0.00020560046062151
 70
     32
  0
VERTEX
  8
MY3DLAYER
10
2941.53298536086
20
517.389162466538
30
0.000186838661966034
 70
     32
  0
VERTEX
  8
MY3DLAYER
10
2940.53292043643
20
517.389163482948
30
0.000186019919625931
 70
     32
  0
VERTEX
  8
MY3DLAYER
10
2928.53298500428
20
527.38917793182
30
0.000184164002743894
 70
     32
  0
SEQEND
  0
POLYLINE
 8
Layer0
 66
     1
70
    8
 10
0.0
 20
 0.0
 30
0.0
  0
VERTEX
  8
MY3DLAYER
10
2815.46485005125
20
503.871545753213
30
0.000248560148946647
 70
     32
  0
VERTEX
  8
MY3DLAYER
10
2815.26504920173
20
503.389183845288
30
0.000248684808421634
 70
     32
  0
VERTEX
  8
MY3DLAYER
10
2814.94721195265
20
502.97497028589
30
0.00024873623629631
 70
     32
  0
VERTEX
  8
MY3DLAYER
10
2814.53299838731
20
502.657133044571
30
0.000248710928050277
 70
     32
  0
VERTEX
  8
MY3DLAYER
10
2814.05063647564
20
502.457332204077
30
0.000248610608152261
 70
     32
  0
VERTEX
  8
MY3DLAYER
10
2813.5329983848
20
502.3891838615
30
0.000248442113465064
 70
     32
  0
VERTEX
  8
MY3DLAYER
10
2813.01536029523
20
502.457332213767
30
0.000248216926352179
 70
     32
  0
VERTEX
  8
MY3DLAYER
10
2812.53299838731
20
502.657133063291
30
0.000247950393207974
 70
     32
  0
VERTEX
  8
MY3DLAYER
10
2812.11878482791
20
502.974970312364
30
0.000247660677686129
 70
     32
  0
VERTEX
  8
MY3DLAYER
10
2811.80094758659
20
503.389183877712
30
0.000247367523342762
 70
     32
  0
VERTEX
  8
MY3DLAYER
10
2811.6011467461
20
503.871545789377
30
0.000247090908355907
 70
     32
  0
VERTEX
  8
MY3DLAYER
10
2811.53299840352
20
504.38918388022
30
0.000246849683457029
 70
     32
  0
VERTEX
  8
MY3DLAYER
10
2811.60114675579
20
504.906821969787
30
0.000246660287652722
 70
     32
  0
VERTEX
  8
MY3DLAYER
10
2811.80094760531
20
505.389183877712
30
0.00024653562817703
 70
     32
  0
VERTEX
  8
MY3DLAYER
10
2812.11878485438
20
505.80339743711
30
0.00024648420030306
 70
     32
  0
VERTEX
  8
MY3DLAYER
10
2812.53299841973
20
506.121234678428
30
0.000246509508548387
 70
     32
  0
VERTEX
  8
MY3DLAYER
10
2813.0153603314
20
506.321035518923
30
0.000246609828446404
 70
     32
  0
VERTEX
  8
MY3DLAYER
10
2813.53299842224
20
506.3891838615
30
0.000246778323133601
 70
     32
  0
VERTEX
  8
MY3DLAYER
10
2814.05063651181
20
506.321035509233
30
0.000247003510246485
 70
     32
  0
VERTEX
  8
MY3DLAYER
10
2814.53299841973
20
506.121234659709
30
0.00024727004339069
 70
     32
  0
VERTEX
  8
MY3DLAYER
10
2814.94721197913
20
505.803397410636
30
0.000247559758913241
 70
     32
  0
VERTEX
  8
MY3DLAYER
10
2815.26504922045
20
505.389183845288
30
0.000247852913255903
 70
     32
  0
VERTEX
  8
MY3DLAYER
10
2815.46485006094
20
504.906821933624
30
0.000248129528243463
 70
     32
  0
VERTEX
  8
MY3DLAYER
10
2815.53299840352
20
504.389183842781
30
0.000248370753141636
 70
     32
  0
VERTEX
  8
MY3DLAYER
10
2815.46485005125
20
503.871545753213
30
0.000248560148946647
 70
     32
  0
SEQEND
  0
POLYLINE
 8
Layer0
 66
     1
70
    8
 10
0.0
 20
 0.0
 30
0.0
  0
VERTEX
  8
MY3DLAYER
10
2773.46485014551
20
547.906770230677
30
0.000214116786460161
 70
     32
  0
VERTEX
  8
MY3DLAYER
10
2773.53299849109
20
547.38913214023
30
0.000214358011359039
 70
     32
  0
VERTEX
  8
MY3DLAYER
10
2773.46485014184
20
546.871494050267
30
0.000214547407163346
 70
     32
  0
VERTEX
  8
MY3DLAYER
10
2773.26504929511
20
546.389132141181
30
0.000214672066639038
 70
     32
  0
VERTEX
  8
MY3DLAYER
10
2772.94721204845
20
545.974918579935
30
0.000214723494693486
 70
     32
  0
VERTEX
  8
MY3DLAYER
10
2772.53299848495
20
545.657081336209
30
0.000214698186448159
 70
     32
  0
VERTEX
  8
MY3DLAYER
10
2772.05063657445
20
545.457280492911
30
0.000214597866550142
 70
     32
  0
VERTEX
  8
MY3DLAYER
10
2771.532998484
20
545.389132147325
30
0.000214429371862945
 70
     32
  0
VERTEX
  8
MY3DLAYER
10
2771.01536039403
20
545.457280496584
30
0.000214204184930539
 70
     32
  0
VERTEX
  8
MY3DLAYER
10
2770.53299848495
20
545.657081343304
30
0.000213937651786333
 70
     32
  0
VERTEX
  8
MY3DLAYER
10
2770.1187849237
20
545.974918589969
30
0.000213647936263783
 70
     32
  0
VERTEX
  8
MY3DLAYER
10
2769.80094767998
20
546.38913215347
30
0.000213354781921121
 70
     32
  0
VERTEX
  8
MY3DLAYER
10
2769.60114683668
20
546.871494063973
30
0.000213078166933561
 70
     32
  0
VERTEX
  8
MY3DLAYER
10
2769.53299849109
20
547.38913215442
30
0.000212836942034683
 70
     32
  0
VERTEX
  8
MY3DLAYER
10
2769.60114684035
20
547.906770244383
30
0.000212647546230377
 70
     32
  0
VERTEX
  8
MY3DLAYER
10
2769.80094768707
20
548.389132153469
30
0.00021252288675539
 70
     32
  0
VERTEX
  8
MY3DLAYER
10
2770.11878493374
20
548.803345714715
30
0.000212471458700236
 70
     32
  0
VERTEX
  8
MY3DLAYER
10
2770.53299849724
20
549.121182958442
30
0.000212496766946268
 70
     32
  0
VERTEX
  8
MY3DLAYER
10
2771.01536040774
20
549.32098380174
30
0.000212597086844285
 70
     32
  0
VERTEX
  8
MY3DLAYER
10
2771.53299849819
20
549.389132147325
30
0.000212765581531482
 70
     32
  0
VERTEX
  8
MY3DLAYER
10
2772.05063658815
20
549.320983798067
30
0.000212990768463889
 70
     32
  0
VERTEX
  8
MY3DLAYER
10
2772.53299849724
20
549.121182951347
30
0.000213257301608094
 70
     32
  0
VERTEX
  8
MY3DLAYER
10
2772.94721205848
20
548.803345704681
30
0.000213547017129939
 70
     32
  0
VERTEX
  8
MY3DLAYER
10
2773.26504930221
20
548.389132141181
30
0.000213840171473306
 70
     32
  0
VERTEX
  8
MY3DLAYER
10
2773.46485014551
20
547.906770230677
30
0.000214116786460161
 70
     32
  0
SEQEND
  0
POLYLINE
 8
Layer0
 66
     1
70
    8
 10
0.0
 20
 0.0
 30
0.0
  0
VERTEX
  8
MY3DLAYER
10
2772.53299898538
20
785.657068242969
30
3.21165569783788e-005
 70
     32
  0
VERTEX
  8
MY3DLAYER
10
2772.05063707488
20
785.457267399671
30
3.20162370803623e-005
 70
     32
  0
VERTEX
  8
MY3DLAYER
10
2771.53299898443
20
785.389119054086
30
3.18477423931651e-005
 70
     32
  0
VERTEX
  8
MY3DLAYER
10
2771.01536089447
20
785.457267403344
30
3.16225554607585e-005
 70
     32
  0
VERTEX
  8
MY3DLAYER
10
2770.53299898538
20
785.657068250065
30
3.13560223165532e-005
 70
     32
  0
VERTEX
  8
MY3DLAYER
10
2770.11878542413
20
785.97490549673
30
3.10663067940031e-005
 70
     32
  0
VERTEX
  8
MY3DLAYER
10
2769.80094818041
20
786.38911906023
30
3.0773152451341e-005
 70
     32
  0
VERTEX
  8
MY3DLAYER
10
2769.60114733711
20
786.871480970734
30
3.04965374637811e-005
 70
     32
  0
VERTEX
  8
MY3DLAYER
10
2769.53299899152
20
787.38911906118
30
3.0255312564903e-005
 70
     32
  0
VERTEX
  8
MY3DLAYER
10
2769.60114734078
20
787.906757151144
30
3.00659167605966e-005
 70
     32
  0
VERTEX
  8
MY3DLAYER
10
2769.8009481875
20
788.38911906023
30
2.99412572856095e-005
 70
     32
  0
VERTEX
  8
MY3DLAYER
10
2770.11878543417
20
788.803332621475
30
2.98898292304561e-005
 70
     32
  0
VERTEX
  8
MY3DLAYER
10
2770.53299899767
20
789.121169865201
30
2.99151374764883e-005
 70
     32
  0
VERTEX
  8
MY3DLAYER
10
2771.01536090817
20
789.3209707085
30
3.00154573745048e-005
 70
     32
  0
VERTEX
  8
MY3DLAYER
10
2771.53299899862
20
789.389119054085
30
3.0183952061702e-005
 70
     32
  0
VERTEX
  8
MY3DLAYER
10
2772.05063708858
20
789.320970704827
30
3.04091389941086e-005
 70
     32
  0
VERTEX
  8
MY3DLAYER
10
2772.53299899767
20
789.121169858106
30
3.06756721383139e-005
 70
     32
  0
VERTEX
  8
MY3DLAYER
10
2772.94721255891
20
788.803332611441
30
3.0965387660159e-005
 70
     32
  0
VERTEX
  8
MY3DLAYER
10
2773.26504980264
20
788.389119047941
30
3.12585420035261e-005
 70
     32
  0
VERTEX
  8
MY3DLAYER
10
2773.46485064594
20
787.906757137437
30
3.1535156990381e-005
 70
     32
  0
VERTEX
  8
MY3DLAYER
10
2773.53299899152
20
787.38911904699
30
3.17763818892591e-005
 70
     32
  0
VERTEX
  8
MY3DLAYER
10
2773.46485064227
20
786.871480957027
30
3.19657776935656e-005
 70
     32
  0
VERTEX
  8
MY3DLAYER
10
2773.26504979555
20
786.389119047941
30
3.20904371692576e-005
 70
     32
  0
VERTEX
  8
MY3DLAYER
10
2772.94721254888
20
785.974905486696
30
3.2141865223706e-005
 70
     32
  0
VERTEX
  8
MY3DLAYER
10
2772.53299898538
20
785.657068242969
30
3.21165569783788e-005
 70
     32
  0
SEQEND
  0
POLYLINE
 8
Layer0
 66
     1
70
    8
 10
0.0
 20
 0.0
 30
0.0
  0
VERTEX
  8
MY3DLAYER
10
2811.5329990791
20
830.389162889486
30
7.0801465628989e-006
 70
     32
  0
VERTEX
  8
MY3DLAYER
10
2811.6011474276
20
830.906800979548
30
6.89075075859247e-006
 70
     32
  0
VERTEX
  8
MY3DLAYER
10
2811.80094827362
20
831.389162888927
30
6.7660912829004e-006
 70
     32
  0
VERTEX
  8
MY3DLAYER
10
2812.11878551967
20
831.803376450637
30
6.71466322845204e-006
 70
     32
  0
VERTEX
  8
MY3DLAYER
10
2812.53299908271
20
832.121213694969
30
6.73997147377925e-006
 70
     32
  0
VERTEX
  8
MY3DLAYER
10
2813.01536099292
20
832.321014538973
30
6.84029137179576e-006
 70
     32
  0
VERTEX
  8
MY3DLAYER
10
2813.53299908327
20
832.389162885315
30
7.00878605899291e-006
 70
     32
  0
VERTEX
  8
MY3DLAYER
10
2814.05063717333
20
832.321014536814
30
7.2339729913995e-006
 70
     32
  0
VERTEX
  8
MY3DLAYER
10
2814.53299908271
20
832.121213690799
30
7.50050631608268e-006
 70
     32
  0
VERTEX
  8
MY3DLAYER
10
2814.94721264442
20
831.80337644474
30
7.79022183863276e-006
 70
     32
  0
VERTEX
  8
MY3DLAYER
10
2815.26504988875
20
831.389162881705
30
8.08337600081699e-006
 70
     32
  0
VERTEX
  8
MY3DLAYER
10
2815.46485073276
20
830.906800971493
30
8.35999098837692e-006
 70
     32
  0
VERTEX
  8
MY3DLAYER
10
2815.5329990791
20
830.389162881146
30
8.60121588655005e-006
 70
     32
  0
VERTEX
  8
MY3DLAYER
10
2815.4648507306
20
829.871524791083
30
8.79061169156148e-006
 70
     32
  0
VERTEX
  8
MY3DLAYER
10
2815.26504988458
20
829.389162881705
30
8.91527116654855e-006
 70
     32
  0
VERTEX
  8
MY3DLAYER
10
2814.94721263852
20
828.974949319994
30
8.9666992217019e-006
 70
     32
  0
VERTEX
  8
MY3DLAYER
10
2814.53299907549
20
828.657112075662
30
8.9413909756697e-006
 70
     32
  0
VERTEX
  8
MY3DLAYER
10
2814.05063716528
20
828.457311231659
30
8.8410710776532e-006
 70
     32
  0
VERTEX
  8
MY3DLAYER
10
2813.53299907493
20
828.389162885316
30
8.67257639045604e-006
 70
     32
  0
VERTEX
  8
MY3DLAYER
10
2813.01536098487
20
828.457311233817
30
8.44738945804946e-006
 70
     32
  0
VERTEX
  8
MY3DLAYER
10
2812.53299907549
20
828.657112079832
30
8.18085613336628e-006
 70
     32
  0
VERTEX
  8
MY3DLAYER
10
2812.11878551378
20
828.974949325891
30
7.89114061152119e-006
 70
     32
  0
VERTEX
  8
MY3DLAYER
10
2811.80094826944
20
829.389162888927
30
7.59798644863197e-006
 70
     32
  0
VERTEX
  8
MY3DLAYER
10
2811.60114742544
20
829.871524799138
30
7.32137146177703e-006
 70
     32
  0
VERTEX
  8
MY3DLAYER
10
2811.5329990791
20
830.389162889486
30
7.0801465628989e-006
 70
     32
  0
SEQEND
  0
POLYLINE
 8
Layer0
 66
     1
70
    8
 10
0.0
 20
 0.0
 30
0.0
  0
VERTEX
  8
MY3DLAYER
10
2929.60113441563
20
830.906798747191
30
0.000167025948411439
 70
     32
  0
VERTEX
  8
MY3DLAYER
10
2929.80093526515
20
831.389160655116
30
0.000166901288935747
 70
     32
  0
VERTEX
  8
MY3DLAYER
10
2930.11877251423
20
831.803374214513
30
0.000166849860881298
 70
     32
  0
VERTEX
  8
MY3DLAYER
10
2930.53298607958
20
832.121211455832
30
0.000166875169126626
 70
     32
  0
VERTEX
  8
MY3DLAYER
10
2931.01534799124
20
832.321012296326
30
0.000166975489024642
 70
     32
  0
VERTEX
  8
MY3DLAYER
10
2931.53298608208
20
832.389160638903
30
0.000167143983711839
 70
     32
  0
VERTEX
  8
MY3DLAYER
10
2932.05062417165
20
832.321012286636
30
0.000167369170644246
 70
     32
  0
VERTEX
  8
MY3DLAYER
10
2932.53298607958
20
832.121211437112
30
0.000167635703788451
 70
     32
  0
VERTEX
  8
MY3DLAYER
10
2932.94719963897
20
831.803374188039
30
0.000167925419310296
 70
     32
  0
VERTEX
  8
MY3DLAYER
10
2933.26503688029
20
831.389160622691
30
0.000168218573653663
 70
     32
  0
VERTEX
  8
MY3DLAYER
10
2933.46483772079
20
830.906798711026
30
0.000168495188640518
 70
     32
  0
VERTEX
  8
MY3DLAYER
10
2933.53298606336
20
830.389160620183
30
0.000168736413539396
 70
     32
  0
VERTEX
  8
MY3DLAYER
10
2933.4648377111
20
829.871522530616
30
0.000168925809343703
 70
     32
  0
VERTEX
  8
MY3DLAYER
10
2933.26503686157
20
829.389160622692
30
0.000169050468819395
 70
     32
  0
VERTEX
  8
MY3DLAYER
10
2932.9471996125
20
828.974947063293
30
0.000169101896873843
 70
     32
  0
VERTEX
  8
MY3DLAYER
10
2932.53298604715
20
828.657109821975
30
0.000169076588628516
 70
     32
  0
VERTEX
  8
MY3DLAYER
10
2932.05062413548
20
828.457308981481
30
0.000168976268730499
 70
     32
  0
VERTEX
  8
MY3DLAYER
10
2931.53298604464
20
828.389160638904
30
0.000168807774043302
 70
     32
  0
VERTEX
  8
MY3DLAYER
10
2931.01534795508
20
828.457308991172
30
0.000168582587110896
 70
     32
  0
VERTEX
  8
MY3DLAYER
10
2930.53298604715
20
828.657109840696
30
0.00016831605396669
 70
     32
  0
VERTEX
  8
MY3DLAYER
10
2930.11877248775
20
828.974947089768
30
0.000168026338444845
 70
     32
  0
VERTEX
  8
MY3DLAYER
10
2929.80093524643
20
829.389160655116
30
0.000167733184101478
 70
     32
  0
VERTEX
  8
MY3DLAYER
10
2929.60113440594
20
829.871522566781
30
0.000167456569114623
 70
     32
  0
VERTEX
  8
MY3DLAYER
10
2929.53298606336
20
830.389160657624
30
0.000167215344215745
 70
     32
  0
VERTEX
  8
MY3DLAYER
10
2929.60113441563
20
830.906798747191
30
0.000167025948411439
 70
     32
  0
SEQEND
  0
POLYLINE
 8
Layer0
 66
     1
70
    8
 10
0.0
 20
 0.0
 30
0.0
  0
VERTEX
  8
MY3DLAYER
10
2931.0153473016
20
506.321033268746
30
0.000205058873776173
 70
     32
  0
VERTEX
  8
MY3DLAYER
10
2931.53298539195
20
506.389181615089
30
0.00020522736846337
 70
     32
  0
VERTEX
  8
MY3DLAYER
10
2932.05062348201
20
506.321033266588
30
0.000205452555395776
 70
     32
  0
VERTEX
  8
MY3DLAYER
10
2932.53298539139
20
506.121232420573
30
0.000205719088720459
 70
     32
  0
VERTEX
  8
MY3DLAYER
10
2932.9471989531
20
505.803395174513
30
0.000206008804242305
 70
     32
  0
VERTEX
  8
MY3DLAYER
10
2933.26503619743
20
505.389181611478
30
0.000206301958405194
 70
     32
  0
VERTEX
  8
MY3DLAYER
10
2933.46483704144
20
504.906819701266
30
0.000206578573392049
 70
     32
  0
VERTEX
  8
MY3DLAYER
10
2933.53298538778
20
504.389181610919
30
0.000206819798290927
 70
     32
  0
VERTEX
  8
MY3DLAYER
10
2933.46483703928
20
503.871543520856
30
0.000207009194095233
 70
     32
  0
VERTEX
  8
MY3DLAYER
10
2933.26503619326
20
503.389181611478
30
0.000207133853570925
 70
     32
  0
VERTEX
  8
MY3DLAYER
10
2932.9471989472
20
502.974968049768
30
0.000207185281625374
 70
     32
  0
VERTEX
  8
MY3DLAYER
10
2932.53298538417
20
502.657130805435
30
0.000207159973380047
 70
     32
  0
VERTEX
  8
MY3DLAYER
10
2932.05062347395
20
502.457329961432
30
0.00020705965348203
 70
     32
  0
VERTEX
  8
MY3DLAYER
10
2931.53298538361
20
502.38918161509
30
0.000206891158794833
 70
     32
  0
VERTEX
  8
MY3DLAYER
10
2931.01534729354
20
502.457329963591
30
0.000206665971862426
 70
     32
  0
VERTEX
  8
MY3DLAYER
10
2930.53298538417
20
502.657130809606
30
0.000206399438537743
 70
     32
  0
VERTEX
  8
MY3DLAYER
10
2930.11877182246
20
502.974968055665
30
0.000206109723015898
 70
     32
  0
VERTEX
  8
MY3DLAYER
10
2929.80093457812
20
503.389181618701
30
0.000205816568853009
 70
     32
  0
VERTEX
  8
MY3DLAYER
10
2929.60113373412
20
503.871543528912
30
0.000205539953866154
 70
     32
  0
VERTEX
  8
MY3DLAYER
10
2929.53298538778
20
504.389181619259
30
0.000205298728967276
 70
     32
  0
VERTEX
  8
MY3DLAYER
10
2929.60113373628
20
504.906819709322
30
0.000205109333162969
 70
     32
  0
VERTEX
  8
MY3DLAYER
10
2929.80093458229
20
505.389181618701
30
0.000204984673687277
 70
     32
  0
VERTEX
  8
MY3DLAYER
10
2930.11877182835
20
505.803395180411
30
0.000204933245632829
 70
     32
  0
VERTEX
  8
MY3DLAYER
10
2930.53298539139
20
506.121232424743
30
0.000204958553878156
 70
     32
  0
VERTEX
  8
MY3DLAYER
10
2931.0153473016
20
506.321033268746
30
0.000205058873776173
 70
     32
  0
SEQEND
 0
ENDSEC
 0
EOF
