 0
SECTION
 2
ENTITIES
  0
LINE
 8
GROUP0
10
233.92177324065
20
1843.73533454989
30
9.8804761982707e-006
11
234.553210549736
21
1843.80108657931
31
9.88186183815132e-006
  0
LINE
 8
GROUP0
10
219.137365196801
20
1864.13881937121
30
1.03104534450282e-005
11
219.287215830558
21
1863.77704793887
31
1.03028295761087e-005
  0
LINE
 8
GROUP0
10
216.38943835169
20
1863.77704793887
30
1.03028295761087e-005
11
216.539288985447
21
1864.13881937121
31
1.03104534450282e-005
  0
LINE
 8
GROUP0
10
231.108006828212
20
1844.98556915377
30
9.90682328752546e-006
11
231.56551682272
21
1844.54542938327
31
9.89754790664543e-006
  0
LINE
 8
GROUP0
10
218.588327091123
20
1862.08978126554
30
1.02672725975805e-005
11
218.226555658777
21
1861.93993063178
31
1.02641146877247e-005
  0
LINE
 8
GROUP0
10
216.777666919343
20
1862.32815919943
30
1.02722961063173e-005
11
216.539288985447
21
1862.63881937121
31
1.0278842870709e-005
  0
LINE
 8
GROUP0
10
250.226555658775
20
1829.93993063178
30
9.58975577290966e-006
11
249.838327091122
21
1829.88881937121
31
9.58867866838187e-006
  0
LINE
 8
GROUP0
10
228.601130836392
20
1848.63078693007
30
9.98364157218656e-006
11
228.8854030303
21
1849.49876228427
31
1.00019330380285e-005
  0
LINE
 8
GROUP0
10
236.557093971157
20
1852.07192627047
30
1.00561591654447e-005
11
237.307248466397
21
1851.55091110324
31
1.00451794398271e-005
  0
LINE
 8
GROUP0
10
231.303721778774
20
1852.14972511386
30
1.00577986763328e-005
11
232.142009013081
21
1852.51230255221
31
1.00654395299105e-005
  0
LINE
 8
GROUP0
10
228.8854030303
20
1849.49876228427
30
1.00019330380285e-005
11
229.311788909816
21
1850.30646339511
31
1.00189543021378e-005
  0
LINE
 8
GROUP0
10
234.540740304374
20
1855.79032484149
30
1.01345196411307e-005
11
233.87000016936
21
1859.18339124774
31
1.02060241593149e-005
  0
LINE
 8
GROUP0
10
235.703089945697
20
1855.61395422076
30
1.01308028569225e-005
11
234.540740304374
21
1855.79032484149
31
1.01345196411307e-005
  0
LINE
 8
GROUP0
10
242.34789931097
20
1841.76959434603
30
9.83905074752878e-006
11
244.369725101375
21
1838.66432443713
31
9.77361117073805e-006
  0
LINE
 8
GROUP0
10
229.868106239224
20
1851.03082481478
30
1.00342192890068e-005
11
230.538468711757
21
1851.65115181063
31
1.00472918837691e-005
  0
LINE
 8
GROUP0
10
241.733533256435
20
1836.22745386218
30
9.72225725250353e-006
11
238.796466224574
21
1838.48668161486
31
9.76986757640352e-006
  0
LINE
 8
GROUP0
10
240.867856376553
20
1852.07333770846
30
1.00561889097461e-005
11
240.210242622279
21
1852.93215194796
31
1.00742873171578e-005
  0
LINE
 8
GROUP0
10
233.87000016936
20
1859.18339124774
30
1.02060241593149e-005
11
233.233689599418
21
1859.16672674273
31
1.0205672976199e-005
  0
LINE
 8
GROUP0
10
232.741444819355
20
1855.74320760821
30
1.01335267062574e-005
11
231.589921348476
21
1855.50624624346
31
1.01285330496859e-005
  0
LINE
 8
GROUP0
10
230.538468711757
20
1851.65115181063
30
1.00472918837691e-005
11
231.303721778774
21
1852.14972511386
31
1.00577986763328e-005
  0
LINE
 8
GROUP0
10
237.307248466397
20
1851.55091110324
30
1.00451794398271e-005
11
237.95894562521
21
1850.91100326632
31
1.00316942035994e-005
  0
LINE
 8
GROUP0
10
235.804379694842
20
1836.35565630053
30
9.72495895382175e-006
11
236.760728233241
21
1835.14553896044
31
9.69945728487853e-006
  0
LINE
 8
GROUP0
10
244.369725101375
20
1838.66432443713
30
9.77361117073805e-006
11
241.733533256435
21
1836.22745386218
31
9.72225725250353e-006
  0
LINE
 8
GROUP0
10
233.940499589526
20
1852.79222694491
30
1.00713385776108e-005
11
234.849328332329
21
1852.70157829379
31
1.00694282730962e-005
  0
LINE
 8
GROUP0
10
231.589921348476
20
1855.50624624346
30
1.01285330496859e-005
11
230.482566230679
21
1855.1113702402
31
1.01202115450283e-005
  0
LINE
 8
GROUP0
10
238.888526313686
20
1854.15393463229
30
1.01000348187941e-005
11
237.898335807705
21
1854.78772178744
31
1.01133910690498e-005
  0
LINE
 8
GROUP0
10
233.029383950615
20
1852.72853103732
30
1.00699962679252e-005
11
233.940499589526
21
1852.79222694491
31
1.00713385776108e-005
  0
LINE
 8
GROUP0
10
232.142009013081
20
1852.51230255221
30
1.00654395299105e-005
11
233.029383950615
21
1852.72853103732
31
1.00699962679252e-005
  0
LINE
 8
GROUP0
10
243.859726779843
20
1831.52762380694
30
9.62321436784874e-006
11
245.416060321713
21
1832.62294641589
31
9.64629688554042e-006
  0
LINE
 8
GROUP0
10
229.440925949001
20
1854.56625763034
30
1.01087239963216e-005
11
228.48526226797
21
1853.88151565646
31
1.00942939380788e-005
  0
LINE
 8
GROUP0
10
249.450098523468
20
1832.83770811064
30
9.65082271249251e-006
11
249.838327091122
21
1832.88881937121
31
9.6518998170203e-006
  0
LINE
 8
GROUP0
10
251.137342327022
20
1840.10374275302
30
9.8039450637466e-006
11
251.786832683468
21
1841.8926164255
31
9.84164327948456e-006
  0
LINE
 8
GROUP0
10
251.786832683468
20
1841.8926164255
30
9.84164327948456e-006
11
252.251642101193
21
1843.73811355685
31
9.88053476262962e-006
  0
LINE
 8
GROUP0
10
235.729911082173
20
1852.45916954135
30
1.00643198199191e-005
11
236.557093971157
21
1852.07192627047
31
1.00561591654447e-005
  0
LINE
 8
GROUP0
10
250.309865825557
20
1838.38992086505
30
9.76782846780488e-006
11
251.137342327022
21
1840.10374275302
31
9.8039450637466e-006
  0
LINE
 8
GROUP0
10
242.097437732601
20
1855.83064809893
30
1.01353694020756e-005
11
241.630017631436
21
1856.26272550677
31
1.01444748785651e-005
  0
LINE
 8
GROUP0
10
242.657070987606
20
1842.26710334872
30
9.84953511078412e-006
11
242.34789931097
21
1841.76959434603
31
9.83905074752878e-006
  0
LINE
 8
GROUP0
10
229.311788909816
20
1850.30646339511
30
1.00189543021378e-005
11
229.868106239224
21
1851.03082481478
31
1.00342192890068e-005
  0
LINE
 8
GROUP0
10
248.777666919342
20
1832.44947954299
30
9.64264129389991e-006
11
249.088327091122
21
1832.68785747689
31
9.64766480263668e-006
  0
LINE
 8
GROUP0
10
226.569811218166
20
1851.6189748392
30
1.00466137953337e-005
11
226.05215203085
21
1850.56342140292
31
1.00243693618107e-005
  0
LINE
 8
GROUP0
10
248.338327091121
20
1831.38881937121
30
9.62028924270109e-006
11
248.389438351688
21
1831.77704793886
31
9.62847066129369e-006
  0
LINE
 8
GROUP0
10
250.226555658775
20
1832.83770811064
30
9.65082271249251e-006
11
250.588327091122
21
1832.68785747689
31
9.64766480263668e-006
  0
LINE
 8
GROUP0
10
225.686396472836
20
1849.44610992526
30
1.00008234573568e-005
11
225.479659908199
21
1848.28877649163
31
9.97643414111238e-006
  0
LINE
 8
GROUP0
10
240.210242622279
20
1852.93215194796
30
1.00742873171578e-005
11
242.097437732601
21
1855.83064809893
31
1.01353694020756e-005
  0
LINE
 8
GROUP0
10
237.95894562521
20
1850.91100326632
30
1.00316942035994e-005
11
240.867856376553
21
1852.07333770846
31
1.00561889097461e-005
  0
LINE
 8
GROUP0
10
233.233689599418
20
1859.16672674273
30
1.0205672976199e-005
11
232.741444819355
21
1855.74320760821
31
1.01335267062574e-005
  0
LINE
 8
GROUP0
10
249.838327091122
20
1832.88881937121
30
9.6518998170203e-006
11
250.226555658775
21
1832.83770811064
31
9.65082271249251e-006
  0
LINE
 8
GROUP0
10
234.849328332329
20
1852.70157829379
30
1.00694282730962e-005
11
235.729911082173
21
1852.45916954135
31
1.00643198199191e-005
  0
LINE
 8
GROUP0
10
249.088327091122
20
1830.08978126553
30
9.59291368276549e-006
11
248.777666919341
21
1830.32815919943
31
9.59793719150226e-006
  0
LINE
 8
GROUP0
10
251.287215830554
20
1831.00059080356
30
9.61210782410848e-006
11
251.137365196798
21
1830.63881937121
31
9.60448395589397e-006
  0
LINE
 8
GROUP0
10
248.539288985445
20
1832.13881937121
30
9.6360945295082e-006
11
248.777666919342
21
1832.44947954299
31
9.64264129389991e-006
  0
LINE
 8
GROUP0
10
249.450098523468
20
1829.93993063178
30
9.58975577290966e-006
11
249.088327091122
21
1830.08978126553
31
9.59291368276549e-006
  0
LINE
 8
GROUP0
10
227.229301803493
20
1852.59223571871
30
1.0067124019264e-005
11
226.569811218166
21
1851.6189748392
31
1.00466137953337e-005
  0
LINE
 8
GROUP0
10
248.777666919341
20
1830.32815919943
30
9.59793719150226e-006
11
248.539288985445
21
1830.63881937121
31
9.60448395589397e-006
  0
LINE
 8
GROUP0
10
250.898987262901
20
1830.32815919943
30
9.59793719150226e-006
11
250.588327091121
21
1830.08978126553
31
9.59291368276549e-006
  0
LINE
 8
GROUP0
10
230.482566230679
20
1855.1113702402
30
1.01202115450283e-005
11
229.440925949001
21
1854.56625763034
31
1.01087239963216e-005
  0
LINE
 8
GROUP0
10
250.898987262902
20
1832.44947954299
30
9.64264129389991e-006
11
251.137365196798
21
1832.13881937121
31
9.6360945295082e-006
  0
LINE
 8
GROUP0
10
251.287215830555
20
1831.77704793886
30
9.62847066129369e-006
11
251.33832709112
21
1831.38881937121
31
9.62028924270109e-006
  0
LINE
 8
GROUP0
10
225.19299685278
20
1855.38799110507
30
1.01260409741011e-005
11
227.229301803493
21
1852.59223571871
31
1.0067124019264e-005
  0
LINE
 8
GROUP0
10
236.829594962978
20
1855.27757087802
30
1.01237140096688e-005
11
235.703089945697
21
1855.61395422076
31
1.01308028569225e-005
  0
LINE
 8
GROUP0
10
237.898335807705
20
1854.78772178744
30
1.01133910690498e-005
11
236.829594962978
21
1855.27757087802
31
1.01237140096688e-005
  0
LINE
 8
GROUP0
10
226.05215203085
20
1850.56342140292
30
1.00243693618107e-005
11
225.686396472836
21
1849.44610992526
31
1.00008234573568e-005
  0
LINE
 8
GROUP0
10
225.637161128902
20
1855.84393659686
30
1.01356494402571e-005
11
225.19299685278
21
1855.38799110507
31
1.01260409741011e-005
  0
LINE
 8
GROUP0
10
241.630017631436
20
1856.26272550677
30
1.01444748785651e-005
11
238.888526313686
21
1854.15393463229
31
1.01000348187941e-005
  0
LINE
 8
GROUP0
10
249.088327091122
20
1832.68785747689
30
9.64766480263668e-006
11
249.450098523468
21
1832.83770811064
31
9.65082271249251e-006
  0
LINE
 8
GROUP0
10
251.137365196798
20
1830.63881937121
30
9.60448395589397e-006
11
250.898987262901
21
1830.32815919943
31
9.59793719150226e-006
  0
LINE
 8
GROUP0
10
251.137365196798
20
1832.13881937121
30
9.6360945295082e-006
11
251.287215830555
21
1831.77704793886
31
9.62847066129369e-006
  0
LINE
 8
GROUP0
10
250.588327091122
20
1832.68785747689
30
9.64766480263668e-006
11
250.898987262902
21
1832.44947954299
31
9.64264129389991e-006
  0
LINE
 8
GROUP0
10
250.588327091121
20
1830.08978126553
30
9.59291368276549e-006
11
250.226555658775
21
1829.93993063178
31
9.58975577290966e-006
  0
LINE
 8
GROUP0
10
228.48526226797
20
1853.88151565646
30
1.00942939380788e-005
11
225.637161128902
21
1855.84393659686
31
1.01356494402571e-005
  0
LINE
 8
GROUP0
10
229.657151573085
20
1865.66160265063
30
1.03425441475458e-005
11
227.826501243496
21
1865.14138856982
31
1.03315813036575e-005
  0
LINE
 8
GROUP0
10
231.711667411709
20
1860.87747160052
30
1.02417247277165e-005
11
235.300400965595
21
1860.97144285296
31
1.02437050512938e-005
  0
LINE
 8
GROUP0
10
243.317488544369
20
1857.0859924898
30
1.01618241731605e-005
11
243.604033344174
21
1858.71226087664
31
1.01960956918223e-005
  0
LINE
 8
GROUP0
10
237.218701713466
20
1865.83563295458
30
1.03462116126551e-005
11
235.331458323383
21
1866.08103242968
31
1.03513830913782e-005
  0
LINE
 8
GROUP0
10
243.235478275204
20
1863.62679735278
30
1.02996632380781e-005
11
242.597050540829
21
1863.97901979541
31
1.03070858734844e-005
  0
LINE
 8
GROUP0
10
231.531106346035
20
1865.99356523608
30
1.03495398322717e-005
11
229.657151573085
21
1865.66160265063
31
1.03425441475458e-005
  0
LINE
 8
GROUP0
10
218.898987262902
20
1832.44947954299
30
9.64264129389991e-006
11
219.137365196799
21
1832.13881937121
31
9.6360945295082e-006
  0
LINE
 8
GROUP0
10
224.431014888667
20
1843.55511871432
30
9.87667838091566e-006
11
223.972885005855
21
1844.97064987277
31
9.9065088824124e-006
  0
LINE
 8
GROUP0
10
216.21527468481
20
1848.3764935479
30
9.97828266509626e-006
11
215.11047732153
21
1847.38882073467
31
9.95746872866077e-006
  0
LINE
 8
GROUP0
10
230.453816764737
20
1861.87167326068
30
1.02626762510216e-005
11
231.68513047018
21
1860.69290891741
31
1.02378353058652e-005
  0
LINE
 8
GROUP0
10
217.088327091121
20
1830.08978126554
30
9.59291368276549e-006
11
216.777666919341
21
1830.32815919943
31
9.59793719150226e-006
  0
LINE
 8
GROUP0
10
218.226555658775
20
1829.93993063178
30
9.58975577290966e-006
11
217.838327091121
21
1829.88881937121
31
9.58867866838187e-006
  0
LINE
 8
GROUP0
10
241.733533256435
20
1858.55018583392
30
1.01926801681584e-005
11
243.317488544369
21
1857.0859924898
31
1.01618241731605e-005
  0
LINE
 8
GROUP0
10
229.092743270778
20
1862.89788404559
30
1.02843023258192e-005
11
230.453816764737
21
1861.87167326068
31
1.02626762510216e-005
  0
LINE
 8
GROUP0
10
231.68513047018
20
1860.69290891741
30
1.02378353058652e-005
11
231.711667411709
21
1860.87747160052
31
1.02417247277165e-005
  0
LINE
 8
GROUP0
10
240.870309226894
20
1864.77918687915
30
1.03239483678408e-005
11
239.07134758749
21
1865.40018526171
31
1.03370351110799e-005
  0
LINE
 8
GROUP0
10
219.338327091122
20
1831.38881937121
30
9.62028924270109e-006
11
219.287215830555
21
1831.00059080356
31
9.61210782410848e-006
  0
LINE
 8
GROUP0
10
235.331458323383
20
1866.08103242968
30
1.03513830913782e-005
11
233.429059319878
21
1866.13385835742
31
1.03524963302515e-005
  0
LINE
 8
GROUP0
10
227.620703094387
20
1863.75737825488
30
1.03024150628905e-005
11
229.092743270778
21
1862.89788404559
31
1.02843023258192e-005
  0
LINE
 8
GROUP0
10
216.389438351688
20
1831.77704793887
30
9.62847066129369e-006
11
216.539288985445
21
1832.13881937121
31
9.6360945295082e-006
  0
LINE
 8
GROUP0
10
242.597050540829
20
1863.97901979541
30
1.03070858734844e-005
11
240.870309226894
21
1864.77918687915
31
1.03239483678408e-005
  0
LINE
 8
GROUP0
10
218.226555658775
20
1832.83770811065
30
9.65082271249251e-006
11
218.588327091122
21
1832.68785747689
31
9.64766480263668e-006
  0
LINE
 8
GROUP0
10
233.429059319878
20
1866.13385835742
30
1.03524963302515e-005
11
231.531106346035
21
1865.99356523608
31
1.03495398322717e-005
  0
LINE
 8
GROUP0
10
236.018992774868
20
1857.33632436846
30
1.0167099596553e-005
11
237.446030967616
21
1856.91540685748
31
1.01582293003333e-005
  0
LINE
 8
GROUP0
10
219.137365196799
20
1832.13881937121
30
9.6360945295082e-006
11
219.287215830555
21
1831.77704793887
31
9.62847066129369e-006
  0
LINE
 8
GROUP0
10
216.777666919342
20
1832.44947954299
30
9.64264129389991e-006
11
217.088327091121
21
1832.68785747689
31
9.64766480263668e-006
  0
LINE
 8
GROUP0
10
218.898987262902
20
1830.32815919943
30
9.59793719150226e-006
11
218.588327091121
21
1830.08978126554
31
9.59291368276549e-006
  0
LINE
 8
GROUP0
10
216.389438351688
20
1831.00059080356
30
9.61210782410848e-006
11
216.338327091121
21
1831.38881937121
31
9.62028924270109e-006
  0
LINE
 8
GROUP0
10
217.088327091121
20
1832.68785747689
30
9.64766480263668e-006
11
217.450098523468
21
1832.83770811065
31
9.65082271249251e-006
  0
LINE
 8
GROUP0
10
237.446030967616
20
1856.91540685748
30
1.01582293003333e-005
11
238.796466224574
21
1856.29095808123
31
1.01450698442584e-005
  0
LINE
 8
GROUP0
10
216.338327091121
20
1831.38881937121
30
9.62028924270109e-006
11
216.389438351688
21
1831.77704793887
31
9.62847066129369e-006
  0
LINE
 8
GROUP0
10
243.562708728695
20
1862.00822797869
30
1.02655539668928e-005
11
243.235478275204
21
1863.62679735278
31
1.02996632380781e-005
  0
LINE
 8
GROUP0
10
215.124656551266
20
1846.65981492852
30
9.94210586780508e-006
11
215.295064800167
21
1844.76433006381
31
9.9021609579808e-006
  0
LINE
 8
GROUP0
10
224.302647464657
20
1850.8902398691
30
1.00312566413852e-005
11
224.451293819332
21
1851.27203003024
31
1.00393023794054e-005
  0
LINE
 8
GROUP0
10
222.809239261532
20
1835.44257227038
30
9.70571688009847e-006
11
223.004600398922
21
1837.10434404467
31
9.74073658733254e-006
  0
LINE
 8
GROUP0
10
223.972885005855
20
1844.97064987277
30
9.9065088824124e-006
11
220.320199840451
21
1845.59383777236
31
9.91964176735305e-006
  0
LINE
 8
GROUP0
10
221.503293865108
20
1833.28695932482
30
9.66029010489033e-006
11
222.996445529842
21
1832.10695806597
31
9.63542309337373e-006
  0
LINE
 8
GROUP0
10
220.320199840451
20
1845.59383777236
30
9.91964176735305e-006
11
220.32019984045
21
1849.18380359267
31
9.99529568785351e-006
  0
LINE
 8
GROUP0
10
227.826501243496
20
1865.14138856982
30
1.03315813036575e-005
11
226.058014266873
21
1864.43827882861
31
1.03167641683555e-005
  0
LINE
 8
GROUP0
10
226.058014266873
20
1864.43827882861
30
1.03167641683555e-005
11
227.620703094387
21
1863.75737825488
31
1.03024150628905e-005
  0
LINE
 8
GROUP0
10
238.796466224574
20
1856.29095808123
30
1.01450698442584e-005
11
241.733533256435
21
1858.55018583392
31
1.01926801681584e-005
  0
LINE
 8
GROUP0
10
223.004600398922
20
1837.10434404467
30
9.74073658733254e-006
11
223.389991634273
21
1838.73257032489
31
9.77504936562901e-006
  0
LINE
 8
GROUP0
10
223.972885005855
20
1849.80698982333
30
1.00084285375446e-005
11
224.302647464657
21
1850.8902398691
31
1.00312566413852e-005
  0
LINE
 8
GROUP0
10
217.42339503088
20
1849.23470309828
30
9.99636832978434e-006
11
216.21527468481
21
1848.3764935479
31
9.97828266509626e-006
  0
LINE
 8
GROUP0
10
234.291896157646
20
1828.6437841997
30
9.56244115103977e-006
11
236.189849250698
21
1828.78407541369
31
9.56539760813002e-006
  0
LINE
 8
GROUP0
10
217.842510097409
20
1837.64268270587
30
9.75208138299099e-006
11
218.912981861019
21
1836.06915250872
31
9.71892125471441e-006
  0
LINE
 8
GROUP0
10
224.451293819332
20
1851.27203003024
30
1.00393023794054e-005
11
223.051957004452
21
1851.19008270358
31
1.00375754446214e-005
  0
LINE
 8
GROUP0
10
218.719742648984
20
1849.95272842501
30
1.00114997919454e-005
11
217.42339503088
21
1849.23470309828
31
9.99636832978434e-006
  0
LINE
 8
GROUP0
10
223.389991634273
20
1838.73257032489
30
9.77504936562901e-006
11
222.909028880977
21
1839.22629228686
31
9.78545392171792e-006
  0
LINE
 8
GROUP0
10
220.32019984045
20
1849.18380359267
30
9.99529568785351e-006
11
223.972885005855
21
1849.80698982333
31
1.00084285375446e-005
  0
LINE
 8
GROUP0
10
225.090599887752
20
1842.22149292086
30
9.8485739294385e-006
11
224.431014888667
21
1843.55511871432
31
9.87667838091566e-006
  0
LINE
 8
GROUP0
10
222.806509845638
20
1833.76935926532
30
9.67045606432015e-006
11
222.809239261532
21
1835.44257227038
31
9.70571688009847e-006
  0
LINE
 8
GROUP0
10
243.604033344174
20
1858.71226087664
30
1.01960956918223e-005
11
243.686200015927
21
1860.36153379534
31
1.02308520007921e-005
  0
LINE
 8
GROUP0
10
219.287215830555
20
1831.77704793887
30
9.62847066129369e-006
11
219.338327091122
21
1831.38881937121
31
9.62028924270109e-006
  0
LINE
 8
GROUP0
10
243.686200015927
20
1860.36153379534
30
1.02308520007921e-005
11
243.562708728695
21
1862.00822797869
31
1.02655539668928e-005
  0
LINE
 8
GROUP0
10
235.300400965595
20
1860.97144285296
30
1.02437050512938e-005
11
236.018992774868
21
1857.33632436846
31
1.0167099596553e-005
  0
LINE
 8
GROUP0
10
223.051957004452
20
1851.19008270358
30
1.00375754446214e-005
11
222.971912258051
21
1851.18539444064
31
1.00374766449807e-005
  0
LINE
 8
GROUP0
10
239.07134758749
20
1865.40018526171
30
1.03370351110799e-005
11
237.218701713466
21
1865.83563295458
31
1.03462116126551e-005
  0
LINE
 8
GROUP0
10
222.971912258051
20
1851.18539444064
30
1.00374766449807e-005
11
221.511440151119
21
1850.93420425509
31
1.00321831343231e-005
  0
LINE
 8
GROUP0
10
220.088122241878
20
1850.5215970621
30
1.00234879678918e-005
11
218.719742648984
21
1849.95272842501
31
1.00114997919454e-005
  0
LINE
 8
GROUP0
10
218.912981861019
20
1836.06915250872
30
9.71892125471441e-006
11
220.137448184872
21
1834.61224237536
31
9.68821874414716e-006
  0
LINE
 8
GROUP0
10
222.996445529842
20
1832.10695806597
30
9.63542309337373e-006
11
222.806509845638
21
1833.76935926532
31
9.67045606432015e-006
  0
LINE
 8
GROUP0
10
215.11047732153
20
1847.38882073467
30
9.95746872866077e-006
11
215.124656551266
21
1846.65981492852
31
9.94210586780508e-006
  0
LINE
 8
GROUP0
10
222.909028880977
20
1839.22629228686
30
9.78545392171792e-006
11
225.090599887752
21
1842.22149292086
31
9.8485739294385e-006
  0
LINE
 8
GROUP0
10
248.389438351688
20
1831.00059080356
30
9.61210782410848e-006
11
248.338327091121
21
1831.38881937121
31
9.62028924270109e-006
  0
LINE
 8
GROUP0
10
219.137365196798
20
1830.63881937121
30
9.60448395589397e-006
11
218.898987262902
21
1830.32815919943
31
9.59793719150226e-006
  0
LINE
 8
GROUP0
10
216.777666919341
20
1830.32815919943
30
9.59793719150226e-006
11
216.539288985444
21
1830.63881937121
31
9.60448395589397e-006
  0
LINE
 8
GROUP0
10
225.479659908199
20
1848.28877649163
30
9.97643414111238e-006
11
222.070200794125
21
1847.70708474969
31
9.96417573412289e-006
  0
LINE
 8
GROUP0
10
217.450098523468
20
1832.83770811065
30
9.65082271249251e-006
11
217.838327091122
21
1832.88881937121
31
9.6518998170203e-006
  0
LINE
 8
GROUP0
10
216.539288985445
20
1832.13881937121
30
9.6360945295082e-006
11
216.777666919342
21
1832.44947954299
31
9.64264129389991e-006
  0
LINE
 8
GROUP0
10
219.287215830555
20
1831.00059080356
30
9.61210782410848e-006
11
219.137365196798
21
1830.63881937121
31
9.60448395589397e-006
  0
LINE
 8
GROUP0
10
217.838327091122
20
1832.88881937121
30
9.6518998170203e-006
11
218.226555658775
21
1832.83770811065
31
9.65082271249251e-006
  0
LINE
 8
GROUP0
10
218.588327091122
20
1832.68785747689
30
9.64766480263668e-006
11
218.898987262902
21
1832.44947954299
31
9.64264129389991e-006
  0
LINE
 8
GROUP0
10
217.450098523467
20
1829.93993063178
30
9.58975577290966e-006
11
217.088327091121
21
1830.08978126554
31
9.59291368276549e-006
  0
LINE
 8
GROUP0
10
218.588327091121
20
1830.08978126554
30
9.59291368276549e-006
11
218.226555658775
21
1829.93993063178
31
9.58975577290966e-006
  0
LINE
 8
GROUP0
10
217.838327091121
20
1829.88881937121
30
9.58867866838187e-006
11
217.450098523467
21
1829.93993063178
31
9.58975577290966e-006
  0
LINE
 8
GROUP0
10
216.539288985444
20
1830.63881937121
30
9.60448395589397e-006
11
216.389438351688
21
1831.00059080356
31
9.61210782410848e-006
  0
LINE
 8
GROUP0
10
248.389438351688
20
1831.77704793886
30
9.62847066129369e-006
11
248.539288985445
21
1832.13881937121
31
9.6360945295082e-006
  0
LINE
 8
GROUP0
10
249.838327091122
20
1829.88881937121
30
9.58867866838187e-006
11
249.450098523468
21
1829.93993063178
31
9.58975577290966e-006
  0
LINE
 8
GROUP0
10
251.33832709112
20
1831.38881937121
30
9.62028924270109e-006
11
251.287215830554
21
1831.00059080356
31
9.61210782410848e-006
  0
LINE
 8
GROUP0
10
248.539288985445
20
1830.63881937121
30
9.60448395589397e-006
11
248.389438351688
21
1831.00059080356
31
9.61210782410848e-006
  0
LINE
 8
GROUP0
10
251.287215830557
20
1863.00059080356
30
1.02864667389235e-005
11
251.137365196799
21
1862.63881937121
31
1.0278842870709e-005
  0
LINE
 8
GROUP0
10
224.485477321529
20
1863.62679735278
30
1.02996632380781e-005
11
223.861229770564
21
1863.25001493548
31
1.02917230323685e-005
  0
LINE
 8
GROUP0
10
220.867610805416
20
1860.90724531268
30
1.02423521702588e-005
11
219.564182155514
21
1859.52053037738
31
1.02131289337393e-005
  0
LINE
 8
GROUP0
10
248.338327091123
20
1863.38881937121
30
1.02946481575161e-005
11
248.38943835169
21
1863.77704793886
31
1.03028295761087e-005
  0
LINE
 8
GROUP0
10
248.38943835169
20
1863.77704793886
30
1.03028295761087e-005
11
248.539288985447
21
1864.13881937121
31
1.03104534450282e-005
  0
LINE
 8
GROUP0
10
248.777666919343
20
1864.44947954299
30
1.0317000208715e-005
11
249.088327091123
21
1864.68785747689
31
1.03220237181567e-005
  0
LINE
 8
GROUP0
10
223.861229770564
20
1863.25001493548
30
1.02917230323685e-005
11
222.30489527502
21
1862.15469328021
31
1.02686405351216e-005
  0
LINE
 8
GROUP0
10
248.539288985446
20
1862.63881937121
30
1.0278842870709e-005
11
248.389438351689
21
1863.00059080356
31
1.02864667389235e-005
  0
LINE
 8
GROUP0
10
248.777666919343
20
1862.32815919943
30
1.02722961063173e-005
11
248.539288985446
21
1862.63881937121
31
1.0278842870709e-005
  0
LINE
 8
GROUP0
10
283.433059555828
20
1684.67127874833
30
6.52840549130729e-006
11
283.433059555828
21
1728.67127874833
31
7.4556489992661e-006
  0
LINE
 8
GROUP0
10
225.686396472836
20
1845.33152977084
30
9.91411396330522e-006
11
226.052152030849
21
1844.21421829318
31
9.89056805814625e-006
  0
LINE
 8
GROUP0
10
250.898987262903
20
1862.32815919943
30
1.02722961063173e-005
11
250.588327091123
21
1862.08978126553
31
1.02672725975805e-005
  0
LINE
 8
GROUP0
10
216.625032298947
20
1850.20819488619
30
1.00168834195669e-005
11
218.173869007015
21
1851.07724205111
31
1.00351974726354e-005
  0
LINE
 8
GROUP0
10
172.433165147629
20
1696.67127874833
30
6.78129008445105e-006
11
184.433165147629
21
1684.67127874833
31
6.52840549130729e-006
  0
LINE
 8
GROUP0
10
283.433059555828
20
1728.67127874833
30
7.4556489992661e-006
11
287.433059555828
21
1732.67127874833
31
7.53994386317736e-006
  0
LINE
 8
GROUP0
10
426.433113737626
20
1684.67127874833
30
6.52840549130729e-006
11
438.433113737627
21
1696.67127874833
31
6.78129008445105e-006
  0
LINE
 8
GROUP0
10
327.433059555828
20
1728.67127874833
30
7.4556489992661e-006
11
327.433059555828
21
1684.67127874833
31
6.52840549130729e-006
  0
LINE
 8
GROUP0
10
286.433143114771
20
1933.67127874832
30
1.17757607528635e-005
11
248.433150459057
21
1933.67127874832
31
1.17757607528635e-005
  0
LINE
 8
GROUP0
10
418.433113737627
20
1933.67127874832
30
1.17757607528635e-005
11
390.433121081912
21
1933.67127874832
31
1.17757607528635e-005
  0
LINE
 8
GROUP0
10
438.433113737627
20
1696.67127874833
30
6.78129008445105e-006
11
438.433113737627
21
1909.67127874832
31
1.12699915665759e-005
  0
LINE
 8
GROUP0
10
249.838327091124
20
1864.88881937121
30
1.03262587318353e-005
11
250.226555658777
21
1864.83770811064
31
1.03251816273076e-005
  0
LINE
 8
GROUP0
10
222.070200794124
20
1847.0705548272
30
9.95076168371911e-006
11
225.479659908199
21
1846.48886499261
31
9.93850331691415e-006
  0
LINE
 8
GROUP0
10
250.226555658777
20
1864.83770811064
30
1.03251816273076e-005
11
250.588327091123
21
1864.68785747689
31
1.03220237181567e-005
  0
LINE
 8
GROUP0
10
249.088327091123
20
1862.08978126553
30
1.02672725975805e-005
11
248.777666919343
21
1862.32815919943
31
1.02722961063173e-005
  0
LINE
 8
GROUP0
10
249.45009852347
20
1861.93993063178
30
1.02641146877247e-005
11
249.088327091123
21
1862.08978126553
31
1.02672725975805e-005
  0
LINE
 8
GROUP0
10
250.588327091123
20
1864.68785747689
30
1.03220237181567e-005
11
250.898987262904
21
1864.44947954299
31
1.0317000208715e-005
  0
LINE
 8
GROUP0
10
226.052152030849
20
1844.21421829318
30
9.89056805814625e-006
11
226.569811218167
21
1843.15866581057
31
9.86832364506807e-006
  0
LINE
 8
GROUP0
10
248.539288985447
20
1864.13881937121
30
1.03104534450282e-005
11
248.777666919343
21
1864.44947954299
31
1.0317000208715e-005
  0
LINE
 8
GROUP0
10
219.564182155514
20
1859.52053037738
30
1.02131289337393e-005
11
218.408038967037
21
1858.00883070086
31
1.01812718041105e-005
  0
LINE
 8
GROUP0
10
219.817286365414
20
1851.75053611849
30
1.00493862806306e-005
11
221.530654781246
21
1852.21798912142
31
1.00592372526243e-005
  0
LINE
 8
GROUP0
10
227.229301803493
20
1842.18540588473
30
9.84781344158247e-006
11
225.192996852779
21
1839.38965049838
31
9.78889648674541e-006
  0
LINE
 8
GROUP0
10
217.411092632199
20
1856.38771787738
30
1.01471089324123e-005
11
216.583612316037
21
1854.67389694308
31
1.01109923569154e-005
  0
LINE
 8
GROUP0
10
220.433157803343
20
1933.67127874832
30
1.17757607528635e-005
11
192.43316514763
21
1933.67127874832
31
1.17757607979829e-005
  0
LINE
 8
GROUP0
10
186.43316514763
20
1939.67127874832
30
1.17757607979829e-005
11
424.433113737626
21
1939.67127874832
31
1.17757607979829e-005
  0
LINE
 8
GROUP0
10
390.433121081912
20
1933.67127874832
30
1.17757607528635e-005
11
390.433121081912
21
1929.67127874832
31
1.16914658431277e-005
  0
LINE
 8
GROUP0
10
248.433150459057
20
1929.67127874832
30
1.16914658431277e-005
11
220.433157803343
21
1929.67127874832
31
1.16914658431277e-005
  0
LINE
 8
GROUP0
10
209.433129950362
20
1678.67127874833
30
6.40196314961594e-006
11
209.433129950362
21
1684.67127874833
31
6.52840544618782e-006
  0
LINE
 8
GROUP0
10
192.43316514763
20
1929.67127874832
30
1.16914659333667e-005
11
182.433165364983
21
1929.67127874832
31
1.16914659333667e-005
  0
LINE
 8
GROUP0
10
184.433165147629
20
1684.67127874833
30
6.52840549130729e-006
11
209.433129950362
21
1684.67127874833
31
6.52840544618782e-006
  0
LINE
 8
GROUP0
10
192.43316514763
20
1933.67127874832
30
1.17757607979829e-005
11
192.43316514763
21
1929.67127874832
31
1.16914659333667e-005
  0
LINE
 8
GROUP0
10
327.433059555828
20
1684.67127874833
30
6.52840549130729e-006
11
364.433077616428
21
1684.67127874833
31
6.52840544618782e-006
  0
LINE
 8
GROUP0
10
209.433129950362
20
1678.67127874833
30
6.40196314961594e-006
11
246.433094753095
21
1678.67127874833
31
6.40196319473541e-006
  0
LINE
 8
GROUP0
10
246.433094753095
20
1684.67127874833
30
6.52840549130729e-006
11
283.433059555828
21
1684.67127874833
31
6.52840549130729e-006
  0
LINE
 8
GROUP0
10
324.433135770485
20
1929.67127874832
30
1.16914658431277e-005
11
286.433143114771
21
1929.67127874832
31
1.16914658431277e-005
  0
LINE
 8
GROUP0
10
418.433113737627
20
1933.67127874832
30
1.17757607528635e-005
11
418.433113737627
21
1929.67127874832
31
1.16914658882472e-005
  0
LINE
 8
GROUP0
10
248.433150459057
20
1933.67127874832
30
1.17757607528635e-005
11
248.433150459057
21
1929.67127874832
31
1.16914658431277e-005
  0
LINE
 8
GROUP0
10
362.433128426199
20
1933.67127874832
30
1.17757607528635e-005
11
362.433128426199
21
1929.67127874832
31
1.16914658431277e-005
  0
LINE
 8
GROUP0
10
286.433143114771
20
1933.67127874832
30
1.17757607528635e-005
11
286.433143114771
21
1929.67127874832
31
1.16914658431277e-005
  0
LINE
 8
GROUP0
10
401.433095677027
20
1678.67127874833
30
6.40196319473541e-006
11
401.433095677027
21
1684.67127874833
31
6.52840549130729e-006
  0
LINE
 8
GROUP0
10
390.433121081912
20
1929.67127874832
30
1.16914658431277e-005
11
362.433128426199
21
1929.67127874832
31
1.16914658431277e-005
  0
LINE
 8
GROUP0
10
324.433135770485
20
1933.67127874832
30
1.17757607528635e-005
11
324.433135770485
21
1929.67127874832
31
1.16914658431277e-005
  0
LINE
 8
GROUP0
10
323.433059555828
20
1732.67127874833
30
7.53994386317736e-006
11
327.433059555828
21
1728.67127874833
31
7.4556489992661e-006
  0
LINE
 8
GROUP0
10
220.433157803343
20
1933.67127874832
30
1.17757607528635e-005
11
220.433157803343
21
1929.67127874832
31
1.16914658431277e-005
  0
LINE
 8
GROUP0
10
364.433077616428
20
1678.67127874833
30
6.40196314961594e-006
11
401.433095677027
21
1678.67127874833
31
6.40196319473541e-006
  0
LINE
 8
GROUP0
10
246.433094753095
20
1678.67127874833
30
6.40196319473541e-006
11
246.433094753095
21
1684.67127874833
31
6.52840549130729e-006
  0
LINE
 8
GROUP0
10
364.433077616428
20
1678.67127874833
30
6.40196314961594e-006
11
364.433077616428
21
1684.67127874833
31
6.52840544618782e-006
  0
LINE
 8
GROUP0
10
172.433165147629
20
1899.67127874832
30
1.10592544505073e-005
11
172.433165147629
21
1696.67127874833
31
6.78129008445105e-006
  0
LINE
 8
GROUP0
10
287.433059555828
20
1732.67127874833
30
7.53994386317736e-006
11
323.433059555828
21
1732.67127874833
31
7.53994386317736e-006
  0
LINE
 8
GROUP0
10
362.433128426199
20
1933.67127874832
30
1.17757607528635e-005
11
324.433135770485
21
1933.67127874832
31
1.17757607528635e-005
  0
LINE
 8
GROUP0
10
401.433095677027
20
1684.67127874833
30
6.52840549130729e-006
11
426.433113737626
21
1684.67127874833
31
6.52840549130729e-006
  0
LINE
 8
GROUP0
10
182.433168842631
20
2007.67127874832
30
1.17757607528635e-005
11
182.433165364983
21
1943.67127874832
31
1.17757607979829e-005
  0
LINE
 8
GROUP0
10
182.433165364983
20
1943.67127874832
30
1.17757607979829e-005
11
186.43316514763
21
1939.67127874832
31
1.17757607979829e-005
  0
LINE
 8
GROUP0
10
295.433139442628
20
1983.6713161602
30
1.17757607528635e-005
11
295.433139442628
21
2007.6713161602
31
1.17757607528635e-005
  0
LINE
 8
GROUP0
10
397.933113737626
20
1960.6713161602
30
1.17757607528635e-005
11
353.933113737626
21
1960.6713161602
31
1.17757607528635e-005
  0
LINE
 8
GROUP0
10
428.433113737626
20
1943.67127874832
30
1.17757607979829e-005
11
424.433113737626
21
1939.67127874832
31
1.17757607979829e-005
  0
LINE
 8
GROUP0
10
418.433113737626
20
2007.67127874832
30
1.17757607528635e-005
11
418.433113737626
21
2003.67127874832
31
1.17757607528635e-005
  0
LINE
 8
GROUP0
10
353.933113737626
20
1960.6713161602
30
1.17757607528635e-005
11
353.933113737626
21
2003.67131006067
31
1.17757607528635e-005
  0
LINE
 8
GROUP0
10
428.433113737626
20
2007.67127874832
30
1.17757607528635e-005
11
428.433113737626
21
1943.67127874832
31
1.17757607979829e-005
  0
LINE
 8
GROUP0
10
335.433139442628
20
2003.6713161602
30
1.17757607528635e-005
11
353.933113737626
21
2003.67131006067
31
1.17757607528635e-005
  0
LINE
 8
GROUP0
10
335.433139442628
20
2007.6713161602
30
1.17757607528635e-005
11
335.433139442628
21
2003.6713161602
31
1.17757607528635e-005
  0
LINE
 8
GROUP0
10
315.433139442628
20
2007.6713161602
30
1.17757607528635e-005
11
315.433139442628
21
1983.6713161602
31
1.17757607528635e-005
  0
LINE
 8
GROUP0
10
315.433139442628
20
2007.6713161602
30
1.17757607528635e-005
11
335.433139442628
21
2007.6713161602
31
1.17757607528635e-005
  0
LINE
 8
GROUP0
10
397.933113737626
20
2003.67127874832
30
1.17757607528635e-005
11
418.433113737626
21
2003.67127874832
31
1.17757607528635e-005
  0
LINE
 8
GROUP0
10
397.933113737626
20
1960.6713161602
30
1.17757607528635e-005
11
397.933113737626
21
2003.67127874832
31
1.17757607528635e-005
  0
LINE
 8
GROUP0
10
315.433139442628
20
1983.6713161602
30
1.17757607528635e-005
11
311.433139442628
21
1979.6713161602
31
1.17757607528635e-005
  0
LINE
 8
GROUP0
10
418.433113737626
20
2007.67127874832
30
1.17757607528635e-005
11
428.433113737626
21
2007.67127874832
31
1.17757607528635e-005
  0
LINE
 8
GROUP0
10
311.433139442628
20
1979.6713161602
30
1.17757607528635e-005
11
299.433139442628
21
1979.6713161602
31
1.17757607528635e-005
  0
LINE
 8
GROUP0
10
299.433139442628
20
1979.6713161602
30
1.17757607528635e-005
11
295.433139442628
21
1983.6713161602
31
1.17757607528635e-005
  0
LINE
 8
GROUP0
10
390.433121081912
20
1943.67127874832
30
1.17757607528635e-005
11
418.433113737627
21
1943.67127874832
31
1.17757607528635e-005
  0
LINE
 8
GROUP0
10
275.433139442628
20
2007.6713161602
30
1.17757607528635e-005
11
275.433139442628
21
2003.6713161602
31
1.17757607528635e-005
  0
LINE
 8
GROUP0
10
390.433121081912
20
1947.67127874832
30
1.17757607979829e-005
11
418.433113737627
21
1947.67127874832
31
1.17757607528635e-005
  0
LINE
 8
GROUP0
10
192.433172537624
20
2003.67129722333
30
1.17757607528635e-005
11
212.933148275558
21
2003.67131006067
31
1.17757607528635e-005
  0
LINE
 8
GROUP0
10
324.433135770485
20
1943.67127874832
30
1.17757607528635e-005
11
362.433128426199
21
1943.67127874832
31
1.17757607528635e-005
  0
LINE
 8
GROUP0
10
324.433135770485
20
1943.67127874832
30
1.17757607528635e-005
11
324.433135770485
21
1947.67127874832
31
1.17757607979829e-005
  0
LINE
 8
GROUP0
10
362.433128426199
20
1943.67127874832
30
1.17757607528635e-005
11
362.433128426199
21
1947.67127874832
31
1.17757607979829e-005
  0
LINE
 8
GROUP0
10
256.933148275558
20
1960.6713161602
30
1.17757607528635e-005
11
256.933148275558
21
2003.67129236481
31
1.17757607528635e-005
  0
LINE
 8
GROUP0
10
182.433168842631
20
2007.67127874832
30
1.17757607528635e-005
11
192.433168842623
21
2007.67129722333
31
1.17757607528635e-005
  0
LINE
 8
GROUP0
10
275.433139442628
20
2007.6713161602
30
1.17757607528635e-005
11
295.433139442628
21
2007.6713161602
31
1.17757607528635e-005
  0
LINE
 8
GROUP0
10
256.933148275558
20
1960.6713161602
30
1.17757607528635e-005
11
212.933148275558
21
1960.6713161602
31
1.17757607528635e-005
  0
LINE
 8
GROUP0
10
192.433168842623
20
2007.67129722333
30
1.17757607528635e-005
11
192.433172537624
21
2003.67129722333
31
1.17757607528635e-005
  0
LINE
 8
GROUP0
10
418.433113737627
20
1947.67127874832
30
1.17757607528635e-005
11
418.433113737627
21
1943.67127874832
31
1.17757607528635e-005
  0
LINE
 8
GROUP0
10
390.433121081912
20
1943.67127874832
30
1.17757607528635e-005
11
390.433121081912
21
1947.67127874832
31
1.17757607979829e-005
  0
LINE
 8
GROUP0
10
256.933148275558
20
2003.67129236481
30
1.17757607528635e-005
11
275.433139442628
21
2003.6713161602
31
1.17757607528635e-005
  0
LINE
 8
GROUP0
10
212.933148275558
20
1960.6713161602
30
1.17757607528635e-005
11
212.933148275558
21
2003.67131006067
31
1.17757607528635e-005
  0
LINE
 8
GROUP0
10
294.113706130401
20
1844.02225460801
30
9.20088107310701e-006
11
293.880125233687
21
1844.00607517303
31
9.23167371544298e-006
  0
LINE
 8
GROUP0
10
296.168480001113
20
1849.93947889291
30
9.05170108081999e-006
11
296.168479099797
21
1848.65227672521
31
9.02457517322208e-006
  0
LINE
 8
GROUP0
10
280.19961572908
20
1849.77842000193
30
4.1129552652952e-006
11
280.064005451254
21
1849.85216780144
31
4.13258466846478e-006
  0
LINE
 8
GROUP0
10
248.433150459057
20
1947.67127874832
30
1.17757607979829e-005
11
286.433143114771
21
1947.67127874832
31
1.17757607979829e-005
  0
LINE
 8
GROUP0
10
192.43316514763
20
1947.67127874832
30
1.17757607528635e-005
11
220.433157803344
21
1947.67127874832
31
1.17757607979829e-005
  0
LINE
 8
GROUP0
10
248.433150459057
20
1943.67127874832
30
1.17757607528635e-005
11
286.433143114771
21
1943.67127874832
31
1.17757607528635e-005
  0
LINE
 8
GROUP0
10
296.168482225944
20
1853.11684220792
30
9.11865943656886e-006
11
296.168481676319
21
1852.33190365702
31
9.10211799962646e-006
  0
LINE
 8
GROUP0
10
192.43316514763
20
1943.67127874832
30
1.17757607528635e-005
11
220.433157803344
21
1943.67127874832
31
1.17757607528635e-005
  0
LINE
 8
GROUP0
10
277.796957507749
20
1844.28799982608
30
4.3174984730332e-006
11
277.575079843407
21
1844.1907996843
31
4.34502379292878e-006
  0
LINE
 8
GROUP0
10
278.119688655882
20
1844.42938185051
30
4.27746156250741e-006
11
277.991940909746
21
1844.37341813251
31
4.29330956264184e-006
  0
LINE
 8
GROUP0
10
278.147580464802
20
1846.53065667386
30
4.31802543311988e-006
11
278.147579826296
21
1845.61878345761
31
4.2988090112217e-006
  0
LINE
 8
GROUP0
10
278.147579023227
20
1844.47189137119
30
4.27464000344879e-006
11
278.119688655882
21
1844.42938185051
31
4.27746156250741e-006
  0
LINE
 8
GROUP0
10
192.43316514763
20
1947.67127874832
30
1.17757607528635e-005
11
192.43316514763
21
1943.67127874832
31
1.17757607528635e-005
  0
LINE
 8
GROUP0
10
278.989718390311
20
1849.87112573748
30
4.27617409482495e-006
11
278.848449241101
21
1849.80227763917
31
4.29355273469656e-006
  0
LINE
 8
GROUP0
10
296.159752451236
20
1846.13100094638
30
8.97260592843119e-006
11
296.130000440238
21
1845.90318516911
31
8.97177055284026e-006
  0
LINE
 8
GROUP0
10
296.168479099797
20
1848.65227672521
30
9.02457517322208e-006
11
296.168478305518
21
1847.5179373974
31
9.00067060851106e-006
  0
LINE
 8
GROUP0
10
286.433143114771
20
1943.67127874832
30
1.17757607528635e-005
11
286.433143114771
21
1947.67127874832
31
1.17757607979829e-005
  0
LINE
 8
GROUP0
10
296.079134218229
20
1845.68417805484
30
8.97393522608647e-006
11
296.007153785203
21
1845.47396977449
31
8.97909951389497e-006
  0
LINE
 8
GROUP0
10
296.007153785203
20
1845.47396977449
30
8.97909951389497e-006
11
295.914059141153
21
1845.27255049895
31
8.98726325552768e-006
  0
LINE
 8
GROUP0
10
220.433157803344
20
1943.67127874832
30
1.17757607528635e-005
11
220.433157803344
21
1947.67127874832
31
1.17757607979829e-005
  0
LINE
 8
GROUP0
10
248.433150459057
20
1943.67127874832
30
1.17757607528635e-005
11
248.433150459057
21
1947.67127874832
31
1.17757607979829e-005
  0
LINE
 8
GROUP0
10
324.433135770485
20
1947.67127874832
30
1.17757607979829e-005
11
362.433128426199
21
1947.67127874832
31
1.17757607979829e-005
  0
LINE
 8
GROUP0
10
292.777511826723
20
1844.23914848564
30
9.38355094433629e-006
11
292.583075106048
21
1844.34850545148
31
9.4117717159059e-006
  0
LINE
 8
GROUP0
10
278.15654826871
20
1848.79904183228
30
4.3646332525904e-006
11
278.1475819408
21
1848.63858508833
31
4.3624469565462e-006
  0
LINE
 8
GROUP0
10
296.130000440238
20
1845.90318516911
30
8.97177055284026e-006
11
296.079134218229
21
1845.68417805484
31
8.97393522608647e-006
  0
LINE
 8
GROUP0
10
292.220484908088
20
1844.62989617017
30
9.46603070086649e-006
11
292.05490102059
21
1844.7994416333
31
9.49167397513162e-006
  0
LINE
 8
GROUP0
10
293.880125233687
20
1844.00607517303
30
9.23167371544298e-006
11
293.642640175513
21
1844.01083436695
31
9.26342801992885e-006
  0
LINE
 8
GROUP0
10
277.991940909746
20
1844.37341813251
30
4.29330956264184e-006
11
277.796957507749
21
1844.28799982608
31
4.3174984730332e-006
  0
LINE
 8
GROUP0
10
277.366649310238
20
1844.09949046019
30
4.37088093063198e-006
11
277.212007301757
21
1844.03174490682
31
4.39006533956565e-006
  0
LINE
 8
GROUP0
10
291.598453641003
20
1845.56843196777
30
9.56871858889263e-006
11
291.536603694976
21
1845.7826385866
31
9.58147658607911e-006
  0
LINE
 8
GROUP0
10
296.16848243407
20
1853.41407550772
30
9.12492311157531e-006
11
296.168482225944
21
1853.11684220792
31
9.11865943656886e-006
  0
LINE
 8
GROUP0
10
277.575079843407
20
1844.1907996843
30
4.34502379292878e-006
11
277.366649310238
21
1844.09949046019
31
4.37088093063198e-006
  0
LINE
 8
GROUP0
10
295.508089942789
20
1844.72092841044
30
9.02974953395086e-006
11
295.334749679844
21
1844.55860585875
31
9.04943311784145e-006
  0
LINE
 8
GROUP0
10
296.168480897331
20
1851.21940187776
30
9.07867363370563e-006
11
296.168480001113
21
1849.93947889291
31
9.05170108081999e-006
  0
LINE
 8
GROUP0
10
293.642645051518
20
1850.97443831726
30
9.41017581438941e-006
11
293.866366949892
21
1850.97949315458
31
9.38046283993077e-006
  0
LINE
 8
GROUP0
10
295.799850286072
20
1845.07991039916
30
8.99842633325099e-006
11
295.664527219953
21
1844.89603964601
31
9.0125884946779e-006
  0
LINE
 8
GROUP0
10
293.866366949892
20
1850.97949315458
30
9.38046283993077e-006
11
294.051567225402
21
1850.9694318113
31
9.35556577109642e-006
  0
LINE
 8
GROUP0
10
291.78489072672
20
1849.81759412899
30
9.63341391448935e-006
11
291.909455214706
21
1850.00578886844
31
9.62077695167429e-006
  0
LINE
 8
GROUP0
10
294.555041374016
20
1844.11739976175
30
9.14406127305867e-006
11
294.338674081727
21
1844.05936553456
31
9.17167750937864e-006
  0
LINE
 8
GROUP0
10
293.642640175513
20
1844.01083436695
30
9.26342801992885e-006
11
293.413270526562
21
1844.0365294531
31
9.29454187336698e-006
  0
LINE
 8
GROUP0
10
293.413275366579
20
1850.94873672093
30
9.44020650319177e-006
11
293.642645051518
21
1850.97443831726
31
9.41017581438941e-006
  0
LINE
 8
GROUP0
10
296.168478305518
20
1847.5179373974
30
9.00067060851106e-006
11
296.168477730409
21
1846.69660293223
31
8.983362174525e-006
  0
LINE
 8
GROUP0
10
293.192624140778
20
1850.9021035585
30
9.46863407982335e-006
11
293.413275366579
21
1850.94873672093
31
9.44020650319177e-006
  0
LINE
 8
GROUP0
10
292.05490102059
20
1844.7994416333
30
9.49167397513162e-006
11
291.909451694557
21
1844.97853345395
31
9.51483485616689e-006
  0
LINE
 8
GROUP0
10
296.168477730409
20
1846.69660293223
30
8.983362174525e-006
11
296.168477486604
21
1846.34841535247
31
8.97602470351644e-006
  0
LINE
 8
GROUP0
10
277.212007301757
20
1844.03174490682
30
4.39006533956565e-006
11
277.151495211482
21
1844.00523577724
31
4.39757224896531e-006
  0
LINE
 8
GROUP0
10
291.681218175671
20
1845.36301879211
30
9.55335819621261e-006
11
291.598453641003
21
1845.56843196777
31
9.56871858889263e-006
  0
LINE
 8
GROUP0
10
278.183448975013
20
1848.95239821509
30
4.36427953291463e-006
11
278.15654826871
21
1848.79904183228
31
4.3646332525904e-006
  0
LINE
 8
GROUP0
10
293.413270526562
20
1844.0365294531
30
9.29454187336698e-006
11
293.192619366061
21
1844.08315229554
31
9.32493460991113e-006
  0
LINE
 8
GROUP0
10
280.32879624528
20
1849.68701797203
30
4.09381082092652e-006
11
280.19961572908
21
1849.77842000193
31
4.1129552652952e-006
  0
LINE
 8
GROUP0
10
279.29316968641
20
1849.95518568708
30
4.23749901872772e-006
11
279.137971716481
21
1849.92212046607
31
4.25748826795025e-006
  0
LINE
 8
GROUP0
10
278.848449241101
20
1849.80227763917
30
4.29355273469656e-006
11
278.714203802054
21
1849.71565230905
31
4.30962055897322e-006
  0
LINE
 8
GROUP0
10
296.168481676319
20
1852.33190365702
30
9.10211799962646e-006
11
296.168480897331
21
1851.21940187776
31
9.07867363370563e-006
  0
LINE
 8
GROUP0
10
279.455272766897
20
1849.9702452626
30
4.21620984250581e-006
11
279.29316968641
21
1849.95518568708
31
4.23749901872772e-006
  0
LINE
 8
GROUP0
10
291.536603694976
20
1845.7826385866
30
9.58147658607911e-006
11
291.495678166682
21
1846.00564847766
31
9.59163104075067e-006
  0
LINE
 8
GROUP0
10
295.914059141153
20
1845.27255049895
30
8.98726325552768e-006
11
295.799850286072
21
1845.07991039916
31
8.99842633325099e-006
  0
LINE
 8
GROUP0
10
295.171963211062
20
1850.6952586227
30
9.20045224432897e-006
11
295.171963416654
21
1850.98887207837
31
9.20663968013158e-006
  0
LINE
 8
GROUP0
10
291.536606088646
20
1849.20112699208
30
9.6535161632938e-006
11
291.598456334618
21
1849.41528284899
31
9.64978531027283e-006
  0
LINE
 8
GROUP0
10
291.473523960568
20
1847.70362261459
30
9.63036641901116e-006
11
291.473524238507
21
1848.10055708859
31
9.63873125809367e-006
  0
LINE
 8
GROUP0
10
292.054904791886
20
1850.18536921843
30
9.60517462631483e-006
11
292.220488917095
21
1850.3553082726
31
9.58668537225371e-006
  0
LINE
 8
GROUP0
10
293.192619366061
20
1844.08315229554
30
9.32493460991113e-006
11
292.980696523087
21
1844.15069470336
31
9.3546047490789e-006
  0
LINE
 8
GROUP0
10
291.475688642222
20
1848.74671655355
30
9.65205969995497e-006
11
291.495680248156
21
1848.978278113
31
9.65427494295512e-006
  0
LINE
 8
GROUP0
10
291.681221157
20
1849.6207653419
30
9.64308397153335e-006
11
291.78489072672
21
1849.81759412899
31
9.63341391448935e-006
  0
LINE
 8
GROUP0
10
295.171964004332
20
1851.82815659379
30
9.2243263435321e-006
11
295.171964309529
21
1852.26402038047
31
9.23351161308816e-006
  0
LINE
 8
GROUP0
10
294.338674081727
20
1844.05936553456
30
9.17167750937864e-006
11
294.113706130401
21
1844.02225460801
31
9.20088107310701e-006
  0
LINE
 8
GROUP0
10
294.738942686047
20
1850.79934275955
30
9.26036227574256e-006
11
294.897442427285
21
1850.7244578678
31
9.237657931771e-006
  0
LINE
 8
GROUP0
10
294.051567225402
20
1850.9694318113
30
9.35556577109642e-006
11
294.231422479488
21
1850.94636644199
31
9.33110704983697e-006
  0
LINE
 8
GROUP0
10
296.168477486604
20
1846.34841535247
30
8.97602470351644e-006
11
296.159752451236
21
1846.13100094638
31
8.97260592843119e-006
  0
LINE
 8
GROUP0
10
292.397396190143
20
1844.47875740996
30
9.43926544724194e-006
11
292.220484908088
21
1844.62989617017
31
9.46603070086649e-006
  0
LINE
 8
GROUP0
10
291.473524461885
20
1848.41957148288
30
9.64545407722284e-006
11
291.473524594328
21
1848.60871907766
31
9.64944002934676e-006
  0
LINE
 8
GROUP0
10
292.980696523087
20
1844.15069470336
30
9.3546047490789e-006
11
292.777511826723
21
1844.23914848564
31
9.38355094433629e-006
  0
LINE
 8
GROUP0
10
295.152662160183
20
1844.41696033809
30
9.07071819594707e-006
11
294.962023126893
21
1844.29620535443
31
9.09358336824706e-006
  0
LINE
 8
GROUP0
10
294.962023126893
20
1844.29620535443
30
9.09358336824706e-006
11
294.762820293621
21
1844.19634909868
31
9.11803052200399e-006
  0
LINE
 8
GROUP0
10
292.583075106048
20
1844.34850545148
30
9.4117717159059e-006
11
292.397396190143
21
1844.47875740996
31
9.43926544724194e-006
  0
LINE
 8
GROUP0
10
294.231422479488
20
1850.94636644199
30
9.33110704983697e-006
11
294.405935169434
21
1850.91031670481
31
9.30708686579518e-006
  0
LINE
 8
GROUP0
10
292.980701203208
20
1850.83454865904
30
9.49545730631884e-006
11
293.192624140778
21
1850.9021035585
31
9.46863407982335e-006
  0
LINE
 8
GROUP0
10
295.334749679844
20
1844.55860585875
30
9.04943311784145e-006
11
295.152662160183
21
1844.41696033809
31
9.07071819594707e-006
  0
LINE
 8
GROUP0
10
294.405935169434
20
1850.91031670481
30
9.30708686579518e-006
11
294.575107752525
21
1850.86130225794
31
9.2835052718454e-006
  0
LINE
 8
GROUP0
10
291.473523030682
20
1846.37561831761
30
9.60238065921826e-006
11
291.473523163126
21
1846.56476591239
31
9.6063667015811e-006
  0
LINE
 8
GROUP0
10
294.762820293621
20
1844.19634909868
30
9.11803052200399e-006
11
294.555041374016
21
1844.11739976175
31
9.14406127305867e-006
  0
LINE
 8
GROUP0
10
291.909451694557
20
1844.97853345395
30
9.51483485616689e-006
11
291.784887469886
21
1845.16638923052
31
9.53539655506042e-006
  0
LINE
 8
GROUP0
10
291.784887469886
20
1845.16638923052
30
9.53539655506042e-006
11
291.681218175671
21
1845.36301879211
31
9.55335819621261e-006
  0
LINE
 8
GROUP0
10
291.473524238507
20
1848.10055708859
30
9.63873125809367e-006
11
291.473524461885
21
1848.41957148288
31
9.64545407722284e-006
  0
LINE
 8
GROUP0
10
295.664527219953
20
1844.89603964601
30
9.0125884946779e-006
11
295.508089942789
21
1844.72092841044
31
9.02974953395086e-006
  0
LINE
 8
GROUP0
10
291.909455214706
20
1850.00578886844
30
9.62077695167429e-006
11
292.054904791886
21
1850.18536921843
31
9.60517462631483e-006
  0
LINE
 8
GROUP0
10
292.397400410812
20
1850.50645182935
30
9.56629019449595e-006
11
292.583079509132
21
1850.63671296539
31
9.54428653323625e-006
  0
LINE
 8
GROUP0
10
309.639076095313
20
1846.51771229438
30
1.20302878453549e-007
11
309.874024371918
21
1846.6217299213
31
9.11790760671494e-008
  0
LINE
 8
GROUP0
10
295.171963416654
20
1850.98887207837
30
9.20663968013158e-006
11
295.171963693892
21
1851.38480594758
31
9.21498338779525e-006
  0
LINE
 8
GROUP0
10
291.473523163126
20
1846.56476591239
30
9.6063667015811e-006
11
291.473523386504
21
1846.88378030668
31
9.61308943047134e-006
  0
LINE
 8
GROUP0
10
292.777516382962
20
1850.74608185165
30
9.52067508289134e-006
11
292.980701203208
21
1850.83454865904
31
9.49545730631884e-006
  0
LINE
 8
GROUP0
10
291.495680248156
20
1848.978278113
30
9.65427494295512e-006
11
291.536606088646
21
1849.20112699208
31
9.6535161632938e-006
  0
LINE
 8
GROUP0
10
294.897442427285
20
1850.7244578678
30
9.237657931771e-006
11
295.050609433523
21
1850.63666724087
31
9.21539256281689e-006
  0
LINE
 8
GROUP0
10
309.47459841758
20
1846.14152241819
30
1.34298211368344e-007
11
309.493852220309
21
1846.3423560593
31
1.35964127012667e-007
  0
LINE
 8
GROUP0
10
291.598456334618
20
1849.41528284899
30
9.64978531027283e-006
11
291.681221157
21
1849.6207653419
31
9.64308397153335e-006
  0
LINE
 8
GROUP0
10
295.050609433523
20
1850.63666724087
30
9.21539256281689e-006
11
295.17196311556
21
1850.55886921708
31
9.19757801252641e-006
  0
LINE
 8
GROUP0
10
291.473523386504
20
1846.88378030668
30
9.61308943047134e-006
11
291.473523664443
21
1847.28071478068
31
9.62145431467332e-006
  0
LINE
 8
GROUP0
10
291.473523664443
20
1847.28071478068
30
9.62145431467332e-006
11
291.473523960568
21
1847.70362261459
31
9.63036641901116e-006
  0
LINE
 8
GROUP0
10
295.337222968639
20
1853.05079977079
30
9.22806479213278e-006
11
295.497146343161
21
1853.1206892387
31
9.20822169895308e-006
  0
LINE
 8
GROUP0
10
292.583079509132
20
1850.63671296539
30
9.54428653323625e-006
11
292.777516382962
21
1850.74608185165
31
9.52067508289134e-006
  0
LINE
 8
GROUP0
10
291.495678166682
20
1846.00564847766
30
9.59163104075067e-006
11
291.475686885216
21
1846.23747147005
31
9.59918098777379e-006
  0
LINE
 8
GROUP0
10
292.220488917095
20
1850.3553082726
30
9.58668537225371e-006
11
292.397400410812
21
1850.50645182935
31
9.56629019449595e-006
  0
LINE
 8
GROUP0
10
295.17196475042
20
1852.89367282914
30
9.24678054942674e-006
11
295.172339403891
21
1852.97874260816
31
9.24852333876736e-006
  0
LINE
 8
GROUP0
10
305.795621474909
20
1846.34575160941
30
6.28966862559199e-007
11
305.795621612233
21
1846.54186975793
31
6.33099710967144e-007
  0
LINE
 8
GROUP0
10
305.795621612233
20
1846.54186975793
30
6.33099710967144e-007
11
305.795621949302
21
1847.02325066793
31
6.4324410540828e-007
  0
LINE
 8
GROUP0
10
309.431092004194
20
1845.95384261444
30
1.36141943524182e-007
11
309.47459841758
21
1846.14152241819
31
1.34298211368344e-007
  0
LINE
 8
GROUP0
10
295.497146343161
20
1853.1206892387
30
9.20822169895308e-006
11
295.678620889009
21
1853.19999696645
31
9.18570455352152e-006
  0
LINE
 8
GROUP0
10
296.126577378714
20
1853.39576222468
30
9.13012270113422e-006
11
296.16848243407
21
1853.41407550772
31
9.12492311157531e-006
  0
LINE
 8
GROUP0
10
291.475686885216
20
1846.23747147005
30
9.59918098777379e-006
11
291.473523030682
21
1846.37561831761
31
9.60238065921826e-006
  0
LINE
 8
GROUP0
10
310.139954838845
20
1846.73946415837
30
5.82146837790898e-008
11
310.36715756787
21
1846.84005263275
31
3.00510397954756e-008
  0
LINE
 8
GROUP0
10
305.795621949302
20
1847.02325066793
30
6.4324410540828e-007
11
305.79562237376
21
1847.62943403607
31
6.56018551459248e-007
  0
LINE
 8
GROUP0
10
295.171963693892
20
1851.38480594758
30
9.21498338779525e-006
11
295.171964004332
21
1851.82815659379
31
9.2243263435321e-006
  0
LINE
 8
GROUP0
10
291.473524594328
20
1848.60871907766
30
9.64944002934676e-006
11
291.475688642222
21
1848.74671655355
31
9.65205969995497e-006
  0
LINE
 8
GROUP0
10
294.575107752525
20
1850.86130225794
30
9.2835052718454e-006
11
294.738942686047
21
1850.79934275955
31
9.26036227574256e-006
  0
LINE
 8
GROUP0
10
310.485922630769
20
1846.89263297164
30
1.53290297177922e-008
11
310.490576313762
21
1846.86542793161
31
1.4135506398727e-008
  0
LINE
 8
GROUP0
10
309.271503513832
20
1845.6174283741
30
1.50323836256572e-007
11
309.363378522246
21
1845.77918761182
31
1.41486740912189e-007
  0
LINE
 8
GROUP0
10
309.363378522246
20
1845.77918761182
30
1.41486740912189e-007
11
309.431092004194
21
1845.95384261444
31
1.36141943524182e-007
  0
LINE
 8
GROUP0
10
295.17196311556
20
1850.55886921708
30
9.19757801252641e-006
11
295.171963211062
21
1850.6952586227
31
9.20045224432897e-006
  0
LINE
 8
GROUP0
10
309.493852220309
20
1846.3423560593
30
1.35964127012667e-007
11
309.494492482949
21
1846.37154059405
31
1.36493833041706e-007
  0
LINE
 8
GROUP0
10
309.332279772164
20
1844.334579282
30
1.15188645050113e-007
11
309.0565044099
21
1844.18697323523
31
1.48835826657701e-007
  0
LINE
 8
GROUP0
10
310.36715756787
20
1846.84005263275
30
3.00510397954756e-008
11
310.485922630769
21
1846.89263297164
31
1.53290297177922e-008
  0
LINE
 8
GROUP0
10
295.171964309529
20
1852.26402038047
30
9.23351161308816e-006
11
295.17196457104
21
1852.63749367109
31
9.24138194778323e-006
  0
LINE
 8
GROUP0
10
305.995454852406
20
1845.38021888536
30
5.81984036895911e-007
11
305.884442893028
21
1845.68339086139
31
6.03169654783686e-007
  0
LINE
 8
GROUP0
10
296.015913824366
20
1853.34740020785
30
9.14385367347115e-006
11
296.126577378714
21
1853.39576222468
31
9.13012270113422e-006
  0
LINE
 8
GROUP0
10
310.490577410729
20
1848.43204807348
30
4.71497437093404e-008
11
310.490577301054
21
1848.27541631246
31
4.38488848175655e-008
  0
LINE
 8
GROUP0
10
308.098292318249
20
1844.00548837098
30
2.72729713879372e-007
11
307.760012176767
21
1844.03263440599
31
3.18390654169276e-007
  0
LINE
 8
GROUP0
10
295.859069188604
20
1853.27885620564
30
9.16331475848131e-006
11
296.015913824366
21
1853.34740020785
31
9.14385367347115e-006
  0
LINE
 8
GROUP0
10
309.155512521048
20
1845.46843586505
30
1.62644195089712e-007
11
309.271503513832
21
1845.6174283741
31
1.50323836256572e-007
  0
LINE
 8
GROUP0
10
307.760012176767
20
1844.03263440599
30
3.18390654169276e-007
11
307.440269422976
21
1844.10417843725
31
3.62516258067824e-007
  0
LINE
 8
GROUP0
10
310.454440110973
20
1845.96610606704
30
0.0
11
310.371094041406
21
1845.66065699284
31
4.67218744248932e-009
  0
LINE
 8
GROUP0
10
309.494492538024
20
1846.45019551084
30
1.38151429079914e-007
11
309.639076095313
21
1846.51771229438
31
1.20302878453549e-007
  0
LINE
 8
GROUP0
10
308.703104587042
20
1845.1286004299
30
2.15783408724635e-007
11
308.863199006372
21
1845.21735388643
31
1.96314974881817e-007
  0
LINE
 8
GROUP0
10
308.758863768429
20
1844.08292015241
30
1.86315006434068e-007
11
308.439365438117
21
1844.02242256368
31
2.2762551675215e-007
  0
LINE
 8
GROUP0
10
309.015246532851
20
1845.33168069187
30
1.78458091254496e-007
11
309.155512521048
21
1845.46843586505
31
1.62644195089712e-007
  0
LINE
 8
GROUP0
10
295.17196457104
20
1852.63749367109
30
9.24138194778323e-006
11
295.17196475042
21
1852.89367282914
31
9.24678054942674e-006
  0
LINE
 8
GROUP0
10
295.221428183022
20
1853.00019531114
30
9.24243247271694e-006
11
295.337222968639
21
1853.05079977079
31
9.22806479213278e-006
  0
LINE
 8
GROUP0
10
308.174767682201
20
1845.01481870743
30
2.83806755835281e-007
11
308.35886615393
21
1845.02742898503
31
2.59534325791622e-007
  0
LINE
 8
GROUP0
10
309.494492511447
20
1846.41223994053
30
1.37351519502449e-007
11
309.494492538024
21
1846.45019551084
31
1.38151429079914e-007
  0
LINE
 8
GROUP0
10
308.534986045886
20
1845.06532417764
30
2.36858118740635e-007
11
308.703104587042
21
1845.1286004299
31
2.15783408724635e-007
  0
LINE
 8
GROUP0
10
309.494492482949
20
1846.37154059405
30
1.36493833041706e-007
11
309.494492511447
21
1846.41223994053
31
1.37351519502449e-007
  0
LINE
 8
GROUP0
10
307.139061526734
20
1844.2200901033
30
4.05106471995653e-007
11
306.856385957897
21
1844.38033904268
31
4.46160837003218e-007
  0
LINE
 8
GROUP0
10
305.79562237376
20
1847.62943403607
30
6.56018551459248e-007
11
305.795622773249
21
1848.19995955903
31
6.68041553991694e-007
  0
LINE
 8
GROUP0
10
295.678620889009
20
1853.19999696645
30
9.18570455352152e-006
11
295.859069188604
21
1853.27885620564
31
9.16331475848131e-006
  0
LINE
 8
GROUP0
10
308.35886615393
20
1845.02742898503
30
2.59534325791622e-007
11
308.534986045886
21
1845.06532417764
31
2.36858118740635e-007
  0
LINE
 8
GROUP0
10
308.863199006372
20
1845.21735388643
30
1.96314974881817e-007
11
309.015246532851
21
1845.33168069187
31
1.78458091254496e-007
  0
LINE
 8
GROUP0
10
295.172339403891
20
1852.97874260816
30
9.24852333876736e-006
11
295.221428183022
21
1853.00019531114
31
9.24243247271694e-006
  0
LINE
 8
GROUP0
10
309.830324655603
20
1844.77321745494
30
5.80488366153098e-008
11
309.586182264854
21
1844.52573576263
31
8.53748081452998e-008
  0
LINE
 8
GROUP0
10
309.874024371918
20
1846.6217299213
30
9.11790760671494e-008
11
310.139954838845
21
1846.73946415837
31
5.82146837790898e-008
  0
LINE
 8
GROUP0
10
310.371094041406
20
1845.66065699284
30
4.67218744248932e-009
11
310.239313016581
21
1845.35996176967
31
1.59002935928854e-008
  0
LINE
 8
GROUP0
10
306.15085415132
20
1845.09567869273
30
5.55274906244296e-007
11
305.995454852406
21
1845.38021888536
31
5.81984036895911e-007
  0
LINE
 8
GROUP0
10
310.489381586675
20
1846.27621284762
30
1.87778113613923e-009
11
310.454440110973
21
1845.96610606704
31
0.0
  0
LINE
 8
GROUP0
10
309.0565044099
20
1844.18697323523
30
1.48835826657701e-007
11
308.758863768429
21
1844.08292015241
31
1.86315006434068e-007
  0
LINE
 8
GROUP0
10
309.468941550427
20
1850.56321375903
30
2.28233309768067e-007
11
309.740855131606
21
1850.34881604219
31
1.87472267099142e-007
  0
LINE
 8
GROUP0
10
310.490576142065
20
1846.62022080372
30
8.96812579198602e-009
11
310.490576042766
21
1846.47840855762
31
5.97956972825386e-009
  0
LINE
 8
GROUP0
10
309.691808178576
20
1847.6969546389
30
1.38125232296282e-007
11
308.752455874619
21
1847.27956959224
31
2.54534130422757e-007
  0
LINE
 8
GROUP0
10
310.05906667511
20
1845.06411654216
30
3.36905407072319e-008
11
309.830324655603
21
1844.77321745494
31
5.80488366153098e-008
  0
LINE
 8
GROUP0
10
305.884442893028
20
1845.68339086139
30
6.03169654783686e-007
11
305.817828393694
21
1846.00522498225
31
6.18830729209874e-007
  0
LINE
 8
GROUP0
10
310.490576313762
20
1846.86542793161
30
1.4135506398727e-008
11
310.490576241363
21
1846.76203304983
31
1.1956546497327e-008
  0
LINE
 8
GROUP0
10
310.490575970367
20
1846.37501367584
30
3.80074589023671e-009
11
310.489381586675
21
1846.27621284762
31
1.87778113613923e-009
  0
LINE
 8
GROUP0
10
306.856385957897
20
1844.38033904268
30
4.46160837003218e-007
11
306.592240186322
21
1844.58489489394
31
4.85679208567236e-007
  0
LINE
 8
GROUP0
10
310.490576042766
20
1846.47840855762
30
5.97956972825386e-009
11
310.490575970367
21
1846.37501367584
31
3.80074589023671e-009
  0
LINE
 8
GROUP0
10
308.885285122882
20
1850.85907832555
30
3.12262803553454e-007
11
309.183759137891
21
1850.73331130729
31
2.69829330412641e-007
  0
LINE
 8
GROUP0
10
306.350630669263
20
1844.82973992203
30
5.23042659739126e-007
11
306.15085415132
21
1845.09567869273
31
5.55274906244296e-007
  0
LINE
 8
GROUP0
10
306.915421251406
20
1845.80621008839
30
4.68340494486075e-007
11
307.007123434016
21
1845.63819376298
31
4.52576857878917e-007
  0
LINE
 8
GROUP0
10
308.248371200992
20
1850.97749932625
30
3.99651592281058e-007
11
308.573496734288
21
1850.94048445235
31
3.55536111357191e-007
  0
LINE
 8
GROUP0
10
305.795623035414
20
1848.57436693347
30
6.75931618582259e-007
11
305.800009971873
21
1848.79201217143
31
6.79933464037274e-007
  0
LINE
 8
GROUP0
10
307.124249129074
20
1845.48244485425
30
4.33683224854153e-007
11
307.264956925179
21
1845.34046706143
31
4.11936508365462e-007
  0
LINE
 8
GROUP0
10
305.800009971873
20
1848.79201217143
30
6.79933464037274e-007
11
305.841955307581
21
1849.12389743616
31
6.81336676539024e-007
  0
LINE
 8
GROUP0
10
307.580093706559
20
1850.91828070825
30
4.87477308025452e-007
11
307.908075059523
21
1850.97009558575
31
4.44853082481877e-007
  0
LINE
 8
GROUP0
10
306.234169172224
20
1850.0090930009
30
6.47713460416588e-007
11
306.453666011484
21
1850.26756582362
31
6.23904080854221e-007
  0
LINE
 8
GROUP0
10
307.908075059523
20
1850.97009558575
30
4.44853082481877e-007
11
308.248371200992
21
1850.97749932625
31
3.99651592281058e-007
  0
LINE
 8
GROUP0
10
308.439365438117
20
1844.02242256368
30
2.2762551675215e-007
11
308.098292318249
21
1844.00548837098
31
2.72729713879372e-007
  0
LINE
 8
GROUP0
10
310.490577553414
20
1848.63582143247
30
5.14439153498358e-008
11
310.490577504433
21
1848.56586938386
31
4.99697658862264e-008
  0
LINE
 8
GROUP0
10
307.270648273498
20
1850.82208467603
30
5.26695516717135e-007
11
307.580093706559
21
1850.91828070825
31
4.87477308025452e-007
  0
LINE
 8
GROUP0
10
310.239313016581
20
1845.35996176967
30
1.59002935928854e-008
11
310.05906667511
21
1845.06411654216
31
3.36905407072319e-008
  0
LINE
 8
GROUP0
10
307.007123434016
20
1845.63819376298
30
4.52576857878917e-007
11
307.124249129074
21
1845.48244485425
31
4.33683224854153e-007
  0
LINE
 8
GROUP0
10
305.795622773249
20
1848.19995955903
30
6.68041553991694e-007
11
305.795623035414
21
1848.57436693347
31
6.75931618582259e-007
  0
LINE
 8
GROUP0
10
310.490576241363
20
1846.76203304983
30
1.1956546497327e-008
11
310.490576142065
21
1846.62022080372
31
8.96812579198602e-009
  0
LINE
 8
GROUP0
10
306.592240186322
20
1844.58489489394
30
4.85679208567236e-007
11
306.350630669263
21
1844.82973992203
31
5.23042659739126e-007
  0
LINE
 8
GROUP0
10
309.586182264854
20
1844.52573576263
30
8.53748081452998e-008
11
309.332279772164
21
1844.334579282
31
1.15188645050113e-007
  0
LINE
 8
GROUP0
10
307.440269422976
20
1844.10417843725
30
3.62516258067824e-007
11
307.139061526734
21
1844.2200901033
31
4.05106471995653e-007
  0
LINE
 8
GROUP0
10
310.171014687174
20
1849.84353038221
30
1.19488732275297e-007
11
310.317803700215
21
1849.5569897129
31
9.38850122700341e-008
  0
LINE
 8
GROUP0
10
305.817828393694
20
1846.00522498225
30
6.18830729209874e-007
11
305.795621474909
21
1846.34575160941
31
6.28966862559199e-007
  0
LINE
 8
GROUP0
10
298.634537678299
20
1848.61479809665
30
8.69508844161815e-006
11
298.646104893426
21
1848.88606607323
31
8.69926333361137e-006
  0
LINE
 8
GROUP0
10
298.661914816926
20
1845.9685180392
30
8.63567267630483e-006
11
298.634604513709
21
1846.32627743497
31
8.64685214367333e-006
  0
LINE
 8
GROUP0
10
298.646104893426
20
1848.88606607323
30
8.69926333361137e-006
11
298.704634547291
21
1849.23044373218
31
8.69871922460352e-006
  0
LINE
 8
GROUP0
10
310.317803700215
20
1849.5569897129
30
9.38850122700341e-008
11
310.419809546963
21
1849.24708762008
31
7.3758059854212e-008
  0
LINE
 8
GROUP0
10
310.490577204156
20
1848.13703291196
30
4.09326778139096e-008
11
310.490577148786
21
1848.05795668309
31
3.92662475257044e-008
  0
LINE
 8
GROUP0
10
307.264956925179
20
1845.34046706143
30
4.11936508365462e-007
11
307.420184652019
21
1845.222977389
31
3.88770492876223e-007
  0
LINE
 8
GROUP0
10
298.634536586171
20
1847.0550896206
30
8.66221985839632e-006
11
298.634537035993
21
1847.69749678187
31
8.67575767430906e-006
  0
LINE
 8
GROUP0
10
307.966005323208
20
1845.02778066587
30
3.11905446825911e-007
11
308.174767682201
21
1845.01481870743
31
2.83806755835281e-007
  0
LINE
 8
GROUP0
10
299.265701443468
20
1844.74523507309
30
8.52941591060752e-006
11
299.040531315469
21
1845.01997594084
31
8.56521824172951e-006
  0
LINE
 8
GROUP0
10
309.183759137891
20
1850.73331130729
30
2.69829330412641e-007
11
309.468941550427
21
1850.56321375903
31
2.28233309768067e-007
  0
LINE
 8
GROUP0
10
298.86485738815
20
1845.31540895152
30
8.59485940010174e-006
11
298.738658831854
21
1845.63157576452
31
8.61834301643105e-006
  0
LINE
 8
GROUP0
10
301.92371249976
20
1844.19414041832
30
8.16352038870982e-006
11
301.670786285089
21
1844.10202542883
31
8.19529131901309e-006
  0
LINE
 8
GROUP0
10
306.849129930723
20
1845.98661780645
30
4.80978144667965e-007
11
306.915421251406
21
1845.80621008839
31
4.68340494486075e-007
  0
LINE
 8
GROUP0
10
305.841955307581
20
1849.12389743616
30
6.81336676539024e-007
11
305.928303699835
21
1849.43732712046
31
6.7643259690775e-007
  0
LINE
 8
GROUP0
10
309.740855131606
20
1850.34881604219
30
1.87472267099142e-007
11
309.979442507816
21
1850.10667926656
31
1.50568624857073e-007
  0
LINE
 8
GROUP0
10
306.97973623024
20
1850.68153785054
30
5.62508933832362e-007
11
307.270648273498
21
1850.82208467603
31
5.26695516717135e-007
  0
LINE
 8
GROUP0
10
302.333405349207
20
1843.87470633485
30
8.10218154161379e-006
11
302.333405385802
21
1843.92696858833
31
8.10328281113937e-006
  0
LINE
 8
GROUP0
10
308.752455874619
20
1847.27956959224
30
2.54534130422757e-007
11
307.784347887887
21
1846.84940745233
31
3.74506575778755e-007
  0
LINE
 8
GROUP0
10
306.059045028195
20
1849.73236953761
30
6.65223926671343e-007
11
306.234169172224
21
1850.0090930009
31
6.47713460416588e-007
  0
LINE
 8
GROUP0
10
307.046285363349
20
1846.52146205853
30
4.65970732832499e-007
11
306.792729273055
21
1846.38510332434
31
4.96893205015336e-007
  0
LINE
 8
GROUP0
10
298.634604513709
20
1846.32627743497
30
8.64685214367333e-006
11
298.634536226765
21
1846.54180865124
31
8.65140321144042e-006
  0
LINE
 8
GROUP0
10
305.928303699835
20
1849.43732712046
30
6.7643259690775e-007
11
306.059045028195
21
1849.73236953761
31
6.65223926671343e-007
  0
LINE
 8
GROUP0
10
310.419809546963
20
1849.24708762008
30
7.3758059854212e-008
11
310.477032227437
21
1848.91385446522
31
5.91085595746943e-008
  0
LINE
 8
GROUP0
10
306.707355046686
20
1850.49667059323
30
5.94918289742452e-007
11
306.97973623024
21
1850.68153785054
31
5.62508933832362e-007
  0
LINE
 8
GROUP0
10
310.490577301054
20
1848.27541631246
30
4.38488848175655e-008
11
310.490577204156
21
1848.13703291196
31
4.09326778139096e-008
  0
LINE
 8
GROUP0
10
308.573496734288
20
1850.94048445235
30
3.55536111357191e-007
11
308.885285122882
21
1850.85907832555
31
3.12262803553454e-007
  0
LINE
 8
GROUP0
10
310.490577148786
20
1848.05795668309
30
3.92662475257044e-008
11
310.343603654792
21
1847.9865687529
31
5.73517620505726e-008
  0
LINE
 8
GROUP0
10
310.477032227437
20
1848.91385446522
30
5.91085595746943e-008
11
310.490577553414
21
1848.63582143247
31
5.14439153498358e-008
  0
LINE
 8
GROUP0
10
310.343603654792
20
1847.9865687529
30
5.73517620505726e-008
11
309.691808178576
21
1847.6969546389
31
1.38125232296282e-007
  0
LINE
 8
GROUP0
10
309.979442507816
20
1850.10667926656
30
1.50568624857073e-007
11
310.171014687174
21
1849.84353038221
31
1.19488732275297e-007
  0
LINE
 8
GROUP0
10
306.453666011484
20
1850.26756582362
30
6.23904080854221e-007
11
306.707355046686
21
1850.49667059323
31
5.94918289742452e-007
  0
LINE
 8
GROUP0
10
310.490577504433
20
1848.56586938386
30
4.99697658862264e-008
11
310.490577410729
21
1848.43204807348
31
4.71497437093404e-008
  0
LINE
 8
GROUP0
10
300.672065023325
20
1850.96249078754
30
8.4729842613207e-006
11
301.033533352112
21
1850.9794276532
31
8.42516158266471e-006
  0
LINE
 8
GROUP0
10
306.808236821446
20
1846.17954089311
30
4.90494363375449e-007
11
306.849129930723
21
1845.98661780645
31
4.80978144667965e-007
  0
LINE
 8
GROUP0
10
301.127064613193
20
1844.00940693606
30
8.26581128819948e-006
11
300.803015310126
21
1844.01077255163
31
8.30903211713197e-006
  0
LINE
 8
GROUP0
10
306.792729273055
20
1846.38510332434
30
4.96893205015336e-007
11
306.808236821446
21
1846.17954089311
31
4.90494363375449e-007
  0
LINE
 8
GROUP0
10
307.588746699629
20
1845.13176386202
30
3.64381002498915e-007
11
307.770675959522
21
1845.06673033586
31
3.38761454726777e-007
  0
LINE
 8
GROUP0
10
302.333405583022
20
1844.20862622925
30
8.1092183386311e-006
11
302.333405679956
21
1844.34706135871
31
8.11213572649572e-006
  0
LINE
 8
GROUP0
10
307.784347887887
20
1846.84940745233
30
3.74506575778755e-007
11
307.046285363349
21
1846.52146205853
31
4.65970732832499e-007
  0
LINE
 8
GROUP0
10
307.420184652019
20
1845.222977389
30
3.88770492876223e-007
11
307.588746699629
21
1845.13176386202
31
3.64381002498915e-007
  0
LINE
 8
GROUP0
10
301.670786285089
20
1844.10202542883
30
8.19529131901309e-006
11
301.405272697633
21
1844.04049719587
31
8.22938463835299e-006
  0
LINE
 8
GROUP0
10
298.634537444084
20
1848.28030723918
30
8.68803947644547e-006
11
298.634537678299
21
1848.61479809665
31
8.69508844161815e-006
  0
LINE
 8
GROUP0
10
299.430822957971
20
1850.40035162956
30
8.62658100214131e-006
11
299.710114210111
21
1850.61495593865
31
8.5938772029559e-006
  0
LINE
 8
GROUP0
10
307.770675959522
20
1845.06673033586
30
3.38761454726777e-007
11
307.966005323208
21
1845.02778066587
31
3.11905446825911e-007
  0
LINE
 8
GROUP0
10
299.531307941605
20
1844.50008748375
30
8.48884756470825e-006
11
299.265701443468
21
1844.74523507309
31
8.52941591060752e-006
  0
LINE
 8
GROUP0
10
300.803015310126
20
1844.01077255163
30
8.30903211713197e-006
11
300.454087580488
21
1844.05895733846
31
8.35655556491455e-006
  0
LINE
 8
GROUP0
10
300.454087580488
20
1844.05895733846
30
8.35655556491455e-006
11
300.125819174087
21
1844.15659522811
31
8.40236744250045e-006
  0
LINE
 8
GROUP0
10
298.634537035993
20
1847.69749678187
30
8.67575767430906e-006
11
298.634537444084
21
1848.28030723918
31
8.68803947644547e-006
  0
LINE
 8
GROUP0
10
298.634536226765
20
1846.54180865124
30
8.65140321144042e-006
11
298.634536586171
21
1847.0550896206
31
8.66221985839632e-006
  0
LINE
 8
GROUP0
10
302.333405679956
20
1844.34706135871
30
8.11213572649572e-006
11
302.333405733312
21
1844.42326052219
31
8.11374152609456e-006
  0
LINE
 8
GROUP0
10
302.333405474356
20
1844.05343526279
30
8.10594793396735e-006
11
302.333405583022
21
1844.20862622925
31
8.1092183386311e-006
  0
LINE
 8
GROUP0
10
303.326679803244
20
1843.72048547663
30
7.96653956757209e-006
11
303.283337850824
21
1843.36959586398
31
7.96492207075228e-006
  0
LINE
 8
GROUP0
10
300.330747145496
20
1850.89607015267
30
8.51707817091096e-006
11
300.672065023325
21
1850.96249078754
31
8.4729842613207e-006
  0
LINE
 8
GROUP0
10
302.333405385802
20
1843.92696858833
30
8.10328281113937e-006
11
302.333405474356
21
1844.05343526279
31
8.10594793396735e-006
  0
LINE
 8
GROUP0
10
303.330068032166
20
1844.94906189467
30
7.99197859236989e-006
11
303.33006739919
21
1844.04508562684
31
7.97292854355924e-006
  0
LINE
 8
GROUP0
10
298.738658831854
20
1845.63157576452
30
8.61834301643105e-006
11
298.661914816926
21
1845.9685180392
31
8.63567267630483e-006
  0
LINE
 8
GROUP0
10
302.336025707568
20
1841.94176197055
30
8.06109804071253e-006
11
302.040652503249
21
1841.76070907314
31
8.09665247422098e-006
  0
LINE
 8
GROUP0
10
301.033533352112
20
1850.9794276532
30
8.42516158266471e-006
11
301.389379836945
21
1850.94685905429
31
8.3770450747811e-006
  0
LINE
 8
GROUP0
10
301.389379836945
20
1850.94685905429
30
8.3770450747811e-006
11
301.725098233799
21
1850.86482075108
31
8.33056885891636e-006
  0
LINE
 8
GROUP0
10
302.853943464543
20
1842.44049331123
30
8.00257579023911e-006
11
302.611181622954
21
1842.17206314808
31
8.02927630236816e-006
  0
LINE
 8
GROUP0
10
302.333405733312
20
1844.42326052219
30
8.11374152609456e-006
11
302.164158465842
21
1844.31699094774
31
8.13406068037592e-006
  0
LINE
 8
GROUP0
10
301.405272697633
20
1844.04049719587
30
8.22938463835299e-006
11
301.127064613193
21
1844.00940693606
31
8.26581128819948e-006
  0
LINE
 8
GROUP0
10
303.190095192246
20
1843.03932642133
30
7.97039026775859e-006
11
303.046960754492
21
1842.72963846498
31
7.98294217051465e-006
  0
LINE
 8
GROUP0
10
299.710114210111
20
1850.61495593865
30
8.5938772029559e-006
11
300.010092906856
21
1850.78021032469
31
8.55737612150409e-006
  0
LINE
 8
GROUP0
10
301.725098233799
20
1850.86482075108
30
8.33056885891636e-006
11
302.040658786014
21
1850.73335737863
31
8.28573789257159e-006
  0
LINE
 8
GROUP0
10
302.336031736928
20
1850.552513572
30
8.24255708671839e-006
11
302.611187329879
21
1850.32233396624
31
8.20103139674289e-006
  0
LINE
 8
GROUP0
10
299.763376505799
20
1843.2896953465
30
8.43240814077384e-006
11
299.8157948041
21
1843.19466507538
31
8.42341870520014e-006
  0
LINE
 8
GROUP0
10
302.853948795273
20
1850.05350650302
30
8.16300887005461e-006
11
303.046965680094
21
1849.76407304077
31
8.13118262892876e-006
  0
LINE
 8
GROUP0
10
299.8157948041
20
1843.19466507538
30
8.42341870520014e-006
11
299.877749342155
21
1843.10369392368
31
8.41324379590169e-006
  0
LINE
 8
GROUP0
10
302.611187329879
20
1850.32233396624
30
8.20103139674289e-006
11
302.853948795273
21
1850.05350650302
31
8.16300887005461e-006
  0
LINE
 8
GROUP0
10
299.040531315469
20
1845.01997594084
30
8.56521824172951e-006
11
298.86485738815
21
1845.31540895152
31
8.59485940010174e-006
  0
LINE
 8
GROUP0
10
300.53339091115
20
1842.6101443276
30
8.31545346421936e-006
11
300.721727092856
21
1842.55405050566
31
8.28916842339211e-006
  0
LINE
 8
GROUP0
10
298.85642517902
20
1842.84408429299
30
8.54390355750079e-006
11
298.773391634505
21
1843.04280183728
31
8.55915862795764e-006
  0
LINE
 8
GROUP0
10
300.917803166814
20
1842.52636085094
30
8.26245021738336e-006
11
301.116747502457
21
1842.52710933952
31
8.23594905573488e-006
  0
LINE
 8
GROUP0
10
302.611181622954
20
1842.17206314808
30
8.02927630236816e-006
11
302.336025707568
21
1841.94176197055
31
8.06109804071253e-006
  0
LINE
 8
GROUP0
10
300.010092906856
20
1850.78021032469
30
8.55737612150409e-006
11
300.330747145496
21
1850.89607015267
31
8.51707817091096e-006
  0
LINE
 8
GROUP0
10
303.330070482481
20
1848.44844800605
30
8.06572298525654e-006
11
303.330069849505
21
1847.54447173823
31
8.04667307180429e-006
  0
LINE
 8
GROUP0
10
303.330069849505
20
1847.54447173823
30
8.04667307180429e-006
11
303.330068940836
21
1846.24676681645
31
8.01932583208709e-006
  0
LINE
 8
GROUP0
10
303.330068940836
20
1846.24676681645
30
8.01932583208709e-006
11
303.330068032166
21
1844.94906189467
31
7.99197859236989e-006
  0
LINE
 8
GROUP0
10
302.040652503249
20
1841.76070907314
30
8.09665247422098e-006
11
301.725091766766
21
1841.62901157991
31
8.13593770787602e-006
  0
LINE
 8
GROUP0
10
298.773391634505
20
1843.04280183728
30
8.55915862795764e-006
11
298.738437193872
21
1843.18579463519
31
8.56683100805555e-006
  0
LINE
 8
GROUP0
10
303.33006739919
20
1844.04508562684
30
7.97292854355924e-006
11
303.326679803244
21
1843.72048547663
31
7.96653956757209e-006
  0
LINE
 8
GROUP0
10
303.190099684047
20
1849.45423278689
30
8.10557505543929e-006
11
303.28334188007
21
1849.12391134964
31
8.08618588873933e-006
  0
LINE
 8
GROUP0
10
299.430817141773
20
1842.09402467384
30
8.45153731502402e-006
11
299.226864868772
21
1842.29667804932
31
8.48299236114181e-006
  0
LINE
 8
GROUP0
10
303.046965680094
20
1849.76407304077
30
8.13118262892876e-006
11
303.190099684047
21
1849.45423278689
31
8.10557505543929e-006
  0
LINE
 8
GROUP0
10
301.725091766766
20
1841.62901157991
30
8.13593770787602e-006
11
301.389373254885
21
1841.54677661494
31
8.17895207507746e-006
  0
LINE
 8
GROUP0
10
300.352764864977
20
1842.69460660872
30
8.3413088732831e-006
11
300.53339091115
21
1842.6101443276
31
8.31545346421936e-006
  0
LINE
 8
GROUP0
10
299.720464690638
20
1843.38889781249
30
8.44021836435838e-006
11
299.763376505799
21
1843.2896953465
31
8.43240814077384e-006
  0
LINE
 8
GROUP0
10
298.970055199805
20
1849.85767698422
30
8.6765598659444e-006
11
299.176987857929
21
1850.14068136074
31
8.65494211075291e-006
  0
LINE
 8
GROUP0
10
299.710108093266
20
1841.87926361911
30
8.40978523672931e-006
11
299.430817141773
21
1842.09402467384
31
8.45153731502402e-006
  0
LINE
 8
GROUP0
10
298.704634547291
20
1849.23044373218
30
8.69871922460352e-006
11
298.812611039505
21
1849.5542892386
31
8.69115182692282e-006
  0
LINE
 8
GROUP0
10
303.28334188007
20
1849.12391134964
30
8.08618588873933e-006
11
303.326683341104
21
1848.77303433731
31
8.07301469102906e-006
  0
LINE
 8
GROUP0
10
302.164158465842
20
1844.31699094774
30
8.13406068037592e-006
11
301.92371249976
21
1844.19414041832
31
8.16352038870982e-006
  0
LINE
 8
GROUP0
10
300.125819174087
20
1844.15659522811
30
8.40236744250045e-006
11
299.818221993575
21
1844.30365051256
31
8.44646555313577e-006
  0
LINE
 8
GROUP0
10
302.040658786014
20
1850.73335737863
30
8.28573789257159e-006
11
302.336031736928
21
1850.552513572
31
8.24255708671839e-006
  0
LINE
 8
GROUP0
10
299.818221993575
20
1844.30365051256
30
8.44646555313577e-006
11
299.531307941605
21
1844.50008748375
31
8.48884756470825e-006
  0
LINE
 8
GROUP0
10
299.226864868772
20
1842.29667804932
30
8.48299236114181e-006
11
299.083093355888
21
1842.47120391489
31
8.50583331838961e-006
  0
LINE
 8
GROUP0
10
299.083093355888
20
1842.47120391489
30
8.50583331838961e-006
11
298.959636272726
21
1842.65361215749
31
8.52613276745018e-006
  0
LINE
 8
GROUP0
10
300.721727092856
20
1842.55405050566
30
8.28916842339211e-006
11
300.917803166814
21
1842.52636085094
31
8.26245021738336e-006
  0
LINE
 8
GROUP0
10
301.820840551676
20
1842.81412123036
30
8.14815006128788e-006
11
301.972508125443
21
1842.95487257571
31
8.13090062029564e-006
  0
LINE
 8
GROUP0
10
303.283337850824
20
1843.36959586398
30
7.96492207075228e-006
11
303.190095192246
21
1843.03932642133
31
7.97039026775859e-006
  0
LINE
 8
GROUP0
10
301.033526724375
20
1841.5141113023
30
8.22569386269567e-006
11
300.672058419344
21
1841.53110143211
31
8.27423146418926e-006
  0
LINE
 8
GROUP0
10
289.343612106988
20
1844.12937614723
30
9.83893651209655e-006
11
284.350324265365
21
1844.12937964359
31
1.05044837338253e-005
  0
LINE
 8
GROUP0
10
303.326683341104
20
1848.77303433731
30
8.07301469102906e-006
11
303.330070482481
21
1848.44844800605
31
8.06572298525654e-006
  0
LINE
 8
GROUP0
10
302.098722884808
20
1843.11011343156
30
8.11734914940021e-006
11
302.197851546552
21
1843.27982733522
31
8.10771300386315e-006
  0
LINE
 8
GROUP0
10
288.534661520864
20
1852.29384846097
30
1.01188153944276e-005
11
285.34641346722
21
1852.29385069342
31
1.05437717113077e-005
  0
LINE
 8
GROUP0
10
300.030386163978
20
1842.93347667675
30
8.38931204882876e-006
11
300.17981919762
21
1842.80740164103
31
8.36673750791439e-006
  0
LINE
 8
GROUP0
10
299.176987857929
20
1850.14068136074
30
8.65494211075291e-006
11
299.430822957971
21
1850.40035162956
31
8.62658100214131e-006
  0
LINE
 8
GROUP0
10
298.738437193872
20
1843.18579463519
30
8.56683100805555e-006
11
298.882904018196
21
1843.21652115469
31
8.54822285151768e-006
  0
LINE
 8
GROUP0
10
300.17981919762
20
1842.80740164103
30
8.36673750791439e-006
11
300.352764864977
21
1842.69460660872
31
8.3413088732831e-006
  0
LINE
 8
GROUP0
10
300.330740634654
20
1841.59769487414
30
8.32112851986699e-006
11
300.010086558427
21
1841.71378464451
31
8.36631441988311e-006
  0
LINE
 8
GROUP0
10
284.35033037851
20
1852.85978819671
30
1.06884643508554e-005
11
285.346414169096
21
1853.29622477533
31
1.05648953230675e-005
  0
LINE
 8
GROUP0
10
298.959636272726
20
1842.65361215749
30
8.52613276745018e-006
11
298.85642517902
21
1842.84408429299
31
8.54390355750079e-006
  0
LINE
 8
GROUP0
10
299.949269876576
20
1843.01666881596
30
8.40187701296457e-006
11
300.030386163978
21
1842.93347667675
31
8.38931204882876e-006
  0
LINE
 8
GROUP0
10
300.010086558427
20
1841.71378464451
30
8.36631441988311e-006
11
299.710108093266
21
1841.87926361911
31
8.40978523672931e-006
  0
LINE
 8
GROUP0
10
302.315124338435
20
1843.66223388667
30
8.10014054363761e-006
11
302.333405349207
21
1843.87470633485
31
8.10218154161379e-006
  0
LINE
 8
GROUP0
10
299.633762717272
20
1843.37622061905
30
8.4515075664926e-006
11
299.720464690638
21
1843.38889781249
31
8.44021836435838e-006
  0
LINE
 8
GROUP0
10
298.882904018196
20
1843.21652115469
30
8.54822285151768e-006
11
299.134620243231
21
1843.2700584532
31
8.51580020299059e-006
  0
LINE
 8
GROUP0
10
299.877749342155
20
1843.10369392368
30
8.41324379590169e-006
11
299.949269876576
21
1843.01666881596
31
8.40187701296457e-006
  0
LINE
 8
GROUP0
10
299.134620243231
20
1843.2700584532
30
8.51580020299059e-006
11
299.412076324436
21
1843.32907033866
31
8.48006208532537e-006
  0
LINE
 8
GROUP0
10
301.972508125443
20
1842.95487257571
30
8.13090062029564e-006
11
302.098722884808
21
1843.11011343156
31
8.11734914940021e-006
  0
LINE
 8
GROUP0
10
303.046960754492
20
1842.72963846498
30
7.98294217051465e-006
11
302.853943464543
21
1842.44049331123
31
8.00257579023911e-006
  0
LINE
 8
GROUP0
10
298.812611039505
20
1849.5542892386
30
8.69115182692282e-006
11
298.970055199805
21
1849.85767698422
31
8.6765598659444e-006
  0
LINE
 8
GROUP0
10
285.34641346722
20
1852.29385069342
30
1.05437717113077e-005
11
285.346411304079
21
1849.20458915915
31
1.04786700327708e-005
  0
LINE
 8
GROUP0
10
301.306276749582
20
1842.55629457093
30
8.21130202557363e-006
11
301.4868158933
21
1842.61388210188
31
8.18845186466022e-006
  0
LINE
 8
GROUP0
10
299.412076324436
20
1843.32907033866
30
8.48006208532537e-006
11
299.633762717272
21
1843.37622061905
31
8.4515075664926e-006
  0
LINE
 8
GROUP0
10
300.672058419344
20
1841.53110143211
30
8.27423146418926e-006
11
300.330740634654
21
1841.59769487414
31
8.32112851986699e-006
  0
LINE
 8
GROUP0
10
301.389373254885
20
1841.54677661494
30
8.17895207507746e-006
11
301.033526724375
21
1841.5141113023
31
8.22569386269567e-006
  0
LINE
 8
GROUP0
10
229.029090278529
20
1861.41176954363
30
1.0252984370962e-005
11
227.613365524196
21
1862.34228101824
31
1.02725937058401e-005
  0
LINE
 8
GROUP0
10
225.090599887752
20
1852.55614868258
30
1.0066363530703e-005
11
225.063884609127
21
1852.51053825472
31
1.00654023500624e-005
  0
LINE
 8
GROUP0
10
223.288299434566
20
1852.47259346102
30
1.00646027119067e-005
11
225.063884609127
21
1852.51053825472
31
1.00654023500624e-005
  0
LINE
 8
GROUP0
10
234.540740304376
20
1838.98731485461
30
9.78041777953131e-006
11
235.703089945697
21
1839.16368642901
31
9.78413458347926e-006
  0
LINE
 8
GROUP0
10
301.4868158933
20
1842.61388210188
30
8.18845186466022e-006
11
301.658344103901
21
1842.69983622436
31
8.16740048352194e-006
  0
LINE
 8
GROUP0
10
233.87000016936
20
1835.59425130938
30
9.70891332127133e-006
11
234.540740304376
21
1838.98731485461
31
9.78041777953131e-006
  0
LINE
 8
GROUP0
10
215.193981044674
20
1849.15641597365
30
9.99471852883849e-006
11
216.625032298947
21
1850.20819488619
31
1.00168834195669e-005
  0
LINE
 8
GROUP0
10
228.465352409267
20
1856.0204292879
30
1.01393687969797e-005
11
229.781256072903
21
1856.71469656085
31
1.01539995881916e-005
  0
LINE
 8
GROUP0
10
231.184310310268
20
1857.20972410296
30
1.01644316579885e-005
11
231.448901527309
21
1859.04995123004
31
1.02032120823936e-005
  0
LINE
 8
GROUP0
10
235.703089945697
20
1839.16368642901
30
9.78413458347926e-006
11
236.829594962978
21
1839.50006881808
31
9.79122341099314e-006
  0
LINE
 8
GROUP0
10
288.53465866086
20
1848.20937111026
30
1.00327409095935e-005
11
285.346410607217
21
1848.20937334271
31
1.04576973174175e-005
  0
LINE
 8
GROUP0
10
289.77947163551
20
1845.12639930127
30
9.80185248576348e-006
11
289.343612106988
21
1844.12937614723
31
9.83893651209655e-006
  0
LINE
 8
GROUP0
10
284.350324265365
20
1844.12937964359
30
1.05044837338253e-005
11
284.35033037851
21
1852.85978819671
31
1.06884643508554e-005
  0
LINE
 8
GROUP0
10
285.346410607217
20
1848.20937334271
30
1.04576973174175e-005
11
285.34640844848
21
1845.12640240536
31
1.03927282499194e-005
  0
LINE
 8
GROUP0
10
302.197851546552
20
1843.27982733522
30
8.10771300386315e-006
11
302.269962550988
21
1843.46390418686
31
8.10198056824252e-006
  0
LINE
 8
GROUP0
10
285.346411304079
20
1849.20458915915
30
1.04786700327708e-005
11
288.969650519576
21
1849.20458662211
31
9.99573438580925e-006
  0
LINE
 8
GROUP0
10
288.969650519576
20
1849.20458662211
30
9.99573438580925e-006
11
288.53465866086
21
1848.20937111026
31
1.00327409095935e-005
  0
LINE
 8
GROUP0
10
231.448901527309
20
1859.04995123004
30
1.02032120823936e-005
11
230.314599388027
21
1860.30831876849
31
1.02297305628662e-005
  0
LINE
 8
GROUP0
10
225.090599887752
20
1852.55614868258
30
1.0066363530703e-005
11
222.909028880977
21
1855.55134740924
31
1.0129483498944e-005
  0
LINE
 8
GROUP0
10
301.658344103901
20
1842.69983622436
30
8.16740048352194e-006
11
301.820840551676
21
1842.81412123036
31
8.14815006128788e-006
  0
LINE
 8
GROUP0
10
302.269962550988
20
1843.46390418686
30
8.10198056824252e-006
11
302.315124338435
21
1843.66223388667
31
8.10014054363761e-006
  0
LINE
 8
GROUP0
10
246.209515445614
20
1843.84343544101
30
9.8827542856339e-006
11
247.632836215878
21
1844.256042634
31
9.89144945277021e-006
  0
LINE
 8
GROUP0
10
301.116747502457
20
1842.52710933952
30
8.23594905573488e-006
11
301.306276749582
21
1842.55629457093
31
8.21130202557363e-006
  0
LINE
 8
GROUP0
10
225.637161128902
20
1838.93370309924
30
9.77928798040484e-006
11
228.485262267971
21
1840.89612594699
31
9.82064352206269e-006
  0
LINE
 8
GROUP0
10
229.781256072903
20
1856.71469656085
30
1.01539995881916e-005
11
231.184310310268
21
1857.20972410296
31
1.01644316579885e-005
  0
LINE
 8
GROUP0
10
285.346414169096
20
1853.29622477533
30
1.05648953230675e-005
11
288.969653380187
21
1853.28993164137
31
1.00818270650671e-005
  0
LINE
 8
GROUP0
10
285.34640844848
20
1845.12640240536
30
1.03927282499194e-005
11
289.77947163551
21
1845.12639930127
31
9.80185248576348e-006
  0
LINE
 8
GROUP0
10
225.574306362057
20
1863.25902906512
30
1.02919129937706e-005
11
224.485477321529
21
1863.62679735278
31
1.02996632380781e-005
  0
LINE
 8
GROUP0
10
288.969653380187
20
1853.28993164137
30
1.00818270650671e-005
11
288.534661520864
21
1852.29384846097
31
1.01188153944276e-005
  0
LINE
 8
GROUP0
10
236.829594962978
20
1839.50006881808
30
9.79122341099314e-006
11
237.898335807705
21
1839.98991886233
31
9.80154637135189e-006
  0
LINE
 8
GROUP0
10
241.630017631435
20
1838.514915143
30
9.77046256183667e-006
11
242.097437732601
21
1838.94699159716
31
9.77956801858637e-006
  0
LINE
 8
GROUP0
10
238.888526313686
20
1840.62370601748
30
9.81490262231266e-006
11
241.630017631435
21
1838.514915143
31
9.77046256183667e-006
  0
LINE
 8
GROUP0
10
222.909028880977
20
1855.55134740924
30
1.0129483498944e-005
11
225.414071910762
21
1858.12284437274
31
1.01836744959227e-005
  0
LINE
 8
GROUP0
10
226.090539329433
20
1863.08466306781
30
1.02882384540703e-005
11
225.574306362057
21
1863.25902906512
31
1.02919129937706e-005
  0
LINE
 8
GROUP0
10
232.741444819354
20
1839.03443208789
30
9.78141071440452e-006
11
233.233689599419
21
1835.61091295336
31
9.70926444446296e-006
  0
LINE
 8
GROUP0
10
215.469316356563
20
1851.03952613925
30
1.00344026580323e-005
11
215.193981044674
21
1849.15641597365
31
9.99471852883849e-006
  0
LINE
 8
GROUP0
10
230.314599388027
20
1860.30831876849
30
1.02297305628662e-005
11
229.029090278529
21
1861.41176954363
31
1.0252984370962e-005
  0
LINE
 8
GROUP0
10
219.287215830558
20
1863.77704793887
30
1.03028295761087e-005
11
219.338327091123
21
1863.38881937121
31
1.02946481575161e-005
  0
LINE
 8
GROUP0
10
218.898987262903
20
1862.32815919943
30
1.02722961063173e-005
11
218.588327091123
21
1862.08978126554
31
1.02672725975805e-005
  0
LINE
 8
GROUP0
10
216.38943835169
20
1863.00059080356
30
1.02864667389235e-005
11
216.338327091124
21
1863.38881937121
31
1.02946481575161e-005
  0
LINE
 8
GROUP0
10
267.52442661801
20
1848.41958825235
30
1.28375902984146e-005
11
267.524426394632
21
1848.10057385806
31
1.28308675244049e-005
  0
LINE
 8
GROUP0
10
264.100009160771
20
1844.25843323456
30
1.32063346068523e-005
11
263.946791587352
21
1844.3459558215
31
1.32286011397476e-005
  0
LINE
 8
GROUP0
10
263.489714634049
20
1850.26424172085
30
1.34142440628648e-005
11
263.663074759141
21
1850.42667055695
31
1.33945601462182e-005
  0
LINE
 8
GROUP0
10
222.30489527502
20
1862.15469328021
30
1.02686405351216e-005
11
220.867610805416
21
1860.90724531268
31
1.02423521702588e-005
  0
LINE
 8
GROUP0
10
216.539288985447
20
1862.63881937121
30
1.0278842870709e-005
11
216.38943835169
21
1863.00059080356
31
1.02864667389235e-005
  0
LINE
 8
GROUP0
10
230.482566230679
20
1839.66627231692
30
9.79472593626296e-006
11
231.589921348476
21
1839.27139345263
31
9.78640437097611e-006
  0
LINE
 8
GROUP0
10
237.898335807705
20
1839.98991886233
30
9.80154637135189e-006
11
238.888526313686
21
1840.62370601748
31
9.81490262231266e-006
  0
LINE
 8
GROUP0
10
218.898987262903
20
1864.44947954299
30
1.0317000208715e-005
11
219.137365196801
21
1864.13881937121
31
1.03104534450282e-005
  0
LINE
 8
GROUP0
10
233.233689599419
20
1835.61091295336
30
9.70926444446296e-006
11
233.87000016936
21
1835.59425130938
31
9.70891332127133e-006
  0
LINE
 8
GROUP0
10
228.485262267971
20
1840.89612594699
30
9.82064352206269e-006
11
229.440925949002
21
1840.21138397311
31
9.80621346452493e-006
  0
LINE
 8
GROUP0
10
265.354737607796
20
1844.01078351641
30
1.30338750453707e-005
11
265.131045587451
21
1844.00571976477
31
1.30635838617887e-005
  0
LINE
 8
GROUP0
10
229.440925949002
20
1840.21138397311
30
9.80621346452493e-006
11
230.482566230679
21
1839.66627231692
31
9.79472593626296e-006
  0
LINE
 8
GROUP0
10
231.589921348476
20
1839.27139345263
30
9.78640437097611e-006
11
232.741444819354
21
1839.03443208789
31
9.78141071440452e-006
  0
LINE
 8
GROUP0
10
242.097437732601
20
1838.94699159716
30
9.77956801858637e-006
11
240.21024262228
21
1841.84548774813
31
9.84065010350421e-006
  0
LINE
 8
GROUP0
10
225.192996852779
20
1839.38965049838
30
9.78889648674541e-006
11
225.637161128902
21
1838.93370309924
31
9.77928798040484e-006
  0
LINE
 8
GROUP0
10
217.450098523469
20
1861.93993063178
30
1.02641146877247e-005
11
217.088327091123
21
1862.08978126554
31
1.02672725975805e-005
  0
LINE
 8
GROUP0
10
266.942747749382
20
1844.79947493618
30
1.28388323589967e-005
11
266.777133630812
21
1844.6299135609
31
1.28573335429261e-005
  0
LINE
 8
GROUP0
10
267.524425186808
20
1846.37563508708
30
1.27945169706489e-005
11
267.522260428549
21
1846.23749974428
31
1.27918944843042e-005
  0
LINE
 8
GROUP0
10
267.524426750454
20
1848.60873584713
30
1.2841576295658e-005
11
267.52442661801
21
1848.41958825235
31
1.28375902984146e-005
  0
LINE
 8
GROUP0
10
267.461322084418
20
1849.20111393341
30
1.28624709839487e-005
11
267.502263763351
21
1848.97826909809
31
1.28523178412665e-005
  0
LINE
 8
GROUP0
10
263.825407330509
20
1843.15533943148
30
1.32196896360626e-005
11
263.82540702554
21
1842.71980077071
31
1.32105113536785e-005
  0
LINE
 8
GROUP0
10
221.530654781246
20
1852.21798912142
30
1.00592372526243e-005
11
223.288299434566
21
1852.47259346102
31
1.00646027119067e-005
  0
LINE
 8
GROUP0
10
227.613365524196
20
1862.34228101824
30
1.02725937058401e-005
11
226.090539329433
21
1863.08466306781
31
1.02882384540703e-005
  0
LINE
 8
GROUP0
10
215.934121959591
20
1852.88502517794
30
1.00732941806569e-005
11
215.469316356563
21
1851.03952613925
31
1.00344026580323e-005
  0
LINE
 8
GROUP0
10
263.82540702554
20
1842.71980077071
30
1.32105113536785e-005
11
263.825406764224
21
1842.34660606675
31
1.32026467540902e-005
  0
LINE
 8
GROUP0
10
266.777133630812
20
1844.6299135609
30
1.28573335429261e-005
11
266.600272531469
21
1844.47877000412
31
1.28777219076448e-005
  0
LINE
 8
GROUP0
10
265.804869874228
20
1844.0831182751
30
1.29754020716966e-005
11
265.584152508562
21
1844.03648511271
31
1.30038384007991e-005
  0
LINE
 8
GROUP0
10
273.688704055778
20
1846.4122650122
30
4.90984680888151e-006
11
273.688704082355
21
1846.45022058251
31
4.91064667404451e-006
  0
LINE
 8
GROUP0
10
263.825407640718
20
1843.59835936708
30
1.32290257124912e-005
11
263.825407330509
21
1843.15533943148
31
1.32196896360626e-005
  0
LINE
 8
GROUP0
10
263.825406584978
20
1842.09061800162
30
1.31972521793589e-005
11
263.825031945142
21
1842.00561188314
31
1.31955107323223e-005
  0
LINE
 8
GROUP0
10
262.870828589884
20
1841.58942312221
30
1.33139243213565e-005
11
262.828925054836
21
1841.57114632594
31
1.33191244100495e-005
  0
LINE
 8
GROUP0
10
264.258563639199
20
1844.18395138382
30
1.31836315368006e-005
11
264.100009160771
21
1844.25843323456
31
1.32063346068523e-005
  0
LINE
 8
GROUP0
10
274.684498635246
20
1846.86545300349
30
4.78666928268034e-006
11
274.684498562847
21
1846.76205812171
31
4.78449045884233e-006
  0
LINE
 8
GROUP0
10
267.399442646098
20
1845.5685019845
30
1.27941665045095e-005
11
267.316638738706
21
1845.36308952724
31
1.28008744631203e-005
  0
LINE
 8
GROUP0
10
267.502263763351
20
1848.97826909809
30
1.28523178412665e-005
11
267.52226218554
21
1848.74672248331
31
1.28447727262559e-005
  0
LINE
 8
GROUP0
10
266.600272531469
20
1844.47877000412
30
1.28777219076448e-005
11
266.414591033417
21
1844.34850886808
31
1.28997260652186e-005
  0
LINE
 8
GROUP0
10
264.42244519352
20
1844.12246931474
30
1.31604924660911e-005
11
264.258563639199
21
1844.18395138382
31
1.31836315368006e-005
  0
LINE
 8
GROUP0
10
267.524426394632
20
1848.10057385806
30
1.28308675244049e-005
11
267.524426116693
21
1847.70363938405
31
1.28225027304418e-005
  0
LINE
 8
GROUP0
10
263.946791587352
20
1844.3459558215
30
1.32286011397476e-005
11
263.825408218618
21
1844.42368000275
31
1.32464180595149e-005
  0
LINE
 8
GROUP0
10
266.016865132075
20
1844.1506731745
30
1.29485691438114e-005
11
265.804869874228
21
1844.0831182751
31
1.29754020716966e-005
  0
LINE
 8
GROUP0
10
267.461319690801
20
1845.78270128703
30
1.27904329125961e-005
11
267.399442646098
21
1845.5685019845
31
1.27941665045095e-005
  0
LINE
 8
GROUP0
10
267.522260428549
20
1846.23749974428
30
1.27918944843042e-005
11
267.502261681918
21
1846.00569726393
31
1.27896751579926e-005
  0
LINE
 8
GROUP0
10
267.212916159524
20
1845.16645408616
30
1.28105557238911e-005
11
267.08828309945
21
1844.97858583217
31
1.2823208770385e-005
  0
LINE
 8
GROUP0
10
263.825408123188
20
1844.28739233471
30
1.32435460174163e-005
11
263.825407917749
21
1843.99399789549
31
1.32373631513694e-005
  0
LINE
 8
GROUP0
10
267.08828309945
20
1844.97858583217
30
1.2823208770385e-005
11
266.942747749382
21
1844.79947493618
31
1.28388323589967e-005
  0
LINE
 8
GROUP0
10
267.524426116693
20
1847.70363938405
30
1.28225027304418e-005
11
267.524425820568
21
1847.28073155015
31
1.2813590626104e-005
  0
LINE
 8
GROUP0
10
265.131045587451
20
1844.00571976477
30
1.30635838617887e-005
11
264.945954020701
21
1844.01561225235
31
1.30884628891825e-005
  0
LINE
 8
GROUP0
10
266.414591033417
20
1844.34850886808
30
1.28997260652186e-005
11
266.220113709378
21
1844.23913998185
31
1.29233427945408e-005
  0
LINE
 8
GROUP0
10
264.766150213386
20
1844.03834070353
30
1.31129076064884e-005
11
264.591643994621
21
1844.07394607282
31
1.31369176139762e-005
  0
LINE
 8
GROUP0
10
267.502261681918
20
1846.00569726393
30
1.27896751579926e-005
11
267.461319690801
21
1845.78270128703
31
1.27904329125961e-005
  0
LINE
 8
GROUP0
10
263.660154362337
20
1841.93369828473
30
1.3215971537045e-005
11
263.500236789803
21
1841.8639480622
31
1.3235816797369e-005
  0
LINE
 8
GROUP0
10
263.13832707485
20
1841.70609622171
30
1.32807286192027e-005
11
262.981488129381
21
1841.63768878422
31
1.33001919059017e-005
  0
LINE
 8
GROUP0
10
264.945954020701
20
1844.01561225235
30
1.30884628891825e-005
11
264.766150213386
21
1844.03834070353
31
1.31129076064884e-005
  0
LINE
 8
GROUP0
10
267.316638738706
20
1845.36308952724
30
1.28008744631203e-005
11
267.212916159524
21
1845.16645408616
31
1.28105557238911e-005
  0
LINE
 8
GROUP0
10
267.524425319251
20
1846.56478268185
30
1.27985029678923e-005
11
267.524425186808
21
1846.37563508708
31
1.27945169706489e-005
  0
LINE
 8
GROUP0
10
262.981488129381
20
1841.63768878422
30
1.33001919059017e-005
11
262.870828589884
21
1841.58942312221
31
1.33139243213565e-005
  0
LINE
 8
GROUP0
10
263.775944946942
20
1841.98420192179
30
1.32016022730497e-005
11
263.660154362337
21
1841.93369828473
31
1.3215971537045e-005
  0
LINE
 8
GROUP0
10
263.825408218618
20
1844.42368000275
30
1.32464180595149e-005
11
263.825408123188
21
1844.28739233471
31
1.32435460174163e-005
  0
LINE
 8
GROUP0
10
264.591643994621
20
1844.07394607282
30
1.31369176139762e-005
11
264.42244519352
21
1844.12246931474
31
1.31604924660911e-005
  0
LINE
 8
GROUP0
10
263.500236789803
20
1841.8639480622
30
1.3235816797369e-005
11
263.318768827816
21
1841.78479834445
31
1.32583363707917e-005
  0
LINE
 8
GROUP0
10
263.825407917749
20
1843.99399789549
30
1.32373631513694e-005
11
263.825407640718
21
1843.59835936708
31
1.32290257124912e-005
  0
LINE
 8
GROUP0
10
273.833245658369
20
1846.51773736609
30
4.89280376335111e-006
11
274.068125715403
21
1846.62175499306
31
4.86368907439139e-006
  0
LINE
 8
GROUP0
10
273.209684755588
20
1845.33170576339
30
4.95092319641732e-006
11
273.349781752611
21
1845.46846093669
31
4.93513181415994e-006
  0
LINE
 8
GROUP0
10
266.220113709378
20
1844.23913998185
30
1.29233427945408e-005
11
266.016865132075
21
1844.1506731745
31
1.29485691438114e-005
  0
LINE
 8
GROUP0
10
272.369196143667
20
1845.01484377895
30
5.05627307851864e-006
11
272.553442752446
21
1845.02745405645
31
5.03198097709379e-006
  0
LINE
 8
GROUP0
10
274.433619165127
20
1845.35998684128
30
4.78838294952211e-006
11
274.253580371706
21
1845.06414161362
31
4.80614549399072e-006
  0
LINE
 8
GROUP0
10
274.253580371706
20
1845.06414161362
30
4.80614549399072e-006
11
274.025048149246
21
1844.77324252626
31
4.83047590536523e-006
  0
LINE
 8
GROUP0
10
273.668866649589
20
1846.14154748983
30
4.90678587555804e-006
11
273.688075925303
21
1846.34238113097
31
4.90845788303496e-006
  0
LINE
 8
GROUP0
10
263.318768827816
20
1841.78479834445
30
1.32583363707917e-005
11
263.13832707485
21
1841.70609622171
31
1.32807286192027e-005
  0
LINE
 8
GROUP0
10
272.897732881249
20
1845.12862550128
30
4.98822315674885e-006
11
273.057756160436
21
1845.21737895787
31
4.96876419799341e-006
  0
LINE
 8
GROUP0
10
273.688704082355
20
1846.45022058251
30
4.91064667404451e-006
11
273.833245658369
21
1846.51773736609
31
4.89280376335111e-006
  0
LINE
 8
GROUP0
10
265.584152508562
20
1844.03648511271
30
1.30038384007991e-005
11
265.354737607796
21
1844.01078351641
31
1.30338750453707e-005
  0
LINE
 8
GROUP0
10
273.057756160436
20
1845.21737895787
30
4.96876419799341e-006
11
273.209684755588
21
1845.33170576339
31
4.95092319641732e-006
  0
LINE
 8
GROUP0
10
274.683306295983
20
1846.2762379195
30
4.77441137764489e-006
11
274.648428994782
21
1845.96613113887
31
4.77252497869118e-006
  0
LINE
 8
GROUP0
10
274.679846303502
20
1846.89265804351
30
4.78786276087995e-006
11
274.684498635246
21
1846.86545300349
31
4.78666928268034e-006
  0
LINE
 8
GROUP0
10
263.825031945142
20
1842.00561188314
30
1.31955107323223e-005
11
263.775944946942
21
1841.98420192179
31
1.32016022730497e-005
  0
LINE
 8
GROUP0
10
273.349781752611
20
1845.46846093669
30
4.93513181415994e-006
11
273.465682676194
21
1845.6174534458
31
4.92282336757022e-006
  0
LINE
 8
GROUP0
10
272.729625038447
20
1845.06534924902
30
5.00929651318094e-006
11
272.897732881249
21
1845.12862550128
31
4.98822315674885e-006
  0
LINE
 8
GROUP0
10
272.953365938916
20
1844.08294522388
30
4.95877158401825e-006
11
272.634018697463
21
1844.02244763505
31
5.00006192593605e-006
  0
LINE
 8
GROUP0
10
274.648428994782
20
1845.96613113887
30
4.77252497869118e-006
11
274.565217661991
21
1845.66068206458
31
4.77717920788212e-006
  0
LINE
 8
GROUP0
10
274.068125715403
20
1846.62175499306
30
4.86368907439139e-006
11
274.333978966771
21
1846.73948923018
31
4.83073501516551e-006
  0
LINE
 8
GROUP0
10
263.825406764224
20
1842.34660606675
30
1.32026467540902e-005
11
263.825406584978
21
1842.09061800162
31
1.31972521793589e-005
  0
LINE
 8
GROUP0
10
274.68449836425
20
1846.4784336295
30
4.7785134362488e-006
11
274.684498291851
21
1846.37503874772
31
4.77633452217185e-006
  0
LINE
 8
GROUP0
10
273.465682676194
20
1845.6174534458
30
4.92282336757022e-006
11
273.557566290145
21
1845.77921268351
31
4.91398523377318e-006
  0
LINE
 8
GROUP0
10
273.68870402728
20
1846.37156566573
30
4.90898912242077e-006
11
273.688704055778
21
1846.4122650122
31
4.90984680888151e-006
  0
LINE
 8
GROUP0
10
270.078618791222
20
1845.68341593309
30
5.37566963658698e-006
11
270.01207766541
21
1846.0052500539
31
5.39132101032846e-006
  0
LINE
 8
GROUP0
10
274.333978966771
20
1846.73948923018
30
4.83073501516551e-006
11
274.561115725221
21
1846.84007770461
31
4.80258003411893e-006
  0
LINE
 8
GROUP0
10
274.684498291851
20
1846.37503874772
30
4.77633452217185e-006
11
274.683306295983
21
1846.2762379195
31
4.77441137764489e-006
  0
LINE
 8
GROUP0
10
272.634018697463
20
1844.02244763505
30
5.00006192593605e-006
11
272.293128504682
21
1844.00551344222
31
5.04514175784787e-006
  0
LINE
 8
GROUP0
10
270.78645344748
20
1844.58491996561
30
5.25817427305397e-006
11
270.544809097578
21
1844.82976499373
31
5.29554237082563e-006
  0
LINE
 8
GROUP0
10
269.989906885457
20
1848.5743920051
30
5.44841734263501e-006
11
269.994286158667
21
1848.79203724306
31
5.45242013559877e-006
  0
LINE
 8
GROUP0
10
271.46493982381
20
1850.82210974765
30
5.29918020372722e-006
11
271.774571408215
21
1850.91830577974
31
5.2599370439721e-006
  0
LINE
 8
GROUP0
10
269.989906223802
20
1847.6294591077
30
5.42850418527308e-006
11
269.989906623292
21
1848.19998463066
31
5.44052718780552e-006
  0
LINE
 8
GROUP0
10
272.553442752446
20
1845.02745405645
30
5.03198097709379e-006
11
272.729625038447
21
1845.06534924902
31
5.00929651318094e-006
  0
LINE
 8
GROUP0
10
274.561115725221
20
1846.84007770461
30
4.80258003411893e-006
11
274.679846303502
21
1846.89265804351
31
4.78786276087995e-006
  0
LINE
 8
GROUP0
10
271.239736270103
20
1846.52148713074
30
5.23856740564654e-006
11
270.986146057876
21
1846.38512839657
31
5.26949443489522e-006
  0
LINE
 8
GROUP0
10
270.01207766541
20
1846.0052500539
30
5.39132101032846e-006
11
269.989905324951
21
1846.34577668104
31
5.40145245195855e-006
  0
LINE
 8
GROUP0
10
271.459500569644
20
1845.34049213287
30
5.18438753555062e-006
11
271.614863251913
21
1845.22300246034
31
5.16120356251482e-006
  0
LINE
 8
GROUP0
10
269.989905324951
20
1846.34577668104
30
5.40145245195855e-006
11
269.989905462276
21
1846.54189482955
31
5.40558538990044e-006
  0
LINE
 8
GROUP0
10
274.537505860248
20
1847.9865938248
30
4.82988829132447e-006
11
273.885621173824
21
1847.69697971085
31
4.91067367240361e-006
  0
LINE
 8
GROUP0
10
274.684498463548
20
1846.6202458756
30
4.78150194789806e-006
11
274.68449836425
21
1846.4784336295
31
4.7785134362488e-006
  0
LINE
 8
GROUP0
10
270.036174051247
20
1849.12392250783
30
5.45383101911434e-006
11
270.122446446149
21
1849.43735219218
31
5.44893704553795e-006
  0
LINE
 8
GROUP0
10
274.684498562847
20
1846.76205812171
30
4.78449045884233e-006
11
274.684498463548
21
1846.6202458756
31
4.78150194789806e-006
  0
LINE
 8
GROUP0
10
270.428286429907
20
1850.00911807265
30
5.42022133812603e-006
11
270.647924862261
21
1850.26759089526
31
5.3963930083889e-006
  0
LINE
 8
GROUP0
10
270.122446446149
20
1849.43735219218
30
5.44893704553795e-006
11
270.253138765119
21
1849.73239460937
31
5.43773487320931e-006
  0
LINE
 8
GROUP0
10
270.253138765119
20
1849.73239460937
30
5.43773487320931e-006
11
270.428286429907
21
1850.00911807265
31
5.42022133812603e-006
  0
LINE
 8
GROUP0
10
273.557566290145
20
1845.77921268351
30
4.91398523377318e-006
11
273.625328859573
21
1845.9538676861
31
4.90863389476792e-006
  0
LINE
 8
GROUP0
10
270.189564124068
20
1845.38024395711
30
5.35449299817747e-006
11
270.078618791222
21
1845.68341593309
31
5.37566963658698e-006
  0
LINE
 8
GROUP0
10
274.364937008658
20
1849.84355545409
30
4.89202259950083e-006
11
274.5117260217
21
1849.55701478478
31
4.86641892461503e-006
  0
LINE
 8
GROUP0
10
271.201166002213
20
1845.63821883477
30
5.2250947528143e-006
11
271.318556376088
21
1845.48246992586
31
5.20616579124944e-006
  0
LINE
 8
GROUP0
10
272.293128504682
20
1844.00551344222
30
5.04514175784787e-006
11
271.95461301505
21
1844.0326594774
31
5.09083401175059e-006
  0
LINE
 8
GROUP0
10
274.684499622538
20
1848.27544138434
30
4.8163827520431e-006
11
274.68449952564
21
1848.13705798383
31
4.81346649921499e-006
  0
LINE
 8
GROUP0
10
272.946140302213
20
1847.27959466429
30
5.02709976104576e-006
11
271.977899812083
21
1846.84943252446
31
5.14708980299261e-006
  0
LINE
 8
GROUP0
10
274.670954548921
20
1848.9138795371
30
4.83164242680023e-006
11
274.684499874898
21
1848.63584650435
31
4.82397782698984e-006
  0
LINE
 8
GROUP0
10
274.565217661991
20
1845.66068206458
30
4.77717920788212e-006
11
274.433619165127
21
1845.35998684128
31
4.78838294952211e-006
  0
LINE
 8
GROUP0
10
269.989906623292
20
1848.19998463066
30
5.44052718780552e-006
11
269.989906885457
21
1848.5743920051
31
5.44841734263501e-006
  0
LINE
 8
GROUP0
10
273.688075925303
20
1846.34238113097
30
4.90845788303496e-006
11
273.68870402728
21
1846.37156566573
31
4.90898912242077e-006
  0
LINE
 8
GROUP0
10
269.989905799345
20
1847.02327573955
30
5.41572978434157e-006
11
269.989906223802
21
1847.6294591077
31
5.42850418527308e-006
  0
LINE
 8
GROUP0
10
273.625328859573
20
1845.9538676861
30
4.90863389476792e-006
11
273.668866649589
21
1846.14154748983
31
4.90678587555804e-006
  0
LINE
 8
GROUP0
10
270.90152814983
20
1850.49669566494
30
5.36741872344537e-006
11
271.173915283855
21
1850.68156292223
31
5.33500855538493e-006
  0
LINE
 8
GROUP0
10
270.344949085627
20
1845.09570376448
30
5.32778567159942e-006
11
270.189564124068
21
1845.38024395711
31
5.35449299817747e-006
  0
LINE
 8
GROUP0
10
271.001709690626
20
1846.1795659653
30
5.26308810342435e-006
11
271.042737599152
21
1845.98664287855
31
5.2535539278753e-006
  0
LINE
 8
GROUP0
10
271.109224723124
20
1845.80623516035
30
5.24089010769946e-006
11
271.201166002213
21
1845.63821883477
31
5.2250947528143e-006
  0
LINE
 8
GROUP0
10
273.250949387148
20
1844.18699830674
30
4.92129993848733e-006
11
272.953365938916
21
1844.08294522388
31
4.95877158401825e-006
  0
LINE
 8
GROUP0
10
271.333292030201
20
1844.22011517496
30
5.17759923538974e-006
11
271.050547257856
21
1844.38036411439
31
5.21866289430184e-006
  0
LINE
 8
GROUP0
10
272.102779675591
20
1850.97012065708
30
5.2172826328023e-006
11
272.443155729332
21
1850.97752439753
31
5.17207049511303e-006
  0
LINE
 8
GROUP0
10
274.5117260217
20
1849.55701478478
30
4.86641892461503e-006
11
274.613731868447
21
1849.24711269196
31
4.84629192637476e-006
  0
LINE
 8
GROUP0
10
274.684499732213
20
1848.43207314536
30
4.81968351999096e-006
11
274.684499622538
21
1848.27544138434
31
4.8163827520431e-006
  0
LINE
 8
GROUP0
10
274.613731868447
20
1849.24711269196
30
4.84629192637476e-006
11
274.670954548921
21
1848.9138795371
31
4.83164242680023e-006
  0
LINE
 8
GROUP0
10
274.68449952564
20
1848.13705798383
30
4.81346649921499e-006
11
274.68449947027
21
1848.05798175497
31
4.8118001598707e-006
  0
LINE
 8
GROUP0
10
271.173915283855
20
1850.68156292223
30
5.33500855538493e-006
11
271.46493982381
21
1850.82210974765
31
5.29918020372722e-006
  0
LINE
 8
GROUP0
10
274.025048149246
20
1844.77324252626
30
4.83047590536523e-006
11
273.780814783451
21
1844.52576083401
31
4.85781405915042e-006
  0
LINE
 8
GROUP0
10
273.780814783451
20
1844.52576083401
30
4.85781405915042e-006
11
273.526766512034
21
1844.33460435349
31
4.88764734324909e-006
  0
LINE
 8
GROUP0
10
270.544809097578
20
1844.82976499373
30
5.29554237082563e-006
11
270.344949085627
21
1845.09570376448
31
5.32778567159942e-006
  0
LINE
 8
GROUP0
10
269.989905462276
20
1846.54189482955
30
5.40558538990044e-006
11
269.989905799345
21
1847.02327573955
31
5.41572978434157e-006
  0
LINE
 8
GROUP0
10
278.42961096857
20
1850.73334845978
30
4.36900003413787e-006
11
278.67594298343
21
1850.84122473066
31
4.33844017933005e-006
  0
LINE
 8
GROUP0
10
273.526766512034
20
1844.33460435349
30
4.88764734324909e-006
11
273.250949387148
21
1844.18699830674
31
4.92129993848733e-006
  0
LINE
 8
GROUP0
10
274.684499874898
20
1848.63584650435
30
4.82397782698984e-006
11
274.684499825917
21
1848.56589445574
31
4.82250367752624e-006
  0
LINE
 8
GROUP0
10
271.977899812083
20
1846.84943252446
30
5.14708980299261e-006
11
271.239736270103
21
1846.52148713074
31
5.23856740564654e-006
  0
LINE
 8
GROUP0
10
274.1733648293
20
1850.10670433844
30
4.92310249208261e-006
11
274.364937008658
21
1849.84355545409
31
4.89202259950083e-006
  0
LINE
 8
GROUP0
10
271.634657403078
20
1844.1042035088
30
5.13498804091128e-006
11
271.333292030201
21
1844.22011517496
31
5.17759923538974e-006
  0
LINE
 8
GROUP0
10
273.079952016193
20
1850.85910339691
30
5.08469740725381e-006
11
273.378397575144
21
1850.73333637867
31
5.04226772485294e-006
  0
LINE
 8
GROUP0
10
281.014327658136
20
1850.42527507771
30
4.01799518521817e-006
11
281.222738103645
21
1850.22583115869
31
3.98601346030536e-006
  0
LINE
 8
GROUP0
10
277.151495211482
20
1844.00523577724
30
4.39757224896531e-006
11
277.151495408575
21
1844.28671179026
31
4.40350390464306e-006
  0
LINE
 8
GROUP0
10
274.68449947027
20
1848.05798175497
30
4.8118001598707e-006
11
274.537505860248
21
1847.9865938248
31
4.82988829132447e-006
  0
LINE
 8
GROUP0
10
271.318556376088
20
1845.48246992586
30
5.20616579124944e-006
11
271.459500569644
21
1845.34049213287
31
5.18438753555062e-006
  0
LINE
 8
GROUP0
10
271.95461301505
20
1844.0326594774
30
5.09083401175059e-006
11
271.634657403078
21
1844.1042035088
31
5.13498804091128e-006
  0
LINE
 8
GROUP0
10
270.647924862261
20
1850.26759089526
30
5.3963930083889e-006
11
270.90152814983
21
1850.49669566494
31
5.36741872344537e-006
  0
LINE
 8
GROUP0
10
274.684499825917
20
1848.56589445574
30
4.82250367752624e-006
11
274.684499732213
21
1848.43207314536
31
4.81968351999096e-006
  0
LINE
 8
GROUP0
10
271.050547257856
20
1844.38036411439
30
5.21866289430184e-006
11
270.78645344748
21
1844.58491996561
31
5.25817427305397e-006
  0
LINE
 8
GROUP0
10
271.614863251913
20
1845.22300246034
30
5.16120356251482e-006
11
271.783473668574
21
1845.13178893333
31
5.13680753052026e-006
  0
LINE
 8
GROUP0
10
269.994286158667
20
1848.79203724306
30
5.45242013559877e-006
11
270.036174051247
21
1849.12392250783
31
5.45383101911434e-006
  0
LINE
 8
GROUP0
10
273.378397575144
20
1850.73333637867
30
5.04226772485294e-006
11
273.663416591811
21
1850.56323883052
31
5.00069349620436e-006
  0
LINE
 8
GROUP0
10
272.768173529431
20
1850.9405095237
30
5.12796936217863e-006
11
273.079952016193
21
1850.85910339691
31
5.08469740725381e-006
  0
LINE
 8
GROUP0
10
273.934915451722
20
1850.34884111397
30
4.95998772487849e-006
11
274.1733648293
21
1850.10670433844
31
4.92310249208261e-006
  0
LINE
 8
GROUP0
10
280.557542035142
20
1850.73334696978
30
4.08537156363353e-006
11
280.792252840118
21
1850.59469112207
31
4.05116535821537e-006
  0
LINE
 8
GROUP0
10
277.151498364972
20
1848.50885198556
30
4.49247941166631e-006
11
277.153209439095
21
1848.73491893743
31
4.49701531294866e-006
  0
LINE
 8
GROUP0
10
277.151495408575
20
1844.28671179026
30
4.40350390464306e-006
11
277.151495912258
21
1845.00603937909
31
4.41866271977398e-006
  0
LINE
 8
GROUP0
10
280.050224177785
20
1850.91830193728
30
4.15688879986664e-006
11
280.310198171575
21
1850.84122358634
31
4.12061304008171e-006
  0
LINE
 8
GROUP0
10
277.322574399402
20
1849.53774334441
30
4.4913593660989e-006
11
277.440607370795
21
1849.77980033376
31
4.48072797120114e-006
  0
LINE
 8
GROUP0
10
271.042737599152
20
1845.98664287855
30
5.2535539278753e-006
11
271.109224723124
21
1845.80623516035
31
5.24089010769946e-006
  0
LINE
 8
GROUP0
10
281.222738103645
20
1850.22583115869
30
3.98601346030536e-006
11
281.404151175044
21
1850.00914740773
31
3.95726697577925e-006
  0
LINE
 8
GROUP0
10
277.589424453913
20
1850.00915007885
30
4.46572566843995e-006
11
277.769022720402
21
1850.22583357703
31
4.4463536379713e-006
  0
LINE
 8
GROUP0
10
281.846451896329
20
1847.16124376489
30
3.8382977010698e-006
11
281.846451241715
21
1846.22636534764
31
3.81859647405891e-006
  0
LINE
 8
GROUP0
10
280.849788091805
20
1844.4851389223
30
3.91474615629161e-006
11
280.849788666136
21
1845.30536242551
31
3.93203113309148e-006
  0
LINE
 8
GROUP0
10
281.404151175044
20
1850.00914740773
30
3.95726697577925e-006
11
281.554464827895
21
1849.77979745318
31
3.93239860292383e-006
  0
LINE
 8
GROUP0
10
278.196171619008
20
1850.59469293988
30
4.3971928802844e-006
11
278.42961096857
21
1850.73334845978
31
4.36900003413787e-006
  0
LINE
 8
GROUP0
10
273.663416591811
20
1850.56323883052
30
5.00069349620436e-006
11
273.934915451722
21
1850.34884111397
31
4.95998772487849e-006
  0
LINE
 8
GROUP0
10
280.792252840118
20
1850.59469112207
30
4.05116535821537e-006
11
281.014327658136
21
1850.42527507771
31
4.01799518521817e-006
  0
LINE
 8
GROUP0
10
280.849789371327
20
1846.31247229655
30
3.95325449975559e-006
11
280.849790076519
21
1847.31958216758
31
3.97447786712468e-006
  0
LINE
 8
GROUP0
10
281.76179387784
20
1849.28293494398
30
3.89429336520863e-006
11
281.818809274877
21
1849.01534039464
31
3.88105468217548e-006
  0
LINE
 8
GROUP0
10
279.777622982141
20
1850.96456298812
30
4.19419826066525e-006
11
280.050224177785
21
1850.91830193728
31
4.15688879986664e-006
  0
LINE
 8
GROUP0
10
272.443155729332
20
1850.97752439753
30
5.17207049511303e-006
11
272.768173529431
21
1850.9405095237
31
5.12796936217863e-006
  0
LINE
 8
GROUP0
10
277.151496591134
20
1845.97556786838
30
4.43909406219189e-006
11
277.151497313809
21
1847.00764658279
31
4.46084361556687e-006
  0
LINE
 8
GROUP0
10
273.885621173824
20
1847.69697971085
30
4.91067367240361e-006
11
272.946140302213
21
1847.27959466429
31
5.02709976104576e-006
  0
LINE
 8
GROUP0
10
278.67594298343
20
1850.84122473066
30
4.33844017933005e-006
11
278.935177912909
21
1850.91830271805
31
4.30551151742731e-006
  0
LINE
 8
GROUP0
10
277.440607370795
20
1849.77980033376
30
4.48072797120114e-006
11
277.589424453913
21
1850.00915007885
31
4.46572566843995e-006
  0
LINE
 8
GROUP0
10
279.207326006328
20
1850.96456338745
30
4.27021220276158e-006
11
279.492397513009
21
1850.97998770437
31
4.23254057084765e-006
  0
LINE
 8
GROUP0
10
270.986146057876
20
1846.38512839657
30
5.26949443489522e-006
11
271.001709690626
21
1846.1795659653
31
5.26308810342435e-006
  0
LINE
 8
GROUP0
10
281.005516230179
20
1844.07341510523
30
3.88531284707394e-006
11
280.877694298383
21
1844.01745138728
31
3.90117072837093e-006
  0
LINE
 8
GROUP0
10
271.774571408215
20
1850.91830577974
30
5.2599370439721e-006
11
272.102779675591
21
1850.97012065708
31
5.2172826328023e-006
  0
LINE
 8
GROUP0
10
277.975614685421
20
1850.42527720545
30
4.4230202927209e-006
11
278.196171619008
21
1850.59469293988
31
4.3971928802844e-006
  0
LINE
 8
GROUP0
10
271.965372301503
20
1845.06675540719
30
5.11119213373878e-006
11
272.160599632575
21
1845.02780573728
31
5.08434979633043e-006
  0
LINE
 8
GROUP0
10
280.310198171575
20
1850.84122358634
30
4.12061304008171e-006
11
280.557542035142
21
1850.73334696978
31
4.08537156363353e-006
  0
LINE
 8
GROUP0
10
280.877694298383
20
1844.01745138728
30
3.90117072837093e-006
11
280.849787779194
21
1844.03868815473
31
3.90533786968628e-006
  0
LINE
 8
GROUP0
10
280.84979096346
20
1848.58625643837
30
4.00117117494436e-006
11
280.843553686496
21
1848.73328936643
31
4.00510107670948e-006
  0
LINE
 8
GROUP0
10
281.846450626774
20
1845.3481462284
30
3.80008931462061e-006
11
281.846450170528
21
1844.69656430122
31
3.78635815193595e-006
  0
LINE
 8
GROUP0
10
280.849787779194
20
1844.03868815473
30
3.90533786968628e-006
11
280.849788091805
21
1844.4851389223
31
3.91474615629161e-006
  0
LINE
 8
GROUP0
10
281.631170948972
20
1844.34734277729
30
3.80769306660422e-006
11
281.422619376041
21
1844.25603355327
31
3.83356626613152e-006
  0
LINE
 8
GROUP0
10
271.783473668574
20
1845.13178893333
30
5.13680753052026e-006
11
271.965372301503
21
1845.06675540719
31
5.11119213373878e-006
  0
LINE
 8
GROUP0
10
280.849790076519
20
1847.31958216758
30
3.97447786712468e-006
11
280.849790650849
21
1848.1398056708
31
3.99176288904401e-006
  0
LINE
 8
GROUP0
10
277.235328468086
20
1849.28293811347
30
4.49761858273834e-006
11
277.322574399402
21
1849.53774334441
31
4.4913593660989e-006
  0
LINE
 8
GROUP0
10
280.849788666136
20
1845.30536242551
30
3.93203113309148e-006
11
280.849789371327
21
1846.31247229655
31
3.95325449975559e-006
  0
LINE
 8
GROUP0
10
278.935177912909
20
1850.91830271805
30
4.30551151742731e-006
11
279.207326006328
21
1850.96456338745
31
4.27021220276158e-006
  0
LINE
 8
GROUP0
10
281.200612862921
20
1844.15883341157
30
3.86110882166224e-006
11
281.005516230179
21
1844.07341510523
31
3.88531284707394e-006
  0
LINE
 8
GROUP0
10
281.846452471596
20
1847.98280358612
30
3.85561092970388e-006
11
281.846451896329
21
1847.16124376489
31
3.8382977010698e-006
  0
LINE
 8
GROUP0
10
281.844725253252
20
1848.73491565237
30
3.87169083471694e-006
11
281.846452848495
21
1848.52106691727
31
3.86695404748227e-006
  0
LINE
 8
GROUP0
10
278.147579306276
20
1844.87612382788
30
4.28315854832939e-006
11
278.147579023227
21
1844.47189137119
31
4.27464000344879e-006
  0
LINE
 8
GROUP0
10
280.451604103302
20
1849.57797928201
30
4.07514412540944e-006
11
280.32879624528
21
1849.68701797203
31
4.09381082092652e-006
  0
LINE
 8
GROUP0
10
272.160599632575
20
1845.02780573728
30
5.08434979633043e-006
11
272.369196143667
21
1845.01484377895
31
5.05627307851864e-006
  0
LINE
 8
GROUP0
10
277.153209439095
20
1848.73491893743
30
4.49701531294866e-006
11
277.1788725052
21
1849.01534364359
31
4.49950430701507e-006
  0
LINE
 8
GROUP0
10
280.649544287568
20
1849.33190010235
30
4.04357516745057e-006
11
280.559002568058
21
1849.45937276754
31
4.0583296832819e-006
  0
LINE
 8
GROUP0
10
277.769022720402
20
1850.22583357703
30
4.4463536379713e-006
11
277.975614685421
21
1850.42527720545
31
4.4230202927209e-006
  0
LINE
 8
GROUP0
10
280.780139485521
20
1849.05034460621
30
4.02023492808712e-006
11
280.7232497605
21
1849.19555835804
31
4.03087785382783e-006
  0
LINE
 8
GROUP0
10
278.371786647727
20
1849.36933808798
30
4.34796270841753e-006
11
278.291065236177
21
1849.2375990538
31
4.35594570993847e-006
  0
LINE
 8
GROUP0
10
281.818809274877
20
1849.01534039464
30
3.88105468217548e-006
11
281.844725253252
21
1848.73491565237
31
3.87169083471694e-006
  0
LINE
 8
GROUP0
10
277.151497313809
20
1847.00764658279
30
4.46084361556687e-006
11
277.151497948887
21
1847.91462484697
31
4.47995692750558e-006
  0
LINE
 8
GROUP0
10
281.554464827895
20
1849.77979745318
30
3.93239860292383e-006
11
281.67367906217
21
1849.53774029771
31
3.91140770231169e-006
  0
LINE
 8
GROUP0
10
280.843553686496
20
1848.73328936643
30
4.00510107670948e-006
11
280.820233961297
21
1848.89625591847
31
4.0116436675508e-006
  0
LINE
 8
GROUP0
10
279.492397513009
20
1850.97998770437
30
4.23254057084765e-006
11
279.777622982141
21
1850.96456298812
31
4.19419826066525e-006
  0
LINE
 8
GROUP0
10
277.1788725052
20
1849.01534364359
30
4.49950430701507e-006
11
277.235328468086
21
1849.28293811347
31
4.49761858273834e-006
  0
LINE
 8
GROUP0
10
279.773267196933
20
1849.94663042831
30
4.17332723612329e-006
11
279.618025013541
21
1849.96731011519
31
4.19445509122762e-006
  0
LINE
 8
GROUP0
10
280.064005451254
20
1849.85216780144
30
4.13258466846478e-006
11
279.921908308354
21
1849.90824380031
31
4.15270624038455e-006
  0
LINE
 8
GROUP0
10
277.151495912258
20
1845.00603937909
30
4.41866271977398e-006
11
277.151496591134
21
1845.97556786838
31
4.43909406219189e-006
  0
LINE
 8
GROUP0
10
277.151497948887
20
1847.91462484697
30
4.47995692750558e-006
11
277.151498364972
21
1848.50885198556
31
4.49247941166631e-006
  0
LINE
 8
GROUP0
10
281.67367906217
20
1849.53774029771
30
3.91140770231169e-006
11
281.76179387784
21
1849.28293494398
31
3.89429336520863e-006
  0
LINE
 8
GROUP0
10
278.291065236177
20
1849.2375990538
30
4.35594570993847e-006
11
278.228286988053
21
1849.09860152589
31
4.36138419084298e-006
  0
LINE
 8
GROUP0
10
279.137971716481
20
1849.92212046607
30
4.25748826795025e-006
11
278.989718390311
21
1849.87112573748
31
4.27617409482495e-006
  0
LINE
 8
GROUP0
10
280.7232497605
20
1849.19555835804
30
4.03087785382783e-006
11
280.649544287568
21
1849.33190010235
31
4.04357516745057e-006
  0
LINE
 8
GROUP0
10
278.147581906375
20
1848.58942197652
30
4.36141090720543e-006
11
278.147581623327
21
1848.18518951984
31
4.35289231720537e-006
  0
LINE
 8
GROUP0
10
279.921908308354
20
1849.90824380031
30
4.15270624038455e-006
11
279.773267196933
21
1849.94663042831
31
4.17332723612329e-006
  0
LINE
 8
GROUP0
10
281.422619376041
20
1844.25603355327
30
3.83356626613152e-006
11
281.200612862921
21
1844.15883341157
31
3.86110882166224e-006
  0
LINE
 8
GROUP0
10
280.849790650849
20
1848.1398056708
30
3.99176288904401e-006
11
280.84979096346
21
1848.58625643837
31
4.00117117494436e-006
  0
LINE
 8
GROUP0
10
281.846450170528
20
1844.69656430122
30
3.78635815193595e-006
11
281.846449991997
21
1844.44159746015
31
3.78098509848379e-006
  0
LINE
 8
GROUP0
10
219.338327091123
20
1863.38881937121
30
1.02946481575161e-005
11
219.287215830556
21
1863.00059080356
31
1.02864667389235e-005
  0
LINE
 8
GROUP0
10
217.088327091123
20
1862.08978126554
30
1.02672725975805e-005
11
216.777666919343
21
1862.32815919943
31
1.02722961063173e-005
  0
LINE
 8
GROUP0
10
281.846451241715
20
1846.22636534764
30
3.81859647405891e-006
11
281.846450626774
21
1845.3481462284
31
3.80008931462061e-006
  0
LINE
 8
GROUP0
10
278.228286988053
20
1849.09860152589
30
4.36138419084298e-006
11
278.183448975013
21
1848.95239821509
31
4.36427953291463e-006
  0
LINE
 8
GROUP0
10
217.088327091124
20
1864.68785747689
30
1.03220237181567e-005
11
217.450098523471
21
1864.83770811065
31
1.03251816273076e-005
  0
LINE
 8
GROUP0
10
225.414071910762
20
1858.12284437274
30
1.01836744959227e-005
11
228.465352409267
21
1856.0204292879
31
1.01393687969797e-005
  0
LINE
 8
GROUP0
10
278.1475819408
20
1848.63858508833
30
4.3624469565462e-006
11
278.147581906375
21
1848.58942197652
31
4.36141090720543e-006
  0
LINE
 8
GROUP0
10
278.147581623327
20
1848.18518951984
30
4.35289231720537e-006
11
278.147581103307
21
1847.44252989011
31
4.33724180989858e-006
  0
LINE
 8
GROUP0
10
216.539288985447
20
1864.13881937121
30
1.03104534450282e-005
11
216.777666919343
21
1864.44947954299
31
1.0317000208715e-005
  0
LINE
 8
GROUP0
10
219.287215830556
20
1863.00059080356
30
1.02864667389235e-005
11
219.1373651968
21
1862.63881937121
31
1.0278842870709e-005
  0
LINE
 8
GROUP0
10
217.838327091122
20
1861.88881937121
30
1.02630375831969e-005
11
217.450098523469
21
1861.93993063178
31
1.02641146877247e-005
  0
LINE
 8
GROUP0
10
216.338327091124
20
1863.38881937121
30
1.02946481575161e-005
11
216.38943835169
21
1863.77704793887
31
1.03028295761087e-005
  0
LINE
 8
GROUP0
10
278.587021606369
20
1849.611325885
30
4.32437393694807e-006
11
278.470454151048
21
1849.49376591754
31
4.33743366984318e-006
  0
LINE
 8
GROUP0
10
278.714203802054
20
1849.71565230905
30
4.30962055897322e-006
11
278.587021606369
21
1849.611325885
31
4.32437393694807e-006
  0
LINE
 8
GROUP0
10
281.846449991997
20
1844.44159746015
30
3.78098509848379e-006
11
281.785902761146
21
1844.4150883306
31
3.78849674542714e-006
  0
LINE
 8
GROUP0
10
279.618025013541
20
1849.96731011519
30
4.19445509122762e-006
11
279.455272766897
21
1849.9702452626
31
4.21620984250581e-006
  0
LINE
 8
GROUP0
10
235.163737528706
20
1843.9751378641
30
9.88552974529044e-006
11
235.734925501727
21
1844.25223556613
31
9.89136922331379e-006
  0
LINE
 8
GROUP0
10
280.559002568058
20
1849.45937276754
30
4.0583296832819e-006
11
280.451604103302
21
1849.57797928201
31
4.07514412540944e-006
  0
LINE
 8
GROUP0
10
278.470454151048
20
1849.49376591754
30
4.33743366984318e-006
11
278.371786647727
21
1849.36933808798
31
4.34796270841753e-006
  0
LINE
 8
GROUP0
10
278.147581103307
20
1847.44252989011
30
4.33724180989858e-006
11
278.147580464802
21
1846.53065667386
31
4.31802543311988e-006
  0
LINE
 8
GROUP0
10
278.147579826296
20
1845.61878345761
30
4.2988090112217e-006
11
278.147579306276
21
1844.87612382788
31
4.28315854832939e-006
  0
LINE
 8
GROUP0
10
281.846452848495
20
1848.52106691727
30
3.86695404748227e-006
11
281.846452471596
21
1847.98280358612
31
3.85561092970388e-006
  0
LINE
 8
GROUP0
10
281.785902761146
20
1844.4150883306
30
3.78849674542714e-006
11
281.631170948972
21
1844.34734277729
31
3.80769306660422e-006
  0
LINE
 8
GROUP0
10
280.820233961297
20
1848.89625591847
30
4.0116436675508e-006
11
280.780139485521
21
1849.05034460621
31
4.02023492808712e-006
  0
LINE
 8
GROUP0
10
230.453549735927
20
1846.06800273513
30
9.92963418534054e-006
11
230.733584754848
21
1845.49825290297
31
9.91762743920988e-006
  0
LINE
 8
GROUP0
10
231.443089836025
20
1850.12888351535
30
1.00152120338926e-005
11
231.005311363125
21
1849.66911331271
31
1.00055229674545e-005
  0
LINE
 8
GROUP0
10
233.288485818291
20
1843.77986732577
30
9.88141466972126e-006
11
233.92177324065
21
1843.73533454989
31
9.8804761982707e-006
  0
LINE
 8
GROUP0
10
232.672461741352
20
1843.93334213351
30
9.88464895413932e-006
11
233.288485818291
21
1843.77986732577
31
9.88141466972126e-006
  0
LINE
 8
GROUP0
10
231.56551682272
20
1844.54542938327
30
9.89754790664543e-006
11
232.092303507709
21
1844.19112220858
31
9.89008133827629e-006
  0
LINE
 8
GROUP0
10
244.914181583309
20
1859.37762037371
30
1.0210117288495e-005
11
244.727331989192
21
1857.73628393267
31
1.01755282303273e-005
  0
LINE
 8
GROUP0
10
217.450098523471
20
1864.83770811065
30
1.03251816273076e-005
11
217.838327091124
21
1864.88881937121
31
1.03262587318353e-005
  0
LINE
 8
GROUP0
10
217.838327091124
20
1864.88881937121
30
1.03262587318353e-005
11
218.226555658779
21
1864.83770811065
31
1.03251816273076e-005
  0
LINE
 8
GROUP0
10
232.092303507709
20
1844.19112220858
30
9.89008133827629e-006
11
232.672461741352
21
1843.93334213351
31
9.88464895413932e-006
  0
LINE
 8
GROUP0
10
234.553210549736
20
1843.80108657931
30
9.88186183815132e-006
11
235.163737528706
21
1843.9751378641
31
9.88552974529044e-006
  0
LINE
 8
GROUP0
10
237.049031608486
20
1845.60420611952
30
9.91986026752101e-006
11
237.309794776821
21
1846.18303302382
31
9.93205830114308e-006
  0
LINE
 8
GROUP0
10
236.249530189418
20
1844.62401405429
30
9.89920397778676e-006
11
236.692017906094
21
1845.07925239657
31
9.90879754112495e-006
  0
LINE
 8
GROUP0
10
230.733584754848
20
1845.49825290297
30
9.91762743920988e-006
11
231.108006828212
21
1844.98556915377
31
9.90682328752546e-006
  0
LINE
 8
GROUP0
10
249.001213901424
20
1844.82491127108
30
9.90343762871659e-006
11
250.297563426875
21
1845.54293635939
31
9.91856908594269e-006
  0
LINE
 8
GROUP0
10
218.226555658777
20
1861.93993063178
30
1.02641146877247e-005
11
217.838327091122
21
1861.88881937121
31
1.02630375831969e-005
  0
LINE
 8
GROUP0
10
219.1373651968
20
1862.63881937121
30
1.0278842870709e-005
11
218.898987262903
21
1862.32815919943
31
1.02722961063173e-005
  0
LINE
 8
GROUP0
10
244.727331989192
20
1857.73628393267
30
1.01755282303273e-005
11
244.369725101375
21
1856.11331525897
31
1.01413262499239e-005
  0
LINE
 8
GROUP0
10
237.309794776821
20
1846.18303302382
30
9.93205830114308e-006
11
243.469290607357
21
1844.02984253024
31
9.88668257578817e-006
  0
LINE
 8
GROUP0
10
240.21024262228
20
1841.84548774813
30
9.84065010350421e-006
11
240.663569801235
21
1842.41227546786
31
9.85259442685682e-006
  0
LINE
 8
GROUP0
10
230.212575309658
20
1847.38882073467
30
9.95746872866077e-006
11
230.207356803799
21
1847.30871781414
31
9.95578066288472e-006
  0
LINE
 8
GROUP0
10
244.749043338679
20
1843.59224716281
30
9.87746081516083e-006
11
245.923859470271
21
1843.79430404757
31
9.88171890462519e-006
  0
LINE
 8
GROUP0
10
243.469290607357
20
1844.02984253024
30
9.88668257578817e-006
11
243.2696617774
21
1843.50561157321
31
9.87563508144107e-006
  0
LINE
 8
GROUP0
10
243.2696617774
20
1843.50561157321
30
9.87563508144107e-006
11
244.749043338679
21
1843.59224716281
31
9.87746081516083e-006
  0
LINE
 8
GROUP0
10
235.734925501727
20
1844.25223556613
30
9.89136922331379e-006
11
236.249530189418
21
1844.62401405429
31
9.89920397778676e-006
  0
LINE
 8
GROUP0
10
236.692017906094
20
1845.07925239657
30
9.90879754112495e-006
11
237.049031608486
21
1845.60420611952
31
9.91986026752101e-006
  0
LINE
 8
GROUP0
10
247.632836215878
20
1844.256042634
30
9.89144945277021e-006
11
249.001213901424
21
1844.82491127108
31
9.90343762871659e-006
  0
LINE
 8
GROUP0
10
245.923859470271
20
1843.79430404757
30
9.88171890462519e-006
11
246.209515445614
21
1843.84343544101
31
9.8827542856339e-006
  0
LINE
 8
GROUP0
10
216.777666919343
20
1864.44947954299
30
1.0317000208715e-005
11
217.088327091124
21
1864.68785747689
31
1.03220237181567e-005
  0
LINE
 8
GROUP0
10
218.226555658779
20
1864.83770811065
30
1.03251816273076e-005
11
218.588327091123
21
1864.68785747689
31
1.03220237181567e-005
  0
LINE
 8
GROUP0
10
218.588327091123
20
1864.68785747689
30
1.03220237181567e-005
11
218.898987262903
21
1864.44947954299
31
1.0317000208715e-005
  0
LINE
 8
GROUP0
10
230.653720252895
20
1849.1405105934
30
9.99438334339242e-006
11
230.398928993129
21
1848.55903056716
31
9.98212939899989e-006
  0
LINE
 8
GROUP0
10
244.724511020565
20
1862.67068067645
30
1.02795143068435e-005
11
244.913235538387
21
1861.0295597658
31
1.02449297902318e-005
  0
LINE
 8
GROUP0
10
236.759778373623
20
1842.82841697787
30
9.86136407494786e-006
11
235.950364463711
21
1842.40528789614
31
9.85244717243705e-006
  0
LINE
 8
GROUP0
10
246.217663638973
20
1861.49068037127
30
1.02546473150666e-005
11
244.724511020565
21
1862.67068067645
31
1.02795143068435e-005
  0
LINE
 8
GROUP0
10
230.276357047939
20
1846.6776276574
30
9.94248124764341e-006
11
230.453549735927
21
1846.06800273513
31
9.92963418534054e-006
  0
LINE
 8
GROUP0
10
231.005311363125
20
1849.66911331271
30
1.00055229674545e-005
11
230.653720252895
21
1849.1405105934
31
9.99438334339242e-006
  0
LINE
 8
GROUP0
10
250.297563426875
20
1845.54293635939
30
9.91856908594269e-006
11
251.505681865597
21
1846.40114793633
31
9.93665479293027e-006
  0
LINE
 8
GROUP0
10
230.248628013515
20
1847.94222650384
30
9.96913104479025e-006
11
230.212575309658
21
1847.38882073467
31
9.95746872866077e-006
  0
LINE
 8
GROUP0
10
241.066459052943
20
1843.01596084689
30
9.8653163214224e-006
11
238.109395378017
21
1844.04966941928
31
9.88710040246699e-006
  0
LINE
 8
GROUP0
10
249.878450267696
20
1857.1349579439
30
1.01628560574107e-005
11
248.807972782039
21
1858.7084862337
31
1.01960161462078e-005
  0
LINE
 8
GROUP0
10
237.253627174281
20
1848.74464419936
30
9.98604096745792e-006
11
236.967740409755
21
1849.31148151015
31
9.9979863363131e-006
  0
LINE
 8
GROUP0
10
229.444051139736
20
1844.2745973215
30
9.89184046861769e-006
11
228.982671134853
21
1845.06283393954
31
9.9084515432224e-006
  0
LINE
 8
GROUP0
10
242.877535694026
20
1852.11160865878
30
1.00569954208651e-005
11
243.312821262264
21
1851.16575637911
31
1.00370627986845e-005
  0
LINE
 8
GROUP0
10
248.807972782039
20
1858.7084862337
30
1.01960161462078e-005
11
247.583508365535
21
1860.16540113543
31
1.02267187568839e-005
  0
LINE
 8
GROUP0
10
240.663569801235
20
1842.41227546786
30
9.85259442685682e-006
11
241.066459052943
21
1843.01596084689
31
9.8653163214224e-006
  0
LINE
 8
GROUP0
10
244.369725101375
20
1856.11331525897
30
1.01413262499239e-005
11
242.851488941097
21
1853.78149238681
31
1.00921860765824e-005
  0
LINE
 8
GROUP0
10
251.51499735632
20
1853.70391861056
30
1.00905513088778e-005
11
250.783895366572
21
1855.46101919268
31
1.01275799475442e-005
  0
LINE
 8
GROUP0
10
232.368237727069
20
1842.19493595217
30
9.84801427536541e-006
11
231.514863365077
21
1842.52042118167
31
9.85487345890879e-006
  0
LINE
 8
GROUP0
10
230.398928993129
20
1848.55903056716
30
9.98212939899989e-006
11
230.248628013515
21
1847.94222650384
31
9.96913104479025e-006
  0
LINE
 8
GROUP0
10
235.595635645771
20
1850.60455337618
30
1.00252361659281e-005
11
235.012854807758
21
1850.85634819125
31
1.00305424178992e-005
  0
LINE
 8
GROUP0
10
228.487114303494
20
1846.81421861504
30
9.94535972702049e-006
11
228.474514358425
21
1847.38882073467
31
9.95746872866077e-006
  0
LINE
 8
GROUP0
10
252.610479228878
20
1847.38882073467
30
9.95746872866077e-006
11
252.596299999142
21
1848.11782655572
31
9.97283159092643e-006
  0
LINE
 8
GROUP0
10
235.012854807758
20
1850.85634819125
30
1.00305424178992e-005
11
234.395283990288
21
1851.00347152804
31
1.00336428533132e-005
  0
LINE
 8
GROUP0
10
252.596299999142
20
1848.11782655572
30
9.97283159092643e-006
11
252.425889842892
21
1850.01331153964
31
1.00127765028657e-005
  0
LINE
 8
GROUP0
10
236.967740409755
20
1849.31148151015
30
9.9979863363131e-006
11
236.588059776211
21
1849.8202840433
31
1.00087086962797e-005
  0
LINE
 8
GROUP0
10
230.207356803799
20
1847.30871781414
30
9.95578066288472e-006
11
230.276357047939
21
1846.6776276574
31
9.94248124764341e-006
  0
LINE
 8
GROUP0
10
247.583508365535
20
1860.16540113543
30
1.02267187568839e-005
11
246.217663638973
21
1861.49068037127
31
1.02546473150666e-005
  0
LINE
 8
GROUP0
10
233.761571214282
20
1851.04148307894
30
1.00344438979272e-005
11
233.130843453789
21
1850.96923271273
31
1.00329213141293e-005
  0
LINE
 8
GROUP0
10
252.06421458044
20
1851.88175979708
30
1.0052151651152e-005
11
251.51499735632
21
1853.70391861056
31
1.00905513088778e-005
  0
LINE
 8
GROUP0
10
251.505681865597
20
1846.40114793633
30
9.93665479293027e-006
11
252.610479228878
21
1847.38882073467
31
9.95746872866077e-006
  0
LINE
 8
GROUP0
10
234.177272134208
20
1841.99411407565
30
9.84378221207671e-006
11
233.264237695121
21
1842.01781383609
31
9.84428165422546e-006
  0
LINE
 8
GROUP0
10
244.913235538387
20
1861.0295597658
30
1.02449297902318e-005
11
244.914181583309
21
1859.37762037371
31
1.0210117288495e-005
  0
LINE
 8
GROUP0
10
242.851488941097
20
1853.78149238681
30
1.00921860765824e-005
11
242.34789931097
21
1853.00804725741
31
1.00758867133177e-005
  0
LINE
 8
GROUP0
10
243.312821262264
20
1851.16575637911
30
1.00370627986845e-005
11
237.253627174281
21
1848.74464419936
31
9.98604096745792e-006
  0
LINE
 8
GROUP0
10
251.095926158809
20
1844.56944671725
30
9.89805404127964e-006
11
249.547085636043
21
1843.70039955233
31
9.87973998821112e-006
  0
LINE
 8
GROUP0
10
241.771382682705
20
1831.63602987384
30
9.62549888685049e-006
11
243.235478275204
21
1831.15084329699
31
9.61527420232366e-006
  0
LINE
 8
GROUP0
10
249.547085636043
20
1843.70039955233
30
9.87973998821112e-006
11
247.903672092343
21
1843.02710548495
31
9.86555118021592e-006
  0
LINE
 8
GROUP0
10
238.796466224574
20
1838.48668161486
30
9.76986757640352e-006
11
237.446030967617
21
1837.86223379229
31
9.75670814006846e-006
  0
LINE
 8
GROUP0
10
233.264237695121
20
1842.01781383609
30
9.84428165422546e-006
11
232.368237727069
21
1842.19493595217
31
9.84801427536541e-006
  0
LINE
 8
GROUP0
10
237.85114609518
20
1834.05467859362
30
9.67646880319917e-006
11
239.060872428798
21
1833.09783903216
31
9.65630463780065e-006
  0
LINE
 8
GROUP0
10
231.95383762636
20
1850.50593963717
30
1.00231580078436e-005
11
231.443089836025
21
1850.12888351535
31
1.00152120338926e-005
  0
LINE
 8
GROUP0
10
235.081252329731
20
1842.12451377963
30
9.84653021865456e-006
11
234.177272134208
21
1841.99411407565
31
9.84378221207671e-006
  0
LINE
 8
GROUP0
10
247.903672092343
20
1843.02710548495
30
9.86555118021592e-006
11
246.190300815486
21
1842.55965248202
31
9.85570020822224e-006
  0
LINE
 8
GROUP0
10
233.130843453789
20
1850.96923271273
30
1.00329213141293e-005
11
232.522141688251
21
1850.78890434359
31
1.00291211258874e-005
  0
LINE
 8
GROUP0
10
250.783895366572
20
1855.46101919268
30
1.01275799475442e-005
11
249.878450267696
21
1857.1349579439
31
1.01628560574107e-005
  0
LINE
 8
GROUP0
10
252.526971691036
20
1845.62122348403
30
9.92021888618355e-006
11
251.095926158809
21
1844.56944671725
31
9.89805404127964e-006
  0
LINE
 8
GROUP0
10
236.018992774868
20
1837.44131532763
30
9.74783782410893e-006
11
235.804379694842
21
1836.35565630053
31
9.72495895382175e-006
  0
LINE
 8
GROUP0
10
237.446030967617
20
1837.86223379229
30
9.75670814006846e-006
11
236.018992774868
21
1837.44131532763
31
9.74783782410893e-006
  0
LINE
 8
GROUP0
10
237.4863713912
20
1843.38181224917
30
9.87302616970997e-006
11
236.759778373623
21
1842.82841697787
31
9.86136407494786e-006
  0
LINE
 8
GROUP0
10
244.432656162166
20
1842.30504718875
30
9.85033472849506e-006
11
242.657070987606
21
1842.26710334872
31
9.84953511078412e-006
  0
LINE
 8
GROUP0
10
236.588059776211
20
1849.8202840433
30
1.00087086962797e-005
11
236.126042716885
21
1850.25568786715
31
1.0017884272906e-005
  0
LINE
 8
GROUP0
10
228.982671134853
20
1845.06283393954
30
9.9084515432224e-006
11
228.660624854945
21
1845.917512928
31
9.9264628059148e-006
  0
LINE
 8
GROUP0
10
228.660624854945
20
1845.917512928
30
9.9264628059148e-006
11
228.487114303494
21
1846.81421861504
31
9.94535972702049e-006
  0
LINE
 8
GROUP0
10
232.522141688251
20
1850.78890434359
30
1.00291211258874e-005
11
231.95383762636
21
1850.50593963717
31
1.00231580078436e-005
  0
LINE
 8
GROUP0
10
228.474514358425
20
1847.38882073467
30
9.95746872866077e-006
11
228.46709191122
21
1847.72733888482
31
9.96460256424969e-006
  0
LINE
 8
GROUP0
10
252.425889842892
20
1850.01331153964
30
1.00127765028657e-005
11
252.06421458044
21
1851.88175979708
31
1.0052151651152e-005
  0
LINE
 8
GROUP0
10
234.395283990288
20
1851.00347152804
30
1.00336428533132e-005
11
233.761571214282
21
1851.04148307894
31
1.00344438979272e-005
  0
LINE
 8
GROUP0
10
248.15677344122
20
1835.25710836505
30
9.70180846647795e-006
11
249.312920444393
21
1836.76880899523
31
9.73366561655142e-006
  0
LINE
 8
GROUP0
10
242.34789931097
20
1853.00804725741
30
1.00758867133177e-005
11
242.877535694026
21
1852.11160865878
31
1.00569954208651e-005
  0
LINE
 8
GROUP0
10
228.46709191122
20
1847.72733888482
30
9.96460256424969e-006
11
228.601130836392
21
1848.63078693007
31
9.98364157218656e-006
  0
LINE
 8
GROUP0
10
231.514863365077
20
1842.52042118167
30
9.85487345890879e-006
11
230.728492133999
21
1842.98497215365
31
9.86466327428936e-006
  0
LINE
 8
GROUP0
10
236.126042716885
20
1850.25568786715
30
1.0017884272906e-005
11
235.595635645771
21
1850.60455337618
31
1.00252361659281e-005
  0
LINE
 8
GROUP0
10
246.853344791317
20
1833.87039247607
30
9.67258520951364e-006
11
248.15677344122
21
1835.25710836505
31
9.70180846647795e-006
  0
LINE
 8
GROUP0
10
252.251642101193
20
1843.73811355685
30
9.88053476262962e-006
11
252.526971691036
21
1845.62122348403
31
9.92021888618355e-006
  0
LINE
 8
GROUP0
10
230.728492133999
20
1842.98497215365
30
9.86466327428936e-006
11
230.031585090542
21
1843.57531944369
31
9.87710408517084e-006
  0
LINE
 8
GROUP0
10
240.373540275478
20
1832.28796831225
30
9.63923765216479e-006
11
241.771382682705
21
1831.63602987384
31
9.62549888685049e-006
  0
LINE
 8
GROUP0
10
246.190300815486
20
1842.55965248202
30
9.85570020822224e-006
11
244.432656162166
21
1842.30504718875
31
9.85033472849506e-006
  0
LINE
 8
GROUP0
10
260.82356853143
20
1850.48123822239
30
1.37741831606142e-005
11
260.823568231354
21
1850.05268982094
31
1.37651520988102e-005
  0
LINE
 8
GROUP0
10
230.031585090542
20
1843.57531944369
30
9.87710408517084e-006
11
229.444051139736
21
1844.2745973215
31
9.89184046861769e-006
  0
LINE
 8
GROUP0
10
255.571878562468
20
1852.02292061611
30
1.45066611383748e-005
11
255.719624709302
21
1852.24584547741
31
1.44916661520167e-005
  0
LINE
 8
GROUP0
10
256.775984108195
20
1844.27772709995
30
1.41829484890665e-005
11
256.543140650172
21
1844.40596118107
31
1.42166862360127e-005
  0
LINE
 8
GROUP0
10
245.416060321713
20
1832.62294641589
30
9.64629688554042e-006
11
246.853344791317
21
1833.87039247607
31
9.67258520951364e-006
  0
LINE
 8
GROUP0
10
236.760728233241
20
1835.14553896044
30
9.69945728487853e-006
11
237.564404838467
21
1834.34153524493
31
9.68251393855812e-006
  0
LINE
 8
GROUP0
10
260.823568231354
20
1850.05268982094
30
1.37651520988102e-005
11
260.823567805951
21
1849.44515516014
31
1.37523492662717e-005
  0
LINE
 8
GROUP0
10
235.950364463711
20
1842.40528789614
30
9.85244717243705e-006
11
235.081252329731
21
1842.12451377963
31
9.84653021865456e-006
  0
LINE
 8
GROUP0
10
238.109395378017
20
1844.04966941928
30
9.88710040246699e-006
11
237.4863713912
21
1843.38181224917
31
9.87302616970997e-006
  0
LINE
 8
GROUP0
10
260.387428809731
20
1845.28521793927
30
1.37228164340919e-005
11
260.227040677371
21
1845.06757202379
31
1.37396077884488e-005
  0
LINE
 8
GROUP0
10
260.823566389128
20
1847.42173732579
30
1.37097086038485e-005
11
260.823566073769
21
1846.97136133174
31
1.37002175984613e-005
  0
LINE
 8
GROUP0
10
243.235478275204
20
1831.15084329699
30
9.61527420232366e-006
11
243.859726779843
21
1831.52762380694
31
9.62321436784874e-006
  0
LINE
 8
GROUP0
10
260.718204699644
20
1845.99894618949
30
1.36937687207461e-005
11
260.633008779985
21
1845.75084216427
31
1.36998959587242e-005
  0
LINE
 8
GROUP0
10
260.522750830308
20
1845.51295370015
30
1.37095788057262e-005
11
260.387428809731
21
1845.28521793927
31
1.37228164340919e-005
  0
LINE
 8
GROUP0
10
239.060872428798
20
1833.09783903216
30
9.65630463780065e-006
11
240.373540275478
21
1832.28796831225
31
9.63923765216479e-006
  0
LINE
 8
GROUP0
10
260.823566823702
20
1848.04236854215
30
1.37227875195656e-005
11
260.823566389128
21
1847.42173732579
31
1.37097086038485e-005
  0
LINE
 8
GROUP0
10
257.815382185822
20
1844.01129633136
30
1.4038794218485e-005
11
257.539293927136
21
1844.04091023077
31
1.40762176383591e-005
  0
LINE
 8
GROUP0
10
260.82356593876
20
1846.77855093041
30
1.36961544568048e-005
11
260.813418612447
21
1846.52605235461
31
1.36921858749695e-005
  0
LINE
 8
GROUP0
10
257.539293927136
20
1844.04091023077
30
1.40762176383591e-005
11
257.274043195453
21
1844.09519264512
31
1.41127164151933e-005
  0
LINE
 8
GROUP0
10
260.227040677371
20
1845.06757202379
30
1.37396077884488e-005
11
260.041584392345
21
1844.85995309585
31
1.37599515906472e-005
  0
LINE
 8
GROUP0
10
259.835811338561
20
1844.6667698559
30
1.37833076761074e-005
11
259.619337360214
21
1844.49800413935
31
1.3808604691623e-005
  0
LINE
 8
GROUP0
10
249.312920444393
20
1836.76880899523
30
9.73366561655142e-006
11
250.309865825557
21
1838.38992086505
31
9.76782846780488e-006
  0
LINE
 8
GROUP0
10
260.823567316355
20
1848.74594461041
30
1.37376143463874e-005
11
260.823566823702
21
1848.04236854215
31
1.37227875195656e-005
  0
LINE
 8
GROUP0
10
237.564404838467
20
1834.34153524493
30
9.68251393855812e-006
11
237.85114609518
21
1834.05467859362
31
9.67646880319917e-006
  0
LINE
 8
GROUP0
10
260.041584392345
20
1844.85995309585
30
1.37599515906472e-005
11
259.835811338561
21
1844.6667698559
31
1.37833076761074e-005
  0
LINE
 8
GROUP0
10
255.234863767834
20
1846.36339157084
30
1.44323144069924e-005
11
255.209809449148
21
1846.63643474578
31
1.44414078683097e-005
  0
LINE
 8
GROUP0
10
260.778340630171
20
1846.25732863365
30
1.36911984164712e-005
11
260.718204699644
21
1845.99894618949
31
1.36937687207461e-005
  0
LINE
 8
GROUP0
10
258.907253926155
20
1844.14049809593
30
1.38959831120389e-005
11
258.648966158925
21
1844.07095638255
31
1.39289444376134e-005
  0
LINE
 8
GROUP0
10
255.206679534679
20
1849.70406344489
30
1.4506471153003e-005
11
255.206679917288
21
1850.2504808464
31
1.45179861082589e-005
  0
LINE
 8
GROUP0
10
260.823566073769
20
1846.97136133174
30
1.37002175984613e-005
11
260.82356593876
21
1846.77855093041
31
1.36961544568048e-005
  0
LINE
 8
GROUP0
10
255.209809449148
20
1846.63643474578
30
1.44414078683097e-005
11
255.206677514649
21
1846.81918328912
31
1.44456765044487e-005
  0
LINE
 8
GROUP0
10
255.351477745663
20
1851.54660135515
30
1.45260001977954e-005
11
255.449161139195
21
1851.78984141892
31
1.45181060914878e-005
  0
LINE
 8
GROUP0
10
255.449161139195
20
1851.78984141892
30
1.45181060914878e-005
11
255.571878562468
21
1852.02292061611
31
1.45066611383748e-005
  0
LINE
 8
GROUP0
10
260.510351055313
20
1851.93090432881
30
1.3846481105273e-005
11
260.62311498833
21
1851.69376141079
31
1.38264536074351e-005
  0
LINE
 8
GROUP0
10
255.231234272527
20
1851.0296125051
30
1.45311324317499e-005
11
255.278833688048
21
1851.2931938941
31
1.45303425979126e-005
  0
LINE
 8
GROUP0
10
259.597122115557
20
1852.93838428708
30
1.39894351544101e-005
11
259.814638897706
21
1852.77229761245
31
1.3956942677168e-005
  0
LINE
 8
GROUP0
10
255.206678099516
20
1847.65445249942
30
1.44632785949395e-005
11
255.206678564658
21
1848.31873890099
31
1.44772774429425e-005
  0
LINE
 8
GROUP0
10
258.648966158925
20
1844.07095638255
30
1.39289444376134e-005
11
258.38019535232
21
1844.0262431192
31
1.39638261145381e-005
  0
LINE
 8
GROUP0
10
259.619337360214
20
1844.49800413935
30
1.3808604691623e-005
11
259.392427689938
21
1844.35403095404
31
1.38358150755469e-005
  0
LINE
 8
GROUP0
10
260.813418612447
20
1846.52605235461
30
1.36921858749695e-005
11
260.778340630171
21
1846.25732863365
31
1.36911984164712e-005
  0
LINE
 8
GROUP0
10
255.206677729134
20
1847.12549717199
30
1.44521316312096e-005
11
255.206678099516
21
1847.65445249942
31
1.44632785949395e-005
  0
LINE
 8
GROUP0
10
258.881902959373
20
1853.28752626842
30
1.40921232616886e-005
11
259.130765983238
21
1853.19596922698
31
1.4057023338393e-005
  0
LINE
 8
GROUP0
10
258.100929669479
20
1844.00636728561
30
1.40006301830586e-005
11
257.815382185822
21
1844.01129633136
31
1.4038794218485e-005
  0
LINE
 8
GROUP0
10
255.284967518445
20
1846.10054947277
30
1.44200971249842e-005
11
255.234863767834
21
1846.36339157084
31
1.44323144069924e-005
  0
LINE
 8
GROUP0
10
257.274043195453
20
1844.09519264512
30
1.41127164151933e-005
11
257.019612439547
21
1844.17413459474
31
1.41482926611425e-005
  0
LINE
 8
GROUP0
10
260.633008779985
20
1845.75084216427
30
1.36998959587242e-005
11
260.522750830308
21
1845.51295370015
31
1.37095788057262e-005
  0
LINE
 8
GROUP0
10
259.155070490873
20
1844.23485927966
30
1.38649405959979e-005
11
258.907253926155
21
1844.14049809593
31
1.38959831120389e-005
  0
LINE
 8
GROUP0
10
259.392427689938
20
1844.35403095404
30
1.38358150755469e-005
11
259.155070490873
21
1844.23485927966
31
1.38649405959979e-005
  0
LINE
 8
GROUP0
10
256.755117735362
20
1853.12912801242
30
1.43722609309338e-005
11
256.9977717171
21
1853.2355694813
31
1.43421611085381e-005
  0
LINE
 8
GROUP0
10
259.130765983238
20
1853.19596922698
30
1.4057023338393e-005
11
259.369168423017
21
1853.07959836256
31
1.40227946416271e-005
  0
LINE
 8
GROUP0
10
257.019612439547
20
1844.17413459474
30
1.41482926611425e-005
11
256.775984108195
21
1844.27772709995
31
1.41829484890665e-005
  0
LINE
 8
GROUP0
10
255.20868480528
20
1850.75585065745
30
1.45283688406272e-005
11
255.231234272527
21
1851.0296125051
31
1.45311324317499e-005
  0
LINE
 8
GROUP0
10
260.823567805951
20
1849.44515516014
30
1.37523492662717e-005
11
260.823567316355
21
1848.74594461041
31
1.37376143463874e-005
  0
LINE
 8
GROUP0
10
255.206679917288
20
1850.2504808464
30
1.45179861082589e-005
11
255.206680150114
21
1850.58298784039
31
1.45249932660185e-005
  0
LINE
 8
GROUP0
10
258.38019535232
20
1844.0262431192
30
1.39638261145381e-005
11
258.100929669479
21
1844.00636728561
31
1.40006301830586e-005
  0
LINE
 8
GROUP0
10
260.021665357694
20
1852.58141772706
30
1.39253259221872e-005
11
260.20962828083
21
1852.37472595626
31
1.38959169443453e-005
  0
LINE
 8
GROUP0
10
255.460302090542
20
1845.60521707582
30
1.43862886885282e-005
11
255.360115394757
21
1845.84784559371
31
1.4404755420222e-005
  0
LINE
 8
GROUP0
10
255.278833688048
20
1851.2931938941
30
1.45303425979126e-005
11
255.351477745663
21
1851.54660135515
31
1.45260001977954e-005
  0
LINE
 8
GROUP0
10
255.206680150114
20
1850.58298784039
30
1.45249932660185e-005
11
255.20868480528
21
1850.75585065745
31
1.45283688406272e-005
  0
LINE
 8
GROUP0
10
255.360115394757
20
1845.84784559371
30
1.4404755420222e-005
11
255.284967518445
21
1846.10054947277
31
1.44200971249842e-005
  0
LINE
 8
GROUP0
10
260.82356864504
20
1850.64348999407
30
1.37776024087488e-005
11
260.82356853143
21
1850.48123822239
31
1.37741831606142e-005
  0
LINE
 8
GROUP0
10
255.735770715627
20
1845.14993469217
30
1.43399774660824e-005
11
255.585522299574
21
1845.37260106126
31
1.4364696148067e-005
  0
LINE
 8
GROUP0
10
255.206679063424
20
1849.03104600628
30
1.44922883550613e-005
11
255.206679534679
21
1849.70406344489
31
1.4506471153003e-005
  0
LINE
 8
GROUP0
10
255.206677514649
20
1846.81918328912
30
1.44456765044487e-005
11
255.206677729134
21
1847.12549717199
31
1.44521316312096e-005
  0
LINE
 8
GROUP0
10
257.514389613538
20
1853.37407556005
30
1.42762207860692e-005
11
257.788378834686
21
1853.40619894607
31
1.42403781865308e-005
  0
LINE
 8
GROUP0
10
260.62311498833
20
1851.69376141079
30
1.38264536074351e-005
11
260.710816672976
21
1851.44645504899
31
1.38095523477044e-005
  0
LINE
 8
GROUP0
10
259.369168423017
20
1853.07959836256
30
1.40227946416271e-005
11
259.597122115557
21
1852.93838428708
31
1.39894351544101e-005
  0
LINE
 8
GROUP0
10
255.585522299574
20
1845.37260106126
30
1.4364696148067e-005
11
255.460302090542
21
1845.60521707582
31
1.43862886885282e-005
  0
LINE
 8
GROUP0
10
259.814638897706
20
1852.77229761245
30
1.3956942677168e-005
11
260.021665357694
21
1852.58141772706
31
1.39253259221872e-005
  0
LINE
 8
GROUP0
10
256.321064514254
20
1844.55882785841
30
1.42495077878335e-005
11
256.109738149218
21
1844.73631815229
31
1.42814154815762e-005
  0
LINE
 8
GROUP0
10
262.828925262937
20
1841.86834313898
30
1.3325387406149e-005
11
262.828925812493
21
1842.65318533505
31
1.334192685713e-005
  0
LINE
 8
GROUP0
10
264.8838681746
20
1850.96303500809
30
1.32431456780546e-005
11
265.117295576464
21
1850.97921872817
31
1.32123735650747e-005
  0
LINE
 8
GROUP0
10
262.828929757919
20
1848.28779430067
30
1.34606680141758e-005
11
262.828930001695
21
1848.63593913881
31
1.34680046293245e-005
  0
LINE
 8
GROUP0
10
256.301056438723
20
1852.84172127525
30
1.44267253765373e-005
11
256.522883526978
21
1852.99785507309
31
1.44004486405114e-005
  0
LINE
 8
GROUP0
10
258.622567514575
20
1853.35429887499
30
1.41280967908608e-005
11
258.881902959373
21
1853.28752626842
31
1.40921232616886e-005
  0
LINE
 8
GROUP0
10
260.710816672976
20
1851.44645504899
30
1.38095523477044e-005
11
260.773458150087
21
1851.18897871273
31
1.37957770074248e-005
  0
LINE
 8
GROUP0
10
257.250858125418
20
1853.31720886782
30
1.43101480770624e-005
11
257.514389613538
21
1853.37407556005
31
1.42762207860692e-005
  0
LINE
 8
GROUP0
10
262.828926591386
20
1843.76555054958
30
1.33653683001556e-005
11
262.828927487494
21
1845.04531641798
31
1.33923375424005e-005
  0
LINE
 8
GROUP0
10
255.206678564658
20
1848.31873890099
30
1.44772774429425e-005
11
255.206679063424
21
1849.03104600628
31
1.44922883550613e-005
  0
LINE
 8
GROUP0
10
256.089623817376
20
1852.66069723081
30
1.44510920540908e-005
11
256.301056438723
21
1852.84172127525
31
1.44267253765373e-005
  0
LINE
 8
GROUP0
10
260.773458150087
20
1851.18897871273
30
1.37957770074248e-005
11
260.811041460497
21
1850.92132587132
31
1.37851270888723e-005
  0
LINE
 8
GROUP0
10
256.109738149218
20
1844.73631815229
30
1.42814154815762e-005
11
255.911042032475
21
1844.93715511071
31
1.43121318149142e-005
  0
LINE
 8
GROUP0
10
262.918390532695
20
1849.29953845613
30
1.34700650512298e-005
11
262.990442493428
21
1849.50975822514
31
1.34648914399071e-005
  0
LINE
 8
GROUP0
10
255.719624709302
20
1852.24584547741
30
1.44916661520167e-005
11
255.892394273522
21
1852.45862253351
31
1.44731219932082e-005
  0
LINE
 8
GROUP0
10
260.811041460497
20
1850.92132587132
30
1.37851270888723e-005
11
260.82356864504
21
1850.64348999407
31
1.37776024087488e-005
  0
LINE
 8
GROUP0
10
255.911042032475
20
1844.93715511071
30
1.43121318149142e-005
11
255.735770715627
21
1845.14993469217
31
1.43399774660824e-005
  0
LINE
 8
GROUP0
10
258.072432014789
20
1853.41360833587
30
1.42026733699563e-005
11
258.352747811996
21
1853.39631643478
31
1.41649461240734e-005
  0
LINE
 8
GROUP0
10
256.9977717171
20
1853.2355694813
30
1.43421611085381e-005
11
257.250858125418
21
1853.31720886782
31
1.43101480770624e-005
  0
LINE
 8
GROUP0
10
262.837668970417
20
1848.85305410402
30
1.34714152448367e-005
11
262.867463021697
21
1849.08064308909
31
1.34722401555321e-005
  0
LINE
 8
GROUP0
10
256.543140650172
20
1844.40596118107
30
1.42166862360127e-005
11
256.321064514254
21
1844.55882785841
31
1.42495077878335e-005
  0
LINE
 8
GROUP0
10
257.788378834686
20
1853.40619894607
30
1.42403781865308e-005
11
258.072432014789
21
1853.41360833587
31
1.42026733699563e-005
  0
LINE
 8
GROUP0
10
262.828925812493
20
1842.65318533505
30
1.334192685713e-005
11
262.828926591386
21
1843.76555054958
31
1.33653683001556e-005
  0
LINE
 8
GROUP0
10
255.892394273522
20
1852.45862253351
30
1.44731219932082e-005
11
256.089623817376
21
1852.66069723081
31
1.44510920540908e-005
  0
LINE
 8
GROUP0
10
258.352747811996
20
1853.39631643478
30
1.41649461240734e-005
11
258.622567514575
21
1853.35429887499
31
1.41280967908608e-005
  0
LINE
 8
GROUP0
10
262.828928388699
20
1846.33236057568
30
1.34194600752036e-005
11
262.828929182881
21
1847.4665606581
31
1.34433617501539e-005
  0
LINE
 8
GROUP0
10
265.117295576464
20
1850.97921872817
30
1.32123735650747e-005
11
265.354742483851
21
1850.97445817733
31
1.31806243301835e-005
  0
LINE
 8
GROUP0
10
263.663074759141
20
1850.42667055695
30
1.33945601462182e-005
11
263.845175878404
21
1850.56830450202
31
1.3373272929873e-005
  0
LINE
 8
GROUP0
10
267.524425820568
20
1847.28073155015
30
1.2813590626104e-005
11
267.524425542629
21
1846.88379707615
31
1.2805225741902e-005
  0
LINE
 8
GROUP0
10
264.035812948583
20
1850.68905669672
30
1.33504078344171e-005
11
264.234993341486
21
1850.78891649285
31
1.33259638235128e-005
  0
LINE
 8
GROUP0
10
260.20962828083
20
1852.37472595626
30
1.38959169443453e-005
11
260.372522833091
21
1852.15789033373
31
1.38696354298862e-005
  0
LINE
 8
GROUP0
10
266.220118265646
20
1850.74611486906
30
1.30604678531099e-005
11
266.41459543653
21
1850.63675693517
31
1.30322417369988e-005
  0
LINE
 8
GROUP0
10
260.372522833091
20
1852.15789033373
30
1.38696354298862e-005
11
260.510351055313
21
1851.93090432881
31
1.3846481105273e-005
  0
LINE
 8
GROUP0
10
267.524425542629
20
1846.88379707615
30
1.2805225741902e-005
11
267.524425319251
21
1846.56478268185
31
1.27985029678923e-005
  0
LINE
 8
GROUP0
10
264.659013582687
20
1850.92591629672
30
1.32723339624996e-005
11
264.8838681746
21
1850.96303500809
31
1.32431456780546e-005
  0
LINE
 8
GROUP0
10
266.41459543653
20
1850.63675693517
30
1.30322417369988e-005
11
266.600276752171
21
1850.50651145496
31
1.30047477821804e-005
  0
LINE
 8
GROUP0
10
266.942751520706
20
1850.18544211745
30
1.295233384489e-005
11
267.088286619596
21
1850.0058358797
31
1.29291507537987e-005
  0
LINE
 8
GROUP0
10
265.354742483851
20
1850.97445817733
30
1.31806243301835e-005
11
265.584157348624
21
1850.94875691074
31
1.31495043912577e-005
  0
LINE
 8
GROUP0
10
256.522883526978
20
1852.99785507309
30
1.44004486405114e-005
11
256.755117735362
21
1853.12912801242
31
1.43722609309338e-005
  0
LINE
 8
GROUP0
10
265.584157348624
20
1850.94875691074
30
1.31495043912577e-005
11
265.804874648986
21
1850.90212550503
31
1.31191027210598e-005
  0
LINE
 8
GROUP0
10
262.990442493428
20
1849.50975822514
30
1.34648914399071e-005
11
263.083609893913
21
1849.71132041612
31
1.34567209648995e-005
  0
LINE
 8
GROUP0
10
263.083609893913
20
1849.71132041612
30
1.34567209648995e-005
11
263.197883724167
21
1849.90424304907
31
1.34455551778934e-005
  0
LINE
 8
GROUP0
10
264.234993341486
20
1850.78891649285
30
1.33259638235128e-005
11
264.442724428918
21
1850.86787324225
31
1.32999395901057e-005
  0
LINE
 8
GROUP0
10
263.197883724167
20
1849.90424304907
30
1.34455551778934e-005
11
263.333254974206
21
1850.08854414398
31
1.34313957236343e-005
  0
LINE
 8
GROUP0
10
262.828925054836
20
1841.57114632594
30
1.33191244100495e-005
11
262.828925262937
21
1841.86834313898
31
1.3325387406149e-005
  0
LINE
 8
GROUP0
10
266.600276752171
20
1850.50651145496
30
1.30047477821804e-005
11
266.777137639864
21
1850.35538907659
31
1.29779895960969e-005
  0
LINE
 8
GROUP0
10
264.442724428918
20
1850.86787324225
30
1.32999395901057e-005
11
264.659013582687
21
1850.92591629672
31
1.32723339624996e-005
  0
LINE
 8
GROUP0
10
262.828929182881
20
1847.4665606581
30
1.34433617501539e-005
11
262.828929757919
21
1848.28779430067
31
1.34606680141758e-005
  0
LINE
 8
GROUP0
10
267.399445339658
20
1849.41527500924
30
1.28752315853742e-005
11
267.461322084418
21
1849.20111393341
31
1.28624709839487e-005
  0
LINE
 8
GROUP0
10
262.828927487494
20
1845.04531641798
30
1.33923375424005e-005
11
262.828928388699
21
1846.33236057568
31
1.34194600752036e-005
  0
LINE
 8
GROUP0
10
267.21291941633
20
1849.8176179624
30
1.29085721731759e-005
11
267.316641719989
21
1849.62077034558
31
1.28905989433714e-005
  0
LINE
 8
GROUP0
10
266.016869812229
20
1850.83457460841
30
1.30894226119005e-005
11
266.220118265646
21
1850.74611486906
31
1.30604678531099e-005
  0
LINE
 8
GROUP0
10
267.088286619596
20
1850.0058358797
30
1.29291507537987e-005
11
267.21291941633
21
1849.8176179624
31
1.29085721731759e-005
  0
LINE
 8
GROUP0
10
263.845175878404
20
1850.56830450202
30
1.3373272929873e-005
11
264.035812948583
21
1850.68905669672
31
1.33504078344171e-005
  0
LINE
 8
GROUP0
10
262.867463021697
20
1849.08064308909
30
1.34722401555321e-005
11
262.918390532695
21
1849.29953845613
31
1.34700650512298e-005
  0
LINE
 8
GROUP0
10
267.52226218554
20
1848.74672248331
30
1.28447727262559e-005
11
267.524426750454
21
1848.60873584713
31
1.2841576295658e-005
  0
LINE
 8
GROUP0
10
262.828930001695
20
1848.63593913881
30
1.34680046293245e-005
11
262.837668970417
21
1848.85305410402
31
1.34714152448367e-005
  0
LINE
 8
GROUP0
10
266.777137639864
20
1850.35538907659
30
1.29779895960969e-005
11
266.942751520706
21
1850.18544211745
31
1.295233384489e-005
  0
LINE
 8
GROUP0
10
428.433113737626
20
1929.67127874832
30
1.16914658882472e-005
11
428.433113737626
21
1919.67127874832
31
1.14807287277641e-005
  0
LINE
 8
GROUP0
10
182.433165364983
20
1909.67127874832
30
1.12699916116954e-005
11
172.433165147629
21
1899.67127874832
31
1.10592544505073e-005
  0
LINE
 8
GROUP0
10
263.333254974206
20
1850.08854414398
30
1.34313957236343e-005
11
263.489714634049
21
1850.26424172085
31
1.34142440628648e-005
  0
LINE
 8
GROUP0
10
428.433113737626
20
1929.67127874832
30
1.16914658882472e-005
11
418.433113737627
21
1929.67127874832
31
1.16914658882472e-005
  0
LINE
 8
GROUP0
10
267.316641719989
20
1849.62077034558
30
1.28905989433714e-005
11
267.399445339658
21
1849.41527500924
31
1.28752315853742e-005
  0
LINE
 8
GROUP0
10
428.433113737626
20
1919.67127874832
30
1.14807287277641e-005
11
438.433113737627
21
1909.67127874832
31
1.12699915665759e-005
  0
LINE
 8
GROUP0
10
265.804874648986
20
1850.90212550503
30
1.31191027210598e-005
11
266.016869812229
21
1850.83457460841
31
1.30894226119005e-005
  0
LINE
 8
GROUP0
10
182.433165364983
20
1929.67127874832
30
1.16914659333667e-005
11
182.433165364983
21
1909.67127874832
31
1.12699916116954e-005
  0
LINE
 8
GROUP0
10
251.137365196799
20
1862.63881937121
30
1.0278842870709e-005
11
250.898987262903
21
1862.32815919943
31
1.02722961063173e-005
  0
LINE
 8
GROUP0
10
220.137448184872
20
1834.61224237536
30
9.68821874414716e-006
11
221.503293865108
21
1833.28695932482
31
9.66029010489033e-006
  0
LINE
 8
GROUP0
10
236.189849250698
20
1828.78407541369
30
9.56539760813002e-006
11
238.063805930996
21
1829.11603799914
31
9.57239329356096e-006
  0
LINE
 8
GROUP0
10
248.389438351689
20
1863.00059080356
30
1.02864667389235e-005
11
248.338327091123
21
1863.38881937121
31
1.02946481575161e-005
  0
LINE
 8
GROUP0
10
251.287215830557
20
1863.77704793886
30
1.03028295761087e-005
11
251.338327091123
21
1863.38881937121
31
1.02946481575161e-005
  0
LINE
 8
GROUP0
10
249.088327091123
20
1864.68785747689
30
1.03220237181567e-005
11
249.45009852347
21
1864.83770811064
31
1.03251816273076e-005
  0
LINE
 8
GROUP0
10
237.667479865932
20
1832.57758775805
30
9.64534100996173e-006
11
236.517501228237
21
1833.59018579577
31
9.66668021379902e-006
  0
LINE
 8
GROUP0
10
249.838327091123
20
1861.88881937121
30
1.02630375831969e-005
11
249.45009852347
21
1861.93993063178
31
1.02641146877247e-005
  0
LINE
 8
GROUP0
10
232.38949894228
20
1828.69661012744
30
9.56355438920808e-006
11
234.291896157646
21
1828.6437841997
31
9.56244115103977e-006
  0
LINE
 8
GROUP0
10
224.116959445857
20
1836.06572691058
30
9.71884906427745e-006
11
224.034752719783
21
1834.41634050463
31
9.68409036327111e-006
  0
LINE
 8
GROUP0
10
225.12390410223
20
1830.79861894702
30
9.60785152673282e-006
11
226.850648277188
21
1829.99845567797
31
9.59098911274547e-006
  0
LINE
 8
GROUP0
10
215.295064800167
20
1844.76433006381
30
9.9021609579808e-006
11
215.656741969968
21
1842.89588085269
31
9.86278578924971e-006
  0
LINE
 8
GROUP0
10
224.403575771236
20
1837.69209829425
30
9.75312275290352e-006
11
224.116959445857
21
1836.06572691058
31
9.71884906427745e-006
  0
LINE
 8
GROUP0
10
215.656741969968
20
1842.89588085269
30
9.86278578924971e-006
11
216.205961101437
21
1841.07372108554
31
9.82438611178415e-006
  0
LINE
 8
GROUP0
10
224.158231609249
20
1832.76952901934
30
9.64938592617481e-006
11
224.485477321529
21
1831.15084329699
31
9.61527420232366e-006
  0
LINE
 8
GROUP0
10
235.300400965595
20
1833.80619493579
30
9.67123232918365e-006
11
231.711667411709
21
1833.90017000292
31
9.67321273313004e-006
  0
LINE
 8
GROUP0
10
216.937059276485
20
1839.31662050341
30
9.78735747311776e-006
11
217.842510097409
21
1837.64268270587
31
9.75208138299099e-006
  0
LINE
 8
GROUP0
10
225.414071910763
20
1836.65479341601
30
9.73126288455473e-006
11
224.403575771236
21
1837.69209829425
31
9.75312275290352e-006
  0
LINE
 8
GROUP0
10
224.034752719783
20
1834.41634050463
30
9.68409036327111e-006
11
224.040362232112
21
1834.34153524493
31
9.68251393855812e-006
  0
LINE
 8
GROUP0
10
221.511440151119
20
1850.93420425509
30
1.00321831343231e-005
11
220.088122241878
21
1850.5215970621
31
1.00234879678918e-005
  0
LINE
 8
GROUP0
10
235.480729334736
20
1834.7184187517
30
9.6904562747524e-006
11
235.300400965595
21
1833.80619493579
31
9.67123232918365e-006
  0
LINE
 8
GROUP0
10
224.485477321529
20
1831.15084329699
30
9.61527420232366e-006
11
225.12390410223
21
1830.79861894702
31
9.60785152673282e-006
  0
LINE
 8
GROUP0
10
240.254628532313
20
1830.94305864428
30
9.61089540771898e-006
11
238.917834632778
21
1831.6919180498
31
9.62667665854178e-006
  0
LINE
 8
GROUP0
10
216.205961101437
20
1841.07372108554
30
9.82438611178415e-006
11
216.937059276485
21
1839.31662050341
31
9.78735747311776e-006
  0
LINE
 8
GROUP0
10
231.184310310268
20
1837.56791559313
30
9.75050576196845e-006
11
229.781256072902
21
1838.06294313525
31
9.76093783176535e-006
  0
LINE
 8
GROUP0
10
228.465352409267
20
1838.75721136187
30
9.77556864342199e-006
11
225.414071910763
21
1836.65479341601
31
9.73126288455473e-006
  0
LINE
 8
GROUP0
10
228.649609916591
20
1829.37745348071
30
9.57790228913735e-006
11
230.502255790614
21
1828.94200960253
31
9.56872586863611e-006
  0
LINE
 8
GROUP0
10
230.502255790614
20
1828.94200960253
30
9.56872586863611e-006
11
232.38949894228
21
1828.69661012744
31
9.56355438920808e-006
  0
LINE
 8
GROUP0
10
241.662942283535
20
1830.33935991381
30
9.59817323186174e-006
11
240.254628532313
21
1830.94305864428
31
9.61089540771898e-006
  0
LINE
 8
GROUP0
10
226.850648277188
20
1829.99845567797
30
9.59098911274547e-006
11
228.649609916591
21
1829.37745348071
31
9.57790228913735e-006
  0
LINE
 8
GROUP0
10
224.040362232112
20
1834.34153524493
30
9.68251393855812e-006
11
224.158231609249
21
1832.76952901934
31
9.64938592617481e-006
  0
LINE
 8
GROUP0
10
229.781256072902
20
1838.06294313525
30
9.76093783176535e-006
11
228.465352409267
21
1838.75721136187
31
9.77556864342199e-006
  0
LINE
 8
GROUP0
10
238.917834632778
20
1831.6919180498
30
9.62667665854178e-006
11
237.667479865932
21
1832.57758775805
31
9.64534100996173e-006
  0
LINE
 8
GROUP0
10
218.408038967037
20
1858.00883070086
30
1.01812718041105e-005
11
217.411092632199
21
1856.38771787738
31
1.01471089324123e-005
  0
LINE
 8
GROUP0
10
251.137365196799
20
1864.13881937121
30
1.03104534450282e-005
11
251.287215830557
21
1863.77704793886
31
1.03028295761087e-005
  0
LINE
 8
GROUP0
10
250.226555658777
20
1861.93993063178
30
1.02641146877247e-005
11
249.838327091123
21
1861.88881937121
31
1.02630375831969e-005
  0
LINE
 8
GROUP0
10
250.898987262904
20
1864.44947954299
30
1.0317000208715e-005
11
251.137365196799
21
1864.13881937121
31
1.03104534450282e-005
  0
LINE
 8
GROUP0
10
231.711667411709
20
1833.90017000292
30
9.67321273313004e-006
11
231.184310310268
21
1837.56791559313
31
9.75050576196845e-006
  0
LINE
 8
GROUP0
10
239.894456260585
20
1829.63625207995
30
9.58335613744921e-006
11
241.662942283535
21
1830.33935991381
31
9.59817323186174e-006
  0
LINE
 8
GROUP0
10
251.338327091123
20
1863.38881937121
30
1.02946481575161e-005
11
251.287215830557
21
1863.00059080356
31
1.02864667389235e-005
  0
LINE
 8
GROUP0
10
225.479659908199
20
1846.48886499261
30
9.93850331691415e-006
11
225.686396472836
21
1845.33152977084
31
9.91411396330522e-006
  0
LINE
 8
GROUP0
10
218.173869007015
20
1851.07724205111
30
1.00351974726354e-005
11
219.817286365414
21
1851.75053611849
31
1.00493862806306e-005
  0
LINE
 8
GROUP0
10
238.063805930996
20
1829.11603799914
30
9.57239329356096e-006
11
239.894456260585
21
1829.63625207995
31
9.58335613744921e-006
  0
LINE
 8
GROUP0
10
236.517501228237
20
1833.59018579577
30
9.66668021379902e-006
11
235.480729334736
21
1834.7184187517
31
9.6904562747524e-006
  0
LINE
 8
GROUP0
10
249.45009852347
20
1864.83770811064
30
1.03251816273076e-005
11
249.838327091124
21
1864.88881937121
31
1.03262587318353e-005
  0
LINE
 8
GROUP0
10
216.583612316037
20
1854.67389694308
30
1.01109923569154e-005
11
215.934121959591
21
1852.88502517794
31
1.00732941806569e-005
  0
LINE
 8
GROUP0
10
250.588327091123
20
1862.08978126553
30
1.02672725975805e-005
11
250.226555658777
21
1861.93993063178
31
1.02641146877247e-005
  0
LINE
 8
GROUP0
10
222.070200794125
20
1847.70708474969
30
9.96417573412289e-006
11
222.070200794124
21
1847.0705548272
31
9.95076168371911e-006
  0
LINE
 8
GROUP0
10
226.569811218167
20
1843.15866581057
30
9.86832364506807e-006
11
227.229301803493
21
1842.18540588473
31
9.84781344158247e-006
 0
ENDSEC
 0
EOF
