 0
SECTION
 2
ENTITIES
  0
POLYLINE
 8
Layer0
 66
     1
70
    8
 10
0.0
 20
 0.0
 30
0.0
  0
VERTEX
  8
MY3DLAYER
10
1919.51109427411
20
-169.571526775376
30
0.000235391146841835
 70
     32
  0
VERTEX
  8
MY3DLAYER
10
1659.51110728987
20
-169.571491957666
30
2.83752744707044e-005
 70
     32
  0
VERTEX
  8
MY3DLAYER
10
1659.51110321655
20
-201.57172807116
30
3.39017532809294e-005
 70
     32
  0
VERTEX
  8
MY3DLAYER
10
1649.51132023185
20
-211.571489895317
30
2.50928363726643e-005
 70
     32
  0
VERTEX
  8
MY3DLAYER
10
1617.51110197104
20
-211.571485796046
30
2.20506749400329e-005
 70
     32
  0
VERTEX
  8
MY3DLAYER
10
1617.51106904496
20
-471.571472702868
30
7.61578538970298e-006
 70
     32
  0
VERTEX
  8
MY3DLAYER
10
1649.51106904496
20
-471.57147680211
30
7.90440701905482e-006
 70
     32
  0
VERTEX
  8
MY3DLAYER
10
1659.99216672334
20
-481.559898630131
30
9.49683640669718e-006
 70
     32
  0
VERTEX
  8
MY3DLAYER
10
1659.51106372613
20
-513.571412865599
30
9.27680971756217e-006
 70
     32
  0
VERTEX
  8
MY3DLAYER
10
1919.51105071038
20
-513.571447683139
30
0.0
 70
     32
  0
VERTEX
  8
MY3DLAYER
10
1919.51109427411
20
-169.571526775376
30
0.000235391146841835
 70
     32
  0
SEQEND
  0
POLYLINE
 8
Layer0
 66
     1
70
    8
 10
0.0
 20
 0.0
 30
0.0
  0
VERTEX
  8
MY3DLAYER
10
1671.44291657578
20
-504.089052553644
30
1.38483801976008e-005
 70
     32
  0
VERTEX
  8
MY3DLAYER
10
1671.24311566618
20
-504.571414436682
30
1.35939764476234e-005
 70
     32
  0
VERTEX
  8
MY3DLAYER
10
1670.92527836551
20
-504.985627956493
30
1.33198959190395e-005
 70
     32
  0
VERTEX
  8
MY3DLAYER
10
1670.51106476058
20
-505.30346514622
30
1.30448177088738e-005
 70
     32
  0
VERTEX
  8
MY3DLAYER
10
1670.02870282403
20
-505.503265926635
30
1.27874862471344e-005
 70
     32
  0
VERTEX
  8
MY3DLAYER
10
1669.51106472469
20
-505.571414204738
30
1.25654364012462e-005
 70
     32
  0
VERTEX
  8
MY3DLAYER
10
1668.99342664362
20
-505.503265787997
30
1.23938019612524e-005
 70
     32
  0
VERTEX
  8
MY3DLAYER
10
1668.51106476058
20
-505.303464878393
30
1.22842815017066e-005
 70
     32
  0
VERTEX
  8
MY3DLAYER
10
1668.09685124077
20
-504.985627577729
30
1.22443381428639e-005
 70
     32
  0
VERTEX
  8
MY3DLAYER
10
1667.77901405104
20
-504.571413972792
30
1.22766913250416e-005
 70
     32
  0
VERTEX
  8
MY3DLAYER
10
1667.57921327063
20
-504.089052036241
30
1.23791381355431e-005
 70
     32
  0
VERTEX
  8
MY3DLAYER
10
1667.51106499252
20
-503.571413936911
30
1.25446976909416e-005
 70
     32
  0
VERTEX
  8
MY3DLAYER
10
1667.57921340926
20
-503.053775855831
30
1.27620857938382e-005
 70
     32
  0
VERTEX
  8
MY3DLAYER
10
1667.77901431887
20
-502.571413972793
30
1.30164870171257e-005
 70
     32
  0
VERTEX
  8
MY3DLAYER
10
1668.09685161953
20
-502.157200452983
30
1.32905664628424e-005
 70
     32
  0
VERTEX
  8
MY3DLAYER
10
1668.51106522447
20
-501.839363263256
30
1.35656453949196e-005
 70
     32
  0
VERTEX
  8
MY3DLAYER
10
1668.99342716102
20
-501.639562482842
30
1.3822977939526e-005
 70
     32
  0
VERTEX
  8
MY3DLAYER
10
1669.51106526035
20
-501.571414204738
30
1.40450274244586e-005
 70
     32
  0
VERTEX
  8
MY3DLAYER
10
1670.02870334143
20
-501.639562621479
30
1.42166611425409e-005
 70
     32
  0
VERTEX
  8
MY3DLAYER
10
1670.51106522447
20
-501.839363531082
30
1.43261812411311e-005
 70
     32
  0
VERTEX
  8
MY3DLAYER
10
1670.92527874428
20
-502.157200831747
30
1.4366126765708e-005
 70
     32
  0
VERTEX
  8
MY3DLAYER
10
1671.243115934
20
-502.571414436683
30
1.43337710568403e-005
 70
     32
  0
VERTEX
  8
MY3DLAYER
10
1671.44291671442
20
-503.053776373234
30
1.42313256901616e-005
 70
     32
  0
VERTEX
  8
MY3DLAYER
10
1671.51106499252
20
-503.571414472565
30
1.40657661347632e-005
 70
     32
  0
VERTEX
  8
MY3DLAYER
10
1671.44291657578
20
-504.089052553644
30
1.38483801976008e-005
 70
     32
  0
SEQEND
  0
POLYLINE
 8
Layer0
 66
     1
70
    8
 10
0.0
 20
 0.0
 30
0.0
  0
VERTEX
  8
MY3DLAYER
10
1629.44292203023
20
-461.053836141151
30
1.32240336625955e-005
 70
     32
  0
VERTEX
  8
MY3DLAYER
10
1629.51107031134
20
-461.571474240086
30
1.30584755510199e-005
 70
     32
  0
VERTEX
  8
MY3DLAYER
10
1629.44292189761
20
-462.089112321561
30
1.28410860043005e-005
 70
     32
  0
VERTEX
  8
MY3DLAYER
10
1629.24312099081
20
-462.571474205761
30
1.25866876686587e-005
 70
     32
  0
VERTEX
  8
MY3DLAYER
10
1628.92528369255
20
-462.985687727419
30
1.2312606779119e-005
 70
     32
  0
VERTEX
  8
MY3DLAYER
10
1628.51107008946
20
-463.303524919554
30
1.20375264032191e-005
 70
     32
  0
VERTEX
  8
MY3DLAYER
10
1628.02870815407
20
-463.503325702772
30
1.1780194580524e-005
 70
     32
  0
VERTEX
  8
MY3DLAYER
10
1627.51107005514
20
-463.571473983883
30
1.15581458175029e-005
 70
     32
  0
VERTEX
  8
MY3DLAYER
10
1626.99343197367
20
-463.503325570151
30
1.13865146261105e-005
 70
     32
  0
VERTEX
  8
MY3DLAYER
10
1626.51107008946
20
-463.303524663351
30
1.12769916398747e-005
 70
     32
  0
VERTEX
  8
MY3DLAYER
10
1626.09685656781
20
-462.985687365094
30
1.12370479200763e-005
 70
     32
  0
VERTEX
  8
MY3DLAYER
10
1625.77901937567
20
-462.571473762005
30
1.12694018241655e-005
 70
     32
  0
VERTEX
  8
MY3DLAYER
10
1625.57921859245
20
-462.089111826615
30
1.13718489956227e-005
 70
     32
  0
VERTEX
  8
MY3DLAYER
10
1625.51107031134
20
-461.571473727681
30
1.15374071071983e-005
 70
     32
  0
VERTEX
  8
MY3DLAYER
10
1625.57921872507
20
-461.053835646206
30
1.17547944881835e-005
 70
     32
  0
VERTEX
  8
MY3DLAYER
10
1625.77901963188
20
-460.571473762006
30
1.20091975162495e-005
 70
     32
  0
VERTEX
  8
MY3DLAYER
10
1626.09685693013
20
-460.157260240348
30
1.22832762400549e-005
 70
     32
  0
VERTEX
  8
MY3DLAYER
10
1626.51107053322
20
-459.839423048214
30
1.2558355172132e-005
 70
     32
  0
VERTEX
  8
MY3DLAYER
10
1626.99343246861
20
-459.639622264996
30
1.28156887996056e-005
 70
     32
  0
VERTEX
  8
MY3DLAYER
10
1627.51107056754
20
-459.571473983884
30
1.30377368407153e-005
 70
     32
  0
VERTEX
  8
MY3DLAYER
10
1628.02870864902
20
-459.639622397616
30
1.32093705587977e-005
 70
     32
  0
VERTEX
  8
MY3DLAYER
10
1628.51107053322
20
-459.839423304416
30
1.33188902964321e-005
 70
     32
  0
VERTEX
  8
MY3DLAYER
10
1628.92528405488
20
-460.157260602673
30
1.33588358210091e-005
 70
     32
  0
VERTEX
  8
MY3DLAYER
10
1629.24312124701
20
-460.571474205761
30
1.33264822778756e-005
 70
     32
  0
VERTEX
  8
MY3DLAYER
10
1629.44292203023
20
-461.053836141151
30
1.32240336625955e-005
 70
     32
  0
SEQEND
  0
POLYLINE
 8
Layer0
 66
     1
70
    8
 10
0.0
 20
 0.0
 30
0.0
  0
VERTEX
  8
MY3DLAYER
10
1628.51110048277
20
-223.303538012726
30
1.80587733410675e-005
 70
     32
  0
VERTEX
  8
MY3DLAYER
10
1628.02873854738
20
-223.503338795944
30
1.78014400745496e-005
 70
     32
  0
VERTEX
  8
MY3DLAYER
10
1627.51110044845
20
-223.571487077056
30
1.75793913115285e-005
 70
     32
  0
VERTEX
  8
MY3DLAYER
10
1626.99346236697
20
-223.503338663324
30
1.74077593982247e-005
 70
     32
  0
VERTEX
  8
MY3DLAYER
10
1626.51110048277
20
-223.303537756523
30
1.72982396605903e-005
 70
     32
  0
VERTEX
  8
MY3DLAYER
10
1626.09688696111
20
-222.985700458266
30
1.72582941360133e-005
 70
     32
  0
VERTEX
  8
MY3DLAYER
10
1625.77904976898
20
-222.571486855178
30
1.72906484010582e-005
 70
     32
  0
VERTEX
  8
MY3DLAYER
10
1625.57924898576
20
-222.089124919788
30
1.73930937677369e-005
 70
     32
  0
VERTEX
  8
MY3DLAYER
10
1625.51110070465
20
-221.571486820853
30
1.75586547669582e-005
 70
     32
  0
VERTEX
  8
MY3DLAYER
10
1625.57924911838
20
-221.053848739378
30
1.7776041426032e-005
 70
     32
  0
VERTEX
  8
MY3DLAYER
10
1625.77905002518
20
-220.571486855178
30
1.80304430102751e-005
 70
     32
  0
VERTEX
  8
MY3DLAYER
10
1626.09688732344
20
-220.157273333521
30
1.83045231779033e-005
 70
     32
  0
VERTEX
  8
MY3DLAYER
10
1626.51110092653
20
-219.839436141386
30
1.85796024709361e-005
 70
     32
  0
VERTEX
  8
MY3DLAYER
10
1626.99346286192
20
-219.639635358169
30
1.88369342936312e-005
 70
     32
  0
VERTEX
  8
MY3DLAYER
10
1627.51110096085
20
-219.571487077057
30
1.90589823347409e-005
 70
     32
  0
VERTEX
  8
MY3DLAYER
10
1628.02873904233
20
-219.639635490789
30
1.92306156918676e-005
 70
     32
  0
VERTEX
  8
MY3DLAYER
10
1628.51110092653
20
-219.83943639759
30
1.93401350685463e-005
 70
     32
  0
VERTEX
  8
MY3DLAYER
10
1628.92531444819
20
-220.157273695847
30
1.93800809540789e-005
 70
     32
  0
VERTEX
  8
MY3DLAYER
10
1629.24315164032
20
-220.571487298935
30
1.93477277719012e-005
 70
     32
  0
VERTEX
  8
MY3DLAYER
10
1629.44295242354
20
-221.053849234324
30
1.92452806004439e-005
 70
     32
  0
VERTEX
  8
MY3DLAYER
10
1629.51110070465
20
-221.571487333259
30
1.90797228498241e-005
 70
     32
  0
VERTEX
  8
MY3DLAYER
10
1629.44295229092
20
-222.089125414734
30
1.88623351078832e-005
 70
     32
  0
VERTEX
  8
MY3DLAYER
10
1629.24315138412
20
-222.571487298934
30
1.86079328017286e-005
 70
     32
  0
VERTEX
  8
MY3DLAYER
10
1628.92531408586
20
-222.985700820592
30
1.83338537169675e-005
 70
     32
  0
VERTEX
  8
MY3DLAYER
10
1628.51110048277
20
-223.303538012726
30
1.80587733410675e-005
 70
     32
  0
SEQEND
  0
POLYLINE
 8
Layer0
 66
     1
70
    8
 10
0.0
 20
 0.0
 30
0.0
  0
VERTEX
  8
MY3DLAYER
10
1667.51110602348
20
-179.571493043527
30
2.73889940359595e-005
 70
     32
  0
VERTEX
  8
MY3DLAYER
10
1667.57925443645
20
-179.053854961953
30
2.76063821388561e-005
 70
     32
  0
VERTEX
  8
MY3DLAYER
10
1667.77905534255
20
-178.571493077461
30
2.78607848059664e-005
 70
     32
  0
VERTEX
  8
MY3DLAYER
10
1668.0968926402
20
-178.157279555338
30
2.81348646126389e-005
 70
     32
  0
VERTEX
  8
MY3DLAYER
10
1668.51110624282
20
-177.839442362598
30
2.84099446275832e-005
 70
     32
  0
VERTEX
  8
MY3DLAYER
10
1668.99346817792
20
-177.639641578674
30
2.86672768112339e-005
 70
     32
  0
VERTEX
  8
MY3DLAYER
10
1669.51110627676
20
-177.571493296806
30
2.88893248523436e-005
 70
     32
  0
VERTEX
  8
MY3DLAYER
10
1670.02874435833
20
-177.639641709781
30
2.9060958570426e-005
 70
     32
  0
VERTEX
  8
MY3DLAYER
10
1670.51110624282
20
-177.839442615876
30
2.91704790299718e-005
 70
     32
  0
VERTEX
  8
MY3DLAYER
10
1670.92531976495
20
-178.157279913527
30
2.92104220278588e-005
 70
     32
  0
VERTEX
  8
MY3DLAYER
10
1671.24315695769
20
-178.57149351615
30
2.91780695675925e-005
 70
     32
  0
VERTEX
  8
MY3DLAYER
10
1671.44295774161
20
-179.053855451247
30
2.9075622757091e-005
 70
     32
  0
VERTEX
  8
MY3DLAYER
10
1671.51110602348
20
-179.571493550083
30
2.89100635626482e-005
 70
     32
  0
VERTEX
  8
MY3DLAYER
10
1671.4429576105
20
-180.089131631657
30
2.86926769035745e-005
 70
     32
  0
VERTEX
  8
MY3DLAYER
10
1671.24315670441
20
-180.57149351615
30
2.84382735145527e-005
 70
     32
  0
VERTEX
  8
MY3DLAYER
10
1670.92531940676
20
-180.985707038272
30
2.81641937078803e-005
 70
     32
  0
VERTEX
  8
MY3DLAYER
10
1670.51110580414
20
-181.303544231013
30
2.78891151367588e-005
 70
     32
  0
VERTEX
  8
MY3DLAYER
10
1670.02874386904
20
-181.503345014936
30
2.76317836750195e-005
 70
     32
  0
VERTEX
  8
MY3DLAYER
10
1669.5111057702
20
-181.571493296805
30
2.74097349119984e-005
 70
     32
  0
VERTEX
  8
MY3DLAYER
10
1668.99346768863
20
-181.50334488383
30
2.7238101193916e-005
 70
     32
  0
VERTEX
  8
MY3DLAYER
10
1668.51110580413
20
-181.303543977735
30
2.71285800124588e-005
 70
     32
  0
VERTEX
  8
MY3DLAYER
10
1668.09689228201
20
-180.985706680084
30
2.70886373755275e-005
 70
     32
  0
VERTEX
  8
MY3DLAYER
10
1667.77905508927
20
-180.57149307746
30
2.71209894748381e-005
 70
     32
  0
VERTEX
  8
MY3DLAYER
10
1667.57925430535
20
-180.089131142363
30
2.72234359243839e-005
 70
     32
  0
VERTEX
  8
MY3DLAYER
10
1667.51110602348
20
-179.571493043527
30
2.73889940359595e-005
 70
     32
  0
SEQEND
  0
POLYLINE
 8
Layer0
 66
     1
70
    8
 10
0.0
 20
 0.0
 30
0.0
  0
VERTEX
  8
MY3DLAYER
10
1907.57924142447
20
-179.053887087326
30
0.000224408546347377
 70
     32
  0
VERTEX
  8
MY3DLAYER
10
1907.77904233408
20
-178.571525204287
30
0.000224662948653531
 70
     32
  0
VERTEX
  8
MY3DLAYER
10
1908.09687963474
20
-178.157311684477
30
0.000224937027738292
 70
     32
  0
VERTEX
  8
MY3DLAYER
10
1908.51109323968
20
-177.839474494751
30
0.000225212105587502
 70
     32
  0
VERTEX
  8
MY3DLAYER
10
1908.99345517623
20
-177.639673714337
30
0.000225469441019754
 70
     32
  0
VERTEX
  8
MY3DLAYER
10
1909.51109327556
20
-177.571525436234
30
0.000225691489060864
 70
     32
  0
VERTEX
  8
MY3DLAYER
10
1910.02873135664
20
-177.639673852975
30
0.000225863122417991
 70
     32
  0
VERTEX
  8
MY3DLAYER
10
1910.51109323968
20
-177.839474762579
30
0.000225972642877537
 70
     32
  0
VERTEX
  8
MY3DLAYER
10
1910.92530675949
20
-178.157312063244
30
0.000226012587680202
 70
     32
  0
VERTEX
  8
MY3DLAYER
10
1911.24314394921
20
-178.57152566818
30
0.000225980233776113
 70
     32
  0
VERTEX
  8
MY3DLAYER
10
1911.44294472963
20
-179.05388760473
30
0.000225877785882744
 70
     32
  0
VERTEX
  8
MY3DLAYER
10
1911.51109300773
20
-179.571525704061
30
0.000225712227771169
 70
     32
  0
VERTEX
  8
MY3DLAYER
10
1911.44294459099
20
-180.08916378514
30
0.000225494840029228
 70
     32
  0
VERTEX
  8
MY3DLAYER
10
1911.24314368138
20
-180.571525668179
30
0.000225240437001162
 70
     32
  0
VERTEX
  8
MY3DLAYER
10
1910.92530638072
20
-180.985739187989
30
0.000224966357555445
 70
     32
  0
VERTEX
  8
MY3DLAYER
10
1910.51109277578
20
-181.303576377715
30
0.000224691278984324
 70
     32
  0
VERTEX
  8
MY3DLAYER
10
1910.02873083923
20
-181.50337715813
30
0.000224433946439717
 70
     32
  0
VERTEX
  8
MY3DLAYER
10
1909.5110927399
20
-181.571525436232
30
0.000224211896954785
 70
     32
  0
VERTEX
  8
MY3DLAYER
10
1908.99345465882
20
-181.503377019491
30
0.000224040266485304
 70
     32
  0
VERTEX
  8
MY3DLAYER
10
1908.51109277578
20
-181.303576109887
30
0.000223930743860024
 70
     32
  0
VERTEX
  8
MY3DLAYER
10
1908.09687925597
20
-180.985738809222
30
0.000223890800140225
 70
     32
  0
VERTEX
  8
MY3DLAYER
10
1907.77904206625
20
-180.571525204286
30
0.000223923152961447
 70
     32
  0
VERTEX
  8
MY3DLAYER
10
1907.57924128583
20
-180.089163267735
30
0.000224025599771949
 70
     32
  0
VERTEX
  8
MY3DLAYER
10
1907.51109300773
20
-179.571525168405
30
0.000224191158966391
 70
     32
  0
VERTEX
  8
MY3DLAYER
10
1907.57924142447
20
-179.053887087326
30
0.000224408546347377
 70
     32
  0
SEQEND
  0
POLYLINE
 8
Layer0
 66
     1
70
    8
 10
0.0
 20
 0.0
 30
0.0
  0
VERTEX
  8
MY3DLAYER
10
1908.99341413121
20
-501.639594625875
30
8.93899162974776e-006
 70
     32
  0
VERTEX
  8
MY3DLAYER
10
1909.51105223005
20
-501.571446344006
30
9.16104003181317e-006
 70
     32
  0
VERTEX
  8
MY3DLAYER
10
1910.02869031162
20
-501.639594756982
30
9.33267122320558e-006
 70
     32
  0
VERTEX
  8
MY3DLAYER
10
1910.51105219611
20
-501.839395663077
30
9.44219240466282e-006
 70
     32
  0
VERTEX
  8
MY3DLAYER
10
1910.92526571824
20
-502.157232960728
30
9.48213720732838e-006
 70
     32
  0
VERTEX
  8
MY3DLAYER
10
1911.24310291098
20
-502.571446563352
30
9.44978366419491e-006
 70
     32
  0
VERTEX
  8
MY3DLAYER
10
1911.4429036949
20
-503.053808498449
30
9.34733721464909e-006
 70
     32
  0
VERTEX
  8
MY3DLAYER
10
1911.51105197677
20
-503.571446597284
30
9.18177910307349e-006
 70
     32
  0
VERTEX
  8
MY3DLAYER
10
1911.44290356379
20
-504.089084678859
30
8.96439027826545e-006
 70
     32
  0
VERTEX
  8
MY3DLAYER
10
1911.2431026577
20
-504.571446563352
30
8.70998833306658e-006
 70
     32
  0
VERTEX
  8
MY3DLAYER
10
1910.92526536005
20
-504.985660085474
30
8.4359088873498e-006
 70
     32
  0
VERTEX
  8
MY3DLAYER
10
1910.51105175742
20
-505.303497278214
30
8.16082959431697e-006
 70
     32
  0
VERTEX
  8
MY3DLAYER
10
1910.02868982233
20
-505.503298062137
30
7.9034970497105e-006
 70
     32
  0
VERTEX
  8
MY3DLAYER
10
1909.51105172349
20
-505.571446344006
30
7.6814493695565e-006
 70
     32
  0
VERTEX
  8
MY3DLAYER
10
1908.99341364192
20
-505.503297931031
30
7.50981384669558e-006
 70
     32
  0
VERTEX
  8
MY3DLAYER
10
1908.51105175742
20
-505.303497024936
30
7.40029447001689e-006
 70
     32
  0
VERTEX
  8
MY3DLAYER
10
1908.0968382353
20
-504.985659727284
30
7.36035075021846e-006
 70
     32
  0
VERTEX
  8
MY3DLAYER
10
1907.77900104256
20
-504.571446124661
30
7.39270393239622e-006
 70
     32
  0
VERTEX
  8
MY3DLAYER
10
1907.57920025864
20
-504.089084189564
30
7.49514821620778e-006
 70
     32
  0
VERTEX
  8
MY3DLAYER
10
1907.51105197677
20
-503.571446090728
30
7.66070921542905e-006
 70
     32
  0
VERTEX
  8
MY3DLAYER
10
1907.57920038974
20
-503.053808009154
30
7.87809551354712e-006
 70
     32
  0
VERTEX
  8
MY3DLAYER
10
1907.77900129584
20
-502.571446124661
30
8.13249890256884e-006
 70
     32
  0
VERTEX
  8
MY3DLAYER
10
1908.09683859349
20
-502.157232602539
30
8.40657943115275e-006
 70
     32
  0
VERTEX
  8
MY3DLAYER
10
1908.51105219611
20
-501.839395409799
30
8.68165764131845e-006
 70
     32
  0
VERTEX
  8
MY3DLAYER
10
1908.99341413121
20
-501.639594625875
30
8.93899162974776e-006
 70
     32
  0
SEQEND
  0
POLYLINE
 8
Layer0
 66
     1
70
    8
 10
0.0
 20
 0.0
 30
0.0
  0
VERTEX
  8
MY3DLAYER
10
1636.51136104429
20
-223.571488566318
30
0.00108658871910734
 70
     32
  0
VERTEX
  8
MY3DLAYER
10
1664.51136755571
20
-223.57149205383
30
0.0010975154609838
 70
     32
  0
VERTEX
  8
MY3DLAYER
10
1664.51136307178
20
-259.571487278775
30
0.00106861878346365
 70
     32
  0
VERTEX
  8
MY3DLAYER
10
1636.51135656036
20
-259.571483791258
30
0.00105162956701008
 70
     32
  0
VERTEX
  8
MY3DLAYER
10
1636.51136104429
20
-223.571488566318
30
0.00108658871910734
 70
     32
  0
SEQEND
  0
LINE
 8
COMPONENT0
10
1634.40612823163
20
-332.007762553857
30
1.51501380292645e-005
11
1634.33832803949
21
-332.41889745504
31
1.50319540081662e-005
  0
LINE
 8
COMPONENT0
10
1634.33832803949
20
-332.41889745504
30
1.50319540081662e-005
11
1634.13492758014
21
-332.712565222297
31
1.48916361214015e-005
  0
LINE
 8
COMPONENT0
10
1634.13492758014
20
-332.712565222297
30
1.48916361214015e-005
11
1633.79592685355
21
-332.888765855628
31
1.47291843689704e-005
  0
LINE
 8
COMPONENT0
10
1633.79592685355
20
-332.888765855628
30
1.47291843689704e-005
11
1633.32132585975
21
-332.947499355033
31
1.45445987508729e-005
  0
LINE
 8
COMPONENT0
10
1633.32132585975
20
-332.947499355033
30
1.45445987508729e-005
11
1624.9362820158
21
-332.947498310644
31
1.15199825861705e-005
  0
LINE
 8
COMPONENT0
10
1624.9362820158
20
-332.947498310644
30
1.15199825861705e-005
11
1624.52583217637
21
-332.879586271779
31
1.13874089863579e-005
  0
LINE
 8
COMPONENT0
10
1624.52583217637
20
-332.879586271779
30
1.13874089863579e-005
11
1624.23265373897
21
-332.675850272038
31
1.13281011361329e-005
  0
LINE
 8
COMPONENT0
10
1624.23265373897
20
-332.675850272038
30
1.13281011361329e-005
11
1624.05674670359
21
-332.33629031142
31
1.13420590354955e-005
  0
LINE
 8
COMPONENT0
10
1624.05674670359
20
-332.33629031142
30
1.13420590354955e-005
11
1623.99811107025
21
-331.860906389926
31
1.14292826844455e-005
  0
LINE
 8
COMPONENT0
10
1623.99811107025
20
-331.860906389926
30
1.14292826844455e-005
11
1624.06224130776
21
-331.297408165093
31
1.15808775361375e-005
  0
LINE
 8
COMPONENT0
10
1624.06224130776
20
-331.297408165093
30
1.15808775361375e-005
11
1624.25463185568
21
-330.928495451941
31
1.17343777505943e-005
  0
LINE
 8
COMPONENT0
10
1624.25463185568
20
-330.928495451941
30
1.17343777505943e-005
11
1624.58996261208
21
-330.724780501761
31
1.19017781937057e-005
  0
LINE
 8
COMPONENT0
10
1624.58996261208
20
-330.724780501761
30
1.19017781937057e-005
11
1625.08291347505
21
-330.656875565844
31
1.20950737313615e-005
  0
LINE
 8
COMPONENT0
10
1625.08291347505
20
-330.656875565844
30
1.20950737313615e-005
11
1633.467957319
21
-330.656876610232
31
1.51196898960638e-005
  0
LINE
 8
COMPONENT0
10
1633.467957319
20
-330.656876610232
30
1.51196898960638e-005
11
1633.83261986962
21
-330.71744170576
31
1.5237422205675e-005
  0
LINE
 8
COMPONENT0
10
1633.83261986962
20
-330.71744170576
30
1.5237422205675e-005
11
1634.13495576771
21
-330.899136893739
31
1.53050579930532e-005
  0
LINE
 8
COMPONENT0
10
1634.13495576771
20
-330.899136893739
30
1.53050579930532e-005
11
1634.33833518423
21
-331.179956308835
31
1.53144010373032e-005
  0
LINE
 8
COMPONENT0
10
1634.33833518423
20
-331.179956308835
30
1.53144010373032e-005
11
1634.40612829015
21
-331.537894085711
31
1.52572551175296e-005
  0
LINE
 8
COMPONENT0
10
1634.40612829015
20
-331.537894085711
30
1.52572551175296e-005
11
1634.40612823163
21
-332.007762553857
31
1.51501380292645e-005
  0
LINE
 8
COMPONENT0
10
1634.40612823163
20
-332.007762553857
30
1.51501380292645e-005
11
1634.40612823163
21
-332.007762553857
31
1.51501380292645e-005
  0
LINE
 8
COMPONENT0
10
1628.38384721395
20
-341.097887966966
30
1.09055089300955e-005
11
1627.95691394907
21
-341.039238240382
31
1.07648779489771e-005
  0
LINE
 8
COMPONENT0
10
1627.95691394907
20
-341.039238240382
30
1.07648779489771e-005
11
1627.70219683158
21
-340.863289188435
31
1.07131090394891e-005
  0
LINE
 8
COMPONENT0
10
1627.70219683158
20
-340.863289188435
30
1.07131090394891e-005
11
1627.57574006516
21
-340.555416834638
31
1.07376805225013e-005
  0
LINE
 8
COMPONENT0
10
1627.57574006516
20
-340.555416834638
30
1.07376805225013e-005
11
1627.53358785351
21
-340.100997202509
31
1.08260707188834e-005
  0
LINE
 8
COMPONENT0
10
1627.53358785351
20
-340.100997202509
30
1.08260707188834e-005
11
1627.53358793751
21
-339.426560910454
31
1.09798236449102e-005
  0
LINE
 8
COMPONENT0
10
1627.53358793751
20
-339.426560910454
30
1.09798236449102e-005
11
1627.53358823331
21
-337.051717495995
31
1.15212226297075e-005
  0
LINE
 8
COMPONENT0
10
1627.53358823331
20
-337.051717495995
30
1.15212226297075e-005
11
1627.48594853663
21
-336.60275738582
31
1.16063887838425e-005
  0
LINE
 8
COMPONENT0
10
1627.48594853663
20
-336.60275738582
30
1.16063887838425e-005
11
1627.34302931879
21
-336.282071579275
31
1.16279431175086e-005
  0
LINE
 8
COMPONENT0
10
1627.34302931879
20
-336.282071579275
30
1.16279431175086e-005
11
1627.10483057978
21
-336.08966007636
31
1.15858856307058e-005
  0
LINE
 8
COMPONENT0
10
1627.10483057978
20
-336.08966007636
30
1.15858856307058e-005
11
1626.77135231961
21
-336.025522877076
31
1.14802163234341e-005
  0
LINE
 8
COMPONENT0
10
1626.77135231961
20
-336.025522877076
30
1.14802163234341e-005
11
1626.2875029832
21
-336.157446134634
31
1.12756094348938e-005
  0
LINE
 8
COMPONENT0
10
1626.2875029832
20
-336.157446134634
30
1.12756094348938e-005
11
1625.85504723163
21
-336.501934269747
31
1.1041082079364e-005
  0
LINE
 8
COMPONENT0
10
1625.85504723163
20
-336.501934269747
30
1.1041082079364e-005
11
1625.53986284783
21
-336.985727627053
31
1.0817098586372e-005
  0
LINE
 8
COMPONENT0
10
1625.53986284783
20
-336.985727627053
30
1.0817098586372e-005
11
1625.42259139242
21
-337.550106638932
31
1.06461340714134e-005
  0
LINE
 8
COMPONENT0
10
1625.42259139242
20
-337.550106638932
30
1.06461340714134e-005
11
1625.46289813505
21
-337.977053896995
31
1.05633411300037e-005
  0
LINE
 8
COMPONENT0
10
1625.46289813505
20
-337.977053896995
30
1.05633411300037e-005
11
1625.58381847981
21
-338.319724590295
31
1.05288395103373e-005
  0
LINE
 8
COMPONENT0
10
1625.58381847981
20
-338.319724590295
30
1.05288395103373e-005
11
1625.9356325694
21
-338.847529752225
31
1.05354193152273e-005
  0
LINE
 8
COMPONENT0
10
1625.9356325694
20
-338.847529752225
30
1.05354193152273e-005
11
1626.28750259427
21
-339.28004142812
31
1.05637435865887e-005
  0
LINE
 8
COMPONENT0
10
1626.28750259427
20
-339.28004142812
30
1.05637435865887e-005
11
1626.40846489596
21
-339.507258247052
31
1.05555774043646e-005
  0
LINE
 8
COMPONENT0
10
1626.40846489596
20
-339.507258247052
30
1.05555774043646e-005
11
1626.44878563885
21
-339.778430854078
31
1.05083018423389e-005
  0
LINE
 8
COMPONENT0
10
1626.44878563885
20
-339.778430854078
30
1.05083018423389e-005
11
1626.37547000805
21
-340.130300923687
31
1.04016390653047e-005
  0
LINE
 8
COMPONENT0
10
1626.37547000805
20
-340.130300923687
30
1.04016390653047e-005
11
1626.19220896216
21
-340.452811190768
31
1.02620104843985e-005
  0
LINE
 8
COMPONENT0
10
1626.19220896216
20
-340.452811190768
30
1.02620104843985e-005
11
1625.95034019637
21
-340.687353930864
31
1.01212953555668e-005
  0
LINE
 8
COMPONENT0
10
1625.95034019637
20
-340.687353930864
30
1.01212953555668e-005
11
1625.68643762636
21
-340.775321417679
31
1.0006047409089e-005
  0
LINE
 8
COMPONENT0
10
1625.68643762636
20
-340.775321417679
30
1.0006047409089e-005
11
1625.2099702208
21
-340.577408419894
31
9.87929687854864e-006
  0
LINE
 8
COMPONENT0
10
1625.2099702208
20
-340.577408419894
30
9.87929687854864e-006
11
1624.61623148034
21
-339.976343564266
31
9.80215226200412e-006
  0
LINE
 8
COMPONENT0
10
1624.61623148034
20
-339.976343564266
30
9.80215226200412e-006
11
1624.34318550103
21
-339.520050469234
31
9.80768256462676e-006
  0
LINE
 8
COMPONENT0
10
1624.34318550103
20
-339.520050469234
30
9.80768256462676e-006
11
1624.11046031162
21
-338.957474943647
31
9.85198667290353e-006
  0
LINE
 8
COMPONENT0
10
1624.11046031162
20
-338.957474943647
30
9.85198667290353e-006
11
1623.95103674133
21
-338.290448483204
31
9.9465437569792e-006
  0
LINE
 8
COMPONENT0
10
1623.95103674133
20
-338.290448483204
30
9.9465437569792e-006
11
1623.89789561941
21
-337.5208025836
31
1.01028329869986e-005
  0
LINE
 8
COMPONENT0
10
1623.89789561941
20
-337.5208025836
30
1.01028329869986e-005
11
1623.95837688094
21
-336.745760089343
31
1.03013378619752e-005
  0
LINE
 8
COMPONENT0
10
1623.95837688094
20
-336.745760089343
30
1.03013378619752e-005
11
1624.13982046467
21
-336.033239979516
31
1.05292223563155e-005
  0
LINE
 8
COMPONENT0
10
1624.13982046467
20
-336.033239979516
30
1.05292223563155e-005
11
1624.44221238817
21
-335.396006771833
31
1.07835714679226e-005
  0
LINE
 8
COMPONENT0
10
1624.44221238817
20
-335.396006771833
30
1.07835714679226e-005
11
1624.86553866899
21
-334.846824984009
31
1.10614701946995e-005
  0
LINE
 8
COMPONENT0
10
1624.86553866899
20
-334.846824984009
30
1.10614701946995e-005
11
1625.4061363226
21
-334.396585699159
31
1.13591143739279e-005
  0
LINE
 8
COMPONENT0
10
1625.4061363226
20
-334.396585699159
30
1.13591143739279e-005
11
1626.06034236447
21
-334.056180000399
31
1.16726998428896e-005
  0
LINE
 8
COMPONENT0
10
1626.06034236447
20
-334.056180000399
30
1.16726998428896e-005
11
1626.82814281168
21
-333.842063350327
31
1.19984701655639e-005
  0
LINE
 8
COMPONENT0
10
1626.82814281168
20
-333.842063350327
30
1.19984701655639e-005
11
1627.70952368134
21
-333.770691211538
31
1.23326689059304e-005
  0
LINE
 8
COMPONENT0
10
1627.70952368134
20
-333.770691211538
30
1.23326689059304e-005
11
1628.74308610443
21
-333.849389555197
31
1.26875499757916e-005
  0
LINE
 8
COMPONENT0
10
1628.74308610443
20
-333.849389555197
30
1.26875499757916e-005
11
1629.61533743956
21
-334.085484308613
31
1.29483615687663e-005
  0
LINE
 8
COMPONENT0
10
1629.61533743956
20
-334.085484308613
30
1.29483615687663e-005
11
1630.33181410746
21
-334.451531060344
31
1.31233573281613e-005
  0
LINE
 8
COMPONENT0
10
1630.33181410746
20
-334.451531060344
30
1.31233573281613e-005
11
1630.89805252887
21
-334.920085398946
31
1.32207908972831e-005
  0
LINE
 8
COMPONENT0
10
1630.89805252887
20
-334.920085398946
30
1.32207908972831e-005
11
1631.32319618272
21
-335.476593258807
31
1.32472783979535e-005
  0
LINE
 8
COMPONENT0
10
1631.32319618272
20
-335.476593258807
30
1.32472783979535e-005
11
1631.61638854789
21
-336.106500574315
31
1.32094359519945e-005
  0
LINE
 8
COMPONENT0
10
1631.61638854789
20
-336.106500574315
30
1.32094359519945e-005
11
1631.78680106615
21
-336.786053879363
31
1.31159869777601e-005
  0
LINE
 8
COMPONENT0
10
1631.78680106615
20
-336.786053879363
30
1.31159869777601e-005
11
1631.84360517925
21
-337.491499707842
31
1.29756548936046e-005
  0
LINE
 8
COMPONENT0
10
1631.84360517925
20
-337.491499707842
30
1.29756548936046e-005
11
1631.79046386834
21
-338.239153714286
31
1.27860414743098e-005
  0
LINE
 8
COMPONENT0
10
1631.79046386834
20
-338.239153714286
30
1.27860414743098e-005
11
1631.63104013646
21
-338.869508360679
31
1.2584831347015e-005
  0
LINE
 8
COMPONENT0
10
1631.63104013646
20
-338.869508360679
30
1.2584831347015e-005
11
1631.38732586148
21
-339.399075035763
31
1.23761931840873e-005
  0
LINE
 8
COMPONENT0
10
1631.38732586148
20
-339.399075035763
30
1.23761931840873e-005
11
1631.08131292126
21
-339.844365128285
31
1.21642956578938e-005
  0
LINE
 8
COMPONENT0
10
1631.08131292126
20
-339.844365128285
30
1.21642956578938e-005
11
1630.72582175671
21
-340.207210131431
31
1.19533457719013e-005
  0
LINE
 8
COMPONENT0
10
1630.72582175671
20
-340.207210131431
30
1.19533457719013e-005
11
1630.33367280871
21
-340.489441538385
31
1.17475505295763e-005
  0
LINE
 8
COMPONENT0
10
1630.33367280871
20
-340.489441538385
30
1.17475505295763e-005
11
1629.54202100747
21
-340.870615383948
31
1.13750922120183e-005
  0
LINE
 8
COMPONENT0
10
1629.54202100747
20
-340.870615383948
30
1.13750922120183e-005
11
1628.84566271693
21
-341.053876302941
31
1.10821264488478e-005
  0
LINE
 8
COMPONENT0
10
1628.84566271693
20
-341.053876302941
30
1.10821264488478e-005
11
1628.38384721395
21
-341.097887966966
31
1.09055089300955e-005
  0
LINE
 8
COMPONENT0
10
1630.05159453106
20
-345.396720493946
30
1.05270760650911e-005
11
1629.70716229745
21
-345.140143858347
31
1.04613263786541e-005
  0
LINE
 8
COMPONENT0
10
1629.70716229745
20
-345.140143858347
30
1.04613263786541e-005
11
1629.17214307166
21
-345.044850305666
31
1.02900608845826e-005
  0
LINE
 8
COMPONENT0
10
1629.17214307166
20
-345.044850305666
30
1.02900608845826e-005
11
1625.03850849758
21
-345.044849790807
31
8.7989943875629e-006
  0
LINE
 8
COMPONENT0
10
1625.03850849758
20
-345.044849790807
30
8.7989943875629e-006
11
1624.5895973343
21
-344.980775490978
31
8.65167228816856e-006
  0
LINE
 8
COMPONENT0
10
1624.5895973343
20
-344.980775490978
30
8.65167228816856e-006
11
1624.26894652162
21
-344.788552719293
31
8.57983002385257e-006
  0
LINE
 8
COMPONENT0
10
1624.26894652162
20
-344.788552719293
30
8.57983002385257e-006
11
1624.07655606138
21
-344.453529543039
31
8.58680783231139e-006
  0
LINE
 8
COMPONENT0
10
1624.07655606138
20
-344.453529543039
30
8.58680783231139e-006
11
1624.0124259554
21
-343.961054029504
31
8.67594595124145e-006
  0
LINE
 8
COMPONENT0
10
1624.0124259554
20
-343.961054029504
30
8.67594595124145e-006
11
1624.0692302209
21
-343.442937648784
31
8.81455239998578e-006
  0
LINE
 8
COMPONENT0
10
1624.0692302209
20
-343.442937648784
30
8.81455239998578e-006
11
1624.23964286781
21
-343.089599601828
31
8.95657424710169e-006
  0
LINE
 8
COMPONENT0
10
1624.23964286781
20
-343.089599601828
30
8.95657424710169e-006
11
1624.55296776338
21
-342.886387959572
31
9.11592209183708e-006
  0
LINE
 8
COMPONENT0
10
1624.55296776338
20
-342.886387959572
30
9.11592209183708e-006
11
1625.03850877486
21
-342.818650792954
31
9.30650653343985e-006
  0
LINE
 8
COMPONENT0
10
1625.03850877486
20
-342.818650792954
30
9.30650653343985e-006
11
1629.025512175
21
-342.81865128955
31
1.07446808778108e-005
  0
LINE
 8
COMPONENT0
10
1629.025512175
20
-342.81865128955
30
1.07446808778108e-005
11
1629.48541230127
21
-342.77466758699
31
1.09206011157982e-005
  0
LINE
 8
COMPONENT0
10
1629.48541230127
20
-342.77466758699
30
1.09206011157982e-005
11
1629.8097261375
21
-342.642716347857
31
1.10676674343417e-005
  0
LINE
 8
COMPONENT0
10
1629.8097261375
20
-342.642716347857
30
1.10676674343417e-005
11
1630.22014807116
21
-342.261542454811
31
1.13026101895022e-005
  0
LINE
 8
COMPONENT0
10
1630.22014807116
20
-342.261542454811
30
1.13026101895022e-005
11
1630.498646687
21
-341.880368545333
31
1.14899661452352e-005
  0
LINE
 8
COMPONENT0
10
1630.498646687
20
-341.880368545333
30
1.14899661452352e-005
11
1630.66171935912
21
-341.748417286116
31
1.15788702596886e-005
  0
LINE
 8
COMPONENT0
10
1630.66171935912
20
-341.748417286116
30
1.15788702596886e-005
11
1630.90174262874
21
-341.70443355617
31
1.167547748426e-005
  0
LINE
 8
COMPONENT0
10
1630.90174262874
20
-341.70443355617
30
1.167547748426e-005
11
1631.21692694316
21
-341.777749182399
31
1.17724554507944e-005
  0
LINE
 8
COMPONENT0
10
1631.21692694316
20
-341.777749182399
30
1.17724554507944e-005
11
1631.44414372329
21
-341.968336182783
31
1.18109675096583e-005
  0
LINE
 8
COMPONENT0
10
1631.44414372329
20
-341.968336182783
30
1.18109675096583e-005
11
1631.6493825943
21
-342.239564733758
31
1.18231677410294e-005
  0
LINE
 8
COMPONENT0
10
1631.6493825943
20
-342.239564733758
30
1.18231677410294e-005
11
1631.89852133456
21
-342.554805011747
31
1.18411698801938e-005
  0
LINE
 8
COMPONENT0
10
1631.89852133456
20
-342.554805011747
30
1.18411698801938e-005
11
1632.25771735684
21
-342.738010138805
31
1.19289717787778e-005
  0
LINE
 8
COMPONENT0
10
1632.25771735684
20
-342.738010138805
30
1.19289717787778e-005
11
1633.12984286543
21
-342.965059281075
31
1.21918001343123e-005
  0
LINE
 8
COMPONENT0
10
1633.12984286543
20
-342.965059281075
30
1.21918001343123e-005
11
1633.51828683247
21
-343.126174665893
31
1.22951880765445e-005
  0
LINE
 8
COMPONENT0
10
1633.51828683247
20
-343.126174665893
30
1.22951880765445e-005
11
1633.95068657577
21
-343.463057325333
31
1.23743614577454e-005
  0
LINE
 8
COMPONENT0
10
1633.95068657577
20
-343.463057325333
30
1.23743614577454e-005
11
1634.30250066178
21
-344.019607118616
31
1.23743882772309e-005
  0
LINE
 8
COMPONENT0
10
1634.30250066178
20
-344.019607118616
30
1.23743882772309e-005
11
1634.41243205317
21
-344.393077627118
31
1.23289012608708e-005
  0
LINE
 8
COMPONENT0
10
1634.41243205317
20
-344.393077627118
30
1.23289012608708e-005
11
1634.44907581015
21
-344.839835751761
31
1.22402706914277e-005
  0
LINE
 8
COMPONENT0
10
1634.44907581015
20
-344.839835751761
30
1.22402706914277e-005
11
1634.44907574079
21
-345.396721041668
31
1.21133161609654e-005
  0
LINE
 8
COMPONENT0
10
1634.44907574079
20
-345.396721041668
30
1.21133161609654e-005
11
1634.39227148961
21
-345.799858896977
31
1.20009216538389e-005
  0
LINE
 8
COMPONENT0
10
1634.39227148961
20
-345.799858896977
30
1.20009216538389e-005
11
1634.22185884563
21
-346.129709112866
31
1.18642543862364e-005
  0
LINE
 8
COMPONENT0
10
1634.22185884563
20
-346.129709112866
30
1.18642543862364e-005
11
1633.9744956069
21
-346.349613900417
31
1.17248943650605e-005
  0
LINE
 8
COMPONENT0
10
1633.9744956069
20
-346.349613900417
30
1.17248943650605e-005
11
1633.68683957146
21
-346.422915470709
31
1.1604421597214e-005
  0
LINE
 8
COMPONENT0
10
1633.68683957146
20
-346.422915470709
30
1.1604421597214e-005
11
1633.43764486852
21
-346.422915439671
31
1.15145331791351e-005
  0
LINE
 8
COMPONENT0
10
1633.43764486852
20
-346.422915439671
30
1.15145331791351e-005
11
1633.19583205992
21
-346.386229654362
31
1.14356708671297e-005
  0
LINE
 8
COMPONENT0
10
1633.19583205992
20
-346.386229654362
30
1.14356708671297e-005
11
1632.96128930523
21
-346.261576350274
31
1.13794851482439e-005
  0
LINE
 8
COMPONENT0
10
1632.96128930523
20
-346.261576350274
30
1.13794851482439e-005
11
1632.74866854536
21
-345.983021832024
31
1.13662922728875e-005
  0
LINE
 8
COMPONENT0
10
1632.74866854536
20
-345.983021832024
30
1.13662922728875e-005
11
1632.41894419616
21
-345.499284317798
31
1.13576343729655e-005
  0
LINE
 8
COMPONENT0
10
1632.41894419616
20
-345.499284317798
30
1.13576343729655e-005
11
1632.13306375448
21
-345.36730504096
31
1.12846004677672e-005
  0
LINE
 8
COMPONENT0
10
1632.13306375448
20
-345.36730504096
30
1.12846004677672e-005
11
1631.84723920789
21
-345.462598491401
31
1.11597748037233e-005
  0
LINE
 8
COMPONENT0
10
1631.84723920789
20
-345.462598491401
30
1.11597748037233e-005
11
1631.57606655202
21
-345.895110089694
31
1.09633578574417e-005
  0
LINE
 8
COMPONENT0
10
1631.57606655202
20
-345.895110089694
30
1.09633578574417e-005
11
1631.28291600621
21
-346.25425017487
31
1.07757398264764e-005
  0
LINE
 8
COMPONENT0
10
1631.28291600621
20
-346.25425017487
30
1.07757398264764e-005
11
1630.93115776059
21
-346.364195549812
31
1.06237906112452e-005
  0
LINE
 8
COMPONENT0
10
1630.93115776059
20
-346.364195549812
30
1.06237906112452e-005
11
1630.59399555258
21
-346.246924122706
31
1.05289055866365e-005
  0
LINE
 8
COMPONENT0
10
1630.59399555258
20
-346.246924122706
30
1.05289055866365e-005
11
1630.35945281704
21
-345.968425525132
31
1.05077923635633e-005
  0
LINE
 8
COMPONENT0
10
1630.35945281704
20
-345.968425525132
30
1.05077923635633e-005
11
1630.18351781784
21
-345.645915213312
31
1.05178533256813e-005
  0
LINE
 8
COMPONENT0
10
1630.18351781784
20
-345.645915213312
30
1.05178533256813e-005
11
1630.05159453106
21
-345.396720493946
31
1.05270760650911e-005
  0
LINE
 8
COMPONENT0
10
1630.03772526661
20
-347.479643720564
30
1.00472240877099e-005
11
1630.24290827539
21
-347.259752908612
31
1.01713658544601e-005
  0
LINE
 8
COMPONENT0
10
1630.24290827539
20
-347.259752908612
30
1.01713658544601e-005
11
1630.45547317759
21
-347.010502308745
31
1.03048636084356e-005
  0
LINE
 8
COMPONENT0
10
1630.45547317759
20
-347.010502308745
30
1.03048636084356e-005
11
1630.70472382949
21
-346.805263434995
31
1.0441561024708e-005
  0
LINE
 8
COMPONENT0
10
1630.70472382949
20
-346.805263434995
30
1.0441561024708e-005
11
1631.0345041733
21
-346.717295956385
31
1.05805721122309e-005
  0
LINE
 8
COMPONENT0
10
1631.0345041733
20
-346.717295956385
30
1.05805721122309e-005
11
1631.37172230472
21
-346.834623306905
31
1.06754645602864e-005
  0
LINE
 8
COMPONENT0
10
1631.37172230472
20
-346.834623306905
30
1.06754645602864e-005
11
1631.6502767627
21
-347.105851867011
31
1.07141108679819e-005
  0
LINE
 8
COMPONENT0
10
1631.6502767627
20
-347.105851867011
30
1.07141108679819e-005
11
1631.89214546185
21
-347.406384287975
31
1.07328435758995e-005
  0
LINE
 8
COMPONENT0
10
1631.89214546185
20
-347.406384287975
30
1.07328435758995e-005
11
1632.11941816538
21
-347.596971288365
31
1.07713758072091e-005
  0
LINE
 8
COMPONENT0
10
1632.11941816538
20
-347.596971288365
30
1.07713758072091e-005
11
1632.51518810243
21
-347.728838732077
31
1.08840740662231e-005
  0
LINE
 8
COMPONENT0
10
1632.51518810243
20
-347.728838732077
30
1.08840740662231e-005
11
1632.91106990089
21
-347.743490714098
31
1.10235345717e-005
  0
LINE
 8
COMPONENT0
10
1632.91106990089
20
-347.743490714098
30
1.10235345717e-005
11
1633.21154636467
21
-347.772794616949
31
1.11252406471011e-005
  0
LINE
 8
COMPONENT0
10
1633.21154636467
20
-347.772794616949
30
1.11252406471011e-005
11
1633.56341642518
21
-347.919202141091
31
1.12187887965349e-005
  0
LINE
 8
COMPONENT0
10
1633.56341642518
20
-347.919202141091
30
1.12187887965349e-005
11
1633.84929684045
21
-348.263242978417
31
1.12434784981268e-005
  0
LINE
 8
COMPONENT0
10
1633.84929684045
20
-348.263242978417
30
1.12434784981268e-005
11
1633.96656814805
21
-348.885558669473
31
1.11439092576717e-005
  0
LINE
 8
COMPONENT0
10
1633.96656814805
20
-348.885558669473
30
1.11439092576717e-005
11
1633.85662265361
21
-349.493222399515
31
1.09657196079977e-005
  0
LINE
 8
COMPONENT0
10
1633.85662265361
20
-349.493222399515
30
1.09657196079977e-005
11
1633.5780681199
21
-349.829937200182
31
1.07884789338978e-005
  0
LINE
 8
COMPONENT0
10
1633.5780681199
20
-349.829937200182
30
1.07884789338978e-005
11
1633.21887205748
21
-349.969018669401
31
1.0627204554991e-005
  0
LINE
 8
COMPONENT0
10
1633.21887205748
20
-349.969018669401
30
1.0627204554991e-005
11
1632.88176575462
21
-349.998322492839
31
1.04989245768649e-005
  0
LINE
 8
COMPONENT0
10
1632.88176575462
20
-349.998322492839
30
1.04989245768649e-005
11
1632.44919819367
21
-350.0422782371
31
1.03328699962171e-005
  0
LINE
 8
COMPONENT0
10
1632.44919819367
20
-350.0422782371
30
1.03328699962171e-005
11
1632.06081010987
21
-350.203561295382
31
1.01560042481103e-005
  0
LINE
 8
COMPONENT0
10
1632.06081010987
20
-350.203561295382
30
1.01560042481103e-005
11
1631.84818928154
21
-350.474733870903
31
1.00174887141432e-005
  0
LINE
 8
COMPONENT0
10
1631.84818928154
20
-350.474733870903
30
1.00174887141432e-005
11
1631.66492823107
21
-350.833929893174
31
9.86949678999707e-006
  0
LINE
 8
COMPONENT0
10
1631.66492823107
20
-350.833929893174
30
9.86949678999707e-006
11
1631.41573348888
21
-351.149114185686
31
9.70775501444826e-006
  0
LINE
 8
COMPONENT0
10
1631.41573348888
20
-351.149114185686
30
9.70775501444826e-006
11
1631.23981241735
21
-351.25355112691
31
9.62048878802321e-006
  0
LINE
 8
COMPONENT0
10
1631.23981241735
20
-351.25355112691
30
9.62048878802321e-006
11
1631.00519973853
21
-351.288363418733
31
9.52792408338417e-006
  0
LINE
 8
COMPONENT0
10
1631.00519973853
20
-351.288363418733
30
9.52792408338417e-006
11
1630.77250244532
21
-351.251705596264
31
9.45234350552991e-006
  0
LINE
 8
COMPONENT0
10
1630.77250244532
20
-351.251705596264
30
9.45234350552991e-006
11
1630.60210383697
21
-351.141732194582
31
9.4159489696764e-006
  0
LINE
 8
COMPONENT0
10
1630.60210383697
20
-351.141732194582
30
9.4159489696764e-006
11
1630.3602351433
21
-350.79724397548
31
9.40723697484816e-006
  0
LINE
 8
COMPONENT0
10
1630.3602351433
20
-350.79724397548
30
9.40723697484816e-006
11
1630.14034435417
21
-350.408799960977
31
9.41647346427284e-006
  0
LINE
 8
COMPONENT0
10
1630.14034435417
20
-350.408799960977
30
9.41647346427284e-006
11
1629.80307032126
21
-350.11553757108
31
9.36166919412651e-006
  0
LINE
 8
COMPONENT0
10
1629.80307032126
20
-350.11553757108
30
9.36166919412651e-006
11
1629.5832354172
21
-350.034951913777
31
9.3007426173752e-006
  0
LINE
 8
COMPONENT0
10
1629.5832354172
20
-350.034951913777
30
9.3007426173752e-006
11
1629.3706705497
21
-350.005648021875
31
9.23074762662851e-006
  0
LINE
 8
COMPONENT0
10
1629.3706705497
20
-350.005648021875
30
9.23074762662851e-006
11
1629.12874589062
21
-349.998322025386
31
9.14515174533999e-006
  0
LINE
 8
COMPONENT0
10
1629.12874589062
20
-349.998322025386
30
9.14515174533999e-006
11
1628.80629152412
21
-349.998321985223
31
9.02883742338242e-006
  0
LINE
 8
COMPONENT0
10
1628.80629152412
20
-349.998321985223
30
9.02883742338242e-006
11
1627.10566070809
21
-349.998321773403
31
8.4153933493745e-006
  0
LINE
 8
COMPONENT0
10
1627.10566070809
20
-349.998321773403
30
8.4153933493745e-006
11
1626.5632595752
21
-350.042277503984
31
8.20972008535449e-006
  0
LINE
 8
COMPONENT0
10
1626.5632595752
20
-350.042277503984
30
8.20972008535449e-006
11
1626.22609733616
21
-350.174144856406
31
8.05803827090754e-006
  0
LINE
 8
COMPONENT0
10
1626.22609733616
20
-350.174144856406
30
8.05803827090754e-006
11
1625.9255649097
21
-350.460081200505
31
7.88444591659198e-006
  0
LINE
 8
COMPONENT0
10
1625.9255649097
20
-350.460081200505
30
7.88444591659198e-006
11
1625.68369612291
21
-350.863233013615
31
7.70529255625357e-006
  0
LINE
 8
COMPONENT0
10
1625.68369612291
20
-350.863233013615
30
7.70529255625357e-006
11
1625.36118578827
21
-351.222373095135
31
7.50708399129107e-006
  0
LINE
 8
COMPONENT0
10
1625.36118578827
20
-351.222373095135
30
7.50708399129107e-006
11
1625.1376039915
21
-351.337798979957
31
7.40012061973828e-006
  0
LINE
 8
COMPONENT0
10
1625.1376039915
20
-351.337798979957
30
7.40012061973828e-006
11
1624.84803258371
21
-351.376274248113
31
7.28689638465469e-006
  0
LINE
 8
COMPONENT0
10
1624.84803258371
20
-351.376274248113
30
7.28689638465469e-006
11
1624.43753381197
21
-351.302979581289
31
7.15553222509062e-006
  0
LINE
 8
COMPONENT0
10
1624.43753381197
20
-351.302979581289
30
7.15553222509062e-006
11
1624.14432042445
21
-351.083095697686
31
7.09989304050248e-006
  0
LINE
 8
COMPONENT0
10
1624.14432042445
20
-351.083095697686
30
7.09989304050248e-006
11
1623.96839242115
21
-350.716622597301
31
7.11997883089027e-006
  0
LINE
 8
COMPONENT0
10
1623.96839242115
20
-350.716622597301
30
7.11997883089027e-006
11
1623.90974980207
21
-350.203560280137
31
7.21578959625399e-006
  0
LINE
 8
COMPONENT0
10
1623.90974980207
20
-350.203560280137
30
7.21578959625399e-006
11
1623.94365169112
21
-349.633692025926
31
7.35793280130064e-006
  0
LINE
 8
COMPONENT0
10
1623.94365169112
20
-349.633692025926
30
7.35793280130064e-006
11
1624.04535720684
21
-349.139806214618
31
7.5072119306282e-006
  0
LINE
 8
COMPONENT0
10
1624.04535720684
20
-349.139806214618
30
7.5072119306282e-006
11
1624.21486634924
21
-348.721902846214
31
7.6636269842367e-006
  0
LINE
 8
COMPONENT0
10
1624.21486634924
20
-348.721902846214
30
7.6636269842367e-006
11
1624.45217911832
21
-348.379981920712
31
7.82717796212611e-006
  0
LINE
 8
COMPONENT0
10
1624.45217911832
20
-348.379981920712
30
7.82717796212611e-006
11
1624.75729551408
21
-348.114043438113
31
7.99786486429644e-006
  0
LINE
 8
COMPONENT0
10
1624.75729551408
20
-348.114043438113
30
7.99786486429644e-006
11
1625.1302155365
21
-347.924087398417
31
8.1756876907477e-006
  0
LINE
 8
COMPONENT0
10
1625.1302155365
20
-347.924087398417
30
8.1756876907477e-006
11
1625.57093918561
21
-347.810113801624
31
8.36064644147988e-006
  0
LINE
 8
COMPONENT0
10
1625.57093918561
20
-347.810113801624
30
8.36064644147988e-006
11
1626.07946646139
21
-347.772122647735
31
8.55274111649298e-006
  0
LINE
 8
COMPONENT0
10
1626.07946646139
20
-347.772122647735
30
8.55274111649298e-006
11
1628.71826835831
21
-347.772122976407
31
9.50459813971354e-006
  0
LINE
 8
COMPONENT0
10
1628.71826835831
20
-347.772122976407
30
9.50459813971354e-006
11
1629.49529614743
21
-347.720981117212
31
9.7965431460564e-006
  0
LINE
 8
COMPONENT0
10
1629.49529614743
20
-347.720981117212
30
9.7965431460564e-006
11
1630.03772526661
21
-347.479643720564
31
1.00472240877099e-005
 0
ENDSEC
 0
EOF
