 0
SECTION
 2
ENTITIES
  0
LINE
 8
Layer0
10
2401.82079899606
20
394.210735900902
30
0.000528271612728487
11
2401.75265065348
21
394.728373991744
31
0.0005289479948346
  0
LINE
 8
Layer0
10
2161.82081201773
20
395.246014313607
30
0.00052465014268947
11
2162.02061286375
21
395.728376222985
31
0.000525180346103493
  0
LINE
 8
Layer0
10
2413.75265010723
20
132.72845219043
30
0.000124270109570807
11
2413.75265010719
21
332.728439026193
31
0.00029240614821659
  0
LINE
 8
Layer0
10
2445.23501196848
20
110.796600426229
30
7.22975085086786e-005
11
2444.75265005939
21
110.996401272949
31
7.27319330484366e-005
  0
LINE
 8
Layer0
10
2163.23502488543
20
68.7966036639448
30
0.000210570773793506
11
2162.7526629775
21
68.9964045134686
31
0.000211005198516562
  0
LINE
 8
Layer0
10
2444.02059976189
20
353.728438989634
30
0.000460788240145932
11
2444.33843700856
21
354.142652550879
31
0.000461187940247981
  0
LINE
 8
Layer0
10
2165.16687722866
20
393.314162654056
30
0.000520950660419478
11
2164.75266366562
21
392.996325409724
31
0.000520708702672645
  0
LINE
 8
Layer0
10
2405.68450230122
20
394.210735864741
30
0.000526802990710085
11
2405.48470145169
21
393.728373956816
31
0.000526272787116289
  0
LINE
 8
Layer0
10
2445.75265057301
20
354.728438983489
30
0.000461386503105565
11
2446.27028866297
21
354.660290634232
31
0.000461104108079941
  0
LINE
 8
Layer0
10
2161.82081201558
20
394.210738133198
30
0.00052334918575021
11
2161.75266366923
21
394.728376223545
31
0.000524025567675845
  0
LINE
 8
Layer0
10
2413.75265067433
20
404.728373879419
30
0.000540426216619916
11
2413.75265058677
21
362.728439096996
31
0.000474444033294547
  0
LINE
 8
Layer0
10
2445.75265055882
20
350.728438983493
30
0.000456359991599398
11
2445.23501246886
21
350.79658733275
31
0.000456642386626432
  0
LINE
 8
Layer0
10
2165.48471447889
20
395.728376215764
30
0.000523863616184372
11
2165.68451532289
21
395.246014305553
31
0.000523181521056698
  0
LINE
 8
Layer0
10
2444.02059925442
20
111.728452083114
30
7.39301065458109e-005
11
2443.82079841112
21
112.210813993617
31
7.46122014937123e-005
  0
LINE
 8
Layer0
10
2163.75266301244
20
72.7284553116738
30
0.000215314890090046
11
2164.270301102
21
72.6603069594071
31
0.000215032495060896
  0
LINE
 8
Layer0
10
2444.02059926151
20
113.728452083112
30
7.64433620281779e-005
11
2444.33843650818
21
114.142665644357
31
7.68430621302274e-005
  0
LINE
 8
Layer0
10
2446.27028866297
20
354.660290634232
30
0.000461104108079941
11
2446.75265057206
21
354.460489787512
31
0.000460669683358295
  0
LINE
 8
Layer0
10
2165.48471381064
20
71.7284552954633
30
0.000213399897197897
11
2165.68451465114
21
71.246093383799
31
0.000212717802068813
  0
LINE
 8
Layer0
10
2444.33843700856
20
354.142652550879
30
0.000461187940247981
11
2444.75265057206
21
354.460489794605
31
0.000461429897813631
  0
LINE
 8
Layer0
10
2404.2702880722
20
72.6603047169923
30
1.82687698881134e-005
11
2404.75264998158
21
72.4605038709778
31
1.78343449873997e-005
  0
LINE
 8
Layer0
10
2447.68450221666
20
352.210800886434
30
0.000457488457973759
11
2447.48470136994
21
351.728438977348
31
0.000456958254379258
  0
LINE
 8
Layer0
10
2444.75265057206
20
354.460489794605
30
0.000461429897813631
11
2445.23501248256
21
354.660290637904
31
0.000461497623948259
  0
LINE
 8
Layer0
10
2404.75264998158
20
72.4605038709778
30
1.78343449873997e-005
11
2405.16686354329
21
72.1426666249189
31
1.72774962881761e-005
  0
LINE
 8
Layer0
10
2403.2350125452
20
392.796522325294
30
0.000525956919735698
11
2402.75265063727
21
392.996323174818
31
0.000526391344458754
  0
LINE
 8
Layer0
10
2405.68450162947
20
70.2108149712635
30
1.46531197840472e-005
11
2405.48470078345
21
69.7284530618854
31
1.41229161895462e-005
  0
LINE
 8
Layer0
10
2446.27028864927
20
350.796587329078
30
0.000456248870758114
11
2445.75265055882
21
350.728438983493
31
0.000456359991599398
  0
LINE
 8
Layer0
10
2401.75264997797
20
70.7284530696632
30
1.6798123523637e-005
11
2401.82079832647
21
71.2460911597258
31
1.74226981763059e-005
  0
LINE
 8
Layer0
10
2447.68450171628
20
112.210813979912
30
7.31435798560054e-005
11
2447.48470086956
21
111.728452070826
31
7.26133762607994e-005
  0
LINE
 8
Layer0
10
2446.75265007168
20
114.460502880989
30
7.63248052405407e-005
11
2447.16686363292
21
114.142665634325
31
7.57679565413172e-005
  0
LINE
 8
Layer0
10
2162.33845010391
20
393.314162659952
30
0.000522025766185341
11
2162.02061285958
21
393.728376222987
31
0.000522667090440648
  0
LINE
 8
Layer0
10
2161.75266299372
20
70.7284553303955
30
0.000213561848892407
11
2161.82081134598
21
71.2460934199621
31
0.000214186423725554
  0
LINE
 8
Layer0
10
2402.02059916832
20
69.7284530691056
30
1.54396464696227e-005
11
2401.82079832431
21
70.2108149793166
31
1.61217414168191e-005
  0
LINE
 8
Layer0
10
2164.7526629775
20
68.9964044947492
30
0.000210244983871583
11
2164.27030106584
21
68.796603654255
31
0.000210177257919547
  0
LINE
 8
Layer0
10
2402.33843710435
20
396.142587548634
30
0.000530502473180999
11
2402.75265066969
21
396.460424789953
31
0.000530744430744534
  0
LINE
 8
Layer0
10
2402.75264998158
20
72.4605038751464
30
1.8594559620394e-005
11
2403.23501189179
21
72.6603047191502
31
1.86622857550223e-005
  0
LINE
 8
Layer0
10
2162.02061285958
20
393.728376222987
30
0.000522667090440648
11
2161.82081201558
21
394.210738133198
31
0.00052334918575021
  0
LINE
 8
Layer0
10
2447.48470086956
20
111.728452070826
30
7.26133762607994e-005
11
2447.16686362289
21
111.314238509581
31
7.22136761594549e-005
  0
LINE
 8
Layer0
10
2413.75265004469
20
102.728452190493
30
6.59822847807134e-005
11
2413.75264995712
21
60.7284529719065
31
0.0
  0
LINE
 8
Layer0
10
2447.68450222033
20
353.246077066844
30
0.000458789414913724
11
2447.75265056592
21
352.728438976397
31
0.000458113032807611
  0
LINE
 8
Layer0
10
2163.75266366506
20
392.728376219377
30
0.000520752097559779
11
2163.235025575
21
392.796524567878
31
0.000521034492586109
  0
LINE
 8
Layer0
10
2444.75265005939
20
110.996401272949
30
7.27319330484366e-005
11
2444.33843649814
21
111.314238519614
31
7.32887817483652e-005
  0
LINE
 8
Layer0
10
2443.8207989115
20
352.210800900138
30
0.000458957079612171
11
2443.75265056592
21
352.728438990585
31
0.000459633461718284
  0
LINE
 8
Layer0
10
2165.16687656932
20
72.142668860811
30
0.00021404122181698
11
2165.48471381064
21
71.7284552954633
31
0.000213399897197897
  0
LINE
 8
Layer0
10
2405.48470078345
20
69.7284530618854
30
1.41229161895462e-005
11
2405.16686353739
21
69.314239500175
31
1.37232160867917e-005
  0
LINE
 8
Layer0
10
2447.16686413331
20
354.142652540847
30
0.000460112834659071
11
2447.48470137703
21
353.728438977347
31
0.000459471510042103
  0
LINE
 8
Layer0
10
2405.75264997797
20
70.728453061326
30
1.52776947976718e-005
11
2405.68450162947
21
70.2108149712635
31
1.46531197840472e-005
  0
LINE
 8
Layer0
10
2162.7526629775
20
68.9964045134686
30
0.000211005198516562
11
2162.33844941811
21
69.3142417625411
31
0.000211562047038127
  0
LINE
 8
Layer0
10
2404.27028872561
20
392.796522315605
30
0.000525563403681967
11
2403.75265063476
21
392.728373973028
31
0.000525674524526071
  0
LINE
 8
Layer0
10
2165.75266366923
20
394.728376215206
30
0.000522505138770107
11
2165.68451532073
21
394.210738125144
31
0.000521880564116733
  0
LINE
 8
Layer0
10
2447.48470136994
20
351.728438977348
30
0.000456958254379258
11
2447.16686412327
21
351.314225416103
31
0.000456558554277209
  0
LINE
 8
Layer0
10
2403.7526506722
20
396.728373973024
30
0.000530701035851761
11
2404.27028876177
21
396.660225620758
31
0.000530418640642838
  0
LINE
 8
Layer0
10
2402.02059983655
20
393.728373989237
30
0.000527589517598698
11
2401.82079899606
21
394.210735900902
31
0.000528271612728487
  0
LINE
 8
Layer0
10
2404.27028876177
20
396.660225620758
30
0.000530418640642838
11
2404.75265066969
21
396.460424771234
31
0.000529984216280033
  0
LINE
 8
Layer0
10
2447.75265056592
20
352.728438976397
30
0.000458113032807611
11
2447.68450221666
21
352.210800886434
31
0.000457488457973759
  0
LINE
 8
Layer0
10
2163.75266297499
20
68.7284553116781
30
0.000210288378764356
11
2163.23502488543
21
68.7966036639448
31
0.000210570773793506
  0
LINE
 8
Layer0
10
2443.82079841112
20
112.210813993617
30
7.46122014937123e-005
11
2443.75265006553
21
112.728452084063
31
7.52885836005301e-005
  0
LINE
 8
Layer0
10
2404.27028806415
20
68.7966014118391
30
1.34135325662865e-005
11
2403.7526499738
21
68.7284530654963
31
1.35246534075706e-005
  0
LINE
 8
Layer0
10
2162.75266366562
20
392.996325413893
30
0.00052146891730564
11
2162.33845010391
21
393.314162659952
31
0.000522025766185341
  0
LINE
 8
Layer0
10
2433.75265052422
20
332.728439026075
30
0.000437321260522605
11
2433.7526505242
21
132.72845219044
31
0.000116667963994499
  0
LINE
 8
Layer0
10
2165.68451465114
20
71.246093383799
30
0.000212717802068813
11
2165.75266299371
21
70.7284552929565
31
0.000212041419961995
  0
LINE
 8
Layer0
10
2161.75266366923
20
394.728376223545
30
0.000524025567675845
11
2161.82081201773
21
395.246014313607
31
0.00052465014268947
  0
LINE
 8
Layer0
10
2443.82079841479
20
113.246090174026
30
7.5913158433677e-005
11
2444.02059926151
21
113.728452083112
31
7.64433620281779e-005
  0
LINE
 8
Layer0
10
2163.7526636734
20
396.728376219374
30
0.000525778608885469
11
2164.27030176347
21
396.660227870873
31
0.000525496213859844
  0
LINE
 8
Layer0
10
2404.75265066969
20
396.460424771234
30
0.000529984216280033
11
2405.16686422909
21
396.142587522162
31
0.000529427367398216
  0
LINE
 8
Layer0
10
2401.82079832647
20
71.2460911597258
30
1.74226981763059e-005
11
2402.02059917248
21
71.7284530691039
31
1.79529019519897e-005
  0
LINE
 8
Layer0
10
2447.48470087665
20
113.728452070825
30
7.51266319236443e-005
11
2447.68450171995
21
113.246090160321
31
7.44445367959701e-005
  0
LINE
 8
Layer0
10
2405.48470147041
20
395.728373956814
30
0.000528786042779133
11
2405.6845023109
21
395.24601204515
31
0.000528103947830527
  0
LINE
 8
Layer0
10
2446.75265055977
20
350.996388172377
30
0.000456316596711559
11
2446.27028864927
21
350.796587329078
31
0.000456248870758114
  0
LINE
 8
Layer0
10
2162.33844941811
20
69.3142417625411
30
0.000211562047038127
11
2162.02061217679
21
69.7284553278886
31
0.000212203371656505
  0
LINE
 8
Layer0
10
2162.75266300993
20
72.4605061286028
30
0.000215358284983524
11
2163.23502492159
21
72.6603069690971
31
0.00021542601093415
  0
LINE
 8
Layer0
10
2165.16687723456
20
396.142589778799
30
0.000524504940440384
11
2165.48471447889
21
395.728376215764
31
0.000523863616184372
  0
LINE
 8
Layer0
10
2447.16686363292
20
114.142665634325
30
7.57679565413172e-005
11
2447.48470087665
21
113.728452070825
31
7.51266319236443e-005
  0
LINE
 8
Layer0
10
2444.33843650818
20
114.142665644357
30
7.68430621302274e-005
11
2444.75265007168
21
114.460502888084
31
7.70850196958772e-005
  0
LINE
 8
Layer0
10
2164.27030175541
20
392.79652456572
30
0.000520640976538017
11
2163.75266366506
21
392.728376219377
31
0.000520752097559779
  0
LINE
 8
Layer0
10
2404.75265063727
20
392.996323156099
30
0.000525631129633297
11
2404.27028872561
21
392.796522315605
31
0.000525563403681967
  0
LINE
 8
Layer0
10
2403.75265063476
20
392.728373973028
30
0.000525674524526071
11
2403.2350125452
21
392.796522325294
31
0.000525956919735698
  0
LINE
 8
Layer0
10
2165.16687654285
20
69.3142417360677
30
0.000210486941435117
11
2164.7526629775
21
68.9964044947492
31
0.000210244983871583
  0
LINE
 8
Layer0
10
2401.82079832431
20
70.2108149793166
30
1.61217414168191e-005
11
2401.75264997797
21
70.7284530696632
31
1.6798123523637e-005
  0
LINE
 8
Layer0
10
2163.235025575
20
392.796524567878
30
0.000521034492586109
11
2162.75266366562
21
392.996325413893
31
0.00052146891730564
  0
LINE
 8
Layer0
10
2161.82081133629
20
70.2108172395531
30
0.000212885466785589
11
2161.75266299372
21
70.7284553303955
31
0.000213561848892407
  0
LINE
 8
Layer0
10
2405.16686422909
20
396.142587522162
30
0.000529427367398216
11
2405.48470147041
21
395.728373956814
31
0.000528786042779133
  0
LINE
 8
Layer0
10
2164.27030106584
20
68.796603654255
30
0.000210177257919547
11
2163.75266297499
21
68.7284553116781
31
0.000210288378764356
  0
LINE
 8
Layer0
10
2402.33843641854
20
72.1426666308142
30
1.83526020540392e-005
11
2402.75264998158
21
72.4605038751464
31
1.8594559620394e-005
  0
LINE
 8
Layer0
10
2402.75265066969
20
396.460424789953
30
0.000530744430744534
11
2403.23501258136
21
396.660225630447
31
0.00053081215669657
  0
LINE
 8
Layer0
10
2161.82081134598
20
71.2460934199621
30
0.000214186423725554
11
2162.02061219551
21
71.7284553278865
31
0.00021471662731935
  0
LINE
 8
Layer0
10
2447.75265006553
20
112.728452069875
30
7.37681548696301e-005
11
2447.68450171628
21
112.210813979912
31
7.31435798560054e-005
  0
LINE
 8
Layer0
10
2165.68451532073
20
394.210738125144
30
0.000521880564116733
11
2165.48471447472
21
393.728376215766
31
0.00052135036034105
  0
LINE
 8
Layer0
10
2443.75265006553
20
112.728452084063
30
7.52885836005301e-005
11
2443.82079841479
21
113.246090174026
31
7.5913158433677e-005
  0
LINE
 8
Layer0
10
2403.23501188374
20
68.7966014139971
30
1.38070484331954e-005
11
2402.75264997436
21
68.9964022600115
31
1.42414731541363e-005
  0
LINE
 8
Layer0
10
2445.23501248256
20
354.660290637904
30
0.000461497623948259
11
2445.75265057301
21
354.728438983489
31
0.000461386503105565
  0
LINE
 8
Layer0
10
2444.33843649814
20
111.314238519614
30
7.32887817483652e-005
11
2444.02059925442
21
111.728452083114
31
7.39301065458109e-005
  0
LINE
 8
Layer0
10
2402.02059917248
20
71.7284530691039
30
1.79529019519897e-005
11
2402.33843641854
21
72.1426666308142
31
1.83526020540392e-005
  0
LINE
 8
Layer0
10
2444.75265007168
20
114.460502888084
30
7.70850196958772e-005
11
2445.23501198218
21
114.660303731382
31
7.71527458305055e-005
  0
LINE
 8
Layer0
10
2165.68451464145
20
70.2108172033899
30
0.000211416845309326
11
2165.48471379192
21
69.7284552954655
31
0.000210886641535052
  0
LINE
 8
Layer0
10
2445.23501198218
20
114.660303731382
30
7.71527458305055e-005
11
2445.75265007263
21
114.728452076967
31
7.70416249878114e-005
  0
LINE
 8
Layer0
10
2153.75266297287
20
60.7284554052757
30
0.000206974228732532
11
2153.75266369008
21
404.72837631297
31
0.000531107764166144
  0
LINE
 8
Layer0
10
2162.02061219551
20
71.7284553278865
30
0.00021471662731935
11
2162.33844944458
21
72.1426688872843
31
0.000215116327419285
  0
LINE
 8
Layer0
10
2403.23501189179
20
72.6603047191502
30
1.86622857550223e-005
11
2403.75264998214
21
72.728453065493
31
1.85511649137382e-005
  0
LINE
 8
Layer0
10
2447.16686362289
20
111.314238509581
30
7.22136761594549e-005
11
2446.75265005939
21
110.996401265855
31
7.1971718774283e-005
  0
LINE
 8
Layer0
10
2446.27028816259
20
114.66030372771
30
7.67592299614816e-005
11
2446.75265007168
21
114.460502880989
31
7.63248052405407e-005
  0
LINE
 8
Layer0
10
2163.23502558306
20
396.660227873031
30
0.000525889729726753
11
2163.7526636734
21
396.728376219374
31
0.000525778608885469
  0
LINE
 8
Layer0
10
2162.02061286375
20
395.728376222985
30
0.000525180346103493
11
2162.33845010981
21
396.142589784695
31
0.000525580046206248
  0
LINE
 8
Layer0
10
2162.75266367284
20
396.460427029028
30
0.000525822003771897
11
2163.23502558306
21
396.660227873031
31
0.000525889729726753
  0
LINE
 8
Layer0
10
2413.75265004469
20
102.728452190493
30
6.59822847807134e-005
11
2455.75265004469
21
102.728452041504
31
6.19962002220031e-005
  0
LINE
 8
Layer0
10
2402.02059985527
20
395.728373989236
30
0.000530102773261543
11
2402.33843710435
21
396.142587548634
31
0.000530502473180999
  0
LINE
 8
Layer0
10
2445.23501246886
20
350.79658733275
30
0.000456642386626432
11
2444.75265055977
21
350.99638817947
31
0.00045707681116619
  0
LINE
 8
Layer0
10
2413.75265058677
20
362.728439096996
30
0.000474444033294547
11
2455.75265058677
21
362.728438948008
31
0.000470457949096087
  0
LINE
 8
Layer0
10
2445.75265007263
20
114.728452076967
30
7.70416249878114e-005
11
2446.27028816259
21
114.66030372771
31
7.67592299614816e-005
  0
LINE
 8
Layer0
10
2413.75264995712
20
60.7284529719065
30
0.0
11
2153.75266297287
21
60.7284554052757
31
0.000206974228732532
  0
LINE
 8
Layer0
10
2402.33843641265
20
69.3142395060704
30
1.47983218533598e-005
11
2402.02059916832
21
69.7284530691056
31
1.54396464696227e-005
  0
LINE
 8
Layer0
10
2445.75265005844
20
110.728452076971
30
7.20151134816438e-005
11
2445.23501196848
21
110.796600426229
31
7.22975085086786e-005
  0
LINE
 8
Layer0
10
2163.23502492159
20
72.6603069690971
30
0.00021542601093415
11
2163.75266301244
21
72.7284553116738
31
0.000215314890090046
  0
LINE
 8
Layer0
10
2446.27028814889
20
110.796600422557
30
7.19039926403597e-005
11
2445.75265005844
21
110.728452076971
31
7.20151134816438e-005
  0
LINE
 8
Layer0
10
2164.270301102
20
72.6603069594071
30
0.000215032495060896
11
2164.75266300993
21
72.4605061098833
31
0.000214598070698796
  0
LINE
 8
Layer0
10
2162.33845010981
20
396.142589784695
30
0.000525580046206248
11
2162.75266367284
21
396.460427029028
31
0.000525822003771897
  0
LINE
 8
Layer0
10
2447.68450171995
20
113.246090160321
30
7.44445367959701e-005
11
2447.75265006553
21
112.728452069875
31
7.37681548696301e-005
  0
LINE
 8
Layer0
10
2447.48470137703
20
353.728438977347
30
0.000459471510042103
11
2447.68450222033
21
353.246077066844
31
0.000458789414913724
  0
LINE
 8
Layer0
10
2405.16686353739
20
69.314239500175
30
1.37232160867917e-005
11
2404.75264997436
21
68.9964022558429
31
1.34812587016198e-005
  0
LINE
 8
Layer0
10
2405.68450163163
20
71.2460911516727
30
1.59540767240118e-005
11
2405.75264997797
21
70.728453061326
31
1.52776947976718e-005
  0
LINE
 8
Layer0
10
2401.75265065348
20
394.728373991744
30
0.0005289479948346
11
2401.82079900575
21
395.246012081311
31
0.000529572569848225
  0
LINE
 8
Layer0
10
2405.75265065348
20
394.728373954308
30
0.000527427565543936
11
2405.68450230122
21
394.210735864741
31
0.000526802990710085
  0
LINE
 8
Layer0
10
2433.7526505242
20
132.72845219044
30
0.000116667963994499
11
2413.75265010723
21
132.72845219043
31
0.000124270109570807
  0
LINE
 8
Layer0
10
2162.33844944458
20
72.1426688872843
30
0.000215116327419285
11
2162.75266300993
21
72.4605061286028
31
0.000215358284983524
  0
LINE
 8
Layer0
10
2165.75266299371
20
70.7284552929565
30
0.000212041419961995
11
2165.68451464145
21
70.2108172033899
31
0.000211416845309326
  0
LINE
 8
Layer0
10
2446.75265005939
20
110.996401265855
30
7.1971718774283e-005
11
2446.27028814889
21
110.796600422557
31
7.19039926403597e-005
  0
LINE
 8
Layer0
10
2162.02061217679
20
69.7284553278886
30
0.000212203371656505
11
2161.82081133629
21
70.2108172395531
31
0.000212885466785589
  0
LINE
 8
Layer0
10
2165.48471379192
20
69.7284552954655
30
0.000210886641535052
11
2165.16687654285
21
69.3142417360677
31
0.000210486941435117
  0
LINE
 8
Layer0
10
2403.7526499738
20
68.7284530654963
30
1.35246534075706e-005
11
2403.23501188374
21
68.7966014139971
31
1.38070484331954e-005
  0
LINE
 8
Layer0
10
2164.27030176347
20
396.660227870873
30
0.000525496213859844
11
2164.75266367284
21
396.460427024858
31
0.000525061789138903
  0
LINE
 8
Layer0
10
2455.75265058677
20
362.728438948008
30
0.000470457949096087
11
2455.75265004469
21
102.728452041504
31
6.19962002220031e-005
  0
LINE
 8
Layer0
10
2403.23501258136
20
396.660225630447
30
0.00053081215669657
11
2403.7526506722
21
396.728373973024
31
0.000530701035851761
  0
LINE
 8
Layer0
10
2164.75266366562
20
392.996325409724
30
0.000520708702672645
11
2164.27030175541
21
392.79652456572
31
0.000520640976538017
  0
LINE
 8
Layer0
10
2164.75266367284
20
396.460427024858
30
0.000525061789138903
11
2165.16687723456
21
396.142589778799
31
0.000524504940440384
  0
LINE
 8
Layer0
10
2446.75265057206
20
354.460489787512
30
0.000460669683358295
11
2447.16686413331
21
354.142652540847
31
0.000460112834659071
  0
LINE
 8
Layer0
10
2443.75265056592
20
352.728438990585
30
0.000459633461718284
11
2443.82079891517
21
353.246077080548
31
0.000460258036551431
  0
LINE
 8
Layer0
10
2443.82079891517
20
353.246077080548
30
0.000460258036551431
11
2444.02059976189
21
353.728438989634
31
0.000460788240145932
  0
LINE
 8
Layer0
10
2164.75266300993
20
72.4605061098833
30
0.000214598070698796
11
2165.16687656932
21
72.142668860811
31
0.00021404122181698
  0
LINE
 8
Layer0
10
2405.6845023109
20
395.24601204515
30
0.000528103947830527
11
2405.75265065348
21
394.728373954308
31
0.000527427565543936
  0
LINE
 8
Layer0
10
2444.33843699853
20
351.314225426135
30
0.000457633659866119
11
2444.0205997548
21
351.728438989635
31
0.000458274984302609
  0
LINE
 8
Layer0
10
2402.75264997436
20
68.9964022600115
30
1.42414731541363e-005
11
2402.33843641265
21
69.3142395060704
31
1.47983218533598e-005
  0
LINE
 8
Layer0
10
2404.75264997436
20
68.9964022558429
30
1.34812587016198e-005
11
2404.27028806415
21
68.7966014118391
31
1.34135325662865e-005
  0
LINE
 8
Layer0
10
2405.48470078762
20
71.7284530618837
30
1.66361718523911e-005
11
2405.68450163163
21
71.2460911516727
31
1.59540767240118e-005
  0
LINE
 8
Layer0
10
2402.75265063727
20
392.996323174818
30
0.000526391344458754
11
2402.33843707787
21
393.31416042389
31
0.000526948192979615
  0
LINE
 8
Layer0
10
2413.75265010719
20
332.728439026193
30
0.00029240614821659
11
2433.75265052422
21
332.728439026075
31
0.000437321260522605
  0
LINE
 8
Layer0
10
2153.75266369008
20
404.72837631297
30
0.000531107764166144
11
2413.75265067433
21
404.728373879419
31
0.000540426216619916
  0
LINE
 8
Layer0
10
2444.0205997548
20
351.728438989635
30
0.000458274984302609
11
2443.8207989115
21
352.210800900138
31
0.000458957079612171
  0
LINE
 8
Layer0
10
2444.75265055977
20
350.99638817947
30
0.00045707681116619
11
2444.33843699853
21
351.314225426135
31
0.000457633659866119
  0
LINE
 8
Layer0
10
2447.16686412327
20
351.314225416103
30
0.000456558554277209
11
2446.75265055977
21
350.996388172377
31
0.000456316596711559
  0
LINE
 8
Layer0
10
2405.48470145169
20
393.728373956816
30
0.000526272787116289
11
2405.16686420262
21
393.314160397418
31
0.000525873087196832
  0
LINE
 8
Layer0
10
2405.16686354329
20
72.1426666249189
30
1.72774962881761e-005
11
2405.48470078762
21
71.7284530618837
31
1.66361718523911e-005
  0
LINE
 8
Layer0
10
2165.48471447472
20
393.728376215766
30
0.00052135036034105
11
2165.16687722866
21
393.314162654056
31
0.000520950660419478
  0
LINE
 8
Layer0
10
2401.82079900575
20
395.246012081311
30
0.000529572569848225
11
2402.02059985527
21
395.728373989236
31
0.000530102773261543
  0
LINE
 8
Layer0
10
2403.75264998214
20
72.728453065493
30
1.85511649137382e-005
11
2404.2702880722
21
72.6603047169923
31
1.82687698881134e-005
  0
LINE
 8
Layer0
10
2165.68451532289
20
395.246014305553
30
0.000523181521056698
11
2165.75266366923
21
394.728376215206
31
0.000522505138770107
  0
LINE
 8
Layer0
10
2405.16686420262
20
393.314160397418
30
0.000525873087196832
11
2404.75265063727
21
392.996323156099
31
0.000525631129633297
  0
LINE
 8
Layer0
10
2402.33843707787
20
393.31416042389
30
0.000526948192979615
11
2402.02059983655
21
393.728373989237
31
0.000527589517598698
  0
LINE
 8
COMPONENT0
10
2438.90758970224
20
221.524943075092
30
0.000248451883420671
11
2438.95614869584
21
222.299171192262
31
0.00024940634239782
  0
LINE
 8
COMPONENT0
10
2438.95614869584
20
222.299171192262
30
0.00024940634239782
11
2439.10182567665
21
222.979944305406
31
0.000250206447962667
  0
LINE
 8
COMPONENT0
10
2439.10182567665
20
222.979944305406
30
0.000250206447962667
11
2439.34462064466
21
223.567262414523
31
0.00025085220011521
  0
LINE
 8
COMPONENT0
10
2439.34462064466
20
223.567262414523
30
0.00025085220011521
11
2439.68453359988
21
224.061125519614
31
0.000251343598855452
  0
LINE
 8
COMPONENT0
10
2439.68453359988
20
224.061125519614
30
0.000251343598855452
11
2440.11607705796
21
224.452369172308
31
0.000251671213715147
  0
LINE
 8
COMPONENT0
10
2440.11607705796
20
224.452369172308
30
0.000251671213715147
11
2440.63376353456
21
224.731828924231
31
0.000251825614226051
  0
LINE
 8
COMPONENT0
10
2440.63376353456
20
224.731828924231
30
0.000251825614226051
11
2441.23759302968
21
224.899504775386
31
0.000251806800388166
  0
LINE
 8
COMPONENT0
10
2441.23759302968
20
224.899504775386
30
0.000251806800388166
11
2441.92756554333
21
224.955396725771
31
0.00025161477220149
  0
LINE
 8
COMPONENT0
10
2441.92756554333
20
224.955396725771
30
0.00025161477220149
11
2442.63119385399
21
224.867429206087
31
0.000251236775532531
  0
LINE
 8
COMPONENT0
10
2442.63119385399
20
224.867429206087
30
0.000251236775532531
11
2443.30551829923
21
224.603526647032
31
0.000250648832607984
  0
LINE
 8
COMPONENT0
10
2443.30551829923
20
224.603526647032
30
0.000250648832607984
11
2443.65011833502
21
224.361601987047
31
0.000250213838367747
  0
LINE
 8
COMPONENT0
10
2443.65011833502
20
224.361601987047
30
0.000250213838367747
11
2443.86262728277
21
224.163744972015
31
0.000249884429539471
  0
LINE
 8
COMPONENT0
10
2443.86262728277
20
224.163744972015
30
0.000249884429539471
11
2443.95059480245
21
224.075721528923
31
0.000249740379737044
  0
LINE
 8
COMPONENT0
10
2443.95059480245
20
224.075721528923
30
0.000249740379737044
11
2443.994606524
21
224.031765730784
31
0.000249668414482295
  0
LINE
 8
COMPONENT0
10
2443.994606524
20
224.031765730784
30
0.000249668414482295
11
2444.08990001004
21
223.914494345673
31
0.000249484826248718
  0
LINE
 8
COMPONENT0
10
2444.08990001004
20
223.914494345673
30
0.000249484826248718
11
2444.30240895779
21
223.635939853906
31
0.00024905401072487
  0
LINE
 8
COMPONENT0
10
2444.30240895779
20
223.635939853906
30
0.00024905401072487
11
2444.74224655621
21
223.284125698573
31
0.00024844472579611
  0
LINE
 8
COMPONENT0
10
2444.74224655621
20
223.284125698573
30
0.00024844472579611
11
2445.12336457697
21
223.166854313463
31
0.000248152493579437
  0
LINE
 8
COMPONENT0
10
2445.12336457697
20
223.166854313463
30
0.000248152493579437
11
2445.65116969508
21
223.284069775167
31
0.000248099167229814
  0
LINE
 8
COMPONENT0
10
2445.65116969508
20
223.284069775167
30
0.000248099167229814
11
2447.64495101219
21
224.398287742239
31
0.000248741473772783
  0
LINE
 8
COMPONENT0
10
2447.64495101219
20
224.398287742239
30
0.000248741473772783
11
2448.26066772657
21
224.662134377887
31
0.000248838992401273
  0
LINE
 8
COMPONENT0
10
2448.26066772657
20
224.662134377887
30
0.000248838992401273
11
2448.46589265052
21
224.612656143278
31
0.000248698809189157
  0
LINE
 8
COMPONENT0
10
2448.46589265052
20
224.612656143278
30
0.000248698809189157
11
2448.61248188191
21
224.464221439448
31
0.000248456562376175
  0
LINE
 8
COMPONENT0
10
2448.61248188191
20
224.464221439448
30
0.000248456562376175
11
2448.70043542074
21
224.216830266399
31
0.000248112251962325
  0
LINE
 8
COMPONENT0
10
2448.70043542074
20
224.216830266399
30
0.000248112251962325
11
2448.72975326702
21
223.87048262413
31
0.000247665877947609
  0
LINE
 8
COMPONENT0
10
2448.72975326702
20
223.87048262413
30
0.000247665877947609
11
2448.72975326702
21
223.548028257631
31
0.000247260672814781
  0
LINE
 8
COMPONENT0
10
2448.72975326702
20
223.548028257631
30
0.000247260672814781
11
2448.69310246396
21
223.194340668154
31
0.000246830150381178
  0
LINE
 8
COMPONENT0
10
2448.69310246396
20
223.194340668154
30
0.000246830150381178
11
2448.58315005478
21
222.895625788054
31
0.000246496570657669
  0
LINE
 8
COMPONENT0
10
2448.58315005478
20
222.895625788054
30
0.000246496570657669
11
2448.39989603948
21
222.651883617331
31
0.000246259933644254
  0
LINE
 8
COMPONENT0
10
2448.39989603948
20
222.651883617331
30
0.000246259933644254
11
2448.14334041806
21
222.463114155985
31
0.000246120239340933
  0
LINE
 8
COMPONENT0
10
2448.14334041806
20
222.463114155985
30
0.000246120239340933
11
2446.73597194991
21
221.671574249041
31
0.000245660519244334
  0
LINE
 8
COMPONENT0
10
2446.73597194991
20
221.671574249041
30
0.000245660519244334
11
2445.84908263352
21
221.136443164574
31
0.000245325171702925
  0
LINE
 8
COMPONENT0
10
2445.84908263352
20
221.136443164574
30
0.000245325171702925
11
2445.32127751541
21
220.711313422269
31
0.0002449915643964
  0
LINE
 8
COMPONENT0
10
2445.32127751541
20
220.711313422269
30
0.0002449915643964
11
2445.07208281247
21
220.293509646321
31
0.0002445612612593
  0
LINE
 8
COMPONENT0
10
2445.07208281247
20
220.293509646321
30
0.0002445612612593
11
2445.00614911527
21
219.795008393637
31
0.00024395989258636
  0
LINE
 8
COMPONENT0
10
2445.00614911527
20
219.795008393637
30
0.00024395989258636
11
2445.08128221298
21
219.269076709672
31
0.000243270433555855
  0
LINE
 8
COMPONENT0
10
2445.08128221298
20
219.269076709672
30
0.000243270433555855
11
2445.3066815061
21
218.893411221125
31
0.000242712685936289
  0
LINE
 8
COMPONENT0
10
2445.3066815061
20
218.893411221125
30
0.000242712685936289
11
2445.68234699465
21
218.668011927998
31
0.000242286649727662
  0
LINE
 8
COMPONENT0
10
2445.68234699465
20
218.668011927998
30
0.000242286649727662
11
2446.20827867862
21
218.592878830289
31
0.000241992324929975
  0
LINE
 8
COMPONENT0
10
2446.20827867862
20
218.592878830289
30
0.000241992324929975
11
2447.85018991698
21
218.59287883029
31
0.000241368222534412
  0
LINE
 8
COMPONENT0
10
2447.85018991698
20
218.59287883029
30
0.000241368222534412
11
2448.23499888263
21
218.528657787431
31
0.000241141251899552
  0
LINE
 8
COMPONENT0
10
2448.23499888263
20
218.528657787431
30
0.000241141251899552
11
2448.50986242951
21
218.335994658852
31
0.000240794668417228
  0
LINE
 8
COMPONENT0
10
2448.50986242951
20
218.335994658852
30
0.000240794668417228
11
2448.67478055764
21
218.014889444554
31
0.000240328472087438
  0
LINE
 8
COMPONENT0
10
2448.67478055764
20
218.014889444554
30
0.000240328472087438
11
2448.72975326702
21
217.565342144536
31
0.000239742662910184
  0
LINE
 8
COMPONENT0
10
2448.72975326702
20
217.565342144536
30
0.000239742662910184
11
2448.67294906605
21
217.082723139526
31
0.000239157782123894
  0
LINE
 8
COMPONENT0
10
2448.67294906605
20
217.082723139526
30
0.000239157782123894
11
2448.50253646315
21
216.779953812396
31
0.000238842088828462
  0
LINE
 8
COMPONENT0
10
2448.50253646315
20
216.779953812396
30
0.000238842088828462
11
2448.16720573212
21
216.620320446254
31
0.000238768950745132
  0
LINE
 8
COMPONENT0
10
2448.16720573212
20
216.620320446254
30
0.000238768950745132
11
2447.61564714676
21
216.567109324207
31
0.000238911735595149
  0
LINE
 8
COMPONENT0
10
2447.61564714676
20
216.567109324207
30
0.000238911735595149
11
2439.78715305227
21
216.567109324202
31
0.000241887403100097
  0
LINE
 8
COMPONENT0
10
2439.78715305227
20
216.567109324202
30
0.000241887403100097
11
2439.40234408663
21
216.618488954659
31
0.000242098236858678
  0
LINE
 8
COMPONENT0
10
2439.40234408663
20
216.618488954659
30
0.000242098236858678
11
2439.12748053975
21
216.772627846033
31
0.000242396409712165
  0
LINE
 8
COMPONENT0
10
2439.12748053975
20
216.772627846033
30
0.000242396409712165
11
2438.96256241162
21
217.029525998324
31
0.000242781921660559
  0
LINE
 8
COMPONENT0
10
2438.96256241162
20
217.029525998324
30
0.000242781921660559
11
2438.90758970224
21
217.38918341153
31
0.000243254772703859
  0
LINE
 8
COMPONENT0
10
2438.90758970224
20
217.38918341153
30
0.000243254772703859
11
2438.90758970224
21
221.524943075092
31
0.000248451883420671
  0
LINE
 8
COMPONENT0
10
2438.90758970224
20
221.524943075092
30
0.000248451883420671
11
2438.90758970224
21
221.524943075092
31
0.000248451883420671
  0
LINE
 8
COMPONENT0
10
2439.14425756194
20
228.093706496705
30
0.000256616415211642
11
2439.60975002346
21
228.007584449461
31
0.000256331254781818
  0
LINE
 8
COMPONENT0
10
2439.60975002346
20
228.007584449461
30
0.000256331254781818
11
2439.89200944096
21
227.749218307729
31
0.000255899295840071
  0
LINE
 8
COMPONENT0
10
2439.89200944096
20
227.749218307729
30
0.000255899295840071
11
2440.03499161258
21
227.369889836004
31
0.000255368272560796
  0
LINE
 8
COMPONENT0
10
2440.03499161258
20
227.369889836004
30
0.000255368272560796
11
2440.08265233645
21
226.920880798782
31
0.00025478591911839
  0
LINE
 8
COMPONENT0
10
2440.08265233645
20
226.920880798782
30
0.00025478591911839
11
2440.02033967987
21
226.374816688188
31
0.000254123405250375
  0
LINE
 8
COMPONENT0
10
2440.02033967987
20
226.374816688188
30
0.000254123405250375
11
2439.83340171011
21
226.026665516034
31
0.000253756965277282
  0
LINE
 8
COMPONENT0
10
2439.83340171011
20
226.026665516034
30
0.000253756965277282
11
2439.55114229261
21
225.839769488833
31
0.000253629395383168
  0
LINE
 8
COMPONENT0
10
2439.55114229261
20
225.839769488833
30
0.000253629395383168
11
2439.20286529279
21
225.777470813099
31
0.000253683491752091
  0
LINE
 8
COMPONENT0
10
2439.20286529279
20
225.777470813099
30
0.000253683491752091
11
2438.74653028921
21
225.861761368753
31
0.000253962869862278
  0
LINE
 8
COMPONENT0
10
2438.74653028921
20
225.861761368753
30
0.000253962869862278
11
2438.46243938012
21
226.114633035718
31
0.000254388620457353
  0
LINE
 8
COMPONENT0
10
2438.46243938012
20
226.114633035718
30
0.000254388620457353
11
2438.31396273373
21
226.484776087793
31
0.000254910189572404
  0
LINE
 8
COMPONENT0
10
2438.31396273373
20
226.484776087793
30
0.000254910189572404
11
2438.26447051827
21
226.920880798781
31
0.000255477023242522
  0
LINE
 8
COMPONENT0
10
2438.26447051827
20
226.920880798781
30
0.000255477023242522
11
2438.32678317486
21
227.470621873405
31
0.00025614415768589
  0
LINE
 8
COMPONENT0
10
2438.32678317486
20
227.470621873405
30
0.00025614415768589
11
2438.51372114461
21
227.829803937649
31
0.000256524459385041
  0
LINE
 8
COMPONENT0
10
2438.51372114461
20
227.829803937649
30
0.000256524459385041
11
2438.79598056212
21
228.027730856941
31
0.000256665891005212
  0
LINE
 8
COMPONENT0
10
2438.79598056212
20
228.027730856941
30
0.000256665891005212
11
2439.14425756194
21
228.093706496705
31
0.000256616415211642
  0
LINE
 8
COMPONENT0
10
2440.93000380388
20
227.18472743443
30
0.000254795391693664
11
2441.01063137636
21
227.5952262153
31
0.000255280588762084
  0
LINE
 8
COMPONENT0
10
2441.01063137636
20
227.5952262153
30
0.000255280588762084
11
2441.25251409379
21
227.888439630207
31
0.00025555710752222
  0
LINE
 8
COMPONENT0
10
2441.25251409379
20
227.888439630207
30
0.00025555710752222
11
2441.65565195617
21
228.064367679151
31
0.000255624947974073
  0
LINE
 8
COMPONENT0
10
2441.65565195617
20
228.064367679151
30
0.000255624947974073
11
2442.22004496351
21
228.123010362133
31
0.000255484110117642
  0
LINE
 8
COMPONENT0
10
2442.22004496351
20
228.123010362133
30
0.000255484110117642
11
2447.70288766215
21
228.123010362136
31
0.000253400041757091
  0
LINE
 8
COMPONENT0
10
2447.70288766215
20
228.123010362136
30
0.000253400041757091
11
2448.16466820752
21
228.049708756016
31
0.000253132402776766
  0
LINE
 8
COMPONENT0
10
2448.16466820752
20
228.049708756016
30
0.000253132402776766
11
2448.4945114542
21
227.829803937656
31
0.000252730688445256
  0
LINE
 8
COMPONENT0
10
2448.4945114542
20
227.829803937656
30
0.000252730688445256
11
2448.69241740222
21
227.463295907055
31
0.000252194898762559
  0
LINE
 8
COMPONENT0
10
2448.69241740222
20
227.463295907055
30
0.000252194898762559
11
2448.75838605156
21
226.950184664214
31
0.000251525033728678
  0
LINE
 8
COMPONENT0
10
2448.75838605156
20
226.950184664214
30
0.000251525033728678
11
2448.67775847908
21
226.336355364823
31
0.000250784325870747
  0
LINE
 8
COMPONENT0
10
2448.67775847908
20
226.336355364823
30
0.000250784325870747
11
2448.43587576165
21
225.990035684257
31
0.000250441072298911
  0
LINE
 8
COMPONENT0
10
2448.43587576165
20
225.990035684257
30
0.000250441072298911
11
2448.03273789927
21
225.830612030893
31
0.000250393971729962
  0
LINE
 8
COMPONENT0
10
2448.03273789927
20
225.830612030893
30
0.000250393971729962
11
2447.46834489193
21
225.777470813104
31
0.000250541722880695
  0
LINE
 8
COMPONENT0
10
2447.46834489193
20
225.777470813104
30
0.000250541722880695
11
2441.98550219329
21
225.777470813101
31
0.000252625791241246
  0
LINE
 8
COMPONENT0
10
2441.98550219329
20
225.777470813101
30
0.000252625791241246
11
2441.55122897389
21
225.837937997245
31
0.000252866846395125
  0
LINE
 8
COMPONENT0
10
2441.55122897389
20
225.837937997245
30
0.000252866846395125
11
2441.21588426201
21
226.019339549678
31
0.000253222267597795
  0
LINE
 8
COMPONENT0
10
2441.21588426201
20
226.019339549678
30
0.000253222267597795
11
2441.00147391841
21
226.299697571331
31
0.000253656072221882
  0
LINE
 8
COMPONENT0
10
2441.00147391841
20
226.299697571331
30
0.000253656072221882
11
2440.93000380388
21
226.657034163135
31
0.000254132277640011
  0
LINE
 8
COMPONENT0
10
2440.93000380388
20
226.657034163135
30
0.000254132277640011
11
2440.93000380388
21
227.18472743443
31
0.000254795391693664
  0
LINE
 8
COMPONENT0
10
2440.93000380388
20
227.18472743443
30
0.000254795391693664
11
2440.93000380388
21
227.18472743443
31
0.000254795391693664
  0
LINE
 8
COMPONENT0
10
2448.27610258699
20
235.936516983462
30
0.00026300082851609
11
2448.92296863924
21
235.89253322362
31
0.000262699678811073
  0
LINE
 8
COMPONENT0
10
2448.92296863924
20
235.89253322362
30
0.000262699678811073
11
2449.4856140401
21
235.760581944093
31
0.000262319999553878
  0
LINE
 8
COMPONENT0
10
2449.4856140401
20
235.760581944093
30
0.000262319999553878
11
2449.96410869382
21
235.527842703757
31
0.0002618456536502
  0
LINE
 8
COMPONENT0
10
2449.96410869382
20
235.527842703757
30
0.0002618456536502
11
2450.35852250467
21
235.181495061488
31
0.000261260504005734
  0
LINE
 8
COMPONENT0
10
2450.35852250467
20
235.181495061488
30
0.000261260504005734
11
2450.66685621082
21
234.710550067752
31
0.000260551501534551
  0
LINE
 8
COMPONENT0
10
2450.66685621082
20
234.710550067752
30
0.000260551501534551
11
2450.88711055048
21
234.104018773014
31
0.000259705597150722
  0
LINE
 8
COMPONENT0
10
2450.88711055048
20
234.104018773014
30
0.000259705597150722
11
2451.01927154279
21
233.352715757625
31
0.000258711253514451
  0
LINE
 8
COMPONENT0
10
2451.01927154279
20
233.352715757625
30
0.000258711253514451
11
2451.06332520689
21
232.447455601935
31
0.000257556933285944
  0
LINE
 8
COMPONENT0
10
2451.06332520689
20
232.447455601935
30
0.000257556933285944
11
2451.01560855961
21
231.555015887368
31
0.000256453606142993
  0
LINE
 8
COMPONENT0
10
2451.01560855961
20
231.555015887368
30
0.000256453606142993
11
2450.87245861777
21
230.84217419535
31
0.000255612241763389
  0
LINE
 8
COMPONENT0
10
2450.87245861777
20
230.84217419535
30
0.000255612241763389
11
2450.6632351702
21
230.285093173518
31
0.000254991725597483
  0
LINE
 8
COMPONENT0
10
2450.6632351702
20
230.285093173518
30
0.000254991725597483
11
2450.41729800574
21
229.85993546951
31
0.000254550943095627
  0
LINE
 8
COMPONENT0
10
2450.41729800574
20
229.85993546951
30
0.000254550943095627
11
2450.14388846745
21
229.555726114642
31
0.000254272590105008
  0
LINE
 8
COMPONENT0
10
2450.14388846745
20
229.555726114642
30
0.000254272590105008
11
2449.85224789837
21
229.361490140233
31
0.000254139362472816
  0
LINE
 8
COMPONENT0
10
2449.85224789837
20
229.361490140233
30
0.000254139362472816
11
2449.33160097639
21
229.222240856052
31
0.000254162279625399
  0
LINE
 8
COMPONENT0
10
2449.33160097639
20
229.222240856052
30
0.000254162279625399
11
2449.0750803071
21
229.284539531786
31
0.00025433807124634
  0
LINE
 8
COMPONENT0
10
2449.0750803071
20
229.284539531786
30
0.00025433807124634
11
2448.89181930138
21
229.471435558986
31
0.000254642588836853
  0
LINE
 8
COMPONENT0
10
2448.89181930138
20
229.471435558986
30
0.000254642588836853
11
2448.78184592092
21
229.775630933002
31
0.000255066650892694
  0
LINE
 8
COMPONENT0
10
2448.78184592092
20
229.775630933002
30
0.000255066650892694
11
2448.74518812743
21
230.189827649179
31
0.000255601075909623
  0
LINE
 8
COMPONENT0
10
2448.74518812743
20
230.189827649179
30
0.000255601075909623
11
2448.79100337886
21
230.583794072765
31
0.000256078730373938
  0
LINE
 8
COMPONENT0
10
2448.79100337886
20
230.583794072765
30
0.000256078730373938
11
2448.92844913316
21
230.856826128062
31
0.000256369585924581
  0
LINE
 8
COMPONENT0
10
2448.92844913316
20
230.856826128062
30
0.000256369585924581
11
2449.33160097639
21
231.259977971297
31
0.00025672295680715
  0
LINE
 8
COMPONENT0
10
2449.33160097639
20
231.259977971297
30
0.00025672295680715
11
2449.73475281963
21
231.721737545385
31
0.00025714997579572
  0
LINE
 8
COMPONENT0
10
2449.73475281963
20
231.721737545385
30
0.00025714997579572
11
2449.87219857392
21
232.06805722595
31
0.00025753292661632
  0
LINE
 8
COMPONENT0
10
2449.87219857392
20
232.06805722595
30
0.00025753292661632
11
2449.91801382536
21
232.564671063637
31
0.000258139570678503
  0
LINE
 8
COMPONENT0
10
2449.91801382536
20
232.564671063637
30
0.000258139570678503
11
2449.8245518309
21
233.1602833131
31
0.000258923559194122
  0
LINE
 8
COMPONENT0
10
2449.8245518309
20
233.1602833131
30
0.000258923559194122
11
2449.54416584755
21
233.627551342806
31
0.000259617317957384
  0
LINE
 8
COMPONENT0
10
2449.54416584755
20
233.627551342806
30
0.000259617317957384
11
2449.12083963513
21
233.929873282677
31
0.000260158133492693
  0
LINE
 8
COMPONENT0
10
2449.12083963513
20
233.929873282677
30
0.000260158133492693
11
2448.59855695349
21
234.030647262633
31
0.000260483292324449
  0
LINE
 8
COMPONENT0
10
2448.59855695349
20
234.030647262633
30
0.000260483292324449
11
2448.23389439533
21
233.990340466821
31
0.00026057125257167
  0
LINE
 8
COMPONENT0
10
2448.23389439533
20
233.990340466821
30
0.00026057125257167
11
2447.99016620546
21
233.869420079383
31
0.000260511943503312
  0
LINE
 8
COMPONENT0
10
2447.99016620546
20
233.869420079383
30
0.000260511943503312
11
2447.85272045116
21
233.653206205904
31
0.00026029248726154
  0
LINE
 8
COMPONENT0
10
2447.85272045116
20
233.653206205904
30
0.00026029248726154
11
2447.80690519973
21
233.327018951968
31
0.000259900005988517
  0
LINE
 8
COMPONENT0
10
2447.80690519973
20
233.327018951968
30
0.000259900005988517
11
2447.83626498856
21
233.048520383607
31
0.00025953887706606
  0
LINE
 8
COMPONENT0
10
2447.83626498856
20
233.048520383607
30
0.00025953887706606
11
2447.90958057554
21
232.616008751539
31
0.000258967503122263
  0
LINE
 8
COMPONENT0
10
2447.90958057554
20
232.616008751539
30
0.000258967503122263
11
2447.9828402391
21
232.124889388619
31
0.000258322502329358
  0
LINE
 8
COMPONENT0
10
2447.9828402391
20
232.124889388619
30
0.000258322502329358
11
2448.01214410453
21
231.685107713601
31
0.00025775872182247
  0
LINE
 8
COMPONENT0
10
2448.01214410453
20
231.685107713601
30
0.00025775872182247
11
2447.94068797085
21
231.029098184253
31
0.000256961522982893
  0
LINE
 8
COMPONENT0
10
2447.94068797085
20
231.029098184253
30
0.000256961522982893
11
2447.72631956981
21
230.468326217539
31
0.000256338324307117
  0
LINE
 8
COMPONENT0
10
2447.72631956981
20
230.468326217539
30
0.000256338324307117
11
2447.39100281963
21
229.999170772836
31
0.000255876226849744
  0
LINE
 8
COMPONENT0
10
2447.39100281963
20
229.999170772836
30
0.000255876226849744
11
2446.95670163853
21
229.618010809522
31
0.000255562331665379
  0
LINE
 8
COMPONENT0
10
2446.95670163853
20
229.618010809522
30
0.000255562331665379
11
2446.43626442933
21
229.324832346744
31
0.000255391737413993
  0
LINE
 8
COMPONENT0
10
2446.43626442933
20
229.324832346744
30
0.000255391737413993
11
2445.84253959486
21
229.119621403652
31
0.000255359542755558
  0
LINE
 8
COMPONENT0
10
2445.84253959486
20
229.119621403652
30
0.000255359542755558
11
2445.19749105335
21
228.998701016214
31
0.000255452778469767
  0
LINE
 8
COMPONENT0
10
2445.19749105335
20
228.998701016214
30
0.000255452778469767
11
2444.523082723
21
228.958394220401
31
0.000255658475336314
  0
LINE
 8
COMPONENT0
10
2444.523082723
20
228.958394220401
30
0.000255658475336314
11
2443.76442577955
21
229.00787245501
31
0.000256009022081539
  0
LINE
 8
COMPONENT0
10
2443.76442577955
20
229.00787245501
30
0.000256009022081539
11
2443.07175845671
21
229.15630715884
31
0.000256458837146125
  0
LINE
 8
COMPONENT0
10
2443.07175845671
20
229.15630715884
30
0.000256458837146125
11
2442.45971870635
21
229.398189876269
31
0.000256995434459511
  0
LINE
 8
COMPONENT0
10
2442.45971870635
20
229.398189876269
30
0.000256995434459511
11
2441.94294448033
21
229.72801215168
31
0.000257606327951138
  0
LINE
 8
COMPONENT0
10
2441.94294448033
20
229.72801215168
30
0.000257606327951138
11
2441.52512672353
21
230.145801946776
31
0.000258290149803484
  0
LINE
 8
COMPONENT0
10
2441.52512672353
20
230.145801946776
30
0.000258290149803484
11
2441.20995638083
21
230.651587223261
31
0.000259045532199028
  0
LINE
 8
COMPONENT0
10
2441.20995638083
20
230.651587223261
30
0.000259045532199028
11
2441.0120714041
21
231.24349454699
31
0.00025986455693638
  0
LINE
 8
COMPONENT0
10
2441.0120714041
20
231.24349454699
30
0.00025986455693638
11
2440.94610974518
21
231.919650483818
31
0.000260739305814149
  0
LINE
 8
COMPONENT0
10
2440.94610974518
20
231.919650483818
30
0.000260739305814149
11
2441.00471747604
21
232.462051611234
31
0.000261398624944739
  0
LINE
 8
COMPONENT0
10
2441.00471747604
20
232.462051611234
30
0.000261398624944739
11
2441.1293148275
21
232.967822906867
31
0.000261986830874651
  0
LINE
 8
COMPONENT0
10
2441.1293148275
20
232.967822906867
30
0.000261986830874651
11
2441.24658621262
21
233.414930548241
31
0.000262504103076711
  0
LINE
 8
COMPONENT0
10
2441.24658621262
20
233.414930548241
30
0.000262504103076711
11
2441.29786797711
21
233.796104492407
31
0.000262963604293946
  0
LINE
 8
COMPONENT0
10
2441.29786797711
20
233.796104492407
30
0.000262963604293946
11
2441.27589007804
21
234.067333017818
31
0.00026331279156811
  0
LINE
 8
COMPONENT0
10
2441.27589007804
20
234.067333017818
30
0.00026331279156811
11
2441.22460831355
21
234.31658364416
31
0.000263645499414761
  0
LINE
 8
COMPONENT0
10
2441.22460831355
20
234.31658364416
30
0.000263645499414761
11
2441.17332654905
21
234.595138135928
31
0.000264015031314413
  0
LINE
 8
COMPONENT0
10
2441.17332654905
20
234.595138135928
30
0.000264015031314413
11
2441.15134864998
21
234.96893019033
31
0.00026449310277408
  0
LINE
 8
COMPONENT0
10
2441.15134864998
20
234.96893019033
30
0.00026449310277408
11
2441.21731030889
21
235.447229112126
31
0.000265069074007224
  0
LINE
 8
COMPONENT0
10
2441.21731030889
20
235.447229112126
30
0.000265069074007224
11
2441.41519528563
21
235.738604045018
31
0.00026536000634071
  0
LINE
 8
COMPONENT0
10
2441.41519528563
20
235.738604045018
30
0.00026536000634071
11
2441.8109932008
21
235.887038748848
31
0.000265396087857066
  0
LINE
 8
COMPONENT0
10
2441.8109932008
20
235.887038748848
30
0.000265396087857066
11
2442.47069367503
21
235.936516983458
31
0.000265207506638821
  0
LINE
 8
COMPONENT0
10
2442.47069367503
20
235.936516983458
30
0.000265207506638821
11
2448.27610258699
21
235.936516983462
31
0.00026300082851609
  0
LINE
 8
COMPONENT0
10
2447.79147033931
20
243.531922316312
30
0.000272729638523888
11
2448.19834108913
21
243.465946676548
31
0.000272492077169199
  0
LINE
 8
COMPONENT0
10
2448.19834108913
20
243.465946676548
30
0.000272492077169199
11
2448.48055856408
21
243.268019757257
31
0.000272136083779436
  0
LINE
 8
COMPONENT0
10
2448.48055856408
20
243.268019757257
30
0.000272136083779436
11
2448.65280265857
21
242.960147419212
31
0.000271683731597239
  0
LINE
 8
COMPONENT0
10
2448.65280265857
20
242.960147419212
30
0.000271683731597239
11
2448.72975326702
21
242.564335523185
31
0.000271157093865248
  0
LINE
 8
COMPONENT0
10
2448.72975326702
20
242.564335523185
30
0.000271157093865248
11
2448.68943249035
21
242.060395719141
31
0.00027053915530002
  0
LINE
 8
COMPONENT0
10
2448.68943249035
20
242.060395719141
30
0.00027053915530002
11
2448.50986242951
21
241.750705870358
31
0.000270218246300761
  0
LINE
 8
COMPONENT0
10
2448.50986242951
20
241.750705870358
30
0.000270218246300761
11
2448.20566705549
21
241.591282216994
31
0.000270133536972843
  0
LINE
 8
COMPONENT0
10
2448.20566705549
20
241.591282216994
30
0.000270133536972843
11
2447.79147033931
21
241.538140999205
31
0.000270224197421638
  0
LINE
 8
COMPONENT0
10
2447.79147033931
20
241.538140999205
30
0.000270224197421638
11
2446.09095137009
21
241.56744486463
31
0.000270907401094676
  0
LINE
 8
COMPONENT0
10
2446.09095137009
20
241.56744486463
30
0.000270907401094676
11
2445.20218861956
21
241.475828342618
31
0.000271130098404115
  0
LINE
 8
COMPONENT0
10
2445.20218861956
20
241.475828342618
30
0.000271130098404115
11
2444.55898555048
21
241.200978776583
31
0.000271029200950218
  0
LINE
 8
COMPONENT0
10
2444.55898555048
20
241.200978776583
30
0.000271029200950218
11
2444.16866812922
21
240.794177931021
31
0.000270666366172675
  0
LINE
 8
COMPONENT0
10
2444.16866812922
20
240.794177931021
30
0.000270666366172675
11
2444.03856232213
21
240.306707570428
31
0.000270103251511178
  0
LINE
 8
COMPONENT0
10
2444.03856232213
20
240.306707570428
30
0.000270103251511178
11
2444.17416260399
21
239.753289531774
31
0.000269356268346072
  0
LINE
 8
COMPONENT0
10
2444.17416260399
20
239.753289531774
30
0.000269356268346072
11
2444.58096344955
21
239.324468844588
31
0.000268662772375703
  0
LINE
 8
COMPONENT0
10
2444.58096344955
20
239.324468844588
30
0.000268662772375703
11
2445.20768309432
21
239.049577335999
31
0.000268079115361943
  0
LINE
 8
COMPONENT0
10
2445.20768309432
20
239.049577335999
30
0.000268079115361943
11
2446.00303977382
21
238.957946833136
31
0.000267661649066661
  0
LINE
 8
COMPONENT0
10
2446.00303977382
20
238.957946833136
30
0.000267661649066661
11
2447.79147033931
21
238.928642967711
31
0.000266945029556913
  0
LINE
 8
COMPONENT0
10
2447.79147033931
20
238.928642967711
30
0.000266945029556913
11
2448.20566705549
21
238.868077917604
31
0.000266711482646737
  0
LINE
 8
COMPONENT0
10
2448.20566705549
20
238.868077917604
30
0.000266711482646737
11
2448.50986242951
21
238.686382767282
31
0.000266367532590513
  0
LINE
 8
COMPONENT0
10
2448.50986242951
20
238.686382767282
30
0.000266367532590513
11
2448.68943249035
21
238.376259512093
31
0.000265909567190116
  0
LINE
 8
COMPONENT0
10
2448.68943249035
20
238.376259512093
30
0.000265909567190116
11
2448.72975326702
21
237.930410147383
31
0.000265333974247425
  0
LINE
 8
COMPONENT0
10
2448.72975326702
20
237.930410147383
30
0.000265333974247425
11
2448.6637916081
21
237.475333420469
31
0.000264787184670785
  0
LINE
 8
COMPONENT0
10
2448.6637916081
20
237.475333420469
30
0.000264787184670785
11
2448.49521049679
21
237.16705563772
31
0.000264463873133422
  0
LINE
 8
COMPONENT0
10
2448.49521049679
20
237.16705563772
30
0.000264463873133422
11
2448.16537424053
21
236.990896904721
31
0.000264367880324302
  0
LINE
 8
COMPONENT0
10
2448.16537424053
20
236.990896904721
30
0.000264367880324302
11
2447.61564714676
21
236.932177327054
31
0.00026450304693239
  0
LINE
 8
COMPONENT0
10
2447.61564714676
20
236.932177327054
30
0.00026450304693239
11
2439.55261028205
21
236.932177327049
31
0.00026756786584902
  0
LINE
 8
COMPONENT0
10
2439.55261028205
20
236.932177327049
30
0.00026756786584902
11
2439.14211150118
21
236.990917875992
31
0.000267797714428159
  0
LINE
 8
COMPONENT0
10
2439.14211150118
20
236.990917875992
30
0.000267797714428159
11
2438.84889808627
21
237.167139522825
31
0.00026813061200506
  0
LINE
 8
COMPONENT0
10
2438.84889808627
20
237.167139522825
30
0.00026813061200506
11
2438.67297003733
21
237.460842267545
31
0.000268566558579723
  0
LINE
 8
COMPONENT0
10
2438.67297003733
20
237.460842267545
30
0.000268566558579723
11
2438.61432735435
21
237.872026110154
31
0.000269105554152148
  0
LINE
 8
COMPONENT0
10
2438.61432735435
20
237.872026110154
30
0.000269105554152148
11
2438.67114553616
21
238.352939451242
31
0.00026968828623945
  0
LINE
 8
COMPONENT0
10
2438.67114553616
20
238.352939451242
30
0.00026968828623945
11
2438.84160008162
21
238.6796719584
31
0.000270034076391279
  0
LINE
 8
COMPONENT0
10
2438.84160008162
20
238.6796719584
30
0.000270034076391279
11
2439.13298899536
21
238.866903526045
31
0.000270158597746977
  0
LINE
 8
COMPONENT0
10
2439.13298899536
20
238.866903526045
30
0.000270158597746977
11
2439.55261028205
21
238.929314048593
31
0.000270077523445888
  0
LINE
 8
COMPONENT0
10
2439.55261028205
20
238.929314048593
30
0.000270077523445888
11
2440.23431661705
21
238.921988082237
31
0.000269809195899875
  0
LINE
 8
COMPONENT0
10
2440.23431661705
20
238.921988082237
30
0.000269809195899875
11
2440.82799950896
21
238.972990229696
31
0.00026964762343581
  0
LINE
 8
COMPONENT0
10
2440.82799950896
20
238.972990229696
30
0.00026964762343581
11
2441.24580328491
21
239.177893594049
31
0.000269746300455223
  0
LINE
 8
COMPONENT0
10
2441.24580328491
20
239.177893594049
30
0.000269746300455223
11
2441.36127114014
21
239.364803602102
31
0.000269937286603172
  0
LINE
 8
COMPONENT0
10
2441.36127114014
20
239.364803602102
30
0.000269937286603172
11
2441.39976042521
21
239.632383125187
31
0.000270258904423254
  0
LINE
 8
COMPONENT0
10
2441.39976042521
20
239.632383125187
30
0.000270258904423254
11
2441.34842273731
21
239.96221938145
31
0.00027069289967255
  0
LINE
 8
COMPONENT0
10
2441.34842273731
20
239.96221938145
30
0.00027069289967255
11
2441.23847731855
21
240.292055637713
31
0.00027114917214632
  0
LINE
 8
COMPONENT0
10
2441.23847731855
20
240.292055637713
30
0.00027114917214632
11
2441.1285318998
21
240.702533447304
31
0.000271706781040753
  0
LINE
 8
COMPONENT0
10
2441.1285318998
20
240.702533447304
30
0.000271706781040753
11
2441.0771942119
21
241.274294363553
31
0.000272444785552035
  0
LINE
 8
COMPONENT0
10
2441.0771942119
20
241.274294363553
30
0.000272444785552035
11
2441.11842549154
21
241.80342591498
31
0.000273094034679466
  0
LINE
 8
COMPONENT0
10
2441.11842549154
20
241.80342591498
30
0.000273094034679466
11
2441.24211933045
21
242.262006592883
31
0.000273623282997221
  0
LINE
 8
COMPONENT0
10
2441.24211933045
20
242.262006592883
30
0.000273623282997221
11
2441.44827572865
21
242.650036397263
31
0.000274032530505301
  0
LINE
 8
COMPONENT0
10
2441.44827572865
20
242.650036397263
30
0.000274032530505301
11
2441.73689468613
21
242.967515328119
31
0.000274321777203704
  0
LINE
 8
COMPONENT0
10
2441.73689468613
20
242.967515328119
30
0.000274321777203704
11
2442.10797620288
21
243.214443385452
31
0.000274491023092432
  0
LINE
 8
COMPONENT0
10
2442.10797620288
20
243.214443385452
30
0.000274491023092432
11
2442.56152027892
21
243.390820569261
31
0.000274540268171483
  0
LINE
 8
COMPONENT0
10
2442.56152027892
20
243.390820569261
30
0.000274540268171483
11
2443.09752691423
21
243.496646879547
31
0.000274469512440859
  0
LINE
 8
COMPONENT0
10
2443.09752691423
20
243.496646879547
30
0.000274469512440859
11
2443.71599610882
21
243.531922316309
31
0.000274278755900559
  0
LINE
 8
COMPONENT0
10
2443.71599610882
20
243.531922316309
30
0.000274278755900559
11
2447.79147033931
21
243.531922316312
31
0.000272729638523888
  0
LINE
 8
COMPONENT0
10
2442.70445351755
20
244.814357892542
30
0.000276274794834817
11
2442.49927053616
21
244.594467055033
31
0.000276076465430044
  0
LINE
 8
COMPONENT0
10
2442.49927053616
20
244.594467055033
30
0.000276076465430044
11
2442.28670566501
21
244.345216428691
31
0.000275844047607312
  0
LINE
 8
COMPONENT0
10
2442.28670566501
20
244.345216428691
30
0.000275844047607312
11
2442.03745503867
21
244.139977523895
31
0.000275680880661181
  0
LINE
 8
COMPONENT0
10
2442.03745503867
20
244.139977523895
30
0.000275680880661181
11
2441.70767470581
21
244.05201000421
31
0.000275695690128721
  0
LINE
 8
COMPONENT0
10
2441.70767470581
20
244.05201000421
30
0.000275695690128721
11
2441.37045655979
21
244.169337312728
31
0.000275971305958842
  0
LINE
 8
COMPONENT0
10
2441.37045655979
20
244.169337312728
30
0.000275971305958842
11
2441.09190206802
21
244.440565838139
31
0.00027641801986076
  0
LINE
 8
COMPONENT0
10
2441.09190206802
20
244.440565838139
30
0.00027641801986076
11
2440.85003333144
21
244.741098228976
31
0.000276887613293489
  0
LINE
 8
COMPONENT0
10
2440.85003333144
20
244.741098228976
30
0.000276887613293489
11
2440.62276060417
21
244.931685201059
31
0.000277213498203331
  0
LINE
 8
COMPONENT0
10
2440.62276060417
20
244.931685201059
30
0.000277213498203331
11
2440.22699065069
21
245.063552595475
31
0.000277529641477712
  0
LINE
 8
COMPONENT0
10
2440.22699065069
20
245.063552595475
30
0.000277529641477712
11
2439.83110885041
21
245.078204528188
31
0.000277698531053879
  0
LINE
 8
COMPONENT0
10
2439.83110885041
20
245.078204528188
30
0.000277698531053879
11
2439.53063238298
21
245.107508393613
31
0.000277849568396095
  0
LINE
 8
COMPONENT0
10
2439.53063238298
20
245.107508393613
30
0.000277849568396095
11
2439.17876230424
21
245.253915873928
31
0.000278167296485694
  0
LINE
 8
COMPONENT0
10
2439.17876230424
20
245.253915873928
30
0.000278167296485694
11
2438.89288184611
21
245.597956675645
31
0.00027870829297389
  0
LINE
 8
COMPONENT0
10
2438.89288184611
20
245.597956675645
30
0.00027870829297389
11
2438.775610461
21
246.220272352094
31
0.000279534887881623
  0
LINE
 8
COMPONENT0
10
2438.775610461
20
246.220272352094
30
0.000279534887881623
11
2438.88555587976
21
246.827936095831
31
0.000280256704004232
  0
LINE
 8
COMPONENT0
10
2438.88555587976
20
246.827936095831
30
0.000280256704004232
11
2439.16411037152
21
247.164650931192
31
0.000280573948652257
  0
LINE
 8
COMPONENT0
10
2439.16411037152
20
247.164650931192
30
0.000280573948652257
11
2439.52330641662
21
247.303732445151
31
0.000280612189326713
  0
LINE
 8
COMPONENT0
10
2439.52330641662
20
247.303732445151
30
0.000280612189326713
11
2439.86041271583
21
247.333036310577
31
0.000280520876825203
  0
LINE
 8
COMPONENT0
10
2439.86041271583
20
247.333036310577
30
0.000280520876825203
11
2440.29298027131
21
247.376992108716
31
0.000280411690832848
  0
LINE
 8
COMPONENT0
10
2440.29298027131
20
247.376992108716
30
0.000280411690832848
11
2440.68136833502
21
247.538275215373
31
0.000280466734548246
  0
LINE
 8
COMPONENT0
10
2440.68136833502
20
247.538275215373
30
0.000280466734548246
11
2440.89398912958
21
247.809447817377
31
0.000280726678878925
  0
LINE
 8
COMPONENT0
10
2440.89398912958
20
247.809447817377
30
0.000280726678878925
11
2441.0772501353
21
248.168643862474
31
0.000281108395787556
  0
LINE
 8
COMPONENT0
10
2441.0772501353
20
248.168643862474
30
0.000281108395787556
11
2441.32644483824
21
248.483828186024
31
0.000281409744464243
  0
LINE
 8
COMPONENT0
10
2441.32644483824
20
248.483828186024
30
0.000281409744464243
11
2441.50236589676
21
248.58826514916
31
0.000281474113986256
  0
LINE
 8
COMPONENT0
10
2441.50236589676
20
248.58826514916
30
0.000281474113986256
11
2441.73697857124
21
248.623077470205
31
0.000281428682135122
  0
LINE
 8
COMPONENT0
10
2441.73697857124
20
248.623077470205
30
0.000281428682135122
11
2441.96967586902
21
248.586419676719
31
0.000281294166997222
  0
LINE
 8
COMPONENT0
10
2441.96967586902
20
248.586419676719
30
0.000281294166997222
11
2442.14007449107
21
248.476446296261
31
0.000281091201631361
  0
LINE
 8
COMPONENT0
10
2442.14007449107
20
248.476446296261
30
0.000281091201631361
11
2442.38194322764
21
248.131958107285
31
0.000280566372119131
  0
LINE
 8
COMPONENT0
10
2442.38194322764
20
248.131958107285
30
0.000280566372119131
11
2442.60183406515
21
247.74351412017
31
0.000279994660486577
  0
LINE
 8
COMPONENT0
10
2442.60183406515
20
247.74351412017
30
0.000279994660486577
11
2442.93910813459
21
247.450251772282
31
0.000279497938531738
  0
LINE
 8
COMPONENT0
10
2442.93910813459
20
247.450251772282
30
0.000279497938531738
11
2443.15894304869
21
247.369666142361
31
0.000279313111537316
  0
LINE
 8
COMPONENT0
10
2443.15894304869
20
247.369666142361
30
0.000279313111537316
11
2443.37150791984
21
247.340362276936
31
0.00027919549003181
  0
LINE
 8
COMPONENT0
10
2443.37150791984
20
247.340362276936
30
0.00027919549003181
11
2443.61343257983
21
247.333036310579
31
0.000279094326696925
  0
LINE
 8
COMPONENT0
10
2443.61343257983
20
247.333036310579
30
0.000279094326696925
11
2443.93588694633
21
247.33303631058
31
0.000278971759448532
  0
LINE
 8
COMPONENT0
10
2443.93588694633
20
247.33303631058
30
0.000278971759448532
11
2445.63651776236
21
247.333036310581
31
0.000278325337314709
  0
LINE
 8
COMPONENT0
10
2445.63651776236
20
247.333036310581
30
0.000278325337314709
11
2446.17891888978
21
247.37699210872
31
0.000278174402783359
  0
LINE
 8
COMPONENT0
10
2446.17891888978
20
247.37699210872
30
0.000278174402783359
11
2446.5160811124
21
247.508859503137
31
0.000278211953210457
  0
LINE
 8
COMPONENT0
10
2446.5160811124
20
247.508859503137
30
0.000278211953210457
11
2446.81661350323
21
247.794795884668
31
0.000278457034280746
  0
LINE
 8
COMPONENT0
10
2446.81661350323
20
247.794795884668
30
0.000278457034280746
11
2447.05848223981
21
248.197947727904
31
0.000278871710044404
  0
LINE
 8
COMPONENT0
10
2447.05848223981
20
248.197947727904
30
0.000278871710044404
11
2447.38099252972
21
248.557087849593
31
0.000279200427013107
  0
LINE
 8
COMPONENT0
10
2447.38099252972
20
248.557087849593
30
0.000279200427013107
11
2447.60457431211
21
248.672513762263
31
0.000279260489367439
  0
LINE
 8
COMPONENT0
10
2447.60457431211
20
248.672513762263
30
0.000279260489367439
11
2447.89414571512
21
248.710989066487
31
0.000279198770310763
  0
LINE
 8
COMPONENT0
10
2447.89414571512
20
248.710989066487
30
0.000279198770310763
11
2448.30464449599
21
248.637694450793
31
0.000278950632686217
  0
LINE
 8
COMPONENT0
10
2448.30464449599
20
248.637694450793
30
0.000278950632686217
11
2448.59785791089
21
248.41781060371
31
0.000278562867973094
  0
LINE
 8
COMPONENT0
10
2448.59785791089
20
248.41781060371
30
0.000278562867973094
11
2448.77378595984
21
248.051337525239
31
0.000278035476171395
  0
LINE
 8
COMPONENT0
10
2448.77378595984
20
248.051337525239
30
0.000278035476171395
11
2448.83242864282
21
247.538275215379
31
0.000277368457281119
  0
LINE
 8
COMPONENT0
10
2448.83242864282
20
247.538275215379
30
0.000277368457281119
11
2448.79852682475
21
246.968406956946
31
0.000276665231292096
  0
LINE
 8
COMPONENT0
10
2448.79852682475
20
246.968406956946
30
0.000276665231292096
11
2448.69682137054
21
246.474521132971
31
0.000276083259600183
  0
LINE
 8
COMPONENT0
10
2448.69682137054
20
246.474521132971
30
0.000276083259600183
11
2448.52731228019
21
246.056617743453
31
0.000275622542205379
  0
LINE
 8
COMPONENT0
10
2448.52731228019
20
246.056617743453
30
0.000275622542205379
11
2448.2899995537
21
245.714696788393
31
0.000275283079107684
  0
LINE
 8
COMPONENT0
10
2448.2899995537
20
245.714696788393
30
0.000275283079107684
11
2447.98488319107
21
245.448758267791
31
0.000275064870307098
  0
LINE
 8
COMPONENT0
10
2447.98488319107
20
245.448758267791
30
0.000275064870307098
11
2447.6119631923
21
245.258802181647
31
0.000274967915803622
  0
LINE
 8
COMPONENT0
10
2447.6119631923
20
245.258802181647
30
0.000274967915803622
11
2447.17123955739
21
245.14482852996
31
0.000274992215597255
  0
LINE
 8
COMPONENT0
10
2447.17123955739
20
245.14482852996
30
0.000274992215597255
11
2446.66271228634
21
245.106837312731
31
0.000275137769687998
  0
LINE
 8
COMPONENT0
10
2446.66271228634
20
245.106837312731
30
0.000275137769687998
11
2444.02391038942
21
245.106837312729
31
0.000276140797468551
  0
LINE
 8
COMPONENT0
10
2444.02391038942
20
245.106837312729
30
0.000276140797468551
11
2443.24688260667
21
245.055695356751
31
0.000276371884970948
  0
LINE
 8
COMPONENT0
10
2443.24688260667
20
245.055695356751
30
0.000276371884970948
11
2442.70445351755
21
244.814357892542
31
0.000276274794834817
 0
ENDSEC
 0
EOF
