 0
SECTION
 2
ENTITIES
  0
LINE
 8
GROUP0
10
196.60533540121
20
1611.10881177302
30
0.000158742432385517
11
337.604973762873
21
1611.10883615896
31
4.65457602171648e-005
  0
LINE
 8
GROUP0
10
388.105228138709
20
1300.84090873265
30
0.000236810634257739
11
388.519441755631
21
1300.52307155855
31
0.000237073582433545
  0
LINE
 8
GROUP0
10
128.105197384455
20
1570.10879994729
30
5.47883964039431e-005
11
138.105195655226
21
1580.10880168258
31
5.37749679164035e-005
  0
LINE
 8
GROUP0
10
388.519441755631
20
1300.52307155855
30
0.000237073582433545
11
388.837279071926
21
1300.10885805073
31
0.000237323935771899
  0
LINE
 8
GROUP0
10
396.105116563923
20
1580.10884627659
30
6.94748891969465e-005
11
396.105111202449
21
1611.10884627658
31
4.88444578355507e-005
  0
LINE
 8
GROUP0
10
138.105195655226
20
1580.10880168258
30
5.37749679164035e-005
11
138.105190294599
21
1611.10880165539
31
3.87066390768576e-005
  0
LINE
 8
GROUP0
10
388.837279071926
20
1300.10885805073
30
0.000237323935771899
11
389.037079999733
21
1299.62649617523
31
0.000237544626668185
  0
LINE
 8
GROUP0
10
90.1051974148335
20
1570.10879336175
30
4.01373425710505e-005
11
128.105197384455
21
1570.10879994729
31
5.47883964039431e-005
  0
LINE
 8
GROUP0
10
406.105118293424
20
1570.10884802842
30
7.61298654751885e-005
11
396.105116563923
21
1580.10884627659
31
6.94748891969465e-005
  0
LINE
 8
GROUP0
10
337.604973762873
20
1611.10883615896
30
4.65457602171648e-005
11
396.105111202449
21
1611.10884627658
31
4.88444578355507e-005
  0
LINE
 8
GROUP0
10
386.587590014205
20
1301.04070931718
30
0.000236122386937498
11
387.105228092723
21
1301.10885775345
31
0.000236318259740931
  0
LINE
 8
GROUP0
10
126.60547293178
20
1331.60881272727
30
3.255241700586e-005
11
90.1052368183006
21
1331.60880637742
31
0.0
  0
LINE
 8
GROUP0
10
387.622866194621
20
1301.04070949487
30
0.000236553010077134
11
388.105228138709
21
1300.84090873265
31
0.000236810634257739
  0
LINE
 8
GROUP0
10
138.105190294599
20
1611.10880165539
30
3.87066390768576e-005
11
196.60533540121
21
1611.10881177302
31
0.000158742432385517
  0
LINE
 8
GROUP0
10
90.1052368183006
20
1331.60880637742
30
0.0
11
90.1051974148335
21
1570.10879336175
31
4.01373425710505e-005
  0
LINE
 8
GROUP0
10
387.105228092723
20
1301.10885775345
30
0.000236318259740931
11
387.622866194621
21
1301.04070949487
31
0.000236553010077134
  0
LINE
 8
GROUP0
10
136.605237753231
20
1321.60903273986
30
3.8256601112352e-005
11
136.60524324558
21
1289.10881447906
31
5.66341206031384e-005
  0
LINE
 8
GROUP0
10
406.105118293424
20
1570.10884802842
30
7.61298654751885e-005
11
444.105118271113
21
1570.10890294616
31
7.90295984771705e-005
  0
LINE
 8
GROUP0
10
444.105118271113
20
1570.10890294616
30
7.90295984771705e-005
11
444.11667202443
21
1331.60891606485
31
0.000228532642289991
  0
LINE
 8
GROUP0
10
206.997750414604
20
1560.1062414384
30
0.000282847792764118
11
205.090681309948
21
1562.59148779617
31
0.000281274509223778
  0
LINE
 8
GROUP0
10
397.605230152329
20
1289.10885948443
30
0.000246920924700322
11
136.60524324558
21
1289.10881447906
31
5.66341206031384e-005
  0
LINE
 8
GROUP0
10
126.60547293178
20
1331.60881272727
30
3.255241700586e-005
11
136.605237753231
21
1321.60903273986
31
3.8256601112352e-005
  0
LINE
 8
GROUP0
10
397.605224660027
20
1321.60885948442
30
0.000225756181380377
11
397.605230152329
21
1289.10885948443
31
0.000246920924700322
  0
LINE
 8
GROUP0
10
407.605157725724
20
1331.60886121538
30
0.000228524382179529
11
397.605224660027
21
1321.60885948442
31
0.000225756181380377
  0
LINE
 8
GROUP0
10
407.605157725724
20
1331.60886121538
30
0.000228524382179529
11
444.11667202443
21
1331.60891606485
31
0.000228532642289991
  0
LINE
 8
GROUP0
10
308.446811166743
20
1517.34160228747
30
0.00011779025752286
11
308.446811166742
21
1511.34160228747
31
0.000119678211206575
  0
LINE
 8
GROUP0
10
266.10515458204
20
1599.37677315842
30
0.000102720145851154
11
265.690941019667
21
1599.69461040362
31
0.00010249572473352
  0
LINE
 8
GROUP0
10
265.10515458204
20
1601.10882396599
30
0.000101939863622513
11
265.173302929462
21
1601.6264620562
31
0.000101835898585767
  0
LINE
 8
GROUP0
10
265.173302929462
20
1601.6264620562
30
0.000101835898585767
11
265.373103774472
21
1602.10882396599
31
0.000101787010786736
  0
LINE
 8
GROUP0
10
266.587516491835
20
1599.17697231341
30
0.000102939384284928
11
266.10515458204
21
1599.37677315842
31
0.000102720145851154
  0
LINE
 8
GROUP0
10
265.373103774472
20
1602.10882396599
30
0.000101787010786736
11
265.690941019667
21
1602.52303752836
31
0.000101796531931925
  0
LINE
 8
GROUP0
10
265.373103774471
20
1600.10882396599
30
0.000102281414716393
11
265.173302929462
21
1600.59118587579
31
0.000102091820877825
  0
LINE
 8
GROUP0
10
267.10515458204
20
1599.10882396599
30
0.0001031384992708
11
266.587516491835
21
1599.17697231341
31
0.000102939384284928
  0
LINE
 8
GROUP0
10
266.10515458204
20
1602.84087477356
30
0.000101863813111092
11
266.587516491836
21
1603.04067561857
31
0.000101984269192684
  0
LINE
 8
GROUP0
10
266.587516491836
20
1603.04067561857
30
0.000101984269192684
11
267.105154582041
21
1603.10882396599
31
0.000102149691410075
  0
LINE
 8
GROUP0
10
267.622792672245
20
1599.17697231341
30
0.000103303921487485
11
267.10515458204
21
1599.10882396599
31
0.0001031384992708
  0
LINE
 8
GROUP0
10
265.690941019667
20
1599.69461040362
30
0.00010249572473352
11
265.373103774471
21
1600.10882396599
31
0.000102281414716393
  0
LINE
 8
GROUP0
10
265.173302929462
20
1600.59118587579
30
0.000102091820877825
11
265.10515458204
21
1601.10882396599
31
0.000101939863622513
  0
LINE
 8
GROUP0
10
265.690941019667
20
1602.52303752836
30
0.000101796531931925
11
266.10515458204
21
1602.84087477356
31
0.000101863813111092
  0
LINE
 8
GROUP0
10
267.105154582041
20
1603.10882396599
30
0.000102149691410075
11
267.622792672246
21
1603.04067561857
31
0.000102348806395242
  0
LINE
 8
GROUP0
10
267.622792672246
20
1603.04067561857
30
0.000102348806395242
11
268.105154582041
21
1602.84087477356
31
0.000102568044829721
  0
LINE
 8
GROUP0
10
385.346811166761
20
1511.34160228746
30
0.000117667318013814
11
373.346811166761
21
1511.34160228747
31
0.000117667318013814
  0
LINE
 8
GROUP0
10
308.446811166742
20
1511.34160228747
30
0.000119678211206575
11
296.446811166742
21
1511.34160228748
31
0.000119678211206575
  0
LINE
 8
GROUP0
10
296.446811166742
20
1511.34160228748
30
0.000119678211206575
11
296.446811166743
21
1517.34160228748
31
0.00011779025752286
  0
LINE
 8
GROUP0
10
296.446811166743
20
1517.34160228748
30
0.00011779025752286
11
308.446811166743
21
1517.34160228747
31
0.00011779025752286
  0
LINE
 8
GROUP0
10
385.346811166761
20
1517.34160228746
30
0.000115779364330099
11
385.346811166761
21
1511.34160228746
31
0.000117667318013814
  0
LINE
 8
GROUP0
10
373.346811166761
20
1517.34160228747
30
0.000115779364330099
11
385.346811166761
21
1517.34160228746
31
0.000115779364330099
  0
LINE
 8
GROUP0
10
373.346811166761
20
1511.34160228747
30
0.000117667318013814
11
373.346811166761
21
1517.34160228747
31
0.000115779364330099
  0
LINE
 8
GROUP0
10
385.173376872247
20
1298.59121933167
30
0.000236232823199489
11
385.105228435991
21
1299.10885741018
31
0.000236056825571995
  0
LINE
 8
GROUP0
10
389.105228435988
20
1299.10885809672
30
0.00023772061915206
11
389.037080177409
21
1298.59121999482
31
0.000237839919300487
  0
LINE
 8
GROUP0
10
385.105228435991
20
1299.10885741018
30
0.000236056825571995
11
385.173376694566
21
1299.62649551208
31
0.000235937530747665
  0
LINE
 8
GROUP0
10
385.173376694566
20
1299.62649551208
30
0.000235937530747665
11
385.373177456784
21
1300.10885745617
31
0.000235883048134428
  0
LINE
 8
GROUP0
10
388.837279415191
20
1298.10885805073
30
0.000237894396861049
11
388.519442241091
21
1297.69464443381
31
0.000237880336156376
  0
LINE
 8
GROUP0
10
388.519442241091
20
1297.69464443381
30
0.000237880336156376
11
388.105228733266
21
1297.37680711752
31
0.000237798706625381
  0
LINE
 8
GROUP0
10
385.691015116343
20
1297.69464394835
30
0.000236703862563342
11
385.373177800054
21
1298.10885745617
31
0.00023645351409648
  0
LINE
 8
GROUP0
10
385.373177456784
20
1300.10885745617
30
0.000235883048134428
11
385.691014630887
21
1300.52307107309
31
0.00023589711226959
  0
LINE
 8
GROUP0
10
388.105228733266
20
1297.37680711752
30
0.000237798706625381
11
387.622866857768
21
1297.17700618972
31
0.000237655058148217
  0
LINE
 8
GROUP0
10
387.622866857768
20
1297.17700618972
30
0.000237655058148217
11
387.10522877926
21
1297.10885775345
31
0.000237459181644989
  0
LINE
 8
GROUP0
10
386.587590677358
20
1297.17700601203
30
0.000237224438257183
11
386.105228733269
21
1297.37680677425
31
0.000236966810647499
  0
LINE
 8
GROUP0
10
389.037079999733
20
1299.62649617523
30
0.000237544626668185
11
389.105228435988
21
1299.10885809672
31
0.00023772061915206
  0
LINE
 8
GROUP0
10
386.105228733269
20
1297.37680677425
30
0.000236966810647499
11
385.691015116343
21
1297.69464394835
31
0.000236703862563342
  0
LINE
 8
GROUP0
10
387.10522877926
20
1297.10885775345
30
0.000237459181644989
11
386.587590677358
21
1297.17700601203
31
0.000237224438257183
  0
LINE
 8
GROUP0
10
385.373177800054
20
1298.10885745617
30
0.00023645351409648
11
385.173376872247
21
1298.59121933167
31
0.000236232823199489
  0
LINE
 8
GROUP0
10
389.037080177409
20
1298.59121999482
30
0.000237839919300487
11
388.837279415191
21
1298.10885805073
31
0.000237894396861049
  0
LINE
 8
GROUP0
10
148.837292508432
20
1298.10881650731
30
5.5312809623087e-005
11
148.519455334329
21
1297.69460289038
31
5.52987518962988e-005
  0
LINE
 8
GROUP0
10
149.105241529225
20
1299.1088165533
30
5.51390315531419e-005
11
149.037093270652
21
1298.5911784514
31
5.52583317918076e-005
  0
LINE
 8
GROUP0
10
145.691028209587
20
1297.69460240493
30
5.41222755058579e-005
11
145.373190893294
21
1298.10881591275
31
5.38719246927832e-005
  0
LINE
 8
GROUP0
10
146.587603770589
20
1297.17696446861
30
5.46428506582652e-005
11
146.105241826507
21
1297.37676523082
31
5.43852232290587e-005
  0
LINE
 8
GROUP0
10
145.173389965493
20
1298.59117778825
30
5.36512341567485e-005
11
145.105241529229
21
1299.10881586676
31
5.34752432971741e-005
  0
LINE
 8
GROUP0
10
147.105241872494
20
1297.10881621003
30
5.48775944070268e-005
11
146.587603770589
21
1297.17696446861
31
5.46428506582652e-005
  0
LINE
 8
GROUP0
10
385.691014630887
20
1300.52307107309
30
0.00023589711226959
11
386.105228138706
21
1300.84090838938
31
0.000235978743152759
  0
LINE
 8
GROUP0
10
149.037093270652
20
1298.5911784514
30
5.52583317918076e-005
11
148.837292508432
21
1298.10881650731
31
5.5312809623087e-005
  0
LINE
 8
GROUP0
10
149.03709309296
20
1299.62645463181
30
5.49630393399836e-005
11
149.105241529225
21
1299.1088165533
31
5.51390315531419e-005
  0
LINE
 8
GROUP0
10
148.105241826508
20
1297.3767655741
30
5.52171141535607e-005
11
147.622879951003
21
1297.1769646463
31
5.50734701883437e-005
  0
LINE
 8
GROUP0
10
148.837292165164
20
1300.10881650731
30
5.47423484436982e-005
11
149.03709309296
21
1299.62645463181
31
5.49630393399836e-005
  0
LINE
 8
GROUP0
10
148.519455334329
20
1297.69460289038
30
5.52987518962988e-005
11
148.105241826508
21
1297.3767655741
31
5.52171141535607e-005
  0
LINE
 8
GROUP0
10
147.622879951003
20
1297.1769646463
30
5.50734701883437e-005
11
147.105241872494
21
1297.10881621003
31
5.48775944070268e-005
  0
LINE
 8
GROUP0
10
146.105241826507
20
1297.37676523082
30
5.43852232290587e-005
11
145.691028209587
21
1297.69460240493
31
5.41222755058579e-005
  0
LINE
 8
GROUP0
10
386.105228138706
20
1300.84090838938
30
0.000235978743152759
11
386.587590014205
21
1301.04070931718
31
0.000236122386937498
  0
LINE
 8
GROUP0
10
145.373190893294
20
1298.10881591275
30
5.38719246927832e-005
11
145.173389965493
21
1298.59117778825
31
5.36512341567485e-005
  0
LINE
 8
GROUP0
10
428.690997718229
20
1560.5230655005
30
8.38581349294376e-005
11
429.105211225589
21
1560.84090281739
31
8.39397693319255e-005
  0
LINE
 8
GROUP0
10
146.587603107449
20
1301.04066777376
30
5.35408046626773e-005
11
147.105241185955
21
1301.10881621003
31
5.37366721420129e-005
  0
LINE
 8
GROUP0
10
148.105241231944
20
1300.84086718923
30
5.42290518024402e-005
11
148.519454848875
21
1300.52303001513
31
5.44919999782456e-005
  0
LINE
 8
GROUP0
10
428.105211525394
20
1559.10885183673
30
8.40178554516624e-005
11
428.173359783221
21
1559.62648993873
31
8.38985533179792e-005
  0
LINE
 8
GROUP0
10
429.105211225589
20
1560.84090281739
30
8.39397693319255e-005
11
429.58757310079
21
1561.0407037459
31
8.40834168185756e-005
  0
LINE
 8
GROUP0
10
428.373160544731
20
1560.10885188311
30
8.38440783764605e-005
11
428.690997718229
21
1560.5230655005
31
8.38581349294376e-005
  0
LINE
 8
GROUP0
10
147.105241185955
20
1301.10881621003
30
5.37366721420129e-005
11
147.622879287859
21
1301.04066795145
31
5.39714241927558e-005
  0
LINE
 8
GROUP0
10
146.105241231948
20
1300.84086684596
30
5.33971556440804e-005
11
146.587603107449
21
1301.04066777376
31
5.35408046626773e-005
  0
LINE
 8
GROUP0
10
147.622879287859
20
1301.04066795145
30
5.39714241927558e-005
11
148.105241231944
21
1300.84086718923
31
5.42290518024402e-005
  0
LINE
 8
GROUP0
10
428.173359962419
20
1558.59121375832
30
8.41938457712132e-005
11
428.105211525394
21
1559.10885183673
31
8.40178554516624e-005
  0
LINE
 8
GROUP0
10
145.17338978781
20
1299.62645396866
30
5.33559417049245e-005
11
145.373190550028
21
1300.10881591275
31
5.33014605355098e-005
  0
LINE
 8
GROUP0
10
145.69102772413
20
1300.52302952967
30
5.33155216025483e-005
11
146.105241231948
21
1300.84086684596
31
5.33971556440804e-005
  0
LINE
 8
GROUP0
10
145.373190550028
20
1300.10881591275
30
5.33014605355098e-005
11
145.69102772413
21
1300.52302952967
31
5.33155216025483e-005
  0
LINE
 8
GROUP0
10
145.105241529229
20
1299.10881586676
30
5.34752432971741e-005
11
145.17338978781
21
1299.62645396866
31
5.33559417049245e-005
  0
LINE
 8
GROUP0
10
428.173359783221
20
1559.62648993873
30
8.38985533179792e-005
11
428.373160544731
21
1560.10885188311
31
8.38440783764605e-005
  0
LINE
 8
GROUP0
10
148.519454848875
20
1300.52303001513
30
5.44919999782456e-005
11
148.837292165164
21
1300.10881650731
31
5.47423484436982e-005
  0
LINE
 8
GROUP0
10
431.519425332565
20
1557.69463886534
30
8.58413647719936e-005
11
431.105211825212
21
1557.37680154845
31
8.57597330773785e-005
  0
LINE
 8
GROUP0
10
430.105211179199
20
1561.10885218292
30
8.42792898003708e-005
11
430.622849281205
21
1561.0407039251
31
8.45140386046273e-005
  0
LINE
 8
GROUP0
10
431.837262506061
20
1558.10885248273
30
8.5855425927861e-005
11
431.519425332565
21
1557.69463886534
31
8.58413647719936e-005
  0
LINE
 8
GROUP0
10
430.622849949997
20
1557.17700061995
30
8.56160851395338e-005
11
430.105211871593
21
1557.10885218292
31
8.54202131503667e-005
  0
LINE
 8
GROUP0
10
431.105211825212
20
1557.37680154845
30
8.57597330773785e-005
11
430.622849949997
21
1557.17700061995
31
8.56160851395338e-005
  0
LINE
 8
GROUP0
10
432.037063088368
20
1559.62649060752
30
8.55056528480558e-005
11
432.105211525396
21
1559.10885252911
31
8.56816437978691e-005
  0
LINE
 8
GROUP0
10
432.105211525396
20
1559.10885252911
30
8.56816437978691e-005
11
432.037063267575
21
1558.59121442712
31
8.58009453012898e-005
  0
LINE
 8
GROUP0
10
430.105211871593
20
1557.10885218292
30
8.54202131503667e-005
11
429.587573769584
21
1557.17700044074
31
8.51854619096592e-005
  0
LINE
 8
GROUP0
10
429.105211825213
20
1557.37680120226
30
8.4927835294718e-005
11
428.690998207826
21
1557.69463837575
31
8.46648930739768e-005
  0
LINE
 8
GROUP0
10
429.587573769584
20
1557.17700044074
30
8.51854619096592e-005
11
429.105211825213
21
1557.37680120226
31
8.4927835294718e-005
  0
LINE
 8
GROUP0
10
431.105211225582
20
1560.84090316359
30
8.47716639562235e-005
11
431.519424842975
21
1560.52306599009
31
8.50346124929846e-005
  0
LINE
 8
GROUP0
10
431.837262159868
20
1560.10885248273
30
8.52849614117468e-005
11
432.037063088368
21
1559.62649060752
31
8.55056528480558e-005
  0
LINE
 8
GROUP0
10
429.58757310079
20
1561.0407037459
30
8.40834168185756e-005
11
430.105211179199
21
1561.10885218292
31
8.42792898003708e-005
  0
LINE
 8
GROUP0
10
430.622849281205
20
1561.0407039251
30
8.45140386046273e-005
11
431.105211225582
21
1560.84090316359
31
8.47716639562235e-005
  0
LINE
 8
GROUP0
10
432.037063267575
20
1558.59121442712
30
8.58009453012898e-005
11
431.837262506061
21
1558.10885248273
31
8.5855425927861e-005
  0
LINE
 8
GROUP0
10
431.519424842975
20
1560.52306599009
30
8.50346124929846e-005
11
431.837262159868
21
1560.10885248273
31
8.52849614117468e-005
  0
LINE
 8
GROUP0
10
428.37316089093
20
1558.10885188311
30
8.44145384708672e-005
11
428.173359962419
21
1558.59121375832
31
8.41938457712132e-005
  0
LINE
 8
GROUP0
10
178.346212047805
20
1320.92024525814
30
0.000146932169312425
11
178.656872219581
21
1320.68186732425
31
0.000147120345608831
  0
LINE
 8
GROUP0
10
178.895250153476
20
1320.37120715247
30
0.000147301373533426
11
179.045100787237
21
1320.00943572012
31
0.000147462917876023
  0
LINE
 8
GROUP0
10
428.690998207826
20
1557.69463837575
30
8.46648930739768e-005
11
428.37316089093
21
1558.10885188311
31
8.44145384708672e-005
  0
LINE
 8
GROUP0
10
177.596212047803
20
1318.12120715247
30
0.000147445657802348
11
177.207983480148
21
1318.17231841303
31
0.000147281276321787
  0
LINE
 8
GROUP0
10
178.656872219583
20
1318.56054698069
30
0.000147728718407036
11
178.346212047802
21
1318.32216904679
31
0.000147677272270258
  0
LINE
 8
GROUP0
10
178.895250153483
20
1318.87120715247
30
0.000147731558072395
11
178.656872219583
21
1318.56054698069
31
0.000147728718407036
  0
LINE
 8
GROUP0
10
179.096212047799
20
1319.62120715247
30
0.000147593969670773
11
179.045100787234
21
1319.23297858481
31
0.000147685597612185
  0
LINE
 8
GROUP0
10
178.346212047802
20
1318.32216904679
30
0.000147677272270258
11
177.984440615457
21
1318.17231841303
31
0.000147580726080998
  0
LINE
 8
GROUP0
10
177.984440615457
20
1318.17231841303
30
0.000147580726080998
11
177.596212047803
21
1318.12120715247
31
0.000147445657802348
  0
LINE
 8
GROUP0
10
177.207983480148
20
1318.17231841303
30
0.000147281276321787
11
176.846212047803
21
1318.32216904679
31
0.000147098775863569
  0
LINE
 8
GROUP0
10
176.846212047803
20
1318.32216904679
30
0.000147098775863569
11
176.535551876021
21
1318.56054698069
31
0.000146910598845251
  0
LINE
 8
GROUP0
10
179.045100787234
20
1319.23297858481
30
0.000147685597612185
11
178.895250153483
21
1318.87120715247
31
0.000147731558072395
  0
LINE
 8
GROUP0
10
178.656872219581
20
1320.68186732425
30
0.000147120345608831
11
178.895250153476
21
1320.37120715247
31
0.000147301373533426
  0
LINE
 8
GROUP0
10
179.045100787237
20
1320.00943572012
30
0.000147462917876023
11
179.096212047799
21
1319.62120715247
31
0.000147593969670773
  0
LINE
 8
GROUP0
10
176.535551876021
20
1318.56054698069
30
0.000146910598845251
11
176.297173942126
21
1318.87120715247
31
0.000146729573537585
  0
LINE
 8
GROUP0
10
176.297173942126
20
1318.87120715247
30
0.000146729573537585
11
176.147323308369
21
1319.23297858481
31
0.000146568029103339
  0
LINE
 8
GROUP0
10
176.0962120478
20
1319.62120715247
30
0.000146436976676917
11
176.147323308367
21
1320.00943572012
31
0.0001463453491867
  0
LINE
 8
GROUP0
10
176.535551876025
20
1320.68186732425
30
0.000146302226768957
11
176.8462120478
21
1320.92024525814
31
0.000146353672905736
  0
LINE
 8
GROUP0
10
216.30688964212
20
1320.3714647772
30
0.000821147814976686
11
216.545267576017
21
1320.68212494898
31
0.000821150654642044
  0
LINE
 8
GROUP0
10
176.147323308369
20
1319.23297858481
30
0.000146568029103339
11
176.0962120478
21
1319.62120715247
31
0.000146436976676917
  0
LINE
 8
GROUP0
10
217.605927747801
20
1321.1214647772
30
0.000821433715336972
11
217.994156315453
21
1321.07035351663
31
0.000821598099344223
  0
LINE
 8
GROUP0
10
176.8462120478
20
1320.92024525814
30
0.000146353672905736
11
177.207983480152
21
1321.0700958919
31
0.000146450221621686
  0
LINE
 8
GROUP0
10
217.217699180146
20
1321.07035351663
30
0.000821298648411906
11
217.605927747801
21
1321.1214647772
31
0.000821433715336972
  0
LINE
 8
GROUP0
10
177.596212047802
20
1321.12120715247
30
0.00014658528872723
11
177.984440615461
21
1321.0700958919
31
0.000146749673366153
  0
LINE
 8
GROUP0
10
176.147323308367
20
1320.00943572012
30
0.0001463453491867
11
176.297173942125
21
1320.37120715247
31
0.000146299388998616
  0
LINE
 8
GROUP0
10
176.297173942125
20
1320.37120715247
30
0.000146299388998616
11
176.535551876025
21
1320.68186732425
31
0.000146302226768957
  0
LINE
 8
GROUP0
10
177.207983480152
20
1321.0700958919
30
0.000146450221621686
11
177.596212047802
21
1321.12120715247
31
0.00014658528872723
  0
LINE
 8
GROUP0
10
177.984440615461
20
1321.0700958919
30
0.000146749673366153
11
178.346212047805
21
1320.92024525814
31
0.000146932169312425
  0
LINE
 8
GROUP0
10
216.545267576017
20
1320.68212494898
30
0.000821150654642044
11
216.855927747799
21
1320.92050288287
31
0.000821202101500734
  0
LINE
 8
GROUP0
10
216.855927747799
20
1320.92050288287
30
0.000821202101500734
11
217.217699180146
21
1321.07035351663
31
0.000821298648411906
  0
LINE
 8
GROUP0
10
217.994156315453
20
1321.07035351663
30
0.000821598099344223
11
218.355927747798
21
1320.92050288287
31
0.000821780598087901
  0
LINE
 8
GROUP0
10
218.666587919578
20
1320.68212494898
30
0.000821968771225945
11
218.90496585347
21
1320.3714647772
31
0.000822149798428629
  0
LINE
 8
GROUP0
10
219.054816487229
20
1320.00969334485
30
0.000822311343493137
11
219.105927747797
21
1319.6214647772
31
0.000822442396460993
  0
LINE
 8
GROUP0
10
218.904965853475
20
1318.8714647772
30
0.000822579982787119
11
218.666587919578
21
1318.56080460542
31
0.000822577143121761
  0
LINE
 8
GROUP0
10
218.666587919578
20
1318.56080460542
30
0.000822577143121761
11
218.355927747798
21
1318.32242667152
31
0.000822525698609283
  0
LINE
 8
GROUP0
10
219.054816487232
20
1319.23323620954
30
0.000822534024403815
11
218.904965853475
21
1318.8714647772
31
0.000822579982787119
  0
LINE
 8
GROUP0
10
217.217699180137
20
1318.17257603776
30
0.000822129700946272
11
216.855927747793
21
1318.32242667152
31
0.000821947202022116
  0
LINE
 8
GROUP0
10
218.90496585347
20
1320.3714647772
30
0.000822149798428629
11
219.054816487229
21
1320.00969334485
31
0.000822311343493137
  0
LINE
 8
GROUP0
10
217.605927747796
20
1318.1214647772
30
0.000822294084231612
11
217.217699180137
21
1318.17257603776
31
0.000822129700946272
  0
LINE
 8
GROUP0
10
216.855927747793
20
1318.32242667152
30
0.000821947202022116
11
216.545267576024
21
1318.56080460542
31
0.00082175902744025
  0
LINE
 8
GROUP0
10
216.306889642125
20
1318.8714647772
30
0.000821577999515655
11
216.157039008364
21
1319.23323620954
31
0.000821416456977836
  0
LINE
 8
GROUP0
10
218.355927747798
20
1318.32242667152
30
0.000822525698609283
11
217.994156315447
21
1318.17257603776
31
0.00082242915187859
  0
LINE
 8
GROUP0
10
218.355927747798
20
1320.92050288287
30
0.000821780598087901
11
218.666587919578
21
1320.68212494898
31
0.000821968771225945
  0
LINE
 8
GROUP0
10
219.105927747797
20
1319.6214647772
30
0.000822442396460993
11
219.054816487232
21
1319.23323620954
31
0.000822534024403815
  0
LINE
 8
GROUP0
10
217.994156315447
20
1318.17257603776
30
0.00082242915187859
11
217.605927747796
21
1318.1214647772
31
0.000822294084231612
  0
LINE
 8
GROUP0
10
216.545267576024
20
1318.56080460542
30
0.00082175902744025
11
216.306889642125
21
1318.8714647772
31
0.000821577999515655
  0
LINE
 8
GROUP0
10
216.157039008364
20
1319.23323620954
30
0.000821416456977836
11
216.1059277478
21
1319.6214647772
31
0.000821285403467137
  0
LINE
 8
GROUP0
10
102.373160038618
20
1558.10879546187
30
4.63312124648785e-005
11
102.17335911362
21
1558.59115733853
31
4.61105203066581e-005
  0
LINE
 8
GROUP0
10
211.579054089754
20
1309.10885618949
30
0.000430552327551725
11
211.579051286931
21
1325.1088561894
31
0.000295306827673347
  0
LINE
 8
GROUP0
10
102.690997352497
20
1557.6945819522
30
4.65815630072364e-005
11
102.373160038618
21
1558.10879546187
31
4.63312124648785e-005
  0
LINE
 8
GROUP0
10
102.105210680358
20
1559.10879541743
30
4.5934530257824e-005
11
102.173358941947
21
1559.62643351894
31
4.58152276729462e-005
  0
LINE
 8
GROUP0
10
102.373159706971
20
1560.10879546187
30
4.57607492121093e-005
11
102.690996883485
21
1560.52300907694
31
4.57748089234489e-005
  0
LINE
 8
GROUP0
10
183.579051348226
20
1325.10885134259
30
0.000150258159698258
11
183.579054094379
21
1309.10885134259
31
0.000160908820951067
  0
LINE
 8
GROUP0
10
216.157039008366
20
1320.00969334485
30
0.000821193776067158
11
216.30688964212
21
1320.3714647772
31
0.000821147814976686
  0
LINE
 8
GROUP0
10
188.579050490061
20
1330.10885220806
30
0.000144652620652469
11
183.579051348226
21
1325.10885134259
31
0.000150258159698258
  0
LINE
 8
GROUP0
10
211.579051286931
20
1325.1088561894
30
0.000295306827673347
11
206.579050518662
21
1330.10885532379
31
0.000121497442627178
  0
LINE
 8
GROUP0
10
183.579054094379
20
1309.10885134259
30
0.000160908820951067
11
211.579054089754
21
1309.10885618949
31
0.000430552327551725
  0
LINE
 8
GROUP0
10
206.579050518662
20
1330.10885532379
30
0.000121497442627178
11
188.579050490061
21
1330.10885220806
31
0.000144652620652469
  0
LINE
 8
GROUP0
10
216.1059277478
20
1319.6214647772
30
0.000821285403467137
11
216.157039008366
21
1320.00969334485
31
0.000821193776067158
  0
LINE
 8
GROUP0
10
103.587572910498
20
1557.17694401066
30
4.71021370767766e-005
11
103.105210967574
21
1557.37674477569
31
4.68445101911186e-005
  0
LINE
 8
GROUP0
10
102.17335911362
20
1558.59115733853
30
4.61105203066581e-005
11
102.105210680358
21
1559.10879541743
31
4.5934530257824e-005
  0
LINE
 8
GROUP0
10
102.173358941947
20
1559.62643351894
30
4.58152276729462e-005
11
102.373159706971
21
1560.10879546187
31
4.57607492121093e-005
  0
LINE
 8
GROUP0
10
103.105210967574
20
1557.37674477569
30
4.68445101911186e-005
11
102.690997352497
21
1557.6945819522
31
4.65815630072364e-005
  0
LINE
 8
GROUP0
10
103.587572269817
20
1561.04064731582
30
4.60000910833036e-005
11
104.10521034872
21
1561.10879574908
31
4.61959599141082e-005
  0
LINE
 8
GROUP0
10
104.10521034872
20
1561.10879574908
30
4.61959599141082e-005
11
104.622848450225
21
1561.04064748749
31
4.64307118767271e-005
  0
LINE
 8
GROUP0
10
106.037062247105
20
1559.62643415963
30
4.74223270225449e-005
11
106.105210680363
21
1559.10879608072
31
4.75983188747475e-005
  0
LINE
 8
GROUP0
10
105.837261653751
20
1558.10879603629
30
4.77720969439877e-005
11
105.519424477244
21
1557.69458242121
31
4.77580380440934e-005
  0
LINE
 8
GROUP0
10
105.10521039315
20
1560.84084672246
30
4.66883384014294e-005
11
105.519424008232
21
1560.52300954596
31
4.69512869381905e-005
  0
LINE
 8
GROUP0
10
106.105210680363
20
1559.10879608072
30
4.75983188747475e-005
11
106.037062418775
21
1558.59115797922
31
4.77176194757789e-005
  0
LINE
 8
GROUP0
10
105.519424008232
20
1560.52300954596
30
4.69512869381905e-005
11
105.837261322109
21
1560.10879603629
31
4.72016359471916e-005
  0
LINE
 8
GROUP0
10
105.519424477244
20
1557.69458242121
30
4.77580380440934e-005
11
105.105210967576
21
1557.37674510733
31
4.76764016570541e-005
  0
LINE
 8
GROUP0
10
105.105210967576
20
1557.37674510733
30
4.76764016570541e-005
11
104.62284909091
21
1557.17694418234
31
4.75327576897222e-005
  0
LINE
 8
GROUP0
10
105.837261322109
20
1560.10879603629
30
4.72016359471916e-005
11
106.037062247105
21
1559.62643415963
31
4.74223270225449e-005
  0
LINE
 8
GROUP0
10
104.622848450225
20
1561.04064748749
30
4.64307118767271e-005
11
105.10521039315
21
1560.84084672246
31
4.66883384014294e-005
  0
LINE
 8
GROUP0
10
104.62284909091
20
1557.17694418234
30
4.75327576897222e-005
11
104.105211012006
21
1557.10879574907
31
4.73368829031484e-005
  0
LINE
 8
GROUP0
10
104.105211012006
20
1557.10879574907
30
4.73368829031484e-005
11
103.587572910498
21
1557.17694401066
31
4.71021370767766e-005
  0
LINE
 8
GROUP0
10
106.037062418775
20
1558.59115797922
30
4.77176194757789e-005
11
105.837261653751
21
1558.10879603629
31
4.77720969439877e-005
  0
LINE
 8
GROUP0
10
102.690996883485
20
1560.52300907694
30
4.57748089234489e-005
11
103.105210393146
21
1560.84084639082
31
4.58564401675743e-005
  0
LINE
 8
GROUP0
10
103.105210393146
20
1560.84084639082
30
4.58564401675743e-005
11
103.587572269817
21
1561.04064731582
31
4.60000910833036e-005
  0
LINE
 8
GROUP0
10
381.297930600066
20
1491.82259686803
30
9.12432783526262e-005
11
381.447781233821
21
1492.18436830038
31
9.12122931347792e-005
  0
LINE
 8
GROUP0
10
381.686159167718
20
1492.49502847216
30
9.12313123684061e-005
11
381.996819339497
21
1492.73340640605
31
9.12990421182314e-005
  0
LINE
 8
GROUP0
10
382.746819339497
20
1489.93436830038
30
9.23329728851507e-005
11
382.358590771844
21
1489.98547956094
31
9.21583097602652e-005
  0
LINE
 8
GROUP0
10
382.746819339498
20
1492.93436830038
30
9.1559160085436e-005
11
383.135047907151
21
1492.88325703981
31
9.17338231207876e-005
  0
LINE
 8
GROUP0
10
381.297930600062
20
1491.04613973272
30
9.14435551921833e-005
11
381.246819339498
21
1491.43436830038
31
9.13221582407586e-005
  0
LINE
 8
GROUP0
10
383.135047907152
20
1489.98547956094
30
9.24812687453314e-005
11
382.746819339497
21
1489.93436830038
31
9.23329728851507e-005
  0
LINE
 8
GROUP0
10
381.246819339498
20
1491.43436830038
30
9.13221582407586e-005
11
381.297930600066
21
1491.82259686803
31
9.12432783526262e-005
  0
LINE
 8
GROUP0
10
381.447781233821
20
1492.18436830038
30
9.12122931347792e-005
11
381.686159167718
21
1492.49502847216
31
9.12313123684061e-005
  0
LINE
 8
GROUP0
10
381.996819339497
20
1490.1353301947
30
9.19691835109149e-005
11
381.686159167717
21
1490.3737081286
31
9.17784810638589e-005
  0
LINE
 8
GROUP0
10
383.496819339498
20
1490.1353301947
30
9.25930921164053e-005
11
383.135047907152
21
1489.98547956094
31
9.24812687453314e-005
  0
LINE
 8
GROUP0
10
381.996819339497
20
1492.73340640605
30
9.12990421182314e-005
11
382.358590771843
21
1492.88325703981
31
9.14108641357214e-005
  0
LINE
 8
GROUP0
10
382.358590771843
20
1492.88325703981
30
9.14108641357214e-005
11
382.746819339498
21
1492.93436830038
31
9.1559160085436e-005
  0
LINE
 8
GROUP0
10
383.807479511277
20
1490.3737081286
30
9.26608212338531e-005
11
383.496819339498
21
1490.1353301947
31
9.25930921164053e-005
  0
LINE
 8
GROUP0
10
382.358590771844
20
1489.98547956094
30
9.21583097602652e-005
11
381.996819339497
21
1490.1353301947
31
9.19691835109149e-005
  0
LINE
 8
GROUP0
10
381.686159167717
20
1490.3737081286
30
9.17784810638589e-005
11
381.44778123382
21
1490.68436830038
31
9.15991994443976e-005
  0
LINE
 8
GROUP0
10
381.44778123382
20
1490.68436830038
30
9.15991994443976e-005
11
381.297930600062
21
1491.04613973272
31
9.14435551921833e-005
  0
LINE
 8
GROUP0
10
291.997920763566
20
1439.42261198312
30
9.62991976571847e-005
11
292.147771397321
21
1439.78438341547
31
9.62682112641167e-005
  0
LINE
 8
GROUP0
10
384.246819339497
20
1491.43436830038
30
9.25699756322174e-005
11
384.195708078929
21
1491.04613973272
31
9.26488546179605e-005
  0
LINE
 8
GROUP0
10
292.696809503
20
1437.73534530979
30
9.70251017304913e-005
11
292.386149331219
21
1437.97372324369
31
9.68343991953113e-005
  0
LINE
 8
GROUP0
10
292.147771397321
20
1438.28438341547
30
9.66551175737351e-005
11
291.997920763567
21
1438.64615484781
31
9.64994751284143e-005
  0
LINE
 8
GROUP0
10
383.496819339496
20
1492.73340640605
30
9.19229507237218e-005
11
383.807479511275
21
1492.49502847216
31
9.21136525384003e-005
  0
LINE
 8
GROUP0
10
383.807479511275
20
1492.49502847216
30
9.21136525384003e-005
11
384.045857445174
21
1492.18436830038
31
9.22929347014101e-005
  0
LINE
 8
GROUP0
10
292.147771397321
20
1439.78438341547
30
9.62682112641167e-005
11
292.38614933122
21
1440.09504358725
31
9.62872310412921e-005
  0
LINE
 8
GROUP0
10
292.386149331219
20
1437.97372324369
30
9.68343991953113e-005
11
292.147771397321
21
1438.28438341547
31
9.66551175737351e-005
  0
LINE
 8
GROUP0
10
384.195708078931
20
1491.82259686803
30
9.24485773272088e-005
11
384.246819339497
21
1491.43436830038
31
9.25699756322174e-005
  0
LINE
 8
GROUP0
10
384.195708078929
20
1491.04613973272
30
9.26488546179605e-005
11
384.045857445173
21
1490.68436830038
31
9.26798410110285e-005
  0
LINE
 8
GROUP0
10
384.045857445173
20
1490.68436830038
30
9.26798410110285e-005
11
383.807479511277
21
1490.3737081286
31
9.26608212338531e-005
  0
LINE
 8
GROUP0
10
383.135047907151
20
1492.88325703981
30
9.17338231207876e-005
11
383.496819339496
21
1492.73340640605
31
9.19229507237218e-005
  0
LINE
 8
GROUP0
10
293.058580935345
20
1437.58549467603
30
9.7214228613629e-005
11
292.696809503
21
1437.73534530979
31
9.70251017304913e-005
  0
LINE
 8
GROUP0
10
291.997920763567
20
1438.64615484781
30
9.64994751284143e-005
11
291.946809502999
21
1439.03438341547
31
9.63780771843614e-005
  0
LINE
 8
GROUP0
10
384.045857445174
20
1492.18436830038
30
9.22929347014101e-005
11
384.195708078931
21
1491.82259686803
31
9.24485773272088e-005
  0
LINE
 8
GROUP0
10
291.946809502999
20
1439.03438341547
30
9.63780771843614e-005
11
291.997920763566
21
1439.42261198312
31
9.62991976571847e-005
  0
LINE
 8
GROUP0
10
292.38614933122
20
1440.09504358725
30
9.62872310412921e-005
11
292.696809502999
21
1440.33342152114
31
9.63549601587399e-005
  0
LINE
 8
GROUP0
10
293.835038070652
20
1440.4832721549
30
9.678974251347e-005
11
294.196809503
21
1440.33342152114
31
9.69788687642303e-005
  0
LINE
 8
GROUP0
10
294.895698242435
20
1438.64615484782
30
9.77047734713243e-005
11
294.745847608674
21
1438.28438341547
31
9.7735759140366e-005
  0
LINE
 8
GROUP0
10
293.446809502999
20
1437.53438341547
30
9.73888921897092e-005
11
293.058580935345
21
1437.58549467603
31
9.7214228613629e-005
  0
LINE
 8
GROUP0
10
294.895698242433
20
1439.42261198312
30
9.75044960000948e-005
11
294.946809502997
21
1439.03438341547
31
9.76258945758202e-005
  0
LINE
 8
GROUP0
10
293.058580935344
20
1440.4832721549
30
9.64667835284039e-005
11
293.446809502998
21
1440.53438341547
31
9.66150795704723e-005
  0
LINE
 8
GROUP0
10
294.946809502997
20
1439.03438341547
30
9.76258945758202e-005
11
294.895698242435
21
1438.64615484782
31
9.77047734713243e-005
  0
LINE
 8
GROUP0
10
292.696809502999
20
1440.33342152114
30
9.63549601587399e-005
11
293.058580935344
21
1440.4832721549
31
9.64667835284039e-005
  0
LINE
 8
GROUP0
10
294.196809503
20
1440.33342152114
30
9.69788687642303e-005
11
294.50746967478
21
1440.09504358725
31
9.71695712112863e-005
  0
LINE
 8
GROUP0
10
294.745847608674
20
1438.28438341547
30
9.7735759140366e-005
11
294.507469674778
21
1437.97372324369
31
9.77167393653056e-005
  0
LINE
 8
GROUP0
10
293.835038070653
20
1437.58549467603
30
9.75371875986952e-005
11
293.446809502999
21
1437.53438341547
31
9.73888921897092e-005
  0
LINE
 8
GROUP0
10
293.446809502998
20
1440.53438341547
30
9.66150795704723e-005
11
293.835038070652
21
1440.4832721549
31
9.678974251347e-005
  0
LINE
 8
GROUP0
10
294.507469674778
20
1437.97372324369
30
9.77167393653056e-005
11
294.196809502999
21
1437.73534530979
31
9.76490103359817e-005
  0
LINE
 8
GROUP0
10
294.196809502999
20
1437.73534530979
30
9.76490103359817e-005
11
293.835038070653
21
1437.58549467603
31
9.75371875986952e-005
  0
LINE
 8
GROUP0
10
294.745847608675
20
1439.78438341547
30
9.73488528307476e-005
11
294.895698242433
21
1439.42261198312
31
9.75044960000948e-005
  0
LINE
 8
GROUP0
10
294.50746967478
20
1440.09504358725
30
9.71695712112863e-005
11
294.745847608675
21
1439.78438341547
31
9.73488528307476e-005
  0
LINE
 8
GROUP0
10
292.147771397438
20
1492.13438384837
30
9.62682174426632e-005
11
292.386149331315
21
1492.44504402013
31
9.62872372198387e-005
  0
LINE
 8
GROUP0
10
291.946809503129
20
1491.38438384844
30
9.63780834524419e-005
11
291.997920763693
21
1491.77261241606
31
9.62992039259702e-005
  0
LINE
 8
GROUP0
10
292.147771397432
20
1490.63438384851
30
9.66551238425206e-005
11
291.997920763688
21
1490.99615528082
31
9.64994809453001e-005
  0
LINE
 8
GROUP0
10
294.507469674687
20
1492.44504402012
30
9.71695773898329e-005
11
294.745847608564
21
1492.13438384836
31
9.73488590995331e-005
  0
LINE
 8
GROUP0
10
294.196809502935
20
1492.683421954
30
9.69788750330158e-005
11
294.507469674687
21
1492.44504402012
31
9.71695773898329e-005
  0
LINE
 8
GROUP0
10
294.745847608564
20
1492.13438384836
30
9.73488590995331e-005
11
294.895698242306
21
1491.77261241605
31
9.75045022688803e-005
  0
LINE
 8
GROUP0
10
292.696809503058
20
1490.08534574288
30
9.70251080006868e-005
11
292.386149331307
21
1490.32372367675
31
9.68344055536308e-005
  0
LINE
 8
GROUP0
10
293.058580935372
20
1489.93549510913
30
9.7214235513382e-005
11
292.696809503058
21
1490.08534574288
31
9.70251080006868e-005
  0
LINE
 8
GROUP0
10
291.997920763688
20
1490.99615528082
30
9.64994809453001e-005
11
291.946809503129
21
1491.38438384844
31
9.63780834524419e-005
  0
LINE
 8
GROUP0
10
293.835038070623
20
1492.83327258774
30
9.67897486934266e-005
11
294.196809502935
21
1492.683421954
31
9.69788750330158e-005
  0
LINE
 8
GROUP0
10
291.997920763693
20
1491.77261241606
30
9.62992039259702e-005
11
292.147771397438
21
1492.13438384837
31
9.62682174426632e-005
  0
LINE
 8
GROUP0
10
292.386149331307
20
1490.32372367675
30
9.68344055536308e-005
11
292.147771397432
21
1490.63438384851
31
9.66551238425206e-005
  0
LINE
 8
GROUP0
10
292.696809503067
20
1492.683421954
30
9.63549663372865e-005
11
293.058580935382
21
1492.83327258774
31
9.64667897083604e-005
  0
LINE
 8
GROUP0
10
293.446809503002
20
1492.8843838483
30
9.66150850264025e-005
11
293.835038070623
21
1492.83327258774
31
9.67897486934266e-005
  0
LINE
 8
GROUP0
10
293.058580935382
20
1492.83327258774
30
9.64667897083604e-005
11
293.446809503002
21
1492.8843838483
31
9.66150850264025e-005
  0
LINE
 8
GROUP0
10
292.386149331315
20
1492.44504402013
30
9.62872372198387e-005
11
292.696809503067
21
1492.683421954
31
9.63549663372865e-005
  0
LINE
 8
GROUP0
10
354.804907532101
20
1569.60911051035
30
0.000348393795340168
11
354.746973360452
21
1570.04910182368
31
0.000348239444762383
  0
LINE
 8
GROUP0
10
354.577166320882
20
1568.75910632987
30
0.000348541164819505
11
354.746989513152
21
1569.16911707048
31
0.000348496705940687
  0
LINE
 8
GROUP0
10
351.454982511551
20
1565.6368061991
30
0.000344622812728362
11
351.807059033185
21
1565.90697438184
31
0.00034470015626562
  0
LINE
 8
GROUP0
10
294.196809502926
20
1490.08534574287
30
9.76490166964161e-005
11
293.835038070612
21
1489.93549510913
31
9.75371944984482e-005
  0
LINE
 8
GROUP0
10
293.835038070612
20
1489.93549510913
30
9.75371944984482e-005
11
293.446809502991
21
1489.88438384857
31
9.73888985487337e-005
  0
LINE
 8
GROUP0
10
294.895698242306
20
1491.77261241605
30
9.75045022688803e-005
11
294.946809502865
21
1491.38438384843
31
9.76259008439007e-005
  0
LINE
 8
GROUP0
10
351.044978035401
20
1565.46696788309
30
0.000344490419754029
11
351.454982511551
21
1565.6368061991
31
0.000344622812728362
  0
LINE
 8
GROUP0
10
354.746989513152
20
1569.16911707048
30
0.000348496705940687
11
354.804907532101
21
1569.60911051035
31
0.000348393795340168
  0
LINE
 8
GROUP0
10
293.446809502991
20
1489.88438384857
30
9.73888985487337e-005
11
293.058580935372
21
1489.93549510913
31
9.7214235513382e-005
  0
LINE
 8
GROUP0
10
350.604986732223
20
1565.40903363436
30
0.0003443119973565
11
351.044978035401
21
1565.46696788309
31
0.000344490419754029
  0
LINE
 8
GROUP0
10
294.745847608556
20
1490.6343838485
30
9.77357654993904e-005
11
294.50746967468
21
1490.32372367675
31
9.7716745723625e-005
  0
LINE
 8
GROUP0
10
354.307011125197
20
1568.40701984292
30
0.000348524144283652
11
351.807059033185
21
1565.90697438184
31
0.00034470015626562
  0
LINE
 8
GROUP0
10
294.8956982423
20
1490.99615528081
30
9.77047797394048e-005
11
294.745847608556
21
1490.6343838485
31
9.77357654993904e-005
  0
LINE
 8
GROUP0
10
294.50746967468
20
1490.32372367675
30
9.7716745723625e-005
11
294.196809502926
21
1490.08534574287
31
9.76490166964161e-005
  0
LINE
 8
GROUP0
10
354.307011125197
20
1568.40701984292
30
0.000348524144283652
11
354.577166320882
21
1568.75910632987
31
0.000348541164819505
  0
LINE
 8
GROUP0
10
294.946809502865
20
1491.38438384843
30
9.76259008439007e-005
11
294.8956982423
21
1490.99615528081
31
9.77047797394048e-005
  0
LINE
 8
GROUP0
10
352.25488050854
20
1571.08130688961
30
0.000346831188061097
11
351.902803939576
21
1570.81113876855
31
0.000346753844705022
  0
LINE
 8
GROUP0
10
349.132696292401
20
1567.95900635203
30
0.000342912835248749
11
348.962873171957
21
1567.54899558166
31
0.000342957294848772
  0
LINE
 8
GROUP0
10
348.962889478814
20
1566.66901082847
30
0.00034321455620826
11
349.132727794829
21
1566.25900635232
31
0.000343409825632629
  0
LINE
 8
GROUP0
10
348.962873171957
20
1567.54899558166
30
0.000342957294848772
11
348.904955230088
21
1567.10900213165
31
0.000343060205901191
  0
LINE
 8
GROUP0
10
352.664885014442
20
1571.2511451338
30
0.000346963582479254
11
352.25488050854
21
1571.08130688961
31
0.000346831188061097
  0
LINE
 8
GROUP0
10
353.10487632777
20
1571.30907930545
30
0.000347142003613438
11
352.664885014442
21
1571.2511451338
31
0.000346963582479254
  0
LINE
 8
GROUP0
10
354.306966995206
20
1570.81118289855
30
0.000347821292528311
11
353.954880508253
21
1571.08133809423
31
0.000347585987418691
  0
LINE
 8
GROUP0
10
349.402851426406
20
1568.3110928863
30
0.000342929857498436
11
349.132696292401
21
1567.95900635203
31
0.000342912835248749
  0
LINE
 8
GROUP0
10
350.164993282205
20
1565.46695157623
30
0.000344099705772682
11
350.604986732223
21
1565.40903363436
31
0.0003443119973565
  0
LINE
 8
GROUP0
10
348.904955230088
20
1567.10900213165
30
0.000343060205901191
11
348.962889478814
21
1566.66901082847
31
0.00034321455620826
  0
LINE
 8
GROUP0
10
353.544869767642
20
1571.2511612865
30
0.000347354295107016
11
353.10487632777
21
1571.30907930545
31
0.000347142003613438
  0
LINE
 8
GROUP0
10
349.402895977564
20
1565.90692983068
30
0.000343632707088748
11
349.754982511842
21
1565.63677469668
31
0.000343868013641485
  0
LINE
 8
GROUP0
10
353.954880508253
20
1571.08133809423
30
0.000347585987418691
11
353.544869767642
21
1571.2511612865
31
0.000347354295107016
  0
LINE
 8
GROUP0
10
349.754982511842
20
1565.63677469668
30
0.000343868013641485
11
350.164993282205
21
1565.46695157623
31
0.000344099705772682
  0
LINE
 8
GROUP0
10
349.132727794829
20
1566.25900635232
30
0.000343409825632629
11
349.402895977564
21
1565.90692983068
31
0.000343632707088748
  0
LINE
 8
GROUP0
10
349.402851426406
20
1568.3110928863
30
0.000342929857498436
11
351.902803939576
21
1570.81113876855
31
0.000346753844705022
  0
LINE
 8
GROUP0
10
348.963371300016
20
1540.66901081354
30
0.000350815589151987
11
349.13320961603
21
1540.25900633739
31
0.00035101085821399
  0
LINE
 8
GROUP0
10
348.90543705129
20
1541.10900211672
30
0.000350661239204464
11
348.963371300016
21
1540.66901081354
31
0.000350815589151987
  0
LINE
 8
GROUP0
10
354.805482722373
20
1538.60911252117
30
0.000357456564288888
11
354.747548550726
21
1539.0491038345
31
0.000357302214521138
  0
LINE
 8
GROUP0
10
353.545505240604
20
1536.96701548849
30
0.00035737717671937
11
353.955509746506
21
1537.13685373267
31
0.00035750956996442
  0
LINE
 8
GROUP0
10
353.105513927277
20
1536.90908131684
30
0.000357198754502319
11
353.545505240604
21
1536.96701548849
31
0.00035737717671937
  0
LINE
 8
GROUP0
10
354.746973360452
20
1570.04910182368
30
0.000348239444762383
11
354.577135116262
21
1570.45910632958
31
0.000348044175067297
  0
LINE
 8
GROUP0
10
352.665520487404
20
1536.96699933579
30
0.000356986463820891
11
353.105513927277
21
1536.90908131684
31
0.000357198754502319
  0
LINE
 8
GROUP0
10
351.90342325984
20
1537.40697772374
30
0.000356519464415045
11
352.255509746793
21
1537.13682252806
31
0.000356754770697065
  0
LINE
 8
GROUP0
10
351.90342325984
20
1537.40697772374
30
0.000356519464415045
11
349.403377798766
21
1539.90692981575
31
0.000351233741206286
  0
LINE
 8
GROUP0
10
354.747564703424
20
1538.1691190813
30
0.000357559475158714
11
354.805482722373
21
1538.60911252117
31
0.000357456564288888
  0
LINE
 8
GROUP0
10
349.13320961603
20
1540.25900633739
30
0.00035101085821399
11
349.403377798766
21
1539.90692981575
31
0.000351233741206286
  0
LINE
 8
GROUP0
10
354.577741511155
20
1537.75910834069
30
0.000357603935121809
11
354.747564703424
21
1538.1691190813
31
0.000357559475158714
  0
LINE
 8
GROUP0
10
353.955509746506
20
1537.13685373267
30
0.00035750956996442
11
354.307586315471
21
1537.40702185373
31
0.000357586914313829
  0
LINE
 8
GROUP0
10
354.577135116262
20
1570.45910632958
30
0.000348044175067297
11
354.306966995206
21
1570.81118289855
31
0.000347821292528311
  0
LINE
 8
GROUP0
10
354.307586315471
20
1537.40702185373
30
0.000357586914313829
11
354.577741511155
21
1537.75910834069
31
0.000357603935121809
  0
LINE
 8
GROUP0
10
352.255509746793
20
1537.13682252806
30
0.000356754770697065
11
352.665520487404
21
1536.96699933579
31
0.000356986463820891
  0
LINE
 8
GROUP0
10
350.605405548571
20
1542.80903361885
30
0.000350919048629372
11
350.165414245391
21
1542.75109937012
31
0.000350740626503265
  0
LINE
 8
GROUP0
10
351.807496303229
20
1542.31113742253
30
0.000351598339349024
11
354.307542185477
21
1539.81118490936
31
0.000356884062467544
  0
LINE
 8
GROUP0
10
350.165414245391
20
1542.75109937012
30
0.000350740626503265
11
349.755409769242
21
1542.58126105411
31
0.000350608233258215
  0
LINE
 8
GROUP0
10
351.04539899859
20
1542.75111567698
30
0.000351131340574851
11
350.605405548571
21
1542.80903361885
31
0.000350919048629372
  0
LINE
 8
GROUP0
10
347.997612161595
20
1548.10898529516
30
0.000343791755530476
11
349.196363600019
21
1551.0031789683
31
0.000343477921486718
  0
LINE
 8
GROUP0
10
349.605196130873
20
1554.10901508607
30
0.000342751487471915
11
349.196248492805
21
1557.21483604969
31
0.00034166195953737
  0
LINE
 8
GROUP0
10
349.196363600019
20
1551.0031789683
30
0.000343477921486718
11
349.605196130873
21
1554.10901508607
31
0.000342751487471915
  0
LINE
 8
GROUP0
10
349.403333247608
20
1542.31109287137
30
0.000350530890533107
11
349.133178113603
21
1541.9590063371
31
0.000350513868010588
  0
LINE
 8
GROUP0
10
349.133178113603
20
1541.9590063371
30
0.000350513868010588
11
348.963354993161
21
1541.54899556673
31
0.000350558327161532
  0
LINE
 8
GROUP0
10
351.45540976895
20
1542.58129255654
30
0.000351363032345092
11
351.04539899859
21
1542.75111567698
31
0.000351131340574851
  0
LINE
 8
GROUP0
10
351.807496303229
20
1542.31113742253
30
0.000351598339349024
11
351.45540976895
21
1542.58129255654
31
0.000351363032345092
  0
LINE
 8
GROUP0
10
354.747548550726
20
1539.0491038345
30
0.000357302214521138
11
354.577710306538
21
1539.4591083404
31
0.000357106945279362
  0
LINE
 8
GROUP0
10
349.755409769242
20
1542.58126105411
30
0.000350608233258215
11
349.403333247608
21
1542.31109287137
31
0.000350530890533107
  0
LINE
 8
GROUP0
10
348.963354993161
20
1541.54899556673
30
0.000350558327161532
11
348.90543705129
21
1541.10900211672
31
0.000350661239204464
  0
LINE
 8
GROUP0
10
354.577710306538
20
1539.4591083404
30
0.000357106945279362
11
354.307542185477
21
1539.81118490936
31
0.000356884062467544
  0
LINE
 8
GROUP0
10
346.090634745096
20
1545.6236685826
30
0.000343671601911438
11
347.997612161595
21
1548.10898529516
31
0.000343791755530476
  0
LINE
 8
GROUP0
10
337.604973762867
20
1566.10879271394
30
0.000333915316383532
11
334.499152799247
21
1565.69984507587
31
0.000332655867430498
  0
LINE
 8
GROUP0
10
340.71080988064
20
1565.69996018309
30
0.00033541384346969
11
337.604973762867
21
1566.10879271394
31
0.000333915316383532
  0
LINE
 8
GROUP0
10
326.014028665851
20
1557.21440646371
30
0.000331369051285074
11
325.605196134996
21
1554.10857034593
31
0.000332095485208228
  0
LINE
 8
GROUP0
10
325.605196134996
20
1554.10857034593
30
0.000332095485208228
11
326.014143773065
21
1551.00274938231
31
0.000333185013144183
  0
LINE
 8
GROUP0
10
334.499152799247
20
1565.69984507587
30
0.000332655867430498
11
331.605003555838
21
1564.5009863746
31
0.000331721321319006
  0
LINE
 8
GROUP0
10
327.212780104275
20
1560.10860013684
30
0.000331055217602272
11
326.014028665851
21
1557.21440646371
31
0.000331369051285074
  0
LINE
 8
GROUP0
10
334.499582385228
20
1542.51762524892
30
0.000339433130294731
11
337.605418503003
21
1542.10879271806
31
0.000340931654222526
  0
LINE
 8
GROUP0
10
331.605388712093
20
1543.71637668734
30
0.000337797648560578
11
334.499582385228
21
1542.51762524892
31
0.000339433130294731
  0
LINE
 8
GROUP0
10
326.014143773065
20
1551.00274938231
30
0.000333185013144183
11
327.213002474341
21
1548.1086001389
31
0.000334563385437492
  0
LINE
 8
GROUP0
10
331.605003555838
20
1564.5009863746
30
0.000331721321319006
11
329.119757520772
21
1562.5939168494
31
0.000331175370589637
  0
LINE
 8
GROUP0
10
343.605388710033
20
1543.71659905741
30
0.000343125649286347
11
346.090634745096
21
1545.6236685826
31
0.000343671601911438
  0
LINE
 8
GROUP0
10
327.213002474341
20
1548.1086001389
30
0.000334563385437492
11
329.120071999537
21
1545.62335410384
31
0.000336136671142157
  0
LINE
 8
GROUP0
10
329.120071999537
20
1545.62335410384
30
0.000336136671142157
11
331.605388712093
21
1543.71637668734
31
0.000337797648560578
  0
LINE
 8
GROUP0
10
340.711239466622
20
1542.51774035613
30
0.000342191105882728
11
343.605388710033
21
1543.71659905741
31
0.000343125649286347
  0
LINE
 8
GROUP0
10
337.605418503003
20
1542.10879271806
30
0.000340931654222526
11
340.711239466622
21
1542.51774035613
31
0.000342191105882728
  0
LINE
 8
GROUP0
10
329.119757520772
20
1562.5939168494
30
0.000331175370589637
11
327.212780104275
21
1560.10860013684
31
0.000331055217602272
  0
LINE
 8
GROUP0
10
323.754982496914
20
1565.63629287547
30
0.000332324010880841
11
324.164993267275
21
1565.46646975503
31
0.000332555704275383
  0
LINE
 8
GROUP0
10
320.632681959328
20
1568.75847709161
30
0.000333469811360754
11
320.902850080385
21
1568.40640052265
31
0.000333692693901855
  0
LINE
 8
GROUP0
10
324.164993267275
20
1565.46646975503
30
0.000332555704275383
11
324.604986717293
21
1565.40855181316
31
0.00033276799513729
  0
LINE
 8
GROUP0
10
326.304955214576
20
1567.10858331529
30
0.000333025804201947
11
326.24702096585
21
1567.54857461847
31
0.000332871454614675
  0
LINE
 8
GROUP0
10
325.454982496624
20
1565.6363243779
30
0.000333078810870108
11
325.807059018257
21
1565.90649256063
31
0.000333156153956171
  0
LINE
 8
GROUP0
10
325.044978020472
20
1565.46648606188
30
0.000332946416632429
11
325.454982496624
21
1565.6363243779
31
0.000333078810870108
  0
LINE
 8
GROUP0
10
325.807059018257
20
1565.90649256063
30
0.000333156153956171
11
326.077214152262
21
1566.25857909491
31
0.000333173175395823
  0
LINE
 8
GROUP0
10
323.402895962637
20
1565.90644800947
30
0.000332088705410971
11
323.754982496914
21
1565.63629287547
31
0.000332324010880841
  0
LINE
 8
GROUP0
10
343.605003553779
20
1564.50120874467
30
0.000337049322315491
11
340.71080988064
21
1565.69996018309
31
0.00033541384346969
  0
LINE
 8
GROUP0
10
346.090320266334
20
1562.59423132817
30
0.000338710301358919
11
343.605003553779
21
1564.50120874467
31
0.000337049322315491
  0
LINE
 8
GROUP0
10
349.196248492805
20
1557.21483604969
30
0.00034166195953737
11
347.997389791528
21
1560.1089852931
31
0.000340283585619056
  0
LINE
 8
GROUP0
10
326.077214152262
20
1566.25857909491
30
0.000333173175395823
11
326.247037272703
21
1566.66858986527
31
0.000333128715793685
  0
LINE
 8
GROUP0
10
324.604986717293
20
1565.40855181316
30
0.00033276799513729
11
325.044978020472
21
1565.46648606188
31
0.000332946416632429
  0
LINE
 8
GROUP0
10
326.247037272703
20
1566.66858986527
30
0.000333128715793685
11
326.304955214576
21
1567.10858331529
31
0.000333025804201947
  0
LINE
 8
GROUP0
10
323.402895962637
20
1565.90644800947
30
0.000332088705410971
11
320.902850080385
21
1568.40640052265
31
0.000333692693901855
  0
LINE
 8
GROUP0
10
347.997389791528
20
1560.1089852931
30
0.000340283585619056
11
346.090320266334
21
1562.59423132817
31
0.000338710301358919
  0
LINE
 8
GROUP0
10
320.404909543488
20
1569.60847291084
30
0.000333120192441466
11
320.462843715138
21
1569.16848159751
31
0.000333274542208511
  0
LINE
 8
GROUP0
10
320.462843715138
20
1569.16848159751
30
0.000333274542208511
11
320.632681959328
21
1568.75847709161
31
0.000333469811360754
  0
LINE
 8
GROUP0
10
320.632650754707
20
1570.45847709132
30
0.000332972820886634
11
320.462827562439
21
1570.04846635071
31
0.000333017280939968
  0
LINE
 8
GROUP0
10
321.664887025258
20
1571.25056994352
30
0.000333199580462179
11
321.254882519358
21
1571.08073169934
31
0.000333067185231872
  0
LINE
 8
GROUP0
10
322.544871778458
20
1571.25058609622
30
0.000333590293992331
11
322.104878338587
21
1571.30850411517
31
0.00033337800222733
  0
LINE
 8
GROUP0
10
323.306969006023
20
1570.81060770827
30
0.000334057291232442
11
322.95488251907
21
1571.08076290395
31
0.000333821985762572
  0
LINE
 8
GROUP0
10
323.306969006023
20
1570.81060770827
30
0.000334057291232442
11
325.8070144671
21
1568.31065561625
31
0.000332453303553709
  0
LINE
 8
GROUP0
10
326.077182649835
20
1567.95857909462
30
0.000332676184470509
11
325.8070144671
21
1568.31065561625
31
0.000332453303553709
  0
LINE
 8
GROUP0
10
326.305437035777
20
1541.10858330036
30
0.000340626837144264
11
326.247502787051
21
1541.54857460354
31
0.000340472487196741
  0
LINE
 8
GROUP0
10
326.24751909391
20
1540.66858985034
30
0.000340729749640506
11
326.305437035777
21
1541.10858330036
31
0.000340626837144264
  0
LINE
 8
GROUP0
10
326.24702096585
20
1567.54857461847
30
0.000332871454614675
11
326.077182649835
21
1567.95857909462
31
0.000332676184470509
  0
LINE
 8
GROUP0
10
322.104878338587
20
1571.30850411517
30
0.00033337800222733
11
321.664887025258
21
1571.25056994352
31
0.000333199580462179
  0
LINE
 8
GROUP0
10
320.462827562439
20
1570.04846635071
30
0.000333017280939968
11
320.404909543488
21
1569.60847291084
31
0.000333120192441466
  0
LINE
 8
GROUP0
10
321.254882519358
20
1571.08073169934
30
0.000333067185231872
11
320.902805950392
21
1570.81056357828
31
0.000332989843409154
  0
LINE
 8
GROUP0
10
320.902805950392
20
1570.81056357828
30
0.000332989843409154
11
320.632650754707
21
1570.45847709132
31
0.000332972820886634
  0
LINE
 8
GROUP0
10
322.95488251907
20
1571.08076290395
30
0.000333821985762572
11
322.544871778458
21
1571.25058609622
31
0.000333590293992331
  0
LINE
 8
GROUP0
10
320.903381140664
20
1539.81056558909
30
0.000342052613167909
11
323.403333232681
21
1542.31061105017
31
0.000338986887410098
  0
LINE
 8
GROUP0
10
325.80754083946
20
1539.9064925457
30
0.000340757187261559
11
326.077695973462
21
1540.25857907998
31
0.000340774208518618
  0
LINE
 8
GROUP0
10
325.80754083946
20
1539.9064925457
30
0.000340757187261559
11
323.307588326286
21
1537.40644666346
31
0.00034382291220581
  0
LINE
 8
GROUP0
10
322.545507251421
20
1536.96644029821
30
0.000343613175243024
11
322.955511757324
21
1537.1362785424
31
0.000343745568758791
  0
LINE
 8
GROUP0
10
322.955511757324
20
1537.1362785424
30
0.000343745568758791
11
323.307588326286
21
1537.40644666346
31
0.00034382291220581
  0
LINE
 8
GROUP0
10
322.105515938092
20
1536.90850612656
30
0.000343434752665722
11
322.545507251421
21
1536.96644029821
31
0.000343613175243024
  0
LINE
 8
GROUP0
10
320.463418905411
20
1538.16848360833
30
0.000342337311607016
11
320.633257149598
21
1537.75847910243
31
0.000342532581121624
  0
LINE
 8
GROUP0
10
321.665522498221
20
1536.96642414551
30
0.000343222461261677
11
322.105515938092
21
1536.90850612656
31
0.000343434752665722
  0
LINE
 8
GROUP0
10
320.405484733764
20
1538.60847492166
30
0.000342182962202336
11
320.463418905411
21
1538.16848360833
31
0.000342337311607016
  0
LINE
 8
GROUP0
10
320.463402752711
20
1539.04846836153
30
0.000342080050698723
11
320.405484733764
21
1538.60847492166
31
0.000342182962202336
  0
LINE
 8
GROUP0
10
326.077695973462
20
1540.25857907998
30
0.000340774208518618
11
326.24751909391
21
1540.66858985034
31
0.000340729749640506
  0
LINE
 8
GROUP0
10
321.255511757611
20
1537.13624733778
30
0.000342990767867135
11
321.665522498221
21
1536.96642414551
31
0.000343222461261677
  0
LINE
 8
GROUP0
10
320.633225944982
20
1539.45847910214
30
0.000342035590918222
11
320.463402752711
21
1539.04846836153
31
0.000342080050698723
  0
LINE
 8
GROUP0
10
320.633257149598
20
1537.75847910243
30
0.000342532581121624
11
320.903425270657
21
1537.40640253346
31
0.000342755463119176
  0
LINE
 8
GROUP0
10
320.903425270657
20
1537.40640253346
30
0.000342755463119176
11
321.255511757611
21
1537.13624733778
31
0.000342990767867135
  0
LINE
 8
GROUP0
10
320.903381140664
20
1539.81056558909
30
0.000342052613167909
11
320.633225944982
21
1539.45847910214
31
0.000342035590918222
  0
LINE
 8
GROUP0
10
325.04539898366
20
1542.75063385577
30
0.000339587337453251
11
324.605405533644
21
1542.80855179764
31
0.000339375045958967
  0
LINE
 8
GROUP0
10
213.805269762738
20
1569.60636550372
30
0.000290958002845482
11
213.747335665542
21
1570.04635682685
31
0.000290803652176047
  0
LINE
 8
GROUP0
10
213.747351669335
20
1569.16637207365
30
0.000291060913356467
11
213.805269762738
21
1569.60636550372
31
0.000290958002845482
  0
LINE
 8
GROUP0
10
213.307373152423
20
1568.40427492053
30
0.000291088352692059
11
213.577528407685
21
1568.75636136177
31
0.000291105374039358
  0
LINE
 8
GROUP0
10
323.755409754314
20
1542.5807792329
30
0.000339064230948766
11
323.403333232681
21
1542.31061105017
31
0.000338986887410098
  0
LINE
 8
GROUP0
10
210.455344070016
20
1565.63406175933
30
0.000287187021317248
11
210.807420637367
21
1565.90422988249
31
0.000287264364131889
  0
LINE
 8
GROUP0
10
210.045339565126
20
1565.46422351269
30
0.000287054626808853
11
210.455344070016
21
1565.63406175933
31
0.000287187021317248
  0
LINE
 8
GROUP0
10
209.605348252143
20
1565.40628933842
30
0.000286876204682041
11
210.045339565126
21
1565.46422351269
31
0.000287054626808853
  0
LINE
 8
GROUP0
10
325.455409754022
20
1542.58081073533
30
0.00033981903111851
11
325.04539898366
21
1542.75063385577
31
0.000339587337453251
  0
LINE
 8
GROUP0
10
325.807496288302
20
1542.31065560133
30
0.000340054335144557
11
325.455409754022
21
1542.58081073533
31
0.00033981903111851
  0
LINE
 8
GROUP0
10
326.077664471036
20
1541.95857907969
30
0.000340277217864021
11
325.807496288302
21
1542.31065560133
31
0.000340054335144557
  0
LINE
 8
GROUP0
10
326.247502787051
20
1541.54857460354
30
0.000340472487196741
11
326.077664471036
21
1541.95857907969
31
0.000340277217864021
  0
LINE
 8
GROUP0
10
324.165414230464
20
1542.75061754892
30
0.000339196624284055
11
323.755409754314
21
1542.5807792329
31
0.000339064230948766
  0
LINE
 8
GROUP0
10
324.605405533644
20
1542.80855179764
30
0.000339375045958967
11
324.165414230464
21
1542.75061754892
31
0.000339196624284055
  0
LINE
 8
GROUP0
10
213.577528407685
20
1568.75636136177
30
0.000291105374039358
11
213.747351669335
21
1569.16637207365
31
0.000291060913356467
  0
LINE
 8
GROUP0
10
213.307373152423
20
1568.40427492053
30
0.000291088352692059
11
210.807420637367
21
1565.90422988249
31
0.000287264364131889
  0
LINE
 8
GROUP0
10
208.755344070302
20
1565.63403054457
30
0.000286432220967026
11
209.165354811924
21
1565.46420735474
31
0.000286663914632285
  0
LINE
 8
GROUP0
10
211.665247522934
20
1571.24840048929
30
0.000289527790346228
11
211.255242988294
21
1571.07856231448
31
0.000289395395928071
  0
LINE
 8
GROUP0
10
212.105238846069
20
1571.30633458649
30
0.000289706212563279
11
211.665247522934
21
1571.24840048929
31
0.000289527790346228
  0
LINE
 8
GROUP0
10
212.545232276139
20
1571.24841649308
30
0.000289918502703274
11
212.105238846069
21
1571.30633458649
31
0.000289706212563279
  0
LINE
 8
GROUP0
10
212.955242988012
20
1571.07859323143
30
0.000290150195917338
11
212.545232276139
21
1571.24841649308
31
0.000289918502703274
  0
LINE
 8
GROUP0
10
213.307329429252
20
1570.80843797617
30
0.000290385501836993
11
212.955242988012
21
1571.07859323143
31
0.000290150195917338
  0
LINE
 8
GROUP0
10
207.905317037667
20
1567.10625812337
30
0.000285624414036767
11
207.963251211942
21
1566.66626681039
31
0.000285778763352618
  0
LINE
 8
GROUP0
10
207.963235053993
20
1567.54625156359
30
0.000285521502084074
11
207.905317037667
21
1567.10625812337
31
0.000285624414036767
  0
LINE
 8
GROUP0
10
208.403257581739
20
1565.90418573815
30
0.000286196915135495
11
208.755344070302
21
1565.63403054457
31
0.000286432220967026
  0
LINE
 8
GROUP0
10
207.963251211942
20
1566.66626681039
30
0.000285778763352618
11
208.133089458579
21
1566.2562623055
31
0.000285974033498898
  0
LINE
 8
GROUP0
10
208.133089458579
20
1566.2562623055
30
0.000285974033498898
11
208.403257581739
21
1565.90418573815
31
0.000286196915135495
  0
LINE
 8
GROUP0
10
208.133058243814
20
1567.95626230521
30
0.000285477042662413
11
207.963235053993
21
1567.54625156359
31
0.000285521502084074
  0
LINE
 8
GROUP0
10
208.403213437398
20
1568.30834879378
30
0.000285494064282543
11
208.133058243814
21
1567.95626230521
31
0.000285477042662413
  0
LINE
 8
GROUP0
10
208.403213437398
20
1568.30834879378
30
0.000285494064282543
11
210.903166373615
21
1570.808394253
31
0.000289318052118687
  0
LINE
 8
GROUP0
10
211.255242988294
20
1571.07856231448
30
0.000289395395928071
11
210.903166373615
21
1570.808394253
31
0.000289318052118687
  0
LINE
 8
GROUP0
10
209.165354811924
20
1565.46420735474
30
0.000286663914632285
11
209.605348252143
21
1565.40628933842
31
0.000286876204682041
  0
LINE
 8
GROUP0
10
210.903780041393
20
1537.40423320808
30
0.000299083671108208
11
211.255866482632
21
1537.13407795282
31
0.000299318976037349
  0
LINE
 8
GROUP0
10
213.747921613943
20
1538.16637408437
30
0.000300123681671399
11
213.805839707347
21
1538.60636751444
31
0.000300020769356341
  0
LINE
 8
GROUP0
10
212.105870624576
20
1536.90633659777
30
0.000299762960564515
11
212.54586194771
21
1536.96427069496
31
0.000299941382871804
  0
LINE
 8
GROUP0
10
211.665877194506
20
1536.96425469117
30
0.000299550669522131
11
212.105870624576
21
1536.90633659777
31
0.000299762960564515
  0
LINE
 8
GROUP0
10
211.255866482632
20
1537.13407795282
30
0.000299318976037349
11
211.665877194506
21
1536.96425469117
31
0.000299550669522131
  0
LINE
 8
GROUP0
10
213.805839707347
20
1538.60636751444
30
0.000300020769356341
11
213.74790561015
21
1539.04635883757
31
0.000299866419771183
  0
LINE
 8
GROUP0
10
212.54586194771
20
1536.96427069496
30
0.000299941382871804
11
212.95586648235
21
1537.13410886977
31
0.000300073775936377
  0
LINE
 8
GROUP0
10
207.963728633556
20
1540.66626679538
30
0.000293379795575138
11
208.133566880191
21
1540.25626229049
31
0.000293575065268109
  0
LINE
 8
GROUP0
10
213.577497490732
20
1570.45636136149
30
0.00029060838302451
11
213.307329429252
21
1570.80843797617
31
0.000290385501836993
  0
LINE
 8
GROUP0
10
213.578098352293
20
1537.75636337249
30
0.000300168141272128
11
213.747921613943
21
1538.16637408437
31
0.000300123681671399
  0
LINE
 8
GROUP0
10
207.905794459283
20
1541.10625810836
30
0.000293225444544748
11
207.963728633556
21
1540.66626679538
31
0.000293379795575138
  0
LINE
 8
GROUP0
10
212.95586648235
20
1537.13410886977
30
0.000300073775936377
11
213.30794309703
21
1537.40427693125
31
0.000300151120194841
  0
LINE
 8
GROUP0
10
213.30794309703
20
1537.40427693125
30
0.000300151120194841
11
213.578098352293
21
1537.75636337249
31
0.000300168141272128
  0
LINE
 8
GROUP0
10
213.747335665542
20
1570.04635682685
30
0.000290803652176047
11
213.577497490732
21
1570.45636136149
31
0.00029060838302451
  0
LINE
 8
GROUP0
10
210.903780041393
20
1537.40423320808
30
0.000299083671108208
11
208.403735003348
21
1539.90418572314
31
0.00029379794609467
  0
LINE
 8
GROUP0
10
208.133566880191
20
1540.25626229049
30
0.000293575065268109
11
208.403735003348
21
1539.90418572314
31
0.00029379794609467
  0
LINE
 8
GROUP0
10
207.963712475605
20
1541.54625154858
30
0.000293122533672807
11
207.905794459283
21
1541.10625810836
31
0.000293225444544748
  0
LINE
 8
GROUP0
10
213.578067435343
20
1539.45636337221
30
0.000299671151249203
11
213.307899373859
21
1539.80843998689
31
0.000299448269612607
  0
LINE
 8
GROUP0
10
206.997970754088
20
1548.10624144042
30
0.000286355961051238
11
208.196722682255
21
1551.00043491071
31
0.000286042127548913
  0
LINE
 8
GROUP0
10
209.16577193125
20
1542.74835514856
30
0.000293304833647623
11
208.755767426363
21
1542.57851690193
31
0.000293172439500183
  0
LINE
 8
GROUP0
10
208.755767426363
20
1542.57851690193
30
0.000293172439500183
11
208.403690859012
21
1542.30834877877
31
0.000293095095420082
  0
LINE
 8
GROUP0
10
208.196722682255
20
1551.00043491071
30
0.000286042127548913
11
208.605555738662
21
1554.10627095931
31
0.000285315693533406
  0
LINE
 8
GROUP0
10
205.090992917041
20
1545.62092505056
30
0.000286235808243646
11
206.997970754088
21
1548.10624144042
31
0.000286355961051238
  0
LINE
 8
GROUP0
10
210.807853914639
20
1542.30839292311
30
0.000294162543694565
11
213.307899373859
21
1539.80843998689
31
0.000299448269612607
  0
LINE
 8
GROUP0
10
210.807853914639
20
1542.30839292311
30
0.000294162543694565
11
210.455767426075
21
1542.57854811669
31
0.0002939272386773
  0
LINE
 8
GROUP0
10
210.045756684451
20
1542.74837130651
30
0.000293695546185146
11
209.605763244235
21
1542.80628932283
31
0.000293483253879417
  0
LINE
 8
GROUP0
10
213.74790561015
20
1539.04635883757
30
0.000299866419771183
11
213.578067435343
21
1539.45636337221
31
0.000299671151249203
  0
LINE
 8
GROUP0
10
208.605555738662
20
1554.10627095931
30
0.000285315693533406
11
208.196608626147
21
1557.21209199213
31
0.000284226166048646
  0
LINE
 8
GROUP0
10
209.605763244235
20
1542.80628932283
30
0.000293483253879417
11
209.16577193125
21
1542.74835514856
31
0.000293304833647623
  0
LINE
 8
GROUP0
10
208.403690859012
20
1542.30834877877
30
0.000293095095420082
11
208.133535665431
21
1541.9562622902
31
0.000293078074163022
  0
LINE
 8
GROUP0
10
210.455767426075
20
1542.57854811669
30
0.0002939272386773
11
210.045756684451
21
1542.74837130651
31
0.000293695546185146
  0
LINE
 8
GROUP0
10
208.133535665431
20
1541.9562622902
30
0.000293078074163022
11
207.963712475605
21
1541.54625154858
31
0.000293122533672807
  0
LINE
 8
GROUP0
10
185.014388799117
20
1557.21166632892
30
0.000273933257435394
11
184.605555742711
21
1554.10583028033
31
0.000274659690186851
  0
LINE
 8
GROUP0
10
184.605555742711
20
1554.10583028033
30
0.000274659690186851
11
185.014502855226
21
1551.00000924751
31
0.000275749219116139
  0
LINE
 8
GROUP0
10
186.213140727282
20
1560.10585979921
30
0.000273619423754001
11
185.014388799117
21
1557.21166632892
31
0.000273933257435394
  0
LINE
 8
GROUP0
10
202.605746559268
20
1543.7138559459
30
0.00028568985552902
11
205.090992917041
21
1545.62092505056
31
0.000286235808243646
  0
LINE
 8
GROUP0
10
190.605746561292
20
1543.71363560641
30
0.000280361853900862
11
193.499940031579
21
1542.51488367825
31
0.000281997334010714
  0
LINE
 8
GROUP0
10
188.120430171424
20
1545.62061344346
30
0.000278700876301258
11
190.605746561292
21
1543.71363560641
31
0.000280361853900862
  0
LINE
 8
GROUP0
10
188.120118564334
20
1562.59117618908
30
0.000273739577100912
11
186.213140727282
21
1560.10585979921
31
0.000273619423754001
  0
LINE
 8
GROUP0
10
186.213361066769
20
1548.10585980123
30
0.000277127592041121
11
188.120430171424
21
1545.62061344346
31
0.000278700876301258
  0
LINE
 8
GROUP0
10
193.499514368378
20
1565.69710350528
30
0.000275220073582227
11
190.605364922105
21
1564.49824529373
31
0.000274285528734786
  0
LINE
 8
GROUP0
10
196.6053354012
20
1566.10605061779
30
0.000276479523888845
11
193.499514368378
21
1565.69710350528
31
0.000275220073582227
  0
LINE
 8
GROUP0
10
199.711597112994
20
1542.51499773436
30
0.000284755311764445
11
202.605746559268
21
1543.7138559459
31
0.00028568985552902
  0
LINE
 8
GROUP0
10
190.605364922105
20
1564.49824529373
30
0.000274285528734786
11
188.120118564334
21
1562.59117618908
31
0.000273739577100912
  0
LINE
 8
GROUP0
10
199.711171449792
20
1565.69721756139
30
0.000277978050523808
11
196.6053354012
21
1566.10605061779
31
0.000276479523888845
  0
LINE
 8
GROUP0
10
193.499940031579
20
1542.51488367825
30
0.000281997334010714
11
196.605776080174
21
1542.10605062184
31
0.000283495860102129
  0
LINE
 8
GROUP0
10
196.605776080174
20
1542.10605062184
30
0.000283495860102129
11
199.711597112994
21
1542.51499773436
31
0.000284755311764445
  0
LINE
 8
GROUP0
10
185.014502855226
20
1551.00000924751
30
0.000275749219116139
11
186.213361066769
21
1548.10585980123
31
0.000277127592041121
  0
LINE
 8
GROUP0
10
185.247399005761
20
1566.66584969106
30
0.00027569292311852
11
185.305317022084
21
1567.10584313128
31
0.00027559001008155
  0
LINE
 8
GROUP0
10
182.403257566728
20
1565.90370831653
30
0.000274652911201745
11
182.755344055291
21
1565.63355312295
31
0.000274888216762559
  0
LINE
 8
GROUP0
10
184.045339550115
20
1565.46374609108
30
0.000275510622423908
11
184.455344055006
21
1565.63358433771
31
0.000275643017022542
  0
LINE
 8
GROUP0
10
208.196608626147
20
1557.21209199213
30
0.000284226166048646
11
206.997750414604
21
1560.1062414384
31
0.000282847792764118
  0
LINE
 8
GROUP0
10
179.633044046024
20
1568.75573786743
30
0.000276034018144156
11
179.903212107506
21
1568.40366125275
31
0.000276256899873106
  0
LINE
 8
GROUP0
10
182.755344055291
20
1565.63355312295
30
0.000274888216762559
11
183.165354796916
21
1565.46372993313
31
0.000275119910427818
  0
LINE
 8
GROUP0
10
182.403257566728
20
1565.90370831653
30
0.000274652911201745
11
179.903212107506
21
1568.40366125275
31
0.000276256899873106
  0
LINE
 8
GROUP0
10
179.463205871215
20
1569.16574240207
30
0.000275838748360946
11
179.633044046024
21
1568.75573786743
31
0.000276034018144156
  0
LINE
 8
GROUP0
10
202.605364920082
20
1564.49846563322
30
0.000279613530272704
11
199.711171449792
21
1565.69721756139
31
0.000277978050523808
  0
LINE
 8
GROUP0
10
184.807420622356
20
1565.90375246087
30
0.000275720360829812
11
185.077575815939
21
1566.25583894944
31
0.000275737382719249
  0
LINE
 8
GROUP0
10
184.455344055006
20
1565.63358433771
30
0.000275643017022542
11
184.807420622356
21
1565.90375246087
31
0.000275720360829812
  0
LINE
 8
GROUP0
10
183.605348237133
20
1565.4058119168
30
0.000275332201921397
11
184.045339550115
21
1565.46374609108
31
0.000275510622423908
  0
LINE
 8
GROUP0
10
185.077575815939
20
1566.25583894944
30
0.000275737382719249
11
185.247399005761
21
1566.66584969106
31
0.00027569292311852
  0
LINE
 8
GROUP0
10
205.090681309948
20
1562.59148779617
30
0.000281274509223778
11
202.605364920082
21
1564.49846563322
31
0.000279613530272704
  0
LINE
 8
GROUP0
10
183.165354796916
20
1565.46372993313
30
0.000275119910427818
11
183.605348237133
21
1565.4058119168
31
0.000275332201921397
  0
LINE
 8
GROUP0
10
185.305317022084
20
1567.10584313128
30
0.00027559001008155
11
185.247382847812
21
1567.54583444426
31
0.00027543566157926
  0
LINE
 8
GROUP0
10
181.545234286858
20
1571.24784654847
30
0.000276154499963582
11
181.105240856788
21
1571.30576464187
31
0.00027594220874072
  0
LINE
 8
GROUP0
10
182.307331439971
20
1570.80786803156
30
0.000276621498736346
11
181.955244998732
21
1571.07802328682
31
0.00027638619371908
  0
LINE
 8
GROUP0
10
179.405271774019
20
1569.6057337252
30
0.000275684398503662
11
179.463205871215
21
1569.16574240207
31
0.000275838748360946
  0
LINE
 8
GROUP0
10
179.903168384335
20
1570.80782430839
30
0.000275554049378995
11
179.633013129073
21
1570.45573786715
31
0.000275537027309786
  0
LINE
 8
GROUP0
10
179.463189867424
20
1570.04572715527
30
0.000275581488173154
11
179.405271774019
21
1569.6057337252
31
0.000275684398503662
  0
LINE
 8
GROUP0
10
180.255244999014
20
1571.07799236987
30
0.000275631393007902
11
179.903168384335
21
1570.80782430839
31
0.000275554049378995
  0
LINE
 8
GROUP0
10
181.105240856788
20
1571.30576464187
30
0.00027594220874072
11
180.665249533658
21
1571.24783054468
31
0.000275763787426059
  0
LINE
 8
GROUP0
10
181.955244998732
20
1571.07802328682
30
0.00027638619371908
11
181.545234286858
21
1571.24784654847
31
0.000276154499963582
  0
LINE
 8
GROUP0
10
182.307331439971
20
1570.80786803156
30
0.000276621498736346
11
184.807376478019
21
1568.3079155165
31
0.000275017510157338
  0
LINE
 8
GROUP0
10
185.077544601176
20
1567.95583894915
30
0.000275240392515846
11
184.807376478019
21
1568.3079155165
31
0.000275017510157338
  0
LINE
 8
GROUP0
10
185.247382847812
20
1567.54583444426
30
0.00027543566157926
11
185.077544601176
21
1567.95583894915
31
0.000275240392515846
  0
LINE
 8
GROUP0
10
179.633013129073
20
1570.45573786715
30
0.000275537027309786
11
179.463189867424
21
1570.04572715527
31
0.000275581488173154
  0
LINE
 8
GROUP0
10
185.305794443699
20
1541.10584311627
30
0.000283191042574787
11
185.247860269426
21
1541.54583442925
31
0.000283036691543692
  0
LINE
 8
GROUP0
10
185.247876427375
20
1540.66584967605
30
0.000283293952724112
11
185.305794443699
21
1541.10584311627
31
0.000283191042574787
  0
LINE
 8
GROUP0
10
185.078053237553
20
1540.25583893443
30
0.000283338414038675
11
185.247876427375
21
1540.66584967605
31
0.000283293952724112
  0
LINE
 8
GROUP0
10
180.665249533658
20
1571.24783054468
30
0.000275763787426059
11
180.255244999014
21
1571.07799236987
31
0.000275631393007902
  0
LINE
 8
GROUP0
10
179.633583073683
20
1539.45573987787
30
0.000284599795624718
11
179.463759812033
21
1539.04572916599
31
0.000284644254775662
  0
LINE
 8
GROUP0
10
181.955868493071
20
1537.13353892516
30
0.000286309773918597
11
182.307945107751
21
1537.40370698664
31
0.000286387116372283
  0
LINE
 8
GROUP0
10
179.903738328943
20
1539.80782631911
30
0.000284616816883893
11
182.403690844002
21
1542.30787135715
31
0.000281551092118004
  0
LINE
 8
GROUP0
10
182.755767411353
20
1542.57803948031
30
0.000281628435113829
11
182.403690844002
21
1542.30787135715
31
0.000281551092118004
  0
LINE
 8
GROUP0
10
179.463775815824
20
1538.16574441279
30
0.000284901515502772
11
179.633613990633
21
1537.75573987815
31
0.000285096785286687
  0
LINE
 8
GROUP0
10
184.807898043969
20
1539.90375244586
30
0.000283321392238772
11
182.307945107751
21
1537.40370698664
31
0.000286387116372283
  0
LINE
 8
GROUP0
10
179.903738328943
20
1539.80782631911
30
0.000284616816883893
11
179.633583073683
21
1539.45573987787
31
0.000284599795624718
  0
LINE
 8
GROUP0
10
180.255868493352
20
1537.13350800821
30
0.000285554973387897
11
180.665879205227
21
1536.96368474656
31
0.000285786665428855
  0
LINE
 8
GROUP0
10
179.405841718628
20
1538.60573573592
30
0.000284747166006444
11
179.463775815824
21
1538.16574441279
31
0.000284901515502772
  0
LINE
 8
GROUP0
10
181.545863958431
20
1536.96370075035
30
0.000286177379139485
11
181.955868493071
21
1537.13353892516
31
0.000286309773918597
  0
LINE
 8
GROUP0
10
184.807898043969
20
1539.90375244586
30
0.000283321392238772
11
185.078053237553
21
1540.25583893443
31
0.000283338414038675
  0
LINE
 8
GROUP0
10
179.903782052113
20
1537.40366326347
30
0.000285319667646605
11
180.255868493352
21
1537.13350800821
31
0.000285554973387897
  0
LINE
 8
GROUP0
10
181.1058726353
20
1536.90576665316
30
0.000285998957012673
11
181.545863958431
21
1536.96370075035
31
0.000286177379139485
  0
LINE
 8
GROUP0
10
179.633613990633
20
1537.75573987815
30
0.000285096785286687
11
179.903782052113
21
1537.40366326347
31
0.000285319667646605
  0
LINE
 8
GROUP0
10
179.463759812033
20
1539.04572916599
30
0.000284644254775662
11
179.405841718628
21
1538.60573573592
31
0.000284747166006444
  0
LINE
 8
GROUP0
10
180.665879205227
20
1536.96368474656
30
0.000285786665428855
11
181.1058726353
21
1536.90576665316
31
0.000285998957012673
  0
LINE
 8
GROUP0
10
367.613236008855
20
1330.85886146176
30
0.000134798532637415
11
347.613236008859
21
1330.85885795811
31
0.000134798536156733
  0
LINE
 8
GROUP0
10
158.420060256893
20
1329.35814959132
30
0.000198457666619717
11
158.417163460429
21
1310.85814981812
31
0.000203762159127063
  0
LINE
 8
GROUP0
10
183.605763229224
20
1542.80581190122
30
0.000281939251750446
11
183.16577191624
21
1542.74787772695
31
0.000281760829802702
  0
LINE
 8
GROUP0
10
171.120060101202
20
1329.35616097969
30
0.000198546582645187
11
158.420060256893
21
1329.35814959132
31
0.000198457666619717
  0
LINE
 8
GROUP0
10
367.613239512503
20
1310.85886146176
30
0.000140534327292141
11
367.613236008855
21
1330.85886146176
31
0.000134798532637415
  0
LINE
 8
GROUP0
10
171.117163304737
20
1310.85616120649
30
0.000203851073167277
11
158.417163460429
21
1310.85814981812
31
0.000203762159127063
  0
LINE
 8
GROUP0
10
347.613239512501
20
1310.85885795811
30
0.000140534330811459
11
367.613239512503
21
1310.85886146176
31
0.000140534327292141
  0
LINE
 8
GROUP0
10
184.455767411066
20
1542.57807069507
30
0.000282383236187372
11
184.045756669441
21
1542.7478938849
31
0.000282151541708553
  0
LINE
 8
GROUP0
10
184.045756669441
20
1542.7478938849
30
0.000282151541708553
11
183.605763229224
21
1542.80581190122
31
0.000281939251750446
  0
LINE
 8
GROUP0
10
183.16577191624
20
1542.74787772695
30
0.000281760829802702
11
182.755767411353
21
1542.57803948031
31
0.000281628435113829
  0
LINE
 8
GROUP0
10
185.247860269426
20
1541.54583442925
30
0.000283036691543692
11
185.078022022791
21
1541.95583893414
31
0.000282841422662872
  0
LINE
 8
GROUP0
10
171.117163304737
20
1310.85616120649
30
0.000203851073167277
11
171.120060101202
21
1329.35616097969
31
0.000198546582645187
  0
LINE
 8
GROUP0
10
185.078022022791
20
1541.95583893414
30
0.000282841422662872
11
184.807853899631
21
1542.30791550149
31
0.000282618541565594
  0
LINE
 8
GROUP0
10
184.807853899631
20
1542.30791550149
30
0.000282618541565594
11
184.455767411066
21
1542.57807069507
31
0.000282383236187372
  0
LINE
 8
GROUP0
10
347.613236008859
20
1330.85885795811
30
0.000134798536156733
11
347.613239512501
21
1310.85885795811
31
0.000140534330811459
  0
LINE
 8
GROUP0
10
280.355236520157
20
1416.85883325452
30
7.11254924274984e-005
11
280.355233804833
21
1432.35883325452
31
6.62496419649494e-005
  0
LINE
 8
GROUP0
10
384.107470252882
20
1440.14502798165
30
8.31025001356234e-005
11
384.345848186776
21
1439.83436780987
31
8.3281781213651e-005
  0
LINE
 8
GROUP0
10
383.0468100811
20
1437.58436780987
30
8.33218205726127e-005
11
382.658581513447
21
1437.63547907044
31
8.31471577177389e-005
  0
LINE
 8
GROUP0
10
382.658581513447
20
1437.63547907044
30
8.31471577177389e-005
11
382.2968100811
21
1437.78532970419
31
8.29580307464772e-005
  0
LINE
 8
GROUP0
10
280.355233804833
20
1432.35883325452
30
6.62496419649494e-005
11
253.855233804834
21
1432.35882861219
31
5.55942629815342e-005
  0
LINE
 8
GROUP0
10
381.986149909321
20
1438.02370763809
30
8.27673282091823e-005
11
381.747771975423
21
1438.33436780987
31
8.258804667855e-005
  0
LINE
 8
GROUP0
10
384.495698820535
20
1439.47259637752
30
8.34374255561043e-005
11
384.5468100811
21
1439.08436780987
31
8.35588229587236e-005
  0
LINE
 8
GROUP0
10
383.435038648754
20
1437.63547907044
30
8.34701169735219e-005
11
383.0468100811
21
1437.58436780987
31
8.33218205726127e-005
  0
LINE
 8
GROUP0
10
253.855236520163
20
1416.85882861219
30
6.04701130831275e-005
11
280.355236520157
21
1416.85883325452
31
7.11254924274984e-005
  0
LINE
 8
GROUP0
10
384.345848186776
20
1438.33436780987
30
8.36686875232695e-005
11
384.10747025288
21
1438.02370763809
31
8.3649667747504e-005
  0
LINE
 8
GROUP0
10
384.495698820536
20
1438.69613924222
30
8.36377024859003e-005
11
384.345848186776
21
1438.33436780987
31
8.36686875232695e-005
  0
LINE
 8
GROUP0
10
384.345848186776
20
1439.83436780987
30
8.3281781213651e-005
11
384.495698820535
21
1439.47259637752
31
8.34374255561043e-005
  0
LINE
 8
GROUP0
10
384.5468100811
20
1439.08436780987
30
8.35588229587236e-005
11
384.495698820536
21
1438.69613924222
31
8.36377024859003e-005
  0
LINE
 8
GROUP0
10
384.10747025288
20
1438.02370763809
30
8.3649667747504e-005
11
383.7968100811
21
1437.78532970419
31
8.35819393519677e-005
  0
LINE
 8
GROUP0
10
253.855233804834
20
1432.35882861219
30
5.55942629815342e-005
11
253.855236520163
21
1416.85882861219
31
6.04701130831275e-005
  0
LINE
 8
GROUP0
10
382.2968100811
20
1437.78532970419
30
8.29580307464772e-005
11
381.986149909321
21
1438.02370763809
31
8.27673282091823e-005
  0
LINE
 8
GROUP0
10
383.7968100811
20
1437.78532970419
30
8.35819393519677e-005
11
383.435038648754
21
1437.63547907044
31
8.34701169735219e-005
  0
LINE
 8
GROUP0
10
298.155284960339
20
1362.72321617639
30
0.000127145501285508
11
298.486655810237
21
1362.97748597254
31
0.000127145501218534
  0
LINE
 8
GROUP0
10
381.747771975424
20
1439.83436780987
30
8.22011403689315e-005
11
381.986149909322
21
1440.14502798165
31
8.22201607777795e-005
  0
LINE
 8
GROUP0
10
297.769395432503
20
1362.56337550038
30
0.000127145501363057
11
298.155284960339
21
1362.72321617639
31
0.000127145501285508
  0
LINE
 8
GROUP0
10
382.296810081102
20
1440.38340591555
30
8.22878898952273e-005
11
382.658581513447
21
1440.5332565493
31
8.2399712363912e-005
  0
LINE
 8
GROUP0
10
297.355284960339
20
1362.50885682244
30
0.000127145501718373
11
297.769395432503
21
1362.56337550038
31
0.000127145501363057
  0
LINE
 8
GROUP0
10
296.941174488175
20
1362.56337550038
30
0.000127145501904491
11
297.355284960339
21
1362.50885682244
31
0.000127145501718373
  0
LINE
 8
GROUP0
10
296.555284960339
20
1362.72321617639
30
0.000127145501917181
11
296.941174488175
21
1362.56337550038
31
0.000127145501904491
  0
LINE
 8
GROUP0
10
381.59792134167
20
1438.69613924222
30
8.24324035113177e-005
11
381.546810081101
21
1439.08436780987
31
8.23110055672649e-005
  0
LINE
 8
GROUP0
10
381.546810081101
20
1439.08436780987
30
8.23110055672649e-005
11
381.597921341669
21
1439.47259637752
31
8.22321265815218e-005
  0
LINE
 8
GROUP0
10
381.986149909322
20
1440.14502798165
30
8.22201607777795e-005
11
382.296810081102
21
1440.38340591555
31
8.22878898952273e-005
  0
LINE
 8
GROUP0
10
382.658581513447
20
1440.5332565493
30
8.2399712363912e-005
11
383.046810081101
21
1440.58436780987
31
8.25480079526708e-005
  0
LINE
 8
GROUP0
10
381.597921341669
20
1439.47259637752
30
8.22321265815218e-005
11
381.747771975424
21
1439.83436780987
31
8.22011403689315e-005
  0
LINE
 8
GROUP0
10
381.747771975423
20
1438.33436780987
30
8.258804667855e-005
11
381.59792134167
21
1438.69613924222
31
8.24324035113177e-005
  0
LINE
 8
GROUP0
10
383.046810081101
20
1440.58436780987
30
8.25480079526708e-005
11
383.435038648755
21
1440.5332565493
31
8.2722671529456e-005
  0
LINE
 8
GROUP0
10
383.435038648755
20
1440.5332565493
30
8.2722671529456e-005
11
383.796810081099
21
1440.38340591555
31
8.29117985007177e-005
  0
LINE
 8
GROUP0
10
383.796810081099
20
1440.38340591555
30
8.29117985007177e-005
11
384.107470252882
21
1440.14502798165
31
8.31025001356234e-005
  0
LINE
 8
GROUP0
10
295.969644314284
20
1363.30885682244
30
0.000127145502510784
11
296.223914110441
21
1362.97748597254
31
0.000127145502301401
  0
LINE
 8
GROUP0
10
298.955284960339
20
1364.10885682244
30
0.000127145500864628
11
298.900766282402
21
1364.52296729461
31
0.000127145500901993
  0
LINE
 8
GROUP0
10
296.555284960339
20
1365.4944974685
30
0.000127145502248527
11
296.22391411044
21
1365.24022767234
31
0.000127145502497389
  0
LINE
 8
GROUP0
10
297.355284960339
20
1365.70885682244
30
0.00012714550199755
11
296.941174488175
21
1365.6543381445
31
0.000127145502172388
  0
LINE
 8
GROUP0
10
295.755284960339
20
1364.10885682244
30
0.000127145502669407
11
295.809803638277
21
1363.69474635028
31
0.000127145502633452
  0
LINE
 8
GROUP0
10
297.769395432503
20
1365.6543381445
30
0.000127145501630954
11
297.355284960339
21
1365.70885682244
31
0.00012714550199755
  0
LINE
 8
GROUP0
10
296.223914110441
20
1362.97748597254
30
0.000127145502301401
11
296.555284960339
21
1362.72321617639
31
0.000127145501917181
  0
LINE
 8
GROUP0
10
295.969644314283
20
1364.90885682244
30
0.000127145502648962
11
295.809803638276
21
1364.52296729461
31
0.000127145502706771
  0
LINE
 8
GROUP0
10
298.486655810238
20
1365.24022767234
30
0.000127145501414522
11
298.155284960339
21
1365.4944974685
31
0.000127145501616854
  0
LINE
 8
GROUP0
10
295.809803638276
20
1364.52296729461
30
0.000127145502706771
11
295.755284960339
21
1364.10885682244
31
0.000127145502669407
  0
LINE
 8
GROUP0
10
296.941174488175
20
1365.6543381445
30
0.000127145502172388
11
296.555284960339
21
1365.4944974685
31
0.000127145502248527
  0
LINE
 8
GROUP0
10
298.155284960339
20
1365.4944974685
30
0.000127145501616854
11
297.769395432503
21
1365.6543381445
31
0.000127145501630954
  0
LINE
 8
GROUP0
10
295.809803638277
20
1363.69474635028
30
0.000127145502633452
11
295.969644314284
21
1363.30885682244
31
0.000127145502510784
  0
LINE
 8
GROUP0
10
296.22391411044
20
1365.24022767234
30
0.000127145502497389
11
295.969644314283
21
1364.90885682244
31
0.000127145502648962
  0
LINE
 8
GROUP0
10
298.740925606394
20
1364.90885682244
30
0.000127145501024661
11
298.486655810238
21
1365.24022767234
31
0.000127145501414522
  0
LINE
 8
GROUP0
10
298.900766282402
20
1364.52296729461
30
0.000127145500901993
11
298.740925606394
21
1364.90885682244
31
0.000127145501024661
  0
LINE
 8
GROUP0
10
275.765403921611
20
1579.10909508132
30
0.000156268056643954
11
276.764408563781
21
1576.69728570512
31
0.000157216026111739
  0
LINE
 8
GROUP0
10
274.17621733744
20
1581.18016261833
30
0.00015519650691857
11
275.765403921611
21
1579.10909508132
31
0.000156268056643954
  0
LINE
 8
GROUP0
10
276.764409459038
20
1571.52090480307
30
0.000158495637926642
11
275.765405651115
21
1569.10909508132
31
0.000158740077014857
  0
LINE
 8
GROUP0
10
277.105150748519
20
1574.10909531303
30
0.000157975812570188
11
276.764409459038
21
1571.52090480307
31
0.000158495637926642
  0
LINE
 8
GROUP0
10
274.176219783329
20
1567.0380269946
30
0.000158692471558219
11
272.105152246314
21
1565.44884041043
31
0.000158356065933102
  0
LINE
 8
GROUP0
10
272.105152246314
20
1565.44884041043
30
0.000158356065933102
11
269.693342870118
21
1564.44983576826
31
0.000157753785526549
  0
LINE
 8
GROUP0
10
267.105150748522
20
1590.39535271007
30
0.00015042865927094
11
260.034081713711
21
1581.18016017244
31
0.000150216837296141
  0
LINE
 8
GROUP0
10
269.693342870118
20
1564.44983576826
30
0.000157753785526549
11
267.105152478023
21
1564.10909358352
31
0.00015692667479914
  0
LINE
 8
GROUP0
10
298.486655810237
20
1362.97748597254
30
0.000127145501218534
11
298.740925606394
21
1363.30885682244
31
0.000127145500886483
  0
LINE
 8
GROUP0
10
275.765405651115
20
1569.10909508132
30
0.000158740077014857
11
274.176219783329
21
1567.0380269946
31
0.000158692471558219
  0
LINE
 8
GROUP0
10
267.105152478023
20
1564.10909358352
30
0.00015692667479914
11
264.516961968068
21
1564.449834873
31
0.000155931099964957
  0
LINE
 8
GROUP0
10
276.764408563781
20
1576.69728570512
30
0.000157216026111739
11
277.105150748519
21
1574.10909531303
31
0.000157975812570188
  0
LINE
 8
GROUP0
10
298.740925606394
20
1363.30885682244
30
0.000127145500886483
11
298.900766282401
21
1363.69474635028
31
0.000127145500828674
  0
LINE
 8
GROUP0
10
258.444895845924
20
1579.10909208573
30
0.000150169231841618
11
260.034081713711
21
1581.18016017244
31
0.000150216837296141
  0
LINE
 8
GROUP0
10
298.900766282401
20
1363.69474635028
30
0.000127145500828674
11
298.955284960339
21
1364.10885682244
31
0.000127145500864628
  0
LINE
 8
GROUP0
10
274.17621733744
20
1581.18016261833
30
0.00015519650691857
11
267.105150748522
21
1590.39535271007
31
0.00015042865927094
  0
LINE
 8
GROUP0
10
264.105236520151
20
1349.34160102885
30
0.000118954811639266
11
270.105236520151
21
1349.34160102885
31
0.000118954811639266
  0
LINE
 8
GROUP0
10
264.105236520152
20
1361.34160102885
30
0.000118954812683358
11
264.105236520151
21
1349.34160102885
31
0.000118954811639266
  0
LINE
 8
GROUP0
10
257.105150748521
20
1574.10909185402
30
0.000150933496286287
11
257.445892038001
21
1576.69728236397
31
0.000150413670927718
  0
LINE
 8
GROUP0
10
264.105236520185
20
1499.34160102884
30
7.78527292569386e-005
11
270.105236520185
21
1499.34160102884
31
7.78527292569386e-005
  0
LINE
 8
GROUP0
10
270.105236520153
20
1361.34160102885
30
0.000118954812683358
11
264.105236520152
21
1361.34160102885
31
0.000118954812683358
  0
LINE
 8
GROUP0
10
270.105236520185
20
1499.34160102884
30
7.78527292569386e-005
11
270.105236520186
21
1511.34160102884
31
7.78527303010312e-005
  0
LINE
 8
GROUP0
10
258.444897575429
20
1569.10909208573
30
0.000152641252212521
11
257.445892933259
21
1571.52090146192
31
0.000151693282742621
  0
LINE
 8
GROUP0
10
262.105152246315
20
1565.44883868093
30
0.000154834907791151
11
260.034084159599
21
1567.03802454871
31
0.00015371280193579
  0
LINE
 8
GROUP0
10
264.105236520186
20
1511.34160102884
30
7.78527303010312e-005
11
264.105236520185
21
1499.34160102884
31
7.78527292569386e-005
  0
LINE
 8
GROUP0
10
270.105236520186
20
1511.34160102884
30
7.78527303010312e-005
11
264.105236520186
21
1511.34160102884
31
7.78527303010312e-005
  0
LINE
 8
GROUP0
10
257.445892933259
20
1571.52090146192
30
0.000151693282742621
11
257.105150748521
21
1574.10909185402
31
0.000150933496286287
  0
LINE
 8
GROUP0
10
257.445892038001
20
1576.69728236397
30
0.000150413670927718
11
258.444895845924
21
1579.10909208573
31
0.000150169231841618
  0
LINE
 8
GROUP0
10
143.605195702703
20
1547.10879878135
30
7.37864874710281e-006
11
154.605195702703
21
1547.10879878134
31
7.01064230897996e-006
  0
LINE
 8
GROUP0
10
270.105236520151
20
1349.34160102885
30
0.000118954811639266
11
270.105236520153
21
1361.34160102885
31
0.000118954812683358
  0
LINE
 8
GROUP0
10
264.516961968068
20
1564.449834873
30
0.000155931099964957
11
262.105152246315
21
1565.44883868093
31
0.000154834907791151
  0
LINE
 8
GROUP0
10
260.034084159599
20
1567.03802454871
30
0.00015371280193579
11
258.444897575429
21
1569.10909208573
31
0.000152641252212521
  0
LINE
 8
GROUP0
10
236.855169950217
20
1551.10879728527
30
6.38328241602371e-005
11
257.355169950217
21
1551.10879728527
31
6.39208531363455e-005
  0
LINE
 8
GROUP0
10
390.605144245215
20
1547.10879728525
30
0.000120353130297157
11
379.605140550305
21
1547.10879728526
31
0.000114129006578334
  0
LINE
 8
GROUP0
10
297.355169950216
20
1547.10879728527
30
8.60366126461787e-005
11
276.855169950217
21
1547.10879728527
31
7.89062663935414e-005
  0
LINE
 8
GROUP0
10
154.254591397202
20
1521.70911057873
30
0.000113128807285345
11
154.016213463305
21
1521.39845040695
31
0.000113121666472454
  0
LINE
 8
GROUP0
10
236.855169950216
20
1547.10879728527
30
6.48216320209616e-005
11
236.855169950217
21
1551.10879728527
31
6.38328241602371e-005
  0
LINE
 8
GROUP0
10
143.605195702704
20
1551.10879878135
30
5.64516588524855e-006
11
143.605195702703
21
1547.10879878135
31
7.37864874710281e-006
  0
LINE
 8
GROUP0
10
276.855169950217
20
1551.10879728527
30
7.79174585328168e-005
11
297.355169950217
21
1551.10879728527
31
7.80054875089253e-005
  0
LINE
 8
GROUP0
10
276.855169950217
20
1547.10879728527
30
7.89062663935414e-005
11
276.855169950217
21
1551.10879728527
31
7.79174585328168e-005
  0
LINE
 8
GROUP0
10
379.605140550305
20
1551.10879728526
30
0.00011412900692519
11
390.605144245215
21
1551.10879728525
31
0.00011232200380632
  0
LINE
 8
GROUP0
10
154.605195702704
20
1551.10879878134
30
5.75200651936614e-006
11
143.605195702704
21
1551.10879878135
31
5.64516588524855e-006
  0
LINE
 8
GROUP0
10
390.605144245215
20
1551.10879728525
30
0.00011232200380632
11
390.605144245215
21
1547.10879728525
31
0.000120353130297157
  0
LINE
 8
GROUP0
10
154.605195702703
20
1547.10879878134
30
7.01064230897996e-006
11
154.605195702704
21
1551.10879878134
31
5.75200651936614e-006
  0
LINE
 8
GROUP0
10
257.355169950217
20
1551.10879728527
30
6.39208531363455e-005
11
257.355169950217
21
1547.10879728527
31
7.19519782735989e-005
  0
LINE
 8
GROUP0
10
257.355169950217
20
1547.10879728527
30
7.19519782735989e-005
11
236.855169950216
21
1547.10879728527
31
6.48216320209616e-005
  0
LINE
 8
GROUP0
10
297.355169950217
20
1551.10879728527
30
7.80054875089253e-005
11
297.355169950216
21
1547.10879728527
31
8.60366126461787e-005
  0
LINE
 8
GROUP0
10
379.605140550305
20
1547.10879728526
30
0.000114129006578334
11
379.605140550305
21
1551.10879728526
31
0.00011412900692519
  0
LINE
 8
GROUP0
10
151.656515185849
20
1521.70911057873
30
0.000112213983357445
11
151.506664552092
21
1522.07088201108
31
0.000112071787956136
  0
LINE
 8
GROUP0
10
151.506664552093
20
1522.84733914639
30
0.00011187984621559
11
151.65651518585
21
1523.20911057873
31
0.000111843180455146
  0
LINE
 8
GROUP0
10
153.705553291525
20
1521.16007247306
30
0.000113071205564286
11
153.343781859179
21
1521.0102218393
31
0.00011298086348106
  0
LINE
 8
GROUP0
10
151.506664552092
20
1522.07088201108
30
0.000112071787956136
11
151.455553291526
21
1522.45911057873
31
0.000111957820014652
  0
LINE
 8
GROUP0
10
152.955553291526
20
1523.95911057873
30
0.000112115190878764
11
153.34378185918
21
1523.90799931817
31
0.000112264527185318
  0
LINE
 8
GROUP0
10
153.343781859179
20
1521.0102218393
30
0.00011298086348106
11
152.955553291526
21
1520.95911057873
31
0.000112856796863842
  0
LINE
 8
GROUP0
10
154.016213463305
20
1521.39845040695
30
0.000113121666472454
11
153.705553291525
21
1521.16007247306
31
0.000113071205564286
  0
LINE
 8
GROUP0
10
152.205553291526
20
1521.16007247306
30
0.000112543031707635
11
151.894893119747
21
1521.39845040695
31
0.000112374715826052
  0
LINE
 8
GROUP0
10
151.894893119747
20
1521.39845040695
30
0.000112374715826052
11
151.656515185849
21
1521.70911057873
31
0.000112213983357445
  0
LINE
 8
GROUP0
10
152.567324723872
20
1521.0102218393
30
0.000112707460556583
11
152.205553291526
21
1521.16007247306
31
0.000112543031707635
  0
LINE
 8
GROUP0
10
152.955553291526
20
1520.95911057873
30
0.000112856796863842
11
152.567324723872
21
1521.0102218393
31
0.000112707460556583
  0
LINE
 8
GROUP0
10
151.455553291526
20
1522.45911057873
30
0.000111957820014652
11
151.506664552093
21
1522.84733914639
31
0.00011187984621559
  0
LINE
 8
GROUP0
10
151.65651518585
20
1523.20911057873
30
0.000111843180455146
11
151.894893119746
21
1523.51977075051
31
0.000111850321270152
  0
LINE
 8
GROUP0
10
151.894893119746
20
1523.51977075051
30
0.000111850321270152
11
152.205553291526
21
1523.75814868441
31
0.000111900782176205
  0
LINE
 8
GROUP0
10
152.205553291526
20
1523.75814868441
30
0.000111900782176205
11
152.567324723873
21
1523.90799931817
31
0.000111991124260841
  0
LINE
 8
GROUP0
10
152.567324723873
20
1523.90799931817
30
0.000111991124260841
11
152.955553291526
21
1523.95911057873
31
0.000112115190878764
  0
LINE
 8
GROUP0
10
235.904591397181
20
1356.35911057872
30
0.000113072656797292
11
236.054442030937
21
1355.99733914638
31
0.000113214852199306
  0
LINE
 8
GROUP0
10
153.705553291526
20
1523.75814868441
30
0.000112428956032856
11
154.016213463305
21
1523.51977075051
31
0.000112597271916554
  0
LINE
 8
GROUP0
10
236.105553291505
20
1355.60911057872
30
0.0001133288201422
11
236.054442030938
21
1355.22088201107
31
0.000113406793941262
  0
LINE
 8
GROUP0
10
235.666213463284
20
1354.54845040694
30
0.000113436318976939
11
235.355553291504
21
1354.31007247305
31
0.000113385858068771
  0
LINE
 8
GROUP0
10
236.054442030937
20
1355.99733914638
30
0.000113214852199306
11
236.105553291505
21
1355.60911057872
31
0.0001133288201422
  0
LINE
 8
GROUP0
10
234.993781859158
20
1357.05799931816
30
0.000112579179598155
11
235.355553291504
21
1356.9081486844
31
0.000112743608447807
  0
LINE
 8
GROUP0
10
235.666213463284
20
1356.6697707505
30
0.00011291192432939
11
235.904591397181
21
1356.35911057872
31
0.000113072656797292
  0
LINE
 8
GROUP0
10
236.054442030938
20
1355.22088201107
30
0.000113406793941262
11
235.904591397181
21
1354.85911057872
31
0.00011344345978983
  0
LINE
 8
GROUP0
10
235.904591397181
20
1354.85911057872
30
0.00011344345978983
11
235.666213463284
21
1354.54845040694
31
0.000113436318976939
  0
LINE
 8
GROUP0
10
154.016213463305
20
1523.51977075051
30
0.000112597271916554
11
154.254591397202
21
1523.20911057873
31
0.000112758004383046
  0
LINE
 8
GROUP0
10
154.254591397202
20
1523.20911057873
30
0.000112758004383046
11
154.40444203096
21
1522.84733914639
31
0.00011290019978647
  0
LINE
 8
GROUP0
10
154.40444203096
20
1522.84733914639
30
0.00011290019978647
11
154.455553291525
21
1522.45911057873
31
0.000113014167727954
  0
LINE
 8
GROUP0
10
154.455553291525
20
1522.45911057873
30
0.000113014167727954
11
154.404442030959
21
1522.07088201108
31
0.000113092141527016
  0
LINE
 8
GROUP0
10
153.34378185918
20
1523.90799931817
30
0.000112264527185318
11
153.705553291526
21
1523.75814868441
31
0.000112428956032856
  0
LINE
 8
GROUP0
10
154.404442030959
20
1522.07088201108
30
0.000113092141527016
11
154.254591397202
21
1521.70911057873
31
0.000113128807285345
  0
LINE
 8
GROUP0
10
235.355553291504
20
1356.9081486844
30
0.000112743608447807
11
235.666213463284
21
1356.6697707505
31
0.00011291192432939
  0
LINE
 8
GROUP0
10
234.605553291505
20
1357.10911057872
30
0.000112429843383249
11
234.993781859158
21
1357.05799931816
31
0.000112579179598155
  0
LINE
 8
GROUP0
10
235.355553291504
20
1354.31007247305
30
0.000113385858068771
11
234.993781859158
21
1354.16022183929
31
0.00011329551598625
  0
LINE
 8
GROUP0
10
233.855553291504
20
1354.31007247305
30
0.000112857684302359
11
233.544893119724
21
1354.54845040694
31
0.000112689368420776
  0
LINE
 8
GROUP0
10
268.105154582041
20
1602.84087477356
30
0.000102568044829721
11
268.519368144413
21
1602.52303752836
31
0.000102792465946649
  0
LINE
 8
GROUP0
10
234.21732472385
20
1354.16022183929
30
0.000113022113152011
11
233.855553291504
21
1354.31007247305
31
0.000112857684302359
  0
LINE
 8
GROUP0
10
233.156664552071
20
1355.99733914638
30
0.000112194498808904
11
233.306515185828
21
1356.35911057872
31
0.000112157832959631
  0
LINE
 8
GROUP0
10
234.217324723851
20
1357.05799931816
30
0.000112305776763916
11
234.605553291505
21
1357.10911057872
31
0.000112429843383249
  0
LINE
 8
GROUP0
10
234.605553291504
20
1354.10911057872
30
0.000113171449366917
11
234.21732472385
21
1354.16022183929
31
0.000113022113152011
  0
LINE
 8
GROUP0
10
233.544893119725
20
1356.6697707505
30
0.000112164973773227
11
233.855553291505
21
1356.9081486844
31
0.000112215434681395
  0
LINE
 8
GROUP0
10
233.306515185828
20
1354.85911057872
30
0.000112528635952169
11
233.156664552071
21
1355.22088201107
31
0.00011238644055086
  0
LINE
 8
GROUP0
10
233.306515185828
20
1356.35911057872
30
0.000112157832959631
11
233.544893119725
21
1356.6697707505
31
0.000112164973773227
  0
LINE
 8
GROUP0
10
233.544893119724
20
1354.54845040694
30
0.000112689368420776
11
233.306515185828
21
1354.85911057872
31
0.000112528635952169
  0
LINE
 8
GROUP0
10
233.156664552071
20
1355.22088201107
30
0.00011238644055086
11
233.105553291505
21
1355.60911057872
31
0.000112272472609376
  0
LINE
 8
GROUP0
10
233.105553291505
20
1355.60911057872
30
0.000112272472609376
11
233.156664552071
21
1355.99733914638
31
0.000112194498808904
  0
LINE
 8
GROUP0
10
234.993781859158
20
1354.16022183929
30
0.00011329551598625
11
234.605553291504
21
1354.10911057872
31
0.000113171449366917
  0
LINE
 8
GROUP0
10
233.855553291505
20
1356.9081486844
30
0.000112215434681395
11
234.217324723851
21
1357.05799931816
31
0.000112305776763916
  0
LINE
 8
GROUP0
10
269.037006234618
20
1601.62646205619
30
0.000103196369803049
11
269.10515458204
21
1601.10882396599
31
0.000103348327059771
  0
LINE
 8
GROUP0
10
269.10515458204
20
1601.10882396599
30
0.000103348327059771
11
269.037006234618
21
1600.59118587578
31
0.000103452292095108
  0
LINE
 8
GROUP0
10
269.037006234618
20
1600.59118587578
30
0.000103452292095108
11
268.837205389609
21
1600.10882396599
31
0.000103501179893434
  0
LINE
 8
GROUP0
10
268.519368144413
20
1599.69461040362
30
0.000103491658748245
11
268.105154582039
21
1599.37677315842
31
0.000103424377569783
  0
LINE
 8
GROUP0
10
268.519368144413
20
1602.52303752836
30
0.000102792465946649
11
268.837205389609
21
1602.10882396599
31
0.000103006775963776
  0
LINE
 8
GROUP0
10
268.837205389609
20
1600.10882396599
30
0.000103501179893434
11
268.519368144413
21
1599.69461040362
31
0.000103491658748245
  0
LINE
 8
GROUP0
10
268.105154582039
20
1599.37677315842
30
0.000103424377569783
11
267.622792672245
21
1599.17697231341
31
0.000103303921487485
  0
LINE
 8
GROUP0
10
268.837205389609
20
1602.10882396599
30
0.000103006775963776
11
269.037006234618
21
1601.62646205619
31
0.000103196369803049
 0
ENDSEC
 0
EOF
