 0
SECTION
 2
ENTITIES
  0
POLYLINE
 8
Layer0
 66
     1
70
    8
 10
0.0
 20
 0.0
 30
0.0
  0
VERTEX
  8
MY3DLAYER
10
2407.15829580606
20
400.802439575162
30
0.000336797059919468
 70
     32
  0
VERTEX
  8
MY3DLAYER
10
2147.15830882181
20
400.802474392872
30
0.000129781184358534
 70
     32
  0
VERTEX
  8
MY3DLAYER
10
2147.15830350298
20
358.802475174235
30
0.000127449396035217
 70
     32
  0
VERTEX
  8
MY3DLAYER
10
2105.15830350298
20
358.802480554492
30
0.000123456583648984
 70
     32
  0
VERTEX
  8
MY3DLAYER
10
2105.1582705769
20
98.80249364767
30
0.000109021696264389
 70
     32
  0
VERTEX
  8
MY3DLAYER
10
2147.1582705769
20
98.8024882674129
30
0.000113014508289666
 70
     32
  0
VERTEX
  8
MY3DLAYER
10
2147.15826525808
20
56.8025534849382
30
0.000110682721771127
 70
     32
  0
VERTEX
  8
MY3DLAYER
10
2407.15825224232
20
56.8025186673977
30
0.000101405914882413
 70
     32
  0
VERTEX
  8
MY3DLAYER
10
2407.15825692188
20
93.8024886556946
30
0.000126727101221924
 70
     32
  0
VERTEX
  8
MY3DLAYER
10
2387.15825879016
20
108.80226871444
30
0.000130909256943568
 70
     32
  0
VERTEX
  8
MY3DLAYER
10
2387.15828932926
20
348.802443777906
30
0.000312979336191432
 70
     32
  0
VERTEX
  8
MY3DLAYER
10
2407.15829119756
20
363.802441238958
30
0.00032638155982827
 70
     32
  0
VERTEX
  8
MY3DLAYER
10
2407.15829580606
20
400.802439575162
30
0.000336797059919468
 70
     32
  0
SEQEND
  0
POLYLINE
 8
Layer0
 66
     1
70
    8
 10
0.0
 20
 0.0
 30
0.0
  0
VERTEX
  8
MY3DLAYER
10
2159.09011810772
20
66.2849137968925
30
0.000115254290937164
 70
     32
  0
VERTEX
  8
MY3DLAYER
10
2158.89031719812
20
65.8025519138537
30
0.000114999888628836
 70
     32
  0
VERTEX
  8
MY3DLAYER
10
2158.57247989745
20
65.3883383940433
30
0.000114725808457749
 70
     32
  0
VERTEX
  8
MY3DLAYER
10
2158.15826629252
20
65.0705012043162
30
0.000114450730243077
 70
     32
  0
VERTEX
  8
MY3DLAYER
10
2157.67590435597
20
64.8707004239019
30
0.000114193395888444
 70
     32
  0
VERTEX
  8
MY3DLAYER
10
2157.15826625664
20
64.802552145799
30
0.000113971347480746
 70
     32
  0
VERTEX
  8
MY3DLAYER
10
2156.64062817556
20
64.8707005625395
30
0.000113799715200855
 70
     32
  0
VERTEX
  8
MY3DLAYER
10
2156.15826629252
20
65.0705014721438
30
0.000113690195457972
 70
     32
  0
VERTEX
  8
MY3DLAYER
10
2155.74405277271
20
65.3883387728083
30
0.000113650249928888
 70
     32
  0
VERTEX
  8
MY3DLAYER
10
2155.42621558298
20
65.8025523777446
30
0.000113682603107608
 70
     32
  0
VERTEX
  8
MY3DLAYER
10
2155.22641480257
20
66.2849143142954
30
0.000113785050276891
 70
     32
  0
VERTEX
  8
MY3DLAYER
10
2155.15826652446
20
66.8025524136262
30
0.00011395060802677
 70
     32
  0
VERTEX
  8
MY3DLAYER
10
2155.2264149412
20
67.3201904947054
30
0.000114167995408496
 70
     32
  0
VERTEX
  8
MY3DLAYER
10
2155.42621585081
20
67.8025523777445
30
0.000114422398799692
 70
     32
  0
VERTEX
  8
MY3DLAYER
10
2155.74405315147
20
68.2167658975542
30
0.000114696477526956
 70
     32
  0
VERTEX
  8
MY3DLAYER
10
2156.15826675641
20
68.5346030872814
30
0.000114971557907362
 70
     32
  0
VERTEX
  8
MY3DLAYER
10
2156.64062869296
20
68.7344038676956
30
0.000115228890818173
 70
     32
  0
VERTEX
  8
MY3DLAYER
10
2157.15826679229
20
68.8025521457988
30
0.000115450939947781
 70
     32
  0
VERTEX
  8
MY3DLAYER
10
2157.67590487337
20
68.7344037290583
30
0.000115622572588629
 70
     32
  0
VERTEX
  8
MY3DLAYER
10
2158.15826675641
20
68.534602819454
30
0.000115732094497245
 70
     32
  0
VERTEX
  8
MY3DLAYER
10
2158.57248027622
20
68.2167655187894
30
0.000115772037138683
 70
     32
  0
VERTEX
  8
MY3DLAYER
10
2158.89031746595
20
67.8025519138535
30
0.000115739683238052
 70
     32
  0
VERTEX
  8
MY3DLAYER
10
2159.09011824636
20
67.3201899773026
30
0.000115637236790681
 70
     32
  0
VERTEX
  8
MY3DLAYER
10
2159.15826652446
20
66.8025518779717
30
0.000115471679040802
 70
     32
  0
VERTEX
  8
MY3DLAYER
10
2159.09011810772
20
66.2849137968925
30
0.000115254290937164
 70
     32
  0
SEQEND
  0
POLYLINE
 8
Layer0
 66
     1
70
    8
 10
0.0
 20
 0.0
 30
0.0
  0
VERTEX
  8
MY3DLAYER
10
2117.09012356217
20
109.320130209385
30
0.000114629945749969
 70
     32
  0
VERTEX
  8
MY3DLAYER
10
2117.15827184328
20
108.80249211045
30
0.000114464388000091
 70
     32
  0
VERTEX
  8
MY3DLAYER
10
2117.09012342955
20
108.284854028975
30
0.000114246999535497
 70
     32
  0
VERTEX
  8
MY3DLAYER
10
2116.89032252275
20
107.802492144775
30
0.000113992596505257
 70
     32
  0
VERTEX
  8
MY3DLAYER
10
2116.57248522449
20
107.388278623117
30
0.000113718517417038
 70
     32
  0
VERTEX
  8
MY3DLAYER
10
2116.15827162141
20
107.070441430983
30
0.000113443438480454
 70
     32
  0
VERTEX
  8
MY3DLAYER
10
2115.67590968602
20
106.870640647765
30
0.000113186105569644
 70
     32
  0
VERTEX
  8
MY3DLAYER
10
2115.15827158708
20
106.802492366653
30
0.000112964058244814
 70
     32
  0
VERTEX
  8
MY3DLAYER
10
2114.64063350561
20
106.870640780386
30
0.000112792424882055
 70
     32
  0
VERTEX
  8
MY3DLAYER
10
2114.15827162141
20
107.070441687186
30
0.000112682903334394
 70
     32
  0
VERTEX
  8
MY3DLAYER
10
2113.74405809975
20
107.388278985443
30
0.000112642958166266
 70
     32
  0
VERTEX
  8
MY3DLAYER
10
2113.42622090761
20
107.802492588531
30
0.000112675312427852
 70
     32
  0
VERTEX
  8
MY3DLAYER
10
2113.2264201244
20
108.284854523921
30
0.00011277775923618
 70
     32
  0
VERTEX
  8
MY3DLAYER
10
2113.15827184328
20
108.802492622856
30
0.000112943317347014
 70
     32
  0
VERTEX
  8
MY3DLAYER
10
2113.22642025702
20
109.320130704331
30
0.000113160705811608
 70
     32
  0
VERTEX
  8
MY3DLAYER
10
2113.42622116382
20
109.802492588531
30
0.000113415108119937
 70
     32
  0
VERTEX
  8
MY3DLAYER
10
2113.74405846207
20
110.216706110189
30
0.000113689186486244
 70
     32
  0
VERTEX
  8
MY3DLAYER
10
2114.15827206516
20
110.534543302324
30
0.000113964266866651
 70
     32
  0
VERTEX
  8
MY3DLAYER
10
2114.64063400055
20
110.734344085541
30
0.000114221599416506
 70
     32
  0
VERTEX
  8
MY3DLAYER
10
2115.15827209949
20
110.802492366653
30
0.000114443648185159
 70
     32
  0
VERTEX
  8
MY3DLAYER
10
2115.67591018096
20
110.734343952921
30
0.000114615280826006
 70
     32
  0
VERTEX
  8
MY3DLAYER
10
2116.15827206516
20
110.534543046121
30
0.0001147248012908
 70
     32
  0
VERTEX
  8
MY3DLAYER
10
2116.57248558682
20
110.216705747864
30
0.000114764745376061
 70
     32
  0
VERTEX
  8
MY3DLAYER
10
2116.89032277895
20
109.802492144775
30
0.00011473239147543
 70
     32
  0
VERTEX
  8
MY3DLAYER
10
2117.09012356217
20
109.320130209385
30
0.000114629945749969
 70
     32
  0
SEQEND
  0
POLYLINE
 8
Layer0
 66
     1
70
    8
 10
0.0
 20
 0.0
 30
0.0
  0
VERTEX
  8
MY3DLAYER
10
2116.15830201471
20
347.070428337811
30
0.000119464683974479
 70
     32
  0
VERTEX
  8
MY3DLAYER
10
2115.67594007932
20
346.870627554593
30
0.000119207352507491
 70
     32
  0
VERTEX
  8
MY3DLAYER
10
2115.15830198039
20
346.802479273482
30
0.000118985303738838
 70
     32
  0
VERTEX
  8
MY3DLAYER
10
2114.64066389891
20
346.870627687213
30
0.00011881367037608
 70
     32
  0
VERTEX
  8
MY3DLAYER
10
2114.15830201471
20
347.070428594014
30
0.00011870414955033
 70
     32
  0
VERTEX
  8
MY3DLAYER
10
2113.74408849306
20
347.388265892271
30
0.000118664203299335
 70
     32
  0
VERTEX
  8
MY3DLAYER
10
2113.42625130092
20
347.802479495359
30
0.000118696557921877
 70
     32
  0
VERTEX
  8
MY3DLAYER
10
2113.2264505177
20
348.284841430749
30
0.000118799005452116
 70
     32
  0
VERTEX
  8
MY3DLAYER
10
2113.15830223659
20
348.802479529684
30
0.000118964564645818
 70
     32
  0
VERTEX
  8
MY3DLAYER
10
2113.22645065032
20
349.320117611159
30
0.000119181950583721
 70
     32
  0
VERTEX
  8
MY3DLAYER
10
2113.42625155713
20
349.802479495359
30
0.000119436353613961
 70
     32
  0
VERTEX
  8
MY3DLAYER
10
2113.74408885538
20
350.216693017017
30
0.000119710433063136
 70
     32
  0
VERTEX
  8
MY3DLAYER
10
2114.15830245847
20
350.534530209151
30
0.000119985513804499
 70
     32
  0
VERTEX
  8
MY3DLAYER
10
2114.64066439386
20
350.734330992369
30
0.000120242844188619
 70
     32
  0
VERTEX
  8
MY3DLAYER
10
2115.15830249279
20
350.802479273481
30
0.000120464894401095
 70
     32
  0
VERTEX
  8
MY3DLAYER
10
2115.67594057427
20
350.734330859749
30
0.000120636525959075
 70
     32
  0
VERTEX
  8
MY3DLAYER
10
2116.15830245847
20
350.534529952948
30
0.000120746047867692
 70
     32
  0
VERTEX
  8
MY3DLAYER
10
2116.57251598013
20
350.216692654691
30
0.000120785991231041
 70
     32
  0
VERTEX
  8
MY3DLAYER
10
2116.89035317226
20
349.802479051603
30
0.000120753641661879
 70
     32
  0
VERTEX
  8
MY3DLAYER
10
2117.09015395548
20
349.320117116213
30
0.000120651191965905
 70
     32
  0
VERTEX
  8
MY3DLAYER
10
2117.15830223659
20
348.802479017278
30
0.000120485632772204
 70
     32
  0
VERTEX
  8
MY3DLAYER
10
2117.09015382286
20
348.284840935803
30
0.000120268245751433
 70
     32
  0
VERTEX
  8
MY3DLAYER
10
2116.89035291606
20
347.802479051603
30
0.00012001384380406
 70
     32
  0
VERTEX
  8
MY3DLAYER
10
2116.5725156178
20
347.388265529946
30
0.000119739762911063
 70
     32
  0
VERTEX
  8
MY3DLAYER
10
2116.15830201471
20
347.070428337811
30
0.000119464683974479
 70
     32
  0
SEQEND
  0
POLYLINE
 8
Layer0
 66
     1
70
    8
 10
0.0
 20
 0.0
 30
0.0
  0
VERTEX
  8
MY3DLAYER
10
2155.15830755542
20
390.80247330701
30
0.000128794906537521
 70
     32
  0
VERTEX
  8
MY3DLAYER
10
2155.22645596839
20
391.320111388585
30
0.000129012293197336
 70
     32
  0
VERTEX
  8
MY3DLAYER
10
2155.42625687449
20
391.802473273077
30
0.000129266696227576
 70
     32
  0
VERTEX
  8
MY3DLAYER
10
2155.74409417214
20
392.2166867952
30
0.000129540775315795
 70
     32
  0
VERTEX
  8
MY3DLAYER
10
2156.15830777476
20
392.53452398794
30
0.000129815855696202
 70
     32
  0
VERTEX
  8
MY3DLAYER
10
2156.64066970986
20
392.734324771864
30
0.000130073186441278
 70
     32
  0
VERTEX
  8
MY3DLAYER
10
2157.1583078087
20
392.802473053732
30
0.000130295235931842
 70
     32
  0
VERTEX
  8
MY3DLAYER
10
2157.67594589027
20
392.734324640757
30
0.000130466868933645
 70
     32
  0
VERTEX
  8
MY3DLAYER
10
2158.15830777476
20
392.534523734663
30
0.000130576389037484
 70
     32
  0
VERTEX
  8
MY3DLAYER
10
2158.57252129689
20
392.216686437011
30
0.000130616333844656
 70
     32
  0
VERTEX
  8
MY3DLAYER
10
2158.89035848963
20
391.802472834388
30
0.000130583980665936
 70
     32
  0
VERTEX
  8
MY3DLAYER
10
2159.09015927355
20
391.32011089929
30
0.00013048153457952
 70
     32
  0
VERTEX
  8
MY3DLAYER
10
2159.15830755542
20
390.802472800455
30
0.000130315975385819
 70
     32
  0
VERTEX
  8
MY3DLAYER
10
2159.09015914245
20
390.28483471888
30
0.000130098586921225
 70
     32
  0
VERTEX
  8
MY3DLAYER
10
2158.89035823635
20
389.802472834388
30
0.000129844184973852
 70
     32
  0
VERTEX
  8
MY3DLAYER
10
2158.5725209387
20
389.388259312265
30
0.000129570105885633
 70
     32
  0
VERTEX
  8
MY3DLAYER
10
2158.15830733607
20
389.070422119525
30
0.000129295025505226
 70
     32
  0
VERTEX
  8
MY3DLAYER
10
2157.67594540098
20
388.870621335601
30
0.000129037693677283
 70
     32
  0
VERTEX
  8
MY3DLAYER
10
2157.15830730214
20
388.802473053733
30
0.00012881564490863
 70
     32
  0
VERTEX
  8
MY3DLAYER
10
2156.64066922057
20
388.870621466708
30
0.000128644011545871
 70
     32
  0
VERTEX
  8
MY3DLAYER
10
2156.15830733608
20
389.070422372803
30
0.000128534490720122
 70
     32
  0
VERTEX
  8
MY3DLAYER
10
2155.74409381395
20
389.388259670454
30
0.000128494546273905
 70
     32
  0
VERTEX
  8
MY3DLAYER
10
2155.42625662121
20
389.802473273078
30
0.00012852689981358
 70
     32
  0
VERTEX
  8
MY3DLAYER
10
2155.22645583729
20
390.284835208175
30
0.000128629347704775
 70
     32
  0
VERTEX
  8
MY3DLAYER
10
2155.15830755542
20
390.80247330701
30
0.000128794906537521
 70
     32
  0
SEQEND
  0
POLYLINE
 8
Layer0
 66
     1
70
    8
 10
0.0
 20
 0.0
 30
0.0
  0
VERTEX
  8
MY3DLAYER
10
2395.22644295641
20
391.320079263211
30
0.000325814459656145
 70
     32
  0
VERTEX
  8
MY3DLAYER
10
2395.42624386602
20
391.80244114625
30
0.000326068861964474
 70
     32
  0
VERTEX
  8
MY3DLAYER
10
2395.74408116668
20
392.21665466606
30
0.000326342942496516
 70
     32
  0
VERTEX
  8
MY3DLAYER
10
2396.15829477162
20
392.534491855786
30
0.000326618021072144
 70
     32
  0
VERTEX
  8
MY3DLAYER
10
2396.64065670817
20
392.7342926362
30
0.000326875353261043
 70
     32
  0
VERTEX
  8
MY3DLAYER
10
2397.1582948075
20
392.802440914303
30
0.000327097402390652
 70
     32
  0
VERTEX
  8
MY3DLAYER
10
2397.67593288858
20
392.734292497562
30
0.000327269035392455
 70
     32
  0
VERTEX
  8
MY3DLAYER
10
2398.15829477162
20
392.534491587958
30
0.000327378557301071
 70
     32
  0
VERTEX
  8
MY3DLAYER
10
2398.57250829143
20
392.216654287293
30
0.000327418500303465
 70
     32
  0
VERTEX
  8
MY3DLAYER
10
2398.89034548116
20
391.802440682358
30
0.000327386147485701
 70
     32
  0
VERTEX
  8
MY3DLAYER
10
2399.09014626157
20
391.320078745807
30
0.000327283700316418
 70
     32
  0
VERTEX
  8
MY3DLAYER
10
2399.15829453967
20
390.802440646476
30
0.000327118141483672
 70
     32
  0
VERTEX
  8
MY3DLAYER
10
2399.09014612293
20
390.284802565397
30
0.00032690075374099
 70
     32
  0
VERTEX
  8
MY3DLAYER
10
2398.89034521333
20
389.802440682359
30
0.000326646352154573
 70
     32
  0
VERTEX
  8
MY3DLAYER
10
2398.57250791266
20
389.388227162548
30
0.000326372271622531
 70
     32
  0
VERTEX
  8
MY3DLAYER
10
2398.15829430773
20
389.070389972822
30
0.000326097193046903
 70
     32
  0
VERTEX
  8
MY3DLAYER
10
2397.67593237117
20
388.870589192407
30
0.000325839859053225
 70
     32
  0
VERTEX
  8
MY3DLAYER
10
2397.15829427184
20
388.802440914305
30
0.000325617812089351
 70
     32
  0
VERTEX
  8
MY3DLAYER
10
2396.64065619076
20
388.870589331045
30
0.000325446178365636
 70
     32
  0
VERTEX
  8
MY3DLAYER
10
2396.15829430773
20
389.07039024065
30
0.000325336658622754
 70
     32
  0
VERTEX
  8
MY3DLAYER
10
2395.74408078792
20
389.388227541315
30
0.000325296712732714
 70
     32
  0
VERTEX
  8
MY3DLAYER
10
2395.42624359819
20
389.802441146251
30
0.000325329065550478
 70
     32
  0
VERTEX
  8
MY3DLAYER
10
2395.22644281778
20
390.284803082802
30
0.000325431513802629
 70
     32
  0
VERTEX
  8
MY3DLAYER
10
2395.15829453967
20
390.802441182133
30
0.000325597072635374
 70
     32
  0
VERTEX
  8
MY3DLAYER
10
2395.22644295641
20
391.320079263211
30
0.000325814459656145
 70
     32
  0
SEQEND
  0
POLYLINE
 8
Layer0
 66
     1
70
    8
 10
0.0
 20
 0.0
 30
0.0
  0
VERTEX
  8
MY3DLAYER
10
2396.64061566315
20
68.7343717246616
30
0.000110344903871037
 70
     32
  0
VERTEX
  8
MY3DLAYER
10
2397.15825376199
20
68.8025200065301
30
0.00011056695263969
 70
     32
  0
VERTEX
  8
MY3DLAYER
10
2397.67589184356
20
68.7343715935552
30
0.000110738586002449
 70
     32
  0
VERTEX
  8
MY3DLAYER
10
2398.15825372806
20
68.5345706874601
30
0.000110848107189155
 70
     32
  0
VERTEX
  8
MY3DLAYER
10
2398.57246725018
20
68.2167333898088
30
0.000110888051996327
 70
     32
  0
VERTEX
  8
MY3DLAYER
10
2398.89030444292
20
67.8025197871851
30
0.000110855697373784
 70
     32
  0
VERTEX
  8
MY3DLAYER
10
2399.09010522684
20
67.3201578520875
30
0.000110753251287368
 70
     32
  0
VERTEX
  8
MY3DLAYER
10
2399.15825350871
20
66.8025197532524
30
0.000110587692454623
 70
     32
  0
VERTEX
  8
MY3DLAYER
10
2399.09010509573
20
66.2848816716777
30
0.000110370305794807
 70
     32
  0
VERTEX
  8
MY3DLAYER
10
2398.89030418964
20
65.8025197871853
30
0.000110115902764567
 70
     32
  0
VERTEX
  8
MY3DLAYER
10
2398.57246689199
20
65.3883062650629
30
0.000109841822593481
 70
     32
  0
VERTEX
  8
MY3DLAYER
10
2398.15825328936
20
65.0704690723226
30
0.000109566744017853
 70
     32
  0
VERTEX
  8
MY3DLAYER
10
2397.67589135427
20
64.870668288399
30
0.000109309410385131
 70
     32
  0
VERTEX
  8
MY3DLAYER
10
2397.15825325543
20
64.8025200065307
30
0.000109087361616478
 70
     32
  0
VERTEX
  8
MY3DLAYER
10
2396.64061517386
20
64.870668419506
30
0.000108915728614675
 70
     32
  0
VERTEX
  8
MY3DLAYER
10
2396.15825328936
20
65.0704693256011
30
0.000108806208871793
 70
     32
  0
VERTEX
  8
MY3DLAYER
10
2395.74403976724
20
65.3883066232525
30
0.000108766263342709
 70
     32
  0
VERTEX
  8
MY3DLAYER
10
2395.4262025745
20
65.8025202258761
30
0.000108798618326207
 70
     32
  0
VERTEX
  8
MY3DLAYER
10
2395.22640179058
20
66.2848821609735
30
0.000108901065134535
 70
     32
  0
VERTEX
  8
MY3DLAYER
10
2395.15825350871
20
66.8025202598086
30
0.00010906662144059
 70
     32
  0
VERTEX
  8
MY3DLAYER
10
2395.22640192169
20
67.3201583413833
30
0.000109284011709963
 70
     32
  0
VERTEX
  8
MY3DLAYER
10
2395.42620282778
20
67.8025202258756
30
0.00010953841329638
 70
     32
  0
VERTEX
  8
MY3DLAYER
10
2395.74404012543
20
68.2167337479982
30
0.000109812492023643
 70
     32
  0
VERTEX
  8
MY3DLAYER
10
2396.15825372806
20
68.5345709407382
30
0.000110087572043094
 70
     32
  0
VERTEX
  8
MY3DLAYER
10
2396.64061566315
20
68.7343717246616
30
0.000110344903871037
 70
     32
  0
SEQEND
  0
POLYLINE
 8
Layer0
 66
     1
70
    8
 10
0.0
 20
 0.0
 30
0.0
  0
VERTEX
  8
MY3DLAYER
10
2127.1582806036
20
178.802490829427
30
0.00014491190967032
 70
     32
  0
VERTEX
  8
MY3DLAYER
10
2127.15829305916
20
278.802477665326
30
0.000109108493357546
 70
     32
  0
VERTEX
  8
MY3DLAYER
10
2147.15829347612
20
278.802475174247
30
0.000116713843013371
 70
     32
  0
VERTEX
  8
MY3DLAYER
10
2147.15828102063
20
178.802488338467
30
0.0
 70
     32
  0
VERTEX
  8
MY3DLAYER
10
2127.1582806036
20
178.802490829427
30
0.00014491190967032
 70
     32
  0
SEQEND
 0
ENDSEC
 0
EOF
