 0
SECTION
 2
ENTITIES
  0
LINE
 8
Layer0
10
2413.40415252858
20
931.36111259896
30
0.000268249162816653
11
2412.88651443813
21
931.292964253375
31
0.000268092656976554
  0
LINE
 8
Layer0
10
2444.88651508819
20
1229.2929502652
30
0.0
11
2704.88650207244
21
1229.29294783168
31
0.000206990418143893
  0
LINE
 8
Layer0
10
2444.88651496646
20
1193.29271415172
30
3.86441108348734e-005
11
2444.88651508819
21
1229.2929502652
31
0.0
  0
LINE
 8
Layer0
10
2414.30072800258
20
931.878750685986
30
0.000268284022187643
11
2413.88651443908
21
931.560913442259
31
0.000268314433942746
  0
LINE
 8
Layer0
10
2455.40415242978
20
889.361177606379
30
0.000309615442898409
11
2454.88651433894
21
889.293029263801
31
0.000309458937239493
  0
LINE
 8
Layer0
10
2412.88651443813
20
931.292964253375
30
0.000268092656976554
11
2412.36887634817
21
931.361112602634
31
0.000267855582658738
  0
LINE
 8
Layer0
10
2413.88651443908
20
931.560913442259
30
0.000268314433942746
11
2413.40415252858
21
931.36111259896
31
0.000268249162816653
  0
LINE
 8
Layer0
10
2692.95464968825
20
890.775388931272
30
0.000302940755459824
11
2692.88650134191
21
891.293027021619
31
0.000302608855808389
  0
LINE
 8
Layer0
10
2453.88651502957
20
1213.56089936612
30
1.23917694654752e-005
11
2453.47230146786
21
1213.87873661218
31
1.20464151716293e-005
  0
LINE
 8
Layer0
10
2453.88651437387
20
893.025080080729
30
0.000306872640532752
11
2454.36887628554
21
893.224880921225
31
0.000306937911840732
  0
LINE
 8
Layer0
10
2414.88651444523
20
933.29296424628
30
0.000267670736468506
11
2414.81836609597
21
932.775326156317
31
0.000267950819816737
  0
LINE
 8
Layer0
10
2693.47228778248
20
892.707240582769
30
0.000301995569907365
11
2693.88650134552
21
893.025077827101
31
0.000301965158513923
  0
LINE
 8
Layer0
10
2693.88650134552
20
893.025077827101
30
0.000301965158513923
11
2694.36886325573
21
893.224878671106
31
0.000302030429641426
  0
LINE
 8
Layer0
10
2692.88650134191
20
891.293027021619
30
0.000302608855808389
11
2692.95464969041
21
891.810665111681
31
0.000302328772639932
  0
LINE
 8
Layer0
10
2692.95464969041
20
891.810665111681
30
0.000302328772639932
11
2693.15445053643
21
892.29302702106
31
0.000302119591782995
  0
LINE
 8
Layer0
10
2696.88650134191
20
891.293027013278
30
0.000304129533987885
11
2696.81835299341
21
890.775388923216
31
0.00030440961733823
  0
LINE
 8
Layer0
10
2696.61855214739
20
890.293027013838
30
0.000304618797834916
11
2696.30071490133
21
889.878813452127
31
0.000304742819708431
  0
LINE
 8
Layer0
10
2445.36761334686
20
913.30454365278
30
0.000283315537618939
11
2445.36761334686
21
877.293029352897
31
0.000289624119405119
  0
LINE
 8
Layer0
10
2420.86977553437
20
935.292955568008
30
0.0012551092940903
11
2420.86977553436
21
971.292950792971
31
0.00126469625102039
  0
LINE
 8
Layer0
10
2444.88652891427
20
1106.00582252645
30
0.000113385588549064
11
2474.88652891427
21
1106.00582252645
31
0.000113382654966132
  0
LINE
 8
Layer0
10
2444.88652891428
20
1006.00582252645
30
0.000130903823602801
11
2444.88652891427
21
1106.00582252645
31
0.000113385588549064
  0
LINE
 8
Layer0
10
2433.36977879008
20
928.292955568013
30
0.00126798631556621
11
2420.86977553437
21
935.292955568008
31
0.0012551092940903
  0
LINE
 8
Layer0
10
2474.88652891429
20
1006.00582252645
30
0.000130900889478436
11
2444.88652891428
21
1006.00582252645
31
0.000130903823602801
  0
LINE
 8
Layer0
10
2410.95466279449
20
933.810602350432
30
0.000265869975118438
11
2411.15446364121
21
934.292964259519
31
0.000265660794260797
  0
LINE
 8
Layer0
10
2410.88651444523
20
933.292964260469
30
0.000266150058286896
11
2410.95466279449
21
933.810602350432
31
0.000265869975118438
  0
LINE
 8
Layer0
10
2411.88651443908
20
931.560913449353
30
0.000267554094942884
11
2411.47230087784
21
931.878750696019
31
0.000267208740648334
  0
LINE
 8
Layer0
10
2411.15446363411
20
932.292964259519
30
0.000266843054672505
11
2410.95466279081
21
932.775326170022
31
0.00026648195793833
  0
LINE
 8
Layer0
10
2704.8865012869
20
877.293026923852
30
0.000306921768672591
11
2445.36761334686
21
877.293029352897
31
0.000289624119405119
  0
LINE
 8
Layer0
10
2411.47230087784
20
931.878750696019
30
0.000267208740648334
11
2411.15446363411
21
932.292964259519
31
0.000266843054672505
  0
LINE
 8
Layer0
10
2414.81836609597
20
932.775326156317
30
0.000267950819816737
11
2414.61856524925
21
932.292964247231
31
0.000268160000313422
  0
LINE
 8
Layer0
10
2414.61856524925
20
932.292964247231
30
0.000268160000313422
11
2414.30072800258
21
931.878750685986
31
0.000268284022187643
  0
LINE
 8
Layer0
10
2454.36887624937
20
889.361177616069
30
0.000309221862199766
11
2453.88651434145
21
889.560978465593
31
0.000308920374843458
  0
LINE
 8
Layer0
10
2454.88651433894
20
889.293029263801
30
0.000309458937239493
11
2454.36887624937
21
889.361177616069
31
0.000309221862199766
  0
LINE
 8
Layer0
10
2452.88651435766
20
891.293029282521
30
0.000307516338367242
11
2452.95466270993
21
891.810667372088
31
0.000307236254838533
  0
LINE
 8
Layer0
10
2456.81836601508
20
891.810667335925
30
0.000308705117622149
11
2456.88651435766
21
891.293029245082
31
0.000309037017093811
  0
LINE
 8
Layer0
10
2453.88651434145
20
889.560978465593
30
0.000308920374843458
11
2453.47230078205
21
889.878815714665
31
0.000308575020187246
  0
LINE
 8
Layer0
10
2453.47230078205
20
889.878815714665
30
0.000308575020187246
11
2453.15446354073
21
890.293029280013
31
0.000308209334211418
  0
LINE
 8
Layer0
10
2456.3007279068
20
889.878815688193
30
0.000309650302271514
11
2455.88651434145
21
889.560978446874
31
0.000309680714025912
  0
LINE
 8
Layer0
10
2402.88651442438
20
923.292964288853
30
0.000271839497437243
11
2402.88651496647
21
1183.29295119557
31
3.64071926861664e-005
  0
LINE
 8
Layer0
10
2696.81835299341
20
890.775388923216
30
0.00030440961733823
11
2696.61855214739
21
890.293027013838
31
0.000304618797834916
  0
LINE
 8
Layer0
10
2693.47228777659
20
889.878813458024
30
0.000303667537808872
11
2693.15445053225
21
890.29302702106
31
0.000303301852193999
  0
LINE
 8
Layer0
10
2694.36886324768
20
889.36117536595
30
0.000304314380180937
11
2693.8865013383
21
889.560976211966
31
0.00030401289228249
  0
LINE
 8
Layer0
10
2693.8865013383
20
889.560976211966
30
0.00030401289228249
11
2693.47228777659
21
889.878813458024
31
0.000303667537808872
  0
LINE
 8
Layer0
10
2695.8865013383
20
889.560976207795
30
0.000304773231102579
11
2695.40413942809
21
889.361175363792
31
0.000304707960336736
  0
LINE
 8
Layer0
10
2455.40415246595
20
893.224880911534
30
0.000307331492358898
11
2455.88651437387
21
893.025080062012
31
0.000307632980256639
  0
LINE
 8
Layer0
10
2694.36886394531
20
1217.22479958271
30
0.00020718797622345
11
2694.88650203616
21
1217.29294792528
31
0.000207344482243321
  0
LINE
 8
Layer0
10
2456.61856517459
20
892.29302924759
30
0.000308344020347245
11
2456.81836601508
21
891.810667335925
31
0.000308705117622149
  0
LINE
 8
Layer0
10
2414.81836660003
20
1173.81058924345
30
4.27134456192413e-005
11
2414.88651494561
21
1173.29295115301
31
4.30453447299473e-005
  0
LINE
 8
Layer0
10
2695.40413942809
20
889.361175363792
30
0.000304707960336736
11
2694.88650133774
21
889.293027017448
31
0.000304551454498048
  0
LINE
 8
Layer0
10
2695.88650134552
20
893.025077822932
30
0.000302725497333306
11
2696.30071490723
21
892.707240576873
31
0.000303070851627857
  0
LINE
 8
Layer0
10
2696.30071490723
20
892.707240576873
30
0.000303070851627857
11
2696.61855215156
21
892.293027013837
31
0.000303436537964641
  0
LINE
 8
Layer0
10
2696.61855215156
20
892.293027013837
30
0.000303436537964641
11
2696.81835299557
21
891.810665103626
31
0.000303797634518338
  0
LINE
 8
Layer0
10
2695.88650200122
20
1213.56089710835
30
0.000209930778409334
11
2695.40414008956
21
1213.36109626786
31
0.000209865507281831
  0
LINE
 8
Layer0
10
2695.40414008956
20
1213.36109626786
30
0.000209865507281831
11
2694.88650199872
21
1213.29294792528
31
0.00020970900126196
  0
LINE
 8
Layer0
10
2693.47228844183
20
1213.87873437615
30
0.000208825084932329
11
2693.15445120051
21
1214.2929479415
31
0.000208459399136274
  0
LINE
 8
Layer0
10
2692.88650201744
20
1215.292947944
30
0.000207766403292098
11
2692.95465036971
21
1215.81058603357
31
0.000207486319221251
  0
LINE
 8
Layer0
10
2694.36886325573
20
893.224878671106
30
0.000302030429641426
11
2694.88650134608
21
893.293027017448
31
0.000302186934938681
  0
LINE
 8
Layer0
10
2695.40413943614
20
893.224878668947
30
0.000302424009977703
11
2695.88650134552
21
893.025077822932
31
0.000302725497333306
  0
LINE
 8
Layer0
10
2694.88650134608
20
893.293027017448
30
0.000302186934938681
11
2695.40413943614
21
893.224878668947
31
0.000302424009977703
  0
LINE
 8
Layer0
10
2695.40414012573
20
1217.22479957302
30
0.000207581556561842
11
2695.88650203365
21
1217.02499872349
31
0.000207883044460994
  0
LINE
 8
Layer0
10
2695.88650203365
20
1217.02499872349
30
0.000207883044460994
11
2696.30071559305
21
1216.70716147442
31
0.000208228398574362
  0
LINE
 8
Layer0
10
2455.88651503679
20
1217.02500097709
30
1.11043745169959e-005
11
2456.3007285985
21
1216.70716373103
31
1.14497288115467e-005
  0
LINE
 8
Layer0
10
2456.3007285985
20
1216.70716373103
30
1.14497288115467e-005
11
2456.61856584284
21
1216.29295016799
31
1.18154146047822e-005
  0
LINE
 8
Layer0
10
2693.15445120051
20
1214.2929479415
30
0.000208459399136274
11
2692.95465036001
21
1214.77530985316
31
0.000208098302222326
  0
LINE
 8
Layer0
10
2692.95465036001
20
1214.77530985316
30
0.000208098302222326
11
2692.88650201744
21
1215.292947944
31
0.000207766403292098
  0
LINE
 8
Layer0
10
2694.88650199872
20
1213.29294792528
30
0.00020970900126196
11
2694.36886390915
21
1213.36109627755
31
0.000209471927123916
  0
LINE
 8
Layer0
10
2694.36886390915
20
1213.36109627755
30
0.000209471927123916
11
2693.88650200122
21
1213.56089712707
31
0.000209170439406653
  0
LINE
 8
Layer0
10
2693.88650200122
20
1213.56089712707
30
0.000209170439406653
11
2693.47228844183
21
1213.87873437615
31
0.000208825084932329
  0
LINE
 8
Layer0
10
2694.88650203616
20
1217.29294792528
30
0.000207344482243321
11
2695.40414012573
21
1217.22479957302
31
0.000207581556561842
  0
LINE
 8
Layer0
10
2412.88651493852
20
1171.2929511601
30
4.34672652379953e-005
11
2412.36887684856
21
1171.36109950936
31
4.32301905592236e-005
  0
LINE
 8
Layer0
10
2412.36887684856
20
1171.36109950936
30
4.32301905592236e-005
11
2411.88651493947
21
1171.56090035608
31
4.29287033848036e-005
  0
LINE
 8
Layer0
10
2413.40415302897
20
1171.36109950569
30
4.3623771078094e-005
11
2412.88651493852
21
1171.2929511601
31
4.34672652379953e-005
  0
LINE
 8
Layer0
10
2696.30071559305
20
1216.70716147442
30
0.000208228398574362
11
2696.61855283437
21
1216.29294790907
31
0.000208594084729963
  0
LINE
 8
Layer0
10
2696.61855283437
20
1216.29294790907
30
0.000208594084729963
11
2696.81835367486
21
1215.81058599741
31
0.000208955181465548
  0
LINE
 8
Layer0
10
2696.81835366517
20
1214.775309817
30
0.000209567164465918
11
2696.61855281565
21
1214.29294790907
31
0.000209776344780715
  0
LINE
 8
Layer0
10
2696.30071556657
20
1213.87873434967
30
0.000209900366474458
11
2695.88650200122
21
1213.56089710835
31
0.000209930778409334
  0
LINE
 8
Layer0
10
2696.61855281565
20
1214.29294790907
30
0.000209776344780715
11
2696.30071556657
21
1213.87873434967
31
0.000209900366474458
  0
LINE
 8
Layer0
10
2696.81835367486
20
1215.81058599741
30
0.000208955181465548
11
2696.88650201744
21
1215.29294790656
31
0.000209287080754617
  0
LINE
 8
Layer0
10
2696.88650201744
20
1215.29294790656
30
0.000209287080754617
11
2696.81835366517
21
1214.775309817
31
0.000209567164465918
  0
LINE
 8
Layer0
10
2453.47230146786
20
1213.87873661218
30
1.20464151716293e-005
11
2453.15446422353
21
1214.29295017521
31
1.16807293762788e-005
  0
LINE
 8
Layer0
10
2693.15445121923
20
1216.2929479415
30
0.000207277138544087
11
2693.4722884683
21
1216.70716150089
31
0.00020715311685105
  0
LINE
 8
Layer0
10
2693.4722884683
20
1216.70716150089
30
0.00020715311685105
11
2693.88650203365
21
1217.02499874221
31
0.00020712270527713
  0
LINE
 8
Layer0
10
2693.88650203365
20
1217.02499874221
30
0.00020712270527713
11
2694.36886394531
21
1217.22479958271
31
0.00020718797622345
  0
LINE
 8
Layer0
10
2692.95465036971
20
1215.81058603357
30
0.000207486319221251
11
2693.15445121923
21
1216.2929479415
31
0.000207277138544087
  0
LINE
 8
Layer0
10
2454.88651502901
20
1213.2929501716
30
1.29303316817375e-005
11
2454.36887693895
21
1213.3610985201
31
1.2693256821078e-005
  0
LINE
 8
Layer0
10
2454.36887693895
20
1213.3610985201
30
1.2693256821078e-005
11
2453.88651502957
21
1213.56089936612
31
1.23917694654752e-005
  0
LINE
 8
Layer0
10
2456.61856583867
20
1214.29295016799
30
1.29976748360128e-005
11
2456.30072859261
21
1213.87873660628
31
1.31216968914161e-005
  0
LINE
 8
Layer0
10
2455.88651502957
20
1213.56089936195
30
1.31521086451092e-005
11
2455.40415311936
21
1213.36109851795
31
1.30868371580606e-005
  0
LINE
 8
Layer0
10
2456.30072859261
20
1213.87873660628
30
1.31216968914161e-005
11
2455.88651502957
21
1213.56089936195
31
1.31521086451092e-005
  0
LINE
 8
Layer0
10
2414.30072850297
20
1171.87873759271
30
4.36586308114495e-005
11
2413.88651493947
21
1171.56090034898
31
4.36890420222991e-005
  0
LINE
 8
Layer0
10
2456.81836668684
20
1215.81058825778
30
1.21765120608686e-005
11
2456.88651503318
21
1215.29295016743
31
1.25084111715745e-005
  0
LINE
 8
Layer0
10
2456.88651503318
20
1215.29295016743
30
1.25084111715745e-005
11
2456.81836668468
21
1214.77531207737
31
1.27884945198053e-005
  0
LINE
 8
Layer0
10
2452.88651503318
20
1215.29295017577
30
1.09877331732622e-005
11
2452.95466338168
21
1215.81058826583
31
1.07076498236214e-005
  0
LINE
 8
Layer0
10
2452.95466338168
20
1215.81058826583
30
1.07076498236214e-005
11
2453.1544642277
21
1216.29295017521
31
1.04984689645704e-005
  0
LINE
 8
Layer0
10
2454.36887694701
20
1217.22480182526
30
1.04093068230005e-005
11
2454.88651503735
21
1217.2929501716
31
1.05658124812114e-005
  0
LINE
 8
Layer0
10
2454.88651503735
20
1217.2929501716
30
1.05658124812114e-005
11
2455.40415312742
21
1217.2248018231
31
1.0802887159983e-005
  0
LINE
 8
Layer0
10
2455.40415312742
20
1217.2248018231
30
1.0802887159983e-005
11
2455.88651503679
21
1217.02500097709
31
1.11043745169959e-005
  0
LINE
 8
Layer0
10
2453.1544642277
20
1216.29295017521
30
1.04984689645704e-005
11
2453.47230147376
21
1216.70716373692
31
1.0374447091055e-005
  0
LINE
 8
Layer0
10
2453.47230147376
20
1216.70716373692
30
1.0374447091055e-005
11
2453.88651503679
21
1217.02500098126
31
1.03440356983175e-005
  0
LINE
 8
Layer0
10
2434.88673322728
20
1183.29295108205
30
3.94462231445569e-005
11
2402.88651496647
21
1183.29295119557
31
3.64071926861664e-005
  0
LINE
 8
Layer0
10
2455.88651434145
20
889.560978446874
30
0.000309680714025912
11
2455.40415242978
21
889.361177606379
31
0.000309615442898409
  0
LINE
 8
Layer0
10
2456.81836600539
20
890.775391155515
30
0.000309317100442041
11
2456.61856515587
21
890.293029247591
31
0.000309526280758249
  0
LINE
 8
Layer0
10
2411.47230137823
20
1171.87873760274
30
4.2583348727887e-005
11
2411.1544641345
21
1172.29295116625
31
4.22176625729909e-005
  0
LINE
 8
Layer0
10
2412.36887686226
20
1175.22480281452
30
4.09462402001903e-005
11
2412.88651495271
21
1175.2929511601
31
4.11027460388791e-005
  0
LINE
 8
Layer0
10
2453.15446354073
20
890.293029280013
30
0.000308209334211418
11
2452.95466270024
21
890.775391191678
31
0.000307848238019381
  0
LINE
 8
Layer0
10
2452.95466270993
20
891.810667372088
30
0.000307236254838533
11
2453.15446355945
21
892.293029280013
31
0.000307027074340438
  0
LINE
 8
Layer0
10
2445.36761334686
20
913.30454365278
30
0.000283315537618939
11
2434.88651442438
21
923.292964175334
31
0.000272124986669681
  0
LINE
 8
Layer0
10
2411.15446364121
20
934.292964259519
30
0.000265660794260797
11
2411.47230088787
21
934.707177820764
31
0.000265536772387281
  0
LINE
 8
Layer0
10
2414.61856575673
20
1174.29295115396
30
4.23523483443378e-005
11
2414.81836660003
21
1173.81058924345
31
4.27134456192413e-005
  0
LINE
 8
Layer0
10
2693.15445053643
20
892.29302702106
30
0.000302119591782995
11
2693.47228778248
21
892.707240582769
31
0.000301995569907365
  0
LINE
 8
Layer0
10
2456.61856584284
20
1216.29295016799
30
1.18154146047822e-005
11
2456.81836668684
21
1215.81058825778
31
1.21765120608686e-005
  0
LINE
 8
Layer0
10
2696.81835299557
20
891.810665103626
30
0.000303797634518338
11
2696.88650134191
21
891.293027013278
31
0.000304129533987885
  0
LINE
 8
Layer0
10
2456.81836668468
20
1214.77531207737
30
1.27884945198053e-005
11
2456.61856583867
21
1214.29295016799
31
1.29976748360128e-005
  0
LINE
 8
Layer0
10
2411.88651493947
20
1171.56090035608
30
4.29287033848036e-005
11
2411.47230137823
21
1171.87873760274
31
4.2583348727887e-005
  0
LINE
 8
Layer0
10
2453.88651503679
20
1217.02500098126
30
1.03440356983175e-005
11
2454.36887694701
21
1217.22480182526
31
1.04093068230005e-005
  0
LINE
 8
Layer0
10
2410.95466329487
20
1173.81058925716
30
4.12445833798791e-005
11
2411.15446414159
21
1174.29295116624
31
4.1035402703421e-005
  0
LINE
 8
Layer0
10
2414.88651494561
20
1173.29295115301
30
4.30453447299473e-005
11
2414.81836659636
21
1172.77531306304
31
4.33254280788831e-005
  0
LINE
 8
Layer0
10
2414.81836659636
20
1172.77531306304
30
4.33254280788831e-005
11
2414.61856574964
21
1172.29295115396
31
4.35346087553412e-005
  0
LINE
 8
Layer0
10
2411.15446414159
20
1174.29295116624
30
4.1035402703421e-005
11
2411.47230138826
21
1174.70716472749
31
4.09113808277906e-005
  0
LINE
 8
Layer0
10
2411.47230138826
20
1174.70716472749
30
4.09113808277906e-005
11
2411.88651495176
21
1175.02500197122
31
4.08809687131417e-005
  0
LINE
 8
Layer0
10
2411.88651495176
20
1175.02500197122
30
4.08809687131417e-005
11
2412.36887686226
21
1175.22480281452
31
4.09462402001903e-005
  0
LINE
 8
Layer0
10
2411.1544641345
20
1172.29295116625
30
4.22176625729909e-005
11
2410.9546632912
21
1172.77531307675
31
4.18565658388159e-005
  0
LINE
 8
Layer0
10
2410.9546632912
20
1172.77531307675
30
4.18565658388159e-005
11
2410.88651494562
21
1173.29295116719
31
4.15246667288149e-005
  0
LINE
 8
Layer0
10
2410.88651494562
20
1173.29295116719
30
4.15246667288149e-005
11
2410.95466329487
21
1173.81058925716
31
4.12445833798791e-005
  0
LINE
 8
Layer0
10
2414.30072801262
20
934.707177810732
30
0.000266612054107068
11
2414.61856525634
21
934.292964247231
31
0.000266977740263374
  0
LINE
 8
Layer0
10
2413.88651493947
20
1171.56090034898
30
4.36890420222991e-005
11
2413.40415302897
21
1171.36109950569
31
4.3623771078094e-005
  0
LINE
 8
Layer0
10
2414.61856525634
20
934.292964247231
30
0.000266977740263374
11
2414.81836609964
21
933.810602336727
31
0.000267338836996844
  0
LINE
 8
Layer0
10
2412.36887636187
20
935.22481590779
30
0.000265571632119227
11
2412.88651445232
21
935.292964253374
31
0.000265728137416482
  0
LINE
 8
Layer0
10
2411.47230088787
20
934.707177820764
30
0.000265536772387281
11
2411.88651445137
21
935.025015064491
31
0.000265506360993134
  0
LINE
 8
Layer0
10
2445.86978204578
20
935.292955568014
30
0.00127060056469087
11
2433.36977879008
21
928.292955568013
31
0.00126798631556621
  0
LINE
 8
Layer0
10
2420.86977553436
20
971.292950792971
30
0.00126469625102039
11
2433.36977879007
21
978.29295079297
31
0.00126427926195622
  0
LINE
 8
Layer0
10
2434.88651442438
20
923.292964175334
30
0.000272124986669681
11
2402.88651442438
21
923.292964288853
31
0.000271839497437243
  0
LINE
 8
Layer0
10
2433.36977879007
20
978.29295079297
30
0.00126427926195622
11
2445.86978204577
21
971.292950792977
31
0.00127412504632194
  0
LINE
 8
Layer0
10
2474.88652891427
20
1106.00582252645
30
0.000113382654966132
11
2474.88652891429
21
1006.00582252645
31
0.000130900889478436
  0
LINE
 8
Layer0
10
2445.86978204577
20
971.292950792977
30
0.00127412504632194
11
2445.86978204578
21
935.292955568014
31
0.00127060056469087
  0
LINE
 8
Layer0
10
2704.88650207244
20
1229.29294783168
30
0.000206990418143893
11
2704.8865012869
21
877.293026923852
31
0.000306921768672591
  0
LINE
 8
Layer0
10
2414.30072851301
20
1174.70716471746
30
4.19866623685094e-005
11
2414.61856575673
21
1174.29295115396
31
4.23523483443378e-005
  0
LINE
 8
Layer0
10
2413.88651495176
20
1175.02500196412
30
4.16413078934807e-005
11
2414.30072851301
21
1174.70716471746
31
4.19866623685094e-005
  0
LINE
 8
Layer0
10
2413.40415304267
20
1175.22480281084
30
4.1339820358105e-005
11
2413.88651495176
21
1175.02500196412
31
4.16413078934807e-005
  0
LINE
 8
Layer0
10
2412.88651495271
20
1175.2929511601
30
4.11027460388791e-005
11
2413.40415304267
21
1175.22480281084
31
4.1339820358105e-005
  0
LINE
 8
Layer0
10
2413.40415254228
20
935.224815904116
30
0.000265965212457619
11
2413.88651445137
21
935.025015057397
31
0.00026626669963345
  0
LINE
 8
Layer0
10
2412.88651445232
20
935.292964253374
30
0.000265728137416482
11
2413.40415254228
21
935.224815904116
31
0.000265965212457619
  0
LINE
 8
Layer0
10
2453.47230080852
20
892.70724283941
30
0.000306903052648105
11
2453.88651437387
21
893.025080080729
31
0.000306872640532752
  0
LINE
 8
Layer0
10
2453.15446355945
20
892.293029280013
30
0.000307027074340438
11
2453.47230080852
21
892.70724283941
31
0.000306903052648105
  0
LINE
 8
Layer0
10
2454.88651437638
20
893.293029263802
30
0.000307094417860604
11
2455.40415246595
21
893.224880911534
31
0.000307331492358898
  0
LINE
 8
Layer0
10
2454.36887628554
20
893.224880921225
30
0.000306937911840732
11
2454.88651437638
21
893.293029263802
31
0.000307094417860604
  0
LINE
 8
Layer0
10
2456.30072793327
20
892.707242812939
30
0.000307978334371417
11
2456.61856517459
21
892.29302924759
31
0.000308344020347245
  0
LINE
 8
Layer0
10
2455.88651437387
20
893.025080062012
30
0.000307632980256639
11
2456.30072793327
21
892.707242812939
31
0.000307978334371417
  0
LINE
 8
Layer0
10
2452.95466337953
20
1214.77531208542
30
1.13196322825582e-005
11
2452.88651503318
21
1215.29295017577
31
1.09877331732622e-005
  0
LINE
 8
Layer0
10
2453.15446422353
20
1214.29295017521
30
1.16807293762788e-005
11
2452.95466337953
21
1214.77531208542
31
1.13196322825582e-005
  0
LINE
 8
Layer0
10
2414.81836609964
20
933.810602336727
30
0.000267338836996844
11
2414.88651444523
21
933.29296424628
31
0.000267670736468506
  0
LINE
 8
Layer0
10
2456.88651435766
20
891.293029245082
30
0.000309037017093811
11
2456.81836600539
21
890.775391155515
31
0.000309317100442041
  0
LINE
 8
Layer0
10
2411.88651445137
20
935.025015064491
30
0.000265506360993134
11
2412.36887636187
21
935.22481590779
31
0.000265571632119227
  0
LINE
 8
Layer0
10
2455.40415311936
20
1213.36109851795
30
1.30868371580606e-005
11
2454.88651502901
21
1213.2929501716
31
1.29303316817375e-005
  0
LINE
 8
Layer0
10
2452.95466270024
20
890.775391191678
30
0.000307848238019381
11
2452.88651435766
21
891.293029282521
31
0.000307516338367242
  0
LINE
 8
Layer0
10
2414.61856574964
20
1172.29295115396
30
4.35346087553412e-005
11
2414.30072850297
21
1171.87873759271
31
4.36586308114495e-005
  0
LINE
 8
Layer0
10
2694.88650133774
20
889.293027017448
30
0.000304551454498048
11
2694.36886324768
21
889.36117536595
31
0.000304314380180937
  0
LINE
 8
Layer0
10
2444.88651496646
20
1193.29271415172
30
3.86441108348734e-005
11
2434.88673322728
21
1183.29295108205
31
3.94462231445569e-005
  0
LINE
 8
Layer0
10
2412.36887634817
20
931.361112602634
30
0.000267855582658738
11
2411.88651443908
21
931.560913449353
31
0.000267554094942884
  0
LINE
 8
Layer0
10
2456.61856515587
20
890.293029247591
30
0.000309526280758249
11
2456.3007279068
21
889.878815688193
31
0.000309650302271514
  0
LINE
 8
Layer0
10
2696.30071490133
20
889.878813452127
30
0.000304742819708431
11
2695.8865013383
21
889.560976207795
31
0.000304773231102579
  0
LINE
 8
Layer0
10
2693.15445053225
20
890.29302702106
30
0.000303301852193999
11
2692.95464968825
21
890.775388931272
31
0.000302940755459824
  0
LINE
 8
Layer0
10
2410.95466279081
20
932.775326170022
30
0.00026648195793833
11
2410.88651444523
21
933.292964260469
31
0.000266150058286896
  0
LINE
 8
Layer0
10
2413.88651445137
20
935.025015057397
30
0.00026626669963345
11
2414.30072801262
21
934.707177810732
31
0.000266612054107068
  0
LINE
 8
COMPONENT0
10
2418.99544708878
20
1064.61307120211
30
0.000144538118933133
11
2418.9468880952
21
1063.83884308493
31
0.000145088159658159
  0
LINE
 8
COMPONENT0
10
2418.9468880952
20
1063.83884308493
30
0.000145088159658159
11
2418.80121111442
21
1063.15806997178
31
0.000145534670239684
  0
LINE
 8
COMPONENT0
10
2418.80121111442
20
1063.15806997178
30
0.000145534670239684
11
2418.55841614642
21
1062.57075186266
31
0.000145877650677707
  0
LINE
 8
COMPONENT0
10
2418.55841614642
20
1062.57075186266
30
0.000145877650677707
11
2418.21850319122
21
1062.07688875756
31
0.000146117100972229
  0
LINE
 8
COMPONENT0
10
2418.21850319122
20
1062.07688875756
30
0.000146117100972229
11
2417.78695973316
21
1061.68564510485
31
0.000146248281960596
  0
LINE
 8
COMPONENT0
10
2417.78695973316
20
1061.68564510485
30
0.000146248281960596
11
2417.26927325656
21
1061.40618535291
31
0.000146266454480151
  0
LINE
 8
COMPONENT0
10
2417.26927325656
20
1061.40618535291
30
0.000146266454480151
11
2416.66544376145
21
1061.23850950174
31
0.000146171618530896
  0
LINE
 8
COMPONENT0
10
2416.66544376145
20
1061.23850950174
30
0.000146171618530896
11
2415.9754712478
21
1061.18261755133
31
0.000145963774112831
  0
LINE
 8
COMPONENT0
10
2415.9754712478
20
1061.18261755133
30
0.000145963774112831
11
2415.27184293713
21
1061.27058507099
31
0.000145645548238037
  0
LINE
 8
COMPONENT0
10
2415.27184293713
20
1061.27058507099
30
0.000145645548238037
11
2414.59751849188
21
1061.53448763002
31
0.000145208919758047
  0
LINE
 8
COMPONENT0
10
2414.59751849188
20
1061.53448763002
30
0.000145208919758047
11
2414.25291845609
21
1061.77641229
31
0.000144907306751041
  0
LINE
 8
COMPONENT0
10
2414.25291845609
20
1061.77641229
30
0.000144907306751041
11
2414.04040950833
21
1061.97426930502
31
0.000144685632145809
  0
LINE
 8
COMPONENT0
10
2414.04040950833
20
1061.97426930502
30
0.000144685632145809
11
2413.95244198865
21
1062.06229274811
31
0.000144589383456956
  0
LINE
 8
COMPONENT0
10
2413.95244198865
20
1062.06229274811
30
0.000144589383456956
11
2413.9084302671
21
1062.10624854625
31
0.000144541290023989
  0
LINE
 8
COMPONENT0
10
2413.9084302671
20
1062.10624854625
30
0.000144541290023989
11
2413.81313678105
21
1062.22351993136
31
0.000144420959105585
  0
LINE
 8
COMPONENT0
10
2413.81313678105
20
1062.22351993136
30
0.000144420959105585
11
2413.6006278333
21
1062.50207442312
31
0.000144140128794308
  0
LINE
 8
COMPONENT0
10
2413.6006278333
20
1062.50207442312
30
0.000144140128794308
11
2413.16079023486
21
1062.85388857844
31
0.000143723616368646
  0
LINE
 8
COMPONENT0
10
2413.16079023486
20
1062.85388857844
30
0.000143723616368646
11
2412.7796722141
21
1062.97115996354
31
0.000143500212062786
  0
LINE
 8
COMPONENT0
10
2412.7796722141
20
1062.97115996354
30
0.000143500212062786
11
2412.25186709599
21
1062.85394450181
31
0.000143395801598251
  0
LINE
 8
COMPONENT0
10
2412.25186709599
20
1062.85394450181
30
0.000143395801598251
11
2410.25808577892
21
1061.73972653468
31
0.000143493592047248
  0
LINE
 8
COMPONENT0
10
2410.25808577892
20
1061.73972653468
30
0.000143493592047248
11
2409.64236906454
21
1061.47587989901
31
0.000143464967851244
  0
LINE
 8
COMPONENT0
10
2409.64236906454
20
1061.47587989901
30
0.000143464967851244
11
2409.4371441406
21
1061.52535813361
31
0.000143354689832527
  0
LINE
 8
COMPONENT0
10
2409.4371441406
20
1061.52535813361
30
0.000143354689832527
11
2409.2905549092
21
1061.67379283744
31
0.000143193016326952
  0
LINE
 8
COMPONENT0
10
2409.2905549092
20
1061.67379283744
30
0.000143193016326952
11
2409.20260137036
21
1061.92118401048
31
0.000142979947334516
  0
LINE
 8
COMPONENT0
10
2409.20260137036
20
1061.92118401048
30
0.000142979947334516
11
2409.17328352407
21
1062.26753165275
31
0.000142715482855222
  0
LINE
 8
COMPONENT0
10
2409.17328352407
20
1062.26753165275
30
0.000142715482855222
11
2409.17328352406
21
1062.58998601925
31
0.000142479106000712
  0
LINE
 8
COMPONENT0
10
2409.17328352406
20
1062.58998601925
30
0.000142479106000712
11
2409.20993432711
21
1062.94367360873
31
0.000142233050397709
  0
LINE
 8
COMPONENT0
10
2409.20993432711
20
1062.94367360873
30
0.000142233050397709
11
2409.31988673628
21
1063.24238848883
31
0.000142053726682819
  0
LINE
 8
COMPONENT0
10
2409.31988673628
20
1063.24238848883
30
0.000142053726682819
11
2409.50314075158
21
1063.48613065956
31
0.000141941134856043
  0
LINE
 8
COMPONENT0
10
2409.50314075158
20
1063.48613065956
30
0.000141941134856043
11
2409.75969637299
21
1063.67490012092
31
0.00014189527491738
  0
LINE
 8
COMPONENT0
10
2409.75969637299
20
1063.67490012092
30
0.00014189527491738
11
2411.16706484111
21
1064.46644002791
31
0.000141822554447486
  0
LINE
 8
COMPONENT0
10
2411.16706484111
20
1064.46644002791
30
0.000141822554447486
11
2412.05395415749
21
1065.0015711124
31
0.000141750101805037
  0
LINE
 8
COMPONENT0
10
2412.05395415749
20
1065.0015711124
30
0.000141750101805037
11
2412.58175927558
21
1065.42670085472
31
0.000141628794100836
  0
LINE
 8
COMPONENT0
10
2412.58175927558
20
1065.42670085472
30
0.000141628794100836
11
2412.8309539785
21
1065.84450463068
31
0.000141412384886236
  0
LINE
 8
COMPONENT0
10
2412.8309539785
20
1065.84450463068
30
0.000141412384886236
11
2412.89688767569
21
1066.34300588337
31
0.000141070732802473
  0
LINE
 8
COMPONENT0
10
2412.89688767569
20
1066.34300588337
30
0.000141070732802473
11
2412.82175457797
21
1066.86893756733
31
0.000140658101514355
  0
LINE
 8
COMPONENT0
10
2412.82175457797
20
1066.86893756733
30
0.000140658101514355
11
2412.59635528483
21
1067.24460305587
31
0.000140301434993835
  0
LINE
 8
COMPONENT0
10
2412.59635528483
20
1067.24460305587
30
0.000140301434993835
11
2412.22068979627
21
1067.47000234899
31
0.000140000733240914
  0
LINE
 8
COMPONENT0
10
2412.22068979627
20
1067.47000234899
30
0.000140000733240914
11
2411.69475811231
21
1067.54513544668
31
0.000139755996255592
  0
LINE
 8
COMPONENT0
10
2411.69475811231
20
1067.54513544668
30
0.000139755996255592
11
2410.05284687394
21
1067.54513544662
31
0.000139163893994642
  0
LINE
 8
COMPONENT0
10
2410.05284687394
20
1067.54513544662
30
0.000139163893994642
11
2409.6680379083
21
1067.60935648947
31
0.000138978047498683
  0
LINE
 8
COMPONENT0
10
2409.6680379083
20
1067.60935648947
30
0.000138978047498683
11
2409.3931743614
21
1067.80201961804
31
0.000138737694126619
  0
LINE
 8
COMPONENT0
10
2409.3931743614
20
1067.80201961804
30
0.000138737694126619
11
2409.22825623326
21
1068.12312483233
31
0.000138442833878449
  0
LINE
 8
COMPONENT0
10
2409.22825623326
20
1068.12312483233
30
0.000138442833878449
11
2409.17328352387
21
1068.57267213235
31
0.000138093466754172
  0
LINE
 8
COMPONENT0
10
2409.17328352387
20
1068.57267213235
30
0.000138093466754172
11
2409.23008772482
21
1069.05529113736
31
0.000137760164976897
  0
LINE
 8
COMPONENT0
10
2409.23008772482
20
1069.05529113736
30
0.000137760164976897
11
2409.40050032771
21
1069.3580604645
31
0.000137599672144716
  0
LINE
 8
COMPONENT0
10
2409.40050032771
20
1069.3580604645
30
0.000137599672144716
11
2409.73583105874
21
1069.51769383065
31
0.000137603578271706
  0
LINE
 8
COMPONENT0
10
2409.73583105874
20
1069.51769383065
30
0.000137603578271706
11
2410.28738964409
21
1069.57090495272
31
0.000137763473371942
  0
LINE
 8
COMPONENT0
10
2410.28738964409
20
1069.57090495272
30
0.000137763473371942
11
2418.11588373858
21
1069.57090495297
31
0.000140586566938067
  0
LINE
 8
COMPONENT0
10
2418.11588373858
20
1069.57090495297
30
0.000140586566938067
11
2418.50069270423
21
1069.51952532252
31
0.000140762999969714
  0
LINE
 8
COMPONENT0
10
2418.50069270423
20
1069.51952532252
30
0.000140762999969714
11
2418.77555625112
21
1069.36538643116
31
0.000140975112948846
  0
LINE
 8
COMPONENT0
10
2418.77555625112
20
1069.36538643116
30
0.000140975112948846
11
2418.94047437926
21
1069.10848827887
31
0.000141222905875461
  0
LINE
 8
COMPONENT0
10
2418.94047437926
20
1069.10848827887
30
0.000141222905875461
11
2418.99544708865
21
1068.74883086567
31
0.000141506378749561
  0
LINE
 8
COMPONENT0
10
2418.99544708865
20
1068.74883086567
30
0.000141506378749561
11
2418.99544708878
21
1064.61307120211
31
0.000144538118933133
  0
LINE
 8
COMPONENT0
10
2413.5447044263
20
1053.22438115182
30
0.000150921023246271
11
2413.11777115411
21
1053.28303082522
31
0.000150724070101026
  0
LINE
 8
COMPONENT0
10
2413.11777115411
20
1053.28303082522
30
0.000150724070101026
11
2412.86305401469
21
1053.45897984543
31
0.000150503234244442
  0
LINE
 8
COMPONENT0
10
2412.86305401469
20
1053.45897984543
30
0.000150503234244442
11
2412.73659720992
21
1053.76685218347
31
0.000150231944259327
  0
LINE
 8
COMPONENT0
10
2412.73659720992
20
1053.76685218347
30
0.000150231944259327
11
2412.69444494166
21
1054.22127181035
31
0.000149883628728485
  0
LINE
 8
COMPONENT0
10
2412.69444494166
20
1054.22127181035
30
0.000149883628728485
11
2412.69444494163
21
1054.8957081024
31
0.000149389229688354
  0
LINE
 8
COMPONENT0
10
2412.69444494163
20
1054.8957081024
30
0.000149389229688354
11
2412.69444494156
21
1057.27055151686
31
0.000147648338341901
  0
LINE
 8
COMPONENT0
10
2412.69444494156
20
1057.27055151686
30
0.000147648338341901
11
2412.64680518895
21
1057.7195116211
31
0.000147302046058589
  0
LINE
 8
COMPONENT0
10
2412.64680518895
20
1057.7195116211
30
0.000147302046058589
11
2412.50388593115
21
1058.04019740984
31
0.000147015426454623
  0
LINE
 8
COMPONENT0
10
2412.50388593115
20
1058.04019740984
30
0.000147015426454623
11
2412.26568716817
21
1058.23260888308
31
0.000146788479530005
  0
LINE
 8
COMPONENT0
10
2412.26568716817
20
1058.23260888308
30
0.000146788479530005
11
2411.93220890001
21
1058.29674604082
31
0.000146621205284733
  0
LINE
 8
COMPONENT0
10
2411.93220890001
20
1058.29674604082
30
0.000146621205284733
11
2411.44835958004
21
1058.16482272298
31
0.000146543427729809
  0
LINE
 8
COMPONENT0
10
2411.44835958004
20
1058.16482272298
30
0.000146543427729809
11
2411.01590387139
21
1057.82033453399
31
0.000146640005408023
  0
LINE
 8
COMPONENT0
10
2411.01590387139
20
1057.82033453399
30
0.000146640005408023
11
2410.70071954786
21
1057.33654113741
31
0.000146880991632584
  0
LINE
 8
COMPONENT0
10
2410.70071954786
20
1057.33654113741
30
0.000146880991632584
11
2410.58344816276
21
1056.77216211092
31
0.000147252422482752
  0
LINE
 8
COMPONENT0
10
2410.58344816276
20
1056.77216211092
30
0.000147252422482752
11
2410.62375495859
21
1056.34521485788
31
0.000147579933736689
  0
LINE
 8
COMPONENT0
10
2410.62375495859
20
1056.34521485788
30
0.000147579933736689
11
2410.74467534604
21
1056.00254417965
31
0.000147874736296404
  0
LINE
 8
COMPONENT0
10
2410.74467534604
20
1056.00254417965
30
0.000147874736296404
11
2411.09648950139
21
1055.47473906155
31
0.00014838851700293
  0
LINE
 8
COMPONENT0
10
2411.09648950139
20
1055.47473906155
30
0.00014838851700293
11
2411.44835958014
21
1055.04222742949
31
0.000148832462489662
  0
LINE
 8
COMPONENT0
10
2411.44835958014
20
1055.04222742949
30
0.000148832462489662
11
2411.56932191014
21
1054.81501062563
31
0.000149042646110065
  0
LINE
 8
COMPONENT0
10
2411.56932191014
20
1054.81501062563
30
0.000149042646110065
11
2411.60964268681
21
1054.54383802363
31
0.000149255970985654
  0
LINE
 8
COMPONENT0
10
2411.60964268681
20
1054.54383802363
30
0.000149255970985654
11
2411.53632709985
21
1054.19196794489
31
0.000149487472282743
  0
LINE
 8
COMPONENT0
10
2411.53632709985
20
1054.19196794489
30
0.000149487472282743
11
2411.35306609414
21
1053.86945765497
31
0.000149657802969081
  0
LINE
 8
COMPONENT0
10
2411.35306609414
20
1053.86945765497
30
0.000149657802969081
11
2411.11119735757
21
1053.63491488474
31
0.00014974251362115
  0
LINE
 8
COMPONENT0
10
2411.11119735757
20
1053.63491488474
30
0.00014974251362115
11
2410.84729479851
21
1053.54694736505
31
0.000149711830735157
  0
LINE
 8
COMPONENT0
10
2410.84729479851
20
1053.54694736505
30
0.000149711830735157
11
2410.3708273683
21
1053.74486030347
31
0.000149394927033083
  0
LINE
 8
COMPONENT0
10
2410.3708273683
20
1053.74486030347
30
0.000149394927033083
11
2409.77708855296
21
1054.34592508513
31
0.00014874020063281
  0
LINE
 8
COMPONENT0
10
2409.77708855296
20
1054.34592508513
30
0.00014874020063281
11
2409.5040425168
21
1054.80221814614
31
0.000148307247390855
  0
LINE
 8
COMPONENT0
10
2409.5040425168
20
1054.80221814614
30
0.000148307247390855
11
2409.2713172573
21
1055.36479364274
31
0.000147810923641291
  0
LINE
 8
COMPONENT0
10
2409.2713172573
20
1055.36479364274
30
0.000147810923641291
11
2409.11189360391
21
1056.03182008332
31
0.00014726446543957
  0
LINE
 8
COMPONENT0
10
2409.11189360391
20
1056.03182008332
30
0.00014726446543957
11
2409.0587523861
21
1056.8014659763
31
0.000146681108841146
  0
LINE
 8
COMPONENT0
10
2409.0587523861
20
1056.8014659763
30
0.000146681108841146
11
2409.11923355107
21
1057.57650847809
31
0.000146134770473303
  0
LINE
 8
COMPONENT0
10
2409.11923355107
20
1057.57650847809
30
0.000146134770473303
11
2409.30067704603
21
1058.28902861052
31
0.000145677885612002
  0
LINE
 8
COMPONENT0
10
2409.30067704603
20
1058.28902861052
30
0.000145677885612002
11
2409.60306889014
21
1058.92626185588
31
0.000145319806311759
  0
LINE
 8
COMPONENT0
10
2409.60306889014
20
1058.92626185588
30
0.000145319806311759
11
2410.02639510255
21
1059.47544369645
31
0.000145069884627094
  0
LINE
 8
COMPONENT0
10
2410.02639510255
20
1059.47544369645
30
0.000145069884627094
11
2410.56699270006
21
1059.92568304865
31
0.000144934783387017
  0
LINE
 8
COMPONENT0
10
2410.56699270006
20
1059.92568304865
30
0.000144934783387017
11
2411.22119869951
21
1060.26608882891
31
0.000144921165420539
  0
LINE
 8
COMPONENT0
10
2411.22119869951
20
1060.26608882891
30
0.000144921165420539
11
2411.98899912005
21
1060.48020557464
31
0.000145041088448567
  0
LINE
 8
COMPONENT0
10
2411.98899912005
20
1060.48020557464
30
0.000145041088448567
11
2412.87037998082
21
1060.55157782324
31
0.000145306610192008
  0
LINE
 8
COMPONENT0
10
2412.87037998082
20
1060.55157782324
30
0.000145306610192008
11
2413.90394241372
21
1060.47287960835
31
0.000145737021240249
  0
LINE
 8
COMPONENT0
10
2413.90394241372
20
1060.47287960835
30
0.000145737021240249
11
2414.77619377825
21
1060.2367849636
31
0.000146224640934891
  0
LINE
 8
COMPONENT0
10
2414.77619377825
20
1060.2367849636
30
0.000146224640934891
11
2415.49267049176
21
1059.87073830113
31
0.00014675134753664
  0
LINE
 8
COMPONENT0
10
2415.49267049176
20
1059.87073830113
30
0.00014675134753664
11
2416.05890897155
21
1059.40218403308
31
0.0001472990193062
  0
LINE
 8
COMPONENT0
10
2416.05890897155
20
1059.40218403308
30
0.0001472990193062
11
2416.48405269473
21
1058.84567622618
31
0.000147860284608777
  0
LINE
 8
COMPONENT0
10
2416.48405269473
20
1058.84567622618
30
0.000147860284608777
11
2416.77724513838
21
1058.2157689472
31
0.000148427771809577
  0
LINE
 8
COMPONENT0
10
2416.77724513838
20
1058.2157689472
30
0.000148427771809577
11
2416.9476577413
21
1057.53621566339
31
0.000148987375688792
  0
LINE
 8
COMPONENT0
10
2416.9476577413
20
1057.53621566339
30
0.000148987375688792
11
2417.00446194229
21
1056.83076984199
31
0.000149524991026614
  0
LINE
 8
COMPONENT0
10
2417.00446194229
20
1056.83076984199
30
0.000149524991026614
11
2416.95132072452
21
1056.08311582892
31
0.000150053899034912
  0
LINE
 8
COMPONENT0
10
2416.95132072452
20
1056.08311582892
30
0.000150053899034912
11
2416.79189707118
21
1055.45276116267
31
0.000150458492817584
  0
LINE
 8
COMPONENT0
10
2416.79189707118
20
1055.45276116267
30
0.000150458492817584
11
2416.54818286218
21
1054.92319445722
31
0.000150758806793467
  0
LINE
 8
COMPONENT0
10
2416.54818286218
20
1054.92319445722
30
0.000150758806793467
11
2416.24216997744
21
1054.47790432657
31
0.000150974875381401
  0
LINE
 8
COMPONENT0
10
2416.24216997744
20
1054.47790432657
30
0.000150974875381401
11
2415.88667885809
21
1054.11505927914
31
0.000151112664443887
  0
LINE
 8
COMPONENT0
10
2415.88667885809
20
1054.11505927914
30
0.000151112664443887
11
2415.49452994525
21
1053.83282782333
31
0.000151178139843425
  0
LINE
 8
COMPONENT0
10
2415.49452994525
20
1053.83282782333
30
0.000151178139843425
11
2414.7028781915
21
1053.45165387913
31
0.000151172077752677
  0
LINE
 8
COMPONENT0
10
2414.7028781915
20
1053.45165387913
30
0.000151172077752677
11
2414.00651992379
21
1053.26839287339
31
0.00015105529906871
  0
LINE
 8
COMPONENT0
10
2414.00651992379
20
1053.26839287339
30
0.00015105529906871
11
2413.5447044263
21
1053.22438115182
31
0.000150921023246271
  0
LINE
 8
COMPONENT0
10
2409.49372464839
20
1047.44559178161
30
0.000153696339895779
11
2409.41302717164
21
1047.9440930343
31
0.000153301810014734
  0
LINE
 8
COMPONENT0
10
2409.41302717164
20
1047.9440930343
30
0.000153301810014734
11
2409.22965431908
21
1048.40585260838
31
0.00015289718725446
  0
LINE
 8
COMPONENT0
10
2409.22965431908
20
1048.40585260838
30
0.00015289718725446
11
2409.04633738993
21
1048.93360180307
31
0.000152444210625722
  0
LINE
 8
COMPONENT0
10
2409.04633738993
20
1048.93360180307
30
0.000152444210625722
11
2408.96569583658
21
1049.62996007079
31
0.00015190466079523
  0
LINE
 8
COMPONENT0
10
2408.96569583658
20
1049.62996007079
30
0.00015190466079523
11
2409.12703486661
21
1050.64882862842
31
0.000151215955597679
  0
LINE
 8
COMPONENT0
10
2409.12703486661
20
1050.64882862842
30
0.000151215955597679
11
2409.35620898971
21
1051.18026876801
31
0.000150909024878736
  0
LINE
 8
COMPONENT0
10
2409.35620898971
20
1051.18026876801
30
0.000150909024878736
11
2409.72105329893
21
1051.67502315242
31
0.000150677911914917
  0
LINE
 8
COMPONENT0
10
2409.72105329893
20
1051.67502315242
30
0.000150677911914917
11
2410.23440221624
21
1052.11295935501
31
0.000150542003206309
  0
LINE
 8
COMPONENT0
10
2410.23440221624
20
1052.11295935501
30
0.000150542003206309
11
2410.90909016362
21
1052.47394494916
31
0.000150520685253
  0
LINE
 8
COMPONENT0
10
2410.90909016362
20
1052.47394494916
30
0.000150520685253
11
2411.76895449342
21
1052.71582766662
31
0.000150653454166276
  0
LINE
 8
COMPONENT0
10
2411.76895449342
20
1052.71582766662
30
0.000150653454166276
11
2412.83783255802
21
1052.79645523913
31
0.000150979806057424
  0
LINE
 8
COMPONENT0
10
2412.83783255802
20
1052.79645523913
30
0.000150979806057424
11
2413.90671062263
21
1052.71765915828
31
0.000151423024288842
  0
LINE
 8
COMPONENT0
10
2413.90671062263
20
1052.71765915828
30
0.000151423024288842
11
2414.76657495245
21
1052.48127091564
31
0.000151906392222928
  0
LINE
 8
COMPONENT0
10
2414.76657495245
20
1052.48127091564
30
0.000151906392222928
11
2415.44309439144
21
1052.12761128789
31
0.000152409609143702
  0
LINE
 8
COMPONENT0
10
2415.44309439144
20
1052.12761128789
30
0.000152409609143702
11
2415.96193778354
21
1051.69700105169
31
0.000152912374335183
  0
LINE
 8
COMPONENT0
10
2415.96193778354
20
1051.69700105169
30
0.000152912374335183
11
2416.33410805915
21
1051.20774114207
31
0.000153405240053021
  0
LINE
 8
COMPONENT0
10
2416.33410805915
20
1051.20774114207
30
0.000153405240053021
11
2416.57060814864
21
1050.67813249408
31
0.000153878758552865
  0
LINE
 8
COMPONENT0
10
2416.57060814864
20
1050.67813249408
30
0.000153878758552865
11
2416.69710689598
21
1050.14852384609
31
0.000154312608621262
  0
LINE
 8
COMPONENT0
10
2416.69710689598
20
1050.14852384609
30
0.000154312608621262
11
2416.7392731451
21
1049.65926393647
31
0.000154686469044758
  0
LINE
 8
COMPONENT0
10
2416.7392731451
20
1049.65926393647
30
0.000154686469044758
11
2416.70258738992
21
1049.10215495293
31
0.000155081631156877
  0
LINE
 8
COMPONENT0
10
2416.70258738992
20
1049.10215495293
30
0.000155081631156877
11
2416.62194583661
21
1048.67702521062
31
0.000155364193959121
  0
LINE
 8
COMPONENT0
10
2416.62194583661
20
1048.67702521062
30
0.000155364193959121
11
2416.54130428329
21
1048.32521105529
31
0.000155593012388098
  0
LINE
 8
COMPONENT0
10
2416.54130428329
20
1048.32521105529
30
0.000155593012388098
11
2416.50461852811
21
1047.95874496724
31
0.000155848422731742
  0
LINE
 8
COMPONENT0
10
2416.50461852811
20
1047.95874496724
30
0.000155848422731742
11
2416.50461852812
21
1047.85606959144
31
0.000155923689451284
  0
LINE
 8
COMPONENT0
10
2416.50461852812
20
1047.85606959144
30
0.000155923689451284
11
2416.51927046084
21
1047.70216837454
31
0.000156041791287041
  0
LINE
 8
COMPONENT0
10
2416.51927046084
20
1047.70216837454
30
0.000156041791287041
11
2416.54863024967
21
1047.5555372006
31
0.000156159867693216
  0
LINE
 8
COMPONENT0
10
2416.54863024967
20
1047.5555372006
30
0.000156159867693216
11
2416.60729390394
21
1047.48954757999
31
0.000156229396880959
  0
LINE
 8
COMPONENT0
10
2416.60729390394
20
1047.48954757999
30
0.000156229396880959
11
2416.77230989803
21
1047.44374630941
31
0.000156322479430061
  0
LINE
 8
COMPONENT0
10
2416.77230989803
20
1047.44374630941
30
0.000156322479430061
11
2416.88596024252
21
1047.3356463631
31
0.000156442706985584
  0
LINE
 8
COMPONENT0
10
2416.88596024252
20
1047.3356463631
30
0.000156442706985584
11
2417.01061351741
21
1047.05714779474
31
0.000156691813990882
  0
LINE
 8
COMPONENT0
10
2417.01061351741
20
1047.05714779474
30
0.000156691813990882
11
2417.0472992726
21
1046.82987506747
31
0.000156871646981324
  0
LINE
 8
COMPONENT0
10
2417.0472992726
20
1046.82987506747
30
0.000156871646981324
11
2417.0472992726
21
1046.80057120205
31
0.000156893128332653
  0
LINE
 8
COMPONENT0
10
2417.0472992726
20
1046.80057120205
30
0.000156893128332653
11
2417.04729927262
21
1046.21415835309
31
0.000157323001328907
  0
LINE
 8
COMPONENT0
10
2417.04729927262
20
1046.21415835309
30
0.000157323001328907
11
2416.95927582954
21
1046.03827923712
31
0.000157420187619881
  0
LINE
 8
COMPONENT0
10
2416.95927582954
20
1046.03827923712
30
0.000157420187619881
11
2416.76857701065
21
1045.79635457713
31
0.000157528762382955
  0
LINE
 8
COMPONENT0
10
2416.76857701065
20
1045.79635457713
30
0.000157528762382955
11
2416.59991201423
21
1045.58378970597
31
0.000157623760586227
  0
LINE
 8
COMPONENT0
10
2416.59991201423
20
1045.58378970597
30
0.000157623760586227
11
2416.56333810586
21
1045.49587810969
31
0.00015767501544135
  0
LINE
 8
COMPONENT0
10
2416.56333810586
20
1045.49587810969
30
0.00015767501544135
11
2410.08036119105
21
1045.40785466639
31
0.000155401665235128
  0
LINE
 8
COMPONENT0
10
2410.08036119105
20
1045.40785466639
30
0.000155401665235128
11
2409.52302851388
21
1045.3858767673
31
0.000155216792218222
  0
LINE
 8
COMPONENT0
10
2409.52302851388
20
1045.3858767673
30
0.000155216792218222
11
2409.2443621753
21
1045.42988848884
31
0.000155084037181081
  0
LINE
 8
COMPONENT0
10
2409.2443621753
20
1045.42988848884
30
0.000155084037181081
11
2409.14906868925
21
1045.7084429806
31
0.000154845476840477
  0
LINE
 8
COMPONENT0
10
2409.14906868925
20
1045.7084429806
30
0.000154845476840477
11
2409.14174272287
21
1046.37544145948
31
0.000154353888254901
  0
LINE
 8
COMPONENT0
10
2409.14174272287
20
1046.37544145948
30
0.000154353888254901
11
2409.19308041076
21
1046.78591926908
31
0.000154071498635653
  0
LINE
 8
COMPONENT0
10
2409.19308041076
20
1046.78591926908
30
0.000154071498635653
11
2409.31040771927
21
1047.00581010659
31
0.000153952616815408
  0
LINE
 8
COMPONENT0
10
2409.31040771927
20
1047.00581010659
30
0.000153952616815408
11
2409.43506099414
21
1047.18168922256
31
0.00015386863989027
  0
LINE
 8
COMPONENT0
10
2409.43506099414
20
1047.18168922256
30
0.00015386863989027
11
2409.49372464839
21
1047.44559178161
31
0.000153696339895779
  0
LINE
 8
COMPONENT0
10
2416.64990754047
20
1042.11027503167
30
0.000160188067899583
11
2416.67921140591
21
1041.8317205399
31
0.000160402831214713
  0
LINE
 8
COMPONENT0
10
2416.67921140591
20
1041.8317205399
30
0.000160402831214713
11
2416.73781913677
21
1041.6118297024
31
0.000160585158324908
  0
LINE
 8
COMPONENT0
10
2416.73781913677
20
1041.6118297024
30
0.000160585158324908
11
2416.79648279103
21
1041.39193886489
31
0.000160767505602074
  0
LINE
 8
COMPONENT0
10
2416.79648279103
20
1041.39193886489
30
0.000160767505602074
11
2416.82584257987
21
1041.11338437312
31
0.000160982289084175
  0
LINE
 8
COMPONENT0
10
2416.82584257987
20
1041.11338437312
30
0.000160982289084175
11
2416.77269437167
21
1040.79272654608
31
0.000161198182791251
  0
LINE
 8
COMPONENT0
10
2416.77269437167
20
1040.79272654608
30
0.000161198182791251
11
2416.61324974704
21
1040.56368524105
31
0.000161308584159578
  0
LINE
 8
COMPONENT0
10
2416.61324974704
20
1040.56368524105
30
0.000161308584159578
11
2416.34750870597
21
1040.42626045802
31
0.000161313493189158
  0
LINE
 8
COMPONENT0
10
2416.34750870597
20
1040.42626045802
30
0.000161313493189158
11
2415.97547124847
21
1040.380452197
31
0.000161212909879989
  0
LINE
 8
COMPONENT0
10
2415.97547124847
20
1040.380452197
30
0.000161212909879989
11
2415.51372565524
21
1040.42809894001
31
0.000161011468550943
  0
LINE
 8
COMPONENT0
10
2415.51372565524
20
1040.42809894001
30
0.000161011468550943
11
2415.18387541812
21
1040.57103916906
31
0.000160787735635623
  0
LINE
 8
COMPONENT0
10
2415.18387541812
20
1040.57103916906
30
0.000160787735635623
11
2414.94196473897
21
1040.86055464865
31
0.000160488267530203
  0
LINE
 8
COMPONENT0
10
2414.94196473897
20
1040.86055464865
30
0.000160488267530203
11
2414.74403781967
21
1041.34792714328
31
0.000160059620630854
  0
LINE
 8
COMPONENT0
10
2414.74403781967
20
1041.34792714328
30
0.000160059620630854
11
2414.51863852652
21
1041.84821794499
31
0.000159611596874768
  0
LINE
 8
COMPONENT0
10
2414.51863852652
20
1041.84821794499
30
0.000159611596874768
11
2414.19431072587
21
1042.20556851763
31
0.000159232680827588
  0
LINE
 8
COMPONENT0
10
2414.19431072587
20
1042.20556851763
30
0.000159232680827588
11
2413.78567838871
21
1042.41997886121
31
0.000158928146152164
  0
LINE
 8
COMPONENT0
10
2413.78567838871
20
1042.41997886121
30
0.000158928146152164
11
2413.30736548606
21
1042.49144897573
31
0.000158703266511344
  0
LINE
 8
COMPONENT0
10
2413.30736548606
20
1042.49144897573
30
0.000158703266511344
11
2410.28738964497
21
1042.49144897563
31
0.000157614209757399
  0
LINE
 8
COMPONENT0
10
2410.28738964497
20
1042.49144897563
30
0.000157614209757399
11
2409.79996821736
21
1042.54830909999
31
0.000157396755350675
  0
LINE
 8
COMPONENT0
10
2409.79996821736
20
1042.54830909999
30
0.000157396755350675
11
2409.45181005477
21
1042.7188894731
31
0.000157146158521603
  0
LINE
 8
COMPONENT0
10
2409.45181005477
20
1042.7188894731
30
0.000157146158521603
11
2409.24291515721
21
1043.00319009496
31
0.000156862419270181
  0
LINE
 8
COMPONENT0
10
2409.24291515721
20
1043.00319009496
30
0.000156862419270181
11
2409.17328352468
21
1043.40121096557
31
0.000156545537596411
  0
LINE
 8
COMPONENT0
10
2409.17328352468
20
1043.40121096557
30
0.000156545537596411
11
2409.17328352466
21
1043.98818304861
31
0.000156115254650705
  0
LINE
 8
COMPONENT0
10
2409.17328352466
20
1043.98818304861
30
0.000156115254650705
11
2409.24658513077
21
1044.36056303698
31
0.00015586871341569
  0
LINE
 8
COMPONENT0
10
2409.24658513077
20
1044.36056303698
30
0.00015586871341569
11
2409.46648994912
21
1044.62654874296
31
0.000155753032777876
  0
LINE
 8
COMPONENT0
10
2409.46648994912
20
1044.62654874296
30
0.000155753032777876
11
2409.83299797972
21
1044.78614016656
31
0.000155768212737263
  0
LINE
 8
COMPONENT0
10
2409.83299797972
20
1044.78614016656
30
0.000155768212737263
11
2410.34610922256
21
1044.83933730777
31
0.000155914253293851
  0
LINE
 8
COMPONENT0
10
2410.34610922256
20
1044.83933730777
30
0.000155914253293851
11
2415.8289519212
21
1044.83933730795
31
0.000157891463439222
  0
LINE
 8
COMPONENT0
10
2415.8289519212
20
1044.83933730795
30
0.000157891463439222
11
2416.32000137986
21
1044.78247718359
31
0.000158110226178173
  0
LINE
 8
COMPONENT0
10
2416.32000137986
20
1044.78247718359
30
0.000158110226178173
11
2416.67915548241
21
1044.61189681048
31
0.000158364788337867
  0
LINE
 8
COMPONENT0
10
2416.67915548241
20
1044.61189681048
30
0.000158364788337867
11
2416.89906030078
21
1044.27623053901
31
0.000158690151818897
  0
LINE
 8
COMPONENT0
10
2416.89906030078
20
1044.27623053901
30
0.000158690151818897
11
2416.97236190692
21
1043.72411271958
31
0.000159121318521853
  0
LINE
 8
COMPONENT0
10
2416.97236190692
20
1043.72411271958
30
0.000159121318521853
11
2416.92108014244
21
1043.13708471314
31
0.000159533149350336
  0
LINE
 8
COMPONENT0
10
2416.92108014244
20
1043.13708471314
30
0.000159533149350336
11
2416.8111347237
21
1042.70418161722
31
0.000159810842957307
  0
LINE
 8
COMPONENT0
10
2416.8111347237
20
1042.70418161722
30
0.000159810842957307
11
2416.70118930496
21
1042.38150355708
31
0.000160007735527122
  0
LINE
 8
COMPONENT0
10
2416.70118930496
20
1042.38150355708
30
0.000160007735527122
11
2416.64990754047
21
1042.11027503167
31
0.000160188067899583
 0
ENDSEC
 0
EOF
