 0
SECTION
 2
ENTITIES
  0
LINE
 8
Layer0
10
2824.92550358199
20
1243.71491123668
30
0.000198998447591953
11
2824.92550352018
21
1223.21464951044
31
0.000202132560325913
  0
LINE
 8
Layer0
10
2585.92544440847
20
1243.71491368741
30
0.0
11
2824.92550358199
21
1243.71491123668
31
0.000198998447591953
  0
LINE
 8
Layer0
10
2822.92541865406
20
1223.21467338893
30
0.000143967336441619
11
2824.92550352018
21
1223.21464951044
31
0.000202132560325913
  0
LINE
 8
COMPONENT0
10
2590.02842796646
20
1170.95793788599
30
0.0
11
2589.596943927
21
1170.86448987239
31
0.0
  0
LINE
 8
COMPONENT0
10
2589.596943927
20
1170.86448987239
30
0.0
11
2589.26985490812
21
1170.58414583158
31
0.0
  0
LINE
 8
COMPONENT0
10
2589.26985490812
20
1170.58414583158
30
0.0
11
2588.66512714326
21
1169.77054414046
31
0.0
  0
LINE
 8
COMPONENT0
10
2588.66512714326
20
1169.77054414046
30
0.0
11
2587.79649681936
21
1168.95694244934
31
0.0
  0
LINE
 8
COMPONENT0
10
2587.79649681936
20
1168.95694244934
30
0.0
11
2587.13952960166
21
1168.67659840854
31
0.0
  0
LINE
 8
COMPONENT0
10
2587.13952960166
20
1168.67659840854
30
0.0
11
2586.24621608385
21
1168.58315039493
31
0.0
  0
LINE
 8
COMPONENT0
10
2586.24621608385
20
1168.58315039493
30
0.0
11
2585.28682206989
21
1168.66835669638
31
0.0
  0
LINE
 8
COMPONENT0
10
2585.28682206989
20
1168.66835669638
30
0.0
11
2584.47590470232
21
1168.92397560073
31
0.0
  0
LINE
 8
COMPONENT0
10
2584.47590470232
20
1168.92397560073
30
0.0
11
2583.79970682293
21
1169.36925874094
31
0.0
  0
LINE
 8
COMPONENT0
10
2583.79970682293
20
1169.36925874094
30
0.0
11
2583.24447127354
21
1170.02345774998
31
0.0
  0
LINE
 8
COMPONENT0
10
2583.24447127354
20
1170.02345774998
30
0.0
11
2582.81567155763
21
1170.88931986523
31
0.0
  0
LINE
 8
COMPONENT0
10
2582.81567155763
20
1170.88931986523
30
0.0
11
2582.5187811787
21
1171.96959232407
31
0.0
  0
LINE
 8
COMPONENT0
10
2582.5187811787
20
1171.96959232407
30
0.0
11
2582.34557939586
21
1173.27799034214
31
0.0
  0
LINE
 8
COMPONENT0
10
2582.34557939586
20
1173.27799034214
30
0.0
11
2582.28784546825
21
1174.82822913509
31
0.0
  0
LINE
 8
COMPONENT0
10
2582.28784546825
20
1174.82822913509
30
0.0
11
2582.28784546825
21
1179.79791864833
31
0.0
  0
LINE
 8
COMPONENT0
10
2582.28784546825
20
1179.79791864833
30
0.0
11
2582.37030453231
21
1180.39721485225
31
0.0
  0
LINE
 8
COMPONENT0
10
2582.37030453231
20
1180.39721485225
30
0.0
11
2582.61768172451
21
1180.78751130224
31
0.0
  0
LINE
 8
COMPONENT0
10
2582.61768172451
20
1180.78751130224
30
0.0
11
2583.062985836
21
1181.001858732
31
0.0
  0
LINE
 8
COMPONENT0
10
2583.062985836
20
1181.001858732
30
0.0
11
2583.73922565794
21
1181.07330787525
31
0.0
  0
LINE
 8
COMPONENT0
10
2583.73922565794
20
1181.07330787525
30
0.0
11
2595.65812553267
21
1181.07330787525
31
0.0
  0
LINE
 8
COMPONENT0
10
2595.65812553267
20
1181.07330787525
30
0.0
11
2596.21610831945
21
1180.99910100897
31
0.0
  0
LINE
 8
COMPONENT0
10
2596.21610831945
20
1180.99910100897
30
0.0
11
2596.61466745286
21
1180.77648041014
31
0.0
  0
LINE
 8
COMPONENT0
10
2596.61466745286
20
1180.77648041014
30
0.0
11
2596.8538029329
21
1180.40544607877
31
0.0
  0
LINE
 8
COMPONENT0
10
2596.8538029329
20
1180.40544607877
30
0.0
11
2596.93351475959
21
1179.88599801483
31
0.0
  0
LINE
 8
COMPONENT0
10
2596.93351475959
20
1179.88599801483
30
0.0
11
2596.93351475959
21
1173.90465406351
31
0.0
  0
LINE
 8
COMPONENT0
10
2596.93351475959
20
1173.90465406351
30
0.0
11
2596.87991217369
21
1172.80925082778
31
0.0
  0
LINE
 8
COMPONENT0
10
2596.87991217369
20
1172.80925082778
30
0.0
11
2596.71910441599
21
1171.85404058373
31
0.0
  0
LINE
 8
COMPONENT0
10
2596.71910441599
20
1171.85404058373
30
0.0
11
2596.4510914865
21
1171.03902333136
31
0.0
  0
LINE
 8
COMPONENT0
10
2596.4510914865
20
1171.03902333136
30
0.0
11
2596.07587338521
21
1170.36419907067
31
0.0
  0
LINE
 8
COMPONENT0
10
2596.07587338521
20
1170.36419907067
30
0.0
11
2595.59345011213
21
1169.83506227642
31
0.0
  0
LINE
 8
COMPONENT0
10
2595.59345011213
20
1169.83506227642
30
0.0
11
2595.00382166724
21
1169.45710742339
31
0.0
  0
LINE
 8
COMPONENT0
10
2595.00382166724
20
1169.45710742339
30
0.0
11
2594.30698805057
21
1169.23033451157
31
0.0
  0
LINE
 8
COMPONENT0
10
2594.30698805057
20
1169.23033451157
30
0.0
11
2593.50294926209
21
1169.15474354096
31
0.0
  0
LINE
 8
COMPONENT0
10
2593.50294926209
20
1169.15474354096
30
0.0
11
2592.70031554922
21
1169.22621365549
31
0.0
  0
LINE
 8
COMPONENT0
10
2592.70031554922
20
1169.22621365549
30
0.0
11
2592.09560875565
21
1169.44062399909
31
0.0
  0
LINE
 8
COMPONENT0
10
2592.09560875565
20
1169.44062399909
30
0.0
11
2591.26002916545
21
1170.05634071347
31
0.0
  0
LINE
 8
COMPONENT0
10
2591.26002916545
20
1170.05634071347
30
0.0
11
2590.67727929967
21
1170.67205742786
31
0.0
  0
LINE
 8
COMPONENT0
10
2590.67727929967
20
1170.67205742786
30
0.0
11
2590.38860966161
21
1170.88646777146
31
0.0
  0
LINE
 8
COMPONENT0
10
2590.38860966161
20
1170.88646777146
30
0.0
11
2590.02842796646
21
1170.95793788599
31
0.0
  0
LINE
 8
COMPONENT1
10
3082.92121764891
20
1179.26797332758
30
0.0
11
3083.35270168837
21
1179.36142134118
31
0.0
  0
LINE
 8
COMPONENT1
10
3083.35270168837
20
1179.36142134118
30
0.0
11
3083.67979070725
21
1179.64176538198
31
0.0
  0
LINE
 8
COMPONENT1
10
3083.67979070725
20
1179.64176538198
30
0.0
11
3084.2845184721
21
1180.4553670731
31
0.0
  0
LINE
 8
COMPONENT1
10
3084.2845184721
20
1180.4553670731
30
0.0
11
3085.15314879601
21
1181.26896876423
31
0.0
  0
LINE
 8
COMPONENT1
10
3085.15314879601
20
1181.26896876423
30
0.0
11
3085.81011601371
21
1181.54931280503
31
0.0
  0
LINE
 8
COMPONENT1
10
3085.81011601371
20
1181.54931280503
30
0.0
11
3086.70342953151
21
1181.64276081863
31
0.0
  0
LINE
 8
COMPONENT1
10
3086.70342953151
20
1181.64276081863
30
0.0
11
3087.66282354547
21
1181.55755451718
31
0.0
  0
LINE
 8
COMPONENT1
10
3087.66282354547
20
1181.55755451718
30
0.0
11
3088.47374091305
21
1181.30193561283
31
0.0
  0
LINE
 8
COMPONENT1
10
3088.47374091305
20
1181.30193561283
30
0.0
11
3089.14993879243
21
1180.85665247262
31
0.0
  0
LINE
 8
COMPONENT1
10
3089.14993879243
20
1180.85665247262
30
0.0
11
3089.70517434182
21
1180.20245346358
31
0.0
  0
LINE
 8
COMPONENT1
10
3089.70517434182
20
1180.20245346358
30
0.0
11
3090.13397405773
21
1179.33659134833
31
0.0
  0
LINE
 8
COMPONENT1
10
3090.13397405773
20
1179.33659134833
30
0.0
11
3090.43086443667
21
1178.25631888949
31
0.0
  0
LINE
 8
COMPONENT1
10
3090.43086443667
20
1178.25631888949
30
0.0
11
3090.60406621951
21
1176.94792087142
31
0.0
  0
LINE
 8
COMPONENT1
10
3090.60406621951
20
1176.94792087142
30
0.0
11
3090.66180014712
21
1175.39768207847
31
0.0
  0
LINE
 8
COMPONENT1
10
3090.66180014712
20
1175.39768207847
30
0.0
11
3090.66180014712
21
1170.42799256523
31
0.0
  0
LINE
 8
COMPONENT1
10
3090.66180014712
20
1170.42799256523
30
0.0
11
3090.57934108305
21
1169.82869636131
31
0.0
  0
LINE
 8
COMPONENT1
10
3090.57934108305
20
1169.82869636131
30
0.0
11
3090.33196389086
21
1169.43839991133
31
0.0
  0
LINE
 8
COMPONENT1
10
3090.33196389086
20
1169.43839991133
30
0.0
11
3089.88665977937
21
1169.22405248157
31
0.0
  0
LINE
 8
COMPONENT1
10
3089.88665977937
20
1169.22405248157
30
0.0
11
3089.21041995743
21
1169.15260333831
31
0.0
  0
LINE
 8
COMPONENT1
10
3089.21041995743
20
1169.15260333831
30
0.0
11
3077.29152008269
21
1169.15260333831
31
0.0
  0
LINE
 8
COMPONENT1
10
3077.29152008269
20
1169.15260333831
30
0.0
11
3076.73353729592
21
1169.22681020459
31
0.0
  0
LINE
 8
COMPONENT1
10
3076.73353729592
20
1169.22681020459
30
0.0
11
3076.33497816251
21
1169.44943080342
31
0.0
  0
LINE
 8
COMPONENT1
10
3076.33497816251
20
1169.44943080342
30
0.0
11
3076.09584268246
21
1169.8204651348
31
0.0
  0
LINE
 8
COMPONENT1
10
3076.09584268246
20
1169.8204651348
30
0.0
11
3076.01613085578
21
1170.33991319873
31
0.0
  0
LINE
 8
COMPONENT1
10
3076.01613085578
20
1170.33991319873
30
0.0
11
3076.01613085578
21
1176.32125715005
31
0.0
  0
LINE
 8
COMPONENT1
10
3076.01613085578
20
1176.32125715005
30
0.0
11
3076.06973344168
21
1177.41666038578
31
0.0
  0
LINE
 8
COMPONENT1
10
3076.06973344168
20
1177.41666038578
30
0.0
11
3076.23054119937
21
1178.37187062983
31
0.0
  0
LINE
 8
COMPONENT1
10
3076.23054119937
20
1178.37187062983
30
0.0
11
3076.49855412887
21
1179.1868878822
31
0.0
  0
LINE
 8
COMPONENT1
10
3076.49855412887
20
1179.1868878822
30
0.0
11
3076.87377223015
21
1179.8617121429
31
0.0
  0
LINE
 8
COMPONENT1
10
3076.87377223015
20
1179.8617121429
30
0.0
11
3077.35619550324
21
1180.39084893714
31
0.0
  0
LINE
 8
COMPONENT1
10
3077.35619550324
20
1180.39084893714
30
0.0
11
3077.94582394812
21
1180.76880379018
31
0.0
  0
LINE
 8
COMPONENT1
10
3077.94582394812
20
1180.76880379018
30
0.0
11
3078.6426575648
21
1180.99557670199
31
0.0
  0
LINE
 8
COMPONENT1
10
3078.6426575648
20
1180.99557670199
30
0.0
11
3079.44669635328
21
1181.0711676726
31
0.0
  0
LINE
 8
COMPONENT1
10
3079.44669635328
20
1181.0711676726
30
0.0
11
3080.24933006614
21
1180.99969755807
31
0.0
  0
LINE
 8
COMPONENT1
10
3080.24933006614
20
1180.99969755807
30
0.0
11
3080.85403685972
21
1180.78528721448
31
0.0
  0
LINE
 8
COMPONENT1
10
3080.85403685972
20
1180.78528721448
30
0.0
11
3081.68961644991
21
1180.16957050009
31
0.0
  0
LINE
 8
COMPONENT1
10
3081.68961644991
20
1180.16957050009
30
0.0
11
3082.27236631569
21
1179.5538537857
31
0.0
  0
LINE
 8
COMPONENT1
10
3082.27236631569
20
1179.5538537857
30
0.0
11
3082.56103595376
21
1179.33944344211
31
0.0
  0
LINE
 8
COMPONENT1
10
3082.56103595376
20
1179.33944344211
30
0.0
11
3082.92121764891
21
1179.26797332758
31
0.0
  0
LINE
 8
Layer0
10
2555.92544381495
20
953.214927668451
30
0.000213526116115054
11
2555.85729546569
21
952.697289578488
31
0.00021371551192218
  0
LINE
 8
Layer0
10
2575.9254437941
20
943.2149275975
30
0.000216230499706432
11
2543.9254437941
21
943.214927711025
31
0.000215941879701381
  0
LINE
 8
Layer0
10
2555.65749461897
20
952.214927669402
30
0.000213840171405627
11
2555.3396573723
21
951.800714108156
31
0.000213891599472765
  0
LINE
 8
Layer0
10
2585.9254442311
20
933.214927648731
30
0.000225672280983247
11
2575.9254437941
21
943.2149275975
31
0.000216230499706432
  0
LINE
 8
Layer0
10
2555.3396573723
20
951.800714108156
30
0.000213891599472765
11
2554.9254438088
21
951.48287686443
31
0.000213866291424836
  0
LINE
 8
Layer0
10
2555.85729546569
20
952.697289578488
30
0.00021371551192218
11
2555.65749461897
21
952.214927669402
31
0.000213840171405627
  0
LINE
 8
Layer0
10
2554.9254438088
20
951.48287686443
30
0.000213866291424836
11
2554.4430818983
21
951.283076021132
31
0.000213765971364671
  0
LINE
 8
Layer0
10
2554.4430818983
20
951.283076021132
30
0.000213765971364671
11
2553.92544380785
21
951.214927675546
31
0.000213597476698624
  0
LINE
 8
Layer0
10
2553.92544380785
20
951.214927675546
30
0.000213597476698624
11
2553.40780571789
21
951.283076024805
31
0.000213372289605479
  0
LINE
 8
Layer0
10
2543.9254437941
20
943.214927711025
30
0.000215941879701381
11
2543.92544433623
21
1203.21491461778
31
2.605698480736e-005
  0
LINE
 8
Layer0
10
2824.92543067706
20
900.214990359852
30
0.000233522075944143
11
2585.92544421739
21
900.214992775059
31
0.0002258802564441
  0
LINE
 8
Layer0
10
2824.9254306847
20
923.214958008663
30
0.00021465628955824
11
2824.92543067706
21
900.214990359852
31
0.000233522075944143
  0
LINE
 8
Layer0
10
2822.92536576027
20
923.214959011181
30
0.000213532164470109
11
2810.92543032812
21
933.214973460052
31
0.000211676247521098
  0
LINE
 8
Layer0
10
2822.92536576027
20
923.214959011181
30
0.000213532164470109
11
2824.9254306847
21
923.214958008663
31
0.00021465628955824
  0
LINE
 8
Layer0
10
2555.85729546936
20
953.732565758898
30
0.000213284891218996
11
2555.92544381495
21
953.214927668451
31
0.000213526116115054
  0
LINE
 8
Layer0
10
2585.9254442311
20
933.214927648731
30
0.000225672280983247
11
2585.92544421739
21
900.214992775059
31
0.0002258802564441
  0
LINE
 8
Layer0
10
2552.92544382109
20
954.946978486663
30
0.000211664871820721
11
2553.4078057316
21
955.14677932996
31
0.000211765191519225
  0
LINE
 8
Layer0
10
2552.19339300383
20
952.214927681691
30
0.000212522886644001
11
2551.99359216053
21
952.697289592194
31
0.000212246271664901
  0
LINE
 8
Layer0
10
2552.9254438088
20
951.482876871525
30
0.000213105756660786
11
2552.51123024756
21
951.80071411819
31
0.000212816041155156
  0
LINE
 8
Layer0
10
2551.99359216421
20
953.732565772604
30
0.000211815650961716
11
2552.19339301093
21
954.21492768169
31
0.000211690991478269
  0
LINE
 8
Layer0
10
2554.44308191201
20
955.146779326288
30
0.000212158873278417
11
2554.92544382109
21
954.946978479568
31
0.000212425406584771
  0
LINE
 8
Layer0
10
2553.92544382204
20
955.214927675546
30
0.000211933686367161
11
2554.44308191201
21
955.146779326288
31
0.000212158873278417
  0
LINE
 8
Layer0
10
2555.33965738234
20
954.629141232902
30
0.000212715121909218
11
2555.65749462606
21
954.214927669402
31
0.000213008276239895
  0
LINE
 8
Layer0
10
2553.40780571789
20
951.283076024805
30
0.000213372289605479
11
2552.9254438088
21
951.482876871525
31
0.000213105756660786
  0
LINE
 8
Layer0
10
2554.92544382109
20
954.946978479568
30
0.000212425406584771
11
2555.33965738234
21
954.629141232902
31
0.000212715121909218
  0
LINE
 8
Layer0
10
2555.65749462606
20
954.214927669402
30
0.000213008276239895
11
2555.85729546936
21
953.732565758898
31
0.000213284891218996
  0
LINE
 8
Layer0
10
2551.99359216053
20
952.697289592194
30
0.000212246271664901
11
2551.92544381495
21
953.214927682641
31
0.000212005046768843
  0
LINE
 8
Layer0
10
2552.51123024756
20
951.80071411819
30
0.000212816041155156
11
2552.19339300383
21
952.214927681691
31
0.000212522886644001
  0
LINE
 8
Layer0
10
2552.51123025759
20
954.629141242936
30
0.000211639563591609
11
2552.92544382109
21
954.946978486663
31
0.000211664871820721
  0
LINE
 8
Layer0
10
2551.92544381495
20
953.214927682641
30
0.000212005046768843
11
2551.99359216421
21
953.732565772604
31
0.000211815650961716
  0
LINE
 8
Layer0
10
2553.4078057316
20
955.14677932996
30
0.000211765191519225
11
2553.92544382204
21
955.214927675546
31
0.000211933686367161
  0
LINE
 8
Layer0
10
2552.19339301093
20
954.21492768169
30
0.000211690991478269
11
2552.51123025759
21
954.629141242936
31
0.000211639563591609
  0
LINE
 8
Layer0
10
2552.19339350426
20
1192.21491458845
30
2.99412571742208e-005
11
2551.99359266097
21
1192.69727649895
31
2.96646421951208e-005
  0
LINE
 8
Layer0
10
2551.99359266097
20
1192.69727649895
30
2.96646421951208e-005
11
2551.92544431538
21
1193.2149145894
31
2.94234172990626e-005
  0
LINE
 8
Layer0
10
2552.92544430923
20
1191.48286377829
30
3.05241271910062e-005
11
2552.51123074799
21
1191.80070102495
31
3.02344116853759e-005
  0
LINE
 8
Layer0
10
2552.51123074799
20
1191.80070102495
30
3.02344116853759e-005
11
2552.19339350426
21
1192.21491458845
31
2.99412571742208e-005
  0
LINE
 8
Layer0
10
2551.92544431538
20
1193.2149145894
30
2.94234172990626e-005
11
2551.99359266464
21
1193.73255267936
31
2.92340214919362e-005
  0
LINE
 8
Layer0
10
2554.44308241244
20
1195.14676623305
30
2.95772438086372e-005
11
2554.92544432152
21
1194.94696538633
31
2.98437771149906e-005
  0
LINE
 8
Layer0
10
2553.92544430828
20
1191.21491458231
30
3.10158472288435e-005
11
2553.40780621832
21
1191.28306293156
31
3.07906601356989e-005
  0
LINE
 8
Layer0
10
2554.44308239873
20
1191.28306292789
30
3.11843418948909e-005
11
2553.92544430828
21
1191.21491458231
31
3.10158472288435e-005
  0
LINE
 8
Layer0
10
2553.40780621832
20
1191.28306293156
30
3.07906601356989e-005
11
2552.92544430923
21
1191.48286377829
31
3.05241271910062e-005
  0
LINE
 8
Layer0
10
2552.92544432152
20
1194.94696539342
30
2.90832423509413e-005
11
2553.40780623203
21
1195.14676623672
31
2.91835620494452e-005
  0
LINE
 8
Layer0
10
2552.19339351136
20
1194.21491458845
30
2.91093620084892e-005
11
2552.51123075802
21
1194.6291281497
31
2.90579341218289e-005
  0
LINE
 8
Layer0
10
2553.40780623203
20
1195.14676623672
30
2.91835620494452e-005
11
2553.92544432247
21
1195.21491458231
31
2.93520568973804e-005
  0
LINE
 8
Layer0
10
2553.92544432247
20
1195.21491458231
30
2.93520568973804e-005
11
2554.44308241244
21
1195.14676623305
31
2.95772438086372e-005
  0
LINE
 8
Layer0
10
2551.99359266464
20
1193.73255267936
30
2.92340214919362e-005
11
2552.19339351136
21
1194.21491458845
31
2.91093620084892e-005
  0
LINE
 8
Layer0
10
2552.51123075802
20
1194.6291281497
30
2.90579341218289e-005
11
2552.92544432152
21
1194.94696539342
31
2.90832423509413e-005
  0
LINE
 8
Layer0
10
2554.92544430923
20
1191.48286377119
30
3.12846619550555e-005
11
2554.44308239873
21
1191.28306292789
31
3.11843418948909e-005
  0
LINE
 8
Layer0
10
2814.92543140342
20
1237.94700696534
30
0.000195147948588215
11
2815.33964496282
21
1237.62916971627
31
0.000195437664093845
  0
LINE
 8
Layer0
10
2812.92543140342
20
1237.94700698406
30
0.000194387413824165
11
2813.40779331509
21
1238.14680782456
31
0.000194487733883625
  0
LINE
 8
Layer0
10
2555.33965788277
20
1194.62912813966
30
3.01334924394381e-005
11
2555.6574951265
21
1194.21491457616
31
3.04266467701153e-005
  0
LINE
 8
Layer0
10
2812.193380589
20
1237.21495618335
30
0.000194413533842669
11
2812.51121783808
21
1237.62916974275
31
0.000194362105775531
  0
LINE
 8
Layer0
10
2554.92544432152
20
1194.94696538633
30
2.98437771149906e-005
11
2555.33965788277
21
1194.62912813966
31
3.01334924394381e-005
  0
LINE
 8
Layer0
10
2813.40779331509
20
1238.14680782456
30
0.000194487733883625
11
2813.92543140593
21
1238.21495616714
31
0.000194656228550377
  0
LINE
 8
Layer0
10
2555.85729596979
20
1193.73255266566
30
3.07032617492153e-005
11
2555.92544431538
21
1193.21491457521
31
3.09444866452735e-005
  0
LINE
 8
Layer0
10
2555.85729596612
20
1192.69727648525
30
3.11338824523999e-005
11
2555.6574951194
21
1192.21491457616
31
3.12585419358469e-005
  0
LINE
 8
Layer0
10
2555.6574951265
20
1194.21491457616
30
3.04266467701153e-005
11
2555.85729596979
21
1193.73255266566
31
3.07032617492153e-005
  0
LINE
 8
Layer0
10
2555.92544431538
20
1193.21491457521
30
3.09444866452735e-005
11
2555.85729596612
21
1192.69727648525
31
3.11338824523999e-005
  0
LINE
 8
Layer0
10
2555.6574951194
20
1192.21491457616
30
3.12585419358469e-005
11
2555.33965787273
21
1191.80070101492
31
3.13099700029851e-005
  0
LINE
 8
Layer0
10
2555.33965787273
20
1191.80070101492
30
3.13099700029851e-005
11
2554.92544430923
21
1191.48286377119
31
3.12846619550555e-005
  0
LINE
 8
Layer0
10
2813.92543140593
20
1238.21495616714
30
0.000194656228550377
11
2814.4430694955
21
1238.14680781487
31
0.000194881415463044
  0
LINE
 8
Layer0
10
2812.51121783808
20
1237.62916974275
30
0.000194362105775531
11
2812.92543140342
21
1237.94700698406
31
0.000194387413824165
  0
LINE
 8
Layer0
10
2814.4430694955
20
1238.14680781487
30
0.000194881415463044
11
2814.92543140342
21
1237.94700696534
31
0.000195147948588215
  0
LINE
 8
Layer0
10
2811.99357973948
20
1236.73259427542
30
0.000194538193326821
11
2812.193380589
21
1237.21495618335
31
0.000194413533842669
  0
LINE
 8
Layer0
10
2815.33964496282
20
1237.62916971627
30
0.000195437664093845
11
2815.65748220414
21
1237.21495615092
31
0.000195730818605
  0
LINE
 8
Layer0
10
2815.92543138721
20
1236.21495614842
30
0.000196248658480158
11
2815.85728303494
21
1235.69731805885
31
0.00019643805428658
  0
LINE
 8
Layer0
10
2812.19338057028
20
1235.21495618335
30
0.0001952454290084
11
2811.99357972979
21
1235.69731809501
31
0.000194968814030005
  0
LINE
 8
Layer0
10
2813.92543136849
20
1234.21495616714
30
0.00019632001888184
11
2813.40779327892
21
1234.2831045194
31
0.000196094831969879
  0
LINE
 8
Layer0
10
2815.33964493634
20
1234.80074259153
30
0.000196614141657392
11
2814.925431371
21
1234.48290535021
31
0.000196588833428279
  0
LINE
 8
Layer0
10
2812.925431371
20
1234.48290536893
30
0.00019582829866423
11
2812.5112178116
21
1234.800742618
31
0.000195538583339078
  0
LINE
 8
Layer0
10
2811.99357972979
20
1235.69731809501
30
0.000194968814030005
11
2811.92543138721
21
1236.21495618586
31
0.000194727589133242
  0
LINE
 8
Layer0
10
2811.92543138721
20
1236.21495618586
30
0.000194727589133242
11
2811.99357973948
21
1236.73259427542
31
0.000194538193326821
  0
LINE
 8
Layer0
10
2814.44306945933
20
1234.28310450971
30
0.000196488513549298
11
2813.92543136849
21
1234.21495616714
31
0.00019632001888184
  0
LINE
 8
Layer0
10
2815.85728304463
20
1236.73259423926
30
0.000196007433583395
11
2815.92543138721
21
1236.21495614842
31
0.000196248658480158
  0
LINE
 8
Layer0
10
2814.925431371
20
1234.48290535021
30
0.000196588833428279
11
2814.44306945933
21
1234.28310450971
31
0.000196488513549298
  0
LINE
 8
Layer0
10
2815.65748220414
20
1237.21495615092
30
0.000195730818605
11
2815.85728304463
21
1236.73259423926
31
0.000196007433583395
  0
LINE
 8
Layer0
10
2815.65748218542
20
1235.21495615092
30
0.000196562713770732
11
2815.33964493634
21
1234.80074259153
31
0.000196614141657392
  0
LINE
 8
Layer0
10
2812.5112178116
20
1234.800742618
30
0.000195538583339078
11
2812.19338057028
21
1235.21495618335
31
0.0001952454290084
  0
LINE
 8
Layer0
10
2815.85728303494
20
1235.69731805885
30
0.00019643805428658
11
2815.65748218542
21
1235.21495615092
31
0.000196562713770732
  0
LINE
 8
Layer0
10
2813.40779327892
20
1234.2831045194
30
0.000196094831969879
11
2812.925431371
21
1234.48290536893
31
0.00019582829866423
  0
LINE
 8
Layer0
10
2813.9254307158
20
912.214977143322
30
0.000232739613301908
11
2814.44306880586
21
912.146828794821
31
0.000232964800214575
  0
LINE
 8
Layer0
10
2815.85728236528
20
910.732615229499
30
0.000234090818334925
11
2815.92543071163
21
910.214977139152
31
0.000234332043231689
  0
LINE
 8
Layer0
10
2815.92543071163
20
910.214977139152
30
0.000234332043231689
11
2815.85728236312
21
909.697339049089
31
0.00023452143903811
  0
LINE
 8
Layer0
10
2815.65748152128
20
911.21497713971
30
0.00023381420335653
11
2815.85728236528
21
910.732615229499
31
0.000234090818334925
  0
LINE
 8
Layer0
10
2815.85728236312
20
909.697339049089
30
0.00023452143903811
11
2815.65748151711
21
909.214977139711
31
0.000234646098522262
  0
LINE
 8
Layer0
10
2814.4430687978
20
908.283125489665
30
0.000234571898300828
11
2813.92543070746
21
908.214977143322
31
0.000234403403633371
  0
LINE
 8
Layer0
10
2815.33964427105
20
908.800763578
30
0.000234697526408922
11
2814.92543070801
21
908.482926333668
31
0.00023467221817981
  0
LINE
 8
Layer0
10
2813.92543070746
20
908.214977143322
30
0.000234403403633371
11
2813.40779261739
21
908.283125491823
31
0.000234178216721409
  0
LINE
 8
Layer0
10
2814.92543070801
20
908.482926333668
30
0.00023467221817981
11
2814.4430687978
21
908.283125489665
31
0.000234571898300828
  0
LINE
 8
Layer0
10
2813.40779261739
20
908.283125491823
30
0.000234178216721409
11
2812.92543070801
21
908.482926337838
31
0.000233911683235283
  0
LINE
 8
Layer0
10
2812.92543070801
20
908.482926337838
30
0.000233911683235283
11
2812.5112171463
21
908.800763583898
31
0.00023362196791013
  0
LINE
 8
Layer0
10
2813.40779262545
20
912.146828796979
30
0.000232571118635155
11
2813.9254307158
21
912.214977143322
31
0.000232739613301908
  0
LINE
 8
Layer0
10
2815.33964427695
20
911.629190702746
30
0.000233521049025853
11
2815.65748152128
21
911.21497713971
31
0.00023381420335653
  0
LINE
 8
Layer0
10
2815.65748151711
20
909.214977139711
30
0.000234646098522262
11
2815.33964427105
21
908.800763578
31
0.000234697526408922
  0
LINE
 8
Layer0
10
2814.44306880586
20
912.146828794821
30
0.000232964800214575
11
2814.92543071524
21
911.947027948805
31
0.000233231333520223
  0
LINE
 8
Layer0
10
2814.92543071524
20
911.947027948805
30
0.000233231333520223
11
2815.33964427695
21
911.629190702746
31
0.000233521049025853
  0
LINE
 8
Layer0
10
2811.99357905797
20
909.697339057145
30
0.000233052198781536
11
2811.92543071163
21
910.214977147492
31
0.000232810973884773
  0
LINE
 8
Layer0
10
2591.92544439329
20
1236.21495617339
30
0.000195725848244876
11
2587.92544439329
21
1236.21495621429
31
0.000194032865439203
  0
LINE
 8
Layer0
10
2587.92544439329
20
1186.21495621435
30
0.000194032865439203
11
2589.92544438123
21
1182.2149561939
31
0.000200178232412895
  0
LINE
 8
Layer0
10
2589.92544438123
20
1182.2149561939
30
0.000200178232412895
11
2591.92544439329
21
1186.21495617345
31
0.000195725848425354
  0
LINE
 8
Layer0
10
2821.92543137011
20
1236.21495617339
30
0.000195725847162009
11
2817.92543137011
21
1236.21495621429
31
0.000194032864536814
  0
LINE
 8
Layer0
10
2812.92543071524
20
911.947027952976
30
0.000232470798575696
11
2813.40779262545
21
912.146828796979
31
0.000232571118635155
  0
LINE
 8
Layer0
10
2812.5112171463
20
908.800763583898
30
0.00023362196791013
11
2812.19337990197
21
909.214977146933
31
0.000233328813759931
  0
LINE
 8
Layer0
10
2811.99357906013
20
910.732615237555
30
0.000232621578078351
11
2812.19337990614
21
911.214977146933
31
0.000232496918594199
  0
LINE
 8
Layer0
10
2812.19337990614
20
911.214977146933
30
0.000232496918594199
11
2812.5112171522
21
911.629190708644
31
0.000232445490527061
  0
LINE
 8
Layer0
10
2589.92544438123
20
1232.21495619384
30
0.000200178232232417
11
2591.92544439329
21
1236.21495617339
31
0.000195725848244876
  0
LINE
 8
Layer0
10
2587.92544439329
20
1236.21495621429
30
0.000194032865439203
11
2589.92544438123
21
1232.21495619384
31
0.000200178232232417
  0
LINE
 8
Layer0
10
2817.92543137011
20
1236.21495621429
30
0.000194032864536814
11
2819.92543135805
21
1232.21495619384
31
0.000200178231329323
  0
LINE
 8
Layer0
10
2812.19337990197
20
909.214977146933
30
0.000233328813759931
11
2811.99357905797
21
909.697339057145
31
0.000233052198781536
  0
LINE
 8
Layer0
10
2811.92543071163
20
910.214977147492
30
0.000232810973884773
11
2811.99357906013
21
910.732615237555
31
0.000232621578078351
  0
LINE
 8
Layer0
10
2812.5112171522
20
911.629190708644
30
0.000232445490527061
11
2812.92543071524
21
911.947027952976
31
0.000232470798575696
  0
LINE
 8
Layer0
10
2819.92543135805
20
1232.21495619384
30
0.000200178231329323
11
2821.92543137011
21
1236.21495617339
31
0.000195725847162009
  0
LINE
 8
Layer0
10
2591.92544439329
20
1186.21495617345
30
0.000195725848425354
11
2587.92544439329
21
1186.21495621435
31
0.000194032865439203
  0
LINE
 8
Layer0
10
2848.01133003259
20
900.214990359852
30
0.000233522174033857
11
3087.01131649226
21
900.214992775059
31
0.0002258802564441
  0
LINE
 8
Layer0
10
2862.01131074205
20
1214.21458514892
30
0.000111886697422153
11
2862.01133038153
21
933.214973460052
31
0.000211676339865835
  0
LINE
 8
Layer0
10
3087.01131647855
20
933.214927648731
30
0.000225672280983247
11
3087.01131649226
21
900.214992775059
31
0.0002258802564441
  0
LINE
 8
Layer0
10
2848.01133002495
20
923.214958008663
30
0.000214656387647955
11
2848.01133003259
21
900.214990359852
31
0.000233522174033857
  0
LINE
 8
Layer0
10
3087.01131647855
20
933.214927648731
30
0.000225672280983247
11
3097.01131691555
21
943.2149275975
31
0.000216230495601266
  0
LINE
 8
Layer0
10
2850.01139494938
20
923.214959011181
30
0.000213532261739918
11
2848.01133002495
21
923.214958008663
31
0.000214656387647955
  0
LINE
 8
Layer0
10
3097.01131691555
20
943.2149275975
30
0.000216230495601266
11
3129.01131691555
21
943.214927711025
31
0.000215941862462926
  0
LINE
 8
Layer0
10
2850.01139494938
20
923.214959011181
30
0.000213532261739918
11
2862.01133038153
21
933.214973460052
31
0.000211676339865835
  0
LINE
 8
Layer0
10
2848.01125712766
20
1243.71491123668
30
0.000198998545681667
11
2848.01125718947
21
1223.21464951044
31
0.000202132658415627
  0
LINE
 8
Layer0
10
3087.01131637342
20
1213.21467757393
30
3.00497934887289e-005
11
3097.01109811261
21
1203.21491450426
31
2.90991414129138e-005
  0
LINE
 8
Layer0
10
3097.01109811261
20
1203.21491450426
30
2.90991414129138e-005
11
3129.01131637342
21
1203.21491461778
31
2.60569675689049e-005
  0
LINE
 8
Layer0
10
3129.01131691555
20
943.214927711025
30
0.000215941862462926
11
3129.01131637342
21
1203.21491461778
31
2.60569675689049e-005
  0
LINE
 8
Layer0
10
3087.01131637342
20
1213.21467757393
30
3.00497934887289e-005
11
3087.01131630118
21
1243.71491368741
31
0.0
  0
LINE
 8
Layer0
10
3087.01131630118
20
1243.71491368741
30
0.0
11
2848.01125712766
21
1243.71491123668
31
0.000198998545681667
  0
LINE
 8
Layer0
10
3119.52895497805
20
955.14677932996
30
0.000211765178172324
11
3119.01131688761
21
955.214927675546
31
0.000211933673233872
  0
LINE
 8
Layer0
10
3120.42553045206
20
954.629141242936
30
0.000211639549876702
11
3120.01131688856
21
954.946978486663
31
0.000211664858275717
  0
LINE
 8
Layer0
10
3120.74336769872
20
954.21492768169
30
0.000211690977632939
11
3120.42553045206
21
954.629141242936
31
0.000211639549876702
  0
LINE
 8
Layer0
10
2850.01134205559
20
1223.21467338893
30
0.000143967433711428
11
2848.01125718947
21
1223.21464951044
31
0.000202132658415627
  0
LINE
 8
Layer0
10
2850.01134205559
20
1223.21467338893
30
0.000143967433711428
11
2862.01131074205
21
1214.21458514892
31
0.000111886697422153
  0
LINE
 8
Layer0
10
3120.01131688856
20
954.946978486663
30
0.000211664858275717
11
3119.52895497805
21
955.14677932996
31
0.000211765178172324
  0
LINE
 8
Layer0
10
3120.94316854544
20
953.732565772604
30
0.000211815637034607
11
3120.74336769872
21
954.21492768169
31
0.000211690977632939
  0
LINE
 8
Layer0
10
3121.0113168947
20
953.214927682641
30
0.000212005032813534
11
3120.94316854544
21
953.732565772604
31
0.000211815637034607
  0
LINE
 8
Layer0
10
3117.07946524029
20
953.732565758898
30
0.000213284878877412
11
3117.0113168947
21
953.214927668451
31
0.00021352610380167
  0
LINE
 8
Layer0
10
3117.27926608359
20
954.214927669402
30
0.000213008263816533
11
3117.07946524029
21
953.732565758898
31
0.000213284878877412
  0
LINE
 8
Layer0
10
3118.49367879764
20
955.146779326288
30
0.000212158860356626
11
3118.01131688856
21
954.946978479568
31
0.000212425393861787
  0
LINE
 8
Layer0
10
3117.59710332731
20
954.629141232902
30
0.000212715109355432
11
3117.27926608359
21
954.214927669402
31
0.000213008263816533
  0
LINE
 8
Layer0
10
3118.01131688856
20
954.946978479568
30
0.000212425393861787
11
3117.59710332731
21
954.629141232902
31
0.000212715109355432
  0
LINE
 8
Layer0
10
3119.01131688761
20
955.214927675546
30
0.000211933673233872
11
3118.49367879764
21
955.146779326288
31
0.000212158860356626
  0
LINE
 8
Layer0
10
3118.49367881135
20
951.283076021132
30
0.00021376595844288
11
3119.0113169018
21
951.214927675546
31
0.000213597463565335
  0
LINE
 8
Layer0
10
3117.07946474353
20
1192.69727648525
30
3.11338701108166e-005
11
3117.27926559025
21
1192.21491457616
31
3.12585295124845e-005
  0
LINE
 8
Layer0
10
3117.27926559025
20
1192.21491457616
30
3.12585295124845e-005
11
3117.59710283692
21
1191.80070101492
31
3.13099574491993e-005
  0
LINE
 8
Layer0
10
3117.27926609068
20
952.214927669402
30
0.000213840158982265
11
3117.59710333735
21
951.800714108156
31
0.000213891586918979
  0
LINE
 8
Layer0
10
3117.07946524396
20
952.697289578488
30
0.000213715499580597
11
3117.27926609068
21
952.214927669402
31
0.000213840158982265
  0
LINE
 8
Layer0
10
3118.01131690085
20
951.48287686443
30
0.000213866278701852
11
3118.49367881135
21
951.283076021132
31
0.00021376595844288
  0
LINE
 8
Layer0
10
3119.52895499176
20
951.283076024805
30
0.000213372276258578
11
3120.01131690085
21
951.482876871525
31
0.000213105743115782
  0
LINE
 8
Layer0
10
3120.94316854912
20
952.697289592194
30
0.000212246257737791
11
3121.0113168947
21
953.214927682641
31
0.000212005032813534
  0
LINE
 8
Layer0
10
3117.0113168947
20
953.214927668451
30
0.00021352610380167
11
3117.07946524396
21
952.697289578488
31
0.000213715499580597
  0
LINE
 8
Layer0
10
3118.01131640042
20
1191.48286377119
30
3.12846492320718e-005
11
3118.49367831092
21
1191.28306292789
31
3.11843289730995e-005
  0
LINE
 8
Layer0
10
3120.42553046209
20
951.80071411819
30
0.000212816027440249
11
3120.74336770582
21
952.214927681691
31
0.000212522872798671
  0
LINE
 8
Layer0
10
3120.01131690085
20
951.482876871525
30
0.000213105743115782
11
3120.42553046209
21
951.80071411819
31
0.000212816027440249
  0
LINE
 8
Layer0
10
3117.59710283692
20
1191.80070101492
30
3.13099574491993e-005
11
3118.01131640042
21
1191.48286377119
31
3.12846492320718e-005
  0
LINE
 8
Layer0
10
3120.74336770582
20
952.214927681691
30
0.000212522872798671
11
3120.94316854912
21
952.697289592194
31
0.000212246257737791
  0
LINE
 8
Layer0
10
3119.0113169018
20
951.214927675546
30
0.000213597463565335
11
3119.52895499176
21
951.283076024805
31
0.000213372276258578
  0
LINE
 8
Layer0
10
3117.59710333735
20
951.800714108156
30
0.000213891586918979
11
3118.01131690085
21
951.48287686443
31
0.000213866278701852
  0
LINE
 8
Layer0
10
3117.27926558315
20
1194.21491457616
30
3.0426634346753e-005
11
3117.07946473986
21
1193.73255266566
31
3.0703249407632e-005
  0
LINE
 8
Layer0
10
3120.94316804501
20
1193.73255267936
30
2.92340075648267e-005
11
3120.74336719829
21
1194.21491458845
31
2.91093481631588e-005
  0
LINE
 8
Layer0
10
3117.01131639427
20
1193.21491457521
30
3.09444743318898e-005
11
3117.07946474353
21
1192.69727648525
31
3.11338701108166e-005
  0
LINE
 8
Layer0
10
3118.49367829721
20
1195.14676623305
30
2.95772308868458e-005
11
3118.01131638813
21
1194.94696538633
31
2.98437643920069e-005
  0
LINE
 8
Layer0
10
3121.01131639427
20
1193.2149145894
30
2.94234033437535e-005
11
3120.94316804501
21
1193.73255267936
31
2.92340075648267e-005
  0
LINE
 8
Layer0
10
3120.94316804869
20
1192.69727649895
30
2.96646282680113e-005
11
3121.01131639427
21
1193.2149145894
31
2.94234033437535e-005
  0
LINE
 8
Layer0
10
3117.59710282688
20
1194.62912813966
30
3.01334798856523e-005
11
3117.27926558315
21
1194.21491457616
31
3.0426634346753e-005
  0
LINE
 8
Layer0
10
3117.07946473986
20
1193.73255266566
30
3.0703249407632e-005
11
3117.01131639427
21
1193.21491457521
31
3.09444743318898e-005
  0
LINE
 8
Layer0
10
3120.74336719829
20
1194.21491458845
30
2.91093481631588e-005
11
3120.42552995163
21
1194.6291281497
31
2.90579204069219e-005
  0
LINE
 8
Layer0
10
3119.52895447762
20
1195.14676623672
30
2.91835487025438e-005
11
3119.01131638718
21
1195.21491458231
31
2.93520437640915e-005
  0
LINE
 8
Layer0
10
3119.01131638718
20
1195.21491458231
30
2.93520437640915e-005
11
3118.49367829721
21
1195.14676623305
31
2.95772308868458e-005
  0
LINE
 8
Layer0
10
3120.42552995163
20
1194.6291281497
30
2.90579204069219e-005
11
3120.01131638813
21
1194.94696539342
31
2.90832288059373e-005
  0
LINE
 8
Layer0
10
3118.01131638813
20
1194.94696538633
30
2.98437643920069e-005
11
3117.59710282688
21
1194.62912813966
31
3.01334798856523e-005
  0
LINE
 8
Layer0
10
3120.01131638813
20
1194.94696539342
30
2.90832288059373e-005
11
3119.52895447762
21
1195.14676623672
31
2.91835487025438e-005
  0
LINE
 8
Layer0
10
3120.42552996166
20
1191.80070102495
30
3.02343979704689e-005
11
3120.74336720539
21
1192.21491458845
31
2.99412433288904e-005
  0
LINE
 8
Layer0
10
3120.74336720539
20
1192.21491458845
30
2.99412433288904e-005
11
3120.94316804869
21
1192.69727649895
31
2.96646282680113e-005
  0
LINE
 8
Layer0
10
2860.74338013937
20
1235.21495618335
30
0.000195245521872717
11
2860.94318097986
21
1235.69731809501
31
0.000194968906813248
  0
LINE
 8
Layer0
10
2859.52896743073
20
1234.2831045194
30
0.000196094925332624
11
2860.01132933865
21
1234.48290536893
31
0.000195828391828873
  0
LINE
 8
Layer0
10
2860.01132933865
20
1234.48290536893
30
0.000195828391828873
11
2860.42554289805
21
1234.800742618
31
0.000195538676333817
  0
LINE
 8
Layer0
10
2859.01132934116
20
1234.21495616714
30
0.000196320112456788
11
2859.52896743073
21
1234.2831045194
31
0.000196094925332624
  0
LINE
 8
Layer0
10
3120.01131640042
20
1191.48286377829
30
3.05241136460022e-005
11
3120.42552996166
21
1191.80070102495
31
3.02343979704689e-005
  0
LINE
 8
Layer0
10
2858.01132933865
20
1234.48290535021
30
0.000196588927414942
11
2858.49369125032
21
1234.28310450971
31
0.000196488607337858
  0
LINE
 8
Layer0
10
2858.49369125032
20
1234.28310450971
30
0.000196488607337858
11
2859.01132934116
21
1234.21495616714
31
0.000196320112456788
  0
LINE
 8
Layer0
10
2860.42554289805
20
1234.800742618
30
0.000195538676333817
11
2860.74338013937
21
1235.21495618335
31
0.000195245521872717
  0
LINE
 8
Layer0
10
2857.5971157733
20
1234.80074259153
30
0.000196614235813958
11
2858.01132933865
21
1234.48290535021
31
0.000196588927414942
  0
LINE
 8
Layer0
10
2857.27927852423
20
1235.21495615092
30
0.000196562808057721
11
2857.5971157733
21
1234.80074259153
31
0.000196614235813958
  0
LINE
 8
Layer0
10
3119.52895449133
20
1191.28306293156
30
3.07906467887975e-005
11
3120.01131640042
21
1191.48286377829
31
3.05241136460022e-005
  0
LINE
 8
Layer0
10
3119.01131640137
20
1191.21491458231
30
3.10158340955546e-005
11
3119.52895449133
21
1191.28306293156
31
3.07906467887975e-005
  0
LINE
 8
Layer0
10
3118.49367831092
20
1191.28306292789
30
3.11843289730995e-005
11
3119.01131640137
21
1191.21491458231
31
3.10158340955546e-005
  0
LINE
 8
Layer0
10
2860.94318097017
20
1236.73259427542
30
0.000194538286110063
11
2860.74338012065
21
1237.21495618335
31
0.000194413626706985
  0
LINE
 8
Layer0
10
2861.01132932244
20
1236.21495618586
30
0.00019472768188758
11
2860.94318097017
21
1236.73259427542
31
0.000194538286110063
  0
LINE
 8
Layer0
10
2860.94318097986
20
1235.69731809501
30
0.000194968906813248
11
2861.01132932244
21
1236.21495618586
31
0.00019472768188758
  0
LINE
 8
Layer0
10
2860.01132930623
20
1237.94700698406
30
0.000194387506988808
11
2859.52896739456
21
1238.14680782456
31
0.00019448782724637
  0
LINE
 8
Layer0
10
2860.42554355745
20
911.629190708644
30
0.000232445583521801
11
2860.01132999441
21
911.947027952976
31
0.000232470891740338
  0
LINE
 8
Layer0
10
2857.07947767471
20
1235.69731805885
30
0.000196438148654643
11
2857.27927852423
21
1235.21495615092
31
0.000196562808057721
  0
LINE
 8
Layer0
10
2860.01132999441
20
911.947027952976
30
0.000232470891740338
11
2859.5289680842
21
912.146828796979
31
0.000232571211997901
  0
LINE
 8
Layer0
10
2857.27927850551
20
1237.21495615092
30
0.000195730912891989
11
2857.07947766502
21
1236.73259423926
31
0.000196007527951458
  0
LINE
 8
Layer0
10
2857.07947766502
20
1236.73259423926
30
0.000196007527951458
11
2857.01132932244
21
1236.21495614842
31
0.000196248752877126
  0
LINE
 8
Layer0
10
2859.01132930372
20
1238.21495616714
30
0.000194656322125325
11
2858.49369121415
21
1238.14680781487
31
0.000194881509251604
  0
LINE
 8
Layer0
10
2859.52896739456
20
1238.14680782456
30
0.00019448782724637
11
2859.01132930372
21
1238.21495616714
31
0.000194656322125325
  0
LINE
 8
Layer0
10
2859.5289680842
20
912.146828796979
30
0.000232571211997901
11
2859.01132999385
21
912.214977143322
31
0.000232739706876856
  0
LINE
 8
Layer0
10
2860.74338080351
20
911.214977146933
30
0.000232497011458516
11
2860.42554355745
21
911.629190708644
31
0.000232445583521801
  0
LINE
 8
Layer0
10
2860.42554287157
20
1237.62916974275
30
0.00019436219877027
11
2860.01132930623
21
1237.94700698406
31
0.000194387506988808
  0
LINE
 8
Layer0
10
2857.01132932244
20
1236.21495614842
30
0.000196248752877126
11
2857.07947767471
21
1235.69731805885
31
0.000196438148654643
  0
LINE
 8
Layer0
10
2860.74338012065
20
1237.21495618335
30
0.000194413626706985
11
2860.42554287157
21
1237.62916974275
31
0.00019436219877027
  0
LINE
 8
Layer0
10
2858.01132930623
20
1237.94700696534
30
0.000195148042574877
11
2857.59711574683
21
1237.62916971627
31
0.000195437758250411
  0
LINE
 8
Layer0
10
2857.59711574683
20
1237.62916971627
30
0.000195437758250411
11
2857.27927850551
21
1237.21495615092
31
0.000195730912891989
  0
LINE
 8
Layer0
10
2858.49369121415
20
1238.14680781487
30
0.000194881509251604
11
2858.01132930623
21
1237.94700696534
31
0.000195148042574877
  0
LINE
 8
Layer0
10
2860.74338080768
20
909.214977146933
30
0.000233328906624247
11
2860.94318165168
21
909.697339057145
31
0.000233052291564778
  0
LINE
 8
Layer0
10
2859.52896809226
20
908.283125491823
30
0.000234178310084154
11
2860.01133000164
21
908.482926337838
31
0.000233911776399925
  0
LINE
 8
Layer0
10
2857.5971164386
20
908.800763578
30
0.000234697620565488
11
2858.01133000164
21
908.482926333668
31
0.000234672312166473
  0
LINE
 8
Layer0
10
2860.94318165168
20
909.697339057145
30
0.000233052291564778
11
2861.01132999802
21
910.214977147492
31
0.00023281106663911
  0
LINE
 8
Layer0
10
2861.01132999802
20
910.214977147492
30
0.00023281106663911
11
2860.94318164952
21
910.732615237555
31
0.000232621670861594
  0
LINE
 8
Layer0
10
2857.27927919254
20
909.214977139711
30
0.000234646192809251
11
2857.5971164386
21
908.800763578
31
0.000234697620565488
  0
LINE
 8
Layer0
10
2857.01132999802
20
910.214977139152
30
0.000234332137628657
11
2857.07947834653
21
909.697339049089
31
0.000234521533406173
  0
LINE
 8
Layer0
10
2858.01133000164
20
908.482926333668
30
0.000234672312166473
11
2858.49369191185
21
908.283125489665
31
0.000234571992089388
  0
LINE
 8
Layer0
10
2857.27927918837
20
911.21497713971
30
0.00023381429764352
11
2857.07947834437
21
910.732615229499
31
0.000234090912702989
  0
LINE
 8
Layer0
10
2857.07947834437
20
910.732615229499
30
0.000234090912702989
11
2857.01132999802
21
910.214977139152
31
0.000234332137628657
  0
LINE
 8
Layer0
10
2858.49369191185
20
908.283125489665
30
0.000234571992089388
11
2859.01133000219
21
908.214977143322
31
0.000234403497208319
  0
LINE
 8
Layer0
10
2859.01133000219
20
908.214977143322
30
0.000234403497208319
11
2859.52896809226
21
908.283125491823
31
0.000234178310084154
  0
LINE
 8
Layer0
10
2860.42554356335
20
908.800763583898
30
0.00023362206090487
11
2860.74338080768
21
909.214977146933
31
0.000233328906624247
  0
LINE
 8
Layer0
10
2860.01133000164
20
908.482926337838
30
0.000233911776399925
11
2860.42554356335
21
908.800763583898
31
0.00023362206090487
  0
LINE
 8
Layer0
10
2857.07947834653
20
909.697339049089
30
0.000234521533406173
11
2857.27927919254
21
909.214977139711
31
0.000234646192809251
  0
LINE
 8
Layer0
10
2860.94318164952
20
910.732615237555
30
0.000232621670861594
11
2860.74338080351
21
911.214977146933
31
0.000232497011458516
  0
LINE
 8
Layer0
10
2851.01132933954
20
1236.21495617339
30
0.000195725944021513
11
2855.01132933954
21
1236.21495621429
31
0.000194032959753687
  0
LINE
 8
Layer0
10
2859.01132999385
20
912.214977143322
30
0.000232739706876856
11
2858.49369190379
21
912.146828794821
31
0.000232964894003135
  0
LINE
 8
Layer0
10
2857.5971164327
20
911.629190702746
30
0.000233521143182419
11
2857.27927918837
21
911.21497713971
31
0.00023381429764352
  0
LINE
 8
Layer0
10
2855.01132933954
20
1236.21495621429
30
0.000194032959753687
11
2853.01132935161
21
1232.21495619384
31
0.000200178327366807
  0
LINE
 8
Layer0
10
3085.01131631636
20
1186.21495621435
30
0.000194032866259108
11
3083.01131632842
21
1182.2149561939
31
0.000200178234054821
  0
LINE
 8
Layer0
10
2858.01132999441
20
911.947027948805
30
0.000233231427506886
11
2857.5971164327
21
911.629190702746
31
0.000233521143182419
  0
LINE
 8
Layer0
10
2858.49369190379
20
912.146828794821
30
0.000232964894003135
11
2858.01132999441
21
911.947027948805
31
0.000233231427506886
  0
LINE
 8
Layer0
10
3083.01131632842
20
1232.21495619384
30
0.000200178233874343
11
3081.01131631636
21
1236.21495617339
31
0.000195725850707412
  0
LINE
 8
Layer0
10
2853.01132935161
20
1232.21495619384
30
0.000200178327366807
11
2851.01132933954
21
1236.21495617339
31
0.000195725944021513
  0
LINE
 8
Layer0
10
3081.01131631636
20
1236.21495617339
30
0.000195725850707412
11
3085.01131631636
21
1236.21495621429
31
0.000194032866259108
  0
LINE
 8
Layer0
10
3083.01131632842
20
1182.2149561939
30
0.000200178234054821
11
3081.01131631636
21
1186.21495617345
31
0.00019572585088789
  0
LINE
 8
Layer0
10
3085.01131631636
20
1236.21495621429
30
0.000194032866259108
11
3083.01131632842
21
1232.21495619384
31
0.000200178233874343
  0
LINE
 8
Layer0
10
3081.01131631636
20
1186.21495617345
30
0.00019572585088789
11
3085.01131631636
21
1186.21495621435
31
0.000194032866259108
  0
LINE
 8
Layer0
10
2810.9254499676
20
1214.21458514892
30
0.000111886605077416
11
2810.92543032812
21
933.214973460052
31
0.000211676247521098
  0
LINE
 8
Layer0
10
2822.92541865406
20
1223.21467338893
30
0.000143967336441619
11
2810.9254499676
21
1214.21458514892
31
0.000111886605077416
  0
LINE
 8
Layer0
10
2575.92566259704
20
1203.21491450426
30
2.909914551808e-005
11
2543.92544433623
21
1203.21491461778
31
2.605698480736e-005
  0
LINE
 8
Layer0
10
2585.92544433623
20
1213.21467757393
30
3.00497934887289e-005
11
2575.92566259704
21
1203.21491450426
31
2.909914551808e-005
  0
LINE
 8
Layer0
10
2585.92544433623
20
1213.21467757393
30
3.00497934887289e-005
11
2585.92544440847
21
1243.71491368741
31
0.0
 0
ENDSEC
 0
EOF
