 0
SECTION
 2
ENTITIES
  0
POLYLINE
 8
Layer0
 66
     1
70
    8
 10
0.0
 20
 0.0
 30
0.0
  0
VERTEX
  8
MY3DLAYER
10
2.97596457088739
20
735.879661270534
30
-2.01583583599785e-005
 70
     32
  0
VERTEX
  8
MY3DLAYER
10
2.97599365324666
20
772.879676637119
30
-6.1090348970616e-006
 70
     32
  0
VERTEX
  8
MY3DLAYER
10
22.9760054407446
20
787.879438487879
30
-3.71967024648256e-007
 70
     32
  0
VERTEX
  8
MY3DLAYER
10
22.976193397568
20
1027.87961355134
30
-2.3731923892667e-005
 70
     32
  0
VERTEX
  8
MY3DLAYER
10
2.97620518525389
20
1042.87962922038
30
-2.72147667157441e-005
 70
     32
  0
VERTEX
  8
MY3DLAYER
10
2.9762341843456
20
1079.87958217828
30
-2.80652123429093e-005
 70
     32
  0
VERTEX
  8
MY3DLAYER
10
262.976221168516
20
1079.87938029212
30
0.000178950602771621
 70
     32
  0
VERTEX
  8
MY3DLAYER
10
262.976196108854
20
1047.87914417864
30
0.000152262634575395
 70
     32
  0
VERTEX
  8
MY3DLAYER
10
272.975969989772
20
1037.87937325069
30
0.000154458788257994
 70
     32
  0
VERTEX
  8
MY3DLAYER
10
304.976188250574
20
1037.87934821699
30
0.000157500944152211
 70
     32
  0
VERTEX
  8
MY3DLAYER
10
304.975984472923
20
777.879361310297
30
0.0
 70
     32
  0
VERTEX
  8
MY3DLAYER
10
272.975984472932
20
777.879386343823
30
-2.88615228027922e-007
 70
     32
  0
VERTEX
  8
MY3DLAYER
10
262.494877701106
20
767.890974057791
30
-8.4863006562852e-006
 70
     32
  0
VERTEX
  8
MY3DLAYER
10
262.494852545006
20
735.879459757916
30
-4.49914925702011e-006
 70
     32
  0
VERTEX
  8
MY3DLAYER
10
2.97596457088739
20
735.879661270534
30
-2.01583583599785e-005
 70
     32
  0
SEQEND
  0
POLYLINE
 8
Layer0
 66
     1
70
    8
 10
0.0
 20
 0.0
 30
0.0
  0
VERTEX
  8
MY3DLAYER
10
285.97591825254
20
1025.87936274525
30
-0.000914972598196728
 70
     32
  0
VERTEX
  8
MY3DLAYER
10
257.975911741131
20
1025.87938474892
30
-0.000925899332307001
 70
     32
  0
VERTEX
  8
MY3DLAYER
10
257.975883450701
20
989.879389523979
30
-0.000920809153358659
 70
     32
  0
VERTEX
  8
MY3DLAYER
10
285.975889962108
20
989.879367520305
30
-0.000903819943932449
 70
     32
  0
VERTEX
  8
MY3DLAYER
10
285.97591825254
20
1025.87936274525
30
-0.000914972598196728
 70
     32
  0
SEQEND
  0
POLYLINE
 8
Layer0
 66
     1
70
    8
 10
0.0
 20
 0.0
 30
0.0
  0
VERTEX
  8
MY3DLAYER
10
13.4936120127996
20
747.81150475255
30
-2.12069166603435e-005
 70
     32
  0
VERTEX
  8
MY3DLAYER
10
12.9759739760066
20
747.879653505676
30
-2.13838993810889e-005
 70
     32
  0
VERTEX
  8
MY3DLAYER
10
12.4583358323899
20
747.811505563959
30
-2.16005981488188e-005
 70
     32
  0
VERTEX
  8
MY3DLAYER
10
11.9759737659992
20
747.611705097005
30
-2.18422454363765e-005
 70
     32
  0
VERTEX
  8
MY3DLAYER
10
11.5617599545181
20
747.293868176454
30
-2.2092373135818e-005
 70
     32
  0
VERTEX
  8
MY3DLAYER
10
11.2439223846784
20
746.879654863189
30
-2.23339354352259e-005
 70
     32
  0
VERTEX
  8
MY3DLAYER
10
11.0441211616133
20
746.39729310999
30
-2.25504704080226e-005
 70
     32
  0
VERTEX
  8
MY3DLAYER
10
10.9759724084873
20
745.879655073198
30
-2.27272215926e-005
 70
     32
  0
VERTEX
  8
MY3DLAYER
10
11.0441203502051
20
745.362016929581
30
-2.28521436713258e-005
 70
     32
  0
VERTEX
  8
MY3DLAYER
10
11.2439208171583
20
744.87965486319
30
-2.29167232499883e-005
 70
     32
  0
VERTEX
  8
MY3DLAYER
10
11.5617577377098
20
744.465441051709
30
-2.2916559550934e-005
 70
     32
  0
VERTEX
  8
MY3DLAYER
10
11.9759710509746
20
744.147603481869
30
-2.28516635945919e-005
 70
     32
  0
VERTEX
  8
MY3DLAYER
10
12.4583328041734
20
743.947802258804
30
-2.27264578046782e-005
 70
     32
  0
VERTEX
  8
MY3DLAYER
10
12.9759708409663
20
743.879653505678
30
-2.25494750895727e-005
 70
     32
  0
VERTEX
  8
MY3DLAYER
10
13.4936089845831
20
743.947801447395
30
-2.23327763218428e-005
 70
     32
  0
VERTEX
  8
MY3DLAYER
10
13.9759710509738
20
744.147601914349
30
-2.20911290173653e-005
 70
     32
  0
VERTEX
  8
MY3DLAYER
10
14.3901848624548
20
744.4654388349
30
-2.18410013743231e-005
 70
     32
  0
VERTEX
  8
MY3DLAYER
10
14.7080224322945
20
744.879652148165
30
-2.15994390241558e-005
 70
     32
  0
VERTEX
  8
MY3DLAYER
10
14.9078236553597
20
745.362013901364
30
-2.13829040400793e-005
 70
     32
  0
VERTEX
  8
MY3DLAYER
10
14.9759724084856
20
745.879651938156
30
-2.12061528724217e-005
 70
     32
  0
VERTEX
  8
MY3DLAYER
10
14.9078244667679
20
746.397290081773
30
-2.10812307993358e-005
 70
     32
  0
VERTEX
  8
MY3DLAYER
10
14.7080239998147
20
746.879652148164
30
-2.10166512150334e-005
 70
     32
  0
VERTEX
  8
MY3DLAYER
10
14.3901870792631
20
747.293865959645
30
-2.10168149479273e-005
 70
     32
  0
VERTEX
  8
MY3DLAYER
10
13.9759737659984
20
747.611703529485
30
-2.10817108647898e-005
 70
     32
  0
VERTEX
  8
MY3DLAYER
10
13.4936120127996
20
747.81150475255
30
-2.12069166603435e-005
 70
     32
  0
SEQEND
  0
POLYLINE
 8
Layer0
 66
     1
70
    8
 10
0.0
 20
 0.0
 30
0.0
  0
VERTEX
  8
MY3DLAYER
10
14.9080784012508
20
1070.39721100358
30
-2.33532230080158e-005
 70
     32
  0
VERTEX
  8
MY3DLAYER
10
14.7082779307886
20
1070.87957306851
30
-2.32886433898738e-005
 70
     32
  0
VERTEX
  8
MY3DLAYER
10
14.3904410072235
20
1071.29378687768
30
-2.32888071735271e-005
 70
     32
  0
VERTEX
  8
MY3DLAYER
10
13.9762276916465
20
1071.61162444451
30
-2.33537030847497e-005
 70
     32
  0
VERTEX
  8
MY3DLAYER
10
13.4938659369942
20
1071.81142566406
30
-2.3478908829544e-005
 70
     32
  0
VERTEX
  8
MY3DLAYER
10
12.9762278997057
20
1071.87957441343
30
-2.36558915897689e-005
 70
     32
  0
VERTEX
  8
MY3DLAYER
10
12.4585897565847
20
1071.81142646794
30
-2.38725903180192e-005
 70
     32
  0
VERTEX
  8
MY3DLAYER
10
11.9762276916478
20
1071.61162599748
30
-2.41142374927783e-005
 70
     32
  0
VERTEX
  8
MY3DLAYER
10
11.5620138824791
20
1071.29378907391
30
-2.43643651696601e-005
 70
     32
  0
VERTEX
  8
MY3DLAYER
10
11.2441763156529
20
1070.87957575834
30
-2.46059276100663e-005
 70
     32
  0
VERTEX
  8
MY3DLAYER
10
11.044375096097
20
1070.39721400368
30
-2.4822462588503e-005
 70
     32
  0
VERTEX
  8
MY3DLAYER
10
10.976226346737
20
1069.8795759664
30
-2.499921380128e-005
 70
     32
  0
VERTEX
  8
MY3DLAYER
10
11.0443742922207
20
1069.36193782327
30
-2.51241358800058e-005
 70
     32
  0
VERTEX
  8
MY3DLAYER
10
11.244174762683
20
1068.87957575834
30
-2.51887154755881e-005
 70
     32
  0
VERTEX
  8
MY3DLAYER
10
11.5620116862481
20
1068.46536194917
30
-2.51885517652539e-005
 70
     32
  0
VERTEX
  8
MY3DLAYER
10
11.9762250018251
20
1068.14752438234
30
-2.51236557694323e-005
 70
     32
  0
VERTEX
  8
MY3DLAYER
10
12.4585867564774
20
1067.94772316279
30
-2.49984500246381e-005
 70
     32
  0
VERTEX
  8
MY3DLAYER
10
12.9762247937658
20
1067.87957441343
30
-2.48214672587732e-005
 70
     32
  0
VERTEX
  8
MY3DLAYER
10
13.4938629368868
20
1067.94772235891
30
-2.46047685361628e-005
 70
     32
  0
VERTEX
  8
MY3DLAYER
10
13.9762250018238
20
1068.14752282937
30
-2.43631213614037e-005
 70
     32
  0
VERTEX
  8
MY3DLAYER
10
14.3904388109924
20
1068.46535975294
30
-2.4112993763481e-005
 70
     32
  0
VERTEX
  8
MY3DLAYER
10
14.7082763778186
20
1068.87957306851
30
-2.38714312328359e-005
 70
     32
  0
VERTEX
  8
MY3DLAYER
10
14.9080775973745
20
1069.36193482317
30
-2.36548962487593e-005
 70
     32
  0
VERTEX
  8
MY3DLAYER
10
14.9762263467345
20
1069.87957286046
30
-2.34781450980215e-005
 70
     32
  0
VERTEX
  8
MY3DLAYER
10
14.9080784012508
20
1070.39721100358
30
-2.33532230080158e-005
 70
     32
  0
SEQEND
  0
POLYLINE
 8
Layer0
 66
     1
70
    8
 10
0.0
 20
 0.0
 30
0.0
  0
VERTEX
  8
MY3DLAYER
10
254.976213330916
20
1069.87938648945
30
0.000173323967849148
 70
     32
  0
VERTEX
  8
MY3DLAYER
10
254.908065389199
20
1070.39702463307
30
0.000173448889944794
 70
     32
  0
VERTEX
  8
MY3DLAYER
10
254.708264922245
20
1070.87938669946
30
0.000173513469529096
 70
     32
  0
VERTEX
  8
MY3DLAYER
10
254.390428001694
20
1071.29360051094
30
0.000173513305830042
 70
     32
  0
VERTEX
  8
MY3DLAYER
10
253.976214688429
20
1071.61143808078
30
0.00017344840988498
 70
     32
  0
VERTEX
  8
MY3DLAYER
10
253.493852935231
20
1071.81123930384
30
0.000173323204089426
 70
     32
  0
VERTEX
  8
MY3DLAYER
10
252.976214898438
20
1071.87938805697
30
0.000173146221368681
 70
     32
  0
VERTEX
  8
MY3DLAYER
10
252.458576754821
20
1071.81124011525
30
0.000172929522589671
 70
     32
  0
VERTEX
  8
MY3DLAYER
10
251.97621468843
20
1071.6114396483
30
0.000172687875290833
 70
     32
  0
VERTEX
  8
MY3DLAYER
10
251.562000876949
20
1071.29360272775
30
0.000172437747608312
 70
     32
  0
VERTEX
  8
MY3DLAYER
10
251.244163307109
20
1070.87938941448
30
0.000172196185297624
 70
     32
  0
VERTEX
  8
MY3DLAYER
10
251.044362084044
20
1070.39702766128
30
0.000171979650330467
 70
     32
  0
VERTEX
  8
MY3DLAYER
10
250.976213330918
20
1069.87938962449
30
0.00017180289915717
 70
     32
  0
VERTEX
  8
MY3DLAYER
10
251.044361272635
20
1069.36175148087
30
0.000171677977067164
 70
     32
  0
VERTEX
  8
MY3DLAYER
10
251.244161739588
20
1068.87938941448
30
0.000171613397488501
 70
     32
  0
VERTEX
  8
MY3DLAYER
10
251.56199866014
20
1068.465175603
30
0.000171613561193196
 70
     32
  0
VERTEX
  8
MY3DLAYER
10
251.976211973405
20
1068.14733803316
30
0.000171678457205937
 70
     32
  0
VERTEX
  8
MY3DLAYER
10
252.458573726603
20
1067.9475368101
30
0.000171803662945091
 70
     32
  0
VERTEX
  8
MY3DLAYER
10
252.976211763396
20
1067.87938805697
30
0.000171980645648917
 70
     32
  0
VERTEX
  8
MY3DLAYER
10
253.493849907013
20
1067.94753599869
30
0.000172197344416647
 70
     32
  0
VERTEX
  8
MY3DLAYER
10
253.976211973404
20
1068.14733646564
30
0.000172438991726764
 70
     32
  0
VERTEX
  8
MY3DLAYER
10
254.390425784885
20
1068.46517338619
30
0.000172689119420566
 70
     32
  0
VERTEX
  8
MY3DLAYER
10
254.708263354725
20
1068.87938669946
30
0.000172930681714334
 70
     32
  0
VERTEX
  8
MY3DLAYER
10
254.90806457779
20
1069.36174845266
30
0.000173147216692771
 70
     32
  0
VERTEX
  8
MY3DLAYER
10
254.976213330916
20
1069.87938648945
30
0.000173323967849148
 70
     32
  0
SEQEND
  0
POLYLINE
 8
Layer0
 66
     1
70
    8
 10
0.0
 20
 0.0
 30
0.0
  0
VERTEX
  8
MY3DLAYER
10
293.976179057996
20
1026.14730601471
30
0.000153734538702732
 70
     32
  0
VERTEX
  8
MY3DLAYER
10
294.458540811487
20
1025.94750479235
30
0.000153859744396767
 70
     32
  0
VERTEX
  8
MY3DLAYER
10
294.976178848379
20
1025.87935603998
30
0.000154036727106233
 70
     32
  0
VERTEX
  8
MY3DLAYER
10
295.493816991896
20
1025.94750398245
30
0.000154253425879602
 70
     32
  0
VERTEX
  8
MY3DLAYER
10
295.976179057994
20
1026.14730445011
30
0.000154495072986682
 70
     32
  0
VERTEX
  8
MY3DLAYER
10
296.390392869011
20
1026.46514137127
30
0.000154745200680484
 70
     32
  0
VERTEX
  8
MY3DLAYER
10
296.708230438245
20
1026.879354685
30
0.000154986763171649
 70
     32
  0
VERTEX
  8
MY3DLAYER
10
296.908031660604
20
1027.36171643849
30
0.000155203298195206
 70
     32
  0
VERTEX
  8
MY3DLAYER
10
296.976180412973
20
1027.87935447538
30
0.000155380049317744
 70
     32
  0
VERTEX
  8
MY3DLAYER
10
296.908032470498
20
1028.3969926189
30
0.000155504971452869
 70
     32
  0
VERTEX
  8
MY3DLAYER
10
296.70823200284
20
1028.879354685
30
0.000155569550992052
 70
     32
  0
VERTEX
  8
MY3DLAYER
10
296.390395081683
20
1029.29356849601
30
0.000155569387298637
 70
     32
  0
VERTEX
  8
MY3DLAYER
10
295.976181767953
20
1029.61140606525
30
0.000155504491336655
 70
     32
  0
VERTEX
  8
MY3DLAYER
10
295.493820014462
20
1029.81120728761
30
0.000155379285552382
 70
     32
  0
VERTEX
  8
MY3DLAYER
10
294.97618197757
20
1029.87935603997
30
0.000155202302820356
 70
     32
  0
VERTEX
  8
MY3DLAYER
10
294.458543834052
20
1029.8112080975
30
0.000154985604058266
 70
     32
  0
VERTEX
  8
MY3DLAYER
10
293.976181767954
20
1029.61140762984
30
0.000154743956956827
 70
     32
  0
VERTEX
  8
MY3DLAYER
10
293.561967956938
20
1029.29357070868
30
0.000154493829279945
 70
     32
  0
VERTEX
  8
MY3DLAYER
10
293.244130387704
20
1028.87935739495
30
0.000154252266760579
 70
     32
  0
VERTEX
  8
MY3DLAYER
10
293.044329165344
20
1028.39699564146
30
0.000154035731759583
 70
     32
  0
VERTEX
  8
MY3DLAYER
10
292.976180412975
20
1027.87935760457
30
0.000153858980625765
 70
     32
  0
VERTEX
  8
MY3DLAYER
10
293.04432835545
20
1027.36171946105
30
0.000153734058547039
 70
     32
  0
VERTEX
  8
MY3DLAYER
10
293.244128823109
20
1026.87935739495
30
0.000153669478957097
 70
     32
  0
VERTEX
  8
MY3DLAYER
10
293.561965744266
20
1026.46514358394
30
0.000153669642706911
 70
     32
  0
VERTEX
  8
MY3DLAYER
10
293.976179057996
20
1026.14730601471
30
0.000153734538702732
 70
     32
  0
SEQEND
  0
POLYLINE
 8
Layer0
 66
     1
70
    8
 10
0.0
 20
 0.0
 30
0.0
  0
VERTEX
  8
MY3DLAYER
10
293.044141062899
20
788.397008734757
30
1.34697982647758e-006
 70
     32
  0
VERTEX
  8
MY3DLAYER
10
292.97599231053
20
787.879370697864
30
1.17022864754013e-006
 70
     32
  0
VERTEX
  8
MY3DLAYER
10
293.044140253005
20
787.361732554347
30
1.0453065349747e-006
 70
     32
  0
VERTEX
  8
MY3DLAYER
10
293.243940720663
20
786.879370488248
30
9.80726956312239e-007
 70
     32
  0
VERTEX
  8
MY3DLAYER
10
293.56177764182
20
786.465156677232
30
9.80890677926283e-007
 70
     32
  0
VERTEX
  8
MY3DLAYER
10
293.97599095555
20
786.147319107998
30
1.04578669630762e-006
 70
     32
  0
VERTEX
  8
MY3DLAYER
10
294.458352709041
20
785.947517885638
30
1.17099240726226e-006
 70
     32
  0
VERTEX
  8
MY3DLAYER
10
294.975990745934
20
785.879369133269
30
1.34797517312712e-006
 70
     32
  0
VERTEX
  8
MY3DLAYER
10
295.493628889451
20
785.947517075744
30
1.56467389573756e-006
 70
     32
  0
VERTEX
  8
MY3DLAYER
10
295.975990955549
20
786.147317543402
30
1.80632105921674e-006
 70
     32
  0
VERTEX
  8
MY3DLAYER
10
296.390204766565
20
786.465154464559
30
2.05644868533916e-006
 70
     32
  0
VERTEX
  8
MY3DLAYER
10
296.7080423358
20
786.879367778289
30
2.29801117086481e-006
 70
     32
  0
VERTEX
  8
MY3DLAYER
10
296.907843558159
20
787.36172953178
30
2.51454620006086e-006
 70
     32
  0
VERTEX
  8
MY3DLAYER
10
296.975992310528
20
787.879367568673
30
2.69129732823892e-006
 70
     32
  0
VERTEX
  8
MY3DLAYER
10
296.907844368054
20
788.39700571219
30
2.81621949720368e-006
 70
     32
  0
VERTEX
  8
MY3DLAYER
10
296.708043900395
20
788.879367778289
30
2.88079904202654e-006
 70
     32
  0
VERTEX
  8
MY3DLAYER
10
296.390206979238
20
789.293581589305
30
2.88063534297223e-006
 70
     32
  0
VERTEX
  8
MY3DLAYER
10
295.975993665508
20
789.611419158539
30
2.81573934151069e-006
 70
     32
  0
VERTEX
  8
MY3DLAYER
10
295.493631912017
20
789.811220380899
30
2.69053358543658e-006
 70
     32
  0
VERTEX
  8
MY3DLAYER
10
294.975993875125
20
789.879369133268
30
2.51355083085159e-006
 70
     32
  0
VERTEX
  8
MY3DLAYER
10
294.458355731608
20
789.811221190793
30
2.29685211388109e-006
 70
     32
  0
VERTEX
  8
MY3DLAYER
10
293.975993665509
20
789.611420723134
30
2.0552049673217e-006
 70
     32
  0
VERTEX
  8
MY3DLAYER
10
293.561779854493
20
789.293583801977
30
1.80507733555935e-006
 70
     32
  0
VERTEX
  8
MY3DLAYER
10
293.243942285259
20
788.879370488248
30
1.5635148161941e-006
 70
     32
  0
VERTEX
  8
MY3DLAYER
10
293.044141062899
20
788.397008734757
30
1.34697982647758e-006
 70
     32
  0
SEQEND
  0
POLYLINE
 8
Layer0
 66
     1
70
    8
 10
0.0
 20
 0.0
 30
0.0
  0
VERTEX
  8
MY3DLAYER
10
251.044107338147
20
745.361830559045
30
-2.77361832220713e-005
 70
     32
  0
VERTEX
  8
MY3DLAYER
10
251.243907808609
20
744.879468494108
30
-2.78007628402133e-005
 70
     32
  0
VERTEX
  8
MY3DLAYER
10
251.561744732174
20
744.465254684939
30
-2.78005989155616e-005
 70
     32
  0
VERTEX
  8
MY3DLAYER
10
251.975958047751
20
744.147417118112
30
-2.77357029704994e-005
 70
     32
  0
VERTEX
  8
MY3DLAYER
10
252.458319802403
20
743.947615898556
30
-2.76104971693059e-005
 70
     32
  0
VERTEX
  8
MY3DLAYER
10
252.975957839692
20
743.879467149196
30
-2.74335144542004e-005
 70
     32
  0
VERTEX
  8
MY3DLAYER
10
253.493595982813
20
743.947615094679
30
-2.72168155454722e-005
 70
     32
  0
VERTEX
  8
MY3DLAYER
10
253.97595804775
20
744.147415565142
30
-2.69751683650732e-005
 70
     32
  0
VERTEX
  8
MY3DLAYER
10
254.390171856919
20
744.465252488706
30
-2.67250406881914e-005
 70
     32
  0
VERTEX
  8
MY3DLAYER
10
254.708009423746
20
744.879465804283
30
-2.64834782421453e-005
 70
     32
  0
VERTEX
  8
MY3DLAYER
10
254.907810643302
20
745.361827558936
30
-2.62669432185891e-005
 70
     32
  0
VERTEX
  8
MY3DLAYER
10
254.975959392662
20
745.879465596224
30
-2.60901920509315e-005
 70
     32
  0
VERTEX
  8
MY3DLAYER
10
254.907811447179
20
746.397103739345
30
-2.59652699778456e-005
 70
     32
  0
VERTEX
  8
MY3DLAYER
10
254.708010976717
20
746.879465804282
30
-2.59006903879033e-005
 70
     32
  0
VERTEX
  8
MY3DLAYER
10
254.390174053152
20
747.293679613451
30
-2.59008542674355e-005
 70
     32
  0
VERTEX
  8
MY3DLAYER
10
253.975960737575
20
747.611517180278
30
-2.59657502801769e-005
 70
     32
  0
VERTEX
  8
MY3DLAYER
10
253.493598982923
20
747.811318399834
30
-2.60909560193312e-005
 70
     32
  0
VERTEX
  8
MY3DLAYER
10
252.975960945634
20
747.879467149195
30
-2.62679387964759e-005
 70
     32
  0
VERTEX
  8
MY3DLAYER
10
252.458322802513
20
747.811319203711
30
-2.64846376939243e-005
 70
     32
  0
VERTEX
  8
MY3DLAYER
10
251.975960737576
20
747.611518733249
30
-2.67262848630434e-005
 70
     32
  0
VERTEX
  8
MY3DLAYER
10
251.561746928407
20
747.293681809684
30
-2.69764125004457e-005
 70
     32
  0
VERTEX
  8
MY3DLAYER
10
251.24390936158
20
746.879468494107
30
-2.72179749746915e-005
 70
     32
  0
VERTEX
  8
MY3DLAYER
10
251.044108142024
20
746.397106739455
30
-2.74345099474882e-005
 70
     32
  0
VERTEX
  8
MY3DLAYER
10
250.975959392664
20
745.879468702167
30
-2.76112611320656e-005
 70
     32
  0
VERTEX
  8
MY3DLAYER
10
251.044107338147
20
745.361830559045
30
-2.77361832220713e-005
 70
     32
  0
SEQEND
 0
ENDSEC
 0
EOF
