 0
SECTION
 2
ENTITIES
  0
POLYLINE
 8
Layer0
 66
     1
70
    8
 10
0.0
 20
 0.0
 30
0.0
  0
VERTEX
  8
MY3DLAYER
10
2393.67750892125
20
-243.230354393161
30
1.07364024730353e-006
 70
     32
  0
VERTEX
  8
MY3DLAYER
10
2408.42782877542
20
-243.230514889381
30
9.99263181124806e-007
 70
     32
  0
VERTEX
  8
MY3DLAYER
10
2408.42782877376
20
-231.230651204117
30
1.01676228266967e-006
 70
     32
  0
VERTEX
  8
MY3DLAYER
10
2427.42776839905
20
-231.230651222658
30
9.20957922971746e-007
 70
     32
  0
VERTEX
  8
MY3DLAYER
10
2437.42776839905
20
-254.230651222658
30
7.86965311566493e-007
 70
     32
  0
VERTEX
  8
MY3DLAYER
10
2664.42782875036
20
-254.230651222658
30
-3.56666062585057e-007
 70
     32
  0
VERTEX
  8
MY3DLAYER
10
2674.42782875643
20
-243.230651222658
30
-3.00341879954673e-007
 70
     32
  0
VERTEX
  8
MY3DLAYER
10
2686.42782877542
20
-243.230514889382
30
-4.02510402489197e-007
 70
     32
  0
VERTEX
  8
MY3DLAYER
10
2711.17750190642
20
-243.230354393161
30
-5.27306102948945e-007
 70
     32
  0
VERTEX
  8
MY3DLAYER
10
2711.17750190642
20
24.7693294819606
30
8.25243853427984e-007
 70
     32
  0
VERTEX
  8
MY3DLAYER
10
2696.42719164454
20
24.7691689711378
30
7.85468768591839e-007
 70
     32
  0
VERTEX
  8
MY3DLAYER
10
2696.42719164455
20
5.76931286415564
30
6.81924592187283e-007
 70
     32
  0
VERTEX
  8
MY3DLAYER
10
2418.4275078194
20
5.76931286415564
30
9.22358505435115e-007
 70
     32
  0
VERTEX
  8
MY3DLAYER
10
2418.4275078194
20
24.7691689711378
30
1.02590268183967e-006
 70
     32
  0
VERTEX
  8
MY3DLAYER
10
2393.67750892125
20
24.7693294819606
30
1.04286827911643e-006
 70
     32
  0
VERTEX
  8
MY3DLAYER
10
2393.67750892125
20
-243.230354393161
30
1.07364024730353e-006
 70
     32
  0
SEQEND
  0
POLYLINE
 8
Layer0
 66
     1
70
    8
 10
0.0
 20
 0.0
 30
0.0
  0
VERTEX
  8
MY3DLAYER
10
2455.97856685372
20
-240.618991300688
30
5.96031334692576e-007
 70
     32
  0
VERTEX
  8
MY3DLAYER
10
2455.92745559316
20
-240.230762733035
30
5.98191282071463e-007
 70
     32
  0
VERTEX
  8
MY3DLAYER
10
2455.97856685372
20
-239.842534165381
30
6.00262820138367e-007
 70
     32
  0
VERTEX
  8
MY3DLAYER
10
2456.12841748748
20
-239.480762733035
30
6.02104731877951e-007
 70
     32
  0
VERTEX
  8
MY3DLAYER
10
2456.36679542138
20
-239.170102561255
30
6.03591581213163e-007
 70
     32
  0
VERTEX
  8
MY3DLAYER
10
2456.67745559316
20
-238.931724627358
30
6.04621996699489e-007
 70
     32
  0
VERTEX
  8
MY3DLAYER
10
2457.0392270255
20
-238.781873993601
30
6.05125757224376e-007
 70
     32
  0
VERTEX
  8
MY3DLAYER
10
2457.42745559316
20
-238.730762733035
30
6.05068532340553e-007
 70
     32
  0
VERTEX
  8
MY3DLAYER
10
2457.81568416081
20
-238.781873993601
30
6.04454221829291e-007
 70
     32
  0
VERTEX
  8
MY3DLAYER
10
2458.17745559316
20
-238.931724627358
30
6.03324689936729e-007
 70
     32
  0
VERTEX
  8
MY3DLAYER
10
2458.48811576494
20
-239.170102561255
30
6.01756912394707e-007
 70
     32
  0
VERTEX
  8
MY3DLAYER
10
2458.72649369883
20
-239.480762733035
30
5.99857730651845e-007
 70
     32
  0
VERTEX
  8
MY3DLAYER
10
2458.87634433259
20
-239.842534165381
30
5.97756615924829e-007
 70
     32
  0
VERTEX
  8
MY3DLAYER
10
2458.92745559316
20
-240.230762733035
30
5.95596668545939e-007
 70
     32
  0
VERTEX
  8
MY3DLAYER
10
2458.87634433259
20
-240.618991300689
30
5.93525130479038e-007
 70
     32
  0
VERTEX
  8
MY3DLAYER
10
2458.72649369883
20
-240.980762733035
30
5.9168317361999e-007
 70
     32
  0
VERTEX
  8
MY3DLAYER
10
2458.48811576494
20
-241.291422904815
30
5.90196324284775e-007
 70
     32
  0
VERTEX
  8
MY3DLAYER
10
2458.17745559316
20
-241.529800838712
30
5.89165908798452e-007
 70
     32
  0
VERTEX
  8
MY3DLAYER
10
2457.81568416081
20
-241.679651472469
30
5.88662148273565e-007
 70
     32
  0
VERTEX
  8
MY3DLAYER
10
2457.42745559316
20
-241.730762733035
30
5.88719373157385e-007
 70
     32
  0
VERTEX
  8
MY3DLAYER
10
2457.0392270255
20
-241.679651472469
30
5.89333683668651e-007
 70
     32
  0
VERTEX
  8
MY3DLAYER
10
2456.67745559316
20
-241.529800838712
30
5.90463215561211e-007
 70
     32
  0
VERTEX
  8
MY3DLAYER
10
2456.36679542138
20
-241.291422904815
30
5.92030993103231e-007
 70
     32
  0
VERTEX
  8
MY3DLAYER
10
2456.12841748748
20
-240.980762733035
30
5.93930174846096e-007
 70
     32
  0
VERTEX
  8
MY3DLAYER
10
2455.97856685372
20
-240.618991300688
30
5.96031334692576e-007
 70
     32
  0
SEQEND
  0
POLYLINE
 8
Layer0
 66
     1
70
    8
 10
0.0
 20
 0.0
 30
0.0
  0
VERTEX
  8
MY3DLAYER
10
2646.12841748748
20
-240.980762733037
30
4.29604651563042e-007
 70
     32
  0
VERTEX
  8
MY3DLAYER
10
2645.97856685372
20
-240.618991300689
30
4.31705811409519e-007
 70
     32
  0
VERTEX
  8
MY3DLAYER
10
2645.92745559316
20
-240.230762733036
30
4.33865758788409e-007
 70
     32
  0
VERTEX
  8
MY3DLAYER
10
2645.97856685372
20
-239.842534165382
30
4.35937296855313e-007
 70
     32
  0
VERTEX
  8
MY3DLAYER
10
2646.12841748748
20
-239.480762733037
30
4.37779208594894e-007
 70
     32
  0
VERTEX
  8
MY3DLAYER
10
2646.36679542138
20
-239.170102561256
30
4.39266057930109e-007
 70
     32
  0
VERTEX
  8
MY3DLAYER
10
2646.67745559316
20
-238.931724627359
30
4.40296473416435e-007
 70
     32
  0
VERTEX
  8
MY3DLAYER
10
2647.0392270255
20
-238.781873993602
30
4.40800233941323e-007
 70
     32
  0
VERTEX
  8
MY3DLAYER
10
2647.42745559316
20
-238.730762733036
30
4.40743009057502e-007
 70
     32
  0
VERTEX
  8
MY3DLAYER
10
2647.81568416081
20
-238.781873993602
30
4.40128698546238e-007
 70
     32
  0
VERTEX
  8
MY3DLAYER
10
2648.17745559316
20
-238.931724627359
30
4.38999166653675e-007
 70
     32
  0
VERTEX
  8
MY3DLAYER
10
2648.48811576494
20
-239.170102561256
30
4.37431389111653e-007
 70
     32
  0
VERTEX
  8
MY3DLAYER
10
2648.72649369883
20
-239.480762733036
30
4.35532207368788e-007
 70
     32
  0
VERTEX
  8
MY3DLAYER
10
2648.87634433259
20
-239.842534165383
30
4.33431092641774e-007
 70
     32
  0
VERTEX
  8
MY3DLAYER
10
2648.92745559316
20
-240.230762733036
30
4.31271145262886e-007
 70
     32
  0
VERTEX
  8
MY3DLAYER
10
2648.87634433259
20
-240.61899130069
30
4.29199607195981e-007
 70
     32
  0
VERTEX
  8
MY3DLAYER
10
2648.72649369883
20
-240.980762733036
30
4.27357650336936e-007
 70
     32
  0
VERTEX
  8
MY3DLAYER
10
2648.48811576494
20
-241.291422904816
30
4.25870801001722e-007
 70
     32
  0
VERTEX
  8
MY3DLAYER
10
2648.17745559316
20
-241.529800838713
30
4.24840385515396e-007
 70
     32
  0
VERTEX
  8
MY3DLAYER
10
2647.81568416081
20
-241.67965147247
30
4.24336624990511e-007
 70
     32
  0
VERTEX
  8
MY3DLAYER
10
2647.42745559316
20
-241.730762733036
30
4.24393849874331e-007
 70
     32
  0
VERTEX
  8
MY3DLAYER
10
2647.0392270255
20
-241.67965147247
30
4.25008160385596e-007
 70
     32
  0
VERTEX
  8
MY3DLAYER
10
2646.67745559316
20
-241.529800838713
30
4.26137692278154e-007
 70
     32
  0
VERTEX
  8
MY3DLAYER
10
2646.36679542138
20
-241.291422904816
30
4.27705469820178e-007
 70
     32
  0
VERTEX
  8
MY3DLAYER
10
2646.12841748748
20
-240.980762733037
30
4.29604651563042e-007
 70
     32
  0
SEQEND
  0
POLYLINE
 8
Layer0
 66
     1
70
    8
 10
0.0
 20
 0.0
 30
0.0
  0
VERTEX
  8
MY3DLAYER
10
2552.81568416081
20
-51.6796514724694
30
1.54194899246543e-006
 70
     32
  0
VERTEX
  8
MY3DLAYER
10
2552.42745559316
20
-51.7307627330361
30
1.54200621734925e-006
 70
     32
  0
VERTEX
  8
MY3DLAYER
10
2552.03922702551
20
-51.6796514724698
30
1.54262052786052e-006
 70
     32
  0
VERTEX
  8
MY3DLAYER
10
2551.67745559316
20
-51.5298008387125
30
1.54375005975308e-006
 70
     32
  0
VERTEX
  8
MY3DLAYER
10
2551.36679542138
20
-51.2914229048159
30
1.5453178372951e-006
 70
     32
  0
VERTEX
  8
MY3DLAYER
10
2551.12841748748
20
-50.9807627330359
30
1.54721701903796e-006
 70
     32
  0
VERTEX
  8
MY3DLAYER
10
2550.97856685373
20
-50.61899130069
30
1.54931817888444e-006
 70
     32
  0
VERTEX
  8
MY3DLAYER
10
2550.92745559316
20
-50.2307627330365
30
1.55147812626333e-006
 70
     32
  0
VERTEX
  8
MY3DLAYER
10
2550.97856685373
20
-49.8425341653826
30
1.55354966433023e-006
 70
     32
  0
VERTEX
  8
MY3DLAYER
10
2551.12841748748
20
-49.4807627330359
30
1.55539157606981e-006
 70
     32
  0
VERTEX
  8
MY3DLAYER
10
2551.36679542138
20
-49.1701025612567
30
1.55687842540503e-006
 70
     32
  0
VERTEX
  8
MY3DLAYER
10
2551.67745559316
20
-48.9317246273597
30
1.55790884089136e-006
 70
     32
  0
VERTEX
  8
MY3DLAYER
10
2552.03922702551
20
-48.7818739936028
30
1.55841260141624e-006
 70
     32
  0
VERTEX
  8
MY3DLAYER
10
2552.42745559316
20
-48.7307627330361
30
1.55835537653242e-006
 70
     32
  0
VERTEX
  8
MY3DLAYER
10
2552.81568416081
20
-48.7818739936031
30
1.55774106602115e-006
 70
     32
  0
VERTEX
  8
MY3DLAYER
10
2553.17745559316
20
-48.9317246273594
30
1.55661153412859e-006
 70
     32
  0
VERTEX
  8
MY3DLAYER
10
2553.48811576494
20
-49.1701025612563
30
1.55504375658657e-006
 70
     32
  0
VERTEX
  8
MY3DLAYER
10
2553.72649369884
20
-49.4807627330356
30
1.55314457484371e-006
 70
     32
  0
VERTEX
  8
MY3DLAYER
10
2553.87634433259
20
-49.8425341653826
30
1.55104346011669e-006
 70
     32
  0
VERTEX
  8
MY3DLAYER
10
2553.92745559316
20
-50.2307627330361
30
1.54888351273781e-006
 70
     32
  0
VERTEX
  8
MY3DLAYER
10
2553.87634433259
20
-50.61899130069
30
1.5468119746709e-006
 70
     32
  0
VERTEX
  8
MY3DLAYER
10
2553.72649369884
20
-50.9807627330363
30
1.54497001781186e-006
 70
     32
  0
VERTEX
  8
MY3DLAYER
10
2553.48811576494
20
-51.2914229048159
30
1.54348316847665e-006
 70
     32
  0
VERTEX
  8
MY3DLAYER
10
2553.17745559316
20
-51.5298008387129
30
1.54245275299032e-006
 70
     32
  0
VERTEX
  8
MY3DLAYER
10
2552.81568416081
20
-51.6796514724694
30
1.54194899246543e-006
 70
     32
  0
SEQEND
 0
ENDSEC
 0
EOF
