 0
SECTION
 2
ENTITIES
  0
LINE
 8
GROUP1
10
2652.58253090778
20
-38.3569959079832
30
0.00115672942888088
11
2652.19430234012
21
-38.3058846474168
31
0.00115672942888088
  0
LINE
 8
GROUP1
10
2652.19430234012
20
-38.3058846474168
30
0.00115672942888088
11
2651.83253090777
21
-38.1560340136598
31
0.00115672942888088
  0
LINE
 8
GROUP1
10
2651.83253090777
20
-38.1560340136598
30
0.00115672942888088
11
2651.521870736
21
-37.917656079763
31
0.00115672942888088
  0
LINE
 8
GROUP1
10
2651.521870736
20
-37.917656079763
30
0.00115672942888088
11
2651.2834928021
21
-37.6069959079832
31
0.00115672942888088
  0
LINE
 8
GROUP1
10
2651.2834928021
20
-37.6069959079832
30
0.00115672942888088
11
2651.13364216834
21
-37.245224475637
31
0.00115672942888088
  0
LINE
 8
GROUP1
10
2651.13364216834
20
-37.245224475637
30
0.00115672942888088
11
2651.08253090778
21
-36.8569959079832
31
0.00115672942888088
  0
LINE
 8
GROUP1
10
2651.08253090778
20
-36.8569959079832
30
0.00115672942888088
11
2651.13364216834
21
-36.4687673403294
31
0.00115672942888088
  0
LINE
 8
GROUP1
10
2651.13364216834
20
-36.4687673403294
30
0.00115672942888088
11
2651.2834928021
21
-36.1069959079832
31
0.00115672942888088
  0
LINE
 8
GROUP1
10
2651.2834928021
20
-36.1069959079832
30
0.00115672942888088
11
2651.521870736
21
-35.7963357362033
31
0.00115672942888088
  0
LINE
 8
GROUP1
10
2651.521870736
20
-35.7963357362033
30
0.00115672942888088
11
2651.83253090777
21
-35.5579578023065
31
0.00115672942888088
  0
LINE
 8
GROUP1
10
2651.83253090777
20
-35.5579578023065
30
0.00115672942888088
11
2652.19430234012
21
-35.4081071685496
31
0.00115672942888088
  0
LINE
 8
GROUP1
10
2652.19430234012
20
-35.4081071685496
30
0.00115672942888088
11
2652.58253090778
21
-35.3569959079831
31
0.00115672942888088
  0
LINE
 8
GROUP1
10
2652.58253090778
20
-35.3569959079831
30
0.00115672942888088
11
2652.97075947543
21
-35.4081071685496
31
0.00115672942888088
  0
LINE
 8
GROUP1
10
2652.97075947543
20
-35.4081071685496
30
0.00115672942888088
11
2653.33253090778
21
-35.5579578023065
31
0.00115672942888088
  0
LINE
 8
GROUP1
10
2653.33253090778
20
-35.5579578023065
30
0.00115672942888088
11
2653.64319107955
21
-35.7963357362033
31
0.00115672942888088
  0
LINE
 8
GROUP1
10
2653.64319107955
20
-35.7963357362033
30
0.00115672942888088
11
2653.88156901345
21
-36.1069959079832
31
0.00115672942888088
  0
LINE
 8
GROUP1
10
2653.88156901345
20
-36.1069959079832
30
0.00115672942888088
11
2654.03141964721
21
-36.4687673403294
31
0.00115672942888088
  0
LINE
 8
GROUP1
10
2654.03141964721
20
-36.4687673403294
30
0.00115672942888088
11
2654.08253090778
21
-36.8569959079832
31
0.00115672942888088
  0
LINE
 8
GROUP1
10
2654.08253090778
20
-36.8569959079832
30
0.00115672942888088
11
2654.03141964721
21
-37.245224475637
31
0.00115672942888088
  0
LINE
 8
GROUP1
10
2654.03141964721
20
-37.245224475637
30
0.00115672942888088
11
2653.88156901345
21
-37.6069959079832
31
0.00115672942888088
  0
LINE
 8
GROUP1
10
2653.88156901345
20
-37.6069959079832
30
0.00115672942888088
11
2653.64319107955
21
-37.917656079763
31
0.00115672942888088
  0
LINE
 8
GROUP1
10
2653.64319107955
20
-37.917656079763
30
0.00115672942888088
11
2653.33253090778
21
-38.1560340136598
31
0.00115672942888088
  0
LINE
 8
GROUP1
10
2653.33253090778
20
-38.1560340136598
30
0.00115672942888088
11
2652.97075947543
21
-38.3058846474168
31
0.00115672942888088
  0
LINE
 8
GROUP1
10
2652.97075947543
20
-38.3058846474168
30
0.00115672942888088
11
2652.58253090778
21
-38.3569959079832
31
0.00115672942888088
  0
LINE
 8
GROUP1
10
2445.08253090777
20
-36.8569959079832
30
0.00115672942888088
11
2445.03141964721
21
-37.245224475637
31
0.00115672942888088
  0
LINE
 8
GROUP1
10
2445.03141964721
20
-37.245224475637
30
0.00115672942888088
11
2444.88156901345
21
-37.6069959079832
31
0.00115672942888088
  0
LINE
 8
GROUP1
10
2444.88156901345
20
-37.6069959079832
30
0.00115672942888088
11
2444.64319107955
21
-37.917656079763
31
0.00115672942888088
  0
LINE
 8
GROUP1
10
2444.64319107955
20
-37.917656079763
30
0.00115672942888088
11
2444.33253090778
21
-38.1560340136598
31
0.00115672942888088
  0
LINE
 8
GROUP1
10
2444.33253090778
20
-38.1560340136598
30
0.00115672942888088
11
2443.97075947543
21
-38.3058846474168
31
0.00115672942888088
  0
LINE
 8
GROUP1
10
2443.97075947543
20
-38.3058846474168
30
0.00115672942888088
11
2443.58253090777
21
-38.3569959079832
31
0.00115672942888088
  0
LINE
 8
GROUP1
10
2443.58253090777
20
-38.3569959079832
30
0.00115672942888088
11
2443.19430234012
21
-38.3058846474168
31
0.00115672942888088
  0
LINE
 8
GROUP1
10
2443.19430234012
20
-38.3058846474168
30
0.00115672942888088
11
2442.83253090777
21
-38.1560340136598
31
0.00115672942888088
  0
LINE
 8
GROUP1
10
2442.83253090777
20
-38.1560340136598
30
0.00115672942888088
11
2442.521870736
21
-37.917656079763
31
0.00115672942888088
  0
LINE
 8
GROUP1
10
2442.521870736
20
-37.917656079763
30
0.00115672942888088
11
2442.2834928021
21
-37.6069959079832
31
0.00115672942888088
  0
LINE
 8
GROUP1
10
2442.2834928021
20
-37.6069959079832
30
0.00115672942888088
11
2442.13364216834
21
-37.245224475637
31
0.00115672942888088
  0
LINE
 8
GROUP1
10
2442.13364216834
20
-37.245224475637
30
0.00115672942888088
11
2442.08253090777
21
-36.8569959079832
31
0.00115672942888088
  0
LINE
 8
GROUP1
10
2442.08253090777
20
-36.8569959079832
30
0.00115672942888088
11
2442.13364216834
21
-36.4687673403294
31
0.00115672942888088
  0
LINE
 8
GROUP1
10
2442.13364216834
20
-36.4687673403294
30
0.00115672942888088
11
2442.2834928021
21
-36.1069959079832
31
0.00115672942888088
  0
LINE
 8
GROUP1
10
2442.2834928021
20
-36.1069959079832
30
0.00115672942888088
11
2442.521870736
21
-35.7963357362033
31
0.00115672942888088
  0
LINE
 8
GROUP1
10
2442.521870736
20
-35.7963357362033
30
0.00115672942888088
11
2442.83253090777
21
-35.5579578023065
31
0.00115672942888088
  0
LINE
 8
GROUP1
10
2442.83253090777
20
-35.5579578023065
30
0.00115672942888088
11
2443.19430234012
21
-35.4081071685496
31
0.00115672942888088
  0
LINE
 8
GROUP1
10
2443.19430234012
20
-35.4081071685496
30
0.00115672942888088
11
2443.58253090777
21
-35.3569959079831
31
0.00115672942888088
  0
LINE
 8
GROUP1
10
2443.58253090777
20
-35.3569959079831
30
0.00115672942888088
11
2443.97075947543
21
-35.4081071685496
31
0.00115672942888088
  0
LINE
 8
GROUP1
10
2443.97075947543
20
-35.4081071685496
30
0.00115672942888088
11
2444.33253090778
21
-35.5579578023065
31
0.00115672942888088
  0
LINE
 8
GROUP1
10
2444.33253090778
20
-35.5579578023065
30
0.00115672942888088
11
2444.64319107955
21
-35.7963357362033
31
0.00115672942888088
  0
LINE
 8
GROUP1
10
2444.64319107955
20
-35.7963357362033
30
0.00115672942888088
11
2444.88156901345
21
-36.1069959079832
31
0.00115672942888088
  0
LINE
 8
GROUP1
10
2444.88156901345
20
-36.1069959079832
30
0.00115672942888088
11
2445.03141964721
21
-36.4687673403294
31
0.00115672942888088
  0
LINE
 8
GROUP1
10
2445.03141964721
20
-36.4687673403294
30
0.00115672942888088
11
2445.08253090777
21
-36.8569959079832
31
0.00115672942888088
  0
LINE
 8
GROUP1
10
2445.08253090777
20
-245.856995907983
30
0.00115622630877956
11
2445.03141964721
21
-246.245224475637
31
0.00115622630877956
  0
LINE
 8
GROUP1
10
2445.03141964721
20
-246.245224475637
30
0.00115622630877956
11
2444.88156901345
21
-246.606995907983
31
0.00115622630877956
  0
LINE
 8
GROUP1
10
2444.88156901345
20
-246.606995907983
30
0.00115622630877956
11
2444.64319107955
21
-246.917656079763
31
0.00115622630877956
  0
LINE
 8
GROUP1
10
2444.64319107955
20
-246.917656079763
30
0.00115622630877956
11
2444.33253090778
21
-247.15603401366
31
0.00115622630877956
  0
LINE
 8
GROUP1
10
2444.33253090778
20
-247.15603401366
30
0.00115622630877956
11
2443.97075947543
21
-247.305884647417
31
0.00115622630877956
  0
LINE
 8
GROUP1
10
2443.97075947543
20
-247.305884647417
30
0.00115622630877956
11
2443.58253090777
21
-247.356995907983
31
0.00115622630877956
  0
LINE
 8
GROUP1
10
2443.58253090777
20
-247.356995907983
30
0.00115622630877956
11
2443.19430234012
21
-247.305884647417
31
0.00115622630877956
  0
LINE
 8
GROUP1
10
2443.19430234012
20
-247.305884647417
30
0.00115622630877956
11
2442.83253090777
21
-247.15603401366
31
0.00115622630877956
  0
LINE
 8
GROUP1
10
2442.83253090777
20
-247.15603401366
30
0.00115622630877956
11
2442.521870736
21
-246.917656079763
31
0.00115622630877956
  0
LINE
 8
GROUP1
10
2442.521870736
20
-246.917656079763
30
0.00115622630877956
11
2442.2834928021
21
-246.606995907983
31
0.00115622630877956
  0
LINE
 8
GROUP1
10
2442.2834928021
20
-246.606995907983
30
0.00115622630877956
11
2442.13364216834
21
-246.245224475637
31
0.00115622630877956
  0
LINE
 8
GROUP1
10
2442.13364216834
20
-246.245224475637
30
0.00115622630877956
11
2442.08253090777
21
-245.856995907983
31
0.00115622630877956
  0
LINE
 8
GROUP1
10
2442.08253090777
20
-245.856995907983
30
0.00115622630877956
11
2442.13364216834
21
-245.468767340329
31
0.00115622630877956
  0
LINE
 8
GROUP1
10
2442.13364216834
20
-245.468767340329
30
0.00115622630877956
11
2442.2834928021
21
-245.106995907983
31
0.00115622630877956
  0
LINE
 8
GROUP1
10
2442.2834928021
20
-245.106995907983
30
0.00115622630877956
11
2442.521870736
21
-244.796335736203
31
0.00115622630877956
  0
LINE
 8
GROUP1
10
2442.521870736
20
-244.796335736203
30
0.00115622630877956
11
2442.83253090777
21
-244.557957802306
31
0.00115622630877956
  0
LINE
 8
GROUP1
10
2442.83253090777
20
-244.557957802306
30
0.00115622630877956
11
2443.19430234012
21
-244.408107168549
31
0.00115622630877956
  0
LINE
 8
GROUP1
10
2443.19430234012
20
-244.408107168549
30
0.00115622630877956
11
2443.58253090777
21
-244.356995907983
31
0.00115622630877956
  0
LINE
 8
GROUP1
10
2443.58253090777
20
-244.356995907983
30
0.00115622630877956
11
2443.97075947543
21
-244.408107168549
31
0.00115622630877956
  0
LINE
 8
GROUP1
10
2443.97075947543
20
-244.408107168549
30
0.00115622630877956
11
2444.33253090778
21
-244.557957802306
31
0.00115622630877956
  0
LINE
 8
GROUP1
10
2444.33253090778
20
-244.557957802306
30
0.00115622630877956
11
2444.64319107955
21
-244.796335736203
31
0.00115622630877956
  0
LINE
 8
GROUP1
10
2444.64319107955
20
-244.796335736203
30
0.00115622630877956
11
2444.88156901345
21
-245.106995907983
31
0.00115622630877956
  0
LINE
 8
GROUP1
10
2444.88156901345
20
-245.106995907983
30
0.00115622630877956
11
2445.03141964721
21
-245.468767340329
31
0.00115622630877956
  0
LINE
 8
GROUP1
10
2445.03141964721
20
-245.468767340329
30
0.00115622630877956
11
2445.08253090777
21
-245.856995907983
31
0.00115622630877956
  0
LINE
 8
GROUP1
10
2549.58253090778
20
-36.8569959079832
30
0.0011567294321746
11
2549.53141964721
21
-36.4687673403294
31
0.00115673037408852
  0
LINE
 8
GROUP1
10
2549.53141964721
20
-36.4687673403294
30
0.00115673037408852
11
2549.38156901345
21
-36.1069959079832
31
0.00115673125157185
  0
LINE
 8
GROUP1
10
2549.38156901345
20
-36.1069959079832
30
0.00115673125157185
11
2549.14319107955
21
-35.7963357362033
31
0.0011567320048413
  0
LINE
 8
GROUP1
10
2549.14319107955
20
-35.7963357362033
30
0.0011567320048413
11
2548.83253090778
21
-35.5579578023065
31
0.00115673258255091
  0
LINE
 8
GROUP1
10
2548.83253090778
20
-35.5579578023065
30
0.00115673258255091
11
2548.47075947543
21
-35.4081071685496
31
0.00115673294535652
  0
LINE
 8
GROUP1
10
2548.47075947543
20
-35.4081071685496
30
0.00115673294535652
11
2548.08253090778
21
-35.3569959079831
31
0.00115673306853266
  0
LINE
 8
GROUP1
10
2548.08253090778
20
-35.3569959079831
30
0.00115673306853266
11
2547.69430234012
21
-35.4081071685496
31
0.00115673294364198
  0
LINE
 8
GROUP1
10
2547.69430234012
20
-35.4081071685496
30
0.00115673294364198
11
2547.33253090777
21
-35.5579578023065
31
0.00115673257925719
  0
LINE
 8
GROUP1
10
2547.33253090777
20
-35.5579578023065
30
0.00115673257925719
11
2547.021870736
21
-35.7963357362033
31
0.00115673200014887
  0
LINE
 8
GROUP1
10
2547.021870736
20
-35.7963357362033
30
0.00115673200014887
11
2546.7834928021
21
-36.1069959079832
31
0.00115673124584168
  0
LINE
 8
GROUP1
10
2546.7834928021
20
-36.1069959079832
30
0.00115673124584168
11
2546.63364216834
21
-36.4687673403294
31
0.00115673036772668
  0
LINE
 8
GROUP1
10
2546.63364216834
20
-36.4687673403294
30
0.00115673036772668
11
2546.58253090778
21
-36.8569959079832
31
0.00115672942558716
  0
LINE
 8
GROUP1
10
2546.58253090778
20
-36.8569959079832
30
0.00115672942558716
11
2546.63364216834
21
-37.245224475637
31
0.00115672848367323
  0
LINE
 8
GROUP1
10
2546.63364216834
20
-37.245224475637
30
0.00115672848367323
11
2546.7834928021
21
-37.6069959079832
31
0.0011567276061899
  0
LINE
 8
GROUP1
10
2546.7834928021
20
-37.6069959079832
30
0.0011567276061899
11
2547.021870736
21
-37.917656079763
31
0.00115672685292045
  0
LINE
 8
GROUP1
10
2547.021870736
20
-37.917656079763
30
0.00115672685292045
11
2547.33253090777
21
-38.1560340136598
31
0.00115672627521084
  0
LINE
 8
GROUP1
10
2547.33253090777
20
-38.1560340136598
30
0.00115672627521084
11
2547.69430234012
21
-38.3058846474168
31
0.00115672591240523
  0
LINE
 8
GROUP1
10
2547.69430234012
20
-38.3058846474168
30
0.00115672591240523
11
2548.08253090778
21
-38.3569959079832
31
0.0011567257892291
  0
LINE
 8
GROUP1
10
2548.08253090778
20
-38.3569959079832
30
0.0011567257892291
11
2548.47075947543
21
-38.3058846474168
31
0.00115672591411977
  0
LINE
 8
GROUP1
10
2548.47075947543
20
-38.3058846474168
30
0.00115672591411977
11
2548.83253090778
21
-38.1560340136598
31
0.00115672627850456
  0
LINE
 8
GROUP1
10
2548.83253090778
20
-38.1560340136598
30
0.00115672627850456
11
2549.14319107955
21
-37.917656079763
31
0.00115672685761288
  0
LINE
 8
GROUP1
10
2549.14319107955
20
-37.917656079763
30
0.00115672685761288
11
2549.38156901345
21
-37.6069959079832
31
0.00115672761192007
  0
LINE
 8
GROUP1
10
2549.38156901345
20
-37.6069959079832
30
0.00115672761192007
11
2549.53141964721
21
-37.245224475637
31
0.00115672849003507
  0
LINE
 8
GROUP1
10
2549.53141964721
20
-37.245224475637
30
0.00115672849003507
11
2549.58253090778
21
-36.8569959079832
31
0.0011567294321746
  0
LINE
 8
GROUP1
10
2654.08253090778
20
-245.856995907983
30
0.0011562263121184
11
2654.03141964721
21
-245.468767340329
31
0.00115622725200195
  0
LINE
 8
GROUP1
10
2654.03141964721
20
-245.468767340329
30
0.00115622725200195
11
2653.88156901345
21
-245.106995907983
31
0.00115622812759026
  0
LINE
 8
GROUP1
10
2653.88156901345
20
-245.106995907983
30
0.00115622812759026
11
2653.64319107955
21
-244.796335736203
31
0.00115622887928053
  0
LINE
 8
GROUP1
10
2653.64319107955
20
-244.796335736203
30
0.00115622887928053
11
2653.33253090778
21
-244.557957802306
31
0.0011562294557268
  0
LINE
 8
GROUP1
10
2653.33253090778
20
-244.557957802306
30
0.0011562294557268
11
2652.97075947543
21
-244.408107168549
31
0.00115622981776538
  0
LINE
 8
GROUP1
10
2652.97075947543
20
-244.408107168549
30
0.00115622981776538
11
2652.58253090778
21
-244.356995907983
31
0.00115622994067079
  0
LINE
 8
GROUP1
10
2652.58253090778
20
-244.356995907983
30
0.00115622994067079
11
2652.19430234012
21
-244.408107168549
31
0.00115622981605084
  0
LINE
 8
GROUP1
10
2652.19430234012
20
-244.408107168549
30
0.00115622981605084
11
2651.83253090777
21
-244.557957802306
31
0.00115622945238796
  0
LINE
 8
GROUP1
10
2651.83253090777
20
-244.557957802306
30
0.00115622945238796
11
2651.521870736
21
-244.796335736203
31
0.00115622887454299
  0
LINE
 8
GROUP1
10
2651.521870736
20
-244.796335736203
30
0.00115622887454299
11
2651.2834928021
21
-245.106995907983
31
0.00115622812181497
  0
LINE
 8
GROUP1
10
2651.2834928021
20
-245.106995907983
30
0.00115622812181497
11
2651.13364216834
21
-245.468767340329
31
0.00115622724554987
  0
LINE
 8
GROUP1
10
2651.13364216834
20
-245.468767340329
30
0.00115622724554987
11
2651.08253090778
21
-245.856995907983
31
0.00115622630544072
  0
LINE
 8
GROUP1
10
2651.08253090778
20
-245.856995907983
30
0.00115622630544072
11
2651.13364216834
21
-246.245224475637
31
0.00115622536555717
  0
LINE
 8
GROUP1
10
2651.13364216834
20
-246.245224475637
30
0.00115622536555717
11
2651.2834928021
21
-246.606995907983
31
0.00115622448996886
  0
LINE
 8
GROUP1
10
2651.2834928021
20
-246.606995907983
30
0.00115622448996886
11
2651.521870736
21
-246.917656079763
31
0.00115622373827859
  0
LINE
 8
GROUP1
10
2651.521870736
20
-246.917656079763
30
0.00115622373827859
11
2651.83253090777
21
-247.15603401366
31
0.00115622316183233
  0
LINE
 8
GROUP1
10
2651.83253090777
20
-247.15603401366
30
0.00115622316183233
11
2652.19430234012
21
-247.305884647417
31
0.00115622279979375
  0
LINE
 8
GROUP1
10
2652.19430234012
20
-247.305884647417
30
0.00115622279979375
11
2652.58253090778
21
-247.356995907983
31
0.00115622267688833
  0
LINE
 8
GROUP1
10
2652.58253090778
20
-247.356995907983
30
0.00115622267688833
11
2652.97075947543
21
-247.305884647417
31
0.00115622280150829
  0
LINE
 8
GROUP1
10
2652.97075947543
20
-247.305884647417
30
0.00115622280150829
11
2653.33253090778
21
-247.15603401366
31
0.00115622316517117
  0
LINE
 8
GROUP1
10
2653.33253090778
20
-247.15603401366
30
0.00115622316517117
11
2653.64319107955
21
-246.917656079763
31
0.00115622374301614
  0
LINE
 8
GROUP1
10
2653.64319107955
20
-246.917656079763
30
0.00115622374301614
11
2653.88156901345
21
-246.606995907983
31
0.00115622449574415
  0
LINE
 8
GROUP1
10
2653.88156901345
20
-246.606995907983
30
0.00115622449574415
11
2654.03141964721
21
-246.245224475637
31
0.00115622537200926
  0
LINE
 8
GROUP1
10
2654.03141964721
20
-246.245224475637
30
0.00115622537200926
11
2654.08253090778
21
-245.856995907983
31
0.0011562263121184
  0
LINE
 8
GROUP1
10
2549.58253090778
20
-245.856995907983
30
0.00115622630711014
11
2549.53141964721
21
-246.245224475637
31
0.00115622630711014
  0
LINE
 8
GROUP1
10
2549.53141964721
20
-246.245224475637
30
0.00115622630711014
11
2549.38156901345
21
-246.606995907983
31
0.00115622630711014
  0
LINE
 8
GROUP1
10
2549.38156901345
20
-246.606995907983
30
0.00115622630711014
11
2549.14319107955
21
-246.917656079763
31
0.00115622630711014
  0
LINE
 8
GROUP1
10
2549.14319107955
20
-246.917656079763
30
0.00115622630711014
11
2548.83253090778
21
-247.15603401366
31
0.00115622630711014
  0
LINE
 8
GROUP1
10
2548.83253090778
20
-247.15603401366
30
0.00115622630711014
11
2548.47075947543
21
-247.305884647417
31
0.00115622630711014
  0
LINE
 8
GROUP1
10
2548.47075947543
20
-247.305884647417
30
0.00115622630711014
11
2548.08253090778
21
-247.356995907983
31
0.00115622630711014
  0
LINE
 8
GROUP1
10
2548.08253090778
20
-247.356995907983
30
0.00115622630711014
11
2547.69430234012
21
-247.305884647417
31
0.00115622630711014
  0
LINE
 8
GROUP1
10
2547.69430234012
20
-247.305884647417
30
0.00115622630711014
11
2547.33253090777
21
-247.15603401366
31
0.00115622630711014
  0
LINE
 8
GROUP1
10
2547.33253090777
20
-247.15603401366
30
0.00115622630711014
11
2547.021870736
21
-246.917656079763
31
0.00115622630711014
  0
LINE
 8
GROUP1
10
2547.021870736
20
-246.917656079763
30
0.00115622630711014
11
2546.7834928021
21
-246.606995907983
31
0.00115622630711014
  0
LINE
 8
GROUP1
10
2546.7834928021
20
-246.606995907983
30
0.00115622630711014
11
2546.63364216834
21
-246.245224475637
31
0.00115622630711014
  0
LINE
 8
GROUP1
10
2546.63364216834
20
-246.245224475637
30
0.00115622630711014
11
2546.58253090778
21
-245.856995907983
31
0.00115622630711014
  0
LINE
 8
GROUP1
10
2546.58253090778
20
-245.856995907983
30
0.00115622630711014
11
2546.63364216834
21
-245.468767340329
31
0.00115622630711014
  0
LINE
 8
GROUP1
10
2546.63364216834
20
-245.468767340329
30
0.00115622630711014
11
2546.7834928021
21
-245.106995907983
31
0.00115622630711014
  0
LINE
 8
GROUP1
10
2546.7834928021
20
-245.106995907983
30
0.00115622630711014
11
2547.021870736
21
-244.796335736203
31
0.00115622630711014
  0
LINE
 8
GROUP1
10
2547.021870736
20
-244.796335736203
30
0.00115622630711014
11
2547.33253090777
21
-244.557957802306
31
0.00115622630711014
  0
LINE
 8
GROUP1
10
2547.33253090777
20
-244.557957802306
30
0.00115622630711014
11
2547.69430234012
21
-244.408107168549
31
0.00115622630711014
  0
LINE
 8
GROUP1
10
2547.69430234012
20
-244.408107168549
30
0.00115622630711014
11
2548.08253090778
21
-244.356995907983
31
0.00115622630711014
  0
LINE
 8
GROUP1
10
2548.08253090778
20
-244.356995907983
30
0.00115622630711014
11
2548.47075947543
21
-244.408107168549
31
0.00115622630711014
  0
LINE
 8
GROUP1
10
2548.47075947543
20
-244.408107168549
30
0.00115622630711014
11
2548.83253090778
21
-244.557957802306
31
0.00115622630711014
  0
LINE
 8
GROUP1
10
2548.83253090778
20
-244.557957802306
30
0.00115622630711014
11
2549.14319107955
21
-244.796335736203
31
0.00115622630711014
  0
LINE
 8
GROUP1
10
2549.14319107955
20
-244.796335736203
30
0.00115622630711014
11
2549.38156901345
21
-245.106995907983
31
0.00115622630711014
  0
LINE
 8
GROUP1
10
2549.38156901345
20
-245.106995907983
30
0.00115622630711014
11
2549.53141964721
21
-245.468767340329
31
0.00115622630711014
  0
LINE
 8
GROUP1
10
2549.53141964721
20
-245.468767340329
30
0.00115622630711014
11
2549.58253090778
21
-245.856995907983
31
0.00115622630711014
  0
LINE
 8
GROUP0
10
2720.0822204829
20
44.1466928043668
30
0.00115818833841654
11
2720.0856560871
21
-254.852991050653
31
0.00115672167600342
  0
LINE
 8
GROUP0
10
2376.07950727664
20
44.1429497428181
30
0.0011567472044832
11
2395.07950727685
21
44.1430294094038
31
0.00115697733080333
  0
LINE
 8
GROUP0
10
2376.08256403252
20
-254.85673411613
30
0.00115664402310527
11
2376.07950727664
21
44.1429497428181
31
0.0011567472044832
  0
LINE
 8
GROUP0
10
2453.47070093862
20
-234.907411662571
30
0.00115656688668961
11
2453.08247181485
21
-234.856304626286
31
0.00115656554930359
  0
LINE
 8
GROUP0
10
2454.14315984888
20
-237.41695325697
30
0.00115655573130828
11
2454.38153440249
21
-237.10629049144
31
0.00115655845580198
  0
LINE
 8
GROUP0
10
2451.78344186993
20
-235.606318760955
30
0.00115655594914506
11
2451.63359517259
21
-235.968091823791
31
0.00115655331010762
  0
LINE
 8
GROUP0
10
2453.83250227088
20
-237.655334571117
30
0.00115655310707004
11
2454.14315984888
21
-237.41695325697
31
0.00115655573130828
  0
LINE
 8
GROUP0
10
2451.78345819129
20
-237.106318760866
30
0.0011565476023601
11
2452.02183950544
21
-237.416976338859
31
0.00115654686948465
  0
LINE
 8
GROUP0
10
2701.08222048546
20
44.1463590127807
30
0.00115808835733962
11
2720.0822204829
21
44.1466928043668
31
0.00115818833841654
  0
LINE
 8
GROUP0
10
2452.33247400155
20
-235.057274681278
30
0.00115656129792212
11
2452.02181642355
21
-235.295655995425
31
0.00115655867363875
  0
LINE
 8
GROUP0
10
2453.08247181485
20
-234.856304626286
30
0.00115656554930359
11
2452.69424380336
21
-234.907420111129
31
0.00115656364305137
  0
LINE
 8
GROUP0
10
2423.0827030145
20
-227.356519540161
30
0.00115673103021576
11
2433.08295327477
21
-250.356410729729
31
0.00115664482045643
  0
LINE
 8
GROUP0
10
2451.63359517259
20
-235.968091823791
30
0.00115655331010762
11
2451.5824881363
21
-236.356320947558
31
0.00115655093623728
  0
LINE
 8
GROUP0
10
2453.83247400146
20
-235.057258359918
30
0.00115656756415836
11
2453.47070093862
21
-234.907411662571
31
0.00115656688668961
  0
LINE
 8
GROUP0
10
2682.07971068287
20
-5.35358498513965
30
0.00115777961178649
11
2696.57971068287
21
27.6464150148603
31
0.0011578098186245
  0
LINE
 8
GROUP0
10
2451.63360362114
20
-236.744548959052
30
0.00115654898946778
11
2451.78345819129
21
-237.106318760866
31
0.0011565476023601
  0
LINE
 8
GROUP0
10
2453.08250445757
20
-237.856304626109
30
0.00115654885568857
11
2453.47073246907
21
-237.805189141266
31
0.00115655076189567
  0
LINE
 8
GROUP0
10
2452.33250227097
20
-237.655350892478
30
0.00115654684078867
11
2452.69427533381
21
-237.805197589824
31
0.00115654751825742
  0
LINE
 8
GROUP0
10
2454.53138109984
20
-236.744517428605
30
0.00115656109492965
11
2454.58248813612
21
-236.356288304837
31
0.00115656346875488
  0
LINE
 8
GROUP0
10
2452.02181642355
20
-235.295655995425
30
0.00115655867363875
11
2451.78344186993
21
-235.606318760955
31
0.00115655594914506
  0
LINE
 8
GROUP0
10
2454.38151808113
20
-235.606290491529
30
0.00115656680263205
11
2454.14313676699
21
-235.295632913536
31
0.00115656753546238
  0
LINE
 8
GROUP0
10
2454.53137265128
20
-235.968060293343
30
0.0011565654155695
11
2454.38151808113
21
-235.606290491529
31
0.00115656680263205
  0
LINE
 8
GROUP0
10
2399.57963061888
20
39.6430503747681
30
0.0011568001499743
11
2399.57973628631
21
27.6431942685334
31
0.00115673910329477
  0
LINE
 8
GROUP0
10
2423.0827030145
20
-227.356519540161
30
0.00115673103021576
11
2399.58276339058
21
-227.356769781826
31
0.00115672998868934
  0
LINE
 8
GROUP0
10
2395.0825640327
20
-254.856654436284
30
0.00115676993695493
11
2376.08256403252
21
-254.85673411613
31
0.00115664402310527
  0
LINE
 8
GROUP0
10
2696.58541441711
20
-238.853353553558
30
0.00115673416818423
11
2670.08289392815
21
-238.853831954752
31
0.00115675503210104
  0
LINE
 8
GROUP0
10
2414.0800268747
20
-5.35668245003331
30
0.00115663079245421
11
2682.07971068287
21
-5.35358498513965
31
0.00115777961178649
  0
LINE
 8
GROUP0
10
2660.08301361265
20
-250.353940763171
30
0.00115664580834709
11
2433.08295327477
21
-250.356410729729
31
0.00115664482045643
  0
LINE
 8
GROUP0
10
2399.58276339058
20
-227.356769781826
30
0.00115672998868934
11
2399.58292842491
21
-250.356633466332
31
0.00115668126269153
  0
LINE
 8
GROUP0
10
2451.5824881363
20
-236.356320947558
30
0.00115655093623728
11
2451.63360362114
21
-236.744548959052
31
0.00115654898946778
  0
LINE
 8
GROUP0
10
2454.14313676699
20
-235.295632913536
30
0.00115656753546238
11
2453.83247400146
21
-235.057258359918
31
0.00115656756415836
  0
LINE
 8
GROUP0
10
2670.08289392815
20
-238.853831954752
30
0.00115675503210104
11
2660.08301361265
21
-250.353940763171
31
0.00115664580834709
  0
LINE
 8
GROUP0
10
2454.38153440249
20
-237.10629049144
30
0.00115655845580198
11
2454.53138109984
21
-236.744517428605
31
0.00115656109492965
  0
LINE
 8
GROUP0
10
2452.69424380336
20
-234.907420111129
30
0.00115656364305137
11
2452.33247400155
21
-235.057274681278
31
0.00115656129792212
  0
LINE
 8
GROUP0
10
2453.47073246907
20
-237.805189141266
30
0.00115655076189567
11
2453.83250227088
21
-237.655334571117
31
0.00115655310707004
  0
LINE
 8
GROUP0
10
2643.83247399021
20
-235.055190987579
30
0.00115736128974673
11
2643.47070092737
21
-234.905344290232
31
0.00115736061227798
  0
LINE
 8
GROUP0
10
2644.38153439125
20
-237.104223119102
30
0.00115735218143547
11
2644.53138108859
21
-236.742450056266
31
0.00115735482051802
  0
LINE
 8
GROUP0
10
2642.3324739903
20
-235.055207308939
30
0.00115735502351049
11
2642.0218164123
21
-235.293588623087
31
0.00115735239922712
  0
LINE
 8
GROUP0
10
2644.53138108859
20
-236.742450056266
30
0.00115735482051802
11
2644.58248812488
21
-236.354220932498
31
0.00115735719434324
  0
LINE
 8
GROUP0
10
2642.02183949419
20
-237.414908966521
30
0.00115734059507302
11
2642.33250225972
21
-237.653283520139
31
0.00115734056637704
  0
LINE
 8
GROUP0
10
2641.6336036099
20
-236.742481586713
30
0.00115734271505614
11
2641.78345818005
21
-237.104251388527
31
0.00115734132794847
  0
LINE
 8
GROUP0
10
2642.69427532256
20
-237.803130217486
30
0.00115734124384579
11
2643.08250444633
21
-237.85423725377
31
0.00115734258127693
  0
LINE
 8
GROUP0
10
2644.14315983763
20
-237.414885884631
30
0.00115734945689665
11
2644.38153439125
21
-237.104223119102
31
0.00115735218143547
  0
LINE
 8
GROUP0
10
2642.0218164123
20
-235.293588623087
30
0.00115735239922712
11
2641.78344185869
21
-235.604251388616
31
0.00115734967473342
  0
LINE
 8
GROUP0
10
2643.47070092737
20
-234.905344290232
30
0.00115736061227798
11
2643.08247180361
21
-234.854237253948
31
0.00115735927489196
  0
LINE
 8
GROUP0
10
2644.38151806989
20
-235.60422311919
30
0.00115736052822042
11
2644.14313675574
21
-235.293565541197
31
0.00115736126105075
  0
LINE
 8
GROUP0
10
2547.01977212748
20
-47.415942663938
30
0.00115800099787995
11
2547.33043489301
21
-47.6543172175563
31
0.00115800096918397
  0
LINE
 8
GROUP0
10
2643.83250225964
20
-237.653267198778
30
0.0011573468326584
11
2644.14315983763
21
-237.414885884631
31
0.00115734945689665
  0
LINE
 8
GROUP0
10
2547.33043489301
20
-47.6543172175563
30
0.00115800096918397
11
2547.69220795584
21
-47.8041639149031
31
0.00115800164665272
  0
LINE
 8
GROUP0
10
2454.58248813612
20
-236.356288304837
30
0.00115656346875488
11
2454.53137265128
21
-235.968060293343
31
0.0011565654155695
  0
LINE
 8
GROUP0
10
2644.14313675574
20
-235.293565541197
30
0.00115736126105075
11
2643.83247399021
21
-235.055190987579
31
0.00115736128974673
  0
LINE
 8
GROUP0
10
2546.78139081333
20
-47.1052850859448
30
0.00115800173071028
11
2547.01977212748
21
-47.415942663938
31
0.00115800099787995
  0
LINE
 8
GROUP0
10
2452.69427533381
20
-237.805197589824
30
0.00115654751825742
11
2453.08250445757
21
-237.856304626109
31
0.00115654885568857
  0
LINE
 8
GROUP0
10
2643.08250444633
20
-237.85423725377
30
0.00115734258127693
11
2643.47073245782
21
-237.803121768928
31
0.00115734448748404
  0
LINE
 8
GROUP0
10
2642.33250225972
20
-237.653283520139
30
0.00115734056637704
11
2642.69427532256
21
-237.803130217486
31
0.00115734124384579
  0
LINE
 8
GROUP0
10
2641.78345818005
20
-237.104251388527
30
0.00115734132794847
11
2642.02183949419
21
-237.414908966521
31
0.00115734059507302
  0
LINE
 8
GROUP0
10
2643.08247180361
20
-234.854237253948
30
0.00115735927489196
11
2642.69424379211
21
-234.90535273879
31
0.00115735736863973
  0
LINE
 8
GROUP0
10
2641.78344185869
20
-235.604251388616
30
0.00115734967473342
11
2641.63359516134
21
-235.966024451452
31
0.00115734703569599
  0
LINE
 8
GROUP0
10
2642.69424379211
20
-234.90535273879
30
0.00115735736863973
11
2642.3324739903
21
-235.055207308939
31
0.00115735502351049
  0
LINE
 8
GROUP0
10
2644.53137264004
20
-235.965992921004
30
0.00115735914115787
11
2644.38151806989
21
-235.60422311919
31
0.00115736052822042
  0
LINE
 8
GROUP0
10
2643.47073245782
20
-237.803121768928
30
0.00115734448748404
11
2643.83250225964
21
-237.653267198778
31
0.0011573468326584
  0
LINE
 8
GROUP0
10
2641.63359516134
20
-235.966024451452
30
0.00115734703569599
11
2641.58248812506
21
-236.35425357522
31
0.00115734466182564
  0
LINE
 8
GROUP0
10
2644.58248812488
20
-236.354220932498
30
0.00115735719434324
11
2644.53137264004
21
-235.965992921004
31
0.00115735914115787
  0
LINE
 8
GROUP0
10
2452.02183950544
20
-237.416976338859
30
0.00115654686948465
11
2452.33250227097
21
-237.655350892478
31
0.00115654684078867
  0
LINE
 8
GROUP0
10
2641.58248812506
20
-236.35425357522
30
0.00115734466182564
11
2641.6336036099
21
-236.742481586713
31
0.00115734271505614
  0
LINE
 8
GROUP0
10
2548.08043707961
20
-47.8552709511874
30
0.00115800298403874
11
2548.46866509111
21
-47.8041554663451
31
0.00115800489029096
  0
LINE
 8
GROUP0
10
2546.63152779463
20
-45.9670581488692
30
0.0011580074384578
11
2546.58042075834
21
-46.3552872726369
31
0.00115800506463257
  0
LINE
 8
GROUP0
10
2549.58042075816
20
-46.3552546299157
30
0.00115801759715017
11
2549.52930527332
21
-45.9670266184218
31
0.00115801954391967
  0
LINE
 8
GROUP0
10
2546.63153624318
20
-46.7435152841307
30
0.00115800311781795
11
2546.78139081333
21
-47.1052850859448
31
0.00115800173071028
  0
LINE
 8
GROUP0
10
2547.6921764254
20
-44.9063864362073
30
0.00115801777144666
11
2547.33040662358
21
-45.0562410063568
31
0.0011580154262723
  0
LINE
 8
GROUP0
10
2548.08040443689
20
-44.855270951365
30
0.00115801967765377
11
2547.6921764254
21
-44.9063864362073
31
0.00115801777144666
  0
LINE
 8
GROUP0
10
2547.69220795584
20
-47.8041639149031
30
0.00115800164665272
11
2548.08043707961
21
-47.8552709511874
31
0.00115800298403874
  0
LINE
 8
GROUP0
10
2547.01974904559
20
-45.294622320504
30
0.00115801280203405
11
2546.78137449197
21
-45.6052850860336
31
0.00115801007749523
  0
LINE
 8
GROUP0
10
2548.83040662349
20
-45.0562246849962
30
0.00115802169255366
11
2548.46863356066
21
-44.9063779876495
31
0.00115802101508491
  0
LINE
 8
GROUP0
10
2549.14106938902
20
-45.2945992386145
30
0.00115802166385768
11
2548.83040662349
21
-45.0562246849962
31
0.00115802169255366
  0
LINE
 8
GROUP0
10
2549.52931372188
20
-46.7434837536834
30
0.00115801522327983
11
2549.58042075816
21
-46.3552546299157
31
0.00115801759715017
  0
LINE
 8
GROUP0
10
2548.46863356066
20
-44.9063779876495
30
0.00115802101508491
11
2548.08040443689
21
-44.855270951365
31
0.00115801967765377
  0
LINE
 8
GROUP0
10
2549.37946702453
20
-47.105256816519
30
0.00115801258419728
11
2549.52931372188
21
-46.7434837536834
31
0.00115801522327983
  0
LINE
 8
GROUP0
10
2386.95478737585
20
37.1586655702363
30
2.88107831458717e-007
11
2387.31722532763
21
36.8805595628375
31
2.88157361350017e-007
  0
LINE
 8
GROUP0
10
2546.58042075834
20
-46.3552872726369
30
0.00115800506463257
11
2546.63153624318
21
-46.7435152841307
31
0.00115800311781795
  0
LINE
 8
GROUP0
10
2384.56424614188
20
36.5181112339655
30
2.81952498859539e-007
11
2384.84235214928
21
36.8805491857449
31
2.83346667728779e-007
  0
LINE
 8
GROUP0
10
2696.58558059778
20
-250.355392127094
30
0.00115687909259682
11
2701.08565608914
21
-254.853278030674
31
0.00115671446189749
  0
LINE
 8
GROUP0
10
2549.52930527332
20
-45.9670266184218
30
0.00115801954391967
11
2549.37945070317
21
-45.6052568166077
31
0.00115802093098223
  0
LINE
 8
GROUP0
10
2385.20478776887
20
37.1586582325237
30
2.84706162290149e-007
11
2385.62685361211
21
37.3334857023609
31
2.85938307165168e-007
  0
LINE
 8
GROUP0
10
2387.31722532763
20
36.8805595628375
30
2.88157361350017e-007
11
2387.59533437441
21
36.5181239432564
31
2.87844367630186e-007
  0
LINE
 8
GROUP0
10
2387.59533437441
20
36.5181239432564
30
2.87844367630186e-007
11
2387.77016184424
21
36.0960581000143
31
2.87190180525698e-007
  0
LINE
 8
GROUP0
10
2548.46866509111
20
-47.8041554663451
30
0.00115800489029096
11
2548.83043489292
21
-47.6543008961957
31
0.00115800723542021
  0
LINE
 8
GROUP0
10
2384.5642534796
20
34.7681116269811
30
2.778310501661e-007
11
2384.38942600976
21
35.1901774702232
31
2.78485237270587e-007
  0
LINE
 8
GROUP0
10
2387.77016184424
20
36.0960581000143
30
2.87190180525698e-007
11
2387.82979353399
21
35.6431251228313
31
2.8623937806671e-007
  0
LINE
 8
GROUP0
10
2387.82979353399
20
35.6431251228313
30
2.8623937806671e-007
11
2387.77016564252
21
35.1901916455953
31
2.85056763082991e-007
  0
LINE
 8
GROUP0
10
2387.77016564252
20
35.1901916455953
30
2.85056763082991e-007
11
2387.59534171212
21
34.7681243362721
31
2.83722918936746e-007
  0
LINE
 8
GROUP0
10
2546.78137449197
20
-45.6052850860336
30
0.00115801007749523
11
2546.63152779463
21
-45.9670581488692
31
0.0011580074384578
  0
LINE
 8
GROUP0
10
2547.33040662358
20
-45.0562410063568
30
0.0011580154262723
11
2547.01974904559
21
-45.294622320504
31
0.00115801280203405
  0
LINE
 8
GROUP0
10
2549.37945070317
20
-45.6052568166077
30
0.00115802093098223
11
2549.14106938902
21
-45.2945992386145
31
0.00115802166385768
  0
LINE
 8
GROUP0
10
2549.14109247091
20
-47.4159195820485
30
0.00115800985970358
11
2549.37946702453
21
-47.105256816519
31
0.00115801258419728
  0
LINE
 8
GROUP0
10
2548.83043489292
20
-47.6543008961957
30
0.00115800723542021
11
2549.14109247091
21
-47.4159195820485
31
0.00115800985970358
  0
LINE
 8
GROUP0
10
2701.08222048546
20
44.1463590127807
30
0.00115808835733962
11
2696.57912766191
21
39.6462711177835
31
0.00115786307294705
  0
LINE
 8
GROUP0
10
2386.53561729453
20
-248.04706043139
30
2.21906546471473e-009
11
2386.08268422745
21
-248.106692133288
31
1.19821503830053e-009
  0
LINE
 8
GROUP0
10
2696.57971068287
20
27.6464150148603
30
0.0011578098186245
11
2696.57912766191
21
39.6462711177835
31
0.00115786307294705
  0
LINE
 8
GROUP0
10
2387.32011891281
20
-247.594123824291
30
4.81070490110369e-009
11
2386.95768322145
21
-247.872232926544
31
3.45122161959921e-009
  0
LINE
 8
GROUP0
10
2384.39230483704
20
-245.903765950541
30
3.10059826702513e-009
11
2384.56712880186
21
-245.48169855729
31
4.43445369313622e-009
  0
LINE
 8
GROUP0
10
2696.58541441711
20
-238.853353553558
30
0.00115673416818423
11
2696.58558059778
21
-250.355392127094
31
0.00115687909259682
  0
LINE
 8
GROUP0
10
2384.38942221148
20
36.0960439246422
30
2.80618654713294e-007
11
2384.56424614188
21
36.5181112339655
31
2.81952498859539e-007
  0
LINE
 8
GROUP0
10
2387.77304894
20
-246.8096184071
30
7.5387291964546e-009
11
2387.59822497517
21
-247.231685800351
31
6.20487377034351e-009
  0
LINE
 8
GROUP0
10
2384.84523486423
20
-245.11926053335
30
5.82862256237604e-009
11
2385.20767055558
21
-244.841151431097
31
7.18810584388052e-009
  0
LINE
 8
GROUP0
10
2387.59822497517
20
-247.231685800351
30
6.20487377034351e-009
11
2387.32011891281
21
-247.594123824291
31
4.81070490110369e-009
  0
LINE
 8
GROUP0
10
2386.07978658929
20
37.3931173921031
30
2.86959157591582e-007
11
2386.53272006653
21
37.3334895006405
31
2.87699139356334e-007
  0
LINE
 8
GROUP0
10
2384.56712880186
20
-245.48169855729
30
4.43445369313622e-009
11
2384.84523486423
21
-245.11926053335
31
5.82862256237604e-009
  0
LINE
 8
GROUP0
10
2384.33267693405
20
-246.356699517754
30
1.91798328330606e-009
11
2384.39230483704
21
-245.903765950541
31
3.10059826702513e-009
  0
LINE
 8
GROUP0
10
2386.5327342419
20
33.9527498678766
30
2.79737110631118e-007
11
2386.07980126472
21
33.8931181781344
31
2.78716260204703e-007
  0
LINE
 8
GROUP0
10
2385.62973648251
20
-244.666323926251
30
8.420261998765e-009
11
2386.08266954958
21
-244.606692224353
31
9.4411124251792e-009
  0
LINE
 8
GROUP0
10
2386.95767051005
20
-244.841144092163
30
1.05897862923143e-008
11
2387.32010853399
21
-245.11925015453
31
1.06393274634797e-008
  0
LINE
 8
GROUP0
10
2384.39230863595
20
-246.809632584831
30
9.67180824318348e-010
11
2384.33267693405
21
-246.356699517754
31
1.91798328330606e-009
  0
LINE
 8
GROUP0
10
2384.84236252638
20
34.4056760074
30
2.77518056446269e-007
11
2384.5642534796
21
34.7681116269811
31
2.778310501661e-007
  0
LINE
 8
GROUP0
10
2395.07950727685
20
44.1430294094038
30
0.00115697733080333
11
2399.57963061888
21
39.6430503747681
31
0.0011568001499743
  0
LINE
 8
GROUP0
10
2395.0825640327
20
-254.856654436284
30
0.00115676993695493
11
2399.58292842491
21
-250.356633466332
31
0.00115668126269153
  0
LINE
 8
GROUP0
10
2387.59534171212
20
34.7681243362721
30
2.83722918936746e-007
11
2387.31723570472
21
34.4056863844927
31
2.82328750067506e-007
  0
LINE
 8
GROUP0
10
2384.84524524305
20
-247.594134203111
30
0.0
11
2384.56713614079
21
-247.231698511758
31
3.12993719830956e-010
  0
LINE
 8
GROUP0
10
2387.83267684298
20
-246.356684839887
30
8.72134418017367e-009
11
2387.77304894
21
-246.8096184071
31
7.5387291964546e-009
  0
LINE
 8
GROUP0
10
2386.53272006653
20
37.3334895006405
30
2.87699139356334e-007
11
2386.95478737585
21
37.1586655702363
31
2.88107831458717e-007
  0
LINE
 8
GROUP0
10
2384.38942600976
20
35.1901774702232
30
2.78485237270587e-007
11
2384.32979432002
21
35.6431104474062
31
2.79436039729575e-007
  0
LINE
 8
GROUP0
10
2399.57973628631
20
27.6431942685334
30
0.00115673910329477
11
2414.0800268747
21
-5.35668245003331
31
0.00115663079245421
  0
LINE
 8
GROUP0
10
2387.31723570472
20
34.4056863844927
30
2.82328750067506e-007
11
2386.95480008514
21
34.1275773377138
31
2.80969255506136e-007
  0
LINE
 8
GROUP0
10
2710.0855383375
20
-244.605333415806
30
0.00115766469465557
11
2710.53847235157
21
-244.664958015444
31
0.00115766543464861
  0
LINE
 8
GROUP0
10
2384.84235214928
20
36.8805491857449
30
2.83346667728779e-007
11
2385.20478776887
21
37.1586582325237
31
2.84706162290149e-007
  0
LINE
 8
GROUP0
10
2385.62685361211
20
37.3334857023609
30
2.85938307165168e-007
11
2386.07978658929
21
37.3931173921031
31
2.86959157591582e-007
  0
LINE
 8
GROUP0
10
2720.0856560871
20
-254.852991050653
30
0.00115672167600342
11
2701.08565608914
21
-254.853278030674
31
0.00115671446189749
  0
LINE
 8
GROUP0
10
2384.32979432002
20
35.6431104474062
30
2.79436039729575e-007
11
2384.38942221148
21
36.0960439246422
31
2.80618654713294e-007
  0
LINE
 8
GROUP0
10
2386.95480008514
20
34.1275773377138
30
2.80969255506136e-007
11
2386.5327342419
21
33.9527498678766
31
2.79737110631118e-007
  0
LINE
 8
GROUP0
10
2708.39519345403
20
-246.808286167496
30
0.00115765622073525
11
2708.33555844569
21
-246.355353523763
31
0.00115765717152643
  0
LINE
 8
GROUP0
10
2708.84813579714
20
-247.592784501239
30
0.00115765525357698
11
2708.57002404309
21
-247.230350829734
31
0.00115765556654814
  0
LINE
 8
GROUP0
10
2386.08268422745
20
-248.106692133288
30
1.19821503830053e-009
11
2385.62975066024
21
-248.047064230302
31
4.58221993682173e-010
  0
LINE
 8
GROUP0
10
2386.5356031168
20
-244.666320127339
30
1.01811054697976e-008
11
2386.95767051005
21
-244.841144092163
31
1.05897862923143e-008
  0
LINE
 8
GROUP0
10
2711.77268316703
20
36.0974290724435
30
0.00115947397753686
11
2711.83231817538
21
35.6444964287101
31
0.00115947302674568
  0
LINE
 8
GROUP0
10
2386.95768322145
20
-247.872232926544
30
3.45122161959921e-009
11
2386.53561729453
21
-248.04706043139
31
2.21906546471473e-009
  0
LINE
 8
GROUP0
10
2385.20480047816
20
34.1275700000013
30
2.77567586337568e-007
11
2384.84236252638
21
34.4056760074
31
2.77518056446269e-007
  0
LINE
 8
GROUP0
10
2386.07980126472
20
33.8931181781344
30
2.78716260204703e-007
11
2385.62686778748
21
33.9527460695971
31
2.77976278439951e-007
  0
LINE
 8
GROUP0
10
2385.20767055558
20
-244.841151431097
30
7.18810584388052e-009
11
2385.62973648251
21
-244.666323926251
31
8.420261998765e-009
  0
LINE
 8
GROUP0
10
2710.53851119738
20
-248.045698407232
30
0.00115765747266501
11
2710.08557855365
21
-248.105333415574
31
0.0011576564518033
  0
LINE
 8
GROUP0
10
2709.62936542369
20
37.3348413121792
30
0.0011594727256071
11
2710.08229806742
21
37.3944763205216
31
0.00115947374646881
  0
LINE
 8
GROUP0
10
2385.62975066024
20
-248.047064230302
30
4.58221993682173e-010
11
2385.20768326699
21
-247.872240265478
31
4.95411711654015e-011
  0
LINE
 8
GROUP0
10
2386.08266954958
20
-244.606692224353
30
9.4411124251792e-009
11
2386.5356031168
21
-244.666320127339
31
1.01811054697976e-008
  0
LINE
 8
GROUP0
10
2711.31974082393
20
36.8819274061865
30
0.00115947494469513
11
2711.59785257798
21
36.5194937346812
31
0.00115947463172397
  0
LINE
 8
GROUP0
10
2710.53523208148
20
37.3348517208836
30
0.00115947448646185
11
2710.95730076133
21
37.1600308311962
31
0.00115947489515396
  0
LINE
 8
GROUP0
10
2710.96057585962
20
-247.870867818176
30
0.00115765870482116
11
2710.53851119738
21
-248.045698407232
31
0.00115765747266501
  0
LINE
 8
GROUP0
10
2387.32010853399
20
-245.11925015453
30
1.06393274634797e-008
11
2387.59821763624
21
-245.481685845883
31
1.03263337436488e-008
  0
LINE
 8
GROUP0
10
2711.77269357574
20
35.1915624146447
30
0.0011594718441307
11
2711.59787268605
21
34.769493734797
31
0.00115947051029783
  0
LINE
 8
GROUP0
10
2385.62686778748
20
33.9527460695971
30
2.77976278439951e-007
11
2385.20480047816
21
34.1275700000013
31
2.77567586337568e-007
  0
LINE
 8
GROUP0
10
2387.77304514109
20
-245.90375177281
30
9.67214663916138e-009
11
2387.83267684298
21
-246.356684839887
31
8.72134418017367e-009
  0
LINE
 8
GROUP0
10
2710.08229806742
20
37.3944763205216
30
0.00115947374646881
11
2710.53523208148
21
37.3348517208836
31
0.00115947448646185
  0
LINE
 8
GROUP0
10
2711.60109284806
20
-245.480316001647
30
0.00115766557991073
11
2711.77592343712
21
-245.902380663884
31
0.00115766492572362
  0
LINE
 8
GROUP0
10
2710.95730076133
20
37.1600308311962
30
0.00115947489515396
11
2711.31974082393
21
36.8819274061865
31
0.00115947494469513
  0
LINE
 8
GROUP0
10
2710.53847235157
20
-244.664958015444
30
0.00115766543464861
11
2710.96054103141
21
-244.839778905132
31
0.00115766584334072
  0
LINE
 8
GROUP0
10
2710.96054103141
20
-244.839778905132
30
0.00115766584334072
11
2711.32298109401
21
-245.117882330141
31
0.00115766589288189
  0
LINE
 8
GROUP0
10
2387.59821763624
20
-245.481685845883
30
1.03263337436488e-008
11
2387.77304514109
21
-245.90375177281
31
9.67214663916138e-009
  0
LINE
 8
GROUP0
10
2711.77592343712
20
-245.902380663884
30
0.00115766492572362
11
2711.83555844546
21
-246.355313307618
31
0.00115766397493244
  0
LINE
 8
GROUP0
10
2711.59785257798
20
36.5194937346812
30
0.00115947463172397
11
2711.77268316703
21
36.0974290724435
31
0.00115947397753686
  0
LINE
 8
GROUP0
10
2711.83231817538
20
35.6444964287101
30
0.00115947302674568
11
2711.77269357574
21
35.1915624146447
31
0.0011594718441307
  0
LINE
 8
GROUP0
10
2385.20768326699
20
-247.872240265478
30
4.95411711654015e-011
11
2384.84524524305
21
-247.594134203111
31
0.0
  0
LINE
 8
GROUP0
10
2384.56713614079
20
-247.231698511758
30
3.12993719830956e-010
11
2384.39230863595
21
-246.809632584831
31
9.67180824318348e-010
  0
LINE
 8
GROUP0
10
2709.63264453958
20
-248.045708815936
30
0.00115765571181026
11
2709.21057585973
21
-247.870887926249
31
0.00115765530311815
  0
LINE
 8
GROUP0
10
2708.39518304533
20
-245.902419509698
30
0.00115765835414141
11
2708.57000393502
21
-245.48035082985
31
0.00115765968797428
  0
LINE
 8
GROUP0
10
2708.57000393502
20
-245.48035082985
30
0.00115765968797428
11
2708.84810736003
21
-245.11791076725
31
0.00115766108215443
  0
LINE
 8
GROUP0
10
2708.57002404309
20
-247.230350829734
30
0.00115765556654814
11
2708.39519345403
21
-246.808286167496
31
0.00115765622073525
  0
LINE
 8
GROUP0
10
2708.84486708994
20
36.8818989690774
30
0.00115947013396767
11
2709.20730076145
21
37.1600107231235
31
0.00115947149345095
  0
LINE
 8
GROUP0
10
2708.84810736003
20
-245.11791076725
30
0.00115766108215443
11
2709.21054103153
21
-244.839799013204
31
0.00115766244163771
  0
LINE
 8
GROUP0
10
2711.77593384582
20
-246.808247321683
30
0.00115766279231746
11
2711.60111295613
21
-247.230316001531
31
0.00115766145848459
  0
LINE
 8
GROUP0
10
2711.31976926104
20
34.4070536721974
30
0.00115946911611768
11
2710.95733558954
21
34.1289419181512
31
0.0011594677566344
  0
LINE
 8
GROUP0
10
2710.08233828357
20
33.8944763207532
30
0.00115946550361654
11
2709.6294042695
21
33.9541009203912
31
0.0011594647636235
  0
LINE
 8
GROUP0
10
2711.32298109401
20
-245.117882330141
30
0.00115766589288189
11
2711.60109284806
21
-245.480316001647
31
0.00115766557991073
  0
LINE
 8
GROUP0
10
2711.59787268605
20
34.769493734797
30
0.00115947051029783
11
2711.31976926104
21
34.4070536721974
31
0.00115946911611768
  0
LINE
 8
GROUP0
10
2708.39195318395
20
35.1915235688312
30
0.00115946527254849
11
2708.33231817561
21
35.6444562125647
31
0.00115946622333967
  0
LINE
 8
GROUP0
10
2711.32300953112
20
-247.59275606413
30
0.00115766006430444
11
2710.96057585962
21
-247.870867818176
31
0.00115765870482116
  0
LINE
 8
GROUP0
10
2708.39194277525
20
36.0973902266301
30
0.00115946740595465
11
2708.56676366493
21
36.5194589064777
31
0.00115946873978752
  0
LINE
 8
GROUP0
10
2709.21057585973
20
-247.870887926249
30
0.00115765530311815
11
2708.84813579714
21
-247.592784501239
31
0.00115765525357698
  0
LINE
 8
GROUP0
10
2708.33555844569
20
-246.355353523763
30
0.00115765717152643
11
2708.39518304533
21
-245.902419509698
31
0.00115765835414141
  0
LINE
 8
GROUP0
10
2709.21054103153
20
-244.839799013204
30
0.00115766244163771
11
2709.63260569377
21
-244.664968424149
31
0.00115766367379386
  0
LINE
 8
GROUP0
10
2709.6294042695
20
33.9541009203912
30
0.0011594647636235
11
2709.20733558965
21
34.1289218100786
31
0.00115946435493139
  0
LINE
 8
GROUP0
10
2708.84489552705
20
34.4070252350883
30
0.00115946430539022
11
2708.56678377301
21
34.7694589065935
31
0.00115946461836138
  0
LINE
 8
GROUP0
10
2710.08557855365
20
-248.105333415574
30
0.0011576564518033
11
2709.63264453958
21
-248.045708815936
31
0.00115765571181026
  0
LINE
 8
GROUP0
10
2708.33231817561
20
35.6444562125647
30
0.00115946622333967
11
2708.39194277525
21
36.0973902266301
31
0.00115946740595465
  0
LINE
 8
GROUP0
10
2711.60111295613
20
-247.230316001531
30
0.00115766145848459
11
2711.32300953112
21
-247.59275606413
31
0.00115766006430444
  0
LINE
 8
GROUP0
10
2709.20730076145
20
37.1600107231235
30
0.00115947149345095
11
2709.62936542369
21
37.3348413121792
31
0.0011594727256071
  0
LINE
 8
GROUP0
10
2711.83555844546
20
-246.355313307618
30
0.00115766397493244
11
2711.77593384582
21
-246.808247321683
31
0.00115766279231746
  0
LINE
 8
GROUP0
10
2708.56678377301
20
34.7694589065935
30
0.00115946461836138
11
2708.39195318395
21
35.1915235688312
31
0.00115946527254849
  0
LINE
 8
GROUP0
10
2708.56676366493
20
36.5194589064777
30
0.00115946873978752
11
2708.84486708994
21
36.8818989690774
31
0.00115947013396767
  0
LINE
 8
GROUP0
10
2709.20733558965
20
34.1289218100786
30
0.00115946435493139
11
2708.84489552705
21
34.4070252350883
31
0.00115946430539022
  0
LINE
 8
GROUP0
10
2709.63260569377
20
-244.664968424149
30
0.00115766367379386
11
2710.0855383375
21
-244.605333415806
31
0.00115766469465557
  0
LINE
 8
GROUP0
10
2710.95733558954
20
34.1289419181512
30
0.0011594677566344
11
2710.5352709273
21
33.9541113290955
31
0.00115946652447825
  0
LINE
 8
GROUP0
10
2710.5352709273
20
33.9541113290955
30
0.00115946652447825
11
2710.08233828357
21
33.8944763207532
31
0.00115946550361654
 0
ENDSEC
 0
EOF
