 0
SECTION
 2
ENTITIES
  0
POLYLINE
 8
Layer0
 66
     1
70
    8
 10
0.0
 20
 0.0
 30
0.0
  0
VERTEX
  8
MY3DLAYER
10
2609.24418069059
20
-359.268533506361
30
0.0
 70
     32
  0
VERTEX
  8
MY3DLAYER
10
2509.24418069059
20
-359.268533506361
30
0.0
 70
     32
  0
VERTEX
  8
MY3DLAYER
10
2509.24418069059
20
-459.268533506361
30
0.0
 70
     32
  0
VERTEX
  8
MY3DLAYER
10
2609.24418069059
20
-459.268533506361
30
0.0
 70
     32
  0
VERTEX
  8
MY3DLAYER
10
2609.24418069059
20
-359.268533506361
30
0.0
 70
     32
  0
SEQEND
  0
POLYLINE
 8
Layer0
 66
     1
70
    8
 10
0.0
 20
 0.0
 30
0.0
  0
VERTEX
  8
MY3DLAYER
10
2634.24418069059
20
-334.268533506361
30
0.0
 70
     32
  0
VERTEX
  8
MY3DLAYER
10
2484.24418069059
20
-334.268533506361
30
0.0
 70
     32
  0
VERTEX
  8
MY3DLAYER
10
2484.24418069059
20
-484.268533506361
30
0.0
 70
     32
  0
VERTEX
  8
MY3DLAYER
10
2634.24418069059
20
-484.268533506361
30
0.0
 70
     32
  0
VERTEX
  8
MY3DLAYER
10
2634.24418069059
20
-334.268533506361
30
0.0
 70
     32
  0
SEQEND
  0
POLYLINE
 8
Layer0
 66
     1
70
    8
 10
0.0
 20
 0.0
 30
0.0
  0
VERTEX
  8
MY3DLAYER
10
2509.24418069059
20
-359.268533506361
30
0.0
 70
     32
  0
VERTEX
  8
MY3DLAYER
10
2609.24418069059
20
-359.268533506361
30
0.0
 70
     32
  0
VERTEX
  8
MY3DLAYER
10
2609.24418069059
20
-459.268533506361
30
0.0
 70
     32
  0
VERTEX
  8
MY3DLAYER
10
2509.24418069059
20
-459.268533506361
30
0.0
 70
     32
  0
VERTEX
  8
MY3DLAYER
10
2509.24418069059
20
-359.268533506361
30
0.0
 70
     32
  0
SEQEND
  0
POLYLINE
 8
Layer0
 66
     1
70
    8
 10
0.0
 20
 0.0
 30
0.0
  0
VERTEX
  8
MY3DLAYER
10
2674.24418069059
20
-294.268533506361
30
0.0
 70
     32
  0
VERTEX
  8
MY3DLAYER
10
2444.24418069059
20
-294.268533506361
30
0.0
 70
     32
  0
VERTEX
  8
MY3DLAYER
10
2444.24418069059
20
-524.268533506361
30
0.0
 70
     32
  0
VERTEX
  8
MY3DLAYER
10
2674.24418069059
20
-524.268533506361
30
0.0
 70
     32
  0
VERTEX
  8
MY3DLAYER
10
2674.24418069059
20
-294.268533506361
30
0.0
 70
     32
  0
SEQEND
  0
POLYLINE
 8
Layer0
 66
     1
70
    8
 10
0.0
 20
 0.0
 30
0.0
  0
VERTEX
  8
MY3DLAYER
10
2459.24418069059
20
-509.268533506361
30
0.0
 70
     32
  0
VERTEX
  8
MY3DLAYER
10
2459.24418069059
20
-309.268533506361
30
0.0
 70
     32
  0
VERTEX
  8
MY3DLAYER
10
2659.24418069059
20
-309.268533506361
30
0.0
 70
     32
  0
VERTEX
  8
MY3DLAYER
10
2659.24418069059
20
-509.268533506361
30
0.0
 70
     32
  0
VERTEX
  8
MY3DLAYER
10
2459.24418069059
20
-509.268533506361
30
0.0
 70
     32
  0
SEQEND
  0
POLYLINE
 8
Layer0
 66
     1
70
    8
 10
0.0
 20
 0.0
 30
0.0
  0
VERTEX
  8
MY3DLAYER
10
2653.20890451018
20
-500.404832543099
30
4.51194637207664e-014
 70
     32
  0
VERTEX
  8
MY3DLAYER
10
2652.24418069059
20
-500.804434233118
30
4.51194637207664e-014
 70
     32
  0
VERTEX
  8
MY3DLAYER
10
2651.41575356584
20
-501.440108723509
30
4.51194637207664e-014
 70
     32
  0
VERTEX
  8
MY3DLAYER
10
2650.78007907545
20
-502.268535848256
30
4.51194637207664e-014
 70
     32
  0
VERTEX
  8
MY3DLAYER
10
2650.38047738543
20
-503.233259667845
30
4.51194637207664e-014
 70
     32
  0
VERTEX
  8
MY3DLAYER
10
2650.24418069059
20
-504.268535848256
30
4.51194637207664e-014
 70
     32
  0
VERTEX
  8
MY3DLAYER
10
2650.38047738543
20
-505.303812028666
30
4.51194637207664e-014
 70
     32
  0
VERTEX
  8
MY3DLAYER
10
2650.78007907545
20
-506.268535848256
30
4.51194637207664e-014
 70
     32
  0
VERTEX
  8
MY3DLAYER
10
2651.41575356584
20
-507.096962973002
30
4.51194637207664e-014
 70
     32
  0
VERTEX
  8
MY3DLAYER
10
2652.24418069059
20
-507.732637463393
30
4.51194637207664e-014
 70
     32
  0
VERTEX
  8
MY3DLAYER
10
2653.20890451018
20
-508.132239153412
30
4.51194637207664e-014
 70
     32
  0
VERTEX
  8
MY3DLAYER
10
2654.24418069059
20
-508.268535848256
30
4.51194637207664e-014
 70
     32
  0
VERTEX
  8
MY3DLAYER
10
2655.279456871
20
-508.132239153412
30
4.51194637207664e-014
 70
     32
  0
VERTEX
  8
MY3DLAYER
10
2656.24418069059
20
-507.732637463393
30
4.51194637207664e-014
 70
     32
  0
VERTEX
  8
MY3DLAYER
10
2657.07260781534
20
-507.096962973002
30
4.51194637207664e-014
 70
     32
  0
VERTEX
  8
MY3DLAYER
10
2657.70828230573
20
-506.268535848256
30
4.51194637207664e-014
 70
     32
  0
VERTEX
  8
MY3DLAYER
10
2658.10788399575
20
-505.303812028666
30
4.51194637207664e-014
 70
     32
  0
VERTEX
  8
MY3DLAYER
10
2658.24418069059
20
-504.268535848256
30
4.51194637207664e-014
 70
     32
  0
VERTEX
  8
MY3DLAYER
10
2658.10788399575
20
-503.233259667845
30
4.51194637207664e-014
 70
     32
  0
VERTEX
  8
MY3DLAYER
10
2657.70828230573
20
-502.268535848256
30
4.51194637207664e-014
 70
     32
  0
VERTEX
  8
MY3DLAYER
10
2657.07260781534
20
-501.440108723509
30
4.51194637207664e-014
 70
     32
  0
VERTEX
  8
MY3DLAYER
10
2656.24418069059
20
-500.804434233118
30
4.51194637207664e-014
 70
     32
  0
VERTEX
  8
MY3DLAYER
10
2655.279456871
20
-500.404832543099
30
4.51194637207664e-014
 70
     32
  0
VERTEX
  8
MY3DLAYER
10
2654.24418069059
20
-500.268535848256
30
4.51194637207664e-014
 70
     32
  0
VERTEX
  8
MY3DLAYER
10
2653.20890451018
20
-500.404832543099
30
4.51194637207664e-014
 70
     32
  0
SEQEND
  0
POLYLINE
 8
Layer0
 66
     1
70
    8
 10
0.0
 20
 0.0
 30
0.0
  0
VERTEX
  8
MY3DLAYER
10
2653.18352051881
20
-505.329196020035
30
4.51194637207664e-014
 70
     32
  0
VERTEX
  8
MY3DLAYER
10
2652.94514258491
20
-505.018535848256
30
4.51194637207664e-014
 70
     32
  0
VERTEX
  8
MY3DLAYER
10
2652.79529195116
20
-504.656764415909
30
4.51194637207664e-014
 70
     32
  0
VERTEX
  8
MY3DLAYER
10
2652.74418069059
20
-504.268535848256
30
4.51194637207664e-014
 70
     32
  0
VERTEX
  8
MY3DLAYER
10
2652.79529195116
20
-503.880307280602
30
4.51194637207664e-014
 70
     32
  0
VERTEX
  8
MY3DLAYER
10
2652.94514258491
20
-503.518535848256
30
4.51194637207664e-014
 70
     32
  0
VERTEX
  8
MY3DLAYER
10
2653.18352051881
20
-503.207875676476
30
0.0
 70
     32
  0
VERTEX
  8
MY3DLAYER
10
2653.49418069059
20
-502.969497742579
30
0.0
 70
     32
  0
VERTEX
  8
MY3DLAYER
10
2653.85595212294
20
-502.819647108822
30
0.0
 70
     32
  0
VERTEX
  8
MY3DLAYER
10
2654.24418069059
20
-502.768535848256
30
0.0
 70
     32
  0
VERTEX
  8
MY3DLAYER
10
2654.63240925824
20
-502.819647108822
30
0.0
 70
     32
  0
VERTEX
  8
MY3DLAYER
10
2654.99418069059
20
-502.969497742579
30
0.0
 70
     32
  0
VERTEX
  8
MY3DLAYER
10
2655.30484086237
20
-503.207875676476
30
0.0
 70
     32
  0
VERTEX
  8
MY3DLAYER
10
2655.54321879627
20
-503.518535848256
30
4.51194637207664e-014
 70
     32
  0
VERTEX
  8
MY3DLAYER
10
2655.69306943002
20
-503.880307280602
30
4.51194637207664e-014
 70
     32
  0
VERTEX
  8
MY3DLAYER
10
2655.74418069059
20
-504.268535848256
30
4.51194637207664e-014
 70
     32
  0
VERTEX
  8
MY3DLAYER
10
2655.69306943002
20
-504.656764415909
30
4.51194637207664e-014
 70
     32
  0
VERTEX
  8
MY3DLAYER
10
2655.54321879627
20
-505.018535848256
30
4.51194637207664e-014
 70
     32
  0
VERTEX
  8
MY3DLAYER
10
2655.30484086237
20
-505.329196020035
30
4.51194637207664e-014
 70
     32
  0
VERTEX
  8
MY3DLAYER
10
2654.99418069059
20
-505.567573953932
30
4.51194637207664e-014
 70
     32
  0
VERTEX
  8
MY3DLAYER
10
2654.63240925824
20
-505.717424587689
30
4.51194637207664e-014
 70
     32
  0
VERTEX
  8
MY3DLAYER
10
2654.24418069059
20
-505.768535848256
30
4.51194637207664e-014
 70
     32
  0
VERTEX
  8
MY3DLAYER
10
2653.85595212294
20
-505.717424587689
30
4.51194637207664e-014
 70
     32
  0
VERTEX
  8
MY3DLAYER
10
2653.49418069059
20
-505.567573953932
30
4.51194637207664e-014
 70
     32
  0
VERTEX
  8
MY3DLAYER
10
2653.18352051881
20
-505.329196020035
30
4.51194637207664e-014
 70
     32
  0
SEQEND
  0
POLYLINE
 8
Layer0
 66
     1
70
    8
 10
0.0
 20
 0.0
 30
0.0
  0
VERTEX
  8
MY3DLAYER
10
2461.41575356584
20
-501.440108723509
30
4.51194637207664e-014
 70
     32
  0
VERTEX
  8
MY3DLAYER
10
2460.78007907545
20
-502.268535848256
30
4.51194637207664e-014
 70
     32
  0
VERTEX
  8
MY3DLAYER
10
2460.38047738543
20
-503.233259667845
30
4.51194637207664e-014
 70
     32
  0
VERTEX
  8
MY3DLAYER
10
2460.24418069059
20
-504.268535848256
30
4.51194637207664e-014
 70
     32
  0
VERTEX
  8
MY3DLAYER
10
2460.38047738543
20
-505.303812028666
30
4.51194637207664e-014
 70
     32
  0
VERTEX
  8
MY3DLAYER
10
2460.78007907545
20
-506.268535848256
30
4.51194637207664e-014
 70
     32
  0
VERTEX
  8
MY3DLAYER
10
2461.41575356584
20
-507.096962973002
30
4.51194637207664e-014
 70
     32
  0
VERTEX
  8
MY3DLAYER
10
2462.24418069059
20
-507.732637463393
30
4.51194637207664e-014
 70
     32
  0
VERTEX
  8
MY3DLAYER
10
2463.20890451018
20
-508.132239153412
30
4.51194637207664e-014
 70
     32
  0
VERTEX
  8
MY3DLAYER
10
2464.24418069059
20
-508.268535848256
30
4.51194637207664e-014
 70
     32
  0
VERTEX
  8
MY3DLAYER
10
2465.279456871
20
-508.132239153412
30
4.51194637207664e-014
 70
     32
  0
VERTEX
  8
MY3DLAYER
10
2466.24418069059
20
-507.732637463393
30
4.51194637207664e-014
 70
     32
  0
VERTEX
  8
MY3DLAYER
10
2467.07260781534
20
-507.096962973002
30
4.51194637207664e-014
 70
     32
  0
VERTEX
  8
MY3DLAYER
10
2467.70828230573
20
-506.268535848256
30
4.51194637207664e-014
 70
     32
  0
VERTEX
  8
MY3DLAYER
10
2468.10788399575
20
-505.303812028666
30
4.51194637207664e-014
 70
     32
  0
VERTEX
  8
MY3DLAYER
10
2468.24418069059
20
-504.268535848256
30
4.51194637207664e-014
 70
     32
  0
VERTEX
  8
MY3DLAYER
10
2468.10788399575
20
-503.233259667845
30
4.51194637207664e-014
 70
     32
  0
VERTEX
  8
MY3DLAYER
10
2467.70828230573
20
-502.268535848256
30
4.51194637207664e-014
 70
     32
  0
VERTEX
  8
MY3DLAYER
10
2467.07260781534
20
-501.440108723509
30
4.51194637207664e-014
 70
     32
  0
VERTEX
  8
MY3DLAYER
10
2466.24418069059
20
-500.804434233118
30
4.51194637207664e-014
 70
     32
  0
VERTEX
  8
MY3DLAYER
10
2465.279456871
20
-500.404832543099
30
4.51194637207664e-014
 70
     32
  0
VERTEX
  8
MY3DLAYER
10
2464.24418069059
20
-500.268535848256
30
4.51194637207664e-014
 70
     32
  0
VERTEX
  8
MY3DLAYER
10
2463.20890451018
20
-500.404832543099
30
4.51194637207664e-014
 70
     32
  0
VERTEX
  8
MY3DLAYER
10
2462.24418069059
20
-500.804434233118
30
4.51194637207664e-014
 70
     32
  0
VERTEX
  8
MY3DLAYER
10
2461.41575356584
20
-501.440108723509
30
4.51194637207664e-014
 70
     32
  0
SEQEND
  0
POLYLINE
 8
Layer0
 66
     1
70
    8
 10
0.0
 20
 0.0
 30
0.0
  0
VERTEX
  8
MY3DLAYER
10
2462.94514258491
20
-505.018535848255
30
4.51194637207664e-014
 70
     32
  0
VERTEX
  8
MY3DLAYER
10
2462.79529195116
20
-504.656764415908
30
4.51194637207664e-014
 70
     32
  0
VERTEX
  8
MY3DLAYER
10
2462.74418069059
20
-504.268535848255
30
4.51194637207664e-014
 70
     32
  0
VERTEX
  8
MY3DLAYER
10
2462.79529195116
20
-503.880307280601
30
4.51194637207664e-014
 70
     32
  0
VERTEX
  8
MY3DLAYER
10
2462.94514258491
20
-503.518535848254
30
4.51194637207664e-014
 70
     32
  0
VERTEX
  8
MY3DLAYER
10
2463.18352051881
20
-503.207875676475
30
4.51194637207664e-014
 70
     32
  0
VERTEX
  8
MY3DLAYER
10
2463.49418069059
20
-502.969497742578
30
4.51194637207664e-014
 70
     32
  0
VERTEX
  8
MY3DLAYER
10
2463.85595212294
20
-502.819647108821
30
4.51194637207664e-014
 70
     32
  0
VERTEX
  8
MY3DLAYER
10
2464.24418069059
20
-502.768535848254
30
4.51194637207664e-014
 70
     32
  0
VERTEX
  8
MY3DLAYER
10
2464.63240925824
20
-502.819647108821
30
4.51194637207664e-014
 70
     32
  0
VERTEX
  8
MY3DLAYER
10
2464.99418069059
20
-502.969497742578
30
4.51194637207664e-014
 70
     32
  0
VERTEX
  8
MY3DLAYER
10
2465.30484086237
20
-503.207875676475
30
4.51194637207664e-014
 70
     32
  0
VERTEX
  8
MY3DLAYER
10
2465.54321879627
20
-503.518535848254
30
4.51194637207664e-014
 70
     32
  0
VERTEX
  8
MY3DLAYER
10
2465.69306943002
20
-503.880307280601
30
4.51194637207664e-014
 70
     32
  0
VERTEX
  8
MY3DLAYER
10
2465.74418069059
20
-504.268535848255
30
4.51194637207664e-014
 70
     32
  0
VERTEX
  8
MY3DLAYER
10
2465.69306943002
20
-504.656764415908
30
4.51194637207664e-014
 70
     32
  0
VERTEX
  8
MY3DLAYER
10
2465.54321879627
20
-505.018535848255
30
4.51194637207664e-014
 70
     32
  0
VERTEX
  8
MY3DLAYER
10
2465.30484086237
20
-505.329196020034
30
4.51194637207664e-014
 70
     32
  0
VERTEX
  8
MY3DLAYER
10
2464.99418069059
20
-505.567573953931
30
4.51194637207664e-014
 70
     32
  0
VERTEX
  8
MY3DLAYER
10
2464.63240925824
20
-505.717424587688
30
4.51194637207664e-014
 70
     32
  0
VERTEX
  8
MY3DLAYER
10
2464.24418069059
20
-505.768535848255
30
4.51194637207664e-014
 70
     32
  0
VERTEX
  8
MY3DLAYER
10
2463.85595212294
20
-505.717424587688
30
4.51194637207664e-014
 70
     32
  0
VERTEX
  8
MY3DLAYER
10
2463.49418069059
20
-505.567573953931
30
4.51194637207664e-014
 70
     32
  0
VERTEX
  8
MY3DLAYER
10
2463.18352051881
20
-505.329196020034
30
4.51194637207664e-014
 70
     32
  0
VERTEX
  8
MY3DLAYER
10
2462.94514258491
20
-505.018535848255
30
4.51194637207664e-014
 70
     32
  0
SEQEND
  0
POLYLINE
 8
Layer0
 66
     1
70
    8
 10
0.0
 20
 0.0
 30
0.0
  0
VERTEX
  8
MY3DLAYER
10
2562.70828230573
20
-316.268535848255
30
4.51194637207664e-014
 70
     32
  0
VERTEX
  8
MY3DLAYER
10
2563.10788399575
20
-315.303812028666
30
4.51194637207664e-014
 70
     32
  0
VERTEX
  8
MY3DLAYER
10
2563.24418069059
20
-314.268535848255
30
4.51194637207664e-014
 70
     32
  0
VERTEX
  8
MY3DLAYER
10
2563.10788399575
20
-313.233259667845
30
4.51194637207664e-014
 70
     32
  0
VERTEX
  8
MY3DLAYER
10
2562.70828230573
20
-312.268535848255
30
4.51194637207664e-014
 70
     32
  0
VERTEX
  8
MY3DLAYER
10
2562.07260781534
20
-311.440108723509
30
4.51194637207664e-014
 70
     32
  0
VERTEX
  8
MY3DLAYER
10
2561.24418069059
20
-310.804434233118
30
4.51194637207664e-014
 70
     32
  0
VERTEX
  8
MY3DLAYER
10
2560.279456871
20
-310.404832543099
30
4.51194637207664e-014
 70
     32
  0
VERTEX
  8
MY3DLAYER
10
2559.24418069059
20
-310.268535848255
30
4.51194637207664e-014
 70
     32
  0
VERTEX
  8
MY3DLAYER
10
2558.20890451018
20
-310.404832543099
30
4.51194637207664e-014
 70
     32
  0
VERTEX
  8
MY3DLAYER
10
2557.24418069059
20
-310.804434233118
30
4.51194637207664e-014
 70
     32
  0
VERTEX
  8
MY3DLAYER
10
2556.41575356585
20
-311.440108723509
30
4.51194637207664e-014
 70
     32
  0
VERTEX
  8
MY3DLAYER
10
2555.78007907545
20
-312.268535848255
30
4.51194637207664e-014
 70
     32
  0
VERTEX
  8
MY3DLAYER
10
2555.38047738544
20
-313.233259667845
30
4.51194637207664e-014
 70
     32
  0
VERTEX
  8
MY3DLAYER
10
2555.24418069059
20
-314.268535848255
30
4.51194637207664e-014
 70
     32
  0
VERTEX
  8
MY3DLAYER
10
2555.38047738544
20
-315.303812028666
30
4.51194637207664e-014
 70
     32
  0
VERTEX
  8
MY3DLAYER
10
2555.78007907545
20
-316.268535848255
30
4.51194637207664e-014
 70
     32
  0
VERTEX
  8
MY3DLAYER
10
2556.41575356585
20
-317.096962973002
30
4.51194637207664e-014
 70
     32
  0
VERTEX
  8
MY3DLAYER
10
2557.24418069059
20
-317.732637463393
30
4.51194637207664e-014
 70
     32
  0
VERTEX
  8
MY3DLAYER
10
2558.20890451018
20
-318.132239153412
30
4.51194637207664e-014
 70
     32
  0
VERTEX
  8
MY3DLAYER
10
2559.24418069059
20
-318.268535848255
30
4.51194637207664e-014
 70
     32
  0
VERTEX
  8
MY3DLAYER
10
2560.279456871
20
-318.132239153412
30
4.51194637207664e-014
 70
     32
  0
VERTEX
  8
MY3DLAYER
10
2561.24418069059
20
-317.732637463393
30
4.51194637207664e-014
 70
     32
  0
VERTEX
  8
MY3DLAYER
10
2562.07260781534
20
-317.096962973002
30
4.51194637207664e-014
 70
     32
  0
VERTEX
  8
MY3DLAYER
10
2562.70828230573
20
-316.268535848255
30
4.51194637207664e-014
 70
     32
  0
SEQEND
  0
POLYLINE
 8
Layer0
 66
     1
70
    8
 10
0.0
 20
 0.0
 30
0.0
  0
VERTEX
  8
MY3DLAYER
10
2559.24418069059
20
-312.768535848255
30
4.51194637207664e-014
 70
     32
  0
VERTEX
  8
MY3DLAYER
10
2559.63240925825
20
-312.819647108822
30
4.51194637207664e-014
 70
     32
  0
VERTEX
  8
MY3DLAYER
10
2559.99418069059
20
-312.969497742579
30
4.51194637207664e-014
 70
     32
  0
VERTEX
  8
MY3DLAYER
10
2560.30484086237
20
-313.207875676476
30
4.51194637207664e-014
 70
     32
  0
VERTEX
  8
MY3DLAYER
10
2560.54321879627
20
-313.518535848255
30
4.51194637207664e-014
 70
     32
  0
VERTEX
  8
MY3DLAYER
10
2560.69306943003
20
-313.880307280602
30
4.51194637207664e-014
 70
     32
  0
VERTEX
  8
MY3DLAYER
10
2560.74418069059
20
-314.268535848255
30
4.51194637207664e-014
 70
     32
  0
VERTEX
  8
MY3DLAYER
10
2560.69306943003
20
-314.656764415909
30
4.51194637207664e-014
 70
     32
  0
VERTEX
  8
MY3DLAYER
10
2560.54321879627
20
-315.018535848255
30
4.51194637207664e-014
 70
     32
  0
VERTEX
  8
MY3DLAYER
10
2560.30484086237
20
-315.329196020035
30
4.51194637207664e-014
 70
     32
  0
VERTEX
  8
MY3DLAYER
10
2559.99418069059
20
-315.567573953932
30
4.51194637207664e-014
 70
     32
  0
VERTEX
  8
MY3DLAYER
10
2559.63240925825
20
-315.717424587689
30
4.51194637207664e-014
 70
     32
  0
VERTEX
  8
MY3DLAYER
10
2559.24418069059
20
-315.768535848255
30
4.51194637207664e-014
 70
     32
  0
VERTEX
  8
MY3DLAYER
10
2558.85595212294
20
-315.717424587689
30
4.51194637207664e-014
 70
     32
  0
VERTEX
  8
MY3DLAYER
10
2558.49418069059
20
-315.567573953932
30
4.51194637207664e-014
 70
     32
  0
VERTEX
  8
MY3DLAYER
10
2558.18352051881
20
-315.329196020035
30
4.51194637207664e-014
 70
     32
  0
VERTEX
  8
MY3DLAYER
10
2557.94514258492
20
-315.018535848255
30
4.51194637207664e-014
 70
     32
  0
VERTEX
  8
MY3DLAYER
10
2557.79529195116
20
-314.656764415909
30
4.51194637207664e-014
 70
     32
  0
VERTEX
  8
MY3DLAYER
10
2557.74418069059
20
-314.268535848255
30
4.51194637207664e-014
 70
     32
  0
VERTEX
  8
MY3DLAYER
10
2557.79529195116
20
-313.880307280602
30
4.51194637207664e-014
 70
     32
  0
VERTEX
  8
MY3DLAYER
10
2557.94514258492
20
-313.518535848255
30
4.51194637207664e-014
 70
     32
  0
VERTEX
  8
MY3DLAYER
10
2558.18352051881
20
-313.207875676476
30
4.51194637207664e-014
 70
     32
  0
VERTEX
  8
MY3DLAYER
10
2558.49418069059
20
-312.969497742579
30
4.51194637207664e-014
 70
     32
  0
VERTEX
  8
MY3DLAYER
10
2558.85595212294
20
-312.819647108822
30
4.51194637207664e-014
 70
     32
  0
VERTEX
  8
MY3DLAYER
10
2559.24418069059
20
-312.768535848255
30
4.51194637207664e-014
 70
     32
  0
SEQEND
  0
POLYLINE
 8
Layer0
 66
     1
70
    8
 10
0.0
 20
 0.0
 30
0.0
  0
VERTEX
  8
MY3DLAYER
10
2459.24418069059
20
-309.268533506361
30
0.0
 70
     32
  0
VERTEX
  8
MY3DLAYER
10
2459.24418069059
20
-509.268533506361
30
0.0
 70
     32
  0
VERTEX
  8
MY3DLAYER
10
2659.24418069059
20
-509.268533506361
30
0.0
 70
     32
  0
VERTEX
  8
MY3DLAYER
10
2659.24418069059
20
-309.268533506361
30
0.0
 70
     32
  0
VERTEX
  8
MY3DLAYER
10
2459.24418069059
20
-309.268533506361
30
0.0
 70
     32
  0
SEQEND
  0
POLYLINE
 8
Layer0
 66
     1
70
    8
 10
0.0
 20
 0.0
 30
0.0
  0
VERTEX
  8
MY3DLAYER
10
2652.24418069059
20
-500.804434233118
30
4.51194637207664e-014
 70
     32
  0
VERTEX
  8
MY3DLAYER
10
2653.20890451018
20
-500.404832543099
30
4.51194637207664e-014
 70
     32
  0
VERTEX
  8
MY3DLAYER
10
2654.24418069059
20
-500.268535848256
30
4.51194637207664e-014
 70
     32
  0
VERTEX
  8
MY3DLAYER
10
2655.279456871
20
-500.404832543099
30
4.51194637207664e-014
 70
     32
  0
VERTEX
  8
MY3DLAYER
10
2656.24418069059
20
-500.804434233118
30
4.51194637207664e-014
 70
     32
  0
VERTEX
  8
MY3DLAYER
10
2657.07260781534
20
-501.440108723509
30
4.51194637207664e-014
 70
     32
  0
VERTEX
  8
MY3DLAYER
10
2657.70828230573
20
-502.268535848256
30
4.51194637207664e-014
 70
     32
  0
VERTEX
  8
MY3DLAYER
10
2658.10788399575
20
-503.233259667845
30
4.51194637207664e-014
 70
     32
  0
VERTEX
  8
MY3DLAYER
10
2658.24418069059
20
-504.268535848256
30
4.51194637207664e-014
 70
     32
  0
VERTEX
  8
MY3DLAYER
10
2658.10788399575
20
-505.303812028666
30
4.51194637207664e-014
 70
     32
  0
VERTEX
  8
MY3DLAYER
10
2657.70828230573
20
-506.268535848256
30
4.51194637207664e-014
 70
     32
  0
VERTEX
  8
MY3DLAYER
10
2657.07260781534
20
-507.096962973002
30
4.51194637207664e-014
 70
     32
  0
VERTEX
  8
MY3DLAYER
10
2656.24418069059
20
-507.732637463393
30
4.51194637207664e-014
 70
     32
  0
VERTEX
  8
MY3DLAYER
10
2655.279456871
20
-508.132239153412
30
4.51194637207664e-014
 70
     32
  0
VERTEX
  8
MY3DLAYER
10
2654.24418069059
20
-508.268535848256
30
4.51194637207664e-014
 70
     32
  0
VERTEX
  8
MY3DLAYER
10
2653.20890451018
20
-508.132239153412
30
4.51194637207664e-014
 70
     32
  0
VERTEX
  8
MY3DLAYER
10
2652.24418069059
20
-507.732637463393
30
4.51194637207664e-014
 70
     32
  0
VERTEX
  8
MY3DLAYER
10
2651.41575356584
20
-507.096962973002
30
4.51194637207664e-014
 70
     32
  0
VERTEX
  8
MY3DLAYER
10
2650.78007907545
20
-506.268535848256
30
4.51194637207664e-014
 70
     32
  0
VERTEX
  8
MY3DLAYER
10
2650.38047738543
20
-505.303812028666
30
4.51194637207664e-014
 70
     32
  0
VERTEX
  8
MY3DLAYER
10
2650.24418069059
20
-504.268535848256
30
4.51194637207664e-014
 70
     32
  0
VERTEX
  8
MY3DLAYER
10
2650.38047738543
20
-503.233259667845
30
4.51194637207664e-014
 70
     32
  0
VERTEX
  8
MY3DLAYER
10
2650.78007907545
20
-502.268535848256
30
4.51194637207664e-014
 70
     32
  0
VERTEX
  8
MY3DLAYER
10
2651.41575356584
20
-501.440108723509
30
4.51194637207664e-014
 70
     32
  0
VERTEX
  8
MY3DLAYER
10
2652.24418069059
20
-500.804434233118
30
4.51194637207664e-014
 70
     32
  0
SEQEND
  0
POLYLINE
 8
Layer0
 66
     1
70
    8
 10
0.0
 20
 0.0
 30
0.0
  0
VERTEX
  8
MY3DLAYER
10
2460.78007907545
20
-502.268535848256
30
4.51194637207664e-014
 70
     32
  0
VERTEX
  8
MY3DLAYER
10
2461.41575356584
20
-501.440108723509
30
4.51194637207664e-014
 70
     32
  0
VERTEX
  8
MY3DLAYER
10
2462.24418069059
20
-500.804434233118
30
4.51194637207664e-014
 70
     32
  0
VERTEX
  8
MY3DLAYER
10
2463.20890451018
20
-500.404832543099
30
4.51194637207664e-014
 70
     32
  0
VERTEX
  8
MY3DLAYER
10
2464.24418069059
20
-500.268535848256
30
4.51194637207664e-014
 70
     32
  0
VERTEX
  8
MY3DLAYER
10
2465.279456871
20
-500.404832543099
30
4.51194637207664e-014
 70
     32
  0
VERTEX
  8
MY3DLAYER
10
2466.24418069059
20
-500.804434233118
30
4.51194637207664e-014
 70
     32
  0
VERTEX
  8
MY3DLAYER
10
2467.07260781534
20
-501.440108723509
30
4.51194637207664e-014
 70
     32
  0
VERTEX
  8
MY3DLAYER
10
2467.70828230573
20
-502.268535848256
30
4.51194637207664e-014
 70
     32
  0
VERTEX
  8
MY3DLAYER
10
2468.10788399575
20
-503.233259667845
30
4.51194637207664e-014
 70
     32
  0
VERTEX
  8
MY3DLAYER
10
2468.24418069059
20
-504.268535848256
30
4.51194637207664e-014
 70
     32
  0
VERTEX
  8
MY3DLAYER
10
2468.10788399575
20
-505.303812028666
30
4.51194637207664e-014
 70
     32
  0
VERTEX
  8
MY3DLAYER
10
2467.70828230573
20
-506.268535848256
30
4.51194637207664e-014
 70
     32
  0
VERTEX
  8
MY3DLAYER
10
2467.07260781534
20
-507.096962973002
30
4.51194637207664e-014
 70
     32
  0
VERTEX
  8
MY3DLAYER
10
2466.24418069059
20
-507.732637463393
30
4.51194637207664e-014
 70
     32
  0
VERTEX
  8
MY3DLAYER
10
2465.279456871
20
-508.132239153412
30
4.51194637207664e-014
 70
     32
  0
VERTEX
  8
MY3DLAYER
10
2464.24418069059
20
-508.268535848256
30
4.51194637207664e-014
 70
     32
  0
VERTEX
  8
MY3DLAYER
10
2463.20890451018
20
-508.132239153412
30
4.51194637207664e-014
 70
     32
  0
VERTEX
  8
MY3DLAYER
10
2462.24418069059
20
-507.732637463393
30
4.51194637207664e-014
 70
     32
  0
VERTEX
  8
MY3DLAYER
10
2461.41575356584
20
-507.096962973002
30
4.51194637207664e-014
 70
     32
  0
VERTEX
  8
MY3DLAYER
10
2460.78007907545
20
-506.268535848256
30
4.51194637207664e-014
 70
     32
  0
VERTEX
  8
MY3DLAYER
10
2460.38047738543
20
-505.303812028666
30
4.51194637207664e-014
 70
     32
  0
VERTEX
  8
MY3DLAYER
10
2460.24418069059
20
-504.268535848256
30
4.51194637207664e-014
 70
     32
  0
VERTEX
  8
MY3DLAYER
10
2460.38047738543
20
-503.233259667845
30
4.51194637207664e-014
 70
     32
  0
VERTEX
  8
MY3DLAYER
10
2460.78007907545
20
-502.268535848256
30
4.51194637207664e-014
 70
     32
  0
SEQEND
  0
POLYLINE
 8
Layer0
 66
     1
70
    8
 10
0.0
 20
 0.0
 30
0.0
  0
VERTEX
  8
MY3DLAYER
10
2563.10788399575
20
-315.303812028666
30
4.51194637207664e-014
 70
     32
  0
VERTEX
  8
MY3DLAYER
10
2562.70828230573
20
-316.268535848255
30
4.51194637207664e-014
 70
     32
  0
VERTEX
  8
MY3DLAYER
10
2562.07260781534
20
-317.096962973002
30
4.51194637207664e-014
 70
     32
  0
VERTEX
  8
MY3DLAYER
10
2561.24418069059
20
-317.732637463393
30
4.51194637207664e-014
 70
     32
  0
VERTEX
  8
MY3DLAYER
10
2560.279456871
20
-318.132239153412
30
4.51194637207664e-014
 70
     32
  0
VERTEX
  8
MY3DLAYER
10
2559.24418069059
20
-318.268535848255
30
4.51194637207664e-014
 70
     32
  0
VERTEX
  8
MY3DLAYER
10
2558.20890451018
20
-318.132239153412
30
4.51194637207664e-014
 70
     32
  0
VERTEX
  8
MY3DLAYER
10
2557.24418069059
20
-317.732637463393
30
4.51194637207664e-014
 70
     32
  0
VERTEX
  8
MY3DLAYER
10
2556.41575356585
20
-317.096962973002
30
4.51194637207664e-014
 70
     32
  0
VERTEX
  8
MY3DLAYER
10
2555.78007907545
20
-316.268535848255
30
4.51194637207664e-014
 70
     32
  0
VERTEX
  8
MY3DLAYER
10
2555.38047738544
20
-315.303812028666
30
4.51194637207664e-014
 70
     32
  0
VERTEX
  8
MY3DLAYER
10
2555.24418069059
20
-314.268535848255
30
4.51194637207664e-014
 70
     32
  0
VERTEX
  8
MY3DLAYER
10
2555.38047738544
20
-313.233259667845
30
4.51194637207664e-014
 70
     32
  0
VERTEX
  8
MY3DLAYER
10
2555.78007907545
20
-312.268535848255
30
4.51194637207664e-014
 70
     32
  0
VERTEX
  8
MY3DLAYER
10
2556.41575356585
20
-311.440108723509
30
4.51194637207664e-014
 70
     32
  0
VERTEX
  8
MY3DLAYER
10
2557.24418069059
20
-310.804434233118
30
4.51194637207664e-014
 70
     32
  0
VERTEX
  8
MY3DLAYER
10
2558.20890451018
20
-310.404832543099
30
4.51194637207664e-014
 70
     32
  0
VERTEX
  8
MY3DLAYER
10
2559.24418069059
20
-310.268535848255
30
4.51194637207664e-014
 70
     32
  0
VERTEX
  8
MY3DLAYER
10
2560.279456871
20
-310.404832543099
30
4.51194637207664e-014
 70
     32
  0
VERTEX
  8
MY3DLAYER
10
2561.24418069059
20
-310.804434233118
30
4.51194637207664e-014
 70
     32
  0
VERTEX
  8
MY3DLAYER
10
2562.07260781534
20
-311.440108723509
30
4.51194637207664e-014
 70
     32
  0
VERTEX
  8
MY3DLAYER
10
2562.70828230573
20
-312.268535848255
30
4.51194637207664e-014
 70
     32
  0
VERTEX
  8
MY3DLAYER
10
2563.10788399575
20
-313.233259667845
30
4.51194637207664e-014
 70
     32
  0
VERTEX
  8
MY3DLAYER
10
2563.24418069059
20
-314.268535848255
30
4.51194637207664e-014
 70
     32
  0
VERTEX
  8
MY3DLAYER
10
2563.10788399575
20
-315.303812028666
30
4.51194637207664e-014
 70
     32
  0
SEQEND
  0
POLYLINE
 8
Layer0
 66
     1
70
    8
 10
0.0
 20
 0.0
 30
0.0
  0
VERTEX
  8
MY3DLAYER
10
2484.24418069059
20
-334.268533506361
30
0.0
 70
     32
  0
VERTEX
  8
MY3DLAYER
10
2634.24418069059
20
-334.268533506361
30
0.0
 70
     32
  0
VERTEX
  8
MY3DLAYER
10
2634.24418069059
20
-484.268533506361
30
0.0
 70
     32
  0
VERTEX
  8
MY3DLAYER
10
2484.24418069059
20
-484.268533506361
30
0.0
 70
     32
  0
VERTEX
  8
MY3DLAYER
10
2484.24418069059
20
-334.268533506361
30
0.0
 70
     32
  0
SEQEND
 0
ENDSEC
 0
EOF
