 0
SECTION
 2
ENTITIES
  0
LINE
 8
GROUP0
10
6622.2804065879
20
2943.13310857061
30
0.000162225842432162
11
6622.2804065879
21
3084.63344615936
31
0.000256558309338412
  0
LINE
 8
GROUP0
10
6602.2804065879
20
3084.63344615936
30
0.000256558309335592
11
6622.2804065879
21
3084.63344615936
31
0.000256558309338412
  0
LINE
 8
GROUP0
10
6602.2804065879
20
3220.63344615936
30
0.000256558309116339
11
6602.2804065879
21
3084.63344615936
31
0.000256558309335592
  0
LINE
 8
GROUP0
10
6622.2804065879
20
3220.63344615936
30
0.000256558309119159
11
6602.2804065879
21
3220.63344615936
31
0.000256558309116339
  0
LINE
 8
GROUP0
10
6622.2804065879
20
3220.63344615936
30
0.000256558309119159
11
6622.2804065879
21
3362.13310857044
31
0.000162225842124786
  0
LINE
 8
GROUP0
10
6622.2804065879
20
3362.13310857044
30
0.000162225842124786
11
6597.2804065879
21
3362.13310857044
31
0.000162225842122671
  0
LINE
 8
GROUP0
10
6597.2804065879
20
3362.13310857044
30
0.000162225842122671
11
6597.2804065879
21
3372.13310857044
31
0.000163952542333462
  0
LINE
 8
GROUP0
10
6597.2804065879
20
3372.13310857044
30
0.000163952542333462
11
6537.28037184763
21
3372.13310857044
31
0.000220662777569125
  0
LINE
 8
GROUP0
10
6537.28037184763
20
3362.13310857044
30
0.000218936077359744
11
6537.28037184763
21
3372.13310857044
31
0.000220662777569125
  0
LINE
 8
GROUP0
10
6537.28037184763
20
3362.13310857044
30
0.000218936077359744
11
6532.28037184763
21
3362.13310857044
31
0.000222271972275784
  0
LINE
 8
GROUP0
10
6532.28037184763
20
3362.13310857044
30
0.000222271972275784
11
6532.28037453918
21
3320.13344615936
31
0.000267205548809346
  0
LINE
 8
GROUP0
10
6532.28037453918
20
3320.13344615936
30
0.000267205548809346
11
6512.28037453918
21
3320.13344615936
31
0.000267205548808641
  0
LINE
 8
GROUP0
10
6512.28037453918
20
3320.13344615936
30
0.000267205548808641
11
6512.28038956797
21
2985.13251591408
31
0.000146889146954143
  0
LINE
 8
GROUP0
10
6512.28038956797
20
2985.13251591408
30
0.000146889146954143
11
6532.28040658791
21
2985.13251591408
31
0.000146889146954848
  0
LINE
 8
GROUP0
10
6532.28040658791
20
2985.13251591408
30
0.000146889146954848
11
6532.2804065879
21
2943.13310857061
31
0.000162225842425817
  0
LINE
 8
GROUP0
10
6532.2804065879
20
2943.13310857061
30
0.000162225842425817
11
6537.28037184763
21
2943.13310857061
31
0.00022066277716446
  0
LINE
 8
GROUP0
10
6537.28037184763
20
2943.13310857061
30
0.00022066277716446
11
6537.28037184763
21
2933.13310857061
31
0.000218936077046022
  0
LINE
 8
GROUP0
10
6537.28037184763
20
2933.13310857061
30
0.000218936077046022
11
6597.2804065879
21
2933.13310857061
31
0.000162225841808949
  0
LINE
 8
GROUP0
10
6597.2804065879
20
2943.13310857061
30
0.000163952541927387
11
6597.2804065879
21
2933.13310857061
31
0.000162225841808949
  0
LINE
 8
GROUP0
10
6597.2804065879
20
2943.13310857061
30
0.000163952541927387
11
6622.2804065879
21
2943.13310857061
31
0.000162225842432162
  0
LINE
 8
GROUP0
10
6524.21225023931
20
3004.61487782381
30
2.08166417223987e-005
11
6524.0124493943
21
3004.13251591402
31
2.06959013169805e-005
  0
LINE
 8
GROUP0
10
6524.0124493943
20
3004.13251591402
30
2.06959013169805e-005
11
6523.69461214911
21
3003.71830235164
31
2.05648029243999e-005
  0
LINE
 8
GROUP0
10
6523.69461214911
20
3003.71830235164
30
2.05648029243999e-005
11
6523.28039858673
21
3003.40046510645
31
2.04322802012935e-005
  0
LINE
 8
GROUP0
10
6523.28039858673
20
3003.40046510645
30
2.04322802012935e-005
11
6522.79803667694
21
3003.20066426144
31
2.03073657040476e-005
  0
LINE
 8
GROUP0
10
6522.79803667694
20
3003.20066426144
30
2.03073657040476e-005
11
6522.28039858673
21
3003.13251591402
31
2.01985707654784e-005
  0
LINE
 8
GROUP0
10
6522.28039858673
20
3003.13251591402
30
2.01985707654784e-005
11
6521.76276049653
21
3003.20066426144
31
2.01133101391859e-005
  0
LINE
 8
GROUP0
10
6521.76276049653
20
3003.20066426144
30
2.01133101391859e-005
11
6521.28039858673
21
3003.40046510645
31
2.00573944887761e-005
  0
LINE
 8
GROUP0
10
6521.28039858673
20
3003.40046510645
30
2.00573944887761e-005
11
6520.86618502436
21
3003.71830235164
31
2.00346340662461e-005
  0
LINE
 8
GROUP0
10
6520.86618502436
20
3003.71830235164
30
2.00346340662461e-005
11
6520.54834777916
21
3004.13251591402
31
2.00465802550065e-005
  0
LINE
 8
GROUP0
10
6520.54834777916
20
3004.13251591402
30
2.00465802550065e-005
11
6520.34854693416
21
3004.61487782381
31
2.00924187417961e-005
  0
LINE
 8
GROUP0
10
6520.34854693416
20
3004.61487782381
30
2.00924187417961e-005
11
6520.28039858673
21
3005.13251591402
31
2.01690250946962e-005
  0
LINE
 8
GROUP0
10
6520.28039858673
20
3005.13251591402
30
2.01690250946962e-005
11
6520.34854693416
21
3005.65015400422
31
2.02711798906186e-005
  0
LINE
 8
GROUP0
10
6520.34854693416
20
3005.65015400422
30
2.02711798906186e-005
11
6520.54834777916
21
3006.13251591402
31
2.03919202967417e-005
  0
LINE
 8
GROUP0
10
6520.54834777916
20
3006.13251591402
30
2.03919202967417e-005
11
6520.86618502436
21
3006.54672947639
31
2.05230186886174e-005
  0
LINE
 8
GROUP0
10
6520.86618502436
20
3006.54672947639
30
2.05230186886174e-005
11
6521.28039858673
21
3006.86456672158
31
2.06555414124288e-005
  0
LINE
 8
GROUP0
10
6521.28039858673
20
3006.86456672158
30
2.06555414124288e-005
11
6521.76276049653
21
3007.06436756659
31
2.07804559096747e-005
  0
LINE
 8
GROUP0
10
6521.76276049653
20
3007.06436756659
30
2.07804559096747e-005
11
6522.28039858673
21
3007.13251591402
31
2.08892508482439e-005
  0
LINE
 8
GROUP0
10
6522.28039858673
20
3007.13251591402
30
2.08892508482439e-005
11
6522.79803667694
21
3007.06436756659
31
2.09745114745363e-005
  0
LINE
 8
GROUP0
10
6522.79803667694
20
3007.06436756659
30
2.09745114745363e-005
11
6523.28039858673
21
3006.86456672158
31
2.10304271249462e-005
  0
LINE
 8
GROUP0
10
6523.28039858673
20
3006.86456672158
30
2.10304271249462e-005
11
6523.69461214911
21
3006.54672947639
31
2.10531875474762e-005
  0
LINE
 8
GROUP0
10
6523.69461214911
20
3006.54672947639
30
2.10531875474762e-005
11
6524.0124493943
21
3006.13251591402
31
2.10412413587158e-005
  0
LINE
 8
GROUP0
10
6524.0124493943
20
3006.13251591402
30
2.10412413587158e-005
11
6524.21225023931
21
3005.65015400422
31
2.09954028705162e-005
  0
LINE
 8
GROUP0
10
6524.21225023931
20
3005.65015400422
30
2.09954028705162e-005
11
6524.28039858673
21
3005.13251591402
31
2.09187965190261e-005
  0
LINE
 8
GROUP0
10
6524.28039858673
20
3005.13251591402
30
2.09187965190261e-005
11
6524.21225023931
21
3004.61487782381
31
2.08166417223987e-005
  0
LINE
 8
GROUP0
10
6520.28043551774
20
3300.13344615921
30
1.34396160084149e-007
11
6520.34858386516
21
3300.65108424942
31
2.36550958121473e-007
  0
LINE
 8
GROUP0
10
6520.34858386516
20
3300.65108424942
30
2.36550958121473e-007
11
6520.54838471017
21
3301.13344615921
31
3.5729136353968e-007
  0
LINE
 8
GROUP0
10
6520.54838471017
20
3301.13344615921
30
3.5729136353968e-007
11
6520.86622195537
21
3301.54765972159
31
4.88389756120311e-007
  0
LINE
 8
GROUP0
10
6520.86622195537
20
3301.54765972159
30
4.88389756120311e-007
11
6521.28043551774
21
3301.86549696678
31
6.20912477816704e-007
  0
LINE
 8
GROUP0
10
6521.28043551774
20
3301.86549696678
30
6.20912477816704e-007
11
6521.76279742754
21
3302.06529781179
31
7.4582697647263e-007
  0
LINE
 8
GROUP0
10
6521.76279742754
20
3302.06529781179
30
7.4582697647263e-007
11
6522.28043551774
21
3302.13344615921
31
8.5462191504182e-007
  0
LINE
 8
GROUP0
10
6522.28043551774
20
3302.13344615921
30
8.5462191504182e-007
11
6522.79807360795
21
3302.06529781179
31
9.39882541334258e-007
  0
LINE
 8
GROUP0
10
6522.79807360795
20
3302.06529781179
30
9.39882541334258e-007
11
6523.28043551774
21
3301.86549696678
31
9.9579819033413e-007
  0
LINE
 8
GROUP0
10
6523.28043551774
20
3301.86549696678
30
9.9579819033413e-007
11
6523.69464908011
21
3301.54765972159
31
1.01855861427413e-006
  0
LINE
 8
GROUP0
10
6523.69464908011
20
3301.54765972159
30
1.01855861427413e-006
11
6524.01248632531
21
3301.13344615921
31
1.0066124255137e-006
  0
LINE
 8
GROUP0
10
6524.01248632531
20
3301.13344615921
30
1.0066124255137e-006
11
6524.21228717032
21
3300.65108424942
31
9.60773937314086e-007
  0
LINE
 8
GROUP0
10
6524.21228717032
20
3300.65108424942
30
9.60773937314086e-007
11
6524.28043551774
21
3300.13344615921
31
8.84167585823992e-007
  0
LINE
 8
GROUP0
10
6524.28043551774
20
3300.13344615921
30
8.84167585823992e-007
11
6524.21228717032
21
3299.61580806901
31
7.82012789901643e-007
  0
LINE
 8
GROUP0
10
6524.21228717032
20
3299.61580806901
30
7.82012789901643e-007
11
6524.01248632531
21
3299.13344615921
31
6.61272382368461e-007
  0
LINE
 8
GROUP0
10
6524.01248632531
20
3299.13344615921
30
6.61272382368461e-007
11
6523.69464908011
21
3298.71923259684
31
5.30173991902805e-007
  0
LINE
 8
GROUP0
10
6523.69464908011
20
3298.71923259684
30
5.30173991902805e-007
11
6523.28043551774
21
3298.40139535165
31
3.97651268091437e-007
  0
LINE
 8
GROUP0
10
6523.28043551774
20
3298.40139535165
30
3.97651268091437e-007
11
6522.79807360795
21
3298.20159450664
31
2.72736769435511e-007
  0
LINE
 8
GROUP0
10
6522.79807360795
20
3298.20159450664
30
2.72736769435511e-007
11
6522.28043551774
21
3298.13344615921
31
1.63941830866321e-007
  0
LINE
 8
GROUP0
10
6522.28043551774
20
3298.13344615921
30
1.63941830866321e-007
11
6521.76279742754
21
3298.20159450664
31
7.86812045738827e-008
  0
LINE
 8
GROUP0
10
6521.76279742754
20
3298.20159450664
30
7.86812045738827e-008
11
6521.28043551774
21
3298.40139535165
31
2.27655555740114e-008
  0
LINE
 8
GROUP0
10
6521.28043551774
20
3298.40139535165
30
2.27655555740114e-008
11
6520.86622195537
21
3298.71923259684
31
5.13163400661654e-012
  0
LINE
 8
GROUP0
10
6520.86622195537
20
3298.71923259684
30
5.13163400661654e-012
11
6520.54838471017
21
3299.13344615921
31
1.19513225094181e-008
  0
LINE
 8
GROUP0
10
6520.54838471017
20
3299.13344615921
30
1.19513225094181e-008
11
6520.34858386516
21
3299.61580806901
31
5.77898085940554e-008
  0
LINE
 8
GROUP0
10
6520.34858386516
20
3299.61580806901
30
5.77898085940554e-008
11
6520.28043551774
21
3300.13344615921
31
1.34396160084149e-007
  0
LINE
 8
GROUP0
10
6611.2804065879
20
3350.40105776287
30
0.000165072636290786
11
6610.86619302553
21
3350.71889500807
31
0.000165049875866141
  0
LINE
 8
GROUP0
10
6610.86619302553
20
3350.71889500807
30
0.000165049875866141
11
6610.54835578033
21
3351.13310857044
31
0.000165061822055607
  0
LINE
 8
GROUP0
10
6610.54835578033
20
3351.13310857044
30
0.000165061822055607
11
6610.34855493533
21
3351.61547048023
31
0.000165107660543806
  0
LINE
 8
GROUP0
10
6610.34855493533
20
3351.61547048023
30
0.000165107660543806
11
6610.2804065879
21
3352.13310857044
31
0.000165184266894591
  0
LINE
 8
GROUP0
10
6610.2804065879
20
3352.13310857044
30
0.000165184266894591
11
6610.34855493533
21
3352.65074666064
31
0.000165286421691219
  0
LINE
 8
GROUP0
10
6610.34855493533
20
3352.65074666064
30
0.000165286421691219
11
6610.54835578033
21
3353.13310857044
31
0.000165407162098752
  0
LINE
 8
GROUP0
10
6610.54835578033
20
3353.13310857044
30
0.000165407162098752
11
6610.86619302553
21
3353.54732213281
31
0.000165538260489217
  0
LINE
 8
GROUP0
10
6610.86619302553
20
3353.54732213281
30
0.000165538260489217
11
6611.2804065879
21
3353.86515937801
31
0.000165670783213029
  0
LINE
 8
GROUP0
10
6611.2804065879
20
3353.86515937801
30
0.000165670783213029
11
6611.7627684977
21
3354.06496022302
31
0.000165795697711685
  0
LINE
 8
GROUP0
10
6611.7627684977
20
3354.06496022302
30
0.000165795697711685
11
6612.2804065879
21
3354.13310857044
31
0.000165904492650254
  0
LINE
 8
GROUP0
10
6612.2804065879
20
3354.13310857044
30
0.000165904492650254
11
6612.79804467811
21
3354.06496022302
31
0.000165989753276546
  0
LINE
 8
GROUP0
10
6612.79804467811
20
3354.06496022302
30
0.000165989753276546
11
6613.2804065879
21
3353.86515937801
31
0.000166045668924841
  0
LINE
 8
GROUP0
10
6613.2804065879
20
3353.86515937801
30
0.000166045668924841
11
6613.69462015028
21
3353.54732213281
31
0.000166068429349486
  0
LINE
 8
GROUP0
10
6613.69462015028
20
3353.54732213281
30
0.000166068429349486
11
6614.01245739547
21
3353.13310857044
31
0.000166056483158611
  0
LINE
 8
GROUP0
10
6614.01245739547
20
3353.13310857044
30
0.000166056483158611
11
6614.21225824048
21
3352.65074666064
31
0.000166010644672526
  0
LINE
 8
GROUP0
10
6614.21225824048
20
3352.65074666064
30
0.000166010644672526
11
6614.2804065879
21
3352.13310857044
31
0.000165934038321036
  0
LINE
 8
GROUP0
10
6614.2804065879
20
3352.13310857044
30
0.000165934038321036
11
6614.21225824048
21
3351.61547048023
31
0.000165831883522999
  0
LINE
 8
GROUP0
10
6614.21225824048
20
3351.61547048023
30
0.000165831883522999
11
6614.01245739547
21
3351.13310857044
31
0.000165711143117581
  0
LINE
 8
GROUP0
10
6614.01245739547
20
3351.13310857044
30
0.000165711143117581
11
6613.69462015028
21
3350.71889500806
31
0.000165580044725
  0
LINE
 8
GROUP0
10
6613.69462015028
20
3350.71889500806
30
0.000165580044725
11
6613.2804065879
21
3350.40105776287
31
0.000165447522003304
  0
LINE
 8
GROUP0
10
6613.2804065879
20
3350.40105776287
30
0.000165447522003304
11
6612.79804467811
21
3350.20125691786
31
0.000165322607503943
  0
LINE
 8
GROUP0
10
6612.79804467811
20
3350.20125691786
30
0.000165322607503943
11
6612.2804065879
21
3350.13310857044
31
0.000165213812565373
  0
LINE
 8
GROUP0
10
6612.2804065879
20
3350.13310857044
30
0.000165213812565373
11
6611.7627684977
21
3350.20125691786
31
0.000165128551939786
  0
LINE
 8
GROUP0
10
6611.7627684977
20
3350.20125691786
30
0.000165128551939786
11
6611.2804065879
21
3350.40105776287
31
0.000165072636290786
  0
LINE
 8
GROUP0
10
6614.21225824048
20
3230.11580806915
30
0.000253497729550611
11
6614.01245739547
21
3229.63344615936
31
0.000253376989143078
  0
LINE
 8
GROUP0
10
6614.01245739547
20
3229.63344615936
30
0.000253376989143078
11
6613.69462015028
21
3229.21923259698
31
0.000253245890751907
  0
LINE
 8
GROUP0
10
6613.69462015028
20
3229.21923259698
30
0.000253245890751907
11
6613.2804065879
21
3228.90139535179
31
0.000253113368028801
  0
LINE
 8
GROUP0
10
6613.2804065879
20
3228.90139535179
30
0.000253113368028801
11
6612.79804467811
21
3228.70159450678
31
0.000252988452809644
  0
LINE
 8
GROUP0
10
6612.79804467811
20
3228.70159450678
30
0.000252988452809644
11
6612.2804065879
21
3228.63344615936
31
0.000252879657871075
  0
LINE
 8
GROUP0
10
6612.2804065879
20
3228.63344615936
30
0.000252879657871075
11
6611.7627684977
21
3228.70159450678
31
0.000252794397243372
  0
LINE
 8
GROUP0
10
6611.7627684977
20
3228.70159450678
30
0.000252794397243372
11
6611.2804065879
21
3228.90139535179
31
0.000252738481594372
  0
LINE
 8
GROUP0
10
6611.2804065879
20
3228.90139535179
30
0.000252738481594372
11
6610.86619302553
21
3229.21923259699
31
0.000252715721171842
  0
LINE
 8
GROUP0
10
6610.86619302553
20
3229.21923259699
30
0.000252715721171842
11
6610.54835578033
21
3229.63344615936
31
0.000252727666638691
  0
LINE
 8
GROUP0
10
6610.54835578033
20
3229.63344615936
30
0.000252727666638691
11
6610.34855493533
21
3230.11580806915
31
0.000252773505125481
  0
LINE
 8
GROUP0
10
6610.34855493533
20
3230.11580806915
30
0.000252773505125481
11
6610.2804065879
21
3230.63344615936
31
0.000252850111478381
  0
LINE
 8
GROUP0
10
6610.2804065879
20
3230.63344615936
30
0.000252850111478381
11
6610.34855493533
21
3231.15108424956
31
0.000252952266274303
  0
LINE
 8
GROUP0
10
6610.34855493533
20
3231.15108424956
30
0.000252952266274303
11
6610.54835578034
21
3231.63344615936
31
0.000253073006680427
  0
LINE
 8
GROUP0
10
6610.54835578034
20
3231.63344615936
30
0.000253073006680427
11
6610.86619302553
21
3232.04765972173
31
0.000253204105073007
  0
LINE
 8
GROUP0
10
6610.86619302553
20
3232.04765972173
30
0.000253204105073007
11
6611.2804065879
21
3232.36549696693
31
0.000253336627794704
  0
LINE
 8
GROUP0
10
6611.2804065879
20
3232.36549696693
30
0.000253336627794704
11
6611.7627684977
21
3232.56529781193
31
0.000253461543015271
  0
LINE
 8
GROUP0
10
6611.7627684977
20
3232.56529781193
30
0.000253461543015271
11
6612.2804065879
21
3232.63344615936
31
0.00025357033795384
  0
LINE
 8
GROUP0
10
6612.2804065879
20
3232.63344615936
30
0.00025357033795384
11
6612.79804467811
21
3232.56529781193
31
0.000253655598580133
  0
LINE
 8
GROUP0
10
6612.79804467811
20
3232.56529781193
30
0.000253655598580133
11
6613.2804065879
21
3232.36549696692
31
0.000253711514230542
  0
LINE
 8
GROUP0
10
6613.2804065879
20
3232.36549696692
30
0.000253711514230542
11
6613.69462015028
21
3232.04765972173
31
0.000253734274653072
  0
LINE
 8
GROUP0
10
6613.69462015028
20
3232.04765972173
30
0.000253734274653072
11
6614.01245739547
21
3231.63344615936
31
0.000253722329186223
  0
LINE
 8
GROUP0
10
6614.01245739547
20
3231.63344615936
30
0.000253722329186223
11
6614.21225824048
21
3231.15108424956
31
0.000253676490698024
  0
LINE
 8
GROUP0
10
6614.21225824048
20
3231.15108424956
30
0.000253676490698024
11
6614.2804065879
21
3230.63344615936
31
0.000253599884346534
  0
LINE
 8
GROUP0
10
6614.2804065879
20
3230.63344615936
30
0.000253599884346534
11
6614.21225824048
21
3230.11580806915
31
0.000253497729550611
  0
LINE
 8
GROUP0
10
6612.2804065879
20
3072.6334461594
30
0.000304879305833095
11
6611.7627684977
21
3072.70159450682
31
0.000304794045206802
  0
LINE
 8
GROUP0
10
6611.7627684977
20
3072.70159450682
30
0.000304794045206802
11
6611.2804065879
21
3072.90139535183
31
0.000304738129556392
  0
LINE
 8
GROUP0
10
6611.2804065879
20
3072.90139535183
30
0.000304738129556392
11
6610.86619302553
21
3073.21923259703
31
0.000304715369133862
  0
LINE
 8
GROUP0
10
6610.86619302553
20
3073.21923259703
30
0.000304715369133862
11
6610.54835578034
21
3073.6334461594
31
0.000304727315322623
  0
LINE
 8
GROUP0
10
6610.54835578034
20
3073.6334461594
30
0.000304727315322623
11
6610.34855493533
21
3074.11580806919
31
0.000304773153809412
  0
LINE
 8
GROUP0
10
6610.34855493533
20
3074.11580806919
30
0.000304773153809412
11
6610.28040658791
21
3074.6334461594
31
0.000304849760162312
  0
LINE
 8
GROUP0
10
6610.28040658791
20
3074.6334461594
30
0.000304849760162312
11
6610.34855493533
21
3075.1510842496
31
0.000304951914958235
  0
LINE
 8
GROUP0
10
6610.34855493533
20
3075.1510842496
30
0.000304951914958235
11
6610.54835578034
21
3075.63344615939
31
0.000305072655364358
  0
LINE
 8
GROUP0
10
6610.54835578034
20
3075.63344615939
30
0.000305072655364358
11
6610.86619302554
21
3076.04765972176
31
0.000305203753756234
  0
LINE
 8
GROUP0
10
6610.86619302554
20
3076.04765972176
30
0.000305203753756234
11
6611.28040658791
21
3076.36549696696
31
0.000305336276480045
  0
LINE
 8
GROUP0
10
6611.28040658791
20
3076.36549696696
30
0.000305336276480045
11
6611.76276849771
21
3076.56529781196
31
0.000305461190977291
  0
LINE
 8
GROUP0
10
6611.76276849771
20
3076.56529781196
30
0.000305461190977291
11
6612.28040658791
21
3076.63344615938
31
0.00030556998591586
  0
LINE
 8
GROUP0
10
6612.28040658791
20
3076.63344615938
30
0.00030556998591586
11
6612.79804467811
21
3076.56529781196
31
0.000305655246542152
  0
LINE
 8
GROUP0
10
6612.79804467811
20
3076.56529781196
30
0.000305655246542152
11
6613.2804065879
21
3076.36549696695
31
0.000305711162192562
  0
LINE
 8
GROUP0
10
6613.2804065879
20
3076.36549696695
30
0.000305711162192562
11
6613.69462015028
21
3076.04765972176
31
0.000305733922615092
  0
LINE
 8
GROUP0
10
6613.69462015028
20
3076.04765972176
30
0.000305733922615092
11
6614.01245739547
21
3075.63344615938
31
0.000305721976426332
  0
LINE
 8
GROUP0
10
6614.01245739547
20
3075.63344615938
30
0.000305721976426332
11
6614.21225824048
21
3075.15108424959
31
0.000305676137939542
  0
LINE
 8
GROUP0
10
6614.21225824048
20
3075.15108424959
30
0.000305676137939542
11
6614.2804065879
21
3074.63344615939
31
0.000305599531586642
  0
LINE
 8
GROUP0
10
6614.2804065879
20
3074.63344615939
30
0.000305599531586642
11
6614.21225824047
21
3074.11580806918
31
0.000305497376790015
  0
LINE
 8
GROUP0
10
6614.21225824047
20
3074.11580806918
30
0.000305497376790015
11
6614.01245739546
21
3073.63344615939
31
0.000305376636384597
  0
LINE
 8
GROUP0
10
6614.01245739546
20
3073.63344615939
30
0.000305376636384597
11
6613.69462015027
21
3073.21923259702
31
0.000305245537992016
  0
LINE
 8
GROUP0
10
6613.69462015027
20
3073.21923259702
30
0.000305245537992016
11
6613.2804065879
21
3072.90139535183
31
0.00030511301526891
  0
LINE
 8
GROUP0
10
6613.2804065879
20
3072.90139535183
30
0.00030511301526891
11
6612.7980446781
21
3072.70159450682
31
0.000304988100771664
  0
LINE
 8
GROUP0
10
6612.7980446781
20
3072.70159450682
30
0.000304988100771664
11
6612.2804065879
21
3072.6334461594
31
0.000304879305833095
  0
LINE
 8
GROUP0
10
6610.86619302604
20
2951.7188950089
30
0.000298048974890291
11
6610.54835578097
21
2952.13310857112
31
0.000298060921081167
  0
LINE
 8
GROUP0
10
6610.54835578097
20
2952.13310857112
30
0.000298060921081167
11
6610.34855493605
21
2952.61547048074
31
0.000298106759567252
  0
LINE
 8
GROUP0
10
6610.34855493605
20
2952.61547048074
30
0.000298106759567252
11
6610.28040658867
21
2953.13310857074
31
0.000298183365918742
  0
LINE
 8
GROUP0
10
6610.28040658867
20
2953.13310857074
30
0.000298183365918742
11
6610.34855493608
21
2953.65074666075
31
0.000298285520716779
  0
LINE
 8
GROUP0
10
6610.34855493608
20
2953.65074666075
30
0.000298285520716779
11
6610.54835578102
21
2954.13310857036
31
0.000298406261122197
  0
LINE
 8
GROUP0
10
6610.54835578102
20
2954.13310857036
30
0.000298406261122197
11
6610.8661930261
21
2954.54732213256
31
0.000298537359514778
  0
LINE
 8
GROUP0
10
6610.8661930261
20
2954.54732213256
30
0.000298537359514778
11
6611.28040658833
21
2954.86515937763
31
0.000298669882236474
  0
LINE
 8
GROUP0
10
6611.28040658833
20
2954.86515937763
30
0.000298669882236474
11
6611.76276849794
21
2955.06496022255
31
0.00029879479673513
  0
LINE
 8
GROUP0
10
6611.76276849794
20
2955.06496022255
30
0.00029879479673513
11
6612.28040658795
21
2955.13310856993
31
0.000298903591673699
  0
LINE
 8
GROUP0
10
6612.28040658795
20
2955.13310856993
30
0.000298903591673699
11
6612.79804467796
21
2955.06496022253
31
0.000298988852299992
  0
LINE
 8
GROUP0
10
6612.79804467796
20
2955.06496022253
30
0.000298988852299992
11
6613.28040658756
21
2954.86515937758
31
0.000299044767948992
  0
LINE
 8
GROUP0
10
6613.28040658756
20
2954.86515937758
30
0.000299044767948992
11
6613.69462014977
21
2954.5473221325
31
0.000299067528373637
  0
LINE
 8
GROUP0
10
6613.69462014977
20
2954.5473221325
30
0.000299067528373637
11
6614.01245739484
21
2954.13310857028
31
0.000299055582182761
  0
LINE
 8
GROUP0
10
6614.01245739484
20
2954.13310857028
30
0.000299055582182761
11
6614.21225823976
21
2953.65074666066
31
0.000299009743695972
  0
LINE
 8
GROUP0
10
6614.21225823976
20
2953.65074666066
30
0.000299009743695972
11
6614.28040658714
21
2953.13310857065
31
0.000298933137345186
  0
LINE
 8
GROUP0
10
6614.28040658714
20
2953.13310857065
30
0.000298933137345186
11
6614.21225823973
21
2952.61547048065
31
0.000298830982548559
  0
LINE
 8
GROUP0
10
6614.21225823973
20
2952.61547048065
30
0.000298830982548559
11
6614.01245739479
21
2952.13310857104
31
0.000298710242141026
  0
LINE
 8
GROUP0
10
6614.01245739479
20
2952.13310857104
30
0.000298710242141026
11
6613.6946201497
21
2951.71889500883
31
0.00029857914375056
  0
LINE
 8
GROUP0
10
6613.6946201497
20
2951.71889500883
30
0.00029857914375056
11
6613.28040658748
21
2951.40105776377
31
0.000298446621026749
  0
LINE
 8
GROUP0
10
6613.28040658748
20
2951.40105776377
30
0.000298446621026749
11
6612.79804467787
21
2951.20125691885
31
0.000298321706528093
  0
LINE
 8
GROUP0
10
6612.79804467787
20
2951.20125691885
30
0.000298321706528093
11
6612.28040658786
21
2951.13310857146
31
0.000298212911589524
  0
LINE
 8
GROUP0
10
6612.28040658786
20
2951.13310857146
30
0.000298212911589524
11
6611.76276849785
21
2951.20125691887
31
0.000298127650963231
  0
LINE
 8
GROUP0
10
6611.76276849785
20
2951.20125691887
30
0.000298127650963231
11
6611.28040658824
21
2951.40105776381
31
0.000298071735314936
  0
LINE
 8
GROUP0
10
6611.28040658824
20
2951.40105776381
30
0.000298071735314936
11
6610.86619302604
21
2951.7188950089
31
0.000298048974890291
 0
ENDSEC
 0
EOF
