 0
SECTION
 2
ENTITIES
  0
LINE
 8
GROUP0
10
3851.88905402185
20
4539.41858965712
30
1.98515750184924e-005
11
3851.88905405418
21
4957.41904589485
31
1.56814545157147e-005
  0
LINE
 8
GROUP0
10
3851.88905405418
20
4957.41904589485
30
1.56814545157147e-005
11
3826.88905405418
21
4957.41904589653
31
1.60044849700114e-005
  0
LINE
 8
GROUP0
10
3826.88905405418
20
4957.41904589653
30
1.60044849700114e-005
11
3826.88905405301
21
4987.41904589653
31
1.60170841290608e-005
  0
LINE
 8
GROUP0
10
3826.88905405301
20
4987.41904589653
30
1.60170841290608e-005
11
3813.88905405341
21
5000.4190458956
31
1.61501236505046e-005
  0
LINE
 8
GROUP0
10
3783.88905405341
20
5000.41904589653
30
1.67176434842986e-005
11
3813.88905405341
21
5000.4190458956
31
1.61501236505046e-005
  0
LINE
 8
GROUP0
10
3783.88905405341
20
5000.41904589653
30
1.67176434842986e-005
11
3783.88905405418
21
5025.41904589485
31
1.69963879216084e-005
  0
LINE
 8
GROUP0
10
3783.88905405418
20
5025.41904589485
30
1.69963879216084e-005
11
3365.88857523222
21
5025.41904586643
31
3.1766534488753e-005
  0
LINE
 8
GROUP0
10
3365.88857523222
20
5025.41904586643
30
3.1766534488753e-005
11
3365.88857523222
21
5000.41904589653
31
3.17205059580772e-005
  0
LINE
 8
GROUP0
10
3365.88857523222
20
5000.41904589653
30
3.17205059580772e-005
11
3335.88857523222
21
5000.41904589653
31
3.18706888002396e-005
  0
LINE
 8
GROUP0
10
3335.88857523222
20
5000.41904589653
30
3.18706888002396e-005
11
3322.88857530168
21
4987.41904589653
31
3.19501217063589e-005
  0
LINE
 8
GROUP0
10
3322.88857523222
20
4957.41904589653
30
3.17243845174175e-005
11
3322.88857530168
21
4987.41904589653
31
3.19501217063589e-005
  0
LINE
 8
GROUP0
10
3322.88857523222
20
4957.41904589653
30
3.17243845174175e-005
11
3297.88857523222
21
4957.41904586643
31
3.15952779693873e-005
  0
LINE
 8
GROUP0
10
3297.88857523222
20
4957.41904586643
30
3.15952779693873e-005
11
3297.8885751784
21
4539.41858977475
31
0.0
  0
LINE
 8
GROUP0
10
3322.88857521219
20
4539.41858977475
30
1.61516761210123e-007
11
3297.8885751784
21
4539.41858977475
31
0.0
  0
LINE
 8
GROUP0
10
3322.88857521219
20
4539.41858977475
30
1.61516761210123e-007
11
3322.88857521219
21
4509.41858977475
31
4.9712258757495e-006
  0
LINE
 8
GROUP0
10
3335.8885752122
20
4496.41858969676
30
7.12602940282636e-006
11
3322.88857521219
21
4509.41858977475
31
4.9712258757495e-006
  0
LINE
 8
GROUP0
10
3365.8885752122
20
4496.41858977475
30
7.37948663669385e-006
11
3335.8885752122
21
4496.41858969676
31
7.12602940282636e-006
  0
LINE
 8
GROUP0
10
3365.8885751784
20
4471.41858977475
30
1.14765095474922e-005
11
3365.8885752122
21
4496.41858977475
31
7.37948663669385e-006
  0
LINE
 8
GROUP0
10
3365.8885751784
20
4471.41858977475
30
1.14765095474922e-005
11
3783.88905402185
21
4471.41858965712
31
2.9490582584657e-005
  0
LINE
 8
GROUP0
10
3783.88905402185
20
4471.41858965712
30
2.9490582584657e-005
11
3783.88905402185
21
4496.41858965712
31
2.63240895968408e-005
  0
LINE
 8
GROUP0
10
3783.88905402185
20
4496.41858965712
30
2.63240895968408e-005
11
3813.88905402185
21
4496.41858965712
31
2.59990345419681e-005
  0
LINE
 8
GROUP0
10
3813.88905402185
20
4496.41858965712
30
2.59990345419681e-005
11
3826.88905379584
21
4509.41858913346
31
2.21925601323392e-005
  0
LINE
 8
GROUP0
10
3826.88905397851
20
4539.41858913346
30
2.02288348269519e-005
11
3826.88905379584
21
4509.41858913346
31
2.21925601323392e-005
  0
LINE
 8
GROUP0
10
3826.88905397851
20
4539.41858913346
30
2.02288348269519e-005
11
3851.88905402185
21
4539.41858965712
31
1.98515750184924e-005
  0
LINE
 8
GROUP0
10
3839.95720240476
20
4926.901179442
30
1.73703870366637e-005
11
3840.15700324977
21
4926.4188175322
31
1.7368524866157e-005
  0
LINE
 8
GROUP0
10
3839.88905405734
20
4927.4188175322
30
1.73695027854137e-005
11
3839.95720240476
21
4926.901179442
31
1.73703870366637e-005
  0
LINE
 8
GROUP0
10
3839.95720240476
20
4927.93645562241
30
1.73659324822495e-005
11
3839.88905405734
21
4927.4188175322
31
1.73695027854137e-005
  0
LINE
 8
GROUP0
10
3840.15700324977
20
4928.4188175322
30
1.73599194113194e-005
11
3839.95720240476
21
4927.93645562241
31
1.73659324822495e-005
  0
LINE
 8
GROUP0
10
3840.47484049497
20
4928.83303109458
30
1.7351873347593e-005
11
3840.15700324977
21
4928.4188175322
31
1.73599194113194e-005
  0
LINE
 8
GROUP0
10
3840.88905405734
20
4929.15086833977
30
1.73423424925545e-005
11
3840.47484049497
21
4928.83303109458
31
1.7351873347593e-005
  0
LINE
 8
GROUP0
10
3841.37141596714
20
4929.35066918478
30
1.73319765664814e-005
11
3840.88905405734
21
4929.15086833977
31
1.73423424925545e-005
  0
LINE
 8
GROUP0
10
3841.88905405734
20
4929.4188175322
30
1.73214818694589e-005
11
3841.37141596714
21
4929.35066918478
31
1.73319765664814e-005
  0
LINE
 8
GROUP0
10
3842.40669214755
20
4929.35066918478
30
1.73115736352258e-005
11
3841.88905405734
21
4929.4188175322
31
1.73214818694589e-005
  0
LINE
 8
GROUP0
10
3842.88905405734
20
4929.15086833977
30
1.73029271216762e-005
11
3842.40669214755
21
4929.35066918478
31
1.73115736352258e-005
  0
LINE
 8
GROUP0
10
3843.30326761971
20
4928.83303109458
30
1.72961314987674e-005
11
3842.88905405734
21
4929.15086833977
31
1.73029271216762e-005
  0
LINE
 8
GROUP0
10
3843.62110486491
20
4928.4188175322
30
1.7291649872675e-005
11
3843.30326761971
21
4928.83303109458
31
1.72961314987674e-005
  0
LINE
 8
GROUP0
10
3843.82090570992
20
4927.93645562241
30
1.72897877021683e-005
11
3843.62110486491
21
4928.4188175322
31
1.7291649872675e-005
  0
LINE
 8
GROUP0
10
3843.88905405734
20
4927.4188175322
30
1.72906719534183e-005
11
3843.82090570992
21
4927.93645562241
31
1.72897877021683e-005
  0
LINE
 8
GROUP0
10
3843.82090570992
20
4926.901179442
30
1.72942422565825e-005
11
3843.88905405734
21
4927.4188175322
31
1.72906719534183e-005
  0
LINE
 8
GROUP0
10
3843.62110486491
20
4926.4188175322
30
1.73002553275126e-005
11
3843.82090570992
21
4926.901179442
31
1.72942422565825e-005
  0
LINE
 8
GROUP0
10
3843.30326761971
20
4926.00460396983
30
1.73083014814779e-005
11
3843.62110486491
21
4926.4188175322
31
1.73002553275126e-005
  0
LINE
 8
GROUP0
10
3842.88905405734
20
4925.68676672464
30
1.73178322462775e-005
11
3843.30326761971
21
4926.00460396983
31
1.73083014814779e-005
  0
LINE
 8
GROUP0
10
3842.40669214755
20
4925.48696587963
30
1.73281981723505e-005
11
3842.88905405734
21
4925.68676672464
31
1.73178322462775e-005
  0
LINE
 8
GROUP0
10
3841.88905405734
20
4925.4188175322
30
1.73386928693731e-005
11
3842.40669214755
21
4925.48696587963
31
1.73281981723505e-005
  0
LINE
 8
GROUP0
10
3841.37141596714
20
4925.48696587963
30
1.73486011036061e-005
11
3841.88905405734
21
4925.4188175322
31
1.73386928693731e-005
  0
LINE
 8
GROUP0
10
3840.88905405734
20
4925.68676672464
30
1.73572477073947e-005
11
3841.37141596714
21
4925.48696587963
31
1.73486011036061e-005
  0
LINE
 8
GROUP0
10
3840.47484049497
20
4926.00460396983
30
1.73640433303035e-005
11
3840.88905405734
21
4925.68676672464
31
1.73572477073947e-005
  0
LINE
 8
GROUP0
10
3840.15700324977
20
4926.4188175322
30
1.7368524866157e-005
11
3840.47484049497
21
4926.00460396983
31
1.73640433303035e-005
  0
LINE
 8
GROUP0
10
3839.95720240476
20
4747.901179442
30
1.82632707229402e-005
11
3840.15700324977
21
4747.4188175322
31
1.82614085524335e-005
  0
LINE
 8
GROUP0
10
3839.88905405734
20
4748.4188175322
30
1.82623864716902e-005
11
3839.95720240476
21
4747.901179442
31
1.82632707229402e-005
  0
LINE
 8
GROUP0
10
3839.95720240476
20
4748.93645562241
30
1.8258816168526e-005
11
3839.88905405734
21
4748.4188175322
31
1.82623864716902e-005
  0
LINE
 8
GROUP0
10
3840.15700324977
20
4749.4188175322
30
1.82528030975959e-005
11
3839.95720240476
21
4748.93645562241
31
1.8258816168526e-005
  0
LINE
 8
GROUP0
10
3840.47484049497
20
4749.83303109458
30
1.82447569436306e-005
11
3840.15700324977
21
4749.4188175322
31
1.82528030975959e-005
  0
LINE
 8
GROUP0
10
3840.88905405734
20
4750.15086833977
30
1.8235226178831e-005
11
3840.47484049497
21
4749.83303109458
31
1.82447569436306e-005
  0
LINE
 8
GROUP0
10
3841.37141596714
20
4750.35066918478
30
1.82248602527579e-005
11
3840.88905405734
21
4750.15086833977
31
1.8235226178831e-005
  0
LINE
 8
GROUP0
10
3841.88905405734
20
4750.4188175322
30
1.82143655557354e-005
11
3841.37141596714
21
4750.35066918478
31
1.82248602527579e-005
  0
LINE
 8
GROUP0
10
3842.40669214755
20
4750.35066918478
30
1.82044573215023e-005
11
3841.88905405734
21
4750.4188175322
31
1.82143655557354e-005
  0
LINE
 8
GROUP0
10
3842.88905405734
20
4750.15086833977
30
1.81958108079527e-005
11
3842.40669214755
21
4750.35066918478
31
1.82044573215023e-005
  0
LINE
 8
GROUP0
10
3843.30326761971
20
4749.83303109458
30
1.8189015094805e-005
11
3842.88905405734
21
4750.15086833977
31
1.81958108079527e-005
  0
LINE
 8
GROUP0
10
3843.62110486491
20
4749.4188175322
30
1.81845335589514e-005
11
3843.30326761971
21
4749.83303109458
31
1.8189015094805e-005
  0
LINE
 8
GROUP0
10
3843.82090570992
20
4748.93645562241
30
1.81826713884448e-005
11
3843.62110486491
21
4749.4188175322
31
1.81845335589514e-005
  0
LINE
 8
GROUP0
10
3843.88905405734
20
4748.4188175322
30
1.81835556396948e-005
11
3843.82090570992
21
4748.93645562241
31
1.81826713884448e-005
  0
LINE
 8
GROUP0
10
3843.82090570992
20
4747.901179442
30
1.8187125942859e-005
11
3843.88905405734
21
4748.4188175322
31
1.81835556396948e-005
  0
LINE
 8
GROUP0
10
3843.62110486491
20
4747.4188175322
30
1.81931390137891e-005
11
3843.82090570992
21
4747.901179442
31
1.8187125942859e-005
  0
LINE
 8
GROUP0
10
3843.30326761971
20
4747.00460396983
30
1.82011851677544e-005
11
3843.62110486491
21
4747.4188175322
31
1.81931390137891e-005
  0
LINE
 8
GROUP0
10
3842.88905405734
20
4746.68676672463
30
1.8210715932554e-005
11
3843.30326761971
21
4747.00460396983
31
1.82011851677544e-005
  0
LINE
 8
GROUP0
10
3842.40669214755
20
4746.48696587963
30
1.8221081858627e-005
11
3842.88905405734
21
4746.68676672463
31
1.8210715932554e-005
  0
LINE
 8
GROUP0
10
3841.88905405734
20
4746.4188175322
30
1.82315765556496e-005
11
3842.40669214755
21
4746.48696587963
31
1.8221081858627e-005
  0
LINE
 8
GROUP0
10
3841.37141596714
20
4746.48696587963
30
1.82414847898826e-005
11
3841.88905405734
21
4746.4188175322
31
1.82315765556496e-005
  0
LINE
 8
GROUP0
10
3840.88905405734
20
4746.68676672463
30
1.82501313936712e-005
11
3841.37141596714
21
4746.48696587963
31
1.82414847898826e-005
  0
LINE
 8
GROUP0
10
3840.47484049497
20
4747.00460396983
30
1.825692701658e-005
11
3840.88905405734
21
4746.68676672463
31
1.82501313936712e-005
  0
LINE
 8
GROUP0
10
3840.15700324977
20
4747.4188175322
30
1.82614085524335e-005
11
3840.47484049497
21
4747.00460396983
31
1.825692701658e-005
  0
LINE
 8
GROUP0
10
3839.95720240476
20
4569.93622724087
30
2.00552809147325e-005
11
3839.88905405734
21
4569.41858915067
31
2.00588512178967e-005
  0
LINE
 8
GROUP0
10
3840.15700324977
20
4570.41858915067
30
2.00492678438025e-005
11
3839.95720240476
21
4569.93622724087
31
2.00552809147325e-005
  0
LINE
 8
GROUP0
10
3840.47484049497
20
4570.83280271304
30
2.00412216898371e-005
11
3840.15700324977
21
4570.41858915067
31
2.00492678438025e-005
  0
LINE
 8
GROUP0
10
3840.88905405734
20
4571.15063995824
30
2.00316909250375e-005
11
3840.47484049497
21
4570.83280271304
31
2.00412216898371e-005
  0
LINE
 8
GROUP0
10
3841.37141596714
20
4571.35044080325
30
2.00213249989645e-005
11
3840.88905405734
21
4571.15063995824
31
2.00316909250375e-005
  0
LINE
 8
GROUP0
10
3841.88905405734
20
4571.41858915067
30
2.0010830301942e-005
11
3841.37141596714
21
4571.35044080325
31
2.00213249989645e-005
  0
LINE
 8
GROUP0
10
3842.40669214755
20
4571.35044080325
30
2.00009220677089e-005
11
3841.88905405734
21
4571.41858915067
31
2.0010830301942e-005
  0
LINE
 8
GROUP0
10
3842.88905405734
20
4571.15063995824
30
1.99922754639203e-005
11
3842.40669214755
21
4571.35044080325
31
2.00009220677089e-005
  0
LINE
 8
GROUP0
10
3843.30326761971
20
4570.83280271304
30
1.99854798410115e-005
11
3842.88905405734
21
4571.15063995824
31
1.99922754639203e-005
  0
LINE
 8
GROUP0
10
3843.62110486491
20
4570.41858915067
30
1.9980998305158e-005
11
3843.30326761971
21
4570.83280271304
31
1.99854798410115e-005
  0
LINE
 8
GROUP0
10
3843.82090570992
20
4569.93622724087
30
1.99791361346513e-005
11
3843.62110486491
21
4570.41858915067
31
1.9980998305158e-005
  0
LINE
 8
GROUP0
10
3843.88905405734
20
4569.41858915067
30
1.99800203859013e-005
11
3843.82090570992
21
4569.93622724087
31
1.99791361346513e-005
  0
LINE
 8
GROUP0
10
3843.82090570992
20
4568.90095106046
30
1.99835906890655e-005
11
3843.88905405734
21
4569.41858915067
31
1.99800203859013e-005
  0
LINE
 8
GROUP0
10
3843.62110486491
20
4568.41858915067
30
1.99896037599956e-005
11
3843.82090570992
21
4568.90095106046
31
1.99835906890655e-005
  0
LINE
 8
GROUP0
10
3843.30326761971
20
4568.00437558829
30
1.99976499139609e-005
11
3843.62110486491
21
4568.41858915067
31
1.99896037599956e-005
  0
LINE
 8
GROUP0
10
3842.88905405734
20
4567.6865383431
30
2.00071806787605e-005
11
3843.30326761971
21
4568.00437558829
31
1.99976499139609e-005
  0
LINE
 8
GROUP0
10
3842.40669214755
20
4567.48673749809
30
2.00175466048336e-005
11
3842.88905405734
21
4567.6865383431
31
2.00071806787605e-005
  0
LINE
 8
GROUP0
10
3841.88905405734
20
4567.41858915067
30
2.00280413018561e-005
11
3842.40669214755
21
4567.48673749809
31
2.00175466048336e-005
  0
LINE
 8
GROUP0
10
3841.37141596714
20
4567.48673749809
30
2.00379495360892e-005
11
3841.88905405734
21
4567.41858915067
31
2.00280413018561e-005
  0
LINE
 8
GROUP0
10
3840.88905405734
20
4567.6865383431
30
2.00465961398777e-005
11
3841.37141596714
21
4567.48673749809
31
2.00379495360892e-005
  0
LINE
 8
GROUP0
10
3840.47484049497
20
4568.00437558829
30
2.00533917627865e-005
11
3840.88905405734
21
4567.6865383431
31
2.00465961398777e-005
  0
LINE
 8
GROUP0
10
3840.15700324977
20
4568.41858915067
30
2.00578732986401e-005
11
3840.47484049497
21
4568.00437558829
31
2.00533917627865e-005
  0
LINE
 8
GROUP0
10
3839.95720240476
20
4568.90095106046
30
2.00597354691467e-005
11
3840.15700324977
21
4568.41858915067
31
2.00578732986401e-005
  0
LINE
 8
GROUP0
10
3839.88905405734
20
4569.41858915067
30
2.00588512178967e-005
11
3839.95720240476
21
4568.90095106046
31
2.00597354691467e-005
  0
LINE
 8
GROUP0
10
3754.88883040385
20
4483.15064476754
30
1.73599194113194e-005
11
3754.40646849405
21
4483.35044561255
31
1.73659324822495e-005
  0
LINE
 8
GROUP0
10
3755.30304396622
20
4482.83280752235
30
1.7351873347593e-005
11
3754.88883040385
21
4483.15064476754
31
1.73599194113194e-005
  0
LINE
 8
GROUP0
10
3755.62088121142
20
4482.41859395997
30
1.73423424925545e-005
11
3755.30304396622
21
4482.83280752235
31
1.7351873347593e-005
  0
LINE
 8
GROUP0
10
3755.82068205643
20
4481.93623205018
30
1.73319765664814e-005
11
3755.62088121142
21
4482.41859395997
31
1.73423424925545e-005
  0
LINE
 8
GROUP0
10
3755.88883040385
20
4481.41859395998
30
1.73214818694589e-005
11
3755.82068205643
21
4481.93623205018
31
1.73319765664814e-005
  0
LINE
 8
GROUP0
10
3755.82068205643
20
4480.90095586977
30
1.73115736352258e-005
11
3755.88883040385
21
4481.41859395998
31
1.73214818694589e-005
  0
LINE
 8
GROUP0
10
3755.62088121142
20
4480.41859395998
30
1.73029271216762e-005
11
3755.82068205643
21
4480.90095586977
31
1.73115736352258e-005
  0
LINE
 8
GROUP0
10
3755.30304396622
20
4480.0043803976
30
1.72961314987674e-005
11
3755.62088121142
21
4480.41859395998
31
1.73029271216762e-005
  0
LINE
 8
GROUP0
10
3754.88883040385
20
4479.68654315241
30
1.7291649872675e-005
11
3755.30304396622
21
4480.0043803976
31
1.72961314987674e-005
  0
LINE
 8
GROUP0
10
3754.40646849405
20
4479.4867423074
30
1.72897877021683e-005
11
3754.88883040385
21
4479.68654315241
31
1.7291649872675e-005
  0
LINE
 8
GROUP0
10
3753.88883040385
20
4479.41859395998
30
1.72906719534183e-005
11
3754.40646849405
21
4479.4867423074
31
1.72897877021683e-005
  0
LINE
 8
GROUP0
10
3753.37119231364
20
4479.4867423074
30
1.72942422565825e-005
11
3753.88883040385
21
4479.41859395998
31
1.72906719534183e-005
  0
LINE
 8
GROUP0
10
3752.88883040385
20
4479.68654315241
30
1.73002553275126e-005
11
3753.37119231364
21
4479.4867423074
31
1.72942422565825e-005
  0
LINE
 8
GROUP0
10
3752.47461684148
20
4480.0043803976
30
1.73083014814779e-005
11
3752.88883040385
21
4479.68654315241
31
1.73002553275126e-005
  0
LINE
 8
GROUP0
10
3752.15677959628
20
4480.41859395998
30
1.73178322462775e-005
11
3752.47461684148
21
4480.0043803976
31
1.73083014814779e-005
  0
LINE
 8
GROUP0
10
3751.95697875127
20
4480.90095586977
30
1.73281981723505e-005
11
3752.15677959628
21
4480.41859395998
31
1.73178322462775e-005
  0
LINE
 8
GROUP0
10
3751.88883040385
20
4481.41859395998
30
1.73386928693731e-005
11
3751.95697875127
21
4480.90095586977
31
1.73281981723505e-005
  0
LINE
 8
GROUP0
10
3751.95697875127
20
4481.93623205018
30
1.73486011036061e-005
11
3751.88883040385
21
4481.41859395998
31
1.73386928693731e-005
  0
LINE
 8
GROUP0
10
3752.15677959628
20
4482.41859395997
30
1.73572477073947e-005
11
3751.95697875127
21
4481.93623205018
31
1.73486011036061e-005
  0
LINE
 8
GROUP0
10
3752.47461684148
20
4482.83280752235
30
1.73640433303035e-005
11
3752.15677959628
21
4482.41859395997
31
1.73572477073947e-005
  0
LINE
 8
GROUP0
10
3752.88883040385
20
4483.15064476754
30
1.7368524866157e-005
11
3752.47461684148
21
4482.83280752235
31
1.73640433303035e-005
  0
LINE
 8
GROUP0
10
3753.37119231364
20
4483.35044561255
30
1.73703870366637e-005
11
3752.88883040385
21
4483.15064476754
31
1.7368524866157e-005
  0
LINE
 8
GROUP0
10
3753.88883040385
20
4483.41859395998
30
1.73695027854137e-005
11
3753.37119231364
21
4483.35044561255
31
1.73703870366637e-005
  0
LINE
 8
GROUP0
10
3754.40646849405
20
4483.35044561255
30
1.73659324822495e-005
11
3753.88883040385
21
4483.41859395998
31
1.73695027854137e-005
  0
LINE
 8
GROUP0
10
3574.37119231364
20
4483.35044561255
30
1.82632707229402e-005
11
3573.88883040385
21
4483.15064476754
31
1.82614085524335e-005
  0
LINE
 8
GROUP0
10
3574.88883040385
20
4483.41859395998
30
1.82623864716902e-005
11
3574.37119231364
21
4483.35044561255
31
1.82632707229402e-005
  0
LINE
 8
GROUP0
10
3575.40646849405
20
4483.35044561255
30
1.8258816168526e-005
11
3574.88883040385
21
4483.41859395998
31
1.82623864716902e-005
  0
LINE
 8
GROUP0
10
3575.88883040385
20
4483.15064476754
30
1.82528030975959e-005
11
3575.40646849405
21
4483.35044561255
31
1.8258816168526e-005
  0
LINE
 8
GROUP0
10
3576.30304396622
20
4482.83280752235
30
1.82447569436306e-005
11
3575.88883040385
21
4483.15064476754
31
1.82528030975959e-005
  0
LINE
 8
GROUP0
10
3576.62088121142
20
4482.41859395998
30
1.8235226178831e-005
11
3576.30304396622
21
4482.83280752235
31
1.82447569436306e-005
  0
LINE
 8
GROUP0
10
3576.82068205643
20
4481.93623205018
30
1.82248602527579e-005
11
3576.62088121142
21
4482.41859395998
31
1.8235226178831e-005
  0
LINE
 8
GROUP0
10
3576.88883040385
20
4481.41859395998
30
1.82143655557354e-005
11
3576.82068205643
21
4481.93623205018
31
1.82248602527579e-005
  0
LINE
 8
GROUP0
10
3576.82068205643
20
4480.90095586977
30
1.82044573215023e-005
11
3576.88883040385
21
4481.41859395998
31
1.82143655557354e-005
  0
LINE
 8
GROUP0
10
3576.62088121142
20
4480.41859395998
30
1.81958108079527e-005
11
3576.82068205643
21
4480.90095586977
31
1.82044573215023e-005
  0
LINE
 8
GROUP0
10
3576.30304396622
20
4480.0043803976
30
1.8189015094805e-005
11
3576.62088121142
21
4480.41859395998
31
1.81958108079527e-005
  0
LINE
 8
GROUP0
10
3575.88883040385
20
4479.68654315241
30
1.81845335589514e-005
11
3576.30304396622
21
4480.0043803976
31
1.8189015094805e-005
  0
LINE
 8
GROUP0
10
3575.40646849405
20
4479.4867423074
30
1.81826713884448e-005
11
3575.88883040385
21
4479.68654315241
31
1.81845335589514e-005
  0
LINE
 8
GROUP0
10
3574.88883040385
20
4479.41859395998
30
1.81835556396948e-005
11
3575.40646849405
21
4479.4867423074
31
1.81826713884448e-005
  0
LINE
 8
GROUP0
10
3574.37119231364
20
4479.4867423074
30
1.8187125942859e-005
11
3574.88883040385
21
4479.41859395998
31
1.81835556396948e-005
  0
LINE
 8
GROUP0
10
3573.88883040385
20
4479.68654315241
30
1.81931390137891e-005
11
3574.37119231364
21
4479.4867423074
31
1.8187125942859e-005
  0
LINE
 8
GROUP0
10
3573.47461684148
20
4480.0043803976
30
1.82011851677544e-005
11
3573.88883040385
21
4479.68654315241
31
1.81931390137891e-005
  0
LINE
 8
GROUP0
10
3573.15677959628
20
4480.41859395998
30
1.8210715932554e-005
11
3573.47461684148
21
4480.0043803976
31
1.82011851677544e-005
  0
LINE
 8
GROUP0
10
3572.95697875127
20
4480.90095586977
30
1.8221081858627e-005
11
3573.15677959628
21
4480.41859395998
31
1.8210715932554e-005
  0
LINE
 8
GROUP0
10
3572.88883040385
20
4481.41859395998
30
1.82315765556496e-005
11
3572.95697875127
21
4480.90095586977
31
1.8221081858627e-005
  0
LINE
 8
GROUP0
10
3572.95697875127
20
4481.93623205018
30
1.82414847898826e-005
11
3572.88883040385
21
4481.41859395998
31
1.82315765556496e-005
  0
LINE
 8
GROUP0
10
3573.15677959628
20
4482.41859395998
30
1.82501313936712e-005
11
3572.95697875127
21
4481.93623205018
31
1.82414847898826e-005
  0
LINE
 8
GROUP0
10
3573.47461684148
20
4482.83280752235
30
1.825692701658e-005
11
3573.15677959628
21
4482.41859395998
31
1.82501313936712e-005
  0
LINE
 8
GROUP0
10
3573.88883040385
20
4483.15064476754
30
1.82614085524335e-005
11
3573.47461684148
21
4482.83280752235
31
1.825692701658e-005
  0
LINE
 8
GROUP0
10
3397.82045367489
20
4481.93623205018
30
2.00213249989645e-005
11
3397.62065282988
21
4482.41859395998
31
2.00316909250375e-005
  0
LINE
 8
GROUP0
10
3397.88860202231
20
4481.41859395998
30
2.0010830301942e-005
11
3397.82045367489
21
4481.93623205018
31
2.00213249989645e-005
  0
LINE
 8
GROUP0
10
3397.82045367489
20
4480.90095586977
30
2.00009220677089e-005
11
3397.88860202231
21
4481.41859395998
31
2.0010830301942e-005
  0
LINE
 8
GROUP0
10
3397.62065282988
20
4480.41859395998
30
1.99922754639203e-005
11
3397.82045367489
21
4480.90095586977
31
2.00009220677089e-005
  0
LINE
 8
GROUP0
10
3397.30281558469
20
4480.0043803976
30
1.99854798410115e-005
11
3397.62065282988
21
4480.41859395998
31
1.99922754639203e-005
  0
LINE
 8
GROUP0
10
3396.88860202231
20
4479.68654315241
30
1.9980998305158e-005
11
3397.30281558469
21
4480.0043803976
31
1.99854798410115e-005
  0
LINE
 8
GROUP0
10
3396.40624011252
20
4479.4867423074
30
1.99791361346513e-005
11
3396.88860202231
21
4479.68654315241
31
1.9980998305158e-005
  0
LINE
 8
GROUP0
10
3395.88860202231
20
4479.41859395998
30
1.99800203859013e-005
11
3396.40624011252
21
4479.4867423074
31
1.99791361346513e-005
  0
LINE
 8
GROUP0
10
3395.37096393211
20
4479.4867423074
30
1.99835906890655e-005
11
3395.88860202231
21
4479.41859395998
31
1.99800203859013e-005
  0
LINE
 8
GROUP0
10
3394.88860202231
20
4479.68654315241
30
1.99896037599956e-005
11
3395.37096393211
21
4479.4867423074
31
1.99835906890655e-005
  0
LINE
 8
GROUP0
10
3394.47438845994
20
4480.0043803976
30
1.99976499139609e-005
11
3394.88860202231
21
4479.68654315241
31
1.99896037599956e-005
  0
LINE
 8
GROUP0
10
3394.15655121474
20
4480.41859395998
30
2.00071806787605e-005
11
3394.47438845994
21
4480.0043803976
31
1.99976499139609e-005
  0
LINE
 8
GROUP0
10
3393.95675036974
20
4480.90095586977
30
2.00175466048336e-005
11
3394.15655121474
21
4480.41859395998
31
2.00071806787605e-005
  0
LINE
 8
GROUP0
10
3393.88860202231
20
4481.41859395998
30
2.00280413018561e-005
11
3393.95675036974
21
4480.90095586977
31
2.00175466048336e-005
  0
LINE
 8
GROUP0
10
3393.95675036974
20
4481.93623205018
30
2.00379495360892e-005
11
3393.88860202231
21
4481.41859395998
31
2.00280413018561e-005
  0
LINE
 8
GROUP0
10
3394.15655121474
20
4482.41859395998
30
2.00465961398777e-005
11
3393.95675036974
21
4481.93623205018
31
2.00379495360892e-005
  0
LINE
 8
GROUP0
10
3394.47438845994
20
4482.83280752235
30
2.00533917627865e-005
11
3394.15655121474
21
4482.41859395998
31
2.00465961398777e-005
  0
LINE
 8
GROUP0
10
3394.88860202231
20
4483.15064476754
30
2.00578732986401e-005
11
3394.47438845994
21
4482.83280752235
31
2.00533917627865e-005
  0
LINE
 8
GROUP0
10
3395.37096393211
20
4483.35044561255
30
2.00597354691467e-005
11
3394.88860202231
21
4483.15064476754
31
2.00578732986401e-005
  0
LINE
 8
GROUP0
10
3395.88860202231
20
4483.41859395998
30
2.00588512178967e-005
11
3395.37096393211
21
4483.35044561255
31
2.00597354691467e-005
  0
LINE
 8
GROUP0
10
3396.40624011252
20
4483.35044561255
30
2.00552809147325e-005
11
3395.88860202231
21
4483.41859395998
31
2.00588512178967e-005
  0
LINE
 8
GROUP0
10
3396.88860202231
20
4483.15064476754
30
2.00492678438025e-005
11
3396.40624011252
21
4483.35044561255
31
2.00552809147325e-005
  0
LINE
 8
GROUP0
10
3397.30281558469
20
4482.83280752235
30
2.00412216898371e-005
11
3396.88860202231
21
4483.15064476754
31
2.00492678438025e-005
  0
LINE
 8
GROUP0
10
3397.62065282988
20
4482.41859395998
30
2.00316909250375e-005
11
3397.30281558469
21
4482.83280752235
31
2.00412216898371e-005
  0
LINE
 8
GROUP0
10
3306.15655602405
20
4570.41881761347
30
1.73002553275126e-005
11
3305.95675517904
21
4569.93645570367
31
1.72942422565825e-005
  0
LINE
 8
GROUP0
10
3306.47439326925
20
4570.83303117584
30
1.73083014814779e-005
11
3306.15655602405
21
4570.41881761347
31
1.73002553275126e-005
  0
LINE
 8
GROUP0
10
3306.88860683162
20
4571.15086842104
30
1.73178322462775e-005
11
3306.47439326925
21
4570.83303117584
31
1.73083014814779e-005
  0
LINE
 8
GROUP0
10
3307.37096874142
20
4571.35066926605
30
1.73281981723505e-005
11
3306.88860683162
21
4571.15086842104
31
1.73178322462775e-005
  0
LINE
 8
GROUP0
10
3307.88860683162
20
4571.41881761347
30
1.73386928693731e-005
11
3307.37096874142
21
4571.35066926605
31
1.73281981723505e-005
  0
LINE
 8
GROUP0
10
3308.40624492183
20
4571.35066926605
30
1.73486011036061e-005
11
3307.88860683162
21
4571.41881761347
31
1.73386928693731e-005
  0
LINE
 8
GROUP0
10
3308.88860683162
20
4571.15086842104
30
1.73572477073947e-005
11
3308.40624492183
21
4571.35066926605
31
1.73486011036061e-005
  0
LINE
 8
GROUP0
10
3309.302820394
20
4570.83303117584
30
1.73640433303035e-005
11
3308.88860683162
21
4571.15086842104
31
1.73572477073947e-005
  0
LINE
 8
GROUP0
10
3309.62065763919
20
4570.41881761347
30
1.7368524866157e-005
11
3309.302820394
21
4570.83303117584
31
1.73640433303035e-005
  0
LINE
 8
GROUP0
10
3309.8204584842
20
4569.93645570367
30
1.73703870366637e-005
11
3309.62065763919
21
4570.41881761347
31
1.7368524866157e-005
  0
LINE
 8
GROUP0
10
3309.88860683162
20
4569.41881761347
30
1.73695027854137e-005
11
3309.8204584842
21
4569.93645570367
31
1.73703870366637e-005
  0
LINE
 8
GROUP0
10
3309.8204584842
20
4568.90117952326
30
1.73659324822495e-005
11
3309.88860683162
21
4569.41881761347
31
1.73695027854137e-005
  0
LINE
 8
GROUP0
10
3309.62065763919
20
4568.41881761347
30
1.73599194113194e-005
11
3309.8204584842
21
4568.90117952326
31
1.73659324822495e-005
  0
LINE
 8
GROUP0
10
3309.302820394
20
4568.00460405109
30
1.7351873347593e-005
11
3309.62065763919
21
4568.41881761347
31
1.73599194113194e-005
  0
LINE
 8
GROUP0
10
3308.88860683162
20
4567.6867668059
30
1.73423424925545e-005
11
3309.302820394
21
4568.00460405109
31
1.7351873347593e-005
  0
LINE
 8
GROUP0
10
3308.40624492183
20
4567.48696596089
30
1.73319765664814e-005
11
3308.88860683162
21
4567.6867668059
31
1.73423424925545e-005
  0
LINE
 8
GROUP0
10
3307.88860683162
20
4567.41881761347
30
1.73214818694589e-005
11
3308.40624492183
21
4567.48696596089
31
1.73319765664814e-005
  0
LINE
 8
GROUP0
10
3307.37096874142
20
4567.48696596089
30
1.73115736352258e-005
11
3307.88860683162
21
4567.41881761347
31
1.73214818694589e-005
  0
LINE
 8
GROUP0
10
3306.88860683162
20
4567.6867668059
30
1.73029271216762e-005
11
3307.37096874142
21
4567.48696596089
31
1.73115736352258e-005
  0
LINE
 8
GROUP0
10
3306.47439326925
20
4568.00460405109
30
1.72961314987674e-005
11
3306.88860683162
21
4567.6867668059
31
1.73029271216762e-005
  0
LINE
 8
GROUP0
10
3306.15655602405
20
4568.41881761347
30
1.7291649872675e-005
11
3306.47439326925
21
4568.00460405109
31
1.72961314987674e-005
  0
LINE
 8
GROUP0
10
3305.95675517904
20
4568.90117952326
30
1.72897877021683e-005
11
3306.15655602405
21
4568.41881761347
31
1.7291649872675e-005
  0
LINE
 8
GROUP0
10
3305.88860683162
20
4569.41881761347
30
1.72906719534183e-005
11
3305.95675517904
21
4568.90117952326
31
1.72897877021683e-005
  0
LINE
 8
GROUP0
10
3305.95675517904
20
4569.93645570367
30
1.72942422565825e-005
11
3305.88860683162
21
4569.41881761347
31
1.72906719534183e-005
  0
LINE
 8
GROUP0
10
3308.88860683162
20
4746.6867668059
30
1.8235226178831e-005
11
3309.302820394
21
4747.00460405109
31
1.82447569436306e-005
  0
LINE
 8
GROUP0
10
3308.40624492183
20
4746.48696596089
30
1.82248602527579e-005
11
3308.88860683162
21
4746.6867668059
31
1.8235226178831e-005
  0
LINE
 8
GROUP0
10
3307.88860683162
20
4746.41881761347
30
1.82143655557354e-005
11
3308.40624492183
21
4746.48696596089
31
1.82248602527579e-005
  0
LINE
 8
GROUP0
10
3307.37096874142
20
4746.48696596089
30
1.82044573215023e-005
11
3307.88860683162
21
4746.41881761347
31
1.82143655557354e-005
  0
LINE
 8
GROUP0
10
3306.88860683162
20
4746.6867668059
30
1.81958108079527e-005
11
3307.37096874142
21
4746.48696596089
31
1.82044573215023e-005
  0
LINE
 8
GROUP0
10
3306.47439326925
20
4747.00460405109
30
1.8189015094805e-005
11
3306.88860683162
21
4746.6867668059
31
1.81958108079527e-005
  0
LINE
 8
GROUP0
10
3306.15655602405
20
4747.41881761347
30
1.81845335589514e-005
11
3306.47439326925
21
4747.00460405109
31
1.8189015094805e-005
  0
LINE
 8
GROUP0
10
3305.95675517904
20
4747.90117952326
30
1.81826713884448e-005
11
3306.15655602405
21
4747.41881761347
31
1.81845335589514e-005
  0
LINE
 8
GROUP0
10
3305.88860683162
20
4748.41881761347
30
1.81835556396948e-005
11
3305.95675517904
21
4747.90117952326
31
1.81826713884448e-005
  0
LINE
 8
GROUP0
10
3305.95675517904
20
4748.93645570367
30
1.8187125942859e-005
11
3305.88860683162
21
4748.41881761347
31
1.81835556396948e-005
  0
LINE
 8
GROUP0
10
3306.15655602405
20
4749.41881761347
30
1.81931390137891e-005
11
3305.95675517904
21
4748.93645570367
31
1.8187125942859e-005
  0
LINE
 8
GROUP0
10
3306.47439326925
20
4749.83303117584
30
1.82011851677544e-005
11
3306.15655602405
21
4749.41881761347
31
1.81931390137891e-005
  0
LINE
 8
GROUP0
10
3306.88860683162
20
4750.15086842104
30
1.8210715932554e-005
11
3306.47439326925
21
4749.83303117584
31
1.82011851677544e-005
  0
LINE
 8
GROUP0
10
3307.37096874142
20
4750.35066926605
30
1.8221081858627e-005
11
3306.88860683162
21
4750.15086842104
31
1.8210715932554e-005
  0
LINE
 8
GROUP0
10
3307.88860683162
20
4750.41881761347
30
1.82315765556496e-005
11
3307.37096874142
21
4750.35066926605
31
1.8221081858627e-005
  0
LINE
 8
GROUP0
10
3308.40624492183
20
4750.35066926605
30
1.82414847898826e-005
11
3307.88860683162
21
4750.41881761347
31
1.82315765556496e-005
  0
LINE
 8
GROUP0
10
3308.88860683162
20
4750.15086842104
30
1.82501313936712e-005
11
3308.40624492183
21
4750.35066926605
31
1.82414847898826e-005
  0
LINE
 8
GROUP0
10
3309.302820394
20
4749.83303117584
30
1.825692701658e-005
11
3308.88860683162
21
4750.15086842104
31
1.82501313936712e-005
  0
LINE
 8
GROUP0
10
3309.62065763919
20
4749.41881761347
30
1.82614085524335e-005
11
3309.302820394
21
4749.83303117584
31
1.825692701658e-005
  0
LINE
 8
GROUP0
10
3309.8204584842
20
4748.93645570367
30
1.82632707229402e-005
11
3309.62065763919
21
4749.41881761347
31
1.82614085524335e-005
  0
LINE
 8
GROUP0
10
3309.88860683162
20
4748.41881761347
30
1.82623864716902e-005
11
3309.8204584842
21
4748.93645570367
31
1.82632707229402e-005
  0
LINE
 8
GROUP0
10
3309.8204584842
20
4747.90117952326
30
1.8258816168526e-005
11
3309.88860683162
21
4748.41881761347
31
1.82623864716902e-005
  0
LINE
 8
GROUP0
10
3309.62065763919
20
4747.41881761347
30
1.82528030975959e-005
11
3309.8204584842
21
4747.90117952326
31
1.8258816168526e-005
  0
LINE
 8
GROUP0
10
3309.302820394
20
4747.00460405109
30
1.82447569436306e-005
11
3309.62065763919
21
4747.41881761347
31
1.82528030975959e-005
  0
LINE
 8
GROUP0
10
3309.62065763919
20
4926.419045995
30
2.00492678438025e-005
11
3309.8204584842
21
4926.9014079048
31
2.00552809147325e-005
  0
LINE
 8
GROUP0
10
3309.302820394
20
4926.00483243263
30
2.00412216898371e-005
11
3309.62065763919
21
4926.419045995
31
2.00492678438025e-005
  0
LINE
 8
GROUP0
10
3308.88860683162
20
4925.68699518744
30
2.00316909250375e-005
11
3309.302820394
21
4926.00483243263
31
2.00412216898371e-005
  0
LINE
 8
GROUP0
10
3308.40624492183
20
4925.48719434243
30
2.00213249989645e-005
11
3308.88860683162
21
4925.68699518744
31
2.00316909250375e-005
  0
LINE
 8
GROUP0
10
3307.88860683162
20
4925.419045995
30
2.0010830301942e-005
11
3308.40624492183
21
4925.48719434243
31
2.00213249989645e-005
  0
LINE
 8
GROUP0
10
3307.37096874142
20
4925.48719434243
30
2.00009220677089e-005
11
3307.88860683162
21
4925.419045995
31
2.0010830301942e-005
  0
LINE
 8
GROUP0
10
3306.88860683162
20
4925.68699518744
30
1.99922754639203e-005
11
3307.37096874142
21
4925.48719434243
31
2.00009220677089e-005
  0
LINE
 8
GROUP0
10
3306.47439326925
20
4926.00483243263
30
1.99854798410115e-005
11
3306.88860683162
21
4925.68699518744
31
1.99922754639203e-005
  0
LINE
 8
GROUP0
10
3306.15655602405
20
4926.419045995
30
1.9980998305158e-005
11
3306.47439326925
21
4926.00483243263
31
1.99854798410115e-005
  0
LINE
 8
GROUP0
10
3305.95675517904
20
4926.9014079048
30
1.99791361346513e-005
11
3306.15655602405
21
4926.419045995
31
1.9980998305158e-005
  0
LINE
 8
GROUP0
10
3305.88860683162
20
4927.419045995
30
1.99800203859013e-005
11
3305.95675517904
21
4926.9014079048
31
1.99791361346513e-005
  0
LINE
 8
GROUP0
10
3305.95675517904
20
4927.93668408521
30
1.99835906890655e-005
11
3305.88860683162
21
4927.419045995
31
1.99800203859013e-005
  0
LINE
 8
GROUP0
10
3306.15655602405
20
4928.419045995
30
1.99896037599956e-005
11
3305.95675517904
21
4927.93668408521
31
1.99835906890655e-005
  0
LINE
 8
GROUP0
10
3306.47439326925
20
4928.83325955738
30
1.99976499139609e-005
11
3306.15655602405
21
4928.419045995
31
1.99896037599956e-005
  0
LINE
 8
GROUP0
10
3306.88860683162
20
4929.15109680257
30
2.00071806787605e-005
11
3306.47439326925
21
4928.83325955738
31
1.99976499139609e-005
  0
LINE
 8
GROUP0
10
3307.37096874142
20
4929.35089764758
30
2.00175466048336e-005
11
3306.88860683162
21
4929.15109680257
31
2.00071806787605e-005
  0
LINE
 8
GROUP0
10
3307.88860683162
20
4929.419045995
30
2.00280413018561e-005
11
3307.37096874142
21
4929.35089764758
31
2.00175466048336e-005
  0
LINE
 8
GROUP0
10
3308.40624492183
20
4929.35089764758
30
2.00379495360892e-005
11
3307.88860683162
21
4929.419045995
31
2.00280413018561e-005
  0
LINE
 8
GROUP0
10
3308.88860683162
20
4929.15109680257
30
2.00465961398777e-005
11
3308.40624492183
21
4929.35089764758
31
2.00379495360892e-005
  0
LINE
 8
GROUP0
10
3309.302820394
20
4928.83325955738
30
2.00533917627865e-005
11
3308.88860683162
21
4929.15109680257
31
2.00465961398777e-005
  0
LINE
 8
GROUP0
10
3309.62065763919
20
4928.419045995
30
2.00578732986401e-005
11
3309.302820394
21
4928.83325955738
31
2.00533917627865e-005
  0
LINE
 8
GROUP0
10
3309.8204584842
20
4927.93668408521
30
2.00597354691467e-005
11
3309.62065763919
21
4928.419045995
31
2.00578732986401e-005
  0
LINE
 8
GROUP0
10
3309.88860683162
20
4927.419045995
30
2.00588512178967e-005
11
3309.8204584842
21
4927.93668408521
31
2.00597354691467e-005
  0
LINE
 8
GROUP0
10
3309.8204584842
20
4926.9014079048
30
2.00552809147325e-005
11
3309.88860683162
21
4927.419045995
31
2.00588512178967e-005
  0
LINE
 8
GROUP0
10
3396.88883048511
20
5013.68699037813
30
1.7368524866157e-005
11
3397.30304404749
21
5014.00482762332
31
1.73640433303035e-005
  0
LINE
 8
GROUP0
10
3396.40646857532
20
5013.48718953312
30
1.73703870366637e-005
11
3396.88883048511
21
5013.68699037813
31
1.7368524866157e-005
  0
LINE
 8
GROUP0
10
3395.88883048511
20
5013.41904118569
30
1.73695027854137e-005
11
3396.40646857532
21
5013.48718953312
31
1.73703870366637e-005
  0
LINE
 8
GROUP0
10
3395.37119239491
20
5013.48718953312
30
1.73659324822495e-005
11
3395.88883048511
21
5013.41904118569
31
1.73695027854137e-005
  0
LINE
 8
GROUP0
10
3394.88883048511
20
5013.68699037813
30
1.73599194113194e-005
11
3395.37119239491
21
5013.48718953312
31
1.73659324822495e-005
  0
LINE
 8
GROUP0
10
3394.47461692274
20
5014.00482762332
30
1.7351873347593e-005
11
3394.88883048511
21
5013.68699037813
31
1.73599194113194e-005
  0
LINE
 8
GROUP0
10
3394.15677967755
20
5014.4190411857
30
1.73423424925545e-005
11
3394.47461692274
21
5014.00482762332
31
1.7351873347593e-005
  0
LINE
 8
GROUP0
10
3393.95697883254
20
5014.90140309549
30
1.73319765664814e-005
11
3394.15677967755
21
5014.4190411857
31
1.73423424925545e-005
  0
LINE
 8
GROUP0
10
3393.88883048511
20
5015.4190411857
30
1.73214818694589e-005
11
3393.95697883254
21
5014.90140309549
31
1.73319765664814e-005
  0
LINE
 8
GROUP0
10
3393.95697883254
20
5015.9366792759
30
1.73115736352258e-005
11
3393.88883048511
21
5015.4190411857
31
1.73214818694589e-005
  0
LINE
 8
GROUP0
10
3394.15677967755
20
5016.41904118569
30
1.73029271216762e-005
11
3393.95697883254
21
5015.9366792759
31
1.73115736352258e-005
  0
LINE
 8
GROUP0
10
3394.47461692274
20
5016.83325474807
30
1.72961314987674e-005
11
3394.15677967755
21
5016.41904118569
31
1.73029271216762e-005
  0
LINE
 8
GROUP0
10
3394.88883048511
20
5017.15109199326
30
1.7291649872675e-005
11
3394.47461692274
21
5016.83325474807
31
1.72961314987674e-005
  0
LINE
 8
GROUP0
10
3395.37119239491
20
5017.35089283827
30
1.72897877021683e-005
11
3394.88883048511
21
5017.15109199326
31
1.7291649872675e-005
  0
LINE
 8
GROUP0
10
3395.88883048511
20
5017.41904118569
30
1.72906719534183e-005
11
3395.37119239491
21
5017.35089283827
31
1.72897877021683e-005
  0
LINE
 8
GROUP0
10
3396.40646857532
20
5017.35089283827
30
1.72942422565825e-005
11
3395.88883048511
21
5017.41904118569
31
1.72906719534183e-005
  0
LINE
 8
GROUP0
10
3396.88883048511
20
5017.15109199326
30
1.73002553275126e-005
11
3396.40646857532
21
5017.35089283827
31
1.72942422565825e-005
  0
LINE
 8
GROUP0
10
3397.30304404749
20
5016.83325474807
30
1.73083014814779e-005
11
3396.88883048511
21
5017.15109199326
31
1.73002553275126e-005
  0
LINE
 8
GROUP0
10
3397.62088129268
20
5016.41904118569
30
1.73178322462775e-005
11
3397.30304404749
21
5016.83325474807
31
1.73083014814779e-005
  0
LINE
 8
GROUP0
10
3397.82068213769
20
5015.9366792759
30
1.73281981723505e-005
11
3397.62088129268
21
5016.41904118569
31
1.73178322462775e-005
  0
LINE
 8
GROUP0
10
3397.88883048511
20
5015.4190411857
30
1.73386928693731e-005
11
3397.82068213769
21
5015.9366792759
31
1.73281981723505e-005
  0
LINE
 8
GROUP0
10
3397.82068213769
20
5014.90140309549
30
1.73486011036061e-005
11
3397.88883048511
21
5015.4190411857
31
1.73386928693731e-005
  0
LINE
 8
GROUP0
10
3397.62088129268
20
5014.4190411857
30
1.73572477073947e-005
11
3397.82068213769
21
5014.90140309549
31
1.73486011036061e-005
  0
LINE
 8
GROUP0
10
3397.30304404749
20
5014.00482762332
30
1.73640433303035e-005
11
3397.62088129268
21
5014.4190411857
31
1.73572477073947e-005
  0
LINE
 8
GROUP0
10
3573.15677967754
20
5016.41904118569
30
1.81958108079527e-005
11
3572.95697883254
21
5015.9366792759
31
1.82044573215023e-005
  0
LINE
 8
GROUP0
10
3573.47461692274
20
5016.83325474807
30
1.8189015094805e-005
11
3573.15677967754
21
5016.41904118569
31
1.81958108079527e-005
  0
LINE
 8
GROUP0
10
3573.88883048511
20
5017.15109199326
30
1.81845335589514e-005
11
3573.47461692274
21
5016.83325474807
31
1.8189015094805e-005
  0
LINE
 8
GROUP0
10
3574.37119239491
20
5017.35089283827
30
1.81826713884448e-005
11
3573.88883048511
21
5017.15109199326
31
1.81845335589514e-005
  0
LINE
 8
GROUP0
10
3574.88883048511
20
5017.41904118569
30
1.81835556396948e-005
11
3574.37119239491
21
5017.35089283827
31
1.81826713884448e-005
  0
LINE
 8
GROUP0
10
3575.40646857532
20
5017.35089283827
30
1.8187125942859e-005
11
3574.88883048511
21
5017.41904118569
31
1.81835556396948e-005
  0
LINE
 8
GROUP0
10
3575.88883048511
20
5017.15109199326
30
1.81931390137891e-005
11
3575.40646857532
21
5017.35089283827
31
1.8187125942859e-005
  0
LINE
 8
GROUP0
10
3576.30304404749
20
5016.83325474807
30
1.82011851677544e-005
11
3575.88883048511
21
5017.15109199326
31
1.81931390137891e-005
  0
LINE
 8
GROUP0
10
3576.62088129268
20
5016.41904118569
30
1.8210715932554e-005
11
3576.30304404749
21
5016.83325474807
31
1.82011851677544e-005
  0
LINE
 8
GROUP0
10
3576.82068213769
20
5015.9366792759
30
1.8221081858627e-005
11
3576.62088129268
21
5016.41904118569
31
1.8210715932554e-005
  0
LINE
 8
GROUP0
10
3576.88883048511
20
5015.41904118569
30
1.82315765556496e-005
11
3576.82068213769
21
5015.9366792759
31
1.8221081858627e-005
  0
LINE
 8
GROUP0
10
3576.82068213769
20
5014.90140309549
30
1.82414847898826e-005
11
3576.88883048511
21
5015.41904118569
31
1.82315765556496e-005
  0
LINE
 8
GROUP0
10
3576.62088129268
20
5014.41904118569
30
1.82501313936712e-005
11
3576.82068213769
21
5014.90140309549
31
1.82414847898826e-005
  0
LINE
 8
GROUP0
10
3576.30304404749
20
5014.00482762332
30
1.825692701658e-005
11
3576.62088129268
21
5014.41904118569
31
1.82501313936712e-005
  0
LINE
 8
GROUP0
10
3575.88883048511
20
5013.68699037813
30
1.82614085524335e-005
11
3576.30304404749
21
5014.00482762332
31
1.825692701658e-005
  0
LINE
 8
GROUP0
10
3575.40646857532
20
5013.48718953312
30
1.82632707229402e-005
11
3575.88883048511
21
5013.68699037813
31
1.82614085524335e-005
  0
LINE
 8
GROUP0
10
3574.88883048511
20
5013.41904118569
30
1.82623864716902e-005
11
3575.40646857532
21
5013.48718953312
31
1.82632707229402e-005
  0
LINE
 8
GROUP0
10
3574.37119239491
20
5013.48718953312
30
1.8258816168526e-005
11
3574.88883048511
21
5013.41904118569
31
1.82623864716902e-005
  0
LINE
 8
GROUP0
10
3573.88883048511
20
5013.68699037813
30
1.82528030975959e-005
11
3574.37119239491
21
5013.48718953312
31
1.8258816168526e-005
  0
LINE
 8
GROUP0
10
3573.47461692274
20
5014.00482762332
30
1.82447569436306e-005
11
3573.88883048511
21
5013.68699037813
31
1.82528030975959e-005
  0
LINE
 8
GROUP0
10
3573.15677967754
20
5014.41904118569
30
1.8235226178831e-005
11
3573.47461692274
21
5014.00482762332
31
1.82447569436306e-005
  0
LINE
 8
GROUP0
10
3572.95697883254
20
5014.90140309549
30
1.82248602527579e-005
11
3573.15677967754
21
5014.41904118569
31
1.8235226178831e-005
  0
LINE
 8
GROUP0
10
3572.88883048511
20
5015.41904118569
30
1.82143655557354e-005
11
3572.95697883254
21
5014.90140309549
31
1.82248602527579e-005
  0
LINE
 8
GROUP0
10
3572.95697883254
20
5015.9366792759
30
1.82044573215023e-005
11
3572.88883048511
21
5015.41904118569
31
1.82143655557354e-005
  0
LINE
 8
GROUP0
10
3753.88905886665
20
5013.41904118569
30
2.00588512178967e-005
11
3754.40669695686
21
5013.48718953312
31
2.00597354691467e-005
  0
LINE
 8
GROUP0
10
3753.37142077645
20
5013.48718953312
30
2.00552809147325e-005
11
3753.88905886665
21
5013.41904118569
31
2.00588512178967e-005
  0
LINE
 8
GROUP0
10
3752.88905886665
20
5013.68699037813
30
2.00492678438025e-005
11
3753.37142077645
21
5013.48718953312
31
2.00552809147325e-005
  0
LINE
 8
GROUP0
10
3752.47484530428
20
5014.00482762332
30
2.00412216898371e-005
11
3752.88905886665
21
5013.68699037813
31
2.00492678438025e-005
  0
LINE
 8
GROUP0
10
3752.15700805908
20
5014.41904118569
30
2.00316909250375e-005
11
3752.47484530428
21
5014.00482762332
31
2.00412216898371e-005
  0
LINE
 8
GROUP0
10
3751.95720721407
20
5014.90140309549
30
2.00213249989645e-005
11
3752.15700805908
21
5014.41904118569
31
2.00316909250375e-005
  0
LINE
 8
GROUP0
10
3751.88905886665
20
5015.41904118569
30
2.0010830301942e-005
11
3751.95720721407
21
5014.90140309549
31
2.00213249989645e-005
  0
LINE
 8
GROUP0
10
3751.95720721407
20
5015.9366792759
30
2.00009220677089e-005
11
3751.88905886665
21
5015.41904118569
31
2.0010830301942e-005
  0
LINE
 8
GROUP0
10
3752.15700805908
20
5016.41904118569
30
1.99922754639203e-005
11
3751.95720721407
21
5015.9366792759
31
2.00009220677089e-005
  0
LINE
 8
GROUP0
10
3752.47484530428
20
5016.83325474807
30
1.99854798410115e-005
11
3752.15700805908
21
5016.41904118569
31
1.99922754639203e-005
  0
LINE
 8
GROUP0
10
3752.88905886665
20
5017.15109199326
30
1.9980998305158e-005
11
3752.47484530428
21
5016.83325474807
31
1.99854798410115e-005
  0
LINE
 8
GROUP0
10
3753.37142077645
20
5017.35089283827
30
1.99791361346513e-005
11
3752.88905886665
21
5017.15109199326
31
1.9980998305158e-005
  0
LINE
 8
GROUP0
10
3753.88905886665
20
5017.41904118569
30
1.99800203859013e-005
11
3753.37142077645
21
5017.35089283827
31
1.99791361346513e-005
  0
LINE
 8
GROUP0
10
3754.40669695686
20
5017.35089283827
30
1.99835906890655e-005
11
3753.88905886665
21
5017.41904118569
31
1.99800203859013e-005
  0
LINE
 8
GROUP0
10
3754.88905886665
20
5017.15109199326
30
1.99896037599956e-005
11
3754.40669695686
21
5017.35089283827
31
1.99835906890655e-005
  0
LINE
 8
GROUP0
10
3755.30327242902
20
5016.83325474807
30
1.99976499139609e-005
11
3754.88905886665
21
5017.15109199326
31
1.99896037599956e-005
  0
LINE
 8
GROUP0
10
3755.62110967422
20
5016.41904118569
30
2.00071806787605e-005
11
3755.30327242902
21
5016.83325474807
31
1.99976499139609e-005
  0
LINE
 8
GROUP0
10
3755.82091051923
20
5015.9366792759
30
2.00175466048336e-005
11
3755.62110967422
21
5016.41904118569
31
2.00071806787605e-005
  0
LINE
 8
GROUP0
10
3755.88905886665
20
5015.41904118569
30
2.00280413018561e-005
11
3755.82091051923
21
5015.9366792759
31
2.00175466048336e-005
  0
LINE
 8
GROUP0
10
3755.82091051923
20
5014.90140309549
30
2.00379495360892e-005
11
3755.88905886665
21
5015.41904118569
31
2.00280413018561e-005
  0
LINE
 8
GROUP0
10
3755.62110967422
20
5014.41904118569
30
2.00465961398777e-005
11
3755.82091051923
21
5014.90140309549
31
2.00379495360892e-005
  0
LINE
 8
GROUP0
10
3755.30327242902
20
5014.00482762332
30
2.00533917627865e-005
11
3755.62110967422
21
5014.41904118569
31
2.00465961398777e-005
  0
LINE
 8
GROUP0
10
3754.88905886665
20
5013.68699037813
30
2.00578732986401e-005
11
3755.30327242902
21
5014.00482762332
31
2.00533917627865e-005
  0
LINE
 8
GROUP0
10
3754.40669695686
20
5013.48718953312
30
2.00597354691467e-005
11
3754.88905886665
21
5013.68699037813
31
2.00578732986401e-005
  0
LINE
 8
GROUP0
10
3577.38881460396
20
4673.41881785323
30
1.21289994382323e-005
11
3577.3036291695
21
4672.7717702405
31
1.21166095432557e-005
  0
LINE
 8
GROUP0
10
3577.3036291695
20
4672.7717702405
30
1.21166095432557e-005
11
3577.05387811307
21
4672.16881785332
31
1.21044809802129e-005
  0
LINE
 8
GROUP0
10
3577.05387811307
20
4672.16881785332
30
1.21044809802129e-005
11
3576.65658155643
21
4671.65105090047
31
1.20934404279183e-005
  0
LINE
 8
GROUP0
10
3576.65658155643
20
4671.65105090047
30
1.20934404279183e-005
11
3576.13881460335
21
4671.25375434412
31
1.2084240118071e-005
  0
LINE
 8
GROUP0
10
3576.13881460335
20
4671.25375434412
30
1.2084240118071e-005
11
3575.53586221604
21
4671.00400328803
31
1.20775070307388e-005
  0
LINE
 8
GROUP0
10
3575.53586221604
20
4671.00400328803
30
1.20775070307388e-005
11
3574.88881460326
21
4670.91881785393
31
1.20737002113458e-005
  0
LINE
 8
GROUP0
10
3574.88881460326
20
4670.91881785393
30
1.20737002113458e-005
11
3574.24176699053
21
4671.00400328839
31
1.20730789163304e-005
  0
LINE
 8
GROUP0
10
3574.24176699053
20
4671.00400328839
30
1.20730789163304e-005
11
3573.63881460335
21
4671.25375434482
31
1.20756855579884e-005
  0
LINE
 8
GROUP0
10
3573.63881460335
20
4671.25375434482
30
1.20756855579884e-005
11
3573.1210476505
21
4671.65105090147
31
1.20813424558719e-005
  0
LINE
 8
GROUP0
10
3573.1210476505
20
4671.65105090147
30
1.20813424558719e-005
11
3572.72375109415
21
4672.16881785454
31
1.20896641092827e-005
  0
LINE
 8
GROUP0
10
3572.72375109415
20
4672.16881785454
30
1.20896641092827e-005
11
3572.47400003806
21
4672.77177024186
31
1.21000833665619e-005
  0
LINE
 8
GROUP0
10
3572.47400003806
20
4672.77177024186
30
1.21000833665619e-005
11
3572.38881460396
21
4673.41881785464
31
1.21118903180673e-005
  0
LINE
 8
GROUP0
10
3572.38881460396
20
4673.41881785464
30
1.21118903180673e-005
11
3572.47400003842
21
4674.06586546737
31
1.21242802130439e-005
  0
LINE
 8
GROUP0
10
3572.47400003842
20
4674.06586546737
30
1.21242802130439e-005
11
3572.72375109485
21
4674.66881785454
31
1.21364087760867e-005
  0
LINE
 8
GROUP0
10
3572.72375109485
20
4674.66881785454
30
1.21364087760867e-005
11
3573.12104765149
21
4675.1865848074
31
1.21474493283813e-005
  0
LINE
 8
GROUP0
10
3573.12104765149
20
4675.1865848074
30
1.21474493283813e-005
11
3573.63881460457
21
4675.58388136375
31
1.21566496382286e-005
  0
LINE
 8
GROUP0
10
3573.63881460457
20
4675.58388136375
30
1.21566496382286e-005
11
3574.24176699189
21
4675.83363241984
31
1.21633827255607e-005
  0
LINE
 8
GROUP0
10
3574.24176699189
20
4675.83363241984
30
1.21633827255607e-005
11
3574.88881460467
21
4675.91881785393
31
1.21671895449538e-005
  0
LINE
 8
GROUP0
10
3574.88881460467
20
4675.91881785393
30
1.21671895449538e-005
11
3575.5358622174
21
4675.83363241948
31
1.21678108399692e-005
  0
LINE
 8
GROUP0
10
3575.5358622174
20
4675.83363241948
30
1.21678108399692e-005
11
3576.13881460457
21
4675.58388136304
31
1.21652041983111e-005
  0
LINE
 8
GROUP0
10
3576.13881460457
20
4675.58388136304
30
1.21652041983111e-005
11
3576.65658155743
21
4675.1865848064
31
1.21595473004277e-005
  0
LINE
 8
GROUP0
10
3576.65658155743
20
4675.1865848064
30
1.21595473004277e-005
11
3577.05387811377
21
4674.66881785333
31
1.21512256470169e-005
  0
LINE
 8
GROUP0
10
3577.05387811377
20
4674.66881785333
30
1.21512256470169e-005
11
3577.30362916987
21
4674.06586546601
31
1.21408063897377e-005
  0
LINE
 8
GROUP0
10
3577.30362916987
20
4674.06586546601
30
1.21408063897377e-005
11
3577.38881460396
21
4673.41881785323
31
1.21289994382323e-005
  0
LINE
 8
GROUP0
10
3477.05387811307
20
4672.16881785332
30
1.21044809802129e-005
11
3476.65658155643
21
4671.65105090047
31
1.20934404279183e-005
  0
LINE
 8
GROUP0
10
3476.65658155643
20
4671.65105090047
30
1.20934404279183e-005
11
3476.13881460335
21
4671.25375434412
31
1.2084240118071e-005
  0
LINE
 8
GROUP0
10
3476.13881460335
20
4671.25375434412
30
1.2084240118071e-005
11
3475.53586221604
21
4671.00400328803
31
1.20775070307388e-005
  0
LINE
 8
GROUP0
10
3475.53586221604
20
4671.00400328803
30
1.20775070307388e-005
11
3474.88881460326
21
4670.91881785393
31
1.20737002113458e-005
  0
LINE
 8
GROUP0
10
3474.88881460326
20
4670.91881785393
30
1.20737002113458e-005
11
3474.24176699053
21
4671.00400328839
31
1.20730789163304e-005
  0
LINE
 8
GROUP0
10
3474.24176699053
20
4671.00400328839
30
1.20730789163304e-005
11
3473.63881460335
21
4671.25375434482
31
1.20756855579884e-005
  0
LINE
 8
GROUP0
10
3473.63881460335
20
4671.25375434482
30
1.20756855579884e-005
11
3473.1210476505
21
4671.65105090147
31
1.20813424558719e-005
  0
LINE
 8
GROUP0
10
3473.1210476505
20
4671.65105090147
30
1.20813424558719e-005
11
3472.72375109415
21
4672.16881785454
31
1.20896641092827e-005
  0
LINE
 8
GROUP0
10
3472.72375109415
20
4672.16881785454
30
1.20896641092827e-005
11
3472.47400003806
21
4672.77177024186
31
1.21000833665619e-005
  0
LINE
 8
GROUP0
10
3472.47400003806
20
4672.77177024186
30
1.21000833665619e-005
11
3472.38881460396
21
4673.41881785464
31
1.21118903180673e-005
  0
LINE
 8
GROUP0
10
3472.38881460396
20
4673.41881785464
30
1.21118903180673e-005
11
3472.47400003842
21
4674.06586546737
31
1.21242802130439e-005
  0
LINE
 8
GROUP0
10
3472.47400003842
20
4674.06586546737
30
1.21242802130439e-005
11
3472.72375109485
21
4674.66881785454
31
1.21364087760867e-005
  0
LINE
 8
GROUP0
10
3472.72375109485
20
4674.66881785454
30
1.21364087760867e-005
11
3473.12104765149
21
4675.1865848074
31
1.21474493283813e-005
  0
LINE
 8
GROUP0
10
3473.12104765149
20
4675.1865848074
30
1.21474493283813e-005
11
3473.63881460457
21
4675.58388136375
31
1.21566496382286e-005
  0
LINE
 8
GROUP0
10
3473.63881460457
20
4675.58388136375
30
1.21566496382286e-005
11
3474.24176699188
21
4675.83363241984
31
1.21633827255607e-005
  0
LINE
 8
GROUP0
10
3474.24176699188
20
4675.83363241984
30
1.21633827255607e-005
11
3474.88881460467
21
4675.91881785393
31
1.21671895449538e-005
  0
LINE
 8
GROUP0
10
3474.88881460467
20
4675.91881785393
30
1.21671895449538e-005
11
3475.5358622174
21
4675.83363241948
31
1.21678108399692e-005
  0
LINE
 8
GROUP0
10
3475.5358622174
20
4675.83363241948
30
1.21678108399692e-005
11
3476.13881460457
21
4675.58388136304
31
1.21652041983111e-005
  0
LINE
 8
GROUP0
10
3476.13881460457
20
4675.58388136304
30
1.21652041983111e-005
11
3476.65658155743
21
4675.1865848064
31
1.21595473004277e-005
  0
LINE
 8
GROUP0
10
3476.65658155743
20
4675.1865848064
30
1.21595473004277e-005
11
3477.05387811377
21
4674.66881785333
31
1.21512256470169e-005
  0
LINE
 8
GROUP0
10
3477.05387811377
20
4674.66881785333
30
1.21512256470169e-005
11
3477.30362916987
21
4674.06586546601
31
1.21408063897377e-005
  0
LINE
 8
GROUP0
10
3477.30362916987
20
4674.06586546601
30
1.21408063897377e-005
11
3477.38881460396
21
4673.41881785323
31
1.21289994382323e-005
  0
LINE
 8
GROUP0
10
3477.38881460396
20
4673.41881785323
30
1.21289994382323e-005
11
3477.3036291695
21
4672.7717702405
31
1.21166095432557e-005
  0
LINE
 8
GROUP0
10
3477.3036291695
20
4672.7717702405
30
1.21166095432557e-005
11
3477.05387811307
21
4672.16881785332
31
1.21044809802129e-005
  0
LINE
 8
GROUP0
10
3672.47400003806
20
4672.77177024186
30
1.21000833665619e-005
11
3672.38881460396
21
4673.41881785464
31
1.21118903180673e-005
  0
LINE
 8
GROUP0
10
3672.38881460396
20
4673.41881785464
30
1.21118903180673e-005
11
3672.47400003842
21
4674.06586546737
31
1.21242802130439e-005
  0
LINE
 8
GROUP0
10
3672.47400003842
20
4674.06586546737
30
1.21242802130439e-005
11
3672.72375109485
21
4674.66881785454
31
1.21364087760867e-005
  0
LINE
 8
GROUP0
10
3672.72375109485
20
4674.66881785454
30
1.21364087760867e-005
11
3673.12104765149
21
4675.1865848074
31
1.21474493283813e-005
  0
LINE
 8
GROUP0
10
3673.12104765149
20
4675.1865848074
30
1.21474493283813e-005
11
3673.63881460457
21
4675.58388136375
31
1.21566496382286e-005
  0
LINE
 8
GROUP0
10
3673.63881460457
20
4675.58388136375
30
1.21566496382286e-005
11
3674.24176699188
21
4675.83363241984
31
1.21633827255607e-005
  0
LINE
 8
GROUP0
10
3674.24176699188
20
4675.83363241984
30
1.21633827255607e-005
11
3674.88881460467
21
4675.91881785393
31
1.21671895449538e-005
  0
LINE
 8
GROUP0
10
3674.88881460467
20
4675.91881785393
30
1.21671895449538e-005
11
3675.5358622174
21
4675.83363241948
31
1.21678108399692e-005
  0
LINE
 8
GROUP0
10
3675.5358622174
20
4675.83363241948
30
1.21678108399692e-005
11
3676.13881460457
21
4675.58388136304
31
1.21652041983111e-005
  0
LINE
 8
GROUP0
10
3676.13881460457
20
4675.58388136304
30
1.21652041983111e-005
11
3676.65658155743
21
4675.1865848064
31
1.21595473004277e-005
  0
LINE
 8
GROUP0
10
3676.65658155743
20
4675.1865848064
30
1.21595473004277e-005
11
3677.05387811377
21
4674.66881785333
31
1.21512256470169e-005
  0
LINE
 8
GROUP0
10
3677.05387811377
20
4674.66881785333
30
1.21512256470169e-005
11
3677.30362916987
21
4674.06586546601
31
1.21408063897377e-005
  0
LINE
 8
GROUP0
10
3677.30362916987
20
4674.06586546601
30
1.21408063897377e-005
11
3677.38881460396
21
4673.41881785323
31
1.21289994382323e-005
  0
LINE
 8
GROUP0
10
3677.38881460396
20
4673.41881785323
30
1.21289994382323e-005
11
3677.3036291695
21
4672.7717702405
31
1.21166095432557e-005
  0
LINE
 8
GROUP0
10
3677.3036291695
20
4672.7717702405
30
1.21166095432557e-005
11
3677.05387811307
21
4672.16881785332
31
1.21044809802129e-005
  0
LINE
 8
GROUP0
10
3677.05387811307
20
4672.16881785332
30
1.21044809802129e-005
11
3676.65658155643
21
4671.65105090047
31
1.20934404279183e-005
  0
LINE
 8
GROUP0
10
3676.65658155643
20
4671.65105090047
30
1.20934404279183e-005
11
3676.13881460335
21
4671.25375434412
31
1.2084240118071e-005
  0
LINE
 8
GROUP0
10
3676.13881460335
20
4671.25375434412
30
1.2084240118071e-005
11
3675.53586221604
21
4671.00400328803
31
1.20775070307388e-005
  0
LINE
 8
GROUP0
10
3675.53586221604
20
4671.00400328803
30
1.20775070307388e-005
11
3674.88881460326
21
4670.91881785393
31
1.20737002113458e-005
  0
LINE
 8
GROUP0
10
3674.88881460326
20
4670.91881785393
30
1.20737002113458e-005
11
3674.24176699053
21
4671.00400328839
31
1.20730789163304e-005
  0
LINE
 8
GROUP0
10
3674.24176699053
20
4671.00400328839
30
1.20730789163304e-005
11
3673.63881460335
21
4671.25375434482
31
1.20756855579884e-005
  0
LINE
 8
GROUP0
10
3673.63881460335
20
4671.25375434482
30
1.20756855579884e-005
11
3673.1210476505
21
4671.65105090147
31
1.20813424558719e-005
  0
LINE
 8
GROUP0
10
3673.1210476505
20
4671.65105090147
30
1.20813424558719e-005
11
3672.72375109415
21
4672.16881785454
31
1.20896641092827e-005
  0
LINE
 8
GROUP0
10
3672.72375109415
20
4672.16881785454
30
1.20896641092827e-005
11
3672.47400003806
21
4672.77177024186
31
1.21000833665619e-005
 0
ENDSEC
 0
EOF
