 0
SECTION
 2
ENTITIES
  0
LINE
 8
GROUP0
10
5895.08415736509
20
-582.590466237459
30
1.50230013934272e-005
11
5895.40199461028
21
-583.004679799832
31
1.50163440651996e-005
  0
LINE
 8
GROUP0
10
5894.88435652008
20
-582.108104327664
30
1.50313368498689e-005
11
5895.08415736509
21
-582.590466237459
31
1.50230013934272e-005
  0
LINE
 8
GROUP0
10
5894.81620817265
20
-581.590466237459
30
1.50407823875265e-005
11
5894.88435652008
21
-582.108104327664
31
1.50313368498689e-005
  0
LINE
 8
GROUP0
10
5894.88435652008
20
-581.072828147254
30
1.50506943088657e-005
11
5894.81620817265
21
-581.590466237459
31
1.50407823875265e-005
  0
LINE
 8
GROUP0
10
5897.81620817265
20
-404.322517045028
30
1.83655808123018e-005
11
5898.23042173503
21
-404.004679799832
31
1.83729410573596e-005
  0
LINE
 8
GROUP0
10
5897.33384626286
20
-404.522317890037
30
1.83601944041933e-005
11
5897.81620817265
21
-404.322517045028
31
1.83655808123018e-005
  0
LINE
 8
GROUP0
10
5896.29857008245
20
-404.522317890037
30
1.8356651871354e-005
11
5896.81620817266
21
-404.590466237459
31
1.83571489094814e-005
  0
LINE
 8
GROUP0
10
5896.81620817266
20
-404.590466237459
30
1.83571489094814e-005
11
5897.33384626286
21
-404.522317890037
31
1.83601944041933e-005
  0
LINE
 8
GROUP0
10
5895.08415736509
20
-401.590466237459
30
1.84073157437903e-005
11
5894.88435652008
21
-402.072828147254
31
1.83976129208507e-005
  0
LINE
 8
GROUP0
10
5898.23042173503
20
-401.176252675086
30
1.84258266185344e-005
11
5897.81620817265
21
-400.85841542989
31
1.84303521317652e-005
  0
LINE
 8
GROUP0
10
5895.40199461028
20
-401.176252675086
30
1.84161482383594e-005
11
5895.08415736509
21
-401.590466237459
31
1.84073157437903e-005
  0
LINE
 8
GROUP0
10
5895.08415736509
20
-403.590466237459
30
1.83699200054122e-005
11
5895.40199461028
21
-404.004679799832
31
1.83632626771846e-005
  0
LINE
 8
GROUP0
10
5895.81620817266
20
-404.322517045028
30
1.83587371639538e-005
11
5896.29857008245
21
-404.522317890037
31
1.8356651871354e-005
  0
LINE
 8
GROUP0
10
5894.88435652008
20
-403.108104327664
30
1.83782554618539e-005
11
5895.08415736509
21
-403.590466237459
31
1.83699200054122e-005
  0
LINE
 8
GROUP0
10
5894.81620817265
20
-402.590466237459
30
1.83877009995115e-005
11
5894.88435652008
21
-403.108104327664
31
1.83782554618539e-005
  0
LINE
 8
GROUP0
10
5896.81620817266
20
-400.590466237459
30
1.84319403862376e-005
11
5896.29857008245
21
-400.658614584881
31
1.84288948908207e-005
  0
LINE
 8
GROUP0
10
5895.40199461028
20
-404.004679799832
30
1.83632626771846e-005
11
5895.81620817266
21
-404.322517045028
31
1.83587371639538e-005
  0
LINE
 8
GROUP0
10
5895.81620817266
20
-400.85841542989
30
1.84235084834172e-005
11
5895.40199461028
21
-401.176252675086
31
1.84161482383594e-005
  0
LINE
 8
GROUP0
10
5897.33384626286
20
-400.658614584881
30
1.8432437424365e-005
11
5896.81620817266
21
-400.590466237459
31
1.84319403862376e-005
  0
LINE
 8
GROUP0
10
5897.81620817265
20
-400.85841542989
30
1.84303521317652e-005
11
5897.33384626286
21
-400.658614584881
31
1.8432437424365e-005
  0
LINE
 8
GROUP0
10
5896.29857008245
20
-400.658614584881
30
1.84288948908207e-005
11
5895.81620817266
21
-400.85841542989
31
1.84235084834172e-005
  0
LINE
 8
GROUP0
10
5894.88435652008
20
-402.072828147254
30
1.83976129208507e-005
11
5894.81620817265
21
-402.590466237459
31
1.83877009995115e-005
  0
LINE
 8
GROUP0
10
5986.54825417092
20
-670.59068989095
30
1.3690558755719e-005
11
5986.74805501592
21
-670.108327981155
31
1.37002615793635e-005
  0
LINE
 8
GROUP0
10
5986.23041692572
20
-671.004903453323
30
1.36817262618549e-005
11
5986.54825417092
21
-670.59068989095
31
1.3690558755719e-005
  0
LINE
 8
GROUP0
10
5898.81620817266
20
-402.590466237459
30
1.84013882962075e-005
11
5898.74805982523
21
-402.072828147254
31
1.84108338338651e-005
  0
LINE
 8
GROUP0
10
5986.74805501592
20
-670.108327981155
30
1.37002615793635e-005
11
5986.81620336335
21
-669.590689890951
31
1.37101734999978e-005
  0
LINE
 8
GROUP0
10
5898.74805982523
20
-402.072828147254
30
1.84108338338651e-005
11
5898.54825898022
21
-401.590466237459
31
1.84191692903068e-005
  0
LINE
 8
GROUP0
10
5985.81620336335
20
-671.322740698519
30
1.36743660160921e-005
11
5986.23041692572
21
-671.004903453323
31
1.36817262618549e-005
  0
LINE
 8
GROUP0
10
5983.81620336335
20
-671.322740698519
30
1.3667522368449e-005
11
5984.29856527314
21
-671.522541543529
31
1.36654370758493e-005
  0
LINE
 8
GROUP0
10
5898.54825898022
20
-403.590466237459
30
1.83817735519287e-005
11
5898.74805982523
21
-403.108104327664
31
1.83914763748683e-005
  0
LINE
 8
GROUP0
10
5898.23042173503
20
-404.004679799832
30
1.83729410573596e-005
11
5898.54825898022
21
-403.590466237459
31
1.83817735519287e-005
  0
LINE
 8
GROUP0
10
5985.33384145355
20
-671.522541543529
30
1.36689796086886e-005
11
5985.81620336335
21
-671.322740698519
31
1.36743660160921e-005
  0
LINE
 8
GROUP0
10
5984.81620336335
20
-671.590689890951
30
1.36659341132717e-005
11
5985.33384145355
21
-671.522541543529
31
1.36689796086886e-005
  0
LINE
 8
GROUP0
10
5984.29856527314
20
-671.522541543529
30
1.36654370758493e-005
11
5984.81620336335
21
-671.590689890951
31
1.36659341132717e-005
  0
LINE
 8
GROUP0
10
5898.54825898022
20
-401.590466237459
30
1.84191692903068e-005
11
5898.23042173503
21
-401.176252675086
31
1.84258266185344e-005
  0
LINE
 8
GROUP0
10
5898.74805982523
20
-403.108104327664
30
1.83914763748683e-005
11
5898.81620817266
21
-402.590466237459
31
1.84013882962075e-005
  0
LINE
 8
GROUP0
10
5986.74805501592
20
-669.073051800746
30
1.37196190376554e-005
11
5986.54825417092
21
-668.590689890951
31
1.37279544948021e-005
  0
LINE
 8
GROUP0
10
5986.81620336335
20
-669.590689890951
30
1.37101734999978e-005
11
5986.74805501592
21
-669.073051800746
31
1.37196190376554e-005
  0
LINE
 8
GROUP0
10
5999.6920916415
20
-254.66117558812
30
2.42465044399898e-005
11
5999.64098038093
21
-255.04940415578
31
2.42566161171798e-005
  0
LINE
 8
GROUP0
10
5998.58032020916
20
-256.110064327557
30
2.43055445413531e-005
11
5998.1920916415
21
-256.161175588122
31
2.43156996812766e-005
  0
LINE
 8
GROUP0
10
5996.69209164151
20
-254.661175588123
30
2.4315893065413e-005
11
5996.74320290207
21
-254.272947020471
31
2.4305781387518e-005
  0
LINE
 8
GROUP0
10
5997.80386307385
20
-253.212286848692
30
2.42568529633447e-005
11
5998.1920916415
21
-253.161175588127
31
2.42466978241263e-005
  0
LINE
 8
GROUP0
10
5997.4420916415
20
-255.960213693804
30
2.43284245896813e-005
11
5997.13143146972
21
-255.721835759902
31
2.43301271768748e-005
  0
LINE
 8
GROUP0
10
5997.80386307385
20
-256.110064327557
30
2.43235036396006e-005
11
5997.4420916415
21
-255.960213693804
31
2.43284245896813e-005
  0
LINE
 8
GROUP0
10
5998.58032020916
20
-253.212286848695
30
2.42388938658022e-005
11
5998.9420916415
21
-253.362137482449
31
2.42339729157215e-005
  0
LINE
 8
GROUP0
10
5998.1920916415
20
-253.161175588127
30
2.42466978241263e-005
11
5998.58032020916
21
-253.212286848695
31
2.42388938658022e-005
  0
LINE
 8
GROUP0
10
5996.89305353583
20
-255.411175588123
30
2.4328495372955e-005
11
5996.74320290207
21
-255.049404155776
31
2.43236403818903e-005
  0
LINE
 8
GROUP0
10
5997.13143146972
20
-255.721835759902
30
2.43301271768748e-005
11
5996.89305353583
21
-255.411175588123
31
2.4328495372955e-005
  0
LINE
 8
GROUP0
10
5996.74320290207
20
-255.049404155776
30
2.43236403818903e-005
11
5996.69209164151
21
-254.661175588123
31
2.4315893065413e-005
  0
LINE
 8
GROUP0
10
5998.9420916415
20
-253.362137482449
30
2.42339729157215e-005
11
5999.25275181328
21
-253.60051541635
31
2.4232270328528e-005
  0
LINE
 8
GROUP0
10
5997.13143146972
20
-253.600515416345
30
2.42813354956961e-005
11
5997.44209164151
21
-253.362137482448
31
2.42686672284331e-005
  0
LINE
 8
GROUP0
10
5998.9420916415
20
-255.960213693806
30
2.42937302769697e-005
11
5998.58032020916
21
-256.110064327557
31
2.43055445413531e-005
  0
LINE
 8
GROUP0
10
5999.64098038094
20
-254.272947020474
30
2.42387571221025e-005
11
5999.6920916415
21
-254.66117558812
31
2.42465044399898e-005
  0
LINE
 8
GROUP0
10
5998.1920916415
20
-256.161175588122
30
2.43156996812766e-005
11
5997.80386307385
21
-256.110064327557
31
2.43235036396006e-005
  0
LINE
 8
GROUP0
10
5999.25275181329
20
-255.721835759901
30
2.42810620097067e-005
11
5998.9420916415
21
-255.960213693806
31
2.42937302769697e-005
  0
LINE
 8
GROUP0
10
5996.89305353583
20
-253.911175588128
30
2.42939944443798e-005
11
5997.13143146972
21
-253.600515416345
31
2.42813354956961e-005
  0
LINE
 8
GROUP0
10
5996.74320290207
20
-254.272947020471
30
2.4305781387518e-005
11
5996.89305353583
21
-253.911175588128
31
2.42939944443798e-005
  0
LINE
 8
GROUP0
10
5999.49112974718
20
-253.91117558813
30
2.42339021324478e-005
11
5999.64098038094
21
-254.272947020474
31
2.42387571221025e-005
  0
LINE
 8
GROUP0
10
5999.64098038093
20
-255.04940415578
30
2.42566161171798e-005
11
5999.49112974718
21
-255.411175588126
31
2.4268403060318e-005
  0
LINE
 8
GROUP0
10
5999.25275181328
20
-253.60051541635
30
2.4232270328528e-005
11
5999.49112974718
21
-253.91117558813
31
2.42339021324478e-005
  0
LINE
 8
GROUP0
10
5999.49112974718
20
-255.411175588126
30
2.4268403060318e-005
11
5999.25275181329
21
-255.721835759901
31
2.42810620097067e-005
  0
LINE
 8
GROUP0
10
5997.44209164151
20
-253.362137482448
30
2.42686672284331e-005
11
5997.80386307385
21
-253.212286848692
31
2.42568529633447e-005
  0
LINE
 8
GROUP0
10
6098.16413283886
20
-254.039155030021
30
2.19545843896773e-005
11
6098.31398347262
21
-254.400926462371
31
2.19594393800371e-005
  0
LINE
 8
GROUP0
10
6004.61035355224
20
-162.241334627141
30
2.20070337450418e-005
11
6004.37197561834
21
-162.551994798919
31
2.20196926937255e-005
  0
LINE
 8
GROUP0
10
6004.37197561834
20
-162.551994798919
30
2.20196926937255e-005
11
6004.06131544656
21
-162.790372732819
31
2.20323609616935e-005
  0
LINE
 8
GROUP0
10
6097.92575490496
20
-255.849815201807
30
2.20017442669362e-005
11
6097.61509473318
21
-256.088193135697
31
2.20144125341992e-005
  0
LINE
 8
GROUP0
10
6098.16413283885
20
-255.539155030027
30
2.19890853182525e-005
11
6097.92575490496
21
-255.849815201807
31
2.20017442669362e-005
  0
LINE
 8
GROUP0
10
6096.86509473318
20
-253.28915503002
30
2.19673800813558e-005
11
6097.25332330084
21
-253.340266290584
31
2.19595761230318e-005
  0
LINE
 8
GROUP0
10
6096.11509473318
20
-256.088193135697
30
2.20491068469109e-005
11
6095.8044345614
21
-255.849815201808
31
2.20508094341043e-005
  0
LINE
 8
GROUP0
10
6097.25332330083
20
-256.238043769459
30
2.20262267992877e-005
11
6096.86509473318
21
-256.289155030023
31
2.20363819385061e-005
  0
LINE
 8
GROUP0
10
6095.8044345614
20
-253.728494858242
30
2.20020177529256e-005
11
6096.11509473318
21
-253.490116924349
31
2.19893494856627e-005
  0
LINE
 8
GROUP0
10
6097.25332330084
20
-253.340266290584
30
2.19595761230318e-005
11
6097.61509473318
21
-253.490116924346
31
2.1954655172951e-005
  0
LINE
 8
GROUP0
10
6097.92575490496
20
-253.728494858241
30
2.19529525857576e-005
11
6098.16413283886
21
-254.039155030021
31
2.19545843896773e-005
  0
LINE
 8
GROUP0
10
6002.25065527479
20
-162.551994798916
30
2.20687578615986e-005
11
6002.01227734089
21
-162.241334627142
31
2.20671260576788e-005
  0
LINE
 8
GROUP0
10
6095.41620599374
20
-255.177383597675
30
2.20443226405298e-005
11
6095.36509473318
21
-254.789155030023
31
2.20365753226426e-005
  0
LINE
 8
GROUP0
10
6095.36509473318
20
-254.789155030023
30
2.20365753226426e-005
11
6095.41620599375
21
-254.400926462368
31
2.20264636454526e-005
  0
LINE
 8
GROUP0
10
6096.47686616552
20
-256.23804376946
30
2.20441858968301e-005
11
6096.11509473318
21
-256.088193135697
31
2.20491068469109e-005
  0
LINE
 8
GROUP0
10
6098.31398347262
20
-254.400926462371
30
2.19594393800371e-005
11
6098.36509473318
21
-254.78915503002
31
2.19671866972193e-005
  0
LINE
 8
GROUP0
10
6002.01227734089
20
-162.241334627142
30
2.20671260576788e-005
11
6001.86242670713
21
-161.879563194793
31
2.20622710666141e-005
  0
LINE
 8
GROUP0
10
6002.92308687891
20
-162.940223366576
30
2.20621343243244e-005
11
6002.56131544657
21
-162.790372732813
31
2.20670552737001e-005
  0
LINE
 8
GROUP0
10
6002.56131544657
20
-162.790372732813
30
2.20670552737001e-005
11
6002.25065527479
21
-162.551994798916
31
2.20687578615986e-005
  0
LINE
 8
GROUP0
10
6001.86242670713
20
-161.879563194793
30
2.20622710666141e-005
11
6001.81131544656
21
-161.491334627136
31
2.20545237501368e-005
  0
LINE
 8
GROUP0
10
6096.86509473318
20
-256.289155030023
30
2.20363819385061e-005
11
6096.47686616552
21
-256.23804376946
31
2.20441858968301e-005
  0
LINE
 8
GROUP0
10
6095.5660566275
20
-255.539155030019
30
2.20491776301845e-005
11
6095.41620599374
21
-255.177383597675
31
2.20443226405298e-005
  0
LINE
 8
GROUP0
10
6098.31398347261
20
-255.177383597681
30
2.19772983744093e-005
11
6098.16413283885
21
-255.539155030027
31
2.19890853182525e-005
  0
LINE
 8
GROUP0
10
6095.5660566275
20
-254.039155030022
30
2.20146767016094e-005
11
6095.8044345614
21
-253.728494858242
31
2.20020177529256e-005
  0
LINE
 8
GROUP0
10
6095.8044345614
20
-255.849815201808
30
2.20508094341043e-005
11
6095.5660566275
21
-255.539155030019
31
2.20491776301845e-005
  0
LINE
 8
GROUP0
10
6004.760204186
20
-161.879563194793
30
2.19952468019036e-005
11
6004.61035355224
21
-162.241334627141
31
2.20070337450418e-005
  0
LINE
 8
GROUP0
10
6095.41620599375
20
-254.400926462368
30
2.20264636454526e-005
11
6095.5660566275
21
-254.039155030022
31
2.20146767016094e-005
  0
LINE
 8
GROUP0
10
6003.31131544656
20
-162.991334627141
30
2.20543303652954e-005
11
6002.92308687891
21
-162.940223366576
31
2.20621343243244e-005
  0
LINE
 8
GROUP0
10
6098.36509473318
20
-254.78915503002
30
2.19671866972193e-005
11
6098.31398347261
21
-255.177383597681
31
2.19772983744093e-005
  0
LINE
 8
GROUP0
10
6097.61509473318
20
-256.088193135697
30
2.20144125341992e-005
11
6097.25332330083
21
-256.238043769459
31
2.20262267992877e-005
  0
LINE
 8
GROUP0
10
6001.81131544656
20
-161.491334627136
30
2.20545237501368e-005
11
6001.86242670713
21
-161.103106059486
31
2.20444120722418e-005
  0
LINE
 8
GROUP0
10
6004.06131544656
20
-162.790372732819
30
2.20323609616935e-005
11
6003.69954401421
21
-162.940223366575
31
2.20441752260769e-005
  0
LINE
 8
GROUP0
10
6096.47686616554
20
-156.413216090473
30
1.97481530685162e-005
11
6096.1150947332
21
-156.263365456719
31
1.97530740185969e-005
  0
LINE
 8
GROUP0
10
6096.1150947332
20
-153.665289245366
30
1.96933166573487e-005
11
6096.47686616554
21
-153.515438611606
31
1.96815023922603e-005
  0
LINE
 8
GROUP0
10
6095.41620599376
20
-155.352555918699
30
1.97482898115109e-005
11
6095.3650947332
21
-154.964327351043
31
1.97405424943287e-005
  0
LINE
 8
GROUP0
10
6001.86242670713
20
-161.103106059486
30
2.20444120722418e-005
11
6002.01227734089
21
-160.741334627144
31
2.20326251283987e-005
  0
LINE
 8
GROUP0
10
6097.25332330085
20
-156.413216090476
30
1.97301939709738e-005
11
6096.8650947332
21
-156.46432735104
31
1.97403491101922e-005
  0
LINE
 8
GROUP0
10
6095.80443456142
20
-153.90366717926
30
1.97059849246117e-005
11
6096.1150947332
21
-153.665289245366
31
1.96933166573487e-005
  0
LINE
 8
GROUP0
10
6096.47686616554
20
-153.515438611606
30
1.96815023922603e-005
11
6096.8650947332
21
-153.464327351049
31
1.96713472530419e-005
  0
LINE
 8
GROUP0
10
6097.61509473318
20
-253.490116924346
30
2.1954655172951e-005
11
6097.92575490496
21
-253.728494858241
31
2.19529525857576e-005
  0
LINE
 8
GROUP0
10
6002.56131544657
20
-160.192296521465
30
2.20072979131569e-005
11
6002.92308687891
21
-160.042445887708
31
2.19954836480685e-005
  0
LINE
 8
GROUP0
10
6002.25065527478
20
-160.430674455361
30
2.20199661804199e-005
11
6002.56131544657
21
-160.192296521465
31
2.20072979131569e-005
  0
LINE
 8
GROUP0
10
6004.61035355224
20
-160.741334627142
30
2.19725328164666e-005
11
6004.760204186
21
-161.103106059488
31
2.19773878068263e-005
  0
LINE
 8
GROUP0
10
6004.06131544656
20
-160.192296521464
30
2.19726036004453e-005
11
6004.37197561834
21
-160.430674455363
31
2.19709010125468e-005
  0
LINE
 8
GROUP0
10
6096.47686616553
20
-253.34026629059
30
2.19775352212792e-005
11
6096.86509473318
21
-253.28915503002
31
2.19673800813558e-005
  0
LINE
 8
GROUP0
10
6096.1150947332
20
-156.263365456719
30
1.97530740185969e-005
11
6095.80443456142
21
-156.024987522823
31
1.97547766057904e-005
  0
LINE
 8
GROUP0
10
6098.31398347263
20
-155.352555918699
30
1.96812655460954e-005
11
6098.16413283887
21
-155.714327351045
31
1.96930524892336e-005
  0
LINE
 8
GROUP0
10
6095.41620599376
20
-154.576098783388
30
1.97304308164337e-005
11
6095.56605662752
21
-154.21432735104
31
1.97186438732955e-005
  0
LINE
 8
GROUP0
10
6097.25332330085
20
-153.515438611613
30
1.96635432947179e-005
11
6097.6150947332
21
-153.665289245369
31
1.96586223446371e-005
  0
LINE
 8
GROUP0
10
6004.81131544657
20
-161.491334627142
30
2.19851351240086e-005
11
6004.760204186
21
-161.879563194793
31
2.19952468019036e-005
  0
LINE
 8
GROUP0
10
6096.11509473318
20
-253.490116924349
30
2.19893494856627e-005
11
6096.47686616553
21
-253.34026629059
31
2.19775352212792e-005
  0
LINE
 8
GROUP0
10
6002.92308687891
20
-160.042445887708
30
2.19954836480685e-005
11
6003.31131544656
21
-159.991334627142
31
2.198532850885e-005
  0
LINE
 8
GROUP0
10
6003.31131544656
20
-159.991334627142
30
2.198532850885e-005
11
6003.69954401422
21
-160.042445887705
31
2.1977524550526e-005
  0
LINE
 8
GROUP0
10
6003.69954401421
20
-162.940223366575
30
2.20441752260769e-005
11
6003.31131544656
21
-162.991334627141
31
2.20543303652954e-005
  0
LINE
 8
GROUP0
10
6002.01227734089
20
-160.741334627144
30
2.20326251283987e-005
11
6002.25065527478
21
-160.430674455361
31
2.20199661804199e-005
  0
LINE
 8
GROUP0
10
6096.8650947332
20
-156.46432735104
30
1.97403491101922e-005
11
6096.47686616554
21
-156.413216090473
31
1.97481530685162e-005
  0
LINE
 8
GROUP0
10
6004.760204186
20
-161.103106059488
30
2.19773878068263e-005
11
6004.81131544657
21
-161.491334627142
31
2.19851351240086e-005
  0
LINE
 8
GROUP0
10
6096.8650947332
20
-153.464327351049
30
1.96713472530419e-005
11
6097.25332330085
21
-153.515438611613
31
1.96635432947179e-005
  0
LINE
 8
GROUP0
10
6004.37197561834
20
-160.430674455363
30
2.19709010125468e-005
11
6004.61035355224
21
-160.741334627142
31
2.19725328164666e-005
  0
LINE
 8
GROUP0
10
6095.3650947332
20
-154.964327351043
30
1.97405424943287e-005
11
6095.41620599376
21
-154.576098783388
31
1.97304308164337e-005
  0
LINE
 8
GROUP0
10
6003.69954401422
20
-160.042445887705
30
2.1977524550526e-005
11
6004.06131544656
21
-160.192296521464
31
2.19726036004453e-005
  0
LINE
 8
GROUP0
10
6098.16413283887
20
-155.714327351045
30
1.96930524892336e-005
11
6097.92575490498
21
-156.024987522821
31
1.97057114386223e-005
  0
LINE
 8
GROUP0
10
6095.56605662752
20
-155.714327351041
30
1.97531448018706e-005
11
6095.41620599376
21
-155.352555918699
31
1.97482898115109e-005
  0
LINE
 8
GROUP0
10
6095.56605662752
20
-154.21432735104
30
1.97186438732955e-005
11
6095.80443456142
21
-153.90366717926
31
1.97059849246117e-005
  0
LINE
 8
GROUP0
10
5911.81617655323
20
-611.59069407618
30
1.61516765440073e-007
11
5886.81617651943
21
-611.59069407618
31
0.0
  0
LINE
 8
GROUP0
10
5954.81617651943
20
-679.59069407618
30
1.14765095474922e-005
11
5954.81617655323
21
-654.59069407618
31
7.3794866409238e-006
  0
LINE
 8
GROUP0
10
5924.81617655323
20
-654.590694154166
30
7.1260293577069e-006
11
5911.81617655323
21
-641.590694076179
31
4.97122589337429e-006
  0
LINE
 8
GROUP0
10
6095.80443456142
20
-156.024987522823
30
1.97547766057904e-005
11
6095.56605662752
21
-155.714327351041
31
1.97531448018706e-005
  0
LINE
 8
GROUP0
10
5924.81617657325
20
-150.590237954398
30
3.18706888425391e-005
11
5911.81617664271
21
-163.590237954398
31
3.19501217444285e-005
  0
LINE
 8
GROUP0
10
6097.6150947332
20
-156.26336545672
30
1.97183797058853e-005
11
6097.25332330085
21
-156.413216090476
31
1.97301939709738e-005
  0
LINE
 8
GROUP0
10
6098.3650947332
20
-154.96432735104
30
1.96711538689054e-005
11
6098.31398347263
21
-155.352555918699
31
1.96812655460954e-005
  0
LINE
 8
GROUP0
10
5954.81617657325
20
-125.590237984496
30
3.1766534488753e-005
11
5954.81617657325
21
-150.590237954398
31
3.17205060003767e-005
  0
LINE
 8
GROUP0
10
6372.81665539521
20
-125.590237956078
30
1.69963879216084e-005
11
5954.81617657325
21
-125.590237984496
31
3.1766534488753e-005
  0
LINE
 8
GROUP0
10
6098.31398347263
20
-154.576098783387
30
1.96634065510182e-005
11
6098.3650947332
21
-154.96432735104
31
1.96711538689054e-005
  0
LINE
 8
GROUP0
10
5954.81617657325
20
-150.590237954398
30
3.17205060003767e-005
11
5924.81617657325
21
-150.590237954398
31
3.18706888425391e-005
  0
LINE
 8
GROUP0
10
5911.81617655323
20
-611.59069407618
30
1.61516765440073e-007
11
5911.81617655323
21
-641.590694076179
31
4.97122589337429e-006
  0
LINE
 8
GROUP0
10
5954.81617655323
20
-654.59069407618
30
7.3794866409238e-006
11
5924.81617655323
21
-654.590694154166
31
7.1260293577069e-006
  0
LINE
 8
GROUP0
10
6098.16413283887
20
-154.214327351045
30
1.96585515613634e-005
11
6098.31398347263
21
-154.576098783387
31
1.96634065510182e-005
  0
LINE
 8
GROUP0
10
6097.6150947332
20
-153.665289245369
30
1.96586223446371e-005
11
6097.92575490498
21
-153.903667179263
31
1.96569197574437e-005
  0
LINE
 8
GROUP0
10
5911.81617657325
20
-193.590237954398
30
3.17243845554871e-005
11
5886.81617657325
21
-193.590237984496
31
3.15952779693873e-005
  0
LINE
 8
GROUP0
10
5886.81617657325
20
-193.590237984496
30
3.15952779693873e-005
11
5886.81617651943
21
-611.59069407618
31
0.0
  0
LINE
 8
GROUP0
10
6097.92575490498
20
-153.903667179263
30
1.96569197574437e-005
11
6098.16413283887
21
-154.214327351045
31
1.96585515613634e-005
  0
LINE
 8
GROUP0
10
6097.92575490498
20
-156.024987522821
30
1.97057114386223e-005
11
6097.6150947332
21
-156.26336545672
31
1.97183797058853e-005
  0
LINE
 8
GROUP0
10
5911.81617657325
20
-193.590237954398
30
3.17243845554871e-005
11
5911.81617664271
21
-163.590237954398
31
3.19501217444285e-005
  0
LINE
 8
GROUP0
10
6372.81665539444
20
-150.590237954398
30
1.67176434962835e-005
11
6372.81665539521
21
-125.590237956078
31
1.69963879216084e-005
  0
LINE
 8
GROUP0
10
6162.81643182615
20
-133.858191857664
30
2.43294715656872e-005
11
6162.40221826377
21
-134.17602910286
31
2.43221113206293e-005
  0
LINE
 8
GROUP0
10
5954.81617651943
20
-679.59069407618
30
1.14765095474922e-005
11
6372.81665536288
21
-679.59069419381
31
2.9490582584657e-005
  0
LINE
 8
GROUP0
10
6440.81665536288
20
-611.59069419381
30
1.98515750184924e-005
11
6440.81665539521
21
-193.590237956078
31
1.56814545157147e-005
  0
LINE
 8
GROUP0
10
6415.81665539521
20
-193.590237954398
30
1.60044849277119e-005
11
6415.81665539404
21
-163.590237954398
31
1.60170840867613e-005
  0
LINE
 8
GROUP0
10
6415.81665539404
20
-163.590237954398
30
1.60170840867613e-005
11
6402.81665539444
21
-150.590237955322
31
1.61501236624895e-005
  0
LINE
 8
GROUP0
10
6162.08438101858
20
-134.590242665233
30
2.43132788267653e-005
11
6161.88458017357
21
-135.072604575028
31
2.43035760031207e-005
  0
LINE
 8
GROUP0
10
6402.81665536288
20
-654.590694193811
30
2.59990345751027e-005
11
6415.81665513687
21
-641.590694717471
31
2.2192560149964e-005
  0
LINE
 8
GROUP0
10
6372.81665536288
20
-654.590694193811
30
2.63240896299755e-005
11
6402.81665536288
21
-654.590694193811
31
2.59990345751027e-005
  0
LINE
 8
GROUP0
10
6440.81665539521
20
-193.590237956078
30
1.56814545157147e-005
11
6415.81665539521
21
-193.590237954398
31
1.60044849277119e-005
  0
LINE
 8
GROUP0
10
6162.40221826377
20
-134.17602910286
30
2.43221113206293e-005
11
6162.08438101858
21
-134.590242665233
31
2.43132788267653e-005
  0
LINE
 8
GROUP0
10
6163.29879373594
20
-133.658391012654
30
2.43348579737956e-005
11
6162.81643182615
21
-133.858191857664
31
2.43294715656872e-005
  0
LINE
 8
GROUP0
10
6415.81665531954
20
-611.590694717471
30
2.02288348459867e-005
11
6440.81665536288
21
-611.59069419381
31
1.98515750184924e-005
  0
LINE
 8
GROUP0
10
6372.81665536288
20
-679.59069419381
30
2.9490582584657e-005
11
6372.81665536288
21
-654.590694193811
31
2.63240896299755e-005
  0
LINE
 8
GROUP0
10
6415.81665531954
20
-611.590694717471
30
2.02288348459867e-005
11
6415.81665513687
21
-641.590694717471
31
2.2192560149964e-005
  0
LINE
 8
GROUP0
10
6372.81665539444
20
-150.590237954398
30
1.67176434962835e-005
11
6402.81665539444
21
-150.590237955322
31
1.61501236624895e-005
  0
LINE
 8
GROUP0
10
6164.81643182615
20
-137.322293472801
30
2.42715438945718e-005
11
6165.23064538852
21
-137.004456227605
31
2.42789041396296e-005
  0
LINE
 8
GROUP0
10
6162.81643182615
20
-137.322293472801
30
2.42647002462237e-005
11
6163.29879373594
21
-137.522094317811
31
2.4262614953624e-005
  0
LINE
 8
GROUP0
10
6165.54848263372
20
-134.590242665233
30
2.43251323725768e-005
11
6165.23064538852
21
-134.17602910286
31
2.43317897008044e-005
  0
LINE
 8
GROUP0
10
6165.74828347872
20
-135.072604575028
30
2.43167969161351e-005
11
6165.54848263372
21
-134.590242665233
31
2.43251323725768e-005
  0
LINE
 8
GROUP0
10
6163.81643182615
20
-137.590242665233
30
2.42631119917514e-005
11
6164.33406991635
21
-137.522094317811
31
2.42661574871683e-005
  0
LINE
 8
GROUP0
10
6163.81643182615
20
-133.590242665232
30
2.43379034692126e-005
11
6163.29879373594
21
-133.658391012654
31
2.43348579737956e-005
  0
LINE
 8
GROUP0
10
6165.23064538852
20
-134.17602910286
30
2.43317897008044e-005
11
6164.81643182615
21
-133.858191857664
31
2.43363152140352e-005
  0
LINE
 8
GROUP0
10
6164.33406991635
20
-137.522094317811
30
2.42661574871683e-005
11
6164.81643182615
21
-137.322293472801
31
2.42715438945718e-005
  0
LINE
 8
GROUP0
10
6163.29879373594
20
-137.522094317811
30
2.4262614953624e-005
11
6163.81643182615
21
-137.590242665233
31
2.42631119917514e-005
  0
LINE
 8
GROUP0
10
6165.54848263372
20
-136.590242665232
30
2.42877366341987e-005
11
6165.74828347872
21
-136.107880755437
31
2.42974394571382e-005
  0
LINE
 8
GROUP0
10
6162.40221826377
20
-137.004456227605
30
2.42692257594546e-005
11
6162.81643182615
21
-137.322293472801
31
2.42647002462237e-005
  0
LINE
 8
GROUP0
10
6164.33406991635
20
-133.658391012654
30
2.43384005066349e-005
11
6163.81643182615
21
-133.590242665232
31
2.43379034692126e-005
  0
LINE
 8
GROUP0
10
6164.81643182615
20
-133.858191857664
30
2.43363152140352e-005
11
6164.33406991635
21
-133.658391012654
31
2.43384005066349e-005
  0
LINE
 8
GROUP0
10
6165.81643182615
20
-135.590242665232
30
2.43073513784775e-005
11
6165.74828347872
21
-135.072604575028
31
2.43167969161351e-005
  0
LINE
 8
GROUP0
10
6165.74828347872
20
-136.107880755437
30
2.42974394571382e-005
11
6165.81643182615
21
-135.590242665232
31
2.43073513784775e-005
  0
LINE
 8
GROUP0
10
6165.23064538852
20
-137.004456227605
30
2.42789041396296e-005
11
6165.54848263372
21
-136.590242665232
31
2.42877366341987e-005
  0
LINE
 8
GROUP0
10
6341.08460940011
20
-134.590242665233
30
2.49257861138941e-005
11
6340.88480855511
21
-135.072604575028
31
2.49160832902495e-005
  0
LINE
 8
GROUP0
10
6341.40244664531
20
-134.17602910286
30
2.49346186077581e-005
11
6341.08460940011
21
-134.590242665233
31
2.49257861138941e-005
  0
LINE
 8
GROUP0
10
6341.81666020768
20
-133.858191857664
30
2.4941978852816e-005
11
6341.40244664531
21
-134.17602910286
31
2.49346186077581e-005
  0
LINE
 8
GROUP0
10
6342.29902211748
20
-133.658391012654
30
2.49473652609244e-005
11
6341.81666020768
21
-133.858191857664
31
2.4941978852816e-005
  0
LINE
 8
GROUP0
10
6340.88480855511
20
-135.072604575028
30
2.49160832902495e-005
11
6340.81666020768
21
-135.590242665233
31
2.49061713689103e-005
  0
LINE
 8
GROUP0
10
6161.88458017357
20
-136.107880755437
30
2.42842185441239e-005
11
6162.08438101858
21
-136.590242665232
31
2.42758830876821e-005
  0
LINE
 8
GROUP0
10
6341.81666020768
20
-137.322293472801
30
2.48772075333525e-005
11
6342.29902211748
21
-137.522094317811
31
2.48751222414578e-005
  0
LINE
 8
GROUP0
10
6341.08460940011
20
-136.590242665232
30
2.48883903748109e-005
11
6341.40244664531
21
-137.004456227605
31
2.48817330472884e-005
  0
LINE
 8
GROUP0
10
6161.81643182615
20
-135.590242665232
30
2.42936640817815e-005
11
6161.88458017357
21
-136.107880755437
31
2.42842185441239e-005
  0
LINE
 8
GROUP0
10
6162.08438101858
20
-136.590242665232
30
2.42758830876821e-005
11
6162.40221826377
21
-137.004456227605
31
2.42692257594546e-005
  0
LINE
 8
GROUP0
10
6161.88458017357
20
-135.072604575028
30
2.43035760031207e-005
11
6161.81643182615
21
-135.590242665232
31
2.42936640817815e-005
  0
LINE
 8
GROUP0
10
6342.29902211748
20
-137.522094317811
30
2.48751222414578e-005
11
6342.81666020768
21
-137.590242665233
31
2.48756192788802e-005
  0
LINE
 8
GROUP0
10
6341.40244664531
20
-137.004456227605
30
2.48817330472884e-005
11
6341.81666020768
21
-137.322293472801
31
2.48772075333525e-005
  0
LINE
 8
GROUP0
10
6340.81666020768
20
-135.590242665233
30
2.49061713689103e-005
11
6340.88480855511
21
-136.107880755437
31
2.48967258312527e-005
  0
LINE
 8
GROUP0
10
6340.88480855511
20
-136.107880755437
30
2.48967258312527e-005
11
6341.08460940011
21
-136.590242665232
31
2.48883903748109e-005
  0
LINE
 8
GROUP0
10
6342.81666020768
20
-137.590242665233
30
2.48756192788802e-005
11
6343.33429829789
21
-137.522094317811
31
2.48786647742971e-005
  0
LINE
 8
GROUP0
10
5985.81643182615
20
-137.322293472801
30
2.36590373885737e-005
11
5986.23064538852
21
-137.004456227605
31
2.36663976343365e-005
  0
LINE
 8
GROUP0
10
6344.54871101525
20
-136.590242665232
30
2.49002439213275e-005
11
6344.74851186026
21
-136.107880755437
31
2.49099467442671e-005
  0
LINE
 8
GROUP0
10
6343.81666020768
20
-137.322293472801
30
2.48840511817006e-005
11
6344.23087377006
21
-137.004456227605
31
2.48914114267584e-005
  0
LINE
 8
GROUP0
10
5984.29879373594
20
-137.52209431781
30
2.36501084483309e-005
11
5984.81643182615
21
-137.590242665232
31
2.36506054857533e-005
  0
LINE
 8
GROUP0
10
6342.81666020768
20
-133.590242665232
30
2.49504107563414e-005
11
6342.29902211748
21
-133.658391012654
31
2.49473652609244e-005
  0
LINE
 8
GROUP0
10
6344.23087377006
20
-137.004456227605
30
2.48914114267584e-005
11
6344.54871101525
21
-136.590242665232
31
2.49002439213275e-005
  0
LINE
 8
GROUP0
10
5985.33406991635
20
-137.52209431781
30
2.36536509811702e-005
11
5985.81643182615
21
-137.322293472801
31
2.36590373885737e-005
  0
LINE
 8
GROUP0
10
6343.33429829789
20
-137.522094317811
30
2.48786647742971e-005
11
6343.81666020768
21
-137.322293472801
31
2.48840511817006e-005
  0
LINE
 8
GROUP0
10
5984.81643182615
20
-137.590242665232
30
2.36506054857533e-005
11
5985.33406991635
21
-137.52209431781
31
2.36536509811702e-005
  0
LINE
 8
GROUP0
10
6343.81666020768
20
-133.858191857664
30
2.4948822501164e-005
11
6343.33429829789
21
-133.658391012654
31
2.49509077937637e-005
  0
LINE
 8
GROUP0
10
6344.81666020768
20
-135.590242665233
30
2.49198586656063e-005
11
6344.74851186026
21
-135.072604575028
31
2.49293042032639e-005
  0
LINE
 8
GROUP0
10
6344.74851186026
20
-135.072604575028
30
2.49293042032639e-005
11
6344.54871101525
21
-134.590242665233
31
2.49376396597056e-005
  0
LINE
 8
GROUP0
10
6343.33429829789
20
-133.658391012654
30
2.49509077937637e-005
11
6342.81666020768
21
-133.590242665232
31
2.49504107563414e-005
  0
LINE
 8
GROUP0
10
6344.74851186026
20
-136.107880755437
30
2.49099467442671e-005
11
6344.81666020768
21
-135.590242665233
31
2.49198586656063e-005
  0
LINE
 8
GROUP0
10
6344.23087377006
20
-134.17602910286
30
2.49442969879332e-005
11
6343.81666020768
21
-133.858191857664
31
2.4948822501164e-005
  0
LINE
 8
GROUP0
10
6344.54871101525
20
-134.590242665233
30
2.49376396597056e-005
11
6344.23087377006
21
-134.17602910286
31
2.49442969879332e-005
  0
LINE
 8
GROUP0
10
5986.74828347872
20
-135.072604575027
30
2.3704290410137e-005
11
5986.54848263371
21
-134.590242665232
31
2.37126258672837e-005
  0
LINE
 8
GROUP0
10
5982.81643182615
20
-135.590242665232
30
2.36811575764884e-005
11
5982.88458017357
21
-136.107880755437
31
2.36717120388308e-005
  0
LINE
 8
GROUP0
10
5982.88458017357
20
-136.107880755437
30
2.36717120388308e-005
11
5983.08438101858
21
-136.590242665232
31
2.3663376582389e-005
  0
LINE
 8
GROUP0
10
5983.08438101858
20
-136.590242665232
30
2.3663376582389e-005
11
5983.40221826377
21
-137.004456227605
31
2.36567192541615e-005
  0
LINE
 8
GROUP0
10
5985.33406991635
20
-133.658391012654
30
2.37258940006368e-005
11
5984.81643182615
21
-133.590242665232
31
2.37253969632145e-005
  0
LINE
 8
GROUP0
10
5983.08438101858
20
-134.590242665232
30
2.37007723207672e-005
11
5982.88458017357
21
-135.072604575027
31
2.36910694971226e-005
  0
LINE
 8
GROUP0
10
5985.81643182615
20
-133.858191857663
30
2.37238087080371e-005
11
5985.33406991635
21
-133.658391012654
31
2.37258940006368e-005
  0
LINE
 8
GROUP0
10
5983.40221826377
20
-137.004456227605
30
2.36567192541615e-005
11
5983.81643182615
21
-137.322293472801
31
2.36521937409306e-005
  0
LINE
 8
GROUP0
10
5982.88458017357
20
-135.072604575027
30
2.36910694971226e-005
11
5982.81643182615
21
-135.590242665232
31
2.36811575764884e-005
  0
LINE
 8
GROUP0
10
5983.40221826377
20
-134.176029102859
30
2.37096048146312e-005
11
5983.08438101858
21
-134.590242665232
31
2.37007723207672e-005
  0
LINE
 8
GROUP0
10
5983.81643182615
20
-133.858191857663
30
2.37169650603941e-005
11
5983.40221826377
21
-134.176029102859
31
2.37096048146312e-005
  0
LINE
 8
GROUP0
10
5984.29879373594
20
-133.658391012654
30
2.37223514677976e-005
11
5983.81643182615
21
-133.858191857663
31
2.37169650603941e-005
  0
LINE
 8
GROUP0
10
5983.81643182615
20
-137.322293472801
30
2.36521937409306e-005
11
5984.29879373594
21
-137.52209431781
31
2.36501084483309e-005
  0
LINE
 8
GROUP0
10
5984.81643182615
20
-133.590242665232
30
2.37253969632145e-005
11
5984.29879373594
21
-133.658391012654
31
2.37223514677976e-005
  0
LINE
 8
GROUP0
10
5986.23064538852
20
-134.176029102859
30
2.37192831948063e-005
11
5985.81643182615
21
-133.858191857663
31
2.37238087080371e-005
  0
LINE
 8
GROUP0
10
5986.54848263371
20
-134.590242665232
30
2.37126258672837e-005
11
5986.23064538852
21
-134.176029102859
31
2.37192831948063e-005
  0
LINE
 8
GROUP0
10
5896.81620817266
20
-225.590237855923
30
2.17040717916006e-005
11
5897.33384626286
21
-225.522089508501
31
2.17071172870176e-005
  0
LINE
 8
GROUP0
10
5895.08415736509
20
-224.590237855923
30
2.17168428875314e-005
11
5895.40199461028
21
-225.004451418296
31
2.17101855600088e-005
  0
LINE
 8
GROUP0
10
5898.54825898022
20
-224.590237855923
30
2.1728696434048e-005
11
5898.74805982523
21
-224.107875946128
31
2.17383992576925e-005
  0
LINE
 8
GROUP0
10
5894.88435652008
20
-224.107875946128
30
2.17251783446781e-005
11
5895.08415736509
21
-224.590237855923
31
2.17168428875314e-005
  0
LINE
 8
GROUP0
10
5898.23042173503
20
-225.004451418296
30
2.17198639401839e-005
11
5898.54825898022
21
-224.590237855923
31
2.1728696434048e-005
  0
LINE
 8
GROUP0
10
5894.88435652008
20
-223.072599765718
30
2.174453580297e-005
11
5894.81620817265
21
-223.590237855923
31
2.17346238823357e-005
  0
LINE
 8
GROUP0
10
5986.23064538852
20
-137.004456227605
30
2.36663976343365e-005
11
5986.54848263371
21
-136.590242665232
31
2.36752301282006e-005
  0
LINE
 8
GROUP0
10
5986.74828347872
20
-136.107880755437
30
2.36849329518451e-005
11
5986.81643182615
21
-135.590242665232
31
2.36948448724794e-005
  0
LINE
 8
GROUP0
10
5895.81620817266
20
-225.322288663492
30
2.1705660046778e-005
11
5896.29857008245
21
-225.522089508501
31
2.17035747541783e-005
  0
LINE
 8
GROUP0
10
5897.33384626286
20
-225.522089508501
30
2.17071172870176e-005
11
5897.81620817265
21
-225.322288663492
31
2.1712503694421e-005
  0
LINE
 8
GROUP0
10
5894.81620817265
20
-223.590237855923
30
2.17346238823357e-005
11
5894.88435652008
21
-224.107875946128
31
2.17251783446781e-005
  0
LINE
 8
GROUP0
10
5986.81643182615
20
-135.590242665232
30
2.36948448724794e-005
11
5986.74828347872
21
-135.072604575027
31
2.3704290410137e-005
  0
LINE
 8
GROUP0
10
5986.54848263371
20
-136.590242665232
30
2.36752301282006e-005
11
5986.74828347872
21
-136.107880755437
31
2.36849329518451e-005
  0
LINE
 8
GROUP0
10
5896.29857008245
20
-225.522089508501
30
2.17035747541783e-005
11
5896.81620817266
21
-225.590237855923
31
2.17040717916006e-005
  0
LINE
 8
GROUP0
10
5895.40199461028
20
-225.004451418296
30
2.17101855600088e-005
11
5895.81620817266
21
-225.322288663492
31
2.1705660046778e-005
  0
LINE
 8
GROUP0
10
5897.81620817265
20
-225.322288663492
30
2.1712503694421e-005
11
5898.23042173503
21
-225.004451418296
31
2.17198639401839e-005
  0
LINE
 8
GROUP0
10
5898.74805982523
20
-224.107875946128
30
2.17383992576925e-005
11
5898.81620817266
21
-223.590237855923
31
2.17483111783268e-005
  0
LINE
 8
GROUP0
10
5895.08415736509
20
-580.590466237459
30
1.50603971318053e-005
11
5894.88435652008
21
-581.072828147254
31
1.50506943088657e-005
  0
LINE
 8
GROUP0
10
5897.33384626286
20
-221.658386203345
30
2.17793603064842e-005
11
5896.81620817266
21
-221.590237855923
31
2.17788632690619e-005
  0
LINE
 8
GROUP0
10
5896.29857008245
20
-579.658614584881
30
1.50819762788357e-005
11
5895.81620817266
21
-579.85841542989
31
1.50765898714322e-005
  0
LINE
 8
GROUP0
10
5896.29857008245
20
-221.658386203345
30
2.17758177736449e-005
11
5895.81620817266
21
-221.858187048354
31
2.17704313662415e-005
  0
LINE
 8
GROUP0
10
5897.81620817265
20
-221.858187048354
30
2.17772750138845e-005
11
5897.33384626286
21
-221.658386203345
31
2.17793603064842e-005
  0
LINE
 8
GROUP0
10
5895.08415736509
20
-222.590237855923
30
2.17542386266145e-005
11
5894.88435652008
21
-223.072599765718
31
2.174453580297e-005
  0
LINE
 8
GROUP0
10
5896.81620817266
20
-221.590237855923
30
2.17788632690619e-005
11
5896.29857008245
21
-221.658386203345
31
2.17758177736449e-005
  0
LINE
 8
GROUP0
10
5895.40199461028
20
-580.176252675086
30
1.50692296263744e-005
11
5895.08415736509
21
-580.590466237459
31
1.50603971318053e-005
  0
LINE
 8
GROUP0
10
5895.81620817266
20
-579.85841542989
30
1.50765898714322e-005
11
5895.40199461028
21
-580.176252675086
31
1.50692296263744e-005
  0
LINE
 8
GROUP0
10
5895.40199461028
20
-222.17602429355
30
2.17630711204786e-005
11
5895.08415736509
21
-222.590237855923
31
2.17542386266145e-005
  0
LINE
 8
GROUP0
10
5895.81620817266
20
-221.858187048354
30
2.17704313662415e-005
11
5895.40199461028
21
-222.17602429355
31
2.17630711204786e-005
  0
LINE
 8
GROUP0
10
5898.74805982523
20
-223.072599765718
30
2.17577567159843e-005
11
5898.54825898022
21
-222.590237855923
31
2.17660921724261e-005
  0
LINE
 8
GROUP0
10
5898.54825898022
20
-222.590237855923
30
2.17660921724261e-005
11
5898.23042173503
21
-222.17602429355
31
2.17727495006537e-005
  0
LINE
 8
GROUP0
10
5898.81620817266
20
-223.590237855923
30
2.17483111783268e-005
11
5898.74805982523
21
-223.072599765718
31
2.17577567159843e-005
  0
LINE
 8
GROUP0
10
5898.23042173503
20
-222.17602429355
30
2.17727495006537e-005
11
5897.81620817265
21
-221.858187048354
31
2.17772750138845e-005
  0
LINE
 8
GROUP0
10
5898.54825898022
20
-580.590466237459
30
1.50722506783219e-005
11
5898.23042173503
21
-580.176252675086
31
1.50789080058444e-005
  0
LINE
 8
GROUP0
10
5897.33384626286
20
-583.522317890037
30
1.50132757922083e-005
11
5897.81620817265
21
-583.322517045028
31
1.50186622003168e-005
  0
LINE
 8
GROUP0
10
5896.81620817266
20
-583.590466237459
30
1.50102302967914e-005
11
5897.33384626286
21
-583.522317890037
31
1.50132757922083e-005
  0
LINE
 8
GROUP0
10
5897.33384626286
20
-579.658614584881
30
1.5085518811675e-005
11
5896.81620817266
21
-579.590466237459
31
1.50850217742526e-005
  0
LINE
 8
GROUP0
10
5898.23042173503
20
-580.176252675086
30
1.50789080058444e-005
11
5897.81620817265
21
-579.85841542989
31
1.50834335190753e-005
  0
LINE
 8
GROUP0
10
5897.81620817265
20
-579.85841542989
30
1.50834335190753e-005
11
5897.33384626286
21
-579.658614584881
31
1.5085518811675e-005
  0
LINE
 8
GROUP0
10
5896.81620817266
20
-579.590466237459
30
1.50850217742526e-005
11
5896.29857008245
21
-579.658614584881
31
1.50819762788357e-005
  0
LINE
 8
GROUP0
10
5898.74805982523
20
-582.108104327664
30
1.50445577628833e-005
11
5898.81620817266
21
-581.590466237459
31
1.50544696835175e-005
  0
LINE
 8
GROUP0
10
5898.54825898022
20
-582.590466237459
30
1.50348549392387e-005
11
5898.74805982523
21
-582.108104327664
31
1.50445577628833e-005
  0
LINE
 8
GROUP0
10
5898.23042173503
20
-583.004679799832
30
1.50260224453747e-005
11
5898.54825898022
21
-582.590466237459
31
1.50348549392387e-005
  0
LINE
 8
GROUP0
10
5897.81620817265
20
-583.322517045028
30
1.50186622003168e-005
11
5898.23042173503
21
-583.004679799832
31
1.50260224453747e-005
  0
LINE
 8
GROUP0
10
5896.29857008245
20
-583.522317890037
30
1.50097332593691e-005
11
5896.81620817266
21
-583.590466237459
31
1.50102302967914e-005
  0
LINE
 8
GROUP0
10
5898.74805982523
20
-581.072828147254
30
1.50639152211751e-005
11
5898.54825898022
21
-580.590466237459
31
1.50722506783219e-005
  0
LINE
 8
GROUP0
10
5895.81620817266
20
-583.322517045028
30
1.50118185519688e-005
11
5896.29857008245
21
-583.522317890037
31
1.50097332593691e-005
  0
LINE
 8
GROUP0
10
5895.40199461028
20
-583.004679799832
30
1.50163440651996e-005
11
5895.81620817266
21
-583.322517045028
31
1.50118185519688e-005
  0
LINE
 8
GROUP0
10
5898.81620817266
20
-581.590466237459
30
1.50544696835175e-005
11
5898.74805982523
21
-581.072828147254
31
1.50639152211751e-005
  0
LINE
 8
GROUP0
10
5983.40198980097
20
-671.004903453323
30
1.36720478816799e-005
11
5983.81620336335
21
-671.322740698519
31
1.3667522368449e-005
  0
LINE
 8
GROUP0
10
5983.08415255578
20
-670.59068989095
30
1.36787052092024e-005
11
5983.40198980097
21
-671.004903453323
31
1.36720478816799e-005
  0
LINE
 8
GROUP0
10
5982.88435171077
20
-670.108327981155
30
1.36870406663492e-005
11
5983.08415255578
21
-670.59068989095
31
1.36787052092024e-005
  0
LINE
 8
GROUP0
10
5982.81620336335
20
-669.590689890951
30
1.36964862040068e-005
11
5982.88435171077
21
-670.108327981155
31
1.36870406663492e-005
  0
LINE
 8
GROUP0
10
5982.88435171077
20
-669.073051800746
30
1.3706398124641e-005
11
5982.81620336335
21
-669.590689890951
31
1.36964862040068e-005
  0
LINE
 8
GROUP0
10
5983.08415255578
20
-668.590689890951
30
1.37161009482856e-005
11
5982.88435171077
21
-669.073051800746
31
1.3706398124641e-005
  0
LINE
 8
GROUP0
10
5983.40198980097
20
-668.176476328578
30
1.37249334421496e-005
11
5983.08415255578
21
-668.590689890951
31
1.37161009482856e-005
  0
LINE
 8
GROUP0
10
5983.81620336335
20
-667.858639083382
30
1.37322936879125e-005
11
5983.40198980097
21
-668.176476328578
31
1.37249334421496e-005
  0
LINE
 8
GROUP0
10
5984.29856527314
20
-667.658838238372
30
1.3737680095316e-005
11
5983.81620336335
21
-667.858639083382
31
1.37322936879125e-005
  0
LINE
 8
GROUP0
10
5984.81620336335
20
-667.59068989095
30
1.37407255907329e-005
11
5984.29856527314
21
-667.658838238372
31
1.3737680095316e-005
  0
LINE
 8
GROUP0
10
5985.33384145355
20
-667.658838238372
30
1.37412226281552e-005
11
5984.81620336335
21
-667.59068989095
31
1.37407255907329e-005
  0
LINE
 8
GROUP0
10
5985.81620336335
20
-667.858639083382
30
1.37391373355555e-005
11
5985.33384145355
21
-667.658838238372
31
1.37412226281552e-005
  0
LINE
 8
GROUP0
10
5986.23041692572
20
-668.176476328578
30
1.37346118223247e-005
11
5985.81620336335
21
-667.858639083382
31
1.37391373355555e-005
  0
LINE
 8
GROUP0
10
5986.54825417092
20
-668.590689890951
30
1.37279544948021e-005
11
5986.23041692572
21
-668.176476328578
31
1.37346118223247e-005
  0
LINE
 8
GROUP0
10
6163.29879365468
20
-667.658838238372
30
1.43501873824448e-005
11
6162.81643174488
21
-667.858639083382
31
1.43448009750413e-005
  0
LINE
 8
GROUP0
10
6163.81643174488
20
-667.59068989095
30
1.43532328778617e-005
11
6163.29879365468
21
-667.658838238372
31
1.43501873824448e-005
  0
LINE
 8
GROUP0
10
6164.33406983509
20
-667.658838238372
30
1.43537299152841e-005
11
6163.81643174488
21
-667.59068989095
31
1.43532328778617e-005
  0
LINE
 8
GROUP0
10
6164.81643174488
20
-667.858639083382
30
1.43516446226843e-005
11
6164.33406983509
21
-667.658838238372
31
1.43537299152841e-005
  0
LINE
 8
GROUP0
10
6165.23064530726
20
-668.176476328578
30
1.43471191094535e-005
11
6164.81643174488
21
-667.858639083382
31
1.43516446226843e-005
  0
LINE
 8
GROUP0
10
6165.54848255245
20
-668.590689890951
30
1.43404617819309e-005
11
6165.23064530726
21
-668.176476328578
31
1.43471191094535e-005
  0
LINE
 8
GROUP0
10
6165.74828339746
20
-669.073051800746
30
1.43321263247842e-005
11
6165.54848255245
21
-668.590689890951
31
1.43404617819309e-005
  0
LINE
 8
GROUP0
10
6165.81643174488
20
-669.590689890951
30
1.43226807871266e-005
11
6165.74828339746
21
-669.073051800746
31
1.43321263247842e-005
  0
LINE
 8
GROUP0
10
6165.74828339746
20
-670.108327981155
30
1.43127688664924e-005
11
6165.81643174488
21
-669.590689890951
31
1.43226807871266e-005
  0
LINE
 8
GROUP0
10
6165.54848255245
20
-670.590689890951
30
1.43030660428478e-005
11
6165.74828339746
21
-670.108327981155
31
1.43127688664924e-005
  0
LINE
 8
GROUP0
10
6165.23064530726
20
-671.004903453324
30
1.42942335489837e-005
11
6165.54848255245
21
-670.590689890951
31
1.43030660428478e-005
  0
LINE
 8
GROUP0
10
6164.81643174488
20
-671.32274069852
30
1.42868733032209e-005
11
6165.23064530726
21
-671.004903453324
31
1.42942335489837e-005
  0
LINE
 8
GROUP0
10
6164.33406983509
20
-671.522541543529
30
1.42814868958174e-005
11
6164.81643174488
21
-671.32274069852
31
1.42868733032209e-005
  0
LINE
 8
GROUP0
10
6163.81643174488
20
-671.590689890951
30
1.42784414004005e-005
11
6164.33406983509
21
-671.522541543529
31
1.42814868958174e-005
  0
LINE
 8
GROUP0
10
6163.29879365468
20
-671.522541543529
30
1.42779443629781e-005
11
6163.81643174488
21
-671.590689890951
31
1.42784414004005e-005
  0
LINE
 8
GROUP0
10
6162.81643174488
20
-671.32274069852
30
1.42800296555778e-005
11
6163.29879365468
21
-671.522541543529
31
1.42779443629781e-005
  0
LINE
 8
GROUP0
10
6162.40221818251
20
-671.004903453324
30
1.42845551688087e-005
11
6162.81643174488
21
-671.32274069852
31
1.42800296555778e-005
  0
LINE
 8
GROUP0
10
6162.08438093731
20
-670.590689890951
30
1.42912124970362e-005
11
6162.40221818251
21
-671.004903453324
31
1.42845551688087e-005
  0
LINE
 8
GROUP0
10
6161.88458009231
20
-670.108327981155
30
1.4299547953478e-005
11
6162.08438093731
21
-670.590689890951
31
1.42912124970362e-005
  0
LINE
 8
GROUP0
10
6161.81643174488
20
-669.590689890951
30
1.43089934911356e-005
11
6161.88458009231
21
-670.108327981155
31
1.4299547953478e-005
  0
LINE
 8
GROUP0
10
6161.88458009231
20
-669.073051800746
30
1.43189054117698e-005
11
6161.81643174488
21
-669.590689890951
31
1.43089934911356e-005
  0
LINE
 8
GROUP0
10
6162.08438093731
20
-668.590689890951
30
1.43286082354144e-005
11
6161.88458009231
21
-669.073051800746
31
1.43189054117698e-005
  0
LINE
 8
GROUP0
10
6162.40221818251
20
-668.176476328578
30
1.43374407292784e-005
11
6162.08438093731
21
-668.590689890951
31
1.43286082354144e-005
  0
LINE
 8
GROUP0
10
6162.81643174488
20
-667.858639083382
30
1.43448009750413e-005
11
6162.40221818251
21
-668.176476328578
31
1.43374407292784e-005
  0
LINE
 8
GROUP0
10
6343.81643174488
20
-667.858639083382
30
1.49641511286824e-005
11
6343.33406983509
21
-667.658838238373
31
1.49662364212821e-005
  0
LINE
 8
GROUP0
10
6344.23064530726
20
-668.176476328578
30
1.49596256154516e-005
11
6343.81643174488
21
-667.858639083382
31
1.49641511286824e-005
  0
LINE
 8
GROUP0
10
6344.54848255245
20
-668.590689890951
30
1.4952968287224e-005
11
6344.23064530726
21
-668.176476328578
31
1.49596256154516e-005
  0
LINE
 8
GROUP0
10
6344.74828339746
20
-669.073051800746
30
1.49446328307823e-005
11
6344.54848255245
21
-668.590689890951
31
1.4952968287224e-005
  0
LINE
 8
GROUP0
10
6344.81643174488
20
-669.590689890951
30
1.49351872931247e-005
11
6344.74828339746
21
-669.073051800746
31
1.49446328307823e-005
  0
LINE
 8
GROUP0
10
6344.74828339746
20
-670.108327981156
30
1.49252753717855e-005
11
6344.81643174488
21
-669.590689890951
31
1.49351872931247e-005
  0
LINE
 8
GROUP0
10
6344.54848255245
20
-670.590689890951
30
1.49155725488459e-005
11
6344.74828339746
21
-670.108327981156
31
1.49252753717855e-005
  0
LINE
 8
GROUP0
10
6344.23064530726
20
-671.004903453324
30
1.49067400542768e-005
11
6344.54848255245
21
-670.590689890951
31
1.49155725488459e-005
  0
LINE
 8
GROUP0
10
6343.81643174488
20
-671.32274069852
30
1.4899379809219e-005
11
6344.23064530726
21
-671.004903453324
31
1.49067400542768e-005
  0
LINE
 8
GROUP0
10
6343.33406983509
20
-671.522541543529
30
1.48939934018155e-005
11
6343.81643174488
21
-671.32274069852
31
1.4899379809219e-005
  0
LINE
 8
GROUP0
10
6342.81643174488
20
-671.590689890951
30
1.48909479063986e-005
11
6343.33406983509
21
-671.522541543529
31
1.48939934018155e-005
  0
LINE
 8
GROUP0
10
6342.29879365468
20
-671.522541543529
30
1.48904508682712e-005
11
6342.81643174488
21
-671.590689890951
31
1.48909479063986e-005
  0
LINE
 8
GROUP0
10
6341.81643174488
20
-671.32274069852
30
1.48925361608709e-005
11
6342.29879365468
21
-671.522541543529
31
1.48904508682712e-005
  0
LINE
 8
GROUP0
10
6341.40221818251
20
-671.004903453324
30
1.48970616748068e-005
11
6341.81643174488
21
-671.32274069852
31
1.48925361608709e-005
  0
LINE
 8
GROUP0
10
6341.08438093731
20
-670.590689890951
30
1.49037190023293e-005
11
6341.40221818251
21
-671.004903453324
31
1.48970616748068e-005
  0
LINE
 8
GROUP0
10
6340.8845800923
20
-670.108327981156
30
1.49120544587711e-005
11
6341.08438093731
21
-670.590689890951
31
1.49037190023293e-005
  0
LINE
 8
GROUP0
10
6340.81643174488
20
-669.590689890951
30
1.49214999964287e-005
11
6340.8845800923
21
-670.108327981156
31
1.49120544587711e-005
  0
LINE
 8
GROUP0
10
6340.8845800923
20
-669.073051800746
30
1.49314119177679e-005
11
6340.81643174488
21
-669.590689890951
31
1.49214999964287e-005
  0
LINE
 8
GROUP0
10
6341.08438093731
20
-668.590689890951
30
1.49411147414125e-005
11
6340.8845800923
21
-669.073051800746
31
1.49314119177679e-005
  0
LINE
 8
GROUP0
10
6341.40221818251
20
-668.176476328578
30
1.49499472352765e-005
11
6341.08438093731
21
-668.590689890951
31
1.49411147414125e-005
  0
LINE
 8
GROUP0
10
6341.81643174488
20
-667.858639083382
30
1.49573074803344e-005
11
6341.40221818251
21
-668.176476328578
31
1.49499472352765e-005
  0
LINE
 8
GROUP0
10
6342.29879365468
20
-667.658838238373
30
1.49626938884428e-005
11
6341.81643174488
21
-667.858639083382
31
1.49573074803344e-005
  0
LINE
 8
GROUP0
10
6342.81643174488
20
-667.590689890951
30
1.49657393838598e-005
11
6342.29879365468
21
-667.658838238373
31
1.49626938884428e-005
  0
LINE
 8
GROUP0
10
6343.33406983509
20
-667.658838238373
30
1.49662364212821e-005
11
6342.81643174488
21
-667.590689890951
31
1.49657393838598e-005
  0
LINE
 8
GROUP0
10
6428.88480374579
20
-224.108104408928
30
2.3552429647733e-005
11
6429.0846045908
21
-224.590466318723
31
2.35440941912912e-005
  0
LINE
 8
GROUP0
10
6428.81665539837
20
-223.590466318723
30
2.35618751853905e-005
11
6428.88480374579
21
-224.108104408928
31
2.3552429647733e-005
  0
LINE
 8
GROUP0
10
6428.88480374579
20
-223.072828228518
30
2.35717871067298e-005
11
6428.81665539837
21
-223.590466318723
31
2.35618751853905e-005
  0
LINE
 8
GROUP0
10
6429.0846045908
20
-222.590466318723
30
2.35814899296694e-005
11
6428.88480374579
21
-223.072828228518
31
2.35717871067298e-005
  0
LINE
 8
GROUP0
10
6429.402441836
20
-222.17625275635
30
2.35903224242384e-005
11
6429.0846045908
21
-222.590466318723
31
2.35814899296694e-005
  0
LINE
 8
GROUP0
10
6429.81665539837
20
-221.858415511154
30
2.35976826692963e-005
11
6429.402441836
21
-222.17625275635
31
2.35903224242384e-005
  0
LINE
 8
GROUP0
10
6430.29901730817
20
-221.658614666145
30
2.36030690774047e-005
11
6429.81665539837
21
-221.858415511154
31
2.35976826692963e-005
  0
LINE
 8
GROUP0
10
6430.81665539837
20
-221.590466318723
30
2.36061145721167e-005
11
6430.29901730817
21
-221.658614666145
31
2.36030690774047e-005
  0
LINE
 8
GROUP0
10
6431.33429348858
20
-221.658614666145
30
2.3606611610244e-005
11
6430.81665539837
21
-221.590466318723
31
2.36061145721167e-005
  0
LINE
 8
GROUP0
10
6431.81665539837
20
-221.858415511154
30
2.36045263176443e-005
11
6431.33429348858
21
-221.658614666145
31
2.3606611610244e-005
  0
LINE
 8
GROUP0
10
6432.23086896075
20
-222.17625275635
30
2.36000008044135e-005
11
6431.81665539837
21
-221.858415511154
31
2.36045263176443e-005
  0
LINE
 8
GROUP0
10
6432.54870620594
20
-222.590466318723
30
2.35933434761859e-005
11
6432.23086896075
21
-222.17625275635
31
2.36000008044135e-005
  0
LINE
 8
GROUP0
10
6432.74850705095
20
-223.072828228518
30
2.35850080197442e-005
11
6432.54870620594
21
-222.590466318723
31
2.35933434761859e-005
  0
LINE
 8
GROUP0
10
6432.81665539837
20
-223.590466318723
30
2.35755624820866e-005
11
6432.74850705095
21
-223.072828228518
31
2.35850080197442e-005
  0
LINE
 8
GROUP0
10
6432.74850705095
20
-224.108104408928
30
2.35656505607473e-005
11
6432.81665539837
21
-223.590466318723
31
2.35755624820866e-005
  0
LINE
 8
GROUP0
10
6432.54870620594
20
-224.590466318723
30
2.35559477378078e-005
11
6432.74850705095
21
-224.108104408928
31
2.35656505607473e-005
  0
LINE
 8
GROUP0
10
6432.23086896075
20
-225.004679881096
30
2.35471152432387e-005
11
6432.54870620594
21
-224.590466318723
31
2.35559477378078e-005
  0
LINE
 8
GROUP0
10
6431.81665539837
20
-225.322517126292
30
2.35397549981808e-005
11
6432.23086896075
21
-225.004679881096
31
2.35471152432387e-005
  0
LINE
 8
GROUP0
10
6431.33429348858
20
-225.522317971301
30
2.35343685900724e-005
11
6431.81665539837
21
-225.322517126292
31
2.35397549981808e-005
  0
LINE
 8
GROUP0
10
6430.81665539837
20
-225.590466318723
30
2.35313230953604e-005
11
6431.33429348858
21
-225.522317971301
31
2.35343685900724e-005
  0
LINE
 8
GROUP0
10
6430.29901730817
20
-225.522317971301
30
2.35308260572331e-005
11
6430.81665539837
21
-225.590466318723
31
2.35313230953604e-005
  0
LINE
 8
GROUP0
10
6429.81665539837
20
-225.322517126292
30
2.35329113498328e-005
11
6430.29901730817
21
-225.522317971301
31
2.35308260572331e-005
  0
LINE
 8
GROUP0
10
6429.402441836
20
-225.004679881096
30
2.35374368630636e-005
11
6429.81665539837
21
-225.322517126292
31
2.35329113498328e-005
  0
LINE
 8
GROUP0
10
6429.0846045908
20
-224.590466318723
30
2.35440941912912e-005
11
6429.402441836
21
-225.004679881096
31
2.35374368630636e-005
  0
LINE
 8
GROUP0
10
6428.88480374579
20
-581.073056610054
30
1.68779456119206e-005
11
6428.81665539837
21
-581.59069470026
31
1.68680336912863e-005
  0
LINE
 8
GROUP0
10
6429.0846045908
20
-580.59069470026
30
1.68876484355651e-005
11
6428.88480374579
21
-581.073056610054
31
1.68779456119206e-005
  0
LINE
 8
GROUP0
10
6429.402441836
20
-580.176481137886
30
1.68964809294292e-005
11
6429.0846045908
21
-580.59069470026
31
1.68876484355651e-005
  0
LINE
 8
GROUP0
10
6429.81665539837
20
-579.858643892691
30
1.69038411744871e-005
11
6429.402441836
21
-580.176481137886
31
1.68964809294292e-005
  0
LINE
 8
GROUP0
10
6430.29901730817
20
-579.658843047681
30
1.69092275825955e-005
11
6429.81665539837
21
-579.858643892691
31
1.69038411744871e-005
  0
LINE
 8
GROUP0
10
6430.81665539837
20
-579.590694700259
30
1.69122730780125e-005
11
6430.29901730817
21
-579.658843047681
31
1.69092275825955e-005
  0
LINE
 8
GROUP0
10
6431.33429348858
20
-579.658843047681
30
1.69127701154348e-005
11
6430.81665539837
21
-579.590694700259
31
1.69122730780125e-005
  0
LINE
 8
GROUP0
10
6431.81665539837
20
-579.858643892691
30
1.69106848228351e-005
11
6431.33429348858
21
-579.658843047681
31
1.69127701154348e-005
  0
LINE
 8
GROUP0
10
6432.23086896075
20
-580.176481137886
30
1.69061593096043e-005
11
6431.81665539837
21
-579.858643892691
31
1.69106848228351e-005
  0
LINE
 8
GROUP0
10
6432.54870620594
20
-580.59069470026
30
1.68995019813767e-005
11
6432.23086896075
21
-580.176481137886
31
1.69061593096043e-005
  0
LINE
 8
GROUP0
10
6432.74850705095
20
-581.073056610054
30
1.68911665249349e-005
11
6432.54870620594
21
-580.59069470026
31
1.68995019813767e-005
  0
LINE
 8
GROUP0
10
6432.81665539837
20
-581.59069470026
30
1.68817209872774e-005
11
6432.74850705095
21
-581.073056610054
31
1.68911665249349e-005
  0
LINE
 8
GROUP0
10
6432.74850705095
20
-582.108332790464
30
1.68718090659381e-005
11
6432.81665539837
21
-581.59069470026
31
1.68817209872774e-005
  0
LINE
 8
GROUP0
10
6432.54870620594
20
-582.59069470026
30
1.68621062429986e-005
11
6432.74850705095
21
-582.108332790464
31
1.68718090659381e-005
  0
LINE
 8
GROUP0
10
6432.23086896075
20
-583.004908262633
30
1.68532737484295e-005
11
6432.54870620594
21
-582.59069470026
31
1.68621062429986e-005
  0
LINE
 8
GROUP0
10
6431.81665539837
20
-583.322745507828
30
1.68459135033716e-005
11
6432.23086896075
21
-583.004908262633
31
1.68532737484295e-005
  0
LINE
 8
GROUP0
10
6431.33429348858
20
-583.522546352838
30
1.68405270959682e-005
11
6431.81665539837
21
-583.322745507828
31
1.68459135033716e-005
  0
LINE
 8
GROUP0
10
6430.81665539837
20
-583.590694700259
30
1.68374816005512e-005
11
6431.33429348858
21
-583.522546352838
31
1.68405270959682e-005
  0
LINE
 8
GROUP0
10
6430.29901730817
20
-583.522546352838
30
1.68369845631289e-005
11
6430.81665539837
21
-583.590694700259
31
1.68374816005512e-005
  0
LINE
 8
GROUP0
10
6429.81665539837
20
-583.322745507828
30
1.68390698550236e-005
11
6430.29901730817
21
-583.522546352838
31
1.68369845631289e-005
  0
LINE
 8
GROUP0
10
6429.402441836
20
-583.004908262633
30
1.68435953689594e-005
11
6429.81665539837
21
-583.322745507828
31
1.68390698550236e-005
  0
LINE
 8
GROUP0
10
6429.0846045908
20
-582.59069470026
30
1.6850252696482e-005
11
6429.402441836
21
-583.004908262633
31
1.68435953689594e-005
  0
LINE
 8
GROUP0
10
6428.88480374579
20
-582.108332790464
30
1.68585881529237e-005
11
6429.0846045908
21
-582.59069470026
31
1.6850252696482e-005
  0
LINE
 8
GROUP0
10
6428.81665539837
20
-581.59069470026
30
1.68680336912863e-005
11
6428.88480374579
21
-582.108332790464
31
1.68585881529237e-005
  0
LINE
 8
GROUP0
10
6428.88480374579
20
-403.108104408928
30
2.0205511035748e-005
11
6429.0846045908
21
-403.590466318723
31
2.01971755793062e-005
  0
LINE
 8
GROUP0
10
6428.81665539837
20
-402.590466318723
30
2.02149565734055e-005
11
6428.88480374579
21
-403.108104408928
31
2.0205511035748e-005
  0
LINE
 8
GROUP0
10
6428.88480374579
20
-402.072828228518
30
2.02248684947448e-005
11
6428.81665539837
21
-402.590466318723
31
2.02149565734055e-005
  0
LINE
 8
GROUP0
10
6429.0846045908
20
-401.590466318723
30
2.02345713176844e-005
11
6428.88480374579
21
-402.072828228518
31
2.02248684947448e-005
  0
LINE
 8
GROUP0
10
6429.402441836
20
-401.17625275635
30
2.02434038122534e-005
11
6429.0846045908
21
-401.590466318723
31
2.02345713176844e-005
  0
LINE
 8
GROUP0
10
6429.81665539837
20
-400.858415511154
30
2.02507640573113e-005
11
6429.402441836
21
-401.17625275635
31
2.02434038122534e-005
  0
LINE
 8
GROUP0
10
6430.29901730817
20
-400.658614666145
30
2.02561504647147e-005
11
6429.81665539837
21
-400.858415511154
31
2.02507640573113e-005
  0
LINE
 8
GROUP0
10
6430.81665539837
20
-400.590466318723
30
2.02591959601317e-005
11
6430.29901730817
21
-400.658614666145
31
2.02561504647147e-005
  0
LINE
 8
GROUP0
10
6431.33429348858
20
-400.658614666145
30
2.0259692997554e-005
11
6430.81665539837
21
-400.590466318723
31
2.02591959601317e-005
  0
LINE
 8
GROUP0
10
6431.81665539837
20
-400.858415511154
30
2.02576077049543e-005
11
6431.33429348858
21
-400.658614666145
31
2.0259692997554e-005
  0
LINE
 8
GROUP0
10
6432.23086896075
20
-401.17625275635
30
2.02530821917235e-005
11
6431.81665539837
21
-400.858415511154
31
2.02576077049543e-005
  0
LINE
 8
GROUP0
10
6432.54870620594
20
-401.590466318723
30
2.02464248642009e-005
11
6432.23086896075
21
-401.17625275635
31
2.02530821917235e-005
  0
LINE
 8
GROUP0
10
6432.74850705095
20
-402.072828228518
30
2.02380894070542e-005
11
6432.54870620594
21
-401.590466318723
31
2.02464248642009e-005
  0
LINE
 8
GROUP0
10
6432.81665539837
20
-402.590466318723
30
2.02286438693966e-005
11
6432.74850705095
21
-402.072828228518
31
2.02380894070542e-005
  0
LINE
 8
GROUP0
10
6432.74850705095
20
-403.108104408928
30
2.02187319487623e-005
11
6432.81665539837
21
-402.590466318723
31
2.02286438693966e-005
  0
LINE
 8
GROUP0
10
6432.54870620594
20
-403.590466318723
30
2.02090291251178e-005
11
6432.74850705095
21
-403.108104408928
31
2.02187319487623e-005
  0
LINE
 8
GROUP0
10
6432.23086896075
20
-404.004679881096
30
2.02001966312537e-005
11
6432.54870620594
21
-403.590466318723
31
2.02090291251178e-005
  0
LINE
 8
GROUP0
10
6431.81665539837
20
-404.322517126292
30
2.01928363861958e-005
11
6432.23086896075
21
-404.004679881096
31
2.02001966312537e-005
  0
LINE
 8
GROUP0
10
6431.33429348858
20
-404.522317971301
30
2.01874499780874e-005
11
6431.81665539837
21
-404.322517126292
31
2.01928363861958e-005
  0
LINE
 8
GROUP0
10
6430.81665539837
20
-404.590466318723
30
2.01844044826704e-005
11
6431.33429348858
21
-404.522317971301
31
2.01874499780874e-005
  0
LINE
 8
GROUP0
10
6430.29901730817
20
-404.522317971301
30
2.01839074452481e-005
11
6430.81665539837
21
-404.590466318723
31
2.01844044826704e-005
  0
LINE
 8
GROUP0
10
6429.81665539837
20
-404.322517126292
30
2.01859927378478e-005
11
6430.29901730817
21
-404.522317971301
31
2.01839074452481e-005
  0
LINE
 8
GROUP0
10
6429.402441836
20
-404.004679881096
30
2.01905182510786e-005
11
6429.81665539837
21
-404.322517126292
31
2.01859927378478e-005
  0
LINE
 8
GROUP0
10
6429.0846045908
20
-403.590466318723
30
2.01971755793062e-005
11
6429.402441836
21
-404.004679881096
31
2.01905182510786e-005
  0
LINE
 8
GROUP0
10
6126.43705605175
20
-408.590236768309
30
2.11236130907899e-005
11
6126.43705605175
21
-290.590236768312
31
2.17406427772016e-005
  0
LINE
 8
GROUP0
10
6126.43705605175
20
-290.590236768312
30
2.17406427772016e-005
11
6159.43705605174
21
-290.590236768312
31
2.17406427772016e-005
  0
LINE
 8
GROUP0
10
6159.43705605174
20
-290.590236768312
30
2.17406427772016e-005
11
6159.43705605174
21
-408.590236768309
31
2.39469913605461e-005
  0
LINE
 8
GROUP0
10
6159.43705605174
20
-408.590236768309
30
2.39469913605461e-005
11
6126.43705605175
21
-408.590236768309
31
2.11236130907899e-005
  0
LINE
 8
GROUP0
10
5994.19248456175
20
-282.776498244266
30
2.5057683928198e-005
11
5994.19248456175
21
-152.276738937491
31
1.53546119686876e-005
  0
LINE
 8
GROUP0
10
5994.19248456175
20
-152.276738937491
30
1.53546119686876e-005
11
6100.20364859506
21
-152.276738937491
31
1.57173635233487e-005
  0
LINE
 8
GROUP0
10
6100.20364859506
20
-152.276738937491
30
1.57173635233487e-005
11
6100.20364859506
21
-282.776498244266
31
1.57173635233487e-005
  0
LINE
 8
GROUP0
10
6100.20364859506
20
-282.776498244266
30
1.57173635233487e-005
11
5994.19248456175
21
-282.776498244266
31
2.5057683928198e-005
  0
LINE
 8
GROUP0
10
6180.56647134322
20
-290.590237954398
30
2.53486757393784e-005
11
6329.56647134322
21
-290.590237954398
31
2.53486757393784e-005
  0
LINE
 8
GROUP0
10
6180.56647134322
20
-150.590237954398
30
2.53486757393784e-005
11
6180.56647134322
21
-290.590237954398
31
2.53486757393784e-005
  0
LINE
 8
GROUP0
10
6329.56647134322
20
-150.590237954398
30
2.53486757393784e-005
11
6180.56647134322
21
-150.590237954398
31
2.53486757393784e-005
  0
LINE
 8
GROUP0
10
6329.56647134322
20
-290.590237954398
30
2.53486757393784e-005
11
6329.56647134322
21
-150.590237954398
31
2.53486757393784e-005
  0
LINE
 8
GROUP0
10
6136.43705605175
20
-293.090237954395
30
2.01982229543374e-005
11
6136.8252846194
21
-293.141349214962
31
2.01985957327566e-005
  0
LINE
 8
GROUP0
10
6136.8252846194
20
-293.141349214962
30
2.01985957327566e-005
11
6137.18705605175
21
-293.291199848719
31
2.01970317631306e-005
  0
LINE
 8
GROUP0
10
6137.18705605175
20
-293.291199848719
30
2.01970317631306e-005
11
6137.49771622353
21
-293.529577782615
31
2.01936376282075e-005
  0
LINE
 8
GROUP0
10
6137.49771622353
20
-293.529577782615
30
2.01936376282075e-005
11
6137.73609415742
21
-293.840237954395
31
2.0188644632213e-005
  0
LINE
 8
GROUP0
10
6137.73609415742
20
-293.840237954395
30
2.0188644632213e-005
11
6137.88594479118
21
-294.202009386742
31
2.0182393039353e-005
  0
LINE
 8
GROUP0
10
6137.88594479118
20
-294.202009386742
30
2.0182393039353e-005
11
6137.93705605175
21
-294.590237954395
31
2.01753088859336e-005
  0
LINE
 8
GROUP0
10
6137.93705605175
20
-294.590237954395
30
2.01753088859336e-005
11
6137.88594479118
21
-294.978466522049
31
2.01678749452816e-005
  0
LINE
 8
GROUP0
10
6137.88594479118
20
-294.978466522049
30
2.01678749452816e-005
11
6137.73609415742
21
-295.340237954395
31
2.01605978279007e-005
  0
LINE
 8
GROUP0
10
6137.73609415742
20
-295.340237954395
30
2.01605978279007e-005
11
6137.49771622353
21
-295.650898126175
31
2.01539734573264e-005
  0
LINE
 8
GROUP0
10
6137.49771622353
20
-295.650898126175
30
2.01539734573264e-005
11
6137.18705605175
21
-295.889276060072
31
2.0148453272828e-005
  0
LINE
 8
GROUP0
10
6137.18705605175
20
-295.889276060072
30
2.0148453272828e-005
11
6136.8252846194
21
-296.039126693829
31
2.01444134670992e-005
  0
LINE
 8
GROUP0
10
6136.8252846194
20
-296.039126693829
30
2.01444134670992e-005
11
6136.43705605175
21
-296.090237954395
31
2.01421293457127e-005
  0
LINE
 8
GROUP0
10
6136.43705605175
20
-296.090237954395
30
2.01421293457127e-005
11
6136.04882748409
21
-296.039126693829
31
2.01417565672934e-005
  0
LINE
 8
GROUP0
10
6136.04882748409
20
-296.039126693829
30
2.01417565672934e-005
11
6135.68705605175
21
-295.889276060072
31
2.01433205369195e-005
  0
LINE
 8
GROUP0
10
6135.68705605175
20
-295.889276060072
30
2.01433205369195e-005
11
6135.37639587997
21
-295.650898126175
31
2.01467146718426e-005
  0
LINE
 8
GROUP0
10
6135.37639587997
20
-295.650898126175
30
2.01467146718426e-005
11
6135.13801794607
21
-295.340237954395
31
2.0151707667837e-005
  0
LINE
 8
GROUP0
10
6135.13801794607
20
-295.340237954395
30
2.0151707667837e-005
11
6134.98816731231
21
-294.978466522049
31
2.01579592606971e-005
  0
LINE
 8
GROUP0
10
6134.98816731231
20
-294.978466522049
30
2.01579592606971e-005
11
6134.93705605175
21
-294.590237954395
31
2.01650434141165e-005
  0
LINE
 8
GROUP0
10
6134.93705605175
20
-294.590237954395
30
2.01650434141165e-005
11
6134.98816731231
21
-294.202009386742
31
2.01724773547685e-005
  0
LINE
 8
GROUP0
10
6134.98816731231
20
-294.202009386742
30
2.01724773547685e-005
11
6135.13801794607
21
-293.840237954395
31
2.01797544721494e-005
  0
LINE
 8
GROUP0
10
6135.13801794607
20
-293.840237954395
30
2.01797544721494e-005
11
6135.37639587997
21
-293.529577782615
31
2.01863788427237e-005
  0
LINE
 8
GROUP0
10
6135.37639587997
20
-293.529577782615
30
2.01863788427237e-005
11
6135.68705605175
21
-293.291199848719
31
2.01918990272221e-005
  0
LINE
 8
GROUP0
10
6135.68705605175
20
-293.291199848719
30
2.01918990272221e-005
11
6136.04882748409
21
-293.141349214962
31
2.01959388329509e-005
  0
LINE
 8
GROUP0
10
6136.04882748409
20
-293.141349214962
30
2.01959388329509e-005
11
6136.43705605175
21
-293.090237954395
31
2.01982229543374e-005
  0
LINE
 8
GROUP0
10
6135.37639587997
20
-405.650898126174
30
1.89346850689387e-005
11
6135.13801794607
21
-405.340237954395
31
1.89396780649331e-005
  0
LINE
 8
GROUP0
10
6135.13801794607
20
-405.340237954395
30
1.89396780649331e-005
11
6134.98816731231
21
-404.978466522049
31
1.89459296570882e-005
  0
LINE
 8
GROUP0
10
6134.98816731231
20
-404.978466522049
30
1.89459296570882e-005
11
6134.93705605175
21
-404.590237954395
31
1.89530138105076e-005
  0
LINE
 8
GROUP0
10
6134.93705605175
20
-404.590237954395
30
1.89530138105076e-005
11
6134.98816731231
21
-404.202009386741
31
1.89604477511596e-005
  0
LINE
 8
GROUP0
10
6134.98816731231
20
-404.202009386741
30
1.89604477511596e-005
11
6135.13801794607
21
-403.840237954395
31
1.89677248685405e-005
  0
LINE
 8
GROUP0
10
6135.13801794607
20
-403.840237954395
30
1.89677248685405e-005
11
6135.37639587997
21
-403.529577782615
31
1.89743492398198e-005
  0
LINE
 8
GROUP0
10
6135.37639587997
20
-403.529577782615
30
1.89743492398198e-005
11
6135.68705605175
21
-403.291199848719
31
1.89798694236132e-005
  0
LINE
 8
GROUP0
10
6135.68705605175
20
-403.291199848719
30
1.89798694236132e-005
11
6136.04882748409
21
-403.141349214962
31
1.8983909229342e-005
  0
LINE
 8
GROUP0
10
6136.04882748409
20
-403.141349214962
30
1.8983909229342e-005
11
6136.43705605175
21
-403.090237954395
31
1.89861933514335e-005
  0
LINE
 8
GROUP0
10
6136.43705605175
20
-403.090237954395
30
1.89861933514335e-005
11
6136.8252846194
21
-403.141349214962
31
1.89865661291477e-005
  0
LINE
 8
GROUP0
10
6136.8252846194
20
-403.141349214962
30
1.89865661291477e-005
11
6137.18705605175
21
-403.291199848719
31
1.89850021602267e-005
  0
LINE
 8
GROUP0
10
6137.18705605175
20
-403.291199848719
30
1.89850021602267e-005
11
6137.49771622353
21
-403.529577782615
31
1.89816080253036e-005
  0
LINE
 8
GROUP0
10
6137.49771622353
20
-403.529577782615
30
1.89816080253036e-005
11
6137.73609415742
21
-403.840237954395
31
1.89766150293091e-005
  0
LINE
 8
GROUP0
10
6137.73609415742
20
-403.840237954395
30
1.89766150293091e-005
11
6137.88594479118
21
-404.202009386741
31
1.89703634371541e-005
  0
LINE
 8
GROUP0
10
6137.88594479118
20
-404.202009386741
30
1.89703634371541e-005
11
6137.93705605175
21
-404.590237954395
31
1.89632792837346e-005
  0
LINE
 8
GROUP0
10
6137.93705605175
20
-404.590237954395
30
1.89632792837346e-005
11
6137.88594479118
21
-404.978466522049
31
1.89558453430827e-005
  0
LINE
 8
GROUP0
10
6137.88594479118
20
-404.978466522049
30
1.89558453430827e-005
11
6137.73609415742
21
-405.340237954395
31
1.89485682257018e-005
  0
LINE
 8
GROUP0
10
6137.73609415742
20
-405.340237954395
30
1.89485682257018e-005
11
6137.49771622353
21
-405.650898126174
31
1.89419438544225e-005
  0
LINE
 8
GROUP0
10
6137.49771622353
20
-405.650898126174
30
1.89419438544225e-005
11
6137.18705605175
21
-405.889276060071
31
1.89364236706291e-005
  0
LINE
 8
GROUP0
10
6137.18705605175
20
-405.889276060071
30
1.89364236706291e-005
11
6136.8252846194
21
-406.039126693828
31
1.89323838649003e-005
  0
LINE
 8
GROUP0
10
6136.8252846194
20
-406.039126693828
30
1.89323838649003e-005
11
6136.43705605175
21
-406.090237954395
31
1.89300997428088e-005
  0
LINE
 8
GROUP0
10
6136.43705605175
20
-406.090237954395
30
1.89300997428088e-005
11
6136.04882748409
21
-406.039126693828
31
1.89297269650945e-005
  0
LINE
 8
GROUP0
10
6136.04882748409
20
-406.039126693828
30
1.89297269650945e-005
11
6135.68705605175
21
-405.889276060071
31
1.89312909340156e-005
  0
LINE
 8
GROUP0
10
6135.68705605175
20
-405.889276060071
30
1.89312909340156e-005
11
6135.37639587997
21
-405.650898126174
31
1.89346850689387e-005
  0
LINE
 8
GROUP0
10
6322.56647134322
20
-185.090237954397
30
2.53486757372634e-005
11
6322.95469991087
21
-185.039126693831
31
2.53486757372634e-005
  0
LINE
 8
GROUP0
10
6322.17824277556
20
-185.039126693831
30
2.53486757372634e-005
11
6322.56647134322
21
-185.090237954397
31
2.53486757372634e-005
  0
LINE
 8
GROUP0
10
6321.81647134322
20
-184.889276060074
30
2.53486757372634e-005
11
6322.17824277556
21
-185.039126693831
31
2.53486757372634e-005
  0
LINE
 8
GROUP0
10
6321.50581117144
20
-184.650898126177
30
2.53486757372634e-005
11
6321.81647134322
21
-184.889276060074
31
2.53486757372634e-005
  0
LINE
 8
GROUP0
10
6321.26743323754
20
-184.340237954397
30
2.53486757372634e-005
11
6321.50581117144
21
-184.650898126177
31
2.53486757372634e-005
  0
LINE
 8
GROUP0
10
6321.11758260378
20
-183.978466522051
30
2.53486757372634e-005
11
6321.26743323754
21
-184.340237954397
31
2.53486757372634e-005
  0
LINE
 8
GROUP0
10
6321.06647134322
20
-183.590237954398
30
2.53486757372634e-005
11
6321.11758260378
21
-183.978466522051
31
2.53486757372634e-005
  0
LINE
 8
GROUP0
10
6321.11758260378
20
-183.202009386744
30
2.53486757372634e-005
11
6321.06647134322
21
-183.590237954398
31
2.53486757372634e-005
  0
LINE
 8
GROUP0
10
6321.26743323754
20
-182.840237954398
30
2.53486757372634e-005
11
6321.11758260378
21
-183.202009386744
31
2.53486757372634e-005
  0
LINE
 8
GROUP0
10
6321.50581117144
20
-182.529577782618
30
2.53486757372634e-005
11
6321.26743323754
21
-182.840237954398
31
2.53486757372634e-005
  0
LINE
 8
GROUP0
10
6321.81647134322
20
-182.291199848721
30
2.53486757372634e-005
11
6321.50581117144
21
-182.529577782618
31
2.53486757372634e-005
  0
LINE
 8
GROUP0
10
6322.17824277556
20
-182.141349214964
30
2.53486757372634e-005
11
6321.81647134322
21
-182.291199848721
31
2.53486757372634e-005
  0
LINE
 8
GROUP0
10
6322.56647134322
20
-182.090237954398
30
2.53486757372634e-005
11
6322.17824277556
21
-182.141349214964
31
2.53486757372634e-005
  0
LINE
 8
GROUP0
10
6322.95469991087
20
-182.141349214964
30
2.53486757372634e-005
11
6322.56647134322
21
-182.090237954398
31
2.53486757372634e-005
  0
LINE
 8
GROUP0
10
6323.31647134322
20
-182.291199848721
30
2.53486757372634e-005
11
6322.95469991087
21
-182.141349214964
31
2.53486757372634e-005
  0
LINE
 8
GROUP0
10
6323.627131515
20
-182.529577782618
30
2.53486757372634e-005
11
6323.31647134322
21
-182.291199848721
31
2.53486757372634e-005
  0
LINE
 8
GROUP0
10
6323.86550944889
20
-182.840237954398
30
2.53486757372634e-005
11
6323.627131515
21
-182.529577782618
31
2.53486757372634e-005
  0
LINE
 8
GROUP0
10
6324.01536008265
20
-183.202009386744
30
2.53486757372634e-005
11
6323.86550944889
21
-182.840237954398
31
2.53486757372634e-005
  0
LINE
 8
GROUP0
10
6324.06647134322
20
-183.590237954398
30
2.53486757372634e-005
11
6324.01536008265
21
-183.202009386744
31
2.53486757372634e-005
  0
LINE
 8
GROUP0
10
6324.01536008265
20
-183.978466522051
30
2.53486757372634e-005
11
6324.06647134322
21
-183.590237954398
31
2.53486757372634e-005
  0
LINE
 8
GROUP0
10
6323.86550944889
20
-184.340237954397
30
2.53486757372634e-005
11
6324.01536008265
21
-183.978466522051
31
2.53486757372634e-005
  0
LINE
 8
GROUP0
10
6323.627131515
20
-184.650898126177
30
2.53486757372634e-005
11
6323.86550944889
21
-184.340237954397
31
2.53486757372634e-005
  0
LINE
 8
GROUP0
10
6323.31647134322
20
-184.889276060074
30
2.53486757372634e-005
11
6323.627131515
21
-184.650898126177
31
2.53486757372634e-005
  0
LINE
 8
GROUP0
10
6322.95469991087
20
-185.039126693831
30
2.53486757372634e-005
11
6323.31647134322
21
-184.889276060074
31
2.53486757372634e-005
  0
LINE
 8
GROUP0
10
6322.17824277556
20
-277.141349214964
30
2.53486757372634e-005
11
6321.81647134322
21
-277.291199848721
31
2.53486757372634e-005
  0
LINE
 8
GROUP0
10
6322.56647134322
20
-277.090237954398
30
2.53486757372634e-005
11
6322.17824277556
21
-277.141349214964
31
2.53486757372634e-005
  0
LINE
 8
GROUP0
10
6322.95469991087
20
-277.141349214964
30
2.53486757372634e-005
11
6322.56647134322
21
-277.090237954398
31
2.53486757372634e-005
  0
LINE
 8
GROUP0
10
6323.31647134322
20
-277.291199848721
30
2.53486757372634e-005
11
6322.95469991087
21
-277.141349214964
31
2.53486757372634e-005
  0
LINE
 8
GROUP0
10
6323.627131515
20
-277.529577782618
30
2.53486757372634e-005
11
6323.31647134322
21
-277.291199848721
31
2.53486757372634e-005
  0
LINE
 8
GROUP0
10
6323.86550944889
20
-277.840237954398
30
2.53486757372634e-005
11
6323.627131515
21
-277.529577782618
31
2.53486757372634e-005
  0
LINE
 8
GROUP0
10
6324.01536008265
20
-278.202009386744
30
2.53486757372634e-005
11
6323.86550944889
21
-277.840237954398
31
2.53486757372634e-005
  0
LINE
 8
GROUP0
10
6324.06647134322
20
-278.590237954398
30
2.53486757372634e-005
11
6324.01536008265
21
-278.202009386744
31
2.53486757372634e-005
  0
LINE
 8
GROUP0
10
6324.01536008265
20
-278.978466522051
30
2.53486757372634e-005
11
6324.06647134322
21
-278.590237954398
31
2.53486757372634e-005
  0
LINE
 8
GROUP0
10
6323.86550944889
20
-279.340237954398
30
2.53486757372634e-005
11
6324.01536008265
21
-278.978466522051
31
2.53486757372634e-005
  0
LINE
 8
GROUP0
10
6323.627131515
20
-279.650898126177
30
2.53486757372634e-005
11
6323.86550944889
21
-279.340237954398
31
2.53486757372634e-005
  0
LINE
 8
GROUP0
10
6323.31647134322
20
-279.889276060074
30
2.53486757372634e-005
11
6323.627131515
21
-279.650898126177
31
2.53486757372634e-005
  0
LINE
 8
GROUP0
10
6322.95469991087
20
-280.039126693831
30
2.53486757372634e-005
11
6323.31647134322
21
-279.889276060074
31
2.53486757372634e-005
  0
LINE
 8
GROUP0
10
6322.56647134322
20
-280.090237954397
30
2.53486757372634e-005
11
6322.95469991087
21
-280.039126693831
31
2.53486757372634e-005
  0
LINE
 8
GROUP0
10
6322.17824277556
20
-280.039126693831
30
2.53486757372634e-005
11
6322.56647134322
21
-280.090237954397
31
2.53486757372634e-005
  0
LINE
 8
GROUP0
10
6321.81647134322
20
-279.889276060074
30
2.53486757372634e-005
11
6322.17824277556
21
-280.039126693831
31
2.53486757372634e-005
  0
LINE
 8
GROUP0
10
6321.50581117144
20
-279.650898126177
30
2.53486757372634e-005
11
6321.81647134322
21
-279.889276060074
31
2.53486757372634e-005
  0
LINE
 8
GROUP0
10
6321.26743323754
20
-279.340237954398
30
2.53486757372634e-005
11
6321.50581117144
21
-279.650898126177
31
2.53486757372634e-005
  0
LINE
 8
GROUP0
10
6321.11758260378
20
-278.978466522051
30
2.53486757372634e-005
11
6321.26743323754
21
-279.340237954398
31
2.53486757372634e-005
  0
LINE
 8
GROUP0
10
6321.06647134322
20
-278.590237954398
30
2.53486757372634e-005
11
6321.11758260378
21
-278.978466522051
31
2.53486757372634e-005
  0
LINE
 8
GROUP0
10
6321.11758260378
20
-278.202009386744
30
2.53486757372634e-005
11
6321.06647134322
21
-278.590237954398
31
2.53486757372634e-005
  0
LINE
 8
GROUP0
10
6321.26743323754
20
-277.840237954398
30
2.53486757372634e-005
11
6321.11758260378
21
-278.202009386744
31
2.53486757372634e-005
  0
LINE
 8
GROUP0
10
6321.50581117144
20
-277.529577782618
30
2.53486757372634e-005
11
6321.26743323754
21
-277.840237954398
31
2.53486757372634e-005
  0
LINE
 8
GROUP0
10
6321.81647134322
20
-277.291199848721
30
2.53486757372634e-005
11
6321.50581117144
21
-277.529577782618
31
2.53486757372634e-005
  0
LINE
 8
GROUP0
10
6186.11758260378
20
-278.202009386744
30
2.53486757372634e-005
11
6186.06647134322
21
-278.590237954398
31
2.53486757372634e-005
  0
LINE
 8
GROUP0
10
6186.26743323754
20
-277.840237954398
30
2.53486757372634e-005
11
6186.11758260378
21
-278.202009386744
31
2.53486757372634e-005
  0
LINE
 8
GROUP0
10
6186.50581117144
20
-277.529577782618
30
2.53486757372634e-005
11
6186.26743323754
21
-277.840237954398
31
2.53486757372634e-005
  0
LINE
 8
GROUP0
10
6186.81647134322
20
-277.291199848721
30
2.53486757372634e-005
11
6186.50581117144
21
-277.529577782618
31
2.53486757372634e-005
  0
LINE
 8
GROUP0
10
6187.17824277556
20
-277.141349214964
30
2.53486757372634e-005
11
6186.81647134322
21
-277.291199848721
31
2.53486757372634e-005
  0
LINE
 8
GROUP0
10
6187.56647134322
20
-277.090237954398
30
2.53486757372634e-005
11
6187.17824277556
21
-277.141349214964
31
2.53486757372634e-005
  0
LINE
 8
GROUP0
10
6187.95469991087
20
-277.141349214964
30
2.53486757372634e-005
11
6187.56647134322
21
-277.090237954398
31
2.53486757372634e-005
  0
LINE
 8
GROUP0
10
6188.31647134322
20
-277.291199848721
30
2.53486757372634e-005
11
6187.95469991087
21
-277.141349214964
31
2.53486757372634e-005
  0
LINE
 8
GROUP0
10
6188.627131515
20
-277.529577782618
30
2.53486757372634e-005
11
6188.31647134322
21
-277.291199848721
31
2.53486757372634e-005
  0
LINE
 8
GROUP0
10
6188.86550944889
20
-277.840237954398
30
2.53486757372634e-005
11
6188.627131515
21
-277.529577782618
31
2.53486757372634e-005
  0
LINE
 8
GROUP0
10
6189.01536008265
20
-278.202009386744
30
2.53486757372634e-005
11
6188.86550944889
21
-277.840237954398
31
2.53486757372634e-005
  0
LINE
 8
GROUP0
10
6189.06647134322
20
-278.590237954398
30
2.53486757372634e-005
11
6189.01536008265
21
-278.202009386744
31
2.53486757372634e-005
  0
LINE
 8
GROUP0
10
6189.01536008265
20
-278.978466522052
30
2.53486757372634e-005
11
6189.06647134322
21
-278.590237954398
31
2.53486757372634e-005
  0
LINE
 8
GROUP0
10
6188.86550944889
20
-279.340237954398
30
2.53486757372634e-005
11
6189.01536008265
21
-278.978466522052
31
2.53486757372634e-005
  0
LINE
 8
GROUP0
10
6188.627131515
20
-279.650898126178
30
2.53486757372634e-005
11
6188.86550944889
21
-279.340237954398
31
2.53486757372634e-005
  0
LINE
 8
GROUP0
10
6188.31647134322
20
-279.889276060074
30
2.53486757372634e-005
11
6188.627131515
21
-279.650898126178
31
2.53486757372634e-005
  0
LINE
 8
GROUP0
10
6187.95469991087
20
-280.039126693831
30
2.53486757372634e-005
11
6188.31647134322
21
-279.889276060074
31
2.53486757372634e-005
  0
LINE
 8
GROUP0
10
6187.56647134322
20
-280.090237954398
30
2.53486757372634e-005
11
6187.95469991087
21
-280.039126693831
31
2.53486757372634e-005
  0
LINE
 8
GROUP0
10
6187.17824277556
20
-280.039126693831
30
2.53486757372634e-005
11
6187.56647134322
21
-280.090237954398
31
2.53486757372634e-005
  0
LINE
 8
GROUP0
10
6186.81647134322
20
-279.889276060074
30
2.53486757372634e-005
11
6187.17824277556
21
-280.039126693831
31
2.53486757372634e-005
  0
LINE
 8
GROUP0
10
6186.50581117144
20
-279.650898126178
30
2.53486757372634e-005
11
6186.81647134322
21
-279.889276060074
31
2.53486757372634e-005
  0
LINE
 8
GROUP0
10
6186.26743323754
20
-279.340237954398
30
2.53486757372634e-005
11
6186.50581117144
21
-279.650898126178
31
2.53486757372634e-005
  0
LINE
 8
GROUP0
10
6186.11758260378
20
-278.978466522052
30
2.53486757372634e-005
11
6186.26743323754
21
-279.340237954398
31
2.53486757372634e-005
  0
LINE
 8
GROUP0
10
6186.06647134322
20
-278.590237954398
30
2.53486757372634e-005
11
6186.11758260378
21
-278.978466522052
31
2.53486757372634e-005
  0
LINE
 8
GROUP0
10
6186.81647134322
20
-182.291199848721
30
2.53486757372634e-005
11
6186.50581117144
21
-182.529577782618
31
2.53486757372634e-005
  0
LINE
 8
GROUP0
10
6187.17824277556
20
-182.141349214964
30
2.53486757372634e-005
11
6186.81647134322
21
-182.291199848721
31
2.53486757372634e-005
  0
LINE
 8
GROUP0
10
6187.56647134322
20
-182.090237954398
30
2.53486757372634e-005
11
6187.17824277556
21
-182.141349214964
31
2.53486757372634e-005
  0
LINE
 8
GROUP0
10
6187.95469991087
20
-182.141349214964
30
2.53486757372634e-005
11
6187.56647134322
21
-182.090237954398
31
2.53486757372634e-005
  0
LINE
 8
GROUP0
10
6188.31647134322
20
-182.291199848721
30
2.53486757372634e-005
11
6187.95469991087
21
-182.141349214964
31
2.53486757372634e-005
  0
LINE
 8
GROUP0
10
6188.627131515
20
-182.529577782618
30
2.53486757372634e-005
11
6188.31647134322
21
-182.291199848721
31
2.53486757372634e-005
  0
LINE
 8
GROUP0
10
6188.86550944889
20
-182.840237954398
30
2.53486757372634e-005
11
6188.627131515
21
-182.529577782618
31
2.53486757372634e-005
  0
LINE
 8
GROUP0
10
6189.01536008265
20
-183.202009386744
30
2.53486757372634e-005
11
6188.86550944889
21
-182.840237954398
31
2.53486757372634e-005
  0
LINE
 8
GROUP0
10
6189.06647134322
20
-183.590237954398
30
2.53486757372634e-005
11
6189.01536008265
21
-183.202009386744
31
2.53486757372634e-005
  0
LINE
 8
GROUP0
10
6189.01536008265
20
-183.978466522051
30
2.53486757372634e-005
11
6189.06647134322
21
-183.590237954398
31
2.53486757372634e-005
  0
LINE
 8
GROUP0
10
6188.86550944889
20
-184.340237954398
30
2.53486757372634e-005
11
6189.01536008265
21
-183.978466522051
31
2.53486757372634e-005
  0
LINE
 8
GROUP0
10
6188.627131515
20
-184.650898126177
30
2.53486757372634e-005
11
6188.86550944889
21
-184.340237954398
31
2.53486757372634e-005
  0
LINE
 8
GROUP0
10
6188.31647134322
20
-184.889276060074
30
2.53486757372634e-005
11
6188.627131515
21
-184.650898126177
31
2.53486757372634e-005
  0
LINE
 8
GROUP0
10
6187.95469991087
20
-185.039126693831
30
2.53486757372634e-005
11
6188.31647134322
21
-184.889276060074
31
2.53486757372634e-005
  0
LINE
 8
GROUP0
10
6187.56647134322
20
-185.090237954398
30
2.53486757372634e-005
11
6187.95469991087
21
-185.039126693831
31
2.53486757372634e-005
  0
LINE
 8
GROUP0
10
6187.17824277556
20
-185.039126693831
30
2.53486757372634e-005
11
6187.56647134322
21
-185.090237954398
31
2.53486757372634e-005
  0
LINE
 8
GROUP0
10
6186.81647134322
20
-184.889276060074
30
2.53486757372634e-005
11
6187.17824277556
21
-185.039126693831
31
2.53486757372634e-005
  0
LINE
 8
GROUP0
10
6186.50581117144
20
-184.650898126177
30
2.53486757372634e-005
11
6186.81647134322
21
-184.889276060074
31
2.53486757372634e-005
  0
LINE
 8
GROUP0
10
6186.26743323754
20
-184.340237954398
30
2.53486757372634e-005
11
6186.50581117144
21
-184.650898126177
31
2.53486757372634e-005
  0
LINE
 8
GROUP0
10
6186.11758260378
20
-183.978466522051
30
2.53486757372634e-005
11
6186.26743323754
21
-184.340237954398
31
2.53486757372634e-005
  0
LINE
 8
GROUP0
10
6186.06647134322
20
-183.590237954398
30
2.53486757372634e-005
11
6186.11758260378
21
-183.978466522051
31
2.53486757372634e-005
  0
LINE
 8
GROUP0
10
6186.11758260378
20
-183.202009386744
30
2.53486757372634e-005
11
6186.06647134322
21
-183.590237954398
31
2.53486757372634e-005
  0
LINE
 8
GROUP0
10
6186.26743323754
20
-182.840237954398
30
2.53486757372634e-005
11
6186.11758260378
21
-183.202009386744
31
2.53486757372634e-005
  0
LINE
 8
GROUP0
10
6186.50581117144
20
-182.529577782618
30
2.53486757372634e-005
11
6186.26743323754
21
-182.840237954398
31
2.53486757372634e-005
 0
ENDSEC
 0
EOF
