solid Mondrian3
facet normal -1.0 0.0 0.0
outer loop
vertex 4585.09456008862 -37.0195773258613 4.0
vertex 4585.01959690646 -37.5889792250869 0.0
vertex 4585.01959690646 -37.5889792250869 4.0
endloop
endfacet
facet normal -0.965925826289054 0.258819045102576 0.0
outer loop
vertex 4585.01959690646 -37.5889792250869 0.0
vertex 4585.09456008862 -37.0195773258613 4.0
vertex 4585.09456008862 -37.0195773258613 0.0
endloop
endfacet
facet normal -0.866025403784369 0.500000000000121 0.0
outer loop
vertex 4584.79981597695 -38.1195773258614 4.0
vertex 4584.45019500723 -38.5752122444718 0.0
vertex 4584.45019500723 -38.5752122444718 4.0
endloop
endfacet
facet normal -0.707106781186731 0.707106781186365 0.0
outer loop
vertex 4584.45019500723 -38.5752122444718 0.0
vertex 4584.79981597695 -38.1195773258614 4.0
vertex 4584.79981597695 -38.1195773258614 0.0
endloop
endfacet
facet normal 0.70710678118646 0.707106781186635 0.0
outer loop
vertex 4581.33892517001 -38.5752122444718 4.0
vertex 4581.79456008862 -38.9248332141872 0.0
vertex 4581.33892517001 -38.5752122444718 0.0
endloop
endfacet
facet normal 0.499999999999957 0.866025403784463 0.0
outer loop
vertex 4581.79456008862 -38.9248332141872 0.0
vertex 4581.33892517001 -38.5752122444718 4.0
vertex 4581.79456008862 -38.9248332141872 4.0
endloop
endfacet
facet normal 0.0 -1.0 0.0
outer loop
vertex 4582.89456008862 -34.819577325861 4.0
vertex 4582.3251581894 -34.8945405080251 0.0
vertex 4582.89456008862 -34.819577325861 0.0
endloop
endfacet
facet normal 0.258819045102438 -0.965925826289091 0.0
outer loop
vertex 4582.3251581894 -34.8945405080251 0.0
vertex 4582.89456008862 -34.819577325861 4.0
vertex 4582.3251581894 -34.8945405080251 4.0
endloop
endfacet
facet normal -0.70710678118646 -0.707106781186635 0.0
outer loop
vertex 4584.45019500723 -35.4639424072507 4.0
vertex 4584.79981597695 -35.9195773258612 0.0
vertex 4584.79981597695 -35.9195773258612 4.0
endloop
endfacet
facet normal -0.866025403784369 -0.500000000000121 0.0
outer loop
vertex 4584.79981597695 -35.9195773258612 0.0
vertex 4584.45019500723 -35.4639424072507 4.0
vertex 4584.45019500723 -35.4639424072507 0.0
endloop
endfacet
facet normal -0.499999999999957 -0.866025403784463 0.0
outer loop
vertex 4583.99456008862 -35.1143214375353 4.0
vertex 4583.46396198785 -34.8945405080251 0.0
vertex 4583.99456008862 -35.1143214375353 0.0
endloop
endfacet
facet normal -0.25881904510267 -0.965925826289028 0.0
outer loop
vertex 4583.46396198785 -34.8945405080251 0.0
vertex 4583.99456008862 -35.1143214375353 4.0
vertex 4583.46396198785 -34.8945405080251 4.0
endloop
endfacet
facet normal 0.965925826289054 -0.258819045102576 0.0
outer loop
vertex 4580.76952327079 -36.4501754266357 0.0
vertex 4580.69456008862 -37.0195773258613 4.0
vertex 4580.69456008862 -37.0195773258613 0.0
endloop
endfacet
facet normal 1.0 0.0 0.0
outer loop
vertex 4580.69456008862 -37.0195773258613 4.0
vertex 4580.76952327079 -36.4501754266357 0.0
vertex 4580.76952327079 -36.4501754266357 4.0
endloop
endfacet
facet normal 0.25881904510267 0.965925826289028 0.0
outer loop
vertex 4582.3251581894 -39.1446141436974 4.0
vertex 4582.89456008862 -39.2195773258615 0.0
vertex 4582.3251581894 -39.1446141436974 0.0
endloop
endfacet
facet normal 0.0 1.0 0.0
outer loop
vertex 4582.89456008862 -39.2195773258615 0.0
vertex 4582.3251581894 -39.1446141436974 4.0
vertex 4582.89456008862 -39.2195773258615 4.0
endloop
endfacet
facet normal -0.258819045102438 0.965925826289091 0.0
outer loop
vertex 4583.46396198785 -39.1446141436974 4.0
vertex 4583.99456008862 -38.9248332141872 0.0
vertex 4583.46396198785 -39.1446141436974 0.0
endloop
endfacet
facet normal -0.50000000000008 0.866025403784392 0.0
outer loop
vertex 4583.99456008862 -38.9248332141872 0.0
vertex 4583.46396198785 -39.1446141436974 4.0
vertex 4583.99456008862 -38.9248332141872 4.0
endloop
endfacet
facet normal 0.866025403784369 0.500000000000121 0.0
outer loop
vertex 4580.9893042003 -38.1195773258614 0.0
vertex 4581.33892517001 -38.5752122444718 4.0
vertex 4581.33892517001 -38.5752122444718 0.0
endloop
endfacet
facet normal 0.70710678118646 0.707106781186635 0.0
outer loop
vertex 4581.33892517001 -38.5752122444718 4.0
vertex 4580.9893042003 -38.1195773258614 0.0
vertex 4580.9893042003 -38.1195773258614 4.0
endloop
endfacet
facet normal -0.25881904510267 -0.965925826289028 0.0
outer loop
vertex 4583.46396198785 -34.8945405080251 4.0
vertex 4582.89456008862 -34.819577325861 0.0
vertex 4583.46396198785 -34.8945405080251 0.0
endloop
endfacet
facet normal 0.0 -1.0 0.0
outer loop
vertex 4582.89456008862 -34.819577325861 0.0
vertex 4583.46396198785 -34.8945405080251 4.0
vertex 4582.89456008862 -34.819577325861 4.0
endloop
endfacet
facet normal 0.866025403784369 -0.500000000000121 0.0
outer loop
vertex 4580.9893042003 -35.9195773258612 0.0
vertex 4580.76952327079 -36.4501754266357 4.0
vertex 4580.76952327079 -36.4501754266357 0.0
endloop
endfacet
facet normal 0.965925826289054 -0.258819045102576 0.0
outer loop
vertex 4580.76952327079 -36.4501754266357 4.0
vertex 4580.9893042003 -35.9195773258612 0.0
vertex 4580.9893042003 -35.9195773258612 4.0
endloop
endfacet
facet normal 0.707106781186731 -0.707106781186365 0.0
outer loop
vertex 4581.33892517001 -35.4639424072507 0.0
vertex 4580.9893042003 -35.9195773258612 4.0
vertex 4580.9893042003 -35.9195773258612 0.0
endloop
endfacet
facet normal 0.866025403784369 -0.500000000000121 0.0
outer loop
vertex 4580.9893042003 -35.9195773258612 4.0
vertex 4581.33892517001 -35.4639424072507 0.0
vertex 4581.33892517001 -35.4639424072507 4.0
endloop
endfacet
facet normal 0.0 1.0 0.0
outer loop
vertex 4582.89456008862 -39.2195773258615 4.0
vertex 4583.46396198785 -39.1446141436974 0.0
vertex 4582.89456008862 -39.2195773258615 0.0
endloop
endfacet
facet normal -0.258819045102438 0.965925826289091 0.0
outer loop
vertex 4583.46396198785 -39.1446141436974 0.0
vertex 4582.89456008862 -39.2195773258615 4.0
vertex 4583.46396198785 -39.1446141436974 4.0
endloop
endfacet
facet normal -0.50000000000008 0.866025403784392 0.0
outer loop
vertex 4583.99456008862 -38.9248332141872 4.0
vertex 4584.45019500723 -38.5752122444718 0.0
vertex 4583.99456008862 -38.9248332141872 0.0
endloop
endfacet
facet normal -0.707106781186731 0.707106781186365 0.0
outer loop
vertex 4584.45019500723 -38.5752122444718 0.0
vertex 4583.99456008862 -38.9248332141872 4.0
vertex 4584.45019500723 -38.5752122444718 4.0
endloop
endfacet
facet normal 0.965925826289054 0.258819045102576 0.0
outer loop
vertex 4580.76952327079 -37.5889792250869 0.0
vertex 4580.9893042003 -38.1195773258614 4.0
vertex 4580.9893042003 -38.1195773258614 0.0
endloop
endfacet
facet normal 0.866025403784369 0.500000000000121 0.0
outer loop
vertex 4580.9893042003 -38.1195773258614 4.0
vertex 4580.76952327079 -37.5889792250869 0.0
vertex 4580.76952327079 -37.5889792250869 4.0
endloop
endfacet
facet normal 1.0 0.0 0.0
outer loop
vertex 4580.69456008862 -37.0195773258613 0.0
vertex 4580.76952327079 -37.5889792250869 4.0
vertex 4580.76952327079 -37.5889792250869 0.0
endloop
endfacet
facet normal 0.965925826289054 0.258819045102576 0.0
outer loop
vertex 4580.76952327079 -37.5889792250869 4.0
vertex 4580.69456008862 -37.0195773258613 0.0
vertex 4580.69456008862 -37.0195773258613 4.0
endloop
endfacet
facet normal -0.965925826289054 0.258819045102576 0.0
outer loop
vertex 4585.01959690646 -37.5889792250869 4.0
vertex 4584.79981597695 -38.1195773258614 0.0
vertex 4584.79981597695 -38.1195773258614 4.0
endloop
endfacet
facet normal -0.866025403784369 0.500000000000121 0.0
outer loop
vertex 4584.79981597695 -38.1195773258614 0.0
vertex 4585.01959690646 -37.5889792250869 4.0
vertex 4585.01959690646 -37.5889792250869 0.0
endloop
endfacet
facet normal -0.866025403784369 -0.500000000000121 0.0
outer loop
vertex 4584.79981597695 -35.9195773258612 4.0
vertex 4585.01959690646 -36.4501754266357 0.0
vertex 4585.01959690646 -36.4501754266357 4.0
endloop
endfacet
facet normal -0.965925826289054 -0.258819045102576 0.0
outer loop
vertex 4585.01959690646 -36.4501754266357 0.0
vertex 4584.79981597695 -35.9195773258612 4.0
vertex 4584.79981597695 -35.9195773258612 0.0
endloop
endfacet
facet normal 0.258819045102438 -0.965925826289091 0.0
outer loop
vertex 4582.3251581894 -34.8945405080251 4.0
vertex 4581.79456008862 -35.1143214375353 0.0
vertex 4582.3251581894 -34.8945405080251 0.0
endloop
endfacet
facet normal 0.50000000000008 -0.866025403784392 0.0
outer loop
vertex 4581.79456008862 -35.1143214375353 0.0
vertex 4582.3251581894 -34.8945405080251 4.0
vertex 4581.79456008862 -35.1143214375353 4.0
endloop
endfacet
facet normal -0.70710678118646 -0.707106781186635 0.0
outer loop
vertex 4584.45019500723 -35.4639424072507 4.0
vertex 4583.99456008862 -35.1143214375353 0.0
vertex 4584.45019500723 -35.4639424072507 0.0
endloop
endfacet
facet normal -0.499999999999957 -0.866025403784463 0.0
outer loop
vertex 4583.99456008862 -35.1143214375353 0.0
vertex 4584.45019500723 -35.4639424072507 4.0
vertex 4583.99456008862 -35.1143214375353 4.0
endloop
endfacet
facet normal 0.499999999999957 0.866025403784463 0.0
outer loop
vertex 4581.79456008862 -38.9248332141872 4.0
vertex 4582.3251581894 -39.1446141436974 0.0
vertex 4581.79456008862 -38.9248332141872 0.0
endloop
endfacet
facet normal 0.25881904510267 0.965925826289028 0.0
outer loop
vertex 4582.3251581894 -39.1446141436974 0.0
vertex 4581.79456008862 -38.9248332141872 4.0
vertex 4582.3251581894 -39.1446141436974 4.0
endloop
endfacet
facet normal -0.965925826289054 -0.258819045102576 0.0
outer loop
vertex 4585.01959690646 -36.4501754266357 4.0
vertex 4585.09456008862 -37.0195773258613 0.0
vertex 4585.09456008862 -37.0195773258613 4.0
endloop
endfacet
facet normal -1.0 0.0 0.0
outer loop
vertex 4585.09456008862 -37.0195773258613 0.0
vertex 4585.01959690646 -36.4501754266357 4.0
vertex 4585.01959690646 -36.4501754266357 0.0
endloop
endfacet
facet normal 0.50000000000008 -0.866025403784392 0.0
outer loop
vertex 4581.79456008862 -35.1143214375353 4.0
vertex 4581.33892517001 -35.4639424072507 0.0
vertex 4581.79456008862 -35.1143214375353 0.0
endloop
endfacet
facet normal 0.707106781186731 -0.707106781186365 0.0
outer loop
vertex 4581.33892517001 -35.4639424072507 0.0
vertex 4581.79456008862 -35.1143214375353 4.0
vertex 4581.33892517001 -35.4639424072507 4.0
endloop
endfacet
facet normal 0.0 0.0 -1.0
outer loop
vertex 4573.39456008862 -27.5195773258613 0.0
vertex 4580.9893042003 -35.9195773258612 0.0
vertex 4573.39456008862 -46.5195773258613 0.0
endloop
endfacet
facet normal 0.0 0.0 -1.0
outer loop
vertex 4580.9893042003 -35.9195773258612 0.0
vertex 4573.39456008862 -27.5195773258613 0.0
vertex 4581.33892517001 -35.4639424072507 0.0
endloop
endfacet
facet normal 0.0 0.0 -1.0
outer loop
vertex 4581.33892517001 -35.4639424072507 0.0
vertex 4573.39456008862 -27.5195773258613 0.0
vertex 4581.79456008862 -35.1143214375353 0.0
endloop
endfacet
facet normal 0.0 0.0 -1.0
outer loop
vertex 4581.79456008862 -35.1143214375353 0.0
vertex 4573.39456008862 -27.5195773258613 0.0
vertex 4592.39456008862 -27.5195773258613 0.0
endloop
endfacet
facet normal 0.0 0.0 -1.0
outer loop
vertex 4573.39456008862 -46.5195773258613 0.0
vertex 4580.9893042003 -35.9195773258612 0.0
vertex 4580.76952327079 -36.4501754266357 0.0
endloop
endfacet
facet normal 0.0 0.0 -1.0
outer loop
vertex 4573.39456008862 -46.5195773258613 0.0
vertex 4580.76952327079 -36.4501754266357 0.0
vertex 4580.69456008862 -37.0195773258613 0.0
endloop
endfacet
facet normal 0.0 0.0 -1.0
outer loop
vertex 4581.79456008862 -35.1143214375353 0.0
vertex 4592.39456008862 -27.5195773258613 0.0
vertex 4582.3251581894 -34.8945405080251 0.0
endloop
endfacet
facet normal 0.0 0.0 -1.0
outer loop
vertex 4582.3251581894 -34.8945405080251 0.0
vertex 4592.39456008862 -27.5195773258613 0.0
vertex 4582.89456008862 -34.819577325861 0.0
endloop
endfacet
facet normal 0.0 0.0 -1.0
outer loop
vertex 4582.89456008862 -34.819577325861 0.0
vertex 4592.39456008862 -27.5195773258613 0.0
vertex 4583.46396198785 -34.8945405080251 0.0
endloop
endfacet
facet normal 0.0 0.0 -1.0
outer loop
vertex 4583.46396198785 -34.8945405080251 0.0
vertex 4592.39456008862 -27.5195773258613 0.0
vertex 4583.99456008862 -35.1143214375353 0.0
endloop
endfacet
facet normal 0.0 0.0 -1.0
outer loop
vertex 4583.99456008862 -35.1143214375353 0.0
vertex 4592.39456008862 -27.5195773258613 0.0
vertex 4584.45019500723 -35.4639424072507 0.0
endloop
endfacet
facet normal 0.0 0.0 -1.0
outer loop
vertex 4584.45019500723 -35.4639424072507 0.0
vertex 4592.39456008862 -27.5195773258613 0.0
vertex 4584.79981597695 -35.9195773258612 0.0
endloop
endfacet
facet normal 0.0 0.0 -1.0
outer loop
vertex 4584.79981597695 -35.9195773258612 0.0
vertex 4592.39456008862 -27.5195773258613 0.0
vertex 4585.01959690646 -36.4501754266357 0.0
endloop
endfacet
facet normal 0.0 0.0 -1.0
outer loop
vertex 4585.01959690646 -36.4501754266357 0.0
vertex 4592.39456008862 -27.5195773258613 0.0
vertex 4585.09456008862 -37.0195773258613 0.0
endloop
endfacet
facet normal 0.0 0.0 -1.0
outer loop
vertex 4573.39456008862 -46.5195773258613 0.0
vertex 4581.79456008862 -38.9248332141872 0.0
vertex 4592.39456008862 -46.5195773258613 0.0
endloop
endfacet
facet normal 0.0 0.0 -1.0
outer loop
vertex 4581.79456008862 -38.9248332141872 0.0
vertex 4573.39456008862 -46.5195773258613 0.0
vertex 4581.33892517001 -38.5752122444718 0.0
endloop
endfacet
facet normal 0.0 0.0 -1.0
outer loop
vertex 4581.33892517001 -38.5752122444718 0.0
vertex 4573.39456008862 -46.5195773258613 0.0
vertex 4580.9893042003 -38.1195773258614 0.0
endloop
endfacet
facet normal 0.0 0.0 -1.0
outer loop
vertex 4580.9893042003 -38.1195773258614 0.0
vertex 4573.39456008862 -46.5195773258613 0.0
vertex 4580.76952327079 -37.5889792250869 0.0
endloop
endfacet
facet normal 0.0 0.0 -1.0
outer loop
vertex 4580.76952327079 -37.5889792250869 0.0
vertex 4573.39456008862 -46.5195773258613 0.0
vertex 4580.69456008862 -37.0195773258613 0.0
endloop
endfacet
facet normal 0.0 0.0 -1.0
outer loop
vertex 4592.39456008862 -46.5195773258613 0.0
vertex 4581.79456008862 -38.9248332141872 0.0
vertex 4582.3251581894 -39.1446141436974 0.0
endloop
endfacet
facet normal 0.0 0.0 -1.0
outer loop
vertex 4592.39456008862 -46.5195773258613 0.0
vertex 4582.3251581894 -39.1446141436974 0.0
vertex 4582.89456008862 -39.2195773258615 0.0
endloop
endfacet
facet normal 0.0 0.0 -1.0
outer loop
vertex 4592.39456008862 -46.5195773258613 0.0
vertex 4582.89456008862 -39.2195773258615 0.0
vertex 4583.46396198785 -39.1446141436974 0.0
endloop
endfacet
facet normal 0.0 0.0 -1.0
outer loop
vertex 4592.39456008862 -46.5195773258613 0.0
vertex 4583.46396198785 -39.1446141436974 0.0
vertex 4583.99456008862 -38.9248332141872 0.0
endloop
endfacet
facet normal 0.0 0.0 -1.0
outer loop
vertex 4592.39456008862 -46.5195773258613 0.0
vertex 4583.99456008862 -38.9248332141872 0.0
vertex 4584.45019500723 -38.5752122444718 0.0
endloop
endfacet
facet normal 0.0 0.0 -1.0
outer loop
vertex 4592.39456008862 -46.5195773258613 0.0
vertex 4584.45019500723 -38.5752122444718 0.0
vertex 4584.79981597695 -38.1195773258614 0.0
endloop
endfacet
facet normal 0.0 0.0 -1.0
outer loop
vertex 4592.39456008862 -46.5195773258613 0.0
vertex 4584.79981597695 -38.1195773258614 0.0
vertex 4585.01959690646 -37.5889792250869 0.0
endloop
endfacet
facet normal 0.0 0.0 -1.0
outer loop
vertex 4592.39456008862 -46.5195773258613 0.0
vertex 4585.01959690646 -37.5889792250869 0.0
vertex 4585.09456008862 -37.0195773258613 0.0
endloop
endfacet
facet normal 0.0 0.0 -1.0
outer loop
vertex 4592.39456008862 -46.5195773258613 0.0
vertex 4585.09456008862 -37.0195773258613 0.0
vertex 4592.39456008862 -27.5195773258613 0.0
endloop
endfacet
facet normal 1.0 0.0 0.0
outer loop
vertex 4592.39456008862 -27.5195773258613 0.0
vertex 4592.39456008862 -46.5195773258613 4.0
vertex 4592.39456008862 -46.5195773258613 0.0
endloop
endfacet
facet normal 1.0 0.0 0.0
outer loop
vertex 4592.39456008862 -46.5195773258613 4.0
vertex 4592.39456008862 -27.5195773258613 0.0
vertex 4592.39456008862 -27.5195773258613 4.0
endloop
endfacet
facet normal 0.0 0.0 1.0
outer loop
vertex 4573.39456008862 -46.5195773258613 4.0
vertex 4580.9893042003 -38.1195773258614 4.0
vertex 4573.39456008862 -27.5195773258613 4.0
endloop
endfacet
facet normal 0.0 0.0 1.0
outer loop
vertex 4580.9893042003 -38.1195773258614 4.0
vertex 4573.39456008862 -46.5195773258613 4.0
vertex 4581.33892517001 -38.5752122444718 4.0
endloop
endfacet
facet normal 0.0 0.0 1.0
outer loop
vertex 4581.33892517001 -38.5752122444718 4.0
vertex 4573.39456008862 -46.5195773258613 4.0
vertex 4581.79456008862 -38.9248332141872 4.0
endloop
endfacet
facet normal 0.0 0.0 1.0
outer loop
vertex 4581.79456008862 -38.9248332141872 4.0
vertex 4573.39456008862 -46.5195773258613 4.0
vertex 4592.39456008862 -46.5195773258613 4.0
endloop
endfacet
facet normal 0.0 0.0 1.0
outer loop
vertex 4573.39456008862 -27.5195773258613 4.0
vertex 4580.9893042003 -38.1195773258614 4.0
vertex 4580.76952327079 -37.5889792250869 4.0
endloop
endfacet
facet normal 0.0 0.0 1.0
outer loop
vertex 4573.39456008862 -27.5195773258613 4.0
vertex 4580.76952327079 -37.5889792250869 4.0
vertex 4580.69456008862 -37.0195773258613 4.0
endloop
endfacet
facet normal 0.0 0.0 1.0
outer loop
vertex 4581.79456008862 -38.9248332141872 4.0
vertex 4592.39456008862 -46.5195773258613 4.0
vertex 4582.3251581894 -39.1446141436974 4.0
endloop
endfacet
facet normal 0.0 0.0 1.0
outer loop
vertex 4582.3251581894 -39.1446141436974 4.0
vertex 4592.39456008862 -46.5195773258613 4.0
vertex 4582.89456008862 -39.2195773258615 4.0
endloop
endfacet
facet normal 0.0 0.0 1.0
outer loop
vertex 4582.89456008862 -39.2195773258615 4.0
vertex 4592.39456008862 -46.5195773258613 4.0
vertex 4583.46396198785 -39.1446141436974 4.0
endloop
endfacet
facet normal 0.0 0.0 1.0
outer loop
vertex 4583.46396198785 -39.1446141436974 4.0
vertex 4592.39456008862 -46.5195773258613 4.0
vertex 4583.99456008862 -38.9248332141872 4.0
endloop
endfacet
facet normal 0.0 0.0 1.0
outer loop
vertex 4583.99456008862 -38.9248332141872 4.0
vertex 4592.39456008862 -46.5195773258613 4.0
vertex 4584.45019500723 -38.5752122444718 4.0
endloop
endfacet
facet normal 0.0 0.0 1.0
outer loop
vertex 4584.45019500723 -38.5752122444718 4.0
vertex 4592.39456008862 -46.5195773258613 4.0
vertex 4584.79981597695 -38.1195773258614 4.0
endloop
endfacet
facet normal 0.0 0.0 1.0
outer loop
vertex 4584.79981597695 -38.1195773258614 4.0
vertex 4592.39456008862 -46.5195773258613 4.0
vertex 4585.01959690646 -37.5889792250869 4.0
endloop
endfacet
facet normal 0.0 0.0 1.0
outer loop
vertex 4585.01959690646 -37.5889792250869 4.0
vertex 4592.39456008862 -46.5195773258613 4.0
vertex 4585.09456008862 -37.0195773258613 4.0
endloop
endfacet
facet normal 0.0 0.0 1.0
outer loop
vertex 4573.39456008862 -27.5195773258613 4.0
vertex 4581.79456008862 -35.1143214375353 4.0
vertex 4592.39456008862 -27.5195773258613 4.0
endloop
endfacet
facet normal 0.0 0.0 1.0
outer loop
vertex 4581.79456008862 -35.1143214375353 4.0
vertex 4573.39456008862 -27.5195773258613 4.0
vertex 4581.33892517001 -35.4639424072507 4.0
endloop
endfacet
facet normal 0.0 0.0 1.0
outer loop
vertex 4581.33892517001 -35.4639424072507 4.0
vertex 4573.39456008862 -27.5195773258613 4.0
vertex 4580.9893042003 -35.9195773258612 4.0
endloop
endfacet
facet normal 0.0 0.0 1.0
outer loop
vertex 4580.9893042003 -35.9195773258612 4.0
vertex 4573.39456008862 -27.5195773258613 4.0
vertex 4580.76952327079 -36.4501754266357 4.0
endloop
endfacet
facet normal 0.0 0.0 1.0
outer loop
vertex 4580.76952327079 -36.4501754266357 4.0
vertex 4573.39456008862 -27.5195773258613 4.0
vertex 4580.69456008862 -37.0195773258613 4.0
endloop
endfacet
facet normal 0.0 0.0 1.0
outer loop
vertex 4592.39456008862 -27.5195773258613 4.0
vertex 4581.79456008862 -35.1143214375353 4.0
vertex 4582.3251581894 -34.8945405080251 4.0
endloop
endfacet
facet normal 0.0 0.0 1.0
outer loop
vertex 4592.39456008862 -27.5195773258613 4.0
vertex 4582.3251581894 -34.8945405080251 4.0
vertex 4582.89456008862 -34.819577325861 4.0
endloop
endfacet
facet normal 0.0 0.0 1.0
outer loop
vertex 4592.39456008862 -27.5195773258613 4.0
vertex 4582.89456008862 -34.819577325861 4.0
vertex 4583.46396198785 -34.8945405080251 4.0
endloop
endfacet
facet normal 0.0 0.0 1.0
outer loop
vertex 4592.39456008862 -27.5195773258613 4.0
vertex 4583.46396198785 -34.8945405080251 4.0
vertex 4583.99456008862 -35.1143214375353 4.0
endloop
endfacet
facet normal 0.0 0.0 1.0
outer loop
vertex 4592.39456008862 -27.5195773258613 4.0
vertex 4583.99456008862 -35.1143214375353 4.0
vertex 4584.45019500723 -35.4639424072507 4.0
endloop
endfacet
facet normal 0.0 0.0 1.0
outer loop
vertex 4592.39456008862 -27.5195773258613 4.0
vertex 4584.45019500723 -35.4639424072507 4.0
vertex 4584.79981597695 -35.9195773258612 4.0
endloop
endfacet
facet normal 0.0 0.0 1.0
outer loop
vertex 4592.39456008862 -27.5195773258613 4.0
vertex 4584.79981597695 -35.9195773258612 4.0
vertex 4585.01959690646 -36.4501754266357 4.0
endloop
endfacet
facet normal 0.0 0.0 1.0
outer loop
vertex 4592.39456008862 -27.5195773258613 4.0
vertex 4585.01959690646 -36.4501754266357 4.0
vertex 4585.09456008862 -37.0195773258613 4.0
endloop
endfacet
facet normal 0.0 0.0 1.0
outer loop
vertex 4592.39456008862 -27.5195773258613 4.0
vertex 4585.09456008862 -37.0195773258613 4.0
vertex 4592.39456008862 -46.5195773258613 4.0
endloop
endfacet
facet normal -0.0 -1.0 -0.0
outer loop
vertex 4592.39456008862 -46.5195773258613 4.0
vertex 4573.39456008862 -46.5195773258613 0.0
vertex 4592.39456008862 -46.5195773258613 0.0
endloop
endfacet
facet normal -0.0 -1.0 -0.0
outer loop
vertex 4573.39456008862 -46.5195773258613 0.0
vertex 4592.39456008862 -46.5195773258613 4.0
vertex 4573.39456008862 -46.5195773258613 4.0
endloop
endfacet
facet normal 0.0 1.0 0.0
outer loop
vertex 4573.39456008862 -27.5195773258613 4.0
vertex 4592.39456008862 -27.5195773258613 0.0
vertex 4573.39456008862 -27.5195773258613 0.0
endloop
endfacet
facet normal 0.0 1.0 0.0
outer loop
vertex 4592.39456008862 -27.5195773258613 0.0
vertex 4573.39456008862 -27.5195773258613 4.0
vertex 4592.39456008862 -27.5195773258613 4.0
endloop
endfacet
facet normal -1.0 0.0 0.0
outer loop
vertex 4573.39456008862 -27.5195773258613 4.0
vertex 4573.39456008862 -46.5195773258613 0.0
vertex 4573.39456008862 -46.5195773258613 4.0
endloop
endfacet
facet normal -1.0 0.0 0.0
outer loop
vertex 4573.39456008862 -46.5195773258613 0.0
vertex 4573.39456008862 -27.5195773258613 4.0
vertex 4573.39456008862 -27.5195773258613 0.0
endloop
endfacet
endsolid Mondrian3
