 0
SECTION
 2
ENTITIES
  0
LINE
 8
GROUP0
10
-4401.62092220506
20
2396.80892567457
30
0.000211172117034958
11
-4402.10328404506
21
2397.00872668804
31
0.000210733270713731
  0
LINE
 8
GROUP0
10
-4403.62092341481
20
2368.34482475807
30
0.000182205224802057
11
-4403.13856157481
21
2368.1450237446
31
0.000182644071122579
  0
LINE
 8
GROUP0
10
-4401.62092341487
20
2368.34482405956
30
0.000184792556009977
11
-4401.2067097415
21
2368.66266116008
31
0.000185622970756755
  0
LINE
 8
GROUP0
10
-4402.10328539443
20
2368.14502338302
30
0.000183983372330487
11
-4401.62092341487
21
2368.34482405956
31
0.000184792556009977
  0
LINE
 8
GROUP0
10
-4401.62092220503
20
2371.80892567458
30
0.000188002968933076
11
-4402.10328404503
21
2372.00872668805
31
0.00018756412261185
  0
LINE
 8
GROUP0
10
-4402.62092211142
20
2372.07687521626
30
0.000186957629577217
11
-4403.1385602254
21
2372.00872704963
31
0.00018622482149418
  0
LINE
 8
GROUP0
10
-4400.68907133819
20
2369.55923645143
30
0.000187123537678358
11
-4400.62092280998
21
2370.07687451782
31
0.000187691428345499
  0
LINE
 8
GROUP0
10
-4427.10328539445
20
2368.14508489737
30
0.000151641781021483
11
-4426.62092341494
21
2368.34488557388
31
0.000152450964791212
  0
LINE
 8
GROUP0
10
-4429.03513587814
20
2371.49115078656
30
0.000152243631759613
11
-4429.35297326796
21
2371.07693733525
31
0.000151448577714647
  0
LINE
 8
GROUP0
10
-4401.20670875366
20
2371.49108828473
30
0.000188244261854481
11
-4401.62092220503
21
2371.80892567458
31
0.000188002968933076
  0
LINE
 8
GROUP0
10
-4402.62092350842
20
2368.07687521639
30
0.000183250564066267
11
-4402.10328539443
21
2368.14502338302
31
0.000183983372330487
  0
LINE
 8
GROUP0
10
-4400.68907097662
20
2370.59451263181
30
0.000188082996771755
11
-4400.88887165315
21
2371.07687461137
31
0.000188271558143749
  0
LINE
 8
GROUP0
10
-4400.62092280998
20
2370.07687451782
30
0.000187691428345499
11
-4400.68907097662
21
2370.59451263181
31
0.000188082996771755
  0
LINE
 8
GROUP0
10
-4404.62092280986
20
2370.07687591483
30
0.000182516765929658
11
-4404.55277464322
21
2369.55923780084
31
0.000182125197593641
  0
LINE
 8
GROUP0
10
-4429.5527742814
20
2370.5945754953
30
0.000150743065379444
11
-4429.6209228096
21
2370.07693742897
31
0.000150175174711598
  0
LINE
 8
GROUP0
10
-4404.55277428164
20
2370.59451398122
30
0.000183084656687743
11
-4404.62092280986
21
2370.07687591483
31
0.000182516765929658
  0
LINE
 8
GROUP0
10
-4403.13856157481
20
2368.1450237446
30
0.000182644071122579
11
-4402.62092350842
21
2368.07687521639
31
0.000183250564066267
  0
LINE
 8
GROUP0
10
-4400.88887235166
20
2369.07687461143
30
0.000186418025072438
11
-4400.68907133819
21
2369.55923645143
31
0.000187123537678358
  0
LINE
 8
GROUP0
10
-4404.03513686617
20
2368.66266214792
30
0.000181963931789708
11
-4403.62092341481
21
2368.34482475807
31
0.000182205224802057
  0
LINE
 8
GROUP0
10
-4401.2067097415
20
2368.66266116008
30
0.000185622970756755
11
-4400.88887235166
21
2369.07687461143
31
0.000186418025072438
  0
LINE
 8
GROUP0
10
-4404.55277464322
20
2369.55923780084
30
0.000182125197593641
11
-4404.35297396668
21
2369.07687582128
31
0.000181936635951635
  0
LINE
 8
GROUP0
10
-4404.03513587833
20
2371.49108927257
30
0.000184585222976968
11
-4404.35297326818
21
2371.07687582122
31
0.000183790169022946
  0
LINE
 8
GROUP0
10
-4401.20670875371
20
2396.49108828472
30
0.000211413410046601
11
-4401.62092220506
21
2396.80892567457
31
0.000211172117034958
  0
LINE
 8
GROUP0
10
-4403.62092220497
20
2371.80892637309
30
0.000185415637725156
11
-4404.03513587833
21
2371.49108927257
31
0.000184585222976968
  0
LINE
 8
GROUP0
10
-4404.35297326818
20
2371.07687582122
30
0.000183790169022946
11
-4404.55277428164
21
2370.59451398122
31
0.000183084656687743
  0
LINE
 8
GROUP0
10
-4403.62092220501
20
2396.80892637308
30
0.000208584785826332
11
-4404.03513587836
21
2396.49108927256
31
0.000207754371169089
  0
LINE
 8
GROUP0
10
-4400.88887165315
20
2371.07687461137
30
0.000188271558143749
11
-4401.20670875366
21
2371.49108828473
31
0.000188244261854481
  0
LINE
 8
GROUP0
10
-4402.10328404503
20
2372.00872668805
30
0.00018756412261185
11
-4402.62092211142
21
2372.07687521626
31
0.000186957629577217
  0
LINE
 8
GROUP0
10
-4403.1385602254
20
2372.00872704963
30
0.00018622482149418
11
-4403.62092220497
21
2371.80892637309
31
0.000185415637725156
  0
LINE
 8
GROUP0
10
-4403.13856022544
20
2397.00872704961
30
0.000209393969505822
11
-4403.62092220501
21
2396.80892637308
31
0.000208584785826332
  0
LINE
 8
GROUP0
10
-4402.10328404506
20
2397.00872668804
30
0.000210733270713731
11
-4402.62092211145
21
2397.07687521625
31
0.000210126777769337
  0
LINE
 8
GROUP0
10
-4402.62092211145
20
2397.07687521625
30
0.000210126777769337
11
-4403.13856022544
21
2397.00872704961
31
0.000209393969505822
  0
LINE
 8
GROUP0
10
-4425.88887235184
20
2394.07693612567
30
0.000177245581956259
11
-4425.68907133839
21
2394.55929796561
31
0.000177951094201223
  0
LINE
 8
GROUP0
10
-4400.68907097665
20
2395.59451263179
30
0.00021125214451268
11
-4400.88887165319
21
2396.07687461135
31
0.000211440705884675
  0
LINE
 8
GROUP0
10
-4404.03513587836
20
2396.49108927256
30
0.000207754371169089
11
-4404.35297326821
21
2396.0768758212
31
0.000206959316763167
  0
LINE
 8
GROUP0
10
-4404.35297396668
20
2369.07687582128
30
0.000181936635951635
11
-4404.03513686617
21
2368.66266214792
31
0.000181963931789708
  0
LINE
 8
GROUP0
10
-4428.62092341469
20
2393.34488627237
30
0.000173032781685173
11
-4428.13856157475
21
2393.14508525893
31
0.000173471628005695
  0
LINE
 8
GROUP0
10
-4404.62092280989
20
2395.07687591482
30
0.000205685913760822
11
-4404.55277464326
21
2394.55923780083
31
0.000205294345334567
  0
LINE
 8
GROUP0
10
-4403.13856157485
20
2393.14502374458
30
0.00020581321922446
11
-4402.62092350846
21
2393.07687521638
31
0.000206419712258388
  0
LINE
 8
GROUP0
10
-4404.0351368662
20
2393.6626621479
30
0.000205133079981828
11
-4403.62092341485
21
2393.34482475805
31
0.000205374372993472
  0
LINE
 8
GROUP0
10
-4402.62092350846
20
2393.07687521638
30
0.000206419712258388
11
-4402.10328539446
21
2393.14502338301
31
0.000207152520341425
  0
LINE
 8
GROUP0
10
-4401.62092341491
20
2393.34482405954
30
0.000207961704111154
11
-4401.20670974155
21
2393.66266116006
31
0.000208792118858636
  0
LINE
 8
GROUP0
10
-4404.55277464326
20
2394.55923780083
30
0.000205294345334567
11
-4404.35297396671
21
2394.07687582127
31
0.000205105784052811
  0
LINE
 8
GROUP0
10
-4426.62092220513
20
2396.80898718853
30
0.000178830525725954
11
-4427.10328404508
21
2397.00878820197
31
0.000178391679494966
  0
LINE
 8
GROUP0
10
-4425.68907133839
20
2394.55929796561
30
0.000177951094201223
11
-4425.62092281019
21
2395.07693603195
31
0.000178518984958603
  0
LINE
 8
GROUP0
10
-4401.20670974155
20
2393.66266116006
30
0.000208792118858636
11
-4400.88887235169
21
2394.07687461142
31
0.00020958717308408
  0
LINE
 8
GROUP0
10
-4402.10328539446
20
2393.14502338301
30
0.000207152520341425
11
-4401.62092341491
21
2393.34482405954
31
0.000207961704111154
  0
LINE
 8
GROUP0
10
-4425.62092281019
20
2395.07693603195
30
0.000178518984958603
11
-4425.68907097682
21
2395.59457414588
31
0.000178910553384859
  0
LINE
 8
GROUP0
10
-4425.68907097682
20
2395.59457414588
30
0.000178910553384859
11
-4425.88887165334
21
2396.07693612539
31
0.000179099114666614
  0
LINE
 8
GROUP0
10
-4400.88887235169
20
2394.07687461142
30
0.00020958717308408
11
-4400.68907133823
21
2394.55923645142
31
0.000210292685419283
  0
LINE
 8
GROUP0
10
-4400.62092281002
20
2395.0768745178
30
0.000210860576176664
11
-4400.68907097665
21
2395.59451263179
31
0.00021125214451268
  0
LINE
 8
GROUP0
10
-4400.88887165319
20
2396.07687461135
30
0.000211440705884675
11
-4401.20670875371
21
2396.49108828472
31
0.000211413410046601
  0
LINE
 8
GROUP0
10
-4400.68907133823
20
2394.55923645142
30
0.000210292685419283
11
-4400.62092281002
21
2395.0768745178
31
0.000210860576176664
  0
LINE
 8
GROUP0
10
-4428.13856022535
20
2397.00878856355
30
0.000177052378287762
11
-4428.62092220486
21
2396.80898788703
31
0.000176243194608977
  0
LINE
 8
GROUP0
10
-4427.62092211141
20
2397.07693673017
30
0.000177785186461038
11
-4428.13856022535
21
2397.00878856355
31
0.000177052378287762
  0
LINE
 8
GROUP0
10
-4425.88887165334
20
2396.07693612539
30
0.000179099114666614
11
-4426.20670875383
21
2396.49114979871
31
0.000179071818737597
  0
LINE
 8
GROUP0
10
-4427.62092350841
20
2393.07693673073
30
0.000174078120950089
11
-4427.10328539449
21
2393.14508489735
31
0.000174810929213604
  0
LINE
 8
GROUP0
10
-4426.20670974166
20
2393.66272267436
30
0.000176450527549632
11
-4425.88887235184
21
2394.07693612567
31
0.000177245581956259
  0
LINE
 8
GROUP0
10
-4404.35297326821
20
2396.0768758212
30
0.000206959316763167
11
-4404.55277428167
21
2395.5945139812
31
0.000206253804428669
  0
LINE
 8
GROUP0
10
-4404.55277428167
20
2395.5945139812
30
0.000206253804428669
11
-4404.62092280989
21
2395.07687591482
31
0.000205685913760822
  0
LINE
 8
GROUP0
10
-4427.10328404508
20
2397.00878820197
30
0.000178391679494966
11
-4427.62092211141
21
2397.07693673017
31
0.000177785186461038
  0
LINE
 8
GROUP0
10
-4403.62092341485
20
2393.34482475805
30
0.000205374372993472
11
-4403.13856157485
21
2393.14502374458
31
0.00020581321922446
  0
LINE
 8
GROUP0
10
-4427.10328539449
20
2393.14508489735
30
0.000174810929213604
11
-4426.62092341497
21
2393.34488557387
31
0.000175620112893093
  0
LINE
 8
GROUP0
10
-4404.35297396671
20
2394.07687582127
30
0.000205105784052811
11
-4404.0351368662
21
2393.6626621479
31
0.000205133079981828
  0
LINE
 8
GROUP0
10
-4427.62092350845
20
2418.07693673071
30
0.00019724726905197
11
-4427.10328539452
21
2418.14508489734
31
0.000197980077224541
  0
LINE
 8
GROUP0
10
-4427.10328539452
20
2418.14508489734
30
0.000197980077224541
11
-4426.62092341501
21
2418.34488557385
31
0.000198789260994975
  0
LINE
 8
GROUP0
10
-4426.20670974169
20
2418.66272267434
30
0.000199619675741752
11
-4425.88887235188
21
2419.07693612565
31
0.000200414729967902
  0
LINE
 8
GROUP0
10
-4429.35297396649
20
2394.07693733551
30
0.000172764192835456
11
-4429.03513686601
21
2393.66272366219
31
0.000172791488763768
  0
LINE
 8
GROUP0
10
-4429.552774643
20
2394.55929931502
30
0.000172952754116507
11
-4429.35297396649
21
2394.07693733551
31
0.000172764192835456
  0
LINE
 8
GROUP0
10
-4425.88887235188
20
2419.07693612565
30
0.000200414729967902
11
-4425.68907133842
21
2419.5592979656
31
0.000201120242573821
  0
LINE
 8
GROUP0
10
-4425.62092281023
20
2420.07693603193
30
0.000201688133240258
11
-4425.68907097685
21
2420.59457414587
31
0.000202079701667218
  0
LINE
 8
GROUP0
10
-4425.88887165337
20
2421.07693612537
30
0.000202268263039213
11
-4426.20670875386
21
2421.49114979869
31
0.000202240966929718
  0
LINE
 8
GROUP0
10
-4428.62092220486
20
2396.80898788703
30
0.000176243194608977
11
-4429.03513587818
21
2396.49115078654
31
0.00017541277986079
  0
LINE
 8
GROUP0
10
-4428.13856157475
20
2393.14508525893
30
0.000173471628005695
11
-4427.62092350841
21
2393.07693673073
31
0.000174078120950089
  0
LINE
 8
GROUP0
10
-4429.03513587818
20
2396.49115078654
30
0.00017541277986079
11
-4429.35297326799
21
2396.07693733523
31
0.000174617725545811
  0
LINE
 8
GROUP0
10
-4429.55277428144
20
2395.59457549529
30
0.000173912213300848
11
-4429.62092280964
21
2395.07693742895
31
0.000173344322542762
  0
LINE
 8
GROUP0
10
-4428.13856022538
20
2422.00878856353
30
0.000200221526389643
11
-4428.62092220489
21
2421.80898788701
31
0.000199412342619915
  0
LINE
 8
GROUP0
10
-4426.20670875386
20
2421.49114979869
30
0.000202240966929718
11
-4426.62092220517
21
2421.80898718851
31
0.000201999673918074
  0
LINE
 8
GROUP0
10
-4429.62092280964
20
2395.07693742895
30
0.000173344322542762
11
-4429.552774643
21
2394.55929931502
31
0.000172952754116507
  0
LINE
 8
GROUP0
10
-4429.03513686601
20
2393.66272366219
30
0.000172791488763768
11
-4428.62092341469
21
2393.34488627237
31
0.000173032781685173
  0
LINE
 8
GROUP0
10
-4426.62092220517
20
2421.80898718851
30
0.000201999673918074
11
-4427.10328404512
21
2422.00878820196
31
0.000201560827506608
  0
LINE
 8
GROUP0
10
-4427.62092211145
20
2422.07693673016
30
0.000200954334653158
11
-4428.13856022538
21
2422.00878856353
31
0.000200221526389643
  0
LINE
 8
GROUP0
10
-4429.35297396653
20
2419.07693733549
30
0.000195933340846394
11
-4429.03513686604
21
2418.66272366217
31
0.000195960636775411
  0
LINE
 8
GROUP0
10
-4425.68907097685
20
2420.59457414587
30
0.000202079701667218
11
-4425.88887165337
21
2421.07693612537
31
0.000202268263039213
  0
LINE
 8
GROUP0
10
-4428.62092220489
20
2421.80898788701
30
0.000199412342619915
11
-4429.03513587821
21
2421.49115078653
31
0.000198581927962671
  0
LINE
 8
GROUP0
10
-4429.03513686604
20
2418.66272366217
30
0.000195960636775411
11
-4428.62092341473
21
2418.34488627236
31
0.000196201929787054
  0
LINE
 8
GROUP0
10
-4429.55277428148
20
2420.59457549527
30
0.000197081361583207
11
-4429.62092280967
21
2420.07693742894
31
0.00019651347091536
  0
LINE
 8
GROUP0
10
-4429.03513587821
20
2421.49115078653
30
0.000198581927962671
11
-4429.35297326803
21
2421.07693733522
31
0.000197786873917705
  0
LINE
 8
GROUP0
10
-4426.62092341497
20
2393.34488557387
30
0.000175620112893093
11
-4426.20670974166
21
2393.66272267436
31
0.000176450527549632
  0
LINE
 8
GROUP0
10
-4429.35297326803
20
2421.07693733522
30
0.000197786873917705
11
-4429.55277428148
21
2420.59457549527
31
0.000197081361583207
  0
LINE
 8
GROUP0
10
-4427.10328404512
20
2422.00878820196
30
0.000201560827506608
11
-4427.62092211145
21
2422.07693673016
31
0.000200954334653158
  0
LINE
 8
GROUP0
10
-4429.35297326799
20
2396.07693733523
30
0.000174617725545811
11
-4429.55277428144
21
2395.59457549529
31
0.000173912213300848
  0
LINE
 8
GROUP0
10
-4429.55277464304
20
2419.559299315
30
0.000196121902489105
11
-4429.35297396653
21
2419.07693733549
31
0.000195933340846394
  0
LINE
 8
GROUP0
10
-4428.13856157478
20
2418.14508525891
30
0.000196640776107576
11
-4427.62092350845
21
2418.07693673071
31
0.00019724726905197
  0
LINE
 8
GROUP0
10
-4426.20670875383
20
2396.49114979871
30
0.000179071818737597
11
-4426.62092220513
21
2396.80898718853
31
0.000178830525725954
  0
LINE
 8
GROUP0
10
-4429.62092280967
20
2420.07693742894
30
0.00019651347091536
11
-4429.55277464304
21
2419.559299315
31
0.000196121902489105
  0
LINE
 8
GROUP0
10
-4425.68907133842
20
2419.5592979656
30
0.000201120242573821
11
-4425.62092281023
21
2420.07693603193
31
0.000201688133240258
  0
LINE
 8
GROUP0
10
-4426.62092341501
20
2418.34488557385
30
0.000198789260994975
11
-4426.20670974169
21
2418.66272267434
31
0.000199619675741752
  0
LINE
 8
GROUP0
10
-4427.62092211148
20
2447.07693673014
30
0.000224123482664801
11
-4428.13856022541
21
2447.00878856352
31
0.000223390674491525
  0
LINE
 8
GROUP0
10
-4428.62092341473
20
2418.34488627236
30
0.000196201929787054
11
-4428.13856157478
21
2418.14508525891
31
0.000196640776107576
  0
LINE
 8
GROUP0
10
-4400.88887235173
20
2419.0768746114
30
0.000232756321276201
11
-4400.68907133826
21
2419.5592364514
31
0.000233461833881415
  0
LINE
 8
GROUP0
10
-4401.20670875374
20
2421.4910882847
30
0.000234582558058244
11
-4401.6209222051
21
2421.80892567456
31
0.000234341265045895
  0
LINE
 8
GROUP0
10
-4404.35297396675
20
2419.07687582125
30
0.000228274932154693
11
-4404.03513686624
21
2418.66266214789
31
0.000228302227993471
  0
LINE
 8
GROUP0
10
-4402.62092211149
20
2422.07687521623
30
0.00023329592578098
11
-4403.13856022548
21
2422.0087270496
31
0.000232563117697943
  0
LINE
 8
GROUP0
10
-4400.62092281006
20
2420.07687451779
30
0.000234029724549262
11
-4400.68907097669
21
2420.59451263178
31
0.000234421292975517
  0
LINE
 8
GROUP0
10
-4402.62092350849
20
2418.07687521636
30
0.00022958886027003
11
-4402.1032853945
21
2418.14502338299
31
0.000230321668533545
  0
LINE
 8
GROUP0
10
-4403.13856022548
20
2422.0087270496
30
0.000232563117697943
11
-4403.62092220504
21
2421.80892637306
31
0.000231753933928214
  0
LINE
 8
GROUP0
10
-4426.6209222052
20
2446.8089871885
30
0.000225168821929012
11
-4427.10328404515
21
2447.00878820194
31
0.000224729975698729
  0
LINE
 8
GROUP0
10
-4404.55277428172
20
2420.59451398119
30
0.000229422952890801
11
-4404.62092280993
21
2420.0768759148
31
0.000228855062133421
  0
LINE
 8
GROUP0
10
-4404.0351358784
20
2421.49108927254
30
0.000230923519180731
11
-4404.35297326825
21
2421.07687582119
31
0.000230128465226004
  0
LINE
 8
GROUP0
10
-4401.20670974158
20
2418.66266116005
30
0.000231961266870279
11
-4400.88887235173
21
2419.0768746114
31
0.000232756321276201
  0
LINE
 8
GROUP0
10
-4403.62092220504
20
2421.80892637306
30
0.000231753933928214
11
-4404.0351358784
21
2421.49108927254
31
0.000230923519180731
  0
LINE
 8
GROUP0
10
-4404.03513686624
20
2418.66266214789
30
0.000228302227993471
11
-4403.62092341488
21
2418.34482475804
31
0.00022854352100441
  0
LINE
 8
GROUP0
10
-4404.62092280993
20
2420.0768759148
30
0.000228855062133421
11
-4404.55277464328
21
2419.55923780081
31
0.000228463493797404
  0
LINE
 8
GROUP0
10
-4402.1032853945
20
2418.14502338299
30
0.000230321668533545
11
-4401.62092341494
21
2418.34482405953
31
0.000231130852213035
  0
LINE
 8
GROUP0
10
-4458.12029058533
20
2720.34484828018
30
0.00043792287819826
11
-4457.70607660512
21
2720.66268498084
31
0.000438753292894278
  0
LINE
 8
GROUP0
10
-4401.62092341494
20
2418.34482405953
30
0.000231130852213035
11
-4401.20670974158
21
2418.66266116005
31
0.000231961266870279
  0
LINE
 8
GROUP0
10
-4400.88887165322
20
2421.07687461134
30
0.000234609854257273
11
-4401.20670875374
21
2421.4910882847
31
0.000234582558058244
  0
LINE
 8
GROUP0
10
-4400.68907097669
20
2420.59451263178
30
0.000234421292975517
11
-4400.88887165322
21
2421.07687461134
31
0.000234609854257273
  0
LINE
 8
GROUP0
10
-4402.1032840451
20
2422.00872668802
30
0.000233902418815612
11
-4402.62092211149
21
2422.07687521623
31
0.00023329592578098
  0
LINE
 8
GROUP0
10
-4403.13856157488
20
2418.14502374457
30
0.000228982367326341
11
-4402.62092350849
21
2418.07687521636
31
0.00022958886027003
  0
LINE
 8
GROUP0
10
-4428.13856022541
20
2447.00878856352
30
0.000223390674491525
11
-4428.62092220492
21
2446.808987887
31
0.000222581490812035
  0
LINE
 8
GROUP0
10
-4404.35297326825
20
2421.07687582119
30
0.000230128465226004
11
-4404.55277428172
21
2420.59451398119
31
0.000229422952890801
  0
LINE
 8
GROUP0
10
-4427.10328404515
20
2447.00878820194
30
0.000224729975698729
11
-4427.62092211148
21
2447.07693673014
31
0.000224123482664801
  0
LINE
 8
GROUP0
10
-4400.68907133826
20
2419.5592364514
30
0.000233461833881415
11
-4400.62092281006
21
2420.07687451779
31
0.000234029724549262
  0
LINE
 8
GROUP0
10
-4403.62092341488
20
2418.34482475804
30
0.00022854352100441
11
-4403.13856157488
21
2418.14502374457
31
0.000228982367326341
  0
LINE
 8
GROUP0
10
-4404.55277464328
20
2419.55923780081
30
0.000228463493797404
11
-4404.35297396675
21
2419.07687582125
31
0.000228274932154693
  0
LINE
 8
GROUP0
10
-4401.6209222051
20
2421.80892567456
30
0.000234341265045895
11
-4402.1032840451
21
2422.00872668802
31
0.000233902418815612
  0
LINE
 8
GROUP0
10
-4058.70599040491
20
2720.66215998725
30
0.000957784297798081
11
-4058.38815261517
21
2721.07637313178
31
0.000958579352728517
  0
LINE
 8
GROUP0
10
-4469.12108572542
20
2330.07693075814
30
0.000145287002007183
11
-4469.12047041911
21
2354.57686240301
31
0.000146009709642841
  0
LINE
 8
GROUP0
10
-4460.12029058532
20
2720.34485090943
30
0.000435335548733784
11
-4459.6379289382
21
2720.1450494303
31
0.000435774394340854
  0
LINE
 8
GROUP0
10
-4459.63792385887
20
2724.00875273544
30
0.000439355149464099
11
-4460.12028603132
21
2723.80895252456
31
0.000438545965988352
  0
LINE
 8
GROUP0
10
-4058.12020210812
20
2722.07637277953
30
0.000959852756733359
11
-4058.18834977505
21
2722.59401095932
31
0.000960244325820897
  0
LINE
 8
GROUP0
10
-4058.38814998594
20
2723.07637313178
30
0.000960432887631396
11
-4058.70598668659
21
2723.49058711199
31
0.000960405592506774
  0
LINE
 8
GROUP0
10
-4461.12028830833
20
2722.07690303162
30
0.000435647092898489
11
-4461.0521406414
21
2721.55926485183
31
0.000435255523810951
  0
LINE
 8
GROUP0
10
-4469.12047041911
20
2354.57686240301
30
0.000146009709642841
11
-4536.62042740252
21
2354.57686240301
31
6.9694608673998e-005
  0
LINE
 8
GROUP0
10
-4458.60265275779
20
2720.1450480693
30
0.000437113694631569
11
-4458.12029058533
21
2720.34484828018
31
0.00043792287819826
  0
LINE
 8
GROUP0
10
-4460.85234043051
20
2721.07690267937
30
0.000435066961640201
11
-4460.53450372985
21
2720.66268869916
31
0.000435094256584345
  0
LINE
 8
GROUP0
10
-4459.12028567908
20
2724.07690040236
30
0.000440087957356788
11
-4459.63792385887
21
2724.00875273544
31
0.000439355149464099
  0
LINE
 8
GROUP0
10
-4461.0521406414
20
2721.55926485183
30
0.000435255523810951
11
-4460.85234043051
21
2721.07690267937
31
0.000435066961640201
  0
LINE
 8
GROUP0
10
-4058.38815261517
20
2721.07637313178
30
0.000958579352728517
11
-4058.18835113604
21
2721.55873477891
31
0.000959284865315402
  0
LINE
 8
GROUP0
10
-4058.18834977505
20
2722.59401095932
30
0.000960244325820897
11
-4058.38814998594
21
2723.07637313178
31
0.000960432887631396
  0
LINE
 8
GROUP0
10
-4059.12020438512
20
2720.34432328659
30
0.000956953883102768
11
-4058.70599040491
21
2720.66215998725
31
0.000957784297798081
  0
LINE
 8
GROUP0
10
-4050.12108572613
20
2330.0763242798
30
0.000499108108679752
11
-4091.62049651908
21
2330.07639339156
31
0.000533112283915999
  0
LINE
 8
GROUP0
10
-4461.0521392804
20
2722.59454103223
30
0.000436214984226208
11
-4461.12028830833
21
2722.07690303162
31
0.000435647092898489
  0
LINE
 8
GROUP0
10
-4058.18835113604
20
2721.55873477891
30
0.000959284865315402
11
-4058.12020210812
21
2722.07637277953
31
0.000959852756733359
  0
LINE
 8
GROUP0
10
-4460.53450001154
20
2723.4911158239
30
0.000437715551292334
11
-4460.85233780126
21
2723.07690267936
31
0.000436920496632615
  0
LINE
 8
GROUP0
10
-4459.6379289382
20
2720.1450494303
30
0.000435774394340854
11
-4459.12029093757
21
2720.07690040238
31
0.000436380886829824
  0
LINE
 8
GROUP0
10
-4459.12029093757
20
2720.07690040238
30
0.000436380886829824
11
-4458.60265275779
21
2720.1450480693
31
0.000437113694631569
  0
LINE
 8
GROUP0
10
-4460.53450372985
20
2720.66268869916
30
0.000435094256584345
11
-4460.12029058532
21
2720.34485090943
31
0.000435335548733784
  0
LINE
 8
GROUP0
10
-4460.85233780126
20
2723.07690267936
30
0.000436920496632615
11
-4461.0521392804
21
2722.59454103223
31
0.000436214984226208
  0
LINE
 8
GROUP0
10
-4460.12028603132
20
2723.80895252456
30
0.000438545965988352
11
-4460.53450001154
21
2723.4911158239
31
0.000437715551292334
  0
LINE
 8
GROUP0
10
-4059.60256655758
20
2720.1445230757
30
0.000956144699536077
11
-4059.12020438512
21
2720.34432328659
31
0.000956953883102768
  0
LINE
 8
GROUP0
10
-4050.1210340971
20
2354.57638548016
30
0.000688235495547429
11
-3982.62092916123
21
2354.57629932811
31
0.000769785960367381
  0
LINE
 8
GROUP0
10
-4469.1202897297
20
2732.07691067446
30
0.000429817299093349
11
-4469.12028226752
21
2711.5769210765
31
0.000400061035513943
  0
LINE
 8
GROUP0
10
-4060.12020473737
20
2720.07637540878
30
0.000955411891733626
11
-4059.60256655758
21
2720.1445230757
31
0.000956144699536077
  0
LINE
 8
GROUP0
10
-3982.6202582357
20
2676.57627462049
30
0.00104562989366534
11
-4010.12025823563
21
2676.57630909631
31
0.000991943873581513
  0
LINE
 8
GROUP0
10
-3982.6202582357
20
2676.57627462049
30
0.00104562989366534
11
-3982.62092916123
21
2354.57629932811
31
0.000769785960367381
  0
LINE
 8
GROUP0
10
-4536.62042740252
20
2354.57686240301
30
6.9694608673998e-005
11
-4536.62024391226
21
2676.57692854753
31
0.000298043423766531
  0
LINE
 8
GROUP0
10
-4060.63784273798
20
2720.14452443671
30
0.000954805399245362
11
-4060.12020473737
21
2720.07637540878
31
0.000955411891733626
  0
LINE
 8
GROUP0
10
-4050.12018762835
20
2732.07636351024
30
0.000977003264720233
11
-4050.12021457818
21
2711.57636351027
31
0.00096392407014016
  0
LINE
 8
GROUP0
10
-4050.1210340971
20
2354.57638548016
30
0.000688235495547429
11
-4050.12108572613
21
2330.0763242798
31
0.000499108108679752
  0
LINE
 8
GROUP0
10
-4061.12020438511
20
2720.34432591584
30
0.000954366553637587
11
-4060.63784273798
21
2720.14452443671
31
0.000954805399245362
  0
LINE
 8
GROUP0
10
-4469.1202897297
20
2732.07691067446
30
0.000429817299093349
11
-4050.12018762835
21
2732.07636351024
31
0.000977003264720233
  0
LINE
 8
GROUP0
10
-4061.53441752965
20
2720.66216370557
30
0.000954125261488853
11
-4061.12020438511
21
2720.34432591584
31
0.000954366553637587
  0
LINE
 8
GROUP0
10
-4509.12029092365
20
2676.57694830093
30
0.000319553421632468
11
-4536.62024391226
21
2676.57692854753
31
0.000298043423766531
  0
LINE
 8
GROUP0
10
-4062.12020210812
20
2722.07637803803
30
0.000954678097893941
11
-4062.05205444119
21
2721.55873985824
31
0.000954286528715459
  0
LINE
 8
GROUP0
10
-4058.70598668659
20
2723.49058711199
30
0.000960405592506774
11
-4059.12019983113
21
2723.80842490172
31
0.000960164300266392
  0
LINE
 8
GROUP0
10
-4061.53441381133
20
2723.49059083031
30
0.000956746556196841
11
-4061.85225160105
21
2723.07637768578
31
0.000955951501627361
  0
LINE
 8
GROUP0
10
-4061.85225160105
20
2723.07637768578
30
0.000955951501627361
11
-4062.05205308018
21
2722.59401603865
31
0.000955245989130715
  0
LINE
 8
GROUP0
10
-4060.63783765866
20
2724.00822774186
30
0.000958386154369312
11
-4061.12019983112
21
2723.80842753097
31
0.000957576970892154
  0
LINE
 8
GROUP0
10
-4062.05205444119
20
2721.55873985824
30
0.000954286528715459
11
-4061.85225423031
21
2721.07637768578
31
0.000954097966634948
  0
LINE
 8
GROUP0
10
-4059.60256147825
20
2724.00822638085
30
0.000959725454659321
11
-4060.12019947887
21
2724.07637540878
31
0.000959118962260591
  0
LINE
 8
GROUP0
10
-4059.12019983113
20
2723.80842490172
30
0.000960164300266392
11
-4059.60256147825
21
2724.00822638085
31
0.000959725454659321
  0
LINE
 8
GROUP0
10
-4061.85225423031
20
2721.07637768578
30
0.000954097966634948
11
-4061.53441752965
21
2720.66216370557
31
0.000954125261488853
  0
LINE
 8
GROUP0
10
-4062.05205308018
20
2722.59401603865
30
0.000955245989130715
11
-4062.12020210812
21
2722.07637803803
31
0.000954678097893941
  0
LINE
 8
GROUP0
10
-4060.12019947887
20
2724.07637540878
30
0.000959118962260591
11
-4060.63783765866
21
2724.00822774186
31
0.000958386154369312
  0
LINE
 8
GROUP0
10
-4061.12019983112
20
2723.80842753097
30
0.000957576970892154
11
-4061.53441381133
21
2723.49059083031
31
0.000956746556196841
  0
LINE
 8
GROUP0
10
-4457.18843733627
20
2721.5592597725
30
0.000440253860410894
11
-4457.12028830834
21
2722.07689777312
31
0.000440821751737908
  0
LINE
 8
GROUP0
10
-4457.3882388154
20
2721.07689812538
30
0.00043954834773377
11
-4457.18843733627
21
2721.5592597725
31
0.000440253860410894
  0
LINE
 8
GROUP0
10
-4457.70607660512
20
2720.66268498084
30
0.000438753292894278
11
-4457.3882388154
21
2721.07689812538
31
0.00043954834773377
  0
LINE
 8
GROUP0
10
-4457.70607288681
20
2723.49111210558
30
0.000441374587601562
11
-4458.12028603134
21
2723.80894989531
31
0.000441133295362589
  0
LINE
 8
GROUP0
10
-4457.18843597526
20
2722.59453595291
30
0.000441213320916389
11
-4457.38823618615
21
2723.07689812537
31
0.000441401882635944
  0
LINE
 8
GROUP0
10
-4458.60264767847
20
2724.00875137444
30
0.000440694449754814
11
-4459.12028567908
21
2724.07690040236
31
0.000440087957356788
  0
LINE
 8
GROUP0
10
-4458.12028603134
20
2723.80894989531
30
0.000441133295362589
11
-4458.60264767847
21
2724.00875137444
31
0.000440694449754814
  0
LINE
 8
GROUP0
10
-4457.12028830834
20
2722.07689777312
30
0.000440821751737908
11
-4457.18843597526
21
2722.59453595291
31
0.000441213320916389
  0
LINE
 8
GROUP0
10
-4457.38823618615
20
2723.07689812537
30
0.000441401882635944
11
-4457.70607288681
21
2723.49111210558
31
0.000441374587601562
  0
LINE
 8
GROUP0
10
-4525.20602814123
20
2665.16272421357
30
0.000299995432926858
11
-4524.88819112662
21
2665.57693795288
31
0.000300790486930935
  0
LINE
 8
GROUP0
10
-4526.10260547613
20
2668.50878892939
30
0.000301936580129714
11
-4526.62024360427
21
2668.57693698865
31
0.000301330086646001
  0
LINE
 8
GROUP0
10
-4527.62024345509
20
2668.30898723952
30
0.000299788094107983
11
-4528.03445684054
21
2667.99114976373
31
0.00029895767946484
  0
LINE
 8
GROUP0
10
-4528.55209443161
20
2667.09457400341
30
0.000297457113520355
11
-4528.62024249087
21
2666.57693587526
31
0.000296889223291719
  0
LINE
 8
GROUP0
10
-4525.62024345511
20
2668.30898835291
30
0.000302375427057233
11
-4526.10260547613
21
2668.50878892939
31
0.000301936580129714
  0
LINE
 8
GROUP0
10
-4528.03445684054
20
2667.99114976373
30
0.00029895767946484
11
-4528.35229385515
21
2667.57693602443
31
0.000298162625370524
  0
LINE
 8
GROUP0
10
-4524.68839112648
20
2667.0945761543
30
0.000302455456815603
11
-4524.88819224001
21
2667.57693795287
31
0.000302644017426207
  0
LINE
 8
GROUP0
10
-4526.62024360427
20
2668.57693698865
30
0.000301330086646001
11
-4527.13788165654
21
2668.50878835306
31
0.00030059727809626
  0
LINE
 8
GROUP0
10
-4524.62024249088
20
2666.57693810204
30
0.000302063889100684
11
-4524.68839112648
21
2667.0945761543
31
0.000302455456815603
  0
LINE
 8
GROUP0
10
-4528.62024249087
20
2666.57693587526
30
0.000296889223291719
11
-4528.55209385529
21
2666.059297823
31
0.000296497655486561
  0
LINE
 8
GROUP0
10
-4525.2060297158
20
2667.9911513383
30
0.000302616720816873
11
-4525.62024345511
21
2668.30898835291
31
0.000302375427057233
  0
LINE
 8
GROUP0
10
-4524.68839055014
20
2666.0592999739
30
0.000301495998872048
11
-4524.62024249088
21
2666.57693810204
31
0.000302063889100684
  0
LINE
 8
GROUP0
10
-4528.35229385515
20
2667.57693602443
30
0.000298162625370524
11
-4528.55209443161
21
2667.09457400341
31
0.000297457113520355
  0
LINE
 8
GROUP0
10
-4524.88819224001
20
2667.57693795287
30
0.000302644017426207
11
-4525.2060297158
21
2667.9911513383
31
0.000302616720816873
  0
LINE
 8
GROUP0
10
-4527.13788165654
20
2668.50878835306
30
0.00030059727809626
11
-4527.62024345509
21
2668.30898723952
31
0.000299788094107983
  0
LINE
 8
GROUP0
10
-4524.88819112662
20
2665.57693795288
30
0.000300790486930935
11
-4524.68839055014
21
2666.0592999739
31
0.000301495998872048
  0
LINE
 8
GROUP0
10
-4527.13787950563
20
2664.64508504791
30
0.000297016532261984
11
-4526.6202413775
21
2664.57693698866
31
0.000297623025746402
  0
LINE
 8
GROUP0
10
-3994.03448487901
20
2665.16283201962
30
0.00099001273522718
11
-3993.62027113998
21
2664.84499500525
31
0.000990254028895876
  0
LINE
 8
GROUP0
10
-4528.55209385529
20
2666.059297823
30
0.000296497655486561
11
-4528.35229274175
21
2665.57693602443
31
0.000296309094966196
  0
LINE
 8
GROUP0
10
-3994.62027210354
20
2666.57704525487
30
0.000990565566853835
11
-3994.55212346798
21
2666.05940720297
31
0.000990173999138211
  0
LINE
 8
GROUP0
10
-4528.35229274175
20
2665.57693602443
30
0.000296309094966196
11
-4528.03445526596
21
2665.162722639
31
0.000296336391665064
  0
LINE
 8
GROUP0
10
-4526.10260332521
20
2664.64508562425
30
0.000298355834296143
11
-4525.62024152668
21
2664.84488673778
31
0.000299165018193476
  0
LINE
 8
GROUP0
10
-3994.55212346798
20
2666.05940720297
30
0.000990173999138211
11
-3994.35232235456
21
2665.57704540475
31
0.000989985438617846
  0
LINE
 8
GROUP0
10
-3994.35232235456
20
2665.57704540475
30
0.000989985438617846
11
-3994.03448487901
21
2665.16283201962
31
0.00099001273522718
  0
LINE
 8
GROUP0
10
-4525.62024152668
20
2664.84488673778
30
0.000299165018193476
11
-4525.20602814123
21
2665.16272421357
31
0.000299995432926858
  0
LINE
 8
GROUP0
10
-4527.62024152664
20
2664.8448856244
30
0.000296577685244226
11
-4527.13787950563
21
2664.64508504791
31
0.000297016532261984
  0
LINE
 8
GROUP0
10
-4528.03445526596
20
2665.162722639
30
0.000296336391665064
11
-4527.62024152664
21
2664.8448856244
31
0.000296577685244226
  0
LINE
 8
GROUP0
10
-3994.35232346801
20
2667.57704540333
30
0.000991838969022174
11
-3994.55212404434
21
2667.09468338265
31
0.000991133457082471
  0
LINE
 8
GROUP0
10
-4526.6202413775
20
2664.57693698866
30
0.000297623025746402
11
-4526.10260332521
21
2664.64508562425
31
0.000298355834296143
  0
LINE
 8
GROUP0
10
-3994.03448645365
20
2667.99125914236
30
0.000992634023026251
11
-3994.35232346801
21
2667.57704540333
31
0.000991838969022174
  0
LINE
 8
GROUP0
10
-3994.55212404434
20
2667.09468338265
30
0.000991133457082471
11
-3994.62027210354
21
2666.57704525487
31
0.000990565566853835
  0
LINE
 8
GROUP0
10
-3993.62027306851
20
2668.30909661793
30
0.00099346443766869
11
-3994.03448645365
21
2667.99125914236
31
0.000992634023026251
  0
LINE
 8
GROUP0
10
-3993.62027113998
20
2664.84499500525
30
0.000990254028895876
11
-3993.13790911929
21
2664.64519442892
31
0.00099069287591293
  0
LINE
 8
GROUP0
10
-3990.88822185531
20
2667.57704733187
30
0.000996320360984798
11
-3991.2060593309
21
2667.991260717
31
0.000996293064376169
  0
LINE
 8
GROUP0
10
-3990.88822074187
20
2665.57704733328
30
0.000994466830489527
11
-3990.68842016556
21
2666.05940935397
31
0.000995172342430639
  0
LINE
 8
GROUP0
10
-3990.68842074192
20
2667.09468553365
30
0.000996131800374195
11
-3990.88822185531
21
2667.57704733187
31
0.000996320360984798
  0
LINE
 8
GROUP0
10
-3991.62027306993
20
2668.30909773137
30
0.00099605177061653
11
-3992.10263509061
21
2668.5088983077
31
0.000995612923689715
  0
LINE
 8
GROUP0
10
-3992.10263509061
20
2668.5088983077
30
0.000995612923689715
11
-3992.62027321839
21
2668.57704636689
31
0.000995006430206002
  0
LINE
 8
GROUP0
10
-3990.62027210636
20
2666.57704748175
30
0.000995740232659276
11
-3990.68842074192
21
2667.09468553365
31
0.000996131800374195
  0
LINE
 8
GROUP0
10
-3990.68842016556
20
2666.05940935397
30
0.000995172342430639
11
-3990.62027210636
21
2666.57704748175
31
0.000995740232659276
  0
LINE
 8
GROUP0
10
-3992.10263293961
20
2664.64519500528
30
0.000992032177856145
11
-3991.6202711414
21
2664.84499611868
31
0.000992841361843011
  0
LINE
 8
GROUP0
10
-3992.62027321839
20
2668.57704636689
30
0.000995006430206002
11
-3993.13791127029
21
2668.50889773134
31
0.000994273621656966
  0
LINE
 8
GROUP0
10
-3993.13791127029
20
2668.50889773134
30
0.000994273621656966
11
-3993.62027306851
21
2668.30909661793
31
0.00099346443766869
  0
LINE
 8
GROUP0
10
-3991.20605775626
20
2665.16283359426
30
0.00099367177648545
11
-3990.88822074187
21
2665.57704733328
31
0.000994466830489527
  0
LINE
 8
GROUP0
10
-3991.2060593309
20
2667.991260717
30
0.000996293064376169
11
-3991.62027306993
21
2668.30909773137
31
0.00099605177061653
  0
LINE
 8
GROUP0
10
-3991.6202711414
20
2664.84499611868
30
0.000992841361843011
11
-3991.20605775626
21
2665.16283359426
31
0.00099367177648545
  0
LINE
 8
GROUP0
10
-3992.62027099151
20
2664.57704636972
30
0.000991299369306403
11
-3992.10263293961
21
2664.64519500528
31
0.000992032177856145
  0
LINE
 8
GROUP0
10
-3993.13790911929
20
2664.64519442892
30
0.00099069287591293
11
-3992.62027099151
21
2664.57704636972
31
0.000991299369306403
  0
LINE
 8
GROUP0
10
-4528.0346503315
20
2365.99107975964
30
1.90740543731582e-005
11
-4528.3524873452
21
2365.57686601963
31
1.82790003697864e-005
  0
LINE
 8
GROUP0
10
-4525.62043501077
20
2362.84481673895
30
1.92813932011981e-005
11
-4525.20622162603
21
2363.16265421564
31
2.01118081136487e-005
  0
LINE
 8
GROUP0
10
-4526.62043486101
20
2362.57686698765
30
1.77394007541243e-005
11
-4526.1027968089
21
2362.64501562436
31
1.84722095738776e-005
  0
LINE
 8
GROUP0
10
-4527.62043694675
20
2366.30891723632
30
1.99044691051309e-005
11
-4528.0346503315
21
2365.99107975964
31
1.90740543731582e-005
  0
LINE
 8
GROUP0
10
-4526.62043709652
20
2366.57686698763
30
2.14464615522048e-005
11
-4527.13807514864
21
2366.50871835091
31
2.07136530024632e-005
  0
LINE
 8
GROUP0
10
-4526.10279896823
20
2366.5087189295
30
2.20529550359172e-005
11
-4526.62043709652
21
2366.57686698763
31
2.14464615522048e-005
  0
LINE
 8
GROUP0
10
-4525.20622320677
20
2365.99108134037
30
2.27330957251914e-005
11
-4525.62043694678
21
2366.30891835408
31
2.24918020550857e-005
  0
LINE
 8
GROUP0
10
-4524.62043597878
20
2364.57686810539
30
2.21802640125279e-005
11
-4524.68858461549
21
2365.09450615751
31
2.2571831816276e-005
  0
LINE
 8
GROUP0
10
-4524.6885840369
20
2364.0592299771
30
2.16123738755403e-005
11
-4524.62043597878
21
2364.57686810539
31
2.21802640125279e-005
  0
LINE
 8
GROUP0
10
-4524.88838461233
20
2363.57686795564
30
2.09068619365427e-005
11
-4524.6885840369
21
2364.0592299771
31
2.16123738755403e-005
  0
LINE
 8
GROUP0
10
-4524.88838573008
20
2365.57686795564
30
2.27603924254693e-005
11
-4525.20622320677
21
2365.99108134037
31
2.27330957251914e-005
  0
LINE
 8
GROUP0
10
-4525.20622162603
20
2363.16265421564
30
2.01118081136487e-005
11
-4524.88838461233
21
2363.57686795564
31
2.09068619365427e-005
  0
LINE
 8
GROUP0
10
-4526.1027968089
20
2362.64501562436
30
1.84722095738776e-005
11
-4525.62043501077
21
2362.84481673895
31
1.92813932011981e-005
  0
LINE
 8
GROUP0
10
-4524.68858461549
20
2365.09450615751
30
2.2571831816276e-005
11
-4524.88838573008
21
2365.57686795564
31
2.27603924254693e-005
  0
LINE
 8
GROUP0
10
-4527.13807514864
20
2366.50871835091
30
2.07136530024632e-005
11
-4527.62043694675
21
2366.30891723632
31
1.99044691051309e-005
  0
LINE
 8
GROUP0
10
-4525.62043694678
20
2366.30891835408
30
2.24918020550857e-005
11
-4526.10279896823
21
2366.5087189295
31
2.20529550359172e-005
  0
LINE
 8
GROUP0
10
-3993.62091655307
20
2366.30902844087
30
0.000713580232218036
11
-3994.03513051223
21
2365.9911917163
31
0.000712749817549513
  0
LINE
 8
GROUP0
10
-3992.10327821861
20
2366.50882738232
30
0.000715728716142416
11
-3992.62091622124
21
2366.57697637845
31
0.000715122223649922
  0
LINE
 8
GROUP0
10
-4528.3524873452
20
2365.57686601963
30
1.82790003697864e-005
11
-4528.55228792063
21
2365.09450399818
31
1.75734884307888e-005
  0
LINE
 8
GROUP0
10
-3991.62091656129
20
2366.30902593337
30
0.000716167561763586
11
-3992.10327821861
21
2366.50882738232
31
0.000715728716142416
  0
LINE
 8
GROUP0
10
-3994.03513051223
20
2365.9911917163
30
0.000712749817549513
11
-3994.35296827544
21
2365.57697855411
31
0.000711954763015282
  0
LINE
 8
GROUP0
10
-4527.1380729893
20
2362.64501504577
30
1.71329075404236e-005
11
-4526.62043486101
21
2362.57686698765
31
1.77394007541243e-005
  0
LINE
 8
GROUP0
10
-4527.62043501076
20
2362.8448156212
30
1.66940602519483e-005
11
-4527.1380729893
21
2362.64501504577
31
1.71329075404236e-005
  0
LINE
 8
GROUP0
10
-4528.55228792063
20
2365.09450399818
30
1.75734884307888e-005
11
-4528.62043597875
21
2364.57686586989
31
1.70055982035622e-005
  0
LINE
 8
GROUP0
10
-4528.35248622745
20
2363.57686601964
30
1.64254698801547e-005
11
-4528.03464875076
21
2363.1626526349
31
1.64527668518544e-005
  0
LINE
 8
GROUP0
10
-4528.03464875076
20
2363.1626526349
30
1.64527668518544e-005
11
-4527.62043501076
21
2362.8448156212
31
1.66940602519483e-005
  0
LINE
 8
GROUP0
10
-4528.62043597875
20
2364.57686586989
30
1.70055982035622e-005
11
-4528.55228734204
21
2364.05922781777
31
1.66140304900531e-005
  0
LINE
 8
GROUP0
10
-3994.35296827544
20
2365.57697855411
30
0.000711954763015282
11
-3994.55276972438
21
2365.0946168968
31
0.000711249250287399
  0
LINE
 8
GROUP0
10
-3994.55276972438
20
2365.0946168968
30
0.000711249250287399
11
-3994.62091872051
21
2364.57697889416
31
0.00071068135900198
  0
LINE
 8
GROUP0
10
-4528.55228734204
20
2364.05922781777
30
1.66140304900531e-005
11
-4528.35248622745
21
2363.57686601964
31
1.64254698801547e-005
  0
LINE
 8
GROUP0
10
-3993.13855439476
20
2366.50882868029
30
0.000714389415766398
11
-3993.62091655307
21
2366.30902844087
31
0.000713580232218036
  0
LINE
 8
GROUP0
10
-3992.62091622124
20
2366.57697637845
30
0.000715122223649922
11
-3993.13855439476
21
2366.50882868029
31
0.000714389415766398
  0
LINE
 8
GROUP0
10
-3990.88886918202
20
2363.57697421922
30
0.000714582614081188
11
-3990.68906773308
21
2364.05933587654
31
0.000715288126808367
  0
LINE
 8
GROUP0
10
-3990.68906643511
20
2365.09461205269
30
0.000716247587141139
11
-3990.88886667454
21
2365.576974211
31
0.00071643614918358
  0
LINE
 8
GROUP0
10
-3991.6209209044
20
2362.84492433247
30
0.000712957144788196
11
-3991.20670694524
21
2363.16276105704
31
0.000713787559817675
  0
LINE
 8
GROUP0
10
-3990.62091873695
20
2364.57697387917
30
0.000715856018004252
11
-3990.68906643511
21
2365.09461205269
31
0.000716247587141139
  0
LINE
 8
GROUP0
10
-3993.62092089618
20
2362.84492683996
30
0.000710369815332179
11
-3993.13855923887
21
2362.64512539102
31
0.000710808661224771
  0
LINE
 8
GROUP0
10
-3991.20670694524
20
2363.16276105704
30
0.000713787559817675
11
-3990.88886918202
21
2363.57697421922
31
0.000714582614081188
  0
LINE
 8
GROUP0
10
-3992.10328306271
20
2362.64512409304
30
0.00071214796160079
11
-3991.6209209044
21
2362.84492433247
31
0.000712957144788196
  0
LINE
 8
GROUP0
10
-3990.88886667454
20
2365.576974211
30
0.00071643614918358
11
-3991.20670339911
21
2365.99118817016
31
0.000716408854027234
  0
LINE
 8
GROUP0
10
-3992.62092123623
20
2362.57697639489
30
0.000711415153445843
11
-3992.10328306271
21
2362.64512409304
31
0.00071214796160079
  0
LINE
 8
GROUP0
10
-3994.03513405836
20
2363.16276460317
30
0.000710128523339953
11
-3993.62092089618
21
2362.84492683996
31
0.000710369815332179
  0
LINE
 8
GROUP0
10
-3990.68906773308
20
2364.05933587654
30
0.000715288126808367
11
-3990.62091873695
21
2364.57697387917
31
0.000715856018004252
  0
LINE
 8
GROUP0
10
-3994.55277102236
20
2364.05934072064
30
0.000710289789956037
11
-3994.35297078293
21
2363.57697856233
31
0.00071010122791289
  0
LINE
 8
GROUP0
10
-3993.13855923887
20
2362.64512539102
30
0.000710808661224771
11
-3992.62092123623
21
2362.57697639489
31
0.000711415153445843
  0
LINE
 8
GROUP0
10
-3994.35297078293
20
2363.57697856233
30
0.00071010122791289
11
-3994.03513405836
21
2363.16276460317
31
0.000710128523339953
  0
LINE
 8
GROUP0
10
-3991.20670339911
20
2365.99118817016
30
0.000716408854027234
11
-3991.62091656129
21
2366.30902593337
31
0.000716167561763586
  0
LINE
 8
GROUP0
10
-3994.62091872051
20
2364.57697889416
30
0.00071068135900198
11
-3994.55277102236
21
2364.05934072064
31
0.000710289789956037
  0
LINE
 8
GROUP0
10
-4457.12046718406
20
2340.07687635714
30
8.67969167341498e-005
11
-4457.18861582076
21
2340.5945144092
31
8.71884844476589e-005
  0
LINE
 8
GROUP0
10
-4457.18861582076
20
2340.5945144092
30
8.71884844476589e-005
11
-4457.38841693533
21
2341.07687620728
31
8.73770450568523e-005
  0
LINE
 8
GROUP0
10
-4457.70625283126
20
2338.66266246755
30
8.4728460293837e-005
11
-4457.3884158176
21
2339.0768762075
31
8.55235142972088e-005
  0
LINE
 8
GROUP0
10
-4457.3884158176
20
2339.0768762075
30
8.55235142972088e-005
11
-4457.18861524218
21
2339.5592382289
31
8.62290265069232e-005
  0
LINE
 8
GROUP0
10
-4460.5346799557
20
2338.66266088684
30
8.10694190320427e-005
11
-4460.12046621574
21
2338.34482387317
31
8.13107127028534e-005
  0
LINE
 8
GROUP0
10
-4458.60283017334
20
2342.00872718107
30
8.66696074875273e-005
11
-4459.12046830156
21
2342.0768752392
31
8.60631140038148e-005
  0
LINE
 8
GROUP0
10
-4457.70625441196
20
2341.49108959199
30
8.73497481760965e-005
11
-4458.12046815193
21
2341.80892660566
31
8.71084544150469e-005
  0
LINE
 8
GROUP0
10
-4457.18861524218
20
2339.5592382289
30
8.62290265069232e-005
11
-4457.12046718406
21
2340.07687635714
31
8.67969167341498e-005
  0
LINE
 8
GROUP0
10
-4459.12046830156
20
2342.0768752392
30
8.60631140038148e-005
11
-4459.63810635363
21
2342.0087266025
31
8.53303054533683e-005
  0
LINE
 8
GROUP0
10
-4458.12046815193
20
2341.80892660566
30
8.71084544150469e-005
11
-4458.60283017334
21
2342.00872718107
31
8.66696074875273e-005
  0
LINE
 8
GROUP0
10
-4457.38841693533
20
2341.07687620728
30
8.73770450568523e-005
11
-4457.70625441196
21
2341.49108959199
31
8.73497481760965e-005
  0
LINE
 8
GROUP0
10
-4458.60282801405
20
2338.14502387633
30
8.3088861664532e-005
11
-4458.12046621596
21
2338.34482499089
31
8.38980456513982e-005
  0
LINE
 8
GROUP0
10
-4459.1204660661
20
2338.07687523963
30
8.23560531147904e-005
11
-4458.60282801405
21
2338.14502387633
31
8.3088861664532e-005
  0
LINE
 8
GROUP0
10
-4458.12046621596
20
2338.34482499089
30
8.38980456513982e-005
11
-4457.70625283126
21
2338.66266246755
31
8.4728460293837e-005
  0
LINE
 8
GROUP0
10
-4459.63810419435
20
2338.14502329776
30
8.17495597213169e-005
11
-4459.1204660661
21
2338.07687523963
31
8.23560531147904e-005
  0
LINE
 8
GROUP0
10
-4460.12046621574
20
2338.34482387317
30
8.13107127028534e-005
11
-4459.63810419435
21
2338.14502329776
31
8.17495597213169e-005
  0
LINE
 8
GROUP0
10
-4059.12096699156
20
2341.80834761407
30
0.000606138652548999
11
-4059.6033286365
21
2342.00814909235
31
0.000605699806854509
  0
LINE
 8
GROUP0
10
-4058.18911693981
20
2340.59393367704
30
0.000606218677917386
11
-4058.38891714973
21
2341.07629584734
31
0.000606407240089546
  0
LINE
 8
GROUP0
10
-4058.12096927325
20
2340.07629549957
30
0.000605827108828438
11
-4058.18911693981
21
2340.59393367704
31
0.000606218677917386
  0
LINE
 8
GROUP0
10
-4461.12046718362
20
2340.07687412169
30
8.1622250925184e-005
11
-4461.05231854692
21
2339.55923606963
31
8.12306832123799e-005
  0
LINE
 8
GROUP0
10
-4461.05231854692
20
2339.55923606963
30
8.12306832123799e-005
11
-4460.85251743236
21
2339.07687427155
31
8.10421224220037e-005
  0
LINE
 8
GROUP0
10
-4460.85251743236
20
2339.07687427155
30
8.10421224220037e-005
11
-4460.5346799557
21
2338.66266088684
31
8.10694190320427e-005
  0
LINE
 8
GROUP0
10
-4460.12046815171
20
2341.80892548793
30
8.4521121466502e-005
11
-4460.53468153641
21
2341.49108801128
31
8.36907068247683e-005
  0
LINE
 8
GROUP0
10
-4060.63860481224
20
2342.00815045346
30
0.000604360506659673
11
-4061.12096698253
21
2341.80835024353
31
0.000603551323096507
  0
LINE
 8
GROUP0
10
-4460.53468153641
20
2341.49108801128
30
8.36907068247683e-005
11
-4460.85251855009
21
2341.07687427133
31
8.28956530018743e-005
  0
LINE
 8
GROUP0
10
-4461.0523191255
20
2340.59451224992
30
8.21901411531156e-005
11
-4461.12046718362
21
2340.07687412169
31
8.1622250925184e-005
  0
LINE
 8
GROUP0
10
-4059.6033286365
20
2342.00814909235
30
0.000605699806854509
11
-4060.12096663478
21
2342.07629812002
31
0.00060509331436836
  0
LINE
 8
GROUP0
10
-4460.85251855009
20
2341.07687427133
30
8.28956530018743e-005
11
-4461.0523191255
21
2340.59451224992
31
8.21901411531156e-005
  0
LINE
 8
GROUP0
10
-4459.63810635363
20
2342.0087266025
30
8.53303054533683e-005
11
-4460.12046815171
21
2341.80892548793
31
8.4521121466502e-005
  0
LINE
 8
GROUP0
10
-4058.70675384892
20
2341.49050982572
30
0.000606379944696322
11
-4059.12096699156
21
2341.80834761407
31
0.000606138652548999
  0
LINE
 8
GROUP0
10
-4058.38891714973
20
2341.07629584734
30
0.000606407240089546
11
-4058.70675384892
21
2341.49050982572
31
0.000606379944696322
  0
LINE
 8
GROUP0
10
-4060.12096663478
20
2342.07629812002
30
0.00060509331436836
11
-4060.63860481224
21
2342.00815045346
31
0.000604360506659673
  0
LINE
 8
GROUP0
10
-4059.12097154593
20
2338.34424601454
30
0.000602928235294431
11
-4058.70675756755
21
2338.66208271372
31
0.000603758650077868
  0
LINE
 8
GROUP0
10
-4061.12096698253
20
2341.80835024353
30
0.000603551323096507
11
-4061.53518096092
21
2341.49051354435
31
0.000602720908312365
  0
LINE
 8
GROUP0
10
-4058.18911830092
20
2339.55865750129
30
0.000605259217501425
11
-4058.12096927325
21
2340.07629549957
31
0.000605827108828438
  0
LINE
 8
GROUP0
10
-4061.12097153691
20
2338.344248644
30
0.000600340905841234
11
-4060.63860989198
21
2338.14444716572
31
0.000600779751536429
  0
LINE
 8
GROUP0
10
-4059.60333371623
20
2338.14444580461
30
0.000602119051729855
11
-4059.12097154593
21
2338.34424601454
31
0.000602928235294431
  0
LINE
 8
GROUP0
10
-4060.12097189369
20
2338.07629813805
30
0.000601386243931634
11
-4059.60333371623
21
2338.14444580461
31
0.000602119051729855
  0
LINE
 8
GROUP0
10
-4060.63860989198
20
2338.14444716572
30
0.000600779751536429
11
-4060.12097189369
21
2338.07629813805
31
0.000601386243931634
  0
LINE
 8
GROUP0
10
-4061.85302137873
20
2339.07630041072
30
0.000600072318572109
11
-4061.53518467954
21
2338.66208643235
31
0.000600099613604377
  0
LINE
 8
GROUP0
10
-4062.12096925522
20
2340.0763007585
30
0.000600652450012989
11
-4062.05282158866
21
2339.55866258103
31
0.000600260880924747
  0
LINE
 8
GROUP0
10
-4062.05282022754
20
2340.59393875678
30
0.000601220341340003
11
-4062.12096925522
21
2340.0763007585
31
0.000600652450012989
  0
LINE
 8
GROUP0
10
-4061.53518467954
20
2338.66208643235
30
0.000600099613604377
11
-4061.12097153691
21
2338.344248644
31
0.000600340905841234
  0
LINE
 8
GROUP0
10
-4058.38891977921
20
2339.07629585636
30
0.000604553704554994
11
-4058.18911830092
21
2339.55865750129
31
0.000605259217501425
  0
LINE
 8
GROUP0
10
-4061.85301874925
20
2341.07630040171
30
0.000601925854105956
11
-4062.05282022754
21
2340.59393875678
31
0.000601220341340003
  0
LINE
 8
GROUP0
10
-4058.70675756755
20
2338.66208271372
30
0.000603758650077868
11
-4058.38891977921
21
2339.07629585636
31
0.000604553704554994
  0
LINE
 8
GROUP0
10
-4062.05282158866
20
2339.55866258103
30
0.000600260880924747
11
-4061.85302137873
21
2339.07630041072
31
0.000600072318572109
  0
LINE
 8
GROUP0
10
-4061.53518096092
20
2341.49051354435
30
0.000602720908312365
11
-4061.85301874925
21
2341.07630040171
31
0.000601925854105956
  0
LINE
 8
GROUP0
10
-4090.20625575798
20
2443.66214174913
30
0.000660319299076167
11
-4089.88841797979
21
2444.07635490251
31
0.000661114353629433
  0
LINE
 8
GROUP0
10
-4089.88841540624
20
2446.07635490251
30
0.000662967888819244
11
-4090.20625211844
21
2446.49056887387
31
0.000662940593679817
  0
LINE
 8
GROUP0
10
-4090.62046527182
20
2446.80840665206
30
0.000662699301519098
11
-4091.10282692452
21
2447.00820811776
31
0.000662260455903568
  0
LINE
 8
GROUP0
10
-4089.68861518192
20
2445.59399273562
30
0.000662779326757062
11
-4089.88841540624
21
2446.07635490251
31
0.000662967888819244
  0
LINE
 8
GROUP0
10
-4091.10282692452
20
2447.00820811776
30
0.000662260455903568
11
-4091.62046492703
21
2447.07635713127
31
0.000661653963411779
  0
LINE
 8
GROUP0
10
-4089.68861651409
20
2444.55871655521
30
0.000661819866379171
11
-4089.62046750059
21
2445.07635455772
31
0.000662387757688559
  0
LINE
 8
GROUP0
10
-4090.62046972934
20
2443.34430503693
30
0.000659488884391429
11
-4090.20625575798
21
2443.66214174913
31
0.000660319299076167
  0
LINE
 8
GROUP0
10
-4091.10283189623
20
2443.14450481261
30
0.000658679700831788
11
-4090.62046972934
21
2443.34430503693
31
0.000659488884391429
  0
LINE
 8
GROUP0
10
-4091.62047007413
20
2443.07635713128
30
0.000657946893032862
11
-4091.10283189623
21
2443.14450481261
31
0.000658679700831788
  0
LINE
 8
GROUP0
10
-4092.13810807664
20
2443.14450614478
30
0.000657340400541073
11
-4091.62047007413
21
2443.07635713128
31
0.000657946893032862
  0
LINE
 8
GROUP0
10
-4090.20625211844
20
2446.49056887387
30
0.000662940593679817
11
-4090.62046527182
21
2446.80840665206
31
0.000662699301519098
  0
LINE
 8
GROUP0
10
-4089.88841797979
20
2444.07635490251
30
0.000661114353629433
11
-4089.68861651409
21
2444.55871655521
31
0.000661819866379171
  0
LINE
 8
GROUP0
10
-4092.62046972933
20
2443.34430761048
30
0.000656901554925543
11
-4092.13810807664
21
2443.14450614478
31
0.000657340400541073
  0
LINE
 8
GROUP0
10
-4089.62046750059
20
2445.07635455772
30
0.000662387757688559
11
-4089.68861518192
21
2445.59399273562
31
0.000662779326757062
  0
LINE
 8
GROUP0
10
-4117.13810310485
20
2447.00827096404
30
0.000628579564303849
11
-4117.62046527174
21
2446.80847073973
31
0.000627770380744208
  0
LINE
 8
GROUP0
10
-4093.55231981924
20
2444.55872152693
30
0.00065682152959734
11
-4093.35251959491
21
2444.07635936004
31
0.000656632967535159
  0
LINE
 8
GROUP0
10
-4093.35251959491
20
2444.07635936004
30
0.000656632967535159
11
-4093.03468288272
21
2443.66214538868
31
0.000656660262674585
  0
LINE
 8
GROUP0
10
-4118.35251959483
20
2444.07642087419
30
0.000624291376317099
11
-4118.03468288264
21
2443.66220690284
31
0.000624318671456525
  0
LINE
 8
GROUP0
10
-4118.55231981914
20
2444.55878304108
30
0.000624479938379985
11
-4118.35251959483
21
2444.07642087419
31
0.000624291376317099
  0
LINE
 8
GROUP0
10
-4118.35251702128
20
2446.07642087416
30
0.000626144911506205
11
-4118.55231848697
21
2445.59405922147
31
0.000625439398756467
  0
LINE
 8
GROUP0
10
-4118.0346792431
20
2446.49063402754
30
0.000626939966060175
11
-4118.35251702128
21
2446.07642087416
31
0.000626144911506205
  0
LINE
 8
GROUP0
10
-4093.35251702136
20
2446.07635936003
30
0.00065848650272497
11
-4093.55231848707
21
2445.59399770734
31
0.000657780990064766
  0
LINE
 8
GROUP0
10
-4117.62046527174
20
2446.80847073973
30
0.000627770380744208
11
-4118.0346792431
21
2446.49063402754
31
0.000626939966060175
  0
LINE
 8
GROUP0
10
-4118.55231848697
20
2445.59405922147
30
0.000625439398756467
11
-4118.62046750048
21
2445.07642121897
31
0.000624871507538727
  0
LINE
 8
GROUP0
10
-4118.62046750048
20
2445.07642121897
30
0.000624871507538727
11
-4118.55231981914
21
2444.55878304108
31
0.000624479938379985
  0
LINE
 8
GROUP0
10
-4116.62046492696
20
2447.07641864538
30
0.00062931237210348
11
-4117.13810310485
21
2447.00827096404
31
0.000628579564303849
  0
LINE
 8
GROUP0
10
-4093.62046750057
20
2445.07635970483
30
0.000657213098756082
11
-4093.55231981924
21
2444.55872152693
31
0.00065682152959734
  0
LINE
 8
GROUP0
10
-4116.10282692446
20
2447.00826963188
30
0.000629918864595269
11
-4116.62046492696
21
2447.07641864538
31
0.00062931237210348
  0
LINE
 8
GROUP0
10
-4093.03468288272
20
2443.66214538868
30
0.000656660262674585
11
-4092.62046972933
21
2443.34430761048
31
0.000656901554925543
  0
LINE
 8
GROUP0
10
-4093.55231848707
20
2445.59399770734
30
0.000657780990064766
11
-4093.62046750057
21
2445.07635970483
31
0.000657213098756082
  0
LINE
 8
GROUP0
10
-4114.68861651406
20
2444.55877806936
30
0.000629478275070872
11
-4114.62046750055
21
2445.07641607187
31
0.000630046166469794
  0
LINE
 8
GROUP0
10
-4118.55231981912
20
2419.5587830411
30
0.000601310790639059
11
-4118.35251959479
21
2419.07642087421
31
0.000601122228215217
  0
LINE
 8
GROUP0
10
-4115.20625575794
20
2443.66220326329
30
0.000627977707857402
11
-4114.88841797975
21
2444.07641641667
31
0.000628772762502316
  0
LINE
 8
GROUP0
10
-4116.10283189617
20
2443.14456632679
30
0.000626338109613728
11
-4115.62046972928
21
2443.3443665511
31
0.00062714729308313
  0
LINE
 8
GROUP0
10
-4115.62046527177
20
2446.80846816618
30
0.000630357710210094
11
-4116.10282692446
21
2447.00826963188
31
0.000629918864595269
  0
LINE
 8
GROUP0
10
-4114.68861518189
20
2445.59405424975
30
0.000630437735539002
11
-4114.8884154062
21
2446.07641641664
31
0.000630626297601888
  0
LINE
 8
GROUP0
10
-4116.62047007407
20
2443.07641864545
30
0.000625605301814097
11
-4116.10283189617
21
2443.14456632679
31
0.000626338109613728
  0
LINE
 8
GROUP0
10
-4117.13810807656
20
2443.14456765896
30
0.000624998809323013
11
-4116.62047007407
21
2443.07641864545
31
0.000625605301814097
  0
LINE
 8
GROUP0
10
-4114.88841797975
20
2444.07641641667
30
0.000628772762502316
11
-4114.68861651406
21
2444.55877806936
31
0.000629478275070872
  0
LINE
 8
GROUP0
10
-4117.62046972925
20
2443.34436912465
30
0.000624559963708188
11
-4117.13810807656
21
2443.14456765896
31
0.000624998809323013
  0
LINE
 8
GROUP0
10
-4115.62046972928
20
2443.3443665511
30
0.00062714729308313
11
-4115.20625575794
21
2443.66220326329
31
0.000627977707857402
  0
LINE
 8
GROUP0
10
-4114.8884154062
20
2446.07641641664
30
0.000630626297601888
11
-4115.20625211839
21
2446.49063038799
31
0.000630599002461052
  0
LINE
 8
GROUP0
10
-4115.20625211839
20
2446.49063038799
30
0.000630599002461052
11
-4115.62046527177
21
2446.80846816618
31
0.000630357710210094
  0
LINE
 8
GROUP0
10
-4114.62046750055
20
2445.07641607187
30
0.000630046166469794
11
-4114.68861518189
21
2445.59405424975
31
0.000630437735539002
  0
LINE
 8
GROUP0
10
-4118.03468288264
20
2443.66220690284
30
0.000624318671456525
11
-4117.62046972925
21
2443.34436912465
31
0.000624559963708188
  0
LINE
 8
GROUP0
10
-4118.35251959479
20
2419.07642087421
30
0.000601122228215217
11
-4118.03468288261
21
2418.66220690286
31
0.000601149523264405
  0
LINE
 8
GROUP0
10
-4118.62046750044
20
2420.07642121898
30
0.000601702359617323
11
-4118.55231981912
21
2419.5587830411
31
0.000601310790639059
  0
LINE
 8
GROUP0
10
-4116.62046492693
20
2422.07641864539
30
0.000606143224091837
11
-4117.13810310482
21
2422.00827096406
31
0.000605410416201968
  0
LINE
 8
GROUP0
10
-4117.13810310482
20
2422.00827096406
30
0.000605410416201968
11
-4117.6204652717
21
2421.80847073974
31
0.000604601232643032
  0
LINE
 8
GROUP0
10
-4118.55231848694
20
2420.59405922149
30
0.000602270251015541
11
-4118.62046750044
21
2420.07642121898
31
0.000601702359617323
  0
LINE
 8
GROUP0
10
-4116.10282692442
20
2422.00826963189
30
0.000606749716493388
11
-4116.62046492693
21
2422.07641864539
31
0.000606143224091837
  0
LINE
 8
GROUP0
10
-4118.03467924306
20
2421.49063402755
30
0.000603770817868759
11
-4118.35251702124
21
2421.07642087417
31
0.00060297576367504
  0
LINE
 8
GROUP0
10
-4115.62046527174
20
2421.80846816619
30
0.000607188562198452
11
-4116.10282692442
21
2422.00826963189
31
0.000606749716493388
  0
LINE
 8
GROUP0
10
-4114.68861518186
20
2420.59405424977
30
0.000607268587707838
11
-4114.88841540617
21
2421.07641641665
31
0.000607457149770724
  0
LINE
 8
GROUP0
10
-4114.88841540617
20
2421.07641641665
30
0.000607457149770724
11
-4115.20625211836
21
2421.490630388
31
0.000607429854359875
  0
LINE
 8
GROUP0
10
-4114.62046750052
20
2420.07641607188
30
0.00060687701863863
11
-4114.68861518186
21
2420.59405424977
31
0.000607268587707838
  0
LINE
 8
GROUP0
10
-4114.68861651402
20
2419.55877806938
30
0.000606309127330651
11
-4114.62046750052
21
2420.07641607188
31
0.00060687701863863
  0
LINE
 8
GROUP0
10
-4115.20625211836
20
2421.490630388
30
0.000607429854359875
11
-4115.62046527174
21
2421.80846816619
31
0.000607188562198452
  0
LINE
 8
GROUP0
10
-4118.35251702124
20
2421.07642087417
30
0.00060297576367504
11
-4118.55231848694
21
2420.59405922149
31
0.000602270251015541
  0
LINE
 8
GROUP0
10
-4114.88841797972
20
2419.07641641669
30
0.000605603614310196
11
-4114.68861651402
21
2419.55877806938
31
0.000606309127330651
  0
LINE
 8
GROUP0
10
-4117.6204652717
20
2421.80847073974
30
0.000604601232643032
11
-4118.03467924306
21
2421.49063402755
31
0.000603770817868759
  0
LINE
 8
GROUP0
10
-4115.20625575791
20
2418.66220326331
30
0.000604808559755521
11
-4114.88841797972
21
2419.07641641669
31
0.000605603614310196
  0
LINE
 8
GROUP0
10
-4089.62046750055
20
2420.07635455774
30
0.000639218609857395
11
-4089.68861518188
21
2420.59399273563
31
0.000639610178925898
  0
LINE
 8
GROUP0
10
-4091.10282692448
20
2422.00820811778
30
0.000639091307711448
11
-4091.62046492699
21
2422.07635713129
31
0.000638484815219659
  0
LINE
 8
GROUP0
10
-4091.62046492699
20
2422.07635713129
30
0.000638484815219659
11
-4092.13810310489
21
2422.00820944995
31
0.000637752007510972
  0
LINE
 8
GROUP0
10
-4116.10283189614
20
2418.1445663268
30
0.000603168961511846
11
-4115.62046972925
21
2418.34436655112
31
0.000603978145071488
  0
LINE
 8
GROUP0
10
-4116.62047007403
20
2418.07641864547
30
0.000602436153712921
11
-4116.10283189614
21
2418.1445663268
31
0.000603168961511846
  0
LINE
 8
GROUP0
10
-4093.03467924314
20
2421.49057251344
30
0.000636112409176354
11
-4093.35251702133
21
2421.07635936005
31
0.000635317354893805
  0
LINE
 8
GROUP0
10
-4117.62046972922
20
2418.34436912467
30
0.000601390815516067
11
-4117.13810807653
21
2418.14456765897
31
0.000601829661221837
  0
LINE
 8
GROUP0
10
-4090.62046527178
20
2421.80840665208
30
0.000639530153417217
11
-4091.10282692448
21
2422.00820811778
31
0.000639091307711448
  0
LINE
 8
GROUP0
10
-4092.13810310489
20
2422.00820944995
30
0.000637752007510972
11
-4092.62046527178
21
2421.80840922563
31
0.000636942823861092
  0
LINE
 8
GROUP0
10
-4090.2062521184
20
2421.49056887388
30
0.000639771445668175
11
-4090.62046527178
21
2421.80840665208
31
0.000639530153417217
  0
LINE
 8
GROUP0
10
-4118.03468288261
20
2418.66220690286
30
0.000601149523264405
11
-4117.62046972922
21
2418.34436912467
31
0.000601390815516067
  0
LINE
 8
GROUP0
10
-4115.62046972925
20
2418.34436655112
30
0.000603978145071488
11
-4115.20625575791
21
2418.66220326331
31
0.000604808559755521
  0
LINE
 8
GROUP0
10
-4117.13810807653
20
2418.14456765897
30
0.000601829661221837
11
-4116.62047007403
21
2418.07641864547
31
0.000602436153712921
  0
LINE
 8
GROUP0
10
-4092.62046527178
20
2421.80840922563
30
0.000636942823861092
11
-4093.03467924314
21
2421.49057251344
31
0.000636112409176354
  0
LINE
 8
GROUP0
10
-4089.8884154062
20
2421.07635490252
30
0.000639798740988784
11
-4090.2062521184
21
2421.49056887388
31
0.000639771445668175
  0
LINE
 8
GROUP0
10
-4089.68861518188
20
2420.59399273563
30
0.000639610178925898
11
-4089.8884154062
21
2421.07635490252
31
0.000639798740988784
  0
LINE
 8
GROUP0
10
-4092.62046527174
20
2396.80840922565
30
0.000613773675850154
11
-4093.0346792431
21
2396.49057251345
31
0.000612943261075177
  0
LINE
 8
GROUP0
10
-4090.20625575795
20
2418.66214174914
30
0.000637150151064525
11
-4089.88841797975
21
2419.07635490253
31
0.000637945205618495
  0
LINE
 8
GROUP0
10
-4089.68861651405
20
2419.55871655522
30
0.000638650718458472
11
-4089.62046750055
21
2420.07635455774
31
0.000639218609857395
  0
LINE
 8
GROUP0
10
-4091.62047007409
20
2418.07635713129
30
0.000634777744840742
11
-4091.1028318962
21
2418.14450481263
31
0.000635510552729906
  0
LINE
 8
GROUP0
10
-4092.13810807661
20
2418.1445061448
30
0.000634171252529431
11
-4091.62047007409
21
2418.07635713129
31
0.000634777744840742
  0
LINE
 8
GROUP0
10
-4089.88841797975
20
2419.07635490253
30
0.000637945205618495
11
-4089.68861651405
21
2419.55871655522
31
0.000638650718458472
  0
LINE
 8
GROUP0
10
-4093.62046750054
20
2420.07635970484
30
0.000634043950925622
11
-4093.55231981921
21
2419.55872152695
31
0.00063365238176688
  0
LINE
 8
GROUP0
10
-4093.03468288269
20
2418.66214538869
30
0.000633491114572704
11
-4092.6204697293
21
2418.3443076105
31
0.000633732406824367
  0
LINE
 8
GROUP0
10
-4093.35251959489
20
2419.07635936005
30
0.000633463819433278
11
-4093.03468288269
21
2418.66214538869
31
0.000633491114572704
  0
LINE
 8
GROUP0
10
-4092.6204697293
20
2418.3443076105
30
0.000633732406824367
11
-4092.13810807661
21
2418.1445061448
31
0.000634171252529431
  0
LINE
 8
GROUP0
10
-4091.1028318962
20
2418.14450481263
30
0.000635510552729906
11
-4090.6204697293
21
2418.34430503695
31
0.000636319736289548
  0
LINE
 8
GROUP0
10
-4093.55231981921
20
2419.55872152695
30
0.00063365238176688
11
-4093.35251959489
21
2419.07635936005
31
0.000633463819433278
  0
LINE
 8
GROUP0
10
-4090.6204697293
20
2418.34430503695
30
0.000636319736289548
11
-4090.20625575795
21
2418.66214174914
31
0.000637150151064525
  0
LINE
 8
GROUP0
10
-4093.55231848704
20
2420.59399770735
30
0.000634611842143362
11
-4093.62046750054
21
2420.07635970484
31
0.000634043950925622
  0
LINE
 8
GROUP0
10
-4093.35251702133
20
2421.07635936005
30
0.000635317354893805
11
-4093.55231848704
21
2420.59399770735
31
0.000634611842143362
  0
LINE
 8
GROUP0
10
-4093.0346792431
20
2396.49057251345
30
0.000612943261075177
11
-4093.35251702129
21
2396.07635936006
31
0.000612148206611446
  0
LINE
 8
GROUP0
10
-4089.62046750052
20
2395.07635455775
30
0.000616049461484797
11
-4089.68861518185
21
2395.59399273565
31
0.0006164410305533
  0
LINE
 8
GROUP0
10
-4092.62046972927
20
2393.34430761051
30
0.000610563258722485
11
-4092.13810807657
21
2393.14450614481
31
0.000611002104338015
  0
LINE
 8
GROUP0
10
-4091.10283189617
20
2393.14450481264
30
0.000612341404628025
11
-4090.62046972927
21
2393.34430503696
31
0.000613150588187666
  0
LINE
 8
GROUP0
10
-4090.20625211836
20
2396.4905688739
30
0.000616602297476759
11
-4090.62046527175
21
2396.80840665209
31
0.000616361005225097
  0
LINE
 8
GROUP0
10
-4091.10282692445
20
2397.00820811779
30
0.000615922159699805
11
-4091.62046492696
21
2397.0763571313
31
0.000615315667208016
  0
LINE
 8
GROUP0
10
-4091.62046492696
20
2397.0763571313
30
0.000615315667208016
11
-4092.13810310485
21
2397.00820944996
31
0.000614582859318852
  0
LINE
 8
GROUP0
10
-4092.13810310485
20
2397.00820944996
30
0.000614582859318852
11
-4092.62046527174
21
2396.80840922565
31
0.000613773675850154
  0
LINE
 8
GROUP0
10
-4089.88841540617
20
2396.07635490254
30
0.000616629592616186
11
-4090.20625211836
21
2396.4905688739
31
0.000616602297476759
  0
LINE
 8
GROUP0
10
-4090.62046527175
20
2396.80840665209
30
0.000616361005225097
11
-4091.10282692445
21
2397.00820811779
31
0.000615922159699805
  0
LINE
 8
GROUP0
10
-4089.68861518185
20
2395.59399273565
30
0.0006164410305533
11
-4089.88841540617
21
2396.07635490254
31
0.000616629592616186
  0
LINE
 8
GROUP0
10
-4090.20625575791
20
2393.66214174916
30
0.000613981002872405
11
-4089.88841797972
21
2394.07635490254
31
0.000614776057426375
  0
LINE
 8
GROUP0
10
-4090.62046972927
20
2393.34430503696
30
0.000613150588187666
11
-4090.20625575791
21
2393.66214174916
31
0.000613981002872405
  0
LINE
 8
GROUP0
10
-4089.88841797972
20
2394.07635490254
30
0.000614776057426375
11
-4089.68861651402
21
2394.55871655524
31
0.000615481570176113
  0
LINE
 8
GROUP0
10
-4091.62047007405
20
2393.07635713131
30
0.0006116085968291
11
-4091.10283189617
21
2393.14450481264
31
0.000612341404628025
  0
LINE
 8
GROUP0
10
-4089.68861651402
20
2394.55871655524
30
0.000615481570176113
11
-4089.62046750052
21
2395.07635455775
31
0.000616049461484797
  0
LINE
 8
GROUP0
10
-4092.13810807657
20
2393.14450614481
30
0.000611002104338015
11
-4091.62047007405
21
2393.07635713131
31
0.0006116085968291
  0
LINE
 8
GROUP0
10
-4116.10282692439
20
2397.0082696319
30
0.000583580568391506
11
-4116.6204649269
21
2397.07641864541
31
0.000582974075900422
  0
LINE
 8
GROUP0
10
-4093.552318487
20
2395.59399770737
30
0.000611442693861003
11
-4093.6204675005
21
2395.07635970486
31
0.000610874802553024
  0
LINE
 8
GROUP0
10
-4118.55231981907
20
2394.55878304111
30
0.000578141642176222
11
-4118.35251959476
21
2394.07642087423
31
0.000577953080113336
  0
LINE
 8
GROUP0
10
-4093.35251959485
20
2394.07635936007
30
0.000610294671421635
11
-4093.03468288265
21
2393.66214538871
31
0.000610321966470823
  0
LINE
 8
GROUP0
10
-4118.35251959476
20
2394.07642087423
30
0.000577953080113336
11
-4118.03468288257
21
2393.66220690287
31
0.000577980375252762
  0
LINE
 8
GROUP0
10
-4118.6204675004
20
2395.076421219
30
0.000578533211334964
11
-4118.55231981907
21
2394.55878304111
31
0.000578141642176222
  0
LINE
 8
GROUP0
10
-4118.5523184869
20
2395.5940592215
30
0.000579101102552704
11
-4118.6204675004
21
2395.076421219
31
0.000578533211334964
  0
LINE
 8
GROUP0
10
-4118.35251702121
20
2396.07642087419
30
0.000579806615302442
11
-4118.5523184869
21
2395.5940592215
31
0.000579101102552704
  0
LINE
 8
GROUP0
10
-4093.55231981917
20
2394.55872152696
30
0.000610483233394282
11
-4093.35251959485
21
2394.07635936007
31
0.000610294671421635
  0
LINE
 8
GROUP0
10
-4093.35251702129
20
2396.07635936006
30
0.000612148206611446
11
-4093.552318487
21
2395.59399770737
31
0.000611442693861003
  0
LINE
 8
GROUP0
10
-4118.03467924303
20
2396.49063402757
30
0.000580601669857117
11
-4118.35251702121
21
2396.07642087419
31
0.000579806615302442
  0
LINE
 8
GROUP0
10
-4117.62046527167
20
2396.80847073976
30
0.00058143208454115
11
-4118.03467924303
21
2396.49063402757
31
0.000580601669857117
  0
LINE
 8
GROUP0
10
-4117.13810310478
20
2397.00827096407
30
0.000582241268100792
11
-4117.62046527167
21
2396.80847073976
31
0.00058143208454115
  0
LINE
 8
GROUP0
10
-4093.6204675005
20
2395.07635970486
30
0.000610874802553024
11
-4093.55231981917
21
2394.55872152696
31
0.000610483233394282
  0
LINE
 8
GROUP0
10
-4093.03468288265
20
2393.66214538871
30
0.000610321966470823
11
-4092.62046972927
21
2393.34430761051
31
0.000610563258722485
  0
LINE
 8
GROUP0
10
-4116.6204649269
20
2397.07641864541
30
0.000582974075900422
11
-4117.13810310478
21
2397.00827096407
31
0.000582241268100792
  0
LINE
 8
GROUP0
10
-4114.68861651399
20
2394.55877806939
30
0.000583139978867814
11
-4114.62046750049
21
2395.0764160719
31
0.000583707870266031
  0
LINE
 8
GROUP0
10
-4118.03468288257
20
2393.66220690287
30
0.000577980375252762
11
-4117.62046972918
21
2393.34436912469
31
0.000578221667504425
  0
LINE
 8
GROUP0
10
-4114.68861518182
20
2395.59405424978
30
0.000584099439335239
11
-4114.88841540613
21
2396.07641641667
31
0.000584288001398126
  0
LINE
 8
GROUP0
10
-4114.62046750049
20
2395.0764160719
30
0.000583707870266031
11
-4114.68861518182
21
2395.59405424978
31
0.000584099439335239
  0
LINE
 8
GROUP0
10
-4115.20625211832
20
2396.49063038802
30
0.000584260706257994
11
-4115.62046527169
21
2396.80846816621
31
0.000584019414006331
  0
LINE
 8
GROUP0
10
-4114.88841797968
20
2394.0764164167
30
0.000582434466298554
11
-4114.68861651399
21
2394.55877806939
31
0.000583139978867814
  0
LINE
 8
GROUP0
10
-4115.62046972921
20
2393.34436655113
30
0.000580808996880072
11
-4115.20625575787
21
2393.66220326332
31
0.000581639411654344
  0
LINE
 8
GROUP0
10
-4116.1028318961
20
2393.14456632682
30
0.00057999981341067
11
-4115.62046972921
21
2393.34436655113
31
0.000580808996880072
  0
LINE
 8
GROUP0
10
-4116.62047007399
20
2393.07641864548
30
0.000579267005611039
11
-4116.1028318961
21
2393.14456632682
31
0.00057999981341067
  0
LINE
 8
GROUP0
10
-4114.88841540613
20
2396.07641641667
30
0.000584288001398126
11
-4115.20625211832
21
2396.49063038802
31
0.000584260706257994
  0
LINE
 8
GROUP0
10
-4117.1381080765
20
2393.14456765899
30
0.000578660513119955
11
-4116.62047007399
21
2393.07641864548
31
0.000579267005611039
  0
LINE
 8
GROUP0
10
-4115.20625575787
20
2393.66220326332
30
0.000581639411654344
11
-4114.88841797968
21
2394.0764164167
31
0.000582434466298554
  0
LINE
 8
GROUP0
10
-4117.62046972918
20
2393.34436912469
30
0.000578221667504425
11
-4117.1381080765
21
2393.14456765899
31
0.000578660513119955
  0
LINE
 8
GROUP0
10
-4118.35251959472
20
2369.07642087424
30
0.000554783932011454
11
-4118.03468288253
21
2368.66220690289
31
0.000554811227151586
  0
LINE
 8
GROUP0
10
-4118.55231981904
20
2369.55878304113
30
0.000554972494345057
11
-4118.35251959472
21
2369.07642087424
31
0.000554783932011454
  0
LINE
 8
GROUP0
10
-4115.62046527169
20
2396.80846816621
30
0.000584019414006331
11
-4116.10282692439
21
2397.0082696319
31
0.000583580568391506
  0
LINE
 8
GROUP0
10
-4114.88841540609
20
2371.07641641668
30
0.000561118853566961
11
-4115.20625211829
21
2371.49063038803
31
0.000561091558156113
  0
LINE
 8
GROUP0
10
-4114.68861651395
20
2369.55877806941
30
0.000559970831126888
11
-4114.62046750045
21
2370.07641607191
31
0.000560538722434867
  0
LINE
 8
GROUP0
10
-4115.20625211829
20
2371.49063038803
30
0.000561091558156113
11
-4115.62046527166
21
2371.80846816622
31
0.000560850265995394
  0
LINE
 8
GROUP0
10
-4117.13810310475
20
2372.00827096409
30
0.000559072119999615
11
-4117.62046527163
21
2371.80847073977
31
0.000558262936529508
  0
LINE
 8
GROUP0
10
-4116.10282692435
20
2372.00826963192
30
0.000560411420380569
11
-4116.62046492686
21
2372.07641864542
31
0.000559804927888779
  0
LINE
 8
GROUP0
10
-4114.68861518178
20
2370.5940542498
30
0.00056093029150478
11
-4114.88841540609
21
2371.07641641668
31
0.000561118853566961
  0
LINE
 8
GROUP0
10
-4118.55231848687
20
2370.59405922152
30
0.000555931954812483
11
-4118.62046750037
21
2370.07642121901
31
0.00055536406341356
  0
LINE
 8
GROUP0
10
-4118.35251702117
20
2371.0764208742
30
0.000556637467471277
11
-4118.55231848687
21
2370.59405922152
31
0.000555931954812483
  0
LINE
 8
GROUP0
10
-4114.88841797964
20
2369.07641641672
30
0.000559265318106433
11
-4114.68861651395
21
2369.55877806941
31
0.000559970831126888
  0
LINE
 8
GROUP0
10
-4118.03467924298
20
2371.49063402758
30
0.000557432521755236
11
-4118.35251702117
21
2371.0764208742
31
0.000556637467471277
  0
LINE
 8
GROUP0
10
-4115.20625575784
20
2368.66220326334
30
0.000558470263552463
11
-4114.88841797964
21
2369.07641641672
31
0.000559265318106433
  0
LINE
 8
GROUP0
10
-4114.62046750045
20
2370.07641607191
30
0.000560538722434867
11
-4114.68861518178
21
2370.5940542498
31
0.00056093029150478
  0
LINE
 8
GROUP0
10
-4118.62046750037
20
2370.07642121901
30
0.00055536406341356
11
-4118.55231981904
21
2369.55878304113
31
0.000554972494345057
  0
LINE
 8
GROUP0
10
-4117.62046527163
20
2371.80847073977
30
0.000558262936529508
11
-4118.03467924298
21
2371.49063402758
31
0.000557432521755236
  0
LINE
 8
GROUP0
10
-4116.62046492686
20
2372.07641864542
30
0.000559804927888779
11
-4117.13810310475
21
2372.00827096409
31
0.000559072119999615
  0
LINE
 8
GROUP0
10
-4115.62046527166
20
2371.80846816622
30
0.000560850265995394
11
-4116.10282692435
21
2372.00826963192
31
0.000560411420380569
  0
LINE
 8
GROUP0
10
-4090.62046527171
20
2371.80840665211
30
0.000593191857213454
11
-4091.10282692441
21
2372.00820811781
31
0.000592753011507685
  0
LINE
 8
GROUP0
10
-4092.62046527171
20
2371.80840922566
30
0.000590604527658034
11
-4093.03467924307
21
2371.49057251347
31
0.000589774112973296
  0
LINE
 8
GROUP0
10
-4093.03467924307
20
2371.49057251347
30
0.000589774112973296
11
-4093.35251702126
21
2371.07635936008
31
0.000588979058690042
  0
LINE
 8
GROUP0
10
-4091.62046492692
20
2372.07635713132
30
0.00059214651910684
11
-4092.13810310482
21
2372.00820944998
31
0.000591413711307914
  0
LINE
 8
GROUP0
10
-4091.10282692441
20
2372.00820811781
30
0.000592753011507685
11
-4091.62046492692
21
2372.07635713132
31
0.00059214651910684
  0
LINE
 8
GROUP0
10
-4090.20625211833
20
2371.49056887391
30
0.000593433149465117
11
-4090.62046527171
21
2371.80840665211
31
0.000593191857213454
  0
LINE
 8
GROUP0
10
-4117.13810807647
20
2368.144567659
30
0.000555491365018074
11
-4116.62047007396
21
2368.0764186455
31
0.000556097857509158
  0
LINE
 8
GROUP0
10
-4115.62046972918
20
2368.34436655115
30
0.00055763984886843
11
-4115.20625575784
21
2368.66220326334
31
0.000558470263552463
  0
LINE
 8
GROUP0
10
-4117.62046972915
20
2368.3443691247
30
0.000555052519312305
11
-4117.13810807647
21
2368.144567659
31
0.000555491365018074
  0
LINE
 8
GROUP0
10
-4116.62047007396
20
2368.0764186455
30
0.000556097857509158
11
-4116.10283189607
21
2368.14456632683
31
0.00055683066521855
  0
LINE
 8
GROUP0
10
-4092.13810310482
20
2372.00820944998
30
0.000591413711307914
11
-4092.62046527171
21
2371.80840922566
31
0.000590604527658034
  0
LINE
 8
GROUP0
10
-4089.88841540613
20
2371.07635490255
30
0.000593460444785021
11
-4090.20625211833
21
2371.49056887391
31
0.000593433149465117
  0
LINE
 8
GROUP0
10
-4089.68861518181
20
2370.59399273566
30
0.000593271882722135
11
-4089.88841540613
21
2371.07635490255
31
0.000593460444785021
  0
LINE
 8
GROUP0
10
-4089.62046750048
20
2370.07635455777
30
0.000592880313653632
11
-4089.68861518181
21
2370.59399273566
31
0.000593271882722135
  0
LINE
 8
GROUP0
10
-4118.03468288253
20
2368.66220690289
30
0.000554811227151586
11
-4117.62046972915
21
2368.3443691247
31
0.000555052519312305
  0
LINE
 8
GROUP0
10
-4116.10283189607
20
2368.14456632683
30
0.00055683066521855
11
-4115.62046972918
21
2368.34436655115
31
0.00055763984886843
  0
LINE
 8
GROUP0
10
-4090.20625575788
20
2368.66214174917
30
0.000590811854861467
11
-4089.88841797968
21
2369.07635490256
31
0.000591606909324493
  0
LINE
 8
GROUP0
10
-4093.62046750047
20
2370.07635970487
30
0.00058770565472186
11
-4093.55231981913
21
2369.55872152698
31
0.000587314085653357
  0
LINE
 8
GROUP0
10
-4093.35251702126
20
2371.07635936008
30
0.000588979058690042
11
-4093.55231848696
21
2370.59399770738
31
0.000588273546029838
  0
LINE
 8
GROUP0
10
-4093.55231981913
20
2369.55872152698
30
0.000587314085653357
11
-4093.35251959482
21
2369.07635936008
31
0.000587125523229515
  0
LINE
 8
GROUP0
10
-4093.55231848696
20
2370.59399770738
30
0.000588273546029838
11
-4093.62046750047
21
2370.07635970487
31
0.00058770565472186
  0
LINE
 8
GROUP0
10
-4091.62047007402
20
2368.07635713132
30
0.000588439448637684
11
-4091.10283189613
21
2368.14450481266
31
0.000589172256526849
  0
LINE
 8
GROUP0
10
-4089.68861651398
20
2369.55871655525
30
0.000592312422255414
11
-4089.62046750048
21
2370.07635455777
31
0.000592880313653632
  0
LINE
 8
GROUP0
10
-4089.88841797968
20
2369.07635490256
30
0.000591606909324493
11
-4089.68861651398
21
2369.55871655525
31
0.000592312422255414
  0
LINE
 8
GROUP0
10
-4093.35251959482
20
2369.07635936008
30
0.000587125523229515
11
-4093.03468288262
21
2368.66214538872
31
0.000587152818368941
  0
LINE
 8
GROUP0
10
-4092.13810807654
20
2368.14450614483
30
0.000587832956326373
11
-4091.62047007402
21
2368.07635713132
31
0.000588439448637684
  0
LINE
 8
GROUP0
10
-4091.10283189613
20
2368.14450481266
30
0.000589172256526849
11
-4090.62046972924
21
2368.34430503698
31
0.00058998144008649
  0
LINE
 8
GROUP0
10
-4090.62046972924
20
2368.34430503698
30
0.00058998144008649
11
-4090.20625575788
21
2368.66214174917
31
0.000590811854861467
  0
LINE
 8
GROUP0
10
-4092.62046972923
20
2368.34430761053
30
0.000587394110620604
11
-4092.13810807654
21
2368.14450614483
31
0.000587832956326373
  0
LINE
 8
GROUP0
10
-4093.03468288262
20
2368.66214538872
30
0.000587152818368941
11
-4092.62046972923
21
2368.34430761053
31
0.000587394110620604
  0
LINE
 8
GROUP0
10
-4429.62092280989
20
2570.07693742885
30
0.000335528359255227
11
-4429.55277464326
21
2569.55929931491
31
0.000335136790828972
  0
LINE
 8
GROUP0
10
-4427.62092350866
20
2568.07693673062
30
0.000336262157662554
11
-4427.10328539473
21
2568.14508489725
31
0.000336994965835125
  0
LINE
 8
GROUP0
10
-4401.20670875395
20
2571.49108828461
30
0.000373597446668827
11
-4401.62092220531
21
2571.80892567447
31
0.000373356153656479
  0
LINE
 8
GROUP0
10
-4429.03513587839
20
2546.49115078645
30
0.000314427668471373
11
-4429.3529732682
21
2546.07693733514
31
0.00031363261415569
  0
LINE
 8
GROUP0
10
-4427.62092350863
20
2543.07693673064
30
0.000313093009650911
11
-4427.1032853947
21
2543.14508489726
31
0.000313825818094199
  0
LINE
 8
GROUP0
10
-4429.55277464322
20
2544.55929931493
30
0.00031196764272709
11
-4429.3529739667
21
2544.07693733542
31
0.000311779081445335
  0
LINE
 8
GROUP0
10
-4428.62092220507
20
2546.80898788694
30
0.000315258083218151
11
-4429.03513587839
21
2546.49115078645
31
0.000314427668471373
  0
LINE
 8
GROUP0
10
-4429.3529739667
20
2544.07693733542
30
0.000311779081445335
11
-4429.03513686622
21
2543.6627236621
31
0.000311806377645069
  0
LINE
 8
GROUP0
10
-4429.3529732682
20
2546.07693733514
30
0.00031363261415569
11
-4429.55277428165
21
2545.59457549519
31
0.000312927101821192
  0
LINE
 8
GROUP0
10
-4426.62092220538
20
2571.80898718842
30
0.000341014562437714
11
-4427.10328404533
21
2572.00878820187
31
0.000340575716207431
  0
LINE
 8
GROUP0
10
-4429.55277428165
20
2545.59457549519
30
0.000312927101821192
11
-4429.62092280985
21
2545.07693742886
31
0.000312359211153346
  0
LINE
 8
GROUP0
10
-4428.62092341494
20
2568.34488627227
30
0.000335216818396933
11
-4428.138561575
21
2568.14508525882
31
0.000335655664627921
  0
LINE
 8
GROUP0
10
-4429.03513686626
20
2568.66272366208
30
0.000334975525385289
11
-4428.62092341494
21
2568.34488627227
31
0.000335216818396933
  0
LINE
 8
GROUP0
10
-4425.88887235208
20
2569.07693612556
30
0.00033942961857778
11
-4425.68907133863
21
2569.55929796551
31
0.000340135130912278
  0
LINE
 8
GROUP0
10
-4426.20670974191
20
2568.66272267425
30
0.000338634564352336
11
-4425.88887235208
21
2569.07693612556
31
0.00033942961857778
  0
LINE
 8
GROUP0
10
-4428.138561575
20
2568.14508525882
30
0.000335655664627921
11
-4427.62092350866
21
2568.07693673062
31
0.000336262157662554
  0
LINE
 8
GROUP0
10
-4427.10328404533
20
2572.00878820187
30
0.000340575716207431
11
-4427.62092211166
21
2572.07693673007
31
0.00033996922344422
  0
LINE
 8
GROUP0
10
-4428.1385602256
20
2572.00878856344
30
0.000339236415000227
11
-4428.62092220511
21
2571.80898788692
31
0.000338427231229793
  0
LINE
 8
GROUP0
10
-4428.62092341491
20
2543.34488627228
30
0.000312047670295756
11
-4428.13856157496
21
2543.14508525883
31
0.000312486516886995
  0
LINE
 8
GROUP0
10
-4426.20670875407
20
2571.4911497986
30
0.000341255855450062
11
-4426.62092220538
21
2571.80898718842
31
0.000341014562437714
  0
LINE
 8
GROUP0
10
-4429.03513686622
20
2543.6627236621
30
0.000311806377645069
11
-4428.62092341491
21
2543.34488627228
31
0.000312047670295756
  0
LINE
 8
GROUP0
10
-4428.13856157496
20
2543.14508525883
30
0.000312486516886995
11
-4427.62092350863
21
2543.07693673064
31
0.000313093009650911
  0
LINE
 8
GROUP0
10
-4427.62092211166
20
2572.07693673007
30
0.00033996922344422
11
-4428.1385602256
21
2572.00878856344
31
0.000339236415000227
  0
LINE
 8
GROUP0
10
-4425.62092281044
20
2570.07693603184
30
0.000340703021760602
11
-4425.68907097707
21
2570.59457414578
31
0.000341094590187563
  0
LINE
 8
GROUP0
10
-4426.62092341522
20
2568.34488557376
30
0.000337804149515319
11
-4426.20670974191
21
2568.66272267425
31
0.000338634564352336
  0
LINE
 8
GROUP0
10
-4427.10328539473
20
2568.14508489725
30
0.000336994965835125
11
-4426.62092341522
21
2568.34488557376
31
0.000337804149515319
  0
LINE
 8
GROUP0
10
-4429.62092280985
20
2545.07693742886
30
0.000312359211153346
11
-4429.55277464322
21
2544.55929931493
31
0.00031196764272709
  0
LINE
 8
GROUP0
10
-4429.35297396673
20
2569.0769373354
30
0.000334948229456977
11
-4429.03513686626
21
2568.66272366208
31
0.000334975525385289
  0
LINE
 8
GROUP0
10
-4429.55277464326
20
2569.55929931491
30
0.000335136790828972
11
-4429.35297396673
21
2569.0769373354
31
0.000334948229456977
  0
LINE
 8
GROUP0
10
-4425.68907097707
20
2570.59457414578
30
0.000341094590187563
11
-4425.88887165358
21
2571.07693612528
31
0.000341283151649796
  0
LINE
 8
GROUP0
10
-4425.88887165358
20
2571.07693612528
30
0.000341283151649796
11
-4426.20670875407
21
2571.4911497986
31
0.000341255855450062
  0
LINE
 8
GROUP0
10
-4425.68907133863
20
2569.55929796551
30
0.000340135130912278
11
-4425.62092281044
21
2570.07693603184
31
0.000340703021760602
  0
LINE
 8
GROUP0
10
-4403.62092341509
20
2568.34482475795
30
0.000367558409614993
11
-4403.13856157509
21
2568.14502374448
31
0.00036799725593622
  0
LINE
 8
GROUP0
10
-4404.03513686645
20
2568.6626621478
30
0.000367317116694293
11
-4403.62092341509
21
2568.34482475795
31
0.000367558409614993
  0
LINE
 8
GROUP0
10
-4403.62092220528
20
2596.80892637296
30
0.00039393797055044
11
-4404.03513587865
21
2596.49108927244
31
0.000393107555893196
  0
LINE
 8
GROUP0
10
-4403.13856157509
20
2568.14502374448
30
0.00036799725593622
11
-4402.6209235087
21
2568.07687521627
31
0.000368603748880614
  0
LINE
 8
GROUP0
10
-4429.35297326824
20
2571.07693733513
30
0.000336801762528288
11
-4429.55277428168
21
2570.59457549518
31
0.000336096250102846
  0
LINE
 8
GROUP0
10
-4429.03513587842
20
2571.49115078644
30
0.000337596816573255
11
-4429.35297326824
21
2571.07693733513
31
0.000336801762528288
  0
LINE
 8
GROUP0
10
-4404.03513587861
20
2571.49108927245
30
0.000369938407791315
11
-4404.35297326846
21
2571.0768758211
31
0.000369143353746348
  0
LINE
 8
GROUP0
10
-4402.10328539472
20
2568.1450233829
30
0.000369336557144129
11
-4401.62092341516
21
2568.34482405944
31
0.000370145740822914
  0
LINE
 8
GROUP0
10
-4400.6890709769
20
2570.59451263169
30
0.000373436181405623
11
-4400.88887165344
21
2571.07687461125
31
0.000373624742867151
  0
LINE
 8
GROUP0
10
-4403.62092220525
20
2571.80892637297
30
0.000370768822538797
11
-4404.03513587861
21
2571.49108927245
31
0.000369938407791315
  0
LINE
 8
GROUP0
10
-4404.35297326846
20
2571.0768758211
30
0.000369143353746348
11
-4404.55277428193
21
2570.5945139811
31
0.000368437841320907
  0
LINE
 8
GROUP0
10
-4404.55277428193
20
2570.5945139811
30
0.000368437841320907
11
-4404.62092281013
21
2570.07687591471
31
0.000367869950562821
  0
LINE
 8
GROUP0
10
-4428.62092220511
20
2571.80898788692
30
0.000338427231229793
11
-4429.03513587842
21
2571.49115078644
31
0.000337596816573255
  0
LINE
 8
GROUP0
10
-4404.35297396696
20
2569.07687582116
30
0.000367289820765276
11
-4404.03513686645
21
2568.6626621478
31
0.000367317116694293
  0
LINE
 8
GROUP0
10
-4400.88887235194
20
2569.07687461131
30
0.000371771209886079
11
-4400.68907133848
21
2569.55923645131
31
0.000372476722131043
  0
LINE
 8
GROUP0
10
-4400.68907097694
20
2595.59451263167
30
0.000396605329327027
11
-4400.88887165347
21
2596.07687461123
31
0.000396793890698316
  0
LINE
 8
GROUP0
10
-4403.13856022569
20
2572.00872704951
30
0.000371578006217582
11
-4403.62092220525
21
2571.80892637297
31
0.000370768822538797
  0
LINE
 8
GROUP0
10
-4401.62092341516
20
2568.34482405944
30
0.000370145740822914
11
-4401.20670974179
21
2568.66266115996
31
0.000370976155480862
  0
LINE
 8
GROUP0
10
-4400.88887165344
20
2571.07687461125
30
0.000373624742867151
11
-4401.20670875395
21
2571.49108828461
31
0.000373597446668827
  0
LINE
 8
GROUP0
10
-4401.20670974179
20
2568.66266115996
30
0.000370976155480862
11
-4400.88887235194
21
2569.07687461131
31
0.000371771209886079
  0
LINE
 8
GROUP0
10
-4402.10328404531
20
2572.00872668793
30
0.000372917307426196
11
-4402.6209221117
21
2572.07687521614
31
0.00037231081466228
  0
LINE
 8
GROUP0
10
-4429.55277428168
20
2570.59457549518
30
0.000336096250102846
11
-4429.62092280989
21
2570.07693742885
31
0.000335528359255227
  0
LINE
 8
GROUP0
10
-4404.62092281013
20
2570.07687591471
30
0.000367869950562821
11
-4404.5527746435
21
2569.55923780072
31
0.000367478382137271
  0
LINE
 8
GROUP0
10
-4402.62092211174
20
2597.07687521613
30
0.000395479962582979
11
-4403.13856022573
21
2597.00872704949
31
0.000394747154319464
  0
LINE
 8
GROUP0
10
-4400.68907133848
20
2569.55923645131
30
0.000372476722131043
11
-4400.62092281027
21
2570.0768745177
31
0.000373044612979367
  0
LINE
 8
GROUP0
10
-4404.5527746435
20
2569.55923780072
30
0.000367478382137271
11
-4404.35297396696
21
2569.07687582116
31
0.000367289820765276
  0
LINE
 8
GROUP0
10
-4402.6209221117
20
2572.07687521614
30
0.00037231081466228
11
-4403.13856022569
21
2572.00872704951
31
0.000371578006217582
  0
LINE
 8
GROUP0
10
-4400.62092281027
20
2570.0768745177
30
0.000373044612979367
11
-4400.6890709769
21
2570.59451263169
31
0.000373436181405623
  0
LINE
 8
GROUP0
10
-4402.10328404534
20
2597.00872668792
30
0.000396086455437838
11
-4402.62092211174
21
2597.07687521613
31
0.000395479962582979
  0
LINE
 8
GROUP0
10
-4403.13856022573
20
2597.00872704949
30
0.000394747154319464
11
-4403.62092220528
21
2596.80892637296
31
0.00039393797055044
  0
LINE
 8
GROUP0
10
-4402.6209235087
20
2568.07687521627
30
0.000368603748880614
11
-4402.10328539472
21
2568.1450233829
31
0.000369336557144129
  0
LINE
 8
GROUP0
10
-4401.62092220531
20
2571.80892567447
30
0.000373356153656479
11
-4402.10328404531
21
2572.00872668793
31
0.000372917307426196
  0
LINE
 8
GROUP0
10
-4425.62092281047
20
2595.07693603183
30
0.000363872169772245
11
-4425.6890709771
21
2595.59457414576
31
0.000364263738108966
  0
LINE
 8
GROUP0
10
-4426.20670875411
20
2596.49114979859
30
0.000364425003551944
11
-4426.62092220542
21
2596.80898718841
31
0.000364183710629834
  0
LINE
 8
GROUP0
10
-4427.6209235087
20
2593.07693673061
30
0.000359431305854674
11
-4427.10328539477
21
2593.14508489723
31
0.000360164114207723
  0
LINE
 8
GROUP0
10
-4400.68907133851
20
2594.5592364513
30
0.000395645870232925
11
-4400.6209228103
21
2595.07687451768
31
0.000396213760900771
  0
LINE
 8
GROUP0
10
-4400.88887235198
20
2594.0768746113
30
0.000394940357897722
11
-4400.68907133851
21
2594.5592364513
31
0.000395645870232925
  0
LINE
 8
GROUP0
10
-4404.55277464354
20
2594.55923780071
30
0.000390647530148913
11
-4404.352973967
21
2594.07687582115
31
0.000390458968776919
  0
LINE
 8
GROUP0
10
-4401.62092341519
20
2593.34482405943
30
0.000393314888924795
11
-4401.20670974182
21
2593.66266115994
31
0.000394145303942994
  0
LINE
 8
GROUP0
10
-4427.10328404537
20
2597.00878820185
30
0.000363744864309312
11
-4427.6209221117
21
2597.07693673005
31
0.000363138371275384
  0
LINE
 8
GROUP0
10
-4404.62092281017
20
2595.0768759147
30
0.000391039098574464
11
-4404.55277464354
21
2594.55923780071
31
0.000390647530148913
  0
LINE
 8
GROUP0
10
-4425.88887235212
20
2594.07693612555
30
0.000362598766678956
11
-4425.68907133867
21
2594.55929796549
31
0.000363304279014159
  0
LINE
 8
GROUP0
10
-4401.62092220535
20
2596.80892567445
30
0.000396525301848599
11
-4402.10328404534
21
2597.00872668792
31
0.000396086455437838
  0
LINE
 8
GROUP0
10
-4402.10328539476
20
2593.14502338289
30
0.000392505705426488
11
-4401.62092341519
21
2593.34482405943
31
0.000393314888924795
  0
LINE
 8
GROUP0
10
-4404.3529732685
20
2596.07687582108
30
0.000392312501577513
11
-4404.55277428196
21
2595.59451398108
31
0.00039160698924231
  0
LINE
 8
GROUP0
10
-4404.352973967
20
2594.07687582115
30
0.000390458968776919
11
-4404.03513686648
21
2593.66266214778
31
0.000390486264975948
  0
LINE
 8
GROUP0
10
-4425.88887165362
20
2596.07693612527
30
0.000364452299480256
11
-4426.20670875411
21
2596.49114979859
31
0.000364425003551944
  0
LINE
 8
GROUP0
10
-4426.62092341526
20
2593.34488557375
30
0.000360973297706735
11
-4426.20670974194
21
2593.66272267424
31
0.000361803712634695
  0
LINE
 8
GROUP0
10
-4428.13856022563
20
2597.00878856343
30
0.000362405563101403
11
-4428.62092220514
21
2596.80898788691
31
0.000361596379421913
  0
LINE
 8
GROUP0
10
-4427.6209221117
20
2597.07693673005
30
0.000363138371275384
11
-4428.13856022563
21
2597.00878856343
31
0.000362405563101403
  0
LINE
 8
GROUP0
10
-4404.03513587865
20
2596.49108927244
30
0.000393107555893196
11
-4404.3529732685
21
2596.07687582108
31
0.000392312501577513
  0
LINE
 8
GROUP0
10
-4404.55277428196
20
2595.59451398108
30
0.00039160698924231
11
-4404.62092281017
21
2595.0768759147
31
0.000391039098574464
  0
LINE
 8
GROUP0
10
-4425.68907133867
20
2594.55929796549
30
0.000363304279014159
11
-4425.62092281047
21
2595.07693603183
31
0.000363872169772245
  0
LINE
 8
GROUP0
10
-4400.6209228103
20
2595.07687451768
30
0.000396213760900771
11
-4400.68907097694
21
2595.59451263167
31
0.000396605329327027
  0
LINE
 8
GROUP0
10
-4402.62092350874
20
2593.07687521626
30
0.000391772896982495
11
-4402.10328539476
21
2593.14502338289
31
0.000392505705426488
  0
LINE
 8
GROUP0
10
-4403.62092341513
20
2593.34482475793
30
0.000390727557716874
11
-4403.13856157512
21
2593.14502374446
31
0.000391166404308113
  0
LINE
 8
GROUP0
10
-4404.03513686648
20
2593.66266214778
30
0.000390486264975948
11
-4403.62092341513
21
2593.34482475793
31
0.000390727557716874
  0
LINE
 8
GROUP0
10
-4426.20670974194
20
2593.66272267424
30
0.000361803712634695
11
-4425.88887235212
21
2594.07693612555
31
0.000362598766678956
  0
LINE
 8
GROUP0
10
-4403.13856157512
20
2593.14502374446
30
0.000391166404308113
11
-4402.62092350874
21
2593.07687521626
31
0.000391772896982495
  0
LINE
 8
GROUP0
10
-4401.20670875398
20
2596.4910882846
30
0.000396766594860948
11
-4401.62092220535
21
2596.80892567445
31
0.000396525301848599
  0
LINE
 8
GROUP0
10
-4401.20670974182
20
2593.66266115994
30
0.000394145303942994
11
-4400.88887235198
21
2594.0768746113
31
0.000394940357897722
  0
LINE
 8
GROUP0
10
-4400.88887165347
20
2596.07687461123
30
0.000396793890698316
11
-4401.20670875398
21
2596.4910882846
31
0.000396766594860948
  0
LINE
 8
GROUP0
10
-4426.62092220542
20
2596.80898718841
30
0.000364183710629834
11
-4427.10328404537
21
2597.00878820185
31
0.000363744864309312
  0
LINE
 8
GROUP0
10
-4425.6890709771
20
2595.59457414576
30
0.000364263738108966
11
-4425.88887165362
21
2596.07693612527
31
0.000364452299480256
  0
LINE
 8
GROUP0
10
-4429.62092280996
20
2620.07693742882
30
0.000381866655368046
11
-4429.55277464333
21
2619.55929931488
31
0.000381475087122973
  0
LINE
 8
GROUP0
10
-4428.13856157507
20
2618.14508525879
30
0.000381993960830979
11
-4427.62092350873
21
2618.07693673059
31
0.000382600453866316
  0
LINE
 8
GROUP0
10
-4428.62092220514
20
2596.80898788691
30
0.000361596379421913
11
-4429.03513587846
21
2596.49115078642
31
0.000360765964675136
  0
LINE
 8
GROUP0
10
-4428.13856022566
20
2622.00878856341
30
0.000385574711203285
11
-4428.62092220518
21
2621.80898788689
31
0.000384765527433556
  0
LINE
 8
GROUP0
10
-4427.10328539477
20
2593.14508489723
30
0.000360164114207723
11
-4426.62092341526
21
2593.34488557375
31
0.000360973297706735
  0
LINE
 8
GROUP0
10
-4429.62092280992
20
2595.07693742883
30
0.000358697507357109
11
-4429.55277464329
21
2594.5592993149
31
0.000358305938930853
  0
LINE
 8
GROUP0
10
-4425.88887235216
20
2619.07693612553
30
0.000385767914780838
11
-4425.6890713387
21
2619.55929796548
31
0.000386473427116041
  0
LINE
 8
GROUP0
10
-4425.88887165366
20
2621.07693612525
30
0.000387621447762615
11
-4426.20670875414
21
2621.49114979858
31
0.000387594151653825
  0
LINE
 8
GROUP0
10
-4427.10328539481
20
2618.14508489722
30
0.000383333262038887
11
-4426.62092341529
21
2618.34488557373
31
0.000384142445718377
  0
LINE
 8
GROUP0
10
-4429.03513686633
20
2618.66272366205
30
0.000381313821588347
11
-4428.62092341502
21
2618.34488627224
31
0.000381555114600696
  0
LINE
 8
GROUP0
10
-4427.62092211173
20
2622.07693673004
30
0.000386307519647278
11
-4428.13856022566
21
2622.00878856341
31
0.000385574711203285
  0
LINE
 8
GROUP0
10
-4427.62092350873
20
2618.07693673059
30
0.000382600453866316
11
-4427.10328539481
21
2618.14508489722
31
0.000383333262038887
  0
LINE
 8
GROUP0
10
-4429.55277464333
20
2619.55929931488
30
0.000381475087122973
11
-4429.35297396681
21
2619.07693733537
31
0.00038128652566074
  0
LINE
 8
GROUP0
10
-4425.68907097714
20
2620.59457414574
30
0.000387432886391326
11
-4425.88887165366
21
2621.07693612525
31
0.000387621447762615
  0
LINE
 8
GROUP0
10
-4428.62092341498
20
2593.34488627225
30
0.000358385966498814
11
-4428.13856157503
21
2593.1450852588
31
0.000358824813090758
  0
LINE
 8
GROUP0
10
-4429.55277428172
20
2595.59457549516
30
0.00035926539802425
11
-4429.62092280992
21
2595.07693742883
31
0.000358697507357109
  0
LINE
 8
GROUP0
10
-4429.35297396681
20
2619.07693733537
30
0.00038128652566074
11
-4429.03513686633
21
2618.66272366205
31
0.000381313821588347
  0
LINE
 8
GROUP0
10
-4425.62092281051
20
2620.07693603181
30
0.000387041317874126
11
-4425.68907097714
21
2620.59457414574
31
0.000387432886391326
  0
LINE
 8
GROUP0
10
-4429.35297326827
20
2596.07693733511
30
0.000359970910359453
11
-4429.55277428172
21
2595.59457549516
31
0.00035926539802425
  0
LINE
 8
GROUP0
10
-4429.03513587846
20
2596.49115078642
30
0.000360765964675136
11
-4429.35297326827
21
2596.07693733511
31
0.000359970910359453
  0
LINE
 8
GROUP0
10
-4426.62092220545
20
2621.80898718839
30
0.000387352858641476
11
-4427.10328404541
21
2622.00878820184
31
0.000386914012411194
  0
LINE
 8
GROUP0
10
-4427.10328404541
20
2622.00878820184
30
0.000386914012411194
11
-4427.62092211173
21
2622.07693673004
31
0.000386307519647278
  0
LINE
 8
GROUP0
10
-4428.13856157503
20
2593.1450852588
30
0.000358824813090758
11
-4427.6209235087
21
2593.07693673061
31
0.000359431305854674
  0
LINE
 8
GROUP0
10
-4429.03513686629
20
2593.66272366207
30
0.000358144673848126
11
-4428.62092341498
21
2593.34488627225
31
0.000358385966498814
  0
LINE
 8
GROUP0
10
-4426.20670875414
20
2621.49114979858
30
0.000387594151653825
11
-4426.62092220545
21
2621.80898718839
31
0.000387352858641476
  0
LINE
 8
GROUP0
10
-4426.62092341529
20
2618.34488557373
30
0.000384142445718377
11
-4426.20670974198
21
2618.66272267422
31
0.000384972860465155
  0
LINE
 8
GROUP0
10
-4428.62092341502
20
2618.34488627224
30
0.000381555114600696
11
-4428.13856157507
21
2618.14508525879
31
0.000381993960830979
  0
LINE
 8
GROUP0
10
-4429.55277428176
20
2620.59457549515
30
0.000382434546306609
11
-4429.62092280996
21
2620.07693742882
31
0.000381866655368046
  0
LINE
 8
GROUP0
10
-4429.35297396677
20
2594.07693733539
30
0.000358117377558859
11
-4429.03513686629
21
2593.66272366207
31
0.000358144673848126
  0
LINE
 8
GROUP0
10
-4429.55277464329
20
2594.5592993149
30
0.000358305938930853
11
-4429.35297396677
21
2594.07693733539
31
0.000358117377558859
  0
LINE
 8
GROUP0
10
-4425.6890713387
20
2619.55929796548
30
0.000386473427116041
11
-4425.62092281051
21
2620.07693603181
31
0.000387041317874126
  0
LINE
 8
GROUP0
10
-4426.20670974198
20
2618.66272267422
30
0.000384972860465155
11
-4425.88887235216
21
2619.07693612553
31
0.000385767914780838
  0
LINE
 8
GROUP0
10
-4400.88887165351
20
2621.07687461122
30
0.000419963039070914
11
-4401.20670875402
21
2621.49108828459
31
0.00041993574287259
  0
LINE
 8
GROUP0
10
-4404.55277464358
20
2619.55923780069
30
0.00041381667825009
11
-4404.35297396703
21
2619.07687582113
31
0.000413628116969039
  0
LINE
 8
GROUP0
10
-4118.62046750072
20
2620.07642121886
30
0.000787055544160248
11
-4118.55231981939
21
2619.55878304098
31
0.000786663975091745
  0
LINE
 8
GROUP0
10
-4118.55231848722
20
2620.59405922137
30
0.00078762343555917
11
-4118.62046750072
21
2620.07642121886
31
0.000787055544160248
  0
LINE
 8
GROUP0
10
-4400.68907133855
20
2619.55923645128
30
0.000418815018334806
11
-4400.62092281034
21
2620.07687451767
31
0.00041938290918313
  0
LINE
 8
GROUP0
10
-4118.03467924334
20
2621.49063402744
30
0.000789124002682401
11
-4118.35251702152
21
2621.07642087406
31
0.000788328948489386
  0
LINE
 8
GROUP0
10
-4428.62092220518
20
2621.80898788689
30
0.000384765527433556
11
-4429.0351358785
21
2621.49115078641
31
0.000383935112777017
  0
LINE
 8
GROUP0
10
-4401.62092220538
20
2621.80892567444
30
0.000419694449860242
11
-4402.10328404538
21
2622.00872668791
31
0.000419255603629254
  0
LINE
 8
GROUP0
10
-4400.68907097697
20
2620.59451263166
30
0.000419774477608681
11
-4400.88887165351
21
2621.07687461122
31
0.000419963039070914
  0
LINE
 8
GROUP0
10
-4400.62092281034
20
2620.07687451767
30
0.00041938290918313
11
-4400.68907097697
21
2620.59451263166
31
0.000419774477608681
  0
LINE
 8
GROUP0
10
-4400.88887235201
20
2619.07687461128
30
0.000418109506089842
11
-4400.68907133855
21
2619.55923645128
31
0.000418815018334806
  0
LINE
 8
GROUP0
10
-4429.35297326831
20
2621.0769373351
30
0.000383140058732051
11
-4429.55277428176
21
2620.59457549515
31
0.000382434546306609
  0
LINE
 8
GROUP0
10
-4402.62092350877
20
2618.07687521624
30
0.000414942045083672
11
-4402.10328539478
21
2618.14502338287
31
0.000415674853347892
  0
LINE
 8
GROUP0
10
-4404.6209228102
20
2620.07687591468
30
0.000414208246676345
11
-4404.55277464358
21
2619.55923780069
31
0.00041381667825009
  0
LINE
 8
GROUP0
10
-4403.13856157517
20
2618.14502374445
30
0.000414335552139278
11
-4402.62092350877
21
2618.07687521624
31
0.000414942045083672
  0
LINE
 8
GROUP0
10
-4118.55231981939
20
2619.55878304098
30
0.000786663975091745
11
-4118.35251959508
21
2619.07642087409
31
0.000786475413029564
  0
LINE
 8
GROUP0
10
-4404.03513686652
20
2618.66266214777
30
0.000413655412896646
11
-4403.62092341516
21
2618.34482475792
31
0.000413896705818756
  0
LINE
 8
GROUP0
10
-4401.20670974186
20
2618.66266115993
30
0.00041731445168392
11
-4400.88887235201
21
2619.07687461128
31
0.000418109506089842
  0
LINE
 8
GROUP0
10
-4404.552774282
20
2620.59451398107
30
0.000414776137524669
11
-4404.6209228102
21
2620.07687591468
31
0.000414208246676345
  0
LINE
 8
GROUP0
10
-4401.20670875402
20
2621.49108828459
30
0.00041993574287259
11
-4401.62092220538
21
2621.80892567444
31
0.000419694449860242
  0
LINE
 8
GROUP0
10
-4402.62092211177
20
2622.07687521611
30
0.000418649110865338
11
-4403.13856022576
21
2622.00872704948
31
0.000417916302421345
  0
LINE
 8
GROUP0
10
-4403.62092220532
20
2621.80892637294
30
0.00041710711874256
11
-4404.03513587868
21
2621.49108927242
31
0.000416276703994373
  0
LINE
 8
GROUP0
10
-4402.10328539478
20
2618.14502338287
30
0.000415674853347892
11
-4401.62092341523
21
2618.34482405941
31
0.000416484037026676
  0
LINE
 8
GROUP0
10
-4404.35297326853
20
2621.07687582107
30
0.000415481649950111
11
-4404.552774282
21
2620.59451398107
31
0.000414776137524669
  0
LINE
 8
GROUP0
10
-4402.10328404538
20
2622.00872668791
30
0.000419255603629254
11
-4402.62092211177
21
2622.07687521611
31
0.000418649110865338
  0
LINE
 8
GROUP0
10
-4429.0351358785
20
2621.49115078641
30
0.000383935112777017
11
-4429.35297326831
21
2621.0769373351
31
0.000383140058732051
  0
LINE
 8
GROUP0
10
-4404.03513587868
20
2621.49108927242
30
0.000416276703994373
11
-4404.35297326853
21
2621.07687582107
31
0.000415481649950111
  0
LINE
 8
GROUP0
10
-4401.62092341523
20
2618.34482405941
30
0.000416484037026676
11
-4401.20670974186
21
2618.66266115993
31
0.00041731445168392
  0
LINE
 8
GROUP0
10
-4404.35297396703
20
2619.07687582113
30
0.000413628116969039
11
-4404.03513686652
21
2618.66266214777
31
0.000413655412896646
  0
LINE
 8
GROUP0
10
-4403.62092341516
20
2618.34482475792
30
0.000413896705818756
11
-4403.13856157517
21
2618.14502374445
31
0.000414335552139278
  0
LINE
 8
GROUP0
10
-4403.13856022576
20
2622.00872704948
30
0.000417916302421345
11
-4403.62092220532
21
2621.80892637294
31
0.00041710711874256
  0
LINE
 8
GROUP0
10
-4118.35251959508
20
2619.07642087409
30
0.000786475413029564
11
-4118.03468288288
21
2618.66220690274
31
0.00078650270816899
  0
LINE
 8
GROUP0
10
-4117.62046527198
20
2621.80847073962
30
0.000789954417456673
11
-4118.03467924334
21
2621.49063402744
31
0.000789124002682401
  0
LINE
 8
GROUP0
10
-4090.20625211869
20
2621.49056887376
30
0.000825124630392282
11
-4090.62046527207
21
2621.80840665196
31
0.000824883338140619
  0
LINE
 8
GROUP0
10
-4089.88841798004
20
2619.07635490241
30
0.000823298390432137
11
-4089.68861651434
21
2619.55871655511
31
0.000824003903001397
  0
LINE
 8
GROUP0
10
-4092.62046527206
20
2621.80840922551
30
0.000822296008675438
11
-4093.03467924342
21
2621.49057251332
31
0.0008214655939907
  0
LINE
 8
GROUP0
10
-4117.6204697295
20
2618.34436912455
30
0.000786744000329709
11
-4117.13810807682
21
2618.14456765885
31
0.000787182846035478
  0
LINE
 8
GROUP0
10
-4117.1381031051
20
2622.00827096394
30
0.000790763601016314
11
-4117.62046527198
21
2621.80847073962
31
0.000789954417456673
  0
LINE
 8
GROUP0
10
-4114.68861651431
20
2619.55877806926
30
0.000791662311783337
11
-4114.6204675008
21
2620.07641607176
31
0.000792230203182259
  0
LINE
 8
GROUP0
10
-4114.88841798
20
2619.07641641657
30
0.000790956799123838
11
-4114.68861651431
21
2619.55877806926
31
0.000791662311783337
  0
LINE
 8
GROUP0
10
-4115.20625575819
20
2618.66220326319
30
0.000790161744660106
11
-4114.88841798
21
2619.07641641657
31
0.000790956799123838
  0
LINE
 8
GROUP0
10
-4116.62046492722
20
2622.07641864527
30
0.000791496409086662
11
-4117.1381031051
21
2622.00827096394
31
0.000790763601016314
  0
LINE
 8
GROUP0
10
-4116.10283189642
20
2618.14456632668
30
0.000788522146326193
11
-4115.62046972954
21
2618.344366551
31
0.000789331329885834
  0
LINE
 8
GROUP0
10
-4091.10282692476
20
2622.00820811766
30
0.000824444492525794
11
-4091.62046492728
21
2622.07635713117
31
0.000823838000304722
  0
LINE
 8
GROUP0
10
-4093.03467924342
20
2621.49057251332
30
0.0008214655939907
11
-4093.35251702162
21
2621.07635935993
31
0.000820670539707447
  0
LINE
 8
GROUP0
10
-4090.62046527207
20
2621.80840665196
30
0.000824883338140619
11
-4091.10282692476
21
2622.00820811766
31
0.000824444492525794
  0
LINE
 8
GROUP0
10
-4117.13810807682
20
2618.14456765885
30
0.000787182846035478
11
-4116.62047007431
21
2618.07641864535
31
0.000787789338436323
  0
LINE
 8
GROUP0
10
-4089.68861651434
20
2619.55871655511
30
0.000824003903001397
11
-4089.62046750084
21
2620.07635455762
31
0.000824571794399614
  0
LINE
 8
GROUP0
10
-4092.13810310517
20
2622.00820944983
30
0.00082310519223508
11
-4092.62046527206
21
2621.80840922551
31
0.000822296008675438
  0
LINE
 8
GROUP0
10
-4091.62047007438
20
2618.07635713117
30
0.000820130929745327
11
-4091.10283189648
21
2618.14450481251
31
0.000820863737544253
  0
LINE
 8
GROUP0
10
-4118.03468288288
20
2618.66220690274
30
0.00078650270816899
11
-4117.6204697295
21
2618.34436912455
31
0.000786744000329709
  0
LINE
 8
GROUP0
10
-4116.10282692471
20
2622.00826963177
30
0.000792102901307734
11
-4116.62046492722
21
2622.07641864527
31
0.000791496409086662
  0
LINE
 8
GROUP0
10
-4114.88841540644
20
2621.07641641653
30
0.000792810334584365
11
-4115.20625211864
21
2621.49063038788
31
0.000792783039173517
  0
LINE
 8
GROUP0
10
-4114.6204675008
20
2620.07641607176
30
0.000792230203182259
11
-4114.68861518213
21
2620.59405424965
31
0.000792621772251467
  0
LINE
 8
GROUP0
10
-4118.35251702152
20
2621.07642087406
30
0.000788328948489386
11
-4118.55231848722
21
2620.59405922137
31
0.00078762343555917
  0
LINE
 8
GROUP0
10
-4115.62046972954
20
2618.344366551
30
0.000789331329885834
11
-4115.20625575819
21
2618.66220326319
31
0.000790161744660106
  0
LINE
 8
GROUP0
10
-4114.68861518213
20
2620.59405424965
30
0.000792621772251467
11
-4114.88841540644
21
2621.07641641653
31
0.000792810334584365
  0
LINE
 8
GROUP0
10
-4115.62046527201
20
2621.80846816607
30
0.000792541747012798
11
-4116.10282692471
21
2622.00826963177
31
0.000792102901307734
  0
LINE
 8
GROUP0
10
-4091.62046492728
20
2622.07635713117
30
0.000823838000304722
11
-4092.13810310517
21
2622.00820944983
31
0.00082310519223508
  0
LINE
 8
GROUP0
10
-4116.62047007431
20
2618.07641864535
30
0.000787789338436323
11
-4116.10283189642
21
2618.14456632668
31
0.000788522146326193
  0
LINE
 8
GROUP0
10
-4089.68861518217
20
2620.59399273551
30
0.000824963363468822
11
-4089.88841540649
21
2621.07635490241
31
0.000825151925802425
  0
LINE
 8
GROUP0
10
-4089.88841540649
20
2621.07635490241
30
0.000825151925802425
11
-4090.20625211869
21
2621.49056887376
31
0.000825124630392282
  0
LINE
 8
GROUP0
10
-4089.62046750084
20
2620.07635455762
30
0.000824571794399614
11
-4089.68861518217
21
2620.59399273551
31
0.000824963363468822
  0
LINE
 8
GROUP0
10
-4115.20625211864
20
2621.49063038788
30
0.000792783039173517
11
-4115.62046527201
21
2621.80846816607
31
0.000792541747012798
  0
LINE
 8
GROUP0
10
-4090.2062557582
20
2593.66214174904
30
0.000799334187957468
11
-4089.88841798
21
2594.07635490243
31
0.000800129242240016
  0
LINE
 8
GROUP0
10
-4093.35251959514
20
2594.07635935995
30
0.000795647856145742
11
-4093.03468288294
21
2593.66214538859
31
0.000795675151555886
  0
LINE
 8
GROUP0
10
-4093.35251959517
20
2619.07635935993
30
0.000818817004246919
11
-4093.03468288297
21
2618.66214538857
31
0.00081884429938705
  0
LINE
 8
GROUP0
10
-4092.13810807686
20
2593.1445061447
30
0.000796355289422374
11
-4091.62047007434
21
2593.07635713119
31
0.000796961781643446
  0
LINE
 8
GROUP0
10
-4115.62046527198
20
2596.80846816609
30
0.000769372598820678
11
-4116.10282692467
21
2597.00826963178
31
0.000768933753205853
  0
LINE
 8
GROUP0
10
-4089.6886165143
20
2594.55871655512
30
0.000800834754989754
11
-4089.6204675008
21
2595.07635455763
31
0.000801402646298438
  0
LINE
 8
GROUP0
10
-4092.62046972955
20
2593.3443076104
30
0.000795916443536126
11
-4092.13810807686
21
2593.1445061447
31
0.000796355289422374
  0
LINE
 8
GROUP0
10
-4092.13810807689
20
2618.14450614468
30
0.000819524437253538
11
-4091.62047007438
21
2618.07635713117
31
0.000820130929745327
  0
LINE
 8
GROUP0
10
-4090.62046527204
20
2596.80840665197
30
0.000801714190129682
11
-4091.10282692473
21
2597.00820811768
31
0.000801275344514152
  0
LINE
 8
GROUP0
10
-4093.03467924339
20
2596.49057251333
30
0.000798296445888819
11
-4093.35251702158
21
2596.07635935995
31
0.000797501391334848
  0
LINE
 8
GROUP0
10
-4091.10283189648
20
2618.14450481251
30
0.000820863737544253
11
-4090.62046972959
21
2618.34430503683
31
0.000821672921013655
  0
LINE
 8
GROUP0
10
-4092.62046972959
20
2618.34430761038
30
0.000819085591638008
11
-4092.13810807689
21
2618.14450614468
31
0.000819524437253538
  0
LINE
 8
GROUP0
10
-4090.62046972959
20
2618.34430503683
30
0.000821672921013655
11
-4090.20625575823
21
2618.66214174902
31
0.000822503335787927
  0
LINE
 8
GROUP0
10
-4092.13810310514
20
2597.00820944984
30
0.000799936044133198
11
-4092.62046527203
21
2596.80840922553
31
0.000799126860663796
  0
LINE
 8
GROUP0
10
-4089.88841798
20
2594.07635490243
30
0.000800129242240016
11
-4089.6886165143
21
2594.55871655512
31
0.000800834754989754
  0
LINE
 8
GROUP0
10
-4090.20625211865
20
2596.49056887378
30
0.000801955482290401
11
-4090.62046527204
21
2596.80840665197
31
0.000801714190129682
  0
LINE
 8
GROUP0
10
-4093.62046750082
20
2620.07635970472
30
0.000819397135468547
11
-4093.55231981949
21
2619.55872152683
31
0.000819005566309805
  0
LINE
 8
GROUP0
10
-4089.88841540645
20
2596.07635490242
30
0.000801982777429827
11
-4090.20625211865
21
2596.49056887378
31
0.000801955482290401
  0
LINE
 8
GROUP0
10
-4093.03468288294
20
2593.66214538859
30
0.000795675151555886
11
-4092.62046972955
21
2593.3443076104
31
0.000795916443536126
  0
LINE
 8
GROUP0
10
-4091.10282692473
20
2597.00820811768
30
0.000801275344514152
11
-4091.62046492724
21
2597.07635713118
31
0.000800668852022363
  0
LINE
 8
GROUP0
10
-4089.6204675008
20
2595.07635455763
30
0.000801402646298438
11
-4089.68861518213
21
2595.59399273553
31
0.000801794215367646
  0
LINE
 8
GROUP0
10
-4091.62046492724
20
2597.07635713118
30
0.000800668852022363
11
-4092.13810310514
21
2597.00820944984
31
0.000799936044133198
  0
LINE
 8
GROUP0
10
-4093.55231848732
20
2620.59399770724
30
0.000819965026777231
11
-4093.62046750082
21
2620.07635970472
31
0.000819397135468547
  0
LINE
 8
GROUP0
10
-4092.62046527203
20
2596.80840922553
30
0.000799126860663796
11
-4093.03467924339
21
2596.49057251333
31
0.000798296445888819
  0
LINE
 8
GROUP0
10
-4093.55231981949
20
2619.55872152683
30
0.000819005566309805
11
-4093.35251959517
21
2619.07635935993
31
0.000818817004246919
  0
LINE
 8
GROUP0
10
-4093.35251702162
20
2621.07635935993
30
0.000820670539707447
11
-4093.55231848732
21
2620.59399770724
31
0.000819965026777231
  0
LINE
 8
GROUP0
10
-4091.10283189645
20
2593.14450481253
30
0.000797694589803327
11
-4090.62046972955
21
2593.34430503684
31
0.000798503773002013
  0
LINE
 8
GROUP0
10
-4089.68861518213
20
2595.59399273553
30
0.000801794215367646
11
-4089.88841540645
21
2596.07635490242
31
0.000801982777429827
  0
LINE
 8
GROUP0
10
-4091.62047007434
20
2593.07635713119
30
0.000796961781643446
11
-4091.10283189645
21
2593.14450481253
31
0.000797694589803327
  0
LINE
 8
GROUP0
10
-4090.20625575823
20
2618.66214174902
30
0.000822503335787927
11
-4089.88841798004
21
2619.07635490241
31
0.000823298390432137
  0
LINE
 8
GROUP0
10
-4093.03468288297
20
2618.66214538857
30
0.00081884429938705
11
-4092.62046972959
21
2618.34430761038
31
0.000819085591638008
  0
LINE
 8
GROUP0
10
-4090.62046972955
20
2593.34430503684
30
0.000798503773002013
11
-4090.2062557582
21
2593.66214174904
31
0.000799334187957468
  0
LINE
 8
GROUP0
10
-4114.88841797997
20
2594.07641641658
30
0.000767787651022661
11
-4114.68861651428
21
2594.55877806927
31
0.000768493163681455
  0
LINE
 8
GROUP0
10
-4118.55231848716
20
2570.5940592214
30
0.000741285139445646
11
-4118.62046750065
21
2570.07642121889
31
0.000740717248047429
  0
LINE
 8
GROUP0
10
-4114.62046750076
20
2595.07641607177
30
0.000769061054990139
11
-4114.6886151821
21
2595.59405424966
31
0.000769452624149586
  0
LINE
 8
GROUP0
10
-4114.68861651424
20
2569.55877806929
30
0.000745324015580279
11
-4114.62046750073
21
2570.07641607179
31
0.000745891907068735
  0
LINE
 8
GROUP0
10
-4118.35251959504
20
2594.07642087411
30
0.000763306264927682
11
-4118.03468288285
21
2593.66220690276
31
0.000763333560337825
  0
LINE
 8
GROUP0
10
-4115.20625575815
20
2593.6622032632
30
0.000766992596738702
11
-4114.88841797997
21
2594.07641641658
31
0.000767787651022661
  0
LINE
 8
GROUP0
10
-4115.20625211861
20
2596.4906303879
30
0.000769613891071635
11
-4115.62046527198
21
2596.80846816609
31
0.000769372598820678
  0
LINE
 8
GROUP0
10
-4118.62046750069
20
2595.07642121888
30
0.00076388639614931
11
-4118.55231981936
21
2594.55878304099
31
0.000763494826989863
  0
LINE
 8
GROUP0
10
-4117.62046972947
20
2593.34436912457
30
0.000763574852318066
11
-4117.13810807678
21
2593.14456765887
31
0.000764013698204313
  0
LINE
 8
GROUP0
10
-4115.62046972951
20
2593.34436655101
30
0.000766162181693714
11
-4115.20625575815
21
2593.6622032632
31
0.000766992596738702
  0
LINE
 8
GROUP0
10
-4118.55231981936
20
2594.55878304099
30
0.000763494826989863
11
-4118.35251959504
21
2594.07642087411
31
0.000763306264927682
  0
LINE
 8
GROUP0
10
-4093.55231848728
20
2595.59399770725
30
0.000796795878675349
11
-4093.62046750079
21
2595.07635970474
31
0.000796227987276427
  0
LINE
 8
GROUP0
10
-4116.62046492718
20
2597.07641864529
30
0.000768327260714063
11
-4117.13810310507
21
2597.00827096395
31
0.000767594452914433
  0
LINE
 8
GROUP0
10
-4117.62046527196
20
2596.80847073964
30
0.000766785269354792
11
-4118.0346792433
21
2596.49063402745
31
0.000765954854670758
  0
LINE
 8
GROUP0
10
-4116.62047007428
20
2593.07641864536
30
0.000764620190424681
11
-4116.10283189639
21
2593.1445663267
31
0.000765352998495028
  0
LINE
 8
GROUP0
10
-4114.88841540641
20
2596.07641641655
30
0.000769641186121528
11
-4115.20625211861
21
2596.4906303879
31
0.000769613891071635
  0
LINE
 8
GROUP0
10
-4118.03468288285
20
2593.66220690276
30
0.000763333560337825
11
-4117.62046972947
21
2593.34436912457
31
0.000763574852318066
  0
LINE
 8
GROUP0
10
-4118.35251959501
20
2569.07642087412
30
0.000740137116825801
11
-4118.03468288281
21
2568.66220690277
31
0.000740164411965227
  0
LINE
 8
GROUP0
10
-4093.55231981945
20
2594.55872152684
30
0.000795836418298162
11
-4093.35251959514
21
2594.07635935995
31
0.000795647856145742
  0
LINE
 8
GROUP0
10
-4116.10283189639
20
2593.1445663267
30
0.000765352998495028
11
-4115.62046972951
21
2593.34436655101
31
0.000766162181693714
  0
LINE
 8
GROUP0
10
-4117.13810807678
20
2593.14456765887
30
0.000764013698204313
11
-4116.62047007428
21
2593.07641864536
31
0.000764620190424681
  0
LINE
 8
GROUP0
10
-4117.13810310507
20
2597.00827096395
30
0.000767594452914433
11
-4117.62046527196
21
2596.80847073964
31
0.000766785269354792
  0
LINE
 8
GROUP0
10
-4093.62046750079
20
2595.07635970474
30
0.000796227987276427
11
-4093.55231981945
21
2594.55872152684
31
0.000795836418298162
  0
LINE
 8
GROUP0
10
-4093.35251702158
20
2596.07635935995
30
0.000797501391334848
11
-4093.55231848728
21
2595.59399770725
31
0.000796795878675349
  0
LINE
 8
GROUP0
10
-4116.10282692467
20
2597.00826963178
30
0.000768933753205853
11
-4116.62046492718
21
2597.07641864529
31
0.000768327260714063
  0
LINE
 8
GROUP0
10
-4118.35251702149
20
2596.07642087407
30
0.000765159800116788
11
-4118.55231848719
21
2595.59405922138
31
0.00076445428736705
  0
LINE
 8
GROUP0
10
-4118.0346792433
20
2596.49063402745
30
0.000765954854670758
11
-4118.35251702149
21
2596.07642087407
31
0.000765159800116788
  0
LINE
 8
GROUP0
10
-4118.55231848719
20
2595.59405922138
30
0.00076445428736705
11
-4118.62046750069
21
2595.07642121888
31
0.00076388639614931
  0
LINE
 8
GROUP0
10
-4118.55231981932
20
2569.55878304101
30
0.000740325678978926
11
-4118.35251959501
21
2569.07642087412
31
0.000740137116825801
  0
LINE
 8
GROUP0
10
-4118.62046750065
20
2570.07642121889
30
0.000740717248047429
11
-4118.55231981932
21
2569.55878304101
31
0.000740325678978926
  0
LINE
 8
GROUP0
10
-4114.68861651428
20
2594.55877806927
30
0.000768493163681455
11
-4114.62046750076
21
2595.07641607177
31
0.000769061054990139
  0
LINE
 8
GROUP0
10
-4114.6886151821
20
2595.59405424966
30
0.000769452624149586
11
-4114.88841540641
21
2596.07641641655
31
0.000769641186121528
  0
LINE
 8
GROUP0
10
-4092.620465272
20
2571.80840922554
30
0.000775957712471675
11
-4093.03467924335
21
2571.49057251335
31
0.000775127297786937
  0
LINE
 8
GROUP0
10
-4090.620465272
20
2571.80840665199
30
0.000778545041937562
11
-4091.1028269247
21
2572.00820811769
31
0.000778106196322031
  0
LINE
 8
GROUP0
10
-4089.6886151821
20
2570.59399273554
30
0.000778625067356004
11
-4089.88841540642
21
2571.07635490244
31
0.000778813629598662
  0
LINE
 8
GROUP0
10
-4091.6204649272
20
2572.0763571312
30
0.000777499704100959
11
-4092.1381031051
21
2572.00820944986
31
0.000776766896031317
  0
LINE
 8
GROUP0
10
-4089.88841540642
20
2571.07635490244
30
0.000778813629598662
11
-4090.20625211862
21
2571.49056887379
31
0.000778786334188519
  0
LINE
 8
GROUP0
10
-4090.20625211862
20
2571.49056887379
30
0.000778786334188519
11
-4090.620465272
21
2571.80840665199
31
0.000778545041937562
  0
LINE
 8
GROUP0
10
-4114.68861518206
20
2570.59405424968
30
0.000746283476137943
11
-4114.88841540637
21
2571.07641641656
31
0.000746472038381307
  0
LINE
 8
GROUP0
10
-4118.03467924327
20
2571.49063402746
30
0.000742785706478638
11
-4118.35251702146
21
2571.07642087408
31
0.000741990652285623
  0
LINE
 8
GROUP0
10
-4117.13810310503
20
2572.00827096397
30
0.000744425304812551
11
-4117.62046527192
21
2571.80847073965
31
0.00074361612125291
  0
LINE
 8
GROUP0
10
-4115.20625211857
20
2571.49063038791
30
0.000746444742970459
11
-4115.62046527195
21
2571.8084681661
31
0.000746203450809035
  0
LINE
 8
GROUP0
10
-4116.10282692463
20
2572.0082696318
30
0.000745764605103971
11
-4116.62046492714
21
2572.0764186453
31
0.000745158112973138
  0
LINE
 8
GROUP0
10
-4114.62046750073
20
2570.07641607179
30
0.000745891907068735
11
-4114.68861518206
21
2570.59405424968
31
0.000746283476137943
  0
LINE
 8
GROUP0
10
-4115.62046972947
20
2568.34436655103
30
0.000742993033682071
11
-4115.20625575812
21
2568.66220326322
31
0.000743823448456343
  0
LINE
 8
GROUP0
10
-4118.35251702146
20
2571.07642087408
30
0.000741990652285623
11
-4118.55231848716
21
2570.5940592214
31
0.000741285139445646
  0
LINE
 8
GROUP0
10
-4116.10283189635
20
2568.14456632671
30
0.00074218385012243
11
-4115.62046972947
21
2568.34436655103
31
0.000742993033682071
  0
LINE
 8
GROUP0
10
-4118.03468288281
20
2568.66220690277
30
0.000740164411965227
11
-4117.62046972943
21
2568.34436912458
31
0.000740405704126651
  0
LINE
 8
GROUP0
10
-4089.88841797997
20
2569.07635490244
30
0.000776960094229079
11
-4089.68861651427
21
2569.55871655513
31
0.000777665606797634
  0
LINE
 8
GROUP0
10
-4089.68861651427
20
2569.55871655513
30
0.000777665606797634
11
-4089.62046750076
21
2570.07635455765
31
0.0007782334982875
  0
LINE
 8
GROUP0
10
-4091.10283189641
20
2568.14450481254
30
0.00077452544134049
11
-4090.62046972952
21
2568.34430503686
31
0.000775334624809892
  0
LINE
 8
GROUP0
10
-4116.62046492714
20
2572.0764186453
30
0.000745158112973138
11
-4117.13810310503
21
2572.00827096397
31
0.000744425304812551
  0
LINE
 8
GROUP0
10
-4092.1381031051
20
2572.00820944986
30
0.000776766896031317
11
-4092.620465272
21
2571.80840922554
31
0.000775957712471675
  0
LINE
 8
GROUP0
10
-4091.1028269247
20
2572.00820811769
30
0.000778106196322031
11
-4091.6204649272
21
2572.0763571312
31
0.000777499704100959
  0
LINE
 8
GROUP0
10
-4093.03467924335
20
2571.49057251335
30
0.000775127297786937
11
-4093.35251702155
21
2571.07635935996
31
0.000774332243504389
  0
LINE
 8
GROUP0
10
-4117.62046972943
20
2568.34436912458
30
0.000740405704126651
11
-4117.13810807674
21
2568.14456765888
31
0.000740844549831715
  0
LINE
 8
GROUP0
10
-4117.13810807674
20
2568.14456765888
30
0.000740844549831715
11
-4116.62047007423
21
2568.07641864538
31
0.00074145104223256
  0
LINE
 8
GROUP0
10
-4114.88841797993
20
2569.0764164166
30
0.00074461850292078
11
-4114.68861651424
21
2569.55877806929
31
0.000745324015580279
  0
LINE
 8
GROUP0
10
-4117.62046527192
20
2571.80847073965
30
0.00074361612125291
11
-4118.03467924327
21
2571.49063402746
31
0.000742785706478638
  0
LINE
 8
GROUP0
10
-4115.20625575812
20
2568.66220326322
30
0.000743823448456343
11
-4114.88841797993
21
2569.0764164166
31
0.00074461850292078
  0
LINE
 8
GROUP0
10
-4114.88841540637
20
2571.07641641656
30
0.000746472038381307
11
-4115.20625211857
21
2571.49063038791
31
0.000746444742970459
  0
LINE
 8
GROUP0
10
-4089.62046750076
20
2570.07635455765
30
0.0007782334982875
11
-4089.6886151821
21
2570.59399273554
31
0.000778625067356004
  0
LINE
 8
GROUP0
10
-4116.62047007423
20
2568.07641864538
30
0.00074145104223256
11
-4116.10283189635
21
2568.14456632671
31
0.00074218385012243
  0
LINE
 8
GROUP0
10
-4115.62046527195
20
2571.8084681661
30
0.000746203450809035
11
-4116.10282692463
21
2572.0082696318
31
0.000745764605103971
  0
LINE
 8
GROUP0
10
-4117.62046527188
20
2546.80847073967
30
0.000720446973151734
11
-4118.03467924323
21
2546.49063402748
31
0.000719616558467701
  0
LINE
 8
GROUP0
10
-4116.1028269246
20
2547.00826963182
30
0.00072259545700209
11
-4116.62046492711
21
2547.07641864532
31
0.000721988964510301
  0
LINE
 8
GROUP0
10
-4092.62046527196
20
2546.80840922556
30
0.000752788564460033
11
-4093.03467924332
21
2546.49057251336
31
0.000751958149685056
  0
LINE
 8
GROUP0
10
-4093.3525195951
20
2569.07635935996
30
0.000772478708043861
11
-4093.0346828829
21
2568.66214538861
31
0.000772506003183287
  0
LINE
 8
GROUP0
10
-4118.55231981928
20
2544.55878304102
30
0.000717156530786806
11
-4118.35251959497
21
2544.07642087414
31
0.000716967968723919
  0
LINE
 8
GROUP0
10
-4092.62046972951
20
2568.34430761041
30
0.000772747295434245
11
-4092.13810807682
21
2568.14450614471
31
0.000773186141049775
  0
LINE
 8
GROUP0
10
-4114.88841540635
20
2546.07641641658
30
0.00072330288991847
11
-4115.20625211853
21
2546.49063038793
31
0.000723275594868578
  0
LINE
 8
GROUP0
10
-4118.62046750062
20
2545.07642121891
30
0.000717548099945547
11
-4118.55231981928
21
2544.55878304102
31
0.000717156530786806
  0
LINE
 8
GROUP0
10
-4093.35251702155
20
2571.07635935996
30
0.000774332243504389
11
-4093.55231848725
21
2570.59399770727
31
0.000773626730483229
  0
LINE
 8
GROUP0
10
-4118.55231848712
20
2545.59405922141
30
0.000718115991163287
11
-4118.62046750062
21
2545.07642121891
31
0.000717548099945547
  0
LINE
 8
GROUP0
10
-4114.62046750069
20
2545.0764160718
30
0.000722722758786376
11
-4114.68861518203
21
2545.59405424969
31
0.000723114327945823
  0
LINE
 8
GROUP0
10
-4115.62046527192
20
2546.80846816612
30
0.000723034302616915
11
-4116.1028269246
21
2547.00826963182
31
0.00072259545700209
  0
LINE
 8
GROUP0
10
-4093.0346828829
20
2568.66214538861
30
0.000772506003183287
11
-4092.62046972951
21
2568.34430761041
31
0.000772747295434245
  0
LINE
 8
GROUP0
10
-4114.68861518203
20
2545.59405424969
30
0.000723114327945823
11
-4114.88841540635
21
2546.07641641658
31
0.00072330288991847
  0
LINE
 8
GROUP0
10
-4114.88841797989
20
2544.07641641661
30
0.000721449354818898
11
-4114.68861651421
21
2544.5587780693
31
0.000722154867478397
  0
LINE
 8
GROUP0
10
-4093.55231981942
20
2569.55872152686
30
0.000772667270106042
11
-4093.3525195951
21
2569.07635935996
31
0.000772478708043861
  0
LINE
 8
GROUP0
10
-4090.20625575816
20
2568.66214174905
30
0.00077616503958487
11
-4089.88841797997
21
2569.07635490244
31
0.000776960094229079
  0
LINE
 8
GROUP0
10
-4118.35251702142
20
2546.0764208741
30
0.000718821503913025
11
-4118.55231848712
21
2545.59405922141
31
0.000718115991163287
  0
LINE
 8
GROUP0
10
-4118.35251959497
20
2544.07642087414
30
0.000716967968723919
11
-4118.03468288278
21
2543.66220690279
31
0.000716995264134063
  0
LINE
 8
GROUP0
10
-4093.55231848725
20
2570.59399770727
30
0.000773626730483229
11
-4093.62046750075
21
2570.07635970475
31
0.000773058839264784
  0
LINE
 8
GROUP0
10
-4114.68861651421
20
2544.5587780693
30
0.000722154867478397
11
-4114.62046750069
21
2545.0764160718
31
0.000722722758786376
  0
LINE
 8
GROUP0
10
-4116.10283189631
20
2543.14456632673
30
0.00071901470229197
11
-4115.62046972944
21
2543.34436655104
31
0.000719823885489951
  0
LINE
 8
GROUP0
10
-4090.62046972952
20
2568.34430503686
30
0.000775334624809892
11
-4090.20625575816
21
2568.66214174905
31
0.00077616503958487
  0
LINE
 8
GROUP0
10
-4092.13810807682
20
2568.14450614471
30
0.000773186141049775
11
-4091.62047007431
21
2568.0763571312
31
0.000773792633541565
  0
LINE
 8
GROUP0
10
-4116.62046492711
20
2547.07641864532
30
0.000721988964510301
11
-4117.138103105
21
2547.00827096398
31
0.00072125615671067
  0
LINE
 8
GROUP0
10
-4093.62046750075
20
2570.07635970475
30
0.000773058839264784
11
-4093.55231981942
21
2569.55872152686
31
0.000772667270106042
  0
LINE
 8
GROUP0
10
-4115.20625211853
20
2546.49063038793
30
0.000723275594868578
11
-4115.62046527192
21
2546.80846816612
31
0.000723034302616915
  0
LINE
 8
GROUP0
10
-4115.20625575808
20
2543.66220326323
30
0.00072065430053494
11
-4114.88841797989
21
2544.07641641661
31
0.000721449354818898
  0
LINE
 8
GROUP0
10
-4115.62046972944
20
2543.34436655104
30
0.000719823885489951
11
-4115.20625575808
21
2543.66220326323
31
0.00072065430053494
  0
LINE
 8
GROUP0
10
-4118.03467924323
20
2546.49063402748
30
0.000719616558467701
11
-4118.35251702142
21
2546.0764208741
31
0.000718821503913025
  0
LINE
 8
GROUP0
10
-4117.138103105
20
2547.00827096398
30
0.00072125615671067
11
-4117.62046527188
21
2546.80847073967
31
0.000720446973151734
  0
LINE
 8
GROUP0
10
-4091.62047007431
20
2568.0763571312
30
0.000773792633541565
11
-4091.10283189641
21
2568.14450481254
31
0.00077452544134049
  0
LINE
 8
GROUP0
10
-4093.35251702151
20
2546.07635935998
30
0.00075116309513179
11
-4093.55231848721
21
2545.59399770728
31
0.000750457582471586
  0
LINE
 8
GROUP0
10
-4093.03468288284
20
2518.66214538864
30
0.000726167706979525
11
-4092.62046972944
21
2518.34430761044
31
0.000726408999231187
  0
LINE
 8
GROUP0
10
-4091.10282692466
20
2547.0082081177
30
0.000754937048310389
11
-4091.62046492716
21
2547.07635713121
31
0.0007543305558186
  0
LINE
 8
GROUP0
10
-4092.13810310503
20
2522.00820944989
30
0.000730428599917793
11
-4092.62046527192
21
2521.80840922557
31
0.000729619416268618
  0
LINE
 8
GROUP0
10
-4090.20625211858
20
2546.49056887381
30
0.000755617186086638
11
-4090.62046527196
21
2546.808406652
31
0.000755375893925919
  0
LINE
 8
GROUP0
10
-4093.55231848721
20
2545.59399770728
30
0.000750457582471586
11
-4093.62046750072
21
2545.07635970477
31
0.000749889691073369
  0
LINE
 8
GROUP0
10
-4092.62046527192
20
2521.80840922557
30
0.000729619416268618
11
-4093.03467924329
21
2521.49057251338
31
0.000728789001583879
  0
LINE
 8
GROUP0
10
-4092.62046972948
20
2543.34430761043
30
0.000749578147333069
11
-4092.13810807678
21
2543.14450614473
31
0.000750016993218611
  0
LINE
 8
GROUP0
10
-4090.62046972948
20
2543.34430503687
30
0.00075216547679825
11
-4090.20625575813
21
2543.66214174907
31
0.000752995891753705
  0
LINE
 8
GROUP0
10
-4089.68861518207
20
2545.59399273556
30
0.000755455919163883
11
-4089.88841540639
21
2546.07635490245
31
0.000755644481226769
  0
LINE
 8
GROUP0
10
-4089.88841797993
20
2544.07635490245
30
0.000753790946036958
11
-4089.68861651423
21
2544.55871655515
31
0.000754496458786696
  0
LINE
 8
GROUP0
10
-4093.55231981938
20
2544.55872152687
30
0.000749498122004866
11
-4093.35251959506
21
2544.07635935998
31
0.00074930955994198
  0
LINE
 8
GROUP0
10
-4093.03468288287
20
2543.66214538862
30
0.000749336855352123
11
-4092.62046972948
21
2543.34430761043
31
0.000749578147333069
  0
LINE
 8
GROUP0
10
-4093.35251959506
20
2544.07635935998
30
0.00074930955994198
11
-4093.03468288287
21
2543.66214538862
31
0.000749336855352123
  0
LINE
 8
GROUP0
10
-4091.62046492716
20
2547.07635713121
30
0.0007543305558186
11
-4092.13810310507
21
2547.00820944987
31
0.000753597747929435
  0
LINE
 8
GROUP0
10
-4089.62046750073
20
2545.07635455766
30
0.00075506435009538
11
-4089.68861518207
21
2545.59399273556
31
0.000755455919163883
  0
LINE
 8
GROUP0
10
-4091.62047007427
20
2543.07635713122
30
0.000750623485439683
11
-4091.10283189638
21
2543.14450481256
31
0.000751356293509325
  0
LINE
 8
GROUP0
10
-4089.68861651423
20
2544.55871655515
30
0.000754496458786696
11
-4089.62046750073
21
2545.07635455766
31
0.00075506435009538
  0
LINE
 8
GROUP0
10
-4090.62046527196
20
2546.808406652
30
0.000755375893925919
11
-4091.10282692466
21
2547.0082081177
31
0.000754937048310389
  0
LINE
 8
GROUP0
10
-4117.1381080767
20
2543.1445676589
30
0.000717675402001255
11
-4116.6204700742
21
2543.07641864539
31
0.000718281894221623
  0
LINE
 8
GROUP0
10
-4117.6204697294
20
2543.3443691246
30
0.000717236556115008
11
-4117.1381080767
21
2543.1445676589
31
0.000717675402001255
  0
LINE
 8
GROUP0
10
-4091.10283189638
20
2543.14450481256
30
0.000751356293509325
11
-4090.62046972948
21
2543.34430503687
31
0.00075216547679825
  0
LINE
 8
GROUP0
10
-4093.03467924332
20
2546.49057251336
30
0.000751958149685056
11
-4093.35251702151
21
2546.07635935998
31
0.00075116309513179
  0
LINE
 8
GROUP0
10
-4116.6204700742
20
2543.07641864539
30
0.000718281894221623
11
-4116.10283189631
21
2543.14456632673
31
0.00071901470229197
  0
LINE
 8
GROUP0
10
-4118.03468288278
20
2543.66220690279
30
0.000716995264134063
11
-4117.6204697294
21
2543.3443691246
31
0.000717236556115008
  0
LINE
 8
GROUP0
10
-4091.62046492713
20
2522.07635713123
30
0.000731161407626479
11
-4092.13810310503
21
2522.00820944989
31
0.000730428599917793
  0
LINE
 8
GROUP0
10
-4093.03467924329
20
2521.49057251338
30
0.000728789001583879
11
-4093.35251702148
21
2521.07635935999
31
0.000727993947300626
  0
LINE
 8
GROUP0
10
-4092.13810310507
20
2547.00820944987
30
0.000753597747929435
11
-4092.62046527196
21
2546.80840922556
31
0.000752788564460033
  0
LINE
 8
GROUP0
10
-4089.88841540639
20
2546.07635490245
30
0.000755644481226769
11
-4090.20625211858
21
2546.49056887381
31
0.000755617186086638
  0
LINE
 8
GROUP0
10
-4092.13810807678
20
2543.14450614473
30
0.000750016993218611
11
-4091.62047007427
21
2543.07635713122
31
0.000750623485439683
  0
LINE
 8
GROUP0
10
-4090.20625575813
20
2543.66214174907
30
0.000752995891753705
11
-4089.88841797993
21
2544.07635490245
31
0.000753790946036958
  0
LINE
 8
GROUP0
10
-4093.62046750072
20
2545.07635970477
30
0.000749889691073369
11
-4093.55231981938
21
2544.55872152687
31
0.000749498122004866
  0
LINE
 8
GROUP0
10
-4089.68861651419
20
2519.55871655516
30
0.000731327310594576
11
-4089.62046750069
21
2520.07635455768
31
0.000731895202083738
  0
LINE
 8
GROUP0
10
-4115.2062521185
20
2521.49063038794
30
0.000700106446766696
11
-4115.62046527188
21
2521.80846816613
31
0.000699865154605273
  0
LINE
 8
GROUP0
10
-4093.35251959503
20
2519.07635935999
30
0.000726140411840098
11
-4093.03468288284
21
2518.66214538864
31
0.000726167706979525
  0
LINE
 8
GROUP0
10
-4089.62046750069
20
2520.07635455768
30
0.000731895202083738
11
-4089.68861518203
21
2520.59399273557
31
0.000732286771332719
  0
LINE
 8
GROUP0
10
-4092.13810807675
20
2518.14450614474
30
0.000726847844846717
11
-4091.62047007424
21
2518.07635713123
31
0.000727454337338507
  0
LINE
 8
GROUP0
10
-4089.8884179799
20
2519.07635490247
30
0.000730621798025316
11
-4089.68861651419
21
2519.55871655516
31
0.000731327310594576
  0
LINE
 8
GROUP0
10
-4093.35251702148
20
2521.07635935999
30
0.000727993947300626
11
-4093.55231848717
21
2520.59399770729
31
0.000727288434550183
  0
LINE
 8
GROUP0
10
-4118.55231981925
20
2519.55878304104
30
0.000693987382865402
11
-4118.35251959493
21
2519.07642087415
31
0.000693798820622038
  0
LINE
 8
GROUP0
10
-4093.55231981934
20
2519.55872152689
30
0.000726328973993223
11
-4093.35251959503
21
2519.07635935999
31
0.000726140411840098
  0
LINE
 8
GROUP0
10
-4090.62046527193
20
2521.80840665202
30
0.000732206745824038
11
-4091.10282692462
21
2522.00820811772
31
0.000731767900118269
  0
LINE
 8
GROUP0
10
-4091.10283189634
20
2518.14450481257
30
0.000728187145137432
11
-4090.62046972945
21
2518.34430503689
31
0.00072899632860613
  0
LINE
 8
GROUP0
10
-4090.62046972945
20
2518.34430503689
30
0.00072899632860613
11
-4090.20625575809
21
2518.66214174908
31
0.000729826743381107
  0
LINE
 8
GROUP0
10
-4118.35251702138
20
2521.07642087411
30
0.000695652356081861
11
-4118.55231848708
21
2520.59405922143
31
0.000694946843422362
  0
LINE
 8
GROUP0
10
-4118.03467924319
20
2521.49063402749
30
0.00069644741027558
11
-4118.35251702138
21
2521.07642087411
31
0.000695652356081861
  0
LINE
 8
GROUP0
10
-4093.55231848717
20
2520.59399770729
30
0.000727288434550183
11
-4093.62046750068
21
2520.07635970478
31
0.000726720543061726
  0
LINE
 8
GROUP0
10
-4118.35251959493
20
2519.07642087415
30
0.000693798820622038
11
-4118.03468288274
21
2518.6622069028
31
0.000693826115762169
  0
LINE
 8
GROUP0
10
-4090.20625575809
20
2518.66214174908
30
0.000729826743381107
11
-4089.8884179799
21
2519.07635490247
31
0.000730621798025316
  0
LINE
 8
GROUP0
10
-4091.62047007424
20
2518.07635713123
30
0.000727454337338507
11
-4091.10283189634
21
2518.14450481257
31
0.000728187145137432
  0
LINE
 8
GROUP0
10
-4089.88841540635
20
2521.07635490247
30
0.000732475333395605
11
-4090.20625211854
21
2521.49056887382
31
0.0007324480380757
  0
LINE
 8
GROUP0
10
-4117.62046527184
20
2521.80847073968
30
0.000697277825049852
11
-4118.03467924319
21
2521.49063402749
31
0.00069644741027558
  0
LINE
 8
GROUP0
10
-4092.62046972944
20
2518.34430761044
30
0.000726408999231187
11
-4092.13810807675
21
2518.14450614474
31
0.000726847844846717
  0
LINE
 8
GROUP0
10
-4089.68861518203
20
2520.59399273557
30
0.000732286771332719
11
-4089.88841540635
21
2521.07635490247
31
0.000732475333395605
  0
LINE
 8
GROUP0
10
-4091.10282692462
20
2522.00820811772
30
0.000731767900118269
11
-4091.62046492713
21
2522.07635713123
31
0.000731161407626479
  0
LINE
 8
GROUP0
10
-4090.20625211854
20
2521.49056887382
30
0.0007324480380757
11
-4090.62046527193
21
2521.80840665202
31
0.000732206745824038
  0
LINE
 8
GROUP0
10
-4118.55231848708
20
2520.59405922143
30
0.000694946843422362
11
-4118.62046750058
21
2520.07642121892
31
0.000694378951843666
  0
LINE
 8
GROUP0
10
-4118.62046750058
20
2520.07642121892
30
0.000694378951843666
11
-4118.55231981925
21
2519.55878304104
31
0.000693987382865402
  0
LINE
 8
GROUP0
10
-4117.13810310497
20
2522.008270964
30
0.000698087008609494
11
-4117.62046527184
21
2521.80847073968
31
0.000697277825049852
  0
LINE
 8
GROUP0
10
-4093.62046750068
20
2520.07635970478
30
0.000726720543061726
11
-4093.55231981934
21
2519.55872152689
31
0.000726328973993223
  0
LINE
 8
GROUP0
10
-4116.62046492707
20
2522.07641864533
30
0.000698819816499363
11
-4117.13810310497
21
2522.008270964
31
0.000698087008609494
  0
LINE
 8
GROUP0
10
-4115.62046527188
20
2521.80846816613
30
0.000699865154605273
11
-4116.10282692457
21
2522.00826963183
31
0.000699426308900913
  0
LINE
 8
GROUP0
10
-4116.10282692457
20
2522.00826963183
30
0.000699426308900913
11
-4116.62046492707
21
2522.07641864533
31
0.000698819816499363
  0
LINE
 8
GROUP0
10
-4118.62046750055
20
2495.07642121894
30
0.000671209803741785
11
-4118.55231981922
21
2494.55878304105
31
0.000670818234583043
  0
LINE
 8
GROUP0
10
-4115.62046972936
20
2493.34436655107
30
0.000673485589286893
11
-4115.20625575801
21
2493.66220326326
31
0.000674316004061165
  0
LINE
 8
GROUP0
10
-4089.62046750066
20
2495.07635455769
30
0.000708726053891617
11
-4089.68861518199
21
2495.59399273559
31
0.00070911762296012
  0
LINE
 8
GROUP0
10
-4116.10282692453
20
2497.00826963184
30
0.000676257160799032
11
-4116.62046492704
21
2497.07641864535
31
0.000675650668307243
  0
LINE
 8
GROUP0
10
-4114.68861651417
20
2519.55877806932
30
0.000698985719376516
11
-4114.62046750066
21
2520.07641607182
31
0.000699553610774734
  0
LINE
 8
GROUP0
10
-4114.88841540631
20
2521.07641641659
30
0.000700133742177544
11
-4115.2062521185
21
2521.49063038794
31
0.000700106446766696
  0
LINE
 8
GROUP0
10
-4114.62046750066
20
2520.07641607182
30
0.000699553610774734
11
-4114.68861518199
21
2520.59405424971
31
0.000699945180114658
  0
LINE
 8
GROUP0
10
-4116.62047007417
20
2518.07641864541
30
0.000695112746119741
11
-4116.10283189628
21
2518.14456632674
31
0.000695845553919372
  0
LINE
 8
GROUP0
10
-4118.55231981922
20
2494.55878304105
30
0.000670818234583043
11
-4118.3525195949
21
2494.07642087416
31
0.000670629672520862
  0
LINE
 8
GROUP0
10
-4118.03468288274
20
2518.6622069028
30
0.000693826115762169
11
-4117.62046972936
21
2518.34436912461
31
0.000694067407922888
  0
LINE
 8
GROUP0
10
-4118.55231848705
20
2495.59405922144
30
0.000671777694960229
11
-4118.62046750055
21
2495.07642121894
31
0.000671209803741785
  0
LINE
 8
GROUP0
10
-4118.3525195949
20
2494.07642087416
30
0.000670629672520862
11
-4118.03468288272
21
2493.66220690281
31
0.000670656967660288
  0
LINE
 8
GROUP0
10
-4118.03467924317
20
2496.49063402751
30
0.000673278262263938
11
-4118.35251702135
21
2496.07642087413
31
0.000672483207709262
  0
LINE
 8
GROUP0
10
-4118.35251702135
20
2496.07642087413
30
0.000672483207709262
11
-4118.55231848705
21
2495.59405922144
31
0.000671777694960229
  0
LINE
 8
GROUP0
10
-4115.20625575801
20
2493.66220326326
30
0.000674316004061165
11
-4114.88841797982
21
2494.07641641664
31
0.000675111058615135
  0
LINE
 8
GROUP0
10
-4115.20625575805
20
2518.66220326325
30
0.000697485152253285
11
-4114.88841797986
21
2519.07641641663
31
0.000698280206717017
  0
LINE
 8
GROUP0
10
-4116.10283189625
20
2493.14456632676
30
0.000672676406088207
11
-4115.62046972936
21
2493.34436655107
31
0.000673485589286893
  0
LINE
 8
GROUP0
10
-4116.10283189628
20
2518.14456632674
30
0.000695845553919372
11
-4115.6204697294
21
2518.34436655106
31
0.000696654737479013
  0
LINE
 8
GROUP0
10
-4117.13810807667
20
2518.14456765891
30
0.000694506253628657
11
-4116.62047007417
21
2518.07641864541
31
0.000695112746119741
  0
LINE
 8
GROUP0
10
-4114.68861518199
20
2520.59405424971
30
0.000699945180114658
11
-4114.88841540631
21
2521.07641641659
31
0.000700133742177544
  0
LINE
 8
GROUP0
10
-4114.88841797986
20
2519.07641641663
30
0.000698280206717017
11
-4114.68861651417
21
2519.55877806932
31
0.000698985719376516
  0
LINE
 8
GROUP0
10
-4114.88841797982
20
2494.07641641664
30
0.000675111058615135
11
-4114.68861651413
21
2494.55877806933
31
0.000675816571274634
  0
LINE
 8
GROUP0
10
-4114.68861651413
20
2494.55877806933
30
0.000675816571274634
11
-4114.62046750062
21
2495.07641607184
31
0.000676384462582613
  0
LINE
 8
GROUP0
10
-4116.62046492704
20
2497.07641864535
30
0.000675650668307243
11
-4117.13810310493
21
2497.00827096401
31
0.000674917860507612
  0
LINE
 8
GROUP0
10
-4115.6204697294
20
2518.34436655106
30
0.000696654737479013
11
-4115.20625575805
21
2518.66220326325
31
0.000697485152253285
  0
LINE
 8
GROUP0
10
-4115.20625211846
20
2496.49063038796
30
0.000676937298664815
11
-4115.62046527185
21
2496.80846816615
31
0.000676696006413857
  0
LINE
 8
GROUP0
10
-4117.62046527181
20
2496.8084707397
30
0.000674108676947971
11
-4118.03467924317
21
2496.49063402751
31
0.000673278262263938
  0
LINE
 8
GROUP0
10
-4117.13810310493
20
2497.00827096401
30
0.000674917860507612
11
-4117.62046527181
21
2496.8084707397
31
0.000674108676947971
  0
LINE
 8
GROUP0
10
-4115.62046527185
20
2496.80846816615
30
0.000676696006413857
11
-4116.10282692453
21
2497.00826963184
31
0.000676257160799032
  0
LINE
 8
GROUP0
10
-4114.68861518196
20
2495.59405424972
30
0.000676776031742765
11
-4114.88841540627
21
2496.07641641661
31
0.000676964593804946
  0
LINE
 8
GROUP0
10
-4117.62046972936
20
2518.34436912461
30
0.000694067407922888
11
-4117.13810807667
21
2518.14456765891
31
0.000694506253628657
  0
LINE
 8
GROUP0
10
-4114.88841540627
20
2496.07641641661
30
0.000676964593804946
11
-4115.20625211846
21
2496.49063038796
31
0.000676937298664815
  0
LINE
 8
GROUP0
10
-4114.62046750062
20
2495.07641607184
30
0.000676384462582613
11
-4114.68861518196
21
2495.59405424972
31
0.000676776031742765
  0
LINE
 8
GROUP0
10
-4118.35251959486
20
2469.07642087418
30
0.00064746052441898
11
-4118.03468288268
21
2468.66220690283
31
0.000647487819558407
  0
LINE
 8
GROUP0
10
-4118.55231981918
20
2469.55878304106
30
0.0006476490865714
11
-4118.35251959486
21
2469.07642087418
31
0.00064746052441898
  0
LINE
 8
GROUP0
10
-4092.13810807671
20
2493.14450614475
30
0.000703678697015553
11
-4091.62047007421
21
2493.07635713125
31
0.000704285189236625
  0
LINE
 8
GROUP0
10
-4090.20625575805
20
2493.6621417491
30
0.00070665759527993
11
-4089.88841797986
21
2494.07635490248
31
0.000707452649833196
  0
LINE
 8
GROUP0
10
-4090.62046972941
20
2493.3443050369
30
0.000705827180595192
11
-4090.20625575805
21
2493.6621417491
31
0.00070665759527993
  0
LINE
 8
GROUP0
10
-4116.62047007414
20
2493.07641864542
30
0.00067194359801786
11
-4116.10283189625
21
2493.14456632676
31
0.000672676406088207
  0
LINE
 8
GROUP0
10
-4117.62046527177
20
2471.80847073971
30
0.000650939528846089
11
-4118.03467924313
21
2471.49063402752
31
0.000650109114071817
  0
LINE
 8
GROUP0
10
-4089.68861651416
20
2494.55871655518
30
0.000708158162582934
11
-4089.62046750066
21
2495.07635455769
31
0.000708726053891617
  0
LINE
 8
GROUP0
10
-4089.88841540631
20
2496.07635490248
30
0.000709306185023006
11
-4090.2062521185
21
2496.49056887384
31
0.00070927888988358
  0
LINE
 8
GROUP0
10
-4118.03468288272
20
2493.66220690281
30
0.000670656967660288
11
-4117.62046972932
21
2493.34436912462
31
0.000670898259911246
  0
LINE
 8
GROUP0
10
-4117.13810807663
20
2493.14456765893
30
0.000671337105797493
11
-4116.62047007414
21
2493.07641864542
31
0.00067194359801786
  0
LINE
 8
GROUP0
10
-4090.2062521185
20
2496.49056887384
30
0.00070927888988358
11
-4090.62046527189
21
2496.80840665203
31
0.000709037597722156
  0
LINE
 8
GROUP0
10
-4093.35251702144
20
2496.07635936
30
0.000704824798928028
11
-4093.55231848714
21
2495.59399770731
31
0.000704119286267824
  0
LINE
 8
GROUP0
10
-4117.62046972932
20
2493.34436912462
30
0.000670898259911246
11
-4117.13810807663
21
2493.14456765893
31
0.000671337105797493
  0
LINE
 8
GROUP0
10
-4118.62046750051
20
2470.07642121895
30
0.000648040655820381
11
-4118.55231981918
21
2469.55878304106
31
0.0006476490865714
  0
LINE
 8
GROUP0
10
-4118.55231848701
20
2470.59405922146
30
0.000648608547219304
11
-4118.62046750051
21
2470.07642121895
31
0.000648040655820381
  0
LINE
 8
GROUP0
10
-4092.138103105
20
2497.0082094499
30
0.000707259451726377
11
-4092.62046527189
21
2496.80840922559
31
0.000706450268256975
  0
LINE
 8
GROUP0
10
-4091.62047007421
20
2493.07635713125
30
0.000704285189236625
11
-4091.10283189631
21
2493.14450481258
31
0.000705017997306268
  0
LINE
 8
GROUP0
10
-4092.62046527189
20
2496.80840922559
30
0.000706450268256975
11
-4093.03467924325
21
2496.49057251339
31
0.000705619853481998
  0
LINE
 8
GROUP0
10
-4091.6204649271
20
2497.07635713124
30
0.000707992259615542
11
-4092.138103105
21
2497.0082094499
31
0.000707259451726377
  0
LINE
 8
GROUP0
10
-4093.03467924325
20
2496.49057251339
30
0.000705619853481998
11
-4093.35251702144
21
2496.07635936
31
0.000704824798928028
  0
LINE
 8
GROUP0
10
-4092.62046972941
20
2493.34430761045
30
0.000703239851129306
11
-4092.13810807671
21
2493.14450614475
31
0.000703678697015553
  0
LINE
 8
GROUP0
10
-4093.0346828828
20
2493.66214538865
30
0.000702998558877643
11
-4092.62046972941
21
2493.34430761045
31
0.000703239851129306
  0
LINE
 8
GROUP0
10
-4089.68861518199
20
2495.59399273559
30
0.00070911762296012
11
-4089.88841540631
21
2496.07635490248
31
0.000709306185023006
  0
LINE
 8
GROUP0
10
-4089.88841797986
20
2494.07635490248
30
0.000707452649833196
11
-4089.68861651416
21
2494.55871655518
31
0.000708158162582934
  0
LINE
 8
GROUP0
10
-4093.35251959499
20
2494.07635936001
30
0.000702971263738217
11
-4093.0346828828
21
2493.66214538865
31
0.000702998558877643
  0
LINE
 8
GROUP0
10
-4090.62046527189
20
2496.80840665203
30
0.000709037597722156
11
-4091.10282692459
21
2497.00820811773
31
0.000708598752106626
  0
LINE
 8
GROUP0
10
-4093.55231981931
20
2494.5587215269
30
0.000703159825801103
11
-4093.35251959499
21
2494.07635936001
31
0.000702971263738217
  0
LINE
 8
GROUP0
10
-4091.10282692459
20
2497.00820811773
30
0.000708598752106626
11
-4091.6204649271
21
2497.07635713124
31
0.000707992259615542
  0
LINE
 8
GROUP0
10
-4091.10283189631
20
2493.14450481258
30
0.000705017997306268
11
-4090.62046972941
21
2493.3443050369
31
0.000705827180595192
  0
LINE
 8
GROUP0
10
-4093.62046750065
20
2495.0763597048
30
0.000703551394869606
11
-4093.55231981931
21
2494.5587215269
31
0.000703159825801103
  0
LINE
 8
GROUP0
10
-4093.55231848714
20
2495.59399770731
30
0.000704119286267824
11
-4093.62046750065
21
2495.0763597048
31
0.000703551394869606
  0
LINE
 8
GROUP0
10
-4117.62046972929
20
2468.34436912464
30
0.000647729111719125
11
-4117.1381080766
21
2468.14456765894
31
0.000648167957424894
  0
LINE
 8
GROUP0
10
-4118.03468288268
20
2468.66220690283
30
0.000647487819558407
11
-4117.62046972929
21
2468.34436912464
31
0.000647729111719125
  0
LINE
 8
GROUP0
10
-4114.88841797979
20
2469.07641641666
30
0.000651941910513254
11
-4114.68861651409
21
2469.55877806935
31
0.000652647423353231
  0
LINE
 8
GROUP0
10
-4089.62046750063
20
2470.07635455771
30
0.000685556906060453
11
-4089.68861518196
21
2470.5939927356
31
0.000685948475129661
  0
LINE
 8
GROUP0
10
-4114.68861518193
20
2470.59405424974
30
0.0006536068839116
11
-4114.88841540624
21
2471.07641641662
31
0.000653795445973782
  0
LINE
 8
GROUP0
10
-4090.62046527186
20
2471.80840665205
30
0.00068586844962098
11
-4091.10282692455
21
2472.00820811775
31
0.000685429603915211
  0
LINE
 8
GROUP0
10
-4093.03468288276
20
2468.66214538867
30
0.000679829410776467
11
-4092.62046972937
21
2468.34430761047
31
0.000680070703027424
  0
LINE
 8
GROUP0
10
-4116.1028269245
20
2472.00826963186
30
0.000653088012697151
11
-4116.620464927
21
2472.07641864536
31
0.0006524815202956
  0
LINE
 8
GROUP0
10
-4115.20625211843
20
2471.49063038797
30
0.000653768150562933
11
-4115.62046527181
21
2471.80846816616
31
0.000653526858402215
  0
LINE
 8
GROUP0
10
-4118.03467924313
20
2471.49063402752
30
0.000650109114071817
11
-4118.35251702131
21
2471.07642087414
31
0.000649314059878803
  0
LINE
 8
GROUP0
10
-4115.62046527181
20
2471.80846816616
30
0.000653526858402215
11
-4116.1028269245
21
2472.00826963186
31
0.000653088012697151
  0
LINE
 8
GROUP0
10
-4116.6204700741
20
2468.07641864544
30
0.000648774449915979
11
-4116.10283189621
21
2468.14456632677
31
0.000649507257715609
  0
LINE
 8
GROUP0
10
-4115.62046972933
20
2468.34436655109
30
0.00065031644127525
11
-4115.20625575798
21
2468.66220326328
31
0.000651146856049523
  0
LINE
 8
GROUP0
10
-4116.620464927
20
2472.07641864536
30
0.0006524815202956
11
-4117.13810310489
21
2472.00827096403
31
0.000651748712405731
  0
LINE
 8
GROUP0
10
-4114.62046750059
20
2470.07641607185
30
0.000653215314842392
11
-4114.68861518193
21
2470.59405424974
31
0.0006536068839116
  0
LINE
 8
GROUP0
10
-4116.10283189621
20
2468.14456632677
30
0.000649507257715609
11
-4115.62046972933
21
2468.34436655109
31
0.00065031644127525
  0
LINE
 8
GROUP0
10
-4118.35251702131
20
2471.07642087414
30
0.000649314059878803
11
-4118.55231848701
21
2470.59405922146
31
0.000648608547219304
  0
LINE
 8
GROUP0
10
-4089.68861518196
20
2470.5939927356
30
0.000685948475129661
11
-4089.88841540627
21
2471.0763549025
31
0.000686137037191842
  0
LINE
 8
GROUP0
10
-4092.62046527185
20
2471.8084092256
30
0.000683281120064855
11
-4093.03467924321
21
2471.49057251341
31
0.000682450705380117
  0
LINE
 8
GROUP0
10
-4114.68861651409
20
2469.55877806935
30
0.000652647423353231
11
-4114.62046750059
21
2470.07641607185
31
0.000653215314842392
  0
LINE
 8
GROUP0
10
-4089.88841540627
20
2471.0763549025
30
0.000686137037191842
11
-4090.20625211847
21
2471.49056887385
31
0.000686109741871937
  0
LINE
 8
GROUP0
10
-4091.62046492706
20
2472.07635713126
30
0.000684823111423421
11
-4092.13810310496
21
2472.00820944992
31
0.000684090303714735
  0
LINE
 8
GROUP0
10
-4089.88841797982
20
2469.0763549025
30
0.000684283501821553
11
-4089.68861651412
21
2469.55871655519
31
0.000684989014390813
  0
LINE
 8
GROUP0
10
-4114.88841540624
20
2471.07641641662
30
0.000653795445973782
11
-4115.20625211843
21
2471.49063038797
31
0.000653768150562933
  0
LINE
 8
GROUP0
10
-4117.1381080766
20
2468.14456765894
30
0.000648167957424894
11
-4116.6204700741
21
2468.07641864544
31
0.000648774449915979
  0
LINE
 8
GROUP0
10
-4091.10282692455
20
2472.00820811775
30
0.000685429603915211
11
-4091.62046492706
21
2472.07635713126
31
0.000684823111423421
  0
LINE
 8
GROUP0
10
-4115.20625575798
20
2468.66220326328
30
0.000651146856049523
11
-4114.88841797979
21
2469.07641641666
31
0.000651941910513254
  0
LINE
 8
GROUP0
10
-4092.13810310496
20
2472.00820944992
30
0.000684090303714735
11
-4092.62046527185
21
2471.8084092256
31
0.000683281120064855
  0
LINE
 8
GROUP0
10
-4093.03467924321
20
2471.49057251341
30
0.000682450705380117
11
-4093.3525170214
21
2471.07635936002
31
0.000681655651096863
  0
LINE
 8
GROUP0
10
-4090.20625211847
20
2471.49056887385
30
0.000686109741871937
11
-4090.62046527186
21
2471.80840665205
31
0.00068586844962098
  0
LINE
 8
GROUP0
10
-4117.13810310489
20
2472.00827096403
30
0.000651748712405731
11
-4117.62046527177
21
2471.80847073971
31
0.000650939528846089
  0
LINE
 8
GROUP0
10
-4089.68861651412
20
2469.55871655519
30
0.000684989014390813
11
-4089.62046750063
21
2470.07635455771
31
0.000685556906060453
  0
LINE
 8
GROUP0
10
-4426.20670974173
20
2443.66272267433
30
0.000222788823753395
11
-4425.88887235191
21
2444.07693612564
31
0.000223583878160022
  0
LINE
 8
GROUP0
10
-4426.2067087539
20
2446.49114979868
30
0.00022541011494136
11
-4426.6209222052
21
2446.8089871885
31
0.000225168821929012
  0
LINE
 8
GROUP0
10
-4425.68907133846
20
2444.55929796558
30
0.000224289390404281
11
-4425.62092281026
21
2445.07693603192
31
0.000224857281161661
  0
LINE
 8
GROUP0
10
-4429.35297396656
20
2444.07693733548
30
0.000219102489038514
11
-4429.03513686608
21
2443.66272366216
31
0.000219129784967531
  0
LINE
 8
GROUP0
10
-4403.1385602255
20
2447.00872704958
30
0.00025573226570888
11
-4403.62092220507
21
2446.80892637305
31
0.000254923082030095
  0
LINE
 8
GROUP0
10
-4401.20670974161
20
2443.66266116003
30
0.000255130415062399
11
-4400.88887235176
21
2444.07687461139
31
0.000255925469287138
  0
LINE
 8
GROUP0
10
-4428.62092341476
20
2443.34488627234
30
0.000219371077888231
11
-4428.13856157482
21
2443.14508525889
31
0.000219809924209458
  0
LINE
 8
GROUP0
10
-4429.03513686608
20
2443.66272366216
30
0.000219129784967531
11
-4428.62092341476
21
2443.34488627234
31
0.000219371077888231
  0
LINE
 8
GROUP0
10
-4427.10328539456
20
2443.14508489732
30
0.000221149225416661
11
-4426.62092341504
21
2443.34488557384
31
0.000221958409096856
  0
LINE
 8
GROUP0
10
-4428.13856157482
20
2443.14508525889
30
0.000219809924209458
11
-4427.62092350848
21
2443.0769367307
31
0.000220416417153851
  0
LINE
 8
GROUP0
10
-4425.88887235191
20
2444.07693612564
30
0.000223583878160022
11
-4425.68907133846
21
2444.55929796558
31
0.000224289390404281
  0
LINE
 8
GROUP0
10
-4429.55277464308
20
2444.55929931499
30
0.000219291050320269
11
-4429.35297396656
21
2444.07693733548
31
0.000219102489038514
  0
LINE
 8
GROUP0
10
-4426.62092341504
20
2443.34488557384
30
0.000221958409096856
11
-4426.20670974173
21
2443.66272267433
31
0.000222788823753395
  0
LINE
 8
GROUP0
10
-4427.62092350848
20
2443.0769367307
30
0.000220416417153851
11
-4427.10328539456
21
2443.14508489732
31
0.000221149225416661
  0
LINE
 8
GROUP0
10
-4429.03513587825
20
2446.49115078651
30
0.000221751076064552
11
-4429.35297326806
21
2446.0769373352
31
0.000220956021748869
  0
LINE
 8
GROUP0
10
-4428.62092220492
20
2446.808987887
30
0.000222581490812035
11
-4429.03513587825
21
2446.49115078651
31
0.000221751076064552
  0
LINE
 8
GROUP0
10
-4403.62092220507
20
2446.80892637305
30
0.000254923082030095
11
-4404.03513587843
21
2446.49108927253
31
0.000254092667282613
  0
LINE
 8
GROUP0
10
-4425.68907097689
20
2445.59457414585
30
0.000225248849588622
11
-4425.8888716534
21
2446.07693612536
31
0.000225437410870377
  0
LINE
 8
GROUP0
10
-4429.62092280971
20
2445.07693742892
30
0.000219682618746525
11
-4429.55277464308
21
2444.55929931499
31
0.000219291050320269
  0
LINE
 8
GROUP0
10
-4425.62092281026
20
2445.07693603192
30
0.000224857281161661
11
-4425.68907097689
21
2445.59457414585
31
0.000225248849588622
  0
LINE
 8
GROUP0
10
-4425.8888716534
20
2446.07693612536
30
0.000225437410870377
11
-4426.2067087539
21
2446.49114979868
31
0.00022541011494136
  0
LINE
 8
GROUP0
10
-4401.20670875381
20
2471.49108828467
30
0.000280920854262007
11
-4401.62092220517
21
2471.80892567453
31
0.000280679561249658
  0
LINE
 8
GROUP0
10
-4403.13856157492
20
2443.14502374455
30
0.000252151515428223
11
-4402.62092350852
21
2443.07687521634
31
0.000252758008462151
  0
LINE
 8
GROUP0
10
-4404.35297396678
20
2444.07687582124
30
0.000251444080166335
11
-4404.03513686627
21
2443.66266214787
31
0.000251471376184886
  0
LINE
 8
GROUP0
10
-4400.88887235176
20
2444.07687461139
30
0.000255925469287138
11
-4400.6890713383
21
2444.55923645139
31
0.000256630981622341
  0
LINE
 8
GROUP0
10
-4400.6890713383
20
2444.55923645139
30
0.000256630981622341
11
-4400.62092281009
21
2445.07687451777
31
0.000257198872380426
  0
LINE
 8
GROUP0
10
-4400.88887165326
20
2446.07687461132
30
0.000257779002087732
11
-4401.20670875378
21
2446.49108828469
31
0.000257751706250364
  0
LINE
 8
GROUP0
10
-4402.62092350852
20
2443.07687521634
30
0.000252758008462151
11
-4402.10328539454
21
2443.14502338298
31
0.000253490816545188
  0
LINE
 8
GROUP0
10
-4429.35297326806
20
2446.0769373352
30
0.000220956021748869
11
-4429.55277428151
21
2445.59457549526
31
0.000220250509503905
  0
LINE
 8
GROUP0
10
-4400.68907097673
20
2445.59451263176
30
0.000257590440716443
11
-4400.88887165326
21
2446.07687461132
31
0.000257779002087732
  0
LINE
 8
GROUP0
10
-4403.62092220511
20
2471.80892637303
30
0.000278092230131977
11
-4404.03513587847
21
2471.49108927251
31
0.000277261815384494
  0
LINE
 8
GROUP0
10
-4404.55277428175
20
2445.59451398117
30
0.000252592100631727
11
-4404.62092280996
21
2445.07687591479
31
0.00025202420996388
  0
LINE
 8
GROUP0
10
-4403.13856022554
20
2472.00872704957
30
0.000278901413810762
11
-4403.62092220511
21
2471.80892637303
31
0.000278092230131977
  0
LINE
 8
GROUP0
10
-4402.62092211156
20
2472.0768752162
30
0.000279634221984038
11
-4403.13856022554
21
2472.00872704957
31
0.000278901413810762
  0
LINE
 8
GROUP0
10
-4400.88887165329
20
2471.07687461131
30
0.000280948150460331
11
-4401.20670875381
21
2471.49108828467
31
0.000280920854262007
  0
LINE
 8
GROUP0
10
-4401.62092220514
20
2446.80892567454
30
0.000257510413238016
11
-4402.10328404513
21
2447.00872668801
31
0.000257071566917494
  0
LINE
 8
GROUP0
10
-4400.62092281012
20
2470.07687451776
30
0.000280368020753025
11
-4400.68907097676
21
2470.59451263175
31
0.000280759589178575
  0
LINE
 8
GROUP0
10
-4402.10328404517
20
2472.00872668799
30
0.000280240715019375
11
-4402.62092211156
21
2472.0768752162
31
0.000279634221984038
  0
LINE
 8
GROUP0
10
-4403.62092341492
20
2443.34482475802
30
0.000251712669106291
11
-4403.13856157492
21
2443.14502374455
31
0.000252151515428223
  0
LINE
 8
GROUP0
10
-4400.88887235179
20
2469.07687461137
30
0.000279094617479259
11
-4400.68907133832
21
2469.55923645137
31
0.000279800129814461
  0
LINE
 8
GROUP0
10
-4429.55277428151
20
2445.59457549526
30
0.000220250509503905
11
-4429.62092280971
21
2445.07693742892
31
0.000219682618746525
  0
LINE
 8
GROUP0
10
-4401.62092341498
20
2443.34482405951
30
0.000254300000314211
11
-4401.20670974161
21
2443.66266116003
31
0.000255130415062399
  0
LINE
 8
GROUP0
10
-4402.62092211152
20
2447.07687521622
30
0.0002564650739731
11
-4403.1385602255
21
2447.00872704958
31
0.00025573226570888
  0
LINE
 8
GROUP0
10
-4404.55277464332
20
2444.5592378008
30
0.00025163264153833
11
-4404.35297396678
21
2444.07687582124
31
0.000251444080166335
  0
LINE
 8
GROUP0
10
-4404.03513686627
20
2443.66266214787
30
0.000251471376184886
11
-4403.62092341492
21
2443.34482475802
31
0.000251712669106291
  0
LINE
 8
GROUP0
10
-4402.10328539454
20
2443.14502338298
30
0.000253490816545188
11
-4401.62092341498
21
2443.34482405951
31
0.000254300000314211
  0
LINE
 8
GROUP0
10
-4402.10328404513
20
2447.00872668801
30
0.000257071566917494
11
-4402.62092211152
21
2447.07687521622
31
0.0002564650739731
  0
LINE
 8
GROUP0
10
-4404.35297326829
20
2446.07687582117
30
0.00025329761296693
11
-4404.55277428175
21
2445.59451398117
31
0.000252592100631727
  0
LINE
 8
GROUP0
10
-4400.62092281009
20
2445.07687451777
30
0.000257198872380426
11
-4400.68907097673
21
2445.59451263176
31
0.000257590440716443
  0
LINE
 8
GROUP0
10
-4401.20670875378
20
2446.49108828469
30
0.000257751706250364
11
-4401.62092220514
21
2446.80892567454
31
0.000257510413238016
  0
LINE
 8
GROUP0
10
-4404.03513587843
20
2446.49108927253
30
0.000254092667282613
11
-4404.35297326829
21
2446.07687582117
31
0.00025329761296693
  0
LINE
 8
GROUP0
10
-4404.62092280996
20
2445.07687591479
30
0.00025202420996388
11
-4404.55277464332
21
2444.5592378008
31
0.00025163264153833
  0
LINE
 8
GROUP0
10
-4400.68907097676
20
2470.59451263175
30
0.000280759589178575
11
-4400.88887165329
21
2471.07687461131
31
0.000280948150460331
  0
LINE
 8
GROUP0
10
-4428.13856022545
20
2472.0087885635
30
0.000246559822592701
11
-4428.62092220496
21
2471.80898788699
31
0.000245750638823677
  0
LINE
 8
GROUP0
10
-4402.10328539457
20
2468.14502338296
30
0.000276659964737308
11
-4401.62092341502
21
2468.3448240595
31
0.000277469148416093
  0
LINE
 8
GROUP0
10
-4404.62092281
20
2470.07687591477
30
0.000275193358336479
11
-4404.55277464336
21
2469.55923780078
31
0.000274801789910928
  0
LINE
 8
GROUP0
10
-4425.68907097692
20
2470.59457414583
30
0.000248417997870981
11
-4425.88887165344
21
2471.07693612534
31
0.00024860655924227
  0
LINE
 8
GROUP0
10
-4425.68907133849
20
2469.55929796557
30
0.000247458538505457
11
-4425.62092281029
21
2470.0769360319
31
0.00024802642944402
  0
LINE
 8
GROUP0
10
-4426.62092220524
20
2471.80898718848
30
0.000248337970121132
11
-4427.10328404519
21
2472.00878820193
31
0.000247899123710371
  0
LINE
 8
GROUP0
10
-4400.68907133832
20
2469.55923645137
30
0.000279800129814461
11
-4400.62092281012
21
2470.07687451776
31
0.000280368020753025
  0
LINE
 8
GROUP0
10
-4426.62092341508
20
2468.34488557382
30
0.000245127557198033
11
-4426.20670974176
21
2468.66272267431
31
0.000245957971945515
  0
LINE
 8
GROUP0
10
-4404.55277464336
20
2469.55923780078
30
0.000274801789910928
11
-4404.35297396682
21
2469.07687582122
31
0.000274613228358456
  0
LINE
 8
GROUP0
10
-4402.62092350856
20
2468.07687521633
30
0.000275927156473793
11
-4402.10328539457
21
2468.14502338296
31
0.000276659964737308
  0
LINE
 8
GROUP0
10
-4401.62092220517
20
2471.80892567453
30
0.000280679561249658
11
-4402.10328404517
21
2472.00872668799
31
0.000280240715019375
  0
LINE
 8
GROUP0
10
-4429.3529739666
20
2469.07693733546
30
0.000242271637050157
11
-4429.03513686612
21
2468.66272366214
31
0.000242298932978469
  0
LINE
 8
GROUP0
10
-4429.3529732681
20
2471.07693733519
30
0.000244125170121467
11
-4429.55277428155
21
2470.59457549524
31
0.000243419657876504
  0
LINE
 8
GROUP0
10
-4428.62092220496
20
2471.80898788699
30
0.000245750638823677
11
-4429.03513587828
21
2471.4911507865
31
0.000244920224166434
  0
LINE
 8
GROUP0
10
-4403.13856157495
20
2468.14502374454
30
0.000275320663529399
11
-4402.62092350856
21
2468.07687521633
31
0.000275927156473793
  0
LINE
 8
GROUP0
10
-4425.88887235195
20
2469.07693612562
30
0.000246753026170254
11
-4425.68907133849
21
2469.55929796557
31
0.000247458538505457
  0
LINE
 8
GROUP0
10
-4425.62092281029
20
2470.0769360319
30
0.00024802642944402
11
-4425.68907097692
21
2470.59457414583
31
0.000248417997870981
  0
LINE
 8
GROUP0
10
-4426.20670974176
20
2468.66272267431
30
0.000245957971945515
11
-4425.88887235195
21
2469.07693612562
31
0.000246753026170254
  0
LINE
 8
GROUP0
10
-4401.62092341502
20
2468.3448240595
30
0.000277469148416093
11
-4401.20670974165
21
2468.66266116002
31
0.000278299563073336
  0
LINE
 8
GROUP0
10
-4427.62092211152
20
2472.07693673013
30
0.000247292630766682
11
-4428.13856022545
21
2472.0087885635
31
0.000246559822592701
  0
LINE
 8
GROUP0
10
-4425.88887165344
20
2471.07693612534
30
0.00024860655924227
11
-4426.20670875393
21
2471.49114979867
31
0.000248579263043242
  0
LINE
 8
GROUP0
10
-4429.62092280974
20
2470.07693742891
30
0.000242851767028179
11
-4429.55277464312
21
2469.55929931497
31
0.00024246019851239
  0
LINE
 8
GROUP0
10
-4427.62092350852
20
2468.07693673068
30
0.000243585565255733
11
-4427.10328539459
21
2468.14508489731
31
0.000244318373428304
  0
LINE
 8
GROUP0
10
-4427.10328404519
20
2472.00878820193
30
0.000247899123710371
11
-4427.62092211152
21
2472.07693673013
31
0.000247292630766682
  0
LINE
 8
GROUP0
10
-4401.20670974165
20
2468.66266116002
30
0.000278299563073336
11
-4400.88887235179
21
2469.07687461137
31
0.000279094617479259
  0
LINE
 8
GROUP0
10
-4426.20670875393
20
2471.49114979867
30
0.000248579263043242
11
-4426.62092220524
21
2471.80898718848
31
0.000248337970121132
  0
LINE
 8
GROUP0
10
-4404.03513587847
20
2471.49108927251
30
0.000277261815384494
11
-4404.35297326833
21
2471.07687582116
31
0.000276466761429767
  0
LINE
 8
GROUP0
10
-4404.35297396682
20
2469.07687582122
30
0.000274613228358456
11
-4404.0351368663
21
2468.66266214786
31
0.000274640524196529
  0
LINE
 8
GROUP0
10
-4403.62092341495
20
2468.34482475801
30
0.000274881817208172
11
-4403.13856157495
21
2468.14502374454
31
0.000275320663529399
  0
LINE
 8
GROUP0
10
-4404.0351368663
20
2468.66266214786
30
0.000274640524196529
11
-4403.62092341495
21
2468.34482475801
31
0.000274881817208172
  0
LINE
 8
GROUP0
10
-4404.35297326833
20
2471.07687582116
30
0.000276466761429767
11
-4404.55277428179
21
2470.59451398116
31
0.000275761249094564
  0
LINE
 8
GROUP0
10
-4404.55277428179
20
2470.59451398116
30
0.000275761249094564
11
-4404.62092281
21
2470.07687591477
31
0.000275193358336479
  0
LINE
 8
GROUP0
10
-4425.68907133853
20
2494.55929796555
30
0.000270627686607339
11
-4425.62092281033
21
2495.07693603189
31
0.000271195577365424
  0
LINE
 8
GROUP0
10
-4426.20670875396
20
2496.49114979865
30
0.000271748411145123
11
-4426.62092220528
21
2496.80898718847
31
0.000271507118132774
  0
LINE
 8
GROUP0
10
-4427.62092211156
20
2497.07693673011
30
0.000270461778867859
11
-4428.13856022549
21
2497.00878856349
31
0.000269728970694583
  0
LINE
 8
GROUP0
10
-4426.62092341512
20
2493.34488557381
30
0.000268296705299914
11
-4426.20670974179
21
2493.6627226743
31
0.000269127119956453
  0
LINE
 8
GROUP0
10
-4426.20670974179
20
2493.6627226743
30
0.000269127119956453
11
-4425.88887235198
21
2494.07693612561
31
0.000269922174272136
  0
LINE
 8
GROUP0
10
-4425.88887165348
20
2496.07693612533
30
0.000271775707073435
11
-4426.20670875396
21
2496.49114979865
31
0.000271748411145123
  0
LINE
 8
GROUP0
10
-4425.62092281033
20
2495.07693603189
30
0.000271195577365424
11
-4425.68907097696
21
2495.59457414582
31
0.000271587145701441
  0
LINE
 8
GROUP0
10
-4429.03513686612
20
2468.66272366214
30
0.000242298932978469
11
-4428.6209234148
21
2468.34488627233
31
0.000242540225990112
  0
LINE
 8
GROUP0
10
-4429.55277464315
20
2494.55929931496
30
0.000265629346524032
11
-4429.35297396664
21
2494.07693733545
31
0.000265440785242277
  0
LINE
 8
GROUP0
10
-4427.10328539459
20
2468.14508489731
30
0.000244318373428304
11
-4426.62092341508
21
2468.34488557382
31
0.000245127557198033
  0
LINE
 8
GROUP0
10
-4429.03513587828
20
2471.4911507865
30
0.000244920224166434
11
-4429.3529732681
21
2471.07693733519
31
0.000244125170121467
  0
LINE
 8
GROUP0
10
-4428.13856157485
20
2468.14508525888
30
0.0002429790722211
11
-4427.62092350852
21
2468.07693673068
31
0.000243585565255733
  0
LINE
 8
GROUP0
10
-4425.68907097696
20
2495.59457414582
30
0.000271587145701441
11
-4425.88887165348
21
2496.07693612533
31
0.000271775707073435
  0
LINE
 8
GROUP0
10
-4427.10328539463
20
2493.14508489729
30
0.000267487521891141
11
-4426.62092341512
21
2493.34488557381
31
0.000268296705299914
  0
LINE
 8
GROUP0
10
-4429.62092280978
20
2495.07693742889
30
0.000266020914949583
11
-4429.55277464315
21
2494.55929931496
31
0.000265629346524032
  0
LINE
 8
GROUP0
10
-4429.55277428158
20
2495.59457549522
30
0.000266588805707668
11
-4429.62092280978
21
2495.07693742889
31
0.000266020914949583
  0
LINE
 8
GROUP0
10
-4428.620922205
20
2496.80898788697
30
0.000268919787015798
11
-4429.03513587831
21
2496.49115078648
31
0.000268089372268315
  0
LINE
 8
GROUP0
10
-4401.6209222052
20
2496.80892567451
30
0.000303848709441779
11
-4402.1032840452
21
2497.00872668798
31
0.000303409863120552
  0
LINE
 8
GROUP0
10
-4400.88887165333
20
2496.07687461129
30
0.000304117298291495
11
-4401.20670875385
21
2496.49108828466
31
0.000304090002454127
  0
LINE
 8
GROUP0
10
-4427.10328404522
20
2497.00878820191
30
0.000271068271902491
11
-4427.62092211156
21
2497.07693673011
31
0.000270461778867859
  0
LINE
 8
GROUP0
10
-4429.03513686615
20
2493.66272366213
30
0.000265468081170589
11
-4428.62092341483
21
2493.34488627231
31
0.000265709374091994
  0
LINE
 8
GROUP0
10
-4429.35297396664
20
2494.07693733545
30
0.000265440785242277
11
-4429.03513686615
21
2493.66272366213
31
0.000265468081170589
  0
LINE
 8
GROUP0
10
-4427.62092350855
20
2493.07693673067
30
0.000266754713357614
11
-4427.10328539463
21
2493.14508489729
31
0.000267487521891141
  0
LINE
 8
GROUP0
10
-4428.13856157489
20
2493.14508525886
30
0.000266148220683232
11
-4427.62092350855
21
2493.07693673067
31
0.000266754713357614
  0
LINE
 8
GROUP0
10
-4428.6209234148
20
2468.34488627233
30
0.000242540225990112
11
-4428.13856157485
21
2468.14508525888
31
0.0002429790722211
  0
LINE
 8
GROUP0
10
-4428.62092341483
20
2493.34488627231
30
0.000265709374091994
11
-4428.13856157489
21
2493.14508525886
31
0.000266148220683232
  0
LINE
 8
GROUP0
10
-4425.88887235198
20
2494.07693612561
30
0.000269922174272136
11
-4425.68907133853
21
2494.55929796555
31
0.000270627686607339
  0
LINE
 8
GROUP0
10
-4426.62092220528
20
2496.80898718847
30
0.000271507118132774
11
-4427.10328404522
21
2497.00878820191
31
0.000271068271902491
  0
LINE
 8
GROUP0
10
-4428.13856022549
20
2497.00878856349
30
0.000269728970694583
11
-4428.620922205
21
2496.80898788697
31
0.000268919787015798
  0
LINE
 8
GROUP0
10
-4429.55277428155
20
2470.59457549524
30
0.000243419657876504
11
-4429.62092280974
21
2470.07693742891
31
0.000242851767028179
  0
LINE
 8
GROUP0
10
-4400.62092281016
20
2495.07687451774
30
0.000303537168584189
11
-4400.6890709768
21
2495.59451263173
31
0.000303928736919501
  0
LINE
 8
GROUP0
10
-4429.55277464312
20
2469.55929931497
30
0.00024246019851239
11
-4429.3529739666
21
2469.07693733546
31
0.000242271637050157
  0
LINE
 8
GROUP0
10
-4427.62092211159
20
2522.0769367301
30
0.00029363092696974
11
-4428.13856022552
21
2522.00878856347
31
0.000292898118796464
  0
LINE
 8
GROUP0
10
-4401.62092341505
20
2493.34482405948
30
0.000300638296517974
11
-4401.20670974169
21
2493.66266116
31
0.000301468711265457
  0
LINE
 8
GROUP0
10
-4400.6890709768
20
2495.59451263173
30
0.000303928736919501
11
-4400.88887165333
21
2496.07687461129
31
0.000304117298291495
  0
LINE
 8
GROUP0
10
-4403.13856157499
20
2493.14502374452
30
0.000298489811901997
11
-4402.6209235086
21
2493.07687521632
31
0.000299096304665208
  0
LINE
 8
GROUP0
10
-4427.10328404526
20
2522.0087882019
30
0.000294237419913429
11
-4427.62092211159
21
2522.0769367301
31
0.00029363092696974
  0
LINE
 8
GROUP0
10
-4402.1032840452
20
2497.00872668798
30
0.000303409863120552
11
-4402.62092211159
21
2497.07687521619
31
0.000302803370176158
  0
LINE
 8
GROUP0
10
-4428.13856022552
20
2522.00878856347
30
0.000292898118796464
11
-4428.62092220504
21
2521.80898788695
31
0.000292088935026735
  0
LINE
 8
GROUP0
10
-4404.35297326836
20
2496.07687582114
30
0.000299635909170692
11
-4404.55277428182
21
2495.59451398114
31
0.000298930396835489
  0
LINE
 8
GROUP0
10
-4426.20670974183
20
2518.66272267428
30
0.000292296268148573
11
-4425.88887235201
21
2519.07693612559
31
0.000293091322374017
  0
LINE
 8
GROUP0
10
-4429.62092280981
20
2520.07693742888
30
0.000289190063141703
11
-4429.55277464319
21
2519.55929931494
31
0.000288798494715448
  0
LINE
 8
GROUP0
10
-4429.35297326813
20
2496.07693733517
30
0.000267294317952632
11
-4429.55277428158
21
2495.59457549522
31
0.000266588805707668
  0
LINE
 8
GROUP0
10
-4404.55277464339
20
2494.55923780077
30
0.000297970937741387
11
-4404.35297396686
21
2494.07687582121
31
0.000297782376370098
  0
LINE
 8
GROUP0
10
-4426.62092341515
20
2518.34488557379
30
0.000291465853311557
11
-4426.20670974183
21
2518.66272267428
31
0.000292296268148573
  0
LINE
 8
GROUP0
10
-4427.62092350859
20
2518.07693673065
30
0.000289923861458791
11
-4427.10328539466
21
2518.14508489728
31
0.000290656669632067
  0
LINE
 8
GROUP0
10
-4425.68907133856
20
2519.55929796554
30
0.000293796834799459
11
-4425.62092281037
21
2520.07693603187
31
0.000294364725557544
  0
LINE
 8
GROUP0
10
-4401.20670974169
20
2493.66266116
30
0.000301468711265457
11
-4400.88887235184
21
2494.07687461136
31
0.000302263765490901
  0
LINE
 8
GROUP0
10
-4404.35297396686
20
2494.07687582121
30
0.000297782376370098
11
-4404.03513686634
21
2493.66266214784
31
0.000297809672388649
  0
LINE
 8
GROUP0
10
-4400.88887235184
20
2494.07687461136
30
0.000302263765490901
11
-4400.68907133837
21
2494.55923645136
31
0.000302969277826104
  0
LINE
 8
GROUP0
10
-4402.62092211159
20
2497.07687521619
30
0.000302803370176158
11
-4403.13856022558
21
2497.00872704955
31
0.000302070561912643
  0
LINE
 8
GROUP0
10
-4404.0351358785
20
2496.4910892725
30
0.000300430963485671
11
-4404.35297326836
21
2496.07687582114
31
0.000299635909170692
  0
LINE
 8
GROUP0
10
-4404.03513686634
20
2493.66266214784
30
0.000297809672388649
11
-4403.62092341498
21
2493.34482475799
31
0.000298050965310054
  0
LINE
 8
GROUP0
10
-4402.6209235086
20
2493.07687521632
30
0.000299096304665208
11
-4402.10328539461
21
2493.14502338295
31
0.000299829113019667
  0
LINE
 8
GROUP0
10
-4403.13856022558
20
2497.00872704955
30
0.000302070561912643
11
-4403.62092220514
21
2496.80892637302
31
0.000301261378143619
  0
LINE
 8
GROUP0
10
-4429.03513587831
20
2496.49115078648
30
0.000268089372268315
11
-4429.35297326813
21
2496.07693733517
31
0.000267294317952632
  0
LINE
 8
GROUP0
10
-4426.62092220531
20
2521.80898718845
30
0.000294676266324895
11
-4427.10328404526
21
2522.0087882019
31
0.000294237419913429
  0
LINE
 8
GROUP0
10
-4403.62092341498
20
2493.34482475799
30
0.000298050965310054
11
-4403.13856157499
21
2493.14502374452
31
0.000298489811901997
  0
LINE
 8
GROUP0
10
-4404.62092281003
20
2495.07687591476
30
0.000298362506167643
11
-4404.55277464339
21
2494.55923780077
31
0.000297970937741387
  0
LINE
 8
GROUP0
10
-4403.62092220514
20
2496.80892637302
30
0.000301261378143619
11
-4404.0351358785
21
2496.4910892725
31
0.000300430963485671
  0
LINE
 8
GROUP0
10
-4401.20670875385
20
2496.49108828466
30
0.000304090002454127
11
-4401.6209222052
21
2496.80892567451
31
0.000303848709441779
  0
LINE
 8
GROUP0
10
-4400.68907133837
20
2494.55923645136
30
0.000302969277826104
11
-4400.62092281016
21
2495.07687451774
31
0.000303537168584189
  0
LINE
 8
GROUP0
10
-4404.55277428182
20
2495.59451398114
30
0.000298930396835489
11
-4404.62092281003
21
2495.07687591476
31
0.000298362506167643
  0
LINE
 8
GROUP0
10
-4402.10328539461
20
2493.14502338295
30
0.000299829113019667
11
-4401.62092341505
21
2493.34482405948
31
0.000300638296517974
  0
LINE
 8
GROUP0
10
-4404.03513587853
20
2521.49108927248
30
0.000323600111587552
11
-4404.35297326839
21
2521.07687582113
31
0.000322805057542586
  0
LINE
 8
GROUP0
10
-4429.35297396667
20
2519.07693733543
30
0.000288609933253919
11
-4429.03513686618
21
2518.66272366211
31
0.000288637229182231
  0
LINE
 8
GROUP0
10
-4403.13856157502
20
2518.14502374451
30
0.000321658959733162
11
-4402.62092350863
21
2518.0768752163
31
0.000322265452676851
  0
LINE
 8
GROUP0
10
-4429.55277464319
20
2519.55929931494
30
0.000288798494715448
11
-4429.35297396667
21
2519.07693733543
31
0.000288609933253919
  0
LINE
 8
GROUP0
10
-4402.62092350863
20
2518.0768752163
30
0.000322265452676851
11
-4402.10328539465
21
2518.14502338293
31
0.000322998260940366
  0
LINE
 8
GROUP0
10
-4428.13856157492
20
2518.14508525885
30
0.000289317368424158
11
-4427.62092350859
21
2518.07693673065
31
0.000289923861458791
  0
LINE
 8
GROUP0
10
-4404.03513686637
20
2518.66266214783
30
0.000320978820400292
11
-4403.62092341502
21
2518.34482475798
31
0.000321220113411935
  0
LINE
 8
GROUP0
10
-4427.10328539466
20
2518.14508489728
30
0.000290656669632067
11
-4426.62092341515
21
2518.34488557379
31
0.000291465853311557
  0
LINE
 8
GROUP0
10
-4402.10328404527
20
2547.00872668795
30
0.000349748159234076
11
-4402.62092211167
21
2547.07687521616
31
0.000349141666379921
  0
LINE
 8
GROUP0
10
-4425.689070977
20
2520.5945741458
30
0.000294756294164278
11
-4425.88887165351
21
2521.07693612531
31
0.000294944855446033
  0
LINE
 8
GROUP0
10
-4403.13856022562
20
2522.00872704954
30
0.000325239710014524
11
-4403.62092220518
21
2521.808926373
31
0.000324430526335034
  0
LINE
 8
GROUP0
10
-4425.88887235201
20
2519.07693612559
30
0.000293091322374017
11
-4425.68907133856
21
2519.55929796554
31
0.000293796834799459
  0
LINE
 8
GROUP0
10
-4429.03513686618
20
2518.66272366211
30
0.000288637229182231
11
-4428.62092341487
21
2518.3448862723
31
0.000288878522193875
  0
LINE
 8
GROUP0
10
-4425.62092281037
20
2520.07693603187
30
0.000294364725557544
11
-4425.689070977
21
2520.5945741458
31
0.000294756294164278
  0
LINE
 8
GROUP0
10
-4429.03513587835
20
2521.49115078647
30
0.000291258520369492
11
-4429.35297326817
21
2521.07693733516
31
0.00029046346632523
  0
LINE
 8
GROUP0
10
-4402.62092211163
20
2522.07687521617
30
0.0003259725181878
11
-4403.13856022562
21
2522.00872704954
31
0.000325239710014524
  0
LINE
 8
GROUP0
10
-4400.6890713384
20
2519.55923645134
30
0.000326138426018224
11
-4400.62092281019
21
2520.07687451773
31
0.000326706316775605
  0
LINE
 8
GROUP0
10
-4400.62092281019
20
2520.07687451773
30
0.000326706316775605
11
-4400.68907097683
21
2520.59451263172
31
0.000327097885382338
  0
LINE
 8
GROUP0
10
-4402.10328404523
20
2522.00872668796
30
0.000326579011222433
11
-4402.62092211163
21
2522.07687521617
31
0.0003259725181878
  0
LINE
 8
GROUP0
10
-4428.62092220504
20
2521.80898788695
30
0.000292088935026735
11
-4429.03513587835
21
2521.49115078647
31
0.000291258520369492
  0
LINE
 8
GROUP0
10
-4428.62092341487
20
2518.3448862723
30
0.000288878522193875
11
-4428.13856157492
21
2518.14508525885
31
0.000289317368424158
  0
LINE
 8
GROUP0
10
-4426.206708754
20
2521.49114979864
30
0.000294917559247004
11
-4426.62092220531
21
2521.80898718845
31
0.000294676266324895
  0
LINE
 8
GROUP0
10
-4425.88887165351
20
2521.07693612531
30
0.000294944855446033
11
-4426.206708754
21
2521.49114979864
31
0.000294917559247004
  0
LINE
 8
GROUP0
10
-4403.62092220518
20
2521.808926373
30
0.000324430526335034
11
-4404.03513587853
21
2521.49108927248
31
0.000323600111587552
  0
LINE
 8
GROUP0
10
-4401.62092220524
20
2521.8089256745
30
0.000327017857453421
11
-4402.10328404523
21
2522.00872668796
31
0.000326579011222433
  0
LINE
 8
GROUP0
10
-4400.68907097683
20
2520.59451263172
30
0.000327097885382338
11
-4400.88887165337
21
2521.07687461128
31
0.000327286446664093
  0
LINE
 8
GROUP0
10
-4429.55277428162
20
2520.59457549521
30
0.000289757954080266
11
-4429.62092280981
21
2520.07693742888
31
0.000289190063141703
  0
LINE
 8
GROUP0
10
-4401.20670875388
20
2521.49108828464
30
0.000327259150465065
11
-4401.62092220524
21
2521.8089256745
31
0.000327017857453421
  0
LINE
 8
GROUP0
10
-4400.88887235187
20
2519.07687461134
30
0.000325432913683021
11
-4400.6890713384
21
2519.55923645134
31
0.000326138426018224
  0
LINE
 8
GROUP0
10
-4401.20670974171
20
2518.66266115999
30
0.000324637859277099
11
-4400.88887235187
21
2519.07687461134
31
0.000325432913683021
  0
LINE
 8
GROUP0
10
-4400.88887165337
20
2521.07687461128
30
0.000327286446664093
11
-4401.20670875388
21
2521.49108828464
31
0.000327259150465065
  0
LINE
 8
GROUP0
10
-4429.35297326817
20
2521.07693733516
30
0.00029046346632523
11
-4429.55277428162
21
2520.59457549521
31
0.000289757954080266
  0
LINE
 8
GROUP0
10
-4404.55277464347
20
2544.55923780074
30
0.00034430923394515
11
-4404.35297396693
21
2544.07687582118
31
0.000344120672573156
  0
LINE
 8
GROUP0
10
-4404.03513686641
20
2543.66266214781
30
0.00034414796877289
11
-4403.62092341506
21
2543.34482475796
31
0.000344389261513112
  0
LINE
 8
GROUP0
10
-4401.20670974175
20
2543.66266115998
30
0.000347807007739936
11
-4400.8888723519
21
2544.07687461133
31
0.000348602061694664
  0
LINE
 8
GROUP0
10
-4400.68907133844
20
2544.55923645133
30
0.000349307574029162
11
-4400.62092281023
21
2545.07687451771
31
0.000349875464697008
  0
LINE
 8
GROUP0
10
-4404.55277428186
20
2520.59451398113
30
0.000322099545298327
11
-4404.62092281007
21
2520.07687591474
31
0.000321531654359763
  0
LINE
 8
GROUP0
10
-4400.8888716534
20
2546.07687461126
30
0.000350455594495258
11
-4401.20670875391
21
2546.49108828463
31
0.000350428298657185
  0
LINE
 8
GROUP0
10
-4425.68907097704
20
2545.59457414579
30
0.000317925441905204
11
-4425.88887165355
21
2546.0769361253
31
0.000318114003277198
  0
LINE
 8
GROUP0
10
-4403.13856157506
20
2543.14502374449
30
0.000344828108105055
11
-4402.62092350867
21
2543.07687521629
31
0.000345434600778732
  0
LINE
 8
GROUP0
10
-4402.62092350867
20
2543.07687521629
30
0.000345434600778732
11
-4402.10328539468
21
2543.14502338292
31
0.000346167409222725
  0
LINE
 8
GROUP0
10
-4402.62092211167
20
2547.07687521616
30
0.000349141666379921
11
-4403.13856022565
21
2547.00872704952
31
0.000348408858116406
  0
LINE
 8
GROUP0
10
-4426.62092341519
20
2543.34488557378
30
0.000314635001503677
11
-4426.20670974187
21
2543.66272267427
31
0.000315465416430932
  0
LINE
 8
GROUP0
10
-4404.35297396689
20
2519.07687582119
30
0.000320951524561514
11
-4404.03513686637
21
2518.66266214783
31
0.000320978820400292
  0
LINE
 8
GROUP0
10
-4404.5527742819
20
2545.59451398111
30
0.000345268693038547
11
-4404.6209228101
21
2545.07687591473
31
0.000344700802371406
  0
LINE
 8
GROUP0
10
-4428.13856022556
20
2547.00878856346
30
0.000316067266898346
11
-4428.62092220507
21
2546.80898788694
31
0.000315258083218151
  0
LINE
 8
GROUP0
10
-4404.62092281007
20
2520.07687591474
30
0.000321531654359763
11
-4404.55277464343
21
2519.55923780075
31
0.000321140085933508
  0
LINE
 8
GROUP0
10
-4404.35297396693
20
2544.07687582118
30
0.000344120672573156
11
-4404.03513686641
21
2543.66266214781
31
0.00034414796877289
  0
LINE
 8
GROUP0
10
-4426.20670875404
20
2546.49114979862
30
0.000318086707348181
11
-4426.62092220535
21
2546.80898718844
31
0.000317845414426776
  0
LINE
 8
GROUP0
10
-4400.8888723519
20
2544.07687461133
30
0.000348602061694664
11
-4400.68907133844
21
2544.55923645133
31
0.000349307574029162
  0
LINE
 8
GROUP0
10
-4403.62092341502
20
2518.34482475798
30
0.000321220113411935
11
-4403.13856157502
21
2518.14502374451
31
0.000321658959733162
  0
LINE
 8
GROUP0
10
-4402.10328539468
20
2543.14502338292
30
0.000346167409222725
11
-4401.62092341512
21
2543.34482405945
31
0.000346976592721737
  0
LINE
 8
GROUP0
10
-4400.62092281023
20
2545.07687451771
30
0.000349875464697008
11
-4400.68907097687
21
2545.5945126317
31
0.000350267033123264
  0
LINE
 8
GROUP0
10
-4400.68907097687
20
2545.5945126317
30
0.000350267033123264
11
-4400.8888716534
21
2546.07687461126
31
0.000350455594495258
  0
LINE
 8
GROUP0
10
-4401.62092341512
20
2543.34482405945
30
0.000346976592721737
11
-4401.20670974175
21
2543.66266115998
31
0.000347807007739936
  0
LINE
 8
GROUP0
10
-4403.13856022565
20
2547.00872704952
30
0.000348408858116406
11
-4403.62092220521
21
2546.80892637299
31
0.000347599674346677
  0
LINE
 8
GROUP0
10
-4401.62092341509
20
2518.34482405947
30
0.000323807444619856
11
-4401.20670974171
21
2518.66266115999
31
0.000324637859277099
  0
LINE
 8
GROUP0
10
-4401.20670875391
20
2546.49108828463
30
0.000350428298657185
11
-4401.62092220528
21
2546.80892567448
31
0.000350187005644836
  0
LINE
 8
GROUP0
10
-4402.10328539465
20
2518.14502338293
30
0.000322998260940366
11
-4401.62092341509
21
2518.34482405947
31
0.000323807444619856
  0
LINE
 8
GROUP0
10
-4403.62092220521
20
2546.80892637299
30
0.000347599674346677
11
-4404.03513587857
21
2546.49108927247
31
0.000346769259689433
  0
LINE
 8
GROUP0
10
-4404.35297326839
20
2521.07687582113
30
0.000322805057542586
11
-4404.55277428186
21
2520.59451398113
31
0.000322099545298327
  0
LINE
 8
GROUP0
10
-4403.62092341506
20
2543.34482475796
30
0.000344389261513112
11
-4403.13856157506
21
2543.14502374449
31
0.000344828108105055
  0
LINE
 8
GROUP0
10
-4404.55277464343
20
2519.55923780075
30
0.000321140085933508
11
-4404.35297396689
21
2519.07687582119
31
0.000320951524561514
  0
LINE
 8
GROUP0
10
-4401.62092220528
20
2546.80892567448
30
0.000350187005644836
11
-4402.10328404527
21
2547.00872668795
31
0.000349748159234076
  0
LINE
 8
GROUP0
10
-4426.62092220535
20
2546.80898718844
30
0.000317845414426776
11
-4427.1032840453
21
2547.00878820188
31
0.000317406568105549
  0
LINE
 8
GROUP0
10
-4425.6890713386
20
2544.55929796552
30
0.000316965982811102
11
-4425.6209228104
21
2545.07693603186
31
0.000317533873568482
  0
LINE
 8
GROUP0
10
-4425.88887235205
20
2544.07693612558
30
0.000316260470475899
11
-4425.6890713386
21
2544.55929796552
31
0.000316965982811102
  0
LINE
 8
GROUP0
10
-4404.03513587857
20
2546.49108927247
30
0.000346769259689433
11
-4404.35297326843
21
2546.07687582111
31
0.00034597420537375
  0
LINE
 8
GROUP0
10
-4425.6209228104
20
2545.07693603186
30
0.000317533873568482
11
-4425.68907097704
21
2545.59457414579
31
0.000317925441905204
  0
LINE
 8
GROUP0
10
-4404.35297326843
20
2546.07687582111
30
0.00034597420537375
11
-4404.5527742819
21
2545.59451398111
31
0.000345268693038547
  0
LINE
 8
GROUP0
10
-4427.1032853947
20
2543.14508489726
30
0.000313825818094199
11
-4426.62092341519
21
2543.34488557378
31
0.000314635001503677
  0
LINE
 8
GROUP0
10
-4427.62092211163
20
2547.07693673008
30
0.000316800075071622
11
-4428.13856022556
21
2547.00878856346
31
0.000316067266898346
  0
LINE
 8
GROUP0
10
-4426.20670974187
20
2543.66272267427
30
0.000315465416430932
11
-4425.88887235205
21
2544.07693612558
31
0.000316260470475899
  0
LINE
 8
GROUP0
10
-4427.1032840453
20
2547.00878820188
30
0.000317406568105549
11
-4427.62092211163
21
2547.07693673008
31
0.000316800075071622
  0
LINE
 8
GROUP0
10
-4404.6209228101
20
2545.07687591473
30
0.000344700802371406
11
-4404.55277464347
21
2544.55923780074
31
0.00034430923394515
  0
LINE
 8
GROUP0
10
-4425.88887165355
20
2546.0769361253
30
0.000318114003277198
11
-4426.20670875404
21
2546.49114979862
31
0.000318086707348181
  0
LINE
 8
GROUP0
10
-4427.62142676364
20
2330.07685469553
30
0.0
11
-4469.12108572542
21
2330.07693075814
31
0.000145287002007183
  0
LINE
 8
GROUP0
10
-4427.62142676364
20
2330.07685469553
30
0.0
11
-4427.62092350832
21
2350.07685468897
31
9.463115994367e-005
  0
LINE
 8
GROUP0
10
-4427.62092350832
20
2350.07685468897
30
9.463115994367e-005
11
-4091.620470074
21
2350.07641041148
31
0.000533410343632657
  0
LINE
 8
GROUP0
10
-4091.620470074
20
2350.07641041148
30
0.000533410343632657
11
-4091.62049651908
21
2330.07639339156
31
0.000533112283915999
  0
LINE
 8
GROUP0
10
-4010.12025823563
20
2676.57630909631
30
0.000991943873581513
11
-4010.12025164462
21
2681.5763090963
31
0.000994515597195672
  0
LINE
 8
GROUP0
10
-4010.12025164462
20
2681.5763090963
30
0.000994515597195672
11
-4040.12021457819
21
2711.57635040608
31
0.000978040088179161
  0
LINE
 8
GROUP0
10
-4050.12021457818
20
2711.57636351027
30
0.00096392407014016
11
-4040.12021457819
21
2711.57635040608
31
0.000978040088179161
  0
LINE
 8
GROUP0
10
-4469.12028226752
20
2711.5769210765
30
0.000400061035513943
11
-4479.1202822675
21
2711.57693429903
31
0.000382007032012938
  0
LINE
 8
GROUP0
10
-4479.1202822675
20
2711.57693429903
30
0.000382007032012938
11
-4509.12028431239
21
2681.57694830092
31
0.000321519596590569
  0
LINE
 8
GROUP0
10
-4509.12029092365
20
2676.57694830093
30
0.000319553421632468
11
-4509.12028431239
21
2681.57694830092
31
0.000321519596590569
  0
LINE
 8
GROUP0
10
-4428.13856022531
20
2372.00878856356
30
0.000153883230185881
11
-4428.62092220482
21
2371.80898788704
31
0.000153074046416857
  0
LINE
 8
GROUP0
10
-4427.62092211137
20
2372.07693673019
30
0.000154616038449396
11
-4428.13856022531
21
2372.00878856356
31
0.000153883230185881
  0
LINE
 8
GROUP0
10
-4427.10328404505
20
2372.00878820199
30
0.00015522253130355
11
-4427.62092211137
21
2372.07693673019
31
0.000154616038449396
  0
LINE
 8
GROUP0
10
-4426.6209222051
20
2371.80898718854
30
0.000155661377714311
11
-4427.10328404505
21
2372.00878820199
31
0.00015522253130355
  0
LINE
 8
GROUP0
10
-4426.20670875379
20
2371.49114979872
30
0.00015590267072666
11
-4426.6209222051
21
2371.80898718854
31
0.000155661377714311
  0
LINE
 8
GROUP0
10
-4425.8888716533
20
2371.0769361254
30
0.00015592996683545
11
-4426.20670875379
21
2371.49114979872
31
0.00015590267072666
  0
LINE
 8
GROUP0
10
-4425.68907097679
20
2370.59457414589
30
0.000155741405463455
11
-4425.8888716533
21
2371.0769361254
31
0.00015592996683545
  0
LINE
 8
GROUP0
10
-4425.62092281015
20
2370.07693603196
30
0.0001553498370372
11
-4425.68907097679
21
2370.59457414589
31
0.000155741405463455
  0
LINE
 8
GROUP0
10
-4425.68907133835
20
2369.55929796563
30
0.000154781946370058
11
-4425.62092281015
21
2370.07693603196
31
0.0001553498370372
  0
LINE
 8
GROUP0
10
-4425.8888723518
20
2369.07693612568
30
0.000154076433764139
11
-4425.68907133835
21
2369.55929796563
31
0.000154781946370058
  0
LINE
 8
GROUP0
10
-4426.20670974162
20
2368.66272267437
30
0.000153281379537989
11
-4425.8888723518
21
2369.07693612568
31
0.000154076433764139
  0
LINE
 8
GROUP0
10
-4426.62092341494
20
2368.34488557388
30
0.000152450964791212
11
-4426.20670974162
21
2368.66272267437
31
0.000153281379537989
  0
LINE
 8
GROUP0
10
-4427.62092350838
20
2368.07693673074
30
0.000150908972848912
11
-4427.10328539445
21
2368.14508489737
31
0.000151641781021483
  0
LINE
 8
GROUP0
10
-4428.13856157471
20
2368.14508525894
30
0.000150302479903813
11
-4427.62092350838
21
2368.07693673074
31
0.000150908972848912
  0
LINE
 8
GROUP0
10
-4428.62092341466
20
2368.34488627239
30
0.000149863633583291
11
-4428.13856157471
21
2368.14508525894
31
0.000150302479903813
  0
LINE
 8
GROUP0
10
-4429.03513686597
20
2368.6627236622
30
0.000149622340571648
11
-4428.62092341466
21
2368.34488627239
31
0.000149863633583291
  0
LINE
 8
GROUP0
10
-4429.35297396645
20
2369.07693733552
30
0.000149595044643336
11
-4429.03513686597
21
2368.6627236622
31
0.000149622340571648
  0
LINE
 8
GROUP0
10
-4429.55277464297
20
2369.55929931503
30
0.000149783606285342
11
-4429.35297396645
21
2369.07693733552
31
0.000149595044643336
  0
LINE
 8
GROUP0
10
-4429.6209228096
20
2370.07693742897
30
0.000150175174711598
11
-4429.55277464297
21
2369.55929931503
31
0.000149783606285342
  0
LINE
 8
GROUP0
10
-4429.35297326796
20
2371.07693733525
30
0.000151448577714647
11
-4429.5527742814
21
2370.5945754953
31
0.000150743065379444
  0
LINE
 8
GROUP0
10
-4428.62092220482
20
2371.80898788704
30
0.000153074046416857
11
-4429.03513587814
21
2371.49115078656
31
0.000152243631759613
  0
LINE
 8
GROUP0
10
-4090.20625575802
20
2468.66214174911
30
0.000683488447268288
11
-4089.88841797982
21
2469.0763549025
31
0.000684283501821553
  0
LINE
 8
GROUP0
10
-4090.62046972937
20
2468.34430503692
30
0.000682658032493311
11
-4090.20625575802
21
2468.66214174911
31
0.000683488447268288
  0
LINE
 8
GROUP0
10
-4091.10283189627
20
2468.1445048126
30
0.000681848848933669
11
-4090.62046972937
21
2468.34430503692
31
0.000682658032493311
  0
LINE
 8
GROUP0
10
-4091.62047007417
20
2468.07635713126
30
0.000681116041044505
11
-4091.10283189627
21
2468.1445048126
31
0.000681848848933669
  0
LINE
 8
GROUP0
10
-4092.13810807668
20
2468.14450614477
30
0.000680509548733194
11
-4091.62047007417
21
2468.07635713126
31
0.000681116041044505
  0
LINE
 8
GROUP0
10
-4092.62046972937
20
2468.34430761047
30
0.000680070703027424
11
-4092.13810807668
21
2468.14450614477
31
0.000680509548733194
  0
LINE
 8
GROUP0
10
-4093.35251959495
20
2469.07635936002
30
0.00067980211563704
11
-4093.03468288276
21
2468.66214538867
31
0.000679829410776467
  0
LINE
 8
GROUP0
10
-4093.55231981927
20
2469.55872152692
30
0.00067999067778946
11
-4093.35251959495
21
2469.07635936002
31
0.00067980211563704
  0
LINE
 8
GROUP0
10
-4093.62046750061
20
2470.07635970481
30
0.00068038224712868
11
-4093.55231981927
21
2469.55872152692
31
0.00067999067778946
  0
LINE
 8
GROUP0
10
-4093.55231848711
20
2470.59399770732
30
0.000680950138347125
11
-4093.62046750061
21
2470.07635970481
31
0.00068038224712868
  0
LINE
 8
GROUP0
10
-4093.3525170214
20
2471.07635936002
30
0.000681655651096863
11
-4093.55231848711
21
2470.59399770732
31
0.000680950138347125
  0
LINE
 8
GROUP0
10
-4093.03467924317
20
2446.49057251342
30
0.000659281557278235
11
-4093.35251702136
21
2446.07635936003
31
0.00065848650272497
  0
LINE
 8
GROUP0
10
-4092.62046527182
20
2446.80840922562
30
0.000660111972053212
11
-4093.03467924317
21
2446.49057251342
31
0.000659281557278235
  0
LINE
 8
GROUP0
10
-4092.13810310492
20
2447.00820944993
30
0.000660921155522615
11
-4092.62046527182
21
2446.80840922562
31
0.000660111972053212
  0
LINE
 8
GROUP0
10
-4091.62046492703
20
2447.07635713127
30
0.000661653963411779
11
-4092.13810310492
21
2447.00820944993
31
0.000660921155522615
 0
ENDSEC
 0
EOF
