 0
SECTION
 2
ENTITIES
  0
LINE
 8
GROUP0
10
-3923.40059754694
20
2151.05840706136
30
0.000150342846220969
11
-3881.40119020346
21
2151.05840706137
31
0.000135006152155753
  0
LINE
 8
GROUP0
10
-3871.40119020346
20
2146.05844180164
30
7.82959169821296e-005
11
-3871.40119020346
21
2086.05840706137
31
0.000135006152308736
  0
LINE
 8
GROUP0
10
-3881.40119020346
20
2061.05840706137
30
0.000135006152661232
11
-4300.40119020329
21
2061.05840706136
31
0.00013694491945847
  0
LINE
 8
GROUP0
10
-3881.40119020346
20
2086.05840706136
30
0.000133279452822677
11
-3881.40119020346
21
2061.05840706137
31
0.000135006152661232
  0
LINE
 8
GROUP0
10
-3881.40119020346
20
2086.05840706136
30
0.000133279452822677
11
-3871.40119020346
21
2086.05840706137
31
0.000135006152308736
  0
LINE
 8
GROUP0
10
-3881.40119020346
20
2146.05844180164
30
7.656921747351e-005
11
-3871.40119020346
21
2146.05844180164
31
7.82959169821296e-005
  0
LINE
 8
GROUP0
10
-3881.40119020346
20
2151.05840706137
30
0.000135006152155753
11
-3881.40119020346
21
2146.05844180164
31
7.656921747351e-005
  0
LINE
 8
GROUP0
10
-3942.88295945667
20
2159.12656340996
30
0.000276415351324405
11
-3942.40059754687
21
2159.32636425497
31
0.000276536092461604
  0
LINE
 8
GROUP0
10
-3944.40059754687
20
2159.32636425497
30
0.000276190751695843
11
-3943.91823563708
21
2159.12656340996
31
0.000276236590186157
  0
LINE
 8
GROUP0
10
-4310.40119020329
20
2086.05840706136
30
0.000135218218909283
11
-4310.40119020329
21
2146.05844180163
31
7.85079835601166e-005
  0
LINE
 8
GROUP0
10
-3943.40059754687
20
2159.05841506254
30
0.000276313196527778
11
-3942.88295945667
21
2159.12656340996
31
0.000276415351324405
  0
LINE
 8
GROUP0
10
-3944.81481110925
20
2159.64420150016
30
0.000276178805501442
11
-3944.40059754687
21
2159.32636425497
31
0.000276190751695843
  0
LINE
 8
GROUP0
10
-3923.40059754694
20
2171.0584240813
30
0.000150342845959417
11
-3923.40059754694
21
2151.05840706136
31
0.000150342846220969
  0
LINE
 8
GROUP0
10
-4300.40119020329
20
2146.05844180163
30
8.02346837906476e-005
11
-4300.40119020329
21
2151.05844180163
31
7.68987887942385e-005
  0
LINE
 8
GROUP0
10
-3943.91823563708
20
2159.12656340996
30
0.000276236590186157
11
-3943.40059754687
21
2159.05841506254
31
0.000276313196527778
  0
LINE
 8
GROUP0
10
-3945.13264835444
20
2160.05841506254
30
0.000276201565919038
11
-3944.81481110925
21
2159.64420150016
31
0.000276178805501442
  0
LINE
 8
GROUP0
10
-3945.33244919945
20
2160.54077697233
30
0.000276257481549708
11
-3945.13264835444
21
2160.05841506254
31
0.000276201565919038
  0
LINE
 8
GROUP0
10
-4300.40119020329
20
2146.05844180163
30
8.02346837906476e-005
11
-4310.40119020329
21
2146.05844180163
31
7.85079835601166e-005
  0
LINE
 8
GROUP0
10
-4300.40119020329
20
2151.05844180163
30
7.68987887942385e-005
11
-4258.40152779221
21
2151.05843911008
31
3.19652122219016e-005
  0
LINE
 8
GROUP0
10
-4300.40119020329
20
2086.05840706136
30
0.000136944919117254
11
-4310.40119020329
21
2086.05840706136
31
0.000135218218909283
  0
LINE
 8
GROUP0
10
-4300.40119020329
20
2061.05840706136
30
0.00013694491945847
11
-4300.40119020329
21
2086.05840706136
31
0.000136944919117254
  0
LINE
 8
GROUP0
10
-4258.40152779221
20
2171.05843911008
30
3.196521193779e-005
11
-3923.40059754694
21
2171.0584240813
31
0.000150342845959417
  0
LINE
 8
GROUP0
10
-4258.40152779221
20
2151.05843911008
30
3.19652122219016e-005
11
-4258.40152779221
21
2171.05843911008
31
3.196521193779e-005
  0
LINE
 8
GROUP0
10
-3943.40059754687
20
2163.05841506254
30
0.00027706296862044
11
-3943.91823563708
21
2162.99026671511
31
0.000276960813113181
  0
LINE
 8
GROUP0
10
-3941.46874589429
20
2160.54077697233
30
0.000276924628035763
11
-3941.40059754687
21
2161.05841506254
31
0.000277033422978562
  0
LINE
 8
GROUP0
10
-3941.9863839845
20
2159.64420150016
30
0.00027666719083797
11
-3941.6685467393
21
2160.05841506254
31
0.000276799713555437
  0
LINE
 8
GROUP0
10
-3941.6685467393
20
2162.05841506254
30
0.000277174599240459
11
-3941.9863839845
21
2162.47262862491
31
0.000277197359658055
  0
LINE
 8
GROUP0
10
-3943.91823563708
20
2162.99026671511
30
0.000276960813113181
11
-3944.40059754687
21
2162.7904658701
31
0.000276840072697893
  0
LINE
 8
GROUP0
10
-3942.40059754687
20
2162.7904658701
30
0.000277185413474934
11
-3942.88295945667
21
2162.99026671511
31
0.00027713957497334
  0
LINE
 8
GROUP0
10
-3941.40059754687
20
2161.05841506254
30
0.000277033422978562
11
-3941.46874589429
21
2161.57605315274
31
0.000277118683597805
  0
LINE
 8
GROUP0
10
-3945.13264835444
20
2162.05841506254
30
0.00027657645160406
11
-3945.33244919945
21
2161.57605315274
31
0.000276451537111749
  0
LINE
 8
GROUP0
10
-3944.81481110925
20
2162.47262862491
30
0.000276708974321527
11
-3945.13264835444
21
2162.05841506254
31
0.00027657645160406
  0
LINE
 8
GROUP0
10
-3942.88295945667
20
2162.99026671511
30
0.00027713957497334
11
-3943.40059754687
21
2163.05841506254
31
0.00027706296862044
  0
LINE
 8
GROUP0
10
-3941.46874589429
20
2161.57605315274
30
0.000277118683597805
11
-3941.6685467393
21
2162.05841506254
31
0.000277174599240459
  0
LINE
 8
GROUP0
10
-3941.6685467393
20
2160.05841506254
30
0.000276799713555437
11
-3941.46874589429
21
2160.54077697233
31
0.000276924628035763
  0
LINE
 8
GROUP0
10
-3945.33244919945
20
2161.57605315274
30
0.000276451537111749
11
-3945.40059754687
21
2161.05841506254
31
0.000276342742902141
  0
LINE
 8
GROUP0
10
-3941.9863839845
20
2162.47262862491
30
0.000277197359658055
11
-3942.40059754687
21
2162.7904658701
31
0.000277185413474934
  0
LINE
 8
GROUP0
10
-3945.40059754687
20
2161.05841506254
30
0.000276342742902141
11
-3945.33244919945
21
2160.54077697233
31
0.000276257481549708
  0
LINE
 8
GROUP0
10
-3944.40059754687
20
2162.7904658701
30
0.000276840072697893
11
-3944.81481110925
21
2162.47262862491
31
0.000276708974321527
  0
LINE
 8
GROUP0
10
-4236.6694769845
20
2162.05837813152
30
0.000299147995435489
11
-4236.9873142297
21
2162.4725916939
31
0.000299170755853084
  0
LINE
 8
GROUP0
10
-4237.40152779207
20
2162.79042893909
30
0.000299158809647404
11
-4237.88388970186
21
2162.9902297841
31
0.000299112971157089
  0
LINE
 8
GROUP0
10
-4238.91916588227
20
2159.12652647894
30
0.000298209987103099
11
-4238.40152779207
21
2159.05837813152
31
0.000298286593444719
  0
LINE
 8
GROUP0
10
-4239.40152779207
20
2159.32632732395
30
0.000298164148590224
11
-4238.91916588227
21
2159.12652647894
31
0.000298209987103099
  0
LINE
 8
GROUP0
10
-4237.88388970186
20
2159.12652647894
30
0.000298388748230066
11
-4237.40152779207
21
2159.32632732395
31
0.000298509488645354
  0
LINE
 8
GROUP0
10
-4236.9873142297
20
2159.64416456915
30
0.00029864058702172
11
-4236.6694769845
21
2160.05837813152
31
0.000298773109750466
  0
LINE
 8
GROUP0
10
-3942.40059754687
20
2159.32636425497
30
0.000276536092461604
11
-3941.9863839845
21
2159.64420150016
31
0.00027666719083797
  0
LINE
 8
GROUP0
10
-4238.40152779207
20
2163.05837813152
30
0.00029903636479291
11
-4238.91916588227
21
2162.9902297841
31
0.000298934210030122
  0
LINE
 8
GROUP0
10
-4237.88388970186
20
2162.9902297841
30
0.000299112971157089
11
-4238.40152779207
21
2163.05837813152
31
0.00029903636479291
  0
LINE
 8
GROUP0
10
-4236.40152779207
20
2161.05837813152
30
0.000299006819162312
11
-4236.46967613949
21
2161.57601622173
31
0.000299092079781554
  0
LINE
 8
GROUP0
10
-4236.46967613949
20
2160.54074004132
30
0.000298898024230793
11
-4236.40152779207
21
2161.05837813152
31
0.000299006819162312
  0
LINE
 8
GROUP0
10
-4236.6694769845
20
2160.05837813152
30
0.000298773109750466
11
-4236.46967613949
21
2160.54074004132
31
0.000298898024230793
  0
LINE
 8
GROUP0
10
-4236.9873142297
20
2162.4725916939
30
0.000299170755853084
11
-4237.40152779207
21
2162.79042893909
31
0.000299158809647404
  0
LINE
 8
GROUP0
10
-4237.40152779207
20
2159.32632732395
30
0.000298509488645354
11
-4236.9873142297
21
2159.64416456915
31
0.00029864058702172
  0
LINE
 8
GROUP0
10
-4238.40152779207
20
2159.05837813152
30
0.000298286593444719
11
-4237.88388970186
21
2159.12652647894
31
0.000298388748230066
  0
LINE
 8
GROUP0
10
-4236.46967613949
20
2161.57601622173
30
0.000299092079781554
11
-4236.6694769845
21
2162.05837813152
31
0.000299147995435489
  0
LINE
 8
GROUP0
10
-4282.65135899775
20
2071.05840706136
30
0.000132387593587219
11
-4282.71950734517
21
2071.57604515156
31
0.000132472854217741
  0
LINE
 8
GROUP0
10
-4282.91930819018
20
2070.05840706136
30
0.000132153884174668
11
-4282.71950734518
21
2070.54076897115
31
0.000132278798666979
  0
LINE
 8
GROUP0
10
-4283.23714543538
20
2069.64419349899
30
0.000132021361468482
11
-4282.91930819018
21
2070.05840706136
31
0.000132153884174668
  0
LINE
 8
GROUP0
10
-4283.65135899775
20
2069.32635625379
30
0.000131890263069556
11
-4283.23714543538
21
2069.64419349899
31
0.000132021361468482
  0
LINE
 8
GROUP0
10
-4240.13357859964
20
2162.05837813152
30
0.000298549848487162
11
-4240.33337944465
21
2161.57601622173
31
0.000298424934006131
  0
LINE
 8
GROUP0
10
-4240.40152779207
20
2161.05837813152
30
0.000298316139063332
11
-4240.33337944465
21
2160.54074004132
31
0.000298230878466649
  0
LINE
 8
GROUP0
10
-4239.81574135444
20
2159.64416456915
30
0.000298152202384544
11
-4239.40152779207
21
2159.32632732395
31
0.000298164148590224
  0
LINE
 8
GROUP0
10
-4238.91916588227
20
2162.9902297841
30
0.000298934210030122
11
-4239.40152779207
21
2162.79042893909
31
0.000298813469603554
  0
LINE
 8
GROUP0
10
-4240.13357859964
20
2160.05837813152
30
0.000298174962824699
11
-4239.81574135444
21
2159.64416456915
31
0.000298152202384544
  0
LINE
 8
GROUP0
10
-4240.33337944465
20
2161.57601622173
30
0.000298424934006131
11
-4240.40152779207
21
2161.05837813152
31
0.000298316139063332
  0
LINE
 8
GROUP0
10
-4239.40152779207
20
2162.79042893909
30
0.000298813469603554
11
-4239.81574135444
21
2162.4725916939
31
0.000298682371227188
  0
LINE
 8
GROUP0
10
-4282.91930819018
20
2072.05840706136
30
0.000132528769870971
11
-4283.23714543538
21
2072.47262062373
31
0.000132551530277286
  0
LINE
 8
GROUP0
10
-4282.71950734518
20
2070.54076897115
30
0.000132278798666979
11
-4282.65135899775
21
2071.05840706136
31
0.000132387593587219
  0
LINE
 8
GROUP0
10
-4239.81574135444
20
2162.4725916939
30
0.000298682371227188
11
-4240.13357859964
21
2162.05837813152
31
0.000298549848487162
  0
LINE
 8
GROUP0
10
-4240.33337944465
20
2160.54074004132
30
0.000298230878466649
11
-4240.13357859964
21
2160.05837813152
31
0.000298174962824699
  0
LINE
 8
GROUP0
10
-4282.71950734517
20
2071.57604515156
30
0.000132472854217741
11
-4282.91930819018
21
2072.05840706136
31
0.000132528769870971
  0
LINE
 8
GROUP0
10
-4284.65135899775
20
2069.05840706136
30
0.000131667367857641
11
-4284.13372090755
21
2069.12655540878
31
0.000131769522676828
  0
LINE
 8
GROUP0
10
-4286.38340980532
20
2070.05840706136
30
0.000131555736538269
11
-4286.06557256013
21
2069.64419349899
31
0.000131532976120674
  0
LINE
 8
GROUP0
10
-4285.16899708796
20
2069.12655540878
30
0.0001315907615273
11
-4284.65135899775
21
2069.05840706136
31
0.000131667367857641
  0
LINE
 8
GROUP0
10
-4285.65135899775
20
2072.79045786893
30
0.000132194244039036
11
-4286.06557256013
21
2072.47262062373
31
0.00013206314564011
  0
LINE
 8
GROUP0
10
-4285.16899708796
20
2072.99025871394
30
0.000132314984443044
11
-4285.65135899775
21
2072.79045786893
31
0.000132194244039036
  0
LINE
 8
GROUP0
10
-4284.13372090755
20
2072.99025871394
30
0.000132493745603851
11
-4284.65135899775
21
2073.05840706136
31
0.000132417139250951
  0
LINE
 8
GROUP0
10
-4286.65135899775
20
2071.05840706136
30
0.000131696912788887
11
-4286.58321065033
21
2070.54076897115
31
0.000131611652169644
  0
LINE
 8
GROUP0
10
-4286.58321065033
20
2070.54076897115
30
0.000131611652169644
11
-4286.38340980532
21
2070.05840706136
31
0.000131555736538269
  0
LINE
 8
GROUP0
10
-4286.06557256013
20
2069.64419349899
30
0.000131532976120674
11
-4285.65135899775
21
2069.32635625379
31
0.000131544923025706
  0
LINE
 8
GROUP0
10
-4285.65135899775
20
2069.32635625379
30
0.000131544923025706
11
-4285.16899708796
21
2069.12655540878
31
0.0001315907615273
  0
LINE
 8
GROUP0
10
-4286.06557256013
20
2072.47262062373
30
0.00013206314564011
11
-4286.38340980532
21
2072.05840706136
31
0.000131930622933923
  0
LINE
 8
GROUP0
10
-4284.65135899775
20
2073.05840706136
30
0.000132417139250951
11
-4285.16899708796
21
2072.99025871394
31
0.000132314984443044
  0
LINE
 8
GROUP0
10
-4284.13372090755
20
2069.12655540878
30
0.000131769522676828
11
-4283.65135899775
21
2069.32635625379
31
0.000131890263069556
  0
LINE
 8
GROUP0
10
-4286.58321065033
20
2071.57604515156
30
0.000131805707731686
11
-4286.65135899775
21
2071.05840706136
31
0.000131696912788887
  0
LINE
 8
GROUP0
10
-4286.38340980532
20
2072.05840706136
30
0.000131930622933923
11
-4286.58321065033
21
2071.57604515156
31
0.000131805707731686
  0
LINE
 8
GROUP0
10
-4283.65135899775
20
2072.79045786893
30
0.000132539584082886
11
-4284.13372090755
21
2072.99025871394
31
0.000132493745603851
  0
LINE
 8
GROUP0
10
-3895.73714543593
20
2069.64419349957
30
4.88384625896288e-007
11
-3895.41930819086
21
2070.05840706179
31
6.20907343362731e-007
  0
LINE
 8
GROUP0
10
-3897.66899708776
20
2069.12655540951
30
5.77846847149566e-008
11
-3897.15135899775
21
2069.05840706213
31
1.34391037615034e-007
  0
LINE
 8
GROUP0
10
-3895.41930819091
20
2072.05840706102
30
9.95793050945215e-007
11
-3895.73714543599
21
2072.47262062323
31
1.01855345726043e-006
  0
LINE
 8
GROUP0
10
-3897.15135899775
20
2069.05840706213
30
1.34391037615034e-007
11
-3896.63372090774
21
2069.12655540954
31
2.36545856802106e-007
  0
LINE
 8
GROUP0
10
-3898.15135899737
20
2069.32635625444
30
1.19461944003696e-008
11
-3897.66899708776
21
2069.12655540951
31
5.77846847149566e-008
  0
LINE
 8
GROUP0
10
-4283.23714543538
20
2072.47262062373
30
0.000132551530277286
11
-4283.65135899775
21
2072.79045786893
31
0.000132539584082886
  0
LINE
 8
GROUP0
10
-3898.56557255959
20
2069.6441934995
30
0.0
11
-3898.15135899737
21
2069.32635625444
31
1.19461944003696e-008
  0
LINE
 8
GROUP0
10
-3895.21950734594
20
2070.5407689714
30
7.45821846953598e-007
11
-3895.15135899856
21
2071.05840706141
31
8.54616767193006e-007
  0
LINE
 8
GROUP0
10
-3895.15135899856
20
2071.05840706141
30
8.54616767193006e-007
11
-3895.21950734597
21
2071.57604515142
31
9.39877397715394e-007
  0
LINE
 8
GROUP0
10
-3895.41930819086
20
2070.05840706179
30
6.20907343362731e-007
11
-3895.21950734594
21
2070.5407689714
31
7.45821846953598e-007
  0
LINE
 8
GROUP0
10
-3895.21950734597
20
2071.57604515142
30
9.39877397715394e-007
11
-3895.41930819091
21
2072.05840706102
31
9.95793050945215e-007
  0
LINE
 8
GROUP0
10
-3895.73714543599
20
2072.47262062323
30
1.01855345726043e-006
11
-3896.15135899822
21
2072.7904578683
31
1.00660726286006e-006
  0
LINE
 8
GROUP0
10
-3896.15135899814
20
2069.32635625448
30
3.57286226970732e-007
11
-3895.73714543593
21
2069.64419349957
31
4.88384625896288e-007
  0
LINE
 8
GROUP0
10
-3896.63372090774
20
2069.12655540954
30
2.36545856802106e-007
11
-3896.15135899814
21
2069.32635625448
31
3.57286226970732e-007
  0
LINE
 8
GROUP0
10
-3898.88340980468
20
2070.05840706171
30
2.2760440154812e-008
11
-3898.56557255959
21
2069.6441934995
31
0.0
  0
LINE
 8
GROUP0
10
-3899.08321064962
20
2070.54076897132
30
7.86760715298929e-008
11
-3898.88340980468
21
2070.05840706171
31
2.2760440154812e-008
  0
LINE
 8
GROUP0
10
-3898.56557255966
20
2072.47262062317
30
5.30168820084276e-007
11
-3898.88340980472
21
2072.05840706094
31
3.97646113897698e-007
  0
LINE
 8
GROUP0
10
-3898.15135899745
20
2072.79045786825
30
6.61267219009831e-007
11
-3898.56557255966
21
2072.47262062317
31
5.30168820084276e-007
  0
LINE
 8
GROUP0
10
-3899.15135899703
20
2071.05840706132
30
1.63936679492549e-007
11
-3899.08321064962
21
2070.54076897132
31
7.86760715298929e-008
  0
LINE
 8
GROUP0
10
-3897.66899708785
20
2072.99025871319
30
7.82007611738189e-007
11
-3898.15135899745
21
2072.79045786825
31
6.61267219009831e-007
  0
LINE
 8
GROUP0
10
-3896.15135899822
20
2072.7904578683
30
1.00660726286006e-006
11
-3896.63372090783
21
2072.99025871322
31
9.60768783825339e-007
  0
LINE
 8
GROUP0
10
-3899.08321064965
20
2071.57604515133
30
2.72731611011823e-007
11
-3899.15135899703
21
2071.05840706132
31
1.63936679492549e-007
  0
LINE
 8
GROUP0
10
-3897.15135899784
20
2073.0584070606
30
8.8416240836553e-007
11
-3897.66899708785
21
2072.99025871319
31
7.82007611738189e-007
  0
LINE
 8
GROUP0
10
-3896.63372090783
20
2072.99025871322
30
9.60768783825339e-007
11
-3897.15135899784
21
2073.0584070606
31
8.8416240836553e-007
  0
LINE
 8
GROUP0
10
-3898.88340980472
20
2072.05840706094
30
3.97646113897698e-007
11
-3899.08321064965
21
2071.57604515133
31
2.72731611011823e-007
 0
ENDSEC
 0
EOF
