 0
SECTION
 2
ENTITIES
  0
LINE
 8
GROUP0
10
-3924.0976120131
20
679.397226475109
30
0.000147543856864907
11
-3923.78695184132
21
679.158848541212
31
0.000147586828326318
  0
LINE
 8
GROUP0
10
-3894.23584058075
20
676.649299629999
30
0.000146913108915747
11
-3894.5976120131
21
676.799150263756
31
0.000146846371137777
  0
LINE
 8
GROUP0
10
-3923.78695184132
20
679.158848541212
30
0.000147586828326318
11
-3923.54857390742
21
678.848188369432
31
0.000147603104992378
  0
LINE
 8
GROUP0
10
-3923.54857390742
20
678.848188369432
30
0.000147603104992378
11
-3923.39872327366
21
678.486416937086
31
0.000147591577736428
  0
LINE
 8
GROUP0
10
-3923.3476120131
20
678.098188369433
30
0.000147553032043213
11
-3923.39872327366
21
677.709959801779
31
0.000147490094722791
  0
LINE
 8
GROUP0
10
-3924.8476120131
20
676.598188369433
30
0.000146999062937958
11
-3925.23584058075
21
676.64929963
31
0.000146913106930491
  0
LINE
 8
GROUP0
10
-3893.0976120131
20
676.799150263756
30
0.000147204290127156
11
-3893.45938344544
21
676.649299629999
31
0.000147098381390443
  0
LINE
 8
GROUP0
10
-3924.0976120131
20
676.799150263756
30
0.000147204288187019
11
-3924.45938344544
21
676.64929963
31
0.000147098379450306
  0
LINE
 8
GROUP0
10
-3923.39872327366
20
678.486416937086
30
0.000147591577736428
11
-3923.3476120131
21
678.098188369433
31
0.000147553032043213
  0
LINE
 8
GROUP0
10
-3923.54857390742
20
677.348188369433
30
0.000147407054921622
11
-3923.78695184132
21
677.037528197653
31
0.000147309571658205
  0
LINE
 8
GROUP0
10
-3923.78695184132
20
677.037528197653
30
0.000147309571658205
11
-3924.0976120131
21
676.799150263756
31
0.000147204288187019
  0
LINE
 8
GROUP0
10
-3923.39872327366
20
677.709959801779
30
0.000147490094722791
11
-3923.54857390742
21
677.348188369433
31
0.000147407054921622
  0
LINE
 8
GROUP0
10
-3924.45938344544
20
676.64929963
30
0.000147098379450306
11
-3924.8476120131
21
676.598188369433
31
0.000146999062937958
  0
LINE
 8
GROUP0
10
-3892.78695184132
20
677.037528197653
30
0.000147309573553223
11
-3893.0976120131
21
676.799150263756
31
0.000147204290127156
  0
LINE
 8
GROUP0
10
-3893.45938344544
20
676.649299629999
30
0.000147098381390443
11
-3893.8476120131
21
676.598188369433
31
0.000146999064878095
  0
LINE
 8
GROUP0
10
-3892.54857390742
20
677.348188369433
30
0.000147407056861759
11
-3892.78695184132
21
677.037528197653
31
0.000147309573553223
  0
LINE
 8
GROUP0
10
-3893.8476120131
20
676.598188369433
30
0.000146999064878095
11
-3894.23584058075
21
676.649299629999
31
0.000146913108915747
  0
LINE
 8
GROUP0
10
-4365.29699078698
20
917.486906971695
30
9.19360236075306e-005
11
-4365.14714015323
21
917.848678404041
31
9.1852983806362e-005
  0
LINE
 8
GROUP0
10
-4365.14714015323
20
917.848678404041
30
9.1852983806362e-005
11
-4364.90876221933
21
918.159338575821
31
9.17555004978254e-005
  0
LINE
 8
GROUP0
10
-4365.34810204755
20
917.098678404041
30
9.19989608828331e-005
11
-4365.29699078698
21
917.486906971695
31
9.19360236075306e-005
  0
LINE
 8
GROUP0
10
-4365.14714015324
20
947.348678404041
30
9.20490338771174e-005
11
-4365.29699078699
21
947.710449836388
31
9.20375065760481e-005
  0
LINE
 8
GROUP0
10
-4362.39921330813
20
947.710449836388
30
9.13460602244953e-005
11
-4362.54906394188
21
947.348678404041
31
9.14291000256639e-005
  0
LINE
 8
GROUP0
10
-4362.78744187578
20
947.038018232262
30
9.15265833342005e-005
11
-4363.09810204756
21
946.799640298365
31
9.16318667602667e-005
  0
LINE
 8
GROUP0
10
-4363.45987347991
20
946.649789664608
30
9.17377754969806e-005
11
-4363.84810204756
21
946.598678404041
31
9.18370920093281e-005
  0
LINE
 8
GROUP0
10
-4363.09810204756
20
946.799640298365
30
9.16318667602667e-005
11
-4363.45987347991
21
946.649789664608
31
9.17377754969806e-005
  0
LINE
 8
GROUP0
10
-4363.84810204756
20
946.598678404041
30
9.18370920093281e-005
11
-4364.23633061521
21
946.649789664608
31
9.19230479716759e-005
  0
LINE
 8
GROUP0
10
-4364.23633061521
20
946.649789664608
30
9.19230479716759e-005
11
-4364.59810204756
21
946.799640298365
31
9.19897857496466e-005
  0
LINE
 8
GROUP0
10
-4364.59810204756
20
946.799640298365
30
9.19897857496466e-005
11
-4364.90876221934
21
947.038018232262
31
9.20327571659385e-005
  0
LINE
 8
GROUP0
10
-4364.90876221934
20
947.038018232262
30
9.20327571659385e-005
11
-4365.14714015324
21
947.348678404041
31
9.20490338771174e-005
  0
LINE
 8
GROUP0
10
-4362.34810204756
20
948.098678404041
30
9.12831229491928e-005
11
-4362.39921330813
21
947.710449836388
31
9.13460602244953e-005
  0
LINE
 8
GROUP0
10
-4362.39921330813
20
948.486906971695
30
9.12445772108583e-005
11
-4362.34810204756
21
948.098678404041
31
9.12831229491928e-005
  0
LINE
 8
GROUP0
10
-4362.54906394188
20
947.348678404041
30
9.14291000256639e-005
11
-4362.78744187578
21
947.038018232262
31
9.15265833342005e-005
  0
LINE
 8
GROUP0
10
-4365.29699078698
20
916.710449836387
30
9.20375066211676e-005
11
-4365.34810204755
21
917.098678404041
31
9.19989608828331e-005
  0
LINE
 8
GROUP0
10
-4363.4598734799
20
915.649789664608
30
9.17377754969806e-005
11
-4363.84810204755
21
915.598678404041
31
9.18370920093281e-005
  0
LINE
 8
GROUP0
10
-4362.78744187577
20
916.038018232261
30
9.1526583289081e-005
11
-4363.09810204755
21
915.799640298364
31
9.16318667602667e-005
  0
LINE
 8
GROUP0
10
-4364.59810204755
20
918.397716509717
30
9.16502170717592e-005
11
-4364.2363306152
21
918.547567143474
31
9.15443083350453e-005
  0
LINE
 8
GROUP0
10
-4362.54906394187
20
916.348678404041
30
9.14291000256639e-005
11
-4362.78744187577
21
916.038018232261
31
9.1526583289081e-005
  0
LINE
 8
GROUP0
10
-4364.2363306152
20
918.547567143474
30
9.15443083350453e-005
11
-4363.84810204755
21
918.59867840404
31
9.14449918226978e-005
  0
LINE
 8
GROUP0
10
-4363.84810204755
20
915.598678404041
30
9.18370920093281e-005
11
-4364.2363306152
21
915.649789664608
31
9.19230480167954e-005
  0
LINE
 8
GROUP0
10
-4364.90876221933
20
918.159338575821
30
9.17555004978254e-005
11
-4364.59810204755
21
918.397716509717
31
9.16502170717592e-005
  0
LINE
 8
GROUP0
10
-4363.84810204755
20
918.59867840404
30
9.14449918226978e-005
11
-4363.4598734799
21
918.547567143474
31
9.13590358152305e-005
  0
LINE
 8
GROUP0
10
-4362.54906394187
20
917.848678404041
30
9.12330499549085e-005
11
-4362.39921330812
21
917.486906971694
31
9.12445772108583e-005
  0
LINE
 8
GROUP0
10
-4362.39921330812
20
917.486906971694
30
9.12445772108583e-005
11
-4362.34810204755
21
917.098678404041
31
9.12831229040734e-005
  0
LINE
 8
GROUP0
10
-4362.39921330812
20
916.710449836387
30
9.13460602244953e-005
11
-4362.54906394187
21
916.348678404041
31
9.14291000256639e-005
  0
LINE
 8
GROUP0
10
-4363.4598734799
20
918.547567143474
30
9.13590358152305e-005
11
-4363.09810204755
21
918.397716509717
31
9.12922980823794e-005
  0
LINE
 8
GROUP0
10
-4362.34810204755
20
917.098678404041
30
9.12831229040734e-005
11
-4362.39921330812
21
916.710449836387
31
9.13460602244953e-005
  0
LINE
 8
GROUP0
10
-4363.09810204755
20
918.397716509717
30
9.12922980823794e-005
11
-4362.78744187577
21
918.15933857582
31
9.1249326620968e-005
  0
LINE
 8
GROUP0
10
-4363.09810204755
20
915.799640298364
30
9.16318667602667e-005
11
-4363.4598734799
21
915.649789664608
31
9.17377754969806e-005
  0
LINE
 8
GROUP0
10
-4362.78744187577
20
918.15933857582
30
9.1249326620968e-005
11
-4362.54906394187
21
917.848678404041
31
9.12330499549085e-005
  0
LINE
 8
GROUP0
10
-4393.54906394187
20
917.84867840404
30
9.12330518950455e-005
11
-4393.39921330812
21
917.486906971694
31
9.12445791509953e-005
  0
LINE
 8
GROUP0
10
-4396.14714015323
20
917.84867840404
30
9.18529857464989e-005
11
-4395.90876221933
21
918.15933857582
31
9.17555024379624e-005
  0
LINE
 8
GROUP0
10
-4395.90876221933
20
918.15933857582
30
9.17555024379624e-005
11
-4395.59810204755
21
918.397716509716
31
9.16502190118962e-005
  0
LINE
 8
GROUP0
10
-4395.2363306152
20
918.547567143473
30
9.15443102751823e-005
11
-4394.84810204755
21
918.59867840404
31
9.14449937628348e-005
  0
LINE
 8
GROUP0
10
-4394.09810204755
20
918.397716509716
30
9.12923000225163e-005
11
-4393.78744187577
21
918.15933857582
31
9.12493285611049e-005
  0
LINE
 8
GROUP0
10
-4364.2363306152
20
915.649789664608
30
9.19230480167954e-005
11
-4364.59810204755
21
915.799640298364
31
9.19897857496466e-005
  0
LINE
 8
GROUP0
10
-4364.59810204755
20
915.799640298364
30
9.19897857496466e-005
11
-4364.90876221933
21
916.038018232261
31
9.2032757211058e-005
  0
LINE
 8
GROUP0
10
-4365.14714015323
20
916.348678404041
30
9.20490338771174e-005
11
-4365.29699078698
21
916.710449836387
31
9.20375066211676e-005
  0
LINE
 8
GROUP0
10
-4396.29699078698
20
917.486906971694
30
9.19360255476675e-005
11
-4396.14714015323
21
917.84867840404
31
9.18529857464989e-005
  0
LINE
 8
GROUP0
10
-4396.34810204755
20
917.09867840404
30
9.199896282297e-005
11
-4396.29699078698
21
917.486906971694
31
9.19360255476675e-005
  0
LINE
 8
GROUP0
10
-4394.84810204755
20
918.59867840404
30
9.14449937628348e-005
11
-4394.4598734799
21
918.547567143473
31
9.13590377553675e-005
  0
LINE
 8
GROUP0
10
-4396.29699078698
20
916.710449836387
30
9.20375085161851e-005
11
-4396.34810204755
21
917.09867840404
31
9.199896282297e-005
  0
LINE
 8
GROUP0
10
-4364.90876221933
20
916.038018232261
30
9.2032757211058e-005
11
-4365.14714015323
21
916.348678404041
31
9.20490338771174e-005
  0
LINE
 8
GROUP0
10
-4395.59810204755
20
918.397716509716
30
9.16502190118962e-005
11
-4395.2363306152
21
918.547567143473
31
9.15443102751823e-005
  0
LINE
 8
GROUP0
10
-4394.4598734799
20
918.547567143473
30
9.13590377553675e-005
11
-4394.09810204755
21
918.397716509716
31
9.12923000225163e-005
  0
LINE
 8
GROUP0
10
-4393.78744187577
20
918.15933857582
30
9.12493285611049e-005
11
-4393.54906394187
21
917.84867840404
31
9.12330518950455e-005
  0
LINE
 8
GROUP0
10
-4395.59810204755
20
915.799640298364
30
9.19897876897835e-005
11
-4395.90876221933
21
916.038018232261
31
9.20327591060754e-005
  0
LINE
 8
GROUP0
10
-3894.23584058068
20
918.547567143408
30
0.000142444226274385
11
-3893.84761201303
21
918.598678403975
31
0.00014240568058117
  0
LINE
 8
GROUP0
10
-3893.45938344537
20
918.547567143408
30
0.000142342743305868
11
-3893.09761201302
21
918.397716509652
31
0.000142259703504699
  0
LINE
 8
GROUP0
10
-4393.39921330812
20
917.486906971694
30
9.12445791509953e-005
11
-4393.34810204755
21
917.09867840404
31
9.12831248893298e-005
  0
LINE
 8
GROUP0
10
-4393.54906394187
20
916.34867840404
30
9.14291019658009e-005
11
-4393.78744187577
21
916.03801823226
31
9.15265852743374e-005
  0
LINE
 8
GROUP0
10
-3893.84761201303
20
918.598678403975
30
0.00014240568058117
11
-3893.45938344537
21
918.547567143408
31
0.000142342743305868
  0
LINE
 8
GROUP0
10
-4393.78744187577
20
916.03801823226
30
9.15265852743374e-005
11
-4394.09810204755
21
915.799640298364
31
9.16318687004036e-005
  0
LINE
 8
GROUP0
10
-4393.39921330812
20
916.710449836386
30
9.13460621646323e-005
11
-4393.54906394187
21
916.34867840404
31
9.14291019658009e-005
  0
LINE
 8
GROUP0
10
-4394.09810204755
20
915.799640298364
30
9.16318687004036e-005
11
-4394.4598734799
21
915.649789664607
31
9.17377774371175e-005
  0
LINE
 8
GROUP0
10
-4393.34810204755
20
917.09867840404
30
9.12831248893298e-005
11
-4393.39921330812
21
916.710449836386
31
9.13460621646323e-005
  0
LINE
 8
GROUP0
10
-4395.90876221933
20
916.038018232261
30
9.20327591060754e-005
11
-4396.14714015323
21
916.34867840404
31
9.20490358172543e-005
  0
LINE
 8
GROUP0
10
-4394.84810204755
20
915.59867840404
30
9.1837093949465e-005
11
-4395.2363306152
21
915.649789664607
31
9.19230499118129e-005
  0
LINE
 8
GROUP0
10
-4396.14714015323
20
916.34867840404
30
9.20490358172543e-005
11
-4396.29699078698
21
916.710449836387
31
9.20375085161851e-005
  0
LINE
 8
GROUP0
10
-3893.09761201302
20
918.397716509652
30
0.000142259703504699
11
-3892.78695184124
21
918.159338575755
31
0.000142162220196163
  0
LINE
 8
GROUP0
10
-4395.2363306152
20
915.649789664607
30
9.19230499118129e-005
11
-4395.59810204755
21
915.799640298364
31
9.19897876897835e-005
  0
LINE
 8
GROUP0
10
-4394.4598734799
20
915.649789664607
30
9.17377774371175e-005
11
-4394.84810204755
21
915.59867840404
31
9.1837093949465e-005
  0
LINE
 8
GROUP0
10
-3892.34761201303
20
917.098678403975
30
0.000141851711521035
11
-3892.39872327359
21
916.710449836321
31
0.000141765755513568
  0
LINE
 8
GROUP0
10
-3893.09761201302
20
915.799640298299
30
0.000141639769653246
11
-3893.45938344537
21
915.649789664542
31
0.000141651296909195
  0
LINE
 8
GROUP0
10
-3892.54857390735
20
916.348678403975
30
0.000141699017780716
11
-3892.78695184124
21
916.038018232195
31
0.000141656046319305
  0
LINE
 8
GROUP0
10
-3893.45938344537
20
915.649789664542
30
0.000141651296909195
11
-3893.84761201303
21
915.598678403975
31
0.00014168984264753
  0
LINE
 8
GROUP0
10
-3892.39872327359
20
917.486906971629
30
0.000141951028033382
11
-3892.34761201303
21
917.098678403975
31
0.000141851711521035
  0
LINE
 8
GROUP0
10
-3892.39872327359
20
916.710449836321
30
0.000141765755513568
11
-3892.54857390735
21
916.348678403975
31
0.000141699017780716
  0
LINE
 8
GROUP0
10
-3894.23584058068
20
915.649789664542
30
0.000141752779922832
11
-3894.59761201302
21
915.799640298299
31
0.000141835819724001
  0
LINE
 8
GROUP0
10
-3894.59761201302
20
915.799640298299
30
0.000141835819724001
11
-3894.9082721848
21
916.038018232195
31
0.000141933303032538
  0
LINE
 8
GROUP0
10
-3894.9082721848
20
916.038018232195
30
0.000141933303032538
11
-3895.1466501187
21
916.348678403975
31
0.000142038586458604
  0
LINE
 8
GROUP0
10
-3895.1466501187
20
916.348678403975
30
0.000142038586458604
11
-3895.29650075246
21
916.710449836321
31
0.000142144495195318
  0
LINE
 8
GROUP0
10
-3892.54857390735
20
917.848678403975
30
0.000142056936770096
11
-3892.39872327359
21
917.486906971629
31
0.000141951028033382
  0
LINE
 8
GROUP0
10
-3895.29650075246
20
916.710449836321
30
0.000142144495195318
11
-3895.34761201303
21
917.098678403975
31
0.000142243811707665
  0
LINE
 8
GROUP0
10
-3893.84761201303
20
915.598678403975
30
0.00014168984264753
11
-3894.23584058068
21
915.649789664542
31
0.000141752779922832
  0
LINE
 8
GROUP0
10
-3892.78695184124
20
918.159338575755
30
0.000142162220196163
11
-3892.54857390735
21
917.848678403975
31
0.000142056936770096
  0
LINE
 8
GROUP0
10
-3892.78695184124
20
916.038018232195
30
0.000141656046319305
11
-3893.09761201302
21
915.799640298299
31
0.000141639769653246
  0
LINE
 8
GROUP0
10
-3895.34761201303
20
917.098678403975
30
0.000142243811707665
11
-3895.29650075246
21
917.486906971629
31
0.000142329767670013
  0
LINE
 8
GROUP0
10
-3923.39872327359
20
916.710449836311
30
0.000141765755513568
11
-3923.54857390735
21
916.348678403965
31
0.000141699017780716
  0
LINE
 8
GROUP0
10
-3895.1466501187
20
917.848678403975
30
0.000142396505447984
11
-3894.9082721848
21
918.159338575755
31
0.000142439476864276
  0
LINE
 8
GROUP0
10
-3894.9082721848
20
918.159338575755
30
0.000142439476864276
11
-3894.59761201302
21
918.397716509652
31
0.000142455753575454
  0
LINE
 8
GROUP0
10
-3923.39872327359
20
917.486906971619
30
0.000141951028033382
11
-3923.34761201302
21
917.098678403965
31
0.000141851711521035
  0
LINE
 8
GROUP0
10
-3924.09761201303
20
915.799640298289
30
0.000141639769653246
11
-3924.45938344537
21
915.649789664532
31
0.000141651296909195
  0
LINE
 8
GROUP0
10
-3923.34761201302
20
917.098678403965
30
0.000141851711521035
11
-3923.39872327359
21
916.710449836311
31
0.000141765755513568
  0
LINE
 8
GROUP0
10
-3923.78695184125
20
916.038018232185
30
0.000141656046319305
11
-3924.09761201303
21
915.799640298289
31
0.000141639769653246
  0
LINE
 8
GROUP0
10
-3895.29650075246
20
917.486906971629
30
0.000142329767670013
11
-3895.1466501187
21
917.848678403975
31
0.000142396505447984
  0
LINE
 8
GROUP0
10
-3925.23584058068
20
918.547567143398
30
0.000142444226319505
11
-3924.84761201302
21
918.598678403965
31
0.00014240568058117
  0
LINE
 8
GROUP0
10
-3924.84761201302
20
918.598678403965
30
0.00014240568058117
11
-3924.45938344537
21
918.547567143398
31
0.000142342743305868
  0
LINE
 8
GROUP0
10
-3924.09761201303
20
918.397716509641
30
0.000142259703504699
11
-3923.78695184125
21
918.159338575745
31
0.000142162220196163
  0
LINE
 8
GROUP0
10
-3894.59761201302
20
918.397716509652
30
0.000142455753575454
11
-3894.23584058068
21
918.547567143408
31
0.000142444226274385
  0
LINE
 8
GROUP0
10
-3923.78695184125
20
918.159338575745
30
0.000142162220196163
11
-3923.54857390735
21
917.848678403965
31
0.000142056936770096
  0
LINE
 8
GROUP0
10
-3923.54857390735
20
916.348678403965
30
0.000141699017780716
11
-3923.78695184125
21
916.038018232185
31
0.000141656046319305
  0
LINE
 8
GROUP0
10
-3924.45938344537
20
918.547567143398
30
0.000142342743305868
11
-3924.09761201303
21
918.397716509641
31
0.000142259703504699
  0
LINE
 8
GROUP0
10
-3923.54857390735
20
917.848678403965
30
0.000142056936770096
11
-3923.39872327359
21
917.486906971619
31
0.000141951028033382
  0
LINE
 8
GROUP0
10
-3925.23584058068
20
915.649789664532
30
0.000141752779922832
11
-3925.59761201303
21
915.799640298289
31
0.000141835819724001
  0
LINE
 8
GROUP0
10
-3926.1466501187
20
917.848678403965
30
0.000142396505447984
11
-3925.9082721848
21
918.159338575745
31
0.000142439476909395
  0
LINE
 8
GROUP0
10
-3924.45938344537
20
915.649789664532
30
0.000141651296909195
11
-3924.84761201303
21
915.598678403965
31
0.00014168984260241
  0
LINE
 8
GROUP0
10
-3926.29650075246
20
917.486906971619
30
0.000142329767715133
11
-3926.1466501187
21
917.848678403965
31
0.000142396505447984
  0
LINE
 8
GROUP0
10
-3924.84761201303
20
915.598678403965
30
0.00014168984260241
11
-3925.23584058068
21
915.649789664532
31
0.000141752779922832
  0
LINE
 8
GROUP0
10
-3925.59761201303
20
918.397716509641
30
0.000142455753575454
11
-3925.23584058068
21
918.547567143398
31
0.000142444226319505
  0
LINE
 8
GROUP0
10
-3925.9082721848
20
918.159338575745
30
0.000142439476909395
11
-3925.59761201303
21
918.397716509641
31
0.000142455753575454
  0
LINE
 8
GROUP0
10
-3926.29650075246
20
916.710449836311
30
0.000142144495195318
11
-3926.34761201302
21
917.098678403965
31
0.000142243811707665
  0
LINE
 8
GROUP0
10
-3925.23584058068
20
949.547567143397
30
0.000142444228214522
11
-3924.84761201303
21
949.598678403965
31
0.000142405682521307
  0
LINE
 8
GROUP0
10
-3926.34761201302
20
917.098678403965
30
0.000142243811707665
11
-3926.29650075246
21
917.486906971619
31
0.000142329767715133
  0
LINE
 8
GROUP0
10
-3924.84761201303
20
949.598678403965
30
0.000142405682521307
11
-3924.45938344537
21
949.547567143398
31
0.000142342745246005
  0
LINE
 8
GROUP0
10
-3926.1466501187
20
916.348678403965
30
0.000142038586458604
11
-3926.29650075246
21
916.710449836311
31
0.000142144495195318
  0
LINE
 8
GROUP0
10
-3925.59761201303
20
915.799640298289
30
0.000141835819724001
11
-3925.9082721848
21
916.038018232185
31
0.000141933302987418
  0
LINE
 8
GROUP0
10
-3925.9082721848
20
916.038018232185
30
0.000141933302987418
11
-3926.1466501187
21
916.348678403965
31
0.000142038586458604
  0
LINE
 8
GROUP0
10
-3924.09761201303
20
949.397716509641
30
0.000142259705444836
11
-3923.78695184125
21
949.159338575745
31
0.000142162222136299
  0
LINE
 8
GROUP0
10
-3924.45938344537
20
949.547567143398
30
0.000142342745246005
11
-3924.09761201303
21
949.397716509641
31
0.000142259705444836
  0
LINE
 8
GROUP0
10
-3923.39872327359
20
948.486906971619
30
0.000141951029973519
11
-3923.34761201303
21
948.098678403965
31
0.000141851713461172
  0
LINE
 8
GROUP0
10
-3924.84761201303
20
946.598678403966
30
0.000141689844587667
11
-3925.23584058068
21
946.649789664533
31
0.000141752781862969
  0
LINE
 8
GROUP0
10
-3923.78695184125
20
947.038018232186
30
0.000141656048259442
11
-3924.09761201303
21
946.799640298289
31
0.000141639771593383
  0
LINE
 8
GROUP0
10
-3923.54857390735
20
947.348678403965
30
0.000141699019720853
11
-3923.78695184125
21
947.038018232186
31
0.000141656048259442
  0
LINE
 8
GROUP0
10
-3924.09761201303
20
946.799640298289
30
0.000141639771593383
11
-3924.45938344537
21
946.649789664533
31
0.000141651298849332
  0
LINE
 8
GROUP0
10
-3923.34761201303
20
948.098678403965
30
0.000141851713461172
11
-3923.39872327359
21
947.710449836311
31
0.000141765757453705
  0
LINE
 8
GROUP0
10
-3925.59761201303
20
946.799640298289
30
0.000141835821664138
11
-3925.9082721848
21
947.038018232186
31
0.000141933304972675
  0
LINE
 8
GROUP0
10
-3925.9082721848
20
947.038018232186
30
0.000141933304972675
11
-3926.1466501187
21
947.348678403965
31
0.000142038588398741
  0
LINE
 8
GROUP0
10
-3926.1466501187
20
947.348678403965
30
0.000142038588398741
11
-3926.29650075246
21
947.710449836311
31
0.000142144497135455
  0
LINE
 8
GROUP0
10
-3923.54857390735
20
948.848678403965
30
0.000142056938710233
11
-3923.39872327359
21
948.486906971619
31
0.000141951029973519
  0
LINE
 8
GROUP0
10
-3923.78695184125
20
949.159338575745
30
0.000142162222136299
11
-3923.54857390735
21
948.848678403965
31
0.000142056938710233
  0
LINE
 8
GROUP0
10
-3923.39872327359
20
947.710449836311
30
0.000141765757453705
11
-3923.54857390735
21
947.348678403965
31
0.000141699019720853
  0
LINE
 8
GROUP0
10
-3926.29650075246
20
947.710449836311
30
0.000142144497135455
11
-3926.34761201303
21
948.098678403965
31
0.000142243813647802
  0
LINE
 8
GROUP0
10
-3924.45938344537
20
946.649789664533
30
0.000141651298849332
11
-3924.84761201303
21
946.598678403966
31
0.000141689844587667
  0
LINE
 8
GROUP0
10
-3925.23584058068
20
946.649789664533
30
0.000141752781862969
11
-3925.59761201303
21
946.799640298289
31
0.000141835821664138
  0
LINE
 8
GROUP0
10
-3926.34761201303
20
948.098678403965
30
0.000142243813647802
11
-3926.29650075246
21
948.486906971618
31
0.00014232976961015
  0
LINE
 8
GROUP0
10
-3925.90827218488
20
677.037528197653
30
0.000146803397736228
11
-3926.14665011877
21
677.348188369433
31
0.000146787121070169
  0
LINE
 8
GROUP0
10
-3926.29650075253
20
678.486416937087
30
0.000146900131339756
11
-3926.14665011877
21
678.848188369433
31
0.000146983171140924
  0
LINE
 8
GROUP0
10
-3926.29650075246
20
948.486906971618
30
0.00014232976961015
11
-3926.1466501187
21
948.848678403964
31
0.000142396507388121
  0
LINE
 8
GROUP0
10
-3926.29650075253
20
677.709959801779
30
0.000146798648326119
11
-3926.3476120131
21
678.098188369433
31
0.000146837194064453
  0
LINE
 8
GROUP0
10
-3925.23584058075
20
679.547077108866
30
0.000147291846612241
11
-3924.8476120131
21
679.598188369432
31
0.000147391163124588
  0
LINE
 8
GROUP0
10
-3925.23584058075
20
676.64929963
30
0.000146913106930491
11
-3925.5976120131
21
676.799150263756
31
0.00014684636919764
  0
LINE
 8
GROUP0
10
-3924.8476120131
20
679.598188369432
30
0.000147391163124588
11
-3924.45938344544
21
679.547077108866
31
0.000147477119132056
  0
LINE
 8
GROUP0
10
-3925.5976120131
20
679.397226475109
30
0.000147185937875527
11
-3925.23584058075
21
679.547077108866
31
0.000147291846612241
  0
LINE
 8
GROUP0
10
-3925.5976120131
20
676.799150263756
30
0.00014684636919764
11
-3925.90827218488
21
677.037528197653
31
0.000146803397736228
  0
LINE
 8
GROUP0
10
-3926.1466501187
20
948.848678403964
30
0.000142396507388121
11
-3925.9082721848
21
949.159338575744
31
0.000142439478804413
  0
LINE
 8
GROUP0
10
-3926.14665011877
20
678.848188369433
30
0.000146983171140924
11
-3925.90827218488
21
679.158848541212
31
0.000147080654449461
  0
LINE
 8
GROUP0
10
-3926.3476120131
20
678.098188369433
30
0.000146837194064453
11
-3926.29650075253
21
678.486416937087
31
0.000146900131339756
  0
LINE
 8
GROUP0
10
-3925.90827218488
20
679.158848541212
30
0.000147080654449461
11
-3925.5976120131
21
679.397226475109
31
0.000147185937875527
  0
LINE
 8
GROUP0
10
-3926.14665011877
20
677.348188369433
30
0.000146787121070169
11
-3926.29650075253
21
677.709959801779
31
0.000146798648326119
  0
LINE
 8
GROUP0
10
-3925.59761201303
20
949.397716509641
30
0.000142455755515591
11
-3925.23584058068
21
949.547567143397
31
0.000142444228214522
  0
LINE
 8
GROUP0
10
-3925.9082721848
20
949.159338575744
30
0.000142439478804413
11
-3925.59761201303
21
949.397716509641
31
0.000142455755515591
  0
LINE
 8
GROUP0
10
-3924.45938344544
20
679.547077108866
30
0.000147477119132056
11
-3924.0976120131
21
679.397226475109
31
0.000147543856864907
  0
LINE
 8
GROUP0
10
-3915.84761201309
20
651.339858120304
30
0.000110781152340245
11
-3912.71225959943
21
650.041152627743
31
0.000110781152340245
  0
LINE
 8
GROUP0
10
-3918.54000016852
20
653.405800214076
30
0.000110781152340245
11
-3915.84761201309
21
651.339858120304
31
0.000110781152340245
  0
LINE
 8
GROUP0
10
-3921.90464775485
20
659.233540783168
30
0.000110781152340245
11
-3920.60594226229
21
656.098188369501
31
0.000110781152340245
  0
LINE
 8
GROUP0
10
-3920.60594226229
20
656.098188369501
30
0.000110781152340245
11
-3918.54000016852
21
653.405800214076
31
0.000110781152340245
  0
LINE
 8
GROUP0
10
-3922.34761201309
20
662.598188369501
30
0.000110781152340245
11
-3921.90464775485
21
659.233540783168
31
0.000110781152340245
  0
LINE
 8
GROUP0
10
-3921.90464775485
20
665.962835955834
30
0.000110781152340245
11
-3922.34761201309
21
662.598188369501
31
0.000110781152340245
  0
LINE
 8
GROUP0
10
-3912.71225959943
20
675.155224111259
30
0.000110781152340245
11
-3915.8476120131
21
673.856518618699
31
0.000110781152340245
  0
LINE
 8
GROUP0
10
-3905.98296442676
20
675.155224111259
30
0.000110781152340245
11
-3909.3476120131
21
675.598188369501
31
0.000110781152340245
  0
LINE
 8
GROUP0
10
-3898.0892817639
20
669.098188369502
30
0.000110781152340245
11
-3900.15522385767
21
671.790576524927
31
0.000110781152340245
  0
LINE
 8
GROUP0
10
-3915.8476120131
20
673.856518618699
30
0.000110781152340245
11
-3918.54000016852
21
671.790576524926
31
0.000110781152340245
  0
LINE
 8
GROUP0
10
-3920.60594226229
20
669.098188369501
30
0.000110781152340245
11
-3921.90464775485
21
665.962835955834
31
0.000110781152340245
  0
LINE
 8
GROUP0
10
-3902.8476120131
20
673.856518618699
30
0.000110781152340245
11
-3905.98296442676
21
675.155224111259
31
0.000110781152340245
  0
LINE
 8
GROUP0
10
-3900.15522385767
20
671.790576524927
30
0.000110781152340245
11
-3902.8476120131
21
673.856518618699
31
0.000110781152340245
  0
LINE
 8
GROUP0
10
-3896.34761201309
20
662.598188369502
30
0.000110781152340245
11
-3896.79057627134
21
665.962835955835
31
0.000110781152340245
  0
LINE
 8
GROUP0
10
-3896.79057627134
20
659.233540783169
30
0.000110781152340245
11
-3896.34761201309
21
662.598188369502
31
0.000110781152340245
  0
LINE
 8
GROUP0
10
-3896.79057627134
20
665.962835955835
30
0.000110781152340245
11
-3898.0892817639
21
669.098188369502
31
0.000110781152340245
  0
LINE
 8
GROUP0
10
-3909.3476120131
20
675.598188369501
30
0.000110781152340245
11
-3912.71225959943
21
675.155224111259
31
0.000110781152340245
  0
LINE
 8
GROUP0
10
-3898.0892817639
20
656.098188369502
30
0.000110781152340245
11
-3896.79057627134
21
659.233540783169
31
0.000110781152340245
  0
LINE
 8
GROUP0
10
-3900.15522385767
20
653.405800214077
30
0.000110781152340245
11
-3898.0892817639
21
656.098188369502
31
0.000110781152340245
  0
LINE
 8
GROUP0
10
-3902.84761201309
20
651.339858120304
30
0.000110781152340245
11
-3900.15522385767
21
653.405800214077
31
0.000110781152340245
  0
LINE
 8
GROUP0
10
-3918.54000016852
20
671.790576524926
30
0.000110781152340245
11
-3920.60594226229
21
669.098188369501
31
0.000110781152340245
  0
LINE
 8
GROUP0
10
-3905.98296442676
20
945.155714145796
30
9.40299691672308e-005
11
-3909.34761201309
21
945.598678404038
31
9.40299691672308e-005
  0
LINE
 8
GROUP0
10
-3902.84761201309
20
943.857008653236
30
9.40299691672308e-005
11
-3905.98296442676
21
945.155714145796
31
9.40299691672308e-005
  0
LINE
 8
GROUP0
10
-3900.15522385767
20
941.791066559464
30
9.40299691672308e-005
11
-3902.84761201309
21
943.857008653236
31
9.40299691672308e-005
  0
LINE
 8
GROUP0
10
-3921.90464775485
20
935.963325990371
30
9.40299691672308e-005
11
-3922.34761201309
21
932.598678404038
31
9.40299691672308e-005
  0
LINE
 8
GROUP0
10
-3920.60594226229
20
939.098678404038
30
9.40299691672308e-005
11
-3921.90464775485
21
935.963325990371
31
9.40299691672308e-005
  0
LINE
 8
GROUP0
10
-3898.08928176389
20
939.098678404039
30
9.40299691672308e-005
11
-3900.15522385767
21
941.791066559464
31
9.40299691672308e-005
  0
LINE
 8
GROUP0
10
-3912.71225959942
20
945.155714145796
30
9.40299691672308e-005
11
-3915.84761201309
21
943.857008653236
31
9.40299691672308e-005
  0
LINE
 8
GROUP0
10
-3918.54000016852
20
941.791066559463
30
9.40299691672308e-005
11
-3920.60594226229
21
939.098678404038
31
9.40299691672308e-005
  0
LINE
 8
GROUP0
10
-3915.84761201309
20
943.857008653236
30
9.40299691672308e-005
11
-3918.54000016852
21
941.791066559463
31
9.40299691672308e-005
  0
LINE
 8
GROUP0
10
-3896.79057627133
20
935.963325990371
30
9.40299691672308e-005
11
-3898.08928176389
21
939.098678404039
31
9.40299691672308e-005
  0
LINE
 8
GROUP0
10
-3896.34761201309
20
932.598678404039
30
9.40299691672308e-005
11
-3896.79057627133
21
935.963325990371
31
9.40299691672308e-005
  0
LINE
 8
GROUP0
10
-3909.34761201309
20
945.598678404038
30
9.40299691672308e-005
11
-3912.71225959942
21
945.155714145796
31
9.40299691672308e-005
  0
LINE
 8
GROUP0
10
-3912.71225959943
20
650.041152627743
30
0.000110781152340245
11
-3909.34761201309
21
649.598188369502
31
0.000110781152340245
  0
LINE
 8
GROUP0
10
-3905.98296442676
20
650.041152627744
30
0.000110781152340245
11
-3902.84761201309
21
651.339858120304
31
0.000110781152340245
  0
LINE
 8
GROUP0
10
-3909.34761201309
20
649.598188369502
30
0.000110781152340245
11
-3905.98296442676
21
650.041152627744
31
0.000110781152340245
  0
LINE
 8
GROUP0
10
-3922.34761201309
20
932.598678404038
30
9.40299691672308e-005
11
-3921.90464775485
21
929.234030817705
31
9.40299691672308e-005
  0
LINE
 8
GROUP0
10
-3918.54000016852
20
923.406290248613
30
9.40299691672308e-005
11
-3915.84761201309
21
921.34034815484
31
9.40299691672308e-005
  0
LINE
 8
GROUP0
10
-3920.60594226229
20
926.098678404038
30
9.40299691672308e-005
11
-3918.54000016852
21
923.406290248613
31
9.40299691672308e-005
  0
LINE
 8
GROUP0
10
-3902.84761201309
20
921.340348154841
30
9.40299691672308e-005
11
-3900.15522385767
21
923.406290248614
31
9.40299691672308e-005
  0
LINE
 8
GROUP0
10
-3909.34761201309
20
919.598678404038
30
9.40299691672308e-005
11
-3905.98296442676
21
920.04164266228
31
9.40299691672308e-005
  0
LINE
 8
GROUP0
10
-3900.15522385767
20
923.406290248614
30
9.40299691672308e-005
11
-3898.08928176389
21
926.098678404039
31
9.40299691672308e-005
  0
LINE
 8
GROUP0
10
-3898.08928176389
20
926.098678404039
30
9.40299691672308e-005
11
-3896.79057627133
21
929.234030817706
31
9.40299691672308e-005
  0
LINE
 8
GROUP0
10
-3912.71225959942
20
920.04164266228
30
9.40299691672308e-005
11
-3909.34761201309
21
919.598678404038
31
9.40299691672308e-005
  0
LINE
 8
GROUP0
10
-3896.79057627133
20
929.234030817706
30
9.40299691672308e-005
11
-3896.34761201309
21
932.598678404039
31
9.40299691672308e-005
  0
LINE
 8
GROUP0
10
-3905.98296442676
20
920.04164266228
30
9.40299691672308e-005
11
-3902.84761201309
21
921.340348154841
31
9.40299691672308e-005
  0
LINE
 8
GROUP0
10
-3915.84761201309
20
921.34034815484
30
9.40299691672308e-005
11
-3912.71225959942
21
920.04164266228
31
9.40299691672308e-005
  0
LINE
 8
GROUP0
10
-4366.79106630586
20
929.234030817707
30
8.00372105434377e-005
11
-4366.34810204762
21
932.59867840404
31
8.00372105434377e-005
  0
LINE
 8
GROUP0
10
-4368.08977179842
20
926.09867840404
30
8.00372105434377e-005
11
-4366.79106630586
21
929.234030817707
31
8.00372105434377e-005
  0
LINE
 8
GROUP0
10
-4370.15571389219
20
923.406290248615
30
8.00372105434377e-005
11
-4368.08977179842
21
926.09867840404
31
8.00372105434377e-005
  0
LINE
 8
GROUP0
10
-4372.84810204762
20
943.857008653238
30
8.00372105434377e-005
11
-4375.98345446129
21
945.155714145798
31
8.00372105434377e-005
  0
LINE
 8
GROUP0
10
-4368.08977179842
20
939.09867840404
30
8.00372105434377e-005
11
-4370.15571389219
21
941.791066559465
31
8.00372105434377e-005
  0
LINE
 8
GROUP0
10
-4385.84810204762
20
943.857008653237
30
8.00372105434377e-005
11
-4388.54049020304
21
941.791066559465
31
8.00372105434377e-005
  0
LINE
 8
GROUP0
10
-4388.54049020304
20
941.791066559465
30
8.00372105434377e-005
11
-4390.60643229682
21
939.098678404039
31
8.00372105434377e-005
  0
LINE
 8
GROUP0
10
-4382.71274963395
20
945.155714145797
30
8.00372105434377e-005
11
-4385.84810204762
21
943.857008653237
31
8.00372105434377e-005
  0
LINE
 8
GROUP0
10
-3921.90464775485
20
929.234030817705
30
9.40299691672308e-005
11
-3920.60594226229
21
926.098678404038
31
9.40299691672308e-005
  0
LINE
 8
GROUP0
10
-4390.60643229682
20
939.098678404039
30
8.00372105434377e-005
11
-4391.90513778938
21
935.963325990372
31
8.00372105434377e-005
  0
LINE
 8
GROUP0
10
-4366.34810204762
20
932.59867840404
30
8.00372105434377e-005
11
-4366.79106630586
21
935.963325990373
31
8.00372105434377e-005
  0
LINE
 8
GROUP0
10
-4375.98345446129
20
945.155714145798
30
8.00372105434377e-005
11
-4379.34810204762
21
945.59867840404
31
8.00372105434377e-005
  0
LINE
 8
GROUP0
10
-4391.90513778938
20
935.963325990372
30
8.00372105434377e-005
11
-4392.34810204762
21
932.598678404039
31
8.00372105434377e-005
  0
LINE
 8
GROUP0
10
-4379.34810204762
20
945.59867840404
30
8.00372105434377e-005
11
-4382.71274963395
21
945.155714145797
31
8.00372105434377e-005
  0
LINE
 8
GROUP0
10
-4370.15571389219
20
941.791066559465
30
8.00372105434377e-005
11
-4372.84810204762
21
943.857008653238
31
8.00372105434377e-005
  0
LINE
 8
GROUP0
10
-4366.79106630586
20
935.963325990373
30
8.00372105434377e-005
11
-4368.08977179842
21
939.09867840404
31
8.00372105434377e-005
  0
LINE
 8
GROUP0
10
-3892.39872327366
20
678.486416937086
30
0.000147591579676565
11
-3892.3476120131
21
678.098188369432
31
0.00014755303393823
  0
LINE
 8
GROUP0
10
-3895.29650075253
20
677.709959801779
30
0.000146798650311375
11
-3895.3476120131
21
678.098188369433
31
0.00014683719600459
  0
LINE
 8
GROUP0
10
-3895.29650075253
20
678.486416937086
30
0.000146900133279892
11
-3895.14665011877
21
678.848188369432
31
0.000146983173081061
  0
LINE
 8
GROUP0
10
-3895.14665011877
20
678.848188369432
30
0.000146983173081061
11
-3894.90827218488
21
679.158848541212
31
0.000147080656389598
  0
LINE
 8
GROUP0
10
-3894.90827218488
20
677.037528197653
30
0.000146803399721485
11
-3895.14665011877
21
677.348188369433
31
0.000146787123010306
  0
LINE
 8
GROUP0
10
-3894.90827218488
20
679.158848541212
30
0.000147080656389598
11
-3894.5976120131
21
679.397226475109
31
0.000147185939815664
  0
LINE
 8
GROUP0
10
-3893.45938344544
20
679.547077108866
30
0.000147477121072193
11
-3893.0976120131
21
679.397226475109
31
0.000147543858805044
  0
LINE
 8
GROUP0
10
-3895.14665011877
20
677.348188369433
30
0.000146787123010306
11
-3895.29650075253
21
677.709959801779
31
0.000146798650311375
  0
LINE
 8
GROUP0
10
-3895.3476120131
20
678.098188369433
30
0.00014683719600459
11
-3895.29650075253
21
678.486416937086
31
0.000146900133279892
  0
LINE
 8
GROUP0
10
-3893.8476120131
20
679.598188369432
30
0.000147391165064725
11
-3893.45938344544
21
679.547077108866
31
0.000147477121072193
  0
LINE
 8
GROUP0
10
-3894.5976120131
20
679.397226475109
30
0.000147185939815664
11
-3894.23584058075
21
679.547077108866
31
0.000147291848552378
  0
LINE
 8
GROUP0
10
-3892.54857390742
20
678.848188369432
30
0.000147603106932515
11
-3892.39872327366
21
678.486416937086
31
0.000147591579676565
  0
LINE
 8
GROUP0
10
-3894.23584058075
20
679.547077108866
30
0.000147291848552378
11
-3893.8476120131
21
679.598188369432
31
0.000147391165064725
  0
LINE
 8
GROUP0
10
-3893.0976120131
20
679.397226475109
30
0.000147543858805044
11
-3892.78695184132
21
679.158848541212
31
0.000147586830266455
  0
LINE
 8
GROUP0
10
-3892.78695184132
20
679.158848541212
30
0.000147586830266455
11
-3892.54857390742
21
678.848188369432
31
0.000147603106932515
  0
LINE
 8
GROUP0
10
-3894.5976120131
20
676.799150263756
30
0.000146846371137777
11
-3894.90827218488
21
677.037528197653
31
0.000146803399721485
  0
LINE
 8
GROUP0
10
-3926.29650075252
20
646.709959801779
30
0.000146798648371238
11
-3926.34761201309
21
647.098188369433
31
0.000146837194064453
  0
LINE
 8
GROUP0
10
-3892.39872327366
20
677.709959801779
30
0.000147490096662928
11
-3892.54857390742
21
677.348188369433
31
0.000147407056861759
  0
LINE
 8
GROUP0
10
-3925.23584058074
20
645.64929963
30
0.00014691310697561
11
-3925.59761201309
21
645.799150263756
31
0.00014684636919764
  0
LINE
 8
GROUP0
10
-3924.45938344543
20
645.64929963
30
0.000147098379450306
11
-3924.84761201309
21
645.598188369433
31
0.000146999062937958
  0
LINE
 8
GROUP0
10
-3926.14665011876
20
647.848188369433
30
0.000146983171140924
11
-3925.90827218487
21
648.158848541212
31
0.000147080654449461
  0
LINE
 8
GROUP0
10
-3925.90827218487
20
648.158848541212
30
0.000147080654449461
11
-3925.59761201309
21
648.397226475109
31
0.000147185937875527
  0
LINE
 8
GROUP0
10
-3925.90827218487
20
646.037528197653
30
0.000146803397781348
11
-3926.14665011876
21
646.348188369433
31
0.000146787121070169
  0
LINE
 8
GROUP0
10
-3926.14665011876
20
646.348188369433
30
0.000146787121070169
11
-3926.29650075252
21
646.709959801779
31
0.000146798648371238
  0
LINE
 8
GROUP0
10
-3925.59761201309
20
645.799150263756
30
0.00014684636919764
11
-3925.90827218487
21
646.037528197653
31
0.000146803397781348
  0
LINE
 8
GROUP0
10
-3925.59761201309
20
648.397226475109
30
0.000147185937875527
11
-3925.23584058074
21
648.547077108866
31
0.000147291846612241
  0
LINE
 8
GROUP0
10
-3892.3476120131
20
678.098188369432
30
0.00014755303393823
11
-3892.39872327366
21
677.709959801779
31
0.000147490096662928
  0
LINE
 8
GROUP0
10
-3926.34761201309
20
647.098188369433
30
0.000146837194064453
11
-3926.29650075252
21
647.486416937087
31
0.000146900131339756
  0
LINE
 8
GROUP0
10
-3925.23584058074
20
648.547077108866
30
0.000147291846612241
11
-3924.84761201309
21
648.598188369432
31
0.000147391163124588
  0
LINE
 8
GROUP0
10
-3926.29650075252
20
647.486416937087
30
0.000146900131339756
11
-3926.14665011876
21
647.848188369433
31
0.000146983171140924
  0
LINE
 8
GROUP0
10
-3924.84761201309
20
648.598188369432
30
0.000147391163124588
11
-3924.45938344543
21
648.547077108866
31
0.000147477119132056
  0
LINE
 8
GROUP0
10
-3924.84761201309
20
645.598188369433
30
0.000146999062937958
11
-3925.23584058074
21
645.64929963
31
0.00014691310697561
  0
LINE
 8
GROUP0
10
-3924.09761201309
20
648.397226475109
30
0.000147543856864907
11
-3923.78695184131
21
648.158848541212
31
0.000147586828326318
  0
LINE
 8
GROUP0
10
-3924.45938344543
20
648.547077108866
30
0.000147477119132056
11
-3924.09761201309
21
648.397226475109
31
0.000147543856864907
  0
LINE
 8
GROUP0
10
-3923.54857390741
20
647.848188369433
30
0.000147603104992378
11
-3923.39872327365
21
647.486416937087
31
0.000147591577736428
  0
LINE
 8
GROUP0
10
-3923.34761201309
20
647.098188369433
30
0.000147553031998093
11
-3923.39872327365
21
646.709959801779
31
0.000147490094722791
  0
LINE
 8
GROUP0
10
-3923.54857390741
20
646.348188369433
30
0.000147407054921622
11
-3923.78695184131
21
646.037528197653
31
0.000147309571613086
  0
LINE
 8
GROUP0
10
-3923.78695184131
20
646.037528197653
30
0.000147309571613086
11
-3924.09761201309
21
645.799150263756
31
0.000147204288187019
  0
LINE
 8
GROUP0
10
-3923.39872327365
20
646.709959801779
30
0.000147490094722791
11
-3923.54857390741
21
646.348188369433
31
0.000147407054921622
  0
LINE
 8
GROUP0
10
-3924.09761201309
20
645.799150263756
30
0.000147204288187019
11
-3924.45938344543
21
645.64929963
31
0.000147098379450306
  0
LINE
 8
GROUP0
10
-3923.78695184131
20
648.158848541212
30
0.000147586828326318
11
-3923.54857390741
21
647.848188369433
31
0.000147603104992378
  0
LINE
 8
GROUP0
10
-3923.39872327365
20
647.486416937087
30
0.000147591577736428
11
-3923.34761201309
21
647.098188369433
31
0.000147553031998093
  0
LINE
 8
GROUP0
10
-4370.1557138922
20
671.790576524928
30
9.67883937164515e-005
11
-4372.84810204762
21
673.856518618701
31
9.67883937164515e-005
  0
LINE
 8
GROUP0
10
-4366.34810204762
20
662.598188369503
30
9.67883937164515e-005
11
-4366.79106630586
21
665.962835955836
31
9.67883937164515e-005
  0
LINE
 8
GROUP0
10
-4370.1557138922
20
653.405800214078
30
9.67883937164515e-005
11
-4368.08977179842
21
656.098188369503
31
9.67883937164515e-005
  0
LINE
 8
GROUP0
10
-4366.79106630586
20
659.233540783171
30
9.67883937164515e-005
11
-4366.34810204762
21
662.598188369503
31
9.67883937164515e-005
  0
LINE
 8
GROUP0
10
-4379.34810204762
20
649.598188369503
30
9.67883937164515e-005
11
-4375.98345446129
21
650.041152627745
31
9.67883937164515e-005
  0
LINE
 8
GROUP0
10
-4388.54049020305
20
653.405800214078
30
9.67883937164515e-005
11
-4385.84810204762
21
651.339858120305
31
9.67883937164515e-005
  0
LINE
 8
GROUP0
10
-4382.71274963395
20
650.041152627745
30
9.67883937164515e-005
11
-4379.34810204762
21
649.598188369503
31
9.67883937164515e-005
  0
LINE
 8
GROUP0
10
-4375.98345446129
20
650.041152627745
30
9.67883937164515e-005
11
-4372.84810204762
21
651.339858120306
31
9.67883937164515e-005
  0
LINE
 8
GROUP0
10
-4390.60643229682
20
656.098188369503
30
9.67883937164515e-005
11
-4388.54049020305
21
653.405800214078
31
9.67883937164515e-005
  0
LINE
 8
GROUP0
10
-4385.84810204762
20
651.339858120305
30
9.67883937164515e-005
11
-4382.71274963395
21
650.041152627745
31
9.67883937164515e-005
  0
LINE
 8
GROUP0
10
-4368.08977179842
20
669.098188369503
30
9.67883937164515e-005
11
-4370.1557138922
21
671.790576524928
31
9.67883937164515e-005
  0
LINE
 8
GROUP0
10
-4372.84810204762
20
651.339858120306
30
9.67883937164515e-005
11
-4370.1557138922
21
653.405800214078
31
9.67883937164515e-005
  0
LINE
 8
GROUP0
10
-4366.79106630586
20
665.962835955836
30
9.67883937164515e-005
11
-4368.08977179842
21
669.098188369503
31
9.67883937164515e-005
  0
LINE
 8
GROUP0
10
-4368.08977179842
20
656.098188369503
30
9.67883937164515e-005
11
-4366.79106630586
21
659.233540783171
31
9.67883937164515e-005
  0
LINE
 8
GROUP0
10
-4392.34810204762
20
662.598188369503
30
9.67883937164515e-005
11
-4391.90513778938
21
659.23354078317
31
9.67883937164515e-005
  0
LINE
 8
GROUP0
10
-4391.90513778938
20
659.23354078317
30
9.67883937164515e-005
11
-4390.60643229682
21
656.098188369503
31
9.67883937164515e-005
  0
LINE
 8
GROUP0
10
-4391.90513778938
20
665.962835955835
30
9.67883937164515e-005
11
-4392.34810204762
21
662.598188369503
31
9.67883937164515e-005
  0
LINE
 8
GROUP0
10
-4390.60643229682
20
669.098188369503
30
9.67883937164515e-005
11
-4391.90513778938
21
665.962835955835
31
9.67883937164515e-005
  0
LINE
 8
GROUP0
10
-4388.54049020305
20
671.790576524928
30
9.67883937164515e-005
11
-4390.60643229682
21
669.098188369503
31
9.67883937164515e-005
  0
LINE
 8
GROUP0
10
-4382.71274963396
20
675.155224111261
30
9.67883937164515e-005
11
-4385.84810204762
21
673.8565186187
31
9.67883937164515e-005
  0
LINE
 8
GROUP0
10
-4379.34810204762
20
675.598188369503
30
9.67883937164515e-005
11
-4382.71274963396
21
675.155224111261
31
9.67883937164515e-005
  0
LINE
 8
GROUP0
10
-4375.98345446129
20
675.155224111261
30
9.67883937164515e-005
11
-4379.34810204762
21
675.598188369503
31
9.67883937164515e-005
  0
LINE
 8
GROUP0
10
-4385.84810204762
20
673.8565186187
30
9.67883937164515e-005
11
-4388.54049020305
21
671.790576524928
31
9.67883937164515e-005
  0
LINE
 8
GROUP0
10
-4372.84810204762
20
673.856518618701
30
9.67883937164515e-005
11
-4375.98345446129
21
675.155224111261
31
9.67883937164515e-005
  0
LINE
 8
GROUP0
10
-4391.90513778938
20
929.234030817707
30
8.00372105434377e-005
11
-4390.60643229682
21
926.098678404039
31
8.00372105434377e-005
  0
LINE
 8
GROUP0
10
-4382.71274963395
20
920.041642662282
30
8.00372105434377e-005
11
-4379.34810204762
21
919.59867840404
31
8.00372105434377e-005
  0
LINE
 8
GROUP0
10
-4379.34810204762
20
919.59867840404
30
8.00372105434377e-005
11
-4375.98345446128
21
920.041642662282
31
8.00372105434377e-005
  0
LINE
 8
GROUP0
10
-4375.98345446128
20
920.041642662282
30
8.00372105434377e-005
11
-4372.84810204762
21
921.340348154842
31
8.00372105434377e-005
  0
LINE
 8
GROUP0
10
-4390.60643229682
20
926.098678404039
30
8.00372105434377e-005
11
-4388.54049020304
21
923.406290248614
31
8.00372105434377e-005
  0
LINE
 8
GROUP0
10
-4388.54049020304
20
923.406290248614
30
8.00372105434377e-005
11
-4385.84810204762
21
921.340348154842
31
8.00372105434377e-005
  0
LINE
 8
GROUP0
10
-4372.84810204762
20
921.340348154842
30
8.00372105434377e-005
11
-4370.15571389219
21
923.406290248615
31
8.00372105434377e-005
  0
LINE
 8
GROUP0
10
-4392.34810204762
20
932.598678404039
30
8.00372105434377e-005
11
-4391.90513778938
21
929.234030817707
31
8.00372105434377e-005
  0
LINE
 8
GROUP0
10
-4385.84810204762
20
921.340348154842
30
8.00372105434377e-005
11
-4382.71274963395
21
920.041642662282
31
8.00372105434377e-005
  0
LINE
 8
GROUP0
10
-4394.45987347997
20
679.547077108926
30
9.64934116414184e-005
11
-4394.09810204762
21
679.39722647517
31
9.65764514425871e-005
  0
LINE
 8
GROUP0
10
-4394.84810204762
20
679.598188369493
30
9.6430474366116e-005
11
-4394.45987347997
21
679.547077108926
31
9.64934116414184e-005
  0
LINE
 8
GROUP0
10
-4393.78744187584
20
679.158848541273
30
9.66739347511236e-005
11
-4393.54906394195
21
678.848188369493
31
9.67792181771898e-005
  0
LINE
 8
GROUP0
10
-4394.09810204762
20
679.39722647517
30
9.65764514425871e-005
11
-4393.78744187584
21
679.158848541273
31
9.66739347511236e-005
  0
LINE
 8
GROUP0
10
-4393.54906394195
20
678.848188369493
30
9.67792181771898e-005
11
-4393.39921330819
21
678.486416937147
31
9.68851269139037e-005
  0
LINE
 8
GROUP0
10
-4393.34810204762
20
678.098188369493
30
9.69844434262512e-005
11
-4393.39921330819
21
677.70995980184
31
9.70703994337185e-005
  0
LINE
 8
GROUP0
10
-4393.39921330819
20
678.486416937147
30
9.68851269139037e-005
11
-4393.34810204762
21
678.098188369493
31
9.69844434262512e-005
  0
LINE
 8
GROUP0
10
-4364.9087622194
20
679.158848541283
30
9.63966780378911e-005
11
-4364.59810204762
21
679.39722647518
31
9.63804013718317e-005
  0
LINE
 8
GROUP0
10
-4364.59810204762
20
679.39722647518
30
9.63804013718317e-005
11
-4364.23633061527
21
679.547077108936
31
9.63919286277814e-005
  0
LINE
 8
GROUP0
10
-4364.9087622194
20
677.037528197724
30
9.6902851959868e-005
11
-4365.1471401533
21
677.348188369504
31
9.67975684886824e-005
  0
LINE
 8
GROUP0
10
-4393.39921330819
20
677.70995980184
30
9.70703994337185e-005
11
-4393.54906394195
21
677.348188369494
31
9.71371371665697e-005
  0
LINE
 8
GROUP0
10
-4394.09810204762
20
676.799150263817
30
9.71963852940405e-005
11
-4394.45987347997
21
676.64929963006
31
9.71848580380907e-005
  0
LINE
 8
GROUP0
10
-4364.59810204762
20
676.799150263827
30
9.70003352232851e-005
11
-4364.9087622194
21
677.037528197724
31
9.6902851959868e-005
  0
LINE
 8
GROUP0
10
-4393.54906394195
20
677.348188369494
30
9.71371371665697e-005
11
-4393.78744187584
21
677.037528197714
31
9.71801086279811e-005
  0
LINE
 8
GROUP0
10
-4393.78744187584
20
677.037528197714
30
9.71801086279811e-005
11
-4394.09810204762
21
676.799150263817
31
9.71963852940405e-005
  0
LINE
 8
GROUP0
10
-4363.84810204762
20
676.598188369504
30
9.71463123448757e-005
11
-4364.23633061527
21
676.649299630071
31
9.70833750244537e-005
  0
LINE
 8
GROUP0
10
-4365.34810204762
20
678.098188369504
30
9.6592343239621e-005
11
-4365.29699078705
21
678.486416937157
31
9.65063872321537e-005
  0
LINE
 8
GROUP0
10
-4365.1471401533
20
677.348188369504
30
9.67975684886824e-005
11
-4365.29699078705
21
677.70995980185
31
9.66916597519685e-005
  0
LINE
 8
GROUP0
10
-4365.29699078705
20
678.486416937157
30
9.65063872321537e-005
11
-4365.1471401533
21
678.848188369503
31
9.64396494993025e-005
  0
LINE
 8
GROUP0
10
-4365.1471401533
20
678.848188369503
30
9.64396494993025e-005
11
-4364.9087622194
21
679.158848541283
31
9.63966780378911e-005
  0
LINE
 8
GROUP0
10
-4363.45987347997
20
676.649299630071
30
9.71848580380907e-005
11
-4363.84810204762
21
676.598188369504
31
9.71463123448757e-005
  0
LINE
 8
GROUP0
10
-4365.29699078705
20
677.70995980185
30
9.66916597519685e-005
11
-4365.34810204762
21
678.098188369504
31
9.6592343239621e-005
  0
LINE
 8
GROUP0
10
-4364.23633061527
20
676.649299630071
30
9.70833750244537e-005
11
-4364.59810204762
21
676.799150263827
31
9.70003352232851e-005
  0
LINE
 8
GROUP0
10
-4363.09810204762
20
679.39722647518
30
9.65764514425871e-005
11
-4362.78744187584
21
679.158848541283
31
9.66739347511236e-005
  0
LINE
 8
GROUP0
10
-4362.54906394195
20
678.848188369503
30
9.67792181771898e-005
11
-4362.39921330819
21
678.486416937157
31
9.68851269139037e-005
  0
LINE
 8
GROUP0
10
-4362.34810204762
20
678.098188369504
30
9.69844434262512e-005
11
-4362.39921330819
21
677.70995980185
31
9.70703994337185e-005
  0
LINE
 8
GROUP0
10
-4363.45987347997
20
679.547077108936
30
9.64934116414184e-005
11
-4363.09810204762
21
679.39722647518
31
9.65764514425871e-005
  0
LINE
 8
GROUP0
10
-4362.78744187584
20
677.037528197724
30
9.71801086279811e-005
11
-4363.09810204762
21
676.799150263827
31
9.71963852940405e-005
  0
LINE
 8
GROUP0
10
-4362.78744187584
20
679.158848541283
30
9.66739347511236e-005
11
-4362.54906394195
21
678.848188369503
31
9.67792181771898e-005
  0
LINE
 8
GROUP0
10
-4364.23633061527
20
679.547077108936
30
9.63919286277814e-005
11
-4363.84810204762
21
679.598188369503
31
9.6430474366116e-005
  0
LINE
 8
GROUP0
10
-4363.45987347997
20
645.649299630071
30
9.71848599782277e-005
11
-4363.84810204762
21
645.598188369504
31
9.71463142398932e-005
  0
LINE
 8
GROUP0
10
-4363.84810204762
20
679.598188369503
30
9.6430474366116e-005
11
-4363.45987347997
21
679.547077108936
31
9.64934116414184e-005
  0
LINE
 8
GROUP0
10
-4363.84810204762
20
645.598188369504
30
9.71463142398932e-005
11
-4364.23633061527
21
645.649299630071
31
9.70833769645907e-005
  0
LINE
 8
GROUP0
10
-4362.39921330819
20
677.70995980185
30
9.70703994337185e-005
11
-4362.54906394195
21
677.348188369504
31
9.71371371665697e-005
  0
LINE
 8
GROUP0
10
-4364.23633061527
20
645.649299630071
30
9.70833769645907e-005
11
-4364.59810204762
21
645.799150263828
31
9.7000337163422e-005
  0
LINE
 8
GROUP0
10
-4363.09810204762
20
676.799150263827
30
9.71963852940405e-005
11
-4363.45987347997
21
676.649299630071
31
9.71848580380907e-005
  0
LINE
 8
GROUP0
10
-4364.59810204762
20
645.799150263828
30
9.7000337163422e-005
11
-4364.9087622194
21
646.037528197724
31
9.69028538548855e-005
  0
LINE
 8
GROUP0
10
-4362.39921330819
20
678.486416937157
30
9.68851269139037e-005
11
-4362.34810204762
21
678.098188369504
31
9.69844434262512e-005
  0
LINE
 8
GROUP0
10
-4362.54906394195
20
677.348188369504
30
9.71371371665697e-005
11
-4362.78744187584
21
677.037528197724
31
9.71801086279811e-005
  0
LINE
 8
GROUP0
10
-4365.29699078705
20
646.70995980185
30
9.66916616921054e-005
11
-4365.34810204762
21
647.098188369504
31
9.65923451797579e-005
  0
LINE
 8
GROUP0
10
-4362.34810204762
20
647.098188369504
30
9.69844453663882e-005
11
-4362.39921330819
21
646.70995980185
31
9.70704013738555e-005
  0
LINE
 8
GROUP0
10
-4365.1471401533
20
646.348188369504
30
9.67975704288193e-005
11
-4365.29699078705
21
646.70995980185
31
9.66916616921054e-005
  0
LINE
 8
GROUP0
10
-4364.23633061527
20
648.547077108936
30
9.63919306130378e-005
11
-4363.84810204762
21
648.598188369503
31
9.64304763062529e-005
  0
LINE
 8
GROUP0
10
-4365.29699078705
20
647.486416937158
30
9.65063892174101e-005
11
-4365.1471401533
21
647.848188369504
31
9.64396514394394e-005
  0
LINE
 8
GROUP0
10
-4364.9087622194
20
646.037528197724
30
9.69028538548855e-005
11
-4365.1471401533
21
646.348188369504
31
9.67975704288193e-005
  0
LINE
 8
GROUP0
10
-4364.59810204762
20
648.39722647518
30
9.63804033119686e-005
11
-4364.23633061527
21
648.547077108936
31
9.63919306130378e-005
  0
LINE
 8
GROUP0
10
-4364.9087622194
20
648.158848541283
30
9.63966800231475e-005
11
-4364.59810204762
21
648.39722647518
31
9.63804033119686e-005
  0
LINE
 8
GROUP0
10
-4365.34810204762
20
647.098188369504
30
9.65923451797579e-005
11
-4365.29699078705
21
647.486416937158
31
9.65063892174101e-005
  0
LINE
 8
GROUP0
10
-4365.1471401533
20
647.848188369504
30
9.64396514394394e-005
11
-4364.9087622194
21
648.158848541283
31
9.63966800231475e-005
  0
LINE
 8
GROUP0
10
-4363.45987347997
20
648.547077108936
30
9.64934135815554e-005
11
-4363.09810204762
21
648.39722647518
31
9.6576453382724e-005
  0
LINE
 8
GROUP0
10
-4363.09810204762
20
648.39722647518
30
9.6576453382724e-005
11
-4362.78744187584
21
648.158848541283
31
9.66739366912606e-005
  0
LINE
 8
GROUP0
10
-4363.84810204762
20
648.598188369503
30
9.64304763062529e-005
11
-4363.45987347997
21
648.547077108936
31
9.64934135815554e-005
  0
LINE
 8
GROUP0
10
-4362.78744187584
20
648.158848541283
30
9.66739366912606e-005
11
-4362.54906394195
21
647.848188369504
31
9.67792201173268e-005
  0
LINE
 8
GROUP0
10
-4362.54906394195
20
647.848188369504
30
9.67792201173268e-005
11
-4362.39921330819
21
647.486416937158
31
9.68851288540407e-005
  0
LINE
 8
GROUP0
10
-4362.39921330819
20
647.486416937158
30
9.68851288540407e-005
11
-4362.34810204762
21
647.098188369504
31
9.69844453663882e-005
  0
LINE
 8
GROUP0
10
-4362.78744187578
20
949.15933857582
30
9.1249326620968e-005
11
-4362.54906394188
21
948.848678404041
31
9.12330499549085e-005
  0
LINE
 8
GROUP0
10
-4365.34810204756
20
948.098678404041
30
9.19989608828331e-005
11
-4365.29699078699
21
948.486906971695
31
9.19360236075306e-005
  0
LINE
 8
GROUP0
10
-4363.45987347991
20
949.547567143474
30
9.13590358152305e-005
11
-4363.09810204756
21
949.397716509717
31
9.12922980823794e-005
  0
LINE
 8
GROUP0
10
-4362.39921330819
20
646.70995980185
30
9.70704013738555e-005
11
-4362.54906394195
21
646.348188369504
31
9.71371391067066e-005
  0
LINE
 8
GROUP0
10
-4364.23633061521
20
949.547567143474
30
9.15443083350453e-005
11
-4363.84810204756
21
949.598678404041
31
9.14449918226978e-005
  0
LINE
 8
GROUP0
10
-4362.54906394188
20
948.848678404041
30
9.12330499549085e-005
11
-4362.39921330813
21
948.486906971695
31
9.12445772108583e-005
  0
LINE
 8
GROUP0
10
-4365.29699078699
20
948.486906971695
30
9.19360236075306e-005
11
-4365.14714015324
21
948.848678404041
31
9.1852983806362e-005
  0
LINE
 8
GROUP0
10
-4364.90876221934
20
949.159338575821
30
9.17555004978254e-005
11
-4364.59810204756
21
949.397716509717
31
9.16502170717592e-005
  0
LINE
 8
GROUP0
10
-4362.54906394195
20
646.348188369504
30
9.71371391067066e-005
11
-4362.78744187584
21
646.037528197724
31
9.7180110568118e-005
  0
LINE
 8
GROUP0
10
-4364.59810204756
20
949.397716509717
30
9.16502170717592e-005
11
-4364.23633061521
21
949.547567143474
31
9.15443083350453e-005
  0
LINE
 8
GROUP0
10
-4363.09810204762
20
645.799150263828
30
9.71963872341774e-005
11
-4363.45987347997
21
645.649299630071
31
9.71848599782277e-005
  0
LINE
 8
GROUP0
10
-4365.14714015324
20
948.848678404041
30
9.1852983806362e-005
11
-4364.90876221934
21
949.159338575821
31
9.17555004978254e-005
  0
LINE
 8
GROUP0
10
-4362.78744187584
20
646.037528197724
30
9.7180110568118e-005
11
-4363.09810204762
21
645.799150263828
31
9.71963872341774e-005
  0
LINE
 8
GROUP0
10
-4363.09810204756
20
949.397716509717
30
9.12922980823794e-005
11
-4362.78744187578
21
949.15933857582
31
9.1249326620968e-005
  0
LINE
 8
GROUP0
10
-4363.84810204756
20
949.598678404041
30
9.14449918226978e-005
11
-4363.45987347991
21
949.547567143474
31
9.13590358152305e-005
  0
LINE
 8
GROUP0
10
-4365.29699078699
20
947.710449836388
30
9.20375065760481e-005
11
-4365.34810204756
21
948.098678404041
31
9.19989608828331e-005
  0
LINE
 8
GROUP0
10
-4311.09785702586
20
960.348443829522
30
6.48704379916154e-005
11
-4311.09785702586
21
915.348443829522
31
6.49265203119143e-005
  0
LINE
 8
GROUP0
10
-4341.09785702586
20
915.348443829522
30
5.83682121561679e-005
11
-4341.09785702586
21
960.348443829522
31
5.83682121561679e-005
  0
LINE
 8
GROUP0
10
-4387.09785702586
20
960.348443829521
30
5.90385425986995e-005
11
-4341.09785702586
21
960.348443829522
31
5.83682121561679e-005
  0
LINE
 8
GROUP0
10
-4387.09785702586
20
960.348443829521
30
5.90385425986995e-005
11
-4407.09785702586
21
940.348443829521
31
5.31753481947561e-005
  0
LINE
 8
GROUP0
10
-4407.09785702585
20
654.84842081608
30
1.80477854883065e-013
11
-4387.09785702585
21
634.848420868801
31
1.07912613920291e-006
  0
LINE
 8
GROUP0
10
-3901.59781368629
20
634.848421600283
30
0.00014097012272547
11
-4387.09785702585
21
634.848420868801
31
1.07912613920291e-006
  0
LINE
 8
GROUP0
10
-3881.59781511797
20
654.848420816083
30
0.000149621396468724
11
-3901.59781368629
21
634.848421600283
31
0.00014097012272547
  0
LINE
 8
GROUP0
10
-3901.59781511798
20
960.348443829522
30
0.000158767248882974
11
-3881.59781511798
21
940.348443829522
31
0.000159944686724067
  0
LINE
 8
GROUP0
10
-3881.59781511798
20
940.348443829522
30
0.000159944686724067
11
-3881.59781511797
21
654.848420816083
31
0.000149621396468724
  0
LINE
 8
GROUP0
10
-4311.09785702586
20
960.348443829522
30
6.48704379916154e-005
11
-3977.59781511798
21
960.348443829522
31
0.000151948353715703
  0
LINE
 8
GROUP0
10
-4311.09785702586
20
915.348443829522
30
6.49265203119143e-005
11
-4341.09785702586
21
915.348443829522
31
5.83682121561679e-005
  0
LINE
 8
GROUP0
10
-4407.09785702585
20
654.84842081608
30
1.80477854883065e-013
11
-4407.09785702586
21
940.348443829521
31
5.31753481947561e-005
  0
LINE
 8
GROUP0
10
-4395.9087622194
20
679.158848541273
30
9.63966780830105e-005
11
-4395.59810204762
21
679.39722647517
31
9.63804013718317e-005
  0
LINE
 8
GROUP0
10
-4395.59810204762
20
679.39722647517
30
9.63804013718317e-005
11
-4395.23633061528
21
679.547077108926
31
9.63919286729009e-005
  0
LINE
 8
GROUP0
10
-3947.59781511798
20
960.348443829522
30
0.000155851988604105
11
-3901.59781511798
21
960.348443829522
31
0.000158767248882974
  0
LINE
 8
GROUP0
10
-4395.59810204762
20
676.799150263817
30
9.70003352232851e-005
11
-4395.9087622194
21
677.037528197714
31
9.69028519147486e-005
  0
LINE
 8
GROUP0
10
-4395.9087622194
20
677.037528197714
30
9.69028519147486e-005
11
-4396.1471401533
21
677.348188369493
31
9.67975684886824e-005
  0
LINE
 8
GROUP0
10
-4395.23633061528
20
676.64929963006
30
9.70833750244537e-005
11
-4395.59810204762
21
676.799150263817
31
9.70003352232851e-005
  0
LINE
 8
GROUP0
10
-4394.45987347997
20
676.64929963006
30
9.71848580380907e-005
11
-4394.84810204762
21
676.598188369494
31
9.71463122997562e-005
  0
LINE
 8
GROUP0
10
-4394.84810204762
20
676.598188369494
30
9.71463122997562e-005
11
-4395.23633061528
21
676.64929963006
31
9.70833750244537e-005
  0
LINE
 8
GROUP0
10
-3977.59781511798
20
915.348443829521
30
0.000151948353715703
11
-3977.59781511798
21
960.348443829522
31
0.000151948353715703
  0
LINE
 8
GROUP0
10
-4396.29699078706
20
677.709959801839
30
9.66916597519685e-005
11
-4396.34810204762
21
678.098188369493
31
9.6592343239621e-005
  0
LINE
 8
GROUP0
10
-3947.59781511798
20
960.348443829522
30
0.000155851988604105
11
-3947.59781511798
21
915.348443829521
31
0.000158476753171577
  0
LINE
 8
GROUP0
10
-4396.1471401533
20
677.348188369493
30
9.67975684886824e-005
11
-4396.29699078706
21
677.709959801839
31
9.66916597519685e-005
  0
LINE
 8
GROUP0
10
-4396.34810204762
20
678.098188369493
30
9.6592343239621e-005
11
-4396.29699078706
21
678.486416937147
31
9.65063872772731e-005
  0
LINE
 8
GROUP0
10
-3947.59781511798
20
915.348443829521
30
0.000158476753171577
11
-3977.59781511798
21
915.348443829521
31
0.000151948353715703
  0
LINE
 8
GROUP0
10
-4396.29699078706
20
678.486416937147
30
9.65063872772731e-005
11
-4396.1471401533
21
678.848188369493
31
9.64396494993025e-005
  0
LINE
 8
GROUP0
10
-4396.1471401533
20
678.848188369493
30
9.64396494993025e-005
11
-4395.9087622194
21
679.158848541273
31
9.63966780830105e-005
  0
LINE
 8
GROUP0
10
-4395.23633061528
20
679.547077108926
30
9.63919286729009e-005
11
-4394.84810204762
21
679.598188369493
31
9.6430474366116e-005
 0
ENDSEC
 0
EOF
