 0
SECTION
 2
ENTITIES
  0
LINE
 8
GROUP0
10
-2681.98611220371
20
2734.66054433251
30
5.88159274355404e-005
11
-2681.98611236006
21
2714.16054433252
31
7.15896085945689e-005
  0
LINE
 8
GROUP0
10
-2681.98611236006
20
2714.16054433252
30
7.15896085945689e-005
11
-2691.98611153171
21
2714.1605447749
31
7.0400362042311e-005
  0
LINE
 8
GROUP0
10
-2721.98611496124
20
2684.16054280865
30
9.34410978472355e-005
11
-2691.98611153171
21
2714.1605447749
31
7.0400362042311e-005
  0
LINE
 8
GROUP0
10
-2721.9861149815
20
2679.16054280865
30
9.59383056991059e-005
11
-2721.98611496124
21
2684.16054280865
31
9.34410978472355e-005
  0
LINE
 8
GROUP0
10
-2749.48611498149
20
2679.16054469479
30
7.86142320774119e-005
11
-2721.9861149815
21
2679.16054280865
31
9.59383056991059e-005
  0
LINE
 8
GROUP0
10
-2749.48611498149
20
2679.16054469479
30
7.86142320774119e-005
11
-2749.4861335
21
2357.16056756634
31
7.70172641750833e-006
  0
LINE
 8
GROUP0
10
-2681.98602856402
20
2357.16056446618
30
0.0
11
-2749.4861335
21
2357.16056756634
31
7.70172641750833e-006
  0
LINE
 8
GROUP0
10
-2681.98602856402
20
2357.16056446618
30
0.0
11
-2681.98600726774
21
2332.66049620372
31
0.000677677926120113
  0
LINE
 8
GROUP0
10
-2681.98600726774
20
2332.66049620372
30
0.000677677926120113
11
-2639.98600933002
21
2332.66049550408
31
0.000657324169304674
  0
LINE
 8
GROUP0
10
-2639.98600933002
20
2332.66049550408
30
0.000657324169304674
11
-2639.9860118338
21
2352.66049550408
31
0.000657324172097851
  0
LINE
 8
GROUP0
10
-2639.9860118338
20
2352.66049550408
30
0.000657324172097851
11
-2504.98601184573
21
2352.6605374425
31
0.000492496208229176
  0
LINE
 8
GROUP0
10
-2504.98600934194
20
2332.6605374425
30
0.000492496205435999
11
-2504.98601184573
21
2352.6605374425
31
0.000492496208229176
  0
LINE
 8
GROUP0
10
-2504.98600934194
20
2332.6605374425
30
0.000492496205435999
11
-2462.98600726791
21
2332.66054865812
31
0.000472142447176738
  0
LINE
 8
GROUP0
10
-2462.98600726791
20
2332.66054865812
30
0.000472142447176738
11
-2462.9865913589
21
2357.16048946646
31
0.000378112602419378
  0
LINE
 8
GROUP0
10
-2462.9865913589
20
2357.16048946646
30
0.000378112602419378
11
-2395.48663437551
21
2357.16040021444
31
0.0003651757057753
  0
LINE
 8
GROUP0
10
-2395.48663437551
20
2357.16040021444
30
0.0003651757057753
11
-2395.48612647019
21
2679.16047021571
31
0.000142382931678908
  0
LINE
 8
GROUP0
10
-2422.98608345362
20
2679.16052188666
30
0.000152505664564428
11
-2395.48612647019
21
2679.16047021571
31
0.000142382931678908
  0
LINE
 8
GROUP0
10
-2422.98608345362
20
2679.16052188666
30
0.000152505664564428
11
-2422.98608345362
21
2684.16052188666
31
0.000150614004674199
  0
LINE
 8
GROUP0
10
-2452.98604583097
20
2714.16054755233
30
0.000130241192865843
11
-2422.98608345362
21
2684.16052188666
31
0.000150614004674199
  0
LINE
 8
GROUP0
10
-2462.98604583096
20
2714.16054755233
30
0.000125409716226987
11
-2452.98604583097
21
2714.16054755233
31
0.000130241192865843
  0
LINE
 8
GROUP0
10
-2462.98604583096
20
2714.16054755233
30
0.000125409716226987
11
-2462.98600726778
21
2734.66054159461
31
0.000100688077658384
  0
LINE
 8
GROUP0
10
-2462.98600726778
20
2734.66054159461
30
0.000100688077658384
11
-2681.98611220371
21
2734.66054433251
31
5.88159274355404e-005
  0
LINE
 8
GROUP0
10
-2671.98611229523
20
2722.66054425625
30
6.37284470615285e-005
11
-2672.50375038492
21
2722.72869260762
31
6.34034873088329e-005
  0
LINE
 8
GROUP0
10
-2672.50375038492
20
2722.72869260762
30
6.34034873088329e-005
11
-2672.98611229319
21
2722.92849345631
31
6.29956088288197e-005
  0
LINE
 8
GROUP0
10
-2672.98611229319
20
2722.92849345631
30
6.29956088288197e-005
11
-2673.40032585314
21
2723.24633070466
31
6.25326008768523e-005
  0
LINE
 8
GROUP0
10
-2673.40032585314
20
2723.24633070466
30
6.25326008768523e-005
11
-2673.71816309517
21
2723.66054426946
31
6.2046022531137e-005
  0
LINE
 8
GROUP0
10
-2673.71816309517
20
2723.66054426946
30
6.2046022531137e-005
11
-2673.9179639365
21
2724.14290618077
31
6.15690297351201e-005
  0
LINE
 8
GROUP0
10
-2673.9179639365
20
2724.14290618077
30
6.15690297351201e-005
11
-2673.98611227998
21
2724.6605442715
31
6.11341323201176e-005
  0
LINE
 8
GROUP0
10
-2673.98611227998
20
2724.6605442715
30
6.11341323201176e-005
11
-2673.91796392861
21
2725.17818236118
31
6.07709625813468e-005
  0
LINE
 8
GROUP0
10
-2673.91796392861
20
2725.17818236118
30
6.07709625813468e-005
11
-2673.71816307992
21
2725.66054426945
31
6.05042741317174e-005
  0
LINE
 8
GROUP0
10
-2673.71816307992
20
2725.66054426945
30
6.05042741317174e-005
11
-2673.40032583157
21
2726.0747578294
31
6.03522396445733e-005
  0
LINE
 8
GROUP0
10
-2673.40032583157
20
2726.0747578294
30
6.03522396445733e-005
11
-2672.98611226677
21
2726.39259507144
31
6.03252221541117e-005
  0
LINE
 8
GROUP0
10
-2672.98611226677
20
2726.39259507144
30
6.03252221541117e-005
11
-2672.50375035545
21
2726.59239591277
31
6.04250582001642e-005
  0
LINE
 8
GROUP0
10
-2672.50375035545
20
2726.59239591277
30
6.04250582001642e-005
11
-2671.98611226473
21
2726.66054425625
31
6.06449502619844e-005
  0
LINE
 8
GROUP0
10
-2671.98611226473
20
2726.66054425625
30
6.06449502619844e-005
11
-2671.46847417504
21
2726.59239590488
31
6.09699071277392e-005
  0
LINE
 8
GROUP0
10
-2671.46847417504
20
2726.59239590488
30
6.09699071277392e-005
11
-2670.98611226677
21
2726.39259505619
31
6.13777877734867e-005
  0
LINE
 8
GROUP0
10
-2670.98611226677
20
2726.39259505619
30
6.13777877734867e-005
11
-2670.57189870682
21
2726.07475780783
31
6.18407935590148e-005
  0
LINE
 8
GROUP0
10
-2670.57189870682
20
2726.07475780783
30
6.18407935590148e-005
11
-2670.25406146478
21
2725.66054424304
31
6.23273719047301e-005
  0
LINE
 8
GROUP0
10
-2670.25406146478
20
2725.66054424304
30
6.23273719047301e-005
11
-2670.05426062345
21
2725.17818233172
31
6.2804364701452e-005
  0
LINE
 8
GROUP0
10
-2670.05426062345
20
2725.17818233172
30
6.2804364701452e-005
11
-2669.98611227998
21
2724.660544241
31
6.32392635588674e-005
  0
LINE
 8
GROUP0
10
-2669.98611227998
20
2724.660544241
30
6.32392635588674e-005
11
-2670.05426063135
21
2724.14290615131
31
6.36024318552253e-005
  0
LINE
 8
GROUP0
10
-2670.05426063135
20
2724.14290615131
30
6.36024318552253e-005
11
-2670.25406148004
21
2723.66054424304
31
6.38691203041497e-005
  0
LINE
 8
GROUP0
10
-2670.25406148004
20
2723.66054424304
30
6.38691203041497e-005
11
-2670.57189872839
21
2723.24633068309
31
6.40211547912939e-005
  0
LINE
 8
GROUP0
10
-2670.57189872839
20
2723.24633068309
30
6.40211547912939e-005
11
-2670.98611229319
21
2722.92849344105
31
6.40481744481947e-005
  0
LINE
 8
GROUP0
10
-2670.98611229319
20
2722.92849344105
30
6.40481744481947e-005
11
-2671.46847420451
21
2722.72869259972
31
6.39483362364079e-005
  0
LINE
 8
GROUP0
10
-2671.46847420451
20
2722.72869259972
30
6.39483362364079e-005
11
-2671.98611229523
21
2722.66054425625
31
6.37284470615285e-005
  0
LINE
 8
GROUP0
10
-2473.98602609232
20
2722.92849087095
30
0.00010727141582253
11
-2474.40023965227
21
2723.24632811931
31
0.000106808407870562
  0
LINE
 8
GROUP0
10
-2474.40023965227
20
2723.24632811931
30
0.000106808407870562
11
-2474.7180768943
21
2723.6605416841
31
0.000106321829524847
  0
LINE
 8
GROUP0
10
-2474.7180768943
20
2723.6605416841
30
0.000106321829524847
11
-2474.91787773563
21
2724.14290359542
31
0.00010584483672883
  0
LINE
 8
GROUP0
10
-2474.91787773563
20
2724.14290359542
30
0.00010584483672883
11
-2474.98602607911
21
2724.66054168614
31
0.000105409939313827
  0
LINE
 8
GROUP0
10
-2474.98602607911
20
2724.66054168614
30
0.000105409939313827
11
-2474.91787772774
21
2725.17817977582
31
0.000105046769575057
  0
LINE
 8
GROUP0
10
-2474.91787772774
20
2725.17817977582
30
0.000105046769575057
11
-2474.71807687905
21
2725.66054168409
31
0.000104780081125427
  0
LINE
 8
GROUP0
10
-2474.71807687905
20
2725.66054168409
30
0.000104780081125427
11
-2474.40023963069
21
2726.07475524404
31
0.000104628046638283
  0
LINE
 8
GROUP0
10
-2474.40023963069
20
2726.07475524404
30
0.000104628046638283
11
-2473.9860260659
21
2726.39259248608
31
0.000104601029147822
  0
LINE
 8
GROUP0
10
-2473.9860260659
20
2726.39259248608
30
0.000104601029147822
11
-2473.50366415458
21
2726.59239332741
31
0.000104700865193874
  0
LINE
 8
GROUP0
10
-2473.50366415458
20
2726.59239332741
30
0.000104700865193874
11
-2472.98602606386
21
2726.66054167088
31
0.000104920757255694
  0
LINE
 8
GROUP0
10
-2472.98602606386
20
2726.66054167088
30
0.000104920757255694
11
-2472.46838797417
21
2726.59239331951
31
0.000105245714121449
  0
LINE
 8
GROUP0
10
-2472.46838797417
20
2726.59239331951
30
0.000105245714121449
11
-2471.9860260659
21
2726.39259247082
31
0.000105653594045285
  0
LINE
 8
GROUP0
10
-2471.9860260659
20
2726.39259247082
30
0.000105653594045285
11
-2471.57181250596
21
2726.07475522247
31
0.000106116600552725
  0
LINE
 8
GROUP0
10
-2471.57181250596
20
2726.07475522247
30
0.000106116600552725
11
-2471.25397526392
21
2725.66054165767
31
0.00010660317889844
  0
LINE
 8
GROUP0
10
-2471.25397526392
20
2725.66054165767
30
0.00010660317889844
11
-2471.05417442259
21
2725.17817974636
31
0.000107080171695162
  0
LINE
 8
GROUP0
10
-2471.05417442259
20
2725.17817974636
30
0.000107080171695162
11
-2470.98602607912
21
2724.66054165563
31
0.000107515070552577
  0
LINE
 8
GROUP0
10
-2470.98602607912
20
2724.66054165563
30
0.000107515070552577
11
-2471.05417443049
21
2724.14290356595
31
0.000107878238848935
  0
LINE
 8
GROUP0
10
-2471.05417443049
20
2724.14290356595
30
0.000107878238848935
11
-2471.25397527918
21
2723.66054165768
31
0.00010814492729786
  0
LINE
 8
GROUP0
10
-2471.25397527918
20
2723.66054165768
30
0.00010814492729786
11
-2471.57181252753
21
2723.24632809773
31
0.000108296961785004
  0
LINE
 8
GROUP0
10
-2471.57181252753
20
2723.24632809773
30
0.000108296961785004
11
-2471.98602609233
21
2722.9284908557
31
0.000108323980719993
  0
LINE
 8
GROUP0
10
-2471.98602609233
20
2722.9284908557
30
0.000108323980719993
11
-2472.46838800364
21
2722.72869001437
31
0.000108224143230118
  0
LINE
 8
GROUP0
10
-2472.46838800364
20
2722.72869001437
30
0.000108224143230118
11
-2472.98602609437
21
2722.66054167089
31
0.000108004254055238
  0
LINE
 8
GROUP0
10
-2472.98602609437
20
2722.66054167089
30
0.000108004254055238
11
-2473.50366418405
21
2722.72869002226
31
0.000107679294302543
  0
LINE
 8
GROUP0
10
-2473.50366418405
20
2722.72869002226
30
0.000107679294302543
11
-2473.98602609232
21
2722.92849087095
31
0.00010727141582253
  0
LINE
 8
GROUP0
10
-2403.48614528149
20
2669.16048524731
30
0.000151305659412815
11
-2403.55429460153
21
2668.64284728515
31
0.000151668826987261
  0
LINE
 8
GROUP0
10
-2403.55429460153
20
2668.64284728515
30
0.000151668826987261
11
-2403.75409635287
21
2668.16048575077
31
0.000151935514714274
  0
LINE
 8
GROUP0
10
-2403.75409635287
20
2668.16048575077
30
0.000151935514714274
11
-2404.07193437635
21
2667.7462727856
31
0.00015208754992333
  0
LINE
 8
GROUP0
10
-2404.07193437635
20
2667.7462727856
30
0.00015208754992333
11
-2404.48614853592
21
2667.42843631869
31
0.000152114565970674
  0
LINE
 8
GROUP0
10
-2404.48614853592
20
2667.42843631869
30
0.000152114565970674
11
-2404.96851082113
21
2667.22863638001
31
0.00015201472920271
  0
LINE
 8
GROUP0
10
-2404.96851082113
20
2667.22863638001
30
0.00015201472920271
11
-2405.48614903938
21
2667.16048900521
31
0.000151794836418273
  0
LINE
 8
GROUP0
10
-2405.48614903938
20
2667.16048900521
30
0.000151794836418273
11
-2406.00378700153
21
2667.22863832524
31
0.0001514698781094
  0
LINE
 8
GROUP0
10
-2406.00378700153
20
2667.22863832524
30
0.0001514698781094
11
-2406.48614853591
21
2667.42844007658
31
0.000151061996741741
  0
LINE
 8
GROUP0
10
-2406.48614853591
20
2667.42844007658
30
0.000151061996741741
11
-2406.90036150108
21
2667.74627810006
31
0.000150598990955508
  0
LINE
 8
GROUP0
10
-2406.90036150108
20
2667.74627810006
30
0.000150598990955508
11
-2407.21819796799
21
2668.16049225963
31
0.000150112413331704
  0
LINE
 8
GROUP0
10
-2407.21819796799
20
2668.16049225963
30
0.000150112413331704
11
-2407.41799790667
21
2668.64285454484
31
0.000149635421257599
  0
LINE
 8
GROUP0
10
-2407.41799790667
20
2668.64285454484
30
0.000149635421257599
11
-2407.48614528147
21
2669.16049276309
31
0.000149200520954951
  0
LINE
 8
GROUP0
10
-2407.48614528147
20
2669.16049276309
30
0.000149200520954951
11
-2407.41799596144
21
2669.67813072525
31
0.000148837354825032
  0
LINE
 8
GROUP0
10
-2407.41799596144
20
2669.67813072525
30
0.000148837354825032
11
-2407.2181942101
21
2670.16049225962
31
0.000148570667097314
  0
LINE
 8
GROUP0
10
-2407.2181942101
20
2670.16049225962
30
0.000148570667097314
11
-2406.90035618662
21
2670.5747052248
31
0.000148418631888259
  0
LINE
 8
GROUP0
10
-2406.90035618662
20
2670.5747052248
30
0.000148418631888259
11
-2406.48614202705
21
2670.89254169171
31
0.000148391614398502
  0
LINE
 8
GROUP0
10
-2406.48614202705
20
2670.89254169171
30
0.000148391614398502
11
-2406.00377974184
21
2671.09234163038
31
0.000148491452610289
  0
LINE
 8
GROUP0
10
-2406.00377974184
20
2671.09234163038
30
0.000148491452610289
11
-2405.48614152359
21
2671.16048900519
31
0.000148711343950197
  0
LINE
 8
GROUP0
10
-2405.48614152359
20
2671.16048900519
30
0.000148711343950197
11
-2404.96850356143
21
2671.09233968515
31
0.000149036303703598
  0
LINE
 8
GROUP0
10
-2404.96850356143
20
2671.09233968515
30
0.000149036303703598
11
-2404.48614202706
21
2670.89253793381
31
0.000149444183627434
  0
LINE
 8
GROUP0
10
-2404.48614202706
20
2670.89253793381
30
0.000149444183627434
11
-2404.07192906188
21
2670.57469991033
31
0.00014990719085608
  0
LINE
 8
GROUP0
10
-2404.07192906188
20
2670.57469991033
30
0.00014990719085608
11
-2403.75409259498
21
2670.16048575076
31
0.000150393768479884
  0
LINE
 8
GROUP0
10
-2403.75409259498
20
2670.16048575076
30
0.000150393768479884
11
-2403.5542926563
21
2669.67812346556
31
0.000150870760554694
  0
LINE
 8
GROUP0
10
-2403.5542926563
20
2669.67812346556
30
0.000150870760554694
11
-2403.48614528149
21
2669.16048524731
31
0.000151305659412815
  0
LINE
 8
GROUP0
10
-2738.07190476317
20
2667.74708824922
30
0.000184445270036271
11
-2738.48611892245
21
2667.42925178255
31
0.000184472289693172
  0
LINE
 8
GROUP0
10
-2738.48611892245
20
2667.42925178255
30
0.000184472289693172
11
-2738.96848120732
21
2667.22945184402
31
0.000184372449315651
  0
LINE
 8
GROUP0
10
-2738.96848120732
20
2667.22945184402
30
0.000184372449315651
11
-2739.48611942521
21
2667.16130446928
31
0.000184152557975037
  0
LINE
 8
GROUP0
10
-2739.48611942521
20
2667.16130446928
30
0.000184152557975037
11
-2740.003757387
21
2667.22945378928
31
0.000183827598944253
  0
LINE
 8
GROUP0
10
-2740.003757387
20
2667.22945378928
30
0.000183827598944253
11
-2740.48611892103
21
2667.42925554049
31
0.000183419718298505
  0
LINE
 8
GROUP0
10
-2740.48611892103
20
2667.42925554049
30
0.000183419718298505
11
-2740.90033188591
21
2667.74709356376
31
0.000182956713234184
  0
LINE
 8
GROUP0
10
-2740.90033188591
20
2667.74709356376
30
0.000182956713234184
11
-2741.21816835258
21
2668.16130772304
31
0.000182470132722734
  0
LINE
 8
GROUP0
10
-2741.21816835258
20
2668.16130772304
30
0.000182470132722734
11
-2741.4179682911
21
2668.64367000791
31
0.000181993140648629
  0
LINE
 8
GROUP0
10
-2741.4179682911
20
2668.64367000791
30
0.000181993140648629
11
-2741.48611566585
21
2669.1613082258
31
0.000181558241789803
  0
LINE
 8
GROUP0
10
-2741.48611566585
20
2669.1613082258
30
0.000181558241789803
11
-2741.41796634585
21
2669.67894618759
31
0.000181195074216062
  0
LINE
 8
GROUP0
10
-2741.41796634585
20
2669.67894618759
30
0.000181195074216062
11
-2741.21816459464
21
2670.16130772162
31
0.000180928386489049
  0
LINE
 8
GROUP0
10
-2741.21816459464
20
2670.16130772162
30
0.000180928386489049
11
-2740.90032657137
21
2670.5755206865
31
0.00018077635488955
  0
LINE
 8
GROUP0
10
-2740.90032657137
20
2670.5755206865
30
0.00018077635488955
11
-2740.48611241209
21
2670.89335715317
31
0.000180749335233354
  0
LINE
 8
GROUP0
10
-2740.48611241209
20
2670.89335715317
30
0.000180749335233354
11
-2740.00375012721
21
2671.09315709169
31
0.000180849174167053
  0
LINE
 8
GROUP0
10
-2740.00375012721
20
2671.09315709169
30
0.000180849174167053
11
-2739.48611190933
21
2671.16130446644
31
0.000181069065506961
  0
LINE
 8
GROUP0
10
-2739.48611190933
20
2671.16130446644
30
0.000181069065506961
11
-2738.96847394754
21
2671.09315514644
31
0.00018139402453845
  0
LINE
 8
GROUP0
10
-2738.96847394754
20
2671.09315514644
30
0.00018139402453845
11
-2738.4861124135
21
2670.89335339523
31
0.000181801906628021
  0
LINE
 8
GROUP0
10
-2738.4861124135
20
2670.89335339523
30
0.000181801906628021
11
-2738.07189944863
21
2670.57551537196
31
0.000182264911691637
  0
LINE
 8
GROUP0
10
-2738.07189944863
20
2670.57551537196
30
0.000182264911691637
11
-2737.75406298196
21
2670.16130121268
31
0.000182751490759264
  0
LINE
 8
GROUP0
10
-2737.75406298196
20
2670.16130121268
30
0.000182751490759264
11
-2737.55426304343
21
2669.6789389278
31
0.000183228484277193
  0
LINE
 8
GROUP0
10
-2737.55426304343
20
2669.6789389278
30
0.000183228484277193
11
-2737.48611566869
21
2669.16130070992
31
0.000183663383135313
  0
LINE
 8
GROUP0
10
-2737.48611566869
20
2669.16130070992
30
0.000183663383135313
11
-2737.55426498869
21
2668.64366274813
31
0.000184026550709759
  0
LINE
 8
GROUP0
10
-2737.55426498869
20
2668.64366274813
30
0.000184026550709759
11
-2737.7540667399
21
2668.1613012141
31
0.00018429323699295
  0
LINE
 8
GROUP0
10
-2737.7540667399
20
2668.1613012141
30
0.00018429323699295
11
-2738.07190476317
21
2667.74708824922
31
0.000184445270036271
  0
LINE
 8
GROUP0
10
-2404.07239934149
20
2368.57462990638
30
0.000360640623736919
11
-2403.75456287549
21
2368.16041574612
31
0.000361127201360723
  0
LINE
 8
GROUP0
10
-2403.75456287549
20
2368.16041574612
30
0.000361127201360723
11
-2403.55476293787
21
2367.67805346047
31
0.000361604193434828
  0
LINE
 8
GROUP0
10
-2403.55476293787
20
2367.67805346047
30
0.000361604193434828
11
-2403.48661556419
21
2367.16041524207
31
0.000362039092293653
  0
LINE
 8
GROUP0
10
-2403.48661556419
20
2367.16041524207
30
0.000362039092293653
11
-2403.55476488535
21
2366.64277728007
31
0.000362402260588601
  0
LINE
 8
GROUP0
10
-2403.55476488535
20
2366.64277728007
30
0.000362402260588601
11
-2403.75456663775
21
2366.16041574613
31
0.000362668947594408
  0
LINE
 8
GROUP0
10
-2403.75456663775
20
2366.16041574613
30
0.000362668947594408
11
-2404.07240466213
21
2365.74620278165
31
0.000362820982081552
  0
LINE
 8
GROUP0
10
-2404.07240466213
20
2365.74620278165
30
0.000362820982081552
11
-2404.48661882239
21
2365.42836631564
31
0.000362847998850102
  0
LINE
 8
GROUP0
10
-2404.48661882239
20
2365.42836631564
30
0.000362847998850102
11
-2404.96898110804
21
2365.22856637802
31
0.000362748162082138
  0
LINE
 8
GROUP0
10
-2404.96898110804
20
2365.22856637802
30
0.000362748162082138
11
-2405.48661932643
21
2365.16041900434
31
0.000362528269298407
  0
LINE
 8
GROUP0
10
-2405.48661932643
20
2365.16041900434
30
0.000362528269298407
11
-2406.00425728844
21
2365.22856832551
31
0.000362203310266918
  0
LINE
 8
GROUP0
10
-2406.00425728844
20
2365.22856832551
30
0.000362203310266918
11
-2406.48661882238
21
2365.4283700779
31
0.00036179542962117
  0
LINE
 8
GROUP0
10
-2406.48661882238
20
2365.4283700779
30
0.00036179542962117
11
-2406.90083178686
21
2365.74620810228
31
0.00036133242311373
  0
LINE
 8
GROUP0
10
-2406.90083178686
20
2365.74620810228
30
0.00036133242311373
11
-2407.21866825286
21
2366.16042226255
31
0.000360845846211838
  0
LINE
 8
GROUP0
10
-2407.21866825286
20
2366.16042226255
30
0.000360845846211838
11
-2407.41846819049
21
2366.64278454819
31
0.000360368853415116
  0
LINE
 8
GROUP0
10
-2407.41846819049
20
2366.64278454819
30
0.000360368853415116
11
-2407.48661556417
21
2367.16042276659
31
0.000359933953835789
  0
LINE
 8
GROUP0
10
-2407.48661556417
20
2367.16042276659
30
0.000359933953835789
11
-2407.418466243
21
2367.67806072859
31
0.000359570786261343
  0
LINE
 8
GROUP0
10
-2407.418466243
20
2367.67806072859
30
0.000359570786261343
11
-2407.21866449061
21
2368.16042226253
31
0.000359304099978153
  0
LINE
 8
GROUP0
10
-2407.21866449061
20
2368.16042226253
30
0.000359304099978153
11
-2406.90082646622
21
2368.57463522701
31
0.000359152064769097
  0
LINE
 8
GROUP0
10
-2406.90082646622
20
2368.57463522701
30
0.000359152064769097
11
-2406.48661230596
21
2368.89247169302
31
0.000359125047277931
  0
LINE
 8
GROUP0
10
-2406.48661230596
20
2368.89247169302
30
0.000359125047277931
11
-2406.00425002032
21
2369.09227163064
31
0.000359224885489717
  0
LINE
 8
GROUP0
10
-2406.00425002032
20
2369.09227163064
30
0.000359224885489717
11
-2405.48661180192
21
2369.16041900432
31
0.000359444776830331
  0
LINE
 8
GROUP0
10
-2405.48661180192
20
2369.16041900432
30
0.000359444776830331
11
-2404.96897383991
21
2369.09226968315
31
0.000359769737304938
  0
LINE
 8
GROUP0
10
-2404.96897383991
20
2369.09226968315
30
0.000359769737304938
11
-2404.48661230597
21
2368.89246793076
31
0.000360177616506863
  0
LINE
 8
GROUP0
10
-2404.48661230597
20
2368.89246793076
30
0.000360177616506863
11
-2404.07239934149
21
2368.57462990638
31
0.000360640623736919
  0
LINE
 8
GROUP0
10
-2737.55428113389
20
2367.6788724414
30
0.000258223744279262
11
-2737.4861328222
21
2367.16123434865
31
0.000258658643138088
  0
LINE
 8
GROUP0
10
-2737.4861328222
20
2367.16123434865
30
0.000258658643138088
11
-2737.55428120481
21
2366.64359626524
31
0.000259021812155652
  0
LINE
 8
GROUP0
10
-2737.55428120481
20
2366.64359626524
30
0.000259021812155652
11
-2737.75408208204
21
2366.16123437111
31
0.000259288499161459
  0
LINE
 8
GROUP0
10
-2737.75408208204
20
2366.16123437111
30
0.000259288499161459
11
-2738.07191935431
21
2365.74702083222
31
0.000259440532925986
  0
LINE
 8
GROUP0
10
-2738.07191935431
20
2365.74702083222
30
0.000259440532925986
11
-2738.48613293675
21
2365.4291836167
31
0.000259467553304094
  0
LINE
 8
GROUP0
10
-2738.48613293675
20
2365.4291836167
30
0.000259467553304094
11
-2738.96849485825
21
2365.22938280556
31
0.000259367714370395
  0
LINE
 8
GROUP0
10
-2738.96849485825
20
2365.22938280556
30
0.000259367714370395
11
-2739.486132951
21
2365.16123449388
31
0.000259147823752398
  0
LINE
 8
GROUP0
10
-2739.486132951
20
2365.16123449388
30
0.000259147823752398
11
-2740.00377103441
21
2365.22938287648
31
0.00025882286544282
  0
LINE
 8
GROUP0
10
-2740.00377103441
20
2365.22938287648
30
0.00025882286544282
11
-2740.48613292854
21
2365.42918375371
31
0.000258414985518984
  0
LINE
 8
GROUP0
10
-2740.48613292854
20
2365.42918375371
30
0.000258414985518984
11
-2740.90034646743
21
2365.74702102598
31
0.000257951980455368
  0
LINE
 8
GROUP0
10
-2740.90034646743
20
2365.74702102598
30
0.000257951980455368
11
-2741.21818368295
21
2366.16123460842
31
0.000257465399944623
  0
LINE
 8
GROUP0
10
-2741.21818368295
20
2366.16123460842
30
0.000257465399944623
11
-2741.41798449409
21
2366.64359652992
31
0.000256988407869813
  0
LINE
 8
GROUP0
10
-2741.41798449409
20
2366.64359652992
30
0.000256988407869813
11
-2741.48613280577
21
2367.16123462267
31
0.000256553509011692
  0
LINE
 8
GROUP0
10
-2741.48613280577
20
2367.16123462267
30
0.000256553509011692
11
-2741.41798442317
21
2367.67887270608
31
0.000256190339993423
  0
LINE
 8
GROUP0
10
-2741.41798442317
20
2367.67887270608
30
0.000256190339993423
11
-2741.21818354593
21
2368.16123460021
31
0.000255923651544498
  0
LINE
 8
GROUP0
10
-2741.21818354593
20
2368.16123460021
30
0.000255923651544498
11
-2740.90034627367
21
2368.5754481391
31
0.000255771619223089
  0
LINE
 8
GROUP0
10
-2740.90034627367
20
2368.5754481391
30
0.000255771619223089
11
-2740.48613269122
21
2368.89328535462
31
0.000255744598844276
  0
LINE
 8
GROUP0
10
-2740.48613269122
20
2368.89328535462
30
0.000255744598844276
11
-2740.00377076972
21
2369.09308616576
31
0.000255844436334152
  0
LINE
 8
GROUP0
10
-2740.00377076972
20
2369.09308616576
30
0.000255844436334152
11
-2739.48613267698
21
2369.16123447744
31
0.000256064326952854
  0
LINE
 8
GROUP0
10
-2739.48613267698
20
2369.16123447744
30
0.000256064326952854
11
-2738.96849459357
21
2369.09308609484
31
0.000256389285261727
  0
LINE
 8
GROUP0
10
-2738.96849459357
20
2369.09308609484
30
0.000256389285261727
11
-2738.48613269944
21
2368.89328521761
31
0.000256797166629386
  0
LINE
 8
GROUP0
10
-2738.48613269944
20
2368.89328521761
30
0.000256797166629386
11
-2738.07191916054
21
2368.57544794534
31
0.000257260171693707
  0
LINE
 8
GROUP0
10
-2738.07191916054
20
2368.57544794534
30
0.000257260171693707
11
-2737.75408194503
21
2368.1612343629
31
0.000257746750761334
  0
LINE
 8
GROUP0
10
-2737.75408194503
20
2368.1612343629
30
0.000257746750761334
11
-2737.55428113389
21
2367.6788724414
31
0.000258223744279262
  0
LINE
 8
GROUP0
10
-2472.98661299205
20
2344.66051650798
30
0.000435143679339478
11
-2472.4689750301
21
2344.59236718683
31
0.000435468637648351
  0
LINE
 8
GROUP0
10
-2472.4689750301
20
2344.59236718683
30
0.000435468637648351
11
-2471.98661349621
21
2344.39256543447
31
0.000435876518294098
  0
LINE
 8
GROUP0
10
-2471.98661349621
20
2344.39256543447
30
0.000435876518294098
11
-2471.57240053177
21
2344.07472741012
31
0.000436339524802243
  0
LINE
 8
GROUP0
10
-2471.57240053177
20
2344.07472741012
30
0.000436339524802243
11
-2471.25456406579
21
2343.66051324991
31
0.000436826103869165
  0
LINE
 8
GROUP0
10
-2471.25456406579
20
2343.66051324991
30
0.000436826103869165
11
-2471.05476412818
21
2343.17815096432
31
0.000437303095943975
  0
LINE
 8
GROUP0
10
-2471.05476412818
20
2343.17815096432
30
0.000437303095943975
11
-2470.9866167545
21
2342.66051274597
31
0.000437737994802095
  0
LINE
 8
GROUP0
10
-2470.9866167545
20
2342.66051274597
30
0.000437737994802095
11
-2471.05476607565
21
2342.14287478402
31
0.000438101163097748
  0
LINE
 8
GROUP0
10
-2471.05476607565
20
2342.14287478402
30
0.000438101163097748
11
-2471.25456782802
21
2341.66051325013
31
0.000438367850825466
  0
LINE
 8
GROUP0
10
-2471.25456782802
20
2341.66051325013
30
0.000438367850825466
11
-2471.57240585236
21
2341.24630028569
31
0.000438519883868788
  0
LINE
 8
GROUP0
10
-2471.57240585236
20
2341.24630028569
30
0.000438519883868788
11
-2471.98662001258
21
2340.92846381971
31
0.000438546902081161
  0
LINE
 8
GROUP0
10
-2471.98662001258
20
2340.92846381971
30
0.000438546902081161
11
-2472.46898229817
21
2340.7286638821
31
0.000438447063869374
  0
LINE
 8
GROUP0
10
-2472.46898229817
20
2340.7286638821
30
0.000438447063869374
11
-2472.98662051651
21
2340.66051650842
31
0.000438227173251376
  0
LINE
 8
GROUP0
10
-2472.98662051651
20
2340.66051650842
30
0.000438227173251376
11
-2473.50425847847
21
2340.72866582957
31
0.000437902213497976
  0
LINE
 8
GROUP0
10
-2473.50425847847
20
2340.72866582957
30
0.000437902213497976
11
-2473.98662001236
21
2340.92846758194
31
0.000437494334296051
  0
LINE
 8
GROUP0
10
-2473.98662001236
20
2340.92846758194
30
0.000437494334296051
11
-2474.4008329768
21
2341.24630560628
31
0.000437031326344789
  0
LINE
 8
GROUP0
10
-2474.4008329768
20
2341.24630560628
30
0.000437031326344789
11
-2474.71866944278
21
2341.6605197665
31
0.000436544747277162
  0
LINE
 8
GROUP0
10
-2474.71866944278
20
2341.6605197665
30
0.000436544747277162
11
-2474.91846938039
21
2342.14288205209
31
0.000436067755202352
  0
LINE
 8
GROUP0
10
-2474.91846938039
20
2342.14288205209
30
0.000436067755202352
11
-2474.98661675406
21
2342.66052027043
31
0.000435632857788054
  0
LINE
 8
GROUP0
10
-2474.98661675406
20
2342.66052027043
30
0.000435632857788054
11
-2474.91846743291
21
2343.17815823239
31
0.000435269688048578
  0
LINE
 8
GROUP0
10
-2474.91846743291
20
2343.17815823239
30
0.000435269688048578
11
-2474.71866568055
21
2343.66051976628
31
0.00043500300032086
  0
LINE
 8
GROUP0
10
-2474.71866568055
20
2343.66051976628
30
0.00043500300032086
11
-2474.4008276562
21
2344.07473273072
31
0.000434850967278244
  0
LINE
 8
GROUP0
10
-2474.4008276562
20
2344.07473273072
30
0.000434850967278244
11
-2473.98661349599
21
2344.3925691967
31
0.000434823950508989
  0
LINE
 8
GROUP0
10
-2473.98661349599
20
2344.3925691967
30
0.000434823950508989
11
-2473.5042512104
21
2344.59236913431
31
0.000434923787276953
  0
LINE
 8
GROUP0
10
-2473.5042512104
20
2344.59236913431
30
0.000434923787276953
11
-2472.98661299205
21
2344.66051650798
31
0.000435143679339478
  0
LINE
 8
GROUP0
10
-2671.46847657223
20
2344.592318616
30
0.000422969431566467
11
-2670.98611466611
21
2344.39251776826
31
0.000423377311490303
  0
LINE
 8
GROUP0
10
-2670.98611466611
20
2344.39251776826
30
0.000423377311490303
11
-2670.57190110799
21
2344.07468052138
31
0.000423840317998447
  0
LINE
 8
GROUP0
10
-2670.57190110799
20
2344.07468052138
30
0.000423840317998447
11
-2670.25406386734
21
2343.66046695849
31
0.000424326897065369
  0
LINE
 8
GROUP0
10
-2670.25406386734
20
2343.66046695849
30
0.000424326897065369
11
-2670.05426302686
21
2343.17810504936
31
0.00042480388914018
  0
LINE
 8
GROUP0
10
-2670.05426302686
20
2343.17810504936
30
0.00042480388914018
11
-2669.98611468364
21
2342.66046696098
31
0.0004252387879983
  0
LINE
 8
GROUP0
10
-2669.98611468364
20
2342.66046696098
30
0.0004252387879983
11
-2670.05426303465
21
2342.14282887362
31
0.000425601956293953
  0
LINE
 8
GROUP0
10
-2670.05426303465
20
2342.14282887362
30
0.000425601956293953
11
-2670.25406388238
21
2341.6604669675
31
0.000425868645465494
  0
LINE
 8
GROUP0
10
-2670.25406388238
20
2341.6604669675
30
0.000425868645465494
11
-2670.57190112926
21
2341.24625340938
31
0.000426020679230726
  0
LINE
 8
GROUP0
10
-2670.57190112926
20
2341.24625340938
30
0.000426020679230726
11
-2670.98611469216
21
2340.92841616873
31
0.000426047698165011
  0
LINE
 8
GROUP0
10
-2670.98611469216
20
2340.92841616873
30
0.000426047698165011
11
-2671.46847660128
21
2340.72861532825
31
0.000425947860675135
  0
LINE
 8
GROUP0
10
-2671.46847660128
20
2340.72861532825
30
0.000425947860675135
11
-2671.98611468967
21
2340.66046698503
31
0.00042572797077905
  0
LINE
 8
GROUP0
10
-2671.98611468967
20
2340.66046698503
30
0.00042572797077905
11
-2672.50375277703
21
2340.72861533603
31
0.00042540301174756
  0
LINE
 8
GROUP0
10
-2672.50375277703
20
2340.72861533603
30
0.00042540301174756
11
-2672.98611468315
21
2340.92841618377
31
0.000424995133267547
  0
LINE
 8
GROUP0
10
-2672.98611468315
20
2340.92841618377
30
0.000424995133267547
11
-2673.40032824127
21
2341.24625343065
31
0.000424532125316285
  0
LINE
 8
GROUP0
10
-2673.40032824127
20
2341.24625343065
30
0.000424532125316285
11
-2673.71816548192
21
2341.66046699354
31
0.000424045546248658
  0
LINE
 8
GROUP0
10
-2673.71816548192
20
2341.66046699354
30
0.000424045546248658
11
-2673.9179663224
21
2342.14282890267
31
0.000423568554173848
  0
LINE
 8
GROUP0
10
-2673.9179663224
20
2342.14282890267
30
0.000423568554173848
11
-2673.98611466562
21
2342.66046699105
31
0.00042313365675955
  0
LINE
 8
GROUP0
10
-2673.98611466562
20
2342.66046699105
30
0.00042313365675955
11
-2673.91796631461
21
2343.17810507841
31
0.000422770487020074
  0
LINE
 8
GROUP0
10
-2673.91796631461
20
2343.17810507841
30
0.000422770487020074
11
-2673.71816546688
21
2343.66046698453
31
0.000422503797848534
  0
LINE
 8
GROUP0
10
-2673.71816546688
20
2343.66046698453
30
0.000422503797848534
11
-2673.40032822
21
2344.07468054265
31
0.000422351764084006
  0
LINE
 8
GROUP0
10
-2673.40032822
20
2344.07468054265
30
0.000422351764084006
11
-2672.9861146571
21
2344.3925177833
31
0.000422324746592839
  0
LINE
 8
GROUP0
10
-2672.9861146571
20
2344.3925177833
30
0.000422324746592839
11
-2672.50375274798
21
2344.59231862378
31
0.000422424582638892
  0
LINE
 8
GROUP0
10
-2672.50375274798
20
2344.59231862378
30
0.000422424582638892
11
-2671.98611465959
21
2344.66046696701
31
0.000422644473979505
  0
LINE
 8
GROUP0
10
-2671.98611465959
20
2344.66046696701
30
0.000422644473979505
11
-2671.46847657223
21
2344.592318616
31
0.000422969431566467
 0
ENDSEC
 0
EOF
