 0
SECTION
 2
ENTITIES
  0
LINE
 8
GROUP0
10
-4113.25753463178
20
2993.12119864106
30
1.3742956404883e-005
11
-4113.45733547679
21
2993.60356055086
31
1.37533064489048e-005
  0
LINE
 8
GROUP0
10
-4028.60337619324
20
3079.18934217917
30
1.61065640568836e-005
11
-4028.18916263087
21
3078.87150493398
31
1.61009581439941e-005
  0
LINE
 8
GROUP0
10
-4029.12101428344
20
3081.12119383175
30
1.61492297436894e-005
11
-4029.18916263087
21
3080.60355574155
31
1.61369088814922e-005
  0
LINE
 8
GROUP0
10
-4025.77494906849
20
3079.18934217917
30
1.61187152698972e-005
11
-4025.4571118233
21
3079.60355574155
31
1.61297056493481e-005
  0
LINE
 8
GROUP0
10
-4026.18916263087
20
3082.33560654912
30
1.61900439984208e-005
11
-4026.67152454066
21
3082.53540739413
31
1.6192614454269e-005
  0
LINE
 8
GROUP0
10
-4028.92121343843
20
3081.60355574155
30
1.61612964930669e-005
11
-4029.12101428344
21
3081.12119383175
31
1.61492297436894e-005
  0
LINE
 8
GROUP0
10
-4025.4571118233
20
3081.60355574155
30
1.61761786969805e-005
11
-4025.77494906849
21
3082.01776930392
31
1.61844380855314e-005
  0
LINE
 8
GROUP0
10
-4027.70680072107
20
3236.67193247051
30
2.26681197311507e-005
11
-4027.18916263087
21
3236.60378412308
31
2.26687600665798e-005
  0
LINE
 8
GROUP0
10
-4028.18916263087
20
3236.87173331552
30
2.26706901869989e-005
11
-4027.70680072107
21
3236.67193247051
31
2.26681197311507e-005
  0
LINE
 8
GROUP0
10
-4028.92121343843
20
3237.60378412308
30
2.26845554884392e-005
11
-4028.60337619324
21
3237.18957056071
31
2.26762960998883e-005
  0
LINE
 8
GROUP0
10
-4028.60337619324
20
3240.01799768546
30
2.27420189155225e-005
11
-4028.92121343843
21
3239.60378412308
31
2.27310285360716e-005
  0
LINE
 8
GROUP0
10
-4026.67152454066
20
3082.53540739413
30
1.6192614454269e-005
11
-4027.18916263087
21
3082.60355574155
31
1.61919741188399e-005
  0
LINE
 8
GROUP0
10
-4028.60337619324
20
3082.01776930392
30
1.61722868725178e-005
11
-4028.92121343843
21
3081.60355574155
31
1.61612964930669e-005
  0
LINE
 8
GROUP0
10
-4028.60337619324
20
3237.18957056071
30
2.26762960998883e-005
11
-4028.18916263087
21
3236.87173331552
31
2.26706901869989e-005
  0
LINE
 8
GROUP0
10
-4027.70680072107
20
3082.53540739413
30
1.61881667580133e-005
11
-4028.18916263087
21
3082.33560654912
31
1.61814518087056e-005
  0
LINE
 8
GROUP0
10
-4025.25731097829
20
3081.12119383175
30
1.61658286529587e-005
11
-4025.4571118233
21
3081.60355574155
31
1.61761786969805e-005
  0
LINE
 8
GROUP0
10
-4029.18916263087
20
3080.60355574155
30
1.61369088814922e-005
11
-4029.12101428344
21
3080.08591765134
31
1.61251734894563e-005
  0
LINE
 8
GROUP0
10
-4028.18916263087
20
3078.87150493398
30
1.61009581439941e-005
11
-4027.70680072107
21
3078.67170408897
31
1.60983877783849e-005
  0
LINE
 8
GROUP0
10
-4027.18916263087
20
3078.60355574155
30
1.60990280235751e-005
11
-4026.67152454066
21
3078.67170408897
31
1.61028353844017e-005
  0
LINE
 8
GROUP0
10
-4027.70680072107
20
3240.53563577566
30
2.2757898801018e-005
11
-4028.18916263087
21
3240.33583493065
31
2.27511838517103e-005
  0
LINE
 8
GROUP0
10
-4029.12101428344
20
3080.08591765134
30
1.61251734894563e-005
11
-4028.92121343843
21
3079.60355574155
31
1.61148234454345e-005
  0
LINE
 8
GROUP0
10
-4026.67152454066
20
3236.67193247051
30
2.26725674274064e-005
11
-4026.18916263087
21
3236.87173331552
31
2.26792823767141e-005
  0
LINE
 8
GROUP0
10
-4025.18916263086
20
3080.60355574155
30
1.61540933511617e-005
11
-4025.25731097829
21
3081.12119383175
31
1.61658286529587e-005
  0
LINE
 8
GROUP0
10
-4027.18916263087
20
3082.60355574155
30
1.61919741188399e-005
11
-4027.70680072107
21
3082.53540739413
31
1.61881667580133e-005
  0
LINE
 8
GROUP0
10
-4113.45733547679
20
2993.60356055086
30
1.37533064489048e-005
11
-4113.77517272198
21
2994.01777411323
31
1.37615658374557e-005
  0
LINE
 8
GROUP0
10
-4028.92121343843
20
3079.60355574155
30
1.61148234454345e-005
11
-4028.60337619324
21
3079.18934217917
31
1.61065640568836e-005
  0
LINE
 8
GROUP0
10
-4025.25731097829
20
3239.12142221329
30
2.27355606959634e-005
11
-4025.4571118233
21
3239.60378412308
31
2.27459107399852e-005
  0
LINE
 8
GROUP0
10
-4026.18916263087
20
3078.87150493398
30
1.61095503337094e-005
11
-4025.77494906849
21
3079.18934217917
31
1.61187152698972e-005
  0
LINE
 8
GROUP0
10
-4025.77494906849
20
3082.01776930392
30
1.61844380855314e-005
11
-4026.18916263087
21
3082.33560654912
31
1.61900439984208e-005
  0
LINE
 8
GROUP0
10
-4027.18916263087
20
3236.60378412308
30
2.26687600665798e-005
11
-4026.67152454066
21
3236.67193247051
31
2.26725674274064e-005
  0
LINE
 8
GROUP0
10
-4113.77517272198
20
2994.01777411323
30
1.37615658374557e-005
11
-4114.18938628436
21
2994.33561135843
31
1.37671717503451e-005
  0
LINE
 8
GROUP0
10
-4028.18916263087
20
3082.33560654912
30
1.61814518087056e-005
11
-4028.60337619324
21
3082.01776930392
31
1.61722868725178e-005
  0
LINE
 8
GROUP0
10
-4026.67152454066
20
3078.67170408897
30
1.61028353844017e-005
11
-4026.18916263087
21
3078.87150493398
31
1.61095503337094e-005
  0
LINE
 8
GROUP0
10
-4113.45733547679
20
2991.60356055086
30
1.37068334012724e-005
11
-4113.25753463178
21
2992.08592246065
31
1.37189001506499e-005
  0
LINE
 8
GROUP0
10
-4116.92143709193
20
2991.60356055086
30
1.36919511973588e-005
11
-4116.60359984673
21
2991.18934698848
31
1.36836918088079e-005
  0
LINE
 8
GROUP0
10
-4292.25753463178
20
2993.12119864106
30
1.31887579122747e-005
11
-4292.45733547679
21
2993.60356055086
31
1.31991079562965e-005
  0
LINE
 8
GROUP0
10
-4292.18938628436
20
2992.60356055086
30
1.31770226104777e-005
11
-4292.25753463178
21
2993.12119864106
31
1.31887579122747e-005
  0
LINE
 8
GROUP0
10
-4027.70680072107
20
3078.67170408897
30
1.60983877783849e-005
11
-4027.18916263087
21
3078.60355574155
31
1.60990280235751e-005
  0
LINE
 8
GROUP0
10
-4113.18938628436
20
2992.60356055086
30
1.37312210128471e-005
11
-4113.25753463178
21
2993.12119864106
31
1.3742956404883e-005
  0
LINE
 8
GROUP0
10
-4117.12123793693
20
2992.08592246065
30
1.37023012413806e-005
11
-4116.92143709193
21
2991.60356055086
31
1.36919511973588e-005
  0
LINE
 8
GROUP0
10
-4293.67174819415
20
2994.53541220343
30
1.3215543713585e-005
11
-4294.18938628436
21
2994.60356055086
31
1.32149033781559e-005
  0
LINE
 8
GROUP0
10
-4292.25753463178
20
2992.08592246065
30
1.31647017482806e-005
11
-4292.18938628436
21
2992.60356055086
31
1.31770226104777e-005
  0
LINE
 8
GROUP0
10
-4115.18938628436
20
2994.60356055086
30
1.37691018707642e-005
11
-4115.70702437456
21
2994.53541220343
31
1.37652945099376e-005
  0
LINE
 8
GROUP0
10
-4292.45733547679
20
2991.60356055086
30
1.31526349086641e-005
11
-4292.25753463178
21
2992.08592246065
31
1.31647017482806e-005
  0
LINE
 8
GROUP0
10
-4294.70702437456
20
2994.53541220343
30
1.32110960173293e-005
11
-4295.18938628436
21
2994.33561135843
31
1.32043810680216e-005
  0
LINE
 8
GROUP0
10
-4115.70702437456
20
2994.53541220343
30
1.37652945099376e-005
11
-4116.18938628436
21
2994.33561135843
31
1.37585795606299e-005
  0
LINE
 8
GROUP0
10
-4292.45733547679
20
2993.60356055086
30
1.31991079562965e-005
11
-4292.77517272198
21
2994.01777411323
31
1.32073673448474e-005
  0
LINE
 8
GROUP0
10
-4113.77517272198
20
2991.18934698848
30
1.36958430218215e-005
11
-4113.45733547679
21
2991.60356055086
31
1.37068334012724e-005
  0
LINE
 8
GROUP0
10
-4294.18938628436
20
2994.60356055086
30
1.32149033781559e-005
11
-4294.70702437456
21
2994.53541220343
31
1.32110960173293e-005
  0
LINE
 8
GROUP0
10
-4114.67174819415
20
2994.53541220343
30
1.37697422061933e-005
11
-4115.18938628436
21
2994.60356055086
31
1.37691018707642e-005
  0
LINE
 8
GROUP0
10
-4025.4571118233
20
3079.60355574155
30
1.61297056493481e-005
11
-4025.25731097829
21
3080.08591765134
31
1.61417723987256e-005
  0
LINE
 8
GROUP0
10
-4025.25731097829
20
3080.08591765134
30
1.61417723987256e-005
11
-4025.18916263086
21
3080.60355574155
31
1.61540933511617e-005
  0
LINE
 8
GROUP0
10
-4115.18938628436
20
2990.60356055086
30
1.36761557754994e-005
11
-4114.67174819415
21
2990.67170889828
31
1.3679963136326e-005
  0
LINE
 8
GROUP0
10
-4114.67174819415
20
2990.67170889828
30
1.3679963136326e-005
11
-4114.18938628436
21
2990.87150974329
31
1.36866780856337e-005
  0
LINE
 8
GROUP0
10
-4114.18938628436
20
2990.87150974329
30
1.36866780856337e-005
11
-4113.77517272198
21
2991.18934698848
31
1.36958430218215e-005
  0
LINE
 8
GROUP0
10
-4114.18938628436
20
2994.33561135843
30
1.37671717503451e-005
11
-4114.67174819415
21
2994.53541220343
31
1.37697422061933e-005
  0
LINE
 8
GROUP0
10
-4115.70702437456
20
2990.67170889828
30
1.36755155303092e-005
11
-4115.18938628436
21
2990.60356055086
31
1.36761557754994e-005
  0
LINE
 8
GROUP0
10
-4117.12123793693
20
2993.12119864106
30
1.37263574956137e-005
11
-4117.18938628436
21
2992.60356055086
31
1.37140366334165e-005
  0
LINE
 8
GROUP0
10
-4116.18938628436
20
2990.87150974329
30
1.36780858959185e-005
11
-4115.70702437456
21
2990.67170889828
31
1.36755155303092e-005
  0
LINE
 8
GROUP0
10
-4116.60359984673
20
2991.18934698848
30
1.36836918088079e-005
11
-4116.18938628436
21
2990.87150974329
31
1.36780858959185e-005
  0
LINE
 8
GROUP0
10
-4116.60359984673
20
2994.01777411323
30
1.37494146244421e-005
11
-4116.92143709193
21
2993.60356055086
31
1.37384242449912e-005
  0
LINE
 8
GROUP0
10
-4113.25753463178
20
2992.08592246065
30
1.37189001506499e-005
11
-4113.18938628436
21
2992.60356055086
31
1.37312210128471e-005
  0
LINE
 8
GROUP0
10
-4117.18938628436
20
2992.60356055086
30
1.37140366334165e-005
11
-4117.12123793693
21
2992.08592246065
31
1.37023012413806e-005
  0
LINE
 8
GROUP0
10
-4116.92143709193
20
2993.60356055086
30
1.37384242449912e-005
11
-4117.12123793693
21
2993.12119864106
31
1.37263574956137e-005
  0
LINE
 8
GROUP0
10
-4474.60382822827
20
2994.01777411323
30
1.37384292983711e-005
11
-4474.92166547346
21
2993.60356055086
31
1.37274389189201e-005
  0
LINE
 8
GROUP0
10
-4472.18961466589
20
2990.87150974329
30
1.36756927595627e-005
11
-4471.77540110352
21
2991.18934698848
31
1.36848576957505e-005
  0
LINE
 8
GROUP0
10
-4295.18938628436
20
2990.87150974329
30
1.31238874033102e-005
11
-4294.70702437456
21
2990.67170889828
31
1.31213170377009e-005
  0
LINE
 8
GROUP0
10
-4475.18961466589
20
2992.60356055086
30
1.37030512171066e-005
11
-4475.12146631847
21
2992.08592246065
31
1.36913159153096e-005
  0
LINE
 8
GROUP0
10
-4293.18938628436
20
2990.87150974329
30
1.31324796832644e-005
11
-4292.77517272198
21
2991.18934698848
31
1.31416446194521e-005
  0
LINE
 8
GROUP0
10
-4296.18938628436
20
2992.60356055086
30
1.31598381408082e-005
11
-4296.12123793693
21
2992.08592246065
31
1.31481028390112e-005
  0
LINE
 8
GROUP0
10
-4295.92143709193
20
2993.60356055086
30
1.31842257523829e-005
11
-4296.12123793693
21
2993.12119864106
31
1.31721590030054e-005
  0
LINE
 8
GROUP0
10
-4471.25776301331
20
2992.08592246065
30
1.37079148245789e-005
11
-4471.18961466589
21
2992.60356055086
31
1.3720235686776e-005
  0
LINE
 8
GROUP0
10
-4295.92143709193
20
2991.60356055086
30
1.31377527949894e-005
11
-4295.60359984673
21
2991.18934698848
31
1.31294933161996e-005
  0
LINE
 8
GROUP0
10
-4295.60359984673
20
2994.01777411323
30
1.31952161318338e-005
11
-4295.92143709193
21
2993.60356055086
31
1.31842257523829e-005
  0
LINE
 8
GROUP0
10
-4474.92166547346
20
2991.60356055086
30
1.36809658712878e-005
11
-4474.60382822827
21
2991.18934698848
31
1.36727064827369e-005
  0
LINE
 8
GROUP0
10
-4292.77517272198
20
2994.01777411323
30
1.32073673448474e-005
11
-4293.18938628436
21
2994.33561135843
31
1.32129732577368e-005
  0
LINE
 8
GROUP0
10
-4295.18938628436
20
2994.33561135843
30
1.32043810680216e-005
11
-4295.60359984673
21
2994.01777411323
31
1.31952161318338e-005
  0
LINE
 8
GROUP0
10
-4296.12123793693
20
2992.08592246065
30
1.31481028390112e-005
11
-4295.92143709193
21
2991.60356055086
31
1.31377527949894e-005
  0
LINE
 8
GROUP0
10
-4474.92166547346
20
2993.60356055086
30
1.37274389189201e-005
11
-4475.12146631847
21
2993.12119864106
31
1.37153721695427e-005
  0
LINE
 8
GROUP0
10
-4473.7072527561
20
2990.67170889828
30
1.36645301139993e-005
11
-4473.18961466589
21
2990.60356055086
31
1.36651704494284e-005
  0
LINE
 8
GROUP0
10
-4116.18938628436
20
2994.33561135843
30
1.37585795606299e-005
11
-4116.60359984673
21
2994.01777411323
31
1.37494146244421e-005
  0
LINE
 8
GROUP0
10
-4294.70702437456
20
2990.67170889828
30
1.31213170377009e-005
11
-4294.18938628436
21
2990.60356055086
31
1.31219572828911e-005
  0
LINE
 8
GROUP0
10
-4471.25776301331
20
2993.12119864106
30
1.3731971078812e-005
11
-4471.45756385832
21
2993.60356055086
31
1.37423211228338e-005
  0
LINE
 8
GROUP0
10
-4294.18938628436
20
2990.60356055086
30
1.31219572828911e-005
11
-4293.67174819415
21
2990.67170889828
31
1.31257646437177e-005
  0
LINE
 8
GROUP0
10
-4293.67174819415
20
2990.67170889828
30
1.31257646437177e-005
11
-4293.18938628436
21
2990.87150974329
31
1.31324796832644e-005
  0
LINE
 8
GROUP0
10
-4471.18961466589
20
2992.60356055086
30
1.3720235686776e-005
11
-4471.25776301331
21
2993.12119864106
31
1.3731971078812e-005
  0
LINE
 8
GROUP0
10
-4474.18961466589
20
2994.33561135843
30
1.37475942345588e-005
11
-4474.60382822827
21
2994.01777411323
31
1.37384292983711e-005
  0
LINE
 8
GROUP0
10
-4295.60359984673
20
2991.18934698848
30
1.31294933161996e-005
11
-4295.18938628436
21
2990.87150974329
31
1.31238874033102e-005
  0
LINE
 8
GROUP0
10
-4293.18938628436
20
2994.33561135843
30
1.32129732577368e-005
11
-4293.67174819415
21
2994.53541220343
31
1.3215543713585e-005
  0
LINE
 8
GROUP0
10
-4473.18961466589
20
2990.60356055086
30
1.36651704494284e-005
11
-4472.67197657569
21
2990.67170889828
31
1.3668977810255e-005
  0
LINE
 8
GROUP0
10
-4473.7072527561
20
2994.53541220343
30
1.37543091838666e-005
11
-4474.18961466589
21
2994.33561135843
31
1.37475942345588e-005
  0
LINE
 8
GROUP0
10
-4296.12123793693
20
2993.12119864106
30
1.31721590030054e-005
11
-4296.18938628436
21
2992.60356055086
31
1.31598381408082e-005
  0
LINE
 8
GROUP0
10
-4473.18961466589
20
2994.60356055086
30
1.37581165446932e-005
11
-4473.7072527561
21
2994.53541220343
31
1.37543091838666e-005
  0
LINE
 8
GROUP0
10
-4471.77540110352
20
2991.18934698848
30
1.36848576957505e-005
11
-4471.45756385832
21
2991.60356055086
31
1.36958480752014e-005
  0
LINE
 8
GROUP0
10
-4292.77517272198
20
2991.18934698848
30
1.31416446194521e-005
11
-4292.45733547679
21
2991.60356055086
31
1.31526349086641e-005
  0
LINE
 8
GROUP0
10
-4471.45756385832
20
2991.60356055086
30
1.36958480752014e-005
11
-4471.25776301331
21
2992.08592246065
31
1.37079148245789e-005
  0
LINE
 8
GROUP0
10
-4560.67197176638
20
3236.67216093331
30
2.19054707599753e-005
11
-4560.18960985658
21
3236.87196177832
31
2.1912185709283e-005
  0
LINE
 8
GROUP0
10
-4560.67197176638
20
3082.53563585693
30
1.54255176965989e-005
11
-4561.18960985658
21
3082.60378420435
31
1.54248773611698e-005
  0
LINE
 8
GROUP0
10
-4474.18961466589
20
2990.87150974329
30
1.36671005698474e-005
11
-4473.7072527561
21
2990.67170889828
31
1.36645301139993e-005
  0
LINE
 8
GROUP0
10
-4560.18960985658
20
3082.33583501192
30
1.54229473309897e-005
11
-4560.67197176638
21
3082.53563585693
31
1.54255176965989e-005
  0
LINE
 8
GROUP0
10
-4472.18961466589
20
2994.33561135843
30
1.37561864242741e-005
11
-4472.67197657569
21
2994.53541220343
31
1.37587567898834e-005
  0
LINE
 8
GROUP0
10
-4562.92166066415
20
3079.60378420435
30
1.53477267780033e-005
11
-4562.60382341896
21
3079.18957064197
31
1.53394673894525e-005
  0
LINE
 8
GROUP0
10
-4563.12146150916
20
3080.08614611414
30
1.53580768220252e-005
11
-4562.92166066415
21
3079.60378420435
31
1.53477267780033e-005
  0
LINE
 8
GROUP0
10
-4474.60382822827
20
2991.18934698848
30
1.36727064827369e-005
11
-4474.18961466589
21
2990.87150974329
31
1.36671005698474e-005
  0
LINE
 8
GROUP0
10
-4559.45755904901
20
3081.60378420435
30
1.54090819393105e-005
11
-4559.77539629421
21
3082.01799776672
31
1.54173414181002e-005
  0
LINE
 8
GROUP0
10
-4559.18960985658
20
3080.60378420435
30
1.53869965934916e-005
11
-4559.257758204
21
3081.12142229455
31
1.53987318952886e-005
  0
LINE
 8
GROUP0
10
-4475.12146631847
20
2993.12119864106
30
1.37153721695427e-005
11
-4475.18961466589
21
2992.60356055086
31
1.37030512171066e-005
  0
LINE
 8
GROUP0
10
-4475.12146631847
20
2992.08592246065
30
1.36913159153096e-005
11
-4474.92166547346
21
2991.60356055086
31
1.36809658712878e-005
  0
LINE
 8
GROUP0
10
-4559.257758204
20
3081.12142229455
30
1.53987318952886e-005
11
-4559.45755904901
21
3081.60378420435
31
1.54090819393105e-005
  0
LINE
 8
GROUP0
10
-4562.18960985658
20
3082.33583501192
30
1.54143550510355e-005
11
-4562.60382341896
21
3082.01799776672
31
1.54051901148478e-005
  0
LINE
 8
GROUP0
10
-4472.67197657569
20
2990.67170889828
30
1.3668977810255e-005
11
-4472.18961466589
21
2990.87150974329
31
1.36756927595627e-005
  0
LINE
 8
GROUP0
10
-4471.45756385832
20
2993.60356055086
30
1.37423211228338e-005
11
-4471.77540110352
21
2994.01777411323
31
1.37505805113847e-005
  0
LINE
 8
GROUP0
10
-4471.77540110352
20
2994.01777411323
30
1.37505805113847e-005
11
-4472.18961466589
21
2994.33561135843
31
1.37561864242741e-005
  0
LINE
 8
GROUP0
10
-4561.70724794679
20
3082.53563585693
30
1.54210700003432e-005
11
-4562.18960985658
21
3082.33583501192
31
1.54143550510355e-005
  0
LINE
 8
GROUP0
10
-4562.92166066415
20
3081.60378420435
30
1.53941998256357e-005
11
-4563.12146150916
21
3081.12142229455
31
1.53821329860193e-005
  0
LINE
 8
GROUP0
10
-4559.77539629421
20
3082.01799776672
30
1.54173414181002e-005
11
-4560.18960985658
21
3082.33583501192
31
1.54229473309897e-005
  0
LINE
 8
GROUP0
10
-4562.60382341896
20
3082.01799776672
30
1.54051901148478e-005
11
-4562.92166066415
21
3081.60378420435
31
1.53941998256357e-005
  0
LINE
 8
GROUP0
10
-4561.70724794679
20
3078.67193255177
30
1.53312910207148e-005
11
-4561.18960985658
21
3078.60378420435
31
1.5331931356144e-005
  0
LINE
 8
GROUP0
10
-4562.60382341896
20
3079.18957064197
30
1.53394673894525e-005
11
-4562.18960985658
21
3078.87173339678
31
1.53338613863241e-005
  0
LINE
 8
GROUP0
10
-4563.18960985658
20
3080.60378420435
30
1.53698121238222e-005
11
-4563.12146150916
21
3080.08614611414
31
1.53580768220252e-005
  0
LINE
 8
GROUP0
10
-4562.18960985658
20
3078.87173339678
30
1.53338613863241e-005
11
-4561.70724794679
21
3078.67193255177
31
1.53312910207148e-005
  0
LINE
 8
GROUP0
10
-4559.77539629421
20
3079.18957064197
30
1.5351618602466e-005
11
-4559.45755904901
21
3079.60378420435
31
1.5362608981917e-005
  0
LINE
 8
GROUP0
10
-4559.257758204
20
3080.08614611414
30
1.53746757312945e-005
11
-4559.18960985658
21
3080.60378420435
31
1.53869965934916e-005
  0
LINE
 8
GROUP0
10
-4561.18960985658
20
3078.60378420435
30
1.5331931356144e-005
11
-4560.67197176638
21
3078.67193255177
31
1.53357387169706e-005
  0
LINE
 8
GROUP0
10
-4563.12146150916
20
3081.12142229455
30
1.53821329860193e-005
11
-4563.18960985658
21
3080.60378420435
31
1.53698121238222e-005
  0
LINE
 8
GROUP0
10
-4561.18960985658
20
3082.60378420435
30
1.54248773611698e-005
11
-4561.70724794679
21
3082.53563585693
31
1.54210700003432e-005
  0
LINE
 8
GROUP0
10
-4472.67197657569
20
2994.53541220343
30
1.37587567898834e-005
11
-4473.18961466589
21
2994.60356055086
31
1.37581165446932e-005
  0
LINE
 8
GROUP0
10
-4560.18960985658
20
3236.87196177832
30
2.1912185709283e-005
11
-4559.77539629421
21
3237.18979902351
31
2.19213506454707e-005
  0
LINE
 8
GROUP0
10
-4473.18938620309
20
3324.60400777657
30
2.43245356472244e-005
11
-4472.67174811289
21
3324.672156124
31
2.4328343008051e-005
  0
LINE
 8
GROUP0
10
-4559.77539629421
20
3240.01822614826
30
2.1987073370866e-005
11
-4560.18960985658
21
3240.33606339345
31
2.19926793739944e-005
  0
LINE
 8
GROUP0
10
-4561.18960985658
20
3236.60401258588
30
2.19016633991487e-005
11
-4560.67197176638
21
3236.67216093331
31
2.19054707599753e-005
  0
LINE
 8
GROUP0
10
-4563.18960985658
20
3238.60401258588
30
2.19395441668269e-005
11
-4563.12146150916
21
3238.08637449568
31
2.19278088650299e-005
  0
LINE
 8
GROUP0
10
-4560.67197176638
20
3078.67193255177
30
1.53357387169706e-005
11
-4560.18960985658
21
3078.87173339678
31
1.53424536662783e-005
  0
LINE
 8
GROUP0
10
-4560.18960985658
20
3078.87173339678
30
1.53424536662783e-005
11
-4559.77539629421
21
3079.18957064197
31
1.5351618602466e-005
  0
LINE
 8
GROUP0
10
-4561.70724794679
20
3240.53586423846
30
2.19908020433479e-005
11
-4562.18960985658
21
3240.33606339345
31
2.19840870940402e-005
  0
LINE
 8
GROUP0
10
-4561.18960985658
20
3240.60401258588
30
2.19946094041745e-005
11
-4561.70724794679
21
3240.53586423846
31
2.19908020433479e-005
  0
LINE
 8
GROUP0
10
-4562.18960985658
20
3240.33606339345
30
2.19840870940402e-005
11
-4562.60382341896
21
3240.01822614826
31
2.19749221578525e-005
  0
LINE
 8
GROUP0
10
-4562.60382341896
20
3240.01822614826
30
2.19749221578525e-005
11
-4562.92166066415
21
3239.60401258588
31
2.19639318686404e-005
  0
LINE
 8
GROUP0
10
-4561.70724794679
20
3236.67216093331
30
2.19010230637195e-005
11
-4561.18960985658
21
3236.60401258588
31
2.19016633991487e-005
  0
LINE
 8
GROUP0
10
-4563.12146150916
20
3239.12165067609
30
2.1951865029024e-005
11
-4563.18960985658
21
3238.60401258588
31
2.19395441668269e-005
  0
LINE
 8
GROUP0
10
-4562.92166066415
20
3237.60401258588
30
2.1917458821008e-005
11
-4562.60382341896
21
3237.18979902351
31
2.19091993422182e-005
  0
LINE
 8
GROUP0
10
-4472.67174811289
20
3324.672156124
30
2.4328343008051e-005
11
-4472.18938620309
21
3324.87195696901
31
2.43350579573587e-005
  0
LINE
 8
GROUP0
10
-4562.18960985658
20
3236.87196177832
30
2.19035934293288e-005
11
-4561.70724794679
21
3236.67216093331
31
2.19010230637195e-005
  0
LINE
 8
GROUP0
10
-4559.18960985658
20
3238.60401258588
30
2.19567286364963e-005
11
-4559.257758204
21
3239.12165067609
31
2.19684639382933e-005
  0
LINE
 8
GROUP0
10
-4562.92166066415
20
3239.60401258588
30
2.19639318686404e-005
11
-4563.12146150916
21
3239.12165067609
31
2.1951865029024e-005
  0
LINE
 8
GROUP0
10
-4474.92143701066
20
3325.60400777658
30
2.43403310690837e-005
11
-4474.60359976547
21
3325.1897942142
31
2.43320715902939e-005
  0
LINE
 8
GROUP0
10
-4475.12123785567
20
3327.12164586678
30
2.43747372770997e-005
11
-4475.18938620309
21
3326.60400777658
31
2.43624164149026e-005
  0
LINE
 8
GROUP0
10
-4559.45755904901
20
3239.60401258588
30
2.19788139823152e-005
11
-4559.77539629421
21
3240.01822614826
31
2.1987073370866e-005
  0
LINE
 8
GROUP0
10
-4474.92143701066
20
3327.60400777658
30
2.43868041167161e-005
11
-4475.12123785567
21
3327.12164586678
31
2.43747372770997e-005
  0
LINE
 8
GROUP0
10
-4475.12123785567
20
3326.08636968637
30
2.43506811131056e-005
11
-4474.92143701066
21
3325.60400777658
31
2.43403310690837e-005
  0
LINE
 8
GROUP0
10
-4560.67197176638
20
3240.53586423846
30
2.19952497396037e-005
11
-4561.18960985658
21
3240.60401258588
31
2.19946094041745e-005
  0
LINE
 8
GROUP0
10
-4562.60382341896
20
3237.18979902351
30
2.19091993422182e-005
11
-4562.18960985658
21
3236.87196177832
31
2.19035934293288e-005
  0
LINE
 8
GROUP0
10
-4559.45755904901
20
3079.60378420435
30
1.5362608981917e-005
11
-4559.257758204
21
3080.08614611414
31
1.53746757312945e-005
  0
LINE
 8
GROUP0
10
-4560.18960985658
20
3240.33606339345
30
2.19926793739944e-005
11
-4560.67197176638
21
3240.53586423846
31
2.19952497396037e-005
  0
LINE
 8
GROUP0
10
-4559.45755904901
20
3237.60401258588
30
2.19323409346828e-005
11
-4559.257758204
21
3238.08637449568
31
2.19444077742992e-005
  0
LINE
 8
GROUP0
10
-4563.12146150916
20
3238.08637449568
30
2.19278088650299e-005
11
-4562.92166066415
21
3237.60401258588
31
2.1917458821008e-005
  0
LINE
 8
GROUP0
10
-4559.257758204
20
3239.12165067609
30
2.19684639382933e-005
11
-4559.45755904901
21
3239.60401258588
31
2.19788139823152e-005
  0
LINE
 8
GROUP0
10
-4472.18938620309
20
3324.87195696901
30
2.43350579573587e-005
11
-4471.77517264072
21
3325.1897942142
31
2.43442228935464e-005
  0
LINE
 8
GROUP0
10
-4473.7070242933
20
3324.672156124
30
2.43238953117952e-005
11
-4473.18938620309
21
3324.60400777657
31
2.43245356472244e-005
  0
LINE
 8
GROUP0
10
-4559.77539629421
20
3237.18979902351
30
2.19213506454707e-005
11
-4559.45755904901
21
3237.60401258588
31
2.19323409346828e-005
  0
LINE
 8
GROUP0
10
-4293.67174811289
20
3328.53585942915
30
2.38749079187528e-005
11
-4294.18938620309
21
3328.60400777658
31
2.38742675833237e-005
  0
LINE
 8
GROUP0
10
-4474.18938620309
20
3328.33605858414
30
2.44069593421159e-005
11
-4474.60359976547
21
3328.01822133895
31
2.43977944059282e-005
  0
LINE
 8
GROUP0
10
-4294.18938620309
20
3328.60400777658
30
2.38742675833237e-005
11
-4294.7070242933
21
3328.53585942915
31
2.38704602224971e-005
  0
LINE
 8
GROUP0
10
-4295.60359976547
20
3328.01822133895
30
2.38545803370016e-005
11
-4295.92143701066
21
3327.60400777657
31
2.38435899575506e-005
  0
LINE
 8
GROUP0
10
-4472.67174811289
20
3328.53585942915
30
2.44181219876793e-005
11
-4473.18938620309
21
3328.60400777658
31
2.44174816522502e-005
  0
LINE
 8
GROUP0
10
-4471.18938620309
20
3326.60400777658
30
2.4379600884572e-005
11
-4471.25753455051
21
3327.12164586678
31
2.4391336186369e-005
  0
LINE
 8
GROUP0
10
-4559.257758204
20
3238.08637449568
30
2.19444077742992e-005
11
-4559.18960985658
21
3238.60401258588
31
2.19567286364963e-005
  0
LINE
 8
GROUP0
10
-4473.18938620309
20
3328.60400777658
30
2.44174816522502e-005
11
-4473.7070242933
21
3328.53585942915
31
2.44136742914236e-005
  0
LINE
 8
GROUP0
10
-4292.18938620309
20
3326.60400777657
30
2.38363868156455e-005
11
-4292.25753455051
21
3327.12164586678
31
2.38481221174425e-005
  0
LINE
 8
GROUP0
10
-4473.7070242933
20
3328.53585942915
30
2.44136742914236e-005
11
-4474.18938620309
21
3328.33605858414
31
2.44069593421159e-005
  0
LINE
 8
GROUP0
10
-4295.18938620309
20
3324.87195696901
30
2.37832516084779e-005
11
-4294.7070242933
21
3324.672156124
31
2.37806812428687e-005
  0
LINE
 8
GROUP0
10
-4474.60359976547
20
3325.1897942142
30
2.43320715902939e-005
11
-4474.18938620309
21
3324.87195696901
31
2.43264656774045e-005
  0
LINE
 8
GROUP0
10
-4471.77517264072
20
3328.01822133895
30
2.44099457091806e-005
11
-4472.18938620309
21
3328.33605858414
31
2.44155516220701e-005
  0
LINE
 8
GROUP0
10
-4292.45733539552
20
3327.60400777657
30
2.38584721614643e-005
11
-4292.77517264072
21
3328.01822133895
31
2.38667315500152e-005
  0
LINE
 8
GROUP0
10
-4292.25753455051
20
3326.08636968637
30
2.38240658632094e-005
11
-4292.18938620309
21
3326.60400777657
31
2.38363868156455e-005
  0
LINE
 8
GROUP0
10
-4295.92143701066
20
3327.60400777657
30
2.38435899575506e-005
11
-4296.12123785567
21
3327.12164586678
31
2.38315232081732e-005
  0
LINE
 8
GROUP0
10
-4294.7070242933
20
3328.53585942915
30
2.38704602224971e-005
11
-4295.18938620309
21
3328.33605858414
31
2.38637452731894e-005
  0
LINE
 8
GROUP0
10
-4471.25753455051
20
3326.08636968637
30
2.43672800223749e-005
11
-4471.18938620309
21
3326.60400777658
31
2.4379600884572e-005
  0
LINE
 8
GROUP0
10
-4472.18938620309
20
3328.33605858414
30
2.44155516220701e-005
11
-4472.67174811289
21
3328.53585942915
31
2.44181219876793e-005
  0
LINE
 8
GROUP0
10
-4471.25753455051
20
3327.12164586678
30
2.4391336186369e-005
11
-4471.45733539552
21
3327.60400777658
31
2.44016862303909e-005
  0
LINE
 8
GROUP0
10
-4471.45733539552
20
3325.60400777658
30
2.43552131827585e-005
11
-4471.25753455051
21
3326.08636968637
31
2.43672800223749e-005
  0
LINE
 8
GROUP0
10
-4474.60359976547
20
3328.01822133895
30
2.43977944059282e-005
11
-4474.92143701066
21
3327.60400777658
31
2.43868041167161e-005
  0
LINE
 8
GROUP0
10
-4471.77517264072
20
3325.1897942142
30
2.43442228935464e-005
11
-4471.45733539552
21
3325.60400777658
31
2.43552131827585e-005
  0
LINE
 8
GROUP0
10
-4471.45733539552
20
3327.60400777658
30
2.44016862303909e-005
11
-4471.77517264072
21
3328.01822133895
31
2.44099457091806e-005
  0
LINE
 8
GROUP0
10
-4293.18938620309
20
3324.87195696901
30
2.37918437981932e-005
11
-4292.77517264072
21
3325.1897942142
31
2.3801008734381e-005
  0
LINE
 8
GROUP0
10
-4475.18938620309
20
3326.60400777658
30
2.43624164149026e-005
11
-4475.12123785567
21
3326.08636968637
31
2.43506811131056e-005
  0
LINE
 8
GROUP0
10
-4295.18938620309
20
3328.33605858414
30
2.38637452731894e-005
11
-4295.60359976547
21
3328.01822133895
31
2.38545803370016e-005
  0
LINE
 8
GROUP0
10
-4474.18938620309
20
3324.87195696901
30
2.43264656774045e-005
11
-4473.7070242933
21
3324.672156124
31
2.43238953117952e-005
  0
LINE
 8
GROUP0
10
-4293.67174811289
20
3324.672156124
30
2.37851288488855e-005
11
-4293.18938620309
21
3324.87195696901
31
2.37918437981932e-005
  0
LINE
 8
GROUP0
10
-4293.18938620309
20
3328.33605858414
30
2.38723374629046e-005
11
-4293.67174811289
21
3328.53585942915
31
2.38749079187528e-005
  0
LINE
 8
GROUP0
10
-4295.60359976547
20
3325.1897942142
30
2.37888575213674e-005
11
-4295.18938620309
21
3324.87195696901
31
2.37832516084779e-005
  0
LINE
 8
GROUP0
10
-4294.18938620309
20
3324.60400777657
30
2.37813214880589e-005
11
-4293.67174811289
21
3324.672156124
31
2.37851288488855e-005
  0
LINE
 8
GROUP0
10
-4042.18916263403
20
3268.60401248741
30
1.5481777607107e-005
11
-4042.1891626352
21
3298.60401248741
31
1.54943767661564e-005
  0
LINE
 8
GROUP0
10
-4085.18916263403
20
3336.60401248573
30
1.6473680558704e-005
11
-4503.18964145599
21
3336.60401245731
31
3.23412396873834e-005
  0
LINE
 8
GROUP0
10
-4042.1891626352
20
3298.60401248741
30
1.54943767661564e-005
11
-4055.1891626348
21
3311.60401248648
31
1.56274162876002e-005
  0
LINE
 8
GROUP0
10
-4116.92120862913
20
3325.60400777657
30
2.43513163951548e-005
11
-4116.60337138393
21
3325.1897942142
31
2.43430570066039e-005
  0
LINE
 8
GROUP0
10
-4117.12100947413
20
3327.12164586678
30
2.43857226934097e-005
11
-4117.18915782156
21
3326.60400777657
31
2.43734017409736e-005
  0
LINE
 8
GROUP0
10
-4116.92120862913
20
3327.60400777657
30
2.43977894427871e-005
11
-4117.12100947413
21
3327.12164586678
31
2.43857226934097e-005
  0
LINE
 8
GROUP0
10
-4114.67151973135
20
3328.53585942915
30
2.44291073137504e-005
11
-4115.18915782156
21
3328.60400777658
31
2.44284670685602e-005
  0
LINE
 8
GROUP0
10
-4116.18915782156
20
3328.33605858414
30
2.44179447584258e-005
11
-4116.60337138393
21
3328.01822133895
31
2.44087798222381e-005
  0
LINE
 8
GROUP0
10
-4117.18915782156
20
3326.60400777657
30
2.43734017409736e-005
11
-4117.12100947413
21
3326.08636968637
31
2.43616664391766e-005
  0
LINE
 8
GROUP0
10
-4292.77517264072
20
3325.1897942142
30
2.3801008734381e-005
11
-4292.45733539552
21
3325.60400777658
31
2.38119991138319e-005
  0
LINE
 8
GROUP0
10
-4117.12100947413
20
3326.08636968637
30
2.43616664391766e-005
11
-4116.92120862913
21
3325.60400777657
31
2.43513163951548e-005
  0
LINE
 8
GROUP0
10
-4296.12123785567
20
3327.12164586678
30
2.38315232081732e-005
11
-4296.18938620309
21
3326.60400777657
31
2.3819202345976e-005
  0
LINE
 8
GROUP0
10
-4115.70679591176
20
3324.672156124
30
2.43348806378663e-005
11
-4115.18915782156
21
3324.60400777657
31
2.43355209732954e-005
  0
LINE
 8
GROUP0
10
-4295.92143701066
20
3325.60400777658
30
2.37971169099183e-005
11
-4295.60359976547
21
3325.1897942142
31
2.37888575213674e-005
  0
LINE
 8
GROUP0
10
-4294.7070242933
20
3324.672156124
30
2.37806812428687e-005
11
-4294.18938620309
21
3324.60400777657
31
2.37813214880589e-005
  0
LINE
 8
GROUP0
10
-4116.60337138393
20
3325.1897942142
30
2.43430570066039e-005
11
-4116.18915782156
21
3324.87195696901
31
2.43374510937144e-005
  0
LINE
 8
GROUP0
10
-4116.60337138393
20
3328.01822133895
30
2.44087798222381e-005
11
-4116.92120862913
21
3327.60400777657
31
2.43977894427871e-005
  0
LINE
 8
GROUP0
10
-4115.70679591176
20
3328.53585942915
30
2.44246597077336e-005
11
-4116.18915782156
21
3328.33605858414
31
2.44179447584258e-005
  0
LINE
 8
GROUP0
10
-4292.77517264072
20
3328.01822133895
30
2.38667315500152e-005
11
-4293.18938620309
21
3328.33605858414
31
2.38723374629046e-005
  0
LINE
 8
GROUP0
10
-4114.18915782156
20
3328.33605858414
30
2.44265369481411e-005
11
-4114.67151973135
21
3328.53585942915
31
2.44291073137504e-005
  0
LINE
 8
GROUP0
10
-4113.45710701399
20
3327.60400777657
30
2.44126716467008e-005
11
-4113.77494425918
21
3328.01822133895
31
2.44209310352517e-005
  0
LINE
 8
GROUP0
10
-4017.18916266636
20
3050.603556248
30
1.87541624569576e-005
11
-4017.18916263403
21
3268.60401248573
31
1.51587471528103e-005
  0
LINE
 8
GROUP0
10
-4292.25753455051
20
3327.12164586678
30
2.38481221174425e-005
11
-4292.45733539552
21
3327.60400777657
31
2.38584721614643e-005
  0
LINE
 8
GROUP0
10
-4116.18915782156
20
3324.87195696901
30
2.43374510937144e-005
11
-4115.70679591176
21
3324.672156124
31
2.43348806378663e-005
  0
LINE
 8
GROUP0
10
-4017.18916263403
20
3268.60401248573
30
1.51587471528103e-005
11
-4042.18916263403
21
3268.60401248741
31
1.5481777607107e-005
  0
LINE
 8
GROUP0
10
-4296.12123785567
20
3326.08636968637
30
2.38074669539401e-005
11
-4295.92143701066
21
3325.60400777658
31
2.37971169099183e-005
  0
LINE
 8
GROUP0
10
-4292.45733539552
20
3325.60400777658
30
2.38119991138319e-005
11
-4292.25753455051
21
3326.08636968637
31
2.38240658632094e-005
  0
LINE
 8
GROUP0
10
-4115.18915782156
20
3324.60400777657
30
2.43355209732954e-005
11
-4114.67151973135
21
3324.672156124
31
2.4339328334122e-005
  0
LINE
 8
GROUP0
10
-4113.77494425918
20
3328.01822133895
30
2.44209310352517e-005
11
-4114.18915782156
21
3328.33605858414
31
2.44265369481411e-005
  0
LINE
 8
GROUP0
10
-4296.18938620309
20
3326.60400777657
30
2.3819202345976e-005
11
-4296.12123785567
21
3326.08636968637
31
2.38074669539401e-005
  0
LINE
 8
GROUP0
10
-4503.1896415098
20
2982.60355636563
30
1.14765095474922e-005
11
-4085.18916266636
21
2982.603556248
31
2.83931700231221e-005
  0
LINE
 8
GROUP0
10
-4115.18915782156
20
3328.60400777658
30
2.44284670685602e-005
11
-4115.70679591176
21
3328.53585942915
31
2.44246597077336e-005
  0
LINE
 8
GROUP0
10
-4571.18964145599
20
3268.60401245731
30
3.21699831680178e-005
11
-4571.18964150981
21
3050.60355636563
31
0.0
  0
LINE
 8
GROUP0
10
-4055.18916266636
20
3007.603556248
30
2.49016219804332e-005
11
-4042.18916289237
21
3020.60355572434
31
2.10951475708043e-005
  0
LINE
 8
GROUP0
10
-4375.95716903671
20
3086.37155139828
30
1.71066758632321e-005
11
-4375.43940208364
21
3086.76884795463
31
1.71181320560265e-005
  0
LINE
 8
GROUP0
10
-4042.1891627097
20
3050.60355572434
30
1.91314222654171e-005
11
-4042.18916289237
21
3020.60355572434
31
2.10951475708043e-005
  0
LINE
 8
GROUP0
10
-4375.43940208485
20
3082.43872093571
30
1.70175150202567e-005
11
-4375.95716903771
21
3082.83601749235
31
1.70245224339283e-005
  0
LINE
 8
GROUP0
10
-4028.92121343843
20
3239.60378412308
30
2.27310285360716e-005
11
-4029.12101428344
21
3239.12142221329
31
2.27189617866941e-005
  0
LINE
 8
GROUP0
10
-4375.95716903771
20
3082.83601749235
30
1.70245224339283e-005
11
-4376.35446559406
21
3083.35378444542
31
1.70348466696169e-005
  0
LINE
 8
GROUP0
10
-4546.18964147601
20
3050.60355636563
30
1.61516761210123e-007
11
-4546.18964147601
21
3020.60355636563
31
4.9712258757495e-006
  0
LINE
 8
GROUP0
10
-4376.35446559406
20
3083.35378444542
30
1.70348466696169e-005
11
-4376.60421665015
21
3083.95673683274
31
1.70477842246441e-005
  0
LINE
 8
GROUP0
10
-4546.18964145599
20
3268.60401248741
30
3.2299089716048e-005
11
-4571.18964145599
21
3268.60401245731
31
3.21699831680178e-005
  0
LINE
 8
GROUP0
10
-4533.18964147601
20
3007.60355628764
30
7.12602940282636e-006
11
-4546.18964147601
21
3020.60355636563
31
4.9712258757495e-006
  0
LINE
 8
GROUP0
10
-4373.54235447217
20
3082.18896987891
30
1.70198615933259e-005
11
-4374.18940208495
21
3082.10378444481
31
1.70151023922926e-005
  0
LINE
 8
GROUP0
10
-4546.18964145599
20
3268.60401248741
30
3.2299089716048e-005
11
-4546.18964138653
21
3298.60401248741
31
3.25248269049894e-005
  0
LINE
 8
GROUP0
10
-4503.18964145599
20
3336.60401245731
30
3.23412396873834e-005
11
-4503.18964145599
21
3311.60401248741
31
3.22952111567076e-005
  0
LINE
 8
GROUP0
10
-4503.18964147601
20
3007.60355636563
30
7.37948663669385e-006
11
-4533.18964147601
21
3007.60355628764
31
7.12602940282636e-006
  0
LINE
 8
GROUP0
10
-4533.18964145599
20
3311.60401248741
30
3.244539399887e-005
11
-4546.18964138653
21
3298.60401248741
31
3.25248269049894e-005
  0
LINE
 8
GROUP0
10
-4029.12101428344
20
3238.08614603288
30
2.2694905532461e-005
11
-4028.92121343843
21
3237.60378412308
31
2.26845554884392e-005
  0
LINE
 8
GROUP0
10
-4029.18916263087
20
3238.60378412308
30
2.27066409244969e-005
11
-4029.12101428344
21
3238.08614603288
31
2.2694905532461e-005
  0
LINE
 8
GROUP0
10
-4373.54235447081
20
3087.01859901036
30
1.71320853404211e-005
11
-4372.93940208364
21
3086.76884795392
31
1.71288723834095e-005
  0
LINE
 8
GROUP0
10
-4085.1891626348
20
3311.60401248741
30
1.61949361213942e-005
11
-4085.18916263403
21
3336.60401248573
31
1.6473680558704e-005
  0
LINE
 8
GROUP0
10
-4376.68940208424
20
3084.60378444552
30
1.70624533744501e-005
11
-4376.60421664979
21
3085.25083205825
31
1.70778545424355e-005
  0
LINE
 8
GROUP0
10
-4372.93940208364
20
3086.76884795392
30
1.71288723834095e-005
11
-4372.42163513078
21
3086.37155139728
31
1.7121864969738e-005
  0
LINE
 8
GROUP0
10
-4375.43940208364
20
3086.76884795463
30
1.71181320560265e-005
11
-4374.83644969632
21
3087.01859901072
31
1.71265258103404e-005
  0
LINE
 8
GROUP0
10
-4503.18964145599
20
3311.60401248741
30
3.22952111567076e-005
11
-4533.18964145599
21
3311.60401248741
31
3.244539399887e-005
  0
LINE
 8
GROUP0
10
-4085.18916266636
20
3007.603556248
30
2.5226677035306e-005
11
-4055.18916266636
21
3007.603556248
31
2.49016219804332e-005
  0
LINE
 8
GROUP0
10
-4546.18964147601
20
3050.60355636563
30
1.61516761210123e-007
11
-4571.18964150981
21
3050.60355636563
31
0.0
  0
LINE
 8
GROUP0
10
-4085.1891626348
20
3311.60401248741
30
1.61949361213942e-005
11
-4055.1891626348
21
3311.60401248648
31
1.56274162876002e-005
  0
LINE
 8
GROUP0
10
-4085.18916266636
20
2982.603556248
30
2.83931700231221e-005
11
-4085.18916266636
21
3007.603556248
31
2.5226677035306e-005
  0
LINE
 8
GROUP0
10
-4374.83644969768
20
3082.18896987927
30
1.70143019730062e-005
11
-4375.43940208485
21
3082.43872093571
31
1.70175150202567e-005
  0
LINE
 8
GROUP0
10
-4029.12101428344
20
3239.12142221329
30
2.27189617866941e-005
11
-4029.18916263087
21
3238.60378412308
31
2.27066409244969e-005
  0
LINE
 8
GROUP0
10
-4042.1891627097
20
3050.60355572434
30
1.91314222654171e-005
11
-4017.18916266636
21
3050.603556248
31
1.87541624569576e-005
  0
LINE
 8
GROUP0
10
-4503.1896415098
20
2982.60355636563
30
1.14765095474922e-005
11
-4503.18964147601
21
3007.60355636563
31
7.37948663669385e-006
  0
LINE
 8
GROUP0
10
-4371.7745875187
20
3083.95673683138
30
1.70685328612308e-005
11
-4372.02433857513
21
3083.35378444421
31
1.70534494245089e-005
  0
LINE
 8
GROUP0
10
-4372.42163513078
20
3086.37155139728
30
1.7121864969738e-005
11
-4372.02433857443
21
3085.85378444421
31
1.71115406438105e-005
  0
LINE
 8
GROUP0
10
-4371.77458751834
20
3085.25083205689
30
1.70986030887832e-005
11
-4371.68940208424
21
3084.60378444411
31
1.70839339389772e-005
  0
LINE
 8
GROUP0
10
-4374.18940208495
20
3082.10378444481
30
1.70151023922926e-005
11
-4374.83644969768
21
3082.18896987927
31
1.70143019730062e-005
  0
LINE
 8
GROUP0
10
-4374.83644969632
20
3087.01859901072
30
1.71265258103404e-005
11
-4374.18940208354
21
3087.10378444481
31
1.71312850113736e-005
  0
LINE
 8
GROUP0
10
-4374.18940208354
20
3087.10378444481
30
1.71312850113736e-005
11
-4373.54235447081
21
3087.01859901036
31
1.71320853404211e-005
  0
LINE
 8
GROUP0
10
-4372.02433857443
20
3085.85378444421
30
1.71115406438105e-005
11
-4371.77458751834
21
3085.25083205689
31
1.70986030887832e-005
  0
LINE
 8
GROUP0
10
-4376.60421664979
20
3085.25083205825
30
1.70778545424355e-005
11
-4376.35446559335
21
3085.85378444542
31
1.70929379791573e-005
  0
LINE
 8
GROUP0
10
-4376.35446559335
20
3085.85378444542
30
1.70929379791573e-005
11
-4375.95716903671
21
3086.37155139828
31
1.71066758632321e-005
  0
LINE
 8
GROUP0
10
-4371.68940208424
20
3084.60378444411
30
1.70839339389772e-005
11
-4371.7745875187
21
3083.95673683138
31
1.70685328612308e-005
  0
LINE
 8
GROUP0
10
-4376.60421665015
20
3083.95673683274
30
1.70477842246441e-005
11
-4376.68940208424
21
3084.60378444552
31
1.70624533744501e-005
  0
LINE
 8
GROUP0
10
-4211.77458751834
20
3085.25083205689
30
1.64724936460914e-005
11
-4211.68940208424
21
3084.60378444411
31
1.64578244060465e-005
  0
LINE
 8
GROUP0
10
-4372.02433857513
20
3083.35378444421
30
1.70534494245089e-005
11
-4372.42163513178
21
3082.83601749135
31
1.70397114501952e-005
  0
LINE
 8
GROUP0
10
-4372.42163513178
20
3082.83601749135
30
1.70397114501952e-005
11
-4372.93940208485
21
3082.438720935
31
1.70282552574008e-005
  0
LINE
 8
GROUP0
10
-4214.18940208495
20
3082.10378444481
30
1.63889928593619e-005
11
-4214.83644969768
21
3082.18896987927
31
1.63881925303144e-005
  0
LINE
 8
GROUP0
10
-4114.67151973135
20
3324.672156124
30
2.4339328334122e-005
11
-4114.18915782156
21
3324.87195696901
31
2.43460432834297e-005
  0
LINE
 8
GROUP0
10
-4215.95716903771
20
3082.83601749235
30
1.63984129009975e-005
11
-4216.35446559406
21
3083.35378444542
31
1.64087371366861e-005
  0
LINE
 8
GROUP0
10
-4216.60421665015
20
3083.95673683274
30
1.64216746917134e-005
11
-4216.68940208424
21
3084.60378444552
31
1.64363438415194e-005
  0
LINE
 8
GROUP0
10
-4213.54235447217
20
3082.18896987891
30
1.63937520603952e-005
11
-4214.18940208495
21
3082.10378444481
31
1.63889928593619e-005
  0
LINE
 8
GROUP0
10
-4216.35446559406
20
3083.35378444542
30
1.64087371366861e-005
11
-4216.60421665015
21
3083.95673683274
31
1.64216746917134e-005
  0
LINE
 8
GROUP0
10
-4113.25730616898
20
3326.08636968637
30
2.43782653484459e-005
11
-4113.18915782156
21
3326.60400777657
31
2.4390586210643e-005
  0
LINE
 8
GROUP0
10
-4114.18915782156
20
3324.87195696901
30
2.43460432834297e-005
11
-4113.77494425918
21
3325.1897942142
31
2.43552082196175e-005
  0
LINE
 8
GROUP0
10
-4214.18940208354
20
3087.10378444481
30
1.65051754784429e-005
11
-4213.54235447081
21
3087.01859901036
31
1.65059758074904e-005
  0
LINE
 8
GROUP0
10
-4113.25730616898
20
3327.12164586678
30
2.4402321602679e-005
11
-4113.45710701399
21
3327.60400777657
31
2.44126716467008e-005
  0
LINE
 8
GROUP0
10
-4215.43940208485
20
3082.43872093571
30
1.6391405487326e-005
11
-4215.95716903771
21
3082.83601749235
31
1.63984129009975e-005
  0
LINE
 8
GROUP0
10
-4212.02433857443
20
3085.85378444421
30
1.64854312011187e-005
11
-4211.77458751834
21
3085.25083205689
31
1.64724936460914e-005
  0
LINE
 8
GROUP0
10
-4213.54235447081
20
3087.01859901036
30
1.65059758074904e-005
11
-4212.93940208364
21
3086.76884795392
31
1.65027628504788e-005
  0
LINE
 8
GROUP0
10
-4212.02433857513
20
3083.35378444421
30
1.64273398915782e-005
11
-4212.42163513177
21
3082.83601749135
31
1.64136019172645e-005
  0
LINE
 8
GROUP0
10
-4113.18915782156
20
3326.60400777657
30
2.4390586210643e-005
11
-4113.25730616898
21
3327.12164586678
31
2.4402321602679e-005
  0
LINE
 8
GROUP0
10
-4216.60421664978
20
3085.25083205825
30
1.64517450095047e-005
11
-4216.35446559335
21
3085.85378444542
31
1.64668284462266e-005
  0
LINE
 8
GROUP0
10
-4216.68940208424
20
3084.60378444552
30
1.64363438415194e-005
11
-4216.60421664978
21
3085.25083205825
31
1.64517450095047e-005
  0
LINE
 8
GROUP0
10
-4214.83644969632
20
3087.01859901072
30
1.65004162774096e-005
11
-4214.18940208354
21
3087.10378444481
31
1.65051754784429e-005
  0
LINE
 8
GROUP0
10
-4211.68940208424
20
3084.60378444411
30
1.64578244060465e-005
11
-4211.7745875187
21
3083.95673683138
31
1.64424233283e-005
  0
LINE
 8
GROUP0
10
-4216.35446559335
20
3085.85378444542
30
1.64668284462266e-005
11
-4215.95716903671
21
3086.37155139828
31
1.64805664205403e-005
  0
LINE
 8
GROUP0
10
-4214.83644969768
20
3082.18896987927
30
1.63881925303144e-005
11
-4215.43940208485
21
3082.43872093571
31
1.6391405487326e-005
  0
LINE
 8
GROUP0
10
-4113.77494425918
20
3325.1897942142
30
2.43552082196175e-005
11
-4113.45710701399
21
3325.60400777657
31
2.43661985990684e-005
  0
LINE
 8
GROUP0
10
-4215.95716903671
20
3086.37155139828
30
1.64805664205403e-005
11
-4215.43940208364
21
3086.76884795463
31
1.64920225230958e-005
  0
LINE
 8
GROUP0
10
-4211.7745875187
20
3083.95673683138
30
1.64424233283e-005
11
-4212.02433857513
21
3083.35378444421
31
1.64273398915782e-005
  0
LINE
 8
GROUP0
10
-4212.93940208364
20
3086.76884795392
30
1.65027628504788e-005
11
-4212.42163513078
21
3086.37155139728
31
1.64957554368073e-005
  0
LINE
 8
GROUP0
10
-4215.43940208364
20
3086.76884795463
30
1.64920225230958e-005
11
-4214.83644969632
21
3087.01859901072
31
1.65004162774096e-005
  0
LINE
 8
GROUP0
10
-4212.42163513078
20
3086.37155139728
30
1.64957554368073e-005
11
-4212.02433857443
21
3085.85378444421
31
1.64854312011187e-005
  0
LINE
 8
GROUP0
10
-4212.93940208485
20
3082.438720935
30
1.64021457244701e-005
11
-4213.54235447217
21
3082.18896987891
31
1.63937520603952e-005
  0
LINE
 8
GROUP0
10
-4113.45710701399
20
3325.60400777657
30
2.43661985990684e-005
11
-4113.25730616898
21
3326.08636968637
31
2.43782653484459e-005
  0
LINE
 8
GROUP0
10
-4212.42163513177
20
3082.83601749135
30
1.64136019172645e-005
11
-4212.93940208485
21
3082.438720935
31
1.64021457244701e-005
  0
LINE
 8
GROUP0
10
-4025.4571118233
20
3237.60378412308
30
2.26994376923528e-005
11
-4025.25731097829
21
3238.08614603288
31
2.27115044417303e-005
  0
LINE
 8
GROUP0
10
-4025.4571118233
20
3239.60378412308
30
2.27459107399852e-005
11
-4025.77494906849
21
3240.01799768546
31
2.27541701285361e-005
  0
LINE
 8
GROUP0
10
-4028.18916263087
20
3240.33583493065
30
2.27511838517103e-005
11
-4028.60337619324
21
3240.01799768546
31
2.27420189155225e-005
  0
LINE
 8
GROUP0
10
-4025.25731097829
20
3238.08614603288
30
2.27115044417303e-005
11
-4025.18916263087
21
3238.60378412308
31
2.27238253039275e-005
  0
LINE
 8
GROUP0
10
-4025.77494906849
20
3237.18957056071
30
2.26884473129019e-005
11
-4025.4571118233
21
3237.60378412308
31
2.26994376923528e-005
  0
LINE
 8
GROUP0
10
-4026.18916263087
20
3236.87173331552
30
2.26792823767141e-005
11
-4025.77494906849
21
3237.18957056071
31
2.26884473129019e-005
  0
LINE
 8
GROUP0
10
-4025.18916263087
20
3238.60378412308
30
2.27238253039275e-005
11
-4025.25731097829
21
3239.12142221329
31
2.27355606959634e-005
  0
LINE
 8
GROUP0
10
-4026.18916263087
20
3240.33583493065
30
2.27597760414255e-005
11
-4026.67152454066
21
3240.53563577566
31
2.27623464070348e-005
  0
LINE
 8
GROUP0
10
-4372.93940208485
20
3082.438720935
30
1.70282552574008e-005
11
-4373.54235447217
21
3082.18896987891
31
1.70198615933259e-005
  0
LINE
 8
GROUP0
10
-4025.77494906849
20
3240.01799768546
30
2.27541701285361e-005
11
-4026.18916263087
21
3240.33583493065
31
2.27597760414255e-005
  0
LINE
 8
GROUP0
10
-4026.67152454066
20
3240.53563577566
30
2.27623464070348e-005
11
-4027.18916263087
21
3240.60378412308
31
2.27617061618446e-005
  0
LINE
 8
GROUP0
10
-4027.18916263087
20
3240.60378412308
30
2.27617061618446e-005
11
-4027.70680072107
21
3240.53563577566
31
2.2757898801018e-005
 0
ENDSEC
 0
EOF
