 0
SECTION
 2
ENTITIES
  0
LINE
 8
GROUP0
10
1110.62995796643
20
2190.58031394562
30
0.000141438113298775
11
1110.82975881144
21
2190.09795203583
31
0.000141382197642725
  0
LINE
 8
GROUP0
10
1110.56180961901
20
2191.09795203583
30
0.000141523373932823
11
1110.62995796643
21
2190.58031394562
31
0.000141438113298775
  0
LINE
 8
GROUP0
10
1110.62995796643
20
2191.61559012603
30
0.000141632168878442
11
1110.56180961901
21
2191.09795203583
31
0.000141523373932823
  0
LINE
 8
GROUP0
10
1110.82975881144
20
2192.09795203583
30
0.000141757083384147
11
1110.62995796643
21
2191.61559012603
31
0.000141632168878442
  0
LINE
 8
GROUP0
10
1111.14759605664
20
2192.5121655982
30
0.000141889606113599
11
1110.82975881144
21
2192.09795203583
31
0.000141757083384147
  0
LINE
 8
GROUP0
10
1066.81197841347
20
2181.09795203583
30
0.000145202024306013
11
1066.81197841347
21
2206.09795203583
31
0.000145202024666968
  0
LINE
 8
GROUP0
10
1385.8119784133
20
2206.09795203583
30
0.000135114986691587
11
1395.8119784133
21
2206.09795203583
31
0.00013684168673036
  0
LINE
 8
GROUP0
10
1385.8119784133
20
2181.09795203583
30
0.000136841685827971
11
1066.81197841347
21
2181.09795203583
31
0.000145202024306013
  0
LINE
 8
GROUP0
10
1385.8119784133
20
2206.09795203583
30
0.000135114986691587
11
1385.8119784133
21
2181.09795203583
31
0.000136841685827971
  0
LINE
 8
GROUP0
10
1343.81257106982
20
2271.09795203582
30
0.000152178382466406
11
1385.8119784133
21
2271.09795203583
31
0.000136841687126565
  0
LINE
 8
GROUP0
10
1066.81197841347
20
2271.0979867761
30
8.51558954458542e-005
11
1108.81164082455
21
2271.09798408455
31
4.02223190427153e-005
  0
LINE
 8
GROUP0
10
1385.8119784133
20
2271.09795203583
30
0.000136841687126565
11
1385.8119784133
21
2266.0979867761
31
7.84047523146036e-005
  0
LINE
 8
GROUP0
10
1395.8119784133
20
2266.0979867761
30
8.01314523533769e-005
11
1395.8119784133
21
2206.09795203583
31
0.00013684168673036
  0
LINE
 8
GROUP0
10
1385.8119784133
20
2266.0979867761
30
7.84047523146036e-005
11
1395.8119784133
21
2266.0979867761
31
8.01314523533769e-005
  0
LINE
 8
GROUP0
10
1108.81164082455
20
2291.09798408455
30
4.02223193310569e-005
11
1343.81257106982
21
2291.09796905576
31
0.000152178382754747
  0
LINE
 8
GROUP0
10
1066.81197841347
20
2266.0979867761
30
8.84917902899851e-005
11
1066.81197841347
21
2271.0979867761
31
8.51558954458542e-005
  0
LINE
 8
GROUP0
10
1343.81257106982
20
2291.09796905576
30
0.000152178382754747
11
1343.81257106982
21
2271.09795203582
31
0.000152178382466406
  0
LINE
 8
GROUP0
10
1108.81164082455
20
2271.09798408455
30
4.02223190427153e-005
11
1108.81164082455
21
2291.09798408455
31
4.02223193310569e-005
  0
LINE
 8
GROUP0
10
1322.08052026232
20
2282.097960037
30
0.000278411988147004
11
1321.88071941732
21
2281.6155981272
31
0.000278287073641298
  0
LINE
 8
GROUP0
10
1322.08052026232
20
2280.097960037
30
0.000278037102405582
11
1322.39835750752
21
2279.68374647462
31
0.000278014341976002
  0
LINE
 8
GROUP0
10
1323.81257106989
20
2279.097960037
30
0.000278148732997402
11
1324.3302091601
21
2279.16610838442
31
0.000278250887796144
  0
LINE
 8
GROUP0
10
1066.81197841347
20
2206.09795203583
30
0.000145202024666968
11
1056.81197841347
21
2206.09795203583
31
0.000143475324447717
  0
LINE
 8
GROUP0
10
1321.88071941732
20
2281.6155981272
30
0.000278287073641298
11
1321.81257106989
21
2281.097960037
31
0.000278178278694974
  0
LINE
 8
GROUP0
10
1056.81197841347
20
2206.09795203583
30
0.000143475324447717
11
1056.81197841347
21
2266.0979867761
31
8.6765090070734e-005
  0
LINE
 8
GROUP0
10
1321.81257106989
20
2281.097960037
30
0.000278178278694974
11
1321.88071941732
21
2280.58032194679
31
0.000278093018061631
  0
LINE
 8
GROUP0
10
1066.81197841347
20
2266.0979867761
30
8.84917902899851e-005
11
1056.81197841347
21
2266.0979867761
31
8.6765090070734e-005
  0
LINE
 8
GROUP0
10
1322.39835750752
20
2282.51217359937
30
0.00027854451087575
11
1322.08052026232
21
2282.097960037
31
0.000278411988147004
  0
LINE
 8
GROUP0
10
1323.29493297969
20
2283.02981168957
30
0.000278796349682209
11
1322.81257106989
21
2282.83001084457
31
0.000278675609272561
  0
LINE
 8
GROUP0
10
1322.81257106989
20
2282.83001084457
30
0.000278675609272561
11
1322.39835750752
21
2282.51217359937
31
0.00027854451087575
  0
LINE
 8
GROUP0
10
1323.29493297969
20
2279.16610838442
30
0.000278072126646617
11
1323.81257106989
21
2279.097960037
31
0.000278148732997402
  0
LINE
 8
GROUP0
10
1322.39835750752
20
2279.68374647462
30
0.000278014341976002
11
1322.81257106989
21
2279.36590922943
31
0.000278026288161942
  0
LINE
 8
GROUP0
10
1324.3302091601
20
2279.16610838442
30
0.000278250887796144
11
1324.81257106989
21
2279.36590922943
31
0.000278371628205792
  0
LINE
 8
GROUP0
10
1321.88071941732
20
2280.58032194679
30
0.000278093018061631
11
1322.08052026232
21
2280.097960037
31
0.000278037102405582
  0
LINE
 8
GROUP0
10
1322.81257106989
20
2279.36590922943
30
0.000278026288161942
11
1323.29493297969
21
2279.16610838442
31
0.000278072126646617
  0
LINE
 8
GROUP0
10
1325.74442272247
20
2281.6155981272
30
0.000278954219416722
11
1325.54462187746
21
2282.097960037
31
0.000279010135072771
  0
LINE
 8
GROUP0
10
1325.74442272247
20
2280.58032194679
30
0.000278760163837055
11
1325.81257106989
21
2281.097960037
31
0.000278868958782674
  0
LINE
 8
GROUP0
10
1324.3302091601
20
2283.02981168957
30
0.000278975110831736
11
1323.81257106989
21
2283.097960037
31
0.000278898504480246
  0
LINE
 8
GROUP0
10
1325.22678463227
20
2279.68374647462
30
0.000278502726601898
11
1325.54462187746
21
2280.097960037
31
0.000278635249331349
  0
LINE
 8
GROUP0
10
1325.81257106989
20
2281.097960037
30
0.000278868958782674
11
1325.74442272247
21
2281.6155981272
31
0.000278954219416722
  0
LINE
 8
GROUP0
10
1128.81164082469
20
2283.09792310599
30
0.000307293471792086
11
1128.29400273449
21
2283.02977475857
31
0.000307191316994049
  0
LINE
 8
GROUP0
10
1129.3292789149
20
2283.02977475857
30
0.000307370078143576
11
1128.81164082469
21
2283.09792310599
31
0.000307293471792086
  0
LINE
 8
GROUP0
10
1324.81257106989
20
2279.36590922943
30
0.000278371628205792
11
1325.22678463227
21
2279.68374647462
31
0.000278502726601898
  0
LINE
 8
GROUP0
10
1129.81164082469
20
2282.82997391356
30
0.000307415916628251
11
1129.3292789149
21
2283.02977475857
31
0.000307370078143576
  0
LINE
 8
GROUP0
10
1130.22585438707
20
2282.51213666836
30
0.000307427862813486
11
1129.81164082469
21
2282.82997391356
31
0.000307415916628251
  0
LINE
 8
GROUP0
10
1324.81257106989
20
2282.83001084457
30
0.000279020949316411
11
1324.3302091601
21
2283.02981168957
31
0.000278975110831736
  0
LINE
 8
GROUP0
10
1325.54462187746
20
2282.097960037
30
0.000279010135072771
11
1325.22678463227
21
2282.51217359937
31
0.000279032895501646
  0
LINE
 8
GROUP0
10
1325.22678463227
20
2282.51217359937
30
0.000279032895501646
11
1324.81257106989
21
2282.83001084457
31
0.000279020949316411
  0
LINE
 8
GROUP0
10
1325.54462187746
20
2280.097960037
30
0.000278635249331349
11
1325.74442272247
21
2280.58032194679
31
0.000278760163837055
  0
LINE
 8
GROUP0
10
1130.54369163226
20
2282.09792310599
30
0.000307405102384611
11
1130.22585438707
21
2282.51213666836
31
0.000307427862813486
  0
LINE
 8
GROUP0
10
1323.81257106989
20
2283.097960037
30
0.000278898504480246
11
1323.29493297969
21
2283.02981168957
31
0.000278796349682209
  0
LINE
 8
GROUP0
10
1128.81164082469
20
2279.09792310599
30
0.000306543700309242
11
1129.3292789149
21
2279.16607145341
31
0.000306645855107984
  0
LINE
 8
GROUP0
10
1128.29400273449
20
2279.16607145341
30
0.000306467093958457
11
1128.81164082469
21
2279.09792310599
31
0.000306543700309242
  0
LINE
 8
GROUP0
10
1127.39742726232
20
2279.68370954362
30
0.000306409309287842
11
1127.81164082469
21
2279.36587229842
31
0.000306421255473782
  0
LINE
 8
GROUP0
10
1130.22585438707
20
2279.68370954362
30
0.000306897693913738
11
1130.54369163226
21
2280.09792310599
31
0.000307030216643189
  0
LINE
 8
GROUP0
10
1126.87978917212
20
2280.58028501579
30
0.000306487985373471
11
1127.07959001713
21
2280.09792310599
31
0.000306432069717422
  0
LINE
 8
GROUP0
10
1129.3292789149
20
2279.16607145341
30
0.000306645855107984
11
1129.81164082469
21
2279.36587229842
31
0.000306766595517632
  0
LINE
 8
GROUP0
10
1130.54369163226
20
2280.09792310599
30
0.000307030216643189
11
1130.74349247727
21
2280.58028501579
31
0.000307155131148895
  0
LINE
 8
GROUP0
10
1126.81164082469
20
2281.09792310599
30
0.000306573246006814
11
1126.87978917212
21
2280.58028501579
31
0.000306487985373471
  0
LINE
 8
GROUP0
10
1130.74349247727
20
2281.6155611962
30
0.000307349186728562
11
1130.54369163226
21
2282.09792310599
31
0.000307405102384611
  0
LINE
 8
GROUP0
10
1129.81164082469
20
2279.36587229842
30
0.000306766595517632
11
1130.22585438707
21
2279.68370954362
31
0.000306897693913738
  0
LINE
 8
GROUP0
10
1127.07959001713
20
2280.09792310599
30
0.000306432069717422
11
1127.39742726232
21
2279.68370954362
31
0.000306409309287842
  0
LINE
 8
GROUP0
10
1126.87978917212
20
2281.6155611962
30
0.000306682040953138
11
1126.81164082469
21
2281.09792310599
31
0.000306573246006814
  0
LINE
 8
GROUP0
10
1127.07959001713
20
2282.09792310599
30
0.000306806955458844
11
1126.87978917212
21
2281.6155611962
31
0.000306682040953138
  0
LINE
 8
GROUP0
10
1130.74349247727
20
2280.58028501579
30
0.000307155131148895
11
1130.81164082469
21
2281.09792310599
31
0.000307263926094514
  0
LINE
 8
GROUP0
10
1130.81164082469
20
2281.09792310599
30
0.000307263926094514
11
1130.74349247727
21
2281.6155611962
31
0.000307349186728562
  0
LINE
 8
GROUP0
10
1127.81164082469
20
2279.36587229842
30
0.000306421255473782
11
1128.29400273449
21
2279.16607145341
31
0.000306467093958457
  0
LINE
 8
GROUP0
10
1114.56180961901
20
2191.09795203583
30
0.000142214054020523
11
1114.49366127159
21
2191.61559012603
31
0.000142299314653865
  0
LINE
 8
GROUP0
10
1128.29400273449
20
2283.02977475857
30
0.000307191316994049
11
1127.81164082469
21
2282.82997391356
31
0.000307070576584401
  0
LINE
 8
GROUP0
10
1114.49366127159
20
2190.58031394562
30
0.000142105259074199
11
1114.56180961901
21
2191.09795203583
31
0.000142214054020523
  0
LINE
 8
GROUP0
10
1127.81164082469
20
2282.82997391356
30
0.000307070576584401
11
1127.39742726232
21
2282.51213666836
31
0.00030693947818759
  0
LINE
 8
GROUP0
10
1114.29386042658
20
2190.09795203583
30
0.000141980344568493
11
1114.49366127159
21
2190.58031394562
31
0.000142105259074199
  0
LINE
 8
GROUP0
10
1113.07944770922
20
2189.16610038325
30
0.000141595983033288
11
1113.56180961901
21
2189.36590122826
31
0.000141716723442936
  0
LINE
 8
GROUP0
10
1127.39742726232
20
2282.51213666836
30
0.00030693947818759
11
1127.07959001713
21
2282.09792310599
31
0.000306806955458844
  0
LINE
 8
GROUP0
10
1112.04417152881
20
2189.16610038325
30
0.000141417221883761
11
1112.56180961901
21
2189.09795203583
31
0.000141493828235251
  0
LINE
 8
GROUP0
10
1112.56180961901
20
2189.09795203583
30
0.000141493828235251
11
1113.07944770922
21
2189.16610038325
31
0.000141595983033288
  0
LINE
 8
GROUP0
10
1113.97602318138
20
2189.68373847345
30
0.000141847821839747
11
1114.29386042658
21
2190.09795203583
31
0.000141980344568493
  0
LINE
 8
GROUP0
10
1114.49366127159
20
2191.61559012603
30
0.000142299314653865
11
1114.29386042658
21
2192.09795203583
31
0.000142355230309915
  0
LINE
 8
GROUP0
10
1113.56180961901
20
2189.36590122826
30
0.000141716723442936
11
1113.97602318138
21
2189.68373847345
31
0.000141847821839747
  0
LINE
 8
GROUP0
10
1111.14759605664
20
2189.68373847345
30
0.00014135943721385
11
1111.56180961901
21
2189.36590122826
31
0.000141371383399086
  0
LINE
 8
GROUP0
10
1114.29386042658
20
2192.09795203583
30
0.000142355230309915
11
1113.97602318138
21
2192.5121655982
31
0.000142377990739495
  0
LINE
 8
GROUP0
10
1111.56180961901
20
2189.36590122826
30
0.000141371383399086
11
1112.04417152881
21
2189.16610038325
31
0.000141417221883761
  0
LINE
 8
GROUP0
10
1110.82975881144
20
2190.09795203583
30
0.000141382197642725
11
1111.14759605664
21
2189.68373847345
31
0.00014135943721385
  0
LINE
 8
GROUP0
10
1111.56180961901
20
2192.8300028434
30
0.000142020704509704
11
1111.14759605664
21
2192.5121655982
31
0.000141889606113599
  0
LINE
 8
GROUP0
10
1112.04417152881
20
2193.02980368841
30
0.000142141444919353
11
1111.56180961901
21
2192.8300028434
31
0.000142020704509704
  0
LINE
 8
GROUP0
10
1112.56180961901
20
2193.09795203583
30
0.000142243599718095
11
1112.04417152881
21
2193.02980368841
31
0.000142141444919353
  0
LINE
 8
GROUP0
10
1113.07944770922
20
2193.02980368841
30
0.00014232020606888
11
1112.56180961901
21
2193.09795203583
31
0.000142243599718095
  0
LINE
 8
GROUP0
10
1113.56180961901
20
2192.8300028434
30
0.000142366044553555
11
1113.07944770922
21
2193.02980368841
31
0.00014232020606888
  0
LINE
 8
GROUP0
10
1113.97602318138
20
2192.5121655982
30
0.000142377990739495
11
1113.56180961901
21
2192.8300028434
31
0.000142366044553555
  0
LINE
 8
GROUP0
10
1341.47602318077
20
2192.51216559769
30
1.01855352564462e-006
11
1341.06180961855
21
2192.83000284276
31
1.00660733970415e-006
  0
LINE
 8
GROUP0
10
1341.79386042586
20
2192.09795203548
30
9.95793096064679e-007
11
1341.47602318077
21
2192.51216559769
31
1.01855352564462e-006
  0
LINE
 8
GROUP0
10
1341.9936612708
20
2191.61559012588
30
9.39877440014891e-007
11
1341.79386042586
21
2192.09795203548
31
9.95793096064679e-007
  0
LINE
 8
GROUP0
10
1342.06180961821
20
2191.09795203587
30
8.54616806672537e-007
11
1341.9936612708
21
2191.61559012588
31
9.39877440014891e-007
  0
LINE
 8
GROUP0
10
1341.99366127082
20
2190.58031394586
30
7.45821860348439e-007
11
1342.06180961821
21
2191.09795203587
31
8.54616806672537e-007
  0
LINE
 8
GROUP0
10
1341.7938604259
20
2190.09795203625
30
6.20907354642597e-007
11
1341.99366127082
21
2190.58031394586
31
7.45821860348439e-007
  0
LINE
 8
GROUP0
10
1341.47602318084
20
2189.68373847403
30
4.88384625896288e-007
11
1341.7938604259
21
2190.09795203625
31
6.20907354642597e-007
  0
LINE
 8
GROUP0
10
1341.06180961863
20
2189.36590122894
30
3.57286229085707e-007
11
1341.47602318084
21
2189.68373847403
31
4.88384625896288e-007
  0
LINE
 8
GROUP0
10
1340.57944770902
20
2189.166100384
30
2.3654581943755e-007
11
1341.06180961863
21
2189.36590122894
31
3.57286229085707e-007
  0
LINE
 8
GROUP0
10
1340.06180961902
20
2189.09795203659
30
1.34391021400226e-007
11
1340.57944770902
21
2189.166100384
31
2.3654581943755e-007
  0
LINE
 8
GROUP0
10
1339.54417152901
20
2189.16610038398
30
5.77846699101325e-008
11
1340.06180961902
21
2189.09795203659
31
1.34391021400226e-007
  0
LINE
 8
GROUP0
10
1339.06180961939
20
2189.3659012289
30
1.19461852354785e-008
11
1339.54417152901
21
2189.16610038398
31
5.77846699101325e-008
  0
LINE
 8
GROUP0
10
1338.64759605717
20
2189.68373847396
30
0.0
11
1339.06180961939
21
2189.3659012289
31
1.19461852354785e-008
  0
LINE
 8
GROUP0
10
1338.32975881209
20
2190.09795203617
30
2.27604288749461e-008
11
1338.64759605717
21
2189.68373847396
31
0.0
  0
LINE
 8
GROUP0
10
1338.12995796714
20
2190.58031394578
30
7.86760849247337e-008
11
1338.32975881209
21
2190.09795203617
31
2.27604288749461e-008
  0
LINE
 8
GROUP0
10
1338.06180961974
20
2191.09795203578
30
1.6393671897208e-007
11
1338.12995796714
21
2190.58031394578
31
7.86760849247337e-008
  0
LINE
 8
GROUP0
10
1338.12995796712
20
2191.61559012579
30
2.72731664591186e-007
11
1338.06180961974
21
2191.09795203578
31
1.6393671897208e-007
  0
LINE
 8
GROUP0
10
1338.32975881204
20
2192.0979520354
30
3.97646170297028e-007
11
1338.12995796712
21
2191.61559012579
31
2.72731664591186e-007
  0
LINE
 8
GROUP0
10
1338.64759605711
20
2192.51216559763
30
5.30168899748329e-007
11
1338.32975881204
21
2192.0979520354
31
3.97646170297028e-007
  0
LINE
 8
GROUP0
10
1339.06180961931
20
2192.83000284271
30
6.61267295853918e-007
11
1338.64759605711
21
2192.51216559763
31
5.30168899748329e-007
  0
LINE
 8
GROUP0
10
1339.54417152892
20
2193.02980368766
30
7.82007705502075e-007
11
1339.06180961931
21
2192.83000284271
31
6.61267295853918e-007
  0
LINE
 8
GROUP0
10
1340.06180961893
20
2193.09795203506
30
8.8416250424439e-007
11
1339.54417152892
21
2193.02980368766
31
7.82007705502075e-007
  0
LINE
 8
GROUP0
10
1340.57944770893
20
2193.02980368768
30
9.60768855029492e-007
11
1340.06180961893
21
2193.09795203506
31
8.8416250424439e-007
  0
LINE
 8
GROUP0
10
1341.06180961855
20
2192.83000284276
30
1.00660733970415e-006
11
1340.57944770893
21
2193.02980368768
31
9.60768855029492e-007
  0
LINE
 8
GROUP0
10
1136.81197910415
20
2201.09795299619
30
0.000127273910542541
11
1086.81197910415
21
2201.09795299619
31
0.000127273910542541
  0
LINE
 8
GROUP0
10
1086.81197910415
20
2201.09795299619
30
0.000127273910542541
11
1086.81197910415
21
2221.09795299619
31
0.000126220926413351
  0
LINE
 8
GROUP0
10
1086.81197910415
20
2221.09795299619
30
0.000126220926413351
11
1136.81197910415
21
2221.09795299619
31
0.000126220926413351
  0
LINE
 8
GROUP0
10
1136.81197910415
20
2221.09795299619
30
0.000126220926413351
11
1136.81197910415
21
2201.09795299619
31
0.000127273910542541
  0
LINE
 8
GROUP0
10
1276.3121059472
20
2201.09795203583
30
4.37076818209758e-005
11
1226.31210663787
21
2201.09795299626
31
4.68156614517878e-005
  0
LINE
 8
GROUP0
10
1226.31210663787
20
2251.09795299626
30
4.41832010822818e-005
11
1226.31210663787
21
2201.09795299626
31
4.68156614517878e-005
  0
LINE
 8
GROUP0
10
1276.31210663787
20
2251.09795299626
30
4.41832009920429e-005
11
1226.31210663787
21
2251.09795299626
31
4.41832010822818e-005
  0
LINE
 8
GROUP0
10
1276.3121059472
20
2201.09795203583
30
4.37076818209758e-005
11
1276.31210663787
21
2251.09795299626
31
4.41832009920429e-005
 0
ENDSEC
 0
EOF
