 0
SECTION
 2
ENTITIES
  0
LINE
 8
GROUP0
10
42.661166129258
20
1993.57686464328
30
8.58448674446066e-005
11
45.7965185429244
21
1994.87557013584
31
8.58448674446066e-005
  0
LINE
 8
GROUP0
10
35.9318709565924
20
1993.57686464328
30
8.58448674446066e-005
11
39.2965185429252
21
1993.13390038504
31
8.58448674446066e-005
  0
LINE
 8
GROUP0
10
30.1041303875
20
1996.94151222962
30
8.58448674446066e-005
11
32.7965185429252
21
1994.87557013584
31
8.58448674446066e-005
  0
LINE
 8
GROUP0
10
26.7394828011665
20
2002.76925279871
30
8.58448674446066e-005
11
28.0381882937271
21
1999.63390038504
31
8.58448674446066e-005
  0
LINE
 8
GROUP0
10
39.2965185429252
20
1993.13390038504
30
8.58448674446066e-005
11
42.661166129258
21
1993.57686464328
31
8.58448674446066e-005
  0
LINE
 8
GROUP0
10
45.7965185429244
20
1994.87557013584
30
8.58448674446066e-005
11
48.4889066983497
21
1996.94151222962
31
8.58448674446066e-005
  0
LINE
 8
GROUP0
10
32.7965185429252
20
1994.87557013584
30
8.58448674446066e-005
11
35.9318709565924
21
1993.57686464328
31
8.58448674446066e-005
  0
LINE
 8
GROUP0
10
28.0381882937271
20
1999.63390038504
30
8.58448674446066e-005
11
30.1041303875
21
1996.94151222962
31
8.58448674446066e-005
  0
LINE
 8
GROUP0
10
26.2965185429245
20
2006.13390038504
30
8.58448674446066e-005
11
26.7394828011665
21
2002.76925279871
31
8.58448674446066e-005
  0
LINE
 8
GROUP0
10
25.0955566485973
20
1650.8834103505
30
9.71371369860918e-005
11
24.8571787147015
21
1650.57275017872
31
9.71801084475032e-005
  0
LINE
 8
GROUP0
10
25.2454072823553
20
1652.02163891815
30
9.68851267334259e-005
11
25.296518542922
21
1651.6334103505
31
9.69844432457734e-005
  0
LINE
 8
GROUP0
10
24.8571787147015
20
1650.57275017872
30
9.71801084475032e-005
11
24.5465185429208
21
1650.33437224482
31
9.71963851135626e-005
  0
LINE
 8
GROUP0
10
55.184747110575
20
1650.18452161107
30
9.71848578576129e-005
11
54.7965185429211
21
1650.13341035051
31
9.71463121643978e-005
  0
LINE
 8
GROUP0
10
54.0465185429227
20
1650.33437224483
30
9.70003350428072e-005
11
53.7358583711435
21
1650.57275017873
31
9.69028517793902e-005
  0
LINE
 8
GROUP0
10
53.7358583711435
20
1650.57275017873
30
9.69028517793902e-005
11
53.4974804372461
21
1650.88341035051
31
9.67975683082045e-005
  0
LINE
 8
GROUP0
10
24.5465185429208
20
1650.33437224482
30
9.71963851135626e-005
11
24.1847471105763
21
1650.18452161106
31
9.71848578576129e-005
  0
LINE
 8
GROUP0
10
25.2454072823553
20
1651.24518178284
30
9.70703992532407e-005
11
25.0955566485973
21
1650.8834103505
31
9.71371369860918e-005
  0
LINE
 8
GROUP0
10
24.1847471105763
20
1653.08229908993
30
9.64934114609406e-005
11
24.5465185429208
21
1652.93244845617
31
9.65764512621092e-005
  0
LINE
 8
GROUP0
10
25.296518542922
20
1651.6334103505
30
9.69844432457734e-005
11
25.2454072823553
21
1651.24518178284
31
9.70703992532407e-005
  0
LINE
 8
GROUP0
10
54.7965185429211
20
1650.13341035051
30
9.71463121643978e-005
11
54.4082899752687
21
1650.18452161107
31
9.70833748439759e-005
  0
LINE
 8
GROUP0
10
54.4082899752687
20
1650.18452161107
30
9.70833748439759e-005
11
54.0465185429227
21
1650.33437224483
31
9.70003350428072e-005
  0
LINE
 8
GROUP0
10
53.4974804372461
20
1650.88341035051
30
9.67975683082045e-005
11
53.3476298034896
21
1651.24518178285
31
9.66916595714906e-005
  0
LINE
 8
GROUP0
10
24.5465185429208
20
1652.93244845617
30
9.65764512621092e-005
11
24.8571787147015
21
1652.69407052228
31
9.66739345706458e-005
  0
LINE
 8
GROUP0
10
25.0955566485973
20
1652.3834103505
30
9.6779217996712e-005
11
25.2454072823553
21
1652.02163891815
31
9.68851267334259e-005
  0
LINE
 8
GROUP0
10
24.8571787147015
20
1652.69407052228
30
9.66739345706458e-005
11
25.0955566485973
21
1652.3834103505
31
9.6779217996712e-005
  0
LINE
 8
GROUP0
10
56.2454072823555
20
1651.24518178285
30
9.70703992532407e-005
11
56.0955566485989
21
1650.88341035051
31
9.71371369860918e-005
  0
LINE
 8
GROUP0
10
54.0465185429227
20
1652.93244845618
30
9.63804011913538e-005
11
54.4082899752687
21
1653.08229908994
31
9.63919284473036e-005
  0
LINE
 8
GROUP0
10
56.2454072823555
20
1652.02163891816
30
9.68851267334259e-005
11
56.2965185429208
21
1651.63341035051
31
9.69844432457734e-005
  0
LINE
 8
GROUP0
10
53.7358583711435
20
1652.69407052229
30
9.63966778574132e-005
11
54.0465185429227
21
1652.93244845618
31
9.63804011913538e-005
  0
LINE
 8
GROUP0
10
53.3476298034896
20
1652.02163891816
30
9.65063870516758e-005
11
53.4974804372461
21
1652.38341035051
31
9.64396493188247e-005
  0
LINE
 8
GROUP0
10
53.2965185429214
20
1651.63341035051
30
9.65923430591431e-005
11
53.3476298034896
21
1652.02163891816
31
9.65063870516758e-005
  0
LINE
 8
GROUP0
10
53.4974804372461
20
1652.38341035051
30
9.64396493188247e-005
11
53.7358583711435
21
1652.69407052229
31
9.63966778574132e-005
  0
LINE
 8
GROUP0
10
56.2965185429208
20
1651.63341035051
30
9.69844432457734e-005
11
56.2454072823555
21
1651.24518178285
31
9.70703992532407e-005
  0
LINE
 8
GROUP0
10
56.0955566485989
20
1650.88341035051
30
9.71371369860918e-005
11
55.8571787147016
21
1650.57275017873
31
9.71801084475032e-005
  0
LINE
 8
GROUP0
10
55.5465185429224
20
1652.93244845618
30
9.65764512621092e-005
11
55.8571787147016
21
1652.69407052229
31
9.66739345706458e-005
  0
LINE
 8
GROUP0
10
54.7965185429225
20
1653.13341035051
30
9.64304741856381e-005
11
55.184747110575
21
1653.08229908994
31
9.64934114609406e-005
  0
LINE
 8
GROUP0
10
53.3476298034896
20
1651.24518178285
30
9.66916595714906e-005
11
53.2965185429214
21
1651.63341035051
31
9.65923430591431e-005
  0
LINE
 8
GROUP0
10
55.184747110575
20
1653.08229908994
30
9.64934114609406e-005
11
55.5465185429224
21
1652.93244845618
31
9.65764512621092e-005
  0
LINE
 8
GROUP0
10
56.0955566485989
20
1652.38341035051
30
9.6779217996712e-005
11
56.2454072823555
21
1652.02163891816
31
9.68851267334259e-005
  0
LINE
 8
GROUP0
10
55.8571787147016
20
1652.69407052229
30
9.66739345706458e-005
11
56.0955566485989
21
1652.38341035051
31
9.6779217996712e-005
  0
LINE
 8
GROUP0
10
54.4082899752687
20
1653.08229908994
30
9.63919284473036e-005
11
54.7965185429225
21
1653.13341035051
31
9.64304741856381e-005
  0
LINE
 8
GROUP0
10
53.7358583711435
20
1621.69407052229
30
9.63966798426696e-005
11
54.0465185429227
21
1621.93244845618
31
9.63804031314908e-005
  0
LINE
 8
GROUP0
10
54.4082899752701
20
1619.18452161107
30
9.70833767841128e-005
11
54.0465185429227
21
1619.33437224483
31
9.70003369829442e-005
  0
LINE
 8
GROUP0
10
53.3476298034896
20
1621.02163891816
30
9.65063890369322e-005
11
53.4974804372461
21
1621.38341035051
31
9.64396512589616e-005
  0
LINE
 8
GROUP0
10
54.0465185429227
20
1621.93244845618
30
9.63804031314908e-005
11
54.4082899752701
21
1622.08229908994
31
9.639193043256e-005
  0
LINE
 8
GROUP0
10
53.7358583711435
20
1619.57275017873
30
9.69028536744076e-005
11
53.4974804372461
21
1619.88341035051
31
9.67975702483415e-005
  0
LINE
 8
GROUP0
10
55.5465185429224
20
1650.33437224483
30
9.71963851135626e-005
11
55.184747110575
21
1650.18452161107
31
9.71848578576129e-005
  0
LINE
 8
GROUP0
10
54.796518542924
20
1622.13341035051
30
9.6430476125775e-005
11
55.1847471105764
21
1622.08229908994
31
9.64934134010775e-005
  0
LINE
 8
GROUP0
10
54.4082899752701
20
1622.08229908994
30
9.639193043256e-005
11
54.796518542924
21
1622.13341035051
31
9.6430476125775e-005
  0
LINE
 8
GROUP0
10
53.4974804372461
20
1619.88341035051
30
9.67975702483415e-005
11
53.3476298034896
21
1620.24518178285
31
9.66916615116276e-005
  0
LINE
 8
GROUP0
10
55.8571787147016
20
1650.57275017873
30
9.71801084475032e-005
11
55.5465185429224
21
1650.33437224483
31
9.71963851135626e-005
  0
LINE
 8
GROUP0
10
54.0465185429227
20
1619.33437224483
30
9.70003369829442e-005
11
53.7358583711435
21
1619.57275017873
31
9.69028536744076e-005
  0
LINE
 8
GROUP0
10
55.1847471105764
20
1619.18452161107
30
9.71848597977498e-005
11
54.796518542924
21
1619.13341035051
31
9.71463140594153e-005
  0
LINE
 8
GROUP0
10
53.3476298034896
20
1620.24518178285
30
9.66916615116276e-005
11
53.2965185429243
21
1620.63341035051
31
9.659234499928e-005
  0
LINE
 8
GROUP0
10
53.2965185429243
20
1620.63341035051
30
9.659234499928e-005
11
53.3476298034896
21
1621.02163891816
31
9.65063890369322e-005
  0
LINE
 8
GROUP0
10
53.4974804372461
20
1621.38341035051
30
9.64396512589616e-005
11
53.7358583711435
21
1621.69407052229
31
9.63966798426696e-005
  0
LINE
 8
GROUP0
10
54.796518542924
20
1619.13341035051
30
9.71463140594153e-005
11
54.4082899752701
21
1619.18452161107
31
9.70833767841128e-005
  0
LINE
 8
GROUP0
10
53.3476298035486
20
2021.24567181739
30
9.78451634772171e-005
11
53.2965185429819
21
2021.63390038504
31
9.7806617784002e-005
  0
LINE
 8
GROUP0
10
56.2454072823555
20
1621.02163891816
30
9.68851286735628e-005
11
56.2965185429236
21
1620.63341035051
31
9.69844451859103e-005
  0
LINE
 8
GROUP0
10
55.8571787147016
20
1621.69407052229
30
9.66739365107827e-005
11
56.0955566485989
21
1621.38341035051
31
9.67792199368489e-005
  0
LINE
 8
GROUP0
10
56.0955566485989
20
1619.88341035051
30
9.71371389262288e-005
11
55.8571787147016
21
1619.57275017873
31
9.71801103876402e-005
  0
LINE
 8
GROUP0
10
55.1847471105764
20
1622.08229908994
30
9.64934134010775e-005
11
55.5465185429224
21
1621.93244845618
31
9.65764532022462e-005
  0
LINE
 8
GROUP0
10
55.5465185429224
20
1619.33437224483
30
9.71963870536996e-005
11
55.1847471105764
21
1619.18452161107
31
9.71848597977498e-005
  0
LINE
 8
GROUP0
10
56.2965185429236
20
1620.63341035051
30
9.69844451859103e-005
11
56.2454072823555
21
1620.24518178285
31
9.70704011933776e-005
  0
LINE
 8
GROUP0
10
55.8571787147016
20
1619.57275017873
30
9.71801103876402e-005
11
55.5465185429224
21
1619.33437224483
31
9.71963870536996e-005
  0
LINE
 8
GROUP0
10
53.3476298035486
20
2022.0221289527
30
9.77436805086995e-005
11
53.4974804373052
21
2022.38390038504
31
9.76606407075309e-005
  0
LINE
 8
GROUP0
10
55.5465185429224
20
1621.93244845618
30
9.65764532022462e-005
11
55.8571787147016
21
1621.69407052229
31
9.66739365107827e-005
  0
LINE
 8
GROUP0
10
53.2965185429819
20
2021.63390038504
30
9.7806617784002e-005
11
53.3476298035486
21
2022.0221289527
31
9.77436805086995e-005
  0
LINE
 8
GROUP0
10
53.7358583712025
20
2022.69456055682
30
9.75631573989943e-005
11
54.0465185429818
21
2022.93293849072
31
9.74578739729282e-005
  0
LINE
 8
GROUP0
10
56.2454072823555
20
1620.24518178285
30
9.70704011933776e-005
11
56.0955566485989
21
1619.88341035051
31
9.71371389262288e-005
  0
LINE
 8
GROUP0
10
53.4974804373052
20
2022.38390038504
30
9.76606407075309e-005
11
53.7358583712025
21
2022.69456055682
31
9.75631573989943e-005
  0
LINE
 8
GROUP0
10
54.0465185429818
20
2022.93293849072
30
9.74578739729282e-005
11
54.4082899753277
21
2023.08278912448
31
9.73519652362143e-005
  0
LINE
 8
GROUP0
10
56.0955566485989
20
1621.38341035051
30
9.67792199368489e-005
11
56.2454072823555
21
1621.02163891816
31
9.68851286735628e-005
  0
LINE
 8
GROUP0
10
54.7965185429816
20
2020.13390038504
30
9.7644748910497e-005
11
54.4082899753277
21
2020.18501164561
31
9.77307048728449e-005
  0
LINE
 8
GROUP0
10
54.4082899753277
20
2020.18501164561
30
9.77307048728449e-005
11
54.0465185429818
21
2020.33486227937
31
9.77974426508155e-005
  0
LINE
 8
GROUP0
10
54.0465185429818
20
2020.33486227937
30
9.77974426508155e-005
11
53.7358583712025
21
2020.57324021326
31
9.78404140671074e-005
  0
LINE
 8
GROUP0
10
54.7965185429816
20
2023.13390038504
30
9.72526487238667e-005
11
55.1847471106355
21
2023.08278912448
31
9.71666927163994e-005
  0
LINE
 8
GROUP0
10
56.2454072824146
20
2022.0221289527
30
9.70522341120272e-005
11
56.2965185429812
21
2021.63390038504
31
9.70907798503617e-005
  0
LINE
 8
GROUP0
10
55.8571787147607
20
2022.69456055682
30
9.70569835221369e-005
11
56.095556648658
21
2022.38390038504
31
9.70407068560775e-005
  0
LINE
 8
GROUP0
10
56.095556648658
20
2020.88390038504
30
9.72367569268329e-005
11
55.8571787147607
21
2020.57324021326
31
9.73342402353694e-005
  0
LINE
 8
GROUP0
10
56.2454072824146
20
2021.24567181739
30
9.71537171256642e-005
11
56.095556648658
21
2020.88390038504
31
9.72367569268329e-005
  0
LINE
 8
GROUP0
10
56.2965185429812
20
2021.63390038504
30
9.70907798503617e-005
11
56.2454072824146
21
2021.24567181739
31
9.71537171256642e-005
  0
LINE
 8
GROUP0
10
55.8571787147607
20
2020.57324021326
30
9.73342402353694e-005
11
55.5465185429814
21
2020.33486227937
31
9.74395236614356e-005
  0
LINE
 8
GROUP0
10
54.4082899753277
20
2023.08278912448
30
9.73519652362143e-005
11
54.7965185429816
21
2023.13390038504
31
9.72526487238667e-005
  0
LINE
 8
GROUP0
10
55.1847471106355
20
2023.08278912448
30
9.71666927163994e-005
11
55.5465185429814
21
2022.93293849072
31
9.70999549835483e-005
  0
LINE
 8
GROUP0
10
55.5465185429814
20
2022.93293849072
30
9.70999549835483e-005
11
55.8571787147607
21
2022.69456055682
31
9.70569835221369e-005
  0
LINE
 8
GROUP0
10
56.095556648658
20
2022.38390038504
30
9.70407068560775e-005
11
56.2454072824146
21
2022.0221289527
31
9.70522341120272e-005
  0
LINE
 8
GROUP0
10
55.5465185429814
20
2020.33486227937
30
9.74395236614356e-005
11
55.1847471106355
21
2020.18501164561
31
9.75454323981495e-005
  0
LINE
 8
GROUP0
10
55.1847471106355
20
2020.18501164561
30
9.75454323981495e-005
11
54.7965185429816
21
2020.13390038504
31
9.7644748910497e-005
  0
LINE
 8
GROUP0
10
53.4974804373052
20
2020.88390038504
30
9.78566907782863e-005
11
53.3476298035486
21
2021.24567181739
31
9.78451634772171e-005
  0
LINE
 8
GROUP0
10
54.4082899753378
20
1992.08278912448
30
9.73519652362143e-005
11
54.7965185429917
21
1992.13390038504
31
9.72526487238667e-005
  0
LINE
 8
GROUP0
10
56.0955566486681
20
1991.38390038504
30
9.70407068560775e-005
11
56.2454072824247
21
1991.0221289527
31
9.70522341120272e-005
  0
LINE
 8
GROUP0
10
54.7965185429917
20
1992.13390038504
30
9.72526487238667e-005
11
55.1847471106456
21
1992.08278912448
31
9.71666927163994e-005
  0
LINE
 8
GROUP0
10
56.2965185429913
20
1990.63390038504
30
9.70907798052423e-005
11
56.2454072824247
21
1990.24567181739
31
9.71537171256642e-005
  0
LINE
 8
GROUP0
10
55.5465185429915
20
1991.93293849072
30
9.70999549835483e-005
11
55.8571787147722
21
1991.69456055682
31
9.70569835221369e-005
  0
LINE
 8
GROUP0
10
56.2454072824247
20
1991.0221289527
30
9.70522341120272e-005
11
56.2965185429913
21
1990.63390038504
31
9.70907798052423e-005
  0
LINE
 8
GROUP0
10
55.8571787147722
20
1991.69456055682
30
9.70569835221369e-005
11
56.0955566486681
21
1991.38390038504
31
9.70407068560775e-005
  0
LINE
 8
GROUP0
10
54.0465185429919
20
1991.93293849072
30
9.74578739729282e-005
11
54.4082899753378
21
1992.08278912448
31
9.73519652362143e-005
  0
LINE
 8
GROUP0
10
53.7358583712112
20
1991.69456055682
30
9.75631573989943e-005
11
54.0465185429919
21
1991.93293849072
31
9.74578739729282e-005
  0
LINE
 8
GROUP0
10
53.3476298035587
20
1991.0221289527
30
9.77436805086995e-005
11
53.4974804373153
21
1991.38390038504
31
9.76606407075309e-005
  0
LINE
 8
GROUP0
10
53.296518542992
20
1990.63390038504
30
9.7806617784002e-005
11
53.3476298035587
21
1991.0221289527
31
9.77436805086995e-005
  0
LINE
 8
GROUP0
10
53.4974804373153
20
1991.38390038504
30
9.76606407075309e-005
11
53.7358583712112
21
1991.69456055682
31
9.75631573989943e-005
  0
LINE
 8
GROUP0
10
53.7358583712025
20
2020.57324021326
30
9.78404140671074e-005
11
53.4974804373052
21
2020.88390038504
31
9.78566907782863e-005
  0
LINE
 8
GROUP0
10
55.1847471106456
20
1992.08278912448
30
9.71666927163994e-005
11
55.5465185429915
21
1991.93293849072
31
9.70999549835483e-005
  0
LINE
 8
GROUP0
10
53.3476298035587
20
1990.24567181739
30
9.78451635223365e-005
11
53.296518542992
21
1990.63390038504
31
9.7806617784002e-005
  0
LINE
 8
GROUP0
10
22.3476298035585
20
1990.24567181739
30
9.7845165417354e-005
11
22.2965185429933
21
1990.63390038504
31
9.7806619724139e-005
  0
LINE
 8
GROUP0
10
22.2965185429933
20
1990.63390038504
30
9.7806619724139e-005
11
22.3476298035585
21
1991.0221289527
31
9.77436824488365e-005
  0
LINE
 8
GROUP0
10
22.3476298035585
20
1991.0221289527
30
9.77436824488365e-005
11
22.4974804373151
21
1991.38390038504
31
9.76606426476678e-005
  0
LINE
 8
GROUP0
10
55.5465185429915
20
1989.33486227937
30
9.74395236614356e-005
11
55.1847471106456
21
1989.18501164561
31
9.75454323981495e-005
  0
LINE
 8
GROUP0
10
55.8571787147722
20
1989.57324021326
30
9.73342401902499e-005
11
55.5465185429915
21
1989.33486227937
31
9.74395236614356e-005
  0
LINE
 8
GROUP0
10
22.4974804373151
20
1991.38390038504
30
9.76606426476678e-005
11
22.7358583712124
21
1991.69456055682
31
9.75631593391313e-005
  0
LINE
 8
GROUP0
10
56.2454072824247
20
1990.24567181739
30
9.71537171256642e-005
11
56.0955566486681
21
1989.88390038504
31
9.72367569268329e-005
  0
LINE
 8
GROUP0
10
54.7965185429917
20
1989.13390038504
30
9.7644748910497e-005
11
54.4082899753378
21
1989.18501164561
31
9.77307049179643e-005
  0
LINE
 8
GROUP0
10
54.4082899753378
20
1989.18501164561
30
9.77307049179643e-005
11
54.0465185429919
21
1989.33486227937
31
9.77974426508155e-005
  0
LINE
 8
GROUP0
10
53.4974804373153
20
1989.88390038504
30
9.78566907782863e-005
11
53.3476298035587
21
1990.24567181739
31
9.78451635223365e-005
  0
LINE
 8
GROUP0
10
54.0465185429919
20
1989.33486227937
30
9.77974426508155e-005
11
53.7358583712112
21
1989.57324021326
31
9.78404141122269e-005
  0
LINE
 8
GROUP0
10
56.0955566486681
20
1989.88390038504
30
9.72367569268329e-005
11
55.8571787147722
21
1989.57324021326
31
9.73342401902499e-005
  0
LINE
 8
GROUP0
10
55.1847471106456
20
1989.18501164561
30
9.75454323981495e-005
11
54.7965185429917
21
1989.13390038504
31
9.7644748910497e-005
  0
LINE
 8
GROUP0
10
53.7358583712112
20
1989.57324021326
30
9.78404141122269e-005
11
53.4974804373153
21
1989.88390038504
31
9.78566907782863e-005
  0
LINE
 8
GROUP0
10
22.7358583712124
20
1991.69456055682
30
9.75631593391313e-005
11
23.0465185429917
21
1991.93293849072
31
9.74578759130651e-005
  0
LINE
 8
GROUP0
10
23.0465185429917
20
1991.93293849072
30
9.74578759130651e-005
11
23.4082899753391
21
1992.08278912448
31
9.73519671763512e-005
  0
LINE
 8
GROUP0
10
23.4082899753391
20
1989.18501164561
30
9.77307068129818e-005
11
23.0465185429917
21
1989.33486227937
31
9.77974445909524e-005
  0
LINE
 8
GROUP0
10
24.8571787147706
20
1991.69456055682
30
9.70569854622738e-005
11
25.0955566486679
21
1991.38390038504
31
9.70407087962144e-005
  0
LINE
 8
GROUP0
10
24.1847471106469
20
1989.18501164561
30
9.75454343382864e-005
11
23.796518542993
21
1989.13390038504
31
9.76447508506339e-005
  0
LINE
 8
GROUP0
10
23.0465185429917
20
1989.33486227937
30
9.77974445909524e-005
11
22.7358583712124
21
1989.57324021326
31
9.78404160072444e-005
  0
LINE
 8
GROUP0
10
25.0955566486679
20
1989.88390038504
30
9.72367588669698e-005
11
24.8571787147706
21
1989.57324021326
31
9.73342421755063e-005
  0
LINE
 8
GROUP0
10
23.796518542993
20
1992.13390038504
30
9.72526506640037e-005
11
24.1847471106469
21
1992.08278912448
31
9.71666946565364e-005
  0
LINE
 8
GROUP0
10
25.2454072824245
20
1990.24567181739
30
9.71537190658012e-005
11
25.0955566486679
21
1989.88390038504
31
9.72367588669698e-005
  0
LINE
 8
GROUP0
10
25.2454072824245
20
1991.0221289527
30
9.70522360521642e-005
11
25.2965185429912
21
1990.63390038504
31
9.70907817904987e-005
  0
LINE
 8
GROUP0
10
24.1847471106469
20
1992.08278912448
30
9.71666946565364e-005
11
24.5465185429913
21
1991.93293849072
31
9.70999569236852e-005
  0
LINE
 8
GROUP0
10
24.5465185429913
20
1991.93293849072
30
9.70999569236852e-005
11
24.8571787147706
21
1991.69456055682
31
9.70569854622738e-005
  0
LINE
 8
GROUP0
10
24.8571787147706
20
1989.57324021326
30
9.73342421755063e-005
11
24.5465185429913
21
1989.33486227937
31
9.74395256015725e-005
  0
LINE
 8
GROUP0
10
24.5465185429913
20
1989.33486227937
30
9.74395256015725e-005
11
24.1847471106469
21
1989.18501164561
31
9.75454343382864e-005
  0
LINE
 8
GROUP0
10
23.4082899753391
20
1992.08278912448
30
9.73519671763512e-005
11
23.796518542993
21
1992.13390038504
31
9.72526506640037e-005
  0
LINE
 8
GROUP0
10
23.796518542993
20
1989.13390038504
30
9.76447508506339e-005
11
23.4082899753391
21
1989.18501164561
31
9.77307068129818e-005
  0
LINE
 8
GROUP0
10
25.0955566486679
20
1991.38390038504
30
9.70407087962144e-005
11
25.2454072824245
21
1991.0221289527
31
9.70522360521642e-005
  0
LINE
 8
GROUP0
10
25.2965185429912
20
1990.63390038504
30
9.70907817904987e-005
11
25.2454072824245
21
1990.24567181739
31
9.71537190658012e-005
  0
LINE
 8
GROUP0
10
426.297008577522
20
1990.63390038498
30
0.000122951568761565
11
426.245897316957
21
1990.24567181733
31
0.000122865612754097
  0
LINE
 8
GROUP0
10
425.857668749303
20
1989.5732402132
30
0.000122755903559835
11
425.547008577524
21
1989.3348622793
31
0.000122739626893775
  0
LINE
 8
GROUP0
10
426.0960466832
20
1989.88390038498
30
0.000122798875021246
11
425.857668749303
21
1989.5732402132
31
0.000122755903559835
  0
LINE
 8
GROUP0
10
425.185237145176
20
1989.18501164555
30
0.000122751154149725
11
424.797008577522
21
1989.13390038498
31
0.00012278969988806
  0
LINE
 8
GROUP0
10
424.408780009868
20
1992.08278912441
30
0.000123544083514915
11
424.797008577522
21
1992.13390038498
31
0.0001235055378217
  0
LINE
 8
GROUP0
10
22.4974804373151
20
1989.88390038504
30
9.78566927184232e-005
11
22.3476298035585
21
1990.24567181739
31
9.7845165417354e-005
  0
LINE
 8
GROUP0
10
424.797008577522
20
1989.13390038498
30
0.00012278969988806
11
424.408780009868
21
1989.18501164555
31
0.000122852637163362
  0
LINE
 8
GROUP0
10
425.185237145176
20
1992.08278912441
30
0.000123442600546397
11
425.547008577524
21
1991.93293849066
31
0.000123359560745229
  0
LINE
 8
GROUP0
10
425.547008577524
20
1991.93293849066
30
0.000123359560745229
11
425.857668749303
21
1991.69456055676
31
0.000123262077436692
  0
LINE
 8
GROUP0
10
22.7358583712124
20
1989.57324021326
30
9.78404160072444e-005
11
22.4974804373151
21
1989.88390038504
31
9.78566927184232e-005
  0
LINE
 8
GROUP0
10
425.857668749303
20
1991.69456055676
30
0.000123262077436692
11
426.0960466832
21
1991.38390038498
31
0.000123156794010626
  0
LINE
 8
GROUP0
10
426.245897316957
20
1990.24567181733
30
0.000122865612754097
11
426.0960466832
21
1989.88390038498
31
0.000122798875021246
  0
LINE
 8
GROUP0
10
424.797008577522
20
1992.13390038498
30
0.0001235055378217
11
425.185237145176
21
1992.08278912441
31
0.000123442600546397
  0
LINE
 8
GROUP0
10
425.547008577524
20
1989.3348622793
30
0.000122739626893775
11
425.185237145176
21
1989.18501164555
31
0.000122751154149725
  0
LINE
 8
GROUP0
10
426.0960466832
20
1991.38390038498
30
0.000123156794010626
11
426.245897316957
21
1991.02212895263
31
0.000123050885273912
  0
LINE
 8
GROUP0
10
426.245897316957
20
1991.02212895263
30
0.000123050885273912
11
426.297008577522
21
1990.63390038498
31
0.000122951568761565
  0
LINE
 8
GROUP0
10
394.857668749301
20
1991.69456055675
30
0.000123262077436692
11
395.096046683199
21
1991.38390038497
31
0.000123156794010626
  0
LINE
 8
GROUP0
10
423.348119838089
20
1990.24567181733
30
0.000123244352435847
11
423.297008577523
21
1990.63390038498
31
0.000123343668948195
  0
LINE
 8
GROUP0
10
423.497970471847
20
1991.38390038498
30
0.000123496362688513
11
423.736348405743
21
1991.69456055676
31
0.000123539334104805
  0
LINE
 8
GROUP0
10
423.497970471847
20
1989.88390038498
30
0.000123138443699133
11
423.348119838089
21
1990.24567181733
31
0.000123244352435847
  0
LINE
 8
GROUP0
10
424.047008577524
20
1989.3348622793
30
0.000122935676964531
11
423.736348405743
21
1989.5732402132
31
0.000123033160273067
  0
LINE
 8
GROUP0
10
423.348119838089
20
1991.02212895263
30
0.000123429624910543
11
423.497970471847
21
1991.38390038498
31
0.000123496362688513
  0
LINE
 8
GROUP0
10
424.047008577524
20
1991.93293849066
30
0.000123555610815984
11
424.408780009868
21
1992.08278912441
31
0.000123544083514915
  0
LINE
 8
GROUP0
10
394.547008577522
20
1991.93293849065
30
0.000123359560745229
11
394.857668749301
21
1991.69456055675
31
0.000123262077436692
  0
LINE
 8
GROUP0
10
393.40878000987
20
1992.0827891244
30
0.000123544083560034
11
393.797008577524
21
1992.13390038497
31
0.0001235055378217
  0
LINE
 8
GROUP0
10
423.736348405743
20
1991.69456055676
30
0.000123539334104805
11
424.047008577524
21
1991.93293849066
31
0.000123555610815984
  0
LINE
 8
GROUP0
10
424.408780009868
20
1989.18501164555
30
0.000122852637163362
11
424.047008577524
21
1989.3348622793
31
0.000122935676964531
  0
LINE
 8
GROUP0
10
423.736348405743
20
1989.5732402132
30
0.000123033160273067
11
423.497970471847
21
1989.88390038498
31
0.000123138443699133
  0
LINE
 8
GROUP0
10
423.297008577523
20
1990.63390038498
30
0.000123343668948195
11
423.348119838089
21
1991.02212895263
31
0.000123429624910543
  0
LINE
 8
GROUP0
10
394.185237145176
20
1992.0827891244
30
0.000123442600546397
11
394.547008577522
21
1991.93293849065
31
0.000123359560745229
  0
LINE
 8
GROUP0
10
395.096046683199
20
1991.38390038497
30
0.000123156794010626
11
395.245897316955
21
1991.02212895262
31
0.000123050885273912
  0
LINE
 8
GROUP0
10
393.797008577524
20
1992.13390038497
30
0.0001235055378217
11
394.185237145176
21
1992.0827891244
31
0.000123442600546397
  0
LINE
 8
GROUP0
10
394.857668749301
20
1989.57324021319
30
0.000122755903559835
11
394.547008577522
21
1989.33486227929
31
0.000122739626893775
  0
LINE
 8
GROUP0
10
392.497970471846
20
1989.88390038497
30
0.000123138443699133
11
392.348119838089
21
1990.24567181732
31
0.000123244352435847
  0
LINE
 8
GROUP0
10
395.297008577523
20
1990.63390038497
30
0.000122951568761565
11
395.245897316955
21
1990.24567181732
31
0.000122865612754097
  0
LINE
 8
GROUP0
10
393.40878000987
20
1989.18501164554
30
0.000122852637163362
11
393.047008577522
21
1989.33486227929
31
0.000122935676964531
  0
LINE
 8
GROUP0
10
392.297008577524
20
1990.63390038497
30
0.000123343668948195
11
392.348119838089
21
1991.02212895262
31
0.000123429624955662
  0
LINE
 8
GROUP0
10
395.096046683199
20
1989.88390038497
30
0.000122798875021246
11
394.857668749301
21
1989.57324021319
31
0.000122755903559835
  0
LINE
 8
GROUP0
10
392.497970471846
20
1991.38390038497
30
0.000123496362688513
11
392.736348405743
21
1991.69456055675
31
0.000123539334149925
  0
LINE
 8
GROUP0
10
394.185237145176
20
1989.18501164554
30
0.000122751154149725
11
393.797008577522
21
1989.13390038497
31
0.00012278969984294
  0
LINE
 8
GROUP0
10
392.348119838089
20
1991.02212895262
30
0.000123429624955662
11
392.497970471846
21
1991.38390038497
31
0.000123496362688513
  0
LINE
 8
GROUP0
10
395.245897316955
20
1990.24567181732
30
0.000122865612754097
11
395.096046683199
21
1989.88390038497
31
0.000122798875021246
  0
LINE
 8
GROUP0
10
394.547008577522
20
1989.33486227929
30
0.000122739626893775
11
394.185237145176
21
1989.18501164554
31
0.000122751154149725
  0
LINE
 8
GROUP0
10
393.047008577522
20
1989.33486227929
30
0.000122935676964531
11
392.736348405743
21
1989.57324021319
31
0.000123033160227948
  0
LINE
 8
GROUP0
10
392.736348405743
20
1989.57324021319
30
0.000123033160227948
11
392.497970471846
21
1989.88390038497
31
0.000123138443699133
  0
LINE
 8
GROUP0
10
392.348119838089
20
1990.24567181732
30
0.000123244352435847
11
392.297008577524
21
1990.63390038497
31
0.000123343668948195
  0
LINE
 8
GROUP0
10
395.245897316955
20
1991.02212895262
30
0.000123050885273912
11
395.297008577523
21
1990.63390038497
31
0.000122951568761565
  0
LINE
 8
GROUP0
10
393.797008577522
20
1989.13390038497
30
0.00012278969984294
11
393.40878000987
21
1989.18501164554
31
0.000122852637163362
  0
LINE
 8
GROUP0
10
393.408780009868
20
2023.0827891244
30
0.000123544085455052
11
393.797008577522
21
2023.13390038497
31
0.000123505539761837
  0
LINE
 8
GROUP0
10
395.297008577522
20
2021.63390038497
30
0.000122951570701701
11
395.245897316955
21
2021.24567181732
31
0.000122865614694234
  0
LINE
 8
GROUP0
10
395.096046683199
20
2020.88390038497
30
0.000122798876961383
11
394.857668749301
21
2020.57324021319
31
0.000122755905499972
  0
LINE
 8
GROUP0
10
394.185237145175
20
2023.0827891244
30
0.000123442602486534
11
394.547008577522
21
2022.93293849065
31
0.000123359562685366
  0
LINE
 8
GROUP0
10
394.857668749301
20
2022.69456055675
30
0.000123262079376829
11
395.096046683199
21
2022.38390038497
31
0.000123156795950763
  0
LINE
 8
GROUP0
10
394.857668749301
20
2020.57324021319
30
0.000122755905499972
11
394.547008577522
21
2020.33486227929
31
0.000122739628833912
  0
LINE
 8
GROUP0
10
393.047008577522
20
1991.93293849065
30
0.000123555610815984
11
393.40878000987
21
1992.0827891244
31
0.000123544083560034
  0
LINE
 8
GROUP0
10
395.245897316955
20
2022.02212895262
30
0.000123050887214049
11
395.297008577522
21
2021.63390038497
31
0.000122951570701701
  0
LINE
 8
GROUP0
10
394.547008577522
20
2020.33486227929
30
0.000122739628833912
11
394.185237145175
21
2020.18501164554
31
0.000122751156089862
  0
LINE
 8
GROUP0
10
394.185237145175
20
2020.18501164554
30
0.000122751156089862
11
393.797008577521
21
2020.13390038497
31
0.000122789701828196
  0
LINE
 8
GROUP0
10
395.245897316955
20
2021.24567181732
30
0.000122865614694234
11
395.096046683199
21
2020.88390038497
31
0.000122798876961383
  0
LINE
 8
GROUP0
10
393.797008577521
20
2020.13390038497
30
0.000122789701828196
11
393.408780009868
21
2020.18501164554
31
0.000122852639103499
  0
LINE
 8
GROUP0
10
395.096046683199
20
2022.38390038497
30
0.000123156795950763
11
395.245897316955
21
2022.02212895262
31
0.000123050887214049
  0
LINE
 8
GROUP0
10
394.547008577522
20
2022.93293849065
30
0.000123359562685366
11
394.857668749301
21
2022.69456055675
31
0.000123262079376829
  0
LINE
 8
GROUP0
10
393.797008577522
20
2023.13390038497
30
0.000123505539761837
11
394.185237145175
21
2023.0827891244
31
0.000123442602486534
  0
LINE
 8
GROUP0
10
392.736348405743
20
1991.69456055675
30
0.000123539334149925
11
393.047008577522
21
1991.93293849065
31
0.000123555610815984
  0
LINE
 8
GROUP0
10
392.736348405673
20
1650.57275017866
30
0.000122095597895111
11
392.497970471777
21
1650.88341035044
31
0.000122079321229052
  0
LINE
 8
GROUP0
10
393.047008577522
20
2022.93293849065
30
0.000123555612756121
11
393.408780009868
21
2023.0827891244
31
0.000123544085455052
  0
LINE
 8
GROUP0
10
392.497970471846
20
2022.38390038497
30
0.00012349636462865
11
392.736348405743
21
2022.69456055675
31
0.000123539336044942
  0
LINE
 8
GROUP0
10
393.408780009799
20
1650.184521611
30
0.000122205307089374
11
393.047008577453
21
1650.33437224476
31
0.000122138569356522
  0
LINE
 8
GROUP0
10
392.348119838089
20
2021.24567181732
30
0.000123244354375984
11
392.297008577521
21
2021.63390038497
31
0.000123343670888332
  0
LINE
 8
GROUP0
10
392.497970471777
20
1650.88341035044
30
0.000122079321229052
11
392.34811983802
21
1651.24518178278
31
0.000122090848485001
  0
LINE
 8
GROUP0
10
393.047008577453
20
1650.33437224476
30
0.000122138569356522
11
392.736348405673
21
1650.57275017866
31
0.000122095597895111
  0
LINE
 8
GROUP0
10
392.348119838089
20
2022.02212895262
30
0.00012342962685068
11
392.497970471846
21
2022.38390038497
31
0.00012349636462865
  0
LINE
 8
GROUP0
10
393.408780009868
20
2020.18501164554
30
0.000122852639103499
11
393.047008577522
21
2020.33486227929
31
0.000122935678904668
  0
LINE
 8
GROUP0
10
393.047008577522
20
2020.33486227929
30
0.000122935678904668
11
392.736348405743
21
2020.57324021319
31
0.000123033162213204
  0
LINE
 8
GROUP0
10
392.497970471846
20
2020.88390038497
30
0.00012313844563927
11
392.348119838089
21
2021.24567181732
31
0.000123244354375984
  0
LINE
 8
GROUP0
10
392.736348405743
20
2020.57324021319
30
0.000123033162213204
11
392.497970471846
21
2020.88390038497
31
0.00012313844563927
  0
LINE
 8
GROUP0
10
392.736348405743
20
2022.69456055675
30
0.000123539336044942
11
393.047008577522
21
2022.93293849065
31
0.000123555612756121
  0
LINE
 8
GROUP0
10
392.34811983802
20
1651.24518178278
30
0.000122090848485001
11
392.297008577453
21
1651.63341035044
31
0.000122129394223336
  0
LINE
 8
GROUP0
10
392.297008577453
20
1651.63341035044
30
0.000122129394223336
11
392.34811983802
21
1652.02163891809
31
0.000122192331498638
  0
LINE
 8
GROUP0
10
392.297008577521
20
2021.63390038497
30
0.000123343670888332
11
392.348119838089
21
2022.02212895262
31
0.00012342962685068
  0
LINE
 8
GROUP0
10
394.547008577453
20
1652.93244845611
30
0.00012283605702379
11
394.857668749234
21
1652.69407052222
31
0.000122879028485201
  0
LINE
 8
GROUP0
10
395.297008577453
20
1651.63341035044
30
0.000122845232202096
11
395.245897316886
21
1651.24518178278
31
0.000122782294881674
  0
LINE
 8
GROUP0
10
393.797008577453
20
1653.13341035044
30
0.000122683363283471
11
394.185237145107
21
1653.08229908987
31
0.000122769319290938
  0
LINE
 8
GROUP0
10
395.096046683129
20
1650.88341035044
30
0.000122699255080505
11
394.857668749234
21
1650.57275017866
31
0.000122601771817088
  0
LINE
 8
GROUP0
10
395.245897316886
20
1651.24518178278
30
0.000122782294881674
11
395.096046683129
21
1650.88341035044
31
0.000122699255080505
  0
LINE
 8
GROUP0
10
394.857668749234
20
1650.57275017866
30
0.000122601771817088
11
394.547008577453
21
1650.33437224476
31
0.000122496488345902
  0
LINE
 8
GROUP0
10
394.547008577453
20
1650.33437224476
30
0.000122496488345902
11
394.185237145107
21
1650.184521611
31
0.000122390579609188
  0
LINE
 8
GROUP0
10
393.047008577453
20
1652.93244845611
30
0.00012247813803441
11
393.408780009799
21
1653.08229908987
31
0.000122584046771124
  0
LINE
 8
GROUP0
10
392.497970471777
20
1652.38341035044
30
0.000122275371299807
11
392.736348405673
21
1652.69407052222
31
0.000122372854608344
  0
LINE
 8
GROUP0
10
392.34811983802
20
1652.02163891809
30
0.000122192331498638
11
392.497970471777
21
1652.38341035044
31
0.000122275371299807
  0
LINE
 8
GROUP0
10
394.185237145107
20
1653.08229908987
30
0.000122769319290938
11
394.547008577453
21
1652.93244845611
31
0.00012283605702379
  0
LINE
 8
GROUP0
10
394.857668749234
20
1652.69407052222
30
0.000122879028485201
11
395.096046683129
21
1652.38341035044
31
0.00012289530515126
  0
LINE
 8
GROUP0
10
395.096046683129
20
1652.38341035044
30
0.00012289530515126
11
395.245897316886
21
1652.02163891809
31
0.000122883777895311
  0
LINE
 8
GROUP0
10
392.736348405673
20
1652.69407052222
30
0.000122372854608344
11
393.047008577453
21
1652.93244845611
31
0.00012247813803441
  0
LINE
 8
GROUP0
10
395.245897316886
20
1652.02163891809
30
0.000122883777895311
11
395.297008577453
21
1651.63341035044
31
0.000122845232202096
  0
LINE
 8
GROUP0
10
393.408780009799
20
1653.08229908987
30
0.000122584046771124
11
393.797008577453
21
1653.13341035044
31
0.000122683363283471
  0
LINE
 8
GROUP0
10
423.34811983802
20
1651.24518178278
30
0.000122090850470258
11
423.297008577453
21
1651.63341035044
31
0.000122129396163473
  0
LINE
 8
GROUP0
10
425.185237145107
20
1650.184521611
30
0.000122390581549325
11
424.797008577453
21
1650.13341035044
31
0.000122291265036978
  0
LINE
 8
GROUP0
10
423.34811983802
20
1652.02163891809
30
0.000122192333438775
11
423.497970471777
21
1652.38341035044
31
0.000122275373239944
  0
LINE
 8
GROUP0
10
423.497970471777
20
1652.38341035044
30
0.000122275373239944
11
423.736348405674
21
1652.69407052222
31
0.000122372856548481
  0
LINE
 8
GROUP0
10
423.736348405674
20
1652.69407052222
30
0.000122372856548481
11
424.047008577453
21
1652.93244845611
31
0.000122478139974547
  0
LINE
 8
GROUP0
10
423.736348405674
20
1650.57275017866
30
0.000122095599880367
11
423.497970471777
21
1650.88341035044
31
0.000122079323169189
  0
LINE
 8
GROUP0
10
425.857668749232
20
1650.57275017866
30
0.000122601773712105
11
425.547008577453
21
1650.33437224476
31
0.000122496490286039
  0
LINE
 8
GROUP0
10
424.797008577453
20
1650.13341035044
30
0.000122291265036978
11
424.408780009799
21
1650.184521611
31
0.00012220530907463
  0
LINE
 8
GROUP0
10
424.408780009799
20
1650.184521611
30
0.00012220530907463
11
424.047008577453
21
1650.33437224476
31
0.000122138571296659
  0
LINE
 8
GROUP0
10
394.185237145107
20
1650.184521611
30
0.000122390579609188
11
393.797008577453
21
1650.13341035044
31
0.000122291263096841
  0
LINE
 8
GROUP0
10
424.047008577453
20
1650.33437224476
30
0.000122138571296659
11
423.736348405674
21
1650.57275017866
31
0.000122095599880367
  0
LINE
 8
GROUP0
10
423.497970471777
20
1650.88341035044
30
0.000122079323169189
11
423.34811983802
21
1651.24518178278
31
0.000122090850470258
  0
LINE
 8
GROUP0
10
425.547008577453
20
1650.33437224476
30
0.000122496490286039
11
425.185237145107
21
1650.184521611
31
0.000122390581549325
  0
LINE
 8
GROUP0
10
393.797008577453
20
1650.13341035044
30
0.000122291263096841
11
393.408780009799
21
1650.184521611
31
0.000122205307089374
  0
LINE
 8
GROUP0
10
426.09604668313
20
1650.88341035044
30
0.000122699257020642
11
425.857668749232
21
1650.57275017866
31
0.000122601773712105
  0
LINE
 8
GROUP0
10
423.297008577453
20
1651.63341035044
30
0.000122129396163473
11
423.34811983802
21
1652.02163891809
31
0.000122192333438775
  0
LINE
 8
GROUP0
10
392.497970471787
20
1619.88341035044
30
0.000122079321229052
11
392.34811983803
21
1620.24518178278
31
0.000122090848530121
  0
LINE
 8
GROUP0
10
425.857668749232
20
1652.69407052222
30
0.000122879030425338
11
426.09604668313
21
1652.38341035044
31
0.000122895307091397
  0
LINE
 8
GROUP0
10
393.047008577463
20
1619.33437224476
30
0.000122138569356522
11
392.736348405684
21
1619.57275017866
31
0.00012209559794023
  0
LINE
 8
GROUP0
10
392.736348405684
20
1619.57275017866
30
0.00012209559794023
11
392.497970471787
21
1619.88341035044
31
0.000122079321229052
  0
LINE
 8
GROUP0
10
424.797008577453
20
1653.13341035044
30
0.000122683365223608
11
425.185237145107
21
1653.08229908987
31
0.000122769321231075
  0
LINE
 8
GROUP0
10
425.547008577453
20
1652.93244845611
30
0.000122836058963927
11
425.857668749232
21
1652.69407052222
31
0.000122879030425338
  0
LINE
 8
GROUP0
10
424.408780009799
20
1653.08229908987
30
0.000122584048711261
11
424.797008577453
21
1653.13341035044
31
0.000122683365223608
  0
LINE
 8
GROUP0
10
393.797008577463
20
1619.13341035044
30
0.000122291263096841
11
393.408780009809
21
1619.184521611
31
0.000122205307134493
  0
LINE
 8
GROUP0
10
393.408780009809
20
1619.184521611
30
0.000122205307134493
11
393.047008577463
21
1619.33437224476
31
0.000122138569356522
  0
LINE
 8
GROUP0
10
424.047008577453
20
1652.93244845611
30
0.000122478139974547
11
424.408780009799
21
1653.08229908987
31
0.000122584048711261
  0
LINE
 8
GROUP0
10
425.185237145107
20
1653.08229908987
30
0.000122769321231075
11
425.547008577453
21
1652.93244845611
31
0.000122836058963927
  0
LINE
 8
GROUP0
10
426.245897316886
20
1651.24518178278
30
0.000122782296821811
11
426.09604668313
21
1650.88341035044
31
0.000122699257020642
  0
LINE
 8
GROUP0
10
426.09604668313
20
1652.38341035044
30
0.000122895307091397
11
426.245897316886
21
1652.02163891809
31
0.000122883779835448
  0
LINE
 8
GROUP0
10
426.297008577453
20
1651.63341035044
30
0.000122845234097113
11
426.245897316886
21
1651.24518178278
31
0.000122782296821811
  0
LINE
 8
GROUP0
10
426.245897316886
20
1652.02163891809
30
0.000122883779835448
11
426.297008577453
21
1651.63341035044
31
0.000122845234097113
  0
LINE
 8
GROUP0
10
394.185237145117
20
1619.184521611
30
0.000122390579609188
11
393.797008577463
21
1619.13341035044
31
0.000122291263096841
  0
LINE
 8
GROUP0
10
394.547008577463
20
1621.93244845611
30
0.00012283605702379
11
394.857668749242
21
1621.69407052222
31
0.000122879028485201
  0
LINE
 8
GROUP0
10
395.245897316896
20
1620.24518178278
30
0.000122782294881674
11
395.09604668314
21
1619.88341035044
31
0.000122699255080505
  0
LINE
 8
GROUP0
10
392.497970471787
20
1621.38341035044
30
0.000122275371299807
11
392.736348405684
21
1621.69407052222
31
0.000122372854608344
  0
LINE
 8
GROUP0
10
392.297008577463
20
1620.63341035044
30
0.000122129394223336
11
392.34811983803
21
1621.02163891809
31
0.000122192331498638
  0
LINE
 8
GROUP0
10
395.09604668314
20
1621.38341035044
30
0.00012289530515126
11
395.245897316896
21
1621.02163891809
31
0.000122883777895311
  0
LINE
 8
GROUP0
10
395.297008577463
20
1620.63341035044
30
0.000122845232156976
11
395.245897316896
21
1620.24518178278
31
0.000122782294881674
  0
LINE
 8
GROUP0
10
395.09604668314
20
1619.88341035044
30
0.000122699255080505
11
394.857668749242
21
1619.57275017866
31
0.000122601771771969
  0
LINE
 8
GROUP0
10
392.34811983803
20
1620.24518178278
30
0.000122090848530121
11
392.297008577463
21
1620.63341035044
31
0.000122129394223336
  0
LINE
 8
GROUP0
10
392.736348405684
20
1621.69407052222
30
0.000122372854608344
11
393.047008577463
21
1621.93244845611
31
0.00012247813803441
  0
LINE
 8
GROUP0
10
393.047008577463
20
1621.93244845611
30
0.00012247813803441
11
393.408780009809
21
1622.08229908987
31
0.000122584046771124
  0
LINE
 8
GROUP0
10
394.185237145117
20
1622.08229908987
30
0.000122769319290938
11
394.547008577463
21
1621.93244845611
31
0.00012283605702379
  0
LINE
 8
GROUP0
10
392.34811983803
20
1621.02163891809
30
0.000122192331498638
11
392.497970471787
21
1621.38341035044
31
0.000122275371299807
  0
LINE
 8
GROUP0
10
394.857668749242
20
1621.69407052222
30
0.000122879028485201
11
395.09604668314
21
1621.38341035044
31
0.00012289530515126
  0
LINE
 8
GROUP0
10
393.408780009809
20
1622.08229908987
30
0.000122584046771124
11
393.797008577463
21
1622.13341035044
31
0.000122683363283471
  0
LINE
 8
GROUP0
10
395.245897316896
20
1621.02163891809
30
0.000122883777895311
11
395.297008577463
21
1620.63341035044
31
0.000122845232156976
  0
LINE
 8
GROUP0
10
393.797008577463
20
1622.13341035044
30
0.000122683363283471
11
394.185237145117
21
1622.08229908987
31
0.000122769319290938
  0
LINE
 8
GROUP0
10
35.9318709565897
20
1623.57637460875
30
9.67883935359737e-005
11
39.2965185429225
21
1623.13341035051
31
9.67883935359737e-005
  0
LINE
 8
GROUP0
10
32.7965185429225
20
1624.87508010131
30
9.67883935359737e-005
11
35.9318709565897
21
1623.57637460875
31
9.67883935359737e-005
  0
LINE
 8
GROUP0
10
42.6611661292552
20
1623.57637460875
30
9.67883935359737e-005
11
45.7965185429217
21
1624.87508010131
31
9.67883935359737e-005
  0
LINE
 8
GROUP0
10
28.0381882937243
20
1629.6334103505
30
9.67883935359737e-005
11
30.1041303874973
21
1626.94102219508
31
9.67883935359737e-005
  0
LINE
 8
GROUP0
10
50.5548487921199
20
1629.63341035051
30
9.67883935359737e-005
11
51.8535542846797
21
1632.76876276417
31
9.67883935359737e-005
  0
LINE
 8
GROUP0
10
48.4889066983469
20
1626.94102219508
30
9.67883935359737e-005
11
50.5548487921199
21
1629.63341035051
31
9.67883935359737e-005
  0
LINE
 8
GROUP0
10
45.7965185429217
20
1624.87508010131
30
9.67883935359737e-005
11
48.4889066983469
21
1626.94102219508
31
9.67883935359737e-005
  0
LINE
 8
GROUP0
10
51.8535542846797
20
1632.76876276417
30
9.67883935359737e-005
11
52.2965185429217
21
1636.13341035051
31
9.67883935359737e-005
  0
LINE
 8
GROUP0
10
30.1041303874973
20
1626.94102219508
30
9.67883935359737e-005
11
32.7965185429225
21
1624.87508010131
31
9.67883935359737e-005
  0
LINE
 8
GROUP0
10
50.5548487921191
20
1642.63341035051
30
9.67883935359737e-005
11
48.4889066983462
21
1645.32579850593
31
9.67883935359737e-005
  0
LINE
 8
GROUP0
10
394.547008577463
20
1619.33437224476
30
0.000122496488345902
11
394.185237145117
21
1619.184521611
31
0.000122390579609188
  0
LINE
 8
GROUP0
10
51.8535542846797
20
1639.49805793684
30
9.67883935359737e-005
11
50.5548487921191
21
1642.63341035051
31
9.67883935359737e-005
  0
LINE
 8
GROUP0
10
52.2965185429217
20
1636.13341035051
30
9.67883935359737e-005
11
51.8535542846797
21
1639.49805793684
31
9.67883935359737e-005
  0
LINE
 8
GROUP0
10
394.857668749242
20
1619.57275017866
30
0.000122601771771969
11
394.547008577463
21
1619.33437224476
31
0.000122496488345902
  0
LINE
 8
GROUP0
10
39.2965185429225
20
1623.13341035051
30
9.67883935359737e-005
11
42.6611661292552
21
1623.57637460875
31
9.67883935359737e-005
  0
LINE
 8
GROUP0
10
48.4889066983462
20
1645.32579850593
30
9.67883935359737e-005
11
45.796518542921
21
1647.3917405997
31
9.67883935359737e-005
  0
LINE
 8
GROUP0
10
26.2965185429218
20
1636.1334103505
30
9.67883935359737e-005
11
26.7394828011638
21
1632.76876276417
31
9.67883935359737e-005
  0
LINE
 8
GROUP0
10
35.9318709565882
20
1648.69044609226
30
9.67883935359737e-005
11
32.796518542921
21
1647.3917405997
31
9.67883935359737e-005
  0
LINE
 8
GROUP0
10
26.7394828011638
20
1639.49805793684
30
9.67883935359737e-005
11
26.2965185429218
21
1636.1334103505
31
9.67883935359737e-005
  0
LINE
 8
GROUP0
10
32.796518542921
20
1647.3917405997
30
9.67883935359737e-005
11
30.1041303874966
21
1645.32579850593
31
9.67883935359737e-005
  0
LINE
 8
GROUP0
10
28.0381882937236
20
1642.6334103505
30
9.67883935359737e-005
11
26.7394828011638
21
1639.49805793684
31
9.67883935359737e-005
  0
LINE
 8
GROUP0
10
26.7394828011638
20
1632.76876276417
30
9.67883935359737e-005
11
28.0381882937243
21
1629.6334103505
31
9.67883935359737e-005
  0
LINE
 8
GROUP0
10
30.1041303874966
20
1645.32579850593
30
9.67883935359737e-005
11
28.0381882937236
21
1642.6334103505
31
9.67883935359737e-005
  0
LINE
 8
GROUP0
10
39.296518542921
20
1649.13341035051
30
9.67883935359737e-005
11
35.9318709565882
21
1648.69044609226
31
9.67883935359737e-005
  0
LINE
 8
GROUP0
10
42.6611661292538
20
1648.69044609226
30
9.67883935359737e-005
11
39.296518542921
21
1649.13341035051
31
9.67883935359737e-005
  0
LINE
 8
GROUP0
10
402.797008577455
20
1624.87508010131
30
8.60733524991275e-005
11
405.932360991122
21
1623.57637460875
31
8.60733524991275e-005
  0
LINE
 8
GROUP0
10
396.297008577455
20
1636.13341035051
30
8.60733524991275e-005
11
396.739972835697
21
1632.76876276417
31
8.60733524991275e-005
  0
LINE
 8
GROUP0
10
398.038678328257
20
1629.63341035051
30
8.60733524991275e-005
11
400.10462042203
21
1626.94102219508
31
8.60733524991275e-005
  0
LINE
 8
GROUP0
10
396.739972835697
20
1632.76876276417
30
8.60733524991275e-005
11
398.038678328257
21
1629.63341035051
31
8.60733524991275e-005
  0
LINE
 8
GROUP0
10
400.10462042203
20
1626.94102219508
30
8.60733524991275e-005
11
402.797008577455
21
1624.87508010131
31
8.60733524991275e-005
  0
LINE
 8
GROUP0
10
396.739972835697
20
1639.49805793684
30
8.60733524991275e-005
11
396.297008577455
21
1636.13341035051
31
8.60733524991275e-005
  0
LINE
 8
GROUP0
10
398.038678328256
20
1642.63341035051
30
8.60733524991275e-005
11
396.739972835697
21
1639.49805793684
31
8.60733524991275e-005
  0
LINE
 8
GROUP0
10
45.796518542921
20
1647.3917405997
30
9.67883935359737e-005
11
42.6611661292538
21
1648.69044609226
31
9.67883935359737e-005
  0
LINE
 8
GROUP0
10
409.297008577454
20
1649.13341035051
30
8.60733524991275e-005
11
405.932360991121
21
1648.69044609226
31
8.60733524991275e-005
  0
LINE
 8
GROUP0
10
412.661656163787
20
1648.69044609226
30
8.60733524991275e-005
11
409.297008577454
21
1649.13341035051
31
8.60733524991275e-005
  0
LINE
 8
GROUP0
10
418.489396732879
20
1645.32579850593
30
8.60733524991275e-005
11
415.797008577454
21
1647.3917405997
31
8.60733524991275e-005
  0
LINE
 8
GROUP0
10
420.555338826652
20
1642.63341035051
30
8.60733524991275e-005
11
418.489396732879
21
1645.32579850593
31
8.60733524991275e-005
  0
LINE
 8
GROUP0
10
405.932360991121
20
1648.69044609226
30
8.60733524991275e-005
11
402.797008577454
21
1647.3917405997
31
8.60733524991275e-005
  0
LINE
 8
GROUP0
10
400.104620422029
20
1645.32579850593
30
8.60733524991275e-005
11
398.038678328256
21
1642.63341035051
31
8.60733524991275e-005
  0
LINE
 8
GROUP0
10
402.797008577454
20
1647.3917405997
30
8.60733524991275e-005
11
400.104620422029
21
1645.32579850593
31
8.60733524991275e-005
  0
LINE
 8
GROUP0
10
415.797008577454
20
1647.3917405997
30
8.60733524991275e-005
11
412.661656163787
21
1648.69044609226
31
8.60733524991275e-005
  0
LINE
 8
GROUP0
10
420.555338826653
20
1629.63341035051
30
8.60733524991275e-005
11
421.854044319212
21
1632.76876276417
31
8.60733524991275e-005
  0
LINE
 8
GROUP0
10
415.797008577455
20
1624.87508010131
30
8.60733524991275e-005
11
418.48939673288
21
1626.94102219508
31
8.60733524991275e-005
  0
LINE
 8
GROUP0
10
421.854044319212
20
1639.49805793684
30
8.60733524991275e-005
11
420.555338826652
21
1642.63341035051
31
8.60733524991275e-005
  0
LINE
 8
GROUP0
10
412.661656163788
20
1623.57637460875
30
8.60733524991275e-005
11
415.797008577455
21
1624.87508010131
31
8.60733524991275e-005
  0
LINE
 8
GROUP0
10
409.297008577455
20
1623.13341035051
30
8.60733524991275e-005
11
412.661656163788
21
1623.57637460875
31
8.60733524991275e-005
  0
LINE
 8
GROUP0
10
422.297008577454
20
1636.13341035051
30
8.60733524991275e-005
11
421.854044319212
21
1639.49805793684
31
8.60733524991275e-005
  0
LINE
 8
GROUP0
10
421.854044319212
20
1632.76876276417
30
8.60733524991275e-005
11
422.297008577454
21
1636.13341035051
31
8.60733524991275e-005
  0
LINE
 8
GROUP0
10
418.48939673288
20
1626.94102219508
30
8.60733524991275e-005
11
420.555338826653
21
1629.63341035051
31
8.60733524991275e-005
  0
LINE
 8
GROUP0
10
400.104620422032
20
2015.32628854047
30
7.51298264077604e-005
11
398.038678328259
21
2012.63390038504
31
7.51298264077604e-005
  0
LINE
 8
GROUP0
10
396.297008577457
20
2006.13390038504
30
7.51298264077604e-005
11
396.739972835699
21
2002.76925279871
31
7.51298264077604e-005
  0
LINE
 8
GROUP0
10
402.797008577457
20
2017.39223063424
30
7.51298264077604e-005
11
400.104620422032
21
2015.32628854047
31
7.51298264077604e-005
  0
LINE
 8
GROUP0
10
405.932360991124
20
2018.6909361268
30
7.51298264077604e-005
11
402.797008577457
21
2017.39223063424
31
7.51298264077604e-005
  0
LINE
 8
GROUP0
10
409.297008577457
20
2019.13390038504
30
7.51298264077604e-005
11
405.932360991124
21
2018.6909361268
31
7.51298264077604e-005
  0
LINE
 8
GROUP0
10
405.932360991122
20
1623.57637460875
30
8.60733524991275e-005
11
409.297008577455
21
1623.13341035051
31
8.60733524991275e-005
  0
LINE
 8
GROUP0
10
396.739972835699
20
2009.49854797138
30
7.51298264077604e-005
11
396.297008577457
21
2006.13390038504
31
7.51298264077604e-005
  0
LINE
 8
GROUP0
10
398.038678328259
20
2012.63390038504
30
7.51298264077604e-005
11
396.739972835699
21
2009.49854797138
31
7.51298264077604e-005
  0
LINE
 8
GROUP0
10
418.489396732882
20
2015.32628854047
30
7.51298264077604e-005
11
415.797008577457
21
2017.39223063424
31
7.51298264077604e-005
  0
LINE
 8
GROUP0
10
420.555338826655
20
2012.63390038504
30
7.51298264077604e-005
11
418.489396732882
21
2015.32628854047
31
7.51298264077604e-005
  0
LINE
 8
GROUP0
10
421.854044319215
20
2009.49854797138
30
7.51298264077604e-005
11
420.555338826655
21
2012.63390038504
31
7.51298264077604e-005
  0
LINE
 8
GROUP0
10
412.661656163789
20
2018.6909361268
30
7.51298264077604e-005
11
409.297008577457
21
2019.13390038504
31
7.51298264077604e-005
  0
LINE
 8
GROUP0
10
422.297008577457
20
2006.13390038504
30
7.51298264077604e-005
11
421.854044319215
21
2009.49854797138
31
7.51298264077604e-005
  0
LINE
 8
GROUP0
10
415.797008577457
20
2017.39223063424
30
7.51298264077604e-005
11
412.661656163789
21
2018.6909361268
31
7.51298264077604e-005
  0
LINE
 8
GROUP0
10
421.854044319215
20
2002.76925279871
30
7.51298264077604e-005
11
422.297008577457
21
2006.13390038504
31
7.51298264077604e-005
  0
LINE
 8
GROUP0
10
420.555338826655
20
1999.63390038504
30
7.51298264077604e-005
11
421.854044319215
21
2002.76925279871
31
7.51298264077604e-005
  0
LINE
 8
GROUP0
10
398.03867832826
20
1999.63390038504
30
7.51298264077604e-005
11
400.104620422033
21
1996.94151222962
31
7.51298264077604e-005
  0
LINE
 8
GROUP0
10
405.932360991125
20
1993.57686464328
30
7.51298264077604e-005
11
409.297008577458
21
1993.13390038504
31
7.51298264077604e-005
  0
LINE
 8
GROUP0
10
418.489396732882
20
1996.94151222962
30
7.51298264077604e-005
11
420.555338826655
21
1999.63390038504
31
7.51298264077604e-005
  0
LINE
 8
GROUP0
10
412.661656163791
20
1993.57686464328
30
7.51298264077604e-005
11
415.797008577457
21
1994.87557013584
31
7.51298264077604e-005
  0
LINE
 8
GROUP0
10
409.297008577458
20
1993.13390038504
30
7.51298264077604e-005
11
412.661656163791
21
1993.57686464328
31
7.51298264077604e-005
  0
LINE
 8
GROUP0
10
402.797008577458
20
1994.87557013584
30
7.51298264077604e-005
11
405.932360991125
21
1993.57686464328
31
7.51298264077604e-005
  0
LINE
 8
GROUP0
10
415.797008577457
20
1994.87557013584
30
7.51298264077604e-005
11
418.489396732882
21
1996.94151222962
31
7.51298264077604e-005
  0
LINE
 8
GROUP0
10
400.104620422033
20
1996.94151222962
30
7.51298264077604e-005
11
402.797008577458
21
1994.87557013584
31
7.51298264077604e-005
  0
LINE
 8
GROUP0
10
30.1041303874993
20
2015.32628854047
30
8.58448674446066e-005
11
28.0381882937263
21
2012.63390038504
31
8.58448674446066e-005
  0
LINE
 8
GROUP0
10
26.7394828011665
20
2009.49854797137
30
8.58448674446066e-005
11
26.2965185429245
21
2006.13390038504
31
8.58448674446066e-005
  0
LINE
 8
GROUP0
10
35.931870956591
20
2018.6909361268
30
8.58448674446066e-005
11
32.7965185429238
21
2017.39223063424
31
8.58448674446066e-005
  0
LINE
 8
GROUP0
10
39.2965185429237
20
2019.13390038504
30
8.58448674446066e-005
11
35.931870956591
21
2018.6909361268
31
8.58448674446066e-005
  0
LINE
 8
GROUP0
10
42.6611661292565
20
2018.6909361268
30
8.58448674446066e-005
11
39.2965185429237
21
2019.13390038504
31
8.58448674446066e-005
  0
LINE
 8
GROUP0
10
28.0381882937263
20
2012.63390038504
30
8.58448674446066e-005
11
26.7394828011665
21
2009.49854797137
31
8.58448674446066e-005
  0
LINE
 8
GROUP0
10
396.739972835699
20
2002.76925279871
30
7.51298264077604e-005
11
398.03867832826
21
1999.63390038504
31
7.51298264077604e-005
  0
LINE
 8
GROUP0
10
32.7965185429238
20
2017.39223063424
30
8.58448674446066e-005
11
30.1041303874993
21
2015.32628854047
31
8.58448674446066e-005
  0
LINE
 8
GROUP0
10
48.4889066983497
20
1996.94151222962
30
8.58448674446066e-005
11
50.5548487921226
21
1999.63390038504
31
8.58448674446066e-005
  0
LINE
 8
GROUP0
10
48.4889066983489
20
2015.32628854047
30
8.58448674446066e-005
11
45.7965185429237
21
2017.39223063424
31
8.58448674446066e-005
  0
LINE
 8
GROUP0
10
50.5548487921226
20
1999.63390038504
30
8.58448674446066e-005
11
51.8535542846824
21
2002.76925279871
31
8.58448674446066e-005
  0
LINE
 8
GROUP0
10
45.7965185429237
20
2017.39223063424
30
8.58448674446066e-005
11
42.6611661292565
21
2018.6909361268
31
8.58448674446066e-005
  0
LINE
 8
GROUP0
10
50.5548487921219
20
2012.63390038504
30
8.58448674446066e-005
11
48.4889066983489
21
2015.32628854047
31
8.58448674446066e-005
  0
LINE
 8
GROUP0
10
52.2965185429244
20
2006.13390038504
30
8.58448674446066e-005
11
51.8535542846824
21
2009.49854797137
31
8.58448674446066e-005
  0
LINE
 8
GROUP0
10
51.8535542846824
20
2009.49854797137
30
8.58448674446066e-005
11
50.5548487921219
21
2012.63390038504
31
8.58448674446066e-005
  0
LINE
 8
GROUP0
10
51.8535542846824
20
2002.76925279871
30
8.58448674446066e-005
11
52.2965185429244
21
2006.13390038504
31
8.58448674446066e-005
  0
LINE
 8
GROUP0
10
107.546763564678
20
1988.88366581052
30
7.07341772130832e-005
11
77.5467635646789
21
1988.88366581052
31
6.41758690573369e-005
  0
LINE
 8
GROUP0
10
77.5467635646789
20
1988.88366581052
30
6.41758690573369e-005
11
77.5467635646789
21
2033.88366581052
31
6.41758690573369e-005
  0
LINE
 8
GROUP0
10
31.5467635646779
20
2033.88366581052
30
6.48461994998684e-005
11
77.5467635646789
21
2033.88366581052
31
6.41758690573369e-005
  0
LINE
 8
GROUP0
10
107.546763564678
20
2033.88366581052
30
7.06780948927843e-005
11
107.546763564678
21
1988.88366581052
31
7.07341772130832e-005
  0
LINE
 8
GROUP0
10
107.546763564678
20
2033.88366581052
30
7.06780948927843e-005
11
341.046805472571
21
2033.88366581053
31
0.000133048210956233
  0
LINE
 8
GROUP0
10
371.046805472569
20
2033.88366581053
30
0.000136951845844635
11
417.046805472567
21
2033.88366581053
31
0.000139867106123503
  0
LINE
 8
GROUP0
10
341.046805472571
20
1988.88366581053
30
0.000133048210956233
11
341.046805472571
21
2033.88366581053
31
0.000133048210956233
  0
LINE
 8
GROUP0
10
23.7965185429224
20
1650.1334103505
30
9.71463121192784e-005
11
23.4082899752685
21
1650.18452161106
31
9.70833748439759e-005
  0
LINE
 8
GROUP0
10
23.4082899752685
20
1650.18452161106
30
9.70833748439759e-005
11
23.0465185429211
21
1650.33437224482
31
9.70003350428072e-005
  0
LINE
 8
GROUP0
10
31.5467635646779
20
2033.88366581052
30
6.48461994998684e-005
11
11.5467635646795
21
2013.88366581052
31
5.8983005095925e-005
  0
LINE
 8
GROUP0
10
23.0465185429211
20
1650.33437224482
30
9.70003350428072e-005
11
22.7358583711418
21
1650.57275017872
31
9.69028517342707e-005
  0
LINE
 8
GROUP0
10
22.7358583711418
20
1650.57275017872
30
9.69028517342707e-005
11
22.4974804372445
21
1650.8834103505
31
9.67975683082045e-005
  0
LINE
 8
GROUP0
10
417.046805472567
20
2033.88366581053
30
0.000139867106123503
11
437.046805472568
21
2013.88366581053
31
0.000141044543964597
  0
LINE
 8
GROUP0
10
417.046806904262
20
1608.38364358129
30
0.000116262322884353
11
31.5467635646939
21
1608.3836428498
31
1.07912595872506e-006
  0
LINE
 8
GROUP0
10
11.5467635646956
20
1628.38364279708
30
0.0
11
31.5467635646939
21
1608.3836428498
31
1.07912595872506e-006
  0
LINE
 8
GROUP0
10
24.1847471105763
20
1650.18452161106
30
9.71848578576129e-005
11
23.7965185429224
21
1650.1334103505
31
9.71463121192784e-005
  0
LINE
 8
GROUP0
10
11.5467635646956
20
1628.38364279708
30
0.0
11
11.5467635646795
21
2013.88366581052
31
5.8983005095925e-005
  0
LINE
 8
GROUP0
10
437.046805472568
20
2013.88366581053
30
0.000141044543964597
11
437.046805472584
21
1628.38364279709
31
0.000124913596627607
  0
LINE
 8
GROUP0
10
371.046805472569
20
2033.88366581053
30
0.000136951845844635
11
371.046805472569
21
1988.88366581053
31
0.000139576610412107
  0
LINE
 8
GROUP0
10
371.046805472569
20
1988.88366581053
30
0.000139576610412107
11
341.046805472571
21
1988.88366581053
31
0.000133048210956233
  0
LINE
 8
GROUP0
10
437.046805472584
20
1628.38364279709
30
0.000124913596627607
11
417.046806904262
21
1608.38364358129
31
0.000116262322884353
  0
LINE
 8
GROUP0
10
22.347629803488
20
1651.24518178284
30
9.66916595714906e-005
11
22.2965185429227
21
1651.6334103505
31
9.65923430591431e-005
  0
LINE
 8
GROUP0
10
22.2965185429227
20
1651.6334103505
30
9.65923430591431e-005
11
22.347629803488
21
1652.02163891815
31
9.65063870967953e-005
  0
LINE
 8
GROUP0
10
22.347629803488
20
1652.02163891815
30
9.65063870967953e-005
11
22.4974804372445
21
1652.3834103505
31
9.64396493188247e-005
  0
LINE
 8
GROUP0
10
23.0465185429211
20
1652.93244845617
30
9.63804011913538e-005
11
23.4082899752685
21
1653.08229908993
31
9.63919284924231e-005
  0
LINE
 8
GROUP0
10
22.4974804372445
20
1650.8834103505
30
9.67975683082045e-005
11
22.347629803488
21
1651.24518178284
31
9.66916595714906e-005
  0
LINE
 8
GROUP0
10
23.4082899752685
20
1653.08229908993
30
9.63919284924231e-005
11
23.7965185429224
21
1653.1334103505
31
9.64304741856381e-005
  0
LINE
 8
GROUP0
10
22.7358583711418
20
1652.69407052228
30
9.63966779025327e-005
11
23.0465185429211
21
1652.93244845617
31
9.63804011913538e-005
  0
LINE
 8
GROUP0
10
23.7965185429224
20
1653.1334103505
30
9.64304741856381e-005
11
24.1847471105763
21
1653.08229908993
31
9.64934114609406e-005
  0
LINE
 8
GROUP0
10
22.4974804372445
20
1652.3834103505
30
9.64396493188247e-005
11
22.7358583711418
21
1652.69407052228
31
9.63966779025327e-005
 0
ENDSEC
 0
EOF
