 0
SECTION
 2
ENTITIES
  0
LINE
 8
GROUP0
10
-447.961252838611
20
1816.68237120704
30
1.9763858593369e-005
11
-447.650592666832
21
1816.44399327314
31
1.97802344446996e-005
  0
LINE
 8
GROUP0
10
-450.211252838612
20
1815.38333310136
30
1.97847036847942e-005
11
-450.160141578045
21
1815.77156166902
31
1.97676964133586e-005
  0
LINE
 8
GROUP0
10
-452.711254024695
20
1838.38333310136
30
1.96374630772211e-005
11
-334.711254024698
21
1838.38333310136
31
2.07470681924782e-005
  0
LINE
 8
GROUP0
10
-452.711254024695
20
1805.38333310136
30
1.88522474991071e-005
11
-452.711254024695
21
1838.38333310136
31
1.96374630772211e-005
  0
LINE
 8
GROUP0
10
-450.010290944287
20
1816.13333310136
30
1.97536213275618e-005
11
-449.771913010392
21
1816.44399327314
31
1.97434376270178e-005
  0
LINE
 8
GROUP0
10
-334.711254024698
20
1805.38333310136
30
1.99618526143641e-005
11
-452.711254024695
21
1805.38333310136
31
1.88522474991071e-005
  0
LINE
 8
GROUP0
10
-448.711252838612
20
1816.88333310136
30
1.97415864092609e-005
11
-448.323024270958
21
1816.83222184079
31
1.97506764675837e-005
  0
LINE
 8
GROUP0
10
-449.461252838612
20
1816.68237120704
30
1.9737839313233e-005
11
-449.099481406266
21
1816.83222184079
31
1.97372078973579e-005
  0
LINE
 8
GROUP0
10
-450.160141578045
20
1815.77156166902
30
1.97676964133586e-005
11
-450.010290944287
21
1816.13333310136
31
1.97536213275618e-005
  0
LINE
 8
GROUP0
10
-449.771913010392
20
1816.44399327314
30
1.97434376270178e-005
11
-449.461252838612
21
1816.68237120704
31
1.9737839313233e-005
  0
LINE
 8
GROUP0
10
-447.650592666832
20
1816.44399327314
30
1.97802344446996e-005
11
-447.412214732935
21
1816.13333310136
31
1.97986880423995e-005
  0
LINE
 8
GROUP0
10
-448.323024270958
20
1816.83222184079
30
1.97506764675837e-005
11
-447.961252838611
21
1816.68237120704
31
1.9763858593369e-005
  0
LINE
 8
GROUP0
10
-447.412214732935
20
1816.13333310136
30
1.97986880423995e-005
11
-447.262364099178
21
1815.77156166901
31
1.98179618005612e-005
  0
LINE
 8
GROUP0
10
-447.262364099178
20
1815.77156166901
30
1.98179618005612e-005
11
-447.211252838611
21
1815.38333310136
31
1.98367422457713e-005
  0
LINE
 8
GROUP0
10
-334.711254024698
20
1838.38333310136
30
2.07470681924782e-005
11
-334.711254024698
21
1805.38333310136
31
1.99618526143641e-005
  0
LINE
 8
GROUP0
10
-449.099481406266
20
1816.83222184079
30
1.97372078973579e-005
11
-448.711252838612
21
1816.88333310136
31
1.97415864092609e-005
  0
LINE
 8
GROUP0
10
-447.650592666832
20
1814.32267292958
30
1.98780083007277e-005
11
-447.961252838612
21
1814.08429499568
31
1.98836066173325e-005
  0
LINE
 8
GROUP0
10
-447.262364099178
20
1814.99510453371
30
1.98537495179119e-005
11
-447.412214732935
21
1814.63333310136
31
1.98678246001838e-005
  0
LINE
 8
GROUP0
10
-447.211252838611
20
1815.38333310136
30
1.98367422457713e-005
11
-447.262364099178
21
1814.99510453371
31
1.98537495179119e-005
  0
LINE
 8
GROUP0
10
-447.412214732935
20
1814.63333310136
30
1.98678246001838e-005
11
-447.650592666832
21
1814.32267292958
31
1.98780083007277e-005
  0
LINE
 8
GROUP0
10
-512.157180329261
20
1937.56239428154
30
2.49402009534827e-005
11
-512.007329695505
21
1937.2006228492
31
2.49450559431375e-005
  0
LINE
 8
GROUP0
10
-513.456218434939
20
1938.31239428154
30
2.49529966451611e-005
11
-513.067989867282
21
1938.26128302097
31
2.49451926868371e-005
  0
LINE
 8
GROUP0
10
-513.067989867282
20
1938.26128302097
30
2.49451926868371e-005
11
-512.706218434938
21
1938.11143238722
31
2.49402717367564e-005
  0
LINE
 8
GROUP0
10
-512.706218434938
20
1938.11143238722
30
2.49402717367564e-005
11
-512.395558263156
21
1937.87305445332
31
2.49385691495629e-005
  0
LINE
 8
GROUP0
10
-512.395558263156
20
1937.87305445332
30
2.49385691495629e-005
11
-512.157180329261
21
1937.56239428154
31
2.49402009534827e-005
  0
LINE
 8
GROUP0
10
-512.007329695505
20
1937.2006228492
30
2.49450559431375e-005
11
-511.95621843494
21
1936.81239428155
31
2.49528032610247e-005
  0
LINE
 8
GROUP0
10
-508.72522319753
20
2031.43112398196
30
2.27017824691034e-005
11
-508.336994629878
21
2031.48223524253
31
2.26916273298849e-005
  0
LINE
 8
GROUP0
10
-507.948766062224
20
2031.43112398196
30
2.26838233715609e-005
11
-507.586994629879
21
2031.2812733482
31
2.26789024214802e-005
  0
LINE
 8
GROUP0
10
-506.888105890443
20
2030.37046381018
30
2.26836866278612e-005
11
-506.836994629872
21
2029.98223524253
31
2.26914339450435e-005
  0
LINE
 8
GROUP0
10
-506.836994629872
20
2029.98223524253
30
2.26914339450435e-005
11
-506.888105890443
21
2029.59400667488
31
2.27015456229385e-005
  0
LINE
 8
GROUP0
10
-509.086994629873
20
2031.2812733482
30
2.27135967341918e-005
11
-508.72522319753
21
2031.43112398196
31
2.27017824691034e-005
  0
LINE
 8
GROUP0
10
-507.276334458096
20
2031.04289541431
30
2.26771998335817e-005
11
-507.0379565242
21
2030.73223524253
31
2.26788316375015e-005
  0
LINE
 8
GROUP0
10
-507.0379565242
20
2030.73223524253
30
2.26788316375015e-005
11
-506.888105890443
21
2030.37046381018
31
2.26836866278612e-005
  0
LINE
 8
GROUP0
10
-509.397654801655
20
2031.04289541431
30
2.27262650014548e-005
11
-509.086994629873
21
2031.2812733482
31
2.27135967341918e-005
  0
LINE
 8
GROUP0
10
-506.888105890443
20
2029.59400667488
30
2.27015456229385e-005
11
-507.037956524203
21
2029.23223524253
31
2.27133325660767e-005
  0
LINE
 8
GROUP0
10
-507.037956524203
20
2029.23223524253
30
2.27133325660767e-005
11
-507.276334458097
21
2028.92157507075
31
2.27259915147604e-005
  0
LINE
 8
GROUP0
10
-507.276334458097
20
2028.92157507075
30
2.27259915147604e-005
11
-507.586994629878
21
2028.68319713685
31
2.27386597827284e-005
  0
LINE
 8
GROUP0
10
-509.785883369312
20
2030.37046381018
30
2.27507108932767e-005
11
-509.636032735553
21
2030.73223524252
31
2.27389239494336e-005
  0
LINE
 8
GROUP0
10
-508.336994629878
20
2031.48223524253
30
2.26916273298849e-005
11
-507.948766062224
21
2031.43112398196
31
2.26838233715609e-005
  0
LINE
 8
GROUP0
10
-507.586994629879
20
2031.2812733482
30
2.26789024214802e-005
11
-507.276334458096
21
2031.04289541431
31
2.26771998335817e-005
  0
LINE
 8
GROUP0
10
-509.636032735553
20
2030.73223524252
30
2.27389239494336e-005
11
-509.397654801655
21
2031.04289541431
31
2.27262650014548e-005
  0
LINE
 8
GROUP0
10
-508.336994629876
20
2028.48223524253
30
2.27606291863303e-005
11
-508.72522319753
21
2028.53334650309
31
2.27684331453593e-005
  0
LINE
 8
GROUP0
10
-512.157180329258
20
1936.06239428154
30
2.49747018813529e-005
11
-512.395558263153
21
1935.75173410977
31
2.49873608307416e-005
  0
LINE
 8
GROUP0
10
-514.516878606717
20
1935.75173410977
30
2.50364259979097e-005
11
-514.755256540614
21
1936.06239428155
31
2.50347941939899e-005
  0
LINE
 8
GROUP0
10
-507.948766062225
20
2028.53334650309
30
2.27504740471118e-005
11
-508.336994629876
21
2028.48223524253
31
2.27606291863303e-005
  0
LINE
 8
GROUP0
10
-512.395558263153
20
1935.75173410977
30
2.49873608307416e-005
11
-512.706218434937
21
1935.51335617586
31
2.50000290980046e-005
  0
LINE
 8
GROUP0
10
-509.086994629875
20
2028.68319713686
30
2.2773354094735e-005
11
-509.397654801654
21
2028.92157507075
31
2.27750566826335e-005
  0
LINE
 8
GROUP0
10
-511.95621843494
20
1936.81239428155
30
2.49528032610247e-005
11
-512.007329695508
21
1936.42416571389
31
2.49629149382147e-005
  0
LINE
 8
GROUP0
10
-512.007329695508
20
1936.42416571389
30
2.49629149382147e-005
11
-512.157180329258
21
1936.06239428154
31
2.49747018813529e-005
  0
LINE
 8
GROUP0
10
-512.706218434937
20
1935.51335617586
30
2.50000290980046e-005
11
-513.067989867284
21
1935.36350554211
31
2.5011843362388e-005
  0
LINE
 8
GROUP0
10
-513.067989867284
20
1935.36350554211
30
2.5011843362388e-005
11
-513.456218434941
21
1935.31239428155
31
2.50219985023115e-005
  0
LINE
 8
GROUP0
10
-508.72522319753
20
2028.53334650309
30
2.27684331453593e-005
11
-509.086994629875
21
2028.68319713686
31
2.2773354094735e-005
  0
LINE
 8
GROUP0
10
-513.456218434941
20
1935.31239428155
30
2.50219985023115e-005
11
-513.844447002592
21
1935.36350554211
31
2.50298024606355e-005
  0
LINE
 8
GROUP0
10
-507.586994629878
20
2028.68319713685
30
2.27386597827284e-005
11
-507.948766062225
21
2028.53334650309
31
2.27504740471118e-005
  0
LINE
 8
GROUP0
10
-513.844447002592
20
1935.36350554211
30
2.50298024606355e-005
11
-514.206218434936
21
1935.51335617586
31
2.50347234107162e-005
  0
LINE
 8
GROUP0
10
-514.206218434936
20
1935.51335617586
30
2.50347234107162e-005
11
-514.516878606717
21
1935.75173410977
31
2.50364259979097e-005
  0
LINE
 8
GROUP0
10
-513.844447002593
20
1938.26128302098
30
2.49631517843796e-005
11
-513.456218434939
21
1938.31239428154
31
2.49529966451611e-005
  0
LINE
 8
GROUP0
10
-514.755256540614
20
1937.56239428154
30
2.50002932654148e-005
11
-514.516878606717
21
1937.87305445332
31
2.4987634316731e-005
  0
LINE
 8
GROUP0
10
-514.905107174371
20
1936.42416571389
30
2.50299392029252e-005
11
-514.956218434933
21
1936.81239428155
31
2.50221918864479e-005
  0
LINE
 8
GROUP0
10
-514.755256540614
20
1936.06239428155
30
2.50347941939899e-005
11
-514.905107174371
21
1936.42416571389
31
2.50299392029252e-005
  0
LINE
 8
GROUP0
10
-514.956218434933
20
1936.81239428155
30
2.50221918864479e-005
11
-514.905107174371
21
1937.2006228492
31
2.50120802085529e-005
  0
LINE
 8
GROUP0
10
-514.206218434935
20
1938.11143238722
30
2.4974966049468e-005
11
-513.844447002593
21
1938.26128302098
31
2.49631517843796e-005
  0
LINE
 8
GROUP0
10
-514.905107174371
20
1937.2006228492
30
2.50120802085529e-005
11
-514.755256540614
21
1937.56239428154
31
2.50002932654148e-005
  0
LINE
 8
GROUP0
10
-514.516878606717
20
1937.87305445332
30
2.4987634316731e-005
11
-514.206218434935
21
1938.11143238722
31
2.4974966049468e-005
  0
LINE
 8
GROUP0
10
-237.331838733223
20
1911.5842938096
30
2.75333208877848e-005
11
-237.021178561444
21
1911.82267174349
31
2.75333208877848e-005
  0
LINE
 8
GROUP0
10
-238.081838733223
20
1911.38333191527
30
2.75333208877848e-005
11
-237.693610165569
21
1911.43444317584
31
2.75333208877848e-005
  0
LINE
 8
GROUP0
10
-237.693610165569
20
1911.43444317584
30
2.75333208877848e-005
11
-237.331838733223
21
1911.5842938096
31
2.75333208877848e-005
  0
LINE
 8
GROUP0
10
-238.470067300877
20
1911.43444317584
30
2.75333208877848e-005
11
-238.081838733223
21
1911.38333191527
31
2.75333208877848e-005
  0
LINE
 8
GROUP0
10
-239.142498905002
20
1911.82267174349
30
2.75333208877848e-005
11
-238.831838733223
21
1911.5842938096
31
2.75333208877848e-005
  0
LINE
 8
GROUP0
10
-239.530727472656
20
1912.49510334762
30
2.75333208877848e-005
11
-239.380876838899
21
1912.13333191527
31
2.75333208877848e-005
  0
LINE
 8
GROUP0
10
-238.831838733223
20
1911.5842938096
30
2.75333208877848e-005
11
-238.470067300877
21
1911.43444317584
31
2.75333208877848e-005
  0
LINE
 8
GROUP0
10
-239.380876838899
20
1912.13333191527
30
2.75333208877848e-005
11
-239.142498905002
21
1911.82267174349
31
2.75333208877848e-005
  0
LINE
 8
GROUP0
10
-239.581838733222
20
1912.88333191527
30
2.75333208877848e-005
11
-239.530727472656
21
1912.49510334762
31
2.75333208877848e-005
  0
LINE
 8
GROUP0
10
-239.142498905002
20
1913.94399208705
30
2.75333208877848e-005
11
-239.380876838899
21
1913.63333191527
31
2.75333208877848e-005
  0
LINE
 8
GROUP0
10
-238.831838733223
20
1914.18237002095
30
2.75333208877848e-005
11
-239.142498905002
21
1913.94399208705
31
2.75333208877848e-005
  0
LINE
 8
GROUP0
10
-239.380876838899
20
1913.63333191527
30
2.75333208877848e-005
11
-239.530727472656
21
1913.27156048293
31
2.75333208877848e-005
  0
LINE
 8
GROUP0
10
-239.530727472656
20
1913.27156048293
30
2.75333208877848e-005
11
-239.581838733222
21
1912.88333191527
31
2.75333208877848e-005
  0
LINE
 8
GROUP0
10
-373.331838733224
20
1914.18237002095
30
2.75333208877848e-005
11
-373.69361016557
21
1914.33222065471
31
2.75333208877848e-005
  0
LINE
 8
GROUP0
10
-374.831838733223
20
1914.18237002095
30
2.75333208877848e-005
11
-375.142498905004
21
1913.94399208705
31
2.75333208877848e-005
  0
LINE
 8
GROUP0
10
-373.331838733224
20
1911.58429380959
30
2.75333208877848e-005
11
-373.021178561443
21
1911.82267174349
31
2.75333208877848e-005
  0
LINE
 8
GROUP0
10
-375.142498905004
20
1913.94399208705
30
2.75333208877848e-005
11
-375.3808768389
21
1913.63333191527
31
2.75333208877848e-005
  0
LINE
 8
GROUP0
10
-375.3808768389
20
1913.63333191527
30
2.75333208877848e-005
11
-375.530727472657
21
1913.27156048293
31
2.75333208877848e-005
  0
LINE
 8
GROUP0
10
-373.021178561443
20
1913.94399208705
30
2.75333208877848e-005
11
-373.331838733224
21
1914.18237002095
31
2.75333208877848e-005
  0
LINE
 8
GROUP0
10
-372.632949993791
20
1913.27156048293
30
2.75333208877848e-005
11
-372.782800627547
21
1913.63333191527
31
2.75333208877848e-005
  0
LINE
 8
GROUP0
10
-375.530727472657
20
1913.27156048293
30
2.75333208877848e-005
11
-375.581838733223
21
1912.88333191527
31
2.75333208877848e-005
  0
LINE
 8
GROUP0
10
-373.69361016557
20
1914.33222065471
30
2.75333208877848e-005
11
-374.081838733224
21
1914.38333191527
31
2.75333208877848e-005
  0
LINE
 8
GROUP0
10
-372.581838733224
20
1912.88333191527
30
2.75333208877848e-005
11
-372.632949993791
21
1913.27156048293
31
2.75333208877848e-005
  0
LINE
 8
GROUP0
10
-372.782800627547
20
1912.13333191527
30
2.75333208877848e-005
11
-372.632949993791
21
1912.49510334762
31
2.75333208877848e-005
  0
LINE
 8
GROUP0
10
-373.021178561443
20
1911.82267174349
30
2.75333208877848e-005
11
-372.782800627547
21
1912.13333191527
31
2.75333208877848e-005
  0
LINE
 8
GROUP0
10
-372.782800627547
20
1913.63333191527
30
2.75333208877848e-005
11
-373.021178561443
21
1913.94399208705
31
2.75333208877848e-005
  0
LINE
 8
GROUP0
10
-372.632949993791
20
1912.49510334762
30
2.75333208877848e-005
11
-372.581838733224
21
1912.88333191527
31
2.75333208877848e-005
  0
LINE
 8
GROUP0
10
-374.470067300878
20
1914.33222065471
30
2.75333208877848e-005
11
-374.831838733223
21
1914.18237002095
31
2.75333208877848e-005
  0
LINE
 8
GROUP0
10
-374.081838733224
20
1914.38333191527
30
2.75333208877848e-005
11
-374.470067300878
21
1914.33222065471
31
2.75333208877848e-005
  0
LINE
 8
GROUP0
10
-375.530727472657
20
1912.49510334762
30
2.75333208877848e-005
11
-375.3808768389
21
1912.13333191527
31
2.75333208877848e-005
  0
LINE
 8
GROUP0
10
-374.081838733224
20
2009.38333191527
30
2.75333208877848e-005
11
-374.470067300878
21
2009.3322206547
31
2.75333208877848e-005
  0
LINE
 8
GROUP0
10
-373.331838733224
20
2009.18237002095
30
2.75333208877848e-005
11
-373.69361016557
21
2009.3322206547
31
2.75333208877848e-005
  0
LINE
 8
GROUP0
10
-373.69361016557
20
1911.43444317584
30
2.75333208877848e-005
11
-373.331838733224
21
1911.58429380959
31
2.75333208877848e-005
  0
LINE
 8
GROUP0
10
-374.081838733224
20
1911.38333191527
30
2.75333208877848e-005
11
-373.69361016557
21
1911.43444317584
31
2.75333208877848e-005
  0
LINE
 8
GROUP0
10
-375.3808768389
20
1912.13333191527
30
2.75333208877848e-005
11
-375.142498905004
21
1911.82267174349
31
2.75333208877848e-005
  0
LINE
 8
GROUP0
10
-374.831838733223
20
2009.18237002095
30
2.75333208877848e-005
11
-375.142498905004
21
2008.94399208705
31
2.75333208877848e-005
  0
LINE
 8
GROUP0
10
-375.142498905004
20
1911.82267174349
30
2.75333208877848e-005
11
-374.831838733223
21
1911.58429380959
31
2.75333208877848e-005
  0
LINE
 8
GROUP0
10
-373.021178561443
20
2008.94399208705
30
2.75333208877848e-005
11
-373.331838733224
21
2009.18237002095
31
2.75333208877848e-005
  0
LINE
 8
GROUP0
10
-374.470067300878
20
2009.3322206547
30
2.75333208877848e-005
11
-374.831838733223
21
2009.18237002095
31
2.75333208877848e-005
  0
LINE
 8
GROUP0
10
-373.69361016557
20
2009.3322206547
30
2.75333208877848e-005
11
-374.081838733224
21
2009.38333191527
31
2.75333208877848e-005
  0
LINE
 8
GROUP0
10
-375.581838733223
20
1912.88333191527
30
2.75333208877848e-005
11
-375.530727472657
21
1912.49510334762
31
2.75333208877848e-005
  0
LINE
 8
GROUP0
10
-372.782800627547
20
2008.63333191527
30
2.75333208877848e-005
11
-373.021178561443
21
2008.94399208705
31
2.75333208877848e-005
  0
LINE
 8
GROUP0
10
-374.470067300878
20
1911.43444317584
30
2.75333208877848e-005
11
-374.081838733224
21
1911.38333191527
31
2.75333208877848e-005
  0
LINE
 8
GROUP0
10
-372.632949993791
20
2008.27156048293
30
2.75333208877848e-005
11
-372.782800627547
21
2008.63333191527
31
2.75333208877848e-005
  0
LINE
 8
GROUP0
10
-374.831838733223
20
1911.58429380959
30
2.75333208877848e-005
11
-374.470067300878
21
1911.43444317584
31
2.75333208877848e-005
  0
LINE
 8
GROUP0
10
-375.142498905004
20
2006.82267174349
30
2.75333208877848e-005
11
-374.831838733223
21
2006.58429380959
31
2.75333208877848e-005
  0
LINE
 8
GROUP0
10
-375.3808768389
20
2007.13333191527
30
2.75333208877848e-005
11
-375.142498905004
21
2006.82267174349
31
2.75333208877848e-005
  0
LINE
 8
GROUP0
10
-375.530727472657
20
2008.27156048293
30
2.75333208877848e-005
11
-375.581838733223
21
2007.88333191527
31
2.75333208877848e-005
  0
LINE
 8
GROUP0
10
-375.3808768389
20
2008.63333191527
30
2.75333208877848e-005
11
-375.530727472657
21
2008.27156048293
31
2.75333208877848e-005
  0
LINE
 8
GROUP0
10
-373.331838733224
20
2006.58429380959
30
2.75333208877848e-005
11
-373.021178561443
21
2006.82267174349
31
2.75333208877848e-005
  0
LINE
 8
GROUP0
10
-372.782800627547
20
2007.13333191527
30
2.75333208877848e-005
11
-372.632949993791
21
2007.49510334762
31
2.75333208877848e-005
  0
LINE
 8
GROUP0
10
-374.831838733223
20
2006.58429380959
30
2.75333208877848e-005
11
-374.470067300878
21
2006.43444317584
31
2.75333208877848e-005
  0
LINE
 8
GROUP0
10
-373.69361016557
20
2006.43444317584
30
2.75333208877848e-005
11
-373.331838733224
21
2006.58429380959
31
2.75333208877848e-005
  0
LINE
 8
GROUP0
10
-375.530727472657
20
2007.49510334762
30
2.75333208877848e-005
11
-375.3808768389
21
2007.13333191527
31
2.75333208877848e-005
  0
LINE
 8
GROUP0
10
-375.142498905004
20
2008.94399208705
30
2.75333208877848e-005
11
-375.3808768389
21
2008.63333191527
31
2.75333208877848e-005
  0
LINE
 8
GROUP0
10
-375.581838733223
20
2007.88333191527
30
2.75333208877848e-005
11
-375.530727472657
21
2007.49510334762
31
2.75333208877848e-005
  0
LINE
 8
GROUP0
10
-372.581838733224
20
2007.88333191527
30
2.75333208877848e-005
11
-372.632949993791
21
2008.27156048293
31
2.75333208877848e-005
  0
LINE
 8
GROUP0
10
-373.021178561443
20
2006.82267174349
30
2.75333208877848e-005
11
-372.782800627547
21
2007.13333191527
31
2.75333208877848e-005
  0
LINE
 8
GROUP0
10
-372.632949993791
20
2007.49510334762
30
2.75333208877848e-005
11
-372.581838733224
21
2007.88333191527
31
2.75333208877848e-005
  0
LINE
 8
GROUP0
10
-374.081838733224
20
2006.38333191527
30
2.75333208877848e-005
11
-373.69361016557
21
2006.43444317584
31
2.75333208877848e-005
  0
LINE
 8
GROUP0
10
-374.470067300878
20
2006.43444317584
30
2.75333208877848e-005
11
-374.081838733224
21
2006.38333191527
31
2.75333208877848e-005
  0
LINE
 8
GROUP0
10
-517.455825514695
20
2039.19683093218
30
2.38068808175618e-005
11
-411.44466148138
21
2039.19683093218
31
2.48037497146247e-005
  0
LINE
 8
GROUP0
10
-415.843875515025
20
2035.44858234685
30
2.04610754268253e-005
11
-416.082253448922
21
2035.75924251863
31
2.04594436229055e-005
  0
LINE
 8
GROUP0
10
-416.232104082676
20
2036.12101395097
30
2.04545886325458e-005
11
-416.283215343244
21
2036.50924251863
31
2.04468413153636e-005
  0
LINE
 8
GROUP0
10
-416.283215343244
20
2036.50924251863
30
2.04468413153636e-005
11
-416.232104082676
21
2036.89747108628
31
2.04367296374686e-005
  0
LINE
 8
GROUP0
10
-416.232104082676
20
2036.89747108628
30
2.04367296374686e-005
11
-416.082253448922
21
2037.25924251863
31
2.04249426943304e-005
  0
LINE
 8
GROUP0
10
-411.44466148138
20
1908.6970716254
30
2.16985847480533e-005
11
-517.455825514695
21
1908.6970716254
31
2.07017158502854e-005
  0
LINE
 8
GROUP0
10
-416.082253448922
20
2037.25924251863
30
2.04249426943304e-005
11
-415.843875515025
21
2037.56990269041
31
2.04122837456466e-005
  0
LINE
 8
GROUP0
10
-414.394986775591
20
2035.06035377919
30
2.04364927920087e-005
11
-414.783215343245
21
2035.00924251863
31
2.04466479312271e-005
  0
LINE
 8
GROUP0
10
-411.44466148138
20
2039.19683093218
30
2.48037497146247e-005
11
-411.44466148138
21
1908.6970716254
31
2.16985847480533e-005
  0
LINE
 8
GROUP0
10
-415.533215343243
20
2035.21020441295
30
2.04593728396318e-005
11
-415.843875515025
21
2035.44858234685
31
2.04610754268253e-005
  0
LINE
 8
GROUP0
10
-517.455825514695
20
1908.6970716254
30
2.07017158502854e-005
11
-517.455825514695
21
2039.19683093218
31
2.38068808175618e-005
  0
LINE
 8
GROUP0
10
-415.171443910897
20
2035.0603537792
30
2.04544518895511e-005
11
-415.533215343243
21
2035.21020441295
31
2.04593728396318e-005
  0
LINE
 8
GROUP0
10
-416.082253448922
20
2035.75924251863
30
2.04594436229055e-005
11
-416.232104082676
21
2036.12101395097
31
2.04545886325458e-005
  0
LINE
 8
GROUP0
10
-414.783215343245
20
2035.00924251863
30
2.04466479312271e-005
11
-415.171443910897
21
2035.0603537792
31
2.04544518895511e-005
  0
LINE
 8
GROUP0
10
-413.334326603812
20
2036.12101395097
30
2.03875643671303e-005
11
-413.48417723757
21
2035.75924251862
31
2.03993513102685e-005
  0
LINE
 8
GROUP0
10
-415.533215343244
20
2037.8082806243
30
2.03996154783836e-005
11
-415.171443910898
21
2037.95813125806
31
2.03878012132952e-005
  0
LINE
 8
GROUP0
10
-414.783215343243
20
2038.00924251862
30
2.03776460740768e-005
11
-414.394986775586
21
2037.95813125806
31
2.03698421157528e-005
  0
LINE
 8
GROUP0
10
-413.334326603812
20
2036.89747108628
30
2.03697053720531e-005
11
-413.283215343245
21
2036.50924251863
31
2.03774526899403e-005
  0
LINE
 8
GROUP0
10
-413.283215343245
20
2036.50924251863
30
2.03774526899403e-005
11
-413.334326603812
21
2036.12101395097
31
2.03875643671303e-005
  0
LINE
 8
GROUP0
10
-415.171443910898
20
2037.95813125806
30
2.03878012132952e-005
11
-414.783215343243
21
2038.00924251862
31
2.03776460740768e-005
  0
LINE
 8
GROUP0
10
-414.033215343245
20
2037.8082806243
30
2.0364921165672e-005
11
-413.722555171464
21
2037.56990269041
31
2.03632185784786e-005
  0
LINE
 8
GROUP0
10
-413.722555171464
20
2037.56990269041
30
2.03632185784786e-005
11
-413.484177237567
21
2037.25924251862
31
2.03648503823983e-005
  0
LINE
 8
GROUP0
10
-413.484177237567
20
2037.25924251862
30
2.03648503823983e-005
11
-413.334326603812
21
2036.89747108628
31
2.03697053720531e-005
  0
LINE
 8
GROUP0
10
-413.722555171464
20
2035.44858234685
30
2.04120102596572e-005
11
-414.03321534324
21
2035.21020441295
31
2.04246785269202e-005
  0
LINE
 8
GROUP0
10
-415.843875515025
20
2037.56990269041
30
2.04122837456466e-005
11
-415.533215343244
21
2037.8082806243
31
2.03996154783836e-005
  0
LINE
 8
GROUP0
10
-414.394986775586
20
2037.95813125806
30
2.03698421157528e-005
11
-414.033215343245
21
2037.8082806243
31
2.0364921165672e-005
  0
LINE
 8
GROUP0
10
-413.48417723757
20
2035.75924251862
30
2.03993513102685e-005
11
-413.722555171464
21
2035.44858234685
31
2.04120102596572e-005
  0
LINE
 8
GROUP0
10
-414.783215343265
20
1935.18441483965
30
2.2742680759541e-005
11
-415.171443910917
21
1935.23552610021
31
2.2750484717865e-005
  0
LINE
 8
GROUP0
10
-414.033215343262
20
1935.38537673397
30
2.27207113552341e-005
11
-414.394986775608
21
1935.23552610021
31
2.27325256203226e-005
  0
LINE
 8
GROUP0
10
-414.03321534324
20
2035.21020441295
30
2.04246785269202e-005
11
-414.394986775591
21
2035.06035377919
31
2.04364927920087e-005
  0
LINE
 8
GROUP0
10
-413.334326603829
20
1936.29618627199
30
2.26835971954442e-005
11
-413.484177237587
21
1935.93441483964
31
2.26953841392874e-005
  0
LINE
 8
GROUP0
10
-413.72255517148
20
1935.62375466786
30
2.27080430879711e-005
11
-414.033215343262
21
1935.38537673397
31
2.27207113552341e-005
  0
LINE
 8
GROUP0
10
-414.394986775604
20
1938.13330357909
30
2.26658749440667e-005
11
-414.033215343259
21
1937.98345294532
31
2.26609539939859e-005
  0
LINE
 8
GROUP0
10
-415.171443910917
20
1935.23552610021
30
2.2750484717865e-005
11
-415.533215343263
21
1935.38537673397
31
2.27554056679458e-005
  0
LINE
 8
GROUP0
10
-413.72255517148
20
1937.74507501143
30
2.26592514067925e-005
11
-413.48417723758
21
1937.43441483965
31
2.26608832107122e-005
  0
LINE
 8
GROUP0
10
-413.334326603823
20
1937.0726434073
30
2.2665738201072e-005
11
-413.283215343264
21
1936.68441483965
31
2.26734855182542e-005
  0
LINE
 8
GROUP0
10
-413.484177237587
20
1935.93441483964
30
2.26953841392874e-005
11
-413.72255517148
21
1935.62375466786
31
2.27080430879711e-005
  0
LINE
 8
GROUP0
10
-414.033215343259
20
1937.98345294532
30
2.26609539939859e-005
11
-413.72255517148
21
1937.74507501143
31
2.26592514067925e-005
  0
LINE
 8
GROUP0
10
-413.48417723758
20
1937.43441483965
30
2.26608832107122e-005
11
-413.334326603823
21
1937.0726434073
31
2.2665738201072e-005
  0
LINE
 8
GROUP0
10
-413.283215343264
20
1936.68441483965
30
2.26734855182542e-005
11
-413.334326603829
21
1936.29618627199
31
2.26835971954442e-005
  0
LINE
 8
GROUP0
10
-414.394986775608
20
1935.23552610021
30
2.27325256203226e-005
11
-414.783215343265
21
1935.18441483965
31
2.2742680759541e-005
  0
LINE
 8
GROUP0
10
-414.78321534326
20
1938.18441483965
30
2.26736789023907e-005
11
-414.394986775604
21
1938.13330357909
31
2.26658749440667e-005
  0
LINE
 8
GROUP0
10
-415.843875515042
20
1935.62375466786
30
2.27571082551392e-005
11
-416.082253448941
21
1935.93441483965
31
2.27554764512194e-005
  0
LINE
 8
GROUP0
10
-416.232104082696
20
1936.29618627199
30
2.27506214615647e-005
11
-416.283215343257
21
1936.68441483965
31
2.27428741436775e-005
  0
LINE
 8
GROUP0
10
-415.533215343263
20
1935.38537673397
30
2.27554056679458e-005
11
-415.843875515042
21
1935.62375466786
31
2.27571082551392e-005
  0
LINE
 8
GROUP0
10
-416.232104082695
20
1937.0726434073
30
2.27327624664875e-005
11
-416.082253448941
21
1937.43441483965
31
2.27209755226443e-005
  0
LINE
 8
GROUP0
10
-416.283215343257
20
1936.68441483965
30
2.27428741436775e-005
11
-416.232104082695
21
1937.0726434073
31
2.27327624664875e-005
  0
LINE
 8
GROUP0
10
-416.082253448941
20
1935.93441483965
30
2.27554764512194e-005
11
-416.232104082696
21
1936.29618627199
31
2.27506214615647e-005
  0
LINE
 8
GROUP0
10
-509.397654801654
20
2028.92157507075
30
2.27750566826335e-005
11
-509.636032735553
21
2029.23223524253
31
2.27734248787137e-005
  0
LINE
 8
GROUP0
10
-415.171443910914
20
1938.13330357908
30
2.26838340423141e-005
11
-414.78321534326
21
1938.18441483965
31
2.26736789023907e-005
  0
LINE
 8
GROUP0
10
-509.636032735553
20
2029.23223524253
30
2.27734248787137e-005
11
-509.785883369309
21
2029.59400667488
31
2.2768569887649e-005
  0
LINE
 8
GROUP0
10
-509.785883369309
20
2029.59400667488
30
2.2768569887649e-005
11
-509.836994629877
21
2029.98223524253
31
2.27608225711717e-005
  0
LINE
 8
GROUP0
10
-416.082253448941
20
1937.43441483965
30
2.27209755226443e-005
11
-415.843875515044
21
1937.74507501143
31
2.27083165739606e-005
  0
LINE
 8
GROUP0
10
-415.843875515044
20
1937.74507501143
30
2.27083165739606e-005
11
-415.533215343262
21
1937.98345294532
31
2.26956483066976e-005
  0
LINE
 8
GROUP0
10
-415.533215343262
20
1937.98345294532
30
2.26956483066976e-005
11
-415.171443910914
21
1938.13330357908
31
2.26838340423141e-005
  0
LINE
 8
GROUP0
10
-509.836994629877
20
2029.98223524253
30
2.27608225711717e-005
11
-509.785883369312
21
2030.37046381018
31
2.27507108932767e-005
  0
LINE
 8
GROUP0
10
-590.832101903785
20
1708.15105282464
30
1.5239852452037e-005
11
-590.34973999399
21
1707.95125197963
31
1.52396341661865e-005
  0
LINE
 8
GROUP0
10
-590.34973999399
20
1836.95125197963
30
1.83091132436919e-005
11
-589.832101903785
21
1836.88310363221
31
1.83123592690404e-005
  0
LINE
 8
GROUP0
10
-588.417888341412
20
1708.46889006984
30
1.52701170979486e-005
11
-588.100051096217
21
1708.88310363221
31
1.52829618274342e-005
  0
LINE
 8
GROUP0
10
-155.831654678067
20
1969.88310355095
30
2.55581101966051e-005
11
-156.349292768272
21
1969.81495520352
31
2.55516210716233e-005
  0
LINE
 8
GROUP0
10
-153.831654678066
20
1967.88310355095
30
2.55293282397206e-005
11
-153.899803025489
21
1968.40074164115
31
2.55410043053017e-005
  0
LINE
 8
GROUP0
10
-155.314016587862
20
1969.81495520352
30
2.55613562219537e-005
11
-155.831654678067
21
1969.88310355095
31
2.55581101966051e-005
  0
LINE
 8
GROUP0
10
-157.563705485635
20
1968.88310355095
30
2.5518028560706e-005
11
-157.763506330645
21
1968.40074164115
31
2.55046722293761e-005
  0
LINE
 8
GROUP0
10
-588.832101903786
20
1837.15105282464
30
1.83281383957234e-005
11
-588.417888341412
21
1837.46889006984
31
1.8339596175454e-005
  0
LINE
 8
GROUP0
10
-153.899803025489
20
1968.40074164115
30
2.55410043053017e-005
11
-154.099603870499
21
1968.88310355095
31
2.55506030087338e-005
  0
LINE
 8
GROUP0
10
-154.099603870499
20
1966.88310355095
30
2.55030141863732e-005
11
-153.899803025489
21
1967.36546546074
31
2.55163705177031e-005
  0
LINE
 8
GROUP0
10
-156.831654678067
20
1969.61515435852
30
2.55423310699221e-005
11
-157.245868240441
21
1969.29731711332
31
2.55308732901915e-005
  0
LINE
 8
GROUP0
10
-591.564152711353
20
1708.88310363221
30
1.52503873794063e-005
11
-591.246315466159
21
1708.46889006984
31
1.52435201723533e-005
  0
LINE
 8
GROUP0
10
-589.832101903785
20
1836.88310363221
30
1.83123592690404e-005
11
-589.314463813581
21
1836.95125197963
31
1.83188483940222e-005
  0
LINE
 8
GROUP0
10
-243.314240241354
20
1623.8147316313
30
1.65009803172356e-005
11
-243.831878331557
21
1623.88287997872
31
1.64977342918871e-005
  0
LINE
 8
GROUP0
10
-154.831654678067
20
1969.61515435852
30
2.55611379361032e-005
11
-155.314016587862
21
1969.81495520352
31
2.55613562219537e-005
  0
LINE
 8
GROUP0
10
-154.831654678067
20
1966.15105274338
30
2.54787116771571e-005
11
-154.417441115694
21
1966.46888998857
31
2.54901694568876e-005
  0
LINE
 8
GROUP0
10
-157.245868240441
20
1969.29731711332
30
2.55308732901915e-005
11
-157.563705485635
21
1968.88310355095
31
2.5518028560706e-005
  0
LINE
 8
GROUP0
10
-157.831654678068
20
1967.88310355095
30
2.54917145073585e-005
11
-157.763506330645
21
1967.36546546074
31
2.54800384417775e-005
  0
LINE
 8
GROUP0
10
-155.314016587862
20
1965.95125189837
30
2.54694216754558e-005
11
-154.831654678067
21
1966.15105274338
31
2.54787116771571e-005
  0
LINE
 8
GROUP0
10
-589.314463813581
20
1836.95125197963
30
1.83188483940222e-005
11
-588.832101903786
21
1837.15105282464
31
1.83281383957234e-005
  0
LINE
 8
GROUP0
10
-157.763506330645
20
1967.36546546074
30
2.54800384417775e-005
11
-157.563705485635
21
1966.88310355095
31
2.54704397376404e-005
  0
LINE
 8
GROUP0
10
-591.246315466159
20
1708.46889006984
30
1.52435201723533e-005
11
-590.832101903785
21
1708.15105282464
31
1.5239852452037e-005
  0
LINE
 8
GROUP0
10
-157.763506330645
20
1968.40074164115
30
2.55046722293761e-005
11
-157.831654678068
21
1967.88310355095
31
2.54917145073585e-005
  0
LINE
 8
GROUP0
10
-154.099603870499
20
1968.88310355095
30
2.55506030087338e-005
11
-154.417441115694
21
1969.29731711332
31
2.55574702157868e-005
  0
LINE
 8
GROUP0
10
-154.417441115694
20
1969.29731711332
30
2.55574702157868e-005
11
-154.831654678067
21
1969.61515435852
31
2.55611379361032e-005
  0
LINE
 8
GROUP0
10
-155.831654678067
20
1965.88310355095
30
2.5462932550474e-005
11
-155.314016587862
21
1965.95125189837
31
2.54694216754558e-005
  0
LINE
 8
GROUP0
10
-153.899803025489
20
1967.36546546074
30
2.55163705177031e-005
11
-153.831654678066
21
1967.88310355095
31
2.55293282397206e-005
  0
LINE
 8
GROUP0
10
-588.832101903786
20
1708.15105282464
30
1.5258659318218e-005
11
-588.417888341412
21
1708.46889006984
31
1.52701170979486e-005
  0
LINE
 8
GROUP0
10
-156.349292768272
20
1969.81495520352
30
2.55516210716233e-005
11
-156.831654678067
21
1969.61515435852
31
2.55423310699221e-005
  0
LINE
 8
GROUP0
10
-589.314463813581
20
1707.95125197963
30
1.52493693172218e-005
11
-588.832101903786
21
1708.15105282464
31
1.5258659318218e-005
  0
LINE
 8
GROUP0
10
-589.832101903785
20
1707.88310363221
30
1.5242880191535e-005
11
-589.314463813581
21
1707.95125197963
31
1.52493693172218e-005
  0
LINE
 8
GROUP0
10
-154.417441115694
20
1711.29708873178
30
1.94185066274055e-005
11
-154.831654678067
21
1711.61492597698
31
1.94221743477219e-005
  0
LINE
 8
GROUP0
10
-156.831654678067
20
1966.15105274338
30
2.5459904810976e-005
11
-156.349292768272
21
1965.95125189837
31
2.54596865251255e-005
  0
LINE
 8
GROUP0
10
-153.899803025489
20
1710.40051325961
30
1.94020407169204e-005
11
-154.099603870499
21
1710.88287516941
31
1.94116394203525e-005
  0
LINE
 8
GROUP0
10
-154.417441115694
20
1966.46888998857
30
2.54901694568876e-005
11
-154.099603870499
21
1966.88310355095
31
2.55030141863732e-005
  0
LINE
 8
GROUP0
10
-157.763506330645
20
1710.40051325961
30
1.93657086409948e-005
11
-157.831654678068
21
1709.88287516941
31
1.93527509189773e-005
  0
LINE
 8
GROUP0
10
-154.099603870499
20
1710.88287516941
30
1.94116394203525e-005
11
-154.417441115694
21
1711.29708873178
31
1.94185066274055e-005
  0
LINE
 8
GROUP0
10
-157.245868240441
20
1708.46866160704
30
1.93246089429111e-005
11
-156.831654678067
21
1708.15082436184
31
1.93209412225948e-005
  0
LINE
 8
GROUP0
10
-154.417441115694
20
1708.46866160704
30
1.93512058685064e-005
11
-154.099603870499
21
1708.88287516941
31
1.9364050597287e-005
  0
LINE
 8
GROUP0
10
-155.314016587862
20
1707.95102351683
30
1.93304580870746e-005
11
-154.831654678067
21
1708.15082436184
31
1.93397480887758e-005
  0
LINE
 8
GROUP0
10
-156.831654678067
20
1708.15082436184
30
1.93209412225948e-005
11
-156.349292768272
21
1707.95102351683
31
1.93207229367442e-005
  0
LINE
 8
GROUP0
10
-154.099603870499
20
1708.88287516941
30
1.9364050597287e-005
11
-153.899803025489
21
1709.3652370792
31
1.93774069293218e-005
  0
LINE
 8
GROUP0
10
-155.831654678067
20
1707.88287516941
30
1.93239689620928e-005
11
-155.314016587862
21
1707.95102351683
31
1.93304580870746e-005
  0
LINE
 8
GROUP0
10
-156.349292768272
20
1707.95102351683
30
1.93207229367442e-005
11
-155.831654678067
21
1707.88287516941
31
1.93239689620928e-005
  0
LINE
 8
GROUP0
10
-157.831654678068
20
1709.88287516941
30
1.93527509189773e-005
11
-157.763506330645
21
1709.3652370792
31
1.93410748533962e-005
  0
LINE
 8
GROUP0
10
-157.831654678068
20
1838.88310355095
30
2.24222354298531e-005
11
-157.763506330645
21
1838.36546546074
31
2.2410559364977e-005
  0
LINE
 8
GROUP0
10
-155.831654678067
20
1711.88287516941
30
1.94191466082239e-005
11
-156.349292768272
21
1711.81472682199
31
1.94126574832421e-005
  0
LINE
 8
GROUP0
10
-157.763506330645
20
1709.3652370792
30
1.93410748533962e-005
11
-157.563705485635
21
1708.88287516941
31
1.93314761492591e-005
  0
LINE
 8
GROUP0
10
-157.563705485635
20
1708.88287516941
30
1.93314761492591e-005
11
-157.245868240441
21
1708.46866160704
31
1.93246089429111e-005
  0
LINE
 8
GROUP0
10
-157.245868240441
20
1711.29708873178
30
1.93919097018103e-005
11
-157.563705485635
21
1710.88287516941
31
1.93790649723247e-005
  0
LINE
 8
GROUP0
10
-154.831654678067
20
1711.61492597698
30
1.94221743477219e-005
11
-155.314016587862
21
1711.81472682199
31
1.94223926335724e-005
  0
LINE
 8
GROUP0
10
-153.899803025489
20
1709.3652370792
30
1.93774069293218e-005
11
-153.831654678066
21
1709.88287516941
31
1.93903646513394e-005
  0
LINE
 8
GROUP0
10
-154.831654678067
20
1708.15082436184
30
1.93397480887758e-005
11
-154.417441115694
21
1708.46866160704
31
1.93512058685064e-005
  0
LINE
 8
GROUP0
10
-157.563705485635
20
1966.88310355095
30
2.54704397376404e-005
11
-157.245868240441
21
1966.46888998857
31
2.54635725312924e-005
  0
LINE
 8
GROUP0
10
-157.245868240441
20
1966.46888998857
30
2.54635725312924e-005
11
-156.831654678067
21
1966.15105274338
31
2.5459904810976e-005
  0
LINE
 8
GROUP0
10
-157.763506330645
20
1838.36546546074
30
2.2410559364977e-005
11
-157.563705485635
21
1837.88310355095
31
2.240096066084e-005
  0
LINE
 8
GROUP0
10
-156.349292768272
20
1965.95125189837
30
2.54596865251255e-005
11
-155.831654678067
21
1965.88310355095
31
2.5462932550474e-005
  0
LINE
 8
GROUP0
10
-155.314016587862
20
1711.81472682199
30
1.94223926335724e-005
11
-155.831654678067
21
1711.88287516941
31
1.94191466082239e-005
  0
LINE
 8
GROUP0
10
-153.831654678066
20
1709.88287516941
30
1.93903646513394e-005
11
-153.899803025489
21
1710.40051325961
31
1.94020407169204e-005
  0
LINE
 8
GROUP0
10
-156.349292768272
20
1711.81472682199
30
1.94126574832421e-005
11
-156.831654678067
21
1711.61492597698
31
1.94033674815408e-005
  0
LINE
 8
GROUP0
10
-157.563705485635
20
1710.88287516941
30
1.93790649723247e-005
11
-157.763506330645
21
1710.40051325961
31
1.93657086409948e-005
  0
LINE
 8
GROUP0
10
-156.831654678067
20
1711.61492597698
30
1.94033674815408e-005
11
-157.245868240441
21
1711.29708873178
31
1.93919097018103e-005
  0
LINE
 8
GROUP0
10
-154.417441115694
20
1840.29731711332
30
2.24879911382814e-005
11
-154.831654678067
21
1840.61515435851
31
2.24916588593027e-005
  0
LINE
 8
GROUP0
10
-154.099603870499
20
1837.88310355095
30
2.24335351088678e-005
11
-153.899803025489
21
1838.36546546074
31
2.24468914409026e-005
  0
LINE
 8
GROUP0
10
-153.831654678066
20
1838.88310355095
30
2.24598491629202e-005
11
-153.899803025489
21
1839.40074164115
31
2.24715252277963e-005
  0
LINE
 8
GROUP0
10
-156.831654678067
20
1837.15105274338
30
2.23904257334706e-005
11
-156.349292768272
21
1836.95125189837
31
2.23902074483251e-005
  0
LINE
 8
GROUP0
10
-157.245868240441
20
1840.29731711332
30
2.24613942126861e-005
11
-157.563705485635
21
1839.88310355095
31
2.24485494839055e-005
  0
LINE
 8
GROUP0
10
-156.349292768272
20
1840.81495520352
30
2.24821419941179e-005
11
-156.831654678067
21
1840.61515435851
31
2.24728519924167e-005
  0
LINE
 8
GROUP0
10
-156.831654678067
20
1840.61515435851
30
2.24728519924167e-005
11
-157.245868240441
21
1840.29731711332
31
2.24613942126861e-005
  0
LINE
 8
GROUP0
10
-157.763506330645
20
1839.40074164115
30
2.24351931518707e-005
11
-157.831654678068
21
1838.88310355095
31
2.24222354298531e-005
  0
LINE
 8
GROUP0
10
-155.831654678067
20
1836.88310355095
30
2.23934534736736e-005
11
-155.314016587862
21
1836.95125189837
31
2.23999425986554e-005
  0
LINE
 8
GROUP0
10
-154.417441115694
20
1837.46888998857
30
2.24206903793822e-005
11
-154.099603870499
21
1837.88310355095
31
2.24335351088678e-005
  0
LINE
 8
GROUP0
10
-155.314016587862
20
1840.81495520352
30
2.24918771444482e-005
11
-155.831654678067
21
1840.88310355095
31
2.24886311190997e-005
  0
LINE
 8
GROUP0
10
-157.563705485635
20
1837.88310355095
30
2.240096066084e-005
11
-157.245868240441
21
1837.46888998857
31
2.23940934544919e-005
  0
LINE
 8
GROUP0
10
-157.563705485635
20
1839.88310355095
30
2.24485494839055e-005
11
-157.763506330645
21
1839.40074164115
31
2.24351931518707e-005
  0
LINE
 8
GROUP0
10
-155.831654678067
20
1840.88310355095
30
2.24886311190997e-005
11
-156.349292768272
21
1840.81495520352
31
2.24821419941179e-005
  0
LINE
 8
GROUP0
10
-231.081838733223
20
1900.88333191527
30
2.3208691162252e-005
11
-231.081838733223
21
2040.88333191527
31
2.65399087655604e-005
  0
LINE
 8
GROUP0
10
-231.081838733223
20
2040.88333191527
30
2.65399087655604e-005
11
-381.081838733223
21
2040.88333191527
31
2.51293937878816e-005
  0
LINE
 8
GROUP0
10
-157.245868240441
20
1837.46888998857
30
2.23940934544919e-005
11
-156.831654678067
21
1837.15105274338
31
2.23904257334706e-005
  0
LINE
 8
GROUP0
10
-381.081838733223
20
2040.88333191527
30
2.51293937878816e-005
11
-381.081838733223
21
1900.88333191527
31
2.17981761852781e-005
  0
LINE
 8
GROUP0
10
-238.081838733223
20
2006.38333191527
30
2.75333208877848e-005
11
-237.693610165569
21
2006.43444317584
31
2.75333208877848e-005
  0
LINE
 8
GROUP0
10
-154.831654678067
20
1840.61515435851
30
2.24916588593027e-005
11
-155.314016587862
21
1840.81495520352
31
2.24918771444482e-005
  0
LINE
 8
GROUP0
10
-381.081838733223
20
1900.88333191527
30
2.17981761852781e-005
11
-231.081838733223
21
1900.88333191527
31
2.3208691162252e-005
  0
LINE
 8
GROUP0
10
-154.099603870499
20
1839.88310355095
30
2.24811239319334e-005
11
-154.417441115694
21
1840.29731711332
31
2.24879911382814e-005
  0
LINE
 8
GROUP0
10
-155.314016587862
20
1836.95125189837
30
2.23999425986554e-005
11
-154.831654678067
21
1837.15105274338
31
2.24092325996517e-005
  0
LINE
 8
GROUP0
10
-153.899803025489
20
1839.40074164115
30
2.24715252277963e-005
11
-154.099603870499
21
1839.88310355095
31
2.24811239319334e-005
  0
LINE
 8
GROUP0
10
-154.831654678067
20
1837.15105274338
30
2.24092325996517e-005
11
-154.417441115694
21
1837.46888998857
31
2.24206903793822e-005
  0
LINE
 8
GROUP0
10
-153.899803025489
20
1838.36546546074
30
2.24468914409026e-005
11
-153.831654678066
21
1838.88310355095
31
2.24598491629202e-005
  0
LINE
 8
GROUP0
10
-156.349292768272
20
1836.95125189837
30
2.23902074483251e-005
11
-155.831654678067
21
1836.88310355095
31
2.23934534736736e-005
  0
LINE
 8
GROUP0
10
-239.530727472656
20
2008.27156048293
30
2.75333208877848e-005
11
-239.581838733222
21
2007.88333191527
31
2.75333208877848e-005
  0
LINE
 8
GROUP0
10
-238.831838733223
20
2006.5842938096
30
2.75333208877848e-005
11
-238.470067300877
21
2006.43444317584
31
2.75333208877848e-005
  0
LINE
 8
GROUP0
10
-239.380876838899
20
2008.63333191527
30
2.75333208877848e-005
11
-239.530727472656
21
2008.27156048293
31
2.75333208877848e-005
  0
LINE
 8
GROUP0
10
-238.470067300877
20
2006.43444317584
30
2.75333208877848e-005
11
-238.081838733223
21
2006.38333191527
31
2.75333208877848e-005
  0
LINE
 8
GROUP0
10
-239.581838733222
20
2007.88333191527
30
2.75333208877848e-005
11
-239.530727472656
21
2007.49510334762
31
2.75333208877848e-005
  0
LINE
 8
GROUP0
10
-239.530727472656
20
2007.49510334762
30
2.75333208877848e-005
11
-239.380876838899
21
2007.13333191527
31
2.75333208877848e-005
  0
LINE
 8
GROUP0
10
-238.081838733223
20
2009.38333191527
30
2.75333208877848e-005
11
-238.470067300877
21
2009.3322206547
31
2.75333208877848e-005
  0
LINE
 8
GROUP0
10
-238.831838733223
20
2009.18237002095
30
2.75333208877848e-005
11
-239.142498905002
21
2008.94399208705
31
2.75333208877848e-005
  0
LINE
 8
GROUP0
10
-238.470067300877
20
2009.3322206547
30
2.75333208877848e-005
11
-238.831838733223
21
2009.18237002095
31
2.75333208877848e-005
  0
LINE
 8
GROUP0
10
-237.693610165569
20
2009.3322206547
30
2.75333208877848e-005
11
-238.081838733223
21
2009.38333191527
31
2.75333208877848e-005
  0
LINE
 8
GROUP0
10
-239.142498905002
20
2006.82267174349
30
2.75333208877848e-005
11
-238.831838733223
21
2006.5842938096
31
2.75333208877848e-005
  0
LINE
 8
GROUP0
10
-239.142498905002
20
2008.94399208705
30
2.75333208877848e-005
11
-239.380876838899
21
2008.63333191527
31
2.75333208877848e-005
  0
LINE
 8
GROUP0
10
-239.380876838899
20
2007.13333191527
30
2.75333208877848e-005
11
-239.142498905002
21
2006.82267174349
31
2.75333208877848e-005
  0
LINE
 8
GROUP0
10
-237.331838733223
20
2009.18237002095
30
2.75333208877848e-005
11
-237.693610165569
21
2009.3322206547
31
2.75333208877848e-005
  0
LINE
 8
GROUP0
10
-237.021178561444
20
2008.94399208705
30
2.75333208877848e-005
11
-237.331838733223
21
2009.18237002095
31
2.75333208877848e-005
  0
LINE
 8
GROUP0
10
-236.782800627546
20
2008.63333191527
30
2.75333208877848e-005
11
-237.021178561444
21
2008.94399208705
31
2.75333208877848e-005
  0
LINE
 8
GROUP0
10
-236.63294999379
20
2008.27156048293
30
2.75333208877848e-005
11
-236.782800627546
21
2008.63333191527
31
2.75333208877848e-005
  0
LINE
 8
GROUP0
10
-237.021178561444
20
2006.82267174349
30
2.75333208877848e-005
11
-236.782800627546
21
2007.13333191527
31
2.75333208877848e-005
  0
LINE
 8
GROUP0
10
-236.581838733223
20
2007.88333191527
30
2.75333208877848e-005
11
-236.63294999379
21
2008.27156048293
31
2.75333208877848e-005
  0
LINE
 8
GROUP0
10
-236.63294999379
20
2007.49510334762
30
2.75333208877848e-005
11
-236.581838733223
21
2007.88333191527
31
2.75333208877848e-005
  0
LINE
 8
GROUP0
10
-236.782800627546
20
2007.13333191527
30
2.75333208877848e-005
11
-236.63294999379
21
2007.49510334762
31
2.75333208877848e-005
  0
LINE
 8
GROUP0
10
-237.331838733223
20
2006.5842938096
30
2.75333208877848e-005
11
-237.021178561444
21
2006.82267174349
31
2.75333208877848e-005
  0
LINE
 8
GROUP0
10
-237.693610165569
20
1914.3322206547
30
2.75333208877848e-005
11
-238.081838733223
21
1914.38333191527
31
2.75333208877848e-005
  0
LINE
 8
GROUP0
10
-237.693610165569
20
2006.43444317584
30
2.75333208877848e-005
11
-237.331838733223
21
2006.5842938096
31
2.75333208877848e-005
  0
LINE
 8
GROUP0
10
-238.081838733223
20
1914.38333191527
30
2.75333208877848e-005
11
-238.470067300877
21
1914.3322206547
31
2.75333208877848e-005
  0
LINE
 8
GROUP0
10
-237.331838733223
20
1914.18237002095
30
2.75333208877848e-005
11
-237.693610165569
21
1914.3322206547
31
2.75333208877848e-005
  0
LINE
 8
GROUP0
10
-238.470067300877
20
1914.3322206547
30
2.75333208877848e-005
11
-238.831838733223
21
1914.18237002095
31
2.75333208877848e-005
  0
LINE
 8
GROUP0
10
-237.021178561444
20
1913.94399208705
30
2.75333208877848e-005
11
-237.331838733223
21
1914.18237002095
31
2.75333208877848e-005
  0
LINE
 8
GROUP0
10
-236.63294999379
20
1913.27156048293
30
2.75333208877848e-005
11
-236.782800627546
21
1913.63333191527
31
2.75333208877848e-005
  0
LINE
 8
GROUP0
10
-236.63294999379
20
1912.49510334762
30
2.75333208877848e-005
11
-236.581838733223
21
1912.88333191527
31
2.75333208877848e-005
  0
LINE
 8
GROUP0
10
-236.782800627546
20
1912.13333191527
30
2.75333208877848e-005
11
-236.63294999379
21
1912.49510334762
31
2.75333208877848e-005
  0
LINE
 8
GROUP0
10
-236.782800627546
20
1913.63333191527
30
2.75333208877848e-005
11
-237.021178561444
21
1913.94399208705
31
2.75333208877848e-005
  0
LINE
 8
GROUP0
10
-236.581838733223
20
1912.88333191527
30
2.75333208877848e-005
11
-236.63294999379
21
1913.27156048293
31
2.75333208877848e-005
  0
LINE
 8
GROUP0
10
-237.021178561444
20
1911.82267174349
30
2.75333208877848e-005
11
-236.782800627546
21
1912.13333191527
31
2.75333208877848e-005
  0
LINE
 8
GROUP0
10
-242.099599061189
20
2054.88332720444
30
2.67694256408824e-005
11
-241.89979821618
21
2055.36568911423
31
2.67827819722122e-005
  0
LINE
 8
GROUP0
10
-502.831878250294
20
2054.15127639687
30
2.4300228356755e-005
11
-502.349516340499
21
2053.95147555186
31
2.43000100716095e-005
  0
LINE
 8
GROUP0
10
-242.099599061189
20
2056.88332720444
30
2.68170144632429e-005
11
-242.417436306383
21
2057.29754076681
31
2.68238816702959e-005
  0
LINE
 8
GROUP0
10
-371.417664687921
20
2054.46911364206
30
2.5543535883682e-005
11
-371.099827442725
21
2054.88332720444
31
2.55563806124626e-005
  0
LINE
 8
GROUP0
10
-244.831649868758
20
2057.615378012
30
2.68087425244312e-005
11
-245.245863431131
21
2057.29754076681
31
2.67972847447007e-005
  0
LINE
 8
GROUP0
10
-244.349287958962
20
2053.95147555186
30
2.67260979796347e-005
11
-243.831649868758
21
2053.88332720444
31
2.67293440049832e-005
  0
LINE
 8
GROUP0
10
-241.831649868757
20
2055.88332720444
30
2.67957396942298e-005
11
-241.89979821618
21
2056.40096529464
31
2.68074157598108e-005
  0
LINE
 8
GROUP0
10
-503.563929057862
20
2054.88332720444
30
2.43107632841244e-005
11
-503.246091812667
21
2054.46911364206
31
2.43038960770714e-005
  0
LINE
 8
GROUP0
10
-245.763501521335
20
2056.40096529464
30
2.67710836838853e-005
11
-245.831649868758
21
2055.88332720444
31
2.67581259618677e-005
  0
LINE
 8
GROUP0
10
-374.763729902871
20
2056.40096529464
30
2.55580386554655e-005
11
-374.831878250294
21
2055.88332720444
31
2.55450809334479e-005
  0
LINE
 8
GROUP0
10
-242.417436306383
20
2054.46911364206
30
2.67565809113968e-005
11
-242.099599061189
21
2054.88332720444
31
2.67694256408824e-005
  0
LINE
 8
GROUP0
10
-241.89979821618
20
2056.40096529464
30
2.68074157598108e-005
11
-242.099599061189
21
2056.88332720444
31
2.68170144632429e-005
  0
LINE
 8
GROUP0
10
-244.349287958962
20
2057.81517885701
30
2.68180325261325e-005
11
-244.831649868758
21
2057.615378012
31
2.68087425244312e-005
  0
LINE
 8
GROUP0
10
-245.245863431131
20
2057.29754076681
30
2.67972847447007e-005
11
-245.563700676327
21
2056.88332720444
31
2.67844400152151e-005
  0
LINE
 8
GROUP0
10
-372.831878250294
20
2053.88332720444
30
2.55162989772684e-005
11
-372.31424016009
21
2053.95147555186
31
2.55227881022502e-005
  0
LINE
 8
GROUP0
10
-242.831649868757
20
2054.15127639687
30
2.67451231316662e-005
11
-242.417436306383
21
2054.46911364206
31
2.67565809113968e-005
  0
LINE
 8
GROUP0
10
-243.831649868758
20
2057.88332720444
30
2.68245216511143e-005
11
-244.349287958962
21
2057.81517885701
31
2.68180325261325e-005
  0
LINE
 8
GROUP0
10
-243.314011778552
20
2057.81517885701
30
2.68277676764628e-005
11
-243.831649868758
21
2057.88332720444
31
2.68245216511143e-005
  0
LINE
 8
GROUP0
10
-243.831649868758
20
2053.88332720444
30
2.67293440049832e-005
11
-243.314011778552
21
2053.95147555186
31
2.6735833129965e-005
  0
LINE
 8
GROUP0
10
-244.831649868758
20
2054.15127639687
30
2.67263162654852e-005
11
-244.349287958962
21
2053.95147555186
31
2.67260979796347e-005
  0
LINE
 8
GROUP0
10
-372.31424016009
20
2053.95147555186
30
2.55227881022502e-005
11
-371.831878250293
21
2054.15127639687
31
2.55320781039514e-005
  0
LINE
 8
GROUP0
10
-245.763501521335
20
2055.36568911423
30
2.67464498962866e-005
11
-245.563700676327
21
2054.88332720444
31
2.67368511928545e-005
  0
LINE
 8
GROUP0
10
-245.831649868758
20
2055.88332720444
30
2.67581259618677e-005
11
-245.763501521335
21
2055.36568911423
31
2.67464498962866e-005
  0
LINE
 8
GROUP0
10
-241.89979821618
20
2055.36568911423
30
2.67827819722122e-005
11
-241.831649868757
21
2055.88332720444
31
2.67957396942298e-005
  0
LINE
 8
GROUP0
10
-503.246091812667
20
2054.46911364206
30
2.43038960770714e-005
11
-502.831878250294
21
2054.15127639687
31
2.4300228356755e-005
  0
LINE
 8
GROUP0
10
-242.831649868757
20
2057.615378012
30
2.68275493906123e-005
11
-243.314011778552
21
2057.81517885701
31
2.68277676764628e-005
  0
LINE
 8
GROUP0
10
-245.563700676327
20
2054.88332720444
30
2.67368511928545e-005
11
-245.245863431131
21
2054.46911364206
31
2.67299839858015e-005
  0
LINE
 8
GROUP0
10
-374.831878250294
20
2055.88332720444
30
2.55450809334479e-005
11
-374.763729902871
21
2055.36568911423
31
2.55334048685718e-005
  0
LINE
 8
GROUP0
10
-245.245863431131
20
2054.46911364206
30
2.67299839858015e-005
11
-244.831649868758
21
2054.15127639687
31
2.67263162654852e-005
  0
LINE
 8
GROUP0
10
-371.831878250293
20
2054.15127639687
30
2.55320781039514e-005
11
-371.417664687921
21
2054.46911364206
31
2.5543535883682e-005
  0
LINE
 8
GROUP0
10
-245.563700676327
20
2056.88332720444
30
2.67844400152151e-005
11
-245.763501521335
21
2056.40096529464
31
2.67710836838853e-005
  0
LINE
 8
GROUP0
10
-242.417436306383
20
2057.29754076681
30
2.68238816702959e-005
11
-242.831649868757
21
2057.615378012
31
2.68275493906123e-005
  0
LINE
 8
GROUP0
10
-503.763729902872
20
2055.36568911423
30
2.43203619875565e-005
11
-503.563929057862
21
2054.88332720444
31
2.43107632841244e-005
  0
LINE
 8
GROUP0
10
-501.831878250294
20
2057.88332720444
30
2.43984337423842e-005
11
-502.349516340499
21
2057.81517885702
31
2.43919446174023e-005
  0
LINE
 8
GROUP0
10
-588.417888341412
20
1966.46911845137
30
2.14090806863298e-005
11
-588.100051096217
21
1966.88333201375
31
2.14219254158154e-005
  0
LINE
 8
GROUP0
10
-591.564152711353
20
1966.88333201375
30
2.13893509677876e-005
11
-591.246315466159
21
1966.46911845137
31
2.13824837614396e-005
  0
LINE
 8
GROUP0
10
-590.34973999399
20
1965.95148036117
30
2.13785977552727e-005
11
-589.832101903785
21
1965.88333201375
31
2.13818437806212e-005
  0
LINE
 8
GROUP0
10
-501.314240160089
20
2053.95147555186
30
2.43097452219398e-005
11
-500.831878250294
21
2054.15127639687
31
2.43190352229361e-005
  0
LINE
 8
GROUP0
10
-499.831878250293
20
2055.88332720444
30
2.43696517862046e-005
11
-499.900026597716
21
2056.40096529464
31
2.43813278510807e-005
  0
LINE
 8
GROUP0
10
-503.563929057862
20
2056.88332720444
30
2.43583521071899e-005
11
-503.763729902872
21
2056.40096529464
31
2.43449957751551e-005
  0
LINE
 8
GROUP0
10
-500.41766468792
20
2054.46911364206
30
2.43304930026667e-005
11
-500.099827442726
21
2054.88332720444
31
2.43433377321522e-005
  0
LINE
 8
GROUP0
10
-503.246091812667
20
2057.29754076681
30
2.43711968359706e-005
11
-503.563929057862
21
2056.88332720444
31
2.43583521071899e-005
  0
LINE
 8
GROUP0
10
-499.900026597716
20
2056.40096529464
30
2.43813278510807e-005
11
-500.099827442726
21
2056.88332720444
31
2.43909265552178e-005
  0
LINE
 8
GROUP0
10
-501.314240160089
20
2057.81517885702
30
2.44016797677327e-005
11
-501.831878250294
21
2057.88332720444
31
2.43984337423842e-005
  0
LINE
 8
GROUP0
10
-588.100051096217
20
1966.88333201375
30
2.14219254158154e-005
11
-587.900250251207
21
1967.36569392354
31
2.14352817471453e-005
  0
LINE
 8
GROUP0
10
-591.246315466159
20
1966.46911845137
30
2.13824837614396e-005
11
-590.832101903785
21
1966.15128120618
31
2.13788160404182e-005
  0
LINE
 8
GROUP0
10
-590.832101903785
20
1969.61538282132
30
2.14612422993643e-005
11
-591.246315466159
21
1969.29754557612
31
2.14497845196338e-005
  0
LINE
 8
GROUP0
10
-243.314011778552
20
2053.95147555186
30
2.6735833129965e-005
11
-242.831649868757
21
2054.15127639687
31
2.67451231316662e-005
  0
LINE
 8
GROUP0
10
-503.763729902872
20
2056.40096529464
30
2.43449957751551e-005
11
-503.831878250295
21
2055.88332720444
31
2.43320380531375e-005
  0
LINE
 8
GROUP0
10
-502.831878250294
20
2057.61537801201
30
2.43826546157011e-005
11
-503.246091812667
21
2057.29754076681
31
2.43711968359706e-005
  0
LINE
 8
GROUP0
10
-499.900026597716
20
2055.36568911423
30
2.43566940634821e-005
11
-499.831878250293
21
2055.88332720444
31
2.43696517862046e-005
  0
LINE
 8
GROUP0
10
-501.831878250294
20
2053.88332720444
30
2.4303256096958e-005
11
-501.314240160089
21
2053.95147555186
31
2.43097452219398e-005
  0
LINE
 8
GROUP0
10
-500.099827442726
20
2054.88332720444
30
2.43433377321522e-005
11
-499.900026597716
21
2055.36568911423
31
2.43566940634821e-005
  0
LINE
 8
GROUP0
10
-589.314463813581
20
1965.95148036117
30
2.1388332905603e-005
11
-588.832101903786
21
1966.15128120618
31
2.13976229065993e-005
  0
LINE
 8
GROUP0
10
-500.831878250294
20
2054.15127639687
30
2.43190352229361e-005
11
-500.41766468792
21
2054.46911364206
31
2.43304930026667e-005
  0
LINE
 8
GROUP0
10
-502.349516340499
20
2053.95147555186
30
2.43000100716095e-005
11
-501.831878250294
21
2053.88332720444
31
2.4303256096958e-005
  0
LINE
 8
GROUP0
10
-500.099827442726
20
2056.88332720444
30
2.43909265552178e-005
11
-500.41766468792
21
2057.29754076681
31
2.43977937615658e-005
  0
LINE
 8
GROUP0
10
-588.832101903786
20
1966.15128120618
30
2.13976229065993e-005
11
-588.417888341412
21
1966.46911845137
31
2.14090806863298e-005
  0
LINE
 8
GROUP0
10
-500.831878250294
20
2057.61537801201
30
2.44014614825871e-005
11
-501.314240160089
21
2057.81517885702
31
2.44016797677327e-005
  0
LINE
 8
GROUP0
10
-591.564152711353
20
1968.88333201375
30
2.14369397908531e-005
11
-591.763953556364
21
1968.40097010395
31
2.14235834588183e-005
  0
LINE
 8
GROUP0
10
-500.41766468792
20
2057.29754076681
30
2.43977937615658e-005
11
-500.831878250294
21
2057.61537801201
31
2.44014614825871e-005
  0
LINE
 8
GROUP0
10
-502.349516340499
20
2057.81517885702
30
2.43919446174023e-005
11
-502.831878250294
21
2057.61537801201
31
2.43826546157011e-005
  0
LINE
 8
GROUP0
10
-589.832101903785
20
1965.88333201375
30
2.13818437806212e-005
11
-589.314463813581
21
1965.95148036117
31
2.1388332905603e-005
  0
LINE
 8
GROUP0
10
-503.831878250295
20
2055.88332720444
30
2.43320380531375e-005
11
-503.763729902872
21
2055.36568911423
31
2.43203619875565e-005
  0
LINE
 8
GROUP0
10
-587.900250251207
20
1710.40074172242
30
1.53209519463626e-005
11
-588.100051096217
21
1710.88310363221
31
1.53305506504997e-005
  0
LINE
 8
GROUP0
10
-587.900250251207
20
1709.365465542
30
1.5296318158764e-005
11
-587.832101903784
21
1709.88310363221
31
1.53092758814866e-005
  0
LINE
 8
GROUP0
10
-588.832101903786
20
1711.61515443978
30
1.53410855778691e-005
11
-589.314463813581
21
1711.81495528479
31
1.53413038630146e-005
  0
LINE
 8
GROUP0
10
-591.763953556364
20
1967.36569392354
30
2.13989496719247e-005
11
-591.564152711353
21
1966.88333201375
31
2.13893509677876e-005
  0
LINE
 8
GROUP0
10
-589.832101903785
20
1711.88310363221
30
1.53380578376661e-005
11
-590.34973999399
21
1711.81495528479
31
1.53315687126843e-005
  0
LINE
 8
GROUP0
10
-591.763953556364
20
1968.40097010395
30
2.14235834588183e-005
11
-591.832101903786
21
1967.88333201375
31
2.14106257368007e-005
  0
LINE
 8
GROUP0
10
-591.763953556364
20
1709.365465542
30
1.52599860828384e-005
11
-591.564152711353
21
1708.88310363221
31
1.52503873794063e-005
  0
LINE
 8
GROUP0
10
-590.34973999399
20
1707.95125197963
30
1.52396341661865e-005
11
-589.832101903785
21
1707.88310363221
31
1.5242880191535e-005
  0
LINE
 8
GROUP0
10
-591.832101903786
20
1709.88310363221
30
1.52716621484195e-005
11
-591.763953556364
21
1709.365465542
31
1.52599860828384e-005
  0
LINE
 8
GROUP0
10
-590.832101903785
20
1966.15128120618
30
2.13788160404182e-005
11
-590.34973999399
21
1965.95148036117
31
2.13785977552727e-005
  0
LINE
 8
GROUP0
10
-589.832101903785
20
1969.88333201375
30
2.14770214260473e-005
11
-590.34973999399
21
1969.81518366632
31
2.14705323010655e-005
  0
LINE
 8
GROUP0
10
-588.417888341412
20
1969.29754557612
30
2.1476381445229e-005
11
-588.832101903786
21
1969.61538282132
31
2.14800491662503e-005
  0
LINE
 8
GROUP0
10
-591.564152711353
20
1710.88310363221
30
1.52979762024719e-005
11
-591.763953556364
21
1710.40074172242
31
1.52846198704371e-005
  0
LINE
 8
GROUP0
10
-588.100051096217
20
1708.88310363221
30
1.52829618274342e-005
11
-587.900250251207
21
1709.365465542
31
1.5296318158764e-005
  0
LINE
 8
GROUP0
10
-591.246315466159
20
1969.29754557612
30
2.14497845196338e-005
11
-591.564152711353
21
1968.88333201375
31
2.14369397908531e-005
  0
LINE
 8
GROUP0
10
-587.900250251207
20
1967.36569392354
30
2.14352817471453e-005
11
-587.832101903784
21
1967.88333201375
31
2.14482394698678e-005
  0
LINE
 8
GROUP0
10
-588.417888341412
20
1711.29731719458
30
1.53374178568477e-005
11
-588.832101903786
21
1711.61515443978
31
1.53410855778691e-005
  0
LINE
 8
GROUP0
10
-590.34973999399
20
1711.81495528479
30
1.53315687126843e-005
11
-590.832101903785
21
1711.61515443978
31
1.5322278710983e-005
  0
LINE
 8
GROUP0
10
-587.832101903784
20
1709.88310363221
30
1.53092758814866e-005
11
-587.900250251207
21
1710.40074172242
31
1.53209519463626e-005
  0
LINE
 8
GROUP0
10
-589.314463813581
20
1969.81518366632
30
2.14802674513959e-005
11
-589.832101903785
21
1969.88333201375
31
2.14770214260473e-005
  0
LINE
 8
GROUP0
10
-587.900250251207
20
1968.40097010395
30
2.14599155347439e-005
11
-588.100051096217
21
1968.88333201375
31
2.1469514238881e-005
  0
LINE
 8
GROUP0
10
-587.832101903784
20
1967.88333201375
30
2.14482394698678e-005
11
-587.900250251207
21
1968.40097010395
31
2.14599155347439e-005
  0
LINE
 8
GROUP0
10
-591.246315466159
20
1711.29731719458
30
1.53108209312525e-005
11
-591.564152711353
21
1710.88310363221
31
1.52979762024719e-005
  0
LINE
 8
GROUP0
10
-588.832101903786
20
1969.61538282132
30
2.14800491662503e-005
11
-589.314463813581
21
1969.81518366632
31
2.14802674513959e-005
  0
LINE
 8
GROUP0
10
-589.314463813581
20
1711.81495528479
30
1.53413038630146e-005
11
-589.832101903785
21
1711.88310363221
31
1.53380578376661e-005
  0
LINE
 8
GROUP0
10
-588.100051096217
20
1710.88310363221
30
1.53305506504997e-005
11
-588.417888341412
21
1711.29731719458
31
1.53374178568477e-005
  0
LINE
 8
GROUP0
10
-590.34973999399
20
1969.81518366632
30
2.14705323010655e-005
11
-590.832101903785
21
1969.61538282132
31
2.14612422993643e-005
  0
LINE
 8
GROUP0
10
-588.100051096217
20
1968.88333201375
30
2.1469514238881e-005
11
-588.417888341412
21
1969.29754557612
31
2.1476381445229e-005
  0
LINE
 8
GROUP0
10
-590.832101903785
20
1711.61515443978
30
1.5322278710983e-005
11
-591.246315466159
21
1711.29731719458
31
1.53108209312525e-005
  0
LINE
 8
GROUP0
10
-591.763953556364
20
1710.40074172242
30
1.52846198704371e-005
11
-591.832101903786
21
1709.88310363221
31
1.52716621484195e-005
  0
LINE
 8
GROUP0
10
-591.832101903786
20
1967.88333201375
30
2.14106257368007e-005
11
-591.763953556364
21
1967.36569392354
31
2.13989496719247e-005
  0
LINE
 8
GROUP0
10
-588.417888341412
20
1840.29731719458
30
1.84068969343532e-005
11
-588.832101903786
21
1840.61515443978
31
1.84105646546695e-005
  0
LINE
 8
GROUP0
10
-590.832101903785
20
1837.15105282464
30
1.83093315288374e-005
11
-590.34973999399
21
1836.95125197963
31
1.83091132436919e-005
  0
LINE
 8
GROUP0
10
-591.564152711353
20
1839.88310363221
30
1.83674552792723e-005
11
-591.763953556364
21
1839.40074172241
31
1.83540989479425e-005
  0
LINE
 8
GROUP0
10
-591.763953556364
20
1838.365465542
30
1.83294651603438e-005
11
-591.564152711353
21
1837.88310363221
31
1.83198664562068e-005
  0
LINE
 8
GROUP0
10
-590.832101903785
20
1840.61515443978
30
1.83917577884884e-005
11
-591.246315466159
21
1840.29731719458
31
1.83803000087579e-005
  0
LINE
 8
GROUP0
10
-588.417888341412
20
1837.46889006984
30
1.8339596175454e-005
11
-588.100051096217
21
1837.88310363221
31
1.83524409042346e-005
  0
LINE
 8
GROUP0
10
-587.900250251207
20
1838.365465542
30
1.83657972362694e-005
11
-587.832101903784
21
1838.88310363221
31
1.8378754958287e-005
  0
LINE
 8
GROUP0
10
-588.100051096217
20
1839.88310363221
30
1.84000297273001e-005
11
-588.417888341412
21
1840.29731719458
31
1.84068969343532e-005
  0
LINE
 8
GROUP0
10
-590.34973999399
20
1840.81495528479
30
1.84010477894847e-005
11
-590.832101903785
21
1840.61515443978
31
1.83917577884884e-005
  0
LINE
 8
GROUP0
10
-501.832106713094
20
1619.88287997872
30
1.39764687370258e-005
11
-501.314468622889
21
1619.95102832614
31
1.39829578620077e-005
  0
LINE
 8
GROUP0
10
-591.246315466159
20
1837.46889006984
30
1.83129992498587e-005
11
-590.832101903785
21
1837.15105282464
31
1.83093315288374e-005
  0
LINE
 8
GROUP0
10
-502.3497448033
20
1619.95102832614
30
1.39732227116773e-005
11
-501.832106713094
21
1619.88287997872
31
1.39764687370258e-005
  0
LINE
 8
GROUP0
10
-499.900255060516
20
1621.36524188851
30
1.40299067042549e-005
11
-499.832106713095
21
1621.88287997872
31
1.40428644262725e-005
  0
LINE
 8
GROUP0
10
-591.832101903786
20
1838.88310363221
30
1.83411412252199e-005
11
-591.763953556364
21
1838.365465542
31
1.83294651603438e-005
  0
LINE
 8
GROUP0
10
-591.763953556364
20
1839.40074172241
30
1.83540989479425e-005
11
-591.832101903786
21
1838.88310363221
31
1.83411412252199e-005
  0
LINE
 8
GROUP0
10
-588.100051096217
20
1837.88310363221
30
1.83524409042346e-005
11
-587.900250251207
21
1838.365465542
31
1.83657972362694e-005
  0
LINE
 8
GROUP0
10
-591.246315466159
20
1840.29731719458
30
1.83803000087579e-005
11
-591.564152711353
21
1839.88310363221
31
1.83674552792723e-005
  0
LINE
 8
GROUP0
10
-591.564152711353
20
1837.88310363221
30
1.83198664562068e-005
11
-591.246315466159
21
1837.46889006984
31
1.83129992498587e-005
  0
LINE
 8
GROUP0
10
-499.900255060516
20
1622.40051806892
30
1.40545404918535e-005
11
-500.100055905525
21
1622.88287997872
31
1.40641391959906e-005
  0
LINE
 8
GROUP0
10
-500.100055905525
20
1620.88287997872
30
1.4016550372925e-005
11
-499.900255060516
21
1621.36524188851
31
1.40299067042549e-005
  0
LINE
 8
GROUP0
10
-502.832106713094
20
1620.15082917115
30
1.39734409975278e-005
11
-502.3497448033
21
1619.95102832614
31
1.39732227116773e-005
  0
LINE
 8
GROUP0
10
-500.832106713094
20
1620.15082917115
30
1.39922478637089e-005
11
-500.417893150722
21
1620.46866641635
31
1.40037056434394e-005
  0
LINE
 8
GROUP0
10
-588.832101903786
20
1840.61515443978
30
1.84105646546695e-005
11
-589.314463813581
21
1840.81495528479
31
1.841078294052e-005
  0
LINE
 8
GROUP0
10
-499.832106713095
20
1621.88287997872
30
1.40428644262725e-005
11
-499.900255060516
21
1622.40051806892
31
1.40545404918535e-005
  0
LINE
 8
GROUP0
10
-500.417893150722
20
1620.46866641635
30
1.40037056434394e-005
11
-500.100055905525
21
1620.88287997872
31
1.4016550372925e-005
  0
LINE
 8
GROUP0
10
-587.832101903784
20
1838.88310363221
30
1.8378754958287e-005
11
-587.900250251207
21
1839.40074172241
31
1.83904310238681e-005
  0
LINE
 8
GROUP0
10
-503.564157520664
20
1620.88287997872
30
1.39839759248972e-005
11
-503.246320275468
21
1620.46866641635
31
1.39771087178442e-005
  0
LINE
 8
GROUP0
10
-589.314463813581
20
1840.81495528479
30
1.841078294052e-005
11
-589.832101903785
21
1840.88310363221
31
1.84075369144665e-005
  0
LINE
 8
GROUP0
10
-589.832101903785
20
1840.88310363221
30
1.84075369144665e-005
11
-590.34973999399
21
1840.81495528479
31
1.84010477894847e-005
  0
LINE
 8
GROUP0
10
-587.900250251207
20
1839.40074172241
30
1.83904310238681e-005
11
-588.100051096217
21
1839.88310363221
31
1.84000297273001e-005
  0
LINE
 8
GROUP0
10
-501.314468622889
20
1619.95102832614
30
1.39829578620077e-005
11
-500.832106713094
21
1620.15082917115
31
1.39922478637089e-005
  0
LINE
 8
GROUP0
10
-374.831878331558
20
1621.88287997872
30
1.52182957216251e-005
11
-374.763729984135
21
1621.36524188851
31
1.52066196567491e-005
  0
LINE
 8
GROUP0
10
-374.763729984135
20
1622.40051806892
30
1.52312534443477e-005
11
-374.831878331558
21
1621.88287997872
31
1.52182957216251e-005
  0
LINE
 8
GROUP0
10
-372.314240241354
20
1619.95102832614
30
1.51960028904274e-005
11
-371.831878331557
21
1620.15082917115
31
1.52052928921287e-005
  0
LINE
 8
GROUP0
10
-503.246320275468
20
1623.29709354109
30
1.40444094767433e-005
11
-503.564157520664
21
1622.88287997872
31
1.40315647479627e-005
  0
LINE
 8
GROUP0
10
-373.349516421763
20
1619.95102832614
30
1.51862677400971e-005
11
-372.831878331557
21
1619.88287997872
31
1.51895137654456e-005
  0
LINE
 8
GROUP0
10
-371.099827523989
20
1620.88287997872
30
1.52295954006398e-005
11
-370.90002667898
21
1621.36524188851
31
1.52429517326746e-005
  0
LINE
 8
GROUP0
10
-374.246091893932
20
1620.46866641635
30
1.5190153746264e-005
11
-373.831878331558
21
1620.15082917115
31
1.51864860252426e-005
  0
LINE
 8
GROUP0
10
-372.314240241354
20
1623.8147316313
30
1.52879374362203e-005
11
-372.831878331557
21
1623.88287997872
31
1.52846914108717e-005
  0
LINE
 8
GROUP0
10
-501.314468622889
20
1623.8147316313
30
1.40748924085055e-005
11
-501.832106713094
21
1623.88287997872
31
1.40716463831569e-005
  0
LINE
 8
GROUP0
10
-374.563929139126
20
1620.88287997872
30
1.5197020952612e-005
11
-374.246091893932
21
1620.46866641635
31
1.5190153746264e-005
  0
LINE
 8
GROUP0
10
-503.763958365672
20
1622.40051806892
30
1.40182084159279e-005
11
-503.832106713094
21
1621.88287997872
31
1.40052506939103e-005
  0
LINE
 8
GROUP0
10
-502.3497448033
20
1623.8147316313
30
1.40651572581751e-005
11
-502.832106713094
21
1623.61493078629
31
1.40558672564739e-005
  0
LINE
 8
GROUP0
10
-372.831878331557
20
1623.88287997872
30
1.52846914108717e-005
11
-373.349516421763
21
1623.8147316313
31
1.52782022858899e-005
  0
LINE
 8
GROUP0
10
-500.832106713094
20
1623.61493078629
30
1.4074674122655e-005
11
-501.314468622889
21
1623.8147316313
31
1.40748924085055e-005
  0
LINE
 8
GROUP0
10
-371.417664769185
20
1623.29709354109
30
1.52840514300534e-005
11
-371.831878331557
21
1623.61493078629
31
1.52877191510747e-005
  0
LINE
 8
GROUP0
10
-503.564157520664
20
1622.88287997872
30
1.40315647479627e-005
11
-503.763958365672
21
1622.40051806892
31
1.40182084159279e-005
  0
LINE
 8
GROUP0
10
-503.246320275468
20
1620.46866641635
30
1.39771087178442e-005
11
-502.832106713094
21
1620.15082917115
31
1.39734409975278e-005
  0
LINE
 8
GROUP0
10
-501.832106713094
20
1623.88287997872
30
1.40716463831569e-005
11
-502.3497448033
21
1623.8147316313
31
1.40651572581751e-005
  0
LINE
 8
GROUP0
10
-373.349516421763
20
1623.8147316313
30
1.52782022858899e-005
11
-373.831878331558
21
1623.61493078629
31
1.52689122848937e-005
  0
LINE
 8
GROUP0
10
-500.417893150722
20
1623.29709354109
30
1.40710064023386e-005
11
-500.832106713094
21
1623.61493078629
31
1.4074674122655e-005
  0
LINE
 8
GROUP0
10
-371.831878331557
20
1623.61493078629
30
1.52877191510747e-005
11
-372.314240241354
21
1623.8147316313
31
1.52879374362203e-005
  0
LINE
 8
GROUP0
10
-370.90002667898
20
1622.40051806892
30
1.52675855195683e-005
11
-371.099827523989
21
1622.88287997872
31
1.52771842237054e-005
  0
LINE
 8
GROUP0
10
-370.90002667898
20
1621.36524188851
30
1.52429517326746e-005
11
-370.831878331557
21
1621.88287997872
31
1.52559094546922e-005
  0
LINE
 8
GROUP0
10
-371.417664769185
20
1620.46866641635
30
1.52167506718592e-005
11
-371.099827523989
21
1620.88287997872
31
1.52295954006398e-005
  0
LINE
 8
GROUP0
10
-371.831878331557
20
1620.15082917115
30
1.52052928921287e-005
11
-371.417664769185
21
1620.46866641635
31
1.52167506718592e-005
  0
LINE
 8
GROUP0
10
-503.763958365672
20
1621.36524188851
30
1.39935746283293e-005
11
-503.564157520664
21
1620.88287997872
31
1.39839759248972e-005
  0
LINE
 8
GROUP0
10
-372.831878331557
20
1619.88287997872
30
1.51895137654456e-005
11
-372.314240241354
21
1619.95102832614
31
1.51960028904274e-005
  0
LINE
 8
GROUP0
10
-371.099827523989
20
1622.88287997872
30
1.52771842237054e-005
11
-371.417664769185
21
1623.29709354109
31
1.52840514300534e-005
  0
LINE
 8
GROUP0
10
-500.100055905525
20
1622.88287997872
30
1.40641391959906e-005
11
-500.417893150722
21
1623.29709354109
31
1.40710064023386e-005
  0
LINE
 8
GROUP0
10
-370.831878331557
20
1621.88287997872
30
1.52559094546922e-005
11
-370.90002667898
21
1622.40051806892
31
1.52675855195683e-005
  0
LINE
 8
GROUP0
10
-502.832106713094
20
1623.61493078629
30
1.40558672564739e-005
11
-503.246320275468
21
1623.29709354109
31
1.40444094767433e-005
  0
LINE
 8
GROUP0
10
-503.832106713094
20
1621.88287997872
30
1.40052506939103e-005
11
-503.763958365672
21
1621.36524188851
31
1.39935746283293e-005
  0
LINE
 8
GROUP0
10
-243.314240241354
20
1619.95102832614
30
1.64090457707378e-005
11
-242.831878331557
21
1620.15082917115
31
1.6418335772439e-005
  0
LINE
 8
GROUP0
10
-374.563929139126
20
1622.88287997872
30
1.52446097756775e-005
11
-374.763729984135
21
1622.40051806892
31
1.52312534443477e-005
  0
LINE
 8
GROUP0
10
-373.831878331558
20
1623.61493078629
30
1.52689122848937e-005
11
-374.246091893932
21
1623.29709354109
31
1.52574545051631e-005
  0
LINE
 8
GROUP0
10
-374.246091893932
20
1623.29709354109
30
1.52574545051631e-005
11
-374.563929139126
21
1622.88287997872
31
1.52446097756775e-005
  0
LINE
 8
GROUP0
10
-373.831878331558
20
1620.15082917115
30
1.51864860252426e-005
11
-373.349516421763
21
1619.95102832614
31
1.51862677400971e-005
  0
LINE
 8
GROUP0
10
-242.099827523989
20
1622.88287997872
30
1.64902271040157e-005
11
-242.417664769185
21
1623.29709354109
31
1.64970943110687e-005
  0
LINE
 8
GROUP0
10
-241.900026678979
20
1622.40051806892
30
1.64806284005836e-005
11
-242.099827523989
21
1622.88287997872
31
1.64902271040157e-005
  0
LINE
 8
GROUP0
10
-241.900026678979
20
1621.36524188851
30
1.6455994612985e-005
11
-241.831878331558
21
1621.88287997872
31
1.64689523350026e-005
  0
LINE
 8
GROUP0
10
-243.831878331557
20
1619.88287997872
30
1.6402556645756e-005
11
-243.314240241354
21
1619.95102832614
31
1.64090457707378e-005
  0
LINE
 8
GROUP0
10
-242.417664769185
20
1620.46866641635
30
1.64297935521696e-005
11
-242.099827523989
21
1620.88287997872
31
1.64426382809502e-005
  0
LINE
 8
GROUP0
10
-242.831878331557
20
1620.15082917115
30
1.6418335772439e-005
11
-242.417664769185
21
1620.46866641635
31
1.64297935521696e-005
  0
LINE
 8
GROUP0
10
-374.763729984135
20
1621.36524188851
30
1.52066196567491e-005
11
-374.563929139126
21
1620.88287997872
31
1.5197020952612e-005
  0
LINE
 8
GROUP0
10
-242.831878331557
20
1623.61493078629
30
1.65007620313851e-005
11
-243.314240241354
21
1623.8147316313
31
1.65009803172356e-005
  0
LINE
 8
GROUP0
10
-242.417664769185
20
1623.29709354109
30
1.64970943110687e-005
11
-242.831878331557
21
1623.61493078629
31
1.65007620313851e-005
  0
LINE
 8
GROUP0
10
-245.563929139127
20
1620.88287997872
30
1.64100638329223e-005
11
-245.246091893931
21
1620.46866641635
31
1.64031966265743e-005
  0
LINE
 8
GROUP0
10
-337.650592666833
20
1814.32267292958
30
2.2630824916553e-005
11
-337.961252838613
21
1814.08429499569
31
2.26364232303378e-005
  0
LINE
 8
GROUP0
10
-242.099827523989
20
1620.88287997872
30
1.64426382809502e-005
11
-241.900026678979
21
1621.36524188851
31
1.6455994612985e-005
  0
LINE
 8
GROUP0
10
-449.771913010392
20
1814.32267292958
30
1.9841211483751e-005
11
-450.010290944288
21
1814.63333310136
31
1.9822757885346e-005
  0
LINE
 8
GROUP0
10
-339.099481406265
20
1813.93444436193
30
2.26235860752821e-005
11
-339.461252838612
21
1814.08429499569
31
2.26104039509067e-005
  0
LINE
 8
GROUP0
10
-245.831878331558
20
1621.88287997872
30
1.64313386026405e-005
11
-245.763729984135
21
1621.36524188851
31
1.64196625370594e-005
  0
LINE
 8
GROUP0
10
-450.160141578045
20
1814.99510453371
30
1.98034841264794e-005
11
-450.211252838612
21
1815.38333310136
31
1.97847036847942e-005
  0
LINE
 8
GROUP0
10
-338.323024270959
20
1813.93444436193
30
2.26370546490329e-005
11
-338.711252838613
21
1813.88333310136
31
2.26326761357198e-005
  0
LINE
 8
GROUP0
10
-244.831878331557
20
1623.61493078629
30
1.6481955165204e-005
11
-245.246091893931
21
1623.29709354109
31
1.64704973854735e-005
  0
LINE
 8
GROUP0
10
-340.010290944289
20
1816.13333310136
30
2.2506437946912e-005
11
-339.771913010392
21
1816.44399327314
31
2.24962542435481e-005
  0
LINE
 8
GROUP0
10
-244.349516421763
20
1619.95102832614
30
1.63993106204074e-005
11
-243.831878331557
21
1619.88287997872
31
1.6402556645756e-005
  0
LINE
 8
GROUP0
10
-340.211252838612
20
1815.38333310136
30
2.25375202985045e-005
11
-340.160141578046
21
1815.77156166902
31
2.25205130256589e-005
  0
LINE
 8
GROUP0
10
-340.160141578045
20
1814.99510453371
30
2.25563007415996e-005
11
-340.211252838612
21
1815.38333310136
31
2.25375202985045e-005
  0
LINE
 8
GROUP0
10
-245.763729984135
20
1621.36524188851
30
1.64196625370594e-005
11
-245.563929139127
21
1620.88287997872
31
1.64100638329223e-005
  0
LINE
 8
GROUP0
10
-245.563929139127
20
1622.88287997872
30
1.64576526559879e-005
11
-245.763729984135
21
1622.40051806892
31
1.6444296324658e-005
  0
LINE
 8
GROUP0
10
-244.349516421763
20
1623.8147316313
30
1.64912451669053e-005
11
-244.831878331557
21
1623.61493078629
31
1.6481955165204e-005
  0
LINE
 8
GROUP0
10
-243.831878331557
20
1623.88287997872
30
1.64977342918871e-005
11
-244.349516421763
21
1623.8147316313
31
1.64912451669053e-005
  0
LINE
 8
GROUP0
10
-450.010290944288
20
1814.63333310136
30
1.9822757885346e-005
11
-450.160141578045
21
1814.99510453371
31
1.98034841264794e-005
  0
LINE
 8
GROUP0
10
-449.461252838611
20
1814.08429499569
30
1.98575873364915e-005
11
-449.771913010392
21
1814.32267292958
31
1.9841211483751e-005
  0
LINE
 8
GROUP0
10
-245.246091893931
20
1623.29709354109
30
1.64704973854735e-005
11
-245.563929139127
21
1622.88287997872
31
1.64576526559879e-005
  0
LINE
 8
GROUP0
10
-447.961252838612
20
1814.08429499568
30
1.98836066173325e-005
11
-448.323024270958
21
1813.93444436193
31
1.98842380367326e-005
  0
LINE
 8
GROUP0
10
-337.961252838613
20
1814.08429499569
30
2.26364232303378e-005
11
-338.323024270959
21
1813.93444436193
31
2.26370546490329e-005
  0
LINE
 8
GROUP0
10
-241.831878331558
20
1621.88287997872
30
1.64689523350026e-005
11
-241.900026678979
21
1622.40051806892
31
1.64806284005836e-005
  0
LINE
 8
GROUP0
10
-449.099481406266
20
1813.93444436193
30
1.98707694636868e-005
11
-449.461252838611
21
1814.08429499569
31
1.98575873364915e-005
  0
LINE
 8
GROUP0
10
-340.010290944288
20
1814.63333310136
30
2.25755744997613e-005
11
-340.160141578045
21
1814.99510453371
31
2.25563007415996e-005
  0
LINE
 8
GROUP0
10
-340.160141578046
20
1815.77156166902
30
2.25205130256589e-005
11
-340.010290944289
21
1816.13333310136
31
2.2506437946912e-005
  0
LINE
 8
GROUP0
10
-448.323024270958
20
1813.93444436193
30
1.98842380367326e-005
11
-448.711252838612
21
1813.88333310136
31
1.98798595191896e-005
  0
LINE
 8
GROUP0
10
-338.711252838613
20
1813.88333310136
30
2.26326761357198e-005
11
-339.099481406265
21
1813.93444436193
31
2.26235860752821e-005
  0
LINE
 8
GROUP0
10
-245.763729984135
20
1622.40051806892
30
1.6444296324658e-005
11
-245.831878331558
21
1621.88287997872
31
1.64313386026405e-005
  0
LINE
 8
GROUP0
10
-245.246091893931
20
1620.46866641635
30
1.64031966265743e-005
11
-244.831878331557
21
1620.15082917115
31
1.6399528906258e-005
  0
LINE
 8
GROUP0
10
-244.831878331557
20
1620.15082917115
30
1.6399528906258e-005
11
-244.349516421763
21
1619.95102832614
31
1.63993106204074e-005
  0
LINE
 8
GROUP0
10
-448.711252838612
20
1813.88333310136
30
1.98798595191896e-005
11
-449.099481406266
21
1813.93444436193
31
1.98707694636868e-005
  0
LINE
 8
GROUP0
10
-561.832133503187
20
2040.88333191527
30
3.20858265064339e-005
11
-574.832133433731
21
2027.88333191527
31
3.21652594083233e-005
  0
LINE
 8
GROUP0
10
-183.831654713557
20
1636.88287567586
30
2.79685422422071e-005
11
-170.83165493957
21
1649.8828751522
31
2.41620678170684e-005
  0
LINE
 8
GROUP0
10
-213.831654682
20
2040.88333191527
30
1.89022886468049e-005
11
-213.831654681229
21
2065.88333191359
31
1.91810330721298e-005
  0
LINE
 8
GROUP0
10
-337.961252838613
20
1816.68237120704
30
2.25166752063743e-005
11
-337.650592666832
21
1816.44399327314
31
2.25330510640498e-005
  0
LINE
 8
GROUP0
10
-337.262364099179
20
1815.77156166902
30
2.25707784206164e-005
11
-337.211252838613
21
1815.38333310136
31
2.25895588615965e-005
  0
LINE
 8
GROUP0
10
-599.832133503189
20
1997.88333188517
30
3.18104156332821e-005
11
-599.832133557007
21
1679.88287579349
31
1.80477854883065e-013
  0
LINE
 8
GROUP0
10
-574.832133503187
20
1997.88333191527
30
3.19395222193819e-005
11
-599.832133503189
21
1997.88333188517
31
3.18104156332821e-005
  0
LINE
 8
GROUP0
10
-339.771913010392
20
1814.32267292958
30
2.25940280995762e-005
11
-340.010290944288
21
1814.63333310136
31
2.25755744997613e-005
  0
LINE
 8
GROUP0
10
-338.323024270959
20
1816.83222184079
30
2.25034930841139e-005
11
-337.961252838613
21
1816.68237120704
31
2.25166752063743e-005
  0
LINE
 8
GROUP0
10
-337.211252838613
20
1815.38333310136
30
2.25895588615965e-005
11
-337.262364099179
21
1814.99510453371
31
2.26065661337371e-005
  0
LINE
 8
GROUP0
10
-337.412214732936
20
1814.63333310136
30
2.26206412145991e-005
11
-337.650592666833
21
1814.32267292958
31
2.2630824916553e-005
  0
LINE
 8
GROUP0
10
-337.412214732936
20
1816.13333310136
30
2.25515046610447e-005
11
-337.262364099179
21
1815.77156166902
31
2.25707784206164e-005
  0
LINE
 8
GROUP0
10
-338.711252838612
20
1816.88333310136
30
2.24944030264962e-005
11
-338.323024270959
21
1816.83222184079
31
2.25034930841139e-005
  0
LINE
 8
GROUP0
10
-339.461252838612
20
1816.68237120704
30
2.24906559255333e-005
11
-339.099481406266
21
1816.83222184079
31
2.24900245075432e-005
  0
LINE
 8
GROUP0
10
-337.262364099179
20
1814.99510453371
30
2.26065661337371e-005
11
-337.412214732936
21
1814.63333310136
31
2.26206412145991e-005
  0
LINE
 8
GROUP0
10
-339.099481406266
20
1816.83222184079
30
2.24900245075432e-005
11
-338.711252838612
21
1816.88333310136
31
2.24944030264962e-005
  0
LINE
 8
GROUP0
10
-337.650592666832
20
1816.44399327314
30
2.25330510640498e-005
11
-337.412214732936
21
1816.13333310136
31
2.25515046610447e-005
  0
LINE
 8
GROUP0
10
-574.832133503187
20
1997.88333191527
30
3.19395222193819e-005
11
-574.832133433731
21
2027.88333191527
31
3.21652594083233e-005
  0
LINE
 8
GROUP0
10
-531.832133503188
20
2040.88333191527
30
3.19356436642715e-005
11
-561.832133503187
21
2040.88333191527
31
3.20858265064339e-005
  0
LINE
 8
GROUP0
10
-531.832133503188
20
2065.88333188517
30
3.19816721526478e-005
11
-531.832133503188
21
2040.88333191527
31
3.19356436642715e-005
  0
LINE
 8
GROUP0
10
-561.832133523213
20
1636.8828757155
30
7.12602953818475e-006
11
-574.832133523213
21
1649.88287579349
31
4.97122607385214e-006
  0
LINE
 8
GROUP0
10
-574.832133523213
20
1679.88287579349
30
1.61516945917928e-007
11
-599.832133557007
21
1679.88287579349
31
1.80477854883065e-013
  0
LINE
 8
GROUP0
10
-574.832133523213
20
1679.88287579349
30
1.61516945917928e-007
11
-574.832133523213
21
1649.88287579349
31
4.97122607385214e-006
  0
LINE
 8
GROUP0
10
-213.831654713558
20
1636.88287567586
30
2.82935972970799e-005
11
-183.831654713557
21
1636.88287567586
31
2.79685422422071e-005
  0
LINE
 8
GROUP0
10
-170.831654756898
20
1679.8828751522
30
2.21983425130912e-005
11
-145.831654713559
21
1679.88287567586
31
2.18210826855969e-005
  0
LINE
 8
GROUP0
10
-339.461252838612
20
1814.08429499569
30
2.26104039509067e-005
11
-339.771913010392
21
1814.32267292958
31
2.25940280995762e-005
  0
LINE
 8
GROUP0
10
-339.771913010392
20
1816.44399327314
30
2.24962542435481e-005
11
-339.461252838612
21
1816.68237120704
31
2.24906559255333e-005
  0
LINE
 8
GROUP0
10
-531.832133523213
20
1636.88287579349
30
7.37948682140166e-006
11
-561.832133523213
21
1636.8828757155
31
7.12602953818475e-006
  0
LINE
 8
GROUP0
10
-531.832133557007
20
1611.88287579349
30
1.14765097279701e-005
11
-213.831654713558
21
1611.88287567586
31
3.14600902517614e-005
  0
LINE
 8
GROUP0
10
-213.831654681229
20
2065.88333191359
30
1.91810330721298e-005
11
-531.832133503188
21
2065.88333188517
31
3.19816721526478e-005
  0
LINE
 8
GROUP0
10
-213.831654713558
20
1611.88287567586
30
3.14600902517614e-005
11
-213.831654713558
21
1636.88287567586
31
2.82935972970799e-005
  0
LINE
 8
GROUP0
10
-531.832133557007
20
1611.88287579349
30
1.14765097279701e-005
11
-531.832133523213
21
1636.88287579349
31
7.37948682140166e-006
  0
LINE
 8
GROUP0
10
-170.8316546824
20
2027.88333191527
30
1.82017292372827e-005
11
-183.831654682001
21
2040.88333191435
31
1.83347688130109e-005
  0
LINE
 8
GROUP0
10
-371.417664687921
20
2057.29754076681
30
2.56108366418761e-005
11
-371.831878250293
21
2057.615378012
31
2.56145043628975e-005
  0
LINE
 8
GROUP0
10
-145.831654713559
20
1679.88287567586
30
2.18210826855969e-005
11
-145.831654681229
21
1997.88333191359
31
1.78660996662361e-005
  0
LINE
 8
GROUP0
10
-373.831878250294
20
2054.15127639687
30
2.55132712370654e-005
11
-373.349516340499
21
2053.95147555186
31
2.55130529519199e-005
  0
LINE
 8
GROUP0
10
-371.099827442725
20
2056.88332720444
30
2.56039694355281e-005
11
-371.417664687921
21
2057.29754076681
31
2.56108366418761e-005
  0
LINE
 8
GROUP0
10
-372.831878250294
20
2057.88332720444
30
2.56114766226945e-005
11
-373.349516340499
21
2057.81517885701
31
2.56049874977127e-005
  0
LINE
 8
GROUP0
10
-170.831654756898
20
1679.8828751522
30
2.21983425130912e-005
11
-170.83165493957
21
1649.8828751522
31
2.41620678170684e-005
  0
LINE
 8
GROUP0
10
-374.246091812668
20
2054.46911364206
30
2.55169389580867e-005
11
-373.831878250294
21
2054.15127639687
31
2.55132712370654e-005
  0
LINE
 8
GROUP0
10
-371.099827442725
20
2054.88332720444
30
2.55563806124626e-005
11
-370.900026597716
21
2055.36568911423
31
2.55697369444974e-005
  0
LINE
 8
GROUP0
10
-145.831654681229
20
1997.88333191359
30
1.78660996662361e-005
11
-170.831654681229
21
1997.88333191527
31
1.81891300782333e-005
  0
LINE
 8
GROUP0
10
-374.563929057862
20
2054.88332720444
30
2.55238061644347e-005
11
-374.246091812668
21
2054.46911364206
31
2.55169389580867e-005
  0
LINE
 8
GROUP0
10
-374.763729902871
20
2055.36568911423
30
2.55334048685718e-005
11
-374.563929057862
21
2054.88332720444
31
2.55238061644347e-005
  0
LINE
 8
GROUP0
10
-374.563929057862
20
2056.88332720444
30
2.55713949875003e-005
11
-374.763729902871
21
2056.40096529464
31
2.55580386554655e-005
  0
LINE
 8
GROUP0
10
-170.831654681229
20
1997.88333191527
30
1.81891300782333e-005
11
-170.8316546824
21
2027.88333191527
31
1.82017292372827e-005
  0
LINE
 8
GROUP0
10
-370.900026597716
20
2055.36568911423
30
2.55697369444974e-005
11
-370.831878250293
21
2055.88332720444
31
2.5582694666515e-005
  0
LINE
 8
GROUP0
10
-372.31424016009
20
2057.81517885701
30
2.5614722648043e-005
11
-372.831878250294
21
2057.88332720444
31
2.56114766226945e-005
  0
LINE
 8
GROUP0
10
-373.349516340499
20
2057.81517885701
30
2.56049874977127e-005
11
-373.831878250294
21
2057.615378012
31
2.55956974967164e-005
  0
LINE
 8
GROUP0
10
-374.246091812668
20
2057.29754076681
30
2.55842397169859e-005
11
-374.563929057862
21
2056.88332720444
31
2.55713949875003e-005
  0
LINE
 8
GROUP0
10
-371.831878250293
20
2057.615378012
30
2.56145043628975e-005
11
-372.31424016009
21
2057.81517885701
31
2.5614722648043e-005
  0
LINE
 8
GROUP0
10
-370.900026597716
20
2056.40096529464
30
2.5594370731391e-005
11
-371.099827442725
21
2056.88332720444
31
2.56039694355281e-005
  0
LINE
 8
GROUP0
10
-373.831878250294
20
2057.615378012
30
2.55956974967164e-005
11
-374.246091812668
21
2057.29754076681
31
2.55842397169859e-005
  0
LINE
 8
GROUP0
10
-370.831878250293
20
2055.88332720444
30
2.5582694666515e-005
11
-370.900026597716
21
2056.40096529464
31
2.5594370731391e-005
  0
LINE
 8
GROUP0
10
-373.349516340499
20
2053.95147555186
30
2.55130529519199e-005
11
-372.831878250294
21
2053.88332720444
31
2.55162989772684e-005
  0
LINE
 8
GROUP0
10
-213.831654682
20
2040.88333191527
30
1.89022886468049e-005
11
-183.831654682001
21
2040.88333191435
31
1.83347688130109e-005
 0
ENDSEC
 0
EOF
