 0
SECTION
 2
ENTITIES
  0
LINE
 8
GROUP0
10
-374.015872253666
20
386.316846984919
30
7.84047501707241e-005
11
-374.015872253667
21
396.316846984918
31
8.01314502094974e-005
  0
LINE
 8
GROUP0
10
-314.015837513391
20
386.316846984919
30
0.000135114986230522
11
-289.015837513393
21
386.316846984919
31
0.000136841686069078
  0
LINE
 8
GROUP0
10
-379.01583751339
20
344.317439641442
30
0.000152178380181528
11
-379.015837513393
21
386.316846984919
31
0.000136841684841688
  0
LINE
 8
GROUP0
10
-289.015837513393
20
386.316846984919
30
0.000136841686069078
11
-289.015837513393
21
294.816509396166
31
4.68156614045534e-005
  0
LINE
 8
GROUP0
10
-314.015837513391
20
386.316846984919
30
0.000135114986230522
11
-314.015837513393
21
396.316846984918
31
0.000136841686269296
  0
LINE
 8
GROUP0
10
-399.01585453333
20
344.317439641442
30
0.000152178379908696
11
-379.01583751339
21
344.317439641442
31
0.000152178380181528
  0
LINE
 8
GROUP0
10
-379.015837513393
20
386.316846984919
30
0.000136841684841688
11
-374.015872253666
21
386.316846984919
31
7.84047501707241e-005
  0
LINE
 8
GROUP0
10
-399.015869562118
20
109.316509396167
30
4.02223164737259e-005
11
-399.01585453333
21
344.317439641442
31
0.000152178379908696
  0
LINE
 8
GROUP0
10
-374.015872253667
20
396.316846984918
30
8.01314502094974e-005
11
-314.015837513393
21
396.316846984918
31
0.000136841686269296
  0
LINE
 8
GROUP0
10
-379.015872253666
20
67.3168469850898
30
8.51558931609764e-005
11
-379.015869562118
21
109.316509396167
31
4.02223167465576e-005
  0
LINE
 8
GROUP0
10
-387.601631952189
20
322.903226079137
30
0.000278014339450722
11
-387.283794706993
21
323.31743964151
31
0.000278026285645122
  0
LINE
 8
GROUP0
10
-388.498207424357
20
326.249291294088
30
0.00027876016128569
11
-389.015845514562
21
326.31743964151
31
0.00027886895621721
  0
LINE
 8
GROUP0
10
-390.94769716714
20
323.799801551305
30
0.00027879634706246
11
-390.747896322131
21
323.31743964151
31
0.000278675606658452
  0
LINE
 8
GROUP0
10
-390.015845514562
20
322.585388833941
30
0.00027841198555334
11
-389.533483604767
21
322.385587988932
31
0.000278287071061029
  0
LINE
 8
GROUP0
10
-390.94769716714
20
324.835077731715
30
0.000278975108211987
11
-391.015845514562
21
324.31743964151
31
0.000278898501859087
  0
LINE
 8
GROUP0
10
-389.015845514562
20
326.31743964151
30
0.00027886895621721
11
-389.533483604767
21
326.249291294088
31
0.000278954216836452
  0
LINE
 8
GROUP0
10
-387.283794706993
20
323.31743964151
30
0.000278026285645122
11
-387.083993861984
21
323.799801551305
31
0.000278072124135437
  0
LINE
 8
GROUP0
10
-314.015837513393
20
67.3168469850898
30
0.000145202024205904
11
-314.015837513391
21
57.3168469850899
31
0.000143475323986653
  0
LINE
 8
GROUP0
10
-389.533483604767
20
322.385587988932
30
0.000278287071061029
11
-389.015845514562
21
322.31743964151
31
0.000278178276129509
  0
LINE
 8
GROUP0
10
-387.083993861984
20
323.799801551305
30
0.000278072124135437
11
-387.015845514562
21
324.31743964151
31
0.000278148730488337
  0
LINE
 8
GROUP0
10
-289.015837513393
20
158.816509396166
30
4.68156615850313e-005
11
-309.015837513393
21
158.816509396166
31
4.68156613121995e-005
  0
LINE
 8
GROUP0
10
-309.015837513393
20
294.816509396166
30
4.68156611317216e-005
11
-289.015837513393
21
294.816509396166
31
4.68156614045534e-005
  0
LINE
 8
GROUP0
10
-289.015837513393
20
158.816509396166
30
4.68156615850313e-005
11
-289.015837513393
21
67.3168469850898
31
0.00014520202454712
  0
LINE
 8
GROUP0
10
-390.430059076935
20
325.731653203883
30
0.000279032892896702
11
-390.747896322131
21
325.31743964151
31
0.000279020946702302
  0
LINE
 8
GROUP0
10
-390.430059076935
20
322.903226079137
30
0.000278544508270806
11
-390.015845514562
21
322.585388833941
31
0.00027841198555334
  0
LINE
 8
GROUP0
10
-390.015845514562
20
326.049490449079
30
0.000279010132479107
11
-390.430059076935
21
325.731653203883
31
0.000279032892896702
  0
LINE
 8
GROUP0
10
-390.747896322131
20
323.31743964151
30
0.000278675606658452
11
-390.430059076935
21
322.903226079137
31
0.000278544508270806
  0
LINE
 8
GROUP0
10
-390.747896322131
20
325.31743964151
30
0.000279020946702302
11
-390.94769716714
21
324.835077731715
31
0.000278975108211987
  0
LINE
 8
GROUP0
10
-374.015872253668
20
67.3168469850898
30
8.84917881461056e-005
11
-379.015872253666
21
67.3168469850898
31
8.51558931609764e-005
  0
LINE
 8
GROUP0
10
-309.015837513393
20
158.816509396166
30
4.68156613121995e-005
11
-309.015837513393
21
294.816509396166
31
4.68156611317216e-005
  0
LINE
 8
GROUP0
10
-389.533483604767
20
326.249291294088
30
0.000278954216836452
11
-390.015845514562
21
326.049490449079
31
0.000279010132479107
  0
LINE
 8
GROUP0
10
-387.083993861984
20
324.835077731715
30
0.000278250885284964
11
-387.283794706993
21
325.31743964151
31
0.000278371625688972
  0
LINE
 8
GROUP0
10
-388.498207424357
20
322.385587988932
30
0.000278093015510267
11
-388.015845514562
21
322.585388833942
31
0.000278037099868317
  0
LINE
 8
GROUP0
10
-387.015845514562
20
324.31743964151
30
0.000278148730488337
11
-387.083993861984
21
324.835077731715
31
0.000278250885284964
  0
LINE
 8
GROUP0
10
-388.015845514562
20
322.585388833942
30
0.000278037099868317
11
-387.601631952189
21
322.903226079137
31
0.000278014339450722
  0
LINE
 8
GROUP0
10
-314.015837513391
20
57.3168469850899
30
0.000143475323986653
11
-374.015872253666
21
57.3168469850899
31
8.67650879268544e-005
  0
LINE
 8
GROUP0
10
-379.015869562118
20
109.316509396167
30
4.02223167465576e-005
11
-399.015869562118
21
109.316509396167
31
4.02223164737259e-005
  0
LINE
 8
GROUP0
10
-289.015837513393
20
67.3168469850898
30
0.00014520202454712
11
-314.015837513393
21
67.3168469850898
31
0.000145202024205904
  0
LINE
 8
GROUP0
10
-374.015872253668
20
67.3168469850898
30
8.84917881461056e-005
11
-374.015872253666
21
57.3168469850899
31
8.67650879268544e-005
  0
LINE
 8
GROUP0
10
-387.083956930978
20
129.834147486517
30
0.000306645852596804
11
-387.283757775987
21
130.316509396312
31
0.000306766593000812
  0
LINE
 8
GROUP0
10
-390.430022145929
20
130.730722958685
30
0.000307427860208542
11
-390.747859391125
21
130.316509396312
31
0.000307415914014142
  0
LINE
 8
GROUP0
10
-387.283794706993
20
325.31743964151
30
0.000278371625688972
11
-387.601631952189
21
325.731653203883
31
0.000278502724076618
  0
LINE
 8
GROUP0
10
-389.015808583556
20
131.316509396312
30
0.00030726392352905
11
-389.533446673761
21
131.24836104889
31
0.000307349184148292
  0
LINE
 8
GROUP0
10
-390.015808583556
20
131.04856020388
30
0.000307405099790947
11
-390.430022145929
21
130.730722958685
31
0.000307427860208542
  0
LINE
 8
GROUP0
10
-388.498170493351
20
131.24836104889
30
0.00030715512859753
11
-389.015808583556
21
131.316509396312
31
0.00030726392352905
  0
LINE
 8
GROUP0
10
-300.015837513393
20
114.798728998197
30
0.000142355230219676
11
-300.430051075766
21
114.480891753001
31
0.000142377990637271
  0
LINE
 8
GROUP0
10
-389.015808583556
20
127.316509396312
30
0.000306573243441349
11
-388.498170493351
21
127.384657743734
31
0.000306487982822107
  0
LINE
 8
GROUP0
10
-390.947660236134
20
129.834147486517
30
0.000307370075523827
11
-391.015808583556
21
129.316509396312
31
0.000307293469170927
  0
LINE
 8
GROUP0
10
-391.015845514562
20
324.31743964151
30
0.000278898501859087
11
-390.94769716714
21
323.799801551305
31
0.00027879634706246
  0
LINE
 8
GROUP0
10
-387.283757775987
20
130.316509396312
30
0.000306766593000812
11
-387.601595021183
21
130.730722958685
31
0.000306897691388458
  0
LINE
 8
GROUP0
10
-389.015845514562
20
322.31743964151
30
0.000278178276129509
11
-388.498207424357
21
322.385587988932
31
0.000278093015510267
  0
LINE
 8
GROUP0
10
-387.601631952189
20
325.731653203883
30
0.000278502724076618
11
-388.015845514562
21
326.049490449079
31
0.000278635246794084
  0
LINE
 8
GROUP0
10
-390.015808583556
20
127.584458588743
30
0.00030680695286518
11
-389.533446673761
21
127.384657743734
31
0.000306682038372869
  0
LINE
 8
GROUP0
10
-390.747859391125
20
130.316509396312
30
0.000307415914014142
11
-390.947660236134
21
129.834147486517
31
0.000307370075523827
  0
LINE
 8
GROUP0
10
-389.533446673761
20
131.24836104889
30
0.000307349184148292
11
-390.015808583556
21
131.04856020388
31
0.000307405099790947
  0
LINE
 8
GROUP0
10
-387.015808583556
20
129.316509396312
30
0.000306543697800177
11
-387.083956930978
21
129.834147486517
31
0.000306645852596804
  0
LINE
 8
GROUP0
10
-388.015845514562
20
326.049490449079
30
0.000278635246794084
11
-388.498207424357
21
326.249291294088
31
0.00027876016128569
  0
LINE
 8
GROUP0
10
-391.015808583556
20
129.316509396312
30
0.000307293469170927
11
-390.947660236134
21
128.798871306107
31
0.0003071913143743
  0
LINE
 8
GROUP0
10
-388.015808583556
20
131.048560203881
30
0.000307030214105924
11
-388.498170493351
21
131.24836104889
31
0.00030715512859753
  0
LINE
 8
GROUP0
10
-387.601595021183
20
130.730722958685
30
0.000306897691388458
11
-388.015808583556
21
131.048560203881
31
0.000307030214105924
  0
LINE
 8
GROUP0
10
-388.015808583556
20
127.584458588743
30
0.000306432067180157
11
-387.601595021183
21
127.902295833939
31
0.000306409306762562
  0
LINE
 8
GROUP0
10
-387.283757775987
20
128.316509396312
30
0.000306421252956962
11
-387.083956930978
21
128.798871306107
31
0.000306467091447277
  0
LINE
 8
GROUP0
10
-387.601595021183
20
127.902295833939
30
0.000306409306762562
11
-387.283757775987
21
128.316509396312
31
0.000306421252956962
  0
LINE
 8
GROUP0
10
-387.083956930978
20
128.798871306107
30
0.000306467091447277
11
-387.015808583556
21
129.316509396312
31
0.000306543697800177
  0
LINE
 8
GROUP0
10
-390.430022145929
20
127.902295833939
30
0.000306939475582646
11
-390.015808583556
21
127.584458588743
31
0.00030680695286518
  0
LINE
 8
GROUP0
10
-389.533446673761
20
127.384657743734
30
0.000306682038372869
11
-389.015808583556
21
127.316509396312
31
0.000306573243441349
  0
LINE
 8
GROUP0
10
-390.747859391125
20
128.316509396312
30
0.000307070573970292
11
-390.430022145929
21
127.902295833939
31
0.000306939475582646
  0
LINE
 8
GROUP0
10
-390.947660236134
20
128.798871306107
30
0.0003071913143743
11
-390.747859391125
21
128.316509396312
31
0.000307070573970292
  0
LINE
 8
GROUP0
10
-299.533475603598
20
111.13482653805
30
0.000141632168813582
11
-299.015837513393
21
111.066678190628
31
0.000141523373882063
  0
LINE
 8
GROUP0
10
-300.747888320962
20
114.066678190628
30
0.000142366044442871
11
-300.947689165971
21
113.584316280833
31
0.000142320205952556
  0
LINE
 8
GROUP0
10
-297.283786706509
20
341.566678190247
30
3.57286238250598e-007
11
-297.601623951592
21
341.980891752454
31
4.88384625896288e-007
  0
LINE
 8
GROUP0
10
-297.283786706462
20
339.566678191011
30
1.19461944003696e-008
11
-297.083985861541
21
340.049040100626
31
5.77846847149566e-008
  0
LINE
 8
GROUP0
10
-297.083985860815
20
113.584316280833
30
0.000141595983025533
11
-297.283786705824
21
114.066678190628
31
0.000141716723429541
  0
LINE
 8
GROUP0
10
-299.015837513393
20
115.066678190628
30
0.000142214053958484
11
-299.533475603598
21
114.998529843206
31
0.000142299314577726
  0
LINE
 8
GROUP0
10
-297.60162395102
20
114.480891753001
30
0.000141847821817187
11
-298.015837513393
21
114.798728998197
31
0.000141980344534653
  0
LINE
 8
GROUP0
10
-298.498199423188
20
114.998529843206
30
0.000142105259026964
11
-299.015837513393
21
115.066678190628
31
0.000142214053958484
  0
LINE
 8
GROUP0
10
-298.015837513393
20
114.798728998197
30
0.000141980344534653
11
-298.498199423188
21
114.998529843206
31
0.000142105259026964
  0
LINE
 8
GROUP0
10
-298.498199423188
20
111.13482653805
30
0.000141438113262821
11
-298.015837513393
21
111.33462738306
31
0.000141382197620166
  0
LINE
 8
GROUP0
10
-297.283786705824
20
114.066678190628
30
0.000141716723429541
11
-297.60162395102
21
114.480891753001
31
0.000141847821817187
  0
LINE
 8
GROUP0
10
-299.533475603598
20
114.998529843206
30
0.000142299314577726
11
-300.015837513393
21
114.798728998197
31
0.000142355230219676
  0
LINE
 8
GROUP0
10
-297.60162395102
20
111.652464628255
30
0.000141359437191291
11
-297.283786705824
21
112.066678190629
31
0.000141371383385691
  0
LINE
 8
GROUP0
10
-297.283786705824
20
112.066678190629
30
0.000141371383385691
11
-297.083985860815
21
112.549040100424
31
0.000141417221876006
  0
LINE
 8
GROUP0
10
-300.430051075766
20
111.652464628255
30
0.000141889606011375
11
-300.015837513393
21
111.334627383059
31
0.000141757083305188
  0
LINE
 8
GROUP0
10
-297.015837513393
20
113.066678190628
30
0.000141493828228906
11
-297.083985860815
21
113.584316280833
31
0.000141595983025533
  0
LINE
 8
GROUP0
10
-299.015837513393
20
111.066678190628
30
0.000141523373882063
11
-298.498199423188
21
111.13482653805
31
0.000141438113262821
  0
LINE
 8
GROUP0
10
-298.015837513393
20
111.33462738306
30
0.000141382197620166
11
-297.60162395102
21
111.652464628255
31
0.000141359437191291
  0
LINE
 8
GROUP0
10
-297.083985860815
20
112.549040100424
30
0.000141417221876006
11
-297.015837513393
21
113.066678190628
31
0.000141493828228906
  0
LINE
 8
GROUP0
10
-300.747888320961
20
112.066678190628
30
0.000142020704399021
11
-300.430051075766
21
111.652464628255
31
0.000141889606011375
  0
LINE
 8
GROUP0
10
-300.430051075258
20
341.980891752389
30
1.01855344598056e-006
11
-300.747888320323
21
341.566678190167
31
1.00660725158019e-006
  0
LINE
 8
GROUP0
10
-388.498170493351
20
127.384657743734
30
0.000306487982822107
11
-388.015808583556
21
127.584458588743
31
0.000306432067180157
  0
LINE
 8
GROUP0
10
-301.015837513393
20
113.066678190628
30
0.000142243599599656
11
-300.947689165971
21
112.549040100423
31
0.000142141444803029
  0
LINE
 8
GROUP0
10
-300.947689165971
20
112.549040100423
30
0.000142141444803029
11
-300.747888320961
21
112.066678190628
31
0.000142020704399021
  0
LINE
 8
GROUP0
10
-300.015837513393
20
111.334627383059
30
0.000141757083305188
11
-299.533475603598
21
111.13482653805
31
0.000141632168813582
  0
LINE
 8
GROUP0
10
-299.533475603444
20
342.498529842417
30
9.39877386435528e-007
11
-300.01583751305
21
342.298728997473
31
9.95793028385483e-007
  0
LINE
 8
GROUP0
10
-297.083985861541
20
340.049040100626
30
5.77846847149566e-008
11
-297.015837514157
21
340.566678190635
31
1.34391037615034e-007
  0
LINE
 8
GROUP0
10
-300.430051075766
20
114.480891753001
30
0.000142377990637271
11
-300.747888320962
21
114.066678190628
31
0.000142366044442871
  0
LINE
 8
GROUP0
10
-298.015837513815
20
342.298728997519
30
6.20907343362731e-007
11
-298.49819942343
21
342.498529842441
31
7.45821835673732e-007
  0
LINE
 8
GROUP0
10
-300.947689165971
20
113.584316280833
30
0.000142320205952556
11
-301.015837513393
21
113.066678190628
31
0.000142243599599656
  0
LINE
 8
GROUP0
10
-297.601623951592
20
341.980891752454
30
4.88384625896288e-007
11
-298.015837513815
21
342.298728997519
31
6.20907343362731e-007
  0
LINE
 8
GROUP0
10
-297.601623951527
20
339.152464628788
30
0.0
11
-297.283786706462
21
339.566678191011
31
1.19461944003696e-008
  0
LINE
 8
GROUP0
10
-299.015837513346
20
338.566678191353
30
1.63936679492549e-007
11
-298.498199423341
21
338.63482653876
31
7.86760602500269e-008
  0
LINE
 8
GROUP0
10
-297.015837514157
20
340.566678190635
30
1.34391037615034e-007
11
-297.083985861564
21
341.08431628064
31
2.36545834242374e-007
  0
LINE
 8
GROUP0
10
-298.49819942343
20
342.498529842441
30
7.45821835673732e-007
11
-299.015837513439
21
342.566678189824
31
8.54616767193006e-007
  0
LINE
 8
GROUP0
10
-297.083985861564
20
341.08431628064
30
2.36545834242374e-007
11
-297.283786706509
21
341.566678190247
31
3.57286238250598e-007
  0
LINE
 8
GROUP0
10
-300.015837512971
20
338.834627383658
30
3.97646102617832e-007
11
-299.533475603355
21
338.634826538737
31
2.72731611011823e-007
  0
LINE
 8
GROUP0
10
-299.533475603355
20
338.634826538737
30
2.72731611011823e-007
11
-299.015837513346
21
338.566678191353
31
1.63936679492549e-007
  0
LINE
 8
GROUP0
10
-300.947689165221
20
340.049040100537
30
7.82007611738189e-007
11
-300.747888320277
21
339.566678190931
31
6.61267207729965e-007
  0
LINE
 8
GROUP0
10
-300.947689165245
20
341.084316280551
30
9.60768761265607e-007
11
-301.015837512628
21
340.566678190542
31
8.8416240836553e-007
  0
LINE
 8
GROUP0
10
-298.498199423341
20
338.63482653876
30
7.86760602500269e-008
11
-298.015837513735
21
338.834627383705
31
2.27604175950802e-008
  0
LINE
 8
GROUP0
10
-300.747888320277
20
339.566678190931
30
6.61267207729965e-007
11
-300.430051075193
21
339.152464628723
31
5.30168820084276e-007
  0
LINE
 8
GROUP0
10
-300.430051075193
20
339.152464628723
30
5.30168820084276e-007
11
-300.015837512971
21
338.834627383658
31
3.97646102617832e-007
  0
LINE
 8
GROUP0
10
-300.01583751305
20
342.298728997473
30
9.95793028385483e-007
11
-300.430051075258
21
341.980891752389
31
1.01855344598056e-006
  0
LINE
 8
GROUP0
10
-298.015837513735
20
338.834627383705
30
2.27604175950802e-008
11
-297.601623951527
21
339.152464628788
31
0.0
  0
LINE
 8
GROUP0
10
-301.015837512628
20
340.566678190542
30
8.8416240836553e-007
11
-300.947689165221
21
340.049040100537
31
7.82007611738189e-007
  0
LINE
 8
GROUP0
10
-299.015837513439
20
342.566678189824
30
8.54616767193006e-007
11
-299.533475603444
21
342.498529842417
31
9.39877386435528e-007
  0
LINE
 8
GROUP0
10
-300.747888320323
20
341.566678190167
30
1.00660725158019e-006
11
-300.947689165245
21
341.084316280551
31
9.60768761265607e-007
 0
ENDSEC
 0
EOF
