 0
SECTION
 2
ENTITIES
  0
LINE
 8
GROUP0
10
973.241957395271
20
2362.36245390459
30
0.000425601957558003
11
973.042156547534
21
2361.88009199847
31
0.000425868646728839
  0
LINE
 8
GROUP0
10
970.310105772816
20
2364.61214281428
30
0.000422324746413066
11
970.79246768194
21
2364.81194365476
31
0.000422424583902237
  0
LINE
 8
GROUP0
10
969.578054948002
20
2361.88009202452
30
0.000424045547512003
11
969.37825410752
21
2362.36245393364
31
0.000423568555437898
  0
LINE
 8
GROUP0
10
971.827743857687
20
2364.81194364697
30
0.000422969432829812
11
972.310105763807
21
2364.61214279924
31
0.000423377312754353
  0
LINE
 8
GROUP0
10
972.724319300656
20
2361.46587844036
30
0.000426020680494071
11
972.310105737759
21
2361.14804119971
31
0.000426047699428356
  0
LINE
 8
GROUP0
10
969.37825410752
20
2362.36245393364
30
0.000423568555437898
11
969.310105764297
21
2362.88009202203
31
0.000423133656579072
  0
LINE
 8
GROUP0
10
973.042156562573
20
2363.88009198946
30
0.000424326898328714
11
973.241957403055
21
2363.39773008034
31
0.000424803890402819
  0
LINE
 8
GROUP0
10
970.310105746768
20
2361.14804121474
30
0.000424995133087069
11
969.895892188651
21
2361.46587846162
31
0.00042453212657963
  0
LINE
 8
GROUP0
10
969.895892188651
20
2361.46587846162
30
0.00042453212657963
11
969.578054948002
21
2361.88009202452
31
0.000424045547512003
  0
LINE
 8
GROUP0
10
970.792467652888
20
2360.94824036701
30
0.00042540301301161
11
970.310105746768
21
2361.14804121474
31
0.000424995133087069
  0
LINE
 8
GROUP0
10
973.310105746278
20
2362.88009199195
30
0.000425238789261645
11
973.241957395271
21
2362.36245390459
31
0.000425601957558003
  0
LINE
 8
GROUP0
10
1320.31013697632
20
2799.38014691761
30
0.000163797620506606
11
1320.31013697633
21
2804.38014691761
31
0.000161905961293168
  0
LINE
 8
GROUP0
10
972.724319321924
20
2364.29430555236
30
0.000423840319261087
11
973.042156562573
21
2363.88009198946
31
0.000424326898328714
  0
LINE
 8
GROUP0
10
969.378254115304
20
2363.39773010939
30
0.000422770488282714
11
969.578054963041
21
2363.88009201551
31
0.000422503799111879
  0
LINE
 8
GROUP0
10
969.310105764297
20
2362.88009202203
30
0.000423133656579072
11
969.378254115304
21
2363.39773010939
31
0.000422770488282714
  0
LINE
 8
GROUP0
10
972.310105763807
20
2364.61214279924
30
0.000423377312754353
11
972.724319321924
21
2364.29430555236
31
0.000423840319261087
  0
LINE
 8
GROUP0
10
973.042156547534
20
2361.88009199847
30
0.000425868646728839
11
972.724319300656
21
2361.46587844036
31
0.000426020680494071
  0
LINE
 8
GROUP0
10
969.895892209919
20
2364.29430557363
30
0.000422351765346646
11
970.310105772816
21
2364.61214281428
31
0.000422324746413066
  0
LINE
 8
GROUP0
10
971.310105740249
20
2360.880092016
30
0.000425727971320483
11
970.792467652888
21
2360.94824036701
31
0.00042540301301161
  0
LINE
 8
GROUP0
10
971.827743828635
20
2360.94824035922
30
0.000425947861939185
11
971.310105740249
21
2360.880092016
31
0.000425727971320483
  0
LINE
 8
GROUP0
10
971.310105770327
20
2364.88009199798
30
0.000422644474520234
11
971.827743857687
21
2364.81194364697
31
0.000422969432829812
  0
LINE
 8
GROUP0
10
970.79246768194
20
2364.81194365476
30
0.000422424583902237
11
971.310105770327
21
2364.88009199798
31
0.000422644474520234
  0
LINE
 8
GROUP0
10
972.310105737759
20
2361.14804119971
30
0.000426047699428356
11
971.827743828635
21
2360.94824035922
31
0.000425947861939185
  0
LINE
 8
GROUP0
10
973.241957403055
20
2363.39773008034
30
0.000424803890402819
11
973.310105746278
21
2362.88009199195
31
0.000425238789261645
  0
LINE
 8
GROUP0
10
969.578054963041
20
2363.88009201551
30
0.000422503799111879
11
969.895892209919
21
2364.29430557363
31
0.000422351765346646
  0
LINE
 8
GROUP0
10
971.827746254909
20
2846.81202093585
30
6.09699224493221e-005
11
972.310108163179
21
2846.61222008716
31
6.13778023731582e-005
  0
LINE
 8
GROUP0
10
969.378256493445
20
2844.36253121175
30
6.1569045056703e-005
11
969.310108149972
21
2844.88016930247
31
6.11341461978776e-005
  0
LINE
 8
GROUP0
10
972.310108136759
20
2843.14811847203
30
6.40481890478661e-005
11
971.827746225441
21
2842.9483176307
31
6.39483515579908e-005
  0
LINE
 8
GROUP0
10
1347.80958605441
20
2377.3800252454
30
0.000376467649103063
11
1347.81009395975
21
2799.38009524666
31
0.000153674889064909
  0
LINE
 8
GROUP0
10
893.81010544846
20
2799.38016972577
30
7.86142473989948e-005
11
921.310105448453
21
2799.38016783963
31
9.59383195768659e-005
  0
LINE
 8
GROUP0
10
961.310213162173
20
2352.88012123469
30
0.000677677925939635
11
1003.3102110999
21
2352.88012053505
31
0.000657324170568019
  0
LINE
 8
GROUP0
10
961.310108226236
20
2854.88016936349
30
5.88159413133005e-005
11
961.31010806989
21
2834.3801693635
31
7.15896224723289e-005
  0
LINE
 8
GROUP0
10
971.827746225441
20
2842.9483176307
30
6.39483515579908e-005
11
971.310108134717
21
2842.88016928722
31
6.37284609392885e-005
  0
LINE
 8
GROUP0
10
969.310108149972
20
2844.88016930247
30
6.11341461978776e-005
11
969.378256501341
21
2845.39780739216
31
6.07709779029297e-005
  0
LINE
 8
GROUP0
10
893.81010544846
20
2799.38016972577
30
7.86142473989948e-005
11
893.810086929922
21
2377.38019259732
31
7.70172768085331e-006
  0
LINE
 8
GROUP0
10
970.792470074499
20
2846.81202094375
30
6.04250735217471e-005
11
971.310108165223
21
2846.88016928722
31
6.06449641397444e-005
  0
LINE
 8
GROUP0
10
1280.31017459898
20
2834.38017258329
30
0.000136701672169165
11
1280.31021316217
21
2854.88016662557
31
0.000111980033600562
  0
LINE
 8
GROUP0
10
961.310191865899
20
2377.38018949716
30
-1.80477854883065e-013
11
893.810086929922
21
2377.38019259732
31
7.70172768085331e-006
  0
LINE
 8
GROUP0
10
973.241959798599
20
2844.36253118228
30
6.36024471768082e-005
11
973.042158949911
21
2843.88016927401
31
6.38691356257326e-005
  0
LINE
 8
GROUP0
10
1280.310213162
20
2352.88017368907
30
0.000483434389782589
11
1280.30962907102
21
2377.38011449741
31
0.000389404545025229
  0
LINE
 8
GROUP0
10
1280.30962907102
20
2377.38011449741
30
0.000389404545025229
11
1347.80958605441
21
2377.3800252454
31
0.000376467649103063
  0
LINE
 8
GROUP0
10
1280.31021316217
20
2854.88016662557
30
0.000111980033600562
11
961.310108226236
21
2854.88016936349
31
5.88159413133005e-005
  0
LINE
 8
GROUP0
10
1320.31013697632
20
2799.38014691761
30
0.000163797620506606
11
1347.81009395975
21
2799.38009524666
31
0.000153674889064909
  0
LINE
 8
GROUP0
10
972.724321701557
20
2843.46595571406
30
6.40211701128768e-005
11
972.310108136759
21
2843.14811847203
31
6.40481890478661e-005
  0
LINE
 8
GROUP0
10
973.042158949911
20
2843.88016927401
30
6.38691356257326e-005
11
972.724321701557
21
2843.46595571406
31
6.40211701128768e-005
  0
LINE
 8
GROUP0
10
973.310108149969
20
2844.88016927197
30
6.32392788804503e-005
11
973.241959798599
21
2844.36253118228
31
6.36024471768082e-005
  0
LINE
 8
GROUP0
10
969.378256501341
20
2845.39780739216
30
6.07709779029297e-005
11
969.578057350029
21
2845.88016930043
31
6.05042894533003e-005
  0
LINE
 8
GROUP0
10
971.310108165223
20
2846.88016928722
30
6.06449641397444e-005
11
971.827746254909
21
2846.81202093585
31
6.09699224493221e-005
  0
LINE
 8
GROUP0
10
969.578057334776
20
2843.88016930043
30
6.20460378527199e-005
11
969.378256493445
21
2844.36253121175
31
6.1569045056703e-005
  0
LINE
 8
GROUP0
10
972.724321723128
20
2846.29438283881
30
6.18408088805977e-005
11
973.042158965165
21
2845.88016927401
31
6.2327387226313e-005
  0
LINE
 8
GROUP0
10
970.792470045032
20
2842.94831763859
30
6.34035026304158e-005
11
970.310108136761
21
2843.14811848728
31
6.29956227065798e-005
  0
LINE
 8
GROUP0
10
969.895894576813
20
2843.46595573563
30
6.25326161984352e-005
11
969.578057334776
21
2843.88016930043
31
6.20460378527199e-005
  0
LINE
 8
GROUP0
10
969.895894598384
20
2846.29438286038
30
6.03522549661561e-005
11
970.31010816318
21
2846.61222010242
31
6.03252360318718e-005
  0
LINE
 8
GROUP0
10
969.578057350029
20
2845.88016930043
30
6.05042894533003e-005
11
969.895894598384
21
2846.29438286038
31
6.03522549661561e-005
  0
LINE
 8
GROUP0
10
972.310108163179
20
2846.61222008716
30
6.13778023731582e-005
11
972.724321723128
21
2846.29438283881
31
6.18408088805977e-005
  0
LINE
 8
GROUP0
10
970.31010816318
20
2846.61222010242
30
6.03252360318718e-005
11
970.792470074499
21
2846.81202094375
31
6.04250735217471e-005
  0
LINE
 8
GROUP0
10
961.310191865899
20
2377.38018949716
30
-1.80477854883065e-013
11
961.310213162173
21
2352.88012123469
31
0.000677677925939635
  0
LINE
 8
GROUP0
10
1271.72440790242
20
2843.46595312869
30
0.000119588919171004
11
1271.31019433762
21
2843.14811588665
31
0.000119615938105994
  0
LINE
 8
GROUP0
10
1271.31019436404
20
2846.61221750178
30
0.000116945551431286
11
1271.72440792399
21
2846.29438025342
31
0.000117408557938725
  0
LINE
 8
GROUP0
10
1336.8100784029
20
2791.11216672266
30
0.000159683571784502
11
1337.29244068811
21
2791.31196666133
31
0.000159783409996289
  0
LINE
 8
GROUP0
10
1270.31019433558
20
2842.88016670185
30
0.000119296209997416
11
1269.7925562459
21
2842.94831505322
31
0.000118971251688543
  0
LINE
 8
GROUP0
10
1269.7925562459
20
2842.94831505322
30
0.000118971251688543
11
1269.31019433763
21
2843.1481159019
31
0.000118563371764707
  0
LINE
 8
GROUP0
10
973.241959806495
20
2845.39780736269
30
6.28043800230349e-005
11
973.310108149969
21
2844.88016927197
31
6.32392788804503e-005
  0
LINE
 8
GROUP0
10
1270.8278324263
20
2842.94831504532
30
0.000119516100616118
11
1270.31019433558
21
2842.88016670185
31
0.000119296209997416
  0
LINE
 8
GROUP0
10
1269.31019433763
20
2843.1481159019
30
0.000118563371764707
11
1268.89598077768
21
2843.46595315026
31
0.000118100365256563
  0
LINE
 8
GROUP0
10
1268.89598077768
20
2843.46595315026
30
0.000118100365256563
11
1268.57814353564
21
2843.88016671505
31
0.000117613786910847
  0
LINE
 8
GROUP0
10
1272.24204599946
20
2844.3625285969
30
0.000119170196234936
11
1272.04224515077
21
2843.88016668863
31
0.00011943688468386
  0
LINE
 8
GROUP0
10
1268.57814353564
20
2843.88016671505
30
0.000117613786910847
11
1268.37834269431
21
2844.36252862637
31
0.00011713679411483
  0
LINE
 8
GROUP0
10
1269.79255627537
20
2846.81201835836
30
0.000115992822579875
11
1270.31019436609
21
2846.88016670183
31
0.000116212713197872
  0
LINE
 8
GROUP0
10
970.310108136761
20
2843.14811848728
30
6.29956227065798e-005
11
969.895894576813
21
2843.46595573563
31
6.25326161984352e-005
  0
LINE
 8
GROUP0
10
1271.31019433762
20
2843.14811588665
30
0.000119615938105994
11
1270.8278324263
21
2842.94831504532
31
0.000119516100616118
  0
LINE
 8
GROUP0
10
971.310108134717
20
2842.88016928722
30
6.37284609392885e-005
11
970.792470045032
21
2842.94831763859
31
6.34035026304158e-005
  0
LINE
 8
GROUP0
10
1268.37834269431
20
2844.36252862637
30
0.00011713679411483
11
1268.31019435084
21
2844.88016671709
31
0.000116701895256005
  0
LINE
 8
GROUP0
10
1272.31019435083
20
2844.88016668659
30
0.000118807027938578
11
1272.24204599946
21
2844.3625285969
31
0.000119170196234936
  0
LINE
 8
GROUP0
10
1268.37834270221
20
2845.39780480678
30
0.000116338726961057
11
1268.5781435509
21
2845.88016671505
31
0.000116072038511428
  0
LINE
 8
GROUP0
10
1268.89598079925
20
2846.29438027499
30
0.000115920004024284
11
1269.31019436405
21
2846.61221751703
31
0.000115892985089999
  0
LINE
 8
GROUP0
10
1270.31019436609
20
2846.88016670183
30
0.000116212713197872
11
1270.82783245577
21
2846.81201835046
31
0.00011653767150745
  0
LINE
 8
GROUP0
10
1269.31019436405
20
2846.61221751703
30
0.000115892985089999
11
1269.79255627537
21
2846.81201835836
31
0.000115992822579875
  0
LINE
 8
GROUP0
10
1268.31019435084
20
2844.88016671709
30
0.000116701895256005
11
1268.37834270221
21
2845.39780480678
31
0.000116338726961057
  0
LINE
 8
GROUP0
10
1271.72440792399
20
2846.29438025342
30
0.000117408557938725
11
1272.04224516602
21
2845.88016668863
31
0.00011789513628444
  0
LINE
 8
GROUP0
10
1272.04224515077
20
2843.88016668863
30
0.00011943688468386
11
1271.72440790242
21
2843.46595312869
31
0.000119588919171004
  0
LINE
 8
GROUP0
10
1272.04224516602
20
2845.88016668863
30
0.00011789513628444
11
1272.24204600735
21
2845.39780477731
31
0.000118372129081162
  0
LINE
 8
GROUP0
10
1268.5781435509
20
2845.88016671505
30
0.000116072038511428
11
1268.89598079925
21
2846.29438027499
31
0.000115920004024284
  0
LINE
 8
GROUP0
10
973.042158965165
20
2845.88016927401
30
6.2327387226313e-005
11
973.241959806495
21
2845.39780736269
31
6.28043800230349e-005
  0
LINE
 8
GROUP0
10
1270.82783245577
20
2846.81201835046
30
0.00011653767150745
11
1271.31019436404
21
2846.61221750178
31
0.000116945551431286
  0
LINE
 8
GROUP0
10
1272.24204600735
20
2845.39780477731
30
0.000118372129081162
11
1272.31019435083
21
2844.88016668659
31
0.000118807027938578
  0
LINE
 8
GROUP0
10
1336.39585892886
20
2787.96590313102
30
0.000161890948341509
11
1336.07802246196
21
2788.38011729059
31
0.000161404369273882
  0
LINE
 8
GROUP0
10
1335.87822252328
20
2788.86247957579
30
0.000160927377199777
11
1335.81007514847
21
2789.38011779404
31
0.000160492478340951
  0
LINE
 8
GROUP0
10
1337.29244068811
20
2791.31196666133
30
0.000159783409996289
11
1337.81007890636
21
2791.38011403614
31
0.000160003301336198
  0
LINE
 8
GROUP0
10
1338.81007189403
20
2787.64806134964
30
0.000163406523356674
11
1338.32770960882
21
2787.44826141097
31
0.000163306685144887
  0
LINE
 8
GROUP0
10
905.224320981317
20
2790.79514040294
30
0.00018226492701322
11
905.542157447992
21
2790.38092624365
31
0.000182751506080847
  0
LINE
 8
GROUP0
10
903.810108520623
20
2791.38092949742
30
0.000181069080828544
11
904.327746482412
21
2791.31278017741
31
0.000181394039860033
  0
LINE
 8
GROUP0
10
902.810101508915
20
2787.64888057146
30
0.000183419733620088
11
902.395888544043
21
2787.96671859473
31
0.000182956727111944
  0
LINE
 8
GROUP0
10
1335.81007514847
20
2789.38011779404
30
0.000160492478340951
11
1335.87822446851
21
2789.8977557562
31
0.00016012931076721
  0
LINE
 8
GROUP0
10
901.810104764098
20
2789.38093325678
30
0.000181558257111386
11
901.878254084099
21
2789.89857121856
31
0.000181195089537645
  0
LINE
 8
GROUP0
10
1335.87822446851
20
2789.8977557562
30
0.00016012931076721
11
1336.07802621985
21
2790.38011729058
31
0.000159862623039492
  0
LINE
 8
GROUP0
10
1339.22429136806
20
2790.79432494129
30
0.000161199146798258
11
1339.54212783497
21
2790.38011078171
31
0.000161685725865884
  0
LINE
 8
GROUP0
10
1337.29243342841
20
2787.4482633562
30
0.000162761835495401
11
1336.81007189404
21
2787.64806510754
31
0.000162353954127742
  0
LINE
 8
GROUP0
10
1339.54212783497
20
2790.38011078171
30
0.000161685725865884
11
1339.74192777365
21
2789.89774849651
31
0.000162162717940695
  0
LINE
 8
GROUP0
10
1336.81007189404
20
2787.64806510754
30
0.000162353954127742
11
1336.39585892886
21
2787.96590313102
31
0.000161890948341509
  0
LINE
 8
GROUP0
10
1338.81007840289
20
2791.11216296476
30
0.000160736141013434
11
1339.22429136806
21
2790.79432494129
31
0.000161199146798258
  0
LINE
 8
GROUP0
10
1338.32771686851
20
2791.31196471611
30
0.000160328259645776
11
1338.81007840289
21
2791.11216296476
31
0.000160736141013434
  0
LINE
 8
GROUP0
10
1336.39586424333
20
2790.79433025575
30
0.000159710589274259
11
1336.8100784029
21
2791.11216672266
31
0.000159683571784502
  0
LINE
 8
GROUP0
10
1339.74192582842
20
2788.8624723161
30
0.000162960784373262
11
1339.54212407708
21
2788.38011078172
31
0.000163227472100275
  0
LINE
 8
GROUP0
10
1336.07802246196
20
2788.38011729059
30
0.000161404369273882
11
1335.87822252328
21
2788.86247957579
31
0.000160927377199777
  0
LINE
 8
GROUP0
10
1339.2242860536
20
2787.96589781655
30
0.000163379505865507
11
1338.81007189403
21
2787.64806134964
31
0.000163406523356674
  0
LINE
 8
GROUP0
10
903.810101004737
20
2787.38092950025
30
0.00018415257329662
11
903.292463042948
21
2787.44907882025
31
0.000183827614265836
  0
LINE
 8
GROUP0
10
904.810108016445
20
2791.1129784262
30
0.000181801920505781
11
905.224320981317
21
2790.79514040294
31
0.00018226492701322
  0
LINE
 8
GROUP0
10
904.327739222624
20
2787.449076875
30
0.000184372464637234
11
903.810101004737
21
2787.38092950025
31
0.00018415257329662
  0
LINE
 8
GROUP0
10
902.810108017863
20
2791.11298218415
30
0.000180749350554937
11
903.292470302736
21
2791.31278212267
31
0.000180849189488635
  0
LINE
 8
GROUP0
10
1339.81007514845
20
2789.38011027826
30
0.000162597616798815
11
1339.74192582842
21
2788.8624723161
31
0.000162960784373262
  0
LINE
 8
GROUP0
10
905.810104761262
20
2789.38092574089
30
0.000183663397013073
11
905.741955441261
21
2788.8632877791
31
0.000184026564587519
  0
LINE
 8
GROUP0
10
1339.54212407708
20
2788.38011078172
30
0.000163227472100275
11
1339.2242860536
21
2787.96589781655
31
0.000163379505865507
  0
LINE
 8
GROUP0
10
1338.32770960882
20
2787.44826141097
30
0.000163306685144887
11
1337.81007139057
21
2787.38011403616
31
0.000163086793804273
  0
LINE
 8
GROUP0
10
1337.81007139057
20
2787.38011403616
30
0.000163086793804273
11
1337.29243342841
21
2787.4482633562
31
0.000162761835495401
  0
LINE
 8
GROUP0
10
1339.74192777365
20
2789.89774849651
30
0.000162162717940695
11
1339.81007514845
21
2789.38011027826
31
0.000162597616798815
  0
LINE
 8
GROUP0
10
1336.07802621985
20
2790.38011729058
30
0.000159862623039492
11
1336.39586424333
21
2790.79433025575
31
0.000159710589274259
  0
LINE
 8
GROUP0
10
1337.81007890636
20
2791.38011403614
30
0.000160003301336198
11
1338.32771686851
21
2791.31196471611
31
0.000160328259645776
  0
LINE
 8
GROUP0
10
905.741955441261
20
2788.8632877791
30
0.000184026564587519
11
905.542153690049
21
2788.38092624507
31
0.000184293252314532
  0
LINE
 8
GROUP0
10
903.292470302736
20
2791.31278212267
30
0.000180849189488635
11
903.810108520623
21
2791.38092949742
31
0.000181069080828544
  0
LINE
 8
GROUP0
10
905.741957386515
20
2789.89856395878
30
0.000183228498154953
11
905.810104761262
21
2789.38092574089
31
0.000183663397013073
  0
LINE
 8
GROUP0
10
901.878254084099
20
2789.89857121856
30
0.000181195089537645
11
902.078055835311
21
2790.3809327526
31
0.000180928401810632
  0
LINE
 8
GROUP0
10
901.878252138845
20
2788.86329503889
30
0.000181993155970211
11
901.810104764098
21
2789.38093325678
31
0.000181558257111386
  0
LINE
 8
GROUP0
10
902.395888544043
20
2787.96671859473
30
0.000182956727111944
11
902.078052077368
21
2788.38093275402
31
0.000182470148044317
  0
LINE
 8
GROUP0
10
1339.22382108842
20
2388.79425493733
30
0.000371932566342065
11
1339.54165755443
21
2388.38004077707
31
0.00037241914468778
  0
LINE
 8
GROUP0
10
905.542153690049
20
2788.38092624507
30
0.000184293252314532
11
905.224315666783
21
2787.9667132802
31
0.000184445285357854
  0
LINE
 8
GROUP0
10
1339.54165379217
20
2386.38004077708
30
0.00037396089092217
11
1339.22381576779
21
2385.9658278126
31
0.000374112924687403
  0
LINE
 8
GROUP0
10
902.395893858577
20
2790.79514571747
30
0.00018077636876731
11
902.810108017863
21
2791.11298218415
31
0.000180749350554937
  0
LINE
 8
GROUP0
10
1338.80960812394
20
2389.11209296171
30
0.00037146955983533
11
1339.22382108842
21
2388.79425493733
31
0.000371932566342065
  0
LINE
 8
GROUP0
10
1337.809608628
20
2389.38004403527
30
0.000370736720157389
11
1338.32724659
21
2389.31189471411
31
0.000371061679188878
  0
LINE
 8
GROUP0
10
1335.80960486575
20
2387.38004779754
30
0.000371225897162847
11
1335.87775418692
21
2387.89768575955
31
0.000370862728867194
  0
LINE
 8
GROUP0
10
1335.87775418692
20
2387.89768575955
30
0.000370862728867194
11
1336.07755593931
21
2388.38004729349
31
0.000370596041861387
  0
LINE
 8
GROUP0
10
1337.2919704096
20
2389.31189666159
30
0.00037051682881748
11
1337.809608628
21
2389.38004403527
31
0.000370736720157389
  0
LINE
 8
GROUP0
10
1339.74145749205
20
2387.89767849142
30
0.00037289613676259
11
1339.80960486573
21
2387.38004027303
31
0.000373331035620711
  0
LINE
 8
GROUP0
10
1336.07755593931
20
2388.38004729349
30
0.000370596041861387
11
1336.39539396369
21
2388.79426025796
31
0.000370444008096155
  0
LINE
 8
GROUP0
10
902.078052077368
20
2788.38093275402
30
0.000182470148044317
11
901.878252138845
21
2788.86329503889
31
0.000181993155970211
  0
LINE
 8
GROUP0
10
1339.22381576779
20
2385.9658278126
30
0.000374112924687403
11
1338.80960160752
21
2385.6479913466
31
0.000374139942177865
  0
LINE
 8
GROUP0
10
1338.32724659
20
2389.31189471411
30
0.000371061679188878
11
1338.80960812394
21
2389.11209296171
31
0.00037146955983533
  0
LINE
 8
GROUP0
10
903.292463042948
20
2787.44907882025
30
0.000183827614265836
11
902.810101508915
21
2787.64888057146
31
0.000183419733620088
  0
LINE
 8
GROUP0
10
1339.54165755443
20
2388.38004077707
30
0.00037241914468778
11
1339.74145749205
21
2387.89767849142
31
0.00037289613676259
  0
LINE
 8
GROUP0
10
905.224315666783
20
2787.9667132802
30
0.000184445285357854
11
904.810101507497
21
2787.64887681352
31
0.000184472303570932
  0
LINE
 8
GROUP0
10
1336.80960160753
20
2385.64799510885
30
0.000373087372948933
11
1336.39538864306
21
2385.96583313323
31
0.000372624366441493
  0
LINE
 8
GROUP0
10
1338.80960160752
20
2385.6479913466
30
0.000374139942177865
11
1338.32723932188
21
2385.44819140897
31
0.000374040103966783
  0
LINE
 8
GROUP0
10
1337.29196314148
20
2385.44819335646
30
0.000373495253595385
11
1336.80960160753
21
2385.64799510885
31
0.000373087372948933
  0
LINE
 8
GROUP0
10
904.810101507497
20
2787.64887681352
30
0.000184472303570932
11
904.327739222624
21
2787.449076875
31
0.000184372464637234
  0
LINE
 8
GROUP0
10
1337.80960110348
20
2385.38004403529
30
0.000373820212626169
11
1337.29196314148
21
2385.44819335646
31
0.000373495253595385
  0
LINE
 8
GROUP0
10
1335.87775223943
20
2386.86240957914
30
0.000371660796021672
11
1335.80960486575
21
2387.38004779754
31
0.000371225897162847
  0
LINE
 8
GROUP0
10
905.542157447992
20
2790.38092624365
30
0.000182751506080847
11
905.741957386515
21
2789.89856395878
31
0.000183228498154953
  0
LINE
 8
GROUP0
10
1339.74145554456
20
2386.86240231102
30
0.000373694203917069
11
1339.54165379217
21
2386.38004077708
31
0.00037396089092217
  0
LINE
 8
GROUP0
10
1339.80960486573
20
2387.38004027303
30
0.000373331035620711
11
1339.74145554456
21
2386.86240231102
31
0.000373694203917069
  0
LINE
 8
GROUP0
10
904.327746482412
20
2791.31278017741
30
0.000181394039860033
11
904.810108016445
21
2791.1129784262
31
0.000181801920505781
  0
LINE
 8
GROUP0
10
1336.07755217705
20
2386.3800472935
30
0.000372137788095778
11
1335.87775223943
21
2386.86240957914
31
0.000371660796021672
  0
LINE
 8
GROUP0
10
902.078055835311
20
2790.3809327526
30
0.000180928401810632
11
902.395893858577
21
2790.79514571747
31
0.00018077636876731
  0
LINE
 8
GROUP0
10
1271.72381989815
20
2364.29435244107
30
0.0004476314681293
11
1272.04165636413
21
2363.88013828086
31
0.000448118047196927
  0
LINE
 8
GROUP0
10
905.542138347878
20
2386.38085940209
30
0.000259288500424099
11
905.224301075613
21
2385.96664586319
31
0.000259440534189331
  0
LINE
 8
GROUP0
10
902.395873962486
20
2385.96664605695
30
0.00025795198027489
11
902.078036746972
21
2386.3808596394
31
0.000257465401207263
  0
LINE
 8
GROUP0
10
901.878235935828
20
2386.8632215609
30
0.000256988409133158
11
901.810087624148
21
2387.38085965364
31
0.000256553510274332
  0
LINE
 8
GROUP0
10
905.224301269376
20
2388.79507297632
30
0.000257260172956347
11
905.54213848489
21
2388.38085939387
31
0.000257746752023974
  0
LINE
 8
GROUP0
10
1336.39538864306
20
2385.96583313323
30
0.000372624366441493
11
1336.07755217705
21
2386.3800472935
31
0.000372137788095778
  0
LINE
 8
GROUP0
10
902.078036883984
20
2388.38085963118
30
0.000255923652807138
11
902.395874156249
21
2388.79507317008
31
0.000255771619041906
  0
LINE
 8
GROUP0
10
905.224301075613
20
2385.96664586319
30
0.000259440534189331
11
904.810087493167
21
2385.64880864768
31
0.000259467553124321
  0
LINE
 8
GROUP0
10
904.327725836352
20
2389.31271112581
30
0.000256389286525072
11
904.810087730478
21
2389.11291024858
31
0.000256797166449613
  0
LINE
 8
GROUP0
10
905.810087607714
20
2387.38085937962
30
0.000258658642956905
11
905.741939225111
21
2386.86322129621
31
0.000259021811975174
  0
LINE
 8
GROUP0
10
902.078036746972
20
2386.3808596394
30
0.000257465401207263
11
901.878235935828
21
2386.8632215609
31
0.000256988409133158
  0
LINE
 8
GROUP0
10
1271.30960693371
20
2364.61219046542
30
0.000447168461622566
11
1271.72381989815
21
2364.29435244107
31
0.0004476314681293
  0
LINE
 8
GROUP0
10
904.810087730478
20
2389.11291024858
30
0.000256797166449613
11
905.224301269376
21
2388.79507297632
31
0.000257260172956347
  0
LINE
 8
GROUP0
10
1336.80960812395
20
2389.11209672397
30
0.000370416990606398
11
1337.2919704096
21
2389.31189666159
31
0.00037051682881748
  0
LINE
 8
GROUP0
10
1338.32723932188
20
2385.44819140897
30
0.000374040103966783
11
1337.80960110348
21
2385.38004403529
31
0.000373820212626169
  0
LINE
 8
GROUP0
10
905.741939225111
20
2386.86322129621
30
0.000259021811975174
11
905.542138347878
21
2386.38085940209
31
0.000259288500424099
  0
LINE
 8
GROUP0
10
904.810087493167
20
2385.64880864768
30
0.000259467553124321
11
904.327725571666
21
2385.44900783653
31
0.000259367715634445
  0
LINE
 8
GROUP0
10
903.810087752942
20
2389.38085950842
30
0.000256064328215494
11
904.327725836352
21
2389.31271112581
31
0.000256389286525072
  0
LINE
 8
GROUP0
10
901.810087624148
20
2387.38085965364
30
0.000256553510274332
11
901.878236006751
21
2387.89849773705
31
0.000256190341256768
  0
LINE
 8
GROUP0
10
905.54213848489
20
2388.38085939387
30
0.000257746752023974
11
905.741939296033
21
2387.89849747237
31
0.000258223744098784
  0
LINE
 8
GROUP0
10
904.327725571666
20
2385.44900783653
30
0.000259367715634445
11
903.810087478919
21
2385.38085952485
31
0.000259147825015743
  0
LINE
 8
GROUP0
10
1336.39539396369
20
2388.79426025796
30
0.000370444008096155
11
1336.80960812395
21
2389.11209672397
31
0.000370416990606398
  0
LINE
 8
GROUP0
10
905.741939296033
20
2387.89849747237
30
0.000258223744098784
11
905.810087607714
21
2387.38085937962
31
0.000258658642956905
  0
LINE
 8
GROUP0
10
903.29244939551
20
2385.44900790745
30
0.00025882286670687
11
902.810087501384
21
2385.64880878469
31
0.000258414986783034
  0
LINE
 8
GROUP0
10
902.810087501384
20
2385.64880878469
30
0.000258414986783034
11
902.395873962486
21
2385.96664605695
31
0.00025795198027489
  0
LINE
 8
GROUP0
10
903.292449660195
20
2389.31271119674
30
0.000255844437597497
11
903.810087752942
21
2389.38085950842
31
0.000256064328215494
  0
LINE
 8
GROUP0
10
901.878236006751
20
2387.89849773705
30
0.000256190341256768
11
902.078036883984
21
2388.38085963118
31
0.000255923652807138
  0
LINE
 8
GROUP0
10
903.810087478919
20
2385.38085952485
30
0.000259147825015743
11
903.29244939551
21
2385.44900790745
31
0.00025882286670687
  0
LINE
 8
GROUP0
10
902.810087738694
20
2389.11291038559
30
0.000255744600108326
11
903.292449660195
21
2389.31271119674
31
0.000255844437597497
  0
LINE
 8
GROUP0
10
902.395874156249
20
2388.79507317008
30
0.000255771619041906
11
902.810087738694
21
2389.11291038559
31
0.000255744600108326
  0
LINE
 8
GROUP0
10
1270.82724539982
20
2364.81199221778
30
0.000446760580976113
11
1271.30960693371
21
2364.61219046542
31
0.000447168461622566
  0
LINE
 8
GROUP0
10
1270.30960743786
20
2364.88014153894
30
0.000446435621944624
11
1270.82724539982
21
2364.81199221778
31
0.000446760580976113
  0
LINE
 8
GROUP0
10
1272.0416526019
20
2361.88013828108
30
0.000449659794153229
11
1271.72381457755
21
2361.46592531664
31
0.00044981182719655
  0
LINE
 8
GROUP0
10
1268.37775104953
20
2362.36250708304
30
0.000447359698530819
11
1268.30960367585
21
2362.88014530138
31
0.000446924799671994
  0
LINE
 8
GROUP0
10
1268.89538745312
20
2361.46593063723
30
0.000448323269672551
11
1268.57755098714
21
2361.88014479745
31
0.000447836690604925
  0
LINE
 8
GROUP0
10
1268.57755474937
20
2363.88014479723
30
0.000446294943648623
11
1268.89539277371
21
2364.29435776167
31
0.000446142910605302
  0
LINE
 8
GROUP0
10
1269.30960041756
20
2361.14809261289
30
0.000448786276179991
11
1268.89538745312
21
2361.46593063723
31
0.000448323269672551
  0
LINE
 8
GROUP0
10
1269.79196195145
20
2360.94829086053
30
0.000449194156826443
11
1269.30960041756
21
2361.14809261289
31
0.000448786276179991
  0
LINE
 8
GROUP0
10
1271.72381457755
20
2361.46592531664
30
0.00044981182719655
11
1271.30960041734
21
2361.14808885066
31
0.000449838845408923
  0
LINE
 8
GROUP0
10
1270.3095999134
20
2360.88014153937
30
0.000449519115857228
11
1269.79196195145
21
2360.94829086053
31
0.000449194156826443
  0
LINE
 8
GROUP0
10
1271.30960041734
20
2361.14808885066
30
0.000449838845408923
11
1270.82723813175
21
2360.94828891305
31
0.000449739007197841
  0
LINE
 8
GROUP0
10
1268.89539277371
20
2364.29435776167
30
0.000446142910605302
11
1269.30960693393
21
2364.61219422765
31
0.000446115892393634
  0
LINE
 8
GROUP0
10
1272.04165636413
20
2363.88013828086
30
0.000448118047196927
11
1272.24145630174
21
2363.39777599527
31
0.000448595039271032
  0
LINE
 8
GROUP0
10
1272.24145435426
20
2362.36249981497
30
0.000449393106426216
11
1272.0416526019
21
2361.88013828108
31
0.000449659794153229
  0
LINE
 8
GROUP0
10
1272.30960367541
20
2362.88013777693
30
0.000449029938129858
11
1272.24145435426
21
2362.36249981497
31
0.000449393106426216
  0
LINE
 8
GROUP0
10
1268.377752997
20
2363.39778326334
30
0.000446561631375636
11
1268.57755474937
21
2363.88014479723
31
0.000446294943648623
  0
LINE
 8
GROUP0
10
1268.57755098714
20
2361.88014479745
30
0.000447836690604925
11
1268.37775104953
21
2362.36250708304
31
0.000447359698530819
  0
LINE
 8
GROUP0
10
1270.82723813175
20
2360.94828891305
30
0.000449739007197841
11
1270.3095999134
21
2360.88014153937
31
0.000449519115857228
  0
LINE
 8
GROUP0
10
1269.79196921952
20
2364.81199416526
30
0.000446215730604715
11
1270.30960743786
21
2364.88014153894
31
0.000446435621944624
  0
LINE
 8
GROUP0
10
1272.24145630174
20
2363.39777599527
30
0.000448595039271032
11
1272.30960367541
21
2362.88013777693
31
0.000449029938129858
  0
LINE
 8
GROUP0
10
1268.30960367585
20
2362.88014530138
30
0.000446924799671994
11
1268.377752997
21
2363.39778326334
31
0.000446561631375636
  0
LINE
 8
GROUP0
10
1269.30960693393
20
2364.61219422765
30
0.000446115892393634
11
1269.79196921952
21
2364.81199416526
31
0.000446215730604715
  0
LINE
 8
GROUP0
10
961.31010806989
20
2834.3801693635
30
7.15896224723289e-005
11
951.310108898241
21
2834.38016980588
31
7.04003761907879e-005
  0
LINE
 8
GROUP0
10
921.310105448453
20
2799.38016783963
30
9.59383195768659e-005
11
921.310105468707
21
2804.38016783963
31
9.34411117249956e-005
  0
LINE
 8
GROUP0
10
1290.31017459898
20
2834.38017258329
30
0.000141533149484813
11
1320.31013697633
21
2804.38014691761
31
0.000161905961293168
  0
LINE
 8
GROUP0
10
1003.31020859612
20
2372.88012053505
30
0.000657324173361901
11
1238.31020858419
21
2372.88016247346
31
0.000503788150113821
  0
LINE
 8
GROUP0
10
1280.31017459898
20
2834.38017258329
30
0.000136701672169165
11
1290.31017459898
21
2834.38017258329
31
0.000141533149484813
  0
LINE
 8
GROUP0
10
921.310105468707
20
2804.38016783963
30
9.34411117249956e-005
11
951.310108898241
21
2834.38016980588
31
7.04003761907879e-005
  0
LINE
 8
GROUP0
10
1003.3102110999
20
2352.88012053505
30
0.000657324170568019
11
1003.31020859612
21
2372.88012053505
31
0.000657324173361901
  0
LINE
 8
GROUP0
10
1238.31021108797
20
2352.88016247346
30
0.000503788147319939
11
1238.31020858419
21
2372.88016247346
31
0.000503788150113821
  0
LINE
 8
GROUP0
10
1238.31021108797
20
2352.88016247346
30
0.000503788147319939
11
1280.310213162
21
2352.88017368907
31
0.000483434389782589
 0
ENDSEC
 0
EOF
