 0
SECTION
 2
ENTITIES
  0
LINE
 8
GROUP0
10
-702.340525556372
20
1683.87963537829
30
1.98515750184924e-005
11
-702.340525524042
21
2001.88009161603
31
1.56814545157147e-005
  0
LINE
 8
GROUP0
10
-702.340525524042
20
2001.88009161603
30
1.56814545157147e-005
11
-727.340525524042
21
2001.8800916177
31
1.60044849700114e-005
  0
LINE
 8
GROUP0
10
-727.340525524042
20
2001.8800916177
30
1.60044849700114e-005
11
-727.340525525214
21
2031.88009161771
31
1.60170841290608e-005
  0
LINE
 8
GROUP0
10
-727.340525525214
20
2031.88009161771
30
1.60170841290608e-005
11
-740.340525524814
21
2044.88009161678
31
1.61501236505046e-005
  0
LINE
 8
GROUP0
10
-770.340525524813
20
2044.88009161771
30
1.67176434842986e-005
11
-740.340525524814
21
2044.88009161678
31
1.61501236505046e-005
  0
LINE
 8
GROUP0
10
-770.340525524813
20
2044.88009161771
30
1.67176434842986e-005
11
-770.340525524043
21
2069.88009161603
31
1.69963879216084e-005
  0
LINE
 8
GROUP0
10
-770.340525524043
20
2069.88009161603
30
1.69963879216084e-005
11
-1088.341004346
21
2069.88009158761
31
3.1766534488753e-005
  0
LINE
 8
GROUP0
10
-1088.341004346
20
2069.88009158761
30
3.1766534488753e-005
11
-1088.341004346
21
2044.8800916177
31
3.17205059580772e-005
  0
LINE
 8
GROUP0
10
-1088.341004346
20
2044.8800916177
30
3.17205059580772e-005
11
-1118.341004346
21
2044.8800916177
31
3.18706888002396e-005
  0
LINE
 8
GROUP0
10
-1118.341004346
20
2044.8800916177
30
3.18706888002396e-005
11
-1131.34100427654
21
2031.8800916177
31
3.19501217063589e-005
  0
LINE
 8
GROUP0
10
-1131.341004346
20
2001.8800916177
30
3.17243845174175e-005
11
-1131.34100427654
21
2031.8800916177
31
3.19501217063589e-005
  0
LINE
 8
GROUP0
10
-1131.341004346
20
2001.8800916177
30
3.17243845174175e-005
11
-1156.341004346
21
2001.88009158761
31
3.15952779693873e-005
  0
LINE
 8
GROUP0
10
-1156.341004346
20
2001.88009158761
30
3.15952779693873e-005
11
-1156.34100439982
21
1683.87963549592
31
0.0
  0
LINE
 8
GROUP0
10
-1131.34100436603
20
1683.87963549592
30
1.61516761210123e-007
11
-1156.34100439982
21
1683.87963549592
31
0.0
  0
LINE
 8
GROUP0
10
-1131.34100436603
20
1683.87963549592
30
1.61516761210123e-007
11
-1131.34100436603
21
1653.87963549592
31
4.9712258757495e-006
  0
LINE
 8
GROUP0
10
-1118.34100436603
20
1640.87963541794
30
7.12602940282636e-006
11
-1131.34100436603
21
1653.87963549592
31
4.9712258757495e-006
  0
LINE
 8
GROUP0
10
-1088.34100436603
20
1640.87963549592
30
7.37948663669385e-006
11
-1118.34100436603
21
1640.87963541794
31
7.12602940282636e-006
  0
LINE
 8
GROUP0
10
-1088.34100439982
20
1615.87963549592
30
1.14765095474922e-005
11
-1088.34100436603
21
1640.87963549592
31
7.37948663669385e-006
  0
LINE
 8
GROUP0
10
-1088.34100439982
20
1615.87963549592
30
1.14765095474922e-005
11
-770.340525556371
21
1615.87963537829
31
2.9490582584657e-005
  0
LINE
 8
GROUP0
10
-770.340525556371
20
1615.87963537829
30
2.9490582584657e-005
11
-770.340525556371
21
1640.87963537829
31
2.63240895968408e-005
  0
LINE
 8
GROUP0
10
-770.340525556371
20
1640.87963537829
30
2.63240895968408e-005
11
-740.340525556371
21
1640.87963537829
31
2.59990345419681e-005
  0
LINE
 8
GROUP0
10
-740.340525556371
20
1640.87963537829
30
2.59990345419681e-005
11
-727.340525782383
21
1653.87963485463
31
2.21925601323392e-005
  0
LINE
 8
GROUP0
10
-727.340525599711
20
1683.87963485463
30
2.02288348269519e-005
11
-727.340525782383
21
1653.87963485463
31
2.21925601323392e-005
  0
LINE
 8
GROUP0
10
-727.340525599711
20
1683.87963485463
30
2.02288348269519e-005
11
-702.340525556372
21
1683.87963537829
31
1.98515750184924e-005
  0
LINE
 8
GROUP0
10
-714.272377173459
20
1971.36222516317
30
1.73703870366637e-005
11
-714.07257632845
21
1970.87986325338
31
1.7368524866157e-005
  0
LINE
 8
GROUP0
10
-714.340525520881
20
1971.87986325338
30
1.73695027854137e-005
11
-714.272377173459
21
1971.36222516317
31
1.73703870366637e-005
  0
LINE
 8
GROUP0
10
-714.272377173459
20
1972.39750134358
30
1.73659324822495e-005
11
-714.340525520881
21
1971.87986325338
31
1.73695027854137e-005
  0
LINE
 8
GROUP0
10
-714.07257632845
20
1972.87986325338
30
1.73599194113194e-005
11
-714.272377173459
21
1972.39750134358
31
1.73659324822495e-005
  0
LINE
 8
GROUP0
10
-713.754739083254
20
1973.29407681575
30
1.7351873347593e-005
11
-714.07257632845
21
1972.87986325338
31
1.73599194113194e-005
  0
LINE
 8
GROUP0
10
-713.34052552088
20
1973.61191406095
30
1.73423424925545e-005
11
-713.754739083254
21
1973.29407681575
31
1.7351873347593e-005
  0
LINE
 8
GROUP0
10
-712.858163611085
20
1973.81171490596
30
1.73319765664814e-005
11
-713.34052552088
21
1973.61191406095
31
1.73423424925545e-005
  0
LINE
 8
GROUP0
10
-712.340525520881
20
1973.87986325338
30
1.73214818694589e-005
11
-712.858163611085
21
1973.81171490596
31
1.73319765664814e-005
  0
LINE
 8
GROUP0
10
-711.822887430676
20
1973.81171490596
30
1.73115736352258e-005
11
-712.340525520881
21
1973.87986325338
31
1.73214818694589e-005
  0
LINE
 8
GROUP0
10
-711.340525520881
20
1973.61191406095
30
1.73029271216762e-005
11
-711.822887430676
21
1973.81171490596
31
1.73115736352258e-005
  0
LINE
 8
GROUP0
10
-710.926311958508
20
1973.29407681575
30
1.72961314987674e-005
11
-711.340525520881
21
1973.61191406095
31
1.73029271216762e-005
  0
LINE
 8
GROUP0
10
-710.608474713312
20
1972.87986325338
30
1.7291649872675e-005
11
-710.926311958508
21
1973.29407681575
31
1.72961314987674e-005
  0
LINE
 8
GROUP0
10
-710.408673868303
20
1972.39750134358
30
1.72897877021683e-005
11
-710.608474713312
21
1972.87986325338
31
1.7291649872675e-005
  0
LINE
 8
GROUP0
10
-710.340525520881
20
1971.87986325338
30
1.72906719534183e-005
11
-710.408673868303
21
1972.39750134358
31
1.72897877021683e-005
  0
LINE
 8
GROUP0
10
-710.408673868303
20
1971.36222516317
30
1.72942422565825e-005
11
-710.340525520881
21
1971.87986325338
31
1.72906719534183e-005
  0
LINE
 8
GROUP0
10
-710.608474713312
20
1970.87986325338
30
1.73002553275126e-005
11
-710.408673868303
21
1971.36222516317
31
1.72942422565825e-005
  0
LINE
 8
GROUP0
10
-710.926311958508
20
1970.46564969101
30
1.73083014814779e-005
11
-710.608474713312
21
1970.87986325338
31
1.73002553275126e-005
  0
LINE
 8
GROUP0
10
-711.340525520881
20
1970.14781244581
30
1.73178322462775e-005
11
-710.926311958508
21
1970.46564969101
31
1.73083014814779e-005
  0
LINE
 8
GROUP0
10
-711.822887430676
20
1969.9480116008
30
1.73281981723505e-005
11
-711.340525520881
21
1970.14781244581
31
1.73178322462775e-005
  0
LINE
 8
GROUP0
10
-712.340525520881
20
1969.87986325338
30
1.73386928693731e-005
11
-711.822887430676
21
1969.9480116008
31
1.73281981723505e-005
  0
LINE
 8
GROUP0
10
-712.858163611085
20
1969.9480116008
30
1.73486011036061e-005
11
-712.340525520881
21
1969.87986325338
31
1.73386928693731e-005
  0
LINE
 8
GROUP0
10
-713.34052552088
20
1970.14781244581
30
1.73572477073947e-005
11
-712.858163611085
21
1969.9480116008
31
1.73486011036061e-005
  0
LINE
 8
GROUP0
10
-713.754739083254
20
1970.46564969101
30
1.73640433303035e-005
11
-713.34052552088
21
1970.14781244581
31
1.73572477073947e-005
  0
LINE
 8
GROUP0
10
-714.07257632845
20
1970.87986325338
30
1.7368524866157e-005
11
-713.754739083254
21
1970.46564969101
31
1.73640433303035e-005
  0
LINE
 8
GROUP0
10
-714.272377173459
20
1842.36222516317
30
1.82632707229402e-005
11
-714.07257632845
21
1841.87986325338
31
1.82614085524335e-005
  0
LINE
 8
GROUP0
10
-714.340525520881
20
1842.87986325338
30
1.82623864716902e-005
11
-714.272377173459
21
1842.36222516317
31
1.82632707229402e-005
  0
LINE
 8
GROUP0
10
-714.272377173459
20
1843.39750134358
30
1.8258816168526e-005
11
-714.340525520881
21
1842.87986325338
31
1.82623864716902e-005
  0
LINE
 8
GROUP0
10
-714.07257632845
20
1843.87986325338
30
1.82528030975959e-005
11
-714.272377173459
21
1843.39750134358
31
1.8258816168526e-005
  0
LINE
 8
GROUP0
10
-713.754739083254
20
1844.29407681575
30
1.82447569436306e-005
11
-714.07257632845
21
1843.87986325338
31
1.82528030975959e-005
  0
LINE
 8
GROUP0
10
-713.34052552088
20
1844.61191406095
30
1.8235226178831e-005
11
-713.754739083254
21
1844.29407681575
31
1.82447569436306e-005
  0
LINE
 8
GROUP0
10
-712.858163611085
20
1844.81171490596
30
1.82248602527579e-005
11
-713.34052552088
21
1844.61191406095
31
1.8235226178831e-005
  0
LINE
 8
GROUP0
10
-712.340525520881
20
1844.87986325338
30
1.82143655557354e-005
11
-712.858163611085
21
1844.81171490596
31
1.82248602527579e-005
  0
LINE
 8
GROUP0
10
-711.822887430676
20
1844.81171490596
30
1.82044573215023e-005
11
-712.340525520881
21
1844.87986325338
31
1.82143655557354e-005
  0
LINE
 8
GROUP0
10
-711.340525520881
20
1844.61191406095
30
1.81958108079527e-005
11
-711.822887430676
21
1844.81171490596
31
1.82044573215023e-005
  0
LINE
 8
GROUP0
10
-710.926311958508
20
1844.29407681575
30
1.8189015094805e-005
11
-711.340525520881
21
1844.61191406095
31
1.81958108079527e-005
  0
LINE
 8
GROUP0
10
-710.608474713312
20
1843.87986325338
30
1.81845335589514e-005
11
-710.926311958508
21
1844.29407681575
31
1.8189015094805e-005
  0
LINE
 8
GROUP0
10
-710.408673868303
20
1843.39750134358
30
1.81826713884448e-005
11
-710.608474713312
21
1843.87986325338
31
1.81845335589514e-005
  0
LINE
 8
GROUP0
10
-710.340525520881
20
1842.87986325338
30
1.81835556396948e-005
11
-710.408673868303
21
1843.39750134358
31
1.81826713884448e-005
  0
LINE
 8
GROUP0
10
-710.408673868303
20
1842.36222516317
30
1.8187125942859e-005
11
-710.340525520881
21
1842.87986325338
31
1.81835556396948e-005
  0
LINE
 8
GROUP0
10
-710.608474713312
20
1841.87986325338
30
1.81931390137891e-005
11
-710.408673868303
21
1842.36222516317
31
1.8187125942859e-005
  0
LINE
 8
GROUP0
10
-710.926311958508
20
1841.46564969101
30
1.82011851677544e-005
11
-710.608474713312
21
1841.87986325338
31
1.81931390137891e-005
  0
LINE
 8
GROUP0
10
-711.340525520881
20
1841.14781244581
30
1.8210715932554e-005
11
-710.926311958508
21
1841.46564969101
31
1.82011851677544e-005
  0
LINE
 8
GROUP0
10
-711.822887430676
20
1840.9480116008
30
1.8221081858627e-005
11
-711.340525520881
21
1841.14781244581
31
1.8210715932554e-005
  0
LINE
 8
GROUP0
10
-712.340525520881
20
1840.87986325338
30
1.82315765556496e-005
11
-711.822887430676
21
1840.9480116008
31
1.8221081858627e-005
  0
LINE
 8
GROUP0
10
-712.858163611085
20
1840.9480116008
30
1.82414847898826e-005
11
-712.340525520881
21
1840.87986325338
31
1.82315765556496e-005
  0
LINE
 8
GROUP0
10
-713.34052552088
20
1841.14781244581
30
1.82501313936712e-005
11
-712.858163611085
21
1840.9480116008
31
1.82414847898826e-005
  0
LINE
 8
GROUP0
10
-713.754739083254
20
1841.46564969101
30
1.825692701658e-005
11
-713.34052552088
21
1841.14781244581
31
1.82501313936712e-005
  0
LINE
 8
GROUP0
10
-714.07257632845
20
1841.87986325338
30
1.82614085524335e-005
11
-713.754739083254
21
1841.46564969101
31
1.825692701658e-005
  0
LINE
 8
GROUP0
10
-714.272377173459
20
1714.39727296205
30
2.00552809147325e-005
11
-714.340525520881
21
1713.87963487184
31
2.00588512178967e-005
  0
LINE
 8
GROUP0
10
-714.07257632845
20
1714.87963487184
30
2.00492678438025e-005
11
-714.272377173459
21
1714.39727296205
31
2.00552809147325e-005
  0
LINE
 8
GROUP0
10
-713.754739083254
20
1715.29384843422
30
2.00412216898371e-005
11
-714.07257632845
21
1714.87963487184
31
2.00492678438025e-005
  0
LINE
 8
GROUP0
10
-713.34052552088
20
1715.61168567941
30
2.00316909250375e-005
11
-713.754739083254
21
1715.29384843422
31
2.00412216898371e-005
  0
LINE
 8
GROUP0
10
-712.858163611085
20
1715.81148652442
30
2.00213249989645e-005
11
-713.34052552088
21
1715.61168567941
31
2.00316909250375e-005
  0
LINE
 8
GROUP0
10
-712.340525520881
20
1715.87963487184
30
2.0010830301942e-005
11
-712.858163611085
21
1715.81148652442
31
2.00213249989645e-005
  0
LINE
 8
GROUP0
10
-711.822887430676
20
1715.81148652442
30
2.00009220677089e-005
11
-712.340525520881
21
1715.87963487184
31
2.0010830301942e-005
  0
LINE
 8
GROUP0
10
-711.340525520881
20
1715.61168567941
30
1.99922754639203e-005
11
-711.822887430676
21
1715.81148652442
31
2.00009220677089e-005
  0
LINE
 8
GROUP0
10
-710.926311958508
20
1715.29384843422
30
1.99854798410115e-005
11
-711.340525520881
21
1715.61168567941
31
1.99922754639203e-005
  0
LINE
 8
GROUP0
10
-710.608474713312
20
1714.87963487184
30
1.9980998305158e-005
11
-710.926311958508
21
1715.29384843422
31
1.99854798410115e-005
  0
LINE
 8
GROUP0
10
-710.408673868303
20
1714.39727296205
30
1.99791361346513e-005
11
-710.608474713312
21
1714.87963487184
31
1.9980998305158e-005
  0
LINE
 8
GROUP0
10
-710.340525520881
20
1713.87963487184
30
1.99800203859013e-005
11
-710.408673868303
21
1714.39727296205
31
1.99791361346513e-005
  0
LINE
 8
GROUP0
10
-710.408673868303
20
1713.36199678164
30
1.99835906890655e-005
11
-710.340525520881
21
1713.87963487184
31
1.99800203859013e-005
  0
LINE
 8
GROUP0
10
-710.608474713312
20
1712.87963487184
30
1.99896037599956e-005
11
-710.408673868303
21
1713.36199678164
31
1.99835906890655e-005
  0
LINE
 8
GROUP0
10
-710.926311958508
20
1712.46542130947
30
1.99976499139609e-005
11
-710.608474713312
21
1712.87963487184
31
1.99896037599956e-005
  0
LINE
 8
GROUP0
10
-711.340525520881
20
1712.14758406427
30
2.00071806787605e-005
11
-710.926311958508
21
1712.46542130947
31
1.99976499139609e-005
  0
LINE
 8
GROUP0
10
-711.822887430676
20
1711.94778321927
30
2.00175466048336e-005
11
-711.340525520881
21
1712.14758406427
31
2.00071806787605e-005
  0
LINE
 8
GROUP0
10
-712.340525520881
20
1711.87963487184
30
2.00280413018561e-005
11
-711.822887430676
21
1711.94778321927
31
2.00175466048336e-005
  0
LINE
 8
GROUP0
10
-712.858163611085
20
1711.94778321927
30
2.00379495360892e-005
11
-712.340525520881
21
1711.87963487184
31
2.00280413018561e-005
  0
LINE
 8
GROUP0
10
-713.34052552088
20
1712.14758406427
30
2.00465961398777e-005
11
-712.858163611085
21
1711.94778321927
31
2.00379495360892e-005
  0
LINE
 8
GROUP0
10
-713.754739083254
20
1712.46542130947
30
2.00533917627865e-005
11
-713.34052552088
21
1712.14758406427
31
2.00465961398777e-005
  0
LINE
 8
GROUP0
10
-714.07257632845
20
1712.87963487184
30
2.00578732986401e-005
11
-713.754739083254
21
1712.46542130947
31
2.00533917627865e-005
  0
LINE
 8
GROUP0
10
-714.272377173459
20
1713.36199678164
30
2.00597354691467e-005
11
-714.07257632845
21
1712.87963487184
31
2.00578732986401e-005
  0
LINE
 8
GROUP0
10
-714.340525520881
20
1713.87963487184
30
2.00588512178967e-005
11
-714.272377173459
21
1713.36199678164
31
2.00597354691467e-005
  0
LINE
 8
GROUP0
10
-799.340749174372
20
1627.61169048872
30
1.73599194113194e-005
11
-799.823111084167
21
1627.81149133373
31
1.73659324822495e-005
  0
LINE
 8
GROUP0
10
-798.926535611999
20
1627.29385324352
30
1.7351873347593e-005
11
-799.340749174372
21
1627.61169048872
31
1.73599194113194e-005
  0
LINE
 8
GROUP0
10
-798.608698366803
20
1626.87963968115
30
1.73423424925545e-005
11
-798.926535611999
21
1627.29385324352
31
1.7351873347593e-005
  0
LINE
 8
GROUP0
10
-798.408897521793
20
1626.39727777136
30
1.73319765664814e-005
11
-798.608698366803
21
1626.87963968115
31
1.73423424925545e-005
  0
LINE
 8
GROUP0
10
-798.340749174371
20
1625.87963968115
30
1.73214818694589e-005
11
-798.408897521793
21
1626.39727777136
31
1.73319765664814e-005
  0
LINE
 8
GROUP0
10
-798.408897521793
20
1625.36200159095
30
1.73115736352258e-005
11
-798.340749174371
21
1625.87963968115
31
1.73214818694589e-005
  0
LINE
 8
GROUP0
10
-798.608698366803
20
1624.87963968115
30
1.73029271216762e-005
11
-798.408897521793
21
1625.36200159095
31
1.73115736352258e-005
  0
LINE
 8
GROUP0
10
-798.926535611999
20
1624.46542611878
30
1.72961314987674e-005
11
-798.608698366803
21
1624.87963968115
31
1.73029271216762e-005
  0
LINE
 8
GROUP0
10
-799.340749174372
20
1624.14758887358
30
1.7291649872675e-005
11
-798.926535611999
21
1624.46542611878
31
1.72961314987674e-005
  0
LINE
 8
GROUP0
10
-799.823111084167
20
1623.94778802857
30
1.72897877021683e-005
11
-799.340749174372
21
1624.14758887358
31
1.7291649872675e-005
  0
LINE
 8
GROUP0
10
-800.340749174371
20
1623.87963968115
30
1.72906719534183e-005
11
-799.823111084167
21
1623.94778802857
31
1.72897877021683e-005
  0
LINE
 8
GROUP0
10
-800.858387264577
20
1623.94778802857
30
1.72942422565825e-005
11
-800.340749174371
21
1623.87963968115
31
1.72906719534183e-005
  0
LINE
 8
GROUP0
10
-801.340749174371
20
1624.14758887358
30
1.73002553275126e-005
11
-800.858387264577
21
1623.94778802857
31
1.72942422565825e-005
  0
LINE
 8
GROUP0
10
-801.754962736744
20
1624.46542611878
30
1.73083014814779e-005
11
-801.340749174371
21
1624.14758887358
31
1.73002553275126e-005
  0
LINE
 8
GROUP0
10
-802.07279998194
20
1624.87963968115
30
1.73178322462775e-005
11
-801.754962736744
21
1624.46542611878
31
1.73083014814779e-005
  0
LINE
 8
GROUP0
10
-802.27260082695
20
1625.36200159095
30
1.73281981723505e-005
11
-802.07279998194
21
1624.87963968115
31
1.73178322462775e-005
  0
LINE
 8
GROUP0
10
-802.340749174372
20
1625.87963968115
30
1.73386928693731e-005
11
-802.27260082695
21
1625.36200159095
31
1.73281981723505e-005
  0
LINE
 8
GROUP0
10
-802.27260082695
20
1626.39727777136
30
1.73486011036061e-005
11
-802.340749174372
21
1625.87963968115
31
1.73386928693731e-005
  0
LINE
 8
GROUP0
10
-802.07279998194
20
1626.87963968115
30
1.73572477073947e-005
11
-802.27260082695
21
1626.39727777136
31
1.73486011036061e-005
  0
LINE
 8
GROUP0
10
-801.754962736744
20
1627.29385324352
30
1.73640433303035e-005
11
-802.07279998194
21
1626.87963968115
31
1.73572477073947e-005
  0
LINE
 8
GROUP0
10
-801.340749174371
20
1627.61169048872
30
1.7368524866157e-005
11
-801.754962736744
21
1627.29385324352
31
1.73640433303035e-005
  0
LINE
 8
GROUP0
10
-800.858387264577
20
1627.81149133373
30
1.73703870366637e-005
11
-801.340749174371
21
1627.61169048872
31
1.7368524866157e-005
  0
LINE
 8
GROUP0
10
-800.340749174371
20
1627.87963968115
30
1.73695027854137e-005
11
-800.858387264577
21
1627.81149133373
31
1.73703870366637e-005
  0
LINE
 8
GROUP0
10
-799.823111084167
20
1627.81149133373
30
1.73659324822495e-005
11
-800.340749174371
21
1627.87963968115
31
1.73695027854137e-005
  0
LINE
 8
GROUP0
10
-929.858387264577
20
1627.81149133373
30
1.82632707229402e-005
11
-930.340749174372
21
1627.61169048872
31
1.82614085524335e-005
  0
LINE
 8
GROUP0
10
-929.340749174371
20
1627.87963968115
30
1.82623864716902e-005
11
-929.858387264577
21
1627.81149133373
31
1.82632707229402e-005
  0
LINE
 8
GROUP0
10
-928.823111084166
20
1627.81149133373
30
1.8258816168526e-005
11
-929.340749174371
21
1627.87963968115
31
1.82623864716902e-005
  0
LINE
 8
GROUP0
10
-928.340749174371
20
1627.61169048872
30
1.82528030975959e-005
11
-928.823111084166
21
1627.81149133373
31
1.8258816168526e-005
  0
LINE
 8
GROUP0
10
-927.926535611998
20
1627.29385324352
30
1.82447569436306e-005
11
-928.340749174371
21
1627.61169048872
31
1.82528030975959e-005
  0
LINE
 8
GROUP0
10
-927.608698366802
20
1626.87963968115
30
1.8235226178831e-005
11
-927.926535611998
21
1627.29385324352
31
1.82447569436306e-005
  0
LINE
 8
GROUP0
10
-927.408897521794
20
1626.39727777136
30
1.82248602527579e-005
11
-927.608698366802
21
1626.87963968115
31
1.8235226178831e-005
  0
LINE
 8
GROUP0
10
-927.340749174372
20
1625.87963968115
30
1.82143655557354e-005
11
-927.408897521794
21
1626.39727777136
31
1.82248602527579e-005
  0
LINE
 8
GROUP0
10
-927.408897521794
20
1625.36200159095
30
1.82044573215023e-005
11
-927.340749174372
21
1625.87963968115
31
1.82143655557354e-005
  0
LINE
 8
GROUP0
10
-927.608698366802
20
1624.87963968115
30
1.81958108079527e-005
11
-927.408897521794
21
1625.36200159095
31
1.82044573215023e-005
  0
LINE
 8
GROUP0
10
-927.926535611998
20
1624.46542611878
30
1.8189015094805e-005
11
-927.608698366802
21
1624.87963968115
31
1.81958108079527e-005
  0
LINE
 8
GROUP0
10
-928.340749174371
20
1624.14758887358
30
1.81845335589514e-005
11
-927.926535611998
21
1624.46542611878
31
1.8189015094805e-005
  0
LINE
 8
GROUP0
10
-928.823111084166
20
1623.94778802857
30
1.81826713884448e-005
11
-928.340749174371
21
1624.14758887358
31
1.81845335589514e-005
  0
LINE
 8
GROUP0
10
-929.340749174371
20
1623.87963968115
30
1.81835556396948e-005
11
-928.823111084166
21
1623.94778802857
31
1.81826713884448e-005
  0
LINE
 8
GROUP0
10
-929.858387264577
20
1623.94778802857
30
1.8187125942859e-005
11
-929.340749174371
21
1623.87963968115
31
1.81835556396948e-005
  0
LINE
 8
GROUP0
10
-930.340749174372
20
1624.14758887358
30
1.81931390137891e-005
11
-929.858387264577
21
1623.94778802857
31
1.8187125942859e-005
  0
LINE
 8
GROUP0
10
-930.754962736745
20
1624.46542611878
30
1.82011851677544e-005
11
-930.340749174372
21
1624.14758887358
31
1.81931390137891e-005
  0
LINE
 8
GROUP0
10
-931.072799981941
20
1624.87963968115
30
1.8210715932554e-005
11
-930.754962736745
21
1624.46542611878
31
1.82011851677544e-005
  0
LINE
 8
GROUP0
10
-931.272600826949
20
1625.36200159095
30
1.8221081858627e-005
11
-931.072799981941
21
1624.87963968115
31
1.8210715932554e-005
  0
LINE
 8
GROUP0
10
-931.340749174371
20
1625.87963968115
30
1.82315765556496e-005
11
-931.272600826949
21
1625.36200159095
31
1.8221081858627e-005
  0
LINE
 8
GROUP0
10
-931.272600826949
20
1626.39727777136
30
1.82414847898826e-005
11
-931.340749174371
21
1625.87963968115
31
1.82315765556496e-005
  0
LINE
 8
GROUP0
10
-931.072799981941
20
1626.87963968115
30
1.82501313936712e-005
11
-931.272600826949
21
1626.39727777136
31
1.82414847898826e-005
  0
LINE
 8
GROUP0
10
-930.754962736745
20
1627.29385324352
30
1.825692701658e-005
11
-931.072799981941
21
1626.87963968115
31
1.82501313936712e-005
  0
LINE
 8
GROUP0
10
-930.340749174372
20
1627.61169048872
30
1.82614085524335e-005
11
-930.754962736745
21
1627.29385324352
31
1.825692701658e-005
  0
LINE
 8
GROUP0
10
-1056.40912590333
20
1626.39727777136
30
2.00213249989645e-005
11
-1056.60892674834
21
1626.87963968115
31
2.00316909250375e-005
  0
LINE
 8
GROUP0
10
-1056.34097755591
20
1625.87963968115
30
2.0010830301942e-005
11
-1056.40912590333
21
1626.39727777136
31
2.00213249989645e-005
  0
LINE
 8
GROUP0
10
-1056.40912590333
20
1625.36200159095
30
2.00009220677089e-005
11
-1056.34097755591
21
1625.87963968115
31
2.0010830301942e-005
  0
LINE
 8
GROUP0
10
-1056.60892674834
20
1624.87963968115
30
1.99922754639203e-005
11
-1056.40912590333
21
1625.36200159095
31
2.00009220677089e-005
  0
LINE
 8
GROUP0
10
-1056.92676399353
20
1624.46542611878
30
1.99854798410115e-005
11
-1056.60892674834
21
1624.87963968115
31
1.99922754639203e-005
  0
LINE
 8
GROUP0
10
-1057.34097755591
20
1624.14758887358
30
1.9980998305158e-005
11
-1056.92676399353
21
1624.46542611878
31
1.99854798410115e-005
  0
LINE
 8
GROUP0
10
-1057.8233394657
20
1623.94778802857
30
1.99791361346513e-005
11
-1057.34097755591
21
1624.14758887358
31
1.9980998305158e-005
  0
LINE
 8
GROUP0
10
-1058.34097755591
20
1623.87963968115
30
1.99800203859013e-005
11
-1057.8233394657
21
1623.94778802857
31
1.99791361346513e-005
  0
LINE
 8
GROUP0
10
-1058.85861564611
20
1623.94778802857
30
1.99835906890655e-005
11
-1058.34097755591
21
1623.87963968115
31
1.99800203859013e-005
  0
LINE
 8
GROUP0
10
-1059.34097755591
20
1624.14758887358
30
1.99896037599956e-005
11
-1058.85861564611
21
1623.94778802857
31
1.99835906890655e-005
  0
LINE
 8
GROUP0
10
-1059.75519111828
20
1624.46542611878
30
1.99976499139609e-005
11
-1059.34097755591
21
1624.14758887358
31
1.99896037599956e-005
  0
LINE
 8
GROUP0
10
-1060.07302836348
20
1624.87963968115
30
2.00071806787605e-005
11
-1059.75519111828
21
1624.46542611878
31
1.99976499139609e-005
  0
LINE
 8
GROUP0
10
-1060.27282920849
20
1625.36200159095
30
2.00175466048336e-005
11
-1060.07302836348
21
1624.87963968115
31
2.00071806787605e-005
  0
LINE
 8
GROUP0
10
-1060.34097755591
20
1625.87963968115
30
2.00280413018561e-005
11
-1060.27282920849
21
1625.36200159095
31
2.00175466048336e-005
  0
LINE
 8
GROUP0
10
-1060.27282920849
20
1626.39727777136
30
2.00379495360892e-005
11
-1060.34097755591
21
1625.87963968115
31
2.00280413018561e-005
  0
LINE
 8
GROUP0
10
-1060.07302836348
20
1626.87963968115
30
2.00465961398777e-005
11
-1060.27282920849
21
1626.39727777136
31
2.00379495360892e-005
  0
LINE
 8
GROUP0
10
-1059.75519111828
20
1627.29385324352
30
2.00533917627865e-005
11
-1060.07302836348
21
1626.87963968115
31
2.00465961398777e-005
  0
LINE
 8
GROUP0
10
-1059.34097755591
20
1627.61169048872
30
2.00578732986401e-005
11
-1059.75519111828
21
1627.29385324352
31
2.00533917627865e-005
  0
LINE
 8
GROUP0
10
-1058.85861564611
20
1627.81149133373
30
2.00597354691467e-005
11
-1059.34097755591
21
1627.61169048872
31
2.00578732986401e-005
  0
LINE
 8
GROUP0
10
-1058.34097755591
20
1627.87963968115
30
2.00588512178967e-005
11
-1058.85861564611
21
1627.81149133373
31
2.00597354691467e-005
  0
LINE
 8
GROUP0
10
-1057.8233394657
20
1627.81149133373
30
2.00552809147325e-005
11
-1058.34097755591
21
1627.87963968115
31
2.00588512178967e-005
  0
LINE
 8
GROUP0
10
-1057.34097755591
20
1627.61169048872
30
2.00492678438025e-005
11
-1057.8233394657
21
1627.81149133373
31
2.00552809147325e-005
  0
LINE
 8
GROUP0
10
-1056.92676399353
20
1627.29385324352
30
2.00412216898371e-005
11
-1057.34097755591
21
1627.61169048872
31
2.00492678438025e-005
  0
LINE
 8
GROUP0
10
-1056.60892674834
20
1626.87963968115
30
2.00316909250375e-005
11
-1056.92676399353
21
1627.29385324352
31
2.00412216898371e-005
  0
LINE
 8
GROUP0
10
-1148.07302355417
20
1714.87986333464
30
1.73002553275126e-005
11
-1148.27282439918
21
1714.39750142485
31
1.72942422565825e-005
  0
LINE
 8
GROUP0
10
-1147.75518630897
20
1715.29407689702
30
1.73083014814779e-005
11
-1148.07302355417
21
1714.87986333464
31
1.73002553275126e-005
  0
LINE
 8
GROUP0
10
-1147.3409727466
20
1715.61191414221
30
1.73178322462775e-005
11
-1147.75518630897
21
1715.29407689702
31
1.73083014814779e-005
  0
LINE
 8
GROUP0
10
-1146.8586108368
20
1715.81171498722
30
1.73281981723505e-005
11
-1147.3409727466
21
1715.61191414221
31
1.73178322462775e-005
  0
LINE
 8
GROUP0
10
-1146.3409727466
20
1715.87986333464
30
1.73386928693731e-005
11
-1146.8586108368
21
1715.81171498722
31
1.73281981723505e-005
  0
LINE
 8
GROUP0
10
-1145.82333465639
20
1715.81171498722
30
1.73486011036061e-005
11
-1146.3409727466
21
1715.87986333464
31
1.73386928693731e-005
  0
LINE
 8
GROUP0
10
-1145.3409727466
20
1715.61191414221
30
1.73572477073947e-005
11
-1145.82333465639
21
1715.81171498722
31
1.73486011036061e-005
  0
LINE
 8
GROUP0
10
-1144.92675918423
20
1715.29407689702
30
1.73640433303035e-005
11
-1145.3409727466
21
1715.61191414221
31
1.73572477073947e-005
  0
LINE
 8
GROUP0
10
-1144.60892193903
20
1714.87986333464
30
1.7368524866157e-005
11
-1144.92675918423
21
1715.29407689702
31
1.73640433303035e-005
  0
LINE
 8
GROUP0
10
-1144.40912109402
20
1714.39750142485
30
1.73703870366637e-005
11
-1144.60892193903
21
1714.87986333464
31
1.7368524866157e-005
  0
LINE
 8
GROUP0
10
-1144.3409727466
20
1713.87986333464
30
1.73695027854137e-005
11
-1144.40912109402
21
1714.39750142485
31
1.73703870366637e-005
  0
LINE
 8
GROUP0
10
-1144.40912109402
20
1713.36222524444
30
1.73659324822495e-005
11
-1144.3409727466
21
1713.87986333464
31
1.73695027854137e-005
  0
LINE
 8
GROUP0
10
-1144.60892193903
20
1712.87986333464
30
1.73599194113194e-005
11
-1144.40912109402
21
1713.36222524444
31
1.73659324822495e-005
  0
LINE
 8
GROUP0
10
-1144.92675918423
20
1712.46564977227
30
1.7351873347593e-005
11
-1144.60892193903
21
1712.87986333464
31
1.73599194113194e-005
  0
LINE
 8
GROUP0
10
-1145.3409727466
20
1712.14781252707
30
1.73423424925545e-005
11
-1144.92675918423
21
1712.46564977227
31
1.7351873347593e-005
  0
LINE
 8
GROUP0
10
-1145.82333465639
20
1711.94801168207
30
1.73319765664814e-005
11
-1145.3409727466
21
1712.14781252707
31
1.73423424925545e-005
  0
LINE
 8
GROUP0
10
-1146.3409727466
20
1711.87986333464
30
1.73214818694589e-005
11
-1145.82333465639
21
1711.94801168207
31
1.73319765664814e-005
  0
LINE
 8
GROUP0
10
-1146.8586108368
20
1711.94801168207
30
1.73115736352258e-005
11
-1146.3409727466
21
1711.87986333464
31
1.73214818694589e-005
  0
LINE
 8
GROUP0
10
-1147.3409727466
20
1712.14781252707
30
1.73029271216762e-005
11
-1146.8586108368
21
1711.94801168207
31
1.73115736352258e-005
  0
LINE
 8
GROUP0
10
-1147.75518630897
20
1712.46564977227
30
1.72961314987674e-005
11
-1147.3409727466
21
1712.14781252707
31
1.73029271216762e-005
  0
LINE
 8
GROUP0
10
-1148.07302355417
20
1712.87986333464
30
1.7291649872675e-005
11
-1147.75518630897
21
1712.46564977227
31
1.72961314987674e-005
  0
LINE
 8
GROUP0
10
-1148.27282439918
20
1713.36222524444
30
1.72897877021683e-005
11
-1148.07302355417
21
1712.87986333464
31
1.7291649872675e-005
  0
LINE
 8
GROUP0
10
-1148.3409727466
20
1713.87986333464
30
1.72906719534183e-005
11
-1148.27282439918
21
1713.36222524444
31
1.72897877021683e-005
  0
LINE
 8
GROUP0
10
-1148.27282439918
20
1714.39750142485
30
1.72942422565825e-005
11
-1148.3409727466
21
1713.87986333464
31
1.72906719534183e-005
  0
LINE
 8
GROUP0
10
-1145.3409727466
20
1841.14781252707
30
1.8235226178831e-005
11
-1144.92675918423
21
1841.46564977227
31
1.82447569436306e-005
  0
LINE
 8
GROUP0
10
-1145.82333465639
20
1840.94801168207
30
1.82248602527579e-005
11
-1145.3409727466
21
1841.14781252707
31
1.8235226178831e-005
  0
LINE
 8
GROUP0
10
-1146.3409727466
20
1840.87986333464
30
1.82143655557354e-005
11
-1145.82333465639
21
1840.94801168207
31
1.82248602527579e-005
  0
LINE
 8
GROUP0
10
-1146.8586108368
20
1840.94801168207
30
1.82044573215023e-005
11
-1146.3409727466
21
1840.87986333464
31
1.82143655557354e-005
  0
LINE
 8
GROUP0
10
-1147.3409727466
20
1841.14781252707
30
1.81958108079527e-005
11
-1146.8586108368
21
1840.94801168207
31
1.82044573215023e-005
  0
LINE
 8
GROUP0
10
-1147.75518630897
20
1841.46564977227
30
1.8189015094805e-005
11
-1147.3409727466
21
1841.14781252707
31
1.81958108079527e-005
  0
LINE
 8
GROUP0
10
-1148.07302355417
20
1841.87986333464
30
1.81845335589514e-005
11
-1147.75518630897
21
1841.46564977227
31
1.8189015094805e-005
  0
LINE
 8
GROUP0
10
-1148.27282439918
20
1842.36222524444
30
1.81826713884448e-005
11
-1148.07302355417
21
1841.87986333464
31
1.81845335589514e-005
  0
LINE
 8
GROUP0
10
-1148.3409727466
20
1842.87986333464
30
1.81835556396948e-005
11
-1148.27282439918
21
1842.36222524444
31
1.81826713884448e-005
  0
LINE
 8
GROUP0
10
-1148.27282439918
20
1843.39750142485
30
1.8187125942859e-005
11
-1148.3409727466
21
1842.87986333464
31
1.81835556396948e-005
  0
LINE
 8
GROUP0
10
-1148.07302355417
20
1843.87986333464
30
1.81931390137891e-005
11
-1148.27282439918
21
1843.39750142485
31
1.8187125942859e-005
  0
LINE
 8
GROUP0
10
-1147.75518630897
20
1844.29407689702
30
1.82011851677544e-005
11
-1148.07302355417
21
1843.87986333464
31
1.81931390137891e-005
  0
LINE
 8
GROUP0
10
-1147.3409727466
20
1844.61191414221
30
1.8210715932554e-005
11
-1147.75518630897
21
1844.29407689702
31
1.82011851677544e-005
  0
LINE
 8
GROUP0
10
-1146.8586108368
20
1844.81171498722
30
1.8221081858627e-005
11
-1147.3409727466
21
1844.61191414221
31
1.8210715932554e-005
  0
LINE
 8
GROUP0
10
-1146.3409727466
20
1844.87986333464
30
1.82315765556496e-005
11
-1146.8586108368
21
1844.81171498722
31
1.8221081858627e-005
  0
LINE
 8
GROUP0
10
-1145.82333465639
20
1844.81171498722
30
1.82414847898826e-005
11
-1146.3409727466
21
1844.87986333464
31
1.82315765556496e-005
  0
LINE
 8
GROUP0
10
-1145.3409727466
20
1844.61191414221
30
1.82501313936712e-005
11
-1145.82333465639
21
1844.81171498722
31
1.82414847898826e-005
  0
LINE
 8
GROUP0
10
-1144.92675918423
20
1844.29407689702
30
1.825692701658e-005
11
-1145.3409727466
21
1844.61191414221
31
1.82501313936712e-005
  0
LINE
 8
GROUP0
10
-1144.60892193903
20
1843.87986333464
30
1.82614085524335e-005
11
-1144.92675918423
21
1844.29407689702
31
1.825692701658e-005
  0
LINE
 8
GROUP0
10
-1144.40912109402
20
1843.39750142485
30
1.82632707229402e-005
11
-1144.60892193903
21
1843.87986333464
31
1.82614085524335e-005
  0
LINE
 8
GROUP0
10
-1144.3409727466
20
1842.87986333464
30
1.82623864716902e-005
11
-1144.40912109402
21
1843.39750142485
31
1.82632707229402e-005
  0
LINE
 8
GROUP0
10
-1144.40912109402
20
1842.36222524444
30
1.8258816168526e-005
11
-1144.3409727466
21
1842.87986333464
31
1.82623864716902e-005
  0
LINE
 8
GROUP0
10
-1144.60892193903
20
1841.87986333464
30
1.82528030975959e-005
11
-1144.40912109402
21
1842.36222524444
31
1.8258816168526e-005
  0
LINE
 8
GROUP0
10
-1144.92675918423
20
1841.46564977227
30
1.82447569436306e-005
11
-1144.60892193903
21
1841.87986333464
31
1.82528030975959e-005
  0
LINE
 8
GROUP0
10
-1144.60892193903
20
1970.88009171618
30
2.00492678438025e-005
11
-1144.40912109402
21
1971.36245362598
31
2.00552809147325e-005
  0
LINE
 8
GROUP0
10
-1144.92675918423
20
1970.46587815381
30
2.00412216898371e-005
11
-1144.60892193903
21
1970.88009171618
31
2.00492678438025e-005
  0
LINE
 8
GROUP0
10
-1145.3409727466
20
1970.14804090861
30
2.00316909250375e-005
11
-1144.92675918423
21
1970.46587815381
31
2.00412216898371e-005
  0
LINE
 8
GROUP0
10
-1145.82333465639
20
1969.9482400636
30
2.00213249989645e-005
11
-1145.3409727466
21
1970.14804090861
31
2.00316909250375e-005
  0
LINE
 8
GROUP0
10
-1146.3409727466
20
1969.88009171618
30
2.0010830301942e-005
11
-1145.82333465639
21
1969.9482400636
31
2.00213249989645e-005
  0
LINE
 8
GROUP0
10
-1146.8586108368
20
1969.9482400636
30
2.00009220677089e-005
11
-1146.3409727466
21
1969.88009171618
31
2.0010830301942e-005
  0
LINE
 8
GROUP0
10
-1147.3409727466
20
1970.14804090861
30
1.99922754639203e-005
11
-1146.8586108368
21
1969.9482400636
31
2.00009220677089e-005
  0
LINE
 8
GROUP0
10
-1147.75518630897
20
1970.46587815381
30
1.99854798410115e-005
11
-1147.3409727466
21
1970.14804090861
31
1.99922754639203e-005
  0
LINE
 8
GROUP0
10
-1148.07302355417
20
1970.88009171618
30
1.9980998305158e-005
11
-1147.75518630897
21
1970.46587815381
31
1.99854798410115e-005
  0
LINE
 8
GROUP0
10
-1148.27282439918
20
1971.36245362598
30
1.99791361346513e-005
11
-1148.07302355417
21
1970.88009171618
31
1.9980998305158e-005
  0
LINE
 8
GROUP0
10
-1148.3409727466
20
1971.88009171618
30
1.99800203859013e-005
11
-1148.27282439918
21
1971.36245362598
31
1.99791361346513e-005
  0
LINE
 8
GROUP0
10
-1148.27282439918
20
1972.39772980639
30
1.99835906890655e-005
11
-1148.3409727466
21
1971.88009171618
31
1.99800203859013e-005
  0
LINE
 8
GROUP0
10
-1148.07302355417
20
1972.88009171618
30
1.99896037599956e-005
11
-1148.27282439918
21
1972.39772980639
31
1.99835906890655e-005
  0
LINE
 8
GROUP0
10
-1147.75518630897
20
1973.29430527855
30
1.99976499139609e-005
11
-1148.07302355417
21
1972.88009171618
31
1.99896037599956e-005
  0
LINE
 8
GROUP0
10
-1147.3409727466
20
1973.61214252375
30
2.00071806787605e-005
11
-1147.75518630897
21
1973.29430527855
31
1.99976499139609e-005
  0
LINE
 8
GROUP0
10
-1146.8586108368
20
1973.81194336876
30
2.00175466048336e-005
11
-1147.3409727466
21
1973.61214252375
31
2.00071806787605e-005
  0
LINE
 8
GROUP0
10
-1146.3409727466
20
1973.88009171618
30
2.00280413018561e-005
11
-1146.8586108368
21
1973.81194336876
31
2.00175466048336e-005
  0
LINE
 8
GROUP0
10
-1145.82333465639
20
1973.81194336876
30
2.00379495360892e-005
11
-1146.3409727466
21
1973.88009171618
31
2.00280413018561e-005
  0
LINE
 8
GROUP0
10
-1145.3409727466
20
1973.61214252375
30
2.00465961398777e-005
11
-1145.82333465639
21
1973.81194336876
31
2.00379495360892e-005
  0
LINE
 8
GROUP0
10
-1144.92675918423
20
1973.29430527855
30
2.00533917627865e-005
11
-1145.3409727466
21
1973.61214252375
31
2.00465961398777e-005
  0
LINE
 8
GROUP0
10
-1144.60892193903
20
1972.88009171618
30
2.00578732986401e-005
11
-1144.92675918423
21
1973.29430527855
31
2.00533917627865e-005
  0
LINE
 8
GROUP0
10
-1144.40912109402
20
1972.39772980639
30
2.00597354691467e-005
11
-1144.60892193903
21
1972.88009171618
31
2.00578732986401e-005
  0
LINE
 8
GROUP0
10
-1144.3409727466
20
1971.88009171618
30
2.00588512178967e-005
11
-1144.40912109402
21
1972.39772980639
31
2.00597354691467e-005
  0
LINE
 8
GROUP0
10
-1144.40912109402
20
1971.36245362598
30
2.00552809147325e-005
11
-1144.3409727466
21
1971.88009171618
31
2.00588512178967e-005
  0
LINE
 8
GROUP0
10
-1057.34074909311
20
2058.1480360993
30
1.7368524866157e-005
11
-1056.92653553073
21
2058.4658733445
31
1.73640433303035e-005
  0
LINE
 8
GROUP0
10
-1057.8231110029
20
2057.94823525429
30
1.73703870366637e-005
11
-1057.34074909311
21
2058.1480360993
31
1.7368524866157e-005
  0
LINE
 8
GROUP0
10
-1058.34074909311
20
2057.88008690687
30
1.73695027854137e-005
11
-1057.8231110029
21
2057.94823525429
31
1.73703870366637e-005
  0
LINE
 8
GROUP0
10
-1058.85838718331
20
2057.94823525429
30
1.73659324822495e-005
11
-1058.34074909311
21
2057.88008690687
31
1.73695027854137e-005
  0
LINE
 8
GROUP0
10
-1059.34074909311
20
2058.1480360993
30
1.73599194113194e-005
11
-1058.85838718331
21
2057.94823525429
31
1.73659324822495e-005
  0
LINE
 8
GROUP0
10
-1059.75496265548
20
2058.4658733445
30
1.7351873347593e-005
11
-1059.34074909311
21
2058.1480360993
31
1.73599194113194e-005
  0
LINE
 8
GROUP0
10
-1060.07279990068
20
2058.88008690687
30
1.73423424925545e-005
11
-1059.75496265548
21
2058.4658733445
31
1.7351873347593e-005
  0
LINE
 8
GROUP0
10
-1060.27260074569
20
2059.36244881667
30
1.73319765664814e-005
11
-1060.07279990068
21
2058.88008690687
31
1.73423424925545e-005
  0
LINE
 8
GROUP0
10
-1060.34074909311
20
2059.88008690687
30
1.73214818694589e-005
11
-1060.27260074569
21
2059.36244881667
31
1.73319765664814e-005
  0
LINE
 8
GROUP0
10
-1060.27260074569
20
2060.39772499708
30
1.73115736352258e-005
11
-1060.34074909311
21
2059.88008690687
31
1.73214818694589e-005
  0
LINE
 8
GROUP0
10
-1060.07279990068
20
2060.88008690687
30
1.73029271216762e-005
11
-1060.27260074569
21
2060.39772499708
31
1.73115736352258e-005
  0
LINE
 8
GROUP0
10
-1059.75496265548
20
2061.29430046924
30
1.72961314987674e-005
11
-1060.07279990068
21
2060.88008690687
31
1.73029271216762e-005
  0
LINE
 8
GROUP0
10
-1059.34074909311
20
2061.61213771444
30
1.7291649872675e-005
11
-1059.75496265548
21
2061.29430046924
31
1.72961314987674e-005
  0
LINE
 8
GROUP0
10
-1058.85838718331
20
2061.81193855945
30
1.72897877021683e-005
11
-1059.34074909311
21
2061.61213771444
31
1.7291649872675e-005
  0
LINE
 8
GROUP0
10
-1058.34074909311
20
2061.88008690687
30
1.72906719534183e-005
11
-1058.85838718331
21
2061.81193855945
31
1.72897877021683e-005
  0
LINE
 8
GROUP0
10
-1057.8231110029
20
2061.81193855945
30
1.72942422565825e-005
11
-1058.34074909311
21
2061.88008690687
31
1.72906719534183e-005
  0
LINE
 8
GROUP0
10
-1057.34074909311
20
2061.61213771444
30
1.73002553275126e-005
11
-1057.8231110029
21
2061.81193855945
31
1.72942422565825e-005
  0
LINE
 8
GROUP0
10
-1056.92653553073
20
2061.29430046924
30
1.73083014814779e-005
11
-1057.34074909311
21
2061.61213771444
31
1.73002553275126e-005
  0
LINE
 8
GROUP0
10
-1056.60869828554
20
2060.88008690687
30
1.73178322462775e-005
11
-1056.92653553073
21
2061.29430046924
31
1.73083014814779e-005
  0
LINE
 8
GROUP0
10
-1056.40889744053
20
2060.39772499708
30
1.73281981723505e-005
11
-1056.60869828554
21
2060.88008690687
31
1.73178322462775e-005
  0
LINE
 8
GROUP0
10
-1056.34074909311
20
2059.88008690687
30
1.73386928693731e-005
11
-1056.40889744053
21
2060.39772499708
31
1.73281981723505e-005
  0
LINE
 8
GROUP0
10
-1056.40889744053
20
2059.36244881667
30
1.73486011036061e-005
11
-1056.34074909311
21
2059.88008690687
31
1.73386928693731e-005
  0
LINE
 8
GROUP0
10
-1056.60869828554
20
2058.88008690687
30
1.73572477073947e-005
11
-1056.40889744053
21
2059.36244881667
31
1.73486011036061e-005
  0
LINE
 8
GROUP0
10
-1056.92653553073
20
2058.4658733445
30
1.73640433303035e-005
11
-1056.60869828554
21
2058.88008690687
31
1.73572477073947e-005
  0
LINE
 8
GROUP0
10
-931.072799900677
20
2060.88008690687
30
1.81958108079527e-005
11
-931.272600745685
21
2060.39772499707
31
1.82044573215023e-005
  0
LINE
 8
GROUP0
10
-930.754962655481
20
2061.29430046924
30
1.8189015094805e-005
11
-931.072799900677
21
2060.88008690687
31
1.81958108079527e-005
  0
LINE
 8
GROUP0
10
-930.340749093108
20
2061.61213771444
30
1.81845335589514e-005
11
-930.754962655481
21
2061.29430046924
31
1.8189015094805e-005
  0
LINE
 8
GROUP0
10
-929.858387183312
20
2061.81193855945
30
1.81826713884448e-005
11
-930.340749093108
21
2061.61213771444
31
1.81845335589514e-005
  0
LINE
 8
GROUP0
10
-929.340749093108
20
2061.88008690687
30
1.81835556396948e-005
11
-929.858387183312
21
2061.81193855945
31
1.81826713884448e-005
  0
LINE
 8
GROUP0
10
-928.823111002902
20
2061.81193855945
30
1.8187125942859e-005
11
-929.340749093108
21
2061.88008690687
31
1.81835556396948e-005
  0
LINE
 8
GROUP0
10
-928.340749093107
20
2061.61213771444
30
1.81931390137891e-005
11
-928.823111002902
21
2061.81193855945
31
1.8187125942859e-005
  0
LINE
 8
GROUP0
10
-927.926535530734
20
2061.29430046924
30
1.82011851677544e-005
11
-928.340749093107
21
2061.61213771444
31
1.81931390137891e-005
  0
LINE
 8
GROUP0
10
-927.608698285538
20
2060.88008690687
30
1.8210715932554e-005
11
-927.926535530734
21
2061.29430046924
31
1.82011851677544e-005
  0
LINE
 8
GROUP0
10
-927.408897440529
20
2060.39772499707
30
1.8221081858627e-005
11
-927.608698285538
21
2060.88008690687
31
1.8210715932554e-005
  0
LINE
 8
GROUP0
10
-927.340749093107
20
2059.88008690687
30
1.82315765556496e-005
11
-927.408897440529
21
2060.39772499707
31
1.8221081858627e-005
  0
LINE
 8
GROUP0
10
-927.408897440529
20
2059.36244881667
30
1.82414847898826e-005
11
-927.340749093107
21
2059.88008690687
31
1.82315765556496e-005
  0
LINE
 8
GROUP0
10
-927.608698285538
20
2058.88008690687
30
1.82501313936712e-005
11
-927.408897440529
21
2059.36244881667
31
1.82414847898826e-005
  0
LINE
 8
GROUP0
10
-927.926535530734
20
2058.4658733445
30
1.825692701658e-005
11
-927.608698285538
21
2058.88008690687
31
1.82501313936712e-005
  0
LINE
 8
GROUP0
10
-928.340749093107
20
2058.1480360993
30
1.82614085524335e-005
11
-927.926535530734
21
2058.4658733445
31
1.825692701658e-005
  0
LINE
 8
GROUP0
10
-928.823111002902
20
2057.94823525429
30
1.82632707229402e-005
11
-928.340749093107
21
2058.1480360993
31
1.82614085524335e-005
  0
LINE
 8
GROUP0
10
-929.340749093108
20
2057.88008690687
30
1.82623864716902e-005
11
-928.823111002902
21
2057.94823525429
31
1.82632707229402e-005
  0
LINE
 8
GROUP0
10
-929.858387183312
20
2057.94823525429
30
1.8258816168526e-005
11
-929.340749093108
21
2057.88008690687
31
1.82623864716902e-005
  0
LINE
 8
GROUP0
10
-930.340749093108
20
2058.1480360993
30
1.82528030975959e-005
11
-929.858387183312
21
2057.94823525429
31
1.8258816168526e-005
  0
LINE
 8
GROUP0
10
-930.754962655481
20
2058.4658733445
30
1.82447569436306e-005
11
-930.340749093108
21
2058.1480360993
31
1.82528030975959e-005
  0
LINE
 8
GROUP0
10
-931.072799900677
20
2058.88008690687
30
1.8235226178831e-005
11
-930.754962655481
21
2058.4658733445
31
1.82447569436306e-005
  0
LINE
 8
GROUP0
10
-931.272600745685
20
2059.36244881667
30
1.82248602527579e-005
11
-931.072799900677
21
2058.88008690687
31
1.8235226178831e-005
  0
LINE
 8
GROUP0
10
-931.340749093107
20
2059.88008690687
30
1.82143655557354e-005
11
-931.272600745685
21
2059.36244881667
31
1.82248602527579e-005
  0
LINE
 8
GROUP0
10
-931.272600745685
20
2060.39772499707
30
1.82044573215023e-005
11
-931.340749093107
21
2059.88008690687
31
1.82143655557354e-005
  0
LINE
 8
GROUP0
10
-800.340520711571
20
2057.88008690687
30
2.00588512178967e-005
11
-799.822882621366
21
2057.94823525429
31
2.00597354691467e-005
  0
LINE
 8
GROUP0
10
-800.858158801776
20
2057.94823525429
30
2.00552809147325e-005
11
-800.340520711571
21
2057.88008690687
31
2.00588512178967e-005
  0
LINE
 8
GROUP0
10
-801.340520711571
20
2058.1480360993
30
2.00492678438025e-005
11
-800.858158801776
21
2057.94823525429
31
2.00552809147325e-005
  0
LINE
 8
GROUP0
10
-801.754734273944
20
2058.4658733445
30
2.00412216898371e-005
11
-801.340520711571
21
2058.1480360993
31
2.00492678438025e-005
  0
LINE
 8
GROUP0
10
-802.07257151914
20
2058.88008690687
30
2.00316909250375e-005
11
-801.754734273944
21
2058.4658733445
31
2.00412216898371e-005
  0
LINE
 8
GROUP0
10
-802.272372364149
20
2059.36244881667
30
2.00213249989645e-005
11
-802.07257151914
21
2058.88008690687
31
2.00316909250375e-005
  0
LINE
 8
GROUP0
10
-802.340520711571
20
2059.88008690687
30
2.0010830301942e-005
11
-802.272372364149
21
2059.36244881667
31
2.00213249989645e-005
  0
LINE
 8
GROUP0
10
-802.272372364149
20
2060.39772499707
30
2.00009220677089e-005
11
-802.340520711571
21
2059.88008690687
31
2.0010830301942e-005
  0
LINE
 8
GROUP0
10
-802.07257151914
20
2060.88008690687
30
1.99922754639203e-005
11
-802.272372364149
21
2060.39772499707
31
2.00009220677089e-005
  0
LINE
 8
GROUP0
10
-801.754734273944
20
2061.29430046924
30
1.99854798410115e-005
11
-802.07257151914
21
2060.88008690687
31
1.99922754639203e-005
  0
LINE
 8
GROUP0
10
-801.340520711571
20
2061.61213771444
30
1.9980998305158e-005
11
-801.754734273944
21
2061.29430046924
31
1.99854798410115e-005
  0
LINE
 8
GROUP0
10
-800.858158801776
20
2061.81193855945
30
1.99791361346513e-005
11
-801.340520711571
21
2061.61213771444
31
1.9980998305158e-005
  0
LINE
 8
GROUP0
10
-800.340520711571
20
2061.88008690687
30
1.99800203859013e-005
11
-800.858158801776
21
2061.81193855945
31
1.99791361346513e-005
  0
LINE
 8
GROUP0
10
-799.822882621366
20
2061.81193855945
30
1.99835906890655e-005
11
-800.340520711571
21
2061.88008690687
31
1.99800203859013e-005
  0
LINE
 8
GROUP0
10
-799.340520711571
20
2061.61213771444
30
1.99896037599956e-005
11
-799.822882621366
21
2061.81193855945
31
1.99835906890655e-005
  0
LINE
 8
GROUP0
10
-798.926307149198
20
2061.29430046924
30
1.99976499139609e-005
11
-799.340520711571
21
2061.61213771444
31
1.99896037599956e-005
  0
LINE
 8
GROUP0
10
-798.608469904002
20
2060.88008690687
30
2.00071806787605e-005
11
-798.926307149198
21
2061.29430046924
31
1.99976499139609e-005
  0
LINE
 8
GROUP0
10
-798.408669058993
20
2060.39772499707
30
2.00175466048336e-005
11
-798.608469904002
21
2060.88008690687
31
2.00071806787605e-005
  0
LINE
 8
GROUP0
10
-798.340520711571
20
2059.88008690687
30
2.00280413018561e-005
11
-798.408669058993
21
2060.39772499707
31
2.00175466048336e-005
  0
LINE
 8
GROUP0
10
-798.408669058993
20
2059.36244881667
30
2.00379495360892e-005
11
-798.340520711571
21
2059.88008690687
31
2.00280413018561e-005
  0
LINE
 8
GROUP0
10
-798.608469904002
20
2058.88008690687
30
2.00465961398777e-005
11
-798.408669058993
21
2059.36244881667
31
2.00379495360892e-005
  0
LINE
 8
GROUP0
10
-798.926307149198
20
2058.4658733445
30
2.00533917627865e-005
11
-798.608469904002
21
2058.88008690687
31
2.00465961398777e-005
  0
LINE
 8
GROUP0
10
-799.340520711571
20
2058.1480360993
30
2.00578732986401e-005
11
-798.926307149198
21
2058.4658733445
31
2.00533917627865e-005
  0
LINE
 8
GROUP0
10
-799.822882621366
20
2057.94823525429
30
2.00597354691467e-005
11
-799.340520711571
21
2058.1480360993
31
2.00578732986401e-005
  0
LINE
 8
GROUP0
10
-876.840764974259
20
1767.87986357441
30
9.07816848112475e-006
11
-876.925950408719
21
1767.23281596167
31
9.0657785861481e-006
  0
LINE
 8
GROUP0
10
-876.925950408719
20
1767.23281596167
30
9.0657785861481e-006
11
-877.17570146515
21
1766.6298635745
31
9.05365002310532e-006
  0
LINE
 8
GROUP0
10
-877.17570146515
20
1766.6298635745
30
9.05365002310532e-006
11
-877.57299802179
21
1766.11209662165
31
9.0426094708107e-006
  0
LINE
 8
GROUP0
10
-877.57299802179
20
1766.11209662165
30
9.0426094708107e-006
11
-878.090764974868
21
1765.7148000653
31
9.0334091609634e-006
  0
LINE
 8
GROUP0
10
-878.090764974868
20
1765.7148000653
30
9.0334091609634e-006
11
-878.693717362183
21
1765.46504900921
31
9.02667607363128e-006
  0
LINE
 8
GROUP0
10
-878.693717362183
20
1765.46504900921
30
9.02667607363128e-006
11
-879.340764974963
21
1765.37986357511
31
9.02286925423823e-006
  0
LINE
 8
GROUP0
10
-879.340764974963
20
1765.37986357511
30
9.02286925423823e-006
11
-879.987812587695
21
1765.46504900957
31
9.02224795922279e-006
  0
LINE
 8
GROUP0
10
-879.987812587695
20
1765.46504900957
30
9.02224795922279e-006
11
-880.590764974868
21
1765.714800066
31
9.02485460088087e-006
  0
LINE
 8
GROUP0
10
-880.590764974868
20
1765.714800066
30
9.02485460088087e-006
11
-881.108531927723
21
1766.11209662264
31
9.03051149876433e-006
  0
LINE
 8
GROUP0
10
-881.108531927723
20
1766.11209662264
30
9.03051149876433e-006
11
-881.505828484072
21
1766.62986357572
31
9.03883315217513e-006
  0
LINE
 8
GROUP0
10
-881.505828484072
20
1766.62986357572
30
9.03883315217513e-006
11
-881.755579540164
21
1767.23281596303
31
9.04925240945431e-006
  0
LINE
 8
GROUP0
10
-881.755579540164
20
1767.23281596303
30
9.04925240945431e-006
11
-881.84076497426
21
1767.87986357581
31
9.06105936095969e-006
  0
LINE
 8
GROUP0
10
-881.84076497426
20
1767.87986357581
30
9.06105936095969e-006
11
-881.7555795398
21
1768.52691118855
31
9.07344925593634e-006
  0
LINE
 8
GROUP0
10
-881.7555795398
20
1768.52691118855
30
9.07344925593634e-006
11
-881.505828483369
21
1769.12986357572
31
9.08557781897912e-006
  0
LINE
 8
GROUP0
10
-881.505828483369
20
1769.12986357572
30
9.08557781897912e-006
11
-881.108531926729
21
1769.64763052857
31
9.09661837127373e-006
  0
LINE
 8
GROUP0
10
-881.108531926729
20
1769.64763052857
30
9.09661837127373e-006
11
-880.590764973651
21
1770.04492708492
31
9.10581868112104e-006
  0
LINE
 8
GROUP0
10
-880.590764973651
20
1770.04492708492
30
9.10581868112104e-006
11
-879.987812586336
21
1770.29467814102
31
9.11255176845316e-006
  0
LINE
 8
GROUP0
10
-879.987812586336
20
1770.29467814102
30
9.11255176845316e-006
11
-879.340764973556
21
1770.37986357511
31
9.11635858784621e-006
  0
LINE
 8
GROUP0
10
-879.340764973556
20
1770.37986357511
30
9.11635858784621e-006
11
-878.693717360824
21
1770.29467814065
31
9.11697988286164e-006
  0
LINE
 8
GROUP0
10
-878.693717360824
20
1770.29467814065
30
9.11697988286164e-006
11
-878.09076497365
21
1770.04492708422
31
9.11437324120357e-006
  0
LINE
 8
GROUP0
10
-878.09076497365
20
1770.04492708422
30
9.11437324120357e-006
11
-877.572998020795
21
1769.64763052758
31
9.10871634332011e-006
  0
LINE
 8
GROUP0
10
-877.572998020795
20
1769.64763052758
30
9.10871634332011e-006
11
-877.175701464447
21
1769.1298635745
31
9.10039468990931e-006
  0
LINE
 8
GROUP0
10
-877.175701464447
20
1769.1298635745
30
9.10039468990931e-006
11
-876.925950408355
21
1768.52691118719
31
9.08997543263013e-006
  0
LINE
 8
GROUP0
10
-876.925950408355
20
1768.52691118719
30
9.08997543263013e-006
11
-876.840764974259
21
1767.87986357441
31
9.07816848112475e-006
  0
LINE
 8
GROUP0
10
-977.17570146515
20
1766.6298635745
30
9.05365002310532e-006
11
-977.572998021791
21
1766.11209662165
31
9.0426094708107e-006
  0
LINE
 8
GROUP0
10
-977.572998021791
20
1766.11209662165
30
9.0426094708107e-006
11
-978.090764974869
21
1765.7148000653
31
9.0334091609634e-006
  0
LINE
 8
GROUP0
10
-978.090764974869
20
1765.7148000653
30
9.0334091609634e-006
11
-978.693717362183
21
1765.46504900921
31
9.02667607363128e-006
  0
LINE
 8
GROUP0
10
-978.693717362183
20
1765.46504900921
30
9.02667607363128e-006
11
-979.340764974964
21
1765.37986357511
31
9.02286925423823e-006
  0
LINE
 8
GROUP0
10
-979.340764974964
20
1765.37986357511
30
9.02286925423823e-006
11
-979.987812587695
21
1765.46504900957
31
9.02224795922279e-006
  0
LINE
 8
GROUP0
10
-979.987812587695
20
1765.46504900957
30
9.02224795922279e-006
11
-980.590764974869
21
1765.714800066
31
9.02485460088087e-006
  0
LINE
 8
GROUP0
10
-980.590764974869
20
1765.714800066
30
9.02485460088087e-006
11
-981.108531927724
21
1766.11209662264
31
9.03051149876433e-006
  0
LINE
 8
GROUP0
10
-981.108531927724
20
1766.11209662264
30
9.03051149876433e-006
11
-981.505828484073
21
1766.62986357572
31
9.03883315217513e-006
  0
LINE
 8
GROUP0
10
-981.505828484073
20
1766.62986357572
30
9.03883315217513e-006
11
-981.755579540165
21
1767.23281596303
31
9.04925240945431e-006
  0
LINE
 8
GROUP0
10
-981.755579540165
20
1767.23281596303
30
9.04925240945431e-006
11
-981.84076497426
21
1767.87986357581
31
9.06105936095969e-006
  0
LINE
 8
GROUP0
10
-981.84076497426
20
1767.87986357581
30
9.06105936095969e-006
11
-981.755579539801
21
1768.52691118855
31
9.07344925593634e-006
  0
LINE
 8
GROUP0
10
-981.755579539801
20
1768.52691118855
30
9.07344925593634e-006
11
-981.505828483369
21
1769.12986357572
31
9.08557781897912e-006
  0
LINE
 8
GROUP0
10
-981.505828483369
20
1769.12986357572
30
9.08557781897912e-006
11
-981.108531926729
21
1769.64763052857
31
9.09661837127373e-006
  0
LINE
 8
GROUP0
10
-981.108531926729
20
1769.64763052857
30
9.09661837127373e-006
11
-980.590764973651
21
1770.04492708492
31
9.10581868112104e-006
  0
LINE
 8
GROUP0
10
-980.590764973651
20
1770.04492708492
30
9.10581868112104e-006
11
-979.987812586337
21
1770.29467814102
31
9.11255176845316e-006
  0
LINE
 8
GROUP0
10
-979.987812586337
20
1770.29467814102
30
9.11255176845316e-006
11
-979.340764973556
21
1770.37986357511
31
9.11635858784621e-006
  0
LINE
 8
GROUP0
10
-979.340764973556
20
1770.37986357511
30
9.11635858784621e-006
11
-978.693717360824
21
1770.29467814065
31
9.11697988286164e-006
  0
LINE
 8
GROUP0
10
-978.693717360824
20
1770.29467814065
30
9.11697988286164e-006
11
-978.090764973651
21
1770.04492708422
31
9.11437324120357e-006
  0
LINE
 8
GROUP0
10
-978.090764973651
20
1770.04492708422
30
9.11437324120357e-006
11
-977.572998020796
21
1769.64763052758
31
9.10871634332011e-006
  0
LINE
 8
GROUP0
10
-977.572998020796
20
1769.64763052758
30
9.10871634332011e-006
11
-977.175701464447
21
1769.1298635745
31
9.10039468990931e-006
  0
LINE
 8
GROUP0
10
-977.175701464447
20
1769.1298635745
30
9.10039468990931e-006
11
-976.925950408355
21
1768.52691118719
31
9.08997543263013e-006
  0
LINE
 8
GROUP0
10
-976.925950408355
20
1768.52691118719
30
9.08997543263013e-006
11
-976.84076497426
21
1767.87986357441
31
9.07816848112475e-006
  0
LINE
 8
GROUP0
10
-976.84076497426
20
1767.87986357441
30
9.07816848112475e-006
11
-976.925950408719
21
1767.23281596167
31
9.0657785861481e-006
  0
LINE
 8
GROUP0
10
-976.925950408719
20
1767.23281596167
30
9.0657785861481e-006
11
-977.17570146515
21
1766.6298635745
31
9.05365002310532e-006
 0
ENDSEC
 0
EOF
