 0
SECTION
 2
ENTITIES
  0
LINE
 8
GROUP0
10
87.0995389436152
20
2620.94509282858
30
0.00105591450238757
11
154.099538943615
21
2620.94509282858
31
0.00105591450238757
  0
LINE
 8
GROUP0
10
87.0995389436152
20
2616.94509282858
30
0.00105591450238757
11
154.099538943615
21
2616.94509282858
31
0.00105591450238757
  0
LINE
 8
GROUP0
10
87.0995389436152
20
2612.94509282858
30
0.00105591450238757
11
154.099538943615
21
2612.94509282858
31
0.00105591450238757
  0
LINE
 8
GROUP0
10
87.0995389436152
20
2608.94509282858
30
0.00105591450238757
11
154.099538943615
21
2608.94509282858
31
0.00105591450238757
  0
LINE
 8
GROUP0
10
87.0995389436152
20
2604.94509282858
30
0.00105591450237629
11
154.099538943615
21
2604.94509282858
31
0.00105591450237629
  0
LINE
 8
GROUP0
10
87.0995389436152
20
2600.94509282858
30
0.00105591450237629
11
154.099538943615
21
2600.94509282858
31
0.00105591450237629
  0
LINE
 8
GROUP0
10
87.0995389436152
20
2596.94509282858
30
0.00105591450238757
11
154.099538943615
21
2596.94509282858
31
0.00105591450238757
  0
LINE
 8
GROUP0
10
87.0995389436152
20
2592.94509282858
30
0.00105591450238757
11
154.099538943615
21
2592.94509282858
31
0.00105591450238757
  0
LINE
 8
GROUP0
10
87.0995389436152
20
2588.94509282858
30
0.00105591450238757
11
154.099538943615
21
2588.94509282858
31
0.00105591450238757
  0
LINE
 8
GROUP0
10
87.0995389436152
20
2584.94509282858
30
0.00105591450238757
11
154.099538943615
21
2584.94509282858
31
0.00105591450238757
  0
LINE
 8
GROUP0
10
87.0995389436152
20
2580.94509282858
30
0.00105591450238757
11
154.099538943615
21
2580.94509282858
31
0.00105591450238757
  0
LINE
 8
GROUP0
10
87.0995389436152
20
2576.94509282858
30
0.00105591450238757
11
154.099538943615
21
2576.94509282858
31
0.00105591450238757
  0
LINE
 8
GROUP0
10
87.0995389436152
20
2572.94509282858
30
0.00105591450237629
11
154.099538943615
21
2572.94509282858
31
0.00105591450237629
  0
LINE
 8
GROUP0
10
87.0995389436152
20
2568.94509282858
30
0.00105591450238757
11
154.099538943615
21
2568.94509282858
31
0.00105591450238757
  0
LINE
 8
GROUP0
10
87.0995389436152
20
2564.94509282858
30
0.00105591450238757
11
154.099538943615
21
2564.94509282858
31
0.00105591450238757
  0
LINE
 8
GROUP0
10
87.0995389436152
20
2560.94509282858
30
0.00105591450238757
11
154.099538943615
21
2560.94509282858
31
0.00105591450238757
  0
LINE
 8
GROUP0
10
122.099538943615
20
2618.94509282858
30
0.00105591450237629
11
189.099538943615
21
2618.94509282858
31
0.00105591450237629
  0
LINE
 8
GROUP0
10
122.099538943615
20
2614.94509282858
30
0.00105591450238757
11
189.099538943615
21
2614.94509282858
31
0.00105591450238757
  0
LINE
 8
GROUP0
10
122.099538943615
20
2610.94509282858
30
0.00105591450238757
11
189.099538943615
21
2610.94509282858
31
0.00105591450238757
  0
LINE
 8
GROUP0
10
122.099538943615
20
2606.94509282858
30
0.00105591450238757
11
189.099538943615
21
2606.94509282858
31
0.00105591450238757
  0
LINE
 8
GROUP0
10
122.099538943615
20
2602.94509282858
30
0.00105591450238757
11
189.099538943615
21
2602.94509282858
31
0.00105591450238757
  0
LINE
 8
GROUP0
10
122.099538943615
20
2598.94509282858
30
0.00105591450238757
11
189.099538943615
21
2598.94509282858
31
0.00105591450238757
  0
LINE
 8
GROUP0
10
122.099538943615
20
2594.94509282858
30
0.00105591450238757
11
189.099538943615
21
2594.94509282858
31
0.00105591450238757
  0
LINE
 8
GROUP0
10
122.099538943615
20
2590.94509282858
30
0.00105591450238757
11
189.099538943615
21
2590.94509282858
31
0.00105591450238757
  0
LINE
 8
GROUP0
10
122.099538943615
20
2586.94509282858
30
0.00105591450237629
11
189.099538943615
21
2586.94509282858
31
0.00105591450237629
  0
LINE
 8
GROUP0
10
122.099538943615
20
2582.94509282858
30
0.00105591450238757
11
189.099538943615
21
2582.94509282858
31
0.00105591450238757
  0
LINE
 8
GROUP0
10
122.099538943615
20
2578.94509282858
30
0.00105591450238757
11
189.099538943615
21
2578.94509282858
31
0.00105591450238757
  0
LINE
 8
GROUP0
10
122.099538943615
20
2574.94509282858
30
0.00105591450238757
11
189.099538943615
21
2574.94509282858
31
0.00105591450238757
  0
LINE
 8
GROUP0
10
122.099538943615
20
2570.94509282858
30
0.00105591450238757
11
189.099538943615
21
2570.94509282858
31
0.00105591450238757
  0
LINE
 8
GROUP0
10
122.099538943615
20
2566.94509282858
30
0.00105591450238757
11
189.099538943615
21
2566.94509282858
31
0.00105591450238757
  0
LINE
 8
GROUP0
10
122.099538943615
20
2562.94509282858
30
0.00105591450238757
11
189.099538943615
21
2562.94509282858
31
0.00105591450238757
  0
LINE
 8
GROUP0
10
157.099538943615
20
2620.94509282858
30
0.00105591450238757
11
224.099538943615
21
2620.94509282858
31
0.00105591450238757
  0
LINE
 8
GROUP0
10
157.099538943615
20
2616.94509282858
30
0.00105591450238757
11
224.099538943615
21
2616.94509282858
31
0.00105591450238757
  0
LINE
 8
GROUP0
10
157.099538943615
20
2612.94509282858
30
0.00105591450238757
11
224.099538943615
21
2612.94509282858
31
0.00105591450238757
  0
LINE
 8
GROUP0
10
157.099538943615
20
2608.94509282858
30
0.00105591450238757
11
224.099538943615
21
2608.94509282858
31
0.00105591450238757
  0
LINE
 8
GROUP0
10
157.099538943615
20
2604.94509282858
30
0.00105591450237629
11
224.099538943615
21
2604.94509282858
31
0.00105591450237629
  0
LINE
 8
GROUP0
10
157.099538943615
20
2600.94509282858
30
0.00105591450237629
11
224.099538943615
21
2600.94509282858
31
0.00105591450237629
  0
LINE
 8
GROUP0
10
157.099538943615
20
2596.94509282858
30
0.00105591450238757
11
224.099538943615
21
2596.94509282858
31
0.00105591450238757
  0
LINE
 8
GROUP0
10
157.099538943615
20
2592.94509282858
30
0.00105591450238757
11
224.099538943615
21
2592.94509282858
31
0.00105591450238757
  0
LINE
 8
GROUP0
10
157.099538943615
20
2588.94509282858
30
0.00105591450238757
11
224.099538943615
21
2588.94509282858
31
0.00105591450238757
  0
LINE
 8
GROUP0
10
157.099538943615
20
2584.94509282858
30
0.00105591450238757
11
224.099538943615
21
2584.94509282858
31
0.00105591450238757
  0
LINE
 8
GROUP0
10
157.099538943615
20
2580.94509282858
30
0.00105591450238757
11
224.099538943615
21
2580.94509282858
31
0.00105591450238757
  0
LINE
 8
GROUP0
10
157.099538943615
20
2576.94509282858
30
0.00105591450238757
11
224.099538943615
21
2576.94509282858
31
0.00105591450238757
  0
LINE
 8
GROUP0
10
157.099538943615
20
2572.94509282858
30
0.00105591450237629
11
224.099538943615
21
2572.94509282858
31
0.00105591450237629
  0
LINE
 8
GROUP0
10
157.099538943615
20
2568.94509282858
30
0.00105591450238757
11
224.099538943615
21
2568.94509282858
31
0.00105591450238757
  0
LINE
 8
GROUP0
10
157.099538943615
20
2564.94509282858
30
0.00105591450238757
11
224.099538943615
21
2564.94509282858
31
0.00105591450238757
  0
LINE
 8
GROUP0
10
157.099538943615
20
2560.94509282858
30
0.00105591450238757
11
224.099538943615
21
2560.94509282858
31
0.00105591450238757
  0
LINE
 8
GROUP0
10
192.099538943615
20
2618.94509282858
30
0.00105591450237629
11
259.099538943615
21
2618.94509282858
31
0.00105591450237629
  0
LINE
 8
GROUP0
10
192.099538943615
20
2610.94509282858
30
0.00105591450238757
11
259.099538943615
21
2610.94509282858
31
0.00105591450238757
  0
LINE
 8
GROUP0
10
192.099538943615
20
2606.94509282858
30
0.00105591450238757
11
259.099538943615
21
2606.94509282858
31
0.00105591450238757
  0
LINE
 8
GROUP0
10
192.099538943615
20
2602.94509282858
30
0.00105591450238757
11
259.099538943615
21
2602.94509282858
31
0.00105591450238757
  0
LINE
 8
GROUP0
10
192.099538943615
20
2598.94509282858
30
0.00105591450238757
11
259.099538943615
21
2598.94509282858
31
0.00105591450238757
  0
LINE
 8
GROUP0
10
192.099538943615
20
2586.94509282858
30
0.00105591450237629
11
259.099538943615
21
2586.94509282858
31
0.00105591450237629
  0
LINE
 8
GROUP0
10
192.099538943615
20
2594.94509282858
30
0.00105591450238757
11
259.099538943615
21
2594.94509282858
31
0.00105591450238757
  0
LINE
 8
GROUP0
10
192.099538943615
20
2614.94509282858
30
0.00105591450238757
11
259.099538943615
21
2614.94509282858
31
0.00105591450238757
  0
LINE
 8
GROUP0
10
227.099538943615
20
2620.94509282858
30
0.00105591450238757
11
294.099538943615
21
2620.94509282858
31
0.00105591450238757
  0
LINE
 8
GROUP0
10
192.099538943615
20
2566.94509282858
30
0.00105591450238757
11
259.099538943615
21
2566.94509282858
31
0.00105591450238757
  0
LINE
 8
GROUP0
10
192.099538943615
20
2562.94509282858
30
0.00105591450238757
11
259.099538943615
21
2562.94509282858
31
0.00105591450238757
  0
LINE
 8
GROUP0
10
227.099538943615
20
2560.94509282858
30
0.00105591450238757
11
294.099538943615
21
2560.94509282858
31
0.00105591450238757
  0
LINE
 8
GROUP0
10
192.099538943615
20
2590.94509282858
30
0.00105591450238757
11
259.099538943615
21
2590.94509282858
31
0.00105591450238757
  0
LINE
 8
GROUP0
10
227.099538943615
20
2608.94509282858
30
0.00105591450238757
11
294.099538943615
21
2608.94509282858
31
0.00105591450238757
  0
LINE
 8
GROUP0
10
192.099538943615
20
2570.94509282858
30
0.00105591450238757
11
259.099538943615
21
2570.94509282858
31
0.00105591450238757
  0
LINE
 8
GROUP0
10
227.099538943615
20
2568.94509282858
30
0.00105591450238757
11
294.099538943615
21
2568.94509282858
31
0.00105591450238757
  0
LINE
 8
GROUP0
10
192.099538943615
20
2574.94509282858
30
0.00105591450238757
11
259.099538943615
21
2574.94509282858
31
0.00105591450238757
  0
LINE
 8
GROUP0
10
192.099538943615
20
2578.94509282858
30
0.00105591450238757
11
259.099538943615
21
2578.94509282858
31
0.00105591450238757
  0
LINE
 8
GROUP0
10
227.099538943615
20
2588.94509282858
30
0.00105591450238757
11
294.099538943615
21
2588.94509282858
31
0.00105591450238757
  0
LINE
 8
GROUP0
10
227.099538943615
20
2592.94509282858
30
0.00105591450238757
11
294.099538943615
21
2592.94509282858
31
0.00105591450238757
  0
LINE
 8
GROUP0
10
192.099538943615
20
2582.94509282858
30
0.00105591450238757
11
259.099538943615
21
2582.94509282858
31
0.00105591450238757
  0
LINE
 8
GROUP0
10
227.099538943615
20
2572.94509282858
30
0.00105591450237629
11
294.099538943615
21
2572.94509282858
31
0.00105591450237629
  0
LINE
 8
GROUP0
10
227.099538943615
20
2584.94509282858
30
0.00105591450238757
11
294.099538943615
21
2584.94509282858
31
0.00105591450238757
  0
LINE
 8
GROUP0
10
227.099538943615
20
2564.94509282858
30
0.00105591450238757
11
294.099538943615
21
2564.94509282858
31
0.00105591450238757
  0
LINE
 8
GROUP0
10
227.099538943615
20
2612.94509282858
30
0.00105591450238757
11
294.099538943615
21
2612.94509282858
31
0.00105591450238757
  0
LINE
 8
GROUP0
10
227.099538943615
20
2604.94509282858
30
0.00105591450237629
11
294.099538943615
21
2604.94509282858
31
0.00105591450237629
  0
LINE
 8
GROUP0
10
227.099538943615
20
2576.94509282858
30
0.00105591450238757
11
294.099538943615
21
2576.94509282858
31
0.00105591450238757
  0
LINE
 8
GROUP0
10
227.099538943615
20
2616.94509282858
30
0.00105591450238757
11
294.099538943615
21
2616.94509282858
31
0.00105591450238757
  0
LINE
 8
GROUP0
10
227.099538943615
20
2600.94509282858
30
0.00105591450237629
11
294.099538943615
21
2600.94509282858
31
0.00105591450237629
  0
LINE
 8
GROUP0
10
227.099538943615
20
2580.94509282858
30
0.00105591450238757
11
294.099538943615
21
2580.94509282858
31
0.00105591450238757
  0
LINE
 8
GROUP0
10
227.099538943615
20
2596.94509282858
30
0.00105591450238757
11
294.099538943615
21
2596.94509282858
31
0.00105591450238757
  0
LINE
 8
GROUP0
10
262.099538943615
20
2618.94509282858
30
0.00105591450237629
11
329.099538943615
21
2618.94509282858
31
0.00105591450237629
  0
LINE
 8
GROUP0
10
262.099538943615
20
2602.94509282858
30
0.00105591450238757
11
329.099538943615
21
2602.94509282858
31
0.00105591450238757
  0
LINE
 8
GROUP0
10
262.099538943615
20
2610.94509282858
30
0.00105591450238757
11
329.099538943615
21
2610.94509282858
31
0.00105591450238757
  0
LINE
 8
GROUP0
10
262.099538943615
20
2594.94509282858
30
0.00105591450238757
11
329.099538943615
21
2594.94509282858
31
0.00105591450238757
  0
LINE
 8
GROUP0
10
297.099538943615
20
2620.94509282858
30
0.00105591450238757
11
364.099538943615
21
2620.94509282858
31
0.00105591450238757
  0
LINE
 8
GROUP0
10
262.099538943615
20
2566.94509282858
30
0.00105591450238757
11
329.099538943615
21
2566.94509282858
31
0.00105591450238757
  0
LINE
 8
GROUP0
10
262.099538943615
20
2562.94509282858
30
0.00105591450238757
11
329.099538943615
21
2562.94509282858
31
0.00105591450238757
  0
LINE
 8
GROUP0
10
262.099538943615
20
2614.94509282858
30
0.00105591450238757
11
329.099538943615
21
2614.94509282858
31
0.00105591450238757
  0
LINE
 8
GROUP0
10
262.099538943615
20
2586.94509282858
30
0.00105591450237629
11
329.099538943615
21
2586.94509282858
31
0.00105591450237629
  0
LINE
 8
GROUP0
10
262.099538943615
20
2606.94509282858
30
0.00105591450238757
11
329.099538943615
21
2606.94509282858
31
0.00105591450238757
  0
LINE
 8
GROUP0
10
262.099538943615
20
2598.94509282858
30
0.00105591450238757
11
329.099538943615
21
2598.94509282858
31
0.00105591450238757
  0
LINE
 8
GROUP0
10
297.099538943615
20
2564.94509282858
30
0.00105591450238757
11
364.099538943615
21
2564.94509282858
31
0.00105591450238757
  0
LINE
 8
GROUP0
10
297.099538943615
20
2580.94509282858
30
0.00105591450238757
11
364.099538943615
21
2580.94509282858
31
0.00105591450238757
  0
LINE
 8
GROUP0
10
297.099538943615
20
2604.94509282858
30
0.00105591450237629
11
364.099538943615
21
2604.94509282858
31
0.00105591450237629
  0
LINE
 8
GROUP0
10
262.099538943615
20
2578.94509282858
30
0.00105591450238757
11
329.099538943615
21
2578.94509282858
31
0.00105591450238757
  0
LINE
 8
GROUP0
10
297.099538943615
20
2612.94509282858
30
0.00105591450238757
11
364.099538943615
21
2612.94509282858
31
0.00105591450238757
  0
LINE
 8
GROUP0
10
297.099538943615
20
2576.94509282858
30
0.00105591450238757
11
364.099538943615
21
2576.94509282858
31
0.00105591450238757
  0
LINE
 8
GROUP0
10
297.099538943615
20
2560.94509282858
30
0.00105591450238757
11
364.099538943615
21
2560.94509282858
31
0.00105591450238757
  0
LINE
 8
GROUP0
10
297.099538943615
20
2608.94509282858
30
0.00105591450238757
11
364.099538943615
21
2608.94509282858
31
0.00105591450238757
  0
LINE
 8
GROUP0
10
297.099538943615
20
2616.94509282858
30
0.00105591450238757
11
364.099538943615
21
2616.94509282858
31
0.00105591450238757
  0
LINE
 8
GROUP0
10
297.099538943615
20
2588.94509282858
30
0.00105591450238757
11
364.099538943615
21
2588.94509282858
31
0.00105591450238757
  0
LINE
 8
GROUP0
10
297.099538943615
20
2600.94509282858
30
0.00105591450237629
11
364.099538943615
21
2600.94509282858
31
0.00105591450237629
  0
LINE
 8
GROUP0
10
262.099538943615
20
2570.94509282858
30
0.00105591450238757
11
329.099538943615
21
2570.94509282858
31
0.00105591450238757
  0
LINE
 8
GROUP0
10
297.099538943615
20
2592.94509282858
30
0.00105591450238757
11
364.099538943615
21
2592.94509282858
31
0.00105591450238757
  0
LINE
 8
GROUP0
10
297.099538943615
20
2596.94509282858
30
0.00105591450238757
11
364.099538943615
21
2596.94509282858
31
0.00105591450238757
  0
LINE
 8
GROUP0
10
262.099538943615
20
2590.94509282858
30
0.00105591450238757
11
329.099538943615
21
2590.94509282858
31
0.00105591450238757
  0
LINE
 8
GROUP0
10
297.099538943615
20
2568.94509282858
30
0.00105591450238757
11
364.099538943615
21
2568.94509282858
31
0.00105591450238757
  0
LINE
 8
GROUP0
10
297.099538943615
20
2584.94509282858
30
0.00105591450238757
11
364.099538943615
21
2584.94509282858
31
0.00105591450238757
  0
LINE
 8
GROUP0
10
262.099538943615
20
2582.94509282858
30
0.00105591450238757
11
329.099538943615
21
2582.94509282858
31
0.00105591450238757
  0
LINE
 8
GROUP0
10
297.099538943615
20
2572.94509282858
30
0.00105591450237629
11
364.099538943615
21
2572.94509282858
31
0.00105591450237629
  0
LINE
 8
GROUP0
10
262.099538943615
20
2574.94509282858
30
0.00105591450238757
11
329.099538943615
21
2574.94509282858
31
0.00105591450238757
  0
LINE
 8
GROUP0
10
332.099538943615
20
2602.94509282858
30
0.00105591450238757
11
399.099538943615
21
2602.94509282858
31
0.00105591450238757
  0
LINE
 8
GROUP0
10
332.099538943615
20
2610.94509282858
30
0.00105591450238757
11
399.099538943615
21
2610.94509282858
31
0.00105591450238757
  0
LINE
 8
GROUP0
10
332.099538943615
20
2618.94509282858
30
0.00105591450237629
11
399.099538943615
21
2618.94509282858
31
0.00105591450237629
  0
LINE
 8
GROUP0
10
332.099538943615
20
2594.94509282858
30
0.00105591450238757
11
399.099538943615
21
2594.94509282858
31
0.00105591450238757
  0
LINE
 8
GROUP0
10
332.099538943615
20
2566.94509282858
30
0.00105591450238757
11
399.099538943615
21
2566.94509282858
31
0.00105591450238757
  0
LINE
 8
GROUP0
10
332.099538943615
20
2614.94509282858
30
0.00105591450238757
11
399.099538943615
21
2614.94509282858
31
0.00105591450238757
  0
LINE
 8
GROUP0
10
332.099538943615
20
2586.94509282858
30
0.00105591450237629
11
399.099538943615
21
2586.94509282858
31
0.00105591450237629
  0
LINE
 8
GROUP0
10
332.099538943615
20
2562.94509282858
30
0.00105591450238757
11
399.099538943615
21
2562.94509282858
31
0.00105591450238757
  0
LINE
 8
GROUP0
10
367.099538943615
20
2620.94509282858
30
0.00105591450238757
11
434.099538943615
21
2620.94509282858
31
0.00105591450238757
  0
LINE
 8
GROUP0
10
332.099538943615
20
2606.94509282858
30
0.00105591450238757
11
399.099538943615
21
2606.94509282858
31
0.00105591450238757
  0
LINE
 8
GROUP0
10
367.099538943615
20
2580.94509282858
30
0.00105591450238757
11
434.099538943615
21
2580.94509282858
31
0.00105591450238757
  0
LINE
 8
GROUP0
10
367.099538943615
20
2560.94509282858
30
0.00105591450238757
11
434.099538943615
21
2560.94509282858
31
0.00105591450238757
  0
LINE
 8
GROUP0
10
367.099538943615
20
2612.94509282858
30
0.00105591450238757
11
434.099538943615
21
2612.94509282858
31
0.00105591450238757
  0
LINE
 8
GROUP0
10
367.099538943615
20
2564.94509282858
30
0.00105591450238757
11
434.099538943615
21
2564.94509282858
31
0.00105591450238757
  0
LINE
 8
GROUP0
10
367.099538943615
20
2604.94509282858
30
0.00105591450237629
11
434.099538943615
21
2604.94509282858
31
0.00105591450237629
  0
LINE
 8
GROUP0
10
367.099538943615
20
2576.94509282858
30
0.00105591450238757
11
434.099538943615
21
2576.94509282858
31
0.00105591450238757
  0
LINE
 8
GROUP0
10
367.099538943615
20
2588.94509282858
30
0.00105591450238757
11
434.099538943615
21
2588.94509282858
31
0.00105591450238757
  0
LINE
 8
GROUP0
10
367.099538943615
20
2616.94509282858
30
0.00105591450238757
11
434.099538943615
21
2616.94509282858
31
0.00105591450238757
  0
LINE
 8
GROUP0
10
332.099538943615
20
2590.94509282858
30
0.00105591450238757
11
399.099538943615
21
2590.94509282858
31
0.00105591450238757
  0
LINE
 8
GROUP0
10
367.099538943615
20
2568.94509282858
30
0.00105591450238757
11
434.099538943615
21
2568.94509282858
31
0.00105591450238757
  0
LINE
 8
GROUP0
10
332.099538943615
20
2582.94509282858
30
0.00105591450238757
11
399.099538943615
21
2582.94509282858
31
0.00105591450238757
  0
LINE
 8
GROUP0
10
367.099538943615
20
2600.94509282858
30
0.00105591450237629
11
434.099538943615
21
2600.94509282858
31
0.00105591450237629
  0
LINE
 8
GROUP0
10
332.099538943615
20
2598.94509282858
30
0.00105591450238757
11
399.099538943615
21
2598.94509282858
31
0.00105591450238757
  0
LINE
 8
GROUP0
10
332.099538943615
20
2570.94509282858
30
0.00105591450238757
11
399.099538943615
21
2570.94509282858
31
0.00105591450238757
  0
LINE
 8
GROUP0
10
367.099538943615
20
2596.94509282858
30
0.00105591450238757
11
434.099538943615
21
2596.94509282858
31
0.00105591450238757
  0
LINE
 8
GROUP0
10
367.099538943615
20
2572.94509282858
30
0.00105591450237629
11
434.099538943615
21
2572.94509282858
31
0.00105591450237629
  0
LINE
 8
GROUP0
10
332.099538943615
20
2574.94509282858
30
0.00105591450238757
11
399.099538943615
21
2574.94509282858
31
0.00105591450238757
  0
LINE
 8
GROUP0
10
332.099538943615
20
2578.94509282858
30
0.00105591450238757
11
399.099538943615
21
2578.94509282858
31
0.00105591450238757
  0
LINE
 8
GROUP0
10
367.099538943615
20
2584.94509282858
30
0.00105591450238757
11
434.099538943615
21
2584.94509282858
31
0.00105591450238757
  0
LINE
 8
GROUP0
10
367.099538943615
20
2592.94509282858
30
0.00105591450238757
11
434.099538943615
21
2592.94509282858
31
0.00105591450238757
  0
LINE
 8
GROUP0
10
367.099538943615
20
2608.94509282858
30
0.00105591450238757
11
434.099538943615
21
2608.94509282858
31
0.00105591450238757
  0
LINE
 8
GROUP0
10
119.099538943615
20
2618.94509282858
30
0.00105591450237629
11
83.5995389436152
21
2618.94509282858
31
0.00105591450237629
  0
LINE
 8
GROUP0
10
119.099538943615
20
2614.94509282858
30
0.00105591450238757
11
83.5995389436152
21
2614.94509282858
31
0.00105591450238757
  0
LINE
 8
GROUP0
10
119.099538943615
20
2610.94509282858
30
0.00105591450238757
11
83.5995389436152
21
2610.94509282858
31
0.00105591450238757
  0
LINE
 8
GROUP0
10
119.099538943615
20
2606.94509282858
30
0.00105591450238757
11
83.5995389436152
21
2606.94509282858
31
0.00105591450238757
  0
LINE
 8
GROUP0
10
119.099538943615
20
2602.94509282858
30
0.00105591450238757
11
83.5995389436152
21
2602.94509282858
31
0.00105591450238757
  0
LINE
 8
GROUP0
10
119.099538943615
20
2598.94509282858
30
0.00105591450238757
11
83.5995389436152
21
2598.94509282858
31
0.00105591450238757
  0
LINE
 8
GROUP0
10
119.099538943615
20
2594.94509282858
30
0.00105591450238757
11
83.5995389436152
21
2594.94509282858
31
0.00105591450238757
  0
LINE
 8
GROUP0
10
119.099538943615
20
2590.94509282858
30
0.00105591450238757
11
83.5995389436152
21
2590.94509282858
31
0.00105591450238757
  0
LINE
 8
GROUP0
10
119.099538943615
20
2586.94509282858
30
0.00105591450237629
11
83.5995389436152
21
2586.94509282858
31
0.00105591450237629
  0
LINE
 8
GROUP0
10
119.099538943615
20
2582.94509282858
30
0.00105591450238757
11
83.5995389436152
21
2582.94509282858
31
0.00105591450238757
  0
LINE
 8
GROUP0
10
119.099538943615
20
2578.94509282858
30
0.00105591450238757
11
83.5995389436152
21
2578.94509282858
31
0.00105591450238757
  0
LINE
 8
GROUP0
10
119.099538943615
20
2574.94509282858
30
0.00105591450238757
11
83.5995389436152
21
2574.94509282858
31
0.00105591450238757
  0
LINE
 8
GROUP0
10
119.099538943615
20
2570.94509282858
30
0.00105591450238757
11
83.5995389436152
21
2570.94509282858
31
0.00105591450238757
  0
LINE
 8
GROUP0
10
119.099538943615
20
2566.94509282858
30
0.00105591450238757
11
83.5995389436152
21
2566.94509282858
31
0.00105591450238757
  0
LINE
 8
GROUP0
10
119.099538943615
20
2562.94509282858
30
0.00105591450238757
11
83.5995389436152
21
2562.94509282858
31
0.00105591450238757
  0
LINE
 8
GROUP0
10
402.099538943615
20
2618.94509282858
30
0.00105591450237629
11
437.599538943615
21
2618.94509282858
31
0.00105591450237629
  0
LINE
 8
GROUP0
10
402.099538943615
20
2614.94509282858
30
0.00105591450238757
11
437.599538943615
21
2614.94509282858
31
0.00105591450238757
  0
LINE
 8
GROUP0
10
402.099538943615
20
2610.94509282858
30
0.00105591450238757
11
437.599538943615
21
2610.94509282858
31
0.00105591450238757
  0
LINE
 8
GROUP0
10
402.099538943615
20
2606.94509282858
30
0.00105591450238757
11
437.599538943615
21
2606.94509282858
31
0.00105591450238757
  0
LINE
 8
GROUP0
10
402.099538943615
20
2602.94509282858
30
0.00105591450238757
11
437.599538943615
21
2602.94509282858
31
0.00105591450238757
  0
LINE
 8
GROUP0
10
402.099538943615
20
2598.94509282858
30
0.00105591450238757
11
437.599538943615
21
2598.94509282858
31
0.00105591450238757
  0
LINE
 8
GROUP0
10
402.099538943615
20
2594.94509282858
30
0.00105591450238757
11
437.599538943615
21
2594.94509282858
31
0.00105591450238757
  0
LINE
 8
GROUP0
10
402.099538943615
20
2590.94509282858
30
0.00105591450238757
11
437.599538943615
21
2590.94509282858
31
0.00105591450238757
  0
LINE
 8
GROUP0
10
402.099538943615
20
2586.94509282858
30
0.00105591450237629
11
437.599538943615
21
2586.94509282858
31
0.00105591450237629
  0
LINE
 8
GROUP0
10
402.099538943615
20
2582.94509282858
30
0.00105591450238757
11
437.599538943615
21
2582.94509282858
31
0.00105591450238757
  0
LINE
 8
GROUP0
10
402.099538943615
20
2578.94509282858
30
0.00105591450238757
11
437.599538943615
21
2578.94509282858
31
0.00105591450238757
  0
LINE
 8
GROUP0
10
402.099538943615
20
2574.94509282858
30
0.00105591450238757
11
437.599538943615
21
2574.94509282858
31
0.00105591450238757
  0
LINE
 8
GROUP0
10
402.099538943615
20
2570.94509282858
30
0.00105591450238757
11
437.599538943615
21
2570.94509282858
31
0.00105591450238757
  0
LINE
 8
GROUP0
10
402.099538943615
20
2566.94509282858
30
0.00105591450238757
11
437.599538943615
21
2566.94509282858
31
0.00105591450238757
  0
LINE
 8
GROUP0
10
402.099538943615
20
2562.94509282858
30
0.00105591450238757
11
437.599538943615
21
2562.94509282858
31
0.00105591450238757
  0
LINE
 8
GROUP0
10
87.0995389436152
20
2620.94509282858
30
0.00105591450238757
11
86.5995389436151
21
2620.94509282858
31
0.00105591450238757
  0
LINE
 8
GROUP0
10
87.0995389436152
20
2616.94509282858
30
0.00105591450238757
11
86.5995389436151
21
2616.94509282858
31
0.00105591450238757
  0
LINE
 8
GROUP0
10
87.0995389436152
20
2612.94509282858
30
0.00105591450238757
11
86.5995389436151
21
2612.94509282858
31
0.00105591450238757
  0
LINE
 8
GROUP0
10
87.0995389436152
20
2608.94509282858
30
0.00105591450238757
11
86.5995389436151
21
2608.94509282858
31
0.00105591450238757
  0
LINE
 8
GROUP0
10
87.0995389436152
20
2604.94509282858
30
0.00105591450237629
11
86.5995389436151
21
2604.94509282858
31
0.00105591450237629
  0
LINE
 8
GROUP0
10
87.0995389436152
20
2600.94509282858
30
0.00105591450237629
11
86.5995389436151
21
2600.94509282858
31
0.00105591450237629
  0
LINE
 8
GROUP0
10
87.0995389436152
20
2596.94509282858
30
0.00105591450238757
11
86.5995389436151
21
2596.94509282858
31
0.00105591450238757
  0
LINE
 8
GROUP0
10
87.0995389436152
20
2592.94509282858
30
0.00105591450238757
11
86.5995389436151
21
2592.94509282858
31
0.00105591450238757
  0
LINE
 8
GROUP0
10
87.0995389436152
20
2588.94509282858
30
0.00105591450238757
11
86.5995389436151
21
2588.94509282858
31
0.00105591450238757
  0
LINE
 8
GROUP0
10
87.0995389436152
20
2584.94509282858
30
0.00105591450238757
11
86.5995389436151
21
2584.94509282858
31
0.00105591450238757
  0
LINE
 8
GROUP0
10
87.0995389436152
20
2580.94509282858
30
0.00105591450238757
11
86.5995389436151
21
2580.94509282858
31
0.00105591450238757
  0
LINE
 8
GROUP0
10
87.0995389436152
20
2576.94509282858
30
0.00105591450238757
11
86.5995389436151
21
2576.94509282858
31
0.00105591450238757
  0
LINE
 8
GROUP0
10
87.0995389436152
20
2572.94509282858
30
0.00105591450237629
11
86.5995389436151
21
2572.94509282858
31
0.00105591450237629
  0
LINE
 8
GROUP0
10
87.0995389436152
20
2568.94509282858
30
0.00105591450238757
11
86.5995389436151
21
2568.94509282858
31
0.00105591450238757
  0
LINE
 8
GROUP0
10
87.0995389436152
20
2564.94509282858
30
0.00105591450238757
11
86.5995389436151
21
2564.94509282858
31
0.00105591450238757
  0
LINE
 8
GROUP0
10
87.0995389436152
20
2560.94509282858
30
0.00105591450238757
11
86.5995389436151
21
2560.94509282858
31
0.00105591450238757
  0
LINE
 8
GROUP0
10
434.099538943615
20
2620.94509282858
30
0.00105591450238757
11
434.599538943615
21
2620.94509282858
31
0.00105591450238757
  0
LINE
 8
GROUP0
10
434.099538943615
20
2616.94509282858
30
0.00105591450238757
11
434.599538943615
21
2616.94509282858
31
0.00105591450238757
  0
LINE
 8
GROUP0
10
434.099538943615
20
2612.94509282858
30
0.00105591450238757
11
434.599538943615
21
2612.94509282858
31
0.00105591450238757
  0
LINE
 8
GROUP0
10
434.099538943615
20
2608.94509282858
30
0.00105591450238757
11
434.599538943615
21
2608.94509282858
31
0.00105591450238757
  0
LINE
 8
GROUP0
10
434.099538943615
20
2604.94509282858
30
0.00105591450237629
11
434.599538943615
21
2604.94509282858
31
0.00105591450237629
  0
LINE
 8
GROUP0
10
434.099538943615
20
2600.94509282858
30
0.00105591450237629
11
434.599538943615
21
2600.94509282858
31
0.00105591450237629
  0
LINE
 8
GROUP0
10
434.099538943615
20
2596.94509282858
30
0.00105591450238757
11
434.599538943615
21
2596.94509282858
31
0.00105591450238757
  0
LINE
 8
GROUP0
10
434.099538943615
20
2592.94509282858
30
0.00105591450238757
11
434.599538943615
21
2592.94509282858
31
0.00105591450238757
  0
LINE
 8
GROUP0
10
434.099538943615
20
2588.94509282858
30
0.00105591450238757
11
434.599538943615
21
2588.94509282858
31
0.00105591450238757
  0
LINE
 8
GROUP0
10
434.099538943615
20
2584.94509282858
30
0.00105591450238757
11
434.599538943615
21
2584.94509282858
31
0.00105591450238757
  0
LINE
 8
GROUP0
10
434.099538943615
20
2580.94509282858
30
0.00105591450238757
11
434.599538943615
21
2580.94509282858
31
0.00105591450238757
  0
LINE
 8
GROUP0
10
434.099538943615
20
2576.94509282858
30
0.00105591450238757
11
434.599538943615
21
2576.94509282858
31
0.00105591450238757
  0
LINE
 8
GROUP0
10
434.099538943615
20
2572.94509282858
30
0.00105591450237629
11
434.599538943615
21
2572.94509282858
31
0.00105591450237629
  0
LINE
 8
GROUP0
10
434.099538943615
20
2568.94509282858
30
0.00105591450238757
11
434.599538943615
21
2568.94509282858
31
0.00105591450238757
  0
LINE
 8
GROUP0
10
434.099538943615
20
2564.94509282858
30
0.00105591450238757
11
434.599538943615
21
2564.94509282858
31
0.00105591450238757
  0
LINE
 8
GROUP0
10
434.099538943615
20
2560.94509282858
30
0.00105591450238757
11
434.599538943615
21
2560.94509282858
31
0.00105591450238757
  0
LINE
 8
GROUP0
10
122.099538943615
20
2622.94509282858
30
0.00105591450237629
11
189.099538943615
21
2622.94509282858
31
0.00105591450237629
  0
LINE
 8
GROUP0
10
262.099538943615
20
2622.94509282858
30
0.00105591450237629
11
329.099538943615
21
2622.94509282858
31
0.00105591450237629
  0
LINE
 8
GROUP0
10
119.099538943615
20
2622.94509282858
30
0.00105591450237629
11
83.5995389436152
21
2622.94509282858
31
0.00105591450237629
  0
LINE
 8
GROUP0
10
227.099538943615
20
2624.94509282858
30
0.00105591450239885
11
294.099538943615
21
2624.94509282858
31
0.00105591450239885
  0
LINE
 8
GROUP0
10
434.099538943615
20
2624.94509282858
30
0.00105591450239885
11
434.599538943615
21
2624.94509282858
31
0.00105591450239885
  0
LINE
 8
GROUP0
10
87.0995389436152
20
2624.94509282858
30
0.00105591450239885
11
86.5995389436151
21
2624.94509282858
31
0.00105591450239885
  0
LINE
 8
GROUP0
10
157.099538943615
20
2624.94509282858
30
0.00105591450239885
11
224.099538943615
21
2624.94509282858
31
0.00105591450239885
  0
LINE
 8
GROUP0
10
367.099538943615
20
2624.94509282858
30
0.00105591450239885
11
434.099538943615
21
2624.94509282858
31
0.00105591450239885
  0
LINE
 8
GROUP0
10
297.099538943615
20
2624.94509282858
30
0.00105591450239885
11
364.099538943615
21
2624.94509282858
31
0.00105591450239885
  0
LINE
 8
GROUP0
10
87.0995389436152
20
2624.94509282858
30
0.00105591450239885
11
154.099538943615
21
2624.94509282858
31
0.00105591450239885
  0
LINE
 8
GROUP0
10
192.099538943615
20
2622.94509282858
30
0.00105591450237629
11
259.099538943615
21
2622.94509282858
31
0.00105591450237629
  0
LINE
 8
GROUP0
10
332.099538943615
20
2622.94509282858
30
0.00105591450237629
11
399.099538943615
21
2622.94509282858
31
0.00105591450237629
  0
LINE
 8
GROUP0
10
402.099538943615
20
2622.94509282858
30
0.00105591450237629
11
437.599538943615
21
2622.94509282858
31
0.00105591450237629
  0
LINE
 8
GROUP0
10
227.099538943615
20
2628.94509282858
30
0.00105591450239885
11
294.099538943615
21
2628.94509282858
31
0.00105591450239885
  0
LINE
 8
GROUP0
10
157.099538943615
20
2628.94509282858
30
0.00105591450239885
11
224.099538943615
21
2628.94509282858
31
0.00105591450239885
  0
LINE
 8
GROUP0
10
122.099538943615
20
2626.94509282858
30
0.00105591450237629
11
189.099538943615
21
2626.94509282858
31
0.00105591450237629
  0
LINE
 8
GROUP0
10
119.099538943615
20
2626.94509282858
30
0.00105591450237629
11
83.5995389436152
21
2626.94509282858
31
0.00105591450237629
  0
LINE
 8
GROUP0
10
87.0995389436152
20
2628.94509282858
30
0.00105591450239885
11
86.5995389436151
21
2628.94509282858
31
0.00105591450239885
  0
LINE
 8
GROUP0
10
434.099538943615
20
2628.94509282858
30
0.00105591450239885
11
434.599538943615
21
2628.94509282858
31
0.00105591450239885
  0
LINE
 8
GROUP0
10
297.099538943615
20
2628.94509282858
30
0.00105591450239885
11
364.099538943615
21
2628.94509282858
31
0.00105591450239885
  0
LINE
 8
GROUP0
10
367.099538943615
20
2628.94509282858
30
0.00105591450239885
11
434.099538943615
21
2628.94509282858
31
0.00105591450239885
  0
LINE
 8
GROUP0
10
262.099538943615
20
2626.94509282858
30
0.00105591450237629
11
329.099538943615
21
2626.94509282858
31
0.00105591450237629
  0
LINE
 8
GROUP0
10
192.099538943615
20
2626.94509282858
30
0.00105591450237629
11
259.099538943615
21
2626.94509282858
31
0.00105591450237629
  0
LINE
 8
GROUP0
10
332.099538943615
20
2626.94509282858
30
0.00105591450237629
11
399.099538943615
21
2626.94509282858
31
0.00105591450237629
  0
LINE
 8
GROUP0
10
87.0995389436152
20
2628.94509282858
30
0.00105591450239885
11
154.099538943615
21
2628.94509282858
31
0.00105591450239885
  0
LINE
 8
GROUP0
10
402.099538943615
20
2626.94509282858
30
0.00105591450237629
11
437.599538943615
21
2626.94509282858
31
0.00105591450237629
  0
LINE
 8
GROUP0
10
437.599464522406
20
2530.94902139907
30
0.000744603454938086
11
401.599539910116
21
2530.94856234049
31
0.000733028675108371
  0
LINE
 8
GROUP0
10
437.599198862454
20
2768.94449288347
30
0.000120768168467622
11
437.599464522406
21
2530.94902139907
31
0.000744603454938086
  0
LINE
 8
GROUP0
10
437.599198862454
20
2768.94449288347
30
0.000120768168467622
11
400.599489816528
21
2768.94454143141
31
0.000116439311205552
  0
LINE
 8
GROUP0
10
389.599508500376
20
2780.94466032588
30
0.000114762008222852
11
400.599489816528
21
2768.94454143141
31
0.000116439311205552
  0
LINE
 8
GROUP0
10
389.599524887387
20
2809.9445414314
30
0.000107973989575705
11
389.599508500376
21
2780.94466032588
31
0.000114762008222852
  0
LINE
 8
GROUP0
10
389.599524887387
20
2809.9445414314
30
0.000107973989575705
11
131.599448072867
21
2809.94413819698
31
7.99186104897598e-005
  0
LINE
 8
GROUP0
10
131.599448072867
20
2809.94413819698
30
7.99186104897598e-005
11
131.599705866876
21
2780.94347250978
31
9.0513343298676e-005
  0
LINE
 8
GROUP0
10
131.599705866876
20
2780.94347250978
30
9.0513343298676e-005
11
120.599988591021
21
2768.94521481217
31
8.71007317063022e-005
  0
LINE
 8
GROUP0
10
83.5998519811583
20
2768.94449657882
30
8.26097120460556e-005
11
120.599988591021
21
2768.94521481217
31
8.71007317063022e-005
  0
LINE
 8
GROUP0
10
83.5995413322281
20
2530.9445394373
30
0.000744366095922094
11
83.5998519811583
21
2768.94449657882
31
8.26097120460556e-005
  0
LINE
 8
GROUP0
10
83.5995413322281
20
2530.9445394373
30
0.000744366095922094
11
119.599548327139
21
2530.94499787987
31
0.000749506155503526
  0
LINE
 8
GROUP0
10
130.599687754937
20
2519.94513717635
30
0.000889372560675011
11
119.599548327139
21
2530.94499787987
31
0.000749506155503526
  0
LINE
 8
GROUP0
10
130.600093182712
20
2487.94511884
30
0.00105773033588885
11
130.599687754937
21
2519.94513717635
31
0.000889372560675011
  0
LINE
 8
GROUP0
10
390.600084192546
20
2487.94840920923
30
0.00128737818340984
11
130.600093182712
21
2487.94511884
31
0.00105773033588885
  0
LINE
 8
GROUP0
10
390.599678483391
20
2519.94842304771
30
0.00087402590936525
11
390.600084192546
21
2487.94840920923
31
0.00128737818340984
  0
LINE
 8
GROUP0
10
401.599539910116
20
2530.94856234049
30
0.000733028675108371
11
390.599678483391
21
2519.94842304771
31
0.00087402590936525
  0
LINE
 8
GROUP0
10
261.117571015752
20
2499.87862223692
30
0.00107556957318605
11
261.59993545821
21
2499.67882750773
31
0.00107813149859542
  0
LINE
 8
GROUP0
10
261.59993545821
20
2499.67882750773
30
0.00107813149859542
11
262.014153049834
21
2499.36099551447
31
0.00108218055382419
  0
LINE
 8
GROUP0
10
262.014153049834
20
2499.36099551447
30
0.00108218055382419
11
262.331995546283
21
2498.94678598224
31
0.0010874408024385
  0
LINE
 8
GROUP0
10
262.331995546283
20
2498.94678598224
30
0.0010874408024385
11
262.531802506682
21
2498.46442660615
31
0.00109355376725636
  0
LINE
 8
GROUP0
10
262.531802506682
20
2498.46442660615
30
0.00109355376725636
11
262.599957416877
21
2497.94678938054
31
0.00110010285974825
  0
LINE
 8
GROUP0
10
262.599957416877
20
2497.94678938054
30
0.00110010285974825
11
262.53181563237
21
2497.4291504269
31
0.00110664177014204
  0
LINE
 8
GROUP0
10
262.53181563237
20
2497.4291504269
30
0.00110664177014204
11
262.332020903165
21
2496.94678598448
31
0.00111272488242389
  0
LINE
 8
GROUP0
10
262.332020903165
20
2496.94678598448
30
0.00111272488242389
11
262.014188909882
21
2496.53256839289
31
0.00111793764263203
  0
LINE
 8
GROUP0
10
262.014188909882
20
2496.53256839289
30
0.00111793764263203
11
261.599979377618
21
2496.21472589646
31
0.00112192480972582
  0
LINE
 8
GROUP0
10
261.599979377618
20
2496.21472589646
30
0.00112192480972582
11
261.117620001487
21
2496.01491893608
31
0.00112441466486828
  0
LINE
 8
GROUP0
10
261.117620001487
20
2496.01491893608
30
0.00112441466486828
11
260.599982775834
21
2495.94676402589
31
0.00112523752854781
  0
LINE
 8
GROUP0
10
260.599982775834
20
2495.94676402589
30
0.00112523752854781
11
260.082343822151
21
2496.01490581039
31
0.00112433732395994
  0
LINE
 8
GROUP0
10
260.082343822151
20
2496.01490581039
30
0.00112433732395994
11
259.599979379693
21
2496.21470053958
31
0.00112177539855056
  0
LINE
 8
GROUP0
10
259.599979379693
20
2496.21470053958
30
0.00112177539855056
11
259.185761788069
21
2496.53253253284
31
0.0011177263433218
  0
LINE
 8
GROUP0
10
259.185761788069
20
2496.53253253284
30
0.0011177263433218
11
258.867919291621
21
2496.94674206507
31
0.00111246609468634
  0
LINE
 8
GROUP0
10
258.867919291621
20
2496.94674206507
30
0.00111246609468634
11
258.668112331221
21
2497.42910144116
31
0.00110635312988963
  0
LINE
 8
GROUP0
10
258.668112331221
20
2497.42910144116
30
0.00110635312988963
11
258.599957421026
21
2497.94673866677
31
0.00109980403737518
  0
LINE
 8
GROUP0
10
258.599957421026
20
2497.94673866677
30
0.00109980403737518
11
258.668099205533
21
2498.46437762041
31
0.00109326512702651
  0
LINE
 8
GROUP0
10
258.668099205533
20
2498.46437762041
30
0.00109326512702651
11
258.867893934738
21
2498.94674206283
31
0.00108718201471223
  0
LINE
 8
GROUP0
10
258.867893934738
20
2498.94674206283
30
0.00108718201471223
11
259.185725928022
21
2499.36095965442
31
0.00108196925451396
  0
LINE
 8
GROUP0
10
259.185725928022
20
2499.36095965442
30
0.00108196925451396
11
259.599935460284
21
2499.67880215085
31
0.00107798208742017
  0
LINE
 8
GROUP0
10
259.599935460284
20
2499.67880215085
30
0.00107798208742017
11
260.082294836416
21
2499.87860911123
31
0.00107549223225514
  0
LINE
 8
GROUP0
10
260.082294836416
20
2499.87860911123
30
0.00107549223225514
11
260.599932062069
21
2499.94676402142
31
0.00107466936859818
  0
LINE
 8
GROUP0
10
260.599932062069
20
2499.94676402142
30
0.00107466936859818
11
261.117571015752
21
2499.87862223692
31
0.00107556957318605
  0
LINE
 8
GROUP0
10
97.5992903958465
20
2549.94471771652
30
0.000471189783269155
11
98.1169293859849
21
2549.87657620563
31
0.000472089984405383
  0
LINE
 8
GROUP0
10
98.1169293859849
20
2549.87657620563
30
0.000472089984405383
11
98.5992939344706
21
2549.67678173129
31
0.000474651906588719
  0
LINE
 8
GROUP0
10
98.5992939344706
20
2549.67678173129
30
0.000474651906588719
11
99.0135116944697
21
2549.35894995675
31
0.000478700959065192
  0
LINE
 8
GROUP0
10
99.0135116944697
20
2549.35894995675
30
0.000478700959065192
11
99.331354410165
21
2548.94474059221
31
0.000483961205592026
  0
LINE
 8
GROUP0
10
99.331354410165
20
2548.94474059221
30
0.000483961205592026
11
99.531161625742
21
2548.46238132135
31
0.000490074169068289
  0
LINE
 8
GROUP0
10
99.531161625742
20
2548.46238132135
30
0.000490074169068289
11
99.5993168096565
21
2547.94474413134
31
0.00049662326114282
  0
LINE
 8
GROUP0
10
99.5993168096565
20
2547.94474413134
30
0.00049662326114282
11
99.5311752987566
21
2547.42710514125
31
0.000503162171988508
  0
LINE
 8
GROUP0
10
99.5311752987566
20
2547.42710514125
30
0.000503162171988508
11
99.3313808244003
21
2546.9447405928
31
0.000509245285657078
  0
LINE
 8
GROUP0
10
99.3313808244003
20
2546.9447405928
30
0.000509245285657078
11
99.0135490498393
21
2546.53052283283
31
0.000514458047997818
  0
LINE
 8
GROUP0
10
99.0135490498393
20
2546.53052283283
30
0.000514458047997818
11
98.5993396852678
21
2546.21268011716
31
0.000518445217877028
  0
LINE
 8
GROUP0
10
98.5993396852678
20
2546.21268011716
30
0.000518445217877028
11
98.1169804143691
21
2546.0128729016
31
0.000520935076246243
  0
LINE
 8
GROUP0
10
98.1169804143691
20
2546.0128729016
30
0.000520935076246243
11
97.5993432243171
21
2545.94471771769
31
0.000521757943389389
  0
LINE
 8
GROUP0
10
97.5993432243171
20
2545.94471771769
30
0.000521757943389389
11
97.0817042341787
21
2546.01285922859
31
0.000520857742252456
  0
LINE
 8
GROUP0
10
97.0817042341787
20
2546.01285922859
30
0.000520857742252456
11
96.5993396856931
21
2546.21265370293
31
0.000518295820068415
  0
LINE
 8
GROUP0
10
96.5993396856931
20
2546.21265370293
30
0.000518295820068415
11
96.1851219256943
21
2546.53048547746
31
0.000514246767593352
  0
LINE
 8
GROUP0
10
96.1851219256943
20
2546.53048547746
30
0.000514246767593352
11
95.8672792099991
21
2546.944694842
31
0.000508986521043253
  0
LINE
 8
GROUP0
10
95.8672792099991
20
2546.944694842
30
0.000508986521043253
11
95.6674719944216
21
2547.42705411286
31
0.000502873557566991
  0
LINE
 8
GROUP0
10
95.6674719944216
20
2547.42705411286
30
0.000502873557566991
11
95.5993168105071
21
2547.94469130287
31
0.000496324465514314
  0
LINE
 8
GROUP0
10
95.5993168105071
20
2547.94469130287
30
0.000496324465514314
11
95.6674583214071
21
2548.46233029297
31
0.000489785554669331
  0
LINE
 8
GROUP0
10
95.6674583214071
20
2548.46233029297
30
0.000489785554669331
11
95.8672527957638
21
2548.94469484141
31
0.000483702441000761
  0
LINE
 8
GROUP0
10
95.8672527957638
20
2548.94469484141
30
0.000483702441000761
11
96.1850845703247
21
2549.35891260138
31
0.000478489678682581
  0
LINE
 8
GROUP0
10
96.1850845703247
20
2549.35891260138
30
0.000478489678682581
11
96.5992939348955
21
2549.67675531705
31
0.000474502508780106
  0
LINE
 8
GROUP0
10
96.5992939348955
20
2549.67675531705
30
0.000474502508780106
11
97.0816532057946
21
2549.87656253261
31
0.000472012650411596
  0
LINE
 8
GROUP0
10
97.0816532057946
20
2549.87656253261
30
0.000472012650411596
11
97.5992903958465
21
2549.94471771652
31
0.000471189783269155
  0
LINE
 8
GROUP0
10
424.599193119038
20
2549.68093446238
30
0.00049797171686432
11
425.013411286333
21
2549.36310321875
31
0.000502020762652539
  0
LINE
 8
GROUP0
10
425.013411286333
20
2549.36310321875
30
0.000502020762652539
11
425.331254532854
21
2548.94889426161
31
0.000507281004090743
  0
LINE
 8
GROUP0
10
425.331254532854
20
2548.94889426161
30
0.000507281004090743
11
425.531062366612
21
2548.46653524687
31
0.000513393964352243
  0
LINE
 8
GROUP0
10
425.531062366612
20
2548.46653524687
30
0.000513393964352243
11
425.599218213933
21
2547.94889814427
31
0.000519943055355893
  0
LINE
 8
GROUP0
10
425.599218213933
20
2547.94889814427
30
0.000519943055355893
11
425.531077366456
21
2547.43125906689
31
0.000526481967373982
  0
LINE
 8
GROUP0
10
425.531077366456
20
2547.43125906689
30
0.000526481967373982
11
425.331283510328
21
2546.94889426243
31
0.000532565084324993
  0
LINE
 8
GROUP0
10
425.331283510328
20
2546.94889426243
30
0.000532565084324993
11
425.013452266669
21
2546.53467609517
31
0.000537777851843191
  0
LINE
 8
GROUP0
10
425.013452266669
20
2546.53467609517
30
0.000537777851843191
11
424.599243309494
21
2546.21683284868
31
0.000541765028457186
  0
LINE
 8
GROUP0
10
424.599243309494
20
2546.21683284868
30
0.000541765028457186
11
424.116884294722
21
2546.01702501493
31
0.000544254894676482
  0
LINE
 8
GROUP0
10
424.116884294722
20
2546.01702501493
30
0.000544254894676482
11
423.599247192072
21
2545.94886916762
31
0.000545077770211144
  0
LINE
 8
GROUP0
10
423.599247192072
20
2545.94886916762
30
0.000545077770211144
11
423.081608114656
21
2546.01701001509
31
0.000544177577444577
  0
LINE
 8
GROUP0
10
423.081608114656
20
2546.01701001509
30
0.000544177577444577
11
422.599243310161
21
2546.2168038712
31
0.000541615663078188
  0
LINE
 8
GROUP0
10
422.599243310161
20
2546.2168038712
30
0.000541615663078188
11
422.185025142866
21
2546.53463511483
31
0.000537566617279395
  0
LINE
 8
GROUP0
10
422.185025142866
20
2546.53463511483
30
0.000537566617279395
11
421.867181896344
21
2546.94884407198
31
0.000532306375839781
  0
LINE
 8
GROUP0
10
421.867181896344
20
2546.94884407198
30
0.000532306375839781
11
421.667374062587
21
2547.43120308671
31
0.00052619341557828
  0
LINE
 8
GROUP0
10
421.667374062587
20
2547.43120308671
30
0.00052619341557828
11
421.599218215266
21
2547.94884018932
31
0.000519644324575336
  0
LINE
 8
GROUP0
10
421.599218215266
20
2547.94884018932
30
0.000519644324575336
11
421.667359062743
21
2548.46647926669
31
0.000513105412567821
  0
LINE
 8
GROUP0
10
421.667359062743
20
2548.46647926669
30
0.000513105412567821
11
421.867152918871
21
2548.94884407115
31
0.00050702229561681
  0
LINE
 8
GROUP0
10
421.867152918871
20
2548.94884407115
30
0.00050702229561681
11
422.18498416253
21
2549.36306223841
31
0.000501809528088742
  0
LINE
 8
GROUP0
10
422.18498416253
20
2549.36306223841
30
0.000501809528088742
11
422.599193119705
21
2549.68090548491
31
0.000497822351485322
  0
LINE
 8
GROUP0
10
422.599193119705
20
2549.68090548491
30
0.000497822351485322
11
423.081552134478
21
2549.88071331865
31
0.000495332485254041
  0
LINE
 8
GROUP0
10
423.081552134478
20
2549.88071331865
30
0.000495332485254041
11
423.599189237126
21
2549.94886916597
31
0.000494509609743349
  0
LINE
 8
GROUP0
10
423.599189237126
20
2549.94886916597
30
0.000494509609743349
11
424.116828314543
21
2549.88072831849
31
0.000495409802497226
  0
LINE
 8
GROUP0
10
424.116828314543
20
2549.88072831849
30
0.000495409802497226
11
424.599193119038
21
2549.68093446238
31
0.00049797171686432
  0
LINE
 8
GROUP0
10
341.117248942207
20
2801.87596228385
30
0.000185629839413975
11
340.599610863701
21
2801.94411072011
31
0.000185433971955085
  0
LINE
 8
GROUP0
10
341.599610817708
20
2801.67616135605
30
0.000185773488376173
11
341.117248942207
21
2801.87596228385
31
0.000185629839413975
  0
LINE
 8
GROUP0
10
342.013824325526
20
2801.35832403976
30
0.000185855122326761
11
341.599610817708
21
2801.67616135605
31
0.000185773488376173
  0
LINE
 8
GROUP0
10
342.331661499628
20
2800.94411042283
30
0.000185869183274656
11
342.013824325526
21
2801.35832403976
31
0.000185855122326761
  0
LINE
 8
GROUP0
10
342.531462261846
20
2800.46174847875
30
0.000185814701966358
11
342.331661499628
21
2800.94411042283
31
0.000185869183274656
  0
LINE
 8
GROUP0
10
342.599610520426
20
2799.94411037684
30
0.000185695400225355
11
342.531462261846
21
2800.46174847875
31
0.000185814701966358
  0
LINE
 8
GROUP0
10
342.531462084163
20
2799.42647229834
30
0.000185519409217028
11
342.599610520426
21
2799.94411037684
31
0.000185695400225355
  0
LINE
 8
GROUP0
10
342.331661156362
20
2798.94411042283
30
0.000185298718544225
11
342.531462084163
21
2799.42647229834
31
0.000185519409217028
  0
LINE
 8
GROUP0
10
342.013823840068
20
2798.52989691501
30
0.000185048367612006
11
342.331661156362
21
2798.94411042283
31
0.000185298718544225
  0
LINE
 8
GROUP0
10
341.599610223148
20
2798.21205974091
30
0.000184785419796452
11
342.013823840068
21
2798.52989691501
31
0.000185048367612006
  0
LINE
 8
GROUP0
10
341.117248279067
20
2798.01225897869
30
0.000184527792310846
11
341.599610223148
21
2798.21205974091
31
0.000184785419796452
  0
LINE
 8
GROUP0
10
340.599610177162
20
2797.94411072011
30
0.000184293048541639
11
341.117248279067
21
2798.01225897869
31
0.000184527792310846
  0
LINE
 8
GROUP0
10
340.081972098652
20
2798.01225915638
30
0.000184097172780767
11
340.599610177162
21
2797.94411072011
31
0.000184293048541639
  0
LINE
 8
GROUP0
10
339.599610223147
20
2798.21206008418
30
0.00018395352887195
11
340.081972098652
21
2798.01225915638
31
0.000184097172780767
  0
LINE
 8
GROUP0
10
339.185396715327
20
2798.52989740047
30
0.000183871891221565
11
339.599610223147
21
2798.21206008418
31
0.00018395352887195
  0
LINE
 8
GROUP0
10
338.867559541224
20
2798.94411101739
30
0.000183857833613921
11
339.185396715327
21
2798.52989740047
31
0.000183871891221565
  0
LINE
 8
GROUP0
10
338.667758779004
20
2799.42647296148
30
0.000183912311581969
11
338.867559541224
21
2798.94411101739
31
0.000183857833613921
  0
LINE
 8
GROUP0
10
338.59961052043
20
2799.94411106338
30
0.000184031611969387
11
338.667758779004
21
2799.42647296148
31
0.000183912311581969
  0
LINE
 8
GROUP0
10
338.667758956695
20
2800.46174914189
30
0.000184207604331299
11
338.59961052043
21
2799.94411106338
31
0.000184031611969387
  0
LINE
 8
GROUP0
10
338.867559884491
20
2800.94411101739
30
0.000184428295366468
11
338.667758956695
21
2800.46174914189
31
0.000184207604331299
  0
LINE
 8
GROUP0
10
339.185397200781
20
2801.35832452522
30
0.000184678643951064
11
338.867559884491
21
2800.94411101739
31
0.000184428295366468
  0
LINE
 8
GROUP0
10
339.599610817712
20
2801.67616169932
30
0.000184941592217813
11
339.185397200781
21
2801.35832452522
31
0.000184678643951064
  0
LINE
 8
GROUP0
10
340.081972761797
20
2801.87596246154
30
0.000185199219883897
11
339.599610817712
21
2801.67616169932
31
0.000184941592217813
  0
LINE
 8
GROUP0
10
340.599610863701
20
2801.94411072011
30
0.000185433971955085
11
340.081972761797
21
2801.87596246154
31
0.000185199219883897
  0
LINE
 8
GROUP0
10
181.599623910949
20
2801.6762028995
30
1.91565449153552e-006
11
181.117262035451
21
2801.8760038273
31
1.77201076319577e-006
  0
LINE
 8
GROUP0
10
182.013837418769
20
2801.35836558321
30
1.99728528376131e-006
11
181.599623910949
21
2801.6762028995
31
1.91565449153552e-006
  0
LINE
 8
GROUP0
10
182.331674592871
20
2800.94415196628
30
2.01134929977975e-006
11
182.013837418769
21
2801.35836558321
31
1.99728528376131e-006
  0
LINE
 8
GROUP0
10
182.53147535509
20
2800.4617900222
30
1.95686654765881e-006
11
182.331674592871
21
2800.94415196628
31
2.01134929977975e-006
  0
LINE
 8
GROUP0
10
182.599623613664
20
2799.94415192029
30
1.83757157457554e-006
11
182.53147535509
21
2800.4617900222
31
1.95686654765881e-006
  0
LINE
 8
GROUP0
10
182.531475177408
20
2799.42651384179
30
1.66157379832832e-006
11
182.599623613664
21
2799.94415192029
31
1.83757157457554e-006
  0
LINE
 8
GROUP0
10
182.331674249601
20
2798.94415196628
30
1.44088276456955e-006
11
182.531475177408
21
2799.42651384179
31
1.66157379832832e-006
  0
LINE
 8
GROUP0
10
182.013836933312
20
2798.52993845846
30
1.19053417856341e-006
11
182.331674249601
21
2798.94415196628
31
1.44088276456955e-006
  0
LINE
 8
GROUP0
10
181.599623316386
20
2798.21210128436
30
9.27586002053005e-007
11
182.013836933312
21
2798.52993845846
31
1.19053417856341e-006
  0
LINE
 8
GROUP0
10
181.117261372297
20
2798.01230052214
30
6.69958337379262e-007
11
181.599623316386
21
2798.21210128436
31
9.27586002053005e-007
  0
LINE
 8
GROUP0
10
180.599623270395
20
2797.94415226356
30
4.35214927718697e-007
11
181.117261372297
21
2798.01230052214
31
6.69958337379262e-007
  0
LINE
 8
GROUP0
10
180.081985191887
20
2798.01230069983
30
2.3933844634505e-007
11
180.599623270395
21
2797.94415226356
31
4.35214927718697e-007
  0
LINE
 8
GROUP0
10
179.599623316388
20
2798.21210162763
30
9.56900241710912e-008
11
180.081985191887
21
2798.01230069983
31
2.3933844634505e-007
  0
LINE
 8
GROUP0
10
179.185409808564
20
2798.52993894392
30
1.40605855292186e-008
11
179.599623316388
21
2798.21210162763
31
9.56900241710912e-008
  0
LINE
 8
GROUP0
10
178.867572634464
20
2798.94415256084
30
0.0
11
179.185409808564
21
2798.52993894392
31
1.40605855292186e-008
  0
LINE
 8
GROUP0
10
178.667771872246
20
2799.42651450493
30
5.44776973310235e-008
11
178.867572634464
21
2798.94415256084
31
0.0
  0
LINE
 8
GROUP0
10
178.599623613668
20
2799.94415260683
30
1.73777994511015e-007
11
178.667771872246
21
2799.42651450493
31
5.44776973310235e-008
  0
LINE
 8
GROUP0
10
178.667772049923
20
2800.46179068534
30
3.49770627139367e-007
11
178.599623613668
21
2799.94415260683
31
1.73777994511015e-007
  0
LINE
 8
GROUP0
10
178.867572977729
20
2800.94415256084
30
5.70461662308119e-007
11
178.667772049923
21
2800.46179068534
31
3.49770627139367e-007
  0
LINE
 8
GROUP0
10
179.185410294024
20
2801.35836606867
30
8.20815119806362e-007
11
178.867572977729
21
2800.94415256084
31
5.70461662308119e-007
  0
LINE
 8
GROUP0
10
179.599623910946
20
2801.67620324277
30
1.08376338655569e-006
11
179.185410294024
21
2801.35836606867
31
8.20815119806362e-007
  0
LINE
 8
GROUP0
10
180.081985855034
20
2801.87600400498
30
1.34138762356018e-006
11
179.599623910946
21
2801.67620324277
31
1.08376338655569e-006
  0
LINE
 8
GROUP0
10
180.599623956933
20
2801.94415226356
30
1.57613798020817e-006
11
180.081985855034
21
2801.87600400498
31
1.34138762356018e-006
  0
LINE
 8
GROUP0
10
181.117262035451
20
2801.8760038273
30
1.77201076319577e-006
11
180.599623956933
21
2801.94415226356
31
1.57613798020817e-006
  0
LINE
 8
GROUP0
10
248.077914158491
20
2768.55138480361
30
8.58217181324838e-005
11
248.50457583113
21
2765.31056331769
31
8.51708141175744e-005
  0
LINE
 8
GROUP0
10
248.504576952133
20
2771.79220614194
30
8.67730911757347e-005
11
248.077914158491
21
2768.55138480361
31
8.58217181324838e-005
  0
LINE
 8
GROUP0
10
249.755487847765
20
2774.8121707142
30
8.79600988720031e-005
11
248.504576952133
21
2771.79220614194
31
8.67730911757347e-005
  0
LINE
 8
GROUP0
10
251.545036883507
20
2777.14435558836
30
8.91667487719738e-005
11
249.755487847765
21
2774.8121707142
31
8.79600988720031e-005
  0
LINE
 8
GROUP0
10
260.599486480127
20
2788.94433981417
30
9.52719465639074e-005
11
251.545036883507
21
2777.14435558836
31
8.91667487719738e-005
  0
LINE
 8
GROUP0
10
269.653938623107
20
2777.14435321956
30
9.55431796701101e-005
11
260.599486480127
21
2788.94433981417
31
9.52719465639074e-005
  0
LINE
 8
GROUP0
10
271.443487437728
20
2774.81216696325
30
9.5596786496227e-005
11
269.653938623107
21
2777.14435321956
31
9.55431796701101e-005
  0
LINE
 8
GROUP0
10
272.694397288749
20
2771.7922019583
30
9.52907094717459e-005
11
271.443487437728
21
2774.81216696325
31
9.5596786496227e-005
  0
LINE
 8
GROUP0
10
273.121058961389
20
2768.55138047238
30
9.46398054589514e-005
11
272.694397288749
21
2771.7922019583
31
9.52907094717459e-005
  0
LINE
 8
GROUP0
10
272.694396167746
20
2765.31055913405
30
9.36884324135856e-005
11
273.121058961389
21
2768.55138047238
31
9.46398054589514e-005
  0
LINE
 8
GROUP0
10
271.443485272115
20
2762.2905945618
30
9.25014247173173e-005
11
272.694396167746
21
2765.31055913405
31
9.36884324135856e-005
  0
LINE
 8
GROUP0
10
269.453573784803
20
2759.69729235049
30
9.1159675235658e-005
11
271.443485272115
21
2762.2905945618
31
9.25014247173173e-005
  0
LINE
 8
GROUP0
10
266.860270885189
20
2757.70738176021
30
8.97546216877709e-005
11
269.453573784803
21
2759.69729235049
31
9.1159675235658e-005
  0
LINE
 8
GROUP0
10
263.840305880244
20
2756.45647190919
30
8.83820163669169e-005
11
266.860270885189
21
2757.70738176021
31
8.97546216877709e-005
  0
LINE
 8
GROUP0
10
260.599484394328
20
2756.02981023655
30
8.71354000153979e-005
11
263.840305880244
21
2756.45647190919
31
8.83820163669169e-005
  0
LINE
 8
GROUP0
10
257.358663055994
20
2756.45647303019
30
8.6099727456701e-005
11
260.599484394328
21
2756.02981023655
31
8.71354000153979e-005
  0
LINE
 8
GROUP0
10
254.33869848374
20
2757.70738392582
30
8.5345578035817e-005
11
257.358663055994
21
2756.45647303019
31
8.6099727456701e-005
  0
LINE
 8
GROUP0
10
251.745396272438
20
2759.69729541313
30
8.49243458611426e-005
11
254.33869848374
21
2757.70738392582
31
8.5345578035817e-005
  0
LINE
 8
GROUP0
10
249.755485682153
20
2762.29059831275
30
8.48647370930933e-005
11
251.745396272438
21
2759.69729541313
31
8.49243458611426e-005
  0
LINE
 8
GROUP0
10
248.50457583113
20
2765.31056331769
30
8.51708141175744e-005
11
249.755485682153
21
2762.29059831275
31
8.48647370930933e-005
 0
ENDSEC
 0
EOF
