 0
SECTION
 2
ENTITIES
  0
LINE
 8
GROUP0
10
6175.80616871292
20
2428.10222163183
30
0.000298158530166553
11
6175.39195515054
21
2428.42005887703
31
0.000298135769743318
  0
LINE
 8
GROUP0
10
6175.07411790536
20
2274.83427243944
30
0.0003504927038463
11
6175.39195515055
21
2275.24848600181
31
0.000350623802238176
  0
LINE
 8
GROUP0
10
6175.39195515055
20
2275.24848600181
30
0.000350623802238176
11
6175.80616871292
21
2275.566323247
31
0.000350756324961282
  0
LINE
 8
GROUP0
10
6175.39195515054
20
2428.42005887703
30
0.000298135769743318
11
6175.07411790535
21
2428.8342724394
31
0.000298147715210872
  0
LINE
 8
GROUP0
10
6175.07411790535
20
2430.8342724394
30
0.000298493055252608
11
6175.39195515054
21
2431.24848600178
31
0.000298624153644483
  0
LINE
 8
GROUP0
10
6174.87431706034
20
2273.31663434924
30
0.000350193202291355
11
6174.80616871292
21
2273.83427243944
31
0.00035026980864355
  0
LINE
 8
GROUP0
10
6176.28853062271
20
2271.90242078687
30
0.000350214093688039
11
6175.80616871292
21
2272.10222163188
31
0.000350158178038334
  0
LINE
 8
GROUP0
10
6176.80616871291
20
2427.8342724394
30
0.000298299706442551
11
6176.28853062271
21
2427.90242078682
31
0.000298214445815553
  0
LINE
 8
GROUP0
10
6174.80616871292
20
2429.8342724394
30
0.000298270160049857
11
6174.87431706034
21
2430.35191052961
31
0.000298372314846484
  0
LINE
 8
GROUP0
10
6178.73802036549
20
2429.3166343492
30
0.000298917778122087
11
6178.53821952048
21
2428.8342724394
31
0.000298797037715259
  0
LINE
 8
GROUP0
10
6177.32380680312
20
2431.76612409198
30
0.000299075647152314
11
6177.80616871292
21
2431.56632324697
31
0.000299131562802019
  0
LINE
 8
GROUP0
10
6175.07411790535
20
2272.83427243944
30
0.000350147363804565
11
6174.87431706034
21
2273.31663434924
31
0.000350193202291355
  0
LINE
 8
GROUP0
10
6178.22038227529
20
2431.24848600177
30
0.000299154323225254
11
6178.53821952048
21
2430.8342724394
31
0.0002991423777577
  0
LINE
 8
GROUP0
10
6176.80616871292
20
2275.83427243943
30
0.000350990034397802
11
6177.32380680312
21
2275.76612409201
31
0.000351075295024095
  0
LINE
 8
GROUP0
10
6176.80616871291
20
2271.83427243944
30
0.000350299354314332
11
6176.28853062271
21
2271.90242078687
31
0.000350214093688039
  0
LINE
 8
GROUP0
10
6174.87431706034
20
2430.35191052961
30
0.000298372314846484
11
6175.07411790535
21
2430.8342724394
31
0.000298493055252608
  0
LINE
 8
GROUP0
10
6176.28853062272
20
2275.76612409201
30
0.000350881239459233
11
6176.80616871292
21
2275.83427243943
31
0.000350990034397802
  0
LINE
 8
GROUP0
10
6177.80616871292
20
2431.56632324697
30
0.000299131562802019
11
6178.22038227529
21
2431.24848600177
31
0.000299154323225254
  0
LINE
 8
GROUP0
10
6175.80616871292
20
2275.566323247
30
0.000350756324961282
11
6176.28853062272
21
2275.76612409201
31
0.000350881239459233
  0
LINE
 8
GROUP0
10
6174.80616871292
20
2273.83427243944
30
0.00035026980864355
11
6174.87431706035
21
2274.35191052964
31
0.000350371963440177
  0
LINE
 8
GROUP0
10
6176.28853062271
20
2431.76612409198
30
0.000298881591587452
11
6176.80616871292
21
2431.8342724394
31
0.000298990386526021
  0
LINE
 8
GROUP0
10
6175.39195515054
20
2431.24848600178
30
0.000298624153644483
11
6175.80616871292
21
2431.56632324697
31
0.000298756676366885
  0
LINE
 8
GROUP0
10
6176.80616871292
20
2431.8342724394
30
0.000298990386526021
11
6177.32380680312
21
2431.76612409198
31
0.000299075647152314
  0
LINE
 8
GROUP0
10
6175.80616871292
20
2272.10222163188
30
0.000350158178038334
11
6175.39195515055
21
2272.42005887707
31
0.000350135417615099
  0
LINE
 8
GROUP0
10
6175.80616871292
20
2431.56632324697
30
0.000298756676366885
11
6176.28853062271
21
2431.76612409198
31
0.000298881591587452
  0
LINE
 8
GROUP0
10
6176.28853062271
20
2427.90242078682
30
0.000298214445815553
11
6175.80616871292
21
2428.10222163183
31
0.000298158530166553
  0
LINE
 8
GROUP0
10
6175.39195515055
20
2272.42005887707
30
0.000350135417615099
11
6175.07411790535
21
2272.83427243944
31
0.000350147363804565
  0
LINE
 8
GROUP0
10
6178.53821952048
20
2430.8342724394
30
0.0002991423777577
11
6178.73802036549
21
2430.35191052961
31
0.000299096539270205
  0
LINE
 8
GROUP0
10
6175.07411790535
20
2428.8342724394
30
0.000298147715210872
11
6174.87431706034
21
2429.3166343492
31
0.000298193553697662
  0
LINE
 8
GROUP0
10
6178.73802036549
20
2430.35191052961
30
0.000299096539270205
11
6178.80616871291
21
2429.8342724394
31
0.000299019932918715
  0
LINE
 8
GROUP0
10
6174.87431706034
20
2429.3166343492
30
0.000298193553697662
11
6174.80616871292
21
2429.8342724394
31
0.000298270160049857
  0
LINE
 8
GROUP0
10
6174.87431706035
20
2274.35191052964
30
0.000350371963440177
11
6175.07411790536
21
2274.83427243944
31
0.0003504927038463
  0
LINE
 8
GROUP0
10
6175.39195515105
20
2150.91972128894
30
0.000343469022740561
11
6175.07411790599
21
2151.33393485116
31
0.000343480968930732
  0
LINE
 8
GROUP0
10
5503.80615053492
20
2154.06540512247
30
0.000605780614658552
11
5503.39193697497
21
2153.74756787411
31
0.0006059326492028
  0
LINE
 8
GROUP0
10
5503.80615056134
20
2150.60130350734
30
0.000603957516885539
11
5504.28851247265
21
2150.40150266601
31
0.000603480524021843
  0
LINE
 8
GROUP0
10
6177.80616871291
20
2272.10222163187
30
0.000350533063750852
11
6177.32380680312
21
2271.90242078686
31
0.000350408149252901
  0
LINE
 8
GROUP0
10
5502.8742988995
20
2151.81571621759
30
0.000605314981792249
11
5503.07409974819
21
2151.33335430933
31
0.000604907101840213
  0
LINE
 8
GROUP0
10
5558.89199230866
20
2083.41925730529
30
0.000560653498700708
11
5559.30620646823
21
2083.10142083838
31
0.000560166919575977
  0
LINE
 8
GROUP0
10
5502.80615054813
20
2152.33335430728
30
0.000605639940110991
11
5502.8742988995
21
2151.81571621759
31
0.000605314981792249
  0
LINE
 8
GROUP0
10
5503.39193699654
20
2150.91914074938
30
0.000604444095288359
11
5503.80615056134
21
2150.60130350734
31
0.000603957516885539
  0
LINE
 8
GROUP0
10
6178.80616871291
20
2429.8342724394
30
0.000299019932918715
11
6178.73802036549
21
2429.3166343492
31
0.000298917778122087
  0
LINE
 8
GROUP0
10
5503.39193697497
20
2153.74756787411
30
0.0006059326492028
11
5503.07409973293
21
2153.33335430932
31
0.000605959668181499
  0
LINE
 8
GROUP0
10
6178.22038227529
20
2275.2484860018
30
0.000351153971097035
11
6178.53821952048
21
2274.83427243943
31
0.000351142024907569
  0
LINE
 8
GROUP0
10
5505.32378865306
20
2150.40150267391
30
0.000602682456723547
11
5505.80615056133
21
2150.6013035226
31
0.000602415768206943
  0
LINE
 8
GROUP0
10
6177.80616871292
20
2275.566323247
30
0.0003511312106738
11
6178.22038227529
21
2275.2484860018
31
0.000351153971097035
  0
LINE
 8
GROUP0
10
6178.53821952048
20
2272.83427243944
30
0.000350796684865834
11
6178.22038227528
21
2272.42005887707
31
0.000350665586473958
  0
LINE
 8
GROUP0
10
5558.37435253384
20
2084.31583180484
30
0.000561524385926509
11
5558.57415428518
21
2083.83347027046
31
0.000561116504530651
  0
LINE
 8
GROUP0
10
5503.07409973293
20
2153.33335430932
30
0.000605959668181499
11
5502.8742988916
21
2152.850992398
31
0.000605859830719824
  0
LINE
 8
GROUP0
10
5504.28851247265
20
2150.40150266601
30
0.000603480524021843
11
5504.80615056338
21
2150.33335432254
31
0.000603045625091109
  0
LINE
 8
GROUP0
10
6178.53821952048
20
2274.83427243943
30
0.000351142024907569
11
6178.73802036549
21
2274.35191052964
31
0.00035109618642078
  0
LINE
 8
GROUP0
10
6177.32380680312
20
2271.90242078686
30
0.000350408149252901
11
6176.80616871291
21
2271.83427243944
31
0.000350299354314332
  0
LINE
 8
GROUP0
10
6178.80616871291
20
2273.83427243943
30
0.000351019580068584
11
6178.73802036549
21
2273.31663434923
31
0.000350917425271957
  0
LINE
 8
GROUP0
10
5505.80615053491
20
2154.06540513772
30
0.000604238865979956
11
5505.32378862359
21
2154.26520597905
31
0.000604715858843652
  0
LINE
 8
GROUP0
10
5504.80615056338
20
2150.33335432254
30
0.000603045625091109
11
5505.32378865306
21
2150.40150267391
31
0.000602682456723547
  0
LINE
 8
GROUP0
10
5504.80615053287
20
2154.33335432253
30
0.000605150757773681
11
5504.28851244319
21
2154.26520597116
31
0.000605513926141948
  0
LINE
 8
GROUP0
10
6178.22038227528
20
2272.42005887707
30
0.000350665586473958
11
6177.80616871291
21
2272.10222163187
31
0.000350533063750852
  0
LINE
 8
GROUP0
10
5502.8742988916
20
2152.850992398
30
0.000605859830719824
11
5502.80615054813
21
2152.33335430728
31
0.000605639940110991
  0
LINE
 8
GROUP0
10
6177.32380680312
20
2275.76612409201
30
0.000351075295024095
11
6177.80616871292
21
2275.566323247
31
0.0003511312106738
  0
LINE
 8
GROUP0
10
6178.73802036549
20
2273.31663434923
30
0.000350917425271957
11
6178.53821952048
21
2272.83427243944
31
0.000350796684865834
  0
LINE
 8
GROUP0
10
5506.2203640997
20
2153.74756789569
30
0.000603752287576431
11
5505.80615053491
21
2154.06540513772
31
0.000604238865979956
  0
LINE
 8
GROUP0
10
6178.73802036549
20
2274.35191052964
30
0.00035109618642078
11
6178.80616871291
21
2273.83427243943
31
0.000351019580068584
  0
LINE
 8
GROUP0
10
5503.07409974819
20
2151.33335430933
30
0.000604907101840213
11
5503.39193699654
21
2150.91914074938
31
0.000604444095288359
  0
LINE
 8
GROUP0
10
5505.32378862359
20
2154.26520597905
30
0.000604715858843652
11
5504.80615053287
21
2154.33335432253
31
0.000605150757773681
  0
LINE
 8
GROUP0
10
5504.28851244319
20
2154.26520597116
30
0.000605513926141948
11
5503.80615053492
21
2154.06540512247
31
0.000605780614658552
  0
LINE
 8
GROUP0
10
5560.82384493384
20
2082.90162284493
30
0.000558891860857808
11
5561.30620646822
21
2083.10142459627
31
0.000558625173063115
  0
LINE
 8
GROUP0
10
5558.8911715326
20
2620.24765481477
30
0.000532266859539482
11
5558.57333506592
21
2619.83344065549
31
0.000532293877796269
  0
LINE
 8
GROUP0
10
5559.30620646823
20
2083.10142083838
30
0.000560166919575977
11
5559.78856875343
21
2082.9016208997
31
0.000559689927434193
  0
LINE
 8
GROUP0
10
5560.30620697168
20
2082.8334735249
30
0.000559255028503458
11
5560.82384493384
21
2082.90162284493
31
0.000558891860857808
  0
LINE
 8
GROUP0
10
5559.78856875343
20
2082.9016208997
30
0.000559689927434193
11
5560.30620697168
21
2082.8334735249
31
0.000559255028503458
  0
LINE
 8
GROUP0
10
5561.72041411893
20
2086.24768974448
30
0.000559961696764072
11
5561.30619995936
21
2086.56552621139
31
0.000560448275889508
  0
LINE
 8
GROUP0
10
5561.30620646822
20
2083.10142459627
30
0.000558625173063115
11
5561.72041943339
21
2083.41926261975
31
0.000558473139240073
  0
LINE
 8
GROUP0
10
5558.37435058861
20
2085.35110798524
30
0.000562069235575996
11
5558.3062032138
21
2084.83346976699
31
0.000561849344245252
  0
LINE
 8
GROUP0
10
5562.23724037507
20
2618.31580945072
30
0.000528670763203559
11
5562.30538774981
21
2618.83344766861
31
0.000528890654535008
  0
LINE
 8
GROUP0
10
5562.23805583897
20
2084.31583906453
30
0.000558545959888784
11
5562.30620321378
21
2084.83347728278
31
0.000558765851220233
  0
LINE
 8
GROUP0
10
5562.30538774981
20
2618.83344766861
30
0.000528890654535008
11
5562.23723842981
21
2619.3510856304
31
0.000529215613574957
  0
LINE
 8
GROUP0
10
5560.82302947096
20
2616.90159323209
30
0.000529016663450671
11
5561.30539100499
21
2617.1013949833
31
0.000528749975655979
  0
LINE
 8
GROUP0
10
5561.72041943339
20
2083.41926261975
30
0.000558473139240073
11
5562.0382559003
21
2083.83347677932
31
0.000558446121705197
  0
LINE
 8
GROUP0
10
5558.37353707265
20
2618.31580219094
30
0.000531649188519373
11
5558.57333882386
21
2617.8334406569
31
0.000531241307845426
  0
LINE
 8
GROUP0
10
5559.78775329129
20
2616.90159128683
30
0.000529814730027056
11
5560.30539150917
21
2616.83344391209
31
0.000529379831096322
  0
LINE
 8
GROUP0
10
5561.30619995936
20
2086.56552621139
30
0.000560448275889508
11
5560.82383767415
21
2086.76532615007
31
0.000560925268031293
  0
LINE
 8
GROUP0
10
5558.89198699419
20
2086.24768443002
30
0.000562142056224707
11
5558.57415052728
21
2085.83347027045
31
0.000562169073759583
  0
LINE
 8
GROUP0
10
5559.78856149374
20
2086.76532420484
30
0.000561723334607678
11
5559.30619995937
21
2086.5655224535
31
0.00056199002240237
  0
LINE
 8
GROUP0
10
5558.57415052728
20
2085.83347027045
30
0.000562169073759583
11
5558.37435058861
21
2085.35110798524
31
0.000562069235575996
  0
LINE
 8
GROUP0
10
5558.3062032138
20
2084.83346976699
30
0.000561849344245252
11
5558.37435253384
21
2084.31583180484
31
0.000561524385926509
  0
LINE
 8
GROUP0
10
5562.0382559003
20
2083.83347677932
30
0.000558446121705197
11
5562.23805583897
21
2084.31583906453
31
0.000558545959888784
  0
LINE
 8
GROUP0
10
5558.57415428518
20
2083.83347027046
30
0.000561116504530651
11
5558.89199230866
21
2083.41925730529
31
0.000560653498700708
  0
LINE
 8
GROUP0
10
5559.30619995937
20
2086.5655224535
30
0.00056199002240237
11
5558.89198699419
21
2086.24768443002
31
0.000562142056224707
  0
LINE
 8
GROUP0
10
5562.30620321378
20
2084.83347728278
30
0.000558765851220233
11
5562.23805389375
21
2085.35111524494
31
0.000559090809538271
  0
LINE
 8
GROUP0
10
5560.82383767415
20
2086.76532615007
30
0.000560925268031293
11
5560.3061994559
21
2086.83347352488
31
0.000561360166961322
  0
LINE
 8
GROUP0
10
5562.0374366786
20
2619.83344716443
30
0.000529623494248904
11
5561.71959865534
21
2620.2476601293
31
0.000530086500800758
  0
LINE
 8
GROUP0
10
5562.0382521424
20
2085.83347677931
30
0.000559498690934129
11
5561.72041411893
21
2086.24768974448
31
0.000559961696764072
  0
LINE
 8
GROUP0
10
5561.30538449605
20
2620.56549659598
30
0.000530573079926194
11
5560.82302221118
21
2620.7652965345
31
0.000531050072067979
  0
LINE
 8
GROUP0
10
5562.23723842981
20
2619.3510856304
30
0.000529215613574957
11
5562.0374366786
21
2619.83344716443
31
0.000529623494248904
  0
LINE
 8
GROUP0
10
5561.30539100499
20
2617.1013949833
30
0.000528749975655979
11
5561.71960396987
21
2617.41923300656
31
0.000528597942554848
  0
LINE
 8
GROUP0
10
5560.3061994559
20
2086.83347352488
30
0.000561360166961322
11
5559.78856149374
21
2086.76532420484
31
0.000561723334607678
  0
LINE
 8
GROUP0
10
5562.23805389375
20
2085.35111524494
30
0.000559090809538271
11
5562.0382521424
21
2085.83347677931
31
0.000559498690934129
  0
LINE
 8
GROUP0
10
5494.80615349861
20
2142.33333967858
30
0.000663915529088371
11
5515.30614309654
21
2142.3333742469
31
0.000634464730419537
  0
LINE
 8
GROUP0
10
5503.07409714763
20
2552.33344051019
30
0.000652718000046748
11
5502.8742963063
21
2551.85107859887
31
0.000652618162585072
  0
LINE
 8
GROUP0
10
5504.80614797808
20
2549.3334405234
30
0.000649803956956357
11
5505.32378606776
21
2549.40158887477
31
0.000649440788588795
  0
LINE
 8
GROUP0
10
5503.80614797603
20
2549.6013897082
30
0.000650715848750788
11
5504.28850988735
21
2549.40158886687
31
0.000650238855887092
  0
LINE
 8
GROUP0
10
5558.57333882386
20
2617.8334406569
30
0.000531241307845426
11
5558.89117684713
21
2617.41922769203
31
0.000530778301293572
  0
LINE
 8
GROUP0
10
5558.89117684713
20
2617.41922769203
30
0.000530778301293572
11
5559.30539100641
21
2617.10139122536
31
0.000530291722168841
  0
LINE
 8
GROUP0
10
6072.30612466936
20
2561.33335891242
30
0.000188762238162438
11
6096.80619888949
21
2561.33333967841
31
0.0
  0
LINE
 8
GROUP0
10
5503.39193438967
20
2552.74765407498
30
0.000652690981068049
11
5503.07409714763
21
2552.33344051019
31
0.000652718000046748
  0
LINE
 8
GROUP0
10
5559.30539100641
20
2617.10139122536
30
0.000530291722168841
11
5559.78775329129
21
2616.90159128683
31
0.000529814730027056
  0
LINE
 8
GROUP0
10
5561.71960396987
20
2617.41923300656
30
0.000528597942554848
11
5562.03744043654
21
2617.83344716585
31
0.000528570924298061
  0
LINE
 8
GROUP0
10
5494.80615349861
20
2142.33333967858
30
0.000663915529088371
11
5494.80614663883
21
2561.33344178067
31
0.000654227297360394
  0
LINE
 8
GROUP0
10
5560.30539150917
20
2616.83344391209
30
0.000529379831096322
11
5560.82302947096
21
2616.90159323209
31
0.000529016663450671
  0
LINE
 8
GROUP0
10
5558.30538775265
20
2618.83344015273
30
0.000531974147560027
11
5558.37353707265
21
2618.31580219094
31
0.000531649188519373
  0
LINE
 8
GROUP0
10
5558.3735351274
20
2619.35107837061
30
0.000532194038890771
11
5558.30538775265
21
2618.83344015273
31
0.000531974147560027
  0
LINE
 8
GROUP0
10
5559.7877460315
20
2620.76529458925
30
0.000531848138644364
11
5559.30538449747
21
2620.56549283804
31
0.000532114826439056
  0
LINE
 8
GROUP0
10
5561.71959865534
20
2620.2476601293
30
0.000530086500800758
11
5561.30538449605
21
2620.56549659598
31
0.000530573079926194
  0
LINE
 8
GROUP0
10
6060.89206231253
20
2083.4197275848
30
0.000260511874968594
11
6061.30627647279
21
2083.10189111879
31
0.00026002529656507
  0
LINE
 8
GROUP0
10
6060.57422428815
20
2083.83394054927
30
0.000260974881519743
11
6060.89206231253
21
2083.4197275848
31
0.000260511874968594
  0
LINE
 8
GROUP0
10
5559.30538449747
20
2620.56549283804
30
0.000532114826439056
11
5558.8911715326
21
2620.24765481477
31
0.000532266859539482
  0
LINE
 8
GROUP0
10
5560.82302221118
20
2620.7652965345
30
0.000531050072067979
11
5560.30538399329
21
2620.83344390925
31
0.000531484970998008
  0
LINE
 8
GROUP0
10
6072.30620176963
20
2142.33392258979
30
0.000203409770330948
11
6072.30629102163
21
2074.8339656064
31
0.000216346667696937
  0
LINE
 8
GROUP0
10
5550.30616876221
20
2102.33341186954
30
0.000607368777209194
11
5550.30622487749
21
2074.83345888098
31
0.000622220665896611
  0
LINE
 8
GROUP0
10
5494.80614663883
20
2561.33344178067
30
0.000654227297360394
11
5515.30614663882
21
2561.33344193701
31
0.000641453613346854
  0
LINE
 8
GROUP0
10
5550.30614627656
20
2628.83344455843
30
0.000634428983547286
11
6072.30612156922
21
2628.83346384839
31
0.000181060510301106
  0
LINE
 8
GROUP0
10
5558.57333506592
20
2619.83344065549
30
0.000532293877796269
11
5558.3735351274
21
2619.35107837061
31
0.000532194038890771
  0
LINE
 8
GROUP0
10
5560.30538399329
20
2620.83344390925
30
0.000531484970998008
11
5559.7877460315
21
2620.76529458925
31
0.000531848138644364
  0
LINE
 8
GROUP0
10
5562.03744043654
20
2617.83344716585
30
0.000528570924298061
11
5562.23724037507
21
2618.31580945072
31
0.000528670763203559
  0
LINE
 8
GROUP0
10
6096.80614643502
20
2142.33333967858
30
0.000203052954793748
11
6072.30620176963
21
2142.33392258979
31
0.000203409770330948
  0
LINE
 8
GROUP0
10
6072.30629102163
20
2074.8339656064
30
0.000216346667696937
11
5550.30622487749
21
2074.83345888098
31
0.000622220665896611
  0
LINE
 8
GROUP0
10
6072.30612466936
20
2561.33335891242
30
0.000188762238162438
11
6072.30612156922
21
2628.83346384839
31
0.000181060510301106
  0
LINE
 8
GROUP0
10
5550.30614627656
20
2628.83344455843
30
0.000634428983547286
11
5550.3061481627
21
2601.33344455844
31
0.000617104911369415
  0
LINE
 8
GROUP0
10
5505.80614797603
20
2549.60138972345
30
0.000649174100072192
11
5506.22036153598
21
2549.91922697181
31
0.000649022065527238
  0
LINE
 8
GROUP0
10
5506.53819877802
20
2550.3334405366
30
0.000648995046548539
11
5506.73799961935
21
2550.81580244792
31
0.00064909488401092
  0
LINE
 8
GROUP0
10
5502.80614796283
20
2551.33344050814
30
0.00065239827197624
11
5502.87429631419
21
2550.81580241846
31
0.000652073313657497
  0
LINE
 8
GROUP0
10
5506.80615054811
20
2152.33335433779
30
0.000602556442754504
11
5506.73800219675
21
2152.85099242747
31
0.000602881401073246
  0
LINE
 8
GROUP0
10
5506.53820134806
20
2153.33335433574
30
0.000603289281024577
11
5506.2203640997
21
2153.74756789569
31
0.000603752287576431
  0
LINE
 8
GROUP0
10
5506.73800219675
20
2152.85099242747
30
0.000602881401073246
11
5506.53820134806
21
2153.33335433574
31
0.000603289281024577
  0
LINE
 8
GROUP0
10
5502.8742963063
20
2551.85107859887
30
0.000652618162585072
11
5502.80614796283
21
2551.33344050814
31
0.00065239827197624
  0
LINE
 8
GROUP0
10
5503.80614794962
20
2553.06549132334
30
0.000652538946523801
11
5503.39193438967
21
2552.74765407498
31
0.000652690981068049
  0
LINE
 8
GROUP0
10
5506.73800220464
20
2151.81571624706
30
0.000602336552145671
11
5506.80615054811
21
2152.33335433779
31
0.000602556442754504
  0
LINE
 8
GROUP0
10
5506.73799961935
20
2550.81580244792
30
0.00064909488401092
11
5506.80614796282
21
2551.33344053865
31
0.000649314774619752
  0
LINE
 8
GROUP0
10
5506.53819876277
20
2552.3334405366
30
0.000650047612889826
11
5506.22036151441
21
2552.74765409655
31
0.00065051061944168
  0
LINE
 8
GROUP0
10
5506.73799961145
20
2551.85107862833
30
0.000649639732938495
11
5506.53819876277
21
2552.3334405366
31
0.000650047612889826
  0
LINE
 8
GROUP0
10
5505.80614794961
20
2553.06549133859
30
0.000650997197845204
11
5505.3237860383
21
2553.26529217992
31
0.0006514741907089
  0
LINE
 8
GROUP0
10
5504.80614794757
20
2553.33344052339
30
0.00065190908963893
11
5504.28850985789
21
2553.26529217202
31
0.000652272258007197
  0
LINE
 8
GROUP0
10
5506.53820136331
20
2151.33335433575
30
0.000602236714683291
11
5506.73800220464
21
2151.81571624706
31
0.000602336552145671
  0
LINE
 8
GROUP0
10
5503.39193441124
20
2549.91922695024
30
0.000651202427153608
11
5503.80614797603
21
2549.6013897082
31
0.000650715848750788
  0
LINE
 8
GROUP0
10
5506.22036151441
20
2552.74765409655
30
0.00065051061944168
11
5505.80614794961
21
2553.06549133859
31
0.000650997197845204
  0
LINE
 8
GROUP0
10
5506.22036412128
20
2150.91914077095
30
0.00060226373366199
11
5506.53820136331
21
2151.33335433575
31
0.000602236714683291
  0
LINE
 8
GROUP0
10
5504.28850988735
20
2549.40158886687
30
0.000650238855887092
11
5504.80614797808
21
2549.3334405234
31
0.000649803956956357
  0
LINE
 8
GROUP0
10
5506.80614796282
20
2551.33344053865
30
0.000649314774619752
11
5506.73799961145
21
2551.85107862833
31
0.000649639732938495
  0
LINE
 8
GROUP0
10
5503.07409716288
20
2550.33344051019
30
0.000651665433705462
11
5503.39193441124
21
2549.91922695024
31
0.000651202427153608
  0
LINE
 8
GROUP0
10
5502.87429631419
20
2550.81580241846
30
0.000652073313657497
11
5503.07409716288
21
2550.33344051019
31
0.000651665433705462
  0
LINE
 8
GROUP0
10
5504.28850985789
20
2553.26529217202
30
0.000652272258007197
11
5503.80614794962
21
2553.06549132334
31
0.000652538946523801
  0
LINE
 8
GROUP0
10
5506.22036153598
20
2549.91922697181
30
0.000649022065527238
11
5506.53819877802
21
2550.3334405366
31
0.000648995046548539
  0
LINE
 8
GROUP0
10
5505.3237860383
20
2553.26529217992
30
0.0006514741907089
11
5504.80614794757
21
2553.33344052339
31
0.00065190908963893
  0
LINE
 8
GROUP0
10
5505.80615056133
20
2150.6013035226
30
0.000602415768206943
11
5506.22036412128
21
2150.91914077095
31
0.00060226373366199
  0
LINE
 8
GROUP0
10
5505.32378606776
20
2549.40158887477
30
0.000649440788588795
11
5505.80614797603
21
2549.60138972345
31
0.000649174100072192
  0
LINE
 8
GROUP0
10
6064.03832590327
20
2083.83394706569
30
0.000258304498694994
11
6064.23812584089
21
2084.31630935134
31
0.000258404336878582
  0
LINE
 8
GROUP0
10
6063.72048411663
20
2086.24816003016
30
0.000259820074475076
11
6063.30626995636
21
2086.56599649617
31
0.0002603066528786
  0
LINE
 8
GROUP0
10
6064.03832214101
20
2085.83394706568
30
0.000259357067923927
11
6063.72048411663
21
2086.24816003016
31
0.000259820074475076
  0
LINE
 8
GROUP0
10
6060.8920569919
20
2086.24815470953
30
0.000262000433214504
11
6060.57422052589
21
2085.83394054926
31
0.000262027450748675
  0
LINE
 8
GROUP0
10
6061.30627647279
20
2083.10189111879
30
0.00026002529656507
11
6061.78863875844
21
2082.90209118117
31
0.000259548304423285
  0
LINE
 8
GROUP0
10
6063.30626995636
20
2086.56599649617
30
0.0002603066528786
11
6062.82390767072
21
2086.76579643379
31
0.000260783645020385
  0
LINE
 8
GROUP0
10
6062.82390767072
20
2086.76579643379
30
0.000260783645020385
11
6062.30626945232
21
2086.83394380747
31
0.000261218543950414
  0
LINE
 8
GROUP0
10
6062.82391493884
20
2082.90209312866
30
0.000258750237124988
11
6063.30627647278
21
2083.10189488105
31
0.000258483550052208
  0
LINE
 8
GROUP0
10
6061.78863149032
20
2086.7657944863
30
0.000261581712318681
11
6061.30626995638
21
2086.56599273391
31
0.000261848399391462
  0
LINE
 8
GROUP0
10
6062.30626945232
20
2086.83394380747
30
0.000261218543950414
11
6061.78863149032
21
2086.7657944863
31
0.000261581712318681
  0
LINE
 8
GROUP0
10
6064.30627321457
20
2084.83394756973
30
0.000258624228209325
11
6064.2381238934
21
2085.35158553174
31
0.000258949187249979
  0
LINE
 8
GROUP0
10
6062.30627697683
20
2082.83394380749
30
0.00025911340549255
11
6062.82391493884
21
2082.90209312866
31
0.000258750237124988
  0
LINE
 8
GROUP0
10
6060.30627321459
20
2084.83394004522
30
0.000261707721234344
11
6060.37442253576
21
2084.31630208322
31
0.00026138276219369
  0
LINE
 8
GROUP0
10
6063.72048943726
20
2083.41973290543
30
0.000258331516229165
11
6064.03832590327
21
2083.83394706569
31
0.000258304498694994
  0
LINE
 8
GROUP0
10
6064.2381238934
20
2085.35158553174
30
0.000258949187249979
11
6064.03832214101
21
2085.83394706568
31
0.000259357067923927
  0
LINE
 8
GROUP0
10
6064.23812584089
20
2084.31630935134
30
0.000258404336878582
11
6064.30627321457
21
2084.83394756973
31
0.000258624228209325
  0
LINE
 8
GROUP0
10
6061.30626995638
20
2086.56599273391
30
0.000261848399391462
11
6060.8920569919
21
2086.24815470953
31
0.000262000433214504
  0
LINE
 8
GROUP0
10
6060.37442253576
20
2084.31630208322
30
0.00026138276219369
11
6060.57422428815
21
2083.83394054927
31
0.000260974881519743
  0
LINE
 8
GROUP0
10
6060.37442058827
20
2085.35157826362
30
0.000261927612565088
11
6060.30627321459
21
2084.83394004522
31
0.000261707721234344
  0
LINE
 8
GROUP0
10
6061.78863875844
20
2082.90209118117
30
0.000259548304423285
11
6062.30627697683
21
2082.83394380749
31
0.00025911340549255
  0
LINE
 8
GROUP0
10
6063.30627647278
20
2083.10189488105
30
0.000258483550052208
11
6063.72048943726
21
2083.41973290543
31
0.000258331516229165
  0
LINE
 8
GROUP0
10
6061.78781977761
20
2616.90160937718
30
0.000365411279894212
11
6062.30545787036
21
2616.8334610655
31
0.000364976380963478
  0
LINE
 8
GROUP0
10
6060.57422052589
20
2085.83394054926
30
0.000262027450748675
11
6060.37442058827
21
2085.35157826362
31
0.000261927612565088
  0
LINE
 8
GROUP0
10
6064.0375084653
20
2619.83346117183
30
0.000365220036897651
11
6063.71967119303
21
2620.24767471073
31
0.0003656830434488
  0
LINE
 8
GROUP0
10
6087.32381016684
20
2154.26579762368
30
0.000185084739099783
11
6086.8061719485
21
2154.33394499736
31
0.000185519638030518
  0
LINE
 8
GROUP0
10
6060.89124427367
20
2617.41924740384
30
0.000366374851161433
11
6061.30545785611
21
2617.10141018833
31
0.000365888272035997
  0
LINE
 8
GROUP0
10
6087.80617245243
20
2154.06599768607
30
0.000184607746958704
11
6087.32381016684
21
2154.26579762368
31
0.000185084739099783
  0
LINE
 8
GROUP0
10
6060.30545774157
20
2618.83346092027
30
0.00036757069598336
11
6060.37360612417
21
2618.31582283686
31
0.000367245737664618
  0
LINE
 8
GROUP0
10
6064.23730934253
20
2619.35109927771
30
0.000364812156945615
11
6064.0375084653
21
2619.83346117183
31
0.000365220036897651
  0
LINE
 8
GROUP0
10
6061.30545785611
20
2617.10141018833
30
0.000365888272035997
11
6061.78781977761
21
2616.90160937718
31
0.000365411279894212
  0
LINE
 8
GROUP0
10
6063.3054578479
20
2617.10141032534
30
0.000364346523357401
11
6063.7196713868
21
2617.4192475976
31
0.000364194489534359
  0
LINE
 8
GROUP0
10
6064.03750860231
20
2617.83346118005
30
0.000364167470556365
11
6064.23730941345
21
2618.31582310155
31
0.00036426730801804
  0
LINE
 8
GROUP0
10
6063.71967119303
20
2620.24767471073
30
0.0003656830434488
11
6063.30545761059
21
2620.56551192624
31
0.000366169622574236
  0
LINE
 8
GROUP0
10
6062.30545787036
20
2616.8334610655
30
0.000364976380963478
11
6062.82309595377
21
2616.9016094481
31
0.000364613211874004
  0
LINE
 8
GROUP0
10
6060.57340686439
20
2619.83346093452
30
0.000367890424053868
11
6060.37360605325
21
2619.35109901302
31
0.000367790586592193
  0
LINE
 8
GROUP0
10
6063.7196713868
20
2617.4192475976
30
0.000364194489534359
11
6064.03750860231
21
2617.83346118005
31
0.000364167470556365
  0
LINE
 8
GROUP0
10
6061.30545761881
20
2620.56551178923
30
0.000367711371252832
11
6060.89124407991
21
2620.24767451697
31
0.000367863405075874
  0
LINE
 8
GROUP0
10
6062.30545759634
20
2620.83346104907
30
0.00036708151364605
11
6061.78781951293
21
2620.76531266647
31
0.000367444682736229
  0
LINE
 8
GROUP0
10
6061.78781951293
20
2620.76531266647
30
0.000367444682736229
11
6061.30545761881
21
2620.56551178923
31
0.000367711371252832
  0
LINE
 8
GROUP0
10
6062.82309595377
20
2616.9016094481
30
0.000364613211874004
11
6063.3054578479
21
2617.10141032534
31
0.000364346523357401
  0
LINE
 8
GROUP0
10
6085.39195948821
20
2153.7481558995
30
0.000186301527293903
11
6085.07412302223
21
2153.33394173928
31
0.00018632854555069
  0
LINE
 8
GROUP0
10
6064.30545772513
20
2618.8334611943
30
0.000364487198626873
11
6064.23730934253
21
2619.35109927771
31
0.000364812156945615
  0
LINE
 8
GROUP0
10
6060.89124407991
20
2620.24767451697
30
0.000367863405075874
11
6060.57340686439
21
2619.83346093452
31
0.000367890424053868
  0
LINE
 8
GROUP0
10
6060.37360612417
20
2618.31582283686
30
0.000367245737664618
11
6060.5734070014
21
2617.83346094274
31
0.000366837857712582
  0
LINE
 8
GROUP0
10
6063.30545761059
20
2620.56551192624
30
0.000366169622574236
11
6062.82309568909
21
2620.76531273739
31
0.000366646614716021
  0
LINE
 8
GROUP0
10
6060.37360605325
20
2619.35109901302
30
0.000367790586592193
11
6060.30545774157
21
2618.83346092027
31
0.00036757069598336
  0
LINE
 8
GROUP0
10
6064.23730941345
20
2618.31582310155
30
0.00036426730801804
11
6064.30545772513
21
2618.8334611943
31
0.000364487198626873
  0
LINE
 8
GROUP0
10
6088.22038661265
20
2153.74816122009
30
0.000184121167833268
11
6087.80617245243
21
2154.06599768607
31
0.000184607746958704
  0
LINE
 8
GROUP0
10
6084.87432308462
20
2152.85157945369
30
0.000186228707367103
11
6084.80617571095
21
2152.33394123535
31
0.000186008816036359
  0
LINE
 8
GROUP0
10
6088.73802833683
20
2151.81631054146
30
0.000182705430236069
11
6088.80617571051
21
2152.33394875981
31
0.000182925321566813
  0
LINE
 8
GROUP0
10
6085.07412302223
20
2153.33394173928
30
0.00018632854555069
11
6084.87432308462
21
2152.85157945369
31
0.000186228707367103
  0
LINE
 8
GROUP0
10
6060.5734070014
20
2617.83346094274
30
0.000366837857712582
11
6060.89124427367
21
2617.41924740384
31
0.000366374851161433
  0
LINE
 8
GROUP0
10
6062.82309568909
20
2620.76531273739
30
0.000366646614716021
11
6062.30545759634
21
2620.83346104907
31
0.00036708151364605
  0
LINE
 8
GROUP0
10
6086.28854125461
20
2150.40209237147
30
0.000183849398503388
11
6086.80617947296
21
2150.3339449978
31
0.000183414499572654
  0
LINE
 8
GROUP0
10
6085.39196480881
20
2150.91972877506
30
0.000184812969769904
11
6085.80617896902
21
2150.60189230908
31
0.000184326390644468
  0
LINE
 8
GROUP0
10
6086.8061719485
20
2154.33394499736
30
0.000185519638030518
11
6086.28853398655
21
2154.26579567621
31
0.000185882806398785
  0
LINE
 8
GROUP0
10
6088.53822463699
20
2153.33394825565
30
0.000183658161281414
11
6088.22038661265
21
2153.74816122009
31
0.000184121167833268
  0
LINE
 8
GROUP0
10
6088.80617571051
20
2152.33394875981
30
0.000182925321566813
11
6088.73802638936
21
2152.85158672176
31
0.000183250280607467
  0
LINE
 8
GROUP0
10
6088.73802638936
20
2152.85158672176
30
0.000183250280607467
11
6088.53822463699
21
2153.33394825565
31
0.000183658161281414
  0
LINE
 8
GROUP0
10
6086.80617947296
20
2150.3339449978
30
0.000183414499572654
11
6087.32381743491
21
2150.40209431895
31
0.000183051331204387
  0
LINE
 8
GROUP0
10
6086.28853398655
20
2154.26579567621
30
0.000185882806398785
11
6085.80617245265
21
2154.06599392384
31
0.000186149494192772
  0
LINE
 8
GROUP0
10
6085.80617896902
20
2150.60189230908
30
0.000184326390644468
11
6086.28854125461
21
2150.40209237147
31
0.000183849398503388
  0
LINE
 8
GROUP0
10
6084.8743250321
20
2151.81630327339
30
0.000185683856995705
11
6085.07412678446
21
2151.3339417395
31
0.000185275976321758
  0
LINE
 8
GROUP0
10
6088.53827605026
20
2550.33344293545
30
0.00019758732084017
11
6088.73807689074
21
2550.81580484457
31
0.000197687158301846
  0
LINE
 8
GROUP0
10
6085.07417445073
20
2550.3334429094
30
0.000200257707997092
11
6085.3920116976
21
2549.91922935128
31
0.000199794701445238
  0
LINE
 8
GROUP0
10
6085.3920116976
20
2549.91922935128
30
0.000199794701445238
11
6085.8062252605
21
2549.60139211064
31
0.000199308122319802
  0
LINE
 8
GROUP0
10
6088.80622523396
20
2551.33344293296
30
0.000197907048910678
11
6088.73807688296
21
2551.85108102032
31
0.000198232007229421
  0
LINE
 8
GROUP0
10
6088.22039193324
20
2150.91973409566
30
0.000182632610309269
11
6088.53822839922
21
2151.33394825587
31
0.000182605592052482
  0
LINE
 8
GROUP0
10
6087.32381743491
20
2150.40209431895
30
0.000183051331204387
11
6087.8061789688
21
2150.60189607131
31
0.0001827846434104
  0
LINE
 8
GROUP0
10
6087.8061789688
20
2150.60189607131
30
0.0001827846434104
11
6088.22039193324
21
2150.91973409566
31
0.000182632610309269
  0
LINE
 8
GROUP0
10
6088.53822839922
20
2151.33394825587
30
0.000182605592052482
11
6088.73802833683
21
2151.81631054146
31
0.000182705430236069
  0
LINE
 8
GROUP0
10
6088.22043880961
20
2549.91922937255
30
0.000197614339818869
11
6088.53827605026
21
2550.33344293545
31
0.00019758732084017
  0
LINE
 8
GROUP0
10
6085.80622523446
20
2553.06549371017
30
0.000201131221536638
11
6085.39201167634
21
2552.74765646329
31
0.00020128325535968
  0
LINE
 8
GROUP0
10
6087.80622525149
20
2549.60139212567
30
0.000197766373641911
11
6088.22043880961
21
2549.91922937255
31
0.000197614339818869
  0
LINE
 8
GROUP0
10
6088.73807688296
20
2551.85108102032
30
0.000198232007229421
11
6088.53827603522
21
2552.33344292644
31
0.000198639887181457
  0
LINE
 8
GROUP0
10
6084.80617571095
20
2152.33394123535
30
0.000186008816036359
11
6084.8743250321
21
2151.81630327339
31
0.000185683856995705
  0
LINE
 8
GROUP0
10
6087.80622522545
20
2553.06549372521
30
0.000199589472858747
11
6087.32386331632
21
2553.26529456569
31
0.000200066464999826
  0
LINE
 8
GROUP0
10
6086.28858714058
20
2553.2652945579
30
0.000200864532298828
11
6085.80622523446
21
2553.06549371017
31
0.000201131221536638
  0
LINE
 8
GROUP0
10
6085.07412678446
20
2151.3339417395
30
0.000185275976321758
11
6085.39196480881
21
2150.91972877506
31
0.000184812969769904
  0
LINE
 8
GROUP0
10
6087.32386334537
20
2549.40159127794
30
0.000198033062879721
11
6087.80622525149
21
2549.60139212567
31
0.000197766373641911
  0
LINE
 8
GROUP0
10
6086.80622525801
20
2549.33344292693
30
0.000198396231247988
11
6087.32386334537
21
2549.40159127794
31
0.000198033062879721
  0
LINE
 8
GROUP0
10
6084.87437360299
20
2550.81580481552
30
0.000200665587949128
11
6085.07417445073
21
2550.3334429094
31
0.000200257707997092
  0
LINE
 8
GROUP0
10
6085.80617245265
20
2154.06599392384
30
0.000186149494192772
11
6085.39195948821
21
2153.7481558995
31
0.000186301527293903
  0
LINE
 8
GROUP0
10
6088.53827603522
20
2552.33344292644
30
0.000198639887181457
11
6088.22043878834
21
2552.74765648456
31
0.000199102893733311
  0
LINE
 8
GROUP0
10
5505.80615006871
20
2353.56544153719
30
0.00064760160879509
11
5506.22036363108
21
2353.247604292
31
0.00064726752840365
  0
LINE
 8
GROUP0
10
5503.07409926115
20
2352.83339072962
30
0.000649970889586571
11
5503.39193650634
21
2353.247604292
31
0.000649675970723906
  0
LINE
 8
GROUP0
10
5506.80615006871
20
2351.83339072963
30
0.000646851607802928
11
5506.73800172129
21
2351.31575263942
31
0.000646939974814059
  0
LINE
 8
GROUP0
10
6086.80622522794
20
2553.33344290891
30
0.000200501363930561
11
6086.28858714058
21
2553.2652945579
31
0.000200864532298828
  0
LINE
 8
GROUP0
10
5504.28851197851
20
2353.7652423822
30
0.000648882187247973
11
5504.80615006871
21
2353.83339072962
31
0.000648437417622399
  0
LINE
 8
GROUP0
10
5504.80615006871
20
2353.83339072962
30
0.000648437417622399
11
5505.32378815892
21
2353.7652423822
31
0.000648000636669299
  0
LINE
 8
GROUP0
10
5550.30614848674
20
2561.33344276536
30
0.000618399764899413
11
5515.30614663882
21
2561.33344193701
31
0.000641453613346854
  0
LINE
 8
GROUP0
10
6087.32386331632
20
2553.26529456569
30
0.000200066464999826
11
6086.80622522794
21
2553.33344290891
31
0.000200501363930561
  0
LINE
 8
GROUP0
10
6086.28858716963
20
2549.40159127015
30
0.000198831130178723
11
6086.80622525801
21
2549.33344292693
31
0.000198396231247988
  0
LINE
 8
GROUP0
10
6088.22043878834
20
2552.74765648456
30
0.000199102893733311
11
6087.80622522545
21
2553.06549372521
31
0.000199589472858747
  0
LINE
 8
GROUP0
10
6085.07417443569
20
2552.33344290039
30
0.000201310274338379
11
6084.87437359521
21
2551.85108099127
31
0.000201210436876703
  0
LINE
 8
GROUP0
10
6084.87437359521
20
2551.85108099127
30
0.000201210436876703
11
6084.80622525198
21
2551.33344290288
31
0.000200990546267871
  0
LINE
 8
GROUP0
10
5550.3061481627
20
2601.33344455844
30
0.000617104911369415
11
5550.30614848674
21
2561.33344276536
31
0.000618399764899413
  0
LINE
 8
GROUP0
10
5505.32378815892
20
2353.7652423822
30
0.000648000636669299
11
5505.80615006871
21
2353.56544153719
31
0.00064760160879509
  0
LINE
 8
GROUP0
10
5502.80615006872
20
2351.83339072963
30
0.000650257659513132
11
5502.87429841614
21
2352.35102881983
31
0.000650169292502001
  0
LINE
 8
GROUP0
10
5550.3061687622
20
2142.3333742469
30
0.000622554303034439
11
5550.30616876221
21
2102.33341186954
31
0.000607368777209194
  0
LINE
 8
GROUP0
10
5503.39193650634
20
2353.247604292
30
0.000649675970723906
11
5503.80615006872
21
2353.56544153719
31
0.000649304634650544
  0
LINE
 8
GROUP0
10
5506.22036363108
20
2353.247604292
30
0.00064726752840365
11
5506.53820087628
21
2352.83339072962
31
0.000647021162415418
  0
LINE
 8
GROUP0
10
5506.53820087628
20
2350.83339072963
30
0.000647138377728784
11
5506.22036363108
21
2350.41917716726
31
0.000647433296591449
  0
LINE
 8
GROUP0
10
6084.80622525198
20
2551.33344290288
30
0.000200990546267871
11
6084.87437360299
21
2550.81580481552
31
0.000200665587949128
  0
LINE
 8
GROUP0
10
6085.39201167634
20
2552.74765646329
30
0.00020128325535968
11
6085.07417443569
21
2552.33344290039
31
0.000201310274338379
  0
LINE
 8
GROUP0
10
6088.73807689074
20
2550.81580484457
30
0.000197687158301846
11
6088.80622523396
21
2551.33344293296
31
0.000197907048910678
  0
LINE
 8
GROUP0
10
5515.30614309654
20
2142.3333742469
30
0.000634464730419537
11
5550.3061687622
21
2142.3333742469
31
0.000622554303034439
  0
LINE
 8
GROUP0
10
6085.8062252605
20
2549.60139211064
30
0.000199308122319802
11
6086.28858716963
21
2549.40159127015
31
0.000198831130178723
  0
LINE
 8
GROUP0
10
5812.72047673783
20
2086.24792717485
30
0.000540977252977653
11
5813.03831438421
21
2085.8337139222
31
0.000540730886989421
  0
LINE
 8
GROUP0
10
5811.82390451638
20
2082.90186109915
30
0.000541936801754445
11
5811.30626649381
21
2082.83371224943
31
0.000542381570657402
  0
LINE
 8
GROUP0
10
5813.30626454661
20
2084.83371418517
30
0.000540561331655021
11
5813.23811670187
21
2084.3160760303
31
0.00054064969794424
  0
LINE
 8
GROUP0
10
5506.73800172129
20
2352.35102881983
30
0.00064687929960307
11
5506.80615006871
21
2351.83339072963
31
0.000646851607802928
  0
LINE
 8
GROUP0
10
5812.72047948349
20
2083.41950005821
30
0.000541143018999718
11
5812.30626623084
21
2083.10166241183
31
0.000541514354351874
  0
LINE
 8
GROUP0
10
5503.80615006872
20
2353.56544153719
30
0.000649304634650544
11
5504.28851197851
21
2353.7652423822
31
0.000648882187247973
  0
LINE
 8
GROUP0
10
5813.03831438421
20
2085.8337139222
30
0.000540730886989421
11
5813.23811569689
21
2085.35135220774
31
0.000540589023455162
  0
LINE
 8
GROUP0
10
5506.73800172129
20
2351.31575263942
30
0.000646939974814059
11
5506.53820087628
21
2350.83339072963
31
0.000647138377728784
  0
LINE
 8
GROUP0
10
5812.30626286811
20
2086.56576401704
30
0.000541311334091005
11
5812.72047673783
21
2086.24792717485
31
0.000540977252977653
  0
LINE
 8
GROUP0
10
5504.80615006871
20
2349.83339072963
30
0.000648671849692956
11
5504.28851197851
21
2349.90153907705
31
0.000649108630646761
  0
LINE
 8
GROUP0
10
5503.07409926115
20
2350.83339072963
30
0.000650088104899937
11
5502.87429841614
21
2351.31575263942
31
0.00065022996771299
  0
LINE
 8
GROUP0
10
5504.28851197851
20
2349.90153907705
30
0.000649108630646761
11
5503.80615006872
21
2350.10133992206
31
0.00064950765852097
  0
LINE
 8
GROUP0
10
5505.32378815892
20
2349.90153907705
30
0.000648227080068087
11
5504.80615006871
21
2349.83339072963
31
0.000648671849692956
  0
LINE
 8
GROUP0
10
5813.23811569689
20
2085.35135220774
30
0.000540589023455162
11
5813.30626454661
21
2084.83371418517
31
0.000540561331655021
  0
LINE
 8
GROUP0
10
5811.30626261087
20
2086.83371223797
30
0.000542147142918314
11
5811.82390076575
21
2086.76556439323
31
0.000541710361243303
  0
LINE
 8
GROUP0
10
5503.80615006872
20
2350.10133992206
30
0.00064950765852097
11
5503.39193650634
21
2350.41917716726
31
0.000649841738911705
  0
LINE
 8
GROUP0
10
5505.80615006871
20
2350.10133992206
30
0.000647804632665516
11
5505.32378815892
21
2349.90153907705
31
0.000648227080068087
  0
LINE
 8
GROUP0
10
5506.22036363108
20
2350.41917716726
30
0.000647433296591449
11
5505.80615006871
21
2350.10133992206
31
0.000647804632665516
  0
LINE
 8
GROUP0
10
5813.23811670187
20
2084.3160760303
30
0.00054064969794424
11
5813.03831632568
21
2083.83371392793
31
0.000540848100858965
  0
LINE
 8
GROUP0
10
5506.53820087628
20
2352.83339072962
30
0.000647021162415418
11
5506.73800172129
21
2352.35102881983
31
0.00064687929960307
  0
LINE
 8
GROUP0
10
5502.87429841614
20
2351.31575263942
30
0.00065022996771299
11
5502.80615006872
21
2351.83339072963
31
0.000650257659513132
  0
LINE
 8
GROUP0
10
5811.82390076575
20
2086.76556439323
30
0.000541710361243303
11
5812.30626286811
21
2086.56576401704
31
0.000541311334091005
  0
LINE
 8
GROUP0
10
5809.89204962119
20
2086.24792442919
30
0.000543385694575998
11
5810.30626287384
21
2086.56576207557
31
0.000543014359224547
  0
LINE
 8
GROUP0
10
5503.39193650634
20
2350.41917716726
30
0.000649841738911705
11
5503.07409926115
21
2350.83339072963
31
0.000650088104899937
  0
LINE
 8
GROUP0
10
5502.87429841614
20
2352.35102881983
30
0.000650169292502001
11
5503.07409926115
21
2352.83339072962
31
0.000649970889586571
  0
LINE
 8
GROUP0
10
5811.30626649381
20
2082.83371224943
30
0.000542381570657402
11
5810.78862833894
21
2082.90186009417
31
0.000542818352333119
  0
LINE
 8
GROUP0
10
5810.78862833894
20
2082.90186009417
30
0.000542818352333119
11
5810.30626623657
21
2083.10166047036
31
0.000543217379485417
  0
LINE
 8
GROUP0
10
5810.30626623657
20
2083.10166047036
30
0.000543217379485417
11
5809.89205236685
21
2083.41949731255
31
0.000543551460598063
  0
LINE
 8
GROUP0
10
5809.30625581042
20
2618.83345417068
30
0.000532024229554234
11
5809.37440414935
21
2619.35109226184
31
0.000531935863265015
  0
LINE
 8
GROUP0
10
5811.82389393147
20
2616.90160255992
30
0.00052999365010919
11
5811.30625584254
21
2616.83345420404
31
0.000530438419734058
  0
LINE
 8
GROUP0
10
5810.7886245883
20
2086.76556338825
30
0.000542591911821977
11
5811.30626261087
21
2086.83371223797
31
0.000542147142918314
  0
LINE
 8
GROUP0
10
5809.89204227102
20
2617.41924061833
30
0.000531608308952808
11
5809.57420501914
21
2617.83345417537
31
0.00053185467494104
  0
LINE
 8
GROUP0
10
5811.30625584254
20
2616.83345420404
30
0.000530438419734058
11
5810.78861775138
21
2616.90160254297
31
0.000530875201409775
  0
LINE
 8
GROUP0
10
5810.78861775138
20
2616.90160254297
30
0.000530875201409775
11
5810.30625583847
21
2617.10140338002
31
0.000531274228562073
  0
LINE
 8
GROUP0
10
5810.30625583847
20
2617.10140338002
30
0.000531274228562073
11
5809.89204227102
21
2617.41924061833
31
0.000531608308952808
  0
LINE
 8
GROUP0
10
5810.78861768813
20
2620.76530584692
30
0.000530648758732899
11
5811.30625577706
21
2620.8334542028
31
0.000530203989107325
  0
LINE
 8
GROUP0
10
5809.89205236685
20
2083.41949731255
30
0.000543551460598063
11
5809.57421472047
21
2083.8337105652
31
0.000543797826586295
  0
LINE
 8
GROUP0
10
5809.37441340779
20
2084.31607227966
30
0.000543939690121259
11
5809.30626455807
21
2084.83371030223
31
0.000543967381921401
  0
LINE
 8
GROUP0
10
5809.37441240281
20
2085.35134845711
30
0.000543879015632182
11
5809.574212779
21
2085.83371055947
31
0.000543680612716752
  0
LINE
 8
GROUP0
10
5813.03831632568
20
2083.83371392793
30
0.000540848100858965
11
5812.72047948349
21
2083.41950005821
31
0.000541143018999718
  0
LINE
 8
GROUP0
10
5809.574212779
20
2085.83371055947
30
0.000543680612716752
11
5809.89204962119
21
2086.24792442919
31
0.000543385694575998
  0
LINE
 8
GROUP0
10
5810.30625578176
20
2620.56550499408
30
0.000531071205413558
11
5810.78861768813
21
2620.76530584692
31
0.000530648758732899
  0
LINE
 8
GROUP0
10
5809.5742049864
20
2619.83345417475
30
0.000531737459627674
11
5809.89204222471
21
2620.2476677422
31
0.000531442541486921
  0
LINE
 8
GROUP0
10
5812.30626623084
20
2083.10166241183
30
0.000541514354351874
11
5811.82390451638
21
2082.90186109915
31
0.000541936801754445
  0
LINE
 8
GROUP0
10
5812.30625583785
20
2617.10140341276
30
0.00052957120342853
11
5811.82389393147
21
2616.90160255992
31
0.00052999365010919
  0
LINE
 8
GROUP0
10
5809.30626455807
20
2084.83371030223
30
0.000543967381921401
11
5809.37441240281
21
2085.35134845711
31
0.000543879015632182
  0
LINE
 8
GROUP0
10
5809.57421472047
20
2083.8337105652
30
0.000543797826586295
11
5809.37441340779
21
2084.31607227966
31
0.000543939690121259
  0
LINE
 8
GROUP0
10
5810.30626287384
20
2086.56576207557
30
0.000543014359224547
11
5810.7886245883
21
2086.76556338825
31
0.000542591911821977
  0
LINE
 8
GROUP0
10
5809.37440414935
20
2619.35109226184
30
0.000531935863265015
11
5809.5742049864
21
2619.83345417475
31
0.000531737459627674
  0
LINE
 8
GROUP0
10
5809.3744041663
20
2618.31581608175
30
0.000531996537754093
11
5809.30625581042
21
2618.83345417068
31
0.000532024229554234
  0
LINE
 8
GROUP0
10
5812.72046939489
20
2617.41924066464
30
0.000529199867354463
11
5812.30625583785
21
2617.10140341276
31
0.00052957120342853
  0
LINE
 8
GROUP0
10
6178.80616871215
20
2152.3339348507
30
0.000344353185194751
11
6178.73802036474
21
2151.81629676069
31
0.000344251030398124
  0
LINE
 8
GROUP0
10
6176.28853062295
20
2154.26578650259
30
0.0003442148445854
11
6176.80616871296
21
2154.33393484998
31
0.000344323639523969
  0
LINE
 8
GROUP0
10
5813.2381074533
20
2619.35109232509
30
0.000528645871087996
11
5813.30625580918
21
2618.83345423616
31
0.000528618179287854
  0
LINE
 8
GROUP0
10
5813.23810747025
20
2618.315816145
30
0.000528706545577073
11
5813.0383066332
21
2617.83345423209
31
0.00052890494921371
  0
LINE
 8
GROUP0
10
6175.39195515112
20
2153.74814841261
30
0.000343957407364343
11
6175.80616871334
21
2154.06598565767
31
0.000344089930086744
  0
LINE
 8
GROUP0
10
6175.07411790599
20
2151.33393485116
30
0.000343480968930732
11
6174.87431706106
21
2151.81629676078
31
0.000343526807417521
  0
LINE
 8
GROUP0
10
6178.22038227478
20
2153.74814841254
30
0.000344487576223201
11
6178.53821951985
21
2153.33393485032
31
0.000344475630033031
  0
LINE
 8
GROUP0
10
6178.53821951985
20
2153.33393485032
30
0.000344475630033031
11
6178.73802036477
21
2152.85157294071
31
0.000344429791546241
  0
LINE
 8
GROUP0
10
6175.80616871334
20
2154.06598565767
30
0.000344089930086744
11
6176.28853062295
21
2154.26578650259
31
0.0003442148445854
  0
LINE
 8
GROUP0
10
6178.5382195198
20
2151.33393485108
30
0.000344130289991296
11
6178.22038227472
21
2150.91972128888
31
0.000343999191600125
  0
LINE
 8
GROUP0
10
6178.22038227472
20
2150.91972128888
30
0.000343999191600125
11
6177.80616871249
21
2150.60188404381
31
0.000343866668877019
  0
LINE
 8
GROUP0
10
5809.57420501914
20
2617.83345417537
30
0.00053185467494104
11
5809.3744041663
21
2618.31581608175
31
0.000531996537754093
  0
LINE
 8
GROUP0
10
5813.0383066332
20
2617.83345423209
30
0.00052890494921371
11
5812.72046939489
21
2617.41924066464
31
0.000529199867354463
  0
LINE
 8
GROUP0
10
6176.80616871296
20
2154.33393484998
30
0.000344323639523969
11
6177.32380680297
21
2154.26578650257
31
0.000344408900150261
  0
LINE
 8
GROUP0
10
5811.82389386822
20
2620.76530586387
30
0.000529767207432313
11
5812.30625578113
21
2620.56550502682
31
0.000529368180280015
  0
LINE
 8
GROUP0
10
5809.89204222471
20
2620.2476677422
30
0.000531442541486921
11
5810.30625578176
21
2620.56550499408
31
0.000531071205413558
  0
LINE
 8
GROUP0
10
6177.32380680297
20
2154.26578650257
30
0.000344408900150261
11
6177.80616871257
21
2154.06598565763
31
0.000344464815799261
  0
LINE
 8
GROUP0
10
5813.30625580918
20
2618.83345423616
30
0.000528618179287854
11
5813.23810747025
21
2618.315816145
31
0.000528706545577073
  0
LINE
 8
GROUP0
10
6177.80616871257
20
2154.06598565763
30
0.000344464815799261
11
6178.22038227478
21
2153.74814841254
31
0.000344487576223201
  0
LINE
 8
GROUP0
10
6178.73802036477
20
2152.85157294071
30
0.000344429791546241
11
6178.80616871215
21
2152.3339348507
31
0.000344353185194751
  0
LINE
 8
GROUP0
10
6174.87431706106
20
2151.81629676078
30
0.000343526807417521
11
6174.80616871368
21
2152.33393485079
31
0.000343603413769011
  0
LINE
 8
GROUP0
10
6174.80616871368
20
2152.33393485079
30
0.000343603413769011
11
6174.87431706109
21
2152.85157294079
31
0.000343705568566344
  0
LINE
 8
GROUP0
10
6175.07411790603
20
2153.3339348504
30
0.000343826308972467
11
6175.39195515112
21
2153.74814841261
31
0.000343957407364343
  0
LINE
 8
GROUP0
10
5812.72046934858
20
2620.2476677885
30
0.000529034099888576
11
5813.03830660046
21
2619.83345423146
31
0.000528787733900343
  0
LINE
 8
GROUP0
10
5813.03830660046
20
2619.83345423146
30
0.000528787733900343
11
5813.2381074533
21
2619.35109232509
31
0.000528645871087996
  0
LINE
 8
GROUP0
10
6178.73802036474
20
2151.81629676069
30
0.000344251030398124
11
6178.5382195198
21
2151.33393485108
31
0.000344130289991296
  0
LINE
 8
GROUP0
10
5812.30625578113
20
2620.56550502682
30
0.000529368180280015
11
5812.72046934858
21
2620.2476677885
31
0.000529034099888576
  0
LINE
 8
GROUP0
10
6174.87431706109
20
2152.85157294079
30
0.000343705568566344
11
6175.07411790603
21
2153.3339348504
31
0.000343826308972467
  0
LINE
 8
GROUP0
10
5811.30625577706
20
2620.8334542028
30
0.000530203989107325
11
5811.82389386822
21
2620.76530586387
31
0.000529767207432313
  0
LINE
 8
GROUP0
10
6177.32380680288
20
2150.40208319889
30
0.000343741754378363
11
6176.80616871287
21
2150.33393485151
31
0.000343632959439794
  0
LINE
 8
GROUP0
10
6096.80614643502
20
2142.33333967858
30
0.000203052954793748
11
6186.80616871292
21
2142.33393485065
31
0.000207645890282432
  0
LINE
 8
GROUP0
10
6186.80616871292
20
2561.33393485048
30
0.000207645889884817
11
6096.80619888949
21
2561.33333967841
31
0.0
  0
LINE
 8
GROUP0
10
6166.80616871292
20
2283.8342724394
30
0.000301978357817534
11
6186.80616871292
21
2283.8342724394
31
0.000301978357819649
  0
LINE
 8
GROUP0
10
6088.53821151932
20
2203.33334219406
30
6.61159497982178e-005
11
6088.22037427412
21
2202.91912863169
31
6.59848514063421e-005
  0
LINE
 8
GROUP0
10
6088.22037427412
20
2205.74755575643
30
6.64732360294185e-005
11
6088.53821151932
21
2205.33334219406
31
6.6461289839953e-005
  0
LINE
 8
GROUP0
10
6085.39194714937
20
2202.91912863169
30
6.54546825474833e-005
11
6085.07410990418
21
2203.33334219406
31
6.54666287369487e-005
  0
LINE
 8
GROUP0
10
6088.73801236432
20
2203.81570410385
30
6.6236690204341e-005
11
6088.53821151932
21
2203.33334219406
31
6.61159497982178e-005
  0
LINE
 8
GROUP0
10
6087.32379880195
20
2202.40149054148
30
6.57274141852848e-005
11
6086.80616071175
21
2202.33334219406
31
6.56186192467156e-005
  0
LINE
 8
GROUP0
10
6175.80616871326
20
2150.60188404386
30
0.000343491783164501
11
6175.39195515105
21
2150.91972128894
31
0.000343469022740561
  0
LINE
 8
GROUP0
10
6076.80615169298
20
2184.33334219413
30
0.000192309195435381
11
6096.80615169298
21
2184.33333969034
31
0.00019230919544384
  0
LINE
 8
GROUP0
10
6096.80619363145
20
2519.33333967841
30
1.01768986212392e-005
11
6076.80619363145
21
2519.3333421822
31
1.01768986127793e-005
  0
LINE
 8
GROUP0
10
6166.80616871292
20
2419.8342724394
30
0.00030197835768852
11
6166.80616871292
21
2283.8342724394
31
0.000301978357817534
  0
LINE
 8
GROUP0
10
6186.80616871292
20
2419.8342724394
30
0.000301978357690635
11
6166.80616871292
21
2419.8342724394
31
0.00030197835768852
  0
LINE
 8
GROUP0
10
6087.80616071175
20
2202.60129138649
30
6.58523286832358e-005
11
6087.32379880195
21
2202.40149054148
31
6.57274141852848e-005
  0
LINE
 8
GROUP0
10
6088.22037427412
20
2202.91912863169
30
6.59848514063421e-005
11
6087.80616071175
21
2202.60129138649
31
6.58523286832358e-005
  0
LINE
 8
GROUP0
10
6186.80616871292
20
2419.8342724394
30
0.000301978357690635
11
6186.80616871292
21
2561.33393485048
31
0.000207645889884817
  0
LINE
 8
GROUP0
10
6088.53821151932
20
2205.33334219406
30
6.6461289839953e-005
11
6088.73801236432
21
2204.85098028427
31
6.64154513524584e-005
  0
LINE
 8
GROUP0
10
6085.07410990418
20
2203.33334219406
30
6.54666287369487e-005
11
6084.87430905917
21
2203.81570410385
31
6.55124672237384e-005
  0
LINE
 8
GROUP0
10
6086.28852262154
20
2202.40149054148
30
6.55333586204232e-005
11
6085.80616071175
21
2202.60129138649
31
6.54774429707183e-005
  0
LINE
 8
GROUP0
10
6176.80616871287
20
2150.33393485151
30
0.000343632959439794
11
6176.28853062286
21
2150.40208319891
31
0.000343547698813501
  0
LINE
 8
GROUP0
10
6086.80616071175
20
2202.33334219406
30
6.56186192467156e-005
11
6086.28852262154
21
2202.40149054148
31
6.55333586204232e-005
  0
LINE
 8
GROUP0
10
6086.28852262154
20
2206.26519384664
30
6.6200504391617e-005
11
6086.80616071175
21
2206.33334219406
31
6.63092993301861e-005
  0
LINE
 8
GROUP0
10
6076.80619363145
20
2519.3333421822
30
1.01768986127793e-005
11
6076.80615169298
21
2184.33334219413
31
0.000192309195435381
  0
LINE
 8
GROUP0
10
6085.80616071175
20
2202.60129138649
30
6.54774429707183e-005
11
6085.39194714937
21
2202.91912863169
31
6.54546825474833e-005
  0
LINE
 8
GROUP0
10
6085.80616071175
20
2206.06539300163
30
6.6075589893666e-005
11
6086.28852262154
21
2206.26519384664
31
6.6200504391617e-005
  0
LINE
 8
GROUP0
10
6096.80615169298
20
2184.33333969034
30
0.00019230919544384
11
6096.80614643502
21
2142.33333967858
31
0.000203052954793748
  0
LINE
 8
GROUP0
10
6084.87430905917
20
2204.85098028427
30
6.56912283725608e-005
11
6085.07410990418
21
2205.33334219406
31
6.5811968778684e-005
  0
LINE
 8
GROUP0
10
6096.80619888949
20
2561.33333967841
30
0.0
11
6096.80619363145
21
2519.33333967841
31
1.01768986212392e-005
  0
LINE
 8
GROUP0
10
6177.80616871249
20
2150.60188404381
30
0.000343866668877019
11
6177.32380680288
21
2150.40208319889
31
0.000343741754378363
  0
LINE
 8
GROUP0
10
6176.28853062286
20
2150.40208319891
30
0.000343547698813501
11
6175.80616871326
21
2150.60188404386
31
0.000343491783164501
  0
LINE
 8
GROUP0
10
6186.80616871292
20
2142.33393485065
30
0.000207645890282432
11
6186.80616871292
21
2283.8342724394
31
0.000301978357819649
  0
LINE
 8
GROUP0
10
6085.07414683518
20
2500.33427243926
30
4.57773391235705e-005
11
6085.39198408038
21
2500.74848600163
31
4.59084375154461e-005
  0
LINE
 8
GROUP0
10
6085.07414683518
20
2498.33427243926
30
4.54319990818353e-005
11
6084.87434599018
21
2498.81663434905
31
4.54778375686249e-005
  0
LINE
 8
GROUP0
10
6088.53824845032
20
2500.33427243926
30
4.64266601848395e-005
11
6088.73804929533
21
2499.85191052946
31
4.63808216973449e-005
  0
LINE
 8
GROUP0
10
6088.22041120513
20
2500.74848600163
30
4.6438606374305e-005
11
6088.53824845032
21
2500.33427243926
31
4.64266601848395e-005
  0
LINE
 8
GROUP0
10
6084.87434599018
20
2498.81663434905
30
4.54778375686249e-005
11
6084.80619764275
21
2499.33427243926
31
4.5554443920115e-005
  0
LINE
 8
GROUP0
10
6175.80616871292
20
2549.60188404291
30
0.000210492684050112
11
6175.39195515054
21
2549.91972128811
31
0.000210469923626172
  0
LINE
 8
GROUP0
10
6086.80616071175
20
2206.33334219406
30
6.63092993301861e-005
11
6087.32379880195
21
2206.26519384664
31
6.63945599564786e-005
  0
LINE
 8
GROUP0
10
6088.80619764275
20
2499.33427243926
30
4.63042153458548e-005
11
6088.73804929533
21
2498.81663434905
31
4.62020605492275e-005
  0
LINE
 8
GROUP0
10
6088.22041120513
20
2497.92005887688
30
4.59502217512286e-005
11
6087.80619764275
21
2497.60222163169
31
4.58176990281223e-005
  0
LINE
 8
GROUP0
10
6086.28855955255
20
2501.26612409184
30
4.61658747365035e-005
11
6086.80619764275
21
2501.33427243926
31
4.62746696750727e-005
  0
LINE
 8
GROUP0
10
6084.87434599018
20
2499.85191052946
30
4.56565987174473e-005
11
6085.07414683518
21
2500.33427243926
31
4.57773391235705e-005
  0
LINE
 8
GROUP0
10
6085.39194714937
20
2205.74755575643
30
6.59430671705596e-005
11
6085.80616071175
21
2206.06539300163
31
6.6075589893666e-005
  0
LINE
 8
GROUP0
10
6088.73801236432
20
2204.85098028427
30
6.64154513524584e-005
11
6088.80616071175
21
2204.33334219406
31
6.63388450009683e-005
  0
LINE
 8
GROUP0
10
6085.80619764275
20
2501.06632324683
30
4.60409602378475e-005
11
6086.28855955255
21
2501.26612409184
31
4.61658747365035e-005
  0
LINE
 8
GROUP0
10
6087.32383573296
20
2501.26612409184
30
4.63599303013651e-005
11
6087.80619764275
21
2501.06632324683
31
4.6415845950365e-005
  0
LINE
 8
GROUP0
10
6084.80619764275
20
2499.33427243926
30
4.5554443920115e-005
11
6084.87434599018
21
2499.85191052946
31
4.56565987174473e-005
  0
LINE
 8
GROUP0
10
6175.07411790535
20
2550.33393485048
30
0.000210481869815637
11
6174.87431706034
21
2550.81629676028
31
0.000210527708303132
  0
LINE
 8
GROUP0
10
6174.80616871292
20
2551.33393485048
30
0.000210604314654622
11
6174.87431706034
21
2551.85157294069
31
0.000210706469451249
  0
LINE
 8
GROUP0
10
6086.80619764275
20
2501.33427243926
30
4.62746696750727e-005
11
6087.32383573296
21
2501.26612409184
31
4.63599303013651e-005
  0
LINE
 8
GROUP0
10
6084.87430905917
20
2203.81570410385
30
6.55124672237384e-005
11
6084.80616071175
21
2204.33334219406
31
6.55890735759335e-005
  0
LINE
 8
GROUP0
10
6174.87431706034
20
2550.81629676028
30
0.000210527708303132
11
6174.80616871292
21
2551.33393485048
31
0.000210604314654622
  0
LINE
 8
GROUP0
10
6088.80616071175
20
2204.33334219406
30
6.63388450009683e-005
11
6088.73801236432
21
2203.81570410385
31
6.6236690204341e-005
  0
LINE
 8
GROUP0
10
6085.07410990418
20
2205.33334219406
30
6.5811968778684e-005
11
6085.39194714937
21
2205.74755575643
31
6.59430671705596e-005
  0
LINE
 8
GROUP0
10
6086.80619764275
20
2497.33427243926
30
4.55839895908972e-005
11
6086.28855955255
21
2497.40242078668
31
4.54987289646047e-005
  0
LINE
 8
GROUP0
10
6087.32383573296
20
2497.40242078668
30
4.56927845294663e-005
11
6086.80619764275
21
2497.33427243926
31
4.55839895908972e-005
  0
LINE
 8
GROUP0
10
6087.80619764275
20
2501.06632324683
30
4.6415845950365e-005
11
6088.22041120513
21
2500.74848600163
31
4.6438606374305e-005
  0
LINE
 8
GROUP0
10
6088.73804929533
20
2499.85191052946
30
4.63808216973449e-005
11
6088.80619764275
21
2499.33427243926
31
4.63042153458548e-005
  0
LINE
 8
GROUP0
10
6084.80616071175
20
2204.33334219406
30
6.55890735759335e-005
11
6084.87430905917
21
2204.85098028427
31
6.56912283725608e-005
  0
LINE
 8
GROUP0
10
6087.32379880195
20
2206.26519384664
30
6.63945599564786e-005
11
6087.80616071175
21
2206.06539300163
31
6.64504756061834e-005
  0
LINE
 8
GROUP0
10
6087.80616071175
20
2206.06539300163
30
6.64504756061834e-005
11
6088.22037427412
21
2205.74755575643
31
6.64732360294185e-005
  0
LINE
 8
GROUP0
10
6086.28855955255
20
2497.40242078668
30
4.54987289646047e-005
11
6085.80619764275
21
2497.60222163169
31
4.54428133156048e-005
  0
LINE
 8
GROUP0
10
6085.39198408038
20
2500.74848600163
30
4.59084375154461e-005
11
6085.80619764275
21
2501.06632324683
31
4.60409602378475e-005
  0
LINE
 8
GROUP0
10
6176.28853062271
20
2553.26578650306
30
0.000211215745471011
11
6176.80616871292
21
2553.33393485048
31
0.00021132454040958
  0
LINE
 8
GROUP0
10
6175.39195515054
20
2549.91972128811
30
0.000210469923626172
11
6175.07411790535
21
2550.33393485048
31
0.000210481869815637
  0
LINE
 8
GROUP0
10
6175.80616871292
20
2553.06598565805
30
0.000211090830972355
11
6176.28853062271
21
2553.26578650306
31
0.000211215745471011
  0
LINE
 8
GROUP0
10
6176.80616871292
20
2553.33393485048
30
0.00021132454040958
11
6177.32380680312
21
2553.26578650306
31
0.000211409801035872
  0
LINE
 8
GROUP0
10
6178.73802036549
20
2551.85157294069
30
0.000211430692431852
11
6178.80616871292
21
2551.33393485048
31
0.000211354086080362
  0
LINE
 8
GROUP0
10
6178.80616871292
20
2551.33393485048
30
0.000211354086080362
11
6178.73802036549
21
2550.81629676028
31
0.00021125193128303
  0
LINE
 8
GROUP0
10
6175.07411790535
20
2552.33393485048
30
0.000210827209858078
11
6175.39195515054
21
2552.74814841286
31
0.000210958308249248
  0
LINE
 8
GROUP0
10
6178.53821952048
20
2552.33393485048
30
0.000211476530918642
11
6178.73802036549
21
2551.85157294069
31
0.000211430692431852
  0
LINE
 8
GROUP0
10
6177.80616871292
20
2553.06598565805
30
0.000211465716684872
11
6178.22038227529
21
2552.74814841285
31
0.000211488477108812
  0
LINE
 8
GROUP0
10
6174.87431706034
20
2551.85157294069
30
0.000210706469451249
11
6175.07411790535
21
2552.33393485048
31
0.000210827209858078
  0
LINE
 8
GROUP0
10
6178.22038227529
20
2552.74814841285
30
0.000211488477108812
11
6178.53821952048
21
2552.33393485048
31
0.000211476530918642
  0
LINE
 8
GROUP0
10
6177.32380680312
20
2549.4020831979
30
0.000210742655263973
11
6176.80616871292
21
2549.33393485048
31
0.000210633860325404
  0
LINE
 8
GROUP0
10
6178.22038227529
20
2549.91972128811
30
0.000211000092485031
11
6177.80616871292
21
2549.60188404291
31
0.000210867569762629
  0
LINE
 8
GROUP0
10
6085.39198408038
20
2497.92005887688
30
4.54200528916648e-005
11
6085.07414683518
21
2498.33427243926
31
4.54319990818353e-005
  0
LINE
 8
GROUP0
10
6178.53821952048
20
2428.8342724394
30
0.000298797037715259
11
6178.22038227529
21
2428.42005887703
31
0.000298665939324089
  0
LINE
 8
GROUP0
10
6177.32380680312
20
2427.90242078682
30
0.00029840850138112
11
6176.80616871291
21
2427.8342724394
31
0.000298299706442551
  0
LINE
 8
GROUP0
10
6085.80619764275
20
2497.60222163169
30
4.54428133156048e-005
11
6085.39198408038
21
2497.92005887688
31
4.54200528916648e-005
  0
LINE
 8
GROUP0
10
6177.80616871291
20
2428.10222163183
30
0.000298533416600982
11
6177.32380680312
21
2427.90242078682
31
0.00029840850138112
  0
LINE
 8
GROUP0
10
6177.32380680312
20
2553.26578650306
30
0.000211409801035872
11
6177.80616871292
21
2553.06598565805
31
0.000211465716684872
  0
LINE
 8
GROUP0
10
6178.22038227529
20
2428.42005887703
30
0.000298665939324089
11
6177.80616871291
21
2428.10222163183
31
0.000298533416600982
  0
LINE
 8
GROUP0
10
6177.80616871292
20
2549.60188404291
30
0.000210867569762629
11
6177.32380680312
21
2549.4020831979
31
0.000210742655263973
  0
LINE
 8
GROUP0
10
6088.53824845032
20
2498.33427243926
30
4.60813201423993e-005
11
6088.22041120513
21
2497.92005887688
31
4.59502217512286e-005
  0
LINE
 8
GROUP0
10
6088.73804929533
20
2498.81663434905
30
4.62020605492275e-005
11
6088.53824845032
21
2498.33427243926
31
4.60813201423993e-005
  0
LINE
 8
GROUP0
10
6176.28853062271
20
2549.4020831979
30
0.000210548599699112
11
6175.80616871292
21
2549.60188404291
31
0.000210492684050112
  0
LINE
 8
GROUP0
10
6175.39195515054
20
2552.74814841286
30
0.000210958308249248
11
6175.80616871292
21
2553.06598565805
31
0.000211090830972355
  0
LINE
 8
GROUP0
10
6176.80616871292
20
2549.33393485048
30
0.000210633860325404
11
6176.28853062271
21
2549.4020831979
31
0.000210548599699112
  0
LINE
 8
GROUP0
10
6178.73802036549
20
2550.81629676028
30
0.00021125193128303
11
6178.53821952048
21
2550.33393485048
31
0.000211131190876906
  0
LINE
 8
GROUP0
10
6087.80619764275
20
2497.60222163169
30
4.58176990281223e-005
11
6087.32383573296
21
2497.40242078668
31
4.56927845294663e-005
  0
LINE
 8
GROUP0
10
6178.53821952048
20
2550.33393485048
30
0.000211131190876906
11
6178.22038227529
21
2549.91972128811
31
0.000211000092485031
 0
ENDSEC
 0
EOF
